<!--?xml version="1.0" encoding="utf-8"?-->
<!-- Generator: Adobe Illustrator 27.4.1, SVG Export Plug-In . SVG Version: 6.00 Build 0)  -->
<svg version="1.1" id="Layer_1" xmlns="http://www.w3.org/2000/svg" xmlns:xlink="http://www.w3.org/1999/xlink" x="0px" y="0px" viewBox="0 0 1920 1080" style="enable-background:new 0 0 1920 1080;" xml:space="preserve" width="100%" height="100%">
<style type="text/css">
	.st0{fill:#FDFAD6;stroke:#020202;stroke-width:0.3292;stroke-miterlimit:16.4621;}
	.st1{fill:#FBD1D1;stroke:#020202;stroke-width:0.3292;stroke-miterlimit:16.4621;}
	.st2{fill:#DBECCB;stroke:#020202;stroke-width:0.3292;stroke-miterlimit:16.4621;}
	.st3{fill:#D3D3D3;stroke:#030303;stroke-width:0.3292;stroke-miterlimit:16.4621;}
	.st4{fill:#E8D0E5;stroke:#020202;stroke-width:0.3292;stroke-miterlimit:16.4621;}
	.st5{enable-background:new    ;}
	.st6{fill:#040404;}
</style>
<path id="_x31_52" class="st0 area" d="M827.7,239.3c10.6-1.9,20.4-5,22.4-15.6c3.7-10,7.1-20.2,10.8-30.3c0.2-4.4,0.4-11,1.5-18.5
	c1.9-14.7,3.1-22.8,8.3-29.5c7.3-9.6,19.5-11.4,26.2-12.7c20.4-3.9,39.9,11.8,59.4,18.5c1,1,5,3.9,6-1c1.9-6,6-11.8,11.6-12.7
	c6.4-0.6,15-0.4,19.1-4.8L949.8,86l-18.9-16.8l-6.6-3.9l-4.2-1.2l-3.9,5l-3.3,2.7l-3.9,1.2l-24.3-0.6l-7.5,2.1l-6,3.9L853,95.9
	c-9.1,2.7-24.1,7.7-38.8,19.9c-7.5,6.2-12.9,12.5-16.8,17.9c-3.1,1-6.2,2.1-9.3,3.1l-7.1,0.6l-22.2,7.1l-12.9,6.4l-6.2,5
	c7.5,4.4,37.6,21.8,45.5,28.3c10.8,8.7,12.3,19.7,12.3,30.3c0,2.3,0.6,8.5,1.2,16.4C808.8,231.8,816.7,240.1,827.7,239.3z" title=""></path>
<path id="PATH_2" class="st0 area" d="M819.4,127.7" title=""></path>
<path id="_x36_38" class="st0 area active" d="M797.4,133.7c0,0,13.3,5.4,15.2,2.9c1.9-2.5,13.7,8.3,13.7,8.3l-6.8,15.8l13.7,5l20.8,1.9l10,3.3
	l-4.2,25.7l-9.6,27.2l-6.4,10l-16.2,5.6l-20.6-5.8l-8.5-2.7l-1.3-23.1l-5.8-17l-18.5-15l-24.1-14.5l-9.3-5.4l6.2-5l20.4-9.1
	l21.6-5.2L797.4,133.7z" title=""></path>
<path id="_x31_51" class="st1 area" d="M833.1,253c7.7,3.9,12.7-1,19.7-3.9c0,3.9-1,7.9,1,10.6c8.7,11.8,22.6-6,30.3,0
	c18.5,14.7,41.1,17.6,61.5,7.9c3.9-1.9,8.7,5,12.7,3.9c8.3-2.3,15.8-6,23.1-9.3l-1-0.8l-7.5-9.6l-4.2-10.4l0.6-12.5l6-10.8l9.3-8.1
	l10.4-5l20.1-3.9l16.4-10.2l11.4-3.3l-7.1-13.5l-8.7-11.4l-21.8-18.5l-10.4-11.2c-4.1,4.4-12.7,4.1-19.1,4.8c-6,1-9.6,6.9-11.8,12.7
	c-1,5-5,1.9-6,1c-19.7-6.9-39.1-22.6-59.6-18.5c-8.7,1.9-21.6,6-26.4,12.7c-12.7,17.5-3.9,41.1-16.6,60.6c-3.9,6-1.9,11.8-3.9,17.6
	c-1.9,10.6-11.8,13.7-22.6,15.6c-0.8,0-1.5,0-2.3,0C825.2,244.9,827.9,249.6,833.1,253z" title=""></path>
<path id="_x31_53" class="st2 area" d="M878,363.5c0,6-10.6,14.7-3.9,15.6c6.9,1,15.6,2.9,23.3,1c1-1,1-2.9,1.9-3.9
	c3.9-1.9,8.7,0,10.6-1.9c8.7-7.3,19.7-13.7,29.7-10.6l12.3-7.3l0.6-2.1v-2.7l1.2-2.7l58.6-9.3l12.9-7.5l3.3-4.2l2.1-4.2l1.7-5.4
	v-5.4l-1.7-4.2l-9.3-18.9l-5-4.2l-18.5-7.1l-17-15.4c-7.3,3.5-15,6.9-23.1,9.3c-3.9,1-8.7-6-12.7-3.9c-20.6,9.6-43,6.9-61.5-7.7
	c-7.7-6-21.6,11.8-30.3,0c-1.9-2.9-1-6.9-1-10.6c-6.9,2.9-11.8,7.9-19.7,3.9c-5-3.3-7.9-8.1-6.2-13.7c-10-0.4-17.5-7.5-26.8-8.5
	c1,10.4,2.3,24.1,3.7,36.4c2.3,22.4,4.2,41.8,4.2,46.3c0,2.3-0.6,6.2-1.3,11c-1.7,10.8-4.8,32-0.2,40.3
	C829.4,368.2,854.9,363.5,878,363.5z" title=""></path>
<path id="PATH_6" class="st3 area" d="M891.7,588.4c-1.2,0.4-2.1,0.6-3.1,1.2c1.7-0.6,2.9-0.6,3.1-0.8l1.9-0.6
	C893.1,588.2,892.3,588.2,891.7,588.4z" title=""></path>
<path id="_x31_48" class="st4 area" d="M915.3,588.4c3.9-5-2.9-10.6-1-15.6c3.9-8.7,15.6-11.8,19.7-19.7c2.9-6-3.9-12.7,0-16.6
	c6.9-8.7,16.6-11.8,23.5-21.6c5-6.9,15.6-7.7,22.6-13.7c1.9-1.9,3.9-6.9,1.9-7.9c-7.9-6-11.8-17.6-3.9-19.7
	c9.6-1.9,18.5-3.9,26.4-7.7c5.8-2.9,11.6,1.7,18.3,1l-14.8-10.6l-0.6-6.6l1.7-7.1l-2.9-8.7l-3.9-3.3l-41.9-18.9l-21.2-15.2l-6-10.8
	l-0.6-15.2l2.7-4.2l4.4-2.7c-10-3.3-20.8,3.3-29.7,10.6c-1.9,1.9-6.9,0-10.6,1.9c-1,1-1,2.9-1.9,3.9c-7.7,1.9-16.6,0-23.3-1
	c-6.9-1,3.9-9.6,3.9-15.6c-23.1,0-48.6,4.8-71.6,1.7c0.6,1.4,1.7,2.3,2.9,2.9c17.5,8.9,12.9,23.1,11,28.5c-2.9,8.3-18.3,12-26.4,9.8
	c-3.9-1-7.1-1.4-9.3-1.5L773.3,428c7.1,4.1,23.5,13.3,28.9,16.2c3.1,1.5,3.9,3.9,3.9,5.2c0.8,5-4.4,10-9.8,15.2
	c-2.1,1.9-4.2,4-5.2,5.4c-3.3,5-17.5,36.8-19.5,42.4c-2.1,6.2-19.1,27-28.9,33c-6.2,3.9-22.2,13.7-31.2,19.5
	c12.3,5.4,37,16.8,48.2,26.6c15.8,13.9,37.6,15.2,46.3,15.2c3.9,0,8.5,0.4,13.5,0.6c12.9,1,32.4,2.3,38-3.1
	c7.7-7.7,24.5-12.9,31.4-14.9c1-0.6,1.9-0.8,3.1-1.2c0.6,0,1.4-0.2,1.9,0l2.3-0.6l0.2,0.8C902.7,589.8,909.7,594,915.3,588.4z" title=""></path>
<path id="_x31_27" class="st2 area" d="M936.7,639.1c12.7,3.9,29.3,8.7,43,7.7c11.8,0,13.7-18.5,14.7-30.3c1-5,9.6-15.6,2.9-18.5
	c-10.6-5-22.6,6-34.3-3.9c-10.6-9.6-25.3,3.9-38.2,0c-2.9-1.5-6.2-4-9.8-5.8c-5.6,5.4-12.3,1.4-18.9,0l0.6,3.7
	c0,0.4,3.7,27.4,5.4,43.6c0.2,1.7,0.4,3.5,0.4,5C913.5,640.3,925.5,635.9,936.7,639.1z" title=""></path>
<path id="_x31_12" class="st1 area" d="M1036.4,498.3c1,1.9,1,5,0,6.9c-16.6,15.6-14.7,39.9,6.9,47.8c7.7,1.9,16.6,5,21.6,11.8
	c7.9,9.6,6,24.5,17.6,30.3c10.6,5,17.5,11.8,29.3,13.7c1.9,0,6.9-1.9,7.7,0c7.7,9.5,17.5,15.2,28,17.4c0.6-6,1.3-10.6,1.5-12.3
	l-13.3-53.4c-0.4-1.2,0-2.5,0.6-3.3l-6-0.6h-1.7l-10.4-9.3l-8.7-13.5l-12-14.1l-5-6l-5.4-5.4l-5-7.5l-5.4-4.2l-3.9-5l-2.1-10.4
	l-3.9-8.1h-7.5l-15.8,7.1h-9.6l-3.1-2.5C1029.6,484.1,1032.5,492.2,1036.4,498.3z" title=""></path>
<path id="_x31_11" class="st0 area" d="M1011.1,659.8c1.9,1,5,0,6-1c7.7-7.7,14.7-23.3,26.4-18.5c12.7,6,11.8,18.5,1.9,30.3
	c-2.9,3.9,3.9,7.9,7.7,11.8c2.9,3.9-1,6-2.9,9.6c-1,3.9-1,9.6,1.9,10.6c8.7,2.9,17.6,3.9,26.4,8.7c8.7,5,15.6-6.9,23.5-8.7
	c8.5-2.3,17.2,0.8,24.7,5.2c12.5-12.5,17.2-30.5,17.2-40.1c0-7.3,2.3-27.8,3.9-41.7c-10.4-1.9-20.4-7.9-28-17.4c-1-1.9-6,0-7.9,0
	c-11.8-1.9-18.5-8.7-29.3-13.7c-11.8-6-9.6-20.6-17.6-30.3c-5-6.9-13.7-9.6-21.6-11.8c-21.6-7.9-23.3-32.2-6.9-47.8c1-1.9,1-5,0-6.9
	c-3.9-6.4-6.8-14.3-5.2-21l-2.9-2.3l-5-7.1l-1-0.8c-6.8,0.8-12.5-3.9-18.3-1c-7.7,3.9-16.6,6-26.4,7.7c-7.9,1.9-3.9,13.7,3.9,19.7
	c1.9,1,0,6-1.9,7.9c-6.9,6-17.5,6.9-22.6,13.7c-6.9,9.6-16.6,12.7-23.5,21.6c-3.9,3.9,2.9,10.6,0,16.6c-3.9,7.7-15.6,10.6-19.7,19.7
	c-1.9,5,5,10.6,1,15.6l-0.2,0.2c3.9,1.7,6.9,4.2,9.8,5.8c12.7,3.9,27.4-9.6,38.2,0c11.8,9.6,23.5-1,34.3,3.9
	c6.9,2.9-1.9,13.7-2.9,18.5c-0.6,7.3-1.7,17.7-5.2,24.1C996.1,647.4,1002.4,655.3,1011.1,659.8z" title=""></path>
<path id="_x31_13" class="st4 area" d="M997.2,759.5c2.9,1,8.7,5,10.6,1.9c3.9-6,6.9-13.7,10.6-14.7c19.7-6,25.3-19.7,29.3-38.2
	c0.6-2.7,1.9-4.4,3.9-6l0,0c-2.9-1-2.9-6.9-1.9-10.6c1.9-3.9,6-6,2.9-9.6c-3.9-3.9-10.6-7.7-7.7-11.8c9.6-11.8,10.6-24.3-1.9-30.3
	c-11.8-5-18.5,10.6-26.4,18.5c-1,1-3.9,1.9-6,1c-8.5-4.4-15-12.3-22-18.9c-2.1,3.7-5,6.2-9.4,6.2c-13.7,1-30.3-3.9-43-7.7
	c-11.4-3.3-23.1,1-34.3,1.7c0.2,3.3,0,6.6,0,9.6c-0.4,9.8-0.6,18.5,6.2,28.7c3.9,6.2,10,11.4,15.4,16.2c7.1,6.4,12.9,11.4,12.7,17.2
	c0,1.7-0.6,4.2-3.7,6.6c-9.6,7.5-9.5,10-9.3,10.2c0,0,0.6,1.4,5.8,2.5c15,3.3,27.2,8.3,35.9,11.8l2.9,1.2c6,2.3,13.7,7.3,18.3,13.3
	C990.1,757.2,994.1,757.7,997.2,759.5z" title=""></path>
<path id="_x31_30" class="st1 area" d="M1203.4,980.1c0-18.3,0-33.9-7.3-43.8c-2.7-3.7-5.6-7.1-8.7-10.6c-6.2-7.3-12.3-14.9-16.2-22.6
	c-7.7-15.2-22.4-40.7-31.4-47.4c-12.9-9.6-15.4-28-6.6-45.7c7.3-14.7,2.3-26.8-5.4-42.4c-0.8-1.5-1.5-3.1-2.3-4.6
	c-3.9-7.5-8.5-16.4-10.4-25.3c-10.8,0.4-22.8,1.4-27,15c-1,1.9-5,5-8.7,6.9c-2.9,1.9-6.9,7.9-2.9,10.6c9.6,8.7,11.8,20.6,7.9,30.3
	c-6,14.7-22.6,12.7-37.2,13.7c-1.9,0-3.9,2.9-3.9,5c1,8.7,3.9,15.6-1.9,25.3c-3.9,6.9,1.9,17.6-1.9,24.3c-5,6.9-12.7,9.6-20.6,13.7
	c-12.2,7.1-24.1,3.1-36.6,1.2c0.8,2.9,1.3,5.6,1.3,7.7c0,6.6,3.5,20.8,5,26.8l15,15l14.8,7.3l14.7,20.1l15.2,9.6
	c8.3-0.8,18.1-0.6,21.2,3.7c1.9,2.9,3.9,6.8,5,9.1l15.8,4.4l0.8,1.2c1,1.4,6.2,8.5,6.2,14.1c0,2.7,2.3,8.3,7.7,9.6
	c1.7,0.6,3.7,1.2,5.4,1.7c5.4,1.9,7.5,2.5,9.6,0.4c12.3-12.3,21.8-17.2,28.7-14.5c2.5,1,7.5,1.4,12.3,1.7c7.9,0.6,16,1,20.8,4.2
	c4.6,2.9,21.2-0.2,27.8-3.9C1206.7,996.3,1203.4,989.2,1203.4,980.1z" title=""></path>
<path id="_x31_28" class="st2 area" d="M1018.8,882.5c7.7-3.9,15.6-6.9,20.6-13.7c3.9-6.9-1.9-17.6,1.9-24.3c6-9.6,2.9-16.6,1.9-25.3
	c0-1.9,1.9-5,3.9-5c14.7-1,31.2,1,37.2-13.7c3.9-9.6,1.9-21.6-7.9-30.3c-3.9-2.9,0-8.7,2.9-10.6c3.9-1.9,7.7-5,8.7-6.9
	c4.2-13.7,16-14.7,27-15c-1.9-9.6-0.8-19.3,8.3-26.6c1.2-1,2.1-1.7,3.1-2.9c-7.5-4.4-16.2-7.5-24.7-5.2c-7.9,1.9-14.7,13.7-23.5,8.7
	c-8.7-5-17.6-6-26.4-8.7c-1.9,1.4-3.3,3.3-3.9,6c-3.9,18.5-9.6,32.2-29.3,38.2c-3.9,1-6.9,8.7-10.6,14.7c-1.9,2.9-7.7-1-10.6-1.9
	c-3.1-1.7-7.1-2.3-10.6-1.5c2.5,3.3,4.1,6.8,4.1,10.4c0,7.3-3.5,33.8-3.7,34.9l-0.4,2.5l-2.5,0.8c-0.2,0-10.6,3.7-21.2,8.9
	c-6,2.9-10.6,8.5-11.4,13.3c-0.4,2.3,0.2,4.1,1.7,5.4c7.5,7.5,18.3,25.3,18.7,26.2c1,1.7,7.3,13.5,10,23.3
	C994.5,885.8,1006.7,889.6,1018.8,882.5z" title=""></path>
<g id="G_14" class="st5 area" title="">
	<path id="PATH_15" class="st6 area" d="M979.7,705.9h-1.7" title=""></path>
</g>
<g id="G_16" class="st5 area" title="">
	<path id="PATH_17" class="st6 area" d="M973.9,616c0,0.4,0.2,0.8,0.2,1.7" title=""></path>
</g>
<g id="G_27" class="area" title="">
	<path id="PATH_28" d="M852,115.9c0,2.3-1.5,3.5-4.6,3.5c-1.2,0-1.9-0.2-2.5-0.6c-0.6-0.4-1-1.2-1-2.1c0-0.6,0.2-1,0.4-1.5
		c0.2-0.2,0.2-0.4,0.4-0.4c0.2,0,0.2,0.2,0.2,0.6c0,0.2,0,0.4,0,0.6c0,0.6,0.4,1.2,1,1.3c0.4,0.2,1,0.2,1.7,0.2
		c2.5,0,3.7-0.4,3.7-1.2c0-1.2-1.5-2.9-4.2-4.8l0.6-1.7c0-0.2,0.2-0.2,0.2-0.2s0.2,0,0.4,0.2C850.7,112,852,114.2,852,115.9z" class="area" title=""></path>
	<path id="PATH_29" d="M858.6,119.4h-1.2c-1.2,0-2.1-0.6-2.5-1.5c-0.4-0.6-0.6-1.7-0.6-3.1v-3.1c0-1.5-0.2-3.7-0.4-6.4l1-1.2
		c0.2-0.2,0.4-0.2,0.4,0c0.2,1.5,0.4,3.7,0.4,6.4v4.8c0,1.3,0.6,1.9,1.9,1.9h0.8C858.6,117.3,858.6,119.4,858.6,119.4z" class="area" title=""></path>
	<path id="PATH_30" d="M862.6,116.1c0,2.1-1.2,3.3-3.3,3.3H858v-1.9h1.2c1.7,0,2.5-0.4,2.5-0.8c0-0.6-0.4-1.2-1.2-1.9l0.6-1.7
		c0-0.2,0.2-0.2,0.2-0.2s0.2,0.2,0.4,0.4C862,114,862.6,115.1,862.6,116.1z M861.8,123l-1.3,1.4l-1.3-1.4l1.3-1.3L861.8,123z" class="area" title=""></path>
	<path id="PATH_31" d="M869.2,101.8c-0.6,0.6-1.7,0.8-2.7,0.8c-0.2,0-0.4,0-0.6,0s-0.6,0-0.6,0s-0.4,0.2-0.6,0.4
		c-0.2,0.2-0.4,0.4-0.4,0.4c-0.2,0-0.2-0.2-0.2-0.4s0.2-0.6,0.4-0.8c0.2-0.6,0.4-0.6,0.6-0.6s0.6,0,1,0.2c0.6,0,0.8,0.2,1,0.2
		C868,101.8,868.6,101.8,869.2,101.8c0.4-0.2,0.6-0.4,0.6-0.4h0.2C869.5,101.4,869.4,101.6,869.2,101.8z M868,117.5
		c0,0.6-0.2,1.3-0.6,1.7c-0.2,0.4-0.4,0.6-0.4,0.6s-0.2-0.2-0.2-0.6c0-1.9-0.4-6.6-1-14.1l1.3-1.4c0.2-0.2,0.2-0.2,0.2-0.2
		s0,0.2,0,0.4C868,106.1,868,110.5,868,117.5z" class="area" title=""></path>
	<path id="PATH_32" d="M898.3,115.9c0,2.3-1,3.5-2.9,3.5c-1.2,0-1.7-0.6-2.1-1.5c-0.6,1-1.3,1.5-2.3,1.5c-0.4,0-0.8,0-1.2-0.2
		c0,1-0.2,1.9-0.2,3.1c-0.6,1.2-1.4,2.1-2.9,2.9c-1.3,0.6-2.7,0.8-4,0.8c-1.5,0-2.7-0.4-3.7-1c-1-0.8-1.5-1.7-1.5-3.3
		c0-0.8,0.2-1.5,0.6-2.5c0.4-0.6,0.6-1.2,0.8-1.5c0.2-0.2,0.4-0.2,0.4-0.2c0.2,0,0.2,0,0.2,0.2c0,0,0,0.2,0,0.4
		c-0.6,1-0.6,1.9-0.6,2.9c0,0.8,0.4,1.5,0.8,2.1c0.6,0.8,1.7,1.2,3.3,1.2c1.7,0,3.1-0.4,4.2-0.8c1-0.6,1.7-1,1.7-1.7
		c0.2-0.2,0.2-0.6,0-1.2c0-0.6-0.2-1-0.2-1.2c-0.2-0.6-0.6-1.4-1.7-2.5l0.6-1.4c0.2-0.2,0.2-0.4,0.2-0.4s0.2,0,0.2,0.2
		c0.6,0.6,0.8,1.2,1,1.3c0.6,0.6,1,0.6,1.7,0.6c0.6,0,1.4-0.2,1.7-0.6c0.2-0.4,0.4-0.6,0.6-1.5c0-0.4,0.2-0.6,0.4-0.6
		s0.2,0.2,0.2,0.6c0.2,0.8,0.4,1.3,0.6,1.7c0.2,0.4,1,0.6,1.7,0.6c0.4,0,0.6-0.2,0.8-0.4c0.4-0.2,0.6-0.6,0.6-0.8c0-0.6-0.4-1-1-1.7
		l0.8-1.5c0.2-0.2,0.2-0.2,0.2-0.2l0.2,0.2C897.9,114.2,898.3,114.9,898.3,115.9z" class="area" title=""></path>
	<path id="PATH_33" d="M906.6,119.6c0,1.7-0.6,3.1-1.5,4.6c-0.8,1.2-1.7,1.7-2.1,1.7c-1.4,0-2.3,0-3.3-0.2c-0.4,0-0.6-0.2-0.6-0.2
		s0.2-0.2,0.6-0.2c1.3-0.4,2.7-1,3.9-1.9c1.3-1.2,2.1-2.3,2.1-3.5c0-0.6-0.6-1.7-1.7-2.9l0.8-1.5c0-0.2,0.2-0.2,0.2-0.2l0.2,0.2
		c0.4,0.6,0.8,1.2,1,1.9C906.4,118.2,906.6,119,906.6,119.6z" class="area" title=""></path>
	<path id="PATH_34" d="M913.1,119.4H912c-1.2,0-2.1-0.6-2.5-1.5c-0.4-0.6-0.6-1.7-0.6-3.1v-3.1c0-1.5-0.2-3.7-0.4-6.4l1-1.2
		c0.2-0.2,0.4-0.2,0.4,0c0.2,1.5,0.4,3.7,0.4,6.4v4.8c0,1.3,0.6,1.9,1.9,1.9h0.8v2.1H913.1z" class="area" title=""></path>
	<path id="PATH_35" d="M917,116.1c0,2.1-1.2,3.3-3.3,3.3h-1.4v-1.9h1.2c1.7,0,2.5-0.4,2.5-0.8c0-0.6-0.4-1.2-1.2-1.9l0.6-1.7
		c0-0.2,0.2-0.2,0.2-0.2s0.2,0.2,0.4,0.4C916.8,114,917,115.1,917,116.1z M913.1,122.7l1.2-1.2l1.2,1.2l-1.2,1.2L913.1,122.7z
		 M914.5,125.2l1.2-1.2l1.2,1.2l-1.2,1.2L914.5,125.2z M916,122.7l1.2-1.2l1.2,1.2l-1.2,1.2L916,122.7z" class="area" title=""></path>
</g>
<g id="G_36" class="area" title="">
	<path id="PATH_37" d="M888.6,202.9c0,1.7-0.6,3.1-1.5,4.6c-0.8,1.2-1.7,1.7-2.1,1.7c-1.4,0-2.3,0-3.3-0.2c-0.4,0-0.6-0.2-0.6-0.2
		s0.2-0.2,0.6-0.2c1.3-0.4,2.7-1,3.9-1.9c1.3-1.2,2.1-2.3,2.1-3.5c0-0.6-0.6-1.7-1.7-2.9l0.8-1.5c0-0.2,0.2-0.2,0.2-0.2l0.2,0.2
		c0.4,0.6,0.8,1.2,1,1.9C888.5,201.7,888.6,202.3,888.6,202.9z" class="area" title=""></path>
	<path id="PATH_38" d="M892.5,200.8c0,0.6-0.2,1.3-0.6,1.7c-0.2,0.4-0.4,0.6-0.4,0.6s-0.2-0.2-0.2-0.6c0-1.9-0.4-6.6-1-14.1l1.4-1.4
		c0.2-0.2,0.2-0.2,0.2-0.2s0,0.2,0,0.4C892.3,189.6,892.5,194,892.5,200.8z" class="area" title=""></path>
	<path id="PATH_39" d="M902.7,202.7H901c-0.2,2.3-1,4.1-2.7,5.8c-0.6,0.6-0.8,0.8-1,0.8c-0.8,0-1.9-0.2-3.1-0.4
		c-0.4,0-0.6-0.2-0.6-0.2s0.2-0.2,0.6-0.4c1.3-0.4,2.7-1.2,3.9-1.9c0.6-0.6,1-0.8,1.4-1.5c0.6-0.6,0.8-1.3,0.8-1.7v-0.6h-2.1
		c-1.7,0-2.3-0.6-2.3-1.9c0-0.8,0.2-1.7,0.6-2.7c0.6-1,1.2-1.7,1.7-1.7c0.8,0,1.5,0.6,1.9,1.7c0.4,0.8,0.6,1.7,0.6,2.7h1.7
		L902.7,202.7L902.7,202.7z M899.8,201c0-0.6-0.2-1-0.6-1.5s-0.8-0.8-1.3-0.8c-0.4,0-0.6,0.2-0.8,0.4c-0.4,0.4-0.4,0.6-0.4,1
		c0,0.8,0.6,1.2,1.9,1.2C898.9,201,899.2,201,899.8,201z" class="area" title=""></path>
	<path id="PATH_40" d="M915.6,199.2c0,1-0.2,1.7-0.6,2.5c-0.6,0.6-1.3,1.2-2.1,1.2c-1.2,0-1.7-0.6-2.3-1.3c-0.6,1-1.3,1.3-2.3,1.3
		c-1.2,0-1.9-0.6-2.5-1.3c-0.6,1-1.5,1.3-2.7,1.3h-1V201h1.4c1.2,0,1.9-0.6,2.1-1.9c0-0.4,0.2-0.6,0.4-0.6c0.2,0,0.2,0.2,0.4,0.6
		c0.2,1.3,0.8,1.9,2.1,1.9c0.6,0,1.3-0.2,1.7-0.6c0.2-0.4,0.4-0.6,0.6-1.3c0-0.4,0.2-0.6,0.4-0.6c0.2,0,0.2,0.2,0.4,0.6
		c0.2,1.3,0.8,1.9,1.9,1.9c1.3,0,1.7-0.4,1.7-0.8c0-0.4-0.4-1.2-1-1.7l0.8-1.5c0.2-0.2,0.2-0.4,0.4-0.4c0.2,0,0.2,0.2,0.4,0.4
		C915.5,197.7,915.6,198.6,915.6,199.2z" class="area" title=""></path>
	<path id="PATH_41" d="M933.6,202.7h-1.2c-1.5,0-2.3-0.8-2.7-2.7c-0.8,0.8-1.2,1.2-1.3,1.2h-1.5c-0.6,0-1,0-1.5-0.2s-1-0.6-1-0.8
		c0-1.2,0.6-2.3,1.4-2.9c0.6-0.6,1.7-1,2.9-1.7l-0.4-1.7l1.2-1.3c0,0.2,0.6,1.9,1.2,5.4c0.2,1,0.6,1.7,0.6,2.1
		c0.4,0.6,0.6,0.6,1.3,0.6h1.2v1.7h0V202.7z M929.3,199.4l-0.6-2.7c-0.6,0.2-1.2,0.6-1.9,0.8c-1,0.6-1.7,1-1.7,1.2
		c0,0.4,0.4,0.6,1.2,0.6c0.6,0.2,1,0.2,1.5,0.2C928.6,199.6,929,199.6,929.3,199.4z" class="area" title=""></path>
	<path id="PATH_42" d="M939.6,202.7H939c-1.5,0-2.5-0.6-2.9-1.7c-0.2,0.6-0.6,0.8-1,1.2c-0.6,0.4-1,0.6-1.5,0.6H933v-1.9h0.6
		c1.3,0,1.9-0.6,1.9-1.7v-5.6c0-2.1,0-3.9-0.2-5l1.5-1.2v11c0,1.7,0.6,2.5,2.1,2.5h0.6V202.7L939.6,202.7z" class="area" title=""></path>
	<path id="PATH_43" d="M947.7,202.7h-1.4c-1.5,0-2.5-0.6-3.1-1.5c-0.6,1-1.7,1.5-3.5,1.5h-1v-1.9h1.5c1.7,0,2.5-0.6,2.7-1.7
		c0-0.6,0.2-0.8,0.4-0.8c0.2,0,0.4,0.4,0.4,0.8c0.2,1.2,1,1.7,2.5,1.7h1.5L947.7,202.7L947.7,202.7z M942.3,206.4l-1.3,1.3l-1.4-1.3
		l1.4-1.3L942.3,206.4z M945,206.4l-1.4,1.3l-1.3-1.3l1.3-1.3L945,206.4z" class="area" title=""></path>
	<path id="PATH_44" d="M951.5,199.6c0,2.1-1.2,3.3-3.3,3.3h-1.3V201h1.2c1.7,0,2.5-0.4,2.5-0.8c0-0.4-0.4-1.2-1.2-1.9l0.6-1.7
		c0-0.2,0.2-0.2,0.2-0.2s0.2,0.2,0.4,0.4C951.3,197.5,951.5,198.5,951.5,199.6z M951.1,206.4l-1.3,1.3l-1.3-1.3l1.3-1.3L951.1,206.4
		z" class="area" title=""></path>
</g>
<g id="G_45" class="area" title="">
	<path id="PATH_46" d="M888.5,313.6h-3.9c-0.6,0-1,0-1.3,0.2c-0.6,0.2-0.8,0.6-0.8,0.8c0,0.2,0.8,0.4,2.3,0.6c1.7,0.4,2.3,0.6,2.3,1
		c0,1.3-0.4,2.3-1.2,2.9c-1.4,1.2-3.5,1.7-6.6,1.7c-3.9,0-5.8-1.5-5.8-4.2c0-0.6,0.2-1.3,0.6-2.1c0.4-0.8,0.6-1.5,1-1.9
		c0.2-0.2,0.4-0.4,0.6-0.4s0.2,0,0.2,0.2s0,0.4-0.2,0.6c-0.6,1-0.8,1.9-0.8,2.9c0,1.2,0.6,1.9,1.7,2.5c0.8,0.6,1.7,0.6,3.1,0.6
		s2.5,0,3.7-0.2c1.9-0.4,2.9-0.6,2.9-1.4c0-0.4-0.6-0.6-1.3-0.6c-1.3-0.2-2.1-0.4-2.5-0.6c-0.8-0.2-1.3-0.6-1.3-1.2
		c0-0.4,0.2-0.8,0.6-1.5c0.4-0.6,0.6-0.8,1.2-1.2c0.8-0.6,1.7-1,3.3-1h2.3V313.6z" class="area" title=""></path>
	<path id="PATH_47" d="M896.5,310.3c0,0.8,0,1.5-0.4,2.1c-0.4,0.8-0.8,1.3-1.4,1.3c-0.8,0-2.1-0.6-3.9-1.7c-0.6,0.6-0.8,1-1,1.2
		c-0.6,0.4-1,0.6-1.7,0.6h-0.8v-1.9h1.2c0.6,0,1.4-0.4,1.9-1.2c0.4-0.4,0.8-1.2,1.5-2.1c0.6-0.8,1.2-1.2,1.7-1.2
		c0.8,0,1.5,0.4,1.9,1.2C896.4,309.2,896.5,309.7,896.5,310.3z M895.6,311.5c0-0.6-0.2-1-0.6-1.7c-0.4-0.8-0.8-1-1.4-1
		c-0.6,0-1,0.6-1.7,1.5c0.4,0.4,0.8,0.6,1.5,1c0.6,0.4,1.3,0.6,1.7,0.6C895.4,312,895.6,311.9,895.6,311.5z" class="area" title=""></path>
	<path id="PATH_48" d="M906.8,313.6h-0.6c-0.6,0-1-0.2-1.4-0.4c0,0.2,0,0.4,0,0.6c0,1.5-0.6,2.9-1.5,4.4c-0.8,1.3-1.7,1.7-2.1,1.7
		c-1.4,0-2.3,0-3.3-0.2c-0.4,0-0.6-0.2-0.6-0.2s0.2-0.2,0.6-0.2c1.3-0.4,2.7-1,3.9-1.9c1.3-1.2,2.1-2.3,2.1-3.5
		c0-0.6-0.6-1.7-1.7-2.9l0.8-1.5c0-0.2,0.2-0.2,0.2-0.2l0.2,0.2c0.6,0.6,0.8,1.2,1.2,1.3c0.6,0.4,1.2,0.6,1.7,0.6h0.6V313.6
		L906.8,313.6z" class="area" title=""></path>
	<path id="PATH_49" d="M916.8,300.3c0,0.4-0.2,0.8-0.6,1.7c-1.9,0.6-4.4,1.3-7.3,2.1c1.9,1.9,3.1,3.7,3.3,4.8c0.2,0.8,0,1.7-0.4,2.5
		c-0.4,0.8-1,1.4-1.7,1.7c-0.6,0.4-1.7,0.4-3.3,0.4h-0.6v-1.9h0.6c3.1,0,4.8-0.6,4.8-1.7c0-0.8-0.8-2.1-2.7-3.9l-0.2,0.6
		c-0.2-0.2-0.6-0.6-0.8-1c-0.6-0.6-0.6-0.8-0.6-1c0-0.6,0.2-1,0.6-1.5c0.2-0.2,1.2-0.6,3.3-1.2C913.3,301.2,915.1,300.9,916.8,300.3
		z M916.4,297.8l-0.4,1.2l-8.1,2.7l0.4-1.2L916.4,297.8z" class="area" title=""></path>
</g>
<g id="G_50" class="area" title="">
	<path id="PATH_51" d="M827.3,512.4h-0.6c-0.6,0-1-0.2-1.4-0.4c0,0.2,0,0.4,0,0.6c0,1.5-0.6,2.9-1.5,4.4c-0.8,1.3-1.7,1.7-2.1,1.7
		c-1.4,0-2.3,0-3.3-0.2c-0.4,0-0.6-0.2-0.6-0.2s0.2-0.2,0.6-0.2c1.3-0.4,2.7-1,3.9-1.9c1.3-1.2,2.1-2.3,2.1-3.5
		c0-0.6-0.6-1.7-1.7-2.9l0.8-1.5c0-0.2,0.2-0.2,0.2-0.2l0.2,0.2c0.6,0.6,0.8,1.2,1.2,1.4c0.6,0.4,1.2,0.6,1.7,0.6h0.6V512.4
		L827.3,512.4z" class="area" title=""></path>
	<path id="PATH_52" d="M837.7,512.4H837c-0.6,0-1.4,0.2-1.7,0.4c-0.8,0.4-1.4,0.8-1.4,1.7s0.6,1.7,1.9,2.7L835,519
		c-1.5-0.6-2.9-1.4-3.9-2.3c-1.3-1.2-1.9-2.7-1.9-4.1h-2.3v-1.9h2.1c0-1.4,0.4-2.7,1-4.2c0.6-1.5,1.2-2.1,1.5-2.1s0.8,0.6,1.3,2.1
		c0.6,1.4,0.6,2.1,0.6,2.7c0,2.3-1.2,3.5-3.5,3.5c0.2,0.6,0.6,1.4,1,1.9c0.6,0.6,1.2,1.2,1.7,1.5c0-0.2,0-0.6,0-0.6
		c0-1.2,0.4-2.1,0.8-2.9c0.8-1.2,1.7-1.7,3.3-1.7h0.6L837.7,512.4L837.7,512.4z M832.5,509.7c0-0.4-0.2-1-0.6-1.7
		c-0.4-1-0.6-1.4-1-1.4c-0.2,0-0.6,0.4-0.8,1.2c-0.2,0.8-0.6,1.7-0.6,2.9C831.8,510.5,832.5,510.3,832.5,509.7z" class="area" title=""></path>
	<path id="PATH_53" d="M850.5,509c0,1-0.2,1.7-0.6,2.5c-0.6,0.6-1.3,1.2-2.1,1.2c-1.2,0-1.7-0.6-2.3-1.4c-0.6,1-1.4,1.4-2.3,1.4
		c-1.2,0-1.9-0.6-2.5-1.4c-0.6,1-1.5,1.4-2.7,1.4h-1v-1.9h1.3c1.2,0,1.9-0.6,2.1-1.9c0-0.4,0.2-0.6,0.4-0.6s0.2,0.2,0.4,0.6
		c0.2,1.4,0.8,1.9,2.1,1.9c0.6,0,1.3-0.2,1.7-0.6c0.2-0.4,0.4-0.6,0.6-1.4c0-0.4,0.2-0.6,0.4-0.6c0.2,0,0.2,0.2,0.4,0.6
		c0.2,1.4,0.8,1.9,1.9,1.9c1.3,0,1.7-0.4,1.7-0.8s-0.4-1.2-1-1.7l0.8-1.5c0.2-0.2,0.2-0.4,0.4-0.4c0.2,0,0.2,0.2,0.4,0.4
		C850.5,507.2,850.5,508.2,850.5,509z M845.1,502.8l-1.2,1.2l-1.2-1.2l1.2-1.2L845.1,502.8z M846.6,500.3l-1.2,1.2l-1.2-1.2l1.2-1.2
		L846.6,500.3z M848.1,502.8l-1.2,1.2l-1.2-1.2l1.2-1.2L848.1,502.8z" class="area" title=""></path>
	<path id="PATH_54" d="M873.8,512.4H873c-0.8,0-1.3,0-1.7-0.2c0,0.6,0.2,0.8,0.2,1.4c0,0.8-0.2,1.4-0.4,1.7
		c-0.6,1.2-1.3,2.1-2.9,2.9c-1.4,0.6-2.7,0.8-4,0.8c-1.4,0-2.7-0.4-3.7-1c-1-0.8-1.5-1.7-1.5-3.3c0-0.8,0.2-1.5,0.6-2.5
		c0.4-0.6,0.6-1.2,0.8-1.5c0.2-0.2,0.4-0.2,0.4-0.2c0.2,0,0.2,0,0.2,0.2c0,0,0,0.2,0,0.4c-0.6,1-0.6,1.9-0.6,2.9s0.4,1.5,0.8,2.1
		c0.6,0.8,1.7,1.2,3.3,1.2c1.7,0,3.1-0.4,4.2-0.8c1-0.6,1.7-1,1.9-1.7c0.2-0.2,0.2-0.6,0-1.2c0-0.6-0.2-1-0.2-1.2
		c-0.2-0.6-0.8-1.4-1.7-2.5l0.6-1.4c0.2-0.2,0.2-0.4,0.2-0.4s0.2,0,0.2,0.2c0.8,1.4,1.7,1.9,2.7,1.9h1.3L873.8,512.4L873.8,512.4z
		 M866.5,505.1l-1.4,1.4l-1.3-1.4l1.3-1.4L866.5,505.1z" class="area" title=""></path>
	<path id="PATH_55" d="M881.9,512.4h-1.3c-1.5,0-2.5-0.6-3.1-1.5c-0.6,1-1.7,1.5-3.5,1.5h-1v-1.9h1.5c1.7,0,2.5-0.6,2.7-1.7
		c0-0.6,0.2-0.8,0.4-0.8c0.2,0,0.4,0.4,0.4,0.8c0.2,1.2,1,1.7,2.5,1.7h1.5L881.9,512.4L881.9,512.4z M876.3,515.9l-1.3,1.4l-1.4-1.4
		l1.4-1.4L876.3,515.9z M879.2,515.9l-1.4,1.4l-1.3-1.4l1.3-1.4L879.2,515.9z" class="area" title=""></path>
	<path id="PATH_56" d="M893.1,512.4h-1c-0.8,0-1.7-0.4-2.7-1.2c-0.6-0.6-1.4-1.5-2.1-2.7c-0.2,2.5-1.7,3.9-5,3.9h-1v-1.9h0.6
		c2.9,0,4.6-0.6,4.6-1.7c0-1-0.6-2.1-2.1-3.5c-0.6-0.6-1.3-1.2-2.1-1.7c0-0.6,0.2-1.2,0.6-1.7c0.2-0.2,3.1-1.2,9.1-2.9
		c0,0.2-0.2,0.8-0.6,1.7c-1.5,0.4-3.9,1.2-7.3,2.1c1.7,1.7,3.3,3.5,4.4,5c0.8,0.8,1.3,1.5,1.7,1.7c0.6,0.6,1.5,0.8,2.3,0.8h0.6
		L893.1,512.4L893.1,512.4z M891.3,496.6l-0.4,1.2l-8.1,2.7l0.4-1.2L891.3,496.6z" class="area" title=""></path>
	<path id="PATH_57" d="M908.1,512.4h-1c-1.2,0-1.7-0.6-2.3-1.4c-0.4,1-1.2,1.4-2.1,1.4s-1.7-0.6-2.1-1.4c-0.6,1-1.2,1.4-2.1,1.4
		c-1.2,0-1.9-0.6-2.5-1.4c-0.6,1-1.5,1.4-2.7,1.4h-1.2v-1.9h1.4c1.2,0,1.9-0.6,2.1-1.9c0-0.4,0.2-0.6,0.4-0.6c0.2,0,0.2,0.2,0.4,0.6
		c0.2,1.4,0.8,1.9,2.1,1.9c1.2,0,1.9-0.6,1.9-1.9c0-0.4,0.2-0.6,0.4-0.6c0.2,0,0.4,0.2,0.4,0.6c0.2,1.4,0.8,1.9,1.7,1.9
		c1.2,0,1.9-0.6,1.9-1.9c0-0.4,0.2-0.6,0.4-0.6c0.2,0,0.4,0.2,0.4,0.6c0.2,1.4,0.8,1.9,1.9,1.9h1L908.1,512.4L908.1,512.4z
		 M900.4,504.1l-1.2,1.2l-1.2-1.2l1.2-1.2L900.4,504.1z M902,501.4l-1.2,1.2l-1.2-1.2l1.2-1.2L902,501.4z M903.3,504.1l-1.2,1.2
		l-1.2-1.2l1.2-1.2L903.3,504.1z" class="area" title=""></path>
	<path id="PATH_58" d="M916.4,509.1c0,0.8,0,1.5-0.4,2.1c-0.4,0.8-0.8,1.4-1.3,1.4c-0.8,0-2.1-0.6-3.9-1.7c-0.6,0.6-0.8,1-1,1.2
		c-0.6,0.4-1,0.6-1.7,0.6h-0.8v-1.9h1.2c0.6,0,1.3-0.4,1.9-1.2c0.4-0.4,0.8-1.2,1.5-2.1c0.6-0.8,1.2-1.2,1.7-1.2
		c0.8,0,1.5,0.4,1.9,1.2C916,508,916.2,508.6,916.4,509.1z M915.5,510.3c0-0.6-0.2-1-0.6-1.7c-0.4-0.8-0.8-1-1.3-1s-1,0.6-1.7,1.5
		c0.4,0.4,0.8,0.6,1.5,1c0.6,0.4,1.4,0.6,1.7,0.6C915.3,510.7,915.5,510.5,915.5,510.3z" class="area" title=""></path>
</g>
<g id="G_60" class="area" title="">
	<path id="PATH_61" d="M1075.3,544.1h-0.8c-0.8,0-1.3,0-1.7-0.2c0,0.6,0.2,0.8,0.2,1.3c0,0.8-0.2,1.4-0.4,1.7
		c-0.6,1.2-1.4,2.1-2.9,2.9c-1.3,0.6-2.7,0.8-4,0.8c-1.4,0-2.7-0.4-3.7-1c-1-0.8-1.5-1.7-1.5-3.3c0-0.8,0.2-1.5,0.6-2.5
		c0.4-0.6,0.6-1.2,0.8-1.5c0.2-0.2,0.4-0.2,0.4-0.2c0.2,0,0.2,0,0.2,0.2c0,0,0,0.2,0,0.4c-0.6,1-0.6,1.9-0.6,2.9
		c0,0.8,0.4,1.5,0.8,2.1c0.6,0.8,1.7,1.2,3.3,1.2c1.7,0,3.1-0.4,4.2-0.8c1-0.6,1.7-1,1.9-1.7c0.2-0.2,0.2-0.6,0-1.2
		c0-0.6-0.2-1-0.2-1.2c-0.2-0.6-0.8-1.4-1.7-2.5l0.6-1.4c0.2-0.2,0.2-0.4,0.2-0.4s0.2,0,0.2,0.2c0.8,1.4,1.7,1.9,2.7,1.9h1.3
		L1075.3,544.1L1075.3,544.1z M1068.2,536.7l-1.3,1.3l-1.3-1.3l1.3-1.4L1068.2,536.7z" class="area" title=""></path>
	<path id="PATH_62" d="M1083.4,544.1h-1.3c-1.5,0-2.5-0.6-3.1-1.5c-0.6,1-1.7,1.5-3.5,1.5h-1v-1.9h1.5c1.7,0,2.5-0.6,2.7-1.7
		c0-0.6,0.2-0.8,0.4-0.8s0.4,0.4,0.4,0.8c0.2,1.2,1,1.7,2.5,1.7h1.5L1083.4,544.1L1083.4,544.1z M1078,547.7l-1.3,1.4l-1.3-1.4
		l1.3-1.4L1078,547.7z M1080.9,547.7l-1.3,1.4l-1.3-1.4l1.3-1.4L1080.9,547.7z" class="area" title=""></path>
	<path id="PATH_63" d="M1091.5,540.8c0,0.8,0,1.5-0.4,2.1c-0.4,0.8-0.8,1.4-1.3,1.4c-0.8,0-2.1-0.6-3.9-1.7c-0.6,0.6-0.8,1-1,1.2
		c-0.6,0.4-1,0.6-1.7,0.6h-0.8v-1.9h1.2c0.6,0,1.3-0.4,1.9-1.2c0.4-0.4,0.8-1.2,1.5-2.1c0.6-0.8,1.2-1.2,1.7-1.2
		c0.8,0,1.5,0.4,1.9,1.2C1091.3,539.6,1091.5,540.2,1091.5,540.8z M1090.8,541.9c0-0.6-0.2-1-0.6-1.7s-0.8-1-1.3-1
		c-0.6,0-1,0.6-1.7,1.5c0.4,0.4,0.8,0.6,1.5,1c0.6,0.4,1.3,0.6,1.7,0.6C1090.6,542.5,1090.8,542.3,1090.8,541.9z" class="area" title=""></path>
	<path id="PATH_64" d="M1098.1,544.1h-1.2c-1.2,0-2.1-0.6-2.5-1.5c-0.4-0.6-0.6-1.7-0.6-3.1v-3.1c0-1.5-0.2-3.7-0.4-6.4l1-1.2
		c0.2-0.2,0.4-0.2,0.4,0c0.2,1.5,0.4,3.7,0.4,6.4v4.8c0,1.4,0.6,1.9,1.9,1.9h0.8v2.1H1098.1z" class="area" title=""></path>
	<path id="PATH_65" d="M1102.1,540.8c0,2.1-1.2,3.3-3.3,3.3h-1.3v-1.9h1.2c1.7,0,2.5-0.4,2.5-0.8c0-0.6-0.4-1.2-1.2-1.9l0.6-1.7
		c0-0.2,0.2-0.2,0.2-0.2s0.2,0.2,0.4,0.4C1101.8,538.6,1102.1,539.8,1102.1,540.8z M1101.9,533.4l-1.3,1.4l-1.3-1.4l1.3-1.4
		L1101.9,533.4z" class="area" title=""></path>
</g>
<g id="G_66" class="area" title="">
	<path id="PATH_67" d="M1031.4,607.7h-0.8c-0.8,0-1.5-0.4-1.7-0.8c0,1-0.2,2.1-0.4,3.7c-0.6,1.2-1.4,2.1-2.7,2.7
		c-1.2,0.6-2.3,0.8-3.9,0.8c-1.5,0-2.5-0.4-3.3-0.8c-1-0.6-1.5-1.7-1.5-3.1s0.4-2.7,1.2-3.7c0.2-0.2,0.2-0.2,0.4-0.2
		c0.2,0,0.2,0,0.2,0.2v0.2c-0.4,0.8-0.6,1.7-0.6,2.3c0,1,0.4,1.7,1.2,2.5c0.6,0.6,1.5,0.8,2.7,0.8c1,0,2.1-0.2,3.3-0.6
		c1.7-0.6,2.3-1.2,2.3-1.9l-0.2-7.9c-0.2-3.9-0.2-6.4-0.4-8.3l1.4-1.2c0,0.6,0.2,2.3,0.4,5.6l0.2,6.4c0,1,0.6,1.7,1.9,1.7h0.6
		L1031.4,607.7L1031.4,607.7z" class="area" title=""></path>
	<path id="PATH_68" d="M1039.3,607.7h-1.3c-1.5,0-2.5-0.6-3.1-1.5c-0.6,1-1.7,1.5-3.5,1.5h-1v-1.9h1.5c1.7,0,2.5-0.6,2.7-1.7
		c0-0.6,0.2-0.8,0.4-0.8c0.2,0,0.4,0.4,0.4,0.8c0.2,1.2,1,1.7,2.5,1.7h1.5L1039.3,607.7L1039.3,607.7z M1033.9,611.4l-1.3,1.3
		l-1.2-1.3l1.3-1.4L1033.9,611.4z M1036.8,611.4l-1.4,1.3l-1.3-1.3l1.3-1.4L1036.8,611.4z" class="area" title=""></path>
	<path id="PATH_69" d="M1043.3,604.4c0,2.1-1.2,3.3-3.3,3.3h-1.4v-1.9h1.2c1.7,0,2.5-0.4,2.5-0.8c0-0.4-0.4-1.2-1.2-1.9l0.6-1.7
		c0-0.2,0.2-0.2,0.2-0.2s0.2,0.2,0.4,0.4C1042.9,602.5,1043.3,603.5,1043.3,604.4z M1042.7,611.4l-1.3,1.3l-1.3-1.3l1.3-1.4
		L1042.7,611.4z" class="area" title=""></path>
	<path id="PATH_70" d="M1053.3,604.2c0,2.3-1.5,3.5-4.6,3.5c-1.2,0-1.9-0.2-2.5-0.6c-0.6-0.4-1-1.2-1-2.1c0-0.6,0.2-1,0.4-1.5
		c0.2-0.2,0.2-0.4,0.4-0.4s0.2,0.2,0.2,0.6c0,0.2,0,0.4,0,0.6c0,0.6,0.4,1.2,1,1.3c0.4,0.2,1,0.2,1.7,0.2c2.5,0,3.7-0.4,3.7-1.2
		c0-1.2-1.5-2.9-4.2-4.8l0.6-1.7c0-0.2,0.2-0.2,0.2-0.2s0.2,0,0.4,0.2C1052,600.4,1053.3,602.5,1053.3,604.2z" class="area" title=""></path>
	<path id="PATH_71" d="M1061.8,607.9c0,1.7-0.6,3.1-1.5,4.6c-0.8,1.2-1.7,1.7-2.1,1.7c-1.3,0-2.3,0-3.3-0.2c-0.4,0-0.6-0.2-0.6-0.2
		s0.2-0.2,0.6-0.2c1.3-0.4,2.7-1,3.9-1.9c1.4-1.2,2.1-2.3,2.1-3.5c0-0.6-0.6-1.7-1.7-2.9l0.8-1.5c0-0.2,0.2-0.2,0.2-0.2l0.2,0.2
		c0.4,0.6,0.8,1.2,1,1.9C1061.6,606.5,1061.8,607.3,1061.8,607.9z" class="area" title=""></path>
	<path id="PATH_72" d="M1065.5,605.8c0,0.6-0.2,1.4-0.6,1.7c-0.2,0.4-0.4,0.6-0.4,0.6s-0.2-0.2-0.2-0.6c0-1.9-0.4-6.6-1-14.1
		l1.3-1.4c0.2-0.2,0.2-0.2,0.2-0.2s0,0.2,0,0.4C1065.5,594.6,1065.5,599,1065.5,605.8z" class="area" title=""></path>
</g>
<g id="G_73" class="area" title="">
	<path id="PATH_74" d="M919.9,616.8h-0.8c-0.8,0-1.3,0-1.7-0.2c0,0.6,0.2,0.8,0.2,1.4c0,0.8-0.2,1.3-0.4,1.7
		c-0.6,1.2-1.4,2.1-2.9,2.9c-1.3,0.6-2.7,0.8-4,0.8c-1.5,0-2.7-0.4-3.7-1c-1-0.8-1.5-1.7-1.5-3.3c0-0.8,0.2-1.5,0.6-2.5
		c0.4-0.6,0.6-1.2,0.8-1.5c0.2-0.2,0.4-0.2,0.4-0.2c0.2,0,0.2,0,0.2,0.2c0,0,0,0.2,0,0.4c-0.6,1-0.6,1.9-0.6,2.9
		c0,0.8,0.4,1.5,0.8,2.1c0.6,0.8,1.7,1.2,3.3,1.2c1.7,0,3.1-0.4,4.2-0.8c1-0.6,1.7-1,1.9-1.7c0.2-0.2,0.2-0.6,0-1.2
		c0-0.6-0.2-1-0.2-1.2c-0.2-0.6-0.8-1.4-1.7-2.5l0.6-1.4c0.2-0.2,0.2-0.4,0.2-0.4s0.2,0,0.2,0.2c0.8,1.4,1.7,1.9,2.7,1.9h1.3
		L919.9,616.8L919.9,616.8z M912.6,609.2l-1.3,1.4l-1.3-1.4l1.3-1.4L912.6,609.2z" class="area" title=""></path>
	<path id="PATH_75" d="M928,616.8h-1.3c-1.5,0-2.5-0.6-3.1-1.5c-0.6,1-1.7,1.5-3.5,1.5h-1V615h1.5c1.7,0,2.5-0.6,2.7-1.7
		c0-0.6,0.2-0.8,0.4-0.8s0.4,0.4,0.4,0.8c0.2,1.2,1,1.7,2.5,1.7h1.5L928,616.8L928,616.8z M922.4,620.4l-1.3,1.4l-1.3-1.4l1.3-1.4
		L922.4,620.4z M925.3,620.4l-1.3,1.4l-1.4-1.4l1.4-1.4L925.3,620.4z" class="area" title=""></path>
	<path id="PATH_76" d="M936.7,613.7l-0.6,1.5l-4.4,1.2c-1.3,0.4-2.5,0.6-3.5,0.6h-0.8v-1.7h1.3c0.4,0,0.6,0,1.4-0.2
		c-1-0.8-1.5-1.5-1.5-2.3c0-0.6,0.4-1.5,1.2-2.5c1-1.2,1.9-1.7,2.9-1.7c1.2,0,1.9,0.6,2.7,1.5c0.2,0.4,0.4,0.6,0.4,0.6
		s0,0.2-0.2,0.2s-0.4,0-0.8-0.2c-0.8-0.2-1.5-0.4-2.1-0.4c-0.6,0-1,0.2-1.7,0.6s-1.2,0.6-1.2,1.2c0,0.4,0.4,0.8,0.8,1.3
		c0.6,0.6,1.5,1,2.3,1c0.4,0,1.5-0.4,3.5-0.8c0.2,0,0.2,0,0.4,0l0,0C936.9,613.3,936.7,613.5,936.7,613.7z" class="area" title=""></path>
	<path id="PATH_77" d="M947.1,616.8h-0.6c-0.6,0-1-0.2-1.3-0.4c0,0.2,0,0.4,0,0.6c0,1.5-0.6,2.9-1.5,4.4c-0.8,1.4-1.7,1.7-2.1,1.7
		c-1.4,0-2.3,0-3.3-0.2c-0.4,0-0.6-0.2-0.6-0.2s0.2-0.2,0.6-0.2c1.3-0.4,2.7-1,3.9-1.9c1.3-1.2,2.1-2.3,2.1-3.5
		c0-0.6-0.6-1.7-1.7-2.9l0.8-1.5c0-0.2,0.2-0.2,0.2-0.2l0.2,0.2c0.6,0.6,0.8,1.2,1.2,1.4c0.6,0.4,1.2,0.6,1.7,0.6h0.6L947.1,616.8
		L947.1,616.8z" class="area" title=""></path>
	<path id="PATH_78" d="M959.8,613.3c0,1-0.2,1.7-0.6,2.5c-0.4,0.8-1.4,1.2-2.1,1.2c-1.2,0-1.7-0.6-2.3-1.4c-0.6,1-1.4,1.4-2.3,1.4
		c-1.2,0-1.9-0.6-2.5-1.4c-0.6,1-1.5,1.4-2.7,1.4h-1.2V615h1.3c1.2,0,1.9-0.6,2.1-1.9c0-0.4,0.2-0.6,0.4-0.6c0.2,0,0.2,0.2,0.4,0.6
		c0.2,1.4,0.8,1.9,2.1,1.9c0.6,0,1.3-0.2,1.7-0.6c0.2-0.4,0.4-0.6,0.6-1.4c0-0.4,0.2-0.6,0.4-0.6c0.2,0,0.2,0.2,0.4,0.6
		c0.2,1.4,0.8,1.9,1.9,1.9c1.4,0,1.7-0.4,1.7-0.8s-0.4-1.2-1-1.7l0.8-1.5c0.2-0.2,0.2-0.4,0.4-0.4s0.2,0.2,0.4,0.4
		C959.6,611.6,959.8,612.5,959.8,613.3z" class="area" title=""></path>
</g>
<g id="G_79" class="area" title="">
	<path id="PATH_80" d="M983,700.3h-0.6c-0.6,0-1-0.2-1.3-0.4c0,0.2,0,0.4,0,0.6c0,1.5-0.6,2.9-1.5,4.4c-0.8,1.4-1.7,1.7-2.1,1.7
		c-1.3,0-2.3,0-3.3-0.2c-0.4,0-0.6-0.2-0.6-0.2s0.2-0.2,0.6-0.2c1.3-0.4,2.7-1,3.9-1.9c1.4-1.2,2.1-2.3,2.1-3.5
		c0-0.6-0.6-1.7-1.7-2.9l0.8-1.5c0-0.2,0.2-0.2,0.2-0.2l0.2,0.2c0.6,0.6,0.8,1.2,1.2,1.4c0.6,0.4,1.2,0.6,1.7,0.6h0.6V700.3
		L983,700.3z" class="area" title=""></path>
	<path id="PATH_81" d="M990.9,700.3h-1.3c-1.5,0-2.5-0.6-3.1-1.5c-0.6,1-1.7,1.5-3.5,1.5h-1v-1.9h1.5c1.7,0,2.5-0.6,2.7-1.7
		c0-0.6,0.2-0.8,0.4-0.8c0.2,0,0.4,0.4,0.4,0.8c0.2,1.2,1,1.7,2.5,1.7h1.5L990.9,700.3L990.9,700.3z M985.5,703.7l-1.4,1.4l-1.3-1.4
		l1.3-1.4L985.5,703.7z M988.3,703.7l-1.3,1.4l-1.3-1.4l1.3-1.4L988.3,703.7z" class="area" title=""></path>
	<path id="PATH_82" d="M994.9,696.8c0,2.1-1.2,3.3-3.3,3.3h-1.4v-1.9h1.2c1.7,0,2.5-0.4,2.5-0.8s-0.4-1.2-1.2-1.9l0.6-1.7
		c0-0.2,0.2-0.2,0.2-0.2s0.2,0.2,0.4,0.4C994.5,694.7,994.9,695.8,994.9,696.8z M994.7,689.3l-1.3,1.4l-1.4-1.4l1.4-1.4L994.7,689.3
		z" class="area" title=""></path>
</g>
<g id="G_83" class="area" title="">
	<path id="PATH_84" d="M1009,794.4h-0.6c-0.6,0-1-0.2-1.3-0.4c0,0.2,0,0.4,0,0.6c0,1.5-0.6,2.9-1.5,4.4c-0.8,1.4-1.7,1.7-2.1,1.7
		c-1.3,0-2.3,0-3.3-0.2c-0.4,0-0.6-0.2-0.6-0.2s0.2-0.2,0.6-0.2c1.3-0.4,2.7-1,3.9-1.9c1.4-1.2,2.1-2.3,2.1-3.5
		c0-0.6-0.6-1.7-1.7-2.9l0.8-1.5c0-0.2,0.2-0.2,0.2-0.2l0.2,0.2c0.6,0.6,0.8,1.2,1.2,1.4c0.6,0.4,1.2,0.6,1.7,0.6h0.6V794.4
		L1009,794.4z" class="area" title=""></path>
	<path id="PATH_85" d="M1024.4,794.4h-1c-1.2,0-1.7-0.6-2.3-1.4c-0.4,1-1.2,1.4-2.1,1.4s-1.7-0.6-2.1-1.4c-0.6,1-1.2,1.4-2.1,1.4
		c-1.2,0-1.9-0.6-2.5-1.4c-0.6,1-1.5,1.4-2.7,1.4h-1.2v-1.9h1.3c1.2,0,1.9-0.6,2.1-1.9c0-0.4,0.2-0.6,0.4-0.6c0.2,0,0.2,0.2,0.4,0.6
		c0.2,1.4,0.8,1.9,2.1,1.9c1.2,0,1.9-0.6,1.9-1.9c0-0.4,0.2-0.6,0.4-0.6c0.2,0,0.4,0.2,0.4,0.6c0.2,1.4,0.8,1.9,1.7,1.9
		c1.2,0,1.9-0.6,1.9-1.9c0-0.4,0.2-0.6,0.4-0.6s0.4,0.2,0.4,0.6c0.2,1.4,0.8,1.9,1.9,1.9h1L1024.4,794.4L1024.4,794.4z" class="area" title=""></path>
	<path id="PATH_86" d="M1034.4,790.9c0,0.6-0.2,1.4-0.6,1.9c-0.6,0.8-1,1.2-1.7,1.2c-0.6,0-1.7-0.4-3.5-1.2c-1.5,1-2.9,1.4-3.9,1.4
		h-0.8v-1.9h1c0.6,0,1.3,0,1.9-0.2c-0.6-0.6-1-1.2-1-1.9c0-1,0.6-2.1,2.1-3.3l-1.2-0.6c0.4-0.4,0.8-0.8,1.5-1.5
		c1.5,0.8,2.9,1.5,3.9,2.5C1033.7,788.6,1034.4,789.8,1034.4,790.9z M1030,789.6c0-0.6-0.2-0.8-0.4-1.2c-0.2-0.6-0.6-0.6-1-0.6
		c-0.4,0-0.8,0.2-1.3,0.6c-0.6,0.4-0.8,0.8-0.8,1.2c0,0.6,0.6,1.4,1.7,1.7c0.4-0.2,0.6-0.4,1-0.6
		C1029.8,790.1,1030,789.9,1030,789.6z M1033.5,791.5c0-0.6-0.4-1-1-1.7c-0.6-0.6-1-1-1.5-1.2c0,1.4-0.4,2.3-1.2,2.9
		c1.3,0.6,2.3,0.6,2.7,0.6C1033.1,792.5,1033.5,792.1,1033.5,791.5z" class="area" title=""></path>
	<path id="PATH_87" d="M1044.7,794.4h-1.7c-0.2,2.3-1,4-2.7,5.8c-0.6,0.6-0.8,0.8-1,0.8c-0.8,0-1.9-0.2-3.1-0.4
		c-0.4,0-0.6-0.2-0.6-0.2s0.2-0.2,0.6-0.4c1.3-0.4,2.7-1.2,3.9-1.9c0.6-0.6,1-0.8,1.3-1.5c0.6-0.6,0.8-1.4,0.8-1.7v-0.6h-2.1
		c-1.7,0-2.3-0.6-2.3-1.9c0-0.8,0.2-1.7,0.6-2.7c0.4-1,1.2-1.7,1.7-1.7c0.8,0,1.5,0.6,1.9,1.7c0.4,0.8,0.6,1.7,0.6,2.7h1.7
		L1044.7,794.4L1044.7,794.4z M1041.6,792.5c0-0.6-0.2-1-0.6-1.5s-0.8-0.8-1.3-0.8c-0.4,0-0.6,0.2-0.8,0.4c-0.4,0.4-0.4,0.6-0.4,1
		c0,0.8,0.6,1.2,1.9,1.2C1040.6,792.5,1041.2,792.5,1041.6,792.5z" class="area" title=""></path>
	<path id="PATH_88" d="M1054.9,779c0,0.4-0.4,1-0.6,1.7l-4.1,1.3c-1.7,0.6-3.1,1.2-3.9,1.5c1.3,1.4,2.1,2.3,2.7,2.9
		c0.8,1.2,1.3,2.1,1.5,3.3c0,0.8,0,1.7-0.4,2.3c-0.6,1.5-2.3,2.1-5,2.1h-0.8v-1.9h1c1.3,0,2.3,0,2.9-0.2c1.2-0.4,1.7-0.8,1.7-1.7
		c0-1.2-0.8-2.5-2.7-4l-0.2,0.4c-0.2-0.2-0.6-0.6-0.8-1c-0.6-0.6-0.6-1-0.6-1c0-0.4,0-0.6,0.2-1.4c0.2-0.6,0.4-1,0.6-1.2
		s1.3-0.6,3.5-1.3C1051.4,780.1,1053.3,779.3,1054.9,779z" class="area" title=""></path>
</g>
<g id="G_89" class="area" title="">
	<path id="PATH_90" d="M1107.5,903.5c0,0.2,0.2,0.4,0,0.4c0,0-0.2,0-0.4,0h-0.6c0.4,6.2,0.6,10.6,0.4,13.1c-0.2,3.9-2.5,5.8-6.8,5.8
		c-1.5,0-2.5-0.4-3.3-0.8c-1-0.6-1.5-1.7-1.5-3.1s0.4-2.7,1.2-3.7c0.2-0.2,0.2-0.2,0.4-0.2s0.2,0,0.2,0.2v0.2
		c-0.4,0.8-0.6,1.7-0.6,2.3c0,1,0.4,1.7,1.2,2.5c0.6,0.6,1.5,0.8,2.7,0.8c1.7,0,2.9-0.4,4.1-0.8c1-0.6,1.5-1,1.5-1.7
		c0-7.1-0.2-12.5-0.6-16.2l1.2-1c0.2-0.2,0.2-0.2,0.4-0.2c0,0,0.2,0.2,0.2,0.4C1106.8,901.8,1107,902.6,1107.5,903.5z" class="area" title=""></path>
	<path id="PATH_91" d="M1114.1,916.3h-1.2c-1.2,0-2.1-0.6-2.5-1.5c-0.4-0.6-0.6-1.7-0.6-3.1v-3.1c0-1.5-0.2-3.7-0.4-6.4l1-1.2
		c0.2-0.2,0.4-0.2,0.4,0c0.2,1.5,0.4,3.7,0.4,6.4v4.8c0,1.4,0.6,1.9,1.9,1.9h0.8L1114.1,916.3L1114.1,916.3z" class="area" title=""></path>
	<path id="PATH_92" d="M1128.6,916.3h-1.7c-2.1,0-3.3-1.2-3.3-3.3c0-0.4,0-0.6,0-0.8c-0.8,0.4-1.7,1-3.1,1.7
		c-1.4,0.8-2.1,1.4-2.9,1.7c-1,0.6-2.1,0.6-3.1,0.6h-1.2v-1.7h1.3c1.3,0,2.9-0.4,4.1-1c0.6-0.4,1.7-1,3.7-1.7
		c-0.4,0-1.3-0.4-2.9-0.6c-1.2-0.4-1.7-0.6-1.9-0.6c-0.6,0-1.3,0.4-1.9,0.8c-0.2,0.2-0.2,0.2-0.4,0.2c-0.2,0-0.2,0-0.2-0.2v-0.2
		c0.6-1.7,1.5-2.5,2.9-2.5c0.6,0,1.2,0.2,1.9,0.4c1.2,0.4,2.1,0.6,2.9,0.8c1.2,0.2,2.5,0.4,3.9,0.4c0.4,0,0.4,0,0.6,0s0,0.2,0,0.4
		l-0.6,1.5c-1,0-1.7,0-1.9,0.2c0,0.8,0.2,1.4,0.4,1.5c0.4,0.6,1,0.8,2.1,0.8h1.7v1.7h-0.4V916.3z M1122.2,904.1l-1.3,1.4l-1.3-1.4
		l1.3-1.3L1122.2,904.1z" class="area" title=""></path>
	<path id="PATH_93" d="M1134.5,916.3h-0.6c-1.5,0-2.5-0.6-2.9-1.7c-0.2,0.6-0.6,0.8-1,1.2c-0.6,0.4-1,0.6-1.5,0.6h-0.8v-1.7h0.6
		c1.3,0,1.9-0.6,1.9-1.7V907c0-2.1,0-3.9-0.2-5l1.5-1.2v11c0,1.7,0.6,2.5,2.1,2.5h0.6v1.9H1134.5z" class="area" title=""></path>
	<path id="PATH_94" d="M1147.3,911.6l-0.6,1.4c-1.2,0-2.1,0-2.7,0.2c-0.6,0.4-1.7,0.6-2.9,1.4c-1.3,0.6-2.3,1.2-2.9,1.4
		c-1,0.4-2.1,0.6-3.1,0.6h-1.2v-1.7h1.3c1.5,0,2.9-0.4,3.9-0.8l3.9-1.7c-0.6-0.2-1.7-0.6-2.9-1c-1.2-0.6-1.7-0.6-2.1-0.6
		c-0.6,0-1.3,0.4-1.9,0.8c-0.2,0.2-0.2,0.2-0.4,0.2c-0.2,0-0.2,0-0.2-0.2v-0.2c0.6-1.7,1.5-2.3,2.9-2.3c0.6,0,1.2,0.2,1.7,0.6
		c1.3,0.6,2.3,1,2.9,1.4c1.2,0.4,2.5,0.6,3.9,0.6C1147.3,911.2,1147.3,911.2,1147.3,911.6C1147.5,911.2,1147.5,911.4,1147.3,911.6z
		 M1142.6,904.1l-1.3,1.4l-1.4-1.4l1.4-1.3L1142.6,904.1z" class="area" title=""></path>
</g>
<g id="G_85" class="area" title="">
	<path d="M799,180.2l0.9,1.6c0.3,0.6,0.6,1.3,0.6,2.3v1.3c0,1.1-0.6,2.2-1.5,3.4c-0.7,0.8-1.4,1.1-2,1.1c-0.9,0-1.9-0.3-3.1-0.9
		l0.1-0.4c0.4,0.1,0.8,0.2,1.4,0.2c1.7,0,3.5-1.5,4.3-3.3c0.1-0.2,0.1-0.4,0.1-0.5c0-0.2-0.1-0.4-0.2-0.6c-0.4-1-0.9-1.9-1.5-2.7
		C798.4,181.2,798.7,180.7,799,180.2L799,180.2z M797.9,176c0.5,0.4,1,0.8,1.5,1.3c-0.3,0.4-0.6,0.8-1,1.2c-0.5-0.5-1-0.8-1.4-1.3
		C797.3,176.8,797.6,176.3,797.9,176z" id="PATH_86" class="area"></path>
	<path d="M806.6,185.2c-1.4,0-2.7-0.7-2.7-2.3c0-0.8,0.3-1.5,0.8-2.1c0.6-0.6,1.2-1,1.7-1c0.7,0,1.4,0.5,1.8,1.4
		c0.5,0.8,0.8,2,0.8,3.4c0,1.1-0.3,2.2-0.9,3.2c-1.1,1.6-2.1,2.3-3.1,2.3c-1.1,0-2.3-0.4-3.5-1.2l0.2-0.4c0.6,0.3,1.2,0.4,1.8,0.4
		c1.2,0,2.5-0.6,3.6-1.9c0.5-0.6,1.1-1.3,1.1-2C807.7,185.1,807.2,185.2,806.6,185.2z M806.1,181.3c-0.6,0-1.4,0.6-1.4,1.1
		c0,0.8,1.1,1.3,2.1,1.3c0.5,0,0.9,0,1.4-0.2C807.8,182.3,807.1,181.3,806.1,181.3z" id="PATH_87" class="area"></path>
	<path d="M819.5,186.5h-0.2c-1.1,0-2-0.5-2.5-2h-0.1c-0.1,0.5-0.4,0.9-0.9,1.2c-0.8,0.5-1.6,0.8-2.5,0.8c-1.4,0-2.1-0.8-2.1-2.3
		c0-0.3,0-0.6,0-0.9l0.5,0c0,1,0.5,1.6,1.7,1.6c0.6,0,1.4-0.3,2-0.6c0.5-0.3,0.8-0.6,0.8-0.9c0-0.8-0.4-2.5-1-4.5
		c0.3-0.4,0.5-0.9,0.9-1.3l0.1,0c0.5,1.8,0.8,3.6,1.2,5.4c0.2,1.2,1,1.8,1.9,1.8h0.2V186.5z" id="PATH_88" class="area"></path>
	<path d="M819.7,184.9c1,0,1.9,0,2.4-0.2c0.4-0.2,0.7-0.3,0.7-0.5c0-0.6-0.6-1.8-1.2-3c0.3-0.5,0.6-1,0.9-1.4h0.1
		c0.6,1,1.2,2.5,1.2,3.7c0,0.9-0.4,1.6-0.9,2.3c-0.5,0.5-1.4,0.7-3.3,0.7h-0.1c-0.7,0-0.9-0.5-0.9-0.8c0-0.3,0.2-0.7,0.9-0.7H819.7z
		 M821.4,175.8c0.5,0.4,1,0.8,1.5,1.3c-0.3,0.4-0.6,0.8-1,1.2c-0.5-0.5-1-0.8-1.4-1.3C820.7,176.7,821,176.2,821.4,175.8z" id="PATH_89" class="area" title=""></path>
	<path d="M833.1,173.9c0.1,2.4,0.1,4.8,0.1,7.2c0,1.1,0,2,0.3,2.7c0.2,0.6,0.8,1.1,1.5,1.1h0.1v1.6h-0.2c-1.1,0-2.5-1-2.5-3.4
		l-0.1,0c-0.5,1.8-1.5,2.6-2.7,3.1c-0.9,0.3-1.5,0.5-2.5,0.5l-1.3-0.1l0-0.1c2-0.7,3.5-1.5,4.7-2.3c-0.2-1.2-1.4-3.1-3.5-6
		c-0.6-0.8-1.3-1.6-1.3-2c0-0.3,0.2-0.8,0.3-1.1h0.1c0.6,0.6,1.5,1.2,2.3,1.7l-0.4,0.7c0.6,0.9,1.3,1.8,2,3c0.5,0.9,1,1.8,1,2.6
		c0,0.3,0,0.5,0,0.8l0,0c0.4-0.4,0.6-0.7,0.9-1c0.5-0.8,0.5-1.6,0.5-3.7c0-1.4-0.1-2.8-0.2-4.2C832.3,174.5,832.6,174.2,833.1,173.9
		L833.1,173.9z" id="PATH_90" class="area"></path>
	<path d="M835.4,184.9c1,0,1.9-0.3,2-1.1c0.1-0.5,0.2-0.9,0.3-1.4c0.3-0.3,0.5-0.5,0.8-0.6l0.1,0.1c-0.1,0.4-0.2,0.8-0.2,1.1
		c0,0.6,0.2,1,0.7,1.4c0.7-1.1,1.5-2.1,2.5-3.1c0.8-0.7,1.8-1.3,2.9-1.3c1.2,0,1.9,0.7,2.3,1.3c0.2,0.5,0.3,1,0.3,1.4
		c0,0.4-0.1,0.8-0.2,1.2c-0.3,1-1.1,1.7-2.5,2.2c-0.7,0.3-1.8,0.4-3,0.4c-1.6,0-2.8-0.4-3.5-1.3h0c-0.7,1-1.7,1.3-2.5,1.3h-0.1
		c-0.7,0-0.9-0.5-0.9-0.8c0-0.3,0.2-0.7,0.9-0.7H835.4z M842,184.9c1.2,0,2.4-0.3,3.2-0.7c0.6-0.3,1-0.5,1-0.9c-0.2-1-1-1.9-2.1-1.9
		c-1.4,0-3.1,1.3-4.4,3.2C840.2,184.8,841,184.9,842,184.9z" id="PATH_91" class="area"></path>
	<path d="M849.5,186.7c0.1-0.8,0.1-1.6,0.1-2.4v-1.2c0-2.2-0.2-5.5-0.4-7.6c0.3-0.4,0.8-1,1.2-1.3l0.1,0c0.3,2.7,0.3,5.7,0.3,8.6
		c0,0.7,0,1.5-0.1,2c0,0.7-0.4,1.2-1.1,2L849.5,186.7z" id="PATH_92" class="area"></path>
</g>
</svg>
