<!--?xml version="1.0" encoding="utf-8"?-->
<!-- Generator: Adobe Illustrator 27.4.1, SVG Export Plug-In . SVG Version: 6.00 Build 0)  -->
<svg version="1.1" id="Layer_1" xmlns="http://www.w3.org/2000/svg" xmlns:xlink="http://www.w3.org/1999/xlink" x="0px" y="0px" viewBox="0 0 1920 1080" style="enable-background:new 0 0 1920 1080;" xml:space="preserve" width="100%" height="100%">
<style type="text/css">
	.st0{fill:#FDFAD6;stroke:#020202;stroke-width:0.3364;stroke-miterlimit:16.8224;}
	.st1{fill:#E8D0E5;stroke:#020202;stroke-width:0.3364;stroke-miterlimit:16.8224;}
	.st2{fill:#DBECCB;stroke:#020202;stroke-width:0.3364;stroke-miterlimit:16.8224;}
	.st3{fill:#FBD1D1;stroke:#020202;stroke-width:0.3364;stroke-miterlimit:16.8224;}
	.st4{fill:none;stroke:#040404;stroke-width:0.8411;stroke-miterlimit:16.8224;}
</style>
<path id="_x31_85" class="st0 area" d="M639.4,145.2c-1.5,0.7,0.7,3.7,2.2,5.2c6.7,4.5,16.5,3,19.5,11.3c2.2,6.1-6.1,14.1-0.7,16.5
	c15,8.2,33,0.7,47.8,14.1c3,3,12.8,0,10.4-4.5c-3-5.2-6.7-10.4-2.2-15.6c9.8-9.8,29.9-9.8,28.4-28.4c-0.7-4.5,6.1-5.2,10.4-6.7
	c2.2-0.7,2.2-3.7,2.2-6.1c2.2-8.9-1.5-18.7,3-26.9c1.5-3,6.1-6.7,6.7-9.8c1.2-11.3,3.7-21,11.1-27.9l-3.9-2.5l0.8-0.8l0.8-1.2
	l-5-0.3l-5.2-0.8l-4.4-2l-0.3-0.8l-19-12.6l-4.4-3.5L724.1,36l-3.2-3.5l-6.4-8.6l-3.5-2l-5.6,1.5l-24.9,18.2l-0.8,3.2l1.2,9.1
	l-0.8,3.9l-1.2,3.5l-7.9,14.3l-0.8,3.5l-0.3,4.7l0.3,3.5l0.8,3.5l-0.3,3.4l-2,3.5h-0.3l-0.8,5.9l0.8,5.2l-0.3,5.2l-3.5,5.2l-4.7,3.2
	l-11.8,4.7l-3,0.7c0.2,3.5,2.5,6.6,5.2,9.3C652.1,139.8,643.1,142.8,639.4,145.2z" title=""></path>
<path id="_x31_82" class="st1 area" d="M755.4,145.9c0,1.5,3,3,3.7,3c9.8,0,18,3.7,22.4,11.3c3,5.2-3,11.9-0.7,15
	c8.2,8.2,29.9,6.7,24.7,23.9c-1.5,6.1-7.4,10.4-11.3,16.5c-0.7,1.5-0.7,3.7,0,5.2c6.7,7.4,12.8,11.9,15.6,21.7
	c0.7,2.2,4.5,2.2,6.1,1.5c3-3,6.1-7.4,8.9-6.7c14.1,3,29.9,8.2,35.8,23.9c2.4,4.9,6.2,7.2,10.6,7.9v-0.5c1.3-9.6,2.9-20.4,11.4-27.4
	c7.7-6.6,18.3-15.6,18.3-15.8c0.8-0.7,1.9-0.8,2.9-0.5l0.3-1.7l1.2-2.4l0.3-2.7l-1.2-1.5l-5.6-2.4l-2-1.5l-1.2-2.4l-2-5.9l-0.8-2
	l-2.4-2.4l-2-1.2l-2-1.2l-1.5-2.7l2-4l-1.2-3.2l-3.2-1.5l-3.2-0.8l-2.4-0.8v-2.4l0.3-2.7l-0.3-1.5l-2.4-0.3l-2,0.8l-1.5,1.2
	l-0.8,0.3l-23.7-7.1l-6.4,1.5l-1.5-3.9l-2.4-13.8l-1.5-2.7l-2-2.7l-5.6-11.4l-2-2.7l-2-0.8l-2.4-2.7l-2-2.7l-0.8-2l-1.2-1.5
	l-8.2-5.2l-0.8-0.8l-0.3-1.2l-0.8-1.2l-2-0.3h-2.4l-1.2-0.3l-5.9-3.9L794,113l2-3.5l-4.7-3.9l-2.7-5.6L781.6,74l-2.7-5.9l-0.8-0.7
	c-7.2,6.9-9.9,16.8-11.1,27.9c-0.7,3-5.2,6.7-6.7,9.8c-4.5,8.2-0.7,18-3,26.9c0,2.2,0,5.2-2.2,6.1c-0.5,0.2-1.2,0.3-1.7,0.5
	C755.2,139.6,756.2,142,755.4,145.9z" title=""></path>
<path id="_x34_45" class="st2 area" d="M747.1,219.2c4.5,3,4.5,10.4,0.7,15.6c-3,3.7-8.9,11.3-6.7,11.9c16.5,3.7,35.2-3.7,50.1-15.6
	c2.4-1.5,5.4-2.9,8.7-4.4c-1.9-1.9-3.7-3.9-5.7-6.1c-0.7-1.5-0.7-3.7,0-5.2c3.7-6.1,9.8-10.4,11.3-16.5
	c5.2-17.2-16.5-15.6-24.7-23.9c-2.2-3,3.7-9.8,0.7-15c-4.5-7.4-12.8-11.3-22.4-11.3c-0.7,0-3.7-1.5-3.7-3c0.8-3.9-0.2-6.2-1.7-8.4
	c-4.4,1.2-9.4,2.2-8.7,6.2c1.5,18.7-18.7,18.7-28.4,28.4c-4.5,5.2-0.7,10.4,2.2,15.6c1.2,2.2-0.8,4.2-3.4,5
	C725.1,202.9,734.7,211.3,747.1,219.2z" title=""></path>
<path id="_x31_83" class="st3 area" d="M661.8,277.4c3-6.1,11.9-8.2,16.5-13.5c3.7-5.2,10.4-7.4,13.5-15.6c3-6.7,11.9-11.9,20.2-8.2
	c7.4,3,12.8,8.9,17.2,17.2c0.7,0,3,0.7,3.7,0c4-3.5,8.1-7.4,12.4-9.8c-1.5-0.2-2.9-0.3-4.4-0.7c-2.2-0.7,3.7-8.2,6.7-11.9
	c3.7-5.2,3.7-12.8-0.7-15.6c-12.4-7.9-22-16.3-31.8-26.4c-2.5,0.8-5.7,0.8-7.1-0.5c-15-13.5-33-6.1-47.8-14.1
	c-5.2-2.2,3-10.4,0.7-16.5c-3-8.2-12.8-6.7-19.5-11.3c-1.5-1.5-3.7-4.5-2.2-5.2c3.7-2.2,12.8-5.2,10.4-8.2c-2.7-2.7-5-5.7-5.2-9.3
	l-2.2,0.5l-5.9-0.3l-15.8-7.1l-5.4-1l-12.6,3.2l-5.6,0.3l-4.7-0.3h-3.9l-3.2,1.2l-4.7,2.7l-2.7,3.2l1.5,3.5l5.9,6.4l1.2,2.7l1.2,5.9
	l2.7,5.2v2l-0.3,2v2.4l0.8,2.4l2.7,5.6v2.4l-1.5,4.7l0.3,2.4l5.9,4.4l10.3,5.2l9.1,5.6l1.5,6.7l-4.4,8.2l-1.2,4.4l2,10.6l-2,3.5
	l-3.9,2.7l-3.2,5.2l1.2,2l0.8,1.5l0.8,4.4l1.5,2l2,1.5l2,1.5v2.4v2.4l0.8,2l0.8,2.4l2.4,5.9l3.2,3.9l3.5,3.5l12.3,5.6l1.2,7.9
	l-1.3,4C646.7,290.5,656.8,286.8,661.8,277.4z" title=""></path>
<path id="_x31_86" class="st0 area active" d="M726.9,260.2c3.7,3,10.4,0,12.8,3.7c3.7,6.1-3,8.9-3,14.1c0,2.2,3.7,3.7,5.2,3.7
	c14.1,0,23.9,5.2,34.3,14.1c10.4,8.9,26.2,6.7,39.7,3.7c6.1-1.5,6.1-12.8,15.6-11.3c-1.5-8.9,2.2-11.9,10.4-15
	c1.5-0.7,2.2-3.7,3-3.7c8.1-3,17.7,0.8,26.1,0.5c0-0.5,0.2-1,0.2-1.3v-0.2c-4.5-0.7-8.4-3-10.6-7.9c-6.1-15.6-21.7-20.9-35.8-23.9
	c-3-0.7-6.1,3.7-8.9,6.7c-1.5,0.7-5.2,0.7-6.1-1.5c-2-6.9-5.7-11.1-9.9-15.6c-3.4,1.5-6.4,2.9-8.7,4.4
	c-13.6,10.9-30.4,18.2-45.8,16.5c-4.5,2.4-8.6,6.2-12.4,9.8c-0.7,0.7-3,0-3.7,0c-0.3-0.5-0.5-1-0.8-1.5
	C726.9,257.2,725.6,258.4,726.9,260.2z" title=""></path>
<path id="_x31_76" class="st2 area" d="M734.3,402.4c5.2-1.5,11.3-1.5,16.5,0.7c6.1,2.2,8.9,11.3,14.1,11.3c13.5,0.7,25.4,0,38.2,6.1
	c11.4,5,17.3-5.9,26.2-11.6c-0.2-0.8-0.2-1.5-0.2-2.2v-24.4l1.9-0.7c0.2,0,19.9-7.9,31.5-13.1c7.1-3.2,10.1-5.7,13.1-8.2
	c1.9-1.5,3.7-3.2,6.4-4.7c0.3-0.2,0.8-0.7,1.2-1.9c1-4.5-3-13.8-7.4-20.4c-5.7-8.6-5.7-22.5-5.7-29.3c0-6.6,0-23.6,1.2-33.3
	c-8.6,0.2-18-3.5-26.1-0.5c-0.7,0-1.5,3-3,3.7c-8.2,3-11.9,6.1-10.4,15c-9.8-1.5-9.8,9.8-15.6,11.3c-13.5,3-29.1,5.2-39.7-3.7
	c-10.4-8.9-20.2-14.1-34.3-14.1c-1.5,0-5.2-1.5-5.2-3.7c0-5.2,6.7-8.2,3-14.1c-2.2-3.7-8.9-0.7-12.8-3.7c-1.3-1.9,0-3,1.3-4.5
	c-4.4-7.4-9.4-13-16.3-15.6c-8.2-3.7-17.2,1.5-20.2,8.2c-3,8.2-9.8,10.4-13.5,15.6c-4.5,5.2-13.5,7.4-16.5,13.5
	c-5,9.4-15.3,13-24.2,9.6l-5,15.8l-0.8,5.6l0.3,3.2l1.2,3.5l1.2,4.7l-1.2,2l-2,2l-0.8,1.5l3.2,1.5l3.9,1.2l2,1.2l1.5,1.5l1.5,4.4
	v5.9l-1.2,10.6l2.4,13.8l-0.3,4.7l-2.7,11.1v3.2l0.3,7.1v2.4l-0.8,4.4l0.8,2.4l2,1.5l3.5,1.2l11.4,2l7.6-4l3.2-0.3l3.5,1.2l3.2,2.4
	l2.7,3.5c3.7-1.7,7.4-3.5,11.1-5C703.7,397.9,719.4,406.1,734.3,402.4z" title=""></path>
<path id="_x31_80" class="st0 area" d="M695.5,526.4c2.2-4.5,10.4-0.7,11.9-3c4.5-8.9,10.4-15.6,17.2-23.9c1.5-2.2-2.2-6.7,0-7.4
	c14.1-3,27.6,11.9,39.7-1.5c0.7-0.7,3.7-0.7,4.5,0c4.5,5.2,7.4,13.5,16.5,12.8c0,1.5,1.5,2.2,2.2,3c7.4,5.2,15.6-2.2,16.5-6.7
	c1.5-11.9,2.2-23.9-7.4-33.6c-3-3-1.5-7.4,4.5-7.4c-0.7-12.8,6.1-22.4,19.5-26.2c2.2-0.7,3.7-5.2,6.7-6.7c1.7-1.7,3.9-2.5,6.1-2.5
	c-1.3-4-3.2-10.1-3.9-14.3c-8.7,5.7-14.8,16.7-26.2,11.6c-12.8-6.1-24.7-5.2-38.2-6.1c-5.2,0-8.2-8.9-14.1-11.3
	c-5.2-2.2-11.3-2.2-16.5-0.7c-15,3.7-30.6-4.5-44.9,0.7c-3.7,1.5-7.4,3.4-11.1,5l0.3,0.5l1.5,4.4v4.4l-5.2,6.7l-8.2,6.4l-6.7,6.7
	l1.2,13.1l-0.8,5.6l-1.5,5.2l-1.5,3.9l-1.5,2.4l-3.9,1.5l-2,1.5l-0.3,2.4l2,5.2l-1.2,1.5l-4.7,2l-2.7,2.4l-2.4,3.5l-2,5.6l-2,4.4
	l-5.6,5.9l-2,3.5v0.3l-2,3.2l-1.5,3.5l-0.3,3.5l1.2,3.5v3.5l-2,3.2l-2.4,2.7l-0.8,2.7l3.9,5.9l7.9,1.5l15-2l2.7,0.8l8.2,3.9l2.7,1.5
	l1.2,2.4l0.7,2.5c4.9-2.5,10.3-4.2,15.3-6.9C685.7,538.5,690.3,532.4,695.5,526.4z" title=""></path>
<path id="_x31_70" class="st1 area" d="M796.4,716.3c1.5-3.7,5.2-6.7,8.9-9.8c5.2-5.2,14.1-4.5,20.9-2.2c6.1,2.2,6.1,10.4,8.2,15.6
	c3,6.7,11.3,6.7,18.7,8.9c2.2,0.7,2.2,6.7,3.7,7.4c8.2,5.2,18.7,1.5,28.4,2.2c0-2.2,3-1.5,2.2-3.7c2.2,0,3.7-3.7,6.7-2.2
	c6.7-20.2,29.9-18.7,45.6-26.2c6.7-3.2,12.4-8.2,17.3-14.1l-39.9-59.7l-68.5-178.8l-14.6-26.6c-0.2-0.5-0.8-2.2-1.5-4.4
	c-2.2,0.2-4.4,0.8-6.1,2.5c-3,1.5-4.5,6.1-6.7,6.7c-13.5,3.7-20.2,13.5-19.5,26.2c-6.1,0-7.4,4.5-4.5,7.4c9.8,9.8,8.9,21.7,7.4,33.6
	c-0.7,4.5-8.9,11.9-16.5,6.7c-0.7-0.7-2.2-1.5-2.2-3c-8.9,0.7-11.9-7.4-16.5-12.8c-0.7-0.7-3.7-0.7-4.5,0
	c-11.9,13.5-25.4-1.5-39.7,1.5c-2.2,0.7,1.5,5.2,0,7.4c-6.7,8.2-12.8,15-17.2,23.9c-1.5,2.2-9.8-1.5-11.9,3
	c-5.2,6.1-9.8,11.9-16.5,16.5c-5,2.7-10.4,4.4-15.3,6.9l0.2,0.5l1.5,3.5l2.4,3.2l2,0.3l1.5-0.3l1.5-0.3l1.5,1.2v1.5l-0.8,4.4v1.5
	l1.5,3.2l3.2,0.3l3.5-1.5l3.2-1.5l6.4-0.3l6.4,2.7l5.9,4.7l8.2,9.4l0.8,2.7l-2.4,3.5l-8.2,5.9l-1.5,2.4l-1.2,8.2l4.7,4.7l5.2,3.9
	l0.8,4.7l-2,5.6l-1.5,6.7l-0.3,6.7l1.2,5.6l0.8,4.7l-2.7,7.9l1.2,4.7l3.2,1.5l8.7,0.8l3.5,2.4l3.2,7.9l2.4,2.4l8.2-1.2l2,2.4
	l1.5,3.9l2,3.5l13.1,7.9l5.6,5.9l-0.8,8.7l-2.7,3.5l-3.2,1.5l-2.7,2.4l-2,4.7l0.8,5.6l2.4,4.7l1.5,4.7l-1.5,5.2l-0.3,0.7
	c7.6,1.9,14,6.9,21.2,8.6C789,753,792.7,730.6,796.4,716.3z" title=""></path>
<path id="_x31_93" class="st3 area" d="M934.9,763.6c6.1,2.2,11.9-3.7,19.5-2.2c1.5,0,2.2,1.5,3,2.2c3.7,8.2-2.2,20.9,10.4,21.7
	c17.2,0,29.9,8.9,41.9,20.2c8.9,8.2,21.7,8.9,34.3,11.9c3,0,6.7,2.2,9.8,3.7c8.9,2.2,20.9,6.1,26.9-2.2c0.7-1.5-2.2-4.5,0.7-6.1
	c5.2-3.7,8.9-6.7,14.1-8.9c2.2-1.5,6.1-1.5,8.2,0.7c13.5,10.4,31.5,7.4,44.1-4.5c4.5-5.2,11.9-2.2,16.5,3.7c2.2,2.2,6.7-1.5,9.8-1.5
	c11.3,1.5,18,20.2,22.4,32.1c1.5,2.2,5.2,7.6,8.2,5.2c6.7-4.5,19.5-11.9,14.1-18.7c-10.4-15.6-8.2-31.5,3.7-45.6
	c0.7-0.7,1.2-1.3,1.7-2.2c-0.8-5,0-9.8,1.2-13.1l-29.3-6.7c-2.9,2.4-10.6,8.2-19.2,12.6c-11.9,6.1-38.9,1.2-48.1-1
	c-6.6-1.7-14.8,9.6-20.2,17c-1.7,2.2-3,4.2-4.4,5.7c-7.2,8.7-20.9,8.6-40.4-0.5c-16.8-7.7-15.6-18.3-15-23.6c0-0.7,0.2-1.2,0.2-1.7
	c0-3.2-1-10.8-2.5-20.5c-1-5.9-16.5-13.3-20.9-13.3c-2.9,0-7.7-1.2-13.8-2.7c-6.2-1.5-13.5-3.2-19.5-3.9
	c-12.8-1.3-32.6-25.9-34.8-28.8l-0.2-0.2c-4.9,6.1-10.6,10.9-17.3,14.1c-0.3,0.2-0.7,0.3-1.2,0.5c-0.5,10.8-1,21.4-3.4,32.5
	C934,747.8,924.3,759,934.9,763.6z" title=""></path>
<path id="_x31_95" class="st2 area" d="M840.6,808.3c6.7-1.5,14.1-6.1,16.5-13.5c2.2-6.1-5.2-8.9-7.4-14.1c-0.7-2.2,1.5-4.5,2.2-6.7
	c0.7-3.7,6.1-6.7,6.1-9.8c-1.9-9.9-0.7-18.2,0.2-27.1c-0.3-0.2-0.7-0.3-1-0.5c-1.5-0.7-1.5-6.7-3.7-7.4c-7.4-2.2-15.6-2.2-18.7-8.9
	c-2.2-5.2-2.2-13.5-8.2-15.6c-6.7-2.2-15.6-3-20.9,2.2c-3.7,3-7.4,6.1-8.9,9.8c-3.7,14.1-7.4,36.7-23.9,32.1
	c-7.2-1.7-13.8-6.7-21.2-8.6l-2.9,7.2v2.7l2,4.7l1.2,2l1.5,0.3l2,0.8l1.5,1.2l0.8,1.5l1.2,4.4l1.2,1.2l2,0.3l4.7-1.2l2-0.3l2,1.2
	l2.4,2.7l5.2,2.4l1.5,2.4l-0.3,3.2l-2.7,2.7l-1.2,7.6v0.2c14.8,0.7,29.4,11.4,39.9,21.9C820.5,813.5,831.6,809.8,840.6,808.3z" title=""></path>
<path id="_x31_96" class="st0 area" d="M870.4,817.4c6.7,5.2,15,1.5,22.4,4.5c8.9,3.7,13.5,12.8,20.9,19.5c3,2.2,7.4,3,8.2-0.7
	c1.5-6.1-0.7-11.9,2.2-17.2c4.5-8.2,8.9-15.6,14.1-24.7c2.2-3,5.2-6.1,7.4-8.9c1.5-2.2,3.7-5.2,2.2-7.4c-5-5.7-11.8-10.9-12.3-18.3
	c-0.3,0-0.8-0.2-1.2-0.3c-10.4-4.5-0.7-15.6,0.7-23.9c2.5-11.1,2.9-21.5,3.4-32.5c-15.6,6.9-37.9,5.9-44.6,25.7
	c-3-1.5-4.5,2.2-6.7,2.2c0.7,2.2-2.2,1.5-2.2,3.7c-9.3-0.7-19.3,2.7-27.4-1.7c-0.8,8.9-2,17.2-0.2,27.1c0,3-5.2,6.1-6.1,9.8
	c-0.7,2.2-3,4.5-2.2,6.7c2.2,5.2,9.8,8.2,7.4,14.1c-0.3,1-0.7,1.9-1,2.7C862.3,803.4,863.9,812.2,870.4,817.4z" title=""></path>
<path id="_x31_78" class="st0 area" d="M950.5,984.1c-2.2-9.8,0.7-22.4-8.2-27.6c-8.9-4.5-23.2,2.2-26.9-9.8
	c-5.2-16.5-19.5-10.4-30.6-16.5c-6.1-2.2-13.5-9.8-20.2-5.2c-4,2.7-6.6,6.6-7.7,11.1l4.4,4.7l2.4,7.1l1.2,6.4l0.3,11.8l1.5,4.7
	l4.4,5l-5.6,3.5l1.2,3.2l4.4,3.2l3.5,3.2l1.2,5.2l-0.8,12.6l1.2,5.9l7.1,8.7l3.2,5.6l-1.2,5.6l-2.7,4.4l-2.7,5.6l-1.5,5.9l1.5,4.4
	l4.4,3.9l4.7,0.8l5.2-1.5l4.7-3.2l4.4-1.2l7.6-3.5h5.9l5.6,1.5l8.7,3.2l3.5,3c0-0.3-0.2-0.5-0.2-0.8c0-0.2,2-21.7,2-27.4
	c0-7.1,6.6-20.7,18.8-20.7c7.7,0,8.9,0,8.9-10.9c0-0.3,0-0.5,0-0.8C957.6,993,952,989.8,950.5,984.1z" title=""></path>
<path id="_x31_73" class="st1 area" d="M909.3,925.7c0.7-3.7-4.5-8.9,1.5-14.1c3-3.7,1.5-9.8-1.5-13.5c-6.1-5.2-25.4-11.3-14.1-19.5
	c8.2-5.2,19.5-1.5,24.7-11.9c1.5-3.7-4.5-5.2-3.7-8.2c0.8-5.4,2-10.6,1.3-15.5c-1.2-0.3-2.5-0.8-3.7-1.7
	c-7.4-6.7-11.9-15.6-20.9-19.5c-7.4-3-15.6,0.7-22.4-4.5c-6.6-5-8.2-13.8-14.5-19.9c-3,5.9-9.4,9.4-15.3,10.8
	c-8.9,1.5-20.2,5.2-25.4,0.7c-10.3-10.3-25.1-21-39.9-21.9l1.5,4.5l2,4.4l1.2,6.4l-1.2,6.4l-3.2,5.2l-8.2,9.4l-2.7,6.7l2,4.7
	l4.7,2.7l5.9,1.5l7.1-0.3l3.5,0.3l2.7,2.4l2,2.4l2.4,1.5l2.7,0.8h3.2l3.9,2l3.2,4.7l5.6,9.4l2.7,5.9l-0.3,5.2l-4.7,9.9l-2.4,9.4v5.6
	l-0.8,0.8l-3.2,0.8l-0.8,0.8l-0.3,4.4l3.2,4.4l4.7,3.5l2.7,3.2l0.3,3.5l1.2,2.4l2,2l2,2.4l1.2,3.5l0.3,2.7l0.8,2.4l2.7,3.2l6.4,2.7
	l6.7-0.8l12.6-4.7l5.9,0.3l0,0c1.3-4.4,3.7-8.2,7.7-11.1c6.7-4.5,14.1,3,20.2,5.2c5.6,3,11.8,3,17.5,4.2
	C905.7,932.5,908.4,929.8,909.3,925.7z" title=""></path>
<path id="_x31_89" class="st2 area" d="M969.2,958.7c1.5-3,0.7-6.7,1.5-9.8c0.7-1.5,2.2-3.7,3.7-3c15.6,2.2,23.9-13.5,19.5-26.2
	c-6.7-18.7,1.5-38.2,19.5-44.1c6.1-2.2,11.3-3.7,15-8.2c8.2-11.3-3.7-18.7-7.4-27.6c-5.6-11.4,3.9-18.5,14.5-24.2
	c-9.6-1.9-18.8-3.9-25.7-10.1c-11.9-11.3-24.7-20.2-41.9-20.2c-12.8-0.7-6.7-13.5-10.4-21.7c-0.7-0.7-1.5-2.2-3-2.2
	c-7.1-1.3-12.6,3.7-18.3,2.5c0.5,7.4,7.2,12.6,12.3,18.3c1.5,2.2-0.7,5.2-2.2,7.4c-2.2,3-5.2,6.1-7.4,8.9
	c-5.2,8.9-9.8,16.5-14.1,24.7c-3,5.2-0.7,11.3-2.2,17.2c-0.5,2.4-2.4,2.9-4.5,2.5c0.7,4.9-0.5,10.1-1.3,15.5c-0.7,3,5.2,4.5,3.7,8.2
	c-5.2,10.4-16.5,6.7-24.7,11.9c-11.3,8.2,8.2,14.1,14.1,19.5c3,3.7,4.5,9.8,1.5,13.5c-6.1,5.2-0.7,10.4-1.5,14.1
	c-1,4-3.7,6.7-7.2,8.7c5.7,1.3,10.6,3.9,13.3,12.1c3.7,11.9,18,5.2,26.9,9.8c7.6,4.4,6.6,14.1,7.6,22.9
	C955.9,971.8,965.1,967.3,969.2,958.7z" title=""></path>
<path id="_x31_87" class="st1 area" d="M1133.7,908.6c0.7-3,0-6.7-1.5-8.9c-3.7-3-8.9-7.4-8.9-9.8c-0.7-11.9-1.5-23.9-10.4-33
	c-5.2-4.5-12.8-6.1-16.5-11.9c-2.2-5.2,3.7-9.8,0.7-15c-0.7-1.5-3-3.7-3.7-3.7c-4.9-1.7-9.3-4.2-12.8-7.4
	c-6.1,8.1-17.8,4.4-26.9,2.2c-3-1.5-6.7-3.7-9.8-3.7c-2.9-0.7-5.7-1.2-8.6-1.9c-10.6,5.7-20,12.8-14.5,24.2
	c3.7,8.9,15.6,16.5,7.4,27.6c-3.7,4.5-8.9,6.1-15,8.2c-18,6.1-26.2,25.4-19.5,44.1c4.5,12.8-3.7,28.4-19.5,26.2
	c-1.5-0.7-3,1.5-3.7,3c-0.7,3,0,6.7-1.5,9.8c-4,8.6-13.3,13.3-19.3,20.7c0.2,1.7,0.3,3.2,0.7,4.7c1.5,5.7,7.1,8.9,13.1,10.8
	c0.3-14.3,8.6-23.9,20.7-23.9c10.4,0,35.2,0,40.5-1.9c3.7-1.2,5.9-8.4,5.9-18.8v-34l2.2-0.5c0.7-0.2,16.3-4,30.3-4
	c3.2,0,6.4-0.3,9.4-0.7c9.1-1,19.2-2.2,21.2,11.1c1.7,11.3,6.9,13.3,20.7,13.3c3.4,0,10.4-0.8,19.2-1.9c-1.2-2.5-2.2-5.2-3-7.7
	C1128.5,919.9,1131.5,913.8,1133.7,908.6z" title=""></path>
<path id="_x31_92" class="st0 area" d="M1232.4,862.1c-11.3-0.7-19.5-8.2-26.9-15.6c-1.3-1.9-2.2-4-2.5-6.2c-2.5-0.2-5.2-4-6.4-5.7
	c-4.5-11.9-11.3-30.6-22.4-32.1c-3,0-7.4,3.7-9.8,1.5c-4.5-6.1-11.9-8.9-16.5-3.7c-12.8,11.9-30.6,15-44.1,4.5
	c-2.2-2.2-6.1-2.2-8.2-0.7c-5.2,2.2-8.9,5.2-14.1,8.9c-3,1.5,0,4.5-0.7,6.1l0,0c3.5,3.2,7.9,5.7,12.8,7.4c0.7,0,3,2.2,3.7,3.7
	c3,5.2-3,9.8-0.7,15c3.7,6.1,11.3,7.4,16.5,11.9c8.9,8.9,9.8,20.9,10.4,33c0,2.2,5.2,6.7,8.9,9.8c1.5,2.2,2.2,6.1,1.5,8.9
	c-2.2,5.2-5.2,11.3-3,17.2c0.8,2.7,1.9,5.2,3,7.7c10.9-1.5,24.4-3.5,36.3-5.2c16.3-2.5,27.6-4,32.8-4.5c2.2-1.9,4.5-3.5,7.7-4.7
	c2.2-1.5,3.7-5.2,4.5-8.9c0.7-7.4,12.8-8.9,12.8-17.2c0-8.9,0-16.5,6.7-23.9C1236.8,867.4,1235.3,862.1,1232.4,862.1z" title=""></path>
<path id="_x31_91" class="st2 area" d="M1342.8,919.3c-1.9-9.6-11.8-44.9-15.6-54.8c-3.4-8.6-11.4-33.1-14-40.4
	c-4.5-0.2-15.6-0.5-26.1-2.7c-8.7-1.7-9.6,0.7-11.4,4.9c-0.3,0.8-0.7,1.9-1.2,2.7c-2.9,5.7-10.8,13.6-11.1,14l-1.5,1.5l-2-1
	c-0.7-0.3-14.8-8.1-21.5-13.5c-3.9-3-5-8.2-3.5-14.5c1.2-4.4,3.7-9.4,6.9-13.5c2-2.5,2-3.2-4.5-9.8c-2-2-4.5-4.4-7.2-7.6
	c-3.4-3.9-5-7.9-5.9-11.8c-0.5,0.8-1.2,1.5-1.9,2.2c-11.9,14.1-14.1,29.9-3.7,45.6c5.2,6.7-7.4,14.1-14.1,18.7
	c-0.5,0.5-1.2,0.7-1.9,0.5c0.3,2.2,1.2,4.2,2.5,6.2c7.4,7.4,15.6,15,26.9,15.6c3,0,4.5,5.2,2.2,6.7c-6.7,7.4-6.7,15-6.7,23.9
	c0,8.2-11.9,9.8-12.8,17.2c-0.7,3.7-2.2,7.4-4.5,8.9c-3.2,1.2-5.6,3-7.7,4.7c1-0.2,1.9-0.2,2.5-0.2c12.1,0,21,4.5,26.2,13.3
	c5.4,8.9,10.4,10.6,21.7,12.4c1.3,0.2,2.5,0.3,3.9,0.7c9.8,1.5,18.2,2.9,20.4,13.6c2,10.3,18,11.4,24.7,11.4
	c12.8,0,31.5-9.3,37-18.3C1344.6,947.8,1344.8,928.9,1342.8,919.3z" title=""></path>
<line id="LINE_20" class="st4 area" x1="810.5" y1="762.2" x2="748.5" y2="787.3" title=""></line>
<line id="LINE_21" class="st4 area" x1="849.2" y1="861.6" x2="787.1" y2="886.7" title=""></line>
<g id="G_22" class="area" title="">
	<path id="PATH_23" d="M701.7,113.2h-1.9c-0.2,2.4-1,4.2-2.7,5.9c-0.5,0.5-0.8,0.8-1,0.8c-0.8,0-2-0.2-3.2-0.3
		c-0.3-0.2-0.7-0.2-0.7-0.2s0.2-0.2,0.7-0.3c1.3-0.3,2.7-1.2,3.9-2c0.5-0.5,1-0.8,1.3-1.5c0.5-0.7,0.8-1.3,0.8-1.9v-0.5h-2.2
		c-1.7,0-2.4-0.7-2.4-2c0-0.8,0.2-1.7,0.7-2.7c0.5-1,1.2-1.7,1.9-1.7c0.8,0,1.5,0.5,2,1.7c0.3,0.8,0.7,1.7,0.7,2.7h1.9v2H701.7z
		 M698.7,111.4c0-0.5-0.2-1-0.5-1.5c-0.3-0.7-0.8-0.8-1.3-0.8c-0.3,0-0.7,0.2-0.8,0.3c-0.3,0.3-0.3,0.5-0.3,1c0,0.8,0.7,1.2,2,1.2
		C697.7,111.4,698.2,111.4,698.7,111.4z" class="area" title=""></path>
	<path id="PATH_24" d="M712.1,97.7c0,0.3-0.3,1-0.7,1.9l-4.2,1.3c-1.9,0.7-3.2,1.2-3.9,1.5c1.3,1.3,2.2,2.4,2.7,2.9
		c0.8,1.2,1.3,2.2,1.5,3.4c0,0.8,0,1.7-0.3,2.4c-0.5,1.5-2.4,2.2-5.2,2.2h-1v-2h1c1.3,0,2.4,0,2.9-0.2c1.2-0.3,1.9-0.8,1.9-1.7
		c0-1.2-0.8-2.5-2.7-4.2l-0.2,0.3c-0.2-0.2-0.5-0.5-0.8-1c-0.5-0.5-0.7-1-0.7-1c0-0.3,0-0.7,0.2-1.3s0.3-1,0.5-1.2
		c0.2-0.2,1.3-0.7,3.5-1.3C708.6,98.7,710.6,98.1,712.1,97.7z" class="area" title=""></path>
	<path id="PATH_25" d="M718,113.2h-1.2c-1.2,0-2.2-0.5-2.5-1.5c-0.3-0.7-0.5-1.9-0.5-3.2v-3.2c0-1.5-0.2-3.7-0.3-6.6l1-1.2
		c0.2-0.2,0.3-0.2,0.3,0c0.2,1.5,0.3,3.7,0.3,6.6v4.9c0,1.3,0.7,2,2,2h0.8V113.2L718,113.2z" class="area" title=""></path>
	<path id="PATH_26" d="M726.4,109.9c0,0.8,0,1.5-0.3,2.2c-0.3,0.8-0.8,1.3-1.3,1.3c-0.8,0-2.2-0.5-3.9-1.7c-0.5,0.7-0.8,1-1,1.2
		c-0.5,0.3-1,0.5-1.7,0.5h-0.8v-2h1.2c0.7,0,1.3-0.3,2-1.2c0.3-0.3,0.8-1.2,1.5-2.2c0.5-0.8,1.2-1.2,1.7-1.2c0.8,0,1.5,0.3,2,1.2
		C726.1,108.7,726.3,109.3,726.4,109.9z M725.4,111.2c0-0.5-0.2-1-0.5-1.7s-0.8-1-1.3-1c-0.5,0-1,0.5-1.7,1.5c0.3,0.3,0.8,0.7,1.5,1
		s1.3,0.5,1.7,0.5C725.2,111.5,725.4,111.4,725.4,111.2z" class="area" title=""></path>
</g>
<g id="G_27" class="area" title="">
	<path id="PATH_28" d="M757.9,193.3c0,1.9-1.2,3.2-3.4,3.9c-1.5,0.5-3.7,0.7-6.7,0.7c-1.2,0-2.2,0-2.7-0.2c-1.2-0.3-2-1-2.5-2
		c0-0.2-0.2-0.3-0.2-0.3l0,0c0,0,0.2,0,0.3,0.2c0.8,0.3,1.9,0.5,3.2,0.5c0.5,0,0.8,0,1-0.2c0.2-0.2,0.3-0.5,0.2-1c0-0.7,0-2,0-3.9
		c-0.2-2.9-0.3-5.2-0.7-7.4l1.2-1.2c0.2-0.2,0.2-0.2,0.2-0.2s0.2,0.2,0.2,0.3c0.2,0.7,0.3,1.3,0.7,2c0,0.2,0.2,0.3,0.2,0.3
		s-0.2,0-0.3,0H748c0.2,3,0.2,4.9,0.2,5.4v1.9c0,0.7-0.2,1.7-0.5,2.9c0.2,0,0.5-0.3,1.3-1c0.8-0.8,1.7-1.5,2.4-2
		c1.2-0.7,2.2-1,3.2-1c0.8,0,1.5,0.2,2,0.7C757.7,191.9,757.9,192.6,757.9,193.3z M756.7,194.5c0-0.5-0.3-1-1-1.3
		c-0.5-0.3-1.2-0.5-1.7-0.5c-1.2,0-3.2,1-5.7,3.2c0.7,0,1.5,0.2,2.2,0.2c1,0,2.2-0.2,3.4-0.3C755.9,195.3,756.7,195,756.7,194.5z" class="area" title=""></path>
	<path id="PATH_29" d="M768.5,198h-1.9c-0.2,2.4-1,4.2-2.7,5.9c-0.5,0.5-0.8,0.8-1,0.8c-0.8,0-2-0.2-3.2-0.3c-0.3,0-0.7-0.2-0.7-0.2
		s0.2-0.2,0.7-0.3c1.3-0.3,2.7-1.2,3.9-2c0.5-0.5,1-0.8,1.3-1.5c0.5-0.7,0.8-1.3,0.8-1.9V198h-2.2c-1.7,0-2.4-0.7-2.4-2
		c0-0.8,0.2-1.7,0.7-2.7c0.5-1,1.2-1.7,1.9-1.7c0.8,0,1.5,0.5,2,1.7c0.3,0.8,0.7,1.7,0.7,2.7h1.9v2H768.5z M765.4,196
		c0-0.5-0.2-1-0.5-1.5c-0.3-0.7-0.8-0.8-1.3-0.8c-0.3,0-0.7,0.2-0.8,0.3c-0.3,0.3-0.3,0.5-0.3,1c0,0.8,0.7,1.2,2,1.2
		C764.4,196,764.9,196,765.4,196z" class="area" title=""></path>
	<path id="PATH_30" d="M781.8,194.3c0,1-0.2,1.9-0.7,2.5c-0.5,0.7-1.3,1.2-2.2,1.2c-1.2,0-1.9-0.5-2.4-1.3c-0.7,1-1.3,1.3-2.4,1.3
		c-1.2,0-2-0.5-2.5-1.3c-0.7,1-1.5,1.3-2.7,1.3h-1.2v-2h1.3c1.2,0,2-0.7,2.2-2c0-0.3,0.2-0.5,0.3-0.5c0.2,0,0.2,0.2,0.3,0.5
		c0.2,1.3,0.8,2,2.2,2c0.7,0,1.3-0.2,1.7-0.5c0.2-0.3,0.3-0.7,0.5-1.3c0-0.3,0.2-0.5,0.3-0.5s0.2,0.2,0.3,0.5c0.2,1.3,0.8,2,2,2
		c1.3,0,1.9-0.3,1.9-0.8s-0.3-1.2-1-1.9l0.8-1.5c0.2-0.2,0.2-0.3,0.3-0.3s0.2,0.2,0.3,0.3C781.4,192.8,781.8,193.6,781.8,194.3z
		 M776,188.2l-1.2,1.2l-1.2-1.2l1.2-1.2L776,188.2z M777.6,185.6l-1.2,1.2l-1.2-1.2l1.2-1.2L777.6,185.6z M779.1,188.2l-1.2,1.2
		l-1.2-1.2l1.2-1.2L779.1,188.2z" class="area" title=""></path>
</g>
<g id="G_31" class="area" title="">
	<path id="PATH_32" d="M648,222.9c0.2,0.5,0.2,1,0.2,1.5c0,0.7-0.2,1.2-0.3,1.9c-0.5,1.2-1.3,2.2-3,2.9c-1.3,0.5-2.7,0.8-4.2,0.8
		c-1.5,0-2.7-0.3-3.7-1c-1-0.8-1.5-1.9-1.5-3.4c0-0.8,0.2-1.5,0.5-2.5c0.3-0.7,0.5-1.2,0.8-1.5c0.2-0.2,0.3-0.2,0.3-0.2
		c0.2,0,0.2,0,0.2,0.2c0,0,0,0.2,0,0.3c-0.5,1-0.7,2-0.7,2.9s0.3,1.5,0.8,2.2c0.7,0.8,1.9,1.2,3.4,1.2c1.7,0,3.2-0.3,4.4-0.8
		c1-0.5,1.7-1,2-1.7c0.2-0.2,0.2-0.5,0.2-0.7c0-0.5-0.2-1-0.3-1.7c-0.2-0.5-0.7-1.3-1.5-2.7l0.7-1.3c0.2-0.2,0.2-0.3,0.2-0.3
		s0.2,0,0.2,0.2C647.4,220.4,647.9,221.6,648,222.9z M643,215.7l-1.3,1.3l-1.3-1.3l1.3-1.3L643,215.7z" class="area" title=""></path>
	<path id="PATH_33" d="M652.1,221c0,0.7-0.2,1.3-0.5,1.9c-0.2,0.3-0.3,0.5-0.3,0.5s-0.2-0.2-0.2-0.7c0-2-0.3-6.7-1-14.3l1.3-1.3
		c0.2-0.2,0.2-0.2,0.2-0.2s0,0.2,0,0.3C652.1,209.6,652.1,214.1,652.1,221z" class="area" title=""></path>
	<path id="PATH_34" d="M660.6,223.4c0,1.7-0.5,3.2-1.5,4.7c-0.8,1.2-1.7,1.9-2.2,1.9c-1.3,0-2.4,0-3.4-0.2c-0.3,0-0.5-0.2-0.5-0.2
		s0.2-0.2,0.5-0.2c1.3-0.3,2.7-1,4-2c1.3-1.2,2.2-2.4,2.2-3.5c0-0.7-0.5-1.7-1.7-2.9l0.8-1.5c0-0.2,0.2-0.2,0.2-0.2l0.2,0.2
		c0.3,0.5,0.8,1.2,1,2C660.5,222.1,660.6,222.7,660.6,223.4z" class="area" title=""></path>
	<path id="PATH_35" d="M673.8,223.2h-0.7c-0.7,0-1.2-0.2-1.7-0.7c-0.3-0.3-0.7-0.7-1-1.3c-0.3,0.7-0.8,1.2-1.3,1.5
		c-0.7,0.3-1.5,0.5-2.9,0.5c-2.4,0-3.5-0.8-3.5-2.5c0-0.5,0.2-1.2,0.5-1.7c0.2-0.2,0.2-0.3,0.3-0.3s0.2,0.2,0.2,0.3
		c0,0.2,0,0.2,0,0.5c0,0.2,0,0.3,0,0.5c0,1,0.8,1.5,2.5,1.5c2.4,0,3.5-0.5,3.5-1.3c0-0.5-0.7-2.4-2-5.6l0.7-1.3
		c0.2-0.2,0.2-0.3,0.2-0.3s0.2,0.2,0.2,0.3c0.5,1.3,1.3,3.4,2.4,6.1c0.5,1.3,1.2,2,2.2,2h0.5V223.2L673.8,223.2z" class="area" title=""></path>
	<path id="PATH_36" d="M677.6,209.8c0.2,0.2,0.2,0.3,0.2,0.3s-0.2,0-0.3,0H677c0.2,2.2,0.2,5.4,0.2,9.6c0,1-0.2,1.9-0.7,2.4
		c-0.5,0.7-1.3,1-2.2,1h-1v-2h0.8c1.3,0,2-0.5,1.9-1.5c-0.2-3.5-0.3-7.2-0.5-10.9l1.2-1c0.2-0.2,0.3-0.3,0.3-0.3s0,0.2,0.2,0.3
		C677,208.3,677.3,208.9,677.6,209.8z" class="area" title=""></path>
	<path id="PATH_37" d="M684.4,223.2h-1.2c-1.2,0-2.2-0.5-2.5-1.5c-0.3-0.7-0.5-1.9-0.5-3.2v-3.2c0-1.5-0.2-3.7-0.3-6.6l1-1.2
		c0.2-0.2,0.3-0.2,0.3,0c0.2,1.5,0.3,3.7,0.3,6.6v4.9c0,1.3,0.7,2,2,2h0.8V223.2L684.4,223.2z" class="area" title=""></path>
	<path id="PATH_38" d="M697.5,218.4l-0.7,1.3c-1.2,0-2.2,0-2.7,0.2c-0.7,0.3-1.7,0.7-3,1.3c-1.3,0.7-2.4,1.2-3,1.3
		c-1,0.3-2.2,0.5-3.2,0.5h-1.2v-2h1.3c1.5,0,2.9-0.3,4-0.8l3.9-1.7c-0.7-0.2-1.7-0.5-3-1c-1.2-0.5-1.9-0.7-2.2-0.7
		c-0.7,0-1.3,0.3-2,0.8c-0.2,0.2-0.2,0.2-0.3,0.2s-0.2,0-0.2-0.2v-0.2c0.5-1.7,1.5-2.4,2.9-2.4c0.5,0,1.2,0.2,1.9,0.5
		c1.3,0.7,2.4,1,3,1.3c1.2,0.3,2.5,0.7,4,0.7c0.3,0,0.5,0,0.5,0.2C697.7,218,697.7,218,697.5,218.4z M688.2,226.3l1.2-1.2l1.2,1.2
		l-1.2,1.2L688.2,226.3z M689.7,229l1.2-1.2l1.2,1.2l-1.2,1.2L689.7,229z M691.3,226.3l1.2-1.2l1.2,1.2l-1.2,1.2L691.3,226.3z" class="area" title=""></path>
</g>
<g id="G_39" class="area" title="">
	<path id="PATH_40" d="M833.1,208.6h-0.7c-0.8,0-1.5-0.2-1.9-0.5c-0.5-0.3-0.8-1-0.8-1.7c-1.9,1.7-4.7,2.5-8.6,2.5
		c-4,0-6.1-1.2-6.1-3.7c0-0.8,0.3-1.7,1-2.5c0.2-0.2,0.2-0.2,0.3-0.2c0.2,0,0.2,0,0.2,0.2c0,0,0,0.2,0,0.3c-0.2,0.5-0.3,1-0.3,1.5
		c0,1.7,1.9,2.5,5.6,2.5c4.2,0,7.1-0.8,8.4-2.7c0.3-0.3,0.5-0.5,0.7-0.5s0.2,0.2,0.2,0.3s0,0.3-0.2,0.7c0,0.3-0.2,0.5-0.2,0.7
		c0,0.8,0.7,1.3,1.9,1.3h0.7v1.7H833.1z M822.6,198.8l-1.3,1.3l-1.3-1.3l1.3-1.3L822.6,198.8z M825.5,198.8l-1.3,1.3l-1.3-1.3
		l1.3-1.3L825.5,198.8z" class="area" title=""></path>
	<path id="PATH_41" d="M846.4,205.1c0,1-0.2,1.9-0.7,2.5s-1.3,1.2-2.2,1.2c-1.2,0-1.9-0.5-2.4-1.3c-0.7,1-1.3,1.3-2.4,1.3
		c-1.2,0-2-0.5-2.5-1.3c-0.7,1-1.5,1.3-2.7,1.3h-1.2v-2h1.3c1.2,0,2-0.7,2.2-2c0-0.3,0.2-0.5,0.3-0.5s0.2,0.2,0.3,0.5
		c0.2,1.3,0.8,2,2.2,2c0.7,0,1.3-0.2,1.7-0.5c0.2-0.3,0.3-0.7,0.5-1.3c0-0.3,0.2-0.5,0.3-0.5s0.2,0.2,0.3,0.5c0.2,1.3,0.8,2,2,2
		c1.3,0,1.9-0.3,1.9-0.8s-0.3-1.2-1-1.9l0.8-1.5c0.2-0.2,0.2-0.3,0.3-0.3s0.2,0.2,0.3,0.3C846,203.4,846.4,204.2,846.4,205.1z
		 M840.6,198.8l-1.2,1.2l-1.2-1.2l1.2-1.2L840.6,198.8z M842.2,196.3l-1.2,1.2l-1.2-1.2l1.2-1.2L842.2,196.3z M843.7,198.8l-1.2,1.2
		l-1.2-1.2l1.2-1.2L843.7,198.8z" class="area" title=""></path>
	<path id="PATH_42" d="M859.5,208.6h-0.7c-0.7,0-1.2-0.2-1.7-0.7c-0.3-0.3-0.7-0.7-1-1.3c-0.3,0.7-0.8,1.2-1.3,1.5
		c-0.7,0.3-1.5,0.5-2.9,0.5c-2.4,0-3.5-0.8-3.5-2.5c0-0.5,0.2-1.2,0.5-1.7c0.2-0.2,0.2-0.3,0.3-0.3s0.2,0.2,0.2,0.3
		c0,0.2,0,0.2,0,0.5c0,0.2,0,0.3,0,0.5c0,1,0.8,1.5,2.5,1.5c2.4,0,3.5-0.5,3.5-1.3c0-0.5-0.7-2.4-2-5.6l0.7-1.3
		c0.2-0.2,0.2-0.3,0.2-0.3s0.2,0.2,0.2,0.3c0.5,1.3,1.3,3.4,2.4,6.1c0.5,1.3,1.2,2,2.2,2h0.5L859.5,208.6L859.5,208.6z" class="area" title=""></path>
	<path id="PATH_43" d="M865.7,208.6H865c-1.5,0-2.5-0.5-3-1.7c-0.2,0.5-0.5,0.8-1,1.2c-0.5,0.3-1,0.5-1.5,0.5h-0.7v-2h0.7
		c1.3,0,2-0.5,2-1.7V199c0-2.2,0-3.9-0.2-5l1.5-1.2v11.3c0,1.7,0.7,2.5,2.2,2.5h0.7V208.6L865.7,208.6z" class="area" title=""></path>
	<path id="PATH_44" d="M869.7,205.2c0,2.2-1.2,3.4-3.4,3.4H865v-2h1.2c1.7,0,2.5-0.3,2.5-0.8c0-0.5-0.3-1.2-1.2-2l0.7-1.7
		c0-0.2,0.2-0.2,0.2-0.2s0.2,0.2,0.3,0.3C869.4,203,869.7,204.2,869.7,205.2z M865.7,212l1.2-1.2l1.2,1.2l-1.2,1.2L865.7,212z
		 M867.2,214.5l1.2-1.2l1.2,1.2l-1.2,1.2L867.2,214.5z M868.7,212l1.2-1.2l1.2,1.2l-1.2,1.2L868.7,212z" class="area" title=""></path>
</g>
<g id="G_53" class="area" title="">
	<path id="PATH_54" d="M754.5,338.1c0,0.3,0,0.5,0,0.5s-0.2,0-0.5-0.2c-0.5-0.3-1.2-0.5-2-0.5c-1.2,0-2.2,0.5-3,1.3
		s-1.2,1.3-1.2,1.9c0,0.5,0.8,1,2.4,1.2c1.7,0.3,2.7,0.7,3,1.2c0,0.2,0.2,0.3,0.2,0.5c0,0.8-0.3,1.9-0.8,2.9
		c-0.3,0.7-1.2,1.2-2.5,1.7c-1.7,0.7-3.4,1-5.6,1c-1.5,0-2.7-0.3-3.7-1.2c-1-0.8-1.5-2-1.5-3.4c0-1.5,0.5-3,1.5-4.4
		c0.2-0.2,0.3-0.3,0.5-0.3c0.2,0,0.2,0,0.2,0.2s0,0.2-0.2,0.5c-0.7,1.2-1,2.4-1,3.4c0,0.8,0.3,1.5,0.8,2c0.8,0.8,2,1.2,3.5,1.2
		c1.3,0,2.9-0.2,4.4-0.5c2.2-0.5,3.4-1.2,3.4-2c0-0.3-1-0.7-3.2-1.2c-0.8-0.2-1.3-0.3-1.7-0.5c-0.3-0.2-0.7-0.7-0.7-1.2
		c0-1.2,0.5-2.4,1.7-3.9c1.2-1.5,2.5-2.4,3.7-2.4C753.3,336.1,754.2,336.8,754.5,338.1z" class="area" title=""></path>
	<path id="PATH_55" d="M764.9,344.4h-1.7c-0.2,2.4-1,4.2-2.7,5.9c-0.5,0.5-0.8,0.8-1,0.8c-0.8,0-2-0.2-3.2-0.3
		c-0.3,0-0.7-0.2-0.7-0.2s0.2-0.2,0.7-0.3c1.3-0.3,2.7-1.2,3.9-2c0.5-0.5,1-0.8,1.3-1.5c0.5-0.7,0.8-1.3,0.8-1.9v-0.5h-2.2
		c-1.7,0-2.4-0.7-2.4-2c0-0.8,0.2-1.7,0.7-2.7c0.5-1,1.2-1.7,1.9-1.7c0.8,0,1.5,0.5,2,1.7c0.3,0.8,0.7,1.7,0.7,2.7h1.9V344.4z
		 M762.1,342.3c0-0.5-0.2-1-0.5-1.5c-0.3-0.7-0.8-0.8-1.3-0.8c-0.3,0-0.7,0.2-0.8,0.3c-0.3,0.3-0.3,0.5-0.3,1c0,0.8,0.7,1.2,2,1.2
		C761.1,342.3,761.4,342.3,762.1,342.3z" class="area" title=""></path>
	<path id="PATH_56" d="M778.2,339.5l-0.7,1.3c-1.2,0-2.2,0-2.7,0.2c-0.7,0.3-1.7,0.7-3,1.3c-1.3,0.7-2.4,1.2-3,1.3
		c-1,0.3-2.2,0.5-3.2,0.5h-1.2v-2h1.3c1.5,0,2.9-0.3,4-0.8l3.9-1.7c-0.7-0.2-1.7-0.5-3-1c-1.2-0.5-1.9-0.7-2.2-0.7
		c-0.7,0-1.3,0.3-2,0.8c-0.2,0.2-0.2,0.2-0.3,0.2s-0.2,0-0.2-0.2v-0.2c0.5-1.7,1.5-2.4,2.9-2.4c0.5,0,1.2,0.2,1.9,0.5
		c1.3,0.7,2.4,1,3,1.3c1.2,0.3,2.5,0.7,4,0.7c0.3,0,0.5,0,0.5,0.2C778.4,339.1,778.2,339.1,778.2,339.5z M773.4,331.7l-1.3,1.3
		l-1.3-1.3l1.3-1.3L773.4,331.7z" class="area" title=""></path>
</g>
<g id="G_57" class="area" title="">
	<path id="PATH_58" d="M718.7,465.3c0,2.4-1,3.5-3,3.5c-1.2,0-1.9-0.5-2.2-1.5c-0.5,1-1.3,1.5-2.4,1.5c-0.3,0-0.8,0-1.2-0.2
		c0,1-0.2,2-0.2,3.2c-0.5,1.2-1.3,2.2-2.9,2.9c-1.3,0.5-2.7,0.8-4.2,0.8c-1.5,0-2.7-0.3-3.7-1c-1-0.8-1.5-1.9-1.5-3.4
		c0-0.8,0.2-1.5,0.5-2.5c0.3-0.7,0.5-1.2,0.8-1.5c0.2-0.2,0.3-0.2,0.3-0.2c0.2,0,0.2,0,0.2,0.2c0,0,0,0.2,0,0.3
		c-0.5,1-0.7,2-0.7,2.9s0.3,1.5,0.8,2.2c0.7,0.8,1.9,1.2,3.4,1.2c1.7,0,3.2-0.3,4.4-0.8c1-0.5,1.7-1,1.9-1.7c0.2-0.2,0.2-0.5,0-1.2
		c0-0.5-0.2-1-0.2-1.2c-0.2-0.5-0.7-1.3-1.7-2.5l0.7-1.3c0.2-0.2,0.2-0.3,0.2-0.3s0.2,0,0.2,0.2c0.5,0.7,0.8,1.2,1,1.3
		c0.5,0.5,1,0.7,1.7,0.7c0.7,0,1.3-0.2,1.7-0.7c0.2-0.3,0.3-0.7,0.5-1.5c0-0.3,0.2-0.5,0.3-0.5s0.2,0.2,0.2,0.5
		c0.2,0.8,0.3,1.3,0.7,1.7s1,0.5,1.9,0.5c0.3,0,0.7-0.2,0.8-0.3c0.3-0.2,0.5-0.5,0.5-0.8c0-0.5-0.3-1-1-1.9l0.8-1.5
		c0.2-0.2,0.2-0.2,0.2-0.2l0.2,0.2C718.5,463.5,718.7,464.3,718.7,465.3z" class="area" title=""></path>
	<path id="PATH_59" d="M725.4,468.8h-1.2c-1.2,0-2.2-0.5-2.5-1.5c-0.3-0.7-0.5-1.9-0.5-3.2v-3.2c0-1.5-0.2-3.7-0.3-6.6l1-1.2
		c0.2-0.2,0.3-0.2,0.3,0c0.2,1.5,0.3,3.7,0.3,6.6v4.9c0,1.3,0.7,2,2,2h0.8L725.4,468.8L725.4,468.8z" class="area" title=""></path>
	<path id="PATH_60" d="M737.5,468.8h-1.2c-0.8,0-1.7-0.5-2.4-1.3c-0.5,1.3-1,2-1.5,2c-0.5,0-1.3-0.3-2.4-0.8c-0.8-0.5-1.5-1-1.9-1.3
		c-0.8,1-1.7,1.5-2.5,1.5h-1v-2h1c0.8,0,1.5-0.3,2.2-1c0.5-0.5,1-1.2,1.7-1.9s1.2-1,1.7-1c0.7,0,1.2,0.3,1.7,1
		c0.3,0.3,0.7,1,1.5,1.9c0.5,0.7,1.2,1,1.9,1h1v2H737.5z M733,467.3c0-0.5-0.2-1-0.5-1.7c-0.3-0.7-0.8-1-1.5-1
		c-0.5,0-1.2,0.5-1.9,1.3c0.2,0.2,0.7,0.5,1.5,1c0.8,0.5,1.5,0.7,2,0.7C732.8,467.7,733,467.7,733,467.3z" class="area" title=""></path>
	<path id="PATH_61" d="M743.7,468.8h-0.7c-1.5,0-2.5-0.5-3-1.7c-0.2,0.5-0.5,0.8-1,1.2c-0.5,0.3-1,0.5-1.5,0.5h-0.7v-2h0.7
		c1.3,0,2-0.5,2-1.7v-5.9c0-2.2,0-3.9-0.2-5l1.5-1.2v11.3c0,1.7,0.7,2.5,2.2,2.5h0.7V468.8z" class="area" title=""></path>
	<path id="PATH_62" d="M756.9,465.1c0,1-0.2,1.9-0.7,2.5c-0.5,0.7-1.3,1.2-2.2,1.2c-1.2,0-1.9-0.5-2.4-1.3c-0.7,1-1.3,1.3-2.4,1.3
		c-1.2,0-2-0.5-2.5-1.3c-0.7,1-1.5,1.3-2.7,1.3h-1v-2h1.3c1.2,0,2-0.7,2.2-2c0-0.3,0.2-0.5,0.3-0.5c0.2,0,0.2,0.2,0.3,0.5
		c0.2,1.3,0.8,2,2.2,2c0.7,0,1.3-0.2,1.7-0.5c0.2-0.3,0.3-0.7,0.5-1.3c0-0.3,0.2-0.5,0.3-0.5s0.2,0.2,0.3,0.5c0.2,1.3,0.8,2,2,2
		c1.3,0,1.9-0.3,1.9-0.8c0-0.5-0.3-1.2-1-1.9l0.8-1.5c0.2-0.2,0.2-0.3,0.3-0.3s0.2,0.2,0.3,0.3C756.7,463.6,756.9,464.5,756.9,465.1
		z" class="area" title=""></path>
</g>
<g id="G_63" class="area" title="">
	<path id="PATH_64" d="M792.2,609.5H791c-1.5,0-2.4-0.8-2.7-2.7c-0.8,0.8-1.2,1.2-1.3,1.2h-1.5c-0.5,0-1,0-1.5-0.2
		c-0.7-0.2-1-0.5-1-0.8c0-1.3,0.5-2.4,1.3-3c0.7-0.5,1.7-1,3-1.7l-0.3-1.7l1.2-1.3c0,0.2,0.5,2,1.2,5.6c0.2,1,0.5,1.9,0.7,2.2
		c0.3,0.5,0.7,0.7,1.3,0.7h1.2v1.9H792.2z M788,606.1l-0.5-2.7c-0.5,0.2-1.2,0.5-2,0.8c-1,0.5-1.7,1-1.7,1.2c0,0.3,0.3,0.5,1.2,0.7
		c0.5,0.2,1,0.2,1.5,0.2C787.1,606.3,787.7,606.1,788,606.1z" class="area" title=""></path>
	<path id="PATH_65" d="M800.4,609.5h-1.3c-1.5,0-2.5-0.5-3.2-1.5c-0.5,1-1.7,1.5-3.5,1.5h-1v-2h1.5c1.7,0,2.5-0.7,2.7-1.9
		c0-0.5,0.2-0.8,0.3-0.8s0.3,0.3,0.3,0.8c0.2,1.2,1,1.9,2.5,1.9h1.5v2H800.4z M794.9,613.2l-1.3,1.3l-1.3-1.3l1.3-1.3L794.9,613.2z
		 M797.9,613.2l-1.3,1.3l-1.3-1.3l1.3-1.3L797.9,613.2z" class="area" title=""></path>
	<path id="PATH_66" d="M808.9,606.1c0,0.8,0,1.5-0.3,2.2c-0.3,0.8-0.8,1.3-1.3,1.3c-0.8,0-2.2-0.5-3.9-1.7c-0.5,0.7-0.8,1-1,1.2
		c-0.5,0.3-1,0.5-1.7,0.5h-0.8v-2h1.2c0.7,0,1.3-0.3,2-1.2c0.3-0.3,0.8-1.2,1.5-2.2c0.5-0.8,1.2-1.2,1.7-1.2c0.8,0,1.5,0.3,2,1.2
		C808.7,604.9,808.9,605.6,808.9,606.1z M807.8,607.5c0-0.5-0.2-1-0.5-1.7c-0.3-0.7-0.8-1-1.3-1s-1,0.5-1.7,1.5
		c0.3,0.3,0.8,0.7,1.5,1c0.7,0.3,1.3,0.5,1.7,0.5C807.7,607.8,807.8,607.6,807.8,607.5z" class="area" title=""></path>
	<path id="PATH_67" d="M817.6,608.8c0,2.5-0.8,4.7-2.5,6.4c-0.5,0.5-0.8,0.8-1,0.8c-1,0-2-0.2-3.2-0.3c-0.5,0-0.7-0.2-0.7-0.2
		s0.2-0.2,0.7-0.3c1.3-0.3,2.7-1.2,3.9-2.2c0.5-0.5,1-0.8,1.3-1.5c0.5-0.7,0.8-1.3,0.8-1.9v-0.5h-2.2c-1.5,0-2.4-0.7-2.4-1.9
		c0-0.8,0.2-1.7,0.7-2.7c0.5-1,1.2-1.7,1.9-1.7c1,0,1.9,0.7,2.4,2.2C817.3,606.4,817.6,607.6,817.6,608.8z M816.3,607.5
		c0-0.5-0.2-1-0.5-1.5c-0.3-0.5-0.8-0.8-1.3-0.8c-0.3,0-0.7,0.2-0.8,0.3c-0.3,0.3-0.3,0.5-0.3,0.8c0,0.8,0.5,1.2,1.7,1.2
		C815.1,607.6,815.7,607.6,816.3,607.5z" class="area" title=""></path>
	<path id="PATH_68" d="M826,609.6c0,1.7-0.5,3.2-1.5,4.7c-0.8,1.2-1.7,1.9-2.2,1.9c-1.3,0-2.4,0-3.4-0.2c-0.3,0-0.5-0.2-0.5-0.2
		s0.2-0.2,0.5-0.2c1.3-0.3,2.7-1,4-2c1.3-1.2,2.2-2.4,2.2-3.5c0-0.7-0.5-1.7-1.7-2.9l0.8-1.5c0-0.2,0.2-0.2,0.2-0.2l0.2,0.2
		c0.3,0.5,0.8,1.2,1,2C825.8,608.3,826,609.1,826,609.6z" class="area" title=""></path>
	<path id="PATH_69" d="M830,607.5c0,0.7-0.2,1.3-0.5,1.9c-0.2,0.3-0.3,0.5-0.3,0.5s-0.2-0.2-0.2-0.7c0-2-0.3-6.7-1-14.3l1.3-1.3
		c0.2-0.2,0.2-0.2,0.2-0.2s0,0.2,0,0.3C829.9,596,830,600.6,830,607.5z" class="area" title=""></path>
</g>
<g id="G_70" class="area" title="">
	<path id="PATH_71" d="M694,787.3h-1.2c-1.5,0-2.4-0.8-2.7-2.7c-0.8,0.8-1.2,1.2-1.3,1.2h-1.5c-0.5,0-1,0-1.5-0.2
		c-0.7-0.2-1-0.5-1-0.8c0-1.3,0.5-2.4,1.3-3c0.7-0.5,1.7-1,3-1.7l-0.3-1.7l1.2-1.3c0,0.2,0.5,2,1.2,5.6c0.2,1,0.5,1.9,0.7,2.2
		c0.3,0.5,0.7,0.7,1.3,0.7h1.2v1.9H694z M689.7,783.8l-0.5-2.7c-0.5,0.2-1.2,0.5-2,0.8c-1,0.5-1.7,1-1.7,1.2c0,0.3,0.3,0.5,1.2,0.7
		c0.5,0.2,1,0.2,1.5,0.2C688.9,783.9,689.4,783.9,689.7,783.8z" class="area" title=""></path>
	<path id="PATH_72" d="M698,783.9c0,2.2-1.2,3.4-3.4,3.4h-1.3v-2h1.2c1.7,0,2.5-0.3,2.5-0.8s-0.3-1.2-1.2-2l0.7-1.7
		c0-0.2,0.2-0.2,0.2-0.2s0.2,0.2,0.3,0.3C697.7,781.7,698,782.9,698,783.9z M696.6,791l-1.3,1.3L694,791l1.3-1.3L696.6,791z
		 M699.5,791l-1.3,1.3l-1.3-1.3l1.3-1.3L699.5,791z" class="area" title=""></path>
	<path id="PATH_73" d="M710.1,787.3h-1.9c-0.2,2.4-1,4.2-2.7,5.9c-0.5,0.5-0.8,0.8-1,0.8c-0.8,0-2-0.2-3.2-0.3
		c-0.3,0-0.7-0.2-0.7-0.2s0.2-0.2,0.7-0.3c1.3-0.3,2.7-1.2,3.9-2c0.5-0.5,1-0.8,1.3-1.5c0.5-0.7,0.8-1.3,0.8-1.9v-0.5h-2.2
		c-1.7,0-2.4-0.7-2.4-2c0-0.8,0.2-1.7,0.7-2.7c0.5-1,1.2-1.7,1.9-1.7c0.8,0,1.5,0.5,2,1.7c0.3,0.8,0.7,1.7,0.7,2.7h1.9v2H710.1z
		 M707.1,785.3c0-0.5-0.2-1-0.5-1.5c-0.3-0.7-0.8-0.8-1.3-0.8c-0.3,0-0.7,0.2-0.8,0.3c-0.3,0.3-0.3,0.5-0.3,1c0,0.8,0.7,1.2,2,1.2
		C706.1,785.4,706.6,785.3,707.1,785.3z" class="area" title=""></path>
	<path id="PATH_74" d="M718.3,787.3H717c-1.5,0-2.5-0.5-3.2-1.5c-0.5,1-1.7,1.5-3.5,1.5h-0.8v-2h1.5c1.7,0,2.5-0.7,2.7-1.9
		c0-0.5,0.2-0.8,0.3-0.8s0.3,0.3,0.3,0.8c0.2,1.2,1,1.9,2.5,1.9h1.5V787.3L718.3,787.3z M715,778.5l-1.3,1.3l-1.3-1.3l1.3-1.3
		L715,778.5z" class="area" title=""></path>
	<path id="PATH_75" d="M731.6,783.8c0,1-0.2,1.9-0.7,2.5c-0.5,0.7-1.3,1.2-2.2,1.2c-1.2,0-1.9-0.5-2.4-1.3c-0.7,1-1.3,1.3-2.4,1.3
		c-1.2,0-2-0.5-2.5-1.3c-0.7,1-1.5,1.3-2.7,1.3h-1.2v-2h1.3c1.2,0,2-0.7,2.2-2c0-0.3,0.2-0.5,0.3-0.5s0.2,0.2,0.3,0.5
		c0.2,1.3,0.8,2,2.2,2c0.7,0,1.3-0.2,1.7-0.5c0.2-0.3,0.3-0.7,0.5-1.3c0-0.3,0.2-0.5,0.3-0.5s0.2,0.2,0.3,0.5c0.2,1.3,0.8,2,2,2
		c1.3,0,1.9-0.3,1.9-0.8s-0.3-1.2-1-1.9l0.8-1.5c0.2-0.2,0.2-0.3,0.3-0.3c0.2,0,0.2,0.2,0.3,0.3
		C731.3,782.1,731.6,782.9,731.6,783.8z M725.9,777.5l-1.2,1.2l-1.2-1.2l1.2-1.2L725.9,777.5z M727.4,774.8l-1.2,1.2l-1.2-1.2
		l1.2-1.2L727.4,774.8z M728.9,777.5l-1.2,1.2l-1.2-1.2l1.2-1.2L728.9,777.5z" class="area" title=""></path>
	<path id="PATH_76" d="M735.7,785.3c0,0.7-0.2,1.3-0.5,1.9c-0.2,0.3-0.3,0.5-0.3,0.5s-0.2-0.2-0.2-0.7c0-2-0.3-6.7-1-14.3l1.3-1.3
		c0.2-0.2,0.2-0.2,0.2-0.2s0,0.2,0,0.3C735.5,773.7,735.7,778.2,735.7,785.3z" class="area" title=""></path>
</g>
<g id="G_77" class="area" title="">
	<path id="PATH_78" d="M972,753.8c0,1.2-0.3,2.2-1.2,2.7c-0.5,0.3-1.5,0.7-3,0.8c-1.7,0.3-3.4,0.5-5.2,0.5c-4.4,0-6.7-1.2-6.7-3.7
		c0-0.8,0.3-1.7,1-2.5c0.2-0.2,0.2-0.3,0.3-0.3c0.2,0,0.2,0,0.2,0.2c0,0,0,0.2,0,0.3c-0.2,0.5-0.3,1-0.3,1.5c0,1.7,2.2,2.5,6.4,2.5
		c2,0,3.9-0.2,5.2-0.3c1.7-0.3,2.4-0.7,2.4-1.2c0-0.3-0.3-1-1.2-2l0.8-1.5c0.2-0.2,0.2-0.2,0.3,0C971.7,752,972,753,972,753.8z
		 M965.5,761.4l-1.3,1.3l-1.3-1.3l1.3-1.3L965.5,761.4z" class="area" title=""></path>
	<path id="PATH_79" d="M978.9,739.5c-0.7,0.7-1.7,0.8-2.7,0.8c-0.2,0-0.3,0-0.7,0c-0.3,0-0.5,0-0.7,0s-0.3,0.2-0.5,0.3
		c-0.2,0.2-0.3,0.3-0.3,0.3c-0.2,0-0.2-0.2-0.2-0.3c0-0.2,0.2-0.5,0.3-0.8c0.2-0.5,0.3-0.7,0.5-0.7c0.2,0,0.5,0,1,0.2
		c0.5,0.2,0.8,0.2,1,0.2c1,0,1.7,0,2.2-0.2c0.3,0,0.5-0.2,0.5-0.2h0.2C979.3,739.2,979.1,739.3,978.9,739.5z M977.7,755.5
		c0,0.7-0.2,1.3-0.5,1.9c-0.2,0.3-0.3,0.5-0.3,0.5s-0.2-0.2-0.2-0.7c0-2-0.3-6.7-1-14.3l1.3-1.3c0.2-0.2,0.2-0.2,0.2-0.2
		s0,0.2,0,0.3C977.7,743.9,977.7,748.4,977.7,755.5z" class="area" title=""></path>
	<path id="PATH_80" d="M987.3,756.8c0,2.5-0.8,4.7-2.5,6.4c-0.5,0.5-0.8,0.8-1,0.8c-1,0-2-0.2-3.2-0.3c-0.5,0-0.7-0.2-0.7-0.2
		s0.2-0.2,0.7-0.3c1.3-0.3,2.7-1.2,3.9-2.2c0.5-0.5,1-0.8,1.3-1.5c0.5-0.7,0.8-1.3,0.8-1.9v-0.5h-2.2c-1.5,0-2.4-0.7-2.4-1.9
		c0-0.8,0.2-1.7,0.7-2.7c0.5-1,1.2-1.7,1.9-1.7c1,0,1.9,0.7,2.4,2.2C987.2,754.5,987.3,755.7,987.3,756.8z M986.2,755.5
		c0-0.5-0.2-1-0.5-1.5c-0.3-0.5-0.8-0.8-1.3-0.8c-0.3,0-0.7,0.2-0.8,0.3s-0.3,0.5-0.3,0.8c0,0.8,0.5,1.2,1.7,1.2
		C985,755.7,985.5,755.7,986.2,755.5z" class="area" title=""></path>
	<path id="PATH_81" d="M997.6,754c0,2.4-1.5,3.5-4.7,3.5c-1.2,0-2-0.2-2.5-0.5c-0.7-0.3-1-1.2-1-2.2c0-0.5,0.2-1,0.3-1.5
		c0.2-0.2,0.2-0.3,0.3-0.3s0.2,0.2,0.2,0.5c0,0.2,0,0.3,0,0.5c0,0.7,0.3,1.2,1,1.3c0.3,0.2,1,0.2,1.9,0.2c2.5,0,3.7-0.3,3.7-1.2
		c0-1.2-1.5-2.9-4.4-4.9l0.5-1.7c0-0.2,0.2-0.2,0.2-0.2s0.2,0,0.3,0.2C996.3,750.1,997.6,752.1,997.6,754z" class="area" title=""></path>
	<path id="PATH_82" d="M1018.8,757.3c0.2,0.5,0.2,1,0.2,1.5c0,0.7-0.2,1.2-0.3,1.9c-0.5,1.2-1.3,2.2-3,2.9c-1.3,0.5-2.7,0.8-4.2,0.8
		c-1.5,0-2.7-0.3-3.7-1c-1-0.8-1.5-1.9-1.5-3.4c0-0.8,0.2-1.5,0.5-2.5c0.3-0.7,0.5-1.2,0.8-1.5c0.2-0.2,0.3-0.2,0.3-0.2
		c0.2,0,0.2,0,0.2,0.2c0,0,0,0.2,0,0.3c-0.5,1-0.7,2-0.7,2.9s0.3,1.5,0.8,2.2c0.7,0.8,1.9,1.2,3.4,1.2c1.7,0,3.2-0.3,4.4-0.8
		c1-0.5,1.7-1,2-1.7c0.2-0.2,0.2-0.5,0.2-0.7c0-0.5-0.2-1-0.3-1.7c-0.2-0.5-0.7-1.3-1.5-2.7l0.7-1.3c0.2-0.2,0.2-0.3,0.2-0.3
		s0.2,0,0.2,0.2C1018.1,754.7,1018.6,756,1018.8,757.3z M1013.9,750.1l-1.3,1.3l-1.3-1.3l1.3-1.3L1013.9,750.1z" class="area" title=""></path>
	<path id="PATH_83" d="M1025.7,757.5h-1.2c-1.2,0-2.2-0.5-2.5-1.5c-0.3-0.7-0.5-1.9-0.5-3.2v-3.2c0-1.5-0.2-3.7-0.3-6.6l1-1.2
		c0.2-0.2,0.3-0.2,0.3,0c0.2,1.5,0.3,3.7,0.3,6.6v4.9c0,1.3,0.7,2,2,2h0.8V757.5L1025.7,757.5z" class="area" title=""></path>
	<path id="PATH_84" d="M1033.9,757.5h-1.3c-1.5,0-2.5-0.5-3.2-1.5c-0.5,1-1.7,1.5-3.5,1.5h-1v-2h1.5c1.7,0,2.5-0.7,2.7-1.9
		c0-0.5,0.2-0.8,0.3-0.8s0.3,0.3,0.3,0.8c0.2,1.2,1,1.9,2.5,1.9h1.5v2H1033.9z M1028.4,761.2l-1.3,1.3l-1.3-1.3l1.3-1.3
		L1028.4,761.2z M1031.2,761.2l-1.3,1.3l-1.3-1.3l1.3-1.3L1031.2,761.2z" class="area" title=""></path>
	<path id="PATH_85" d="M1042.2,754.1c0,0.8,0,1.5-0.3,2.2c-0.3,0.8-0.8,1.3-1.3,1.3c-0.8,0-2.2-0.5-3.9-1.7c-0.5,0.7-0.8,1-1,1.2
		c-0.5,0.3-1,0.5-1.7,0.5h-0.8v-2h1.2c0.7,0,1.3-0.3,2-1.2c0.3-0.3,0.8-1.2,1.5-2.2c0.5-0.8,1.2-1.2,1.7-1.2c0.8,0,1.5,0.3,2,1.2
		C1042,753,1042.2,753.6,1042.2,754.1z M1041.2,755.5c0-0.5-0.2-1-0.5-1.7c-0.3-0.7-0.8-1-1.3-1s-1,0.5-1.7,1.5
		c0.3,0.3,0.8,0.7,1.5,1c0.7,0.3,1.3,0.5,1.7,0.5S1041.2,755.7,1041.2,755.5z" class="area" title=""></path>
</g>
<g id="G_86" class="area" title="">
	<path id="PATH_87" d="M880.5,778.7c0,1.2-0.3,2-1,2.7c-0.7,0.7-1.7,0.8-2.7,0.8c-0.7,0-1.3-0.2-1.9-0.7c-0.5-0.5-0.8-1-0.8-1.7
		c0-0.8,0.3-1.7,1-2.9c0.5-1,1.2-1.9,1.9-2.5C879.3,775.7,880.5,777,880.5,778.7z M879.7,779.4c0-0.5-0.3-1-1.2-1.7
		c-0.7-0.7-1.2-1-1.9-1.2c-0.8,1.2-1.3,2-1.3,2.7c0,0.3,0.2,0.7,0.7,1c0.3,0.2,0.7,0.3,1.2,0.3c0.7,0,1.3-0.2,1.9-0.3
		C879.3,779.7,879.7,779.6,879.7,779.4z" class="area" title=""></path>
	<path id="PATH_88" d="M893.6,782.2H893c-0.7,0-1.2-0.2-1.7-0.7c-0.3-0.3-0.7-0.7-1-1.3c-0.3,0.7-0.8,1.2-1.3,1.5
		c-0.7,0.3-1.5,0.5-2.9,0.5c-2.4,0-3.5-0.8-3.5-2.5c0-0.5,0.2-1.2,0.5-1.7c0.2-0.2,0.2-0.3,0.3-0.3s0.2,0.2,0.2,0.3
		c0,0.2,0,0.2,0,0.5s0,0.3,0,0.5c0,1,0.8,1.5,2.5,1.5c2.4,0,3.5-0.5,3.5-1.3c0-0.5-0.7-2.4-2-5.6l0.7-1.3c0.2-0.2,0.2-0.3,0.2-0.3
		s0.2,0.2,0.2,0.3c0.5,1.3,1.3,3.4,2.4,6.1c0.5,1.3,1.2,2,2.2,2h0.5V782.2L893.6,782.2z" class="area" title=""></path>
	<path id="PATH_89" d="M902.7,782.2h-0.8c-0.5,0-1.2-0.2-2-0.3c-0.8-0.2-1.3-0.5-1.9-0.8c-1,0.7-2.4,1-4,1h-1.2v-2h0.8
		c1.3,0,2.2-0.2,2.5-0.3c-0.7-0.5-1-1.2-1-1.9c0-0.7,0.3-1.5,0.8-2.5c0.7-1,1.3-1.7,2.2-1.7c0.8,0,1.3,0.5,1.9,1.3
		c0.3,0.7,0.5,1.5,0.5,2.4c0,1-0.3,1.7-1.2,2.4c0.5,0.2,1.2,0.3,2.4,0.3h0.7v2.2H902.7z M897.8,769.8l-1.3,1.3l-1.3-1.3l1.3-1.3
		L897.8,769.8z M899.9,777.9c0-0.3-0.2-0.8-0.5-1.3c-0.3-0.5-0.7-0.7-1-0.7c-0.3,0-0.7,0.2-1.2,0.5c-0.5,0.3-0.7,0.8-0.7,1.2
		c0,0.3,0.2,0.8,0.7,1.2c0.3,0.3,0.8,0.5,1.2,0.7c0.3,0,0.7-0.2,1-0.5C899.7,778.7,899.9,778.4,899.9,777.9z M900.7,769.8l-1.3,1.3
		l-1.3-1.3l1.3-1.3L900.7,769.8z" class="area" title=""></path>
	<path id="PATH_90" d="M906.8,778.9c0,2.2-1.2,3.4-3.4,3.4H902v-2h1.2c1.7,0,2.5-0.3,2.5-0.8c0-0.5-0.3-1.2-1.2-2l0.7-1.7
		c0-0.2,0.2-0.2,0.2-0.2s0.2,0.2,0.3,0.3C906.4,776.7,906.8,777.9,906.8,778.9z M906.8,771.3l-1.3,1.3l-1.3-1.3l1.3-1.3L906.8,771.3
		z" class="area" title=""></path>
</g>
<g id="G_91" class="area" title="">
	<path id="PATH_92" d="M950.3,866.7c0,2.4-1.5,3.5-4.7,3.5c-1.2,0-2-0.2-2.5-0.5c-0.7-0.3-1-1.2-1-2.2c0-0.5,0.2-1,0.3-1.5
		c0.2-0.2,0.2-0.3,0.3-0.3s0.2,0.2,0.2,0.5c0,0.2,0,0.3,0,0.5c0,0.7,0.3,1.2,1,1.3c0.3,0.2,1,0.2,1.9,0.2c2.5,0,3.7-0.3,3.7-1.2
		c0-1.2-1.5-2.9-4.4-4.9l0.5-1.7c0-0.2,0.2-0.2,0.2-0.2s0.2,0,0.3,0.2C948.8,862.7,950.3,864.7,950.3,866.7z" class="area" title=""></path>
	<path id="PATH_93" d="M956.9,870.2h-1.2c-1.2,0-2.2-0.5-2.5-1.5c-0.3-0.7-0.5-1.9-0.5-3.2v-3.2c0-1.5-0.2-3.7-0.3-6.6l1-1.2
		c0.2-0.2,0.3-0.2,0.3,0c0.2,1.5,0.3,3.7,0.3,6.6v4.9c0,1.3,0.7,2,2,2h0.8V870.2z" class="area" title=""></path>
	<path id="PATH_94" d="M960.9,866.9c0,2.2-1.2,3.4-3.4,3.4h-1.3v-2h1.2c1.7,0,2.5-0.3,2.5-0.8s-0.3-1.2-1.2-2l0.7-1.7
		c0-0.2,0.2-0.2,0.2-0.2s0.2,0.2,0.3,0.3C960.6,864.7,960.9,865.7,960.9,866.9z M960.4,873.9l-1.3,1.3l-1.3-1.3l1.3-1.3L960.4,873.9
		z" class="area" title=""></path>
	<path id="PATH_95" d="M967.7,870.2h-1.2c-1.2,0-2.2-0.5-2.5-1.5c-0.3-0.7-0.5-1.9-0.5-3.2v-3.2c0-1.5-0.2-3.7-0.3-6.6l1-1.2
		c0.2-0.2,0.3-0.2,0.3,0c0.2,1.5,0.3,3.7,0.3,6.6v4.9c0,1.3,0.7,2,2,2h0.8V870.2z" class="area" title=""></path>
	<path id="PATH_96" d="M978.1,870.2h-0.8c-0.7,0-1.3,0.2-1.9,0.3c-0.8,0.3-1.3,0.8-1.3,1.7c0,1,0.7,1.9,2,2.7l-0.8,1.7
		c-1.5-0.5-2.9-1.3-3.9-2.4c-1.3-1.2-2-2.7-2-4.2H967v-2h2.2c0-1.3,0.3-2.7,1-4.4c0.7-1.5,1.2-2.2,1.5-2.2s0.8,0.7,1.3,2.2
		c0.5,1.3,0.7,2.2,0.7,2.7c0,2.4-1.2,3.5-3.5,3.5c0.2,0.7,0.5,1.3,1,2c0.5,0.7,1.2,1.2,1.9,1.5c0-0.2,0-0.5,0-0.7
		c0-1.2,0.3-2.2,0.8-3c0.8-1.2,1.9-1.9,3.4-1.9h0.7v2.4H978.1z M973,867.5c0-0.3-0.2-1-0.5-1.9c-0.3-1-0.7-1.3-1-1.3
		c-0.2,0-0.5,0.3-0.8,1.2c-0.3,0.8-0.5,1.9-0.5,2.9C972,868.2,973,868,973,867.5z" class="area" title=""></path>
	<path id="PATH_97" d="M986.5,866.9c0,0.8,0,1.5-0.3,2.2c-0.3,0.8-0.8,1.3-1.3,1.3c-0.8,0-2.2-0.5-3.9-1.7c-0.5,0.7-0.8,1-1,1.2
		c-0.5,0.3-1,0.5-1.7,0.5h-0.8v-2h1.2c0.7,0,1.3-0.3,2-1.2c0.3-0.3,0.8-1.2,1.5-2.2c0.5-0.8,1.2-1.2,1.7-1.2c0.8,0,1.5,0.3,2,1.2
		C986.2,865.5,986.3,866.2,986.5,866.9z M985.5,868c0-0.5-0.2-1-0.5-1.7c-0.3-0.7-0.8-1-1.3-1c-0.5,0-1,0.5-1.7,1.5
		c0.3,0.3,0.8,0.7,1.5,1s1.3,0.5,1.7,0.5C985.3,868.5,985.5,868.4,985.5,868z" class="area" title=""></path>
</g>
<g id="G_98" class="area" title="">
	<path id="PATH_99" d="M1052.4,878.1c0.2,0.5,0.2,1,0.2,1.5c0,0.7-0.2,1.2-0.3,1.9c-0.5,1.2-1.3,2.2-3,2.9c-1.3,0.5-2.7,0.8-4.2,0.8
		c-1.5,0-2.7-0.3-3.7-1c-1-0.8-1.5-1.9-1.5-3.4c0-0.8,0.2-1.5,0.5-2.5c0.3-0.7,0.5-1.2,0.8-1.5c0.2-0.2,0.3-0.2,0.3-0.2
		c0.2,0,0.2,0,0.2,0.2c0,0,0,0.2,0,0.3c-0.5,1-0.7,2-0.7,2.9s0.3,1.5,0.8,2.2c0.7,0.8,1.9,1.2,3.4,1.2c1.7,0,3.2-0.3,4.4-0.8
		c1-0.5,1.7-1,2-1.7c0.2-0.2,0.2-0.5,0.2-0.7c0-0.5-0.2-1-0.3-1.7c-0.2-0.5-0.7-1.3-1.5-2.7l0.7-1.3c0.2-0.2,0.2-0.3,0.2-0.3
		s0.2,0,0.2,0.2C1051.8,875.6,1052.3,876.8,1052.4,878.1z M1047.6,870.9l-1.3,1.3l-1.3-1.3l1.3-1.3L1047.6,870.9z" class="area" title=""></path>
	<path id="PATH_100" d="M1059.3,878.5h-1.2c-1.2,0-2.2-0.5-2.5-1.5c-0.3-0.7-0.5-1.9-0.5-3.2v-3.2c0-1.5-0.2-3.7-0.3-6.6l1-1.2
		c0.2-0.2,0.3-0.2,0.3,0c0.2,1.5,0.3,3.7,0.3,6.6v4.9c0,1.3,0.7,2,2,2h0.8L1059.3,878.5L1059.3,878.5z" class="area" title=""></path>
	<path id="PATH_101" d="M1069.8,862.8c0,0.3-0.3,1-0.7,1.9l-4.2,1.3c-1.9,0.7-3.2,1.2-3.9,1.5c1.3,1.3,2.2,2.4,2.7,2.9
		c0.8,1.2,1.3,2.2,1.5,3.4c0,0.8,0,1.7-0.3,2.4c-0.5,1.5-2.4,2.2-5.2,2.2h-0.8v-1.9h1c1.3,0,2.4,0,2.9-0.2c1.2-0.3,1.9-0.8,1.9-1.7
		c0-1.2-0.8-2.5-2.7-4.2l-0.2,0.3c-0.2-0.2-0.5-0.5-0.8-1c-0.5-0.5-0.7-1-0.7-1c0-0.3,0-0.7,0.2-1.3c0.2-0.7,0.3-1,0.5-1.2
		c0.2-0.2,1.3-0.7,3.5-1.3C1066.2,864,1068.3,863.3,1069.8,862.8z" class="area" title=""></path>
	<path id="PATH_102" d="M1079.4,878.5h-1.9c-0.2,2.4-1,4.2-2.7,5.9c-0.5,0.5-0.8,0.8-1,0.8c-0.8,0-2-0.2-3.2-0.3
		c-0.3,0-0.7-0.2-0.7-0.2s0.2-0.2,0.7-0.3c1.3-0.3,2.7-1.2,3.9-2c0.5-0.5,1-0.8,1.3-1.5c0.5-0.7,0.8-1.3,0.8-1.9v-0.5h-2.2
		c-1.7,0-2.4-0.7-2.4-2c0-0.8,0.2-1.7,0.7-2.7c0.5-1,1.2-1.7,1.9-1.7c0.8,0,1.5,0.5,2,1.7c0.3,0.8,0.7,1.7,0.7,2.7h1.9v2H1079.4z
		 M1076.5,876.4c0-0.5-0.2-1-0.5-1.5c-0.3-0.7-0.8-0.8-1.3-0.8c-0.3,0-0.7,0.2-0.8,0.3s-0.3,0.5-0.3,1c0,0.8,0.7,1.2,2,1.2
		C1075.5,876.4,1075.8,876.4,1076.5,876.4z" class="area" title=""></path>
	<path id="PATH_103" d="M1083.4,875.1c0,2.2-1.2,3.4-3.4,3.4h-1.3v-2h1.2c1.7,0,2.5-0.3,2.5-0.8s-0.3-1.2-1.2-2l0.7-1.7
		c0-0.2,0.2-0.2,0.2-0.2s0.2,0.2,0.3,0.3C1083.1,872.9,1083.4,873.9,1083.4,875.1z M1082.9,882.2l-1.3,1.3l-1.3-1.3l1.3-1.3
		L1082.9,882.2z" class="area" title=""></path>
</g>
<g id="G_104" class="area" title="">
	<path id="PATH_105" d="M1135,870.4c0,1.7-0.5,3.2-1.5,4.7c-0.8,1.2-1.7,1.9-2.2,1.9c-1.3,0-2.4,0-3.4-0.2c-0.3,0-0.5-0.2-0.5-0.2
		s0.2-0.2,0.5-0.2c1.3-0.3,2.7-1,4-2c1.3-1.2,2.2-2.4,2.2-3.5c0-0.7-0.5-1.7-1.7-2.9l0.8-1.5c0-0.2,0.2-0.2,0.2-0.2l0.2,0.2
		c0.3,0.5,0.8,1.2,1,2C1134.9,869,1135,869.7,1135,870.4z M1131.5,861.8l-1.2,1.2l-1.2-1.2l1.2-1.2L1131.5,861.8z M1133,859.1
		l-1.2,1.2l-1.2-1.2l1.2-1.2L1133,859.1z M1134.5,861.8l-1.2,1.2l-1.2-1.2l1.2-1.2L1134.5,861.8z" class="area" title=""></path>
	<path id="PATH_106" d="M1145.3,866.7c0,2.4-1.5,3.5-4.7,3.5c-1.2,0-2-0.2-2.5-0.5c-0.7-0.3-1-1.2-1-2.2c0-0.5,0.2-1,0.3-1.5
		c0.2-0.2,0.2-0.3,0.3-0.3c0.2,0,0.2,0.2,0.2,0.5c0,0.2,0,0.3,0,0.5c0,0.7,0.3,1.2,1,1.3c0.3,0.2,1,0.2,1.9,0.2
		c2.5,0,3.7-0.3,3.7-1.2c0-1.2-1.5-2.9-4.4-4.9l0.5-1.7c0-0.2,0.2-0.2,0.2-0.2s0.2,0,0.3,0.2
		C1143.8,862.7,1145.3,864.7,1145.3,866.7z" class="area" title=""></path>
	<path id="PATH_107" d="M1168.9,870.2h-0.8c-0.8,0-1.3,0-1.7-0.2c0,0.5,0.2,0.8,0.2,1.3c0,0.8-0.2,1.3-0.3,1.9
		c-0.5,1.2-1.3,2.2-3,2.9c-1.3,0.5-2.7,0.8-4.2,0.8s-2.7-0.3-3.7-1c-1-0.8-1.5-1.9-1.5-3.4c0-0.8,0.2-1.5,0.5-2.5
		c0.3-0.7,0.5-1.2,0.8-1.5c0.2-0.2,0.3-0.2,0.3-0.2c0.2,0,0.2,0,0.2,0.2c0,0,0,0.2,0,0.3c-0.5,1-0.7,2-0.7,2.9s0.3,1.5,0.8,2.2
		c0.7,0.8,1.9,1.2,3.4,1.2c1.7,0,3.2-0.3,4.4-0.8c1-0.5,1.7-1,2-1.7c0.2-0.2,0.2-0.5,0-1.2c0-0.5-0.2-1-0.2-1.2
		c-0.2-0.5-0.8-1.3-1.7-2.5l0.7-1.3c0.2-0.2,0.2-0.3,0.2-0.3s0.2,0,0.2,0.2c0.8,1.3,1.7,2,2.7,2h1.3v2H1168.9z M1161.4,862.7
		l-1.3,1.3l-1.3-1.3l1.3-1.3L1161.4,862.7z" class="area" title=""></path>
	<path id="PATH_108" d="M1177.1,870.2h-1.3c-1.5,0-2.5-0.5-3.2-1.5c-0.5,1-1.7,1.5-3.5,1.5h-1v-2h1.5c1.7,0,2.5-0.7,2.7-1.9
		c0-0.5,0.2-0.8,0.3-0.8c0.2,0,0.3,0.3,0.3,0.8c0.2,1.2,1,1.9,2.5,1.9h1.5v2H1177.1z M1171.5,873.9l-1.3,1.3l-1.3-1.3l1.3-1.3
		L1171.5,873.9z M1174.4,873.9l-1.3,1.3l-1.3-1.3l1.3-1.3L1174.4,873.9z" class="area" title=""></path>
	<path id="PATH_109" d="M1187.4,866.7c0,0.7-0.2,1.3-0.7,2c-0.5,0.8-1,1.2-1.7,1.2c-0.5,0-1.7-0.3-3.5-1.2c-1.5,1-2.9,1.3-4,1.3
		h-0.8v-2h1c0.7,0,1.3,0,2-0.2c-0.7-0.5-1-1.2-1-2c0-1,0.7-2.2,2.2-3.4l-1.2-0.5c0.3-0.3,0.8-0.8,1.5-1.5c1.5,0.8,2.9,1.5,4,2.5
		C1186.5,864.3,1187.4,865.5,1187.4,866.7z M1183,865.3c0-0.5-0.2-0.8-0.3-1.2c-0.2-0.5-0.5-0.7-1-0.7c-0.5,0-0.8,0.2-1.3,0.5
		c-0.5,0.3-0.8,0.8-0.8,1.2c0,0.7,0.7,1.3,1.9,1.7c0.3-0.2,0.7-0.3,1-0.5C1182.8,866.2,1183,865.7,1183,865.3z M1186.5,867.4
		c0-0.5-0.3-1-1-1.7c-0.5-0.5-1-1-1.5-1.2c0,1.3-0.3,2.4-1.2,3c1.3,0.5,2.4,0.7,2.7,0.7C1186.2,868.2,1186.5,868,1186.5,867.4z" class="area" title=""></path>
	<path id="PATH_110" d="M1194.1,870.2h-1.2c-1.2,0-2.2-0.5-2.5-1.5c-0.3-0.7-0.5-1.9-0.5-3.2v-3.2c0-1.5-0.2-3.7-0.3-6.6l1-1.2
		c0.2-0.2,0.3-0.2,0.3,0c0.2,1.5,0.3,3.7,0.3,6.6v4.9c0,1.3,0.7,2,2,2h0.8L1194.1,870.2L1194.1,870.2z" class="area" title=""></path>
	<path id="PATH_111" d="M1207.4,866.5c0,1-0.2,1.9-0.7,2.5s-1.3,1.2-2.2,1.2c-1.2,0-1.9-0.5-2.4-1.3c-0.7,1-1.3,1.3-2.4,1.3
		c-1.2,0-2-0.5-2.5-1.3c-0.7,1-1.5,1.3-2.7,1.3h-1.2v-2h1.3c1.2,0,2-0.7,2.2-2c0-0.3,0.2-0.5,0.3-0.5s0.2,0.2,0.3,0.5
		c0.2,1.3,0.8,2,2.2,2c0.7,0,1.3-0.2,1.7-0.5c0.2-0.3,0.3-0.7,0.5-1.3c0-0.3,0.2-0.5,0.3-0.5s0.2,0.2,0.3,0.5c0.2,1.3,0.8,2,2,2
		c1.3,0,1.9-0.3,1.9-0.8s-0.3-1.2-1-1.9l0.8-1.5c0.2-0.2,0.2-0.3,0.3-0.3s0.2,0.2,0.3,0.3C1207,865,1207.4,865.9,1207.4,866.5z
		 M1201.7,860.5l-1.2,1.2l-1.2-1.2l1.2-1.2L1201.7,860.5z M1203.2,857.8l-1.2,1.2l-1.2-1.2l1.2-1.2L1203.2,857.8z M1204.7,860.5
		l-1.2,1.2l-1.2-1.2l1.2-1.2L1204.7,860.5z" class="area" title=""></path>
</g>
<g id="G_112" class="area" title="">
	<path id="PATH_113" d="M898.7,997.6H898c-0.8,0-1.5-0.2-1.9-0.5c-0.5-0.3-0.8-1-0.8-1.7c-1.9,1.7-4.7,2.5-8.6,2.5
		c-4,0-6.1-1.2-6.1-3.7c0-0.8,0.3-1.7,1-2.5c0.2-0.2,0.2-0.2,0.3-0.2c0.2,0,0.2,0,0.2,0.2c0,0,0,0.2,0,0.3c-0.2,0.5-0.3,1-0.3,1.5
		c0,1.7,1.9,2.5,5.6,2.5c4.2,0,7.1-0.8,8.4-2.7c0.3-0.3,0.5-0.5,0.7-0.5s0.2,0.2,0.2,0.3c0,0.2,0,0.3-0.2,0.7c0,0.3-0.2,0.5-0.2,0.7
		c0,0.8,0.7,1.3,1.9,1.3h0.7v1.7H898.7z M888.3,987.8l-1.3,1.3l-1.3-1.3l1.3-1.3L888.3,987.8z M891.1,987.8l-1.3,1.3l-1.3-1.3
		l1.3-1.3L891.1,987.8z" class="area" title=""></path>
	<path id="PATH_114" d="M912,994c0,1-0.2,1.9-0.7,2.5c-0.5,0.7-1.3,1.2-2.2,1.2c-1.2,0-1.9-0.5-2.4-1.3c-0.7,1-1.3,1.3-2.4,1.3
		c-1.2,0-2-0.5-2.5-1.3c-0.7,1-1.5,1.3-2.7,1.3H898v-2h1.3c1.2,0,2-0.7,2.2-2c0-0.3,0.2-0.5,0.3-0.5s0.2,0.2,0.3,0.5
		c0.2,1.3,0.8,2,2.2,2c0.7,0,1.3-0.2,1.7-0.5c0.2-0.3,0.3-0.7,0.5-1.3c0-0.3,0.2-0.5,0.3-0.5s0.2,0.2,0.3,0.5c0.2,1.3,0.8,2,2,2
		c1.3,0,1.9-0.3,1.9-0.8c0-0.5-0.3-1.2-1-1.9l0.8-1.5c0.2-0.2,0.2-0.3,0.3-0.3s0.2,0.2,0.3,0.3C911.6,992.4,912,993.2,912,994z
		 M906.3,987.8l-1.2,1.2l-1.2-1.2l1.2-1.2L906.3,987.8z M907.8,985.3l-1.2,1.2l-1.2-1.2l1.2-1.2L907.8,985.3z M909.3,987.8l-1.2,1.2
		l-1.2-1.2l1.2-1.2L909.3,987.8z" class="area" title=""></path>
	<path id="PATH_115" d="M922.2,994c0,2.4-1.5,3.5-4.7,3.5c-1.2,0-2-0.2-2.5-0.5c-0.7-0.3-1-1.2-1-2.2c0-0.5,0.2-1,0.3-1.5
		c0.2-0.2,0.2-0.3,0.3-0.3c0.2,0,0.2,0.2,0.2,0.5c0,0.2,0,0.3,0,0.5c0,0.7,0.3,1.2,1,1.3c0.3,0.2,1,0.2,1.9,0.2
		c2.5,0,3.7-0.3,3.7-1.2c0-1.2-1.5-2.9-4.4-4.9l0.5-1.7c0-0.2,0.2-0.2,0.2-0.2s0.2,0,0.3,0.2C920.9,990,922.2,992.2,922.2,994z" class="area" title=""></path>
	<path id="PATH_116" d="M932.7,997.6H932c-0.7,0-1-0.2-1.3-0.3c0,0.2,0,0.3,0,0.5c0,1.5-0.5,3-1.5,4.5c-0.8,1.3-1.7,1.9-2.2,1.9
		c-1.3,0-2.4,0-3.4-0.2c-0.3,0-0.5-0.2-0.5-0.2s0.2-0.2,0.5-0.2c1.3-0.3,2.7-1,4-2c1.3-1.2,2.2-2.4,2.2-3.5c0-0.7-0.5-1.7-1.7-2.9
		l0.8-1.5c0-0.2,0.2-0.2,0.2-0.2l0.2,0.2c0.5,0.7,0.8,1.2,1.2,1.3c0.5,0.3,1.2,0.7,1.9,0.7h0.5v1.9H932.7z" class="area" title=""></path>
	<path id="PATH_117" d="M946,994c0,1-0.2,1.9-0.7,2.5s-1.3,1.2-2.2,1.2c-1.2,0-1.9-0.5-2.4-1.3c-0.7,1-1.3,1.3-2.4,1.3
		c-1.2,0-2-0.5-2.5-1.3c-0.7,1-1.5,1.3-2.7,1.3H932v-2h1.3c1.2,0,2-0.7,2.2-2c0-0.3,0.2-0.5,0.3-0.5s0.2,0.2,0.3,0.5
		c0.2,1.3,0.8,2,2.2,2c0.7,0,1.3-0.2,1.7-0.5c0.2-0.3,0.3-0.7,0.5-1.3c0-0.3,0.2-0.5,0.3-0.5s0.2,0.2,0.3,0.5c0.2,1.3,0.8,2,2,2
		c1.3,0,1.9-0.3,1.9-0.8c0-0.5-0.3-1.2-1-1.9l0.8-1.5c0.2-0.2,0.2-0.3,0.3-0.3s0.2,0.2,0.3,0.3C945.8,992.4,946,993.2,946,994z" class="area" title=""></path>
</g>
<g id="G_118" class="area" title="">
	<path id="PATH_119" d="M717.8,884.4h-0.7c-0.7,0-1-0.2-1.3-0.3c0,0.2,0,0.3,0,0.5c0,1.5-0.5,3-1.5,4.5c-0.8,1.3-1.7,1.9-2.2,1.9
		c-1.3,0-2.4,0-3.4-0.2c-0.3,0-0.5-0.2-0.5-0.2s0.2-0.2,0.5-0.2c1.3-0.3,2.7-1,4-2c1.3-1.2,2.2-2.4,2.2-3.5c0-0.7-0.5-1.7-1.7-2.9
		l0.8-1.5c0-0.2,0.2-0.2,0.2-0.2l0.2,0.2c0.5,0.7,0.8,1.2,1.2,1.3c0.5,0.3,1.2,0.7,1.9,0.7h0.3V884.4z" class="area" title=""></path>
	<path id="PATH_120" d="M728.3,884.4h-0.8c-0.7,0-1.3,0.2-1.9,0.3c-0.8,0.3-1.3,0.8-1.3,1.7c0,1,0.7,1.9,2,2.7l-0.8,1.7
		c-1.5-0.5-2.9-1.3-3.9-2.4c-1.3-1.2-2-2.7-2-4.2h-2.4v-2h2.2c0-1.3,0.3-2.7,1-4.4c0.7-1.5,1.2-2.2,1.5-2.2c0.3,0,0.8,0.7,1.3,2.2
		c0.5,1.3,0.7,2.2,0.7,2.7c0,2.4-1.2,3.5-3.5,3.5c0.2,0.7,0.5,1.3,1,2c0.5,0.7,1.2,1.2,1.9,1.5c0-0.2,0-0.5,0-0.7
		c0-1.2,0.3-2.2,0.8-3c0.8-1.2,1.9-1.9,3.4-1.9h0.7v2.4H728.3z M723.1,881.7c0-0.3-0.2-1-0.5-1.9c-0.3-1-0.7-1.3-1-1.3
		c-0.2,0-0.5,0.3-0.8,1.2c-0.3,0.8-0.5,1.9-0.5,2.9C722.2,882.3,723.1,882.2,723.1,881.7z" class="area" title=""></path>
	<path id="PATH_121" d="M743.7,884.4h-1c-1.2,0-1.9-0.5-2.4-1.3c-0.3,1-1.2,1.3-2.2,1.3s-1.7-0.5-2.2-1.3c-0.5,1-1.2,1.3-2.2,1.3
		c-1.2,0-2-0.5-2.5-1.3c-0.7,1-1.5,1.3-2.7,1.3h-1.2v-2h1.3c1.2,0,2-0.7,2.2-2c0-0.3,0.2-0.5,0.3-0.5s0.2,0.2,0.3,0.5
		c0.2,1.3,0.8,2,2.2,2c1.2,0,2-0.7,2-2c0-0.3,0.2-0.5,0.3-0.5c0.2,0,0.3,0.2,0.3,0.5c0.2,1.3,0.8,2,1.7,2c1.2,0,2-0.7,2-2
		c0-0.3,0.2-0.5,0.3-0.5s0.3,0.2,0.3,0.5c0.2,1.3,0.8,2,2,2h1v2H743.7z M735.8,875.8l-1.2,1.2l-1.2-1.2l1.2-1.2L735.8,875.8z
		 M737.4,873.3l-1.2,1.2l-1.2-1.2l1.2-1.2L737.4,873.3z M738.9,875.8l-1.2,1.2l-1.2-1.2l1.2-1.2L738.9,875.8z" class="area" title=""></path>
	<path id="PATH_122" d="M747.8,881c0,2.2-1.2,3.4-3.4,3.4h-1.3v-2h1.2c1.7,0,2.5-0.3,2.5-0.8c0-0.5-0.3-1.2-1.2-2l0.7-1.7
		c0-0.2,0.2-0.2,0.2-0.2s0.2,0.2,0.3,0.3C747.4,878.8,747.8,879.8,747.8,881z M747.6,873.3l-1.3,1.3l-1.3-1.3l1.3-1.3L747.6,873.3z" class="area" title=""></path>
	<path id="PATH_123" d="M751.7,882.2c0,0.7-0.2,1.3-0.5,1.9c-0.2,0.3-0.3,0.5-0.3,0.5s-0.2-0.2-0.2-0.7c0-2-0.3-6.7-1-14.3l1.3-1.3
		c0.2-0.2,0.2-0.2,0.2-0.2s0,0.2,0,0.3C751.7,870.7,751.7,875.3,751.7,882.2z" class="area" title=""></path>
	<path id="PATH_124" d="M762.3,884.4h-0.7c-0.7,0-1-0.2-1.3-0.3c0,0.2,0,0.3,0,0.5c0,1.5-0.5,3-1.5,4.5c-0.8,1.3-1.7,1.9-2.2,1.9
		c-1.3,0-2.4,0-3.4-0.2c-0.3,0-0.5-0.2-0.5-0.2s0.2-0.2,0.5-0.2c1.3-0.3,2.7-1,4-2c1.3-1.2,2.2-2.4,2.2-3.5c0-0.7-0.5-1.7-1.7-2.9
		l0.8-1.5c0-0.2,0.2-0.2,0.2-0.2l0.2,0.2c0.5,0.7,0.8,1.2,1.2,1.3c0.5,0.3,1.2,0.7,1.9,0.7h0.5v1.9H762.3z" class="area" title=""></path>
	<path id="PATH_125" d="M770.5,884.4h-1.3c-1.5,0-2.5-0.5-3.2-1.5c-0.5,1-1.7,1.5-3.5,1.5h-1v-2h1.5c1.7,0,2.5-0.7,2.7-1.9
		c0-0.5,0.2-0.8,0.3-0.8c0.2,0,0.3,0.3,0.3,0.8c0.2,1.2,1,1.9,2.5,1.9h1.5v2H770.5z M764.9,888.1l-1.3,1.3l-1.3-1.3l1.3-1.3
		L764.9,888.1z M767.8,888.1l-1.3,1.3l-1.3-1.3l1.3-1.3L767.8,888.1z" class="area" title=""></path>
	<path id="PATH_126" d="M774.5,881c0,2.2-1.2,3.4-3.4,3.4h-1.3v-2h1.2c1.7,0,2.5-0.3,2.5-0.8c0-0.5-0.3-1.2-1.2-2l0.7-1.7
		c0-0.2,0.2-0.2,0.2-0.2s0.2,0.2,0.3,0.3C774.2,878.8,774.5,879.8,774.5,881z M770.5,887.6l1.2-1.2l1.2,1.2l-1.2,1.2L770.5,887.6z
		 M772,890.2l1.2-1.2l1.2,1.2l-1.2,1.2L772,890.2z M773.5,887.6l1.2-1.2l1.2,1.2l-1.2,1.2L773.5,887.6z" class="area" title=""></path>
</g>
<g id="G_127" class="area" title="">
	<path id="PATH_128" d="M1265.1,910.8c0,1.2-0.3,2.2-1.2,2.7c-0.5,0.3-1.5,0.7-3,0.8c-1.7,0.3-3.4,0.5-5.2,0.5
		c-4.4,0-6.7-1.2-6.7-3.7c0-0.8,0.3-1.7,1-2.5c0.2-0.2,0.2-0.3,0.3-0.3c0.2,0,0.2,0,0.2,0.2c0,0,0,0.2,0,0.3c-0.2,0.5-0.3,1-0.3,1.5
		c0,1.7,2.2,2.5,6.4,2.5c2,0,3.9-0.2,5.2-0.3c1.7-0.3,2.4-0.7,2.4-1.2c0-0.3-0.3-1-1.2-2l0.8-1.5c0.2-0.2,0.2-0.2,0.3,0
		C1264.7,908.9,1265.1,909.9,1265.1,910.8z M1258.5,918.3l-1.3,1.3l-1.3-1.3l1.3-1.3L1258.5,918.3z" class="area" title=""></path>
	<path id="PATH_129" d="M1271.8,914.6h-1.2c-1.2,0-2.2-0.5-2.5-1.5c-0.3-0.7-0.5-1.9-0.5-3.2v-3.2c0-1.5-0.2-3.7-0.3-6.6l1-1.2
		c0.2-0.2,0.3-0.2,0.3,0c0.2,1.5,0.3,3.7,0.3,6.6v4.9c0,1.3,0.7,2,2,2h0.8L1271.8,914.6L1271.8,914.6z" class="area" title=""></path>
	<path id="PATH_130" d="M1283.4,914.6h-1.2c-0.8,0-1.7-0.5-2.7-1.3c-0.5-0.5-1.2-1.3-2-2.5c0.2,2.7-1.3,4-4.5,4h-1.9v-2h2.2
		c2.2,0,3.4-0.7,3.4-1.9c0-0.7-0.3-1.5-1.2-2.5c-0.5-0.7-1.2-1.3-2.2-2.2c-0.8-0.7-1.2-1.2-1.2-1.2c0-1.2,0.2-2,0.5-2.5
		c0-0.2,1.2-0.5,3.4-1.3s4.2-1.5,6.1-2c0,0.2-0.2,0.8-0.5,1.9c-2.2,0.7-4.9,1.7-8.2,3c1.5,1.3,3.5,3.5,5.7,6.6c0.8,1,1.5,1.7,2,2
		c0.3,0.2,1,0.3,1.7,0.3h0.7L1283.4,914.6L1283.4,914.6z" class="area" title=""></path>
	<path id="PATH_131" d="M1287.4,911.3c0,2.2-1.2,3.4-3.4,3.4h-1.3v-2h1.2c1.7,0,2.5-0.3,2.5-0.8s-0.3-1.2-1.2-2l0.7-1.7
		c0-0.2,0.2-0.2,0.2-0.2s0.2,0.2,0.3,0.3C1286.9,909.1,1287.4,910.1,1287.4,911.3z M1285.8,903.9l-1.3,1.3l-1.3-1.3l1.3-1.3
		L1285.8,903.9z M1288.6,903.9l-1.3,1.3l-1.3-1.3l1.3-1.3L1288.6,903.9z" class="area" title=""></path>
</g>
<g id="G_122" class="area" title="">
	<path d="M755.7,264.3c0.4,0.8,0.7,1.4,0.9,2.2c0.3,1,0.9,1.1,2,1.1h0.2v1.4h-0.2c-0.7,0-1.2-0.2-1.6-0.5h0
		c-0.1,1.1-0.4,2.2-0.7,2.6c-0.8,1-2.5,1.8-3.8,1.8c-2.1,0-3.4-1.4-3.4-3.4c0-1.4,0.4-2.4,1-3.3l0.4,0.2c-0.4,0.7-0.6,1.6-0.6,2.1
		c0,1,0.3,1.6,0.8,2c0.4,0.4,1.3,0.8,2.1,0.8c0.9,0,2-0.4,2.7-1c0.5-0.4,0.8-0.7,0.8-1.2c0-0.4-0.1-0.9-0.4-1.9
		c-0.4-0.8-0.6-1.4-0.9-1.8C755.1,265,755.3,264.6,755.7,264.3L755.7,264.3z M753,260.8c0.5,0.3,0.9,0.7,1.3,1.2
		c-0.2,0.4-0.6,0.8-0.9,1.1c-0.4-0.4-0.9-0.8-1.3-1.2C752.4,261.6,752.7,261.2,753,260.8z" id="PATH_123" class="area"></path>
	<path d="M759,267.6c1,0,1.7,0,2.2-0.2c0.4-0.1,0.6-0.3,0.6-0.5c0-0.5-0.5-1.6-1.1-2.8c0.3-0.5,0.6-0.9,0.8-1.3h0.1
		c0.5,0.9,1.1,2.3,1.1,3.4c0,0.8-0.3,1.5-0.8,2.1c-0.5,0.5-1.3,0.7-3,0.7h-0.1c-0.6,0-0.8-0.4-0.8-0.8c0-0.3,0.2-0.7,0.8-0.7H759z
		 M760.1,273.5c-0.5-0.4-0.9-0.8-1.3-1.2c0.3-0.4,0.6-0.8,0.9-1.1c0.5,0.4,0.8,0.7,1.3,1.2C760.6,272.9,760.4,273.2,760.1,273.5z
		 M762.2,273.3c-0.5-0.4-0.9-0.8-1.3-1.2c0.3-0.4,0.6-0.8,0.9-1.1c0.5,0.4,0.8,0.7,1.3,1.2C762.8,272.7,762.6,273,762.2,273.3z" id="PATH_124" class="area"></path>
	<path d="M772.4,269h-0.2c-1,0-1.9-0.4-2.3-1.8h-0.1c-0.1,0.4-0.3,0.8-0.8,1.1c-0.7,0.4-1.5,0.8-2.3,0.8c-1.3,0-2-0.8-2-2.1
		c0-0.3,0-0.6,0-0.8l0.4,0c0,0.9,0.5,1.5,1.6,1.5c0.6,0,1.3-0.3,1.8-0.6c0.4-0.2,0.7-0.6,0.7-0.8c0-0.8-0.4-2.3-0.9-4.2
		c0.3-0.4,0.5-0.8,0.8-1.2l0.1,0c0.4,1.6,0.8,3.3,1.1,5c0.2,1.1,0.9,1.7,1.8,1.7h0.2V269z" id="PATH_125" class="area"></path>
	<path d="M772.6,267.6c0.4,0,0.8,0,1.3-0.3c0.4-0.2,0.6-0.6,0.6-1.2c0-1.8-0.1-3.8-0.3-5.8c0-0.5-0.1-1-0.1-1.4
		c0-0.2,0.1-0.5,0.3-0.8c0.2-0.2,0.4-0.4,0.6-0.6l0.1,0.1c0,0.7,0.3,1.6,0.9,2.6c-0.2,0.2-0.4,0.4-0.7,0.6c0,1.3,0.1,2.7,0.1,3.9
		c0,1.2-0.1,2.1-0.4,2.8c-0.2,0.6-0.5,1-1,1.3c-0.4,0.2-1,0.3-1.4,0.3h-0.2c-0.6,0-0.8-0.4-0.8-0.8c0-0.3,0.2-0.7,0.8-0.7H772.6z" id="PATH_126" class="area"></path>
	<path d="M777.9,269.2c0.1-0.7,0.1-1.5,0.1-2.2v-1.1c0-2.1-0.2-5-0.4-7c0.3-0.4,0.8-0.9,1.1-1.2l0.1,0c0.2,2.4,0.3,5.3,0.3,7.9
		c0,0.7,0,1.4-0.1,1.9c0,0.6-0.3,1.1-1,1.8L777.9,269.2z" id="PATH_127" class="area" title=""></path>
	<path d="M790.7,266.7l-0.6,1.1c-1.3,0.1-2.7,0.5-4,1.3L786,269l0.5-0.8c0.2-0.2,0.4-0.4,0.6-0.4v-0.1c-0.7-0.2-1.2-0.7-1.2-1.3
		c0-0.7,0.4-1.2,0.8-1.5c0.6-0.5,1.3-0.8,1.9-0.8s1.1,0.4,1.1,0.9c0,0.3-0.1,0.7-0.5,1h-0.1c-0.1-0.2-0.2-0.5-0.3-0.6
		c-0.1-0.2-0.3-0.3-0.6-0.3c-0.3,0-0.8,0.2-1,0.3c-0.2,0.1-0.3,0.3-0.3,0.4c0,0.3,0.1,0.5,0.4,0.7c0.4,0.2,0.9,0.4,1.4,0.4
		C789.4,266.8,790.2,266.7,790.7,266.7L790.7,266.7z" id="PATH_128" class="area"></path>
	<path d="M795.5,269h-0.1c-0.9,0-1.5-0.2-1.9-0.6c-0.7-0.7-0.7-1.5-0.7-3.1c0-2.1-0.1-4.4-0.3-6.7c0.4-0.4,0.7-0.8,1.1-1l0.1,0
		c0.2,2.5,0.2,5.4,0.2,8.1v0.6c0,0.7,0.4,1,0.8,1.2c0.3,0.1,0.6,0.1,0.7,0.1h0.2V269z" id="PATH_129" class="area"></path>
	<path d="M795.7,267.6c0.9,0,1.8-0.3,1.9-1l0.3-1.2l0.8-0.6l0.1,0.1c-0.2,0.6-0.2,1.1-0.2,1.3c0,0.4,0.1,0.7,0.4,0.9
		c0.4,0.3,0.8,0.4,1.4,0.4h0.2v1.4h-0.3c-1.1,0-1.9-0.3-2.3-1.1h0c-0.4,0.8-1.3,1.1-2.2,1.1h-0.2c-0.6,0-0.8-0.4-0.8-0.8
		c0-0.3,0.2-0.7,0.8-0.7H795.7z M797,273.5c-0.5-0.4-0.9-0.8-1.3-1.2c0.3-0.4,0.6-0.8,0.9-1.1c0.5,0.4,0.8,0.7,1.3,1.2
		C797.5,272.9,797.3,273.2,797,273.5z M799.2,273.3c-0.5-0.4-0.9-0.8-1.3-1.2c0.3-0.4,0.6-0.8,0.9-1.1c0.5,0.4,0.8,0.7,1.3,1.2
		C799.7,272.7,799.5,273,799.2,273.3z" id="PATH_130" class="area"></path>
	<path d="M800.8,267.6c1,0,1.7-0.3,1.9-1c0.1-0.4,0.2-0.9,0.3-1.3c0.2-0.2,0.5-0.4,0.7-0.6l0.1,0.1c-0.1,0.4-0.2,0.7-0.2,1.1
		c0,0.6,0.2,0.9,0.7,1.2c0.6-1,1.3-2,2.3-2.9c0.7-0.6,1.7-1.2,2.7-1.2c1.1,0,1.8,0.6,2.1,1.2c0.2,0.5,0.3,0.9,0.3,1.3
		c0,0.3-0.1,0.7-0.2,1.1c-0.3,0.9-1,1.6-2.3,2c-0.7,0.2-1.6,0.3-2.8,0.3c-1.5,0-2.6-0.3-3.2-1.2h0c-0.6,0.9-1.6,1.2-2.3,1.2h-0.1
		c-0.6,0-0.8-0.4-0.8-0.8c0-0.3,0.2-0.7,0.8-0.7H800.8z M806.9,267.6c1.1,0,2.2-0.3,2.9-0.6c0.5-0.3,0.9-0.5,0.9-0.8
		c-0.1-1-0.9-1.7-1.9-1.7c-1.3,0-2.8,1.2-4,2.9C805.2,267.5,805.9,267.6,806.9,267.6z M807.4,259.2c0.5,0.3,0.9,0.7,1.3,1.2
		c-0.2,0.4-0.6,0.8-0.9,1.1c-0.4-0.4-0.9-0.8-1.3-1.2C806.8,259.9,807.1,259.5,807.4,259.2z" id="PATH_131" class="area"></path>
	<path d="M820.1,261.6l0.2-0.1c0.7,0.7,2.8,1.9,3.2,3.2c0.1,0.5,0.2,0.8,0.2,1.3c0,0.7-0.2,1.7-0.6,2.1c-0.7,0.7-1.5,1-2.3,1
		c-0.6,0-1-0.1-1.3-0.3c-0.8-0.5-1.2-1.4-1.2-2.5c0-0.8,0.3-1.6,0.7-2.2c0.3-0.4,0.6-0.9,1.1-1.4C819.9,262.3,820,262,820.1,261.6z
		 M818.8,266.1c0,0.8,0.9,1.5,1.9,1.5c0.7,0,1.2-0.2,1.8-0.6c0.4-0.3,0.5-0.5,0.5-0.7c0-0.4-0.3-0.8-0.6-1.2
		c-0.5-0.6-1.1-1.1-1.8-1.5C819.5,264.4,818.8,265.3,818.8,266.1z" id="PATH_132" class="area" title=""></path>
	<path d="M829.1,265.1c0.6,1.5,1.2,2.4,2.5,2.4h0.2v1.4h-0.2c-0.5,0-0.9-0.1-1.1-0.4h0c0,0.1,0,0.3,0,0.4c0,0.5-0.1,1.2-0.4,1.7
		c-0.9,1.6-1.9,2.2-2.7,2.2c-0.8,0-1.9-0.4-2.8-0.9l0.2-0.4c0.3,0.1,0.7,0.2,1.3,0.2c1.5,0,3.5-1.7,3.7-3.4
		c-0.1-0.1-0.2-0.3-0.3-0.5c-0.4-0.6-0.7-1.1-1-1.7C828.6,265.9,828.8,265.5,829.1,265.1L829.1,265.1z" id="PATH_133" class="area" title=""></path>
	<path d="M832.8,267.6c1,0,1.8,0,2.4-0.2c0.7-0.2,1.3-0.6,1.3-0.9c0-0.1,0-0.2,0-0.2c-0.4,0-0.9,0-1.3,0c-1.3,0-2.3-0.3-2.7-1.2
		c-0.1-0.2-0.2-0.5-0.2-0.8c0-0.8,0.3-1.7,0.8-2.2c0.4-0.5,0.9-0.8,1.4-0.8c0.9,0,1.6,0.9,2.1,2.2c0.3,0.7,0.5,1.6,0.5,2.7
		c0,0.7-0.2,1.3-0.6,1.8c-0.7,0.8-2,1.1-4,1.1h-0.9c-0.6,0-0.8-0.4-0.8-0.8c0-0.3,0.2-0.7,0.8-0.7H832.8z M833.2,260.2
		c-0.5-0.4-0.9-0.8-1.3-1.2c0.3-0.4,0.6-0.8,0.9-1.1c0.5,0.4,0.8,0.7,1.3,1.2C833.7,259.6,833.5,259.9,833.2,260.2z M834.4,262.7
		c-0.7,0-1.3,0.6-1.3,1c0,0.9,1.5,1.2,3.3,1.2C836.1,263.8,835.4,262.7,834.4,262.7z M835.3,260c-0.5-0.4-0.9-0.8-1.3-1.2
		c0.3-0.4,0.6-0.8,0.9-1.1c0.5,0.4,0.8,0.7,1.3,1.2C835.9,259.4,835.6,259.7,835.3,260z" id="PATH_134" class="area" title=""></path>
</g>
</svg>
