<!--?xml version="1.0" encoding="utf-8"?-->
<!-- Generator: Adobe Illustrator 27.4.1, SVG Export Plug-In . SVG Version: 6.00 Build 0)  -->
<svg version="1.1" id="Layer_1" xmlns="http://www.w3.org/2000/svg" xmlns:xlink="http://www.w3.org/1999/xlink" x="0px" y="0px" viewBox="0 0 1920 1080" style="enable-background:new 0 0 1920 1080;" xml:space="preserve" width="100%" height="100%">
<style type="text/css">
	.st0{fill:#FBD1D1;stroke:#020202;stroke-width:0.4083;stroke-miterlimit:20.4159;}
	.st1{fill:#DBECCB;stroke:#020202;stroke-width:0.4083;stroke-miterlimit:20.4159;}
	.st2{fill:#E8D0E5;stroke:#020202;stroke-width:0.4083;stroke-miterlimit:20.4159;}
	.st3{fill:#FDFAD6;stroke:#020202;stroke-width:0.4083;stroke-miterlimit:20.4159;}
	.st4{enable-background:new    ;}
	.st5{fill:#E5B9D7;stroke:#000000;stroke-width:0.5;stroke-miterlimit:10;}
	.st6{fill:#FBF7BE;stroke:#000000;stroke-width:0.5;stroke-miterlimit:10;}
</style>
<path id="_x32_37" class="st0 area" d="M1099.3,161.9c2.9,9.8,19.6,8.4,23.9,19.6c2.9,12.7-9.8,25.1-4.3,36.3c5.7,8.4,19.6,8.4,23.9,21
	c-9.8,0-22.5,11.2-16.7,16.7c14.1,15.3,19.6,32.3,32.3,44.9c19.8,19,43.1,12.2,61.9-2.9c-5.1-4.7-9.4-10.8-12.5-17.8
	c-9.4-21-6.5-45.3,0.8-58.6c8.6-14.9,5.5-28.6-11-48.4c-8.2-9.8-14.5-24.3-21-39.4c-6.1-13.9-12.2-28.2-20.4-40.4
	c-9.6-14.5-20.2-11.4-36.5-5.1c-5.3,2-10.6,4.1-15.7,4.9c-3.9,0.6-9.8,2.2-16.5,4.1c1.6,10.2,6.1,19.4,9.2,28.6
	C1100.8,136.8,1095.3,150.7,1099.3,161.9z" title=""></path>
<path id="_x36_37" class="st1 area" d="M936.8,192.7c5.5,9.8,11.2,19.6,21,25.1c25.3,18.2,54.7,22.5,72.9,50.4c2.9,5.7,8.4-4.3,14.1-8.4
	c1.4-1.4,5.7-1.4,6.9,0c15.3,18.2,35.1,32.3,57.4,22.5c8.4-2.9,18.2-4.3,28-8.4c0.6-0.2,1-0.4,1.6-0.8c-3.7-5.9-7.8-11.6-12.9-17.6
	c-5.7-5.5,6.9-16.7,16.7-16.7c-4.3-12.7-18.2-12.7-23.9-21c-5.5-11.2,6.9-23.9,4.3-36.3c-4.3-11.2-21-9.8-23.9-19.6
	c-4.3-11.2,1.4-25.3-2.9-36.3c-3.1-9.2-7.6-18.4-9.2-28.6c-1.2,0.4-2.2,0.6-3.5,1c-23.3,6.3-54.9,14.9-81.7,12.7
	c-24.3-2-33.7,15.3-42.9,32.1c-2.4,4.3-4.5,8.4-6.9,12c-4.9,7.3-14.5,16.5-25.3,24.3C931.1,183.1,934.6,188,936.8,192.7z" title=""></path>
<path id="_x33_58" class="st2 area" d="M921.5,240.3c-1.4,8.4-12.7,16.7-8.4,28c4.3,12.7,16.7,18.2,28.2,25.3c9.8,6.9,9.8,22.5,21,28
	c5.5,1.4,11.2,5.5,15.3,8.4c15.3,16.7,29.4,32.3,53.3,39.2c4.3,1.4,9.8,4.3,14.1,8.4c16.7,22.5,29.4,46.1,58.8,47.6
	c1.4,32.3,39.2,46.1,64.5,39.2c14.1-4.3,15.3-26.5,25.1-39.2c8.4-9.8,22.5,8.4,35.1,8.4c4.3,0,9.8-8.4,16.7-4.3
	c11.2,6.9,15.3,18.2,26.7,26.7c2.9,1.4,9.8,1.4,9.8-2.9c6.7-30.6,24.7-53.1,48.4-72.3c-8.6-9.8-15.1-22.5-18.8-37
	c-4.7-18.6-22.7-24.1-65.5-33.3c-10-2-18.4-6.5-25.3-12.9c-19,15.3-42.3,21.8-62.1,2.9c-8-8-13.1-17.6-19.4-27.4
	c-0.6,0.2-1.2,0.6-1.6,0.8c-9.8,4.3-19.6,5.5-28,8.4c-22.5,9.8-42.1-4.3-57.4-22.5c-1.4-1.4-5.7-1.4-6.9,0
	c-5.5,4.3-11.2,14.1-14.1,8.4c-18.2-28-47.6-32.3-72.9-50.4c-9.8-5.5-15.3-15.5-21-25.1c-2.4-4.9-5.7-9.6-10-13.7
	c-5.3,3.9-11,7.1-16.3,9.8C918.9,204.6,925,221.9,921.5,240.3z" title=""></path>
<path id="_x33_62" class="st0 area" d="M913.1,346.9c14.1,39.2,51.9,64.5,91.1,86.8c5.7,4.3,9.8,9.8,11.2,14.1
	c9.8,25.3,18.2,55.9,46.1,65.7c11.6-25.5,25.3-50.2,47.2-70.6c-2.9-5.1-4.9-11-5.1-17.6c-29.4-1.4-42.1-25.3-58.8-47.6
	c-4.3-4.3-9.8-6.9-14.1-8.4c-23.7-6.9-37.8-22.5-53.3-39.2c-4.3-2.9-9.8-6.9-15.3-8.4c-3.7-1.8-6.1-4.5-8-7.8
	C933.8,321.6,905.8,327.3,913.1,346.9z" title=""></path>
<path id="_x33_61" class="st3 area" d="M941.1,468.7c4.3-1.4,4.3-8.4,2.9-12.7c-6.1-18.8-1.4-40.6,11.6-54.3
	c-19-15.3-34.5-32.9-42.5-54.9c-7.3-19.6,20.8-25.3,41-33.1c-4.3-6.7-6.3-15.5-13.1-20.2c-11.2-6.9-23.7-12.7-28-25.3
	c-4.3-11.2,6.9-19.6,8.4-28c3.5-18.4-2.4-35.7-11-51.4c-9.8,4.7-19.2,6.7-25.5,3.5c-13.1-6.5-52.5-40.2-69.4-57.2
	c-16.3-16.3-39.6-17.1-62.3-2c-27.2,18.2-47,1.6-58.8-8.2c-1.6-1.4-3.3-2.7-4.7-3.9c-5.3-4.1-21.6-14.1-38.8-24.9
	c-19.4-12-41.2-25.9-52.3-33.7c-5.3-3.9-9.4-9-12.7-14.9c-12.7,6.1-48.2,23.3-62.3,32.7c-17.8,11.8-46.5,26.3-47.8,26.9
	c-0.6,0.2-1.2,0.2-1.8,0.4c12.2,21.8,26.5,44.5,38.2,53.1c14.5,10.8,40.2,34.1,60.6,52.5c13.5,12,25.1,22.5,30.6,26.9
	c7.6,6.1,24.5,23.1,42.5,41c17.6,17.6,35.9,35.9,45.9,44.5c20,17.4,16.1,31.6,12.9,43.3c-0.6,2.2-1.2,4.7-1.8,7.1
	c-2.4,11.8,13.5,56.6,28,73.9c12.5,14.9,51.4,56.6,72.7,74.5c30-26.3,67.4-43.3,103.7-55.7C918.7,464.5,929.9,472.8,941.1,468.7z" title=""></path>
<path id="_x33_53" class="st1 area" d="M1060.1,683.1c-22.5-37.8-54.7-58.8-93.9-77c-5.5-2.9-14.1-9.8-8.4-18.2
	c5.7-5.5,12.7-14.1,18.2-14.1c39.2,1.4,77-11.2,100.9-39.2c7.1-7.1-4.7-18.2-12-28.2c-1.2,2.4-2.2,4.9-3.5,7.1
	c-28-9.8-36.3-40.6-46.1-65.7c-1.4-4.3-5.7-9.8-11.2-14.1c-17.1-9.8-33.9-20-48.6-31.8c-13.1,13.5-17.8,35.5-11.6,54.3
	c1.4,4.3,1.4,11.2-2.9,12.7c-11.2,4.3-22.5-4.3-33.7,0c-36.3,12.5-73.7,29.6-103.7,55.9c3.3,2.9,6.1,5.1,8.4,6.5
	c17.8,11.8,77.6,65.9,80.2,68.2l2.9,2.4l-0.6,3.7c-5.3,29.6-7.3,65.1-1.8,70.6c11.2,11.2,32.1,32.1,43.5,40.6
	c5.5,4.1,11.4,11.4,16.3,18.4c19.8-9,41.9-9.4,63.1,5.5c8.4,5.5,22.5,2.9,30.8-8.4c5.7-6.9,21,1.4,25.1-2.9
	c8.4-9.8-9.8-22.5-5.5-36.3c0.4-1,0.8-2,1.2-2.9C1064.2,688,1062,685.8,1060.1,683.1z" title=""></path>
<path id="_x33_59" class="st3 area" d="M1276.5,456.9c-1.8,0-3.7-0.2-4.7-0.8c-11.2-8.4-15.3-19.6-26.7-26.7c-6.9-4.3-12.7,4.3-16.7,4.3
	c-12.7,0-26.5-18.2-35.1-8.4c-9.8,12.7-11.2,35.1-25.1,39.2c-20,5.5-48-2-59.4-21.6c-19.8,18.6-32.9,40.4-43.7,63.5
	c7.1,10,19.2,21.2,12,28.2c-23.9,28-61.7,40.6-100.9,39.2c-5.7,0-12.7,8.4-18.2,14.1c-5.5,8.4,2.9,15.3,8.4,18.2
	c39.2,18.2,71.5,39.2,93.9,77c1.8,2.9,4.1,5.1,6.7,6.9c6.7-12.7,23.3-12.2,32.5-5.7c15.3,9.8,30.8,4.3,42.1,14.1
	c8.4,4.3,9.8,14.1,18.2,16.7c6.9,2.9,16.7,5.5,21,8.4c15.7,11.6,31.6,17.1,48.2,20.2c11.6-18,17.6-42.5,10.6-59.4
	c-18.2-44.9-71.5-57.4-113.5-77c-30.8-14.1-25.1-49,1.4-58.8c11.2-4.3,12.7,18.2,25.3,21c32.3,5.5,57.4-16.7,70-46.1
	c1.4-2.9,6.9-5.5,12.7-4.3c12.7,5.5,32.3,16.7,36.3,2.9C1276.8,501.6,1270.2,478.8,1276.5,456.9z" title=""></path>
<path id="_x33_55" class="st1 area" d="M1426.2,518.6l-0.6-2c-1.6-15.9-7.3-60.6-14.1-74.1c-8-15.9-36.1-38.4-54.7-43.7
	c-10-2.9-19.4-9.2-26.9-17.8c-23.7,19.4-41.4,41.6-48.4,72.3c0,2.4-2.4,3.5-4.9,3.7c-6.1,21.8,0.2,44.7-4.9,65.1
	c-4.3,14.1-23.7,2.9-36.5-2.9c-5.5-1.4-11.2,1.4-12.7,4.3c-12.7,29.4-37.8,51.9-70,46.1c-12.7-2.9-14.1-25.1-25.3-21
	c-26.5,9.8-32.3,44.9-1.4,58.8c42.1,19.6,95.3,32.3,113.5,77c6.9,17.1,1,41.4-10.6,59.4c17.4,3.3,35.3,3.5,54.1,4.9
	c8.4,1.4,9.8,15.3,12.7,25.1c2.9,8.4,18.2,9.8,21,18.2c4.3,16.7,2.9,30.8,19.6,39.2c12.2,5.1,23.7,2.9,35.1-1
	c-0.8-7.6-1.4-12.2-1.4-14.5c0-4.9,1.8-19.2,4.9-44.1c4.7-37.8,13.7-108,10.2-118.4c-3.9-11.6-8.4-41.9,35.1-69.4
	C1447,566.5,1426.4,519.2,1426.2,518.6z" title=""></path>
<path id="_x33_64" class="st0 area" d="M1322.8,848.8c0.5-2.7-3.6-5.7-3.8-5.8c-5.6-3.9-11.7-0.2-19.6,0c-8.4,0.2-11.7-3.7-26.6-11.4
	c-10.5-5.4-11.8-5-29.6-12.7c-21.5-9.3-58.5-26.7-95.5-48.4c-17.5-10.3-30.2-18.7-35.4-22.2c-7.7-5.2-14.1-9.7-18.8-13.1
	c-4.5-3.1-9-6.3-13.5-9.4c-6.2-4.3-6.9-4.8-6.9-4.8l0,0c0,0-0.7,6-2.1,8.4c-2.9,5.1-17.9-6.9-25.3,2.9c-8.4,11.2-22.5,14.1-30.8,8.4
	c-21.2-14.9-43.3-14.5-63.1-5.5c6.3,8.8,11,17.4,12,19l2.2,3.9l-2.9,3.5c-29.2,35.7-60.2,76.2-67.6,90.2c11,7.1,39.6,25.3,51,32.3
	c11.4,6.9,23.7,2.4,43.3-9c23.1-13.1,56.8-24.9,76.8-14.9l3.5,1.6c14.3,7.1,15.1,8.4,30.2,30l4.1,5.7c19.6,28.2,38.6,41.4,59.2,41.4
	c5.3,0,10.4-1,15.3-2c8.8-1.9,16.6-3,23.6,0c13.8,5.8,16.4,27.8,20.3,26.9c2.4-0.5,2.1-8.7,4.1-8.8c1.8-0.1,4.1,6.7,4.1,6.7l0,0
	c0,0-3.4-3.3-4.1-6.7c-0.3-1.3-0.3-3.3,1-6c0.2-4,0.5-7.9,0.7-11.9c3.9-9.2,7.8-18.4,11.7-27.5c7.6-4.4,17.7-11.2,27.6-21.6
	c11.4-11.9,18.2-23.9,22.2-32.4C1316.4,855,1322.3,851.7,1322.8,848.8z" title=""></path>
<g id="G_12" class="area" title="">
	<path id="PATH_13" d="M721.8,278.7h-1.2c-1,0-2.2-0.4-3.3-1.4c-0.8-0.6-1.6-1.8-2.7-3.3c0,1.8-0.6,3.1-2,3.9
		c-1,0.6-2.7,0.8-4.7,0.8h-4.3c-4.9,0-7.6-1.4-7.6-4.3c0-1,0.4-2,1-3.1c0.2-0.2,0.4-0.4,0.4-0.4c0.2,0,0.2,0,0.2,0.2s0,0.2,0,0.4
		c-0.2,0.8-0.4,1.2-0.4,1.8c0,0.8,0.4,1.4,1,1.8c1,0.8,2.7,1.2,4.9,1.2h4.1c4.1,0,6.3-0.8,6.3-2.4c0-1.2-0.8-2.7-2.7-4.3
		c-0.8-0.8-1.6-1.4-2.7-2.2c0-0.8,0.2-1.4,0.6-2c0.2-0.2,3.9-1.4,11.2-3.7c0,0.2-0.2,1-0.6,2.2c-1.8,0.4-4.9,1.4-9,2.7
		c2.2,2.2,4.1,4.3,5.5,6.1c1,1,1.6,1.8,2.2,2.2c0.8,0.6,1.8,1,2.9,1h0.8L721.8,278.7L721.8,278.7L721.8,278.7z M719.8,259.1
		l-0.4,1.6l-10,3.3l0.4-1.4L719.8,259.1z" class="area" title=""></path>
	<path id="PATH_14" d="M726.7,274.6c0,2.7-1.4,4.1-4.1,4.1H721v-2.4h1.4c2,0,3.1-0.4,3.1-1s-0.4-1.4-1.4-2.4l0.8-2
		c0-0.2,0.2-0.2,0.2-0.2s0.2,0.2,0.4,0.4C726.3,271.9,726.7,273.4,726.7,274.6z M726.5,265.4l-1.6,1.6l-1.6-1.6l1.6-1.6L726.5,265.4
		z" class="area" title=""></path>
	<path id="PATH_15" d="M739.4,278.7h-0.8c-0.8,0-1.2-0.2-1.6-0.4c0,0.2,0,0.4,0,0.6c0,1.8-0.6,3.7-1.8,5.5c-1,1.6-2,2.2-2.7,2.2
		c-1.6,0-2.9,0-4.1-0.2c-0.4,0-0.6-0.2-0.6-0.2s0.2-0.2,0.6-0.2c1.6-0.4,3.3-1.2,4.9-2.4c1.6-1.4,2.7-2.9,2.7-4.3c0-0.8-0.6-2-2-3.5
		l1-1.8c0-0.2,0.2-0.2,0.2-0.2l0.2,0.2c0.6,0.8,1,1.4,1.4,1.6c0.6,0.4,1.4,0.8,2.2,0.8h0.6v2.2L739.4,278.7L739.4,278.7z" class="area" title=""></path>
	<path id="PATH_16" d="M751.9,274.6c0,0.8-0.2,1.6-0.8,2.4c-0.6,1-1.2,1.4-2,1.4c-0.6,0-2-0.4-4.3-1.4c-1.8,1.2-3.5,1.6-4.9,1.6h-1
		v-2.4h1.2c0.8,0,1.6,0,2.4-0.2c-0.8-0.6-1.2-1.4-1.2-2.4c0-1.2,0.8-2.7,2.7-4.1l-1.4-0.6c0.4-0.4,1-1,1.8-1.8
		c1.8,1,3.5,1.8,4.9,3.1C750.8,271.7,751.9,273.2,751.9,274.6z M746.6,273c0-0.6-0.2-1-0.4-1.4c-0.2-0.6-0.6-0.8-1.2-0.8
		s-1,0.2-1.6,0.6s-1,1-1,1.4c0,0.8,0.8,1.6,2.2,2c0.4-0.2,0.8-0.4,1.2-0.6C746.3,273.8,746.6,273.4,746.6,273z M750.8,275.4
		c0-0.6-0.4-1.2-1.2-2c-0.6-0.6-1.2-1.2-1.8-1.4c0,1.6-0.4,2.9-1.4,3.7c1.6,0.6,2.9,0.8,3.3,0.8C750.4,276.2,750.8,276,750.8,275.4z
		" class="area" title=""></path>
	<path id="PATH_17" d="M764.5,278.7h-2.2c-0.2,2.9-1.2,5.1-3.3,7.1c-0.6,0.6-1,1-1.2,1c-1,0-2.4-0.2-3.9-0.4c-0.4,0-0.8-0.2-0.8-0.2
		s0.2-0.2,0.8-0.4c1.6-0.4,3.3-1.4,4.7-2.4c0.6-0.6,1.2-1,1.6-1.8c0.6-0.8,1-1.6,1-2.2v-0.6h-2.7c-2,0-2.9-0.8-2.9-2.4
		c0-1,0.2-2,0.8-3.3c0.6-1.2,1.4-2,2.2-2c1,0,1.8,0.6,2.4,2c0.4,1,0.8,2,0.8,3.3h2.2v2.4h0.5V278.7z M760.8,276.2
		c0-0.6-0.2-1.2-0.6-1.8c-0.4-0.8-1-1-1.6-1c-0.4,0-0.8,0.2-1,0.4c-0.4,0.4-0.4,0.6-0.4,1.2c0,1,0.8,1.4,2.4,1.4
		C759.8,276.4,760.2,276.2,760.8,276.2z" class="area" title=""></path>
	<path id="PATH_18" d="M777.2,259.7c0,0.4-0.4,1.2-0.8,2.2l-5.1,1.6c-2.2,0.8-3.9,1.4-4.7,1.8c1.6,1.6,2.7,2.9,3.3,3.5
		c1,1.4,1.6,2.7,1.8,4.1c0,1,0,2-0.4,2.9c-0.6,1.8-2.9,2.7-6.3,2.7h-1V276h1.2c1.6,0,2.9,0,3.5-0.2c1.4-0.4,2.2-1,2.2-2
		c0-1.4-1-3.1-3.3-5.1l-0.2,0.4c-0.2-0.2-0.6-0.6-1-1.2c-0.6-0.6-0.8-1.2-0.8-1.2c0-0.4,0-0.8,0.2-1.6c0.2-0.8,0.4-1.2,0.6-1.4
		c0.2-0.2,1.6-0.8,4.3-1.6C772.9,261.1,775.3,260.3,777.2,259.7z" class="area" title=""></path>
</g>
<g id="G_20" class="area" title="">
	<path id="PATH_21" d="M1148.7,209.1c0.2,0.6,0.2,1.2,0.2,1.8c0,0.8-0.2,1.4-0.4,2.2c-0.6,1.4-1.6,2.7-3.7,3.5c-1.6,0.6-3.3,1-5.1,1
		s-3.3-0.4-4.5-1.2c-1.2-1-1.8-2.2-1.8-4.1c0-1,0.2-1.8,0.6-3.1c0.4-0.8,0.6-1.4,1-1.8c0.2-0.2,0.4-0.2,0.4-0.2c0.2,0,0.2,0,0.2,0.2
		c0,0,0,0.2,0,0.4c-0.6,1.2-0.8,2.4-0.8,3.5s0.4,1.8,1,2.7c0.8,1,2.2,1.4,4.1,1.4c2,0,3.9-0.4,5.3-1c1.2-0.6,2-1.2,2.4-2
		c0.2-0.2,0.2-0.6,0.2-0.8c0-0.6-0.2-1.2-0.4-2c-0.2-0.6-0.8-1.6-1.8-3.3l0.8-1.6c0.2-0.2,0.2-0.4,0.2-0.4s0.2,0,0.2,0.2
		C1147.9,205.8,1148.5,207.4,1148.7,209.1z M1142.6,200.1l-1.6,1.6l-1.6-1.6l1.6-1.6L1142.6,200.1z" class="area" title=""></path>
	<path id="PATH_22" d="M1156.9,209.3h-1.4c-1.4,0-2.7-0.6-3.1-1.8c-0.4-0.8-0.6-2.2-0.6-3.9v-3.9c0-1.8-0.2-4.5-0.4-8l1.2-1.4
		c0.2-0.2,0.4-0.2,0.4,0c0.2,1.8,0.4,4.5,0.4,8v5.9c0,1.6,0.8,2.4,2.4,2.4h1L1156.9,209.3L1156.9,209.3z" class="area" title=""></path>
	<path id="PATH_23" d="M1167.1,209.3h-1.6c-1.8,0-3.1-0.6-3.9-1.8c-0.6,1.2-2,1.8-4.3,1.8h-1.2v-2.4h1.8c2,0,3.1-0.8,3.3-2.2
		c0-0.6,0.2-1,0.4-1s0.4,0.4,0.4,1c0.2,1.4,1.2,2.2,3.1,2.2h1.8v2.4H1167.1z M1163,198.6l-1.6,1.6l-1.6-1.6l1.6-1.6L1163,198.6z" class="area" title=""></path>
	<path id="PATH_24" d="M1181.6,209.3h-1.2c-1,0-2-0.6-2.9-1.6c-0.6,1.6-1.2,2.4-1.8,2.4s-1.6-0.4-2.9-1c-1-0.6-1.8-1.2-2.2-1.6
		c-1,1.2-2,1.8-3.1,1.8h-1.2v-2.4h1.2c1,0,1.8-0.4,2.7-1.2c0.6-0.6,1.2-1.4,2-2.2s1.4-1.2,2-1.2c0.8,0,1.4,0.4,2,1.2
		c0.4,0.4,0.8,1.2,1.8,2.2c0.6,0.8,1.4,1.2,2.2,1.2h1.2v2.4H1181.6z M1176.1,207.6c0-0.6-0.2-1.2-0.6-2s-1-1.2-1.8-1.2
		c-0.6,0-1.4,0.6-2.2,1.6c0.2,0.2,0.8,0.6,1.8,1.2c1,0.6,1.8,0.8,2.4,0.8C1176.1,207.8,1176.1,207.8,1176.1,207.6z" class="area" title=""></path>
	<path id="PATH_25" d="M1197.7,205c0,1.2-0.2,2.2-0.8,3.1c-0.6,0.8-1.6,1.4-2.7,1.4c-1.4,0-2.2-0.6-2.9-1.6
		c-0.8,1.2-1.6,1.6-2.9,1.6c-1.4,0-2.4-0.6-3.1-1.6c-0.8,1.2-1.8,1.6-3.3,1.6h-1.4V207h1.6c1.4,0,2.4-0.8,2.7-2.4
		c0-0.4,0.2-0.6,0.4-0.6c0.2,0,0.2,0.2,0.4,0.6c0.2,1.6,1,2.4,2.7,2.4c0.8,0,1.6-0.2,2-0.6c0.2-0.4,0.4-0.8,0.6-1.6
		c0-0.4,0.2-0.6,0.4-0.6c0.2,0,0.2,0.2,0.4,0.6c0.2,1.6,1,2.4,2.4,2.4c1.6,0,2.2-0.4,2.2-1s-0.4-1.4-1.2-2.2l1-1.8
		c0.2-0.2,0.2-0.4,0.4-0.4c0.2,0,0.2,0.2,0.4,0.4C1197.3,202.9,1197.7,204,1197.7,205z" class="area" title=""></path>
</g>
<g id="G_26" class="area" title="">
	<path id="PATH_27" d="M1068.5,343.8c0,2.9-1.8,4.3-5.7,4.3c-1.4,0-2.4-0.2-3.1-0.6c-0.8-0.4-1.2-1.4-1.2-2.7c0-0.6,0.2-1.2,0.4-1.8
		c0.2-0.2,0.2-0.4,0.4-0.4c0.2,0,0.2,0.2,0.2,0.6c0,0.2,0,0.4,0,0.6c0,0.8,0.4,1.4,1.2,1.6c0.4,0.2,1.2,0.2,2.2,0.2
		c3.1,0,4.5-0.4,4.5-1.4c0-1.4-1.8-3.5-5.3-5.9l0.6-2c0-0.2,0.2-0.2,0.2-0.2s0.2,0,0.4,0.2C1066.9,338.9,1068.5,341.6,1068.5,343.8z
		" class="area" title=""></path>
	<path id="PATH_28" d="M1081.4,348.1h-0.8c-0.8,0-1.2-0.2-1.6-0.4c0,0.2,0,0.4,0,0.6c0,1.8-0.6,3.7-1.8,5.5c-1,1.6-2,2.2-2.7,2.2
		c-1.6,0-2.9,0-4.1-0.2c-0.4,0-0.6-0.2-0.6-0.2s0.2-0.2,0.6-0.2c1.6-0.4,3.3-1.2,4.9-2.4c1.6-1.4,2.7-2.9,2.7-4.3c0-0.8-0.6-2-2-3.5
		l1-1.8c0-0.2,0.2-0.2,0.2-0.2l0.2,0.2c0.6,0.8,1,1.4,1.4,1.6c0.6,0.4,1.4,0.8,2.2,0.8h0.6v2.2L1081.4,348.1L1081.4,348.1z" class="area" title=""></path>
	<path id="PATH_29" d="M1094,329.1c0,0.4-0.4,1.2-0.8,2.2l-5.1,1.6c-2.2,0.8-3.9,1.4-4.7,1.8c1.6,1.6,2.7,2.9,3.3,3.5
		c1,1.4,1.6,2.7,1.8,4.1c0,1,0,2-0.4,2.9c-0.6,1.8-2.9,2.7-6.3,2.7h-1.2v-2.4h1.2c1.6,0,2.9,0,3.5-0.2c1.4-0.4,2.2-1,2.2-2
		c0-1.4-1-3.1-3.3-5.1l-0.2,0.4c-0.2-0.2-0.6-0.6-1-1.2c-0.6-0.6-0.8-1.2-0.8-1.2c0-0.4,0-0.8,0.2-1.6c0.2-0.8,0.4-1.2,0.6-1.4
		s1.6-0.8,4.3-1.6C1089.7,330.5,1092.2,329.7,1094,329.1z" class="area" title=""></path>
	<path id="PATH_30" d="M1105.9,348.1h-0.8c-0.8,0-1.2-0.2-1.6-0.4c0,0.2,0,0.4,0,0.6c0,1.8-0.6,3.7-1.8,5.5c-1,1.6-2,2.2-2.7,2.2
		c-1.6,0-2.9,0-4.1-0.2c-0.4,0-0.6-0.2-0.6-0.2s0.2-0.2,0.6-0.2c1.6-0.4,3.3-1.2,4.9-2.4c1.6-1.4,2.7-2.9,2.7-4.3c0-0.8-0.6-2-2-3.5
		l1-1.8c0-0.2,0.2-0.2,0.2-0.2l0.2,0.2c0.6,0.8,1,1.4,1.4,1.6c0.6,0.4,1.4,0.8,2.2,0.8h0.6v2.2L1105.9,348.1L1105.9,348.1z" class="area" title=""></path>
	<path id="PATH_31" d="M1118.5,348.1h-1c-0.8,0-1.6,0.2-2.2,0.4c-1,0.4-1.6,1-1.6,2c0,1.2,0.8,2.2,2.4,3.3l-1,2
		c-1.8-0.6-3.5-1.6-4.7-2.9c-1.6-1.4-2.4-3.3-2.4-5.1h-2.9v-2.4h2.7c0-1.6,0.4-3.3,1.2-5.3c0.8-1.8,1.4-2.7,1.8-2.7s1,0.8,1.6,2.7
		c0.6,1.6,0.8,2.7,0.8,3.3c0,2.9-1.4,4.3-4.3,4.3c0.2,0.8,0.6,1.6,1.2,2.4s1.4,1.4,2.2,1.8c0-0.2,0-0.6,0-0.8c0-1.4,0.4-2.7,1-3.7
		c1-1.4,2.2-2.2,4.1-2.2h0.8v2.9L1118.5,348.1L1118.5,348.1z M1112.2,344.8c0-0.4-0.2-1.2-0.6-2.2c-0.4-1.2-0.8-1.6-1.2-1.6
		c-0.2,0-0.6,0.4-1,1.4s-0.6,2.2-0.6,3.5C1111.2,345.6,1112.2,345.4,1112.2,344.8z" class="area" title=""></path>
	<path id="PATH_32" d="M1134.7,343.8c0,1.2-0.2,2.2-0.8,3.1s-1.6,1.4-2.7,1.4c-1.4,0-2.2-0.6-2.9-1.6c-0.8,1.2-1.6,1.6-2.9,1.6
		c-1.4,0-2.4-0.6-3.1-1.6c-0.8,1.2-1.8,1.6-3.3,1.6h-1.4v-2.4h1.6c1.4,0,2.4-0.8,2.7-2.4c0-0.4,0.2-0.6,0.4-0.6
		c0.2,0,0.2,0.2,0.4,0.6c0.2,1.6,1,2.4,2.7,2.4c0.8,0,1.6-0.2,2-0.6c0.2-0.4,0.4-0.8,0.6-1.6c0-0.4,0.2-0.6,0.4-0.6
		c0.2,0,0.2,0.2,0.4,0.6c0.2,1.6,1,2.4,2.4,2.4c1.6,0,2.2-0.4,2.2-1s-0.4-1.4-1.2-2.2l1-1.8c0.2-0.2,0.2-0.4,0.4-0.4
		c0.2,0,0.2,0.2,0.4,0.4C1134.2,341.8,1134.7,342.8,1134.7,343.8z M1127.7,336.2l-1.4,1.4l-1.4-1.4l1.4-1.4L1127.7,336.2z
		 M1129.6,333.2l-1.4,1.4l-1.4-1.4l1.4-1.4L1129.6,333.2z M1131.4,336.2l-1.4,1.4l-1.4-1.4l1.4-1.4L1131.4,336.2z" class="area" title=""></path>
</g>
<g id="G_33" class="area" title="">
	<path id="PATH_34" d="M998.5,401.6c0.2,0.6,0.2,1.2,0.2,1.8c0,0.8-0.2,1.4-0.4,2.2c-0.6,1.4-1.6,2.7-3.7,3.5c-1.6,0.6-3.3,1-5.1,1
		s-3.3-0.4-4.5-1.2c-1.2-1-1.8-2.2-1.8-4.1c0-1,0.2-1.8,0.6-3.1c0.4-0.8,0.6-1.4,1-1.8c0.2-0.2,0.4-0.2,0.4-0.2c0.2,0,0.2,0,0.2,0.2
		c0,0,0,0.2,0,0.4c-0.6,1.2-0.8,2.4-0.8,3.5s0.4,1.8,1,2.7c0.8,1,2.2,1.4,4.1,1.4c2,0,3.9-0.4,5.3-1c1.2-0.6,2-1.2,2.4-2
		c0.2-0.2,0.2-0.6,0.2-0.8c0-0.6-0.2-1.2-0.4-2c-0.2-0.6-0.8-1.6-1.8-3.3l0.8-1.6c0.2-0.2,0.2-0.4,0.2-0.4s0.2,0,0.2,0.2
		C997.5,398.3,998.1,399.9,998.5,401.6z M992.4,392.8l-1.6,1.6l-1.6-1.6l1.6-1.6L992.4,392.8z" class="area" title=""></path>
	<path id="PATH_35" d="M1006.7,401.8h-1.4c-1.4,0-2.7-0.6-3.1-1.8c-0.4-0.8-0.6-2.2-0.6-3.9v-3.9c0-1.8-0.2-4.5-0.4-8l1.2-1.4
		c0.2-0.2,0.4-0.2,0.4,0c0.2,1.8,0.4,4.5,0.4,8v5.9c0,1.6,0.8,2.4,2.4,2.4h1L1006.7,401.8L1006.7,401.8z" class="area" title=""></path>
	<path id="PATH_36" d="M1022.8,397.5c0,1.2-0.2,2.2-0.8,3.1c-0.6,0.8-1.6,1.4-2.7,1.4c-1.4,0-2.2-0.6-2.9-1.6
		c-0.8,1.2-1.6,1.6-2.9,1.6c-1.4,0-2.4-0.6-3.1-1.6c-0.8,1.2-1.8,1.6-3.3,1.6h-1.4v-2.4h1.6c1.4,0,2.4-0.8,2.7-2.4
		c0-0.4,0.2-0.6,0.4-0.6s0.2,0.2,0.4,0.6c0.2,1.6,1,2.4,2.7,2.4c0.8,0,1.6-0.2,2-0.6c0.2-0.4,0.4-0.8,0.6-1.6c0-0.4,0.2-0.6,0.4-0.6
		s0.2,0.2,0.4,0.6c0.2,1.6,1,2.4,2.4,2.4c1.6,0,2.2-0.4,2.2-1s-0.4-1.4-1.2-2.2l1-1.8c0.2-0.2,0.2-0.4,0.4-0.4s0.2,0.2,0.4,0.4
		C1022.4,395.7,1022.8,396.7,1022.8,397.5z" class="area" title=""></path>
	<path id="PATH_37" d="M1033.2,402c0,2-0.6,3.9-1.8,5.7c-1,1.4-2,2.2-2.7,2.2c-1.6,0-2.9,0-4.1-0.2c-0.4,0-0.6-0.2-0.6-0.2
		s0.2-0.2,0.6-0.2c1.6-0.4,3.3-1.2,4.9-2.4c1.6-1.4,2.7-2.9,2.7-4.3c0-0.8-0.6-2-2-3.5l1-1.8c0-0.2,0.2-0.2,0.2-0.2l0.2,0.2
		c0.4,0.6,1,1.4,1.2,2.4C1033,400.6,1033.2,401.4,1033.2,402z" class="area" title=""></path>
	<path id="PATH_38" d="M1041.4,401.8h-1.4c-1.4,0-2.7-0.6-3.1-1.8c-0.4-0.8-0.6-2.2-0.6-3.9v-3.9c0-1.8-0.2-4.5-0.4-8l1.2-1.4
		c0.2-0.2,0.4-0.2,0.4,0c0.2,1.8,0.4,4.5,0.4,8v5.9c0,1.6,0.8,2.4,2.4,2.4h1L1041.4,401.8L1041.4,401.8z" class="area" title=""></path>
	<path id="PATH_39" d="M1049.1,396.1v0.8c0,1.4-0.2,2.2-0.6,2.9c-1,1.4-2.7,2-5.3,2h-2.9v-2.4h2c3.5,0,5.3-0.6,5.7-1.6
		c0-0.2,0-0.2,0-0.4c0-0.4,0-0.6-0.2-0.8c-0.8,0.2-1.8,0.2-2.7,0.2c-1.8,0-2.9-0.8-2.9-2.4c0-1,0.2-2.2,0.8-3.3
		c0.6-1.2,1.4-1.8,2.4-1.8c0.8,0,1.6,0.6,2.2,1.6C1048.7,392.4,1049.1,394,1049.1,396.1z M1046.9,384.8l-1.6,1.6l-1.6-1.6l1.6-1.6
		L1046.9,384.8z M1047.7,394.2c0-0.6-0.2-1.2-0.6-1.8c-0.4-0.6-1-0.8-1.6-0.8c-0.4,0-0.8,0.2-1.2,0.4c-0.4,0.2-0.4,0.6-0.4,1
		c0,0.8,0.6,1.2,2,1.2C1046.3,394.6,1046.9,394.4,1047.7,394.2z" class="area" title=""></path>
</g>
<g id="G_40" class="area" title="">
	<path id="PATH_41" d="M939.5,500.4c0,0.2,0.2,0.4,0,0.4c0,0-0.2,0-0.4,0h-0.6c0.4,7.8,0.6,13.3,0.4,16.3c-0.2,4.9-3.1,7.1-8.4,7.1
		c-1.8,0-3.1-0.4-4.1-1c-1.2-0.8-1.8-2-1.8-3.9c0-1.6,0.4-3.3,1.4-4.5c0.2-0.2,0.2-0.2,0.4-0.2s0.2,0,0.2,0.2v0.2
		c-0.4,1-0.6,2-0.6,2.9c0,1.2,0.4,2.2,1.4,3.1c0.8,0.6,1.8,1,3.3,1c2,0,3.7-0.4,5.1-1c1.2-0.6,1.8-1.2,1.8-2c0-8.8-0.2-15.5-0.8-20
		l1.4-1.2c0.2-0.2,0.2-0.2,0.4-0.2c0,0,0.2,0.2,0.2,0.4C938.7,498.6,939.1,499.4,939.5,500.4z" class="area" title=""></path>
	<path id="PATH_42" d="M952.1,512.2c0,2.9-1.8,4.3-5.7,4.3c-1.4,0-2.4-0.2-3.1-0.6c-0.8-0.4-1.2-1.4-1.2-2.7c0-0.6,0.2-1.2,0.4-1.8
		c0.2-0.2,0.2-0.4,0.4-0.4s0.2,0.2,0.2,0.6c0,0.2,0,0.4,0,0.6c0,0.8,0.4,1.4,1.2,1.6c0.4,0.2,1.2,0.2,2.2,0.2c3.1,0,4.5-0.4,4.5-1.4
		c0-1.4-1.8-3.5-5.3-5.9l0.6-2c0-0.2,0.2-0.2,0.2-0.2s0.2,0,0.4,0.2C950.3,507.3,952.1,510,952.1,512.2z" class="area" title=""></path>
	<path id="PATH_43" d="M962.3,516.7c0,2-0.6,3.9-1.8,5.7c-1,1.4-2,2.2-2.7,2.2c-1.6,0-2.9,0-4.1-0.2c-0.4,0-0.6-0.2-0.6-0.2
		s0.2-0.2,0.6-0.2c1.6-0.4,3.3-1.2,4.9-2.4c1.6-1.4,2.7-2.9,2.7-4.3c0-0.8-0.6-2-2-3.5l1-1.8c0-0.2,0.2-0.2,0.2-0.2l0.2,0.2
		c0.4,0.6,1,1.4,1.2,2.4C962.1,515.1,962.3,515.9,962.3,516.7z" class="area" title=""></path>
	<path id="PATH_44" d="M967.2,514.1c0,0.8-0.2,1.6-0.6,2.2c-0.2,0.4-0.4,0.6-0.4,0.6s-0.2-0.2-0.2-0.8c0-2.4-0.4-8.2-1.2-17.4
		l1.6-1.6c0.2-0.2,0.2-0.2,0.2-0.2s0,0.2,0,0.4C967.2,500,967.2,505.5,967.2,514.1z" class="area" title=""></path>
</g>
<g id="G_45" class="area" title="">
	<path id="PATH_46" d="M1051.6,617.8c0,2-0.6,3.9-1.8,5.7c-1,1.4-2,2.2-2.7,2.2c-1.6,0-2.9,0-4.1-0.2c-0.4,0-0.6-0.2-0.6-0.2
		s0.2-0.2,0.6-0.2c1.6-0.4,3.3-1.2,4.9-2.4c1.6-1.4,2.7-2.9,2.7-4.3c0-0.8-0.6-2-2-3.5l1-1.8c0-0.2,0.2-0.2,0.2-0.2l0.2,0.2
		c0.4,0.6,1,1.4,1.2,2.4C1051.4,616.2,1051.6,617,1051.6,617.8z" class="area" title=""></path>
	<path id="PATH_47" d="M1059.7,617.6h-1.4c-1.4,0-2.7-0.6-3.1-1.8c-0.4-0.8-0.6-2.2-0.6-3.9V608c0-1.8-0.2-4.5-0.4-8l1.2-1.4
		c0.2-0.2,0.4-0.2,0.4,0c0.2,1.8,0.4,4.5,0.4,8v5.9c0,1.6,0.8,2.4,2.4,2.4h1L1059.7,617.6L1059.7,617.6z" class="area" title=""></path>
	<path id="PATH_48" d="M1069.7,617.6h-1.4c-1.8,0-3.1-0.6-3.9-1.8c-0.6,1.2-2,1.8-4.3,1.8h-1.2v-2.4h1.8c2,0,3.1-0.8,3.3-2.2
		c0-0.6,0.2-1,0.4-1c0.2,0,0.4,0.4,0.4,1c0.2,1.4,1.2,2.2,3.1,2.2h1.8L1069.7,617.6L1069.7,617.6z M1063,622.1l-1.6,1.6l-1.6-1.6
		l1.6-1.6L1063,622.1z M1066.5,622.1l-1.6,1.6l-1.6-1.6l1.6-1.6L1066.5,622.1z" class="area" title=""></path>
	<path id="PATH_49" d="M1082.4,598.6c0,0.4-0.4,1.2-0.8,2.2l-5.1,1.6c-2.2,0.8-3.9,1.4-4.7,1.8c1.6,1.6,2.7,2.9,3.3,3.5
		c1,1.4,1.6,2.7,1.8,4.1c0,1,0,2-0.4,2.9c-0.6,1.8-2.9,2.7-6.3,2.7h-1V615h1.2c1.6,0,2.9,0,3.5-0.2c1.4-0.4,2.2-1,2.2-2
		c0-1.4-1-3.1-3.3-5.1l-0.2,0.4c-0.2-0.2-0.6-0.6-1-1.2c-0.6-0.6-0.8-1.2-0.8-1.2c0-0.4,0-0.8,0.2-1.6s0.4-1.2,0.6-1.4
		s1.6-0.8,4.3-1.6C1078.1,600,1080.6,599.2,1082.4,598.6z" class="area" title=""></path>
</g>
<g id="G_50" class="area" title="">
	<path id="PATH_51" d="M1274.1,599.2h-1c-1,0-1.6,0-2-0.2c0,0.6,0.2,1,0.2,1.6c0,1-0.2,1.6-0.4,2.2c-0.6,1.4-1.6,2.7-3.7,3.5
		c-1.6,0.6-3.3,1-5.1,1s-3.3-0.4-4.5-1.2c-1.2-1-1.8-2.2-1.8-4.1c0-1,0.2-1.8,0.6-3.1c0.4-0.8,0.6-1.4,1-1.8
		c0.2-0.2,0.4-0.2,0.4-0.2c0.2,0,0.2,0,0.2,0.2c0,0,0,0.2,0,0.4c-0.6,1.2-0.8,2.4-0.8,3.5s0.4,1.8,1,2.7c0.8,1,2.2,1.4,4.1,1.4
		c2,0,3.9-0.4,5.3-1c1.2-0.6,2-1.2,2.4-2c0.2-0.2,0.2-0.6,0-1.4c0-0.6-0.2-1.2-0.2-1.4c-0.2-0.6-1-1.6-2-3.1l0.8-1.6
		c0.2-0.2,0.2-0.4,0.2-0.4s0.2,0,0.2,0.2c1,1.6,2,2.4,3.3,2.4h1.6v2.4L1274.1,599.2L1274.1,599.2z M1265.1,590l-1.6,1.6l-1.6-1.6
		l1.6-1.6L1265.1,590z" class="area" title=""></path>
	<path id="PATH_52" d="M1290,593.3l-0.8,1.6c-1.4,0-2.7,0-3.3,0.2c-0.8,0.4-2,0.8-3.7,1.6c-1.6,0.8-2.9,1.4-3.7,1.6
		c-1.2,0.4-2.7,0.6-3.9,0.6h-1.4v-2.4h1.6c1.8,0,3.5-0.4,4.9-1l4.7-2c-0.8-0.2-2-0.6-3.7-1.2c-1.4-0.6-2.2-0.8-2.7-0.8
		c-0.8,0-1.6,0.4-2.4,1c-0.2,0.2-0.2,0.2-0.4,0.2c-0.2,0-0.2,0-0.2-0.2v-0.2c0.6-2,1.8-2.9,3.5-2.9c0.6,0,1.4,0.2,2.2,0.6
		c1.6,0.8,2.9,1.2,3.7,1.6c1.4,0.4,3.1,0.8,4.9,0.8c0.4,0,0.6,0,0.6,0.2C1290.2,592.9,1290.2,593.1,1290,593.3z M1283.3,603.3
		l-1.6,1.6l-1.6-1.6l1.6-1.6L1283.3,603.3z" class="area" title=""></path>
	<path id="PATH_53" d="M1300.8,598.4c0,3.1-1,5.7-3.1,7.8c-0.6,0.6-1,1-1.2,1c-1.2,0-2.4-0.2-3.9-0.4c-0.6,0-0.8-0.2-0.8-0.2
		s0.2-0.2,0.8-0.4c1.6-0.4,3.3-1.4,4.7-2.7c0.6-0.6,1.2-1,1.6-1.8c0.6-0.8,1-1.6,1-2.2v-0.6h-2.7c-1.8,0-2.9-0.8-2.9-2.2
		c0-1,0.2-2,0.8-3.3c0.6-1.2,1.4-2,2.2-2c1.2,0,2.2,0.8,2.9,2.7C1300.6,595.3,1300.8,596.8,1300.8,598.4z M1299.4,596.8
		c0-0.6-0.2-1.2-0.6-1.8s-1-1-1.6-1c-0.4,0-0.8,0.2-1,0.4s-0.4,0.6-0.4,1c0,1,0.6,1.4,2,1.4C1298,597,1298.6,596.8,1299.4,596.8z" class="area" title=""></path>
	<path id="PATH_54" d="M1313.5,599.2h-0.8c-0.8,0-1.2-0.2-1.6-0.4c0,0.2,0,0.4,0,0.6c0,1.8-0.6,3.7-1.8,5.5c-1,1.6-2,2.2-2.7,2.2
		c-1.6,0-2.9,0-4.1-0.2c-0.4,0-0.6-0.2-0.6-0.2s0.2-0.2,0.6-0.2c1.6-0.4,3.3-1.2,4.9-2.4c1.6-1.4,2.7-2.9,2.7-4.3c0-0.8-0.6-2-2-3.5
		l1-1.8c0-0.2,0.2-0.2,0.2-0.2l0.2,0.2c0.6,0.8,1,1.4,1.4,1.6c0.6,0.4,1.4,0.8,2.2,0.8h0.6v2.2h-0.2V599.2z" class="area" title=""></path>
	<path id="PATH_55" d="M1318.4,595.1c0,2.7-1.4,4.1-4.1,4.1h-1.6v-2.4h1.4c2,0,3.1-0.4,3.1-1s-0.4-1.4-1.4-2.4l0.8-2
		c0-0.2,0.2-0.2,0.2-0.2s0.2,0.2,0.4,0.4C1318,592.5,1318.4,593.9,1318.4,595.1z M1317.8,603.7l-1.6,1.6l-1.6-1.6l1.6-1.6
		L1317.8,603.7z" class="area" title=""></path>
</g>
<g id="G_56" class="area" title="">
	<path id="PATH_57" d="M1147.7,826.6c0.2,0.6,0.2,1.2,0.2,1.8c0,0.8-0.2,1.4-0.4,2.2c-0.6,1.4-1.6,2.7-3.7,3.5c-1.6,0.6-3.3,1-5.1,1
		s-3.3-0.4-4.5-1.2c-1.2-1-1.8-2.2-1.8-4.1c0-1,0.2-1.8,0.6-3.1c0.4-0.8,0.6-1.4,1-1.8c0.2-0.2,0.4-0.2,0.4-0.2c0.2,0,0.2,0,0.2,0.2
		c0,0,0,0.2,0,0.4c-0.6,1.2-0.8,2.4-0.8,3.5c0,1,0.4,1.8,1,2.7c0.8,1,2.2,1.4,4.1,1.4c2,0,3.9-0.4,5.3-1c1.2-0.6,2-1.2,2.4-2
		c0.2-0.2,0.2-0.6,0.2-0.8c0-0.6-0.2-1.2-0.4-2c-0.2-0.6-0.8-1.6-1.8-3.3l0.8-1.6c0.2-0.2,0.2-0.4,0.2-0.4s0.2,0,0.2,0.2
		C1146.9,823.4,1147.5,825,1147.7,826.6z M1141.8,817.7l-1.6,1.6l-1.6-1.6l1.6-1.6L1141.8,817.7z" class="area" title=""></path>
	<path id="PATH_58" d="M1156.1,826.8h-1.4c-1.4,0-2.7-0.6-3.1-1.8c-0.4-0.8-0.6-2.2-0.6-3.9v-3.9c0-1.8-0.2-4.5-0.4-8l1.2-1.4
		c0.2-0.2,0.4-0.2,0.4,0c0.2,1.8,0.4,4.5,0.4,8v5.9c0,1.6,0.8,2.4,2.4,2.4h1L1156.1,826.8L1156.1,826.8z" class="area" title=""></path>
	<path id="PATH_59" d="M1168.3,810.3c0,0.4-0.2,1-0.6,2.2c-2.4,0.6-5.5,1.6-9,2.7c2.4,2.4,3.9,4.5,4.1,5.9c0.2,1,0,2-0.4,3.1
		s-1.2,1.6-2.2,2c-0.8,0.4-2.2,0.4-4.1,0.4h-0.8v-2.4h0.6c3.9,0,5.9-0.6,5.9-2c0-1-1-2.7-3.3-4.7l-0.2,0.6c-0.2-0.2-0.6-0.6-1-1.2
		c-0.6-0.6-0.8-1-0.8-1.2c0-0.6,0.2-1.2,0.8-1.8c0.2-0.2,1.4-0.6,4.1-1.4C1164.1,811.5,1166.3,810.9,1168.3,810.3z M1167.9,807.2
		l-0.4,1.4l-10,3.3l0.4-1.4L1167.9,807.2z" class="area" title=""></path>
	<path id="PATH_60" d="M1180.4,822.6c0,2.9-1.8,4.3-5.7,4.3c-1.4,0-2.4-0.2-3.1-0.6c-0.8-0.4-1.2-1.4-1.2-2.7c0-0.6,0.2-1.2,0.4-1.8
		c0.2-0.2,0.2-0.4,0.4-0.4c0.2,0,0.2,0.2,0.2,0.6c0,0.2,0,0.4,0,0.6c0,0.8,0.4,1.4,1.2,1.6c0.4,0.2,1.2,0.2,2.2,0.2
		c3.1,0,4.5-0.4,4.5-1.4c0-1.4-1.8-3.5-5.3-5.9l0.6-2c0-0.2,0.2-0.2,0.2-0.2s0.2,0,0.4,0.2C1178.6,817.7,1180.4,820.3,1180.4,822.6z
		" class="area" title=""></path>
	<path id="PATH_61" d="M1193,826.8h-0.8c-0.8,0-1.2-0.2-1.6-0.4c0,0.2,0,0.4,0,0.6c0,1.8-0.6,3.7-1.8,5.5c-1,1.6-2,2.2-2.7,2.2
		c-1.6,0-2.9,0-4.1-0.2c-0.4,0-0.6-0.2-0.6-0.2s0.2-0.2,0.6-0.2c1.6-0.4,3.3-1.2,4.9-2.4c1.6-1.4,2.7-2.9,2.7-4.3c0-0.8-0.6-2-2-3.5
		l1-1.8c0-0.2,0.2-0.2,0.2-0.2l0.2,0.2c0.6,0.8,1,1.4,1.4,1.6c0.6,0.4,1.4,0.8,2.2,0.8h0.6v2.2h-0.2V826.8z" class="area" title=""></path>
	<path id="PATH_62" d="M1197.7,810.7c0.2,0.2,0.2,0.4,0.2,0.4s-0.2,0-0.4,0h-0.6c0.2,2.7,0.2,6.5,0.2,11.6c0,1.2-0.2,2.2-0.8,2.9
		c-0.6,0.8-1.6,1.2-2.7,1.2h-1.2v-2.4h1c1.6,0,2.4-0.6,2.2-1.8c-0.2-4.3-0.4-8.8-0.6-13.3l1.4-1.2c0.2-0.2,0.4-0.4,0.4-0.4
		s0,0.2,0.2,0.4C1196.9,808.7,1197.3,809.5,1197.7,810.7z" class="area" title=""></path>
</g>
<g id="TEXT_60" class="st4 area" title="">
	<path d="M1029.2,191.3c0.7,0,1.3-0.1,2-0.2s1.3-0.4,1.9-0.7s1.1-0.6,1.5-1s0.6-0.8,0.7-1.2c0-0.8-0.1-1.5-0.2-2.2s-0.3-1.1-0.5-1.6
		s-0.4-0.8-0.7-1.2s-0.4-0.6-0.6-0.9c0-0.1,0-0.3,0.1-0.5s0.1-0.4,0.2-0.6s0.1-0.4,0.2-0.6s0.2-0.3,0.2-0.4c0.4,0.4,0.7,0.8,1,1.3
		s0.5,1.1,0.7,1.7s0.3,1.2,0.4,1.8s0.1,1.2,0.1,1.8c0,1.1-0.2,2.1-0.6,3s-1,1.5-1.6,2s-1.5,0.9-2.3,1.2s-1.7,0.4-2.6,0.4
		c-0.9,0-1.6-0.2-2.2-0.5s-1-0.7-1.4-1.2s-0.6-1-0.7-1.6s-0.2-1.2-0.2-1.8c0-0.6,0.1-1.1,0.2-1.6s0.2-0.9,0.4-1.3s0.3-0.6,0.4-0.8
		s0.3-0.3,0.3-0.3c0.1,0,0.1,0,0.1,0.1c-0.1,0.3-0.2,0.6-0.3,0.8s-0.1,0.5-0.2,0.9s-0.1,0.8-0.1,1.3c0,0.6,0.1,1.1,0.3,1.5
		s0.5,0.9,0.9,1.2s0.8,0.6,1.2,0.8S1028.7,191.3,1029.2,191.3z M1029.6,176.7l1.8,1.2l-0.9,1.8l-1.8-1.2L1029.6,176.7z" id="PATH_61" class="area"></path>
	<path d="M1056.5,180.1c0,0.3,0,0.6-0.1,0.9s-0.1,0.6-0.2,0.9s-0.2,0.6-0.3,0.9s-0.2,0.5-0.3,0.7c-0.6,0.4-1.2,0.7-2,1
		s-1.7,0.7-2.7,0.9s-2.1,0.5-3.3,0.7s-2.5,0.3-3.8,0.3c-0.8,0-1.5-0.1-2.2-0.3s-1.3-0.5-1.8-0.8s-0.9-0.8-1.3-1.4s-0.5-1.2-0.5-2
		c0-0.5,0.1-1,0.2-1.4s0.3-0.8,0.4-1.1s0.3-0.6,0.5-0.8s0.3-0.3,0.3-0.3c0.1,0,0.1,0,0.1,0.1c-0.1,0.3-0.2,0.5-0.3,0.7
		s-0.1,0.4-0.2,0.6s-0.1,0.5-0.1,0.8c0,0.5,0.1,1,0.4,1.4s0.6,0.9,1.1,1.2s1.1,0.6,1.8,0.8s1.6,0.3,2.5,0.3c0.9,0,1.9-0.1,2.9-0.2
		s2-0.3,3-0.6s1.9-0.5,2.7-0.8s1.5-0.6,2.1-0.9c0-0.5-0.1-1-0.2-1.5s-0.3-0.9-0.6-1.2c0-0.1,0-0.3,0.1-0.5s0.1-0.4,0.2-0.7
		s0.1-0.4,0.2-0.6s0.2-0.4,0.2-0.5c0.1,0.1,0.2,0.3,0.4,0.5s0.3,0.5,0.4,0.8s0.2,0.6,0.3,1S1056.5,179.8,1056.5,180.1z
		 M1047.6,188.5l1.8,1.2l-0.9,1.8l-1.8-1.2L1047.6,188.5z" id="PATH_62" class="area"></path>
</g>
<path id="_x35_78" class="st5 area" d="M1073.2,721l60.2,42l93.6,48.9
	c22,10.4,44,20.7,66,31.1c27.3,6.2,54.6,12.5,81.9,18.7l-2.6-18l-1.8-13.2l-13.7,3.6l-26.6-7.5c-2.7-6.8-5.4-13.6-8-20.4
	c-1-5.4-2-10.9-3.1-16.3c-5.8-3.1-11.5-6.2-17.3-9.3l-6.3-6.4c-1.8-9.2-3.7-18.5-5.5-27.7c-14.7-0.5-29.4-1-44-1.5
	c-12.7-3.1-25.4-6.2-38.2-9.3c-10.8-5-21.6-10-32.4-15.1c-7.9-6.4-15.8-12.8-23.7-19.2c-6.1-2.6-12.2-5.3-18.2-7.9
	c-9.9-3.8-19.8-7.6-29.8-11.5c-7.1-0.8-14.2-1.6-21.3-2.3l-22,3.1l6.1,21.8L1073.2,721z" title=""></path>
<g id="G_62" class="area" title="">
	<path id="PATH_63" d="M1191.8,777.4c0.2-1.1,0.2-2.4,0.2-3.5v-1.7c0-3.2-0.4-7.9-0.6-10.9c0.5-0.6,1.2-1.4,1.7-1.9l0.2,0.1
		c0.4,3.8,0.5,8.3,0.5,12.4c0,1.1,0,2.1-0.1,2.9c-0.1,1-0.5,1.7-1.5,2.8L1191.8,777.4z" class="area" title=""></path>
	<path id="PATH_64" d="M1203,768l1.2,2.4c0.5,0.9,0.9,1.8,0.9,3.3v1.9c0,1.6-0.8,3.2-2.2,4.9c-1.1,1.1-2,1.6-2.9,1.6
		c-1.3,0-2.8-0.5-4.5-1.4l0.2-0.6c0.5,0.2,1.2,0.3,2,0.3c2.5,0,5-2.1,6.2-4.7c0.1-0.3,0.2-0.6,0.2-0.8c0-0.3-0.1-0.6-0.2-0.9
		c-0.6-1.4-1.3-2.7-2.1-3.9c0.4-0.8,0.8-1.5,1.2-2.2L1203,768z M1201.4,762c0.7,0.5,1.4,1.2,2.1,1.9c-0.4,0.6-0.9,1.2-1.5,1.7
		c-0.7-0.7-1.4-1.2-2.1-1.8C1200.4,763.1,1200.9,762.5,1201.4,762z" class="area" title=""></path>
	<path id="PATH_65" d="M1213.8,771.1c1,2.4,1.9,3.8,4,3.8h0.3v2.2h-0.4c-0.8,0-1.3-0.2-1.8-0.6h-0.1c0,0.2,0,0.4,0,0.6
		c0,0.8-0.2,1.9-0.7,2.7c-1.4,2.4-2.9,3.5-4.2,3.5c-1.3,0-2.9-0.6-4.4-1.4l0.3-0.6c0.5,0.2,1.1,0.4,2,0.4c2.4,0,5.4-2.7,5.8-5.3
		c-0.1-0.2-0.2-0.5-0.5-0.8c-0.7-1-1.1-1.8-1.5-2.6c0.4-0.8,0.7-1.5,1-2L1213.8,771.1z" class="area" title=""></path>
	<path id="PATH_66" d="M1218.5,774.9c1.4,0,2.8-0.5,3-1.5l0.5-1.9l1.2-0.9l0.1,0.1c-0.2,0.9-0.4,1.7-0.4,2c0,0.6,0.2,1.1,0.6,1.5
		c0.6,0.5,1.2,0.7,2.2,0.7h0.3v2.2h-0.4c-1.7,0-3-0.5-3.6-1.8h-0.1c-0.6,1.2-2,1.8-3.5,1.8h-0.3c-1,0-1.2-0.7-1.2-1.2
		c0-0.4,0.3-1.1,1.2-1.1h0.4V774.9z M1220.5,784.1c-0.7-0.7-1.4-1.2-2.1-1.8c0.5-0.6,0.9-1.2,1.4-1.7c0.7,0.6,1.3,1.1,2,1.9
		C1221.3,783.2,1221,783.7,1220.5,784.1z M1223.9,783.9c-0.7-0.7-1.4-1.2-2.1-1.8c0.5-0.6,0.9-1.2,1.4-1.7c0.7,0.6,1.3,1.1,2,1.9
		C1224.7,783,1224.3,783.4,1223.9,783.9z" class="area" title=""></path>
	<path id="PATH_67" d="M1226.4,774.9c1.3,0,2.3-0.9,3-3.1c0.2-0.7,0.7-1.4,1.3-2.1c0.7-0.6,1.4-1,2.2-1c2.1,0,3.4,3,3.7,6
		c-0.4,1.6-1,2.3-1.9,2.3c-1.7,0-3.5-0.8-5.2-2.1h-0.1c-0.5,1.5-1.5,2.3-3,2.3h-0.3c-1,0-1.2-0.7-1.2-1.2c0-0.4,0.3-1.1,1.2-1.1
		L1226.4,774.9L1226.4,774.9z M1232.6,774.2c0.7,0.3,1.4,0.5,2.1,0.5c0.3,0,0.5,0,0.6-0.2c-0.5-2.7-1.7-3.8-2.8-3.8
		c-1,0-1.8,0.6-2.4,1.7C1230.6,773.2,1231.5,773.7,1232.6,774.2z" class="area" title=""></path>
	<path id="PATH_68" d="M1257.2,766.9c1.2,2.3,1.9,4.5,1.9,7.2c0,1.8-0.5,3.7-1.2,4.5c-1.5,1.6-3.8,2.7-5.9,2.7
		c-3.3,0-5.4-2.2-5.4-5.3c0-2.2,0.7-3.8,1.5-5.1l0.7,0.4c-0.6,1.1-1,2.5-1,3.3c0,1.5,0.5,2.4,1.2,3.1c0.8,0.7,2,1.2,3.3,1.2
		c1.4,0,3.1-0.7,4.3-1.5c0.8-0.6,1.2-1.1,1.2-1.5c0-1.2-0.3-2.2-0.5-3.1c-0.4-1.4-0.9-2.5-1.5-3.5c0.4-0.7,0.8-1.5,1.4-2.2V766.9z
		 M1252.4,761.3c0.7,0.5,1.4,1.2,2.1,1.9c-0.4,0.6-0.9,1.2-1.5,1.7c-0.7-0.7-1.4-1.2-2.1-1.8
		C1251.5,762.4,1251.9,761.8,1252.4,761.3z" class="area" title=""></path>
	<path id="PATH_69" d="M1266.8,777.1h-0.2c-1.4,0-2.3-0.3-3-1c-1.1-1.1-1.1-2.3-1.1-4.9c0-3.3-0.2-6.8-0.5-10.6
		c0.6-0.7,1.1-1.2,1.7-1.6l0.1,0.1c0.3,3.8,0.3,8.4,0.3,12.7v1c0,1.1,0.6,1.6,1.3,1.9c0.4,0.2,0.9,0.2,1.1,0.2h0.2L1266.8,777.1
		L1266.8,777.1z" class="area" title=""></path>
	<path id="PATH_70" d="M1267.9,774.9c2.8,0,5.8-1,9.4-3.2v-0.1c-2-0.8-3.9-1.2-5.5-1.2c-1,0-1.7,0.3-2.2,0.9l0.2,0.9l-0.5,1.6h-0.2
		l-0.9-2.3c0.1-2,1.7-3.2,3.8-3.2c1.2,0,3,0.4,5.8,1.5c0.8,0.3,1.9,0.5,3,0.6h1.4h0.1l-0.9,1.8c-1.5,0-2.5,0.3-3,0.7l-2.9,1.9
		c-2.4,1.5-4.9,2.4-7.6,2.4h-0.9c-1,0-1.2-0.7-1.2-1.2c0-0.4,0.3-1.1,1.2-1.1L1267.9,774.9L1267.9,774.9z M1272.9,762.1
		c0.7,0.5,1.4,1.2,2.1,1.9c-0.4,0.6-0.9,1.2-1.5,1.7c-0.7-0.7-1.4-1.2-2.1-1.8C1272,763.3,1272.5,762.7,1272.9,762.1z" class="area" title=""></path>
</g>
<polygon id="_x35_79" class="st6 area active" points="1374.9,861.7 1318.4,847.7 1290.2,855.6 1240.4,909.6 1220.2,957.1 1233.3,988.7 
	1251.8,1020.3 1269.3,1036.2 1299.4,1022.3 1318.8,993.2 1352.1,980 1382.4,985.4 1398.6,990.6 1393.3,947.6 1382.2,885.6 " title=""></polygon>
<g id="G_72" class="area" title="">
	<path id="PATH_73" d="M1284.5,937.2c0.1,1.5,0.7,2.7,2.9,2.7c1.4,0,2.5-0.4,3.8-1.1c0.2-0.1,0.4-0.3,0.4-0.4c0-0.9-0.6-2.2-1.7-3.3
		c-1-1.1-2.3-2-3.6-2.7c-0.4-0.2-0.6-0.4-0.6-0.7c0-0.4,0.5-1.4,0.9-2h0.1c1.4,0.9,3,2.2,4.2,3.6c1.1,1.3,1.7,2.7,1.7,4.2
		c0,1.1-0.3,2.1-0.7,3.1c-1.6,0.9-3.2,1.6-4.9,1.6c-2,0-3.4-1.1-3.4-3.7c0-0.3,0-0.7,0.1-1.3L1284.5,937.2L1284.5,937.2z" class="area" title=""></path>
	<path id="PATH_74" d="M1301.7,932.9l1.2,2.4c0.5,0.9,0.9,1.8,0.9,3.3v1.9c0,1.6-0.8,3.2-2.2,4.9c-1.1,1.1-2,1.6-2.9,1.6
		c-1.3,0-2.8-0.5-4.5-1.4l0.2-0.6c0.5,0.2,1.2,0.3,2,0.3c2.5,0,5-2.1,6.2-4.7c0.1-0.3,0.2-0.6,0.2-0.8c0-0.3-0.1-0.6-0.2-0.9
		c-0.6-1.4-1.3-2.7-2.1-3.9c0.4-0.8,0.8-1.5,1.2-2.2L1301.7,932.9z" class="area" title=""></path>
	<path id="PATH_75" d="M1317.3,923.9c0.1,3.4,0.2,6.9,0.2,10.3c0,1.5,0,2.9,0.5,3.9c0.4,0.8,1.2,1.6,2.1,1.6h0.1v2.2h-0.3
		c-1.6,0-3.6-1.5-3.6-4.9h-0.1c-0.7,2.5-2.2,3.8-3.8,4.5c-1.3,0.5-2.2,0.7-3.6,0.7l-1.9-0.2l-0.1-0.1c2.8-1.1,5-2.2,6.7-3.3
		c-0.3-1.7-2-4.5-5.1-8.6c-0.9-1.2-1.8-2.3-1.8-2.9c0-0.4,0.3-1.1,0.5-1.6h0.1c0.9,0.9,2.1,1.7,3.3,2.5l-0.6,1
		c0.9,1.3,1.9,2.6,2.8,4.3c0.7,1.2,1.4,2.6,1.4,3.8c0,0.4,0,0.7-0.1,1.1h0.1c0.5-0.5,0.9-1,1.3-1.5c0.7-1.1,0.7-2.4,0.7-5.4
		c0-2-0.1-4.1-0.2-6.1c0.5-0.6,0.9-1.1,1.4-1.5V923.9z" class="area" title=""></path>
	<path id="PATH_76" d="M1321.6,939.7c1.5,0,2.8-0.1,3.8-0.4c1.1-0.3,2.1-1,2.1-1.5c0-0.1,0-0.3,0-0.4c-0.6,0.1-1.4,0.1-2,0.1
		c-2,0-3.6-0.5-4.2-1.9c-0.2-0.4-0.3-0.8-0.3-1.3c0-1.3,0.5-2.6,1.3-3.5c0.7-0.7,1.5-1.2,2.3-1.2c1.4,0,2.6,1.4,3.4,3.5
		c0.4,1.2,0.7,2.5,0.7,4.2c0,1.1-0.3,2.1-0.9,2.8c-1.1,1.3-3.1,1.7-6.3,1.7h-1.4c-1,0-1.2-0.7-1.2-1.2c0-0.4,0.3-1.1,1.2-1.1h1.5
		V939.7z M1324.2,932.1c-1.2,0-2.1,0.9-2.1,1.6c0,1.4,2.3,1.9,5.1,1.8C1326.9,933.8,1325.7,932.1,1324.2,932.1z M1323.9,924.2
		c0.7,0.5,1.4,1.2,2.1,1.9c-0.4,0.6-0.9,1.2-1.5,1.7c-0.7-0.7-1.4-1.2-2.1-1.8C1322.9,925.3,1323.4,924.7,1323.9,924.2z" class="area" title=""></path>
</g>
<path class="st0 area" d="M1206,999" id="PATH_79" title=""></path>
<path class="st5 area" d="M1277,853" id="PATH_80" title=""></path>
<path class="st5 area" d="M1484,756" id="PATH_81" title=""></path>
</svg>
