<!--?xml version="1.0" encoding="utf-8"?-->
<!-- Generator: Adobe Illustrator 27.4.1, SVG Export Plug-In . SVG Version: 6.00 Build 0)  -->
<svg version="1.1" id="Layer_1" xmlns="http://www.w3.org/2000/svg" xmlns:xlink="http://www.w3.org/1999/xlink" x="0px" y="0px" viewBox="0 0 1920 1080" style="enable-background:new 0 0 1920 1080;" xml:space="preserve" width="100%" height="100%">
<style type="text/css">
	.st0{fill:#DBECCB;stroke:#010101;stroke-width:0.4726;stroke-miterlimit:23.6324;}
	.st1{fill:#FDFAD4;stroke:#010101;stroke-width:0.4726;stroke-miterlimit:23.6324;}
	.st2{fill:#FBD0D1;stroke:#010101;stroke-width:0.4726;stroke-miterlimit:23.6324;}
	.st3{fill:#E8D0E5;stroke:#010101;stroke-width:0.4726;stroke-miterlimit:23.6324;}
	.st4{fill:none;stroke:#020202;stroke-width:1.1816;stroke-miterlimit:23.6324;}
	.st5{fill:#F3F1A1;stroke:#020202;stroke-width:0.5;stroke-miterlimit:10;}
	.st6{fill:#FCF8CC;stroke:#020202;stroke-width:0.5;stroke-miterlimit:10;}
</style>
<path id="_x32_40" class="st0 area" d="M1557.2,356.6c-6.4-16.8,7.8-37.3-5.2-50.1c-15.4-16.8-16.8-37.3-26.9-55.3
	c-14.2-24.3-43.7-33.6-69.5-50.1c-15.4-10.4-20.6-28.4-26.9-45.1c-9-22,11.6-41.1,19.4-59.3c1.2-2.4,1.7-5.4,1.7-8.7l-315,3.8
	c1.9,17.7,6.6,34.5,12.3,51.3c2.6,6.4,3.8,14.2,3.8,20.6c1.2,6.4,5.2,11.6,7.8,18c7.8,18-5.2,37.3,0,56.7c1.2,2.6,2.6,5.2,2.6,7.8
	c3.8,45.1-2.6,88.9-14.2,131.2c-10.4,37.3-79.9,55.3-65.7,96.4c9,24.6,51.5,29.5,48.9,66.9c-0.9,14.2,18,15.6,34.3,20.1
	c-1.4-4.7-3.1-9.2-4-11.8l-0.9-2.4l2.1-1.2c0,0,55.3-33.6,65.2-39.7c10.6-6.4,30.7-6.4,47-6.4c8.5,0,28.4-0.5,47.7-1.2
	c16.3-0.5,31.7-0.9,37.3-0.9c10.4,0,20.8-10.4,20.8-20.8c0-12.8,12.5-16.1,24.6-19.1c1.7-0.5,3.5-0.9,5.2-1.4
	c4.3-1.2,7.3-2.1,9.9-3.1c5.7-1.9,9.9-3.5,22.5-5c16.8-1.9,26.9-16.8,26.9-26.7c0-14.2,11.6-30.7,26.7-30.7h67.4
	c3.5,0,6.1-0.9,9.2-2.6C1565.5,378.4,1560.5,367.7,1557.2,356.6z" title=""></path>
<path id="_x32_16" class="st1 area" d="M863.6,602.4c-2.6,0-9,0-7.8,3.8c0,6.4,2.6,15.4,2.6,20.6c2.6,23.2,41.1,34.7,31,65.7
	c-2.6,6.4-11.6,9-9,16.8c5.2,18,10.4,41.1-6.4,54.1c-10.2,6.4-23.4,4.3-32.8,8.7c7.3,5.4,15.1,10.6,23.9,14.4c3.8,2.6,7.8,6.4,7.8,9
	c-8,26.2-1.9,60.5,23.9,68.1c-0.7-5-1.4-8.3-1.4-8.5l-0.2-0.9l0.2-0.7c0.7-1.7,16.3-38.3,26.5-48.4c6.6-6.6,27.6-21,46.8-20.1
	c5.2,0.2,9.7,1.7,13.7,4c-1.2-5.9-2.6-11.6-4-18c-6.4-22-31-22-50.1-34.7c-11.6-7.8-22-22-14.2-33.6c20.6-29.5,19.4-65.7,3.8-95.2
	c-4.7-7.8-12.5-12.5-20.3-15.6C886.3,596.2,877.1,603.3,863.6,602.4z" title=""></path>
<path id="_x32_35" class="st0 area" d="M808.9,588.2c-18.9,24.1-35.7,48.7-61.4,61.7c9.7,3.8,22,13.9,26,22c1.4,2.8,2.6,7.8,3.8,13
	c31.7-7.6,50.3-33.6,76.8-54.1c0.7-1.2,2.1-2.4,4-3.1c0-0.2,0-0.5-0.2-0.7c0-5.2-2.6-14.2-2.6-20.6c-1.2-3.8,5.2-3.8,7.8-3.8
	c13.5,0.9,22.7-6.1,33.6-10.4c-2.6-0.9-5.4-1.9-8-2.6c-12.8-3.3-25.8-5.4-36.4-11.3c-3.1,2.8-6.1,6.1-9.9,7.6
	C830.8,588.2,812.9,583,808.9,588.2z" title=""></path>
<path id="_x32_25" class="st1 area" d="M835.2,548.3c-7.8,5.2-15.4-1.2-22-5.2c-5.2-3.8-19.4-1.2-18,9c1.2,2.6,5.2,5.2,5.2,6.4
	c0.9,10.6,2.6,21.3,9.9,28.6c5.4-3.5,21.7,0.7,32.4-1.7c4-1.4,6.9-4.7,9.9-7.6c-2.1-1.2-4.3-2.6-6.1-4c-10.4-6.4,6.4-16.8,1.2-23.2
	c-2.4-2.1-4.5-4.5-6.1-7.1c-1.4,0.2-2.8,0.2-4.3,0.7C836.6,545.7,835.2,548.3,835.2,548.3z" title=""></path>
<path id="_x32_08" class="st0 area" d="M797.9,495.6c-2.6-1.2-3.8,3.8-2.6,6.4c13,11.8,13.2,26.5,18.2,41.4c6.4,3.8,13.9,10.2,21.7,5
	c0,0,1.2-2.6,2.6-3.8c1.4-0.2,2.8-0.5,4.3-0.7c-6.1-9.2-7.6-20.3-10.6-31.7c-0.9-5-5-7.3-8.3-9.9
	C814.2,502.7,807.3,496.5,797.9,495.6z" title=""></path>
<path id="_x32_22" class="st2 area" d="M532.7,535.5c5.2-1.2,5.2-7.8,3.8-9c-14.2-12.8-1.2-25.8,3.8-37.3c6.4-12.8-3.8-22-12.8-34.7
	c-3.8-7.8-6.4-18-12.8-24.3c-7.8-9-16.8,2.6-23.2,6.4c-11.8,5.9-23.4-4.7-34.7-14.7c-3.8,3.8-9,7.6-22,7.6
	c-11.3,0-28.6-0.9-33.3-1.2c-1.7,1.7-4.7,5-4.7,7.6c0,2.8-0.2,7.8-0.7,13.5c-0.2,5.2-0.7,10.4-0.7,13c0,3.8,2.6,10.9,3.8,13.2
	l0.2,0.5v0.7c0,4.7,1.4,18,8,22.7c4.7,3.3,14.7,9.5,23.2,14.9c8.3,5.2,15.1,9.5,17.7,11.6c0.7,0.5,1.4,1.2,2.4,1.9
	c5,4.3,10.9,9,19.4,3.3c12.5-8.3,26-7.6,35.4,1.7c0.7,0.7,1.7,1.4,2.4,2.4C515.9,534.3,525.2,536.9,532.7,535.5z" title=""></path>
<path id="_x32_19" class="st0 area" d="M660.3,494.2c-5.2-10.4-18-12.8-24.3-23.2c-5.2-7.8-9-15.4-16.8-18c-16.8-3.8-38.5-7.8-48.9,10.4
	c19.4,10.4-3.8,16.8,1.2,32.1c0,1.2,2.6,3.8,5.2,5.2c-2.6,3.8-6.4,5.2-11.6,5.2c-9.2-2.1-17.7-8.7-26.7-12.5
	c-5.7,10.4-14.2,21.7-1.7,33.1c1.2,1.2,1.2,7.8-3.8,9c-7.8,1.7-17-1.2-24.8-0.7c8.5,8,22.7,20.1,27.2,22.2
	c2.8,1.4,17.3-6.9,22.7-14.9c0.9-1.4,1.9-3.1,2.8-5c4.3-7.8,10.2-18.7,24.8-17.5c10.9,0.9,24.6-2.8,34.5-5.4
	c3.8-0.9,7.1-1.9,9.5-2.4c1.7-0.2,3.8-1.2,5.9-1.9c5.9-2.4,14.2-5.4,21.3,1.7C661.3,506.7,663.4,500.5,660.3,494.2z" title=""></path>
<path id="_x32_36" class="st3 area" d="M773.5,562.5c-16.8-6.4-29.5,10.4-45.1,6.4c-9-2.6-20.6-12.8-28.4-3.8c-7.8,9-9.9,18.9-19.4,25.5
	c0.2,2.8,0.9,5.9,2.1,8.5c2.6,5.7,6.9,9,12.8,10.4c18,3.8,30.7,6.6,33.8,19.4c2.6,10.4,9,18.2,16.3,20.3c0.7,0.2,1.4,0.5,2.1,0.7
	c25.8-13,42.5-37.6,61.4-61.7c0.2-0.5,0.7-0.7,0.9-0.9c-4-4-6.4-9-7.8-14.4c-2.8,1.4-5.7,2.6-8.7,2.6
	C786.3,575.4,781.1,566.2,773.5,562.5z" title=""></path>
<path id="_x32_42" class="st1 area" d="M740,541.9c0-1.2-2.6-5.2-1.2-7.8c2.6-2.6,5.2-5.2,6.4-7.8c1.2-6.4-3.8-12.8-1.2-18
	c3.8-6.4,11.6-12.8,9-20.6c-3.8-16.8-18-18-34.7-19.4c-3.8-1.2-7.8-12.8-12.8-12.8c-23.2,1.2-41.1-9-59.3-23.2
	c-3.8-3.8-11.6-6.4-19.4-3.8c-5.2,1.2-7.8-10.4-14.2-11.6c-3.8-1.2-7.8,2.6-9,6.4c0,2.6,1.2,6.4,0,7.8c-5.2,5.2-6.9,11.8-7.6,18.7
	c7.8,0,15.8,1.7,22.9,3.3c7.8,2.6,11.6,10.4,16.8,18c6.4,10.4,19.4,12.8,24.3,23.2c3.1,6.1,0.9,12.5-3.3,17.3
	c0.7,0.7,1.7,1.7,2.4,2.8c4,5.9,6.9,12.5,9.7,19.1c2.8,6.4,5.4,12.5,8.5,16.3c5.9,7.3,12.1,17,5.7,28.4c-1.7,2.8-2.6,7.6-2.1,12.3
	c9.7-6.6,11.6-16.5,19.4-25.5c7.8-9,19.4,1.2,28.4,3.8c6.9,1.7,13.2-0.7,19.6-3.1C750.6,557,749.2,548,740,541.9z" title=""></path>
<path id="_x31_60" class="st1 area" d="M549,394.2c-0.2-0.2-0.5-0.2-0.9-0.5c-11.6-5.2-18-19.4-29.5-24.6c-18-6.9-36.9-16.3-40.6-35
	c-2.4,1.2-4.7,2.6-7.1,3.8c1.2,5.9,1.9,13-0.2,19.1c-3.5,10.4-7.3,12.8-13.2,16.5c-1.4,0.9-3.3,2.1-5.2,3.3c-2.1,1.7-4.5,2.8-6.9,4
	c-3.5,1.9-7.6,4.3-7.8,6.1c0,0.7,0.2,2.6,4.3,6.1c12.1,10.9,17.7,16.5,18,21.7c0,1.9-0.7,3.5-2.1,5c-0.5,0.5-0.9,0.7-1.2,1.2
	c11.1,9.9,22.9,20.3,34.7,14.7c6.4-3.8,15.4-15.4,23.2-6.4c1.2,1.2,2.1,2.4,3.1,3.8C538.9,436.7,538.9,408.6,549,394.2z" title=""></path>
<path id="_x32_20" class="st3 area" d="M598.4,395.1c-16.3-3.8-35.2,5.9-49.4-0.9c-10.2,14.4-10.4,42.3-31.2,39.5
	c4.3,6.1,6.6,14.2,9.7,20.6c9,12.8,19.4,22,12.8,34.7c-0.7,1.4-1.4,2.8-2.1,4.3c8.7,3.8,17.3,10.4,26.7,12.5c5.2,0,9-1.2,11.6-5.2
	c-2.6-1.2-5.2-3.8-5.2-5.2c-5.2-15.4,18-22-1.2-32.1c5.9-10.4,15.6-13.5,26-13.5c0.5-6.9,2.1-13.5,7.6-18.7c1.2-1.2,0-5.2,0-7.8
	c1.2-3.8,5.2-7.8,9-6.4c0.5,0,0.9,0.2,1.2,0.5C612.8,407.4,609.5,398.7,598.4,395.1z" title=""></path>
<path id="_x32_10" class="st0 area" d="M617.8,383.6c1.4-2.6,2.4-5.7,3.1-8.5c-6.4,0-14.4-2.8-21-4.3c-12.8-1.2-14.2-16.8-23.2-23.2
	c-7.8-5.2-16.8-13-25.8-14.2c-12.8,0-25.8,7.8-39.9-1.2c-11.8-8.5-22.2-3.5-32.8,2.4c3.8,18.7,22.7,28.4,40.6,35
	c11.6,5.2,18,19.4,29.5,24.6c14.2,7.8,33.6-2.6,50.1,1.2c3.3,0.9,5.7,2.4,7.8,4.3C610.9,395.1,615,389.9,617.8,383.6z" title=""></path>
<path id="_x32_43" class="st2 area" d="M795.6,501.9c-13-2.1-26-2.6-27.6-14.9c-2.6-19.4-12.8-37.3-26.9-50.1c-1.2-1.2,0-5.2,0-6.4
	c3.8-6.4,11.6-9,16.8-14.2c5.2-7.8,2.6-11.6-5.2-14.2c-12.8-2.6-18,14.2-31,5.2c-12.8-7.8-26.9-15.4-32.1-31c-1.2-5.2-9-6.4-12.8-9
	c-10.6-7.6-23.6-11.3-35-15.6c-4.7,4.7-8.7,9.9-11.3,17c-1.7,4.3-5.2,5.7-9.7,5.7c-0.9,2.8-1.7,5.7-3.1,8.5
	c-2.8,6.4-6.9,11.6-11.6,15.8c5,4.5,6.9,10.9,7.6,18c5.7,2.4,8,12.3,13,11.1c7.8-2.6,15.4,0,19.4,3.8c18,14.2,36.2,24.3,59.3,23.2
	c5.2,0,9,11.6,12.8,12.8c16.8,1.2,31,2.6,34.7,19.4c2.6,7.8-5.2,14.2-9,20.6c-2.6,5.2,2.6,11.6,1.2,18c-1.2,2.6-3.8,5.2-6.4,7.8
	c-1.2,2.6,1.2,6.4,1.2,7.8c9,6.1,10.6,15.1,8,23.9c8-3.3,16.1-6.9,25.5-3.3c7.8,3.8,12.8,12.8,20.6,12.8c3.1,0,5.9-1.2,8.7-2.6
	c-1.2-4.5-1.9-9.2-2.1-14.2c0-1.2-3.8-3.8-5.2-6.4c-1.2-10.4,12.8-13,18-9c0,0,0.2,0,0.2,0.2C808.4,527.9,807.9,513.5,795.6,501.9z" title=""></path>
<path id="_x32_32" class="st3 area" d="M511,332c14.2,9,26.9,1.2,39.9,1.2c9,1.2,18,9,25.8,14.2c9,6.4,10.4,22,23.2,23.2
	c11.6,2.6,26.9,9,31-1.2c2.6-6.9,6.6-12.3,11.3-17c-11.8-4.5-22.2-9.2-26.7-19.1c-8-18.7-9.9-42.3-16.8-63.8
	c-5.9,1.4-12.3,2.1-18.9,2.1c-3.1,0-5.9,0-9,0c-14.2-0.2-26.2-0.5-37.1,5.7c-3.8,2.1-7.6,4.7-11.3,7.3c-9.9,6.9-20.3,13.7-35,16.8
	c-15.6,3.1-18.9,22.5-19.4,26.2c0.7,1.7,2.1,5.7,3.3,10.6C484.5,331.3,496.6,321.6,511,332z" title=""></path>
<path id="_x32_05" class="st1 area" d="M854.6,469.8c-5.2-1.2-12.8,1.2-12.8-3.8c-2.6-14.2-7.8-24.6-15.4-34.7c-9-11.6-10.4-31-9-46.3
	c0-5.2,15.4,3.8,20.6-5.2c1.2-2.6,3.8-5.2,5.2-6.4c7.6-4.7,15.4-6.6,22-10.6c-3.1-1.9-5.2-5.7-5.2-8.7c-2.6-15.4-9-32.1-24.6-35.9
	c0-1.2,0-3.8,0-5.2c9-2.6,11.6-12.8,2.6-18c-12.8-8-29.3-9.5-41.4-16.1c-0.2,1.2-0.5,2.1-1.2,3.3c-1.2,0-3.8,1.2-6.4,1.2
	c-10.4,5.2-10.4,26.9-23.2,19.4c-14.2-7.8-26.9-7.8-39.9-15.4c-16.1-8.5-30.5-20.8-39.7-36.4c-9.2,3.3-20.1,4.5-28.6,1.2
	c-14.7-5.4-29.1-1.7-34.3,5c-4.3,5.7-13.7,10.4-25.1,13c6.9,21.5,8.7,45.1,16.8,63.8c9,19.4,39.9,19.4,61.7,34.7
	c3.8,2.6,11.6,3.8,12.8,9c5.2,15.4,19.4,23.2,32.1,31c12.8,9,18-7.8,31-5.2c7.8,2.6,10.4,6.4,5.2,14.2c-5.2,5.2-12.8,7.8-16.8,14.2
	c0,1.2-1.2,5.2,0,6.4c14.2,12.8,24.6,31,26.9,50.1c1.7,12.3,14.7,12.5,27.6,14.9c-0.2-0.2-0.5-0.5-0.7-0.7c-1.2-2.6,0-7.8,2.6-6.4
	c9.2,0.9,16.1,7.1,25.1,6.6c-1.9-1.4-3.5-3.1-4.5-5.4c-2.6-7.8,6.4-16.8,14.2-12.8c5.9,1.7,11.3,6.1,16.8,10.2
	c2.6-5.9,6.9-11.8,10.2-17.7C857.2,475,857.2,471,854.6,469.8z" title=""></path>
<path id="_x31_6" class="st2 area" d="M936.8,445.5c0.7-0.5,1.7-0.7,2.6-0.9c-12.1-12.8-21.3-28.8-25.8-46.8c-2.6-12.8-23.2-19.4-22-35.9
	c2.1,0.2,4.5,0.5,6.9,0.9c-7.1-6.1-18.4-2.8-26.2,0.5c-2.8,1.7-5.4,1.2-7.8-0.2c-6.6,3.8-14.2,5.9-22,10.6c-1.2,1.2-3.8,3.8-5.2,6.4
	c-5.2,9-20.6,0-20.6,5.2c-1.2,15.4,0,34.7,9,46.3c7.8,10.4,12.8,20.6,15.4,34.7c0,5.2,7.8,2.6,12.8,3.8c2.6,1.2,2.6,5.2,5.2,6.4
	c-3.3,5.9-7.8,12.1-10.2,17.7c6.6,4.5,13.5,8.3,21.7,5.4c10.4-3.8,16.8-15.4,26.9-16.8c12.8-2.6,23.2,15.4,33.6,10.4
	c3.8-2.6-2.6-10.4-5.2-15.4C921.5,466,925.3,450.4,936.8,445.5z" title=""></path>
<path id="_x32_45" class="st0 area" d="M988.4,173.7c-20.6,3.8-29.5,22-45.1,33.6c-17.7,14.2-36.2,15.1-54.6,9.2
	c0.5,10.2,1.9,20.1-4.5,22.9c-12.8,6.4-32.1,11.6-43.7,23.2c-10.4,9-24.6-1.2-38.5,1.2c-7.6,2.1-4.3,8.7-5.2,14.7
	c12.1,6.6,28.4,8,41.4,16.1c9,5.2,6.4,15.4-2.6,18c0,1.2,0,3.8,0,5.2c15.4,3.8,22,20.6,24.6,35.9c0,5.2,6.4,12.8,12.8,9
	c7.6-3.3,18.9-6.6,26.2-0.5c24.3,3.5,52.5,11.3,66.6-8.5c7.8-9-9-25.8-11.6-41.1c-5.2-34.7,18-57.9,37.3-86.3
	c6.4-10.4,6.4-22,7.8-34.7c0-6.1,3.5-9.2,8-11.1C1002.5,175.6,994.5,173,988.4,173.7z" title=""></path>
<path id="_x32_29" class="st3 area" d="M725.8,287.1c12.8,7.8,25.8,7.8,39.9,15.4c12.8,7.8,12.8-14.2,23.2-19.4c2.6,0,5.2-1.2,6.4-1.2
	c3.8-6.4-2.6-15.4,6.4-18c14.2-2.6,28.4,7.8,38.5-1.2c11.6-11.6,31-16.8,43.7-23.2c6.4-2.8,5-12.8,4.5-22.9
	c-30-9.7-59.6-37.8-84.4-56.7c-6.4-5.2-15.4,3.8-18,0c-18-22-15.4-54.1,1.2-78.5c5.2-6.4-5.2-10.4-5.2-15.4
	c-0.7-5.2-1.2-10.6-1.4-15.8c-3.8,0-7.1,0.2-9.7,0.2c-13.7,0-24.8,2.1-30,5.4c-5.4,3.5-26.7,13-32.6,15.4
	c-0.5,3.3-1.7,11.3-1.7,21.7c0,3.3,0.2,6.1,0.5,8.7c0.7,7.8,1.2,14.2-7.8,19.4c-6.6,4-13.2,7.1-17,8.7c5.4,8,18.4,20.8,25.3,26
	c7.3,5.4,4.5,21.3,2.4,32.6c-0.5,3.1-1.2,6.1-1.2,7.3c0,20.1-1.4,33.8-4.3,40.6c-2.4,5.7-9.7,11.1-18.7,14.4
	C695.3,266.1,709.7,278.6,725.8,287.1z" title=""></path>
<path id="_x32_27" class="st2 area" d="M1032.1,87.7c0-13-4.5-26-7.6-39c-8.3,0.9-17.7,2.6-26.9,5.4c-21.3,6.4-55.5,1.9-67.8-6.4
	l-28.6-18.9c-6.4,2.1-29.5,9.7-35.2,9.7c-4,0-30.2,5.9-46.8,9.9h-0.5c-1.2,0-22.5,1.4-38,1.9c0.2,5.2,0.7,10.4,1.4,15.8
	c0,5.2,10.4,9,5.2,15.4c-16.8,24.3-19.4,56.7-1.2,78.5c2.6,3.8,11.6-5.2,18,0c39.9,31,92.6,84.8,139,47.5
	c15.4-11.6,24.3-29.5,45.1-33.6c6.1-0.9,13.9,1.9,18.4,6.9c5.9-2.6,13.5-3.8,16.3-8C1041.3,149.4,1032.1,115.8,1032.1,87.7z" title=""></path>
<path id="_x31_98" class="st1 area" d="M1160.9,245.8c0-2.6-1.2-5.2-2.6-7.8c-5.2-19.4,7.8-38.5,0-56.7c-2.6-6.4-6.4-11.6-7.8-18
	c0-6.4-1.2-14.2-3.8-20.6c-5.7-16.8-10.2-33.6-12.3-51.3h-1.9l-0.7-0.5c-0.2-0.2-25.5-17.7-35-21.5c-3.5-1.4-9.7-3.8-17-6.4
	c-13.7-5.2-29.3-10.9-34.7-13.5c-3.5-1.9-11.3-2.1-20.6-1.2c3.1,13,7.6,26,7.6,39c0,28.4,9,61.7-9,84.8c-5.2,7.8-24.3,5.2-24.3,19.4
	c-1.2,12.8-1.2,24.3-7.8,34.7c-19.4,28.4-42.5,51.5-37.3,86.3c2.6,15.4,19.4,32.1,11.6,41.1c-15.4,22-47.5,10.4-73.3,7.8
	c-1.2,16.8,19.4,23.2,22,35.9c4.5,18,13.7,34,25.8,46.8c7.6-1.7,17.3,2.8,20.6-1.7c18-19.4,55.3-23.2,61.7-1.2
	c9,29.5,33.6,25.8,56.7,24.6c0.2-0.2,0.5-0.2,0.9-0.2c-3.5-35.7,57.7-53.9,67.4-88.6C1158.3,334.6,1164.7,290.9,1160.9,245.8z" title=""></path>
<path id="_x31_56" class="st2 area" d="M854.6,630.7c-26.5,20.6-45.1,46.6-76.8,54.1c1.9,9.2,2.8,19.6,3.1,22c1.4,3.3,8.5,22-1.2,32.8
	c8.3-1.4,16.5-1.2,24.8,4.5c13.5,8.7,24.6,18.9,36.6,27.9c9.7-4.3,22.9-2.1,32.8-8.5c16.8-13,11.6-36.2,6.4-54.1
	c-2.6-7.8,6.4-10.4,9-16.8c10.2-30.5-27.4-42.3-30.7-64.8C856.7,628.4,855.1,629.6,854.6,630.7z" title=""></path>
<path id="_x32_13" class="st0 area active" d="M872.6,795.5c0-2.6-3.8-6.4-7.8-9c-23.2-10.4-38.5-28.4-60.5-42.5c-8.3-5.7-16.3-5.9-24.8-4.5
	c-1.2,1.2-2.4,2.4-4,3.3c-11.1,7.1-16.1,16.1-13.2,24.3c1.9,5.7-0.7,27.6-4.3,55.8c-1.2,9.2-2.1,17.3-2.1,19.1
	c0,2.4,2.4,18.4,5,35.2c2.1,13.9,4.5,29.8,6.4,43.2c0.5,0.7,0.7,1.4,0.7,2.4c0,0.2-0.2,0.5-0.2,0.5c1.7,12.8,2.8,23.2,2.8,27.9
	c0,18.7,5.4,33.1,16.1,42.5c10.9,9.7,61.2,48.9,77.8,61.7c-0.7-10.6-1.2-30.7,3.5-38.5c2.8-4.5,5.2-14.4,7.6-23.9
	c2.6-10.4,5-20.3,8.3-25.5c6.4-10.6,21.3-49.2,19.4-61.4c-1.4-9.7-4.7-31-6.6-43C870.7,856,864.5,821.7,872.6,795.5z" title=""></path>
<path id="_x32_02" class="st3 area" d="M1160.2,736.6l0.2-1.2c0-0.5,5.9-55.3,5.9-63.1c0-4,0.5-25.1,0.9-47.5c0.5-21.3,0.9-43.5,0.9-47.5
	c0-3.5-1.9-10.4-3.8-16.8c-16.3-4.5-35.4-5.7-34.3-20.1c2.6-37.3-39.9-42.5-48.9-66.9c-0.9-2.6-1.4-5.4-1.7-7.8
	c-0.2-0.2-0.7,0-0.9,0.2c-23.2,1.2-47.7,5.2-56.7-24.6c-6.4-22-43.7-18-61.7,1.2c-3.8,5.2-15.4-1.2-23.2,2.6
	c-11.6,5.2-15.4,20.6-10.4,32.1c2.6,5.2,9,12.8,5.2,15.4c-10.4,5.2-20.6-12.8-33.6-10.4c-10.4,1.2-16.8,12.8-26.9,16.8
	c-15.4,5.2-25.8-11.6-38.5-15.4c-7.8-3.8-16.8,5.2-14.2,12.8c2.6,6.4,11.6,7.8,12.8,15.4c3.8,14.2,5.2,28.4,16.8,38.5
	c5.2,6.4-11.6,16.8-1.2,23.2c11.6,9,26.9,11.6,42.5,15.4c10.4,2.6,22,7.8,28.4,18c15.4,29.5,16.8,65.7-3.8,95.2
	c-7.8,11.6,2.6,25.8,14.2,33.6c19.4,12.8,43.7,12.8,50.1,34.7c1.4,6.1,2.8,12.1,4,18c2.6,1.7,5.2,3.8,7.3,6.4
	c17.5,21.5,34.5,24.6,43.2,24.6c9.9,0,46.1,1.9,47.7,1.9h0.7c0.2,0,32.8,9.5,51.3,0.2c17.7-8.7,39.5-7.1,45.6-6.4l25.1-28.6
	L1160.2,736.6z" title=""></path>
<path id="_x32_39" class="st2 area" d="M1754,82.9l-227.3,4l-77,0.9c-0.2,3.3-0.5,6.4-1.7,8.7c-7.8,18-28.4,37.3-19.4,59.3
	c6.4,16.8,11.6,34.7,26.9,45.1c25.8,16.8,55.3,25.8,69.5,50.1c10.4,18,11.6,38.5,26.9,55.3c12.8,12.8-1.2,33.6,5.2,50.1
	c3.3,11.1,8.3,21.7,14.9,31.2c1.7-0.9,3.3-1.9,5.2-3.1c1.7-1.2,3.5-2.4,5.9-3.5c3.3-1.9,6.1-4.7,9-7.3c5.4-5.2,11.1-10.4,18.9-9
	c7.3,1.4,23.4-1.4,29.5-2.8c5-3.8,30.5-23.2,37.6-26c4.7-1.9,14.9-15.4,20.3-23.4l0.9-1.4h26c4.3,0,9.5-0.7,14.9-8.7
	c5-7.6,14.4-20.3,16.8-23.9L1754,82.9z" title=""></path>
<line id="LINE_28" class="st4 area" x1="515" y1="352.6" x2="445.8" y2="316.2" title=""></line>
<line id="LINE_30" class="st4 area" x1="484.8" y1="396.3" x2="416.7" y2="363.5" title=""></line>
<line id="LINE_31" class="st4 area" x1="521.1" y1="618.9" x2="593.2" y2="498.9" title=""></line>
<line id="LINE_36" class="st4 area" x1="982" y1="842.3" x2="903" y2="771.4" title=""></line>
<line id="LINE_37" class="st4 area" x1="1240" y1="649.9" x2="819.6" y2="518.7" title=""></line>
<line id="LINE_38" class="st4 area" x1="1240" y1="693.1" x2="819.6" y2="562" title=""></line>
<g id="G_40" class="area" title="">
	<path id="PATH_41" d="M637.7,412.9c0,2.9-1.6,4.4-5,4.4c-1.3,0-2.1-0.2-2.7-0.6c-0.7-0.4-1.1-1.5-1.1-2.7c0-0.6,0.2-1.3,0.4-1.9
		c0.2-0.2,0.2-0.4,0.4-0.4c0.2,0,0.2,0.2,0.2,0.6c0,0.2,0,0.4,0,0.6c0,0.8,0.4,1.5,1.1,1.7c0.4,0.2,1.1,0.2,2,0.2
		c2.7,0,3.9-0.4,3.9-1.5c0-1.5-1.6-3.6-4.7-6.1l0.5-2.1c0-0.2,0.2-0.2,0.2-0.2s0.2,0,0.4,0.2C636.3,408.1,637.7,410.6,637.7,412.9z" class="area" title=""></path>
	<path id="PATH_42" d="M644.8,417.3h-1.3c-1.3,0-2.3-0.6-2.7-1.9c-0.4-0.8-0.5-2.3-0.5-4v-4c0-1.9-0.2-4.6-0.4-8.2l1.1-1.5
		c0.2-0.2,0.4-0.2,0.4,0c0.2,1.9,0.4,4.6,0.4,8.2v6.1c0,1.7,0.7,2.5,2.1,2.5h0.9V417.3z" class="area" title=""></path>
	<path id="PATH_43" d="M649.1,413.2c0,2.7-1.3,4.2-3.6,4.2h-1.4v-2.5h1.3c1.8,0,2.7-0.4,2.7-1c0-0.6-0.4-1.5-1.3-2.5l0.7-2.1
		c0-0.2,0.2-0.2,0.2-0.2s0.2,0.2,0.4,0.4C648.8,410.6,649.1,411.9,649.1,413.2z M648.6,421.9l-1.4,1.7l-1.4-1.7l1.4-1.7L648.6,421.9
		z" class="area" title=""></path>
	<path id="PATH_44" d="M656.3,395c-0.7,0.8-1.8,1-2.9,1c-0.2,0-0.4,0-0.7,0c-0.4,0-0.5,0-0.7,0c-0.2,0-0.4,0.2-0.5,0.4
		c-0.2,0.2-0.4,0.4-0.4,0.4c-0.2,0-0.2-0.2-0.2-0.4c0-0.2,0.2-0.6,0.4-1c0.2-0.6,0.4-0.8,0.5-0.8s0.5,0,1.1,0.2
		c0.5,0,0.9,0.2,1.1,0.2c1.1,0,1.8,0,2.3-0.2c0.4,0,0.5-0.2,0.5-0.2h0.2C656.7,394.5,656.7,394.8,656.3,395z M655.2,414.8
		c0,0.8-0.2,1.7-0.5,2.3c-0.2,0.4-0.4,0.6-0.4,0.6s-0.2-0.2-0.2-0.8c0-2.5-0.4-8.4-1.1-17.8l1.4-1.7c0.2-0.2,0.2-0.2,0.2-0.2
		s0,0.2,0,0.4C655.1,400.4,655.2,406,655.2,414.8z" class="area" title=""></path>
	<path id="PATH_45" d="M684.4,417.3h-1.1c-1.1,0-2.3-0.4-3.6-1.3c-0.5,0.2-1.1,0.4-1.4,0.6c-1.8,0.6-3.9,1-6.6,1
		c-1.8,0-3.2-0.2-4.1-0.6c-1.4-0.6-2.1-1.9-2.1-3.6c0-1.5,0.4-2.7,0.9-3.8c0.2-0.2,0.2-0.4,0.4-0.4s0.2,0,0.2,0.2c0,0,0,0.2,0,0.4
		c-0.4,0.8-0.4,1.5-0.4,2.1c0,1.5,0.7,2.5,2.3,2.9c0.7,0.2,2.1,0.4,3.9,0.4c1.4,0,2.7,0,3.4-0.2c0.5,0,1.1-0.2,1.6-0.4
		c-0.5-0.6-0.9-1.5-0.9-2.7c0-1,0.4-2.1,0.9-3.1c0.7-1.3,1.4-1.7,2.1-1.9c0.9,0,1.4,0.4,2,1.5c0.4,0.8,0.5,1.7,0.5,2.9
		s-0.4,2.3-1.1,2.9c0.4,0.2,1.3,0.4,2.3,0.4h0.7V417.3L684.4,417.3z M680.5,401.7l-1.4,1.7l-1.4-1.7l1.4-1.7L680.5,401.7z
		 M681.6,412.1c0-0.4-0.2-1-0.5-1.5c-0.4-0.6-0.7-0.8-1.1-0.8s-0.7,0.2-1.3,0.8c-0.5,0.6-0.7,1-0.7,1.5c0,0.8,0.7,1.7,2,2.3
		C681,413.6,681.6,412.7,681.6,412.1z" class="area" title=""></path>
	<path id="PATH_46" d="M700.2,417.3h-1.8c-2.3,0-3.6-1.5-3.6-4.2c0-0.4,0-0.6,0-1c-0.9,0.4-2,1.3-3.4,2.3c-1.4,1-2.3,1.7-3,2.1
		c-1.1,0.6-2.3,0.8-3.4,0.8h-1.3v-2.5h1.4c1.4,0,3-0.4,4.5-1.3c0.7-0.4,2-1.3,3.9-2.3c-0.4,0-1.4-0.4-3.2-0.8
		c-1.3-0.4-2-0.6-2.1-0.6c-0.7,0-1.4,0.4-2.1,1c-0.2,0.2-0.2,0.2-0.4,0.2s-0.2,0-0.2-0.2v-0.2c0.5-2.1,1.6-3.1,3-3.1
		c0.5,0,1.3,0.2,2.1,0.4c1.3,0.4,2.3,0.8,3.2,1c1.3,0.2,2.7,0.4,4.3,0.4c0.4,0,0.4,0,0.5,0c0,0,0,0.2,0,0.4l-0.5,1.9
		c-1.1,0-1.8,0-2.1,0.2c0,1,0.2,1.7,0.4,1.9c0.4,0.6,1.1,1,2.3,1h1.8v2.5H700.2z M693.4,421.7l-1.4,1.7l-1.4-1.7l1.4-1.7
		L693.4,421.7z" class="area" title=""></path>
	<path id="PATH_47" d="M704.3,413.2c0,2.7-1.3,4.2-3.6,4.2h-1.4v-2.5h1.3c1.8,0,2.7-0.4,2.7-1c0-0.6-0.4-1.5-1.3-2.5l0.7-2.1
		c0-0.2,0.2-0.2,0.2-0.2s0.2,0.2,0.4,0.4C703.9,410.6,704.3,411.9,704.3,413.2z M704.3,403.7l-1.4,1.7l-1.4-1.7l1.4-1.7L704.3,403.7
		z" class="area" title=""></path>
</g>
<g id="G_48" class="area" title="">
	<path id="PATH_49" d="M526.7,309.5c0.2,0.6,0.2,1.2,0.2,1.8c0,0.8-0.2,1.4-0.4,2.3c-0.6,1.4-1.6,2.7-3.6,3.5c-1.6,0.6-3.2,1-5.1,1
		s-3.2-0.4-4.5-1.2c-1.2-1-1.8-2.3-1.8-4.1c0-1,0.2-1.8,0.6-3.1c0.4-0.8,0.6-1.4,1-1.8c0.2-0.2,0.4-0.2,0.4-0.2c0.2,0,0.2,0,0.2,0.2
		c0,0,0,0.2,0,0.4c-0.6,1.2-0.8,2.5-0.8,3.5s0.4,1.8,1,2.7c0.8,1,2.2,1.4,4,1.4c2,0,3.8-0.4,5.3-1c1.2-0.6,2-1.2,2.4-2.1
		c0.2-0.2,0.2-0.6,0.2-0.8c0-0.6-0.2-1.2-0.4-2.1c-0.2-0.6-0.8-1.6-1.8-3.3l0.8-1.6c0.2-0.2,0.2-0.4,0.2-0.4s0.2,0,0.2,0.2
		C525.9,306.4,526.5,307.9,526.7,309.5z M520.9,300.7l-1.6,1.6l-1.6-1.6l1.6-1.6L520.9,300.7z" class="area" title=""></path>
	<path id="PATH_50" d="M535,309.9h-1.4c-1.4,0-2.6-0.6-3-1.8c-0.4-0.8-0.6-2.3-0.6-3.9v-3.9c0-1.8-0.2-4.5-0.4-8l1.2-1.4
		c0.2-0.2,0.4-0.2,0.4,0c0.2,1.8,0.4,4.5,0.4,8v6c0,1.6,0.8,2.5,2.4,2.5h1L535,309.9L535,309.9z" class="area" title=""></path>
	<path id="PATH_51" d="M548.6,309.9h-1.2c-1,0-2.2-0.4-3.2-1.4c-0.8-0.6-1.6-1.8-2.6-3.3c-0.2,3.1-2.2,4.7-6.3,4.7H534v-2.5h0.8
		c3.6,0,5.7-0.8,5.7-2.3c0-1.2-0.8-2.7-2.6-4.3c-0.8-0.8-1.6-1.4-2.6-2.3c0-0.8,0.2-1.4,0.6-2.1c0.2-0.2,3.8-1.4,11.1-3.7
		c0,0.2-0.2,1-0.6,2.3c-1.8,0.4-4.9,1.4-8.9,2.7c2,2.3,4,4.3,5.5,6.2c1,1,1.6,1.8,2.2,2.3c0.8,0.6,1.8,1,2.8,1h0.8v2.7H548.6z
		 M546.6,290.2l-0.4,1.4l-9.9,3.3l0.4-1.4L546.6,290.2z" class="area" title=""></path>
	<path id="PATH_52" d="M553.5,305.8c0,2.7-1.4,4.1-4,4.1h-1.6v-2.5h1.4c2,0,3-0.4,3-1c0-0.6-0.4-1.4-1.4-2.5l0.8-2.1
		c0-0.2,0.2-0.2,0.2-0.2s0.2,0.2,0.4,0.4C553,303.2,553.5,304.6,553.5,305.8z M551.8,314.5l-1.6,1.6l-1.6-1.6l1.6-1.6L551.8,314.5z
		 M555.5,314.5l-1.6,1.6l-1.6-1.6l1.6-1.6L555.5,314.5z" class="area" title=""></path>
	<path id="PATH_53" d="M563.4,309.9H562c-1.4,0-2.6-0.6-3-1.8c-0.4-0.8-0.6-2.3-0.6-3.9v-3.9c0-1.8-0.2-4.5-0.4-8l1.2-1.4
		c0.2-0.2,0.4-0.2,0.4,0c0.2,1.8,0.4,4.5,0.4,8v6c0,1.6,0.8,2.5,2.4,2.5h1V309.9z" class="area" title=""></path>
	<path id="PATH_54" d="M573.5,309.9h-1.6c-1.8,0-3-0.6-3.8-1.8c-0.6,1.2-2,1.8-4.2,1.8h-1.2v-2.5h1.8c2,0,3-0.8,3.2-2.3
		c0-0.6,0.2-1,0.4-1c0.2,0,0.4,0.4,0.4,1c0.2,1.4,1.2,2.3,3,2.3h1.8v2.5H573.5z M563.6,314l1.4-1.4l1.4,1.4l-1.4,1.4L563.6,314z
		 M565.4,317.1l1.4-1.4l1.4,1.4l-1.4,1.4L565.4,317.1z M567.2,314l1.4-1.4l1.4,1.4l-1.4,1.4L567.2,314z" class="area" title=""></path>
	<path id="PATH_55" d="M581,309.9h-0.8c-1.8,0-3-0.6-3.6-2.1c-0.2,0.6-0.6,1-1.2,1.4s-1.2,0.6-1.8,0.6h-0.8v-2.5h0.8
		c1.6,0,2.4-0.6,2.4-2.1v-7.2c0-2.7,0-4.7-0.2-6.2l1.8-1.4v13.8c0,2.1,0.8,3.1,2.6,3.1h0.8L581,309.9L581,309.9z" class="area" title=""></path>
	<path id="PATH_56" d="M593.1,293.3c0,0.4-0.2,1-0.6,2.3c-2.4,0.6-5.5,1.6-8.9,2.7c2.4,2.5,3.8,4.5,4,6c0.2,1,0,2.1-0.4,3.1
		s-1.2,1.6-2.2,2.1c-0.8,0.4-2.2,0.4-4,0.4h-0.8v-2.5h0.6c3.8,0,5.9-0.6,5.9-2.1c0-1-1-2.7-3.2-4.7l-0.2,0.6c-0.2-0.2-0.6-0.6-1-1.2
		c-0.6-0.6-0.8-1-0.8-1.2c0-0.6,0.2-1.2,0.8-1.8c0.2-0.2,1.4-0.6,4-1.4C588.7,294.5,591.1,293.7,593.1,293.3z M592.7,290.2l-0.4,1.4
		l-9.9,3.3l0.4-1.4L592.7,290.2z" class="area" title=""></path>
</g>
<g id="G_57" class="area" title="">
	<path id="PATH_58" d="M364.9,303.4c0,2.4-0.7,4.5-2.1,6.6c-1.2,1.7-2.4,2.6-3.1,2.6c-1.9,0-3.3,0-4.7-0.2c-0.5,0-0.7-0.2-0.7-0.2
		s0.2-0.2,0.7-0.2c1.9-0.5,3.8-1.4,5.7-2.8c1.9-1.7,3.1-3.3,3.1-5c0-0.9-0.7-2.4-2.4-4l0.7-2.4c0-0.2,0.2-0.2,0.2-0.2l0.2,0.2
		c0.5,0.7,1.2,1.7,1.4,2.8C364.7,301.5,364.9,302.7,364.9,303.4z" class="area" title=""></path>
	<path id="PATH_59" d="M374.4,303.2h-1.7c-1.7,0-3.1-0.7-3.5-2.1c-0.5-0.9-0.7-2.6-0.7-4.5v-4.5c0-2.1-0.2-5.2-0.5-9.2l1.2-1.7
		c0.2-0.2,0.5-0.2,0.5,0c0.2,2.1,0.5,5.2,0.5,9.2v6.9c0,1.9,0.9,2.8,2.8,2.8h1.2v3.1H374.4z" class="area" title=""></path>
	<path id="PATH_60" d="M396.1,303.2h-1.4c-1.7,0-2.6-0.7-3.3-1.9c-0.5,1.4-1.7,1.9-3.1,1.9c-1.4,0-2.4-0.7-3.1-1.9
		c-0.7,1.4-1.7,1.9-3.1,1.9c-1.7,0-2.8-0.7-3.5-1.9c-0.9,1.4-2.1,1.9-3.8,1.9h-1.7v-2.8h1.9c1.7,0,2.8-0.9,3.1-2.8
		c0-0.5,0.2-0.7,0.5-0.7s0.2,0.2,0.5,0.7c0.2,1.9,1.2,2.8,3.1,2.8c1.7,0,2.8-0.9,2.8-2.8c0-0.5,0.2-0.7,0.5-0.7
		c0.2,0,0.5,0.2,0.5,0.7c0.2,1.9,1.2,2.8,2.4,2.8c1.7,0,2.8-0.9,2.8-2.8c0-0.5,0.2-0.7,0.5-0.7s0.5,0.2,0.5,0.7
		c0.2,1.9,1.2,2.8,2.8,2.8h1.4v2.8H396.1z" class="area" title=""></path>
	<path id="PATH_61" d="M401.8,298.5c0,3.1-1.7,4.7-4.7,4.7h-1.9v-2.8h1.7c2.4,0,3.5-0.5,3.5-1.2c0-0.7-0.5-1.7-1.7-2.8l0.9-2.4
		c0-0.2,0.2-0.2,0.2-0.2s0.2,0.2,0.5,0.5C401.3,295.6,401.8,297.1,401.8,298.5z M401.6,287.8l-1.9,1.9l-1.9-1.9l1.9-1.9L401.6,287.8
		z" class="area" title=""></path>
	<path id="PATH_62" d="M407.2,300.4c0,0.9-0.2,1.9-0.7,2.6c-0.2,0.5-0.5,0.7-0.5,0.7s-0.2-0.2-0.2-0.9c0-2.8-0.5-9.5-1.4-20.1
		l1.9-1.9c0.2-0.2,0.2-0.2,0.2-0.2s0,0.2,0,0.5C407.2,284.3,407.2,290.7,407.2,300.4z" class="area" title=""></path>
	<path id="PATH_63" d="M421.9,303.2h-2.6c-0.2,3.3-1.4,5.9-3.8,8.3c-0.7,0.7-1.2,1.2-1.4,1.2c-1.2,0-2.8-0.2-4.5-0.5
		c-0.5,0-0.9-0.2-0.9-0.2s0.2-0.2,0.9-0.5c1.9-0.5,3.8-1.7,5.4-2.8c0.7-0.7,1.4-1.2,1.9-2.1c0.7-0.9,1.2-1.9,1.2-2.6v-0.7H415
		c-2.4,0-3.3-0.9-3.3-2.8c0-1.2,0.2-2.4,0.9-3.8c0.7-1.4,1.7-2.4,2.6-2.4c1.2,0,2.1,0.7,2.8,2.4c0.5,1.2,0.9,2.4,0.9,3.8h2.6v2.8
		H421.9z M417.6,300.6c0-0.7-0.2-1.4-0.7-2.1c-0.5-0.9-1.2-1.2-1.9-1.2c-0.5,0-0.9,0.2-1.2,0.5c-0.5,0.5-0.5,0.7-0.5,1.4
		c0,1.2,0.9,1.7,2.8,1.7C416.5,300.6,416.9,300.6,417.6,300.6z" class="area" title=""></path>
	<path id="PATH_64" d="M440.3,296.4l-0.9,1.9c-1.7,0-3.1,0-3.8,0.2c-0.9,0.5-2.4,0.9-4.3,1.9c-1.9,0.9-3.3,1.7-4.3,1.9
		c-1.4,0.5-3.1,0.7-4.5,0.7h-1.7v-2.8h1.9c2.1,0,4-0.5,5.7-1.2l5.4-2.4c-0.9-0.2-2.4-0.7-4.3-1.4c-1.7-0.7-2.6-0.9-3.1-0.9
		c-0.9,0-1.9,0.5-2.8,1.2c-0.2,0.2-0.2,0.2-0.5,0.2s-0.2,0-0.2-0.2v-0.2c0.7-2.4,2.1-3.3,4-3.3c0.7,0,1.7,0.2,2.6,0.7
		c1.9,0.9,3.3,1.4,4.3,1.9c1.7,0.5,3.5,0.9,5.7,0.9c0.5,0,0.7,0,0.7,0.2C440.6,295.9,440.6,296.1,440.3,296.4z M433.7,285.7
		l-1.9,1.9l-1.9-1.9l1.9-1.9L433.7,285.7z" class="area" title=""></path>
</g>
<g id="G_65" class="area" title="">
	<path id="PATH_66" d="M241.8,346.7h-0.9c-1.2,0-2.1-0.2-2.6-0.7c-0.7-0.5-1.2-1.4-1.2-2.4c-2.6,2.4-6.6,3.5-12.1,3.5
		c-5.7,0-8.5-1.7-8.5-5.2c0-1.2,0.5-2.4,1.4-3.5c0.2-0.2,0.2-0.2,0.5-0.2c0.2,0,0.2,0,0.2,0.2c0,0,0,0.2,0,0.5
		c-0.2,0.7-0.5,1.4-0.5,2.1c0,2.4,2.6,3.5,7.8,3.5c5.9,0,9.9-1.2,11.8-3.8c0.5-0.5,0.7-0.7,0.9-0.7s0.2,0.2,0.2,0.5s0,0.5-0.2,0.9
		c0,0.5-0.2,0.7-0.2,0.9c0,1.2,0.9,1.9,2.6,1.9h0.9v2.4H241.8z M227.2,333l-1.9,1.9l-1.9-1.9l1.9-1.9L227.2,333z M231.2,333
		l-1.9,1.9l-1.9-1.9l1.9-1.9L231.2,333z" class="area" title=""></path>
	<path id="PATH_67" d="M260.5,341.5c0,1.4-0.2,2.6-0.9,3.5c-0.7,0.9-1.9,1.7-3.1,1.7c-1.7,0-2.6-0.7-3.3-1.9
		c-0.9,1.4-1.9,1.9-3.3,1.9c-1.7,0-2.8-0.7-3.5-1.9c-0.9,1.4-2.1,1.9-3.8,1.9h-1.7v-2.8h1.9c1.7,0,2.8-0.9,3.1-2.8
		c0-0.5,0.2-0.7,0.5-0.7c0.2,0,0.2,0.2,0.5,0.7c0.2,1.9,1.2,2.8,3.1,2.8c0.9,0,1.9-0.2,2.4-0.7c0.2-0.5,0.5-0.9,0.7-1.9
		c0-0.5,0.2-0.7,0.5-0.7c0.2,0,0.2,0.2,0.5,0.7c0.2,1.9,1.2,2.8,2.8,2.8c1.9,0,2.6-0.5,2.6-1.2c0-0.7-0.5-1.7-1.4-2.6l1.2-2.1
		c0.2-0.2,0.2-0.5,0.5-0.5s0.2,0.2,0.5,0.5C260,339.4,260.5,340.5,260.5,341.5z M252.4,333l-1.7,1.7l-1.7-1.7l1.7-1.7L252.4,333z
		 M254.6,329.2l-1.7,1.7l-1.7-1.7l1.7-1.7L254.6,329.2z M256.7,333l-1.7,1.7l-1.7-1.7l1.7-1.7L256.7,333z" class="area" title=""></path>
	<path id="PATH_68" d="M274.9,341.7c0,3.3-2.1,5-6.6,5c-1.7,0-2.8-0.2-3.5-0.7c-0.9-0.5-1.4-1.7-1.4-3.1c0-0.7,0.2-1.4,0.5-2.1
		c0.2-0.2,0.2-0.5,0.5-0.5s0.2,0.2,0.2,0.7c0,0.2,0,0.5,0,0.7c0,0.9,0.5,1.7,1.4,1.9c0.5,0.2,1.4,0.2,2.6,0.2c3.5,0,5.2-0.5,5.2-1.7
		c0-1.7-2.1-4-6.1-6.9l0.7-2.4c0-0.2,0.2-0.2,0.2-0.2s0.2,0,0.5,0.2C273,336.1,274.9,338.9,274.9,341.7z" class="area" title=""></path>
	<path id="PATH_69" d="M299,346.7h-2.6c-0.2,3.3-1.4,5.9-3.8,8.3c-0.7,0.7-1.2,1.2-1.4,1.2c-1.2,0-2.8-0.2-4.5-0.5
		c-0.5,0-0.9-0.2-0.9-0.2s0.2-0.2,0.9-0.5c1.9-0.5,3.8-1.7,5.4-2.8c0.7-0.7,1.4-1.2,1.9-2.1c0.7-0.9,1.2-1.9,1.2-2.6v-0.7h-3.1
		c-2.4,0-3.3-0.9-3.3-2.8c0-1.2,0.2-2.4,0.9-3.8c0.7-1.4,1.7-2.4,2.6-2.4c1.2,0,2.1,0.7,2.8,2.4c0.5,1.2,0.9,2.4,0.9,3.8h2.6v2.8
		H299z M294.7,343.9c0-0.7-0.2-1.4-0.7-2.1c-0.5-0.9-1.2-1.2-1.9-1.2c-0.5,0-0.9,0.2-1.2,0.5c-0.5,0.5-0.5,0.7-0.5,1.4
		c0,1.2,0.9,1.7,2.8,1.7C293.3,343.9,294,343.9,294.7,343.9z" class="area" title=""></path>
	<path id="PATH_70" d="M310.6,346.7h-1.9c-2.1,0-3.5-0.7-4.5-2.1c-0.7,1.4-2.4,2.1-5,2.1h-1.4v-2.8h2.1c2.4,0,3.5-0.9,3.8-2.6
		c0-0.7,0.2-1.2,0.5-1.2c0.2,0,0.5,0.5,0.5,1.2c0.2,1.7,1.4,2.6,3.5,2.6h2.1v2.8H310.6z M305.9,334.4l-1.9,1.9l-1.9-1.9l1.9-1.9
		L305.9,334.4z" class="area" title=""></path>
	<path id="PATH_71" d="M322.2,346.7h-1.9c-2.1,0-3.5-0.7-4.5-2.1c-0.7,1.4-2.4,2.1-5,2.1h-1.4v-2.8h2.1c2.4,0,3.5-0.9,3.8-2.6
		c0-0.7,0.2-1.2,0.5-1.2c0.2,0,0.5,0.5,0.5,1.2c0.2,1.7,1.4,2.6,3.5,2.6h2.1v2.8H322.2z M314.4,351.9l-1.9,1.9l-1.9-1.9l1.9-1.9
		L314.4,351.9z M318.4,351.9l-1.9,1.9l-1.9-1.9l1.9-1.9L318.4,351.9z" class="area" title=""></path>
	<path id="PATH_72" d="M334,342c0,1.2,0,2.1-0.5,3.1c-0.5,1.2-1.2,1.9-1.9,1.9c-1.2,0-3.1-0.7-5.4-2.4c-0.7,0.9-1.2,1.4-1.4,1.7
		c-0.7,0.5-1.4,0.7-2.4,0.7h-1.2v-2.8h1.7c0.9,0,1.9-0.5,2.8-1.7c0.5-0.5,1.2-1.7,2.1-3.1c0.7-1.2,1.7-1.7,2.4-1.7
		c1.2,0,2.1,0.5,2.8,1.7C333.5,340.1,333.7,341,334,342z M332.6,343.6c0-0.7-0.2-1.4-0.7-2.4c-0.5-0.9-1.2-1.4-1.9-1.4
		s-1.4,0.7-2.4,2.1c0.5,0.5,1.2,0.9,2.1,1.4c0.9,0.5,1.9,0.7,2.4,0.7C332.3,344.3,332.6,344.1,332.6,343.6z" class="area" title=""></path>
	<path id="PATH_73" d="M355.2,345.7c0,3.5-1.2,6.6-3.5,9c-0.7,0.7-1.2,1.2-1.4,1.2c-1.4,0-2.8-0.2-4.5-0.5c-0.7,0-0.9-0.2-0.9-0.2
		s0.2-0.2,0.9-0.5c1.9-0.5,3.8-1.7,5.4-3.1c0.7-0.7,1.4-1.2,1.9-2.1c0.7-0.9,1.2-1.9,1.2-2.6v-0.7h-3.1c-2.1,0-3.3-0.9-3.3-2.6
		c0-1.2,0.2-2.4,0.9-3.8s1.7-2.4,2.6-2.4c1.4,0,2.6,0.9,3.3,3.1C355,342.2,355.2,343.9,355.2,345.7z M353.6,343.6
		c0-0.7-0.2-1.4-0.7-2.1c-0.5-0.7-1.2-1.2-1.9-1.2c-0.5,0-0.9,0.2-1.2,0.5c-0.5,0.5-0.5,0.7-0.5,1.2c0,1.2,0.7,1.7,2.4,1.7
		C351.9,343.9,352.6,343.9,353.6,343.6z" class="area" title=""></path>
	<path id="PATH_74" d="M388.3,346.7h-1.2c-1.2,0-1.9,0-2.4-0.2c0,0.7,0.2,1.2,0.2,1.9c0,1.2-0.2,1.9-0.5,2.6c-0.7,1.7-1.9,3.1-4.3,4
		c-1.9,0.7-3.8,1.2-5.9,1.2s-3.8-0.5-5.2-1.4c-1.4-1.2-2.1-2.6-2.1-4.7c0-1.2,0.2-2.1,0.7-3.5c0.5-0.9,0.7-1.7,1.2-2.1
		c0.2-0.2,0.5-0.2,0.5-0.2c0.2,0,0.2,0,0.2,0.2c0,0,0,0.2,0,0.5c-0.7,1.4-0.9,2.8-0.9,4s0.5,2.1,1.2,3.1c0.9,1.2,2.6,1.7,4.7,1.7
		c2.4,0,4.5-0.5,6.1-1.2c1.4-0.7,2.4-1.4,2.8-2.4c0.2-0.2,0.2-0.7,0-1.7c0-0.7-0.2-1.4-0.2-1.7c-0.2-0.7-1.2-1.9-2.4-3.5l0.9-1.9
		c0.2-0.2,0.2-0.5,0.2-0.5s0.2,0,0.2,0.2c1.2,1.9,2.4,2.8,3.8,2.8h1.9v2.8H388.3z M377.9,336.1l-1.9,1.9l-1.9-1.9l1.9-1.9
		L377.9,336.1z" class="area" title=""></path>
	<path id="PATH_75" d="M394,342c0,3.1-1.7,4.7-4.7,4.7h-1.9v-2.8h1.7c2.4,0,3.5-0.5,3.5-1.2s-0.5-1.7-1.7-2.8l0.9-2.4
		c0-0.2,0.2-0.2,0.2-0.2s0.2,0.2,0.5,0.5C393.5,338.9,394,340.3,394,342z M392.1,351.9l-1.9,1.9l-1.9-1.9l1.9-1.9L392.1,351.9z
		 M396.1,351.9l-1.9,1.9l-1.9-1.9l1.9-1.9L396.1,351.9z" class="area" title=""></path>
	<path id="PATH_76" d="M411,346.7h-2.6c-0.2,3.3-1.4,5.9-3.8,8.3c-0.7,0.7-1.2,1.2-1.4,1.2c-1.2,0-2.8-0.2-4.5-0.5
		c-0.5,0-0.9-0.2-0.9-0.2s0.2-0.2,0.9-0.5c1.9-0.5,3.8-1.7,5.4-2.8c0.7-0.7,1.4-1.2,1.9-2.1c0.7-0.9,1.2-1.9,1.2-2.6v-0.7h-3.1
		c-2.4,0-3.3-0.9-3.3-2.8c0-1.2,0.2-2.4,0.9-3.8c0.7-1.4,1.7-2.4,2.6-2.4c1.2,0,2.1,0.7,2.8,2.4c0.5,1.2,0.9,2.4,0.9,3.8h2.6v2.8
		H411z M406.8,343.9c0-0.7-0.2-1.4-0.7-2.1c-0.5-0.9-1.2-1.2-1.9-1.2c-0.5,0-0.9,0.2-1.2,0.5c-0.5,0.5-0.5,0.7-0.5,1.4
		c0,1.2,0.9,1.7,2.8,1.7C405.3,343.9,406.1,343.9,406.8,343.9z" class="area" title=""></path>
	<path id="PATH_77" d="M416.7,342c0,3.1-1.7,4.7-4.7,4.7h-1.9v-2.8h1.7c2.4,0,3.5-0.5,3.5-1.2s-0.5-1.7-1.7-2.8l0.9-2.4
		c0-0.2,0.2-0.2,0.2-0.2s0.2,0.2,0.5,0.5C416.2,338.9,416.7,340.3,416.7,342z M416,351.9l-1.9,1.9l-1.9-1.9l1.9-1.9L416,351.9z" class="area" title=""></path>
</g>
<g id="G_78" class="area" title="">
	<path id="PATH_79" d="M415.8,470H415c-0.8,0-1.2-0.2-1.6-0.4c0,0.2,0,0.4,0,0.6c0,1.7-0.6,3.3-1.8,5c-1,1.5-2,2-2.6,2
		c-1.6,0-2.8,0-4-0.2c-0.4,0-0.6-0.2-0.6-0.2s0.2-0.2,0.6-0.2c1.6-0.4,3.2-1.1,4.8-2.2c1.6-1.3,2.6-2.6,2.6-3.9c0-0.7-0.6-1.8-2-3.1
		l1-1.7c0-0.2,0.2-0.2,0.2-0.2l0.2,0.2c0.6,0.7,1,1.3,1.4,1.5c0.6,0.4,1.4,0.7,2.2,0.7h0.6v2H415.8z" class="area" title=""></path>
	<path id="PATH_80" d="M428.1,470h-1c-0.8,0-1.6,0.2-2.2,0.4c-1,0.4-1.6,0.9-1.6,1.8c0,1.1,0.8,2,2.4,3l-1,1.8
		c-1.8-0.6-3.4-1.5-4.6-2.6c-1.6-1.3-2.4-3-2.4-4.6H415v-2.2h2.6c0-1.5,0.4-3,1.2-4.8c0.8-1.7,1.4-2.4,1.8-2.4c0.4,0,1,0.7,1.6,2.4
		c0.6,1.5,0.8,2.4,0.8,3c0,2.6-1.4,3.9-4.2,3.9c0.2,0.7,0.6,1.5,1.2,2.2s1.4,1.3,2.2,1.7c0-0.2,0-0.6,0-0.7c0-1.3,0.4-2.4,1-3.3
		c1-1.3,2.2-2,4-2h0.8v2.6H428.1z M422,467c0-0.4-0.2-1.1-0.6-2c-0.4-1.1-0.8-1.5-1.2-1.5c-0.2,0-0.6,0.4-1,1.3
		c-0.4,0.9-0.6,2-0.6,3.1C421,468,422,467.6,422,467z" class="area" title=""></path>
	<path id="PATH_81" d="M443.8,466.1c0,1.1-0.2,2-0.8,2.8c-0.6,0.7-1.6,1.3-2.6,1.3c-1.4,0-2.2-0.6-2.8-1.5c-0.8,1.1-1.6,1.5-2.8,1.5
		c-1.4,0-2.4-0.6-3-1.5c-0.8,1.1-1.8,1.5-3.2,1.5h-1.4V468h1.6c1.4,0,2.4-0.7,2.6-2.2c0-0.4,0.2-0.6,0.4-0.6s0.2,0.2,0.4,0.6
		c0.2,1.5,1,2.2,2.6,2.2c0.8,0,1.6-0.2,2-0.6c0.2-0.4,0.4-0.7,0.6-1.5c0-0.4,0.2-0.6,0.4-0.6c0.2,0,0.2,0.2,0.4,0.6
		c0.2,1.5,1,2.2,2.4,2.2c1.6,0,2.2-0.4,2.2-0.9s-0.4-1.3-1.2-2l1-1.7c0.2-0.2,0.2-0.4,0.4-0.4s0.2,0.2,0.4,0.4
		C443.4,464.3,443.8,465.4,443.8,466.1z M437,459.3l-1.4,1.3l-1.4-1.3l1.4-1.3L437,459.3z M438.8,456.5l-1.4,1.3l-1.4-1.3l1.4-1.3
		L438.8,456.5z M440.6,459.3l-1.4,1.3l-1.4-1.3l1.4-1.3L440.6,459.3z" class="area" title=""></path>
	<path id="PATH_82" d="M468.5,469.8c0.2,0.6,0.2,1.1,0.2,1.7c0,0.7-0.2,1.3-0.4,2c-0.6,1.3-1.6,2.4-3.6,3.1c-1.6,0.6-3.2,0.9-5,0.9
		c-1.8,0-3.2-0.4-4.4-1.1c-1.2-0.9-1.8-2-1.8-3.7c0-0.9,0.2-1.7,0.6-2.8c0.4-0.7,0.6-1.3,1-1.7c0.2-0.2,0.4-0.2,0.4-0.2
		c0.2,0,0.2,0,0.2,0.2c0,0,0,0.2,0,0.4c-0.6,1.1-0.8,2.2-0.8,3.1s0.4,1.7,1,2.4c0.8,0.9,2.2,1.3,4,1.3c2,0,3.8-0.4,5.2-0.9
		c1.2-0.6,2-1.1,2.4-1.8c0.2-0.2,0.2-0.6,0.2-0.7c0-0.6-0.2-1.1-0.4-1.8c-0.2-0.6-0.8-1.5-1.8-3l0.8-1.5c0.2-0.2,0.2-0.4,0.2-0.4
		s0.2,0,0.2,0.2C467.7,466.9,468.3,468.3,468.5,469.8z M462.8,461.9l-1.6,1.5l-1.6-1.5l1.6-1.5L462.8,461.9z" class="area" title=""></path>
	<path id="PATH_83" d="M479,469.3c0,2.8-1,5.2-3,7c-0.6,0.6-1,0.9-1.2,0.9c-1.2,0-2.4-0.2-3.8-0.4c-0.6,0-0.8-0.2-0.8-0.2
		s0.2-0.2,0.8-0.4c1.6-0.4,3.2-1.3,4.6-2.4c0.6-0.6,1.2-0.9,1.6-1.7c0.6-0.7,1-1.5,1-2v-0.6h-2.6c-1.8,0-2.8-0.7-2.8-2
		c0-0.9,0.2-1.8,0.8-3c0.6-1.1,1.4-1.8,2.2-1.8c1.2,0,2.2,0.7,2.8,2.4C478.8,466.7,479,468,479,469.3z M477.6,467.8
		c0-0.6-0.2-1.1-0.6-1.7c-0.4-0.6-1-0.9-1.6-0.9c-0.4,0-0.8,0.2-1,0.4c-0.4,0.4-0.4,0.6-0.4,0.9c0,0.9,0.6,1.3,2,1.3
		C476.2,468,476.8,468,477.6,467.8z" class="area" title=""></path>
	<path id="PATH_84" d="M494.5,470h-0.8c-0.8,0-1.4-0.2-2-0.7c-0.4-0.4-0.8-0.7-1.2-1.5c-0.4,0.7-1,1.3-1.6,1.7
		c-0.8,0.4-1.8,0.6-3.4,0.6c-2.8,0-4.2-0.9-4.2-2.8c0-0.6,0.2-1.3,0.6-1.8c0.2-0.2,0.2-0.4,0.4-0.4c0.2,0,0.2,0.2,0.2,0.4
		c0,0.2,0,0.2,0,0.6c0,0.2,0,0.4,0,0.6c0,1.1,1,1.7,3,1.7c2.8,0,4.2-0.6,4.2-1.5c0-0.6-0.8-2.6-2.4-6.1l0.8-1.5
		c0.2-0.2,0.2-0.4,0.2-0.4s0.2,0.2,0.2,0.4c0.6,1.5,1.6,3.7,2.8,6.6c0.6,1.5,1.4,2.2,2.6,2.2h0.6V470L494.5,470z" class="area" title=""></path>
	<path id="PATH_85" d="M499.2,466.3c0,2.4-1.4,3.7-4,3.7h-1.6v-2.2h1.4c2,0,3-0.4,3-0.9s-0.4-1.3-1.4-2.2l0.8-1.8
		c0-0.2,0.2-0.2,0.2-0.2s0.2,0.2,0.4,0.4C498.8,464.1,499.2,465.2,499.2,466.3z M497.6,474l-1.6,1.5l-1.6-1.5l1.6-1.5L497.6,474z
		 M501,474l-1.6,1.5l-1.6-1.5l1.6-1.5L501,474z" class="area" title=""></path>
	<path id="PATH_86" d="M513.5,470h-0.8c-0.8,0-1.2-0.2-1.6-0.4c0,0.2,0,0.4,0,0.6c0,1.7-0.6,3.3-1.8,5c-1,1.5-2,2-2.6,2
		c-1.6,0-2.8,0-4-0.2c-0.4,0-0.6-0.2-0.6-0.2s0.2-0.2,0.6-0.2c1.6-0.4,3.2-1.1,4.8-2.2c1.6-1.3,2.6-2.6,2.6-3.9c0-0.7-0.6-1.8-2-3.1
		l1-1.7c0-0.2,0.2-0.2,0.2-0.2l0.2,0.2c0.6,0.7,1,1.3,1.4,1.5c0.6,0.4,1.4,0.7,2.2,0.7h0.6v2H513.5z" class="area" title=""></path>
	<path id="PATH_87" d="M521,464.8v0.7c0,1.3-0.2,2-0.6,2.6c-1,1.3-2.6,1.8-5.2,1.8h-2.8v-2.2h2c3.4,0,5.2-0.6,5.5-1.5
		c0-0.2,0-0.2,0-0.4c0-0.4,0-0.6-0.2-0.7c-0.8,0.2-1.8,0.2-2.6,0.2c-1.8,0-2.8-0.7-2.8-2.2c0-0.9,0.2-2,0.8-3
		c0.6-1.1,1.4-1.7,2.4-1.7c0.8,0,1.6,0.6,2.2,1.5C520.8,461.5,521,463,521,464.8z M518.8,454.7l-1.6,1.5l-1.6-1.5l1.6-1.5
		L518.8,454.7z M519.6,463.2c0-0.6-0.2-1.1-0.6-1.7c-0.4-0.6-1-0.7-1.6-0.7c-0.4,0-0.8,0.2-1.2,0.4c-0.2,0.2-0.4,0.6-0.4,0.9
		c0,0.7,0.6,1.1,2,1.1C518.3,463.5,518.8,463.4,519.6,463.2z" class="area" title=""></path>
</g>
<g id="G_88" class="area" title="">
	<path id="PATH_89" d="M556.5,426.2c0.2,0.6,0.2,1.1,0.2,1.7c0,0.8-0.2,1.3-0.4,2.1c-0.5,1.3-1.4,2.5-3.2,3.2
		c-1.4,0.6-2.9,0.9-4.5,0.9c-1.6,0-2.9-0.4-3.9-1.1c-1.1-0.9-1.6-2.1-1.6-3.8c0-0.9,0.2-1.7,0.5-2.8c0.4-0.8,0.5-1.3,0.9-1.7
		c0.2-0.2,0.4-0.2,0.4-0.2c0.2,0,0.2,0,0.2,0.2c0,0,0,0.2,0,0.4c-0.5,1.1-0.7,2.3-0.7,3.2s0.4,1.7,0.9,2.5c0.7,0.9,2,1.3,3.6,1.3
		c1.8,0,3.4-0.4,4.7-0.9c1.1-0.6,1.8-1.1,2.1-1.9c0.2-0.2,0.2-0.6,0.2-0.8c0-0.6-0.2-1.1-0.4-1.9c-0.2-0.6-0.7-1.5-1.6-3l0.7-1.5
		c0.2-0.2,0.2-0.4,0.2-0.4s0.2,0,0.2,0.2C555.7,423.2,556.3,424.7,556.5,426.2z M551.3,418l-1.4,1.5l-1.4-1.5l1.4-1.5L551.3,418z" class="area" title=""></path>
	<path id="PATH_90" d="M570.6,426.4h-0.7c-0.7,0-1.3-0.2-1.8-0.8c-0.4-0.4-0.7-0.8-1.1-1.5c-0.4,0.8-0.9,1.3-1.4,1.7
		c-0.7,0.4-1.6,0.6-3,0.6c-2.5,0-3.8-0.9-3.8-2.8c0-0.6,0.2-1.3,0.5-1.9c0.2-0.2,0.2-0.4,0.4-0.4s0.2,0.2,0.2,0.4s0,0.2,0,0.6
		s0,0.4,0,0.6c0,1.1,0.9,1.7,2.7,1.7c2.5,0,3.8-0.6,3.8-1.5c0-0.6-0.7-2.7-2.1-6.3l0.7-1.5c0.2-0.2,0.2-0.4,0.2-0.4s0.2,0.2,0.2,0.4
		c0.5,1.5,1.4,3.8,2.5,6.8c0.5,1.5,1.3,2.3,2.3,2.3h0.5V426.4L570.6,426.4z" class="area" title=""></path>
	<path id="PATH_91" d="M574.9,422.6c0,2.5-1.3,3.8-3.6,3.8h-1.4v-2.3h1.3c1.8,0,2.7-0.4,2.7-0.9s-0.4-1.3-1.3-2.3l0.7-1.9
		c0-0.2,0.2-0.2,0.2-0.2s0.2,0.2,0.4,0.4C574.5,420.3,574.9,421.5,574.9,422.6z M573.5,430.6l-1.4,1.5l-1.4-1.5l1.4-1.5L573.5,430.6
		z M576.5,430.6l-1.4,1.5l-1.4-1.5l1.4-1.5L576.5,430.6z" class="area" title=""></path>
	<path id="PATH_92" d="M587.8,426.4h-0.7c-0.7,0-1.1-0.2-1.4-0.4c0,0.2,0,0.4,0,0.6c0,1.7-0.5,3.4-1.6,5.1c-0.9,1.5-1.8,2.1-2.3,2.1
		c-1.4,0-2.5,0-3.6-0.2c-0.4,0-0.5-0.2-0.5-0.2s0.2-0.2,0.5-0.2c1.4-0.4,2.9-1.1,4.3-2.3c1.4-1.3,2.3-2.7,2.3-4
		c0-0.8-0.5-1.9-1.8-3.2l0.9-1.7c0-0.2,0.2-0.2,0.2-0.2l0.2,0.2c0.5,0.8,0.9,1.3,1.3,1.5c0.5,0.4,1.3,0.8,2,0.8h0.5v2.1H587.8z" class="area" title=""></path>
	<path id="PATH_93" d="M594.8,421.1v0.8c0,1.3-0.2,2.1-0.5,2.7c-0.9,1.3-2.3,1.9-4.7,1.9h-2.5v-2.3h1.8c3,0,4.7-0.6,5-1.5
		c0-0.2,0-0.2,0-0.4c0-0.4,0-0.6-0.2-0.8c-0.7,0.2-1.6,0.2-2.3,0.2c-1.6,0-2.5-0.8-2.5-2.3c0-0.9,0.2-2.1,0.7-3
		c0.5-1.1,1.3-1.7,2.1-1.7c0.7,0,1.4,0.6,2,1.5C594.4,417.7,594.8,419.2,594.8,421.1z M592.6,410.6l-1.4,1.5l-1.4-1.5l1.4-1.5
		L592.6,410.6z M593.4,419.4c0-0.6-0.2-1.1-0.5-1.7c-0.4-0.6-0.9-0.8-1.4-0.8c-0.4,0-0.7,0.2-1.1,0.4c-0.2,0.2-0.4,0.6-0.4,0.9
		c0,0.8,0.5,1.1,1.8,1.1C592.3,419.7,592.8,419.6,593.4,419.4z" class="area" title=""></path>
</g>
<g id="G_94" class="area" title="">
	<path id="PATH_95" d="M439.4,612.6c0.2,0.7,0.2,1.4,0.2,2.1c0,0.9-0.2,1.7-0.5,2.6c-0.7,1.7-1.9,3.1-4.3,4
		c-1.9,0.7-3.8,1.2-5.9,1.2c-2.1,0-3.8-0.5-5.2-1.4c-1.4-1.2-2.1-2.6-2.1-4.7c0-1.2,0.2-2.1,0.7-3.5c0.5-0.9,0.7-1.7,1.2-2.1
		c0.2-0.2,0.5-0.2,0.5-0.2c0.2,0,0.2,0,0.2,0.2c0,0,0,0.2,0,0.5c-0.7,1.4-0.9,2.8-0.9,4s0.5,2.1,1.2,3.1c0.9,1.2,2.6,1.7,4.7,1.7
		c2.4,0,4.5-0.5,6.1-1.2c1.4-0.7,2.4-1.4,2.8-2.4c0.2-0.2,0.2-0.7,0.2-0.9c0-0.7-0.2-1.4-0.5-2.4c-0.2-0.7-0.9-1.9-2.1-3.8l0.9-1.9
		c0.2-0.2,0.2-0.5,0.2-0.5s0.2,0,0.2,0.2C438.4,608.8,439.1,610.7,439.4,612.6z M432.5,602.4l-1.9,1.9l-1.9-1.9l1.9-1.9L432.5,602.4
		z" class="area" title=""></path>
	<path id="PATH_96" d="M449.1,612.8h-1.7c-1.7,0-3.1-0.7-3.5-2.1c-0.5-0.9-0.7-2.6-0.7-4.5v-4.5c0-2.1-0.2-5.2-0.5-9.2l1.4-1.7
		c0.2-0.2,0.5-0.2,0.5,0c0.2,2.1,0.5,5.2,0.5,9.2v6.9c0,1.9,0.9,2.8,2.8,2.8h1.2V612.8z" class="area" title=""></path>
	<path id="PATH_97" d="M463.2,593.6c0,0.5-0.2,1.2-0.7,2.6c-2.8,0.7-6.4,1.9-10.4,3.1c2.8,2.8,4.5,5.2,4.7,6.9
		c0.2,1.2,0,2.4-0.5,3.5c-0.5,1.2-1.4,1.9-2.6,2.4c-0.9,0.5-2.6,0.5-4.7,0.5h-0.9v-2.8h0.7c4.5,0,6.9-0.7,6.9-2.4
		c0-1.2-1.2-3.1-3.8-5.4l-0.2,0.7c-0.2-0.2-0.7-0.7-1.2-1.4c-0.7-0.7-0.9-1.2-0.9-1.4c0-0.7,0.2-1.4,0.9-2.1
		c0.2-0.2,1.7-0.7,4.7-1.7C458,595.1,460.9,594.4,463.2,593.6z M462.8,590.1l-0.5,1.7l-11.6,3.8l0.5-1.7L462.8,590.1z" class="area" title=""></path>
	<path id="PATH_98" d="M477,607.8c0,3.3-2.1,5-6.6,5c-1.7,0-2.8-0.2-3.5-0.7c-0.9-0.5-1.4-1.7-1.4-3.1c0-0.7,0.2-1.4,0.5-2.1
		c0.2-0.2,0.2-0.5,0.5-0.5c0.2,0,0.2,0.2,0.2,0.7c0,0.2,0,0.5,0,0.7c0,0.9,0.5,1.7,1.4,1.9c0.5,0.2,1.4,0.2,2.6,0.2
		c3.5,0,5.2-0.5,5.2-1.7c0-1.7-2.1-4-6.1-6.9l0.7-2.4c0-0.2,0.2-0.2,0.2-0.2s0.2,0,0.5,0.2C475.1,602.4,477,605.2,477,607.8z" class="area" title=""></path>
	<path id="PATH_99" d="M486.4,612.8h-1.7c-1.7,0-3.1-0.7-3.5-2.1c-0.5-0.9-0.7-2.6-0.7-4.5v-4.5c0-2.1-0.2-5.2-0.5-9.2l1.4-1.7
		c0.2-0.2,0.5-0.2,0.5,0c0.2,2.1,0.5,5.2,0.5,9.2v6.9c0,1.9,0.9,2.8,2.8,2.8h1.2V612.8z" class="area" title=""></path>
	<path id="PATH_100" d="M504.8,605.9l-0.9,1.9c-1.7,0-3.1,0-3.8,0.2c-0.9,0.5-2.4,0.9-4.3,1.9c-1.9,0.9-3.3,1.7-4.3,1.9
		c-1.4,0.5-3.1,0.7-4.5,0.7h-1.7v-2.8h1.9c2.1,0,4-0.5,5.7-1.2l5.4-2.4c-0.9-0.2-2.4-0.7-4.3-1.4c-1.7-0.7-2.6-0.9-3.1-0.9
		c-0.9,0-1.9,0.5-2.8,1.2c-0.2,0.2-0.2,0.2-0.5,0.2c-0.2,0-0.2,0-0.2-0.2v-0.2c0.7-2.4,2.1-3.3,4-3.3c0.7,0,1.7,0.2,2.6,0.7
		c1.9,0.9,3.3,1.4,4.3,1.9c1.7,0.5,3.5,0.9,5.7,0.9c0.5,0,0.7,0,0.7,0.2C505.1,605.5,505.1,605.7,504.8,605.9z M491.8,617.3l1.7-1.7
		l1.7,1.7l-1.7,1.7L491.8,617.3z M494,621.1l1.7-1.7l1.7,1.7l-1.7,1.7L494,621.1z M496.1,617.3l1.7-1.7l1.7,1.7l-1.7,1.7
		L496.1,617.3z" class="area" title=""></path>
</g>
<g id="G_101" class="area" title="">
	<path id="PATH_102" d="M687.9,511.2c0.2,0.7,0.2,1.4,0.2,2.1c0,0.9-0.2,1.7-0.5,2.6c-0.7,1.7-1.9,3.1-4.3,4
		c-1.9,0.7-3.8,1.2-5.9,1.2s-3.8-0.5-5.2-1.4c-1.4-1.2-2.1-2.6-2.1-4.7c0-1.2,0.2-2.1,0.7-3.5c0.5-0.9,0.7-1.7,1.2-2.1
		c0.2-0.2,0.5-0.2,0.5-0.2c0.2,0,0.2,0,0.2,0.2c0,0,0,0.2,0,0.5c-0.7,1.4-0.9,2.8-0.9,4c0,1.2,0.5,2.1,1.2,3.1
		c0.9,1.2,2.6,1.7,4.7,1.7c2.4,0,4.5-0.5,6.1-1.2c1.4-0.7,2.4-1.4,2.8-2.4c0.2-0.2,0.2-0.7,0.2-0.9c0-0.7-0.2-1.4-0.5-2.4
		c-0.2-0.7-0.9-1.9-2.1-3.8l0.9-1.9c0.2-0.2,0.2-0.5,0.2-0.5s0.2,0,0.2,0.2C686.9,507.4,687.6,509.3,687.9,511.2z M681,501l-1.9,1.9
		l-1.9-1.9l1.9-1.9L681,501z" class="area" title=""></path>
	<path id="PATH_103" d="M693.8,508.6c0,0.9-0.2,1.9-0.7,2.6c-0.2,0.5-0.5,0.7-0.5,0.7s-0.2-0.2-0.2-0.9c0-2.8-0.5-9.5-1.4-20.1
		l1.9-1.9c0.2-0.2,0.2-0.2,0.2-0.2s0,0.2,0,0.5C693.5,492.5,693.8,498.9,693.8,508.6z" class="area" title=""></path>
	<path id="PATH_104" d="M708.4,511.4h-0.9c-0.9,0-1.4-0.2-1.9-0.5c0,0.2,0,0.5,0,0.7c0,2.1-0.7,4.3-2.1,6.4
		c-1.2,1.9-2.4,2.6-3.1,2.6c-1.9,0-3.3,0-4.7-0.2c-0.5,0-0.7-0.2-0.7-0.2s0.2-0.2,0.7-0.2c1.9-0.5,3.8-1.4,5.7-2.8
		c1.9-1.7,3.1-3.3,3.1-5c0-0.9-0.7-2.4-2.4-4l1.2-2.1c0-0.2,0.2-0.2,0.2-0.2l0.2,0.2c0.7,0.9,1.2,1.7,1.7,1.9
		c0.7,0.5,1.7,0.9,2.6,0.9h0.7v2.6H708.4z" class="area" title=""></path>
	<path id="PATH_105" d="M720,511.4h-1.9c-2.1,0-3.5-0.7-4.5-2.1c-0.7,1.4-2.4,2.1-5,2.1h-1.4v-2.8h2.1c2.4,0,3.5-0.9,3.8-2.6
		c0-0.7,0.2-1.2,0.5-1.2c0.2,0,0.5,0.5,0.5,1.2c0.2,1.7,1.4,2.6,3.5,2.6h2.1v2.8H720z M712.2,516.6l-1.9,1.9l-1.9-1.9l1.9-1.9
		L712.2,516.6z M716.2,516.6l-1.9,1.9l-1.9-1.9l1.9-1.9L716.2,516.6z" class="area" title=""></path>
	<path id="PATH_106" d="M725.7,506.7c0,3.1-1.7,4.7-4.7,4.7h-1.9v-2.8h1.7c2.4,0,3.5-0.5,3.5-1.2c0-0.7-0.5-1.7-1.7-2.8l0.9-2.4
		c0-0.2,0.2-0.2,0.2-0.2s0.2,0.2,0.5,0.5C725.2,503.9,725.7,505.3,725.7,506.7z M723.6,496.5l-1.9,1.9l-1.9-1.9l1.9-1.9L723.6,496.5
		z M727.6,496.5l-1.9,1.9l-1.9-1.9l1.9-1.9L727.6,496.5z" class="area" title=""></path>
</g>
<g id="G_107" class="area" title="">
	<path id="PATH_108" d="M733.2,604c0.2,0.7,0.2,1.4,0.2,2.1c0,0.9-0.2,1.7-0.5,2.6c-0.7,1.7-1.9,3.1-4.3,4c-1.9,0.7-3.8,1.2-5.9,1.2
		c-2.1,0-3.8-0.5-5.2-1.4c-1.4-1.2-2.1-2.6-2.1-4.7c0-1.2,0.2-2.1,0.7-3.5c0.5-0.9,0.7-1.7,1.2-2.1c0.2-0.2,0.5-0.2,0.5-0.2
		c0.2,0,0.2,0,0.2,0.2c0,0,0,0.2,0,0.5c-0.7,1.4-0.9,2.8-0.9,4c0,1.2,0.5,2.1,1.2,3.1c0.9,1.2,2.6,1.7,4.7,1.7
		c2.4,0,4.5-0.5,6.1-1.2c1.4-0.7,2.4-1.4,2.8-2.4c0.2-0.2,0.2-0.7,0.2-0.9c0-0.7-0.2-1.4-0.5-2.4c-0.2-0.7-0.9-1.9-2.1-3.8l0.9-1.9
		c0.2-0.2,0.2-0.5,0.2-0.5s0.2,0,0.2,0.2C732.3,600.3,733,602.2,733.2,604z M726.4,593.9l-1.9,1.9l-1.9-1.9l1.9-1.9L726.4,593.9z" class="area" title=""></path>
	<path id="PATH_109" d="M742.9,604.3h-1.7c-1.7,0-3.1-0.7-3.5-2.1c-0.5-0.9-0.7-2.6-0.7-4.5v-4.5c0-2.1-0.2-5.2-0.5-9.2l1.4-1.7
		c0.2-0.2,0.5-0.2,0.5,0c0.2,2.1,0.5,5.2,0.5,9.2v6.9c0,1.9,0.9,2.8,2.8,2.8h1.2V604.3z" class="area" title=""></path>
	<path id="PATH_110" d="M763.7,604.3h-2.4c-3.1,0-4.7-1.7-4.7-4.7c0-0.5,0-0.7,0-1.2c-1.2,0.5-2.6,1.4-4.5,2.6
		c-1.9,1.2-3.1,1.9-4,2.4c-1.4,0.7-3.1,0.9-4.5,0.9H742v-2.8h1.9c1.9,0,4-0.5,5.9-1.4c0.9-0.5,2.6-1.4,5.2-2.6
		c-0.5,0-1.9-0.5-4.3-0.9c-1.7-0.5-2.6-0.7-2.8-0.7c-0.9,0-1.9,0.5-2.8,1.2c-0.2,0.2-0.2,0.2-0.5,0.2s-0.2,0-0.2-0.2v-0.2
		c0.7-2.4,2.1-3.5,4-3.5c0.7,0,1.7,0.2,2.8,0.5c1.7,0.5,3.1,0.9,4.3,1.2c1.7,0.2,3.5,0.5,5.7,0.5c0.5,0,0.5,0,0.7,0c0,0,0,0.2,0,0.5
		l-0.7,2.1c-1.4,0-2.4,0-2.8,0.2c0,1.2,0.2,1.9,0.5,2.1c0.5,0.7,1.4,1.2,3.1,1.2h2.4v2.8H763.7z M754.8,609.2l-1.9,1.9l-1.9-1.9
		l1.9-1.9L754.8,609.2z" class="area" title=""></path>
	<path id="PATH_111" d="M775.3,604.3h-1.9c-2.1,0-3.5-0.7-4.5-2.1c-0.7,1.4-2.4,2.1-5,2.1h-1.4v-2.8h2.1c2.4,0,3.5-0.9,3.8-2.6
		c0-0.7,0.2-1.2,0.5-1.2c0.2,0,0.5,0.5,0.5,1.2c0.2,1.7,1.4,2.6,3.5,2.6h2.1v2.8H775.3z M770.6,592.2l-1.9,1.9l-1.9-1.9l1.9-1.9
		L770.6,592.2z" class="area" title=""></path>
	<path id="PATH_112" d="M780.7,585.6c0.2,0.2,0.2,0.5,0.2,0.5s-0.2,0-0.5,0h-0.9c0.2,3.1,0.2,7.6,0.2,13.5c0,1.4-0.2,2.6-0.9,3.3
		c-0.7,0.9-1.9,1.4-3.1,1.4h-1.4v-2.8h1.2c1.9,0,2.8-0.7,2.6-2.1c-0.2-5-0.5-10.2-0.7-15.4l1.7-1.4c0.2-0.2,0.5-0.5,0.5-0.5
		s0,0.2,0.2,0.5C779.8,583.5,780,584.4,780.7,585.6z" class="area" title=""></path>
</g>
<g id="G_113" class="area" title="">
	<path id="PATH_114" d="M790.7,639.8h-1.3c-1.7,0-2.6-0.9-3-3c-0.9,0.9-1.3,1.3-1.5,1.3h-1.7c-0.6,0-1.1,0-1.7-0.2
		c-0.8-0.2-1.1-0.6-1.1-0.9c0-1.5,0.6-2.6,1.5-3.4c0.8-0.6,1.9-1.1,3.4-1.9l-0.4-1.9l1.3-1.5c0,0.2,0.6,2.3,1.3,6.2
		c0.2,1.1,0.6,2.1,0.8,2.5c0.4,0.6,0.8,0.8,1.5,0.8h1.3v2.1H790.7z M786,635.8l-0.6-3c-0.6,0.2-1.3,0.6-2.3,0.9
		c-1.1,0.6-1.9,1.1-1.9,1.3c0,0.4,0.4,0.6,1.3,0.8c0.6,0.2,1.1,0.2,1.7,0.2C784.8,636,785.4,636,786,635.8z" class="area" title=""></path>
	<path id="PATH_115" d="M802.2,622.2c0,0.4-0.4,1.1-0.8,2.1l-4.7,1.5c-2.1,0.8-3.6,1.3-4.4,1.7c1.5,1.5,2.5,2.6,3,3.2
		c0.9,1.3,1.5,2.5,1.7,3.8c0,0.9,0,1.9-0.4,2.6c-0.6,1.7-2.6,2.5-5.9,2.5h-0.9v-2.3h1.1c1.5,0,2.6,0,3.2-0.2
		c1.3-0.4,2.1-0.9,2.1-1.9c0-1.3-0.9-2.8-3-4.7l-0.2,0.4c-0.2-0.2-0.6-0.6-0.9-1.1c-0.6-0.6-0.8-1.1-0.8-1.1c0-0.4,0-0.8,0.2-1.5
		s0.4-1.1,0.6-1.3c0.2-0.2,1.5-0.8,4-1.5C798.4,623.6,800.5,622.8,802.2,622.2z" class="area" title=""></path>
	<path id="PATH_116" d="M811.1,640c0,1.9-0.6,3.6-1.7,5.3c-0.9,1.3-1.9,2.1-2.5,2.1c-1.5,0-2.6,0-3.8-0.2c-0.4,0-0.6-0.2-0.6-0.2
		s0.2-0.2,0.6-0.2c1.5-0.4,3-1.1,4.5-2.3c1.5-1.3,2.5-2.6,2.5-4c0-0.8-0.6-1.9-1.9-3.2l0.9-1.7c0-0.2,0.2-0.2,0.2-0.2l0.2,0.2
		c0.4,0.6,0.9,1.3,1.1,2.3C810.9,638.5,811.1,639.2,811.1,640z" class="area" title=""></path>
	<path id="PATH_117" d="M818.5,639.8h-1.3c-1.3,0-2.5-0.6-2.8-1.7c-0.4-0.8-0.6-2.1-0.6-3.6v-3.6c0-1.7-0.2-4.2-0.4-7.4l1.1-1.3
		c0.2-0.2,0.4-0.2,0.4,0c0.2,1.7,0.4,4.2,0.4,7.4v5.5c0,1.5,0.8,2.3,2.3,2.3h0.9V639.8z" class="area" title=""></path>
	<path id="PATH_118" d="M828,639.8h-1.5c-1.7,0-2.8-0.6-3.6-1.7c-0.6,1.1-1.9,1.7-4,1.7h-1.1v-2.3h1.7c1.9,0,2.8-0.8,3-2.1
		c0-0.6,0.2-0.9,0.4-0.9c0.2,0,0.4,0.4,0.4,0.9c0.2,1.3,1.1,2.1,2.8,2.1h1.7v2.3H828z M823.8,644l-1.5,1.5l-1.5-1.5l1.5-1.5
		L823.8,644z" class="area" title=""></path>
	<path id="PATH_119" d="M837.2,636c0,0.9,0,1.7-0.4,2.5c-0.4,0.9-0.9,1.5-1.5,1.5c-0.9,0-2.5-0.6-4.4-1.9c-0.6,0.8-0.9,1.1-1.1,1.3
		c-0.6,0.4-1.1,0.6-1.9,0.6H827v-2.3h1.3c0.8,0,1.5-0.4,2.3-1.3c0.4-0.4,0.9-1.3,1.7-2.5c0.6-0.9,1.3-1.3,1.9-1.3
		c0.9,0,1.7,0.4,2.3,1.3C837,634.7,837.2,635.3,837.2,636z M836.1,637.4c0-0.6-0.2-1.1-0.6-1.9s-0.9-1.1-1.5-1.1
		c-0.6,0-1.1,0.6-1.9,1.7c0.4,0.4,0.9,0.8,1.7,1.1c0.8,0.4,1.5,0.6,1.9,0.6C836.1,637.9,836.1,637.7,836.1,637.4z" class="area" title=""></path>
</g>
<g id="G_126" class="area" title="">
	<path id="PATH_127" d="M803.6,886.2c0,0.5-0.2,0.9-0.7,1.9c-0.5,0.9-0.9,1.4-1.2,1.4c-0.7,0-1.7-0.2-2.8-0.5
		c-1.2-0.2-2.1-0.5-2.8-0.5c-1.2,0-2.1,0.2-2.6,0.5c0.5,4,0.7,7.1,0.7,9c0,0.9-0.2,1.9-0.9,3.1c-0.2,0.2-0.2,0.5-0.2,0.5s0,0,0-0.2
		c-0.2-3.8-0.5-7.6-0.9-11.3c0-0.5,0.2-0.9,0.7-1.7c0.5-0.5,0.7-0.9,1.2-1.2c0.5-0.5,1.2-0.5,1.9-0.5c-0.2-0.7-0.2-1.2-0.2-1.7
		c0-0.7,0.2-1.7,0.9-2.6c0.7-0.9,1.4-1.4,2.4-1.4c1.2,0,2.4,0.7,3.5,1.9C803.6,884.1,803.6,885.3,803.6,886.2z M801.7,887.2
		c-0.2-0.7-0.9-1.7-1.7-2.4c-0.9-0.9-1.7-1.2-2.6-1.2c-1.2,0-1.7,0.5-1.7,1.2c0,0.5,0.2,0.9,0.5,1.9
		C797.6,886.5,799.5,886.7,801.7,887.2z" class="area" title=""></path>
	<path id="PATH_128" d="M818.2,890.9h-0.9c-0.9,0-1.4-0.2-1.9-0.5c0,0.2,0,0.5,0,0.7c0,2.1-0.7,4.3-2.1,6.4
		c-1.2,1.9-2.4,2.6-3.1,2.6c-1.9,0-3.3,0-4.7-0.2c-0.5,0-0.7-0.2-0.7-0.2s0.2-0.2,0.7-0.2c1.9-0.5,3.8-1.4,5.7-2.8
		c1.9-1.7,3.1-3.3,3.1-5c0-0.9-0.7-2.4-2.4-4l1.2-2.1c0-0.2,0.2-0.2,0.2-0.2l0.2,0.2c0.7,0.9,1.2,1.7,1.7,1.9
		c0.7,0.5,1.7,0.9,2.6,0.9h0.7v2.6H818.2z" class="area" title=""></path>
	<path id="PATH_129" d="M829.8,890.9h-1.9c-2.1,0-3.5-0.7-4.5-2.1c-0.7,1.4-2.4,2.1-5,2.1H817v-2.8h2.1c2.4,0,3.5-0.9,3.8-2.6
		c0-0.7,0.2-1.2,0.5-1.2s0.5,0.5,0.5,1.2c0.2,1.7,1.4,2.6,3.5,2.6h2.1v2.8H829.8z M822,896.1l-1.9,1.9l-1.9-1.9l1.9-1.9L822,896.1z
		 M826,896.1l-1.9,1.9l-1.9-1.9l1.9-1.9L826,896.1z" class="area" title=""></path>
	<path id="PATH_130" d="M846.8,890.9h-1.4c-1.2,0-2.4-0.7-3.3-1.9c-0.7,1.9-1.4,2.8-2.1,2.8s-1.9-0.5-3.3-1.2
		c-1.2-0.7-2.1-1.4-2.6-1.9c-1.2,1.4-2.4,2.1-3.5,2.1h-1.4v-2.8h1.4c1.2,0,2.1-0.5,3.1-1.4c0.7-0.7,1.4-1.7,2.4-2.6
		c0.9-0.9,1.7-1.4,2.4-1.4c0.9,0,1.7,0.5,2.4,1.4c0.5,0.5,0.9,1.4,2.1,2.6c0.7,0.9,1.7,1.4,2.6,1.4h1.4V890.9z M840.4,889.1
		c0-0.7-0.2-1.4-0.7-2.4c-0.5-0.9-1.2-1.4-2.1-1.4c-0.7,0-1.7,0.7-2.6,1.9c0.2,0.2,0.9,0.7,2.1,1.4c1.2,0.7,2.1,0.9,2.8,0.9
		C840.2,889.3,840.4,889.3,840.4,889.1z" class="area" title=""></path>
	<path id="PATH_131" d="M865.5,886c0,1.4-0.2,2.6-0.9,3.5c-0.7,0.9-1.9,1.7-3.1,1.7c-1.7,0-2.6-0.7-3.3-1.9
		c-0.9,1.4-1.9,1.9-3.3,1.9c-1.7,0-2.8-0.7-3.5-1.9c-0.9,1.4-2.1,1.9-3.8,1.9h-1.7v-2.8h1.9c1.7,0,2.8-0.9,3.1-2.8
		c0-0.5,0.2-0.7,0.5-0.7s0.2,0.2,0.5,0.7c0.2,1.9,1.2,2.8,3.1,2.8c0.9,0,1.9-0.2,2.4-0.7c0.2-0.5,0.5-0.9,0.7-1.9
		c0-0.5,0.2-0.7,0.5-0.7s0.2,0.2,0.5,0.7c0.2,1.9,1.2,2.8,2.8,2.8c1.9,0,2.6-0.5,2.6-1.2c0-0.7-0.5-1.7-1.4-2.6l1.2-2.1
		c0.2-0.2,0.2-0.5,0.5-0.5c0.2,0,0.2,0.2,0.5,0.5C865,883.6,865.5,884.8,865.5,886z" class="area" title=""></path>
</g>
<g id="G_132" class="area" title="">
	<path id="PATH_133" d="M998.8,869.7h-1.7c-1.7,0-3.1-0.7-3.5-2.1c-0.5-0.9-0.7-2.6-0.7-4.5v-4.5c0-2.1-0.2-5.2-0.5-9.2l1.4-1.7
		c0.2-0.2,0.5-0.2,0.5,0c0.2,2.1,0.5,5.2,0.5,9.2v6.9c0,1.9,0.9,2.8,2.8,2.8h1.2L998.8,869.7L998.8,869.7z" class="area" title=""></path>
	<path id="PATH_134" d="M1019.3,863.3c0,2.4-1.4,4-4.3,5.2c-1.9,0.7-4.3,1.2-7.1,1.2c-1.7,0-2.8,0-3.5-0.2c-1.2-0.2-1.9-0.9-2.4-1.9
		c-0.9,1.4-2.1,2.1-3.5,2.1h-0.7v-2.8h0.9c1.9,0,2.8-0.9,3.1-2.6c0-0.5,0.2-0.7,0.5-0.7s0.5,0.2,0.5,0.7c0.2,1.7,0.9,2.6,2.4,2.6
		c4.5-4.7,7.8-7.1,10.4-7.1c1.2,0,2.1,0.2,2.8,0.9C1018.8,861.4,1019.3,862.3,1019.3,863.3z M1017.7,864.7c0-0.7-0.5-1.2-1.2-1.9
		c-0.7-0.5-1.4-0.7-2.1-0.7c-2.1,0-4.7,1.4-7.6,4.5c0.7,0,1.4,0,2.1,0c1.7,0,3.3-0.2,5-0.5C1016.2,866.1,1017.7,865.7,1017.7,864.7z
		 M1013.9,853.1l-1.9,1.9l-1.9-1.9l1.9-1.9L1013.9,853.1z" class="area" title=""></path>
	<path id="PATH_135" d="M1031.1,869.9c0,2.4-0.7,4.5-2.1,6.6c-1.2,1.7-2.4,2.6-3.1,2.6c-1.9,0-3.3,0-4.7-0.2c-0.5,0-0.7-0.2-0.7-0.2
		s0.2-0.2,0.7-0.2c1.9-0.5,3.8-1.4,5.7-2.8c1.9-1.7,3.1-3.3,3.1-5c0-0.9-0.7-2.4-2.4-4l1.2-2.1c0-0.2,0.2-0.2,0.2-0.2l0.2,0.2
		c0.5,0.7,1.2,1.7,1.4,2.8C1030.9,868,1031.1,869,1031.1,869.9z" class="area" title=""></path>
	<path id="PATH_136" d="M1046,869.7h-0.9c-0.9,0-1.4-0.2-1.9-0.5c0,0.2,0,0.5,0,0.7c0,2.1-0.7,4.3-2.1,6.4c-1.2,1.9-2.4,2.6-3.1,2.6
		c-1.9,0-3.3,0-4.7-0.2c-0.5,0-0.7-0.2-0.7-0.2s0.2-0.2,0.7-0.2c1.9-0.5,3.8-1.4,5.7-2.8c1.9-1.7,3.1-3.3,3.1-5c0-0.9-0.7-2.4-2.4-4
		l1.2-2.1c0-0.2,0.2-0.2,0.2-0.2l0.2,0.2c0.7,0.9,1.2,1.7,1.7,1.9c0.7,0.5,1.7,0.9,2.6,0.9h0.7v2.6H1046z" class="area" title=""></path>
	<path id="PATH_137" d="M1060.7,869.7h-1.2c-0.9,0-1.9,0.2-2.6,0.5c-1.2,0.5-1.9,1.2-1.9,2.4c0,1.4,0.9,2.6,2.8,3.8l-1.2,2.4
		c-2.1-0.7-4-1.9-5.4-3.3c-1.9-1.7-2.8-3.8-2.8-5.9h-3.3v-2.8h3.1c0-1.9,0.5-3.8,1.4-6.1c0.9-2.1,1.7-3.1,2.1-3.1
		c0.5,0,1.2,0.9,1.9,3.1c0.7,1.9,0.9,3.1,0.9,3.8c0,3.3-1.7,5-5,5c0.2,0.9,0.7,1.9,1.4,2.8c0.7,0.9,1.7,1.7,2.6,2.1
		c0-0.2,0-0.7,0-0.9c0-1.7,0.5-3.1,1.2-4.3c1.2-1.7,2.6-2.6,4.7-2.6h0.9v3.3H1060.7z M1053.6,865.9c0-0.5-0.2-1.4-0.7-2.6
		c-0.5-1.4-0.9-1.9-1.4-1.9c-0.2,0-0.7,0.5-1.2,1.7s-0.7,2.6-0.7,4C1052.2,866.8,1053.6,866.6,1053.6,865.9z" class="area" title=""></path>
	<path id="PATH_138" d="M1079.3,864.7c0,1.4-0.2,2.6-0.9,3.5c-0.7,0.9-1.9,1.7-3.1,1.7c-1.7,0-2.6-0.7-3.3-1.9
		c-0.9,1.4-1.9,1.9-3.3,1.9c-1.7,0-2.8-0.7-3.5-1.9c-0.9,1.4-2.1,1.9-3.8,1.9h-1.7v-2.8h1.9c1.7,0,2.8-0.9,3.1-2.8
		c0-0.5,0.2-0.7,0.5-0.7c0.2,0,0.2,0.2,0.5,0.7c0.2,1.9,1.2,2.8,3.1,2.8c0.9,0,1.9-0.2,2.4-0.7c0.2-0.5,0.5-0.9,0.7-1.9
		c0-0.5,0.2-0.7,0.5-0.7s0.2,0.2,0.5,0.7c0.2,1.9,1.2,2.8,2.8,2.8c1.9,0,2.6-0.5,2.6-1.2s-0.5-1.7-1.4-2.6l1.2-2.1
		c0.2-0.2,0.2-0.5,0.5-0.5s0.2,0.2,0.5,0.5C1078.9,862.3,1079.3,863.5,1079.3,864.7z M1071.3,856l-1.7,1.7l-1.7-1.7l1.7-1.7
		L1071.3,856z M1073.4,852.4l-1.7,1.7l-1.7-1.7l1.7-1.7L1073.4,852.4z M1075.6,856l-1.7,1.7l-1.7-1.7l1.7-1.7L1075.6,856z" class="area" title=""></path>
</g>
<g id="G_139" class="area" title="">
	<path id="PATH_140" d="M1022.2,692.7c0.2,0.7,0.2,1.4,0.2,2.1c0,0.9-0.2,1.7-0.5,2.6c-0.7,1.7-1.9,3.1-4.3,4
		c-1.9,0.7-3.8,1.2-5.9,1.2c-2.1,0-3.8-0.5-5.2-1.4c-1.4-1.2-2.1-2.6-2.1-4.7c0-1.2,0.2-2.1,0.7-3.5c0.5-0.9,0.7-1.7,1.2-2.1
		c0.2-0.2,0.5-0.2,0.5-0.2c0.2,0,0.2,0,0.2,0.2c0,0,0,0.2,0,0.5c-0.7,1.4-0.9,2.8-0.9,4s0.5,2.1,1.2,3.1c0.9,1.2,2.6,1.7,4.7,1.7
		c2.4,0,4.5-0.5,6.1-1.2c1.4-0.7,2.4-1.4,2.8-2.4c0.2-0.2,0.2-0.7,0.2-0.9c0-0.7-0.2-1.4-0.5-2.4c-0.2-0.7-0.9-1.9-2.1-3.8l0.9-1.9
		c0.2-0.2,0.2-0.5,0.2-0.5s0.2,0,0.2,0.2C1021,689.1,1021.7,690.8,1022.2,692.7z M1015.1,682.5l-1.9,1.9l-1.9-1.9l1.9-1.9
		L1015.1,682.5z" class="area" title=""></path>
	<path id="PATH_141" d="M1031.6,693.1h-1.7c-1.7,0-3.1-0.7-3.5-2.1c-0.5-0.9-0.7-2.6-0.7-4.5V682c0-2.1-0.2-5.2-0.5-9.2l1.4-1.7
		c0.2-0.2,0.5-0.2,0.5,0c0.2,2.1,0.5,5.2,0.5,9.2v6.9c0,1.9,0.9,2.8,2.8,2.8h1.2L1031.6,693.1L1031.6,693.1z" class="area" title=""></path>
	<path id="PATH_142" d="M1046.3,693.1h-1.2c-0.9,0-1.9,0.2-2.6,0.5c-1.2,0.5-1.9,1.2-1.9,2.4c0,1.4,0.9,2.6,2.8,3.8l-1.2,2.4
		c-2.1-0.7-4-1.9-5.4-3.3c-1.9-1.7-2.8-3.8-2.8-5.9h-3.3v-2.8h3.1c0-1.9,0.5-3.8,1.4-6.1c0.9-2.1,1.7-3.1,2.1-3.1s1.2,0.9,1.9,3.1
		c0.7,1.9,0.9,3.1,0.9,3.8c0,3.3-1.7,5-5,5c0.2,0.9,0.7,1.9,1.4,2.8c0.7,0.9,1.7,1.7,2.6,2.1c0-0.2,0-0.7,0-0.9
		c0-1.7,0.5-3.1,1.2-4.3c1.2-1.7,2.6-2.6,4.7-2.6h0.9v3.3H1046.3z M1039.2,689.4c0-0.5-0.2-1.4-0.7-2.6c-0.5-1.4-0.9-1.9-1.4-1.9
		c-0.2,0-0.7,0.5-1.2,1.7s-0.7,2.6-0.7,4C1037.8,690.3,1039.2,690.1,1039.2,689.4z" class="area" title=""></path>
	<path id="PATH_143" d="M1059,693.1h-1.2c-0.7,0-1.7-0.2-2.8-0.5c-1.2-0.2-2.1-0.7-2.6-1.2c-0.5,0.5-1.2,0.7-2.1,0.9
		c-1.2,0.5-2.4,0.5-3.5,0.5h-1.7v-2.8h1.2c1.9,0,3.1-0.2,3.5-0.5c-0.5-0.2-0.7-0.7-0.9-1.2c-0.2-0.5-0.5-0.9-0.5-1.4
		c0-0.9,0.5-2.1,1.2-3.5c0.9-1.4,1.9-2.4,3.1-2.4c1.2,0,1.9,0.7,2.6,1.9c0.5,0.9,0.7,2.1,0.7,3.3c0,0.7-0.2,1.7-0.7,2.1
		c-0.2,0.5-0.5,0.7-0.9,0.9c0.5,0.2,1.7,0.5,3.3,0.5h0.9v3.3H1059z M1055,687c0-0.5-0.2-1.2-0.7-1.7c-0.5-0.7-0.9-0.9-1.7-0.9
		c-0.5,0-1.2,0.2-1.7,0.7c-0.5,0.5-0.9,1.2-0.9,1.7s0.2,1.2,0.9,1.7c0.5,0.5,1.2,0.7,1.7,0.9c0.5,0,1.2-0.2,1.4-0.7
		C1054.8,687.9,1055,687.5,1055,687z M1054.3,675.4l-1.9,1.9l-1.9-1.9l1.9-1.9L1054.3,675.4z" class="area" title=""></path>
	<path id="PATH_144" d="M1079.6,686.8c0,2.4-1.4,4-4.3,5.2c-1.9,0.7-4.3,1.2-7.1,1.2c-1.7,0-2.8,0-3.5-0.2c-1.2-0.2-1.9-0.9-2.4-1.9
		c-0.9,1.4-2.1,2.1-3.5,2.1h-0.9v-2.8h0.9c1.9,0,2.8-0.9,3.1-2.6c0-0.5,0.2-0.7,0.5-0.7s0.5,0.2,0.5,0.7c0.2,1.7,0.9,2.6,2.4,2.6
		c4.5-4.7,7.8-7.1,10.4-7.1c1.2,0,2.1,0.2,2.8,0.9C1079.3,684.9,1079.6,685.8,1079.6,686.8z M1077.9,688.2c0-0.7-0.5-1.2-1.2-1.9
		c-0.7-0.5-1.4-0.7-2.1-0.7c-2.1,0-4.7,1.4-7.6,4.5c0.7,0,1.4,0,2.1,0c1.7,0,3.3-0.2,5-0.5C1076.7,689.6,1077.9,688.9,1077.9,688.2z
		" class="area" title=""></path>
	<path id="PATH_145" d="M1085.3,690.3c0,0.9-0.2,1.9-0.7,2.6c-0.2,0.5-0.5,0.7-0.5,0.7s-0.2-0.2-0.2-0.9c0-2.8-0.5-9.5-1.4-20.1
		l1.9-1.9c0.2-0.2,0.2-0.2,0.2-0.2s0,0.2,0,0.5C1085.3,674,1085.3,680.4,1085.3,690.3z" class="area" title=""></path>
</g>
<g id="G_146" class="area" title="">
	<path id="PATH_147" d="M1253.5,712.5c0.2,0.7,0.2,1.4,0.2,2.1c0,0.9-0.2,1.7-0.5,2.6c-0.7,1.7-1.9,3.1-4.3,4
		c-1.9,0.7-3.8,1.2-5.9,1.2c-2.1,0-3.8-0.5-5.2-1.4c-1.4-1.2-2.1-2.6-2.1-4.7c0-1.2,0.2-2.1,0.7-3.5c0.5-0.9,0.7-1.7,1.2-2.1
		c0.2-0.2,0.5-0.2,0.5-0.2c0.2,0,0.2,0,0.2,0.2c0,0,0,0.2,0,0.5c-0.7,1.4-0.9,2.8-0.9,4c0,1.2,0.5,2.1,1.2,3.1
		c0.9,1.2,2.6,1.7,4.7,1.7c2.4,0,4.5-0.5,6.1-1.2c1.4-0.7,2.4-1.4,2.8-2.4c0.2-0.2,0.2-0.7,0.2-0.9c0-0.7-0.2-1.4-0.5-2.4
		c-0.2-0.7-0.9-1.9-2.1-3.8l0.9-1.9c0.2-0.2,0.2-0.5,0.2-0.5s0.2,0,0.2,0.2C1252.3,709,1253,710.6,1253.5,712.5z M1246.4,702.4
		l-1.9,1.9l-1.9-1.9l1.9-1.9L1246.4,702.4z" class="area" title=""></path>
	<path id="PATH_148" d="M1263,713h-1.7c-1.7,0-3.1-0.7-3.5-2.1c-0.5-0.9-0.7-2.6-0.7-4.5v-4.5c0-2.1-0.2-5.2-0.5-9.2l1.4-1.7
		c0.2-0.2,0.5-0.2,0.5,0c0.2,2.1,0.5,5.2,0.5,9.2v6.9c0,1.9,0.9,2.8,2.8,2.8h1.2L1263,713L1263,713z" class="area" title=""></path>
	<path id="PATH_149" d="M1281.4,706.1l-0.9,1.9c-1.7,0-3.1,0-3.8,0.2c-0.9,0.5-2.4,0.9-4.3,1.9c-1.9,0.9-3.3,1.7-4.3,1.9
		c-1.4,0.5-3.1,0.7-4.5,0.7h-1.7v-2.8h1.9c2.1,0,4-0.5,5.7-1.2l5.4-2.4c-0.9-0.2-2.4-0.7-4.3-1.4c-1.7-0.7-2.6-0.9-3.1-0.9
		c-0.9,0-1.9,0.5-2.8,1.2c-0.2,0.2-0.2,0.2-0.5,0.2s-0.2,0-0.2-0.2V705c0.7-2.4,2.1-3.3,4-3.3c0.7,0,1.7,0.2,2.6,0.7
		c1.9,0.9,3.3,1.4,4.3,1.9c1.7,0.5,3.5,0.9,5.7,0.9c0.5,0,0.7,0,0.7,0.2C1281.6,705.7,1281.6,705.7,1281.4,706.1z M1273.6,717.7
		l-1.9,1.9l-1.9-1.9l1.9-1.9L1273.6,717.7z" class="area" title=""></path>
	<path id="PATH_150" d="M1293.7,713.2c0,2.4-0.7,4.5-2.1,6.6c-1.2,1.7-2.4,2.6-3.1,2.6c-1.9,0-3.3,0-4.7-0.2c-0.5,0-0.7-0.2-0.7-0.2
		s0.2-0.2,0.7-0.2c1.9-0.5,3.8-1.4,5.7-2.8c1.9-1.7,3.1-3.3,3.1-5c0-0.9-0.7-2.4-2.4-4l1.2-2.1c0-0.2,0.2-0.2,0.2-0.2l0.2,0.2
		c0.5,0.7,1.2,1.7,1.4,2.8C1293.5,711.3,1293.7,712.3,1293.7,713.2z" class="area" title=""></path>
	<path id="PATH_151" d="M1305.7,712c0,3.5-1.2,6.6-3.5,9c-0.7,0.7-1.2,1.2-1.4,1.2c-1.4,0-2.8-0.2-4.5-0.5c-0.7,0-0.9-0.2-0.9-0.2
		s0.2-0.2,0.9-0.5c1.9-0.5,3.8-1.7,5.4-3.1c0.7-0.7,1.4-1.2,1.9-2.1c0.7-0.9,1.2-1.9,1.2-2.6v-0.7h-3.1c-2.1,0-3.3-0.9-3.3-2.6
		c0-1.2,0.2-2.4,0.9-3.8c0.7-1.4,1.7-2.4,2.6-2.4c1.4,0,2.6,0.9,3.3,3.1C1305.5,708.5,1305.7,710.2,1305.7,712z M1304.1,709.9
		c0-0.7-0.2-1.4-0.7-2.1c-0.5-0.7-1.2-1.2-1.9-1.2c-0.5,0-0.9,0.2-1.2,0.5s-0.5,0.7-0.5,1.2c0,1.2,0.7,1.7,2.4,1.7
		C1302.4,710.2,1303.1,710.2,1304.1,709.9z" class="area" title=""></path>
	<path id="PATH_152" d="M1328,713h-1.4c-2.8,0-4.5-2.1-4.5-6.4c0-0.5,0-1.2,0-2.1c-1.9,4.5-4,7.8-6.9,9.7c-1.7,0.5-3.8,0.7-6.1,0.7
		c-0.5,0-0.7,0-0.7,0s0.7-0.5,2.1-1.2c0.9-0.5,1.9-0.9,2.8-1.4c1.7-0.7,3.3-1.9,4.7-3.5c-0.7-2.4-1.7-4.5-3.1-6.4
		c-0.9-1.2-2.4-2.6-4.5-4.3l-0.2,0.9c-0.7-0.5-1.2-0.9-1.7-1.4c-0.7-0.7-1.2-1.2-1.2-1.7s0-1.2,0.2-2.4c0-0.2,0-0.5,0.2-0.5
		s0.2,0,0.5,0.2c3.1,2.1,5.4,4.3,6.9,6.1c1.9,2.4,3.1,5,3.8,8c0.9-1.2,1.7-2.4,2.1-3.8c0.7-1.7,0.9-3.1,0.9-4.3
		c0-2.1-0.2-4.5-0.5-7.1l1.9-1.7c0.2,1.2,0.2,6.6,0.5,16.3c0,2.1,0.9,3.3,2.8,3.3h1.2V713L1328,713z" class="area" title=""></path>
	<path id="PATH_153" d="M1337.2,706.1v0.9c0,1.7-0.2,2.6-0.7,3.3c-1.2,1.7-3.1,2.4-6.1,2.4h-3.3v-2.8h2.4c4,0,6.1-0.7,6.6-1.9
		c0-0.2,0-0.2,0-0.5c0-0.5,0-0.7-0.2-0.9c-0.9,0.2-2.1,0.2-3.1,0.2c-2.1,0-3.3-0.9-3.3-2.8c0-1.2,0.2-2.6,0.9-3.8
		c0.7-1.4,1.7-2.1,2.8-2.1c0.9,0,1.9,0.7,2.6,1.9C1336.7,701.9,1337.2,703.8,1337.2,706.1z M1334.3,693.1l-1.9,1.9l-1.9-1.9l1.9-1.9
		L1334.3,693.1z M1335.3,704.2c0-0.7-0.2-1.4-0.7-2.1c-0.5-0.7-1.2-0.9-1.9-0.9c-0.5,0-0.9,0.2-1.4,0.5c-0.5,0.2-0.5,0.7-0.5,1.2
		c0,0.9,0.7,1.4,2.4,1.4C1333.6,704.5,1334.6,704.5,1335.3,704.2z" class="area" title=""></path>
</g>
<g id="G_154" class="area" title="">
	<path id="PATH_155" d="M1269.3,649.9h-0.9c-0.9,0-1.4-0.2-1.9-0.5c0,0.2,0,0.5,0,0.7c0,2.1-0.7,4.3-2.1,6.4
		c-1.2,1.9-2.4,2.6-3.1,2.6c-1.9,0-3.3,0-4.7-0.2c-0.5,0-0.7-0.2-0.7-0.2s0.2-0.2,0.7-0.2c1.9-0.5,3.8-1.4,5.7-2.8
		c1.9-1.7,3.1-3.3,3.1-5c0-0.9-0.7-2.4-2.4-4l1.2-2.1c0-0.2,0.2-0.2,0.2-0.2l0.2,0.2c0.7,0.9,1.2,1.7,1.7,1.9
		c0.7,0.5,1.7,0.9,2.6,0.9h0.7v2.6H1269.3z" class="area" title=""></path>
	<path id="PATH_156" d="M1284,649.9h-1.2c-0.9,0-1.9,0.2-2.6,0.5c-1.2,0.5-1.9,1.2-1.9,2.4c0,1.4,0.9,2.6,2.8,3.8l-1.2,2.4
		c-2.1-0.7-4-1.9-5.4-3.3c-1.9-1.7-2.8-3.8-2.8-5.9h-3.3v-2.8h3.1c0-1.9,0.5-3.8,1.4-6.1c0.9-2.1,1.7-3.1,2.1-3.1s1.2,0.9,1.9,3.1
		c0.7,1.9,0.9,3.1,0.9,3.8c0,3.3-1.7,5-5,5c0.2,0.9,0.7,1.9,1.4,2.8c0.7,0.9,1.7,1.7,2.6,2.1c0-0.2,0-0.7,0-0.9
		c0-1.7,0.5-3.1,1.2-4.3c1.2-1.7,2.6-2.6,4.7-2.6h0.9v3.3H1284z M1276.7,646.1c0-0.5-0.2-1.4-0.7-2.6c-0.5-1.4-0.9-1.9-1.4-1.9
		c-0.2,0-0.7,0.5-1.2,1.7s-0.7,2.6-0.7,4C1275.5,647.1,1276.7,646.8,1276.7,646.1z" class="area" title=""></path>
	<path id="PATH_157" d="M1302.7,644.9c0,1.4-0.2,2.6-0.9,3.5c-0.7,0.9-1.9,1.7-3.1,1.7c-1.7,0-2.6-0.7-3.3-1.9
		c-0.9,1.4-1.9,1.9-3.3,1.9c-1.7,0-2.8-0.7-3.5-1.9c-0.9,1.4-2.1,1.9-3.8,1.9h-1.7v-2.8h1.9c1.7,0,2.8-0.9,3.1-2.8
		c0-0.5,0.2-0.7,0.5-0.7s0.2,0.2,0.5,0.7c0.2,1.9,1.2,2.8,3.1,2.8c0.9,0,1.9-0.2,2.4-0.7c0.2-0.5,0.5-0.9,0.7-1.9
		c0-0.5,0.2-0.7,0.5-0.7s0.2,0.2,0.5,0.7c0.2,1.9,1.2,2.8,2.8,2.8c1.9,0,2.6-0.5,2.6-1.2s-0.5-1.7-1.4-2.6l1.2-2.1
		c0.2-0.2,0.2-0.5,0.5-0.5s0.2,0.2,0.5,0.5C1302.2,642.6,1302.7,643.7,1302.7,644.9z M1294.6,636.2l-1.7,1.7l-1.7-1.7l1.7-1.7
		L1294.6,636.2z M1296.8,632.4l-1.7,1.7l-1.7-1.7l1.7-1.7L1296.8,632.4z M1298.9,636.2l-1.7,1.7l-1.7-1.7l1.7-1.7L1298.9,636.2z" class="area" title=""></path>
	<path id="PATH_158" d="M1336,649.9h-5.4c-0.7,0-1.4,0-1.9,0.2c-0.9,0.2-1.2,0.7-1.2,1.2c0,0.2,1.2,0.5,3.3,0.9
		c2.1,0.5,3.3,0.9,3.3,1.4c0,1.9-0.5,3.3-1.7,4.3c-1.9,1.7-5,2.4-9.5,2.4c-5.4,0-8.3-2.1-8.3-6.1c0-0.9,0.2-1.9,0.7-3.1
		c0.5-1.2,0.9-2.1,1.4-2.8c0.2-0.2,0.5-0.5,0.7-0.5c0.2,0,0.2,0,0.2,0.2c0,0.2,0,0.5-0.2,0.7c-0.7,1.4-1.2,2.8-1.2,4.3
		c0,1.7,0.7,2.8,2.4,3.5c1.2,0.7,2.6,0.9,4.5,0.9c1.9,0,3.5,0,5.2-0.2c2.8-0.5,4.3-0.9,4.3-1.9c0-0.5-0.7-0.7-1.9-0.9
		c-1.9-0.2-3.1-0.5-3.5-0.7c-1.2-0.2-1.9-0.9-1.9-1.7c0-0.5,0.2-1.2,0.9-2.1c0.5-0.7,0.9-1.2,1.7-1.7c1.2-0.9,2.6-1.4,4.7-1.4h3.3
		V649.9z" class="area" title=""></path>
	<path id="PATH_159" d="M1347.6,649.9h-1.9c-2.1,0-3.5-0.7-4.5-2.1c-0.7,1.4-2.4,2.1-5,2.1h-1.4v-2.8h2.1c2.4,0,3.5-0.9,3.8-2.6
		c0-0.7,0.2-1.2,0.5-1.2s0.5,0.5,0.5,1.2c0.2,1.7,1.4,2.6,3.5,2.6h2.1v2.8H1347.6z M1342.8,637.6l-1.9,1.9l-1.9-1.9l1.9-1.9
		L1342.8,637.6z" class="area" title=""></path>
	<path id="PATH_160" d="M1359.2,649.9h-1.9c-2.1,0-3.5-0.7-4.5-2.1c-0.7,1.4-2.4,2.1-5,2.1h-1.4v-2.8h2.1c2.4,0,3.5-0.9,3.8-2.6
		c0-0.7,0.2-1.2,0.5-1.2c0.2,0,0.5,0.5,0.5,1.2c0.2,1.7,1.4,2.6,3.5,2.6h2.1v2.8H1359.2z M1351.4,655.1l-1.9,1.9l-1.9-1.9l1.9-1.9
		L1351.4,655.1z M1355.6,655.1l-1.9,1.9l-1.9-1.9l1.9-1.9L1355.6,655.1z" class="area" title=""></path>
	<path id="PATH_161" d="M1376.2,649.9h-1.4c-1.2,0-2.4-0.7-3.3-1.9c-0.7,1.9-1.4,2.8-2.1,2.8c-0.7,0-1.9-0.5-3.3-1.2
		c-1.2-0.7-2.1-1.4-2.6-1.9c-1.2,1.4-2.4,2.1-3.5,2.1h-1.4v-2.8h1.4c1.2,0,2.1-0.5,3.1-1.4c0.7-0.7,1.4-1.7,2.4-2.6
		c0.9-0.9,1.7-1.4,2.4-1.4c0.9,0,1.7,0.5,2.4,1.4c0.5,0.5,0.9,1.4,2.1,2.6c0.7,0.9,1.7,1.4,2.6,1.4h1.4L1376.2,649.9L1376.2,649.9z
		 M1369.8,648c0-0.7-0.2-1.4-0.7-2.4c-0.5-0.9-1.2-1.4-2.1-1.4c-0.7,0-1.7,0.7-2.6,1.9c0.2,0.2,0.9,0.7,2.1,1.4s2.1,0.9,2.8,0.9
		C1369.5,648.2,1369.8,648.2,1369.8,648z" class="area" title=""></path>
	<path id="PATH_162" d="M1394.6,643l-0.9,1.9c-1.7,0-3.1,0-3.8,0.2c-0.9,0.5-2.4,0.9-4.3,1.9c-1.9,0.9-3.3,1.7-4.3,1.9
		c-1.4,0.5-3.1,0.7-4.5,0.7h-1.7v-2.8h1.9c2.1,0,4-0.5,5.7-1.2l5.4-2.4c-0.9-0.2-2.4-0.7-4.3-1.4c-1.7-0.7-2.6-0.9-3.1-0.9
		c-0.9,0-1.9,0.5-2.8,1.2c-0.2,0.2-0.2,0.2-0.5,0.2c-0.2,0-0.2,0-0.2-0.2v-0.2c0.7-2.4,2.1-3.3,4-3.3c0.7,0,1.7,0.2,2.6,0.7
		c1.9,0.9,3.3,1.4,4.3,1.9c1.7,0.5,3.5,0.9,5.7,0.9c0.5,0,0.7,0,0.7,0.2C1394.8,642.6,1394.8,642.8,1394.6,643z M1388,632.2
		l-1.9,1.9l-1.9-1.9l1.9-1.9L1388,632.2z" class="area" title=""></path>
</g>
<g id="G_163" class="area" title="">
	<path id="PATH_164" d="M1316.8,297.1h-1.2c-1.2,0-1.9,0-2.4-0.2c0,0.7,0.2,1.2,0.2,1.9c0,1.2-0.2,1.9-0.5,2.6
		c-0.7,1.7-1.9,3.1-4.3,4c-1.9,0.7-3.8,1.2-5.9,1.2c-2.1,0-3.8-0.5-5.2-1.4c-1.4-1.2-2.1-2.6-2.1-4.7c0-1.2,0.2-2.1,0.7-3.5
		c0.5-0.9,0.7-1.7,1.2-2.1c0.2-0.2,0.5-0.2,0.5-0.2c0.2,0,0.2,0,0.2,0.2c0,0,0,0.2,0,0.5c-0.7,1.4-0.9,2.8-0.9,4
		c0,1.2,0.5,2.1,1.2,3.1c0.9,1.2,2.6,1.7,4.7,1.7c2.4,0,4.5-0.5,6.1-1.2c1.4-0.7,2.4-1.4,2.8-2.4c0.2-0.2,0.2-0.7,0-1.7
		c0-0.7-0.2-1.4-0.2-1.7c-0.2-0.7-1.2-1.9-2.4-3.5l0.9-1.9c0.2-0.2,0.2-0.5,0.2-0.5s0.2,0,0.2,0.2c1.2,1.9,2.4,2.8,3.8,2.8h1.9v2.8
		H1316.8z M1306.5,286.4l-1.9,1.9l-1.9-1.9l1.9-1.9L1306.5,286.4z" class="area" title=""></path>
	<path id="PATH_165" d="M1328.7,297.1h-1.9c-2.1,0-3.5-0.7-4.5-2.1c-0.7,1.4-2.4,2.1-5,2.1h-1.4v-2.8h2.1c2.4,0,3.5-0.9,3.8-2.6
		c0-0.7,0.2-1.2,0.5-1.2s0.5,0.5,0.5,1.2c0.2,1.7,1.4,2.6,3.5,2.6h2.1v2.8H1328.7z M1320.9,302.3l-1.9,1.9l-1.9-1.9l1.9-1.9
		L1320.9,302.3z M1324.9,302.3l-1.9,1.9l-1.9-1.9l1.9-1.9L1324.9,302.3z" class="area" title=""></path>
	<path id="PATH_166" d="M1334.3,292.3c0,3.1-1.7,4.7-4.7,4.7h-1.9v-2.8h1.7c2.4,0,3.5-0.5,3.5-1.2c0-0.7-0.5-1.7-1.7-2.8l0.9-2.4
		c0-0.2,0.2-0.2,0.2-0.2s0.2,0.2,0.5,0.5C1333.9,289.3,1334.3,290.7,1334.3,292.3z M1332.4,302.3l-1.9,1.9l-1.9-1.9l1.9-1.9
		L1332.4,302.3z M1336.5,302.3l-1.9,1.9l-1.9-1.9l1.9-1.9L1336.5,302.3z" class="area" title=""></path>
	<path id="PATH_167" d="M1345.9,297.1h-1.7c-1.7,0-3.1-0.7-3.5-2.1c-0.5-0.9-0.7-2.6-0.7-4.5V286c0-2.1-0.2-5.2-0.5-9.2l1.4-1.7
		c0.2-0.2,0.5-0.2,0.5,0c0.2,2.1,0.5,5.2,0.5,9.2v6.9c0,1.9,0.9,2.8,2.8,2.8h1.2L1345.9,297.1L1345.9,297.1z" class="area" title=""></path>
	<path id="PATH_168" d="M1351.6,292.3c0,3.1-1.7,4.7-4.7,4.7h-1.9v-2.8h1.7c2.4,0,3.5-0.5,3.5-1.2c0-0.7-0.5-1.7-1.7-2.8l0.9-2.4
		c0-0.2,0.2-0.2,0.2-0.2s0.2,0.2,0.5,0.5C1351.1,289.3,1351.6,290.7,1351.6,292.3z M1351.4,281.5l-1.9,1.9l-1.9-1.9l1.9-1.9
		L1351.4,281.5z" class="area" title=""></path>
</g>
<g id="G_169" class="area" title="">
	<path id="PATH_170" d="M1556.7,192.1h-1.7c-1.2,0-2.4-0.7-3.8-1.9c-0.7-0.7-1.7-1.9-2.8-3.5c0,1.7-0.2,2.8-0.9,3.5
		c-1.2,1.4-3.5,2.1-7.1,2.1h-4.7c-5.7,0-8.7-1.7-8.7-5c0-1.2,0.5-2.4,1.2-3.5c0.2-0.2,0.5-0.5,0.5-0.5c0.2,0,0.2,0,0.2,0.2
		c0,0.2,0,0.2,0,0.5c-0.2,0.9-0.5,1.4-0.5,2.1c0,0.9,0.5,1.7,1.2,2.1c1.2,0.9,3.1,1.4,5.7,1.4h4.7c2.6,0,4.5-0.2,5.4-0.5
		c1.2-0.5,1.7-1.2,1.7-2.1s-0.5-2.1-1.7-3.5c-0.7-0.7-1.7-1.9-3.1-3.1c-1.2-0.9-1.7-1.7-1.7-1.7c0-1.7,0.2-2.6,0.7-3.3
		c0-0.2,1.7-0.7,5-1.9c3.3-1.2,6.1-2.1,8.3-2.8c0,0.2-0.2,1.2-0.7,2.6c-2.6,0.7-6.4,2.1-11.6,4c2.4,2.1,5,5.2,8,9.2
		c1.2,1.4,2.1,2.4,2.8,2.8c0.5,0.2,1.4,0.5,2.4,0.5h0.9v2.1H1556.7z" class="area" title=""></path>
	<path id="PATH_171" d="M1562.4,187.4c0,3.1-1.7,4.7-4.7,4.7h-1.9v-2.8h1.7c2.4,0,3.5-0.5,3.5-1.2c0-0.7-0.5-1.7-1.7-2.8l0.9-2.4
		c0-0.2,0.2-0.2,0.2-0.2s0.2,0.2,0.5,0.5C1561.9,184.6,1562.4,186,1562.4,187.4z M1562.2,176.8l-1.9,1.9l-1.9-1.9l1.9-1.9
		L1562.2,176.8z" class="area" title=""></path>
	<path id="PATH_172" d="M1571.8,192.1h-1.7c-1.7,0-3.1-0.7-3.5-2.1c-0.5-0.9-0.7-2.6-0.7-4.5V181c0-2.1-0.2-5.2-0.5-9.2l1.4-1.7
		c0.2-0.2,0.5-0.2,0.5,0c0.2,2.1,0.5,5.2,0.5,9.2v6.9c0,1.9,0.9,2.8,2.8,2.8h1.2V192.1z" class="area" title=""></path>
	<path id="PATH_173" d="M1577.5,187.4c0,3.1-1.7,4.7-4.7,4.7h-1.9v-2.8h1.7c2.4,0,3.5-0.5,3.5-1.2c0-0.7-0.5-1.7-1.7-2.8l0.9-2.4
		c0-0.2,0.2-0.2,0.2-0.2s0.2,0.2,0.5,0.5C1577,184.6,1577.5,186,1577.5,187.4z M1576.6,197.3l-1.9,1.9l-1.9-1.9l1.9-1.9
		L1576.6,197.3z" class="area" title=""></path>
	<path id="PATH_174" d="M1586.7,192.1h-1.7c-1.7,0-3.1-0.7-3.5-2.1c-0.5-0.9-0.7-2.6-0.7-4.5V181c0-2.1-0.2-5.2-0.5-9.2l1.4-1.7
		c0.2-0.2,0.5-0.2,0.5,0c0.2,2.1,0.5,5.2,0.5,9.2v6.9c0,1.9,0.9,2.8,2.8,2.8h1.2V192.1z" class="area" title=""></path>
	<path id="PATH_175" d="M1598.3,192.1h-1.9c-2.1,0-3.5-0.7-4.5-2.1c-0.7,1.4-2.4,2.1-5,2.1h-1.4v-2.8h2.1c2.4,0,3.5-0.9,3.8-2.6
		c0-0.7,0.2-1.2,0.5-1.2s0.5,0.5,0.5,1.2c0.2,1.7,1.4,2.6,3.5,2.6h2.1v2.8H1598.3z M1590.5,197.3l-1.9,1.9l-1.9-1.9l1.9-1.9
		L1590.5,197.3z M1594.8,197.3l-1.9,1.9l-1.9-1.9l1.9-1.9L1594.8,197.3z" class="area" title=""></path>
	<path id="PATH_176" d="M1604,187.4c0,3.1-1.7,4.7-4.7,4.7h-1.9v-2.8h1.7c2.4,0,3.5-0.5,3.5-1.2c0-0.7-0.5-1.7-1.7-2.8l0.9-2.4
		c0-0.2,0.2-0.2,0.2-0.2s0.2,0.2,0.5,0.5C1603.5,184.6,1604,186,1604,187.4z M1603.3,197.3l-1.9,1.9l-1.9-1.9l1.9-1.9L1603.3,197.3z
		" class="area" title=""></path>
	<path id="PATH_177" d="M1625.5,191.2c0,3.5-1.2,6.6-3.5,9c-0.7,0.7-1.2,1.2-1.4,1.2c-1.4,0-2.8-0.2-4.5-0.5c-0.7,0-0.9-0.2-0.9-0.2
		s0.2-0.2,0.9-0.5c1.9-0.5,3.8-1.7,5.4-3.1c0.7-0.7,1.4-1.2,1.9-2.1c0.7-0.9,1.2-1.9,1.2-2.6v-0.7h-3.1c-2.1,0-3.3-0.9-3.3-2.6
		c0-1.2,0.2-2.4,0.9-3.8c0.7-1.4,1.7-2.4,2.6-2.4c1.4,0,2.6,0.9,3.3,3.1C1625.3,187.9,1625.5,189.5,1625.5,191.2z M1623.8,189.3
		c0-0.7-0.2-1.4-0.7-2.1c-0.5-0.7-1.2-1.2-1.9-1.2c-0.5,0-0.9,0.2-1.2,0.5c-0.2,0.2-0.5,0.7-0.5,1.2c0,1.2,0.7,1.7,2.4,1.7
		C1622.2,189.5,1622.9,189.5,1623.8,189.3z" class="area" title=""></path>
	<path id="PATH_178" d="M1646.5,192.4c0,2.4-0.7,4.5-2.1,6.6c-1.2,1.7-2.4,2.6-3.1,2.6c-1.9,0-3.3,0-4.7-0.2c-0.5,0-0.7-0.2-0.7-0.2
		s0.2-0.2,0.7-0.2c1.9-0.5,3.8-1.4,5.7-2.8c1.9-1.7,3.1-3.3,3.1-5c0-0.9-0.7-2.4-2.4-4l1.2-2.1c0-0.2,0.2-0.2,0.2-0.2l0.2,0.2
		c0.5,0.7,1.2,1.7,1.4,2.8C1646.3,190.5,1646.5,191.7,1646.5,192.4z" class="area" title=""></path>
	<path id="PATH_179" d="M1661.4,192.1h-2.6c-0.2,3.3-1.4,5.9-3.8,8.3c-0.7,0.7-1.2,1.2-1.4,1.2c-1.2,0-2.8-0.2-4.5-0.5
		c-0.5,0-0.9-0.2-0.9-0.2s0.2-0.2,0.9-0.5c1.9-0.5,3.8-1.7,5.4-2.8c0.7-0.7,1.4-1.2,1.9-2.1c0.7-0.9,1.2-1.9,1.2-2.6v-0.7h-3.1
		c-2.4,0-3.3-0.9-3.3-2.8c0-1.2,0.2-2.4,0.9-3.8c0.7-1.4,1.7-2.4,2.6-2.4c1.2,0,2.1,0.7,2.8,2.4c0.5,1.2,0.9,2.4,0.9,3.8h2.6v2.8
		H1661.4z M1657.2,189.5c0-0.7-0.2-1.4-0.7-2.1c-0.5-0.9-1.2-1.2-1.9-1.2c-0.5,0-0.9,0.2-1.2,0.5c-0.2,0.2-0.5,0.7-0.5,1.4
		c0,1.2,0.9,1.7,2.8,1.7C1655.7,189.5,1656.4,189.5,1657.2,189.5z" class="area" title=""></path>
	<path id="PATH_180" d="M1679.8,185.3l-0.9,1.9c-1.7,0-3.1,0-3.8,0.2c-0.9,0.5-2.4,0.9-4.3,1.9c-1.9,0.9-3.3,1.7-4.3,1.9
		c-1.4,0.5-3.1,0.7-4.5,0.7h-1.7v-2.8h1.9c2.1,0,4-0.5,5.7-1.2l5.4-2.4c-0.9-0.2-2.4-0.7-4.3-1.4c-1.7-0.7-2.6-0.9-3.1-0.9
		c-0.9,0-1.9,0.5-2.8,1.2c-0.2,0.2-0.2,0.2-0.5,0.2c-0.2,0-0.2,0-0.2-0.2v-0.2c0.7-2.4,2.1-3.3,4-3.3c0.7,0,1.7,0.2,2.6,0.7
		c1.9,0.9,3.3,1.4,4.3,1.9c1.7,0.5,3.5,0.9,5.7,0.9c0.5,0,0.7,0,0.7,0.2C1680.1,184.8,1679.8,185,1679.8,185.3z M1673,174.6
		l-1.9,1.9l-1.9-1.9l1.9-1.9L1673,174.6z" class="area" title=""></path>
</g>
<g id="G_181" class="area" title="">
	<path id="PATH_182" d="M855.3,124.3h-1.2c-1.2,0-2.1-0.5-2.6-1.2c0,1.4-0.2,3.1-0.5,5.2c-0.7,1.7-1.9,3.1-3.8,3.8
		c-1.7,0.7-3.3,1.2-5.4,1.2s-3.5-0.5-4.7-1.2c-1.4-0.9-2.1-2.4-2.1-4.5c0-1.9,0.5-3.8,1.7-5.2c0.2-0.2,0.2-0.2,0.5-0.2
		c0.2,0,0.2,0,0.2,0.2v0.2c-0.5,1.2-0.7,2.4-0.7,3.3c0,1.4,0.5,2.6,1.7,3.5c0.9,0.7,2.1,1.2,3.8,1.2c1.4,0,3.1-0.2,4.7-0.9
		c2.4-0.7,3.3-1.7,3.3-2.8l-0.2-11.3c-0.2-5.4-0.2-9.2-0.5-11.8l1.9-1.7c0,0.7,0.2,3.3,0.5,8l0.2,9.2c0,1.4,0.9,2.4,2.8,2.4h0.7v2.6
		H855.3z" class="area" title=""></path>
	<path id="PATH_183" d="M869.5,105.2c0,0.5-0.2,1.2-0.7,2.6c-2.8,0.7-6.4,1.9-10.4,3.1c2.8,2.8,4.5,5.2,4.7,6.9
		c0.2,1.2,0,2.4-0.5,3.5c-0.5,1.2-1.4,1.9-2.6,2.4c-0.9,0.5-2.6,0.5-4.7,0.5h-0.9v-2.8h0.7c4.5,0,6.9-0.7,6.9-2.4
		c0-1.2-1.2-3.1-3.8-5.4l-0.2,0.7c-0.2-0.2-0.7-0.7-1.2-1.4c-0.7-0.7-0.9-1.2-0.9-1.4c0-0.7,0.2-1.4,0.9-2.1
		c0.2-0.2,1.7-0.7,4.7-1.7C864.5,106.6,867.4,105.6,869.5,105.2z M869,101.6l-0.5,1.7l-11.6,3.8l0.5-1.7L869,101.6z" class="area" title=""></path>
	<path id="PATH_184" d="M887.4,124.3h-0.9c-0.9,0-1.7-0.2-2.4-0.9c-0.5-0.5-0.9-0.9-1.4-1.9c-0.5,0.9-1.2,1.7-1.9,2.1
		c-0.9,0.5-2.1,0.7-4,0.7c-3.3,0-5-1.2-5-3.5c0-0.7,0.2-1.7,0.7-2.4c0.2-0.2,0.2-0.5,0.5-0.5s0.2,0.2,0.2,0.5c0,0.2,0,0.2,0,0.7
		c0,0.2,0,0.5,0,0.7c0,1.4,1.2,2.1,3.5,2.1c3.3,0,5-0.7,5-1.9c0-0.7-0.9-3.3-2.8-7.8l0.9-1.9c0.2-0.2,0.2-0.5,0.2-0.5
		s0.2,0.2,0.2,0.5c0.7,1.9,1.9,4.7,3.3,8.5c0.7,1.9,1.7,2.8,3.1,2.8h0.7L887.4,124.3L887.4,124.3z" class="area" title=""></path>
	<path id="PATH_185" d="M899,124.3h-1.9c-2.1,0-3.5-0.7-4.5-2.1c-0.7,1.4-2.4,2.1-5,2.1h-1.4v-2.8h2.1c2.4,0,3.5-0.9,3.8-2.6
		c0-0.7,0.2-1.2,0.5-1.2s0.5,0.5,0.5,1.2c0.2,1.7,1.4,2.6,3.5,2.6h2.1v2.8H899z M891.2,129.5l-1.9,1.9l-1.9-1.9l1.9-1.9L891.2,129.5
		z M895.2,129.5l-1.9,1.9l-1.9-1.9l1.9-1.9L895.2,129.5z" class="area" title=""></path>
	<path id="PATH_186" d="M904.7,119.6c0,3.1-1.7,4.7-4.7,4.7h-1.9v-2.8h1.7c2.4,0,3.5-0.5,3.5-1.2c0-0.7-0.5-1.7-1.7-2.8l0.9-2.4
		c0-0.2,0.2-0.2,0.2-0.2s0.2,0.2,0.5,0.5C904.2,116.5,904.7,117.9,904.7,119.6z M904,129.5l-1.9,1.9l-1.9-1.9l1.9-1.9L904,129.5z" class="area" title=""></path>
	<path id="PATH_187" d="M926.2,123.4c0,3.5-1.2,6.6-3.5,9c-0.7,0.7-1.2,1.2-1.4,1.2c-1.4,0-2.8-0.2-4.5-0.5c-0.7,0-0.9-0.2-0.9-0.2
		s0.2-0.2,0.9-0.5c1.9-0.5,3.8-1.7,5.4-3.1c0.7-0.7,1.4-1.2,1.9-2.1c0.7-0.9,1.2-1.9,1.2-2.6v-0.7h-3.1c-2.1,0-3.3-0.9-3.3-2.6
		c0-1.2,0.2-2.4,0.9-3.8c0.7-1.4,1.7-2.4,2.6-2.4c1.4,0,2.6,0.9,3.3,3.1C926,119.8,926.2,121.5,926.2,123.4z M924.3,121.5
		c0-0.7-0.2-1.4-0.7-2.1c-0.5-0.7-1.2-1.2-1.9-1.2c-0.5,0-0.9,0.2-1.2,0.5c-0.5,0.5-0.5,0.7-0.5,1.2c0,1.2,0.7,1.7,2.4,1.7
		C922.7,121.5,923.6,121.5,924.3,121.5z" class="area" title=""></path>
	<path id="PATH_188" d="M955.7,123.8c0.2,0.7,0.2,1.4,0.2,2.1c0,0.9-0.2,1.7-0.5,2.6c-0.7,1.7-1.9,3.1-4.3,4
		c-1.9,0.7-3.8,1.2-5.9,1.2s-3.8-0.5-5.2-1.4c-1.4-1.2-2.1-2.6-2.1-4.7c0-1.2,0.2-2.1,0.7-3.5c0.5-0.9,0.7-1.7,1.2-2.1
		c0.2-0.2,0.5-0.2,0.5-0.2c0.2,0,0.2,0,0.2,0.2c0,0,0,0.2,0,0.5c-0.7,1.4-0.9,2.8-0.9,4s0.5,2.1,1.2,3.1c0.9,1.2,2.6,1.7,4.7,1.7
		c2.4,0,4.5-0.5,6.1-1.2c1.4-0.7,2.4-1.4,2.8-2.4c0.2-0.2,0.2-0.7,0.2-0.9c0-0.7-0.2-1.4-0.5-2.4c-0.2-0.7-0.9-1.9-2.1-3.8l0.9-1.9
		c0.2-0.2,0.2-0.5,0.2-0.5s0.2,0,0.2,0.2C954.8,120.3,955.5,121.9,955.7,123.8z M948.9,113.7l-1.9,1.9l-1.9-1.9l1.9-1.9L948.9,113.7
		z" class="area" title=""></path>
	<path id="PATH_189" d="M961.4,121.2c0,0.9-0.2,1.9-0.7,2.6c-0.2,0.5-0.5,0.7-0.5,0.7s-0.2-0.2-0.2-0.9c0-2.8-0.5-9.5-1.4-20.1
		l1.9-1.9c0.2-0.2,0.2-0.2,0.2-0.2s0,0.2,0,0.5C961.4,105.2,961.4,111.5,961.4,121.2z" class="area" title=""></path>
	<path id="PATH_190" d="M973.5,124.5c0,2.4-0.7,4.5-2.1,6.6c-1.2,1.7-2.4,2.6-3.1,2.6c-1.9,0-3.3,0-4.7-0.2c-0.5,0-0.7-0.2-0.7-0.2
		s0.2-0.2,0.7-0.2c1.9-0.5,3.8-1.4,5.7-2.8c1.9-1.7,3.1-3.3,3.1-5c0-0.9-0.7-2.4-2.4-4l1.2-2.1c0-0.2,0.2-0.2,0.2-0.2l0.2,0.2
		c0.5,0.7,1.2,1.7,1.4,2.8C973.2,122.7,973.5,123.6,973.5,124.5z" class="area" title=""></path>
	<path id="PATH_191" d="M982.9,99c-0.9,0.9-2.4,1.2-3.8,1.2c-0.2,0-0.5,0-0.9,0s-0.7,0-0.9,0c-0.2,0-0.5,0.2-0.7,0.5
		c-0.2,0.2-0.5,0.5-0.5,0.5c-0.2,0-0.2-0.2-0.2-0.5c0-0.2,0.2-0.7,0.5-1.2c0.2-0.7,0.5-0.9,0.7-0.9c0.2,0,0.7,0,1.4,0.2
		c0.7,0,1.2,0.2,1.4,0.2c1.4,0,2.4,0,3.1-0.2c0.5,0,0.7-0.2,0.7-0.2h0.2C983.4,98.5,983.4,98.8,982.9,99z M981.5,121.2
		c0,0.9-0.2,1.9-0.7,2.6c-0.2,0.5-0.5,0.7-0.5,0.7s-0.2-0.2-0.2-0.9c0-2.8-0.5-9.5-1.4-20.1l1.9-1.9c0.2-0.2,0.2-0.2,0.2-0.2
		s0,0.2,0,0.5C981.5,105.2,981.5,111.5,981.5,121.2z" class="area" title=""></path>
</g>
<g id="G_192" class="area" title="">
	<path id="PATH_193" d="M758.4,210.8c0.2,0.7,0.2,1.4,0.2,2.1c0,0.9-0.2,1.7-0.5,2.6c-0.7,1.7-1.9,3.1-4.3,4
		c-1.9,0.7-3.8,1.2-5.9,1.2c-2.1,0-3.8-0.5-5.2-1.4c-1.4-1.2-2.1-2.6-2.1-4.7c0-1.2,0.2-2.1,0.7-3.5c0.5-0.9,0.7-1.7,1.2-2.1
		c0.2-0.2,0.5-0.2,0.5-0.2c0.2,0,0.2,0,0.2,0.2c0,0,0,0.2,0,0.5c-0.7,1.4-0.9,2.8-0.9,4c0,1.2,0.5,2.1,1.2,3.1
		c0.9,1.2,2.6,1.7,4.7,1.7c2.4,0,4.5-0.5,6.1-1.2c1.4-0.7,2.4-1.4,2.8-2.4c0.2-0.2,0.2-0.7,0.2-0.9c0-0.7-0.2-1.4-0.5-2.4
		c-0.2-0.7-0.9-1.9-2.1-3.8l0.9-1.9c0.2-0.2,0.2-0.5,0.2-0.5s0.2,0,0.2,0.2C757.5,207,758.2,208.9,758.4,210.8z M751.6,200.6
		l-1.9,1.9l-1.9-1.9l1.9-2.1L751.6,200.6z" class="area" title=""></path>
	<path id="PATH_194" d="M768.1,211h-1.7c-1.7,0-3.1-0.7-3.5-2.1c-0.5-0.9-0.7-2.6-0.7-4.5v-4.5c0-2.1-0.2-5.2-0.5-9.2l1.4-1.7
		c0.2-0.2,0.5-0.2,0.5,0c0.2,2.1,0.5,5.2,0.5,9.2v6.9c0,1.9,0.9,2.8,2.8,2.8h1.2L768.1,211L768.1,211z" class="area" title=""></path>
	<path id="PATH_195" d="M786.8,206.1c0,1.4-0.2,2.6-0.9,3.5c-0.7,0.9-1.9,1.7-3.1,1.7c-1.7,0-2.6-0.7-3.3-1.9
		c-0.9,1.4-1.9,1.9-3.3,1.9c-1.7,0-2.8-0.7-3.5-1.9c-0.9,1.4-2.1,1.9-3.8,1.9h-1.7v-2.8h1.9c1.7,0,2.8-0.9,3.1-2.8
		c0-0.5,0.2-0.7,0.5-0.7s0.2,0.2,0.5,0.7c0.2,1.9,1.2,2.8,3.1,2.8c0.9,0,1.9-0.2,2.4-0.7c0.2-0.5,0.5-0.9,0.7-1.9
		c0-0.5,0.2-0.7,0.5-0.7s0.2,0.2,0.5,0.7c0.2,1.9,1.2,2.8,2.8,2.8c1.9,0,2.6-0.5,2.6-1.2c0-0.7-0.5-1.7-1.4-2.6l1.2-2.1
		c0.2-0.2,0.2-0.5,0.5-0.5c0.2,0,0.2,0.2,0.5,0.5C786.3,203.7,786.8,205.1,786.8,206.1z M778.7,197.3l-1.7,1.7l-1.7-1.7l1.7-1.7
		L778.7,197.3z M780.9,193.8l-1.7,1.7l-1.7-1.7l1.7-1.7L780.9,193.8z M783,197.3l-1.7,1.7l-1.7-1.7l1.7-1.7L783,197.3z" class="area" title=""></path>
	<path id="PATH_196" d="M796.2,211h-1.7c-1.7,0-3.1-0.7-3.5-2.1c-0.5-0.9-0.7-2.6-0.7-4.5v-4.5c0-2.1-0.2-5.2-0.5-9.2l1.4-1.7
		c0.2-0.2,0.5-0.2,0.5,0c0.2,2.1,0.5,5.2,0.5,9.2v6.9c0,1.9,0.9,2.8,2.8,2.8h1.2L796.2,211L796.2,211z" class="area" title=""></path>
	<path id="PATH_197" d="M810.9,189.3c0,0.5-0.5,1.4-0.9,2.6l-5.9,1.9c-2.6,0.9-4.5,1.7-5.4,2.1c1.9,1.9,3.1,3.3,3.8,4
		c1.2,1.7,1.9,3.1,2.1,4.7c0,1.2,0,2.4-0.5,3.3c-0.7,2.1-3.3,3.1-7.3,3.1h-1.2v-2.8h1.4c1.9,0,3.3,0,4-0.2c1.7-0.5,2.6-1.2,2.6-2.4
		c0-1.7-1.2-3.5-3.8-5.9l-0.2,0.5c-0.2-0.2-0.7-0.7-1.2-1.4c-0.7-0.7-0.9-1.4-0.9-1.4c0-0.5,0-0.9,0.2-1.9c0.2-0.9,0.5-1.4,0.7-1.7
		c0.2-0.2,1.9-0.9,5-1.9C805.9,190.7,808.8,189.8,810.9,189.3z" class="area" title=""></path>
</g>
<g id="G_198" class="area" title="">
	<path id="PATH_199" d="M879.9,300.1h-0.9c-0.9,0-1.4-0.2-1.9-0.5c0,0.2,0,0.5,0,0.7c0,2.1-0.7,4.3-2.1,6.4
		c-1.2,1.9-2.4,2.6-3.1,2.6c-1.9,0-3.3,0-4.7-0.2c-0.5,0-0.7-0.2-0.7-0.2s0.2-0.2,0.7-0.2c1.9-0.5,3.8-1.4,5.7-2.8
		c1.9-1.7,3.1-3.3,3.1-5c0-0.9-0.7-2.4-2.4-4l1.2-2.1c0-0.2,0.2-0.2,0.2-0.2l0.2,0.2c0.7,0.9,1.2,1.7,1.7,1.9
		c0.7,0.5,1.7,0.9,2.6,0.9h0.7v2.6H879.9z M875.4,287.6l-1.9,1.9l-1.9-1.9l1.9-1.9L875.4,287.6z" class="area" title=""></path>
	<path id="PATH_200" d="M891.5,300.1h-1.9c-2.1,0-3.5-0.7-4.5-2.1c-0.7,1.4-2.4,2.1-5,2.1h-1.4v-2.8h2.1c2.4,0,3.5-0.9,3.8-2.6
		c0-0.7,0.2-1.2,0.5-1.2s0.5,0.5,0.5,1.2c0.2,1.7,1.4,2.6,3.5,2.6h2.1v2.8H891.5z M886.7,287.8l-1.9,1.9l-1.9-1.9l1.9-1.9
		L886.7,287.8z" class="area" title=""></path>
	<path id="PATH_201" d="M911.6,300.1h-1.2c-2.1,0-4.3-0.2-5.9-0.7c-2.1,0.5-5.2,0.7-9.2,0.7h-4.7v-2.8h2.4c0.7,0,1.2-0.2,1.4-0.5
		s0.2-0.7,0.2-1.4c0-0.9,0-2.8,0-5.2c-0.2-3.8-0.5-7.3-0.9-10.4l1.7-1.7c0.2-0.2,0.2-0.2,0.2-0.2s0.2,0.2,0.2,0.5
		c0.2,0.9,0.5,1.9,0.9,2.8c0,0.2,0.2,0.5,0.2,0.5s-0.2,0-0.5,0h-0.7c0.2,4.3,0.2,6.9,0.2,7.6v2.6c0,0.9-0.2,2.4-0.7,4
		c0.2,0,0.7-0.5,1.9-1.4c1.2-1.2,2.4-2.1,3.3-2.8c1.7-0.9,3.1-1.4,4.5-1.4c1.2,0,2.1,0.2,2.8,0.9c0.9,0.7,1.2,1.4,1.2,2.6
		c0,1.7-0.5,2.8-1.7,3.8c0.2,0,0.7,0,1.4,0c0.7,0,0.9,0,1.4,0h0.9v2.6H911.6z M907.8,295.2c0-0.7-0.5-1.4-1.4-1.9
		c-0.7-0.5-1.7-0.7-2.4-0.7c-1.7,0-4.5,1.4-8,4.5c0.9,0,2.1,0.2,3.1,0.2c1.4,0,3.1-0.2,4.7-0.5C906.6,296.6,907.8,295.9,907.8,295.2
		z" class="area" title=""></path>
	<path id="PATH_202" d="M917.2,295.4c0,3.1-1.7,4.7-4.7,4.7h-1.9v-2.8h1.7c2.4,0,3.5-0.5,3.5-1.2s-0.5-1.7-1.7-2.8l0.9-2.4
		c0-0.2,0.2-0.2,0.2-0.2s0.2,0.2,0.5,0.5C916.5,292.3,917.2,294,917.2,295.4z M917,284.8l-1.9,1.9l-1.9-1.9l1.9-1.9L917,284.8z" class="area" title=""></path>
</g>
<g id="G_203" class="area" title="">
	<path id="PATH_204" d="M1015.8,296.6c0.2,0.7,0.2,1.4,0.2,2.1c0,0.9-0.2,1.7-0.5,2.6c-0.7,1.7-1.9,3.1-4.3,4
		c-1.9,0.7-3.8,1.2-5.9,1.2s-3.8-0.5-5.2-1.4c-1.4-1.2-2.1-2.6-2.1-4.7c0-1.2,0.2-2.1,0.7-3.5c0.5-0.9,0.7-1.7,1.2-2.1
		c0.2-0.2,0.5-0.2,0.5-0.2c0.2,0,0.2,0,0.2,0.2c0,0,0,0.2,0,0.5c-0.7,1.4-0.9,2.8-0.9,4c0,1.2,0.5,2.1,1.2,3.1
		c0.9,1.2,2.6,1.7,4.7,1.7c2.4,0,4.5-0.5,6.1-1.2c1.4-0.7,2.4-1.4,2.8-2.4c0.2-0.2,0.2-0.7,0.2-0.9c0-0.7-0.2-1.4-0.5-2.4
		c-0.2-0.7-0.9-1.9-2.1-3.8l0.9-1.9c0.2-0.2,0.2-0.5,0.2-0.5s0.2,0,0.2,0.2C1014.8,293,1015.3,294.7,1015.8,296.6z M1008.7,286.4
		l-1.9,1.9l-1.9-1.9l1.9-1.9L1008.7,286.4z" class="area" title=""></path>
	<path id="PATH_205" d="M1025.2,297.1h-1.4c-1.7,0-3.1-0.7-3.5-2.1c-0.5-0.9-0.7-2.6-0.7-4.5V286c0-2.1-0.2-5.2-0.5-9.2l1.4-1.7
		c0.2-0.2,0.5-0.2,0.5,0c0.2,2.1,0.5,5.2,0.5,9.2v6.9c0,1.9,0.9,2.8,2.8,2.8h1.2v3.1H1025.2z" class="area" title=""></path>
	<path id="PATH_206" d="M1037,297.1h-1.9c-2.1,0-3.5-0.7-4.5-2.1c-0.7,1.4-2.4,2.1-5,2.1h-1.4v-2.8h2.1c2.4,0,3.5-0.9,3.8-2.6
		c0-0.7,0.2-1.2,0.5-1.2s0.5,0.5,0.5,1.2c0.2,1.7,1.4,2.6,3.5,2.6h2.1v2.8H1037z M1029,283.4l-1.9,1.9l-1.9-1.9l1.9-1.9L1029,283.4z
		 M1033,283.4l-1.9,1.9l-1.9-1.9l1.9-1.9L1033,283.4z" class="area" title=""></path>
	<path id="PATH_207" d="M1055.5,291.9c0,1.4-0.2,2.6-0.9,3.5c-0.7,0.9-1.9,1.7-3.1,1.7c-1.7,0-2.6-0.7-3.3-1.9
		c-0.9,1.4-1.9,1.9-3.3,1.9c-1.7,0-2.8-0.7-3.5-1.9c-0.9,1.4-2.1,1.9-3.8,1.9h-1.7v-2.8h1.9c1.7,0,2.8-0.9,3.1-2.8
		c0-0.5,0.2-0.7,0.5-0.7s0.2,0.2,0.5,0.7c0.2,1.9,1.2,2.8,3.1,2.8c0.9,0,1.9-0.2,2.4-0.7c0.2-0.5,0.5-0.9,0.7-1.9
		c0-0.5,0.2-0.7,0.5-0.7s0.2,0.2,0.5,0.7c0.2,1.9,1.2,2.8,2.8,2.8c1.9,0,2.6-0.5,2.6-1.2s-0.5-1.7-1.4-2.6l1.2-2.1
		c0.2-0.2,0.2-0.5,0.5-0.5s0.2,0.2,0.5,0.5C1055.2,289.7,1055.5,290.9,1055.5,291.9z" class="area" title=""></path>
	<path id="PATH_208" d="M1070.1,292.1c0,3.3-2.1,5-6.6,5c-1.7,0-2.8-0.2-3.5-0.7c-0.9-0.5-1.4-1.7-1.4-3.1c0-0.7,0.2-1.4,0.5-2.1
		c0.2-0.2,0.2-0.5,0.5-0.5s0.2,0.2,0.2,0.7c0,0.2,0,0.5,0,0.7c0,0.9,0.5,1.7,1.4,1.9c0.5,0.2,1.4,0.2,2.6,0.2c3.5,0,5.2-0.5,5.2-1.7
		c0-1.7-2.1-4-6.1-6.9l0.7-2.4c0-0.2,0.2-0.2,0.2-0.2s0.2,0,0.5,0.2C1068,286.4,1070.1,289.3,1070.1,292.1z" class="area" title=""></path>
	<path id="PATH_209" d="M1081.9,297.3c0,2.4-0.7,4.5-2.1,6.6c-1.2,1.7-2.4,2.6-3.1,2.6c-1.9,0-3.3,0-4.7-0.2c-0.5,0-0.7-0.2-0.7-0.2
		s0.2-0.2,0.7-0.2c1.9-0.5,3.8-1.4,5.7-2.8c1.9-1.7,3.1-3.3,3.1-5c0-0.9-0.7-2.4-2.4-4l1.2-2.1c0-0.2,0.2-0.2,0.2-0.2l0.2,0.2
		c0.5,0.7,1.2,1.7,1.4,2.8C1081.7,295.4,1081.9,296.4,1081.9,297.3z" class="area" title=""></path>
	<path id="PATH_210" d="M1087.6,294c0,0.9-0.2,1.9-0.7,2.6c-0.2,0.5-0.5,0.7-0.5,0.7s-0.2-0.2-0.2-0.9c0-2.8-0.5-9.5-1.4-20.1
		l1.9-1.9c0.2-0.2,0.2-0.2,0.2-0.2s0,0.2,0,0.5C1087.6,277.9,1087.6,284.3,1087.6,294z" class="area" title=""></path>
</g>
<g id="G_211" class="area" title="">
	<path id="PATH_212" d="M660.6,281.2l-1.2-1.2c-1.4-1.4-1.4-3.3,0-5.4c-1.7,0-2.4,0-2.6-0.2l-1.4-1.4c-0.5-0.5-0.9-1.2-1.2-1.9
		c-0.5-0.9-0.5-1.7-0.2-1.9c1.2-1.2,2.8-1.9,4.5-1.7c1.2,0,2.6,0.7,4.7,1.4l1.4-1.9h2.4c0,0.2-1.7,2.4-4.5,6.6
		c-0.9,1.2-1.4,2.1-1.7,2.6c-0.2,0.7,0,1.4,0.5,2.1l1.2,1.2L660.6,281.2z M659.9,273.7l2.1-3.1c-0.7-0.5-1.7-0.9-2.8-1.2
		c-1.7-0.5-2.6-0.7-2.8-0.5c-0.2,0.2,0,0.9,0.7,1.9c0.5,0.7,0.9,1.2,1.4,1.7C658.9,273,659.4,273.4,659.9,273.7z" class="area" title=""></path>
	<path id="PATH_213" d="M672.2,293.5l-1.2-1.2c-0.7-0.7-1.2-2.1-0.9-3.8c-1.9,0.9-3.1,0.9-3.5,0.5s-0.9-1.7-1.4-3.1
		c-0.2-1.4-0.5-2.4-0.5-3.1c-1.7,0.2-3.1-0.2-4-1.2l-0.9-0.9l1.9-1.9l0.9,1.2c0.7,0.7,1.9,1.2,3.1,1.4c0.9,0,2.1,0,3.3,0
		c1.2,0,2.1,0.2,2.6,0.7c0.7,0.7,0.9,1.7,0.7,2.8c0,0.7-0.2,1.7-0.5,3.3c-0.2,1.2,0.2,2.1,0.7,2.8l1.2,1.2L672.2,293.5z
		 M669.3,287.6c0.5-0.5,0.9-1.2,1.2-2.1c0.2-0.9,0.2-1.9-0.5-2.4c-0.5-0.5-1.7-0.7-3.1-0.7c0,0.5,0,1.2,0.5,2.4
		c0.5,1.2,0.7,2.1,1.2,2.6C668.8,287.8,669.1,287.8,669.3,287.6z" class="area" title=""></path>
	<path id="PATH_214" d="M671.2,299.9h-2.6v-2.6h2.6V299.9z M674,302.7h-2.6v-2.6h2.6V302.7z M680.2,301.8l-1.2-1.4
		c-1.4-1.7-1.9-3.1-1.4-4.7c-1.7,0.5-3.3-0.2-5-1.9l-1.2-1.2l1.9-1.9l1.4,1.4c1.7,1.7,3.1,1.9,4.5,0.9c0.5-0.5,0.9-0.5,1.2-0.5
		c0.2,0.2,0,0.5-0.5,1.2c-1.2,1.4-0.9,2.8,0.5,4.5l1.4,1.4L680.2,301.8z" class="area" title=""></path>
	<path id="PATH_215" d="M691.8,307c-0.7,0.9-1.7,1.4-2.4,1.7c-1.2,0.5-2.1,0.5-2.6,0c-0.9-0.9-1.4-2.8-1.9-5.4c-1.2,0-1.9,0-2.1,0
		c-0.7,0-1.4-0.5-2.1-1.2l-0.9-0.9l1.9-1.9l1.2,1.2c0.7,0.7,1.7,0.9,3.1,0.9c0.7,0,1.9-0.2,3.5-0.5c1.4-0.2,2.4,0,2.8,0.5
		c0.7,0.7,0.9,1.9,0.7,3.3C692.7,305.6,692.5,306.3,691.8,307z M689.6,307.2c0.5-0.5,0.9-1.2,1.2-2.1s0.2-1.9-0.2-2.4
		c-0.5-0.5-1.7-0.7-3.3-0.2c0,0.5,0.2,1.4,0.5,2.6c0.5,1.2,0.7,1.9,1.2,2.4C688.9,307.5,689.4,307.5,689.6,307.2z" class="area" title=""></path>
	<path id="PATH_216" d="M704.1,324.9c-2.6,2.4-5.4,3.5-9,3.5c-1.2,0-1.7,0-1.9-0.2c-0.9-0.9-1.9-2.1-2.8-3.5
		c-0.2-0.5-0.5-0.7-0.5-0.9c0,0,0.5,0,0.9,0.5c1.7,0.9,3.8,1.7,5.9,1.9c0.9,0,1.9,0,2.8,0c1.2-0.2,2.1-0.5,2.6-0.9l0.5-0.5l-2.1-2.1
		c-1.7-1.4-1.7-2.8-0.2-4.3c0.9-0.7,1.9-1.4,3.3-1.9c1.7-0.5,2.8-0.5,3.5,0.2c0.9,0.9,0.9,2.6,0,4.5
		C706.2,322.6,705.2,323.8,704.1,324.9z M704.3,322.3c0.5-0.5,0.9-1.2,0.9-2.1c0.2-0.9,0-1.7-0.5-2.1c-0.2-0.2-0.7-0.5-1.2-0.5
		s-0.9,0.2-1.4,0.5c-0.7,0.7-0.7,1.7,0.5,2.8C702.9,321.4,703.6,321.9,704.3,322.3z" class="area" title=""></path>
	<path id="PATH_217" d="M719.9,342.9l-0.7-0.7c-0.7-0.7-0.9-1.2-0.9-1.7c-0.2,0.2-0.2,0.2-0.5,0.5c-1.7,1.7-3.5,2.6-6.1,2.8
		c-2.1,0.2-3.5,0.2-4-0.2c-1.2-1.2-2.4-2.4-3.1-3.5c-0.2-0.2-0.2-0.5-0.2-0.7c0-0.2,0.2,0,0.7,0.2c1.7,0.9,3.5,1.7,5.9,1.9
		c2.6,0.2,4.5-0.2,5.7-1.2c0.7-0.7,1.2-2.1,1.2-4.5l2.4-0.7c0.2,0,0.2,0,0.5,0c0,0,0,0.2,0,0.5c-0.2,1.2-0.2,2.1-0.2,2.6
		c0,0.9,0.5,1.7,1.2,2.6l0.5,0.5L719.9,342.9z" class="area" title=""></path>
	<path id="PATH_218" d="M730.1,353.5l-0.9-0.9c-0.7-0.7-1.4-1.2-2.1-1.7c-1.2-0.5-2.4-0.5-3.1,0.2c-0.9,0.9-1.2,2.6-0.7,4.7
		l-2.6,0.9c-0.9-2.1-1.4-4.3-1.4-6.1c0-2.4,0.7-4.5,2.1-6.1l-2.4-2.4l1.9-1.9l2.1,2.4c1.2-1.2,3.1-2.4,5.4-3.1
		c2.1-0.7,3.3-0.9,3.8-0.7c0.5,0.5,0,1.7-0.7,3.5c-0.9,1.7-1.4,2.8-2.1,3.3c-2.4,2.4-4.7,2.4-7.1,0c-0.7,0.9-0.9,1.9-1.2,3.1
		c-0.2,1.2,0,2.4,0.2,3.3c0.2-0.2,0.5-0.5,0.7-0.7c1.2-1.2,2.6-1.9,3.8-2.1c1.9-0.2,3.8,0.2,5,1.7l0.7,0.7L730.1,353.5z
		 M727.9,345.7c0.2-0.2,0.7-1.2,1.4-2.4c0.5-1.4,0.7-2.1,0.5-2.4c-0.2-0.2-0.9,0-2.1,0.5c-1.2,0.5-2.4,1.2-3.3,2.1
		C726,345.5,727.2,346.2,727.9,345.7z" class="area" title=""></path>
	<path id="PATH_219" d="M746.6,363.5c-0.9,0.9-2.1,1.7-3.1,1.7c-1.2,0.2-2.4-0.2-3.3-1.2c-1.2-1.2-1.4-2.4-0.9-3.8
		c-1.7,0.2-2.8,0-3.8-0.9c-1.2-1.2-1.4-2.6-0.9-3.8c-1.7,0.2-2.8-0.2-4-1.2l-1.2-1.2l1.9-1.9l1.4,1.4c1.2,1.2,2.6,1.4,4,0.2
		c0.5-0.2,0.7-0.2,0.7-0.2c0.2,0.2,0,0.5-0.2,0.7c-1.2,1.4-1.2,2.8,0,4c0.7,0.7,1.4,1.2,2.1,0.9c0.5,0,1.2-0.2,1.9-0.9
		c0.5-0.2,0.7-0.2,0.7-0.2c0.2,0.2,0,0.5-0.2,0.7c-1.2,1.4-1.2,2.8,0,4c1.2,1.2,2.1,1.7,2.8,0.9c0.5-0.5,0.9-1.4,0.9-2.8l2.1-0.7
		c0.2,0,0.5-0.2,0.7,0c0,0,0,0.2,0,0.7C748,361.6,747.5,362.8,746.6,363.5z M747.3,351.6h-2.4v-2.4h2.4V351.6z M750.4,354.7H748
		v-2.4h2.4V354.7z M751.6,350.7h-2.4v-2.4h2.4V350.7z" class="area" title=""></path>
	<path id="PATH_220" d="M766.2,390.9l-0.7-0.9c-0.7-0.9-1.2-1.4-1.4-1.9c-0.5,0.5-0.9,0.9-1.4,1.4c-0.7,0.7-1.4,1.2-2.1,1.7
		c-1.7,0.7-3.5,0.7-5.9-0.2c-1.9-0.7-3.5-1.9-5-3.3c-1.4-1.4-2.4-3.1-2.4-4.7c-0.2-1.9,0.5-3.5,1.9-5c0.7-0.7,1.9-1.4,3.1-1.9
		c0.9-0.2,1.7-0.5,2.4-0.5c0.2,0,0.5,0,0.7,0.2v0.2c0,0-0.2,0.2-0.5,0.2c-1.4,0.5-2.6,1.2-3.5,1.9c-0.9,0.7-1.2,1.9-1.4,2.8
		c0,1.4,0.5,3.1,1.9,4.5c1.7,1.7,3.3,2.8,5.2,3.5c1.4,0.5,2.6,0.7,3.5,0.5c0.2,0,0.7-0.5,1.2-0.9c0.5-0.5,0.9-1.2,0.9-1.4
		c0.2-0.7,0.7-2.1,0.9-4l2.1-0.7c0.2,0,0.5,0,0.5,0s0,0.2,0,0.5c-0.5,2.1-0.2,3.8,0.5,4.7l1.2,1.4L766.2,390.9z M766.5,376h-2.6
		v-2.8h2.6V376z" class="area" title=""></path>
	<path id="PATH_221" d="M765,397.3h-2.6v-2.6h2.6V397.3z M767.9,400.1h-2.6v-2.6h2.6V400.1z M774.2,399.2l-1.2-1.4
		c-1.4-1.7-1.9-3.1-1.4-4.7c-1.7,0.5-3.3-0.2-5-1.9l-1.2-1.2l1.9-1.9l1.4,1.4c1.7,1.7,3.1,1.9,4.5,0.9c0.5-0.5,0.9-0.5,1.2-0.5
		c0.2,0.2,0,0.5-0.5,1.2c-1.2,1.4-0.9,2.8,0.5,4.5l1.4,1.4L774.2,399.2z" class="area" title=""></path>
	<path id="PATH_222" d="M787.7,406.2c-0.7,0.7-1.4,0.9-2.6,1.2c-1.4,0.2-2.4,0-3.1-0.5c-0.5-0.5-1.2-2.1-2.4-4.7
		c-2.4-0.5-4.3-1.4-5.4-2.6l-0.9-0.9l1.9-1.9l0.9,0.9c0.7,0.7,1.4,1.4,2.1,1.9c-0.2-1.2,0.2-2.1,0.9-3.1c1.2-0.9,2.8-1.4,5.4-0.9
		l-0.5-1.7c0.7,0,1.7,0,2.8,0c0.7,2.4,1.2,4.5,1.4,6.4C789.1,403.2,788.9,405.1,787.7,406.2z M784.6,400.3c0.5-0.5,0.7-0.9,0.9-1.4
		c0.2-0.7,0.2-1.2-0.2-1.7c-0.5-0.5-1.2-0.7-1.9-0.9c-0.9-0.2-1.7,0-1.9,0.5c-0.7,0.7-0.7,1.9,0.2,3.5c0.5,0.2,0.9,0.5,1.7,0.5
		C783.7,401,784.4,400.8,784.6,400.3z M786.1,406c0.5-0.5,0.7-1.4,0.7-2.6s0-1.9-0.2-2.6c-1.4,1.4-2.8,1.9-4.3,1.7
		c0.9,1.9,1.4,3.1,1.9,3.3C784.9,406.5,785.6,406.5,786.1,406z" class="area" title=""></path>
	<path id="PATH_223" d="M790.8,416.2l-1.2-1.2c-1.2-1.2-1.7-2.6-0.9-4c0.5-0.9,1.4-2.4,2.8-3.5l3.3-3.1c1.7-1.4,3.5-3.8,6.1-6.9h2.1
		c0.5,0,0.5,0.2,0.2,0.5c-1.2,1.7-3.3,4-6.4,6.9l-5,4.7c-1.4,1.4-1.4,2.8-0.2,4l0.9,0.9L790.8,416.2z" class="area" title=""></path>
	<path id="PATH_224" d="M807.3,426.1c-0.9,0.9-2.1,1.7-3.1,1.7c-1.2,0.2-2.4-0.2-3.3-1.2c-1.2-1.2-1.4-2.4-0.9-3.8
		c-1.7,0.2-2.8,0-3.8-0.9c-1.2-1.2-1.4-2.6-0.9-3.8c-1.7,0.2-2.8-0.2-4-1.2l-1.2-1.2l1.9-1.9l1.4,1.4c1.2,1.2,2.6,1.4,4,0.2
		c0.5-0.2,0.7-0.2,0.7-0.2c0.2,0.2,0,0.5-0.2,0.7c-1.2,1.4-1.2,2.8,0,4c0.7,0.7,1.4,1.2,2.1,0.9c0.5,0,1.2-0.2,1.9-0.9
		c0.5-0.2,0.7-0.2,0.7-0.2c0.2,0.2,0,0.5-0.2,0.7c-1.2,1.4-1.2,2.8,0,4s2.1,1.7,2.8,0.9c0.5-0.5,0.9-1.4,0.9-2.8l2.1-0.7
		c0.2,0,0.5-0.2,0.7,0c0,0,0,0.2,0,0.7C808.5,424.4,808,425.4,807.3,426.1z M808,414.5h-2.4v-2.4h2.4V414.5z M810.9,417.6h-2.4v-2.4
		h2.4V417.6z M812.1,413.3h-2.4V411h2.4V413.3z" class="area" title=""></path>
</g>
<g id="G_225" class="area" title="">
	<path id="PATH_226" d="M844.9,426.8c0,2.4-0.7,4.5-2.1,6.6c-1.2,1.7-2.4,2.6-3.1,2.6c-1.9,0-3.3,0-4.7-0.2c-0.5,0-0.7-0.2-0.7-0.2
		s0.2-0.2,0.7-0.2c1.9-0.5,3.8-1.4,5.7-2.8c1.9-1.7,3.1-3.3,3.1-5c0-0.9-0.7-2.4-2.4-4l1.2-2.1c0-0.2,0.2-0.2,0.2-0.2l0.2,0.2
		c0.5,0.7,1.2,1.7,1.4,2.8C844.7,424.9,844.9,426.1,844.9,426.8z" class="area" title=""></path>
	<path id="PATH_227" d="M850.3,423.7c0,0.9-0.2,1.9-0.7,2.6c-0.2,0.5-0.5,0.7-0.5,0.7s-0.2-0.2-0.2-0.9c0-2.8-0.5-9.5-1.4-20.1
		l1.9-1.9c0.2-0.2,0.2-0.2,0.2-0.2s0,0.2,0,0.5C850.3,407.7,850.3,414,850.3,423.7z" class="area" title=""></path>
	<path id="PATH_228" d="M865.2,426.6h-2.6c-0.2,3.3-1.4,5.9-3.8,8.3c-0.7,0.7-1.2,1.2-1.4,1.2c-1.2,0-2.8-0.2-4.5-0.5
		c-0.5,0-0.9-0.2-0.9-0.2s0.2-0.2,0.9-0.5c1.9-0.5,3.8-1.7,5.4-2.8c0.7-0.7,1.4-1.2,1.9-2.1c0.7-0.9,1.2-1.9,1.2-2.6v-0.7h-3.1
		c-2.4,0-3.3-0.9-3.3-2.8c0-1.2,0.2-2.4,0.9-3.8c0.7-1.4,1.7-2.4,2.6-2.4c1.2,0,2.1,0.7,2.8,2.4c0.5,1.2,0.9,2.4,0.9,3.8h2.6v2.8
		H865.2z M861,424c0-0.7-0.2-1.4-0.7-2.1c-0.5-0.9-1.2-1.2-1.9-1.2c-0.5,0-0.9,0.2-1.2,0.5c-0.5,0.5-0.5,0.7-0.5,1.4
		c0,1.2,0.9,1.7,2.8,1.7C859.6,424,860.3,424,861,424z" class="area" title=""></path>
	<path id="PATH_229" d="M883.7,419.7l-0.9,1.9c-1.7,0-3.1,0-3.8,0.2c-0.9,0.5-2.4,0.9-4.3,1.9c-1.9,0.9-3.3,1.7-4.3,1.9
		c-1.4,0.5-3.1,0.7-4.5,0.7h-1.7v-2.8h1.9c2.1,0,4-0.5,5.7-1.2l5.4-2.4c-0.9-0.2-2.4-0.7-4.3-1.4c-1.7-0.7-2.6-0.9-3.1-0.9
		c-0.9,0-1.9,0.5-2.8,1.2c-0.2,0.2-0.2,0.2-0.5,0.2c-0.2,0-0.2,0-0.2-0.2v-0.2c0.7-2.4,2.1-3.3,4-3.3c0.7,0,1.7,0.2,2.6,0.7
		c1.9,0.9,3.3,1.4,4.3,1.9c1.7,0.5,3.5,0.9,5.7,0.9c0.5,0,0.7,0,0.7,0.2C883.9,419.2,883.7,419.5,883.7,419.7z M876.8,409.1
		l-1.9,1.9l-1.9-1.9l1.9-1.9L876.8,409.1z" class="area" title=""></path>
	<path id="PATH_230" d="M898.6,426.6h-0.9c-0.9,0-1.4-0.2-1.9-0.5c0,0.2,0,0.5,0,0.7c0,2.1-0.7,4.3-2.1,6.4
		c-1.2,1.9-2.4,2.6-3.1,2.6c-1.9,0-3.3,0-4.7-0.2c-0.5,0-0.7-0.2-0.7-0.2s0.2-0.2,0.7-0.2c1.9-0.5,3.8-1.4,5.7-2.8
		c1.9-1.7,3.1-3.3,3.1-5c0-0.9-0.7-2.4-2.4-4l1.2-2.1c0-0.2,0.2-0.2,0.2-0.2l0.2,0.2c0.7,0.9,1.2,1.7,1.7,1.9
		c0.7,0.5,1.7,0.9,2.6,0.9h0.7v2.6H898.6z" class="area" title=""></path>
	<path id="PATH_231" d="M904.2,421.8c0,3.1-1.7,4.7-4.7,4.7h-1.9v-2.8h1.7c2.4,0,3.5-0.5,3.5-1.2s-0.5-1.7-1.7-2.8l0.9-2.4
		c0-0.2,0.2-0.2,0.2-0.2s0.2,0.2,0.5,0.5C903.8,419,904.2,420.4,904.2,421.8z M903.5,431.8l-1.9,1.9l-1.9-1.9l1.9-1.9L903.5,431.8z" class="area" title=""></path>
</g>
<g id="G_217" class="area" title="">
	<path d="M804.4,699.9c1.2,2.3,1.9,4.5,1.9,7.2c0,1.8-0.5,3.7-1.2,4.5c-1.5,1.6-3.8,2.7-5.9,2.7c-3.3,0-5.4-2.2-5.4-5.3
		c0-2.2,0.7-3.8,1.5-5.1l0.7,0.4c-0.6,1.1-1,2.5-1,3.3c0,1.5,0.5,2.4,1.2,3.1c0.8,0.7,2,1.2,3.3,1.2c1.4,0,3.1-0.7,4.3-1.5
		c0.8-0.6,1.2-1.1,1.2-1.5c0-1.2-0.3-2.2-0.5-3.1c-0.4-1.4-0.9-2.5-1.5-3.5c0.4-0.7,0.8-1.5,1.4-2.2L804.4,699.9z M799.7,694.2
		c0.7,0.5,1.4,1.2,2.1,1.9c-0.4,0.6-0.9,1.2-1.5,1.7c-0.7-0.7-1.4-1.2-2.1-1.8C798.7,695.4,799.2,694.8,799.7,694.2z" id="PATH_218" class="area"></path>
	<path d="M814.1,710.1h-0.2c-1.4,0-2.3-0.3-3-1c-1.1-1.1-1.1-2.3-1.1-4.9c0-3.3-0.2-6.8-0.5-10.6c0.6-0.7,1.1-1.2,1.7-1.6l0.1,0.1
		c0.3,3.8,0.3,8.4,0.3,12.7v1c0,1.1,0.6,1.6,1.3,1.9c0.4,0.2,0.9,0.2,1.1,0.2h0.2V710.1z" id="PATH_219" class="area"></path>
	<path d="M815.6,707.8c1.5,0,2.8-0.1,3.8-0.4c1.1-0.3,2.1-1,2.1-1.5c0-0.1,0-0.3,0-0.4c-0.6,0.1-1.4,0.1-2,0.1c-2,0-3.6-0.5-4.2-1.9
		c-0.2-0.4-0.3-0.8-0.3-1.3c0-1.3,0.5-2.6,1.3-3.5c0.7-0.7,1.5-1.2,2.3-1.2c1.4,0,2.6,1.4,3.4,3.5c0.4,1.2,0.7,2.5,0.7,4.2
		c0,1.1-0.3,2.1-0.9,2.8c-1.1,1.3-3.1,1.7-6.3,1.7h-1.4c-1,0-1.2-0.7-1.2-1.2c0-0.4,0.3-1.1,1.2-1.1H815.6z M816.2,696.3
		c-0.7-0.7-1.4-1.2-2.1-1.8c0.5-0.6,0.9-1.2,1.4-1.7c0.7,0.6,1.3,1.1,2,1.9C817,695.3,816.7,695.8,816.2,696.3z M818.2,700.2
		c-1.2,0-2.1,0.9-2.1,1.6c0,1.4,2.3,1.9,5.1,1.8C820.8,702,819.6,700.2,818.2,700.2z M819.6,696c-0.7-0.7-1.4-1.2-2.1-1.8
		c0.5-0.6,0.9-1.2,1.4-1.7c0.7,0.6,1.3,1.1,2,1.9C820.4,695.1,820.1,695.6,819.6,696z" id="PATH_220" class="area"></path>
	<path d="M830.5,710.1h-0.2c-1.4,0-2.3-0.3-3-1c-1.1-1.1-1.1-2.3-1.1-4.9c0-3.3-0.2-6.8-0.5-10.6c0.6-0.7,1.1-1.2,1.7-1.6l0.1,0.1
		c0.3,3.8,0.3,8.4,0.3,12.7v1c0,1.1,0.6,1.6,1.3,1.9c0.4,0.2,0.9,0.2,1.1,0.2h0.2V710.1z" id="PATH_221" class="area"></path>
	<path d="M830.8,707.8c0.9,0,2-0.1,3.1-0.5c-0.3-0.7-0.4-1.6-0.4-2.4c0-1.1,0.3-2.1,1.1-3.2c0.5-0.7,1-1.2,1.7-1.6
		c0.1-0.6,0.2-1.2,0.3-1.8h0.1c1.7,1.6,4.1,3.1,6.2,4.7c1.5,1.2,2.2,2.2,2.2,3.8c0,1.7-1.1,3.3-3.5,3.3c-1.5,0-3.7-0.5-6-1.2
		c-2,0.8-3.5,1.2-4.8,1.2h-0.4c-1,0-1.2-0.7-1.2-1.2c0-0.4,0.3-1.1,1.2-1.1H830.8z M839.1,704.9c0-1.5-1.1-2.8-1.8-2.8
		c-1.3,0-2.9,1.9-2.9,2.8c0,0.6,0.7,1.4,1.9,2C837.2,706.6,839.1,705.8,839.1,704.9z M842.2,708.1c1,0,1.9-0.3,1.9-0.8
		c0-1.1-1.6-2.4-3.8-3.8c-0.1,1.4-0.6,2.7-1.4,4.1C839.9,707.9,841,708.1,842.2,708.1z" id="PATH_222" class="area"></path>
	<path d="M848.9,705.3c0.1,1.5,0.7,2.7,2.9,2.7c1.4,0,2.5-0.4,3.8-1.1c0.2-0.1,0.4-0.3,0.4-0.4c0-0.9-0.6-2.2-1.7-3.3
		c-1-1.1-2.3-2-3.6-2.7c-0.4-0.2-0.6-0.4-0.6-0.7c0-0.4,0.5-1.4,0.9-2l0.1,0c1.4,0.9,3,2.2,4.2,3.6c1.1,1.3,1.7,2.7,1.7,4.2
		c0,1.1-0.3,2.1-0.7,3.1c-1.6,0.9-3.2,1.6-4.9,1.6c-2,0-3.4-1.1-3.4-3.7c0-0.3,0-0.7,0.1-1.3H848.9z" id="PATH_223" class="area"></path>
</g>
<polygon class="st5 area" points="1131.3,546.9 1083.8,518.7 1055,532.8 1039.4,557.2 1087.6,584.3 1131.3,600.5 1157,607 1167.6,609.2 
	1168,590.6 1168.2,577.3 1164.4,560.6 1145,553 " id="_x35_63" title=""></polygon>
<g id="G_225" class="area">
	<path d="M1081.3,569.6c0.1,1.5,0.7,2.7,2.9,2.7c1.4,0,2.5-0.4,3.8-1.1c0.2-0.1,0.4-0.3,0.4-0.4c0-0.9-0.6-2.2-1.7-3.3
		c-1-1.1-2.3-2-3.6-2.7c-0.4-0.2-0.6-0.4-0.6-0.7c0-0.4,0.5-1.4,0.9-2l0.1,0c1.4,0.9,3,2.2,4.2,3.6c1.1,1.3,1.7,2.7,1.7,4.2
		c0,1.1-0.3,2.1-0.7,3.1c-1.6,0.9-3.2,1.6-4.9,1.6c-2,0-3.4-1.1-3.4-3.7c0-0.3,0-0.7,0.1-1.3H1081.3z" id="PATH_226" class="area"></path>
	<path d="M1098.4,572.6c-2.1,0-3.8-1-3.8-3.3c0-1.2,0.4-2.1,1.1-3c0.8-0.9,1.7-1.5,2.5-1.5c1,0,2,0.7,2.7,2c0.7,1.2,1.1,2.9,1.1,4.8
		c0,1.6-0.4,3.2-1.3,4.6c-1.6,2.4-3.1,3.3-4.5,3.3c-1.6,0-3.3-0.5-5-1.7l0.3-0.6c0.9,0.4,1.7,0.6,2.6,0.6c1.8,0,3.6-0.9,5.2-2.7
		c0.8-0.9,1.5-1.9,1.7-2.9C1099.9,572.5,1099.2,572.6,1098.4,572.6z M1097.6,567c-0.8,0-2,0.9-2,1.6c0,1.1,1.5,1.9,3,1.9
		c0.7,0,1.4-0.1,2-0.2C1100.1,568.4,1099.1,567,1097.6,567z" id="PATH_227" class="area"></path>
	<path d="M1110.8,565.4l1.2,2.4c0.5,0.9,0.9,1.8,0.9,3.3v1.9c0,1.6-0.8,3.2-2.2,4.9c-1.1,1.1-2,1.6-2.9,1.6c-1.3,0-2.8-0.5-4.5-1.4
		l0.2-0.6c0.5,0.2,1.2,0.3,2,0.3c2.5,0,5-2.1,6.2-4.7c0.1-0.3,0.2-0.6,0.2-0.8c0-0.3-0.1-0.6-0.2-0.9c-0.6-1.4-1.3-2.7-2.1-3.9
		c0.4-0.8,0.8-1.5,1.2-2.2L1110.8,565.4z" id="PATH_228" class="area"></path>
	<path d="M1133.6,567c0.7,1.3,1,2.2,1.4,3.4c0.5,1.5,1.5,1.8,3.2,1.8h0.2v2.2h-0.4c-1,0-1.8-0.2-2.5-0.8h-0.1
		c-0.1,1.8-0.6,3.4-1.1,4.1c-1.2,1.6-3.9,2.8-6,2.8c-3.3,0-5.4-2.2-5.4-5.3c0-2.2,0.7-3.8,1.5-5.1l0.7,0.4c-0.6,1.1-1,2.5-1,3.3
		c0,1.5,0.5,2.4,1.2,3.1c0.7,0.7,2,1.2,3.3,1.2c1.4,0,3.1-0.7,4.3-1.5c0.8-0.6,1.3-1.1,1.3-1.8c0-0.7-0.1-1.4-0.6-2.9
		c-0.6-1.3-1-2.2-1.4-2.9c0.4-0.6,0.7-1.3,1.2-1.9H1133.6z M1129.4,561.7c0.7,0.5,1.4,1.2,2.1,1.9c-0.4,0.6-0.9,1.2-1.5,1.7
		c-0.7-0.7-1.4-1.2-2.1-1.8C1128.4,562.8,1128.9,562.2,1129.4,561.7z" id="PATH_229" class="area"></path>
	<path d="M1138.7,572.2c1.5,0,2.7-0.1,3.5-0.3c0.6-0.2,1-0.5,1-0.8c0-0.8-0.8-2.5-1.8-4.3c0.4-0.8,0.9-1.4,1.3-2h0.1
		c0.8,1.4,1.8,3.6,1.8,5.4c0,1.3-0.5,2.3-1.2,3.3c-0.8,0.8-2,1.1-4.7,1.1h-0.2c-1,0-1.2-0.7-1.2-1.2c0-0.4,0.3-1.1,1.2-1.1H1138.7z
		 M1142,577.8c0.7,0.5,1.4,1.2,2.1,1.9c-0.4,0.6-0.9,1.2-1.5,1.7c-0.7-0.7-1.4-1.2-2.1-1.8C1141.1,578.9,1141.5,578.3,1142,577.8z" id="PATH_230" class="area"></path>
</g>
<polygon class="st6 area" points="682.3,130 587.1,98.5 542.3,68 486.4,38 398.5,93 302.1,117.1 254.6,140 260.5,189.3 316.5,226 
	408.7,249.6 468,286 494,300.8 527.5,281 553.5,271.3 591.7,271.3 613.8,264.7 633.3,249.6 662,253.4 685.9,251 700.5,242.2 
	707.8,220 711.9,176.8 707.6,156 " id="_x37_44" title=""></polygon>
<g id="G_232" class="area" title="">
	<path d="M464.3,168.8l1.4,2.6c0.5,1,1,2,1,3.6v2.1c0,1.7-0.9,3.5-2.4,5.3c-1.2,1.2-2.2,1.7-3.1,1.7c-1.4,0-3-0.5-4.9-1.5l0.2-0.6
		c0.6,0.2,1.3,0.3,2.1,0.3c2.7,0,5.4-2.3,6.7-5.1c0.2-0.3,0.2-0.6,0.2-0.8c0-0.3-0.2-0.7-0.3-1c-0.7-1.5-1.4-2.9-2.3-4.2
		c0.4-0.8,0.9-1.6,1.4-2.4L464.3,168.8z M462.5,162.2c0.8,0.6,1.5,1.3,2.3,2c-0.4,0.7-0.9,1.3-1.6,1.9c-0.7-0.7-1.5-1.3-2.2-2
		C461.5,163.5,462,162.8,462.5,162.2z" id="PATH_233" class="area" title=""></path>
	<path d="M476.3,168.8l1.4,2.6c0.5,1,1,2,1,3.6v2.1c0,1.7-0.9,3.5-2.4,5.3c-1.2,1.2-2.2,1.7-3.1,1.7c-1.4,0-3-0.5-4.9-1.5l0.2-0.6
		c0.6,0.2,1.3,0.3,2.1,0.3c2.7,0,5.4-2.3,6.7-5.1c0.2-0.3,0.2-0.6,0.2-0.8c0-0.3-0.2-0.7-0.3-1c-0.7-1.5-1.4-2.9-2.3-4.2
		c0.4-0.8,0.9-1.6,1.4-2.4L476.3,168.8z" id="PATH_234" class="area" title=""></path>
	<path d="M482.8,173.5c0.1,1.6,0.7,2.9,3.1,2.9c1.5,0,2.7-0.5,4.1-1.2c0.2-0.1,0.4-0.3,0.4-0.5c0-1-0.7-2.4-1.8-3.6
		c-1.1-1.2-2.5-2.2-3.9-2.9c-0.5-0.2-0.6-0.5-0.6-0.7c0-0.5,0.5-1.5,1-2.2l0.2,0c1.5,1,3.3,2.4,4.6,3.9c1.2,1.4,1.9,2.9,1.9,4.5
		c0,1.2-0.3,2.3-0.8,3.3c-1.7,1-3.5,1.8-5.3,1.8c-2.2,0-3.7-1.2-3.7-4c0-0.3,0-0.8,0.1-1.4H482.8z" id="PATH_235" class="area" title=""></path>
	<path d="M506.4,176.2v2.4h-1.6c-0.1,1.2-0.6,2.7-1.4,3.9c-1.5,2.2-3.6,3.3-4.6,3.3c-1.7,0-3.7-0.8-5.5-1.9l0.3-0.6
		c0.7,0.4,1.7,0.7,2.8,0.7c1.9,0,3.7-1,5.3-2.6c0.9-0.9,1.5-1.7,1.8-2.7h-0.9c-3.9,0-5.9-1.2-5.9-3.9c0-1.3,0.4-2.3,1-3.1
		c0.7-1,1.7-1.8,2.9-1.8c1.8,0,3.6,2.5,4.1,6.4H506.4z M502.1,173.4c-0.6-0.7-1.3-1.1-2-1.1c-1.1,0-2.2,0.9-2.2,1.7
		c0,1,0.9,1.5,2.1,1.9c1,0.3,2.2,0.3,3.4,0.3C503.2,175.2,502.7,174.1,502.1,173.4z" id="PATH_236" class="area" title=""></path>
	<path d="M521.1,178.7h-0.4c-2.3,0-3.6-1.3-4.9-3.1c-0.6-0.8-1.2-1.6-1.7-2.1H514c0,3-1.7,5.2-7.1,5.2h-0.5c-1,0-1.3-0.8-1.3-1.3
		c0-0.5,0.3-1.2,1.3-1.2h0.8c1.5,0,3.4-0.3,4.6-1.1c0.4-0.2,0.9-0.7,0.9-0.9c0-0.4-0.2-0.8-0.4-1.3c-0.8-1.7-2.5-3.1-4.5-5.2
		c-0.5-0.5-1-1-1.3-1.3c-0.1-0.3-0.1-0.5-0.1-0.9c0-0.5,0.2-1.1,0.5-1.6c0.2-0.3,0.4-0.4,0.7-0.6c2-1.3,6.4-2.8,11.6-4.4l0.1,0.1
		c-0.4,0.8-0.8,1.5-1.4,2.3c-1.1,0.3-2.8,0.8-4.3,1.4c-2.3,0.9-4.5,1.7-5.8,2.4v0c1,0.6,2.3,1,3.1,1.3l-0.6,1c2,1.8,4.2,3.8,6.8,6.9
		c1.1,1.3,2.2,1.9,3.7,1.9h0.3V178.7z M507.3,161.7c0.1-0.4,0.2-0.8,0.5-1.2c2.6-1.3,6.3-2.6,10.4-3.8l0,0.1l-0.7,1.2
		C513.2,159.3,510,160.5,507.3,161.7L507.3,161.7z" id="PATH_237" class="area" title=""></path>
	<path d="M521.5,176.2c1.5,0,3-0.6,3.3-1.7l0.6-2.1l1.3-1l0.1,0.1c-0.3,1-0.4,1.8-0.4,2.2c0,0.7,0.2,1.2,0.6,1.6
		c0.6,0.5,1.4,0.8,2.4,0.8h0.3v2.4h-0.4c-1.9,0-3.3-0.5-3.9-1.9h-0.1c-0.6,1.3-2.2,1.9-3.8,1.9h-0.4c-1,0-1.3-0.8-1.3-1.3
		c0-0.5,0.3-1.2,1.3-1.2H521.5z M523.6,186.3c-0.8-0.7-1.5-1.4-2.2-2c0.5-0.7,1-1.3,1.5-1.8c0.8,0.6,1.4,1.2,2.2,2
		C524.6,185.3,524.2,185.8,523.6,186.3z M527.3,186c-0.8-0.7-1.5-1.4-2.2-2c0.5-0.7,1-1.3,1.5-1.8c0.8,0.6,1.4,1.2,2.2,2
		C528.2,185,527.9,185.5,527.3,186z" id="PATH_238" class="area" title=""></path>
	<path d="M530.1,176.2c0.6,0,1.3-0.1,2.1-0.5c0.7-0.4,1-1.1,1-2.1c0-3-0.2-6.4-0.6-9.9c-0.1-0.9-0.2-1.7-0.2-2.4
		c0-0.4,0.2-0.9,0.6-1.3c0.3-0.3,0.6-0.7,1-1l0.1,0.1c0,1.2,0.6,2.7,1.5,4.4c-0.3,0.3-0.7,0.6-1.2,1c0.1,2.2,0.2,4.5,0.2,6.6
		c0,2.1-0.2,3.6-0.8,4.8c-0.4,1-0.9,1.8-1.7,2.2c-0.7,0.4-1.6,0.6-2.4,0.6h-0.3c-1,0-1.3-0.8-1.3-1.3c0-0.5,0.3-1.2,1.3-1.2H530.1z" id="PATH_239" class="area" title=""></path>
	<path d="M539.1,179c0.2-1.2,0.2-2.6,0.2-3.8v-1.9c0-3.5-0.4-8.6-0.7-11.8c0.5-0.7,1.3-1.5,1.9-2l0.2,0.1c0.4,4.2,0.5,9,0.5,13.4
		c0,1.2,0,2.3-0.1,3.1c-0.1,1-0.6,1.8-1.7,3.1L539.1,179z" id="PATH_240" class="area" title=""></path>
</g>
</svg>
