<!--?xml version="1.0" encoding="utf-8"?-->
<!-- Generator: Adobe Illustrator 27.4.1, SVG Export Plug-In . SVG Version: 6.00 Build 0)  -->
<svg version="1.1" id="Layer_1" xmlns="http://www.w3.org/2000/svg" xmlns:xlink="http://www.w3.org/1999/xlink" x="0px" y="0px" viewBox="0 0 1920 1080" style="enable-background:new 0 0 1920 1080;" xml:space="preserve" width="100%" height="100%">
<style type="text/css">
	.st0{fill:#FBD1D1;stroke:#020202;stroke-width:0.4;stroke-miterlimit:20;}
	.st1{fill:#DBECCB;stroke:#020202;stroke-width:0.4;stroke-miterlimit:20;}
	.st2{fill:#E8D0E5;stroke:#020202;stroke-width:0.4;stroke-miterlimit:20;}
	.st3{fill:#FDFAD6;stroke:#020202;stroke-width:0.4;stroke-miterlimit:20;}
	.st4{fill:#FFFFFF;stroke:#000000;stroke-width:0.75;stroke-miterlimit:10;}
	.st5{fill:#D9B2D4;stroke:#020202;stroke-width:0.5;stroke-miterlimit:10;}
</style>
<path id="_x35_70" class="st0 area" d="M728.4,213c11.6,4.6,27.8,5.8,36-3.4c11.6-14,3.4-39.4,18.6-43c11.6-3.4,27.8,4.6,43,7
	c17.4,1.2,33.6-9.2,52.2-4.6c14,4.6,16.2,18.6,20.8,30.2c7,20.8,51,38.2,60.4,8.2c2.8-8,5-17.6,9-24.8c-22.4-12-49.8-27.2-51.6-28.2
	l-0.4-0.2l-30.8-37.8l1.4-1.6c0.6-0.6,15-16.8,23.6-20.2c3.6-1.4,6-4.6,6.6-8c0.6-4.2-1.4-8.4-5.8-12.2c-9.8-8.4-18.2-20-20.8-23.6
	c-14.2,1.4-29.4-2.6-31.6-3.4c-3.2-0.2-31-1.6-38.6-1.6c-8,0-23.6-2.8-39.2-22c-3.4-4.2-8-6.4-13.8-6.8c-13.2-0.6-29,9.4-34.6,15
	c-7,7-18.4,33.2-20.4,37.6c0.8,4.6,5,31.2,6.4,41.6c1.8,12.2-11.8,45.8-16.6,53.6c-2.2,3.8-4.2,11.8-6.2,19.6c-1,4.2-2,8.4-3.2,12
	c6.8,4,15.4,5.6,22.8,6.4C721.4,202.6,723.6,210.8,728.4,213z" title=""></path>
<path id="_x33_28" class="st1 area" d="M617,347.6c9.2-5.8,18.6-11.6,22-20.8c3.4-9.6-6-23-3.8-33c-0.8,0-1.4,0.2-2.2,0.2
	c-2.6,0.2-5.4,0.4-7.8,0.4c-10.6,0-24.6-11.8-29.8-22.4c-5-10-9.4-13.2-17.4-13.2c-1.6,0-2,0.6-2.2,0.8c-2,3,1.2,12.2,2.4,15.8
	l1.4,4c2.6,8,9.4,29,13.6,35.8c3.6,6-1.4,17.8-6,26.2C596.8,347.4,606,355.6,617,347.6z" title=""></path>
<path id="_x36_23" class="st0 area" d="M619.2,454.4c12.8-8.2,16.2-24.4,30.2-30.2c2.4-1.2,5.8,0,9.2,0c12.8,3.4,24.4,19.8,36,8.2
	c4.6-3.4,9.2-4.6,12.8-2.4c7,4.6,14,11.6,22,7c11.6-7,30.2-10.4,29-24.4c0-8.2-16.2-10.4-18.6-23.2c-1.2-4.6-14,0-18.6-3.4
	c-14-9.2-9.2-26.6-17.4-39.4c-8.2-14-24.4-18.6-33.6-31.4c-1.6-2.6-2.8-5.4-3.2-8.6c-6.8-0.6-12.6-5.2-16.2-10
	c-2.6-3.4-9-3.4-15.6-2.8c-2.2,10,7.2,23.4,3.8,33c-3.4,9.2-12.8,15-22,20.8c-11,8-20.2-0.2-29.8-6.4c-2.2,4.2-4.4,7.4-5.4,8.8
	l-0.4,0.6l-0.6,0.2c-2.2,1-21.8,10-30.2,10c-4.2,0-8.8,10.4-10.6,17.6c0,0-3.2,20.8-3.2,28.6c0,3-1.2,5.6-3.8,7.8
	c-5.4,4.8-16.2,7.2-28.2,5.8c-4.4-0.4-7.6,0.4-9.4,2.4c-3,3-2.4,8-2.4,8c0,0.6-0.2,1.2-0.4,1.6c3,3,6,7.4,7,12.8
	c0.4,3,0.2,5.4,0,7.4c-0.2,1.6-0.4,3,0,3.6c0.6,0.8,3.4,1.6,12.2,1.6c7.4,0,15.2-0.6,23-1.2c16.8-1.2,27.4-1.8,32.2,1.6
	c4,3,18.6,6.4,27.8,8.4c4.6-3.6,8.4-7.8,13.2-10.6C611.2,454.4,615.8,456.6,619.2,454.4z" title=""></path>
<path id="_x35_69" class="st1 area" d="M890.8,351.2c12.8,10.4,29,2.4,43,5.8c5.8,2.4,10.4,7,15,10.4c5.8,4.6,12.8,9.2,17.4,4.6
	c7-7,18.6-3.4,22-9.2c4.6-9.2-10.4-18.6-5.8-30.2c2.4-7,12.8-4.6,17.4-10.4c9.2-15,1.2-31.4-2.4-46.4c-1.2-5.8-18.6-14-15-19.8
	c10.4-13.8,28.8-24.4,34.6-40.2c-5.8-7.4-14.6-17.4-20.2-19.2c-3.6-1.2-15.2-7.2-28.4-14.2c-4,7.2-6,16.8-9,24.8
	C950.2,237.4,906,220,899,199c-0.2-0.6-0.4-1.2-0.6-1.8c-2.4,2.4-3.2,5.4-0.4,8.8c8.2,12.8,14,29,1.2,41.8c-2.4,1.2-3.4,4.6-2.4,8.2
	c4.6,8.2,19.8,14,11.6,22c-4.6,7-10.4,12.8-17.4,18.6c-1.2,1.2-1.2,4.6,0,5.8c5.8,9.2,20.8,14,16.2,25.6c-3,7.2-9,18-18.4,15.6
	C887.8,346.4,888.4,349.4,890.8,351.2z" title=""></path>
<path id="_x36_08" class="st1 area" d="M752.6,589c15-3.4-3.4-22-2.4-32.4c3.4-23.2-5.8-40.6-25.6-53.4c-9.2-5.8-3.4-18.6-5.8-29
	c-1.2-3.4-4.6-7-7-9.2c-7.4-11.2-10.4-23-17.2-32.6c0,0-0.2,0-0.2,0.2c-11.6,11.6-23.2-4.6-36-8.2c-3.4,0-7-1.2-9.2,0
	c-14,5.8-17.4,22-30.2,30.2c-3.4,2.4-8.2,0-11.6,2.4c-4.8,2.8-8.6,7-13.2,10.6c2,0.4,3.8,0.8,5.2,1l1.6,0.2l0.4,1.6
	c0.4,2.6,5,26.4,5,31.4c0,3.4,5.2,12.2,17.4,13.8c14.2,1.8,35.6,15.4,40.8,24c4.4,7.4,14.2,22.2,22.4,30.4c4,4,11.4,19.2,19.8,37
	c0.2,0.6,0.6,1.2,0.8,1.6C718.6,595,735.6,592,752.6,589z" title=""></path>
<path id="_x36_01" class="st2 area" d="M825.8,783.8c1.2-14,14-23.2,16.2-37.2c1.2-9.2,1.2-18.6-3.4-24.4c-20.8-30.2-37.2-59.2-48.8-94
	c-5.4-16.6-20.4-30.8-36.8-39.6c-0.2,0-0.2,0-0.4,0c-17,3-34,6-45,19.4c9.2,19,19.2,40.2,25,45.8c11,11,10.6,27.2,10.4,34.2
	c0,0.6,0,1.2,0,1.6c0.2,3,9,33.8,15.4,56.2c5.2,18.2,9.8,34,10.4,37.6c1.6,7.6,12.6,36.2,23.4,44c4.4,3.2,10.4,6.2,16.4,9
	c3.6,1.8,7,3.4,10,5c1.6-1.8,3-3.6,3.6-5.8C826.8,818.6,824.6,801.2,825.8,783.8z" title=""></path>
<path id="_x33_27" class="st0 area" d="M998.6,912c2.2-1.2,4.6,2.2,6.8,1.2c5.8-3.4,5.8-9.2,6.8-14.8c4.2,1.2,8.4,2,12.6,2.4
	c-2-2.6-0.2-7.8,1.4-11.2c7-10.4,17.4-16.2,24.4-26.6c1.2-2.4,2.4-5.8,1.2-8.2c-3.4-3.4-11.6-3.4-12.8-7
	c-9.2-17.4-24.4-17.4-40.6-20.8c-5.8,0-5.8-5.8-8.2-11.6c-3.4-9.2-20.8-14-20.8-19.8c0-3.8,0.8-6.8,2.2-9.2c-5.8,0.2-11.8,5-17.2,8
	c-8.2,5.8-9.2,14-8.2,24.4c0,8.2-7,19.8-14,18.6C895,832.8,862,805.6,825,799.6c0,12.2,0.2,24.4-3,36.8c-0.4,2.4-1.8,4-3.6,5.8
	c5.2,3,9.6,6,11.6,9.4c1.8,3,5.4,7.2,9.4,11.6c0.2,0.2,0.2,0.2,0.4,0.4c12.8,7.6,24.8,7.8,37.8,12.2c1.4,0.6,3.2,2.2,4.8,4
	c2.6-1,5.4-1.2,8-0.6c30.2,12.8,59.2,27.8,90.6,39.4c3,1,5.6,3,7.6,5.6C992.2,920.6,995,915,998.6,912z" title=""></path>
<path id="_x32_95" class="st2 area" d="M1028.8,902.2c-1.8,0-3-0.6-3.8-1.6c-4.2-0.2-8.4-1.2-12.6-2.4c-1.2,5.8-1.2,11.4-6.8,14.8
	c-2.2,1.2-4.6-2.2-6.8-1.2c-3.8,3.2-6.4,8.6-9.8,12c5.2,6.2,8.6,15.4,14.4,21c4.6,5.8,12.8,8.2,22,9.2c3.2,0,5.8,1.6,8.8,3.8
	c0.4-0.6,1-1.2,1.8-1.6c22-9.2,48.8,12.8,65-7c10.4-14,25.6-19.8,37.2-30.2C1105.2,897.6,1065.8,903.4,1028.8,902.2z" title=""></path>
<path id="_x36_17" class="st0 area" d="M904.6,441.6c16.2,10.4,32.4,27.8,52.2,23.2c4.6-1.2-3.4-8.2-1.2-12.8c4.6-8.2,20.8-9.2,15-17.4
	c-4.6-5.8-8.2-9.2-11.6-15c-15.4-26-53-39.2-63.6-65.4c-1.6-0.8-3.4-1.8-5-3c-2.2-1.6-2.8-4.8-2.2-7.6c-1.2-0.4-2.4-0.8-3.8-1.6
	c-11.6-5.8-25.6-14-36,0c-1.2,1.2-5.8,0-8.2-1.2c-5.8-4.6-10.4-10.4-16.2-16.2c-7-7-16.2-2.4-24.4-5.8c-10.4-4.6-19.8-12.8-29-22
	c-10.4-11.6-11.6-34.8-30.2-31.4c-5.6,1.2-9,10.8-14.4,10.6c2.4,4.6,4.4,8.8,7.6,12.6c7,11.6,18.6,16.2,27.8,26.6
	c2.4,2.4,1.2,4.6,1.2,7c-2.4,7-11.6,11.6-7,18.6c10.8,19.2,37.4,22.6,53.4,20.8c11.6-2.4,24.4,9.2,27.8,20.8
	c3.4,7-18.6,8.2-10.4,18.6c7.6,12,23.4,19.8,23.4,32.4C869.2,433.8,887.6,431.2,904.6,441.6z" title=""></path>
<path id="_x35_01" class="st3 area" d="M974.2,394c2.4-1.2,5.8-1.2,8.2,0c8.2,5.8,14,14,24.4,16.2c15.6,2.2,31.2-5.2,34.4-21.2
	c-8.4-0.8-17.4,1-24-3.2c-11-6.6-18.8-17-28.4-24.6c-0.2,0.4-0.4,1-0.6,1.4c-3.4,5.8-15,2.4-22,9.2c-4.6,4.6-11.6,0-17.4-4.6
	c-4.6-3.4-9.2-8.2-15-10.4c-12.2-3-26.2,2.8-38-2.8c9.8,24.4,43,37.4,60,60C961.2,406.8,966.4,397.8,974.2,394z" title=""></path>
<path id="_x35_81" class="st3 area" d="M1099.6,710.8c-8.2-14-18.6-26.6-36-27.8c-2.4,0-7-3.4-8.2-7c-1.2-23.2-14-47.6-33.6-53.4
	c-26.6-10.4-56.8-1.2-82.4-23.2c-3.4-3.4-12.8-3.4-18.6,0c-9.2,7-19.8,11.6-26.6,19.8c-7,9.2,3.4,20.8,15,29
	c5.8,3.4,4.6,11.6,0,16.2c-7,7-23.2,12.8-18.6,22c6.2,17,26.4,14,41.6,20.8c1.4,0.4,2.6,0.8,3.6,1.2c18.6,11.6,27.8,32.4,48.8,37.2
	c15,3.4,30.2,3.4,44,8.2c17.8,5.8,12.8,18.4,5.4,30.6c9.6,1.8,19,2,27.2-2.8c11.6-8.2,23.2-19.8,37.2-14c11.6,5.8,24.4,1.2,36-2.4
	c1.4-0.2,2.6-0.4,3.8-0.6c0-10.6-0.6-22.4,1.2-32.4C1124.4,726.8,1107.2,725.2,1099.6,710.8z" title=""></path>
<path id="_x35_94" class="st3 area" d="M801.4,580.8c5.8,3.4,14,2.4,17.4-4.6c4.6-10.4-1.2-25.6,9.2-30.2c19.8-7,41.8-3.4,56.8-22
	c8.2-9.2,30.2,4.6,44-5.8c3.4-2.4-3.4-8.2,0-12.8c5.8-8.2,22-2.4,24.4-14c2-8.8-5.2-16.8-5.4-26c-15.8-1.2-29.6-15-43.4-23.8
	c-17-10.4-35.6-7.8-54.4-8.2c0,0.8,0,1.6-0.2,2.4c0,4.6-11.6,7-16.2,3.4c-24.4-16.2-46.4-18.6-74.2-25.6c-0.4,0-0.8-0.2-1.2-0.2
	c0.2,13.2-17.8,16.6-29,23.4c-8.2,4.6-15-2.4-22-7c-3.4-2.2-8-1.2-12.6,2.2c6.8,9.6,9.8,21.4,17.2,32.6c2.4,2.4,5.8,5.8,7,9.2
	c2.4,10.4-3.4,23.2,5.8,29c19.8,12.8,29,30.2,25.6,53.4c-0.6,5.8,5,14.4,7.2,21.2c3.6-1.2,7.4-4,11.4-6.2
	C780.4,563.4,791,576.2,801.4,580.8z" title=""></path>
<path id="_x36_03" class="st0 area" d="M843.2,576.2c-9-5.6-17,4.2-26,2.4c-4,4.8-10.8,5.2-15.8,2.2c-10.4-4.6-20.8-17.4-32.4-9.2
	c-3.8,2.2-7.6,4.8-11.4,6.2c1.8,5.2,1.6,9.6-4.6,11.2c16.4,8.8,31.2,23,36.8,39.6c11.6,34.8,27.8,63.8,48.8,94
	c4.6,5.8,4.6,15,3.4,24.4c-0.2,1.4-0.6,2.6-1,3.8c11.4-0.4,23.6,0.4,34.6-2.8c11.6-2.4,9.2-16.2,9.2-26.6c9.2,1.2,15,11.6,25.6,7
	c8.2-4.6,8.2-16.2,16.2-20.8c1.4-0.6,3.6-0.6,5.6,0c-15.2-6.8-35.4-3.8-41.6-20.8c-4.6-9.2,11.6-15,18.6-22c4.6-4.6,5.8-12.8,0-16.2
	c-11.6-8.2-22-19.8-15-29c0.8-1,1.8-2,2.8-2.8c-9.6-7.4-22-11.8-33-18C855.8,593.6,851.2,583.2,843.2,576.2z" title=""></path>
<path id="_x33_34" class="st1 area" d="M883.8,553c-2.2-8-0.8-17.8-2.4-25.2c-14.8,14.2-35,11.8-53.2,18.2c-10.4,4.6-4.6,19.8-9.2,30.2
	c-0.4,1-1,1.8-1.6,2.4c9,1.6,17-8.2,26-2.4c8.2,7,12.8,17.4,20.8,22c10.8,6.2,23.4,10.6,33,18c6.8-6.4,15.8-10.8,23.8-16.8
	c5.8-3.4,15-3.4,18.6,0c1,0.8,2,1.8,3,2.4c0.4-3,2-5.8,3.8-8.2C925.4,580.8,889.6,579.6,883.8,553z" title=""></path>
<path id="_x35_73" class="st2 area" d="M1201.6,653.8c2.4-3.4,1.2-9.2,4.6-9.2c8.8-2.2,14-8.2,19.4-13.8c-5.6-5.4-10.6-12.4-14.8-20
	c-4.6-9.2-18.6-9.2-30.2-11.6c-7-1.2-12.8-5.8-15-14c-5.8-14-31.4-16.2-29-36c-31.4,2.4-61.4-11.6-80-37.2c-2.4-3-1.6-5.4,0.2-7.2
	c-5.4-2.2-11-3.2-14,1.4c-3.4,3.4-2.4,10.4-1.2,12.8c8.2,10.4,30.2,17.4,19.8,31.4c-7,9.2-15,23.2-3.4,31.4
	c20.8,12.8,49.8,4.6,63.8,26.6c4.6,8.2,22,0,30.2,4.6c5.8,3.4,3.4,16.2,7,20.8c4.6,7,10.8,12.2,18,16.2
	C1183.2,645.8,1193.4,647.2,1201.6,653.8z" title=""></path>
<path id="_x33_30" class="st2 area" d="M990.4,536.8c-19.8-5.8-44-3.4-59.2-22c-0.8-1.2-1.8-2.4-2.8-3.4c1,2.8,2.6,5.4,0.4,6.8
	c-14,10.4-36-3.4-44,5.8c-1.2,1.4-2.4,2.8-3.6,3.8c1.8,7.4,0.2,17.2,2.4,25.2c5.8,26.6,41.8,27.8,62.6,40.6
	c-1.8,2.4-3.4,5.4-3.8,8.2c23.8,18,51.4,11.4,76.2,19.6c-0.4-8.6,1.6-17.2-3.8-24.4c-9.2-14-27.8-24.4-19.8-40.6
	c2-4.4,4.6-8,7.8-11.2C999.4,541.2,995.4,538,990.4,536.8z" title=""></path>
<path id="_x33_31" class="st0 area" d="M1011.4,479.8c-22.4,0-44.6,0-60.8-14.4c-0.8,0-1.6,0-2.4,0c0.2,9.2,7.4,17.2,5.4,26
	c-2.4,11.6-18.6,5.8-24.4,14c-1.4,1.8-1.2,4-0.4,5.8c1,1,1.8,2.2,2.8,3.4c15,18.6,39.4,16.2,59.2,22c5,1.2,9,4.4,12.4,8.4
	c10.8-11,27-15.4,43.2-19c0.6-0.2,1.4-0.4,2-0.6c-2.6-2-5-4-6.6-6.2c-1.2-2.4-2.4-9.2,1.2-12.8c0.6-0.8,1.2-1.6,2-2
	c-4.2-2.2-8.6-4-13.6-5C1020.6,496.2,1020.6,478.8,1011.4,479.8z" title=""></path>
<path id="_x36_16" class="st1 area" d="M1134.4,441.6c-20.8-7-37.2-24.4-59.2-31.4c-9.2-2.4-15-12.8-24.4-18.6c-3-1.6-6.2-2.4-9.6-2.6
	c-3.2,16-18.8,23.4-34.4,21.2c-10.4-2.4-16.2-10.4-24.4-16.2c-2.4-1.2-5.8-1.2-8.2,0c-8,3.6-13,12.8-18.6,20.2
	c1.2,1.6,2.4,3.4,3.6,5.2c3.4,5.8,7,9.2,11.6,15c5.8,8.2-10.4,9.2-15.2,17.4c-2.4,4.6,5.8,11.6,1.2,12.8c-2.2,0.6-4.2,0.8-6.4,0.8
	c16.2,14.4,38.6,14.4,60.8,14.4c9.2-1.2,9.2,16.2,19.8,19.8c4.8,1,9.4,2.8,13.6,5c3.2-2.2,7.6-1.2,12.2,0.6c1.6-1.6,4-2.6,5.6-3.2
	c7-2.4,14-4.6,19.8-8.2c8.2-4.6,14-16.2,22-19.8c17.8-5.2,38.6-13.4,38.8-32C1140.2,442.6,1137.4,442.4,1134.4,441.6z" title=""></path>
<path id="_x35_98" class="st1 area" d="M1158.6,634.2c-3.4-4.6-1.2-17.4-7-20.8c-8.2-4.6-25.6,3.4-30.2-4.6c-14-22-43-14-63.8-26.6
	c-11.6-8.2-3.4-22,3.4-31.4c8.2-11-3.6-17.6-13-25c-0.6,0.2-1.4,0.4-2,0.6c-20.8,4.6-41.8,10.4-51,30.2
	c-8.2,16.2,10.4,26.6,19.8,40.6c5.6,7.2,3.6,16,3.8,24.4c1,0.4,2,0.8,3,1.2c19.8,5.8,32.4,30.2,33.6,53.4c1.2,3.4,5.8,7,8.2,7
	c17.4,1.2,27.8,14,36,27.8c7.6,14.4,25,16,39.8,21.6c1.4-8.6,4.6-16,11-20.4c-1-0.2-1-3.6,0.2-5.8c10.4-12.8,18.6-25.6,19.8-43
	c0.4-6.2,2.8-10.4,6.4-12.8C1169.4,646.4,1163.4,641.2,1158.6,634.2z" title=""></path>
<path id="_x36_02" class="st1 area" d="M1028.8,753.6c-14-4.6-29-4.6-44-8.2c-20.8-4.6-30.2-25.6-48.8-37.2c-2.4-1.2-7-2.4-9.2-1.2
	c-8.2,4.6-8.2,16.2-16.2,20.8c-10.4,4.6-16.2-5.8-25.6-7c0,10.4,2.4,24.4-9.2,26.6c-11,3.2-23.2,2.2-34.6,2.8
	c-3.8,11.8-14.2,20.6-15.4,33.2c-0.4,5.2-0.4,10.4-0.4,15.4c37,6.2,70,33.4,107.2,37.8c7,1.2,14-10.4,14-18.6
	c-1.2-10.4,0-18.6,8.2-24.4c5.4-3.2,11.4-7.8,17.4-8c7.8-13.4,34.2-8.6,50-4.6c4.2,1,8.2,2,12.4,2.8
	C1041.6,772.2,1046.4,759.6,1028.8,753.6z" title=""></path>
<path id="_x35_83" class="st2 area" d="M1307.2,769.8c-1.2-5.8-5.8-15-10.4-17.4c-23.2-8.2-41.8-19.8-63.8-31.4c-10.4-7-26.6-1.2-31.4,14
	c-17.4-5.8-33.6-15-51-23.2c0,0,0,0-0.2,0c-14.2,9.8-12.2,33.4-12.2,52.8c18.4-0.8,29.4,22.2,40.2,35.4c4.6,5.8,0,14,3.4,19.8
	c1.2,3.4,3.4,8.2,8.2,8.2c25.6,1.2,46.4,17.4,69.6,24.4c18.6,4.6,41.8-7,49.8-25.6c0.4-1,1-1.8,1.6-2.4
	C1305,808.4,1310.4,788.8,1307.2,769.8z" title=""></path>
<path id="_x35_85" class="st0 area" d="M1411,710.6c-0.8-5.2-6.2-11-9.6-12.8c-5.4-2.8-21-22.4-25-27.4c-13.6,5-27.4,6.2-42.4,2
	c-17.4-5.8-20.8-24.4-32.4-37.2c-11.6-10.4-27.8-2.4-40.6,3.4c-13.2,5.8-25.2,1.4-35-8c-5.6,5.6-10.6,11.6-19.4,13.8
	c-3.4,0-2.4,5.8-4.6,9.2c-12.8-10.4-30.2-8.2-31.4,9.2c-1.2,17.4-9.2,30.2-19.8,42.8c-1.2,2.4-1.2,5.8,0,5.8
	c17.4,8.2,33.6,17.4,51,23.2c4.6-15,20.8-20.8,31.4-14c22,11.6,40.6,23.2,63.8,31.4c4.6,2.4,9.2,11.6,10.4,17.4
	c3.2,19-2.2,38.6,4,54.4c5.8-5.4,19.2,6.6,28.6,2.4c9.2-4.6,17.4-11.6,29-14c9.8-1.6,18.2,0.8,26.6,3.8c0.4-8.2,0.8-18.8,1.4-29.6
	c1-21,2-42.8,2-44.8c0-1.6,0.2-15,10.2-24.8C1410.6,715.4,1411.4,713.2,1411,710.6z" title=""></path>
<path id="_x36_27" class="st3 area" d="M1104.2,474c-8.2,3.4-14,15-22,19.8c-5.8,3.4-12.8,5.8-19.8,8.2c-3.4,1.2-10.4,4.6-5.8,10.4
	c18.6,25.6,48.8,39.4,80,37.2c-2.4,19.8,23.2,22,29,36c2.4,8.2,8.2,12.8,15,14c11.6,2.4,25.6,2.4,30.2,11.6
	c11.6,20.8,29,37.2,49.8,27.8c12.8-5.8,29-14,40.6-3.4c11.6,12.8,15,31.4,32.4,37.2c15,4.2,29,3,42.4-2c-0.2-0.2-0.2-0.4-0.4-0.4
	l-0.2-0.4l-0.2-0.4c-0.2-0.6-0.8-2.6-1.4-5.2c-0.8-0.4-1.2-1-1.4-1.8c-0.2-0.8,0.2-1.4,0.6-2c-1.8-8.2-3.6-19.6-1.8-25.2
	c2.6-8,7.8-48-1-60.6c-5-7.2-23-29.4-39-49c-15-18.4-28-34.4-30.6-38.4c-4.6-6.8-10-16.4-11.8-19.6c-6.2-0.8-33.6-4.2-39.8-5.4
	c-6.8-1.4-26.8-2.6-31.6-1.4c-5.6,1.4-39.8,5.4-41.2,5.6l-1.6,0.2l-18.4-31.2c-0.2-0.2-0.6-0.6-1-1.2c-3.6,4.4-7.6,7-12.4,7.8
	C1142.8,460.8,1122,468.8,1104.2,474z" title=""></path>
<path id="_x36_14" class="st2 area" d="M878,875.4c-13-4.4-25-4.6-37.8-12.2c8,9.2,13.2,15.6,13.2,20c0,7.8,1.8,30.6,6.2,37.8
	c4.4,7.2,24.8,26.6,27.4,29c4.6,2.2,18.2,9.6,25,18.2c2.2,2.8,3.8,5.4,5.2,7.8c2,3.4,3.6,6,6.6,8.2c2,1.4,3.8,4.2,6.2,7.2
	c0.4-15.2,15.8-26.4,32.6-30.2c4.6-1.2,5.8-10.4,1.2-14c-25.6-18.6-58-17.4-76.6-47.6c-2.4-3.4-9.2-4.6-11.6-8.2
	c-3.2-4.8,1.4-10.2,7.2-12.2C881,877.6,879.4,876.2,878,875.4z" title=""></path>
<path id="_x36_12" class="st3 area" d="M1003.2,945c-8.2-8.2-11.6-23.2-22-26.6c-31.4-11.6-60.4-26.6-90.4-39.4
	c-8.2-2.4-19.8,5.8-15,12.8c2.4,3.4,9.2,4.6,11.6,8.2c18.6,30.2,51,29,76.6,47.6c4.6,3.4,3.4,12.8-1.2,14
	c-16.8,3.8-32.2,15-32.6,30.2c0.2,0.2,0.4,0.6,0.6,0.8c4.6,6.4,10.2,14.6,16.4,14.6c11.8,0,43.6,12.8,51.8,18.2
	c2.6,1.6,5,3.2,7.4,4.6c5.6,3.4,10.8,6.6,14.8,10.6c5.2,5.2,10.2,10.2,18.8,10.2c2.2,0,4.6-0.2,7.2-0.4c7.8-0.6,16-1.2,22.8,3.4
	c6.8,4.4,17.4,10,20.6,11.6c7.8-3.2,20-9,22.4-12.4c4.2-5.4,22.6-25.2,23.4-26c0,0,4.2-5.4-0.2-12c-2.2-3.2-4.2-6.2-6-8.6
	c-9.6-2.8-19.4-4.6-29.2-6.6c-26.6-4.6-60.4,15-75.4-8.2c-4.6-5.8,9.2-15,7-29c0-0.8,0.6-2.8,1.8-4.2c-2.8-2.2-5.6-3.8-8.8-3.8
	C1016,953.2,1007.8,950.8,1003.2,945z" title=""></path>
<path id="_x36_13" class="st1 area" d="M1426.4,878.6c-2.2-2.8-4.4-7-6.8-11.4c-3.2-6.2-6.8-13.2-10.4-15.2c-7.2-4.4-14.8-14.6-14.8-19.8
	c0-1,0.2-7,0.6-15.4c-8.2-3.2-16.8-5.4-26.6-3.8c-11.6,2.4-19.8,9.2-29,14c-10.4,4.6-25.6-10.4-30.2,0
	c-8.2,18.6-31.4,30.2-49.8,25.6c-23.2-7-44-23.2-69.6-24.4c-4.6,0-7-4.6-8.2-8.2c-3.4-5.8,1.2-14-3.4-19.8
	c-11.6-13.8-23.2-39.4-44-34.8c-11.6,3.4-24.4,8.2-36,2.4c-14-5.8-25.6,5.8-37.2,14c-11.6,7-25.6,3.4-39.4,0
	c-18.6-4.6-52.2-10.4-52.2,14c0,5.8,17.4,10.4,20.8,19.8c2.4,5.8,2.4,11.6,8.2,11.6c16.2,3.4,31.4,3.4,40.6,20.8
	c1.2,3.4,9.2,3.4,12.8,7c1.2,2.4,0,5.8-1.2,8.2c-7,10.4-17.4,16.2-24.4,26.6c-2.4,4.6-4.6,12.8,2.4,12.8c37.2,1.2,76.6-4.6,109,17.4
	c-11.6,10.4-26.6,16.2-37.2,30.2c-16.2,19.8-43-2.4-65,7c-2.4,1.2-3.4,4.6-3.4,5.8c2.4,14-11.6,23.2-7,29c15,23.2,48.8,3.4,75.4,8.2
	c9.8,2,19.6,3.8,29.2,6.6c-2.8-3.8-4.8-6.2-4.8-6.2l-1.8-2.2l2.4-1.4c1.4-0.8,33.4-20.8,50-23.6c5.2-0.8,10-1.8,14.6-2.8
	c9.8-2,19-4,29.4-4c13.4,0,51,3.2,71.2,5l6.6,0.6c16.2,1.4,42.2,2.8,47.6,2.8c4.6,0,19-7.8,24.2-13c5.2-5.2,42.2-50.4,48.8-59.6
	C1424.6,892.6,1430.6,884,1426.4,878.6z" title=""></path>
<path id="_x35_67" class="st2 area" d="M1050.8,391.8c9.2,5.8,15,16.2,24.4,18.6c22,7,38.2,24.4,59.2,31.4c8.2,2,15.6-0.4,21-7.4
	c-3-3.8-10.4-14.4-10.4-22c0-7.8-4-25-9-31.2c-5.2-6.4-21.2-18.6-21.4-18.6l-0.6-0.6c-4.8-7.4-15.2-25.2-9.6-30.8
	c3-3,5.2-16.6,5.8-24.4c0-1.2-1.6-35.6-1.6-45.2c0-9.2-1.4-16.6-8.8-22.4c-2.2-1.8-4.2-3.6-6-5.2c-4.8-4.2-8.2-7.2-12-7.2
	c-6.6,0-56.6-3.2-58.6-3.2h-1.2l-0.6-1c-1-1.4-2.6-3.6-4.6-6c-5.6,15.8-24.2,26.4-34.6,40.2c-3.4,5.8,14,14,15,19.8
	c3.4,15,11.6,31.4,2.4,46.4c-4.6,5.8-15.2,3.4-17.4,10.4c-4.4,11,9,20,6.4,28.8c9.6,7.6,17.4,18,28.4,24.6
	C1026.4,391.8,1040.4,386,1050.8,391.8z" title=""></path>
<path id="_x35_88" class="st2 area" d="M833.8,439.2c2,1.5,5.4,1.9,8.6,1.5c4-0.5,7.6-2.3,7.6-4.9c2.4-14-15-22-23.2-34.8
	c-8.2-10.4,14-11.6,10.4-18.6c-3.4-11.6-16.2-23.2-27.8-20.8c-15.8,1.8-42.6-1.8-53.4-20.8c-4.6-7,4.6-11.6,7-18.6
	c0-2.4,1.2-4.6-1.2-7c-9.2-10.4-20.8-15-27.8-26.6c-3-3.8-5.2-8.2-7.6-12.6c-0.2,0-0.4,0-0.6,0c-11.6-4.4-22.6-10.4-35-11.6v21.4
	c0,7.6-7.2,16.6-16.2,20.2c-2.6,1-5.2,1.4-7.8,1.2c0.4,3,1.6,6,3.2,8.6c9.2,12.8,25.6,17.4,33.6,31.4c8.2,12.8,3.4,30.2,17.4,39.4
	c4.6,3.4,17.4-1.2,18.6,3.4c2.4,12.8,18.6,15,18.6,23.2c0,0.4,0,0.6,0,1c0.4,0,0.8,0.2,1.2,0.2C787.4,420.8,809.4,423,833.8,439.2z" title=""></path>
<path id="_x35_75" class="st3 area" d="M741,265.2c18.6-3.4,19.8,19.8,30.2,31.4c9.2,9.2,18.6,17.4,29,22c8.2,3.4,17.4-1.2,24.4,5.8
	c5.8,5.8,10.4,11.6,16.2,16.2c2.4,1.2,7,2.4,8.2,1.2c10.4-14,24.4-5.8,36,0c11.6,7,18.6-5.8,22-14c4.6-11.6-10.4-16.2-16.2-25.6
	c-1.2-1.2-1.2-4.6,0-5.8c7-5.8,12.8-11.6,17.4-18.6c8.2-8.2-7-14-11.6-22c-1.2-3.4,0-7,2.4-8.2c12.8-12.8,7-29-1.2-41.8
	c-2.8-3.4-1.8-6.4,0.4-8.8c-4.2-11.2-7-24-20.2-28.4c-18.6-4.6-34.8,5.8-52.2,4.6c-15-2.4-31.4-10.4-43-7c-15,3.4-7,29-18.6,43
	c-8.2,9.2-24.4,8.2-36,3.4c-4.6-2.4-7-10.4-12.8-10.4c-7.4-0.8-16-2.2-22.8-6.4c-1.2,3.6-2.2,6.8-3.6,9c-3.6,6-2.6,26.8-1.8,34.2
	l3.8,21.4v3c12.4,1.4,23.4,7.2,35,11.6C731.8,276.8,735.2,266.4,741,265.2z" title=""></path>
<g id="G_32" class="area" title="">
	<path id="PATH_33" d="M788.8,117.8c0,1.4-0.4,2.4-1.2,3.2c-0.8,0.8-2,1-3.2,1c-0.8,0-1.6-0.2-2.2-0.8c-0.6-0.6-1-1.2-1-2
		c0-1,0.4-2,1.2-3.4c0.6-1.2,1.4-2.2,2.2-3C787.4,114.2,788.8,115.8,788.8,117.8z M787.6,118.6c0-0.6-0.4-1.2-1.4-2
		c-0.8-0.8-1.4-1.2-2.2-1.4c-1,1.4-1.6,2.4-1.6,3.2c0,0.4,0.2,0.8,0.8,1.2c0.4,0.2,0.8,0.4,1.4,0.4c0.8,0,1.6-0.2,2.2-0.4
		C787.4,119,787.6,118.8,787.6,118.6z" class="area" title=""></path>
	<path id="PATH_34" d="M801,117.8c0,2.8-1.8,4.2-5.6,4.2c-1.4,0-2.4-0.2-3-0.6c-0.8-0.4-1.2-1.4-1.2-2.6c0-0.6,0.2-1.2,0.4-1.8
		c0.2-0.2,0.2-0.4,0.4-0.4c0.2,0,0.2,0.2,0.2,0.6c0,0.2,0,0.4,0,0.6c0,0.8,0.4,1.4,1.2,1.6c0.4,0.2,1.2,0.2,2.2,0.2
		c3,0,4.4-0.4,4.4-1.4c0-1.4-1.8-3.4-5.2-5.8l0.6-2c0-0.2,0.2-0.2,0.2-0.2s0.2,0,0.4,0.2C799.2,113,801,115.6,801,117.8z" class="area" title=""></path>
	<path id="PATH_35" d="M809,122h-1.4c-1.4,0-2.6-0.6-3-1.8c-0.4-0.8-0.6-2.2-0.6-3.8v-3.8c0-1.8-0.2-4.4-0.4-7.8l1.2-1.4
		c0.2-0.2,0.4-0.2,0.4,0c0.2,1.8,0.4,4.4,0.4,7.8v5.8c0,1.6,0.8,2.4,2.4,2.4h1V122z" class="area" title=""></path>
	<path id="PATH_36" d="M813.6,118c0,2.6-1.4,4-4,4H808v-2.4h1.4c2,0,3-0.4,3-1s-0.4-1.4-1.4-2.4l0.8-2c0-0.2,0.2-0.2,0.2-0.2
		s0.2,0.2,0.4,0.4C813.2,115.4,813.6,116.8,813.6,118z M813,126.4l-1.6,1.6l-1.6-1.6l1.6-1.6L813,126.4z" class="area" title=""></path>
	<path id="PATH_37" d="M821.8,100.6c-0.8,0.8-2,1-3.2,1c-0.2,0-0.4,0-0.8,0c-0.4,0-0.6,0-0.8,0c-0.2,0-0.4,0.2-0.6,0.4
		c-0.2,0.2-0.4,0.4-0.4,0.4c-0.2,0-0.2-0.2-0.2-0.4c0-0.2,0.2-0.6,0.4-1c0.2-0.6,0.4-0.8,0.6-0.8c0.2,0,0.6,0,1.2,0.2
		c0.6,0,1,0.2,1.2,0.2c1.2,0,2,0,2.6-0.2c0.4,0,0.6-0.2,0.6-0.2h0.2C822.2,100.2,822,100.4,821.8,100.6z M820.4,119.6
		c0,0.8-0.2,1.6-0.6,2.2c-0.2,0.4-0.4,0.6-0.4,0.6s-0.2-0.2-0.2-0.8c0-2.4-0.4-8-1.2-17l1.6-1.6c0.2-0.2,0.2-0.2,0.2-0.2
		s0,0.2,0,0.4C820.4,105.8,820.4,111.2,820.4,119.6z" class="area" title=""></path>
</g>
<g id="G_38" class="area" title="">
	<path id="PATH_39" d="M810,258h-0.8c-0.8,0-1.4-0.2-2-0.8c-0.4-0.4-0.8-0.8-1.2-1.6c-0.4,0.8-1,1.4-1.6,1.8
		c-0.8,0.4-1.8,0.6-3.4,0.6c-2.8,0-4.2-1-4.2-3c0-0.6,0.2-1.4,0.6-2c0.2-0.2,0.2-0.4,0.4-0.4s0.2,0.2,0.2,0.4s0,0.2,0,0.6
		c0,0.2,0,0.4,0,0.6c0,1.2,1,1.8,3,1.8c2.8,0,4.2-0.6,4.2-1.6c0-0.6-0.8-2.8-2.4-6.6l0.8-1.6c0.2-0.2,0.2-0.4,0.2-0.4
		s0.2,0.2,0.2,0.4c0.6,1.6,1.6,4,2.8,7.2c0.6,1.6,1.4,2.4,2.6,2.4h0.6V258L810,258z" class="area" title=""></path>
	<path id="PATH_40" d="M819.8,258h-1.6c-1.8,0-3-0.6-3.8-1.8c-0.6,1.2-2,1.8-4.2,1.8H809v-2.4h1.8c2,0,3-0.8,3.2-2.2
		c0-0.6,0.2-1,0.4-1c0.2,0,0.4,0.4,0.4,1c0.2,1.4,1.2,2.2,3,2.2h1.8v2.4H819.8z M813.2,262.4l-1.6,1.6l-1.6-1.6l1.6-1.6L813.2,262.4
		z M816.6,262.4L815,264l-1.6-1.6l1.6-1.6L816.6,262.4z" class="area" title=""></path>
	<path id="PATH_41" d="M827.2,258h-0.8c-1.8,0-3-0.6-3.6-2c-0.2,0.6-0.6,1-1.2,1.4c-0.6,0.4-1.2,0.6-1.8,0.6H819v-2.4h0.8
		c1.6,0,2.4-0.6,2.4-2v-7c0-2.6,0-4.6-0.2-6l1.8-1.4v13.4c0,2,0.8,3,2.6,3h0.8L827.2,258L827.2,258z" class="area" title=""></path>
	<path id="PATH_42" d="M835,252.4c0,1.8-0.2,3-0.6,3.6c-1,1.4-2.6,2-5.2,2h-2.8v-2.4h2c3.4,0,5.2-0.6,5.6-1.6c0.2-0.4,0-0.8-0.2-1.2
		c-0.8,0.2-1.6,0.2-2.6,0.2c-1.8,0-2.8-0.8-2.8-2.4c0-1,0.2-2.2,0.8-3.2c0.6-1.2,1.4-1.8,2.4-1.8c0.8,0,1.6,0.6,2.2,1.6
		C834.6,248.8,835,250.4,835,252.4z M831,241.4l-1.6,1.6l-1.6-1.6l1.6-1.6L831,241.4z M833.4,250.6c0-0.6-0.2-1.2-0.6-1.8
		s-1-0.8-1.6-0.8c-0.4,0-0.8,0.2-1.2,0.4s-0.4,0.6-0.4,1c0,0.8,0.6,1.2,2,1.2C832,250.8,832.6,250.8,833.4,250.6z M834.4,241.4
		l-1.6,1.6l-1.6-1.6l1.6-1.6L834.4,241.4z" class="area" title=""></path>
	<path id="PATH_43" d="M839.6,255.6c0,0.8-0.2,1.6-0.6,2.2c-0.2,0.4-0.4,0.6-0.4,0.6s-0.2-0.2-0.2-0.8c0-2.4-0.4-8-1.2-17l1.6-1.6
		c0.2-0.2,0.2-0.2,0.2-0.2s0,0.2,0,0.4C839.6,241.8,839.6,247.2,839.6,255.6z" class="area" title=""></path>
</g>
<g id="G_44" class="area" title="">
	<path id="PATH_45" d="M921.6,293.4h-0.8c-0.8,0-1.4-0.2-2-0.8c-0.4-0.4-0.8-0.8-1.2-1.6c-0.4,0.8-1,1.4-1.6,1.8
		c-0.8,0.4-1.8,0.6-3.4,0.6c-2.8,0-4.2-1-4.2-3c0-0.6,0.2-1.4,0.6-2c0.2-0.2,0.2-0.4,0.4-0.4c0.2,0,0.2,0.2,0.2,0.4
		c0,0.2,0,0.2,0,0.6c0,0.2,0,0.4,0,0.6c0,1.2,1,1.8,3,1.8c2.8,0,4.2-0.6,4.2-1.6c0-0.6-0.8-2.8-2.4-6.6l0.8-1.6
		c0.2-0.2,0.2-0.4,0.2-0.4s0.2,0.2,0.2,0.4c0.6,1.6,1.6,4,2.8,7.2c0.6,1.6,1.4,2.4,2.6,2.4h0.6L921.6,293.4L921.6,293.4z" class="area" title=""></path>
	<path id="PATH_46" d="M931.4,293.4h-1.6c-1.8,0-3-0.6-3.8-1.8c-0.6,1.2-2,1.8-4.2,1.8h-1.2V291h1.8c2,0,3-0.8,3.2-2.2
		c0-0.6,0.2-1,0.4-1c0.2,0,0.4,0.4,0.4,1c0.2,1.4,1.2,2.2,3,2.2h1.8v2.4H931.4z M924.8,297.8l-1.6,1.6l-1.6-1.6l1.6-1.6L924.8,297.8
		z M928.4,297.8l-1.6,1.6l-1.6-1.6l1.6-1.6L928.4,297.8z" class="area" title=""></path>
	<path id="PATH_47" d="M936.2,289.4c0,2.6-1.4,4-4,4h-1.6V291h1.4c2,0,3-0.4,3-1s-0.4-1.4-1.4-2.4l0.8-2c0-0.2,0.2-0.2,0.2-0.2
		s0.2,0.2,0.4,0.4C935.8,287,936.2,288.2,936.2,289.4z M935.6,297.8l-1.6,1.6l-1.6-1.6l1.6-1.6L935.6,297.8z" class="area" title=""></path>
	<path id="PATH_48" d="M956.8,289.6c0,0.4-0.2,0.8-0.6,1.6c-0.4,0.8-0.8,1.2-1,1.2c-0.6,0-1.4-0.2-2.4-0.4s-1.8-0.4-2.4-0.4
		c-1,0-1.8,0.2-2.2,0.4c0.4,3.4,0.6,6,0.6,7.6c0,0.8-0.2,1.6-0.8,2.6c-0.2,0.2-0.2,0.4-0.2,0.4s0,0,0-0.2c-0.2-3.2-0.4-6.4-0.8-9.6
		c0-0.4,0.2-0.8,0.6-1.4c0.4-0.4,0.6-0.8,1-1c0.4-0.4,1-0.4,1.6-0.4c-0.2-0.6-0.2-1-0.2-1.4c0-0.6,0.2-1.4,0.8-2.2
		c0.6-0.8,1.2-1.2,2-1.2c1,0,2,0.6,3,1.6C956.4,287.6,956.8,288.6,956.8,289.6z M955.2,290.2c-0.2-0.6-0.8-1.4-1.4-2
		c-0.8-0.8-1.4-1-2.2-1c-1,0-1.4,0.4-1.4,1c0,0.4,0.2,0.8,0.4,1.6C952,289.6,953.6,289.8,955.2,290.2z" class="area" title=""></path>
	<path id="PATH_49" d="M969.4,293.4h-0.8c-0.8,0-1.2-0.2-1.6-0.4c0,0.2,0,0.4,0,0.6c0,1.8-0.6,3.6-1.8,5.4c-1,1.6-2,2.2-2.6,2.2
		c-1.6,0-2.8,0-4-0.2c-0.4,0-0.6-0.2-0.6-0.2s0.2-0.2,0.6-0.2c1.6-0.4,3.2-1.2,4.8-2.4c1.6-1.4,2.6-2.8,2.6-4.2c0-0.8-0.6-2-2-3.4
		l1-1.8c0-0.2,0.2-0.2,0.2-0.2l0.2,0.2c0.6,0.8,1,1.4,1.4,1.6c0.6,0.4,1.4,0.8,2.2,0.8h0.6v2.2H969.4z" class="area" title=""></path>
	<path id="PATH_50" d="M985,287.6l-0.8,1.6c-1.4,0-2.6,0-3.2,0.2c-0.8,0.4-2,0.8-3.6,1.6c-1.6,0.8-2.8,1.4-3.6,1.6
		c-1.2,0.4-2.6,0.6-3.8,0.6h-1.4v-2.4h1.6c1.8,0,3.4-0.4,4.8-1l4.6-2c-0.8-0.2-2-0.6-3.6-1.2c-1.4-0.6-2.2-0.8-2.6-0.8
		c-0.8,0-1.6,0.4-2.4,1c-0.2,0.2-0.2,0.2-0.4,0.2c-0.2,0-0.2,0-0.2-0.2v-0.2c0.6-2,1.8-2.8,3.4-2.8c0.6,0,1.4,0.2,2.2,0.6
		c1.6,0.8,2.8,1.2,3.6,1.6c1.4,0.4,3,0.8,4.8,0.8c0.4,0,0.6,0,0.6,0.2C985.2,287.2,985.2,287.4,985,287.6z M979.2,278.6l-1.6,1.6
		l-1.6-1.6l1.6-1.6L979.2,278.6z" class="area" title=""></path>
</g>
<g id="G_51" class="area" title="">
	<path id="PATH_52" d="M1045,327.6c0,1.4-0.4,2.6-1.4,3.2c-0.6,0.4-1.8,0.8-3.6,1c-2,0.4-4,0.6-6.2,0.6c-5.2,0-8-1.4-8-4.4
		c0-1,0.4-2,1.2-3c0.2-0.2,0.2-0.4,0.4-0.4c0.2,0,0.2,0,0.2,0.2c0,0,0,0.2,0,0.4c-0.2,0.6-0.4,1.2-0.4,1.8c0,2,2.6,3,7.6,3
		c2.4,0,4.6-0.2,6.2-0.4c2-0.4,2.8-0.8,2.8-1.4c0-0.4-0.4-1.2-1.4-2.4l1-1.8c0.2-0.2,0.2-0.2,0.4,0
		C1044.6,325.2,1045,326.4,1045,327.6z M1035,320.4l-1.6,1.6l-1.6-1.6l1.6-1.6L1035,320.4z M1038.4,320.4l-1.6,1.6l-1.6-1.6l1.6-1.6
		L1038.4,320.4z" class="area" title=""></path>
	<path id="PATH_53" d="M1053,332h-1.4c-1.4,0-2.6-0.6-3-1.8c-0.4-0.8-0.6-2.2-0.6-3.8v-3.8c0-1.8-0.2-4.4-0.4-7.8l1.2-1.4
		c0.2-0.2,0.4-0.2,0.4,0c0.2,1.8,0.4,4.4,0.4,7.8v5.8c0,1.6,0.8,2.4,2.4,2.4h1L1053,332L1053,332z" class="area" title=""></path>
	<path id="PATH_54" d="M1057.6,328c0,2.6-1.4,4-4,4h-1.6v-2.4h1.4c2,0,3-0.4,3-1s-0.4-1.4-1.4-2.4l0.8-2c0-0.2,0.2-0.2,0.2-0.2
		s0.2,0.2,0.4,0.4C1057.2,325.4,1057.6,326.8,1057.6,328z M1057.6,319l-1.6,1.6l-1.6-1.6l1.6-1.6L1057.6,319z" class="area" title=""></path>
	<path id="PATH_55" d="M1062.4,329.6c0,0.8-0.2,1.6-0.6,2.2c-0.2,0.4-0.4,0.6-0.4,0.6s-0.2-0.2-0.2-0.8c0-2.4-0.4-8-1.2-17l1.6-1.6
		c0.2-0.2,0.2-0.2,0.2-0.2s0,0.2,0,0.4C1062.2,315.8,1062.4,321.2,1062.4,329.6z" class="area" title=""></path>
	<path id="PATH_56" d="M1074.8,332h-2.2c-0.2,2.8-1.2,5-3.2,7c-0.6,0.6-1,1-1.2,1c-1,0-2.4-0.2-3.8-0.4c-0.4,0-0.8-0.2-0.8-0.2
		s0.2-0.2,0.8-0.4c1.6-0.4,3.2-1.4,4.6-2.4c0.6-0.6,1.2-1,1.6-1.8c0.6-0.8,1-1.6,1-2.2V332h-2.6c-2,0-2.8-0.8-2.8-2.4
		c0-1,0.2-2,0.8-3.2s1.4-2,2.2-2c1,0,1.8,0.6,2.4,2c0.4,1,0.8,2,0.8,3.2h2.2v2.4H1074.8z M1071.2,329.6c0-0.6-0.2-1.2-0.6-1.8
		c-0.4-0.8-1-1-1.6-1c-0.4,0-0.8,0.2-1,0.4c-0.2,0.2-0.4,0.6-0.4,1.2c0,1,0.8,1.4,2.4,1.4C1070.2,329.8,1070.6,329.6,1071.2,329.6z" class="area" title=""></path>
	<path id="PATH_57" d="M1079.6,328c0,2.6-1.4,4-4,4h-1.6v-2.4h1.4c2,0,3-0.4,3-1s-0.4-1.4-1.4-2.4l0.8-2c0-0.2,0.2-0.2,0.2-0.2
		s0.2,0.2,0.4,0.4C1079.2,325.4,1079.6,326.8,1079.6,328z M1079,336.4l-1.6,1.6l-1.6-1.6l1.6-1.6L1079,336.4z" class="area" title=""></path>
</g>
<g id="G_58" class="area" title="">
	<path id="PATH_59" d="M727.2,351.6c-0.2,0.6-0.4,1.2-0.6,1.6c-0.4,0.6-0.8,1.2-1.4,1.8c-1.2,1.2-2.6,1.6-4.6,1.6
		c-1.6,0-3.4-0.4-5-1.2c-1.6-0.8-2.6-1.8-3.2-3c-0.6-1.4-0.6-2.8,0.2-4.4c0.4-0.8,1-1.6,1.8-2.4c0.6-0.6,1.2-0.8,1.6-1.2
		c0.2-0.2,0.4-0.2,0.6,0c0.2,0,0.2,0.2,0,0.2l-0.2,0.2c-1,0.8-1.8,1.6-2.2,2.6c-0.4,0.8-0.6,1.8-0.2,2.8c0.4,1.2,1.4,2.2,2.8,3
		c1.8,0.8,3.4,1.4,5.2,1.4c1.4,0,2.4-0.2,3-0.6c0.2-0.2,0.4-0.4,0.6-0.6c0.2-0.4,0.4-1.2,0.6-2c0-0.6,0-1.8-0.2-3.6l1.4-1
		c0.2-0.2,0.4-0.2,0.4-0.2s0,0.2,0.2,0.4C727.8,348.6,727.6,350.2,727.2,351.6z M725.8,341.4l-2.2,0.6l-0.8-2.2l2.2-0.8L725.8,341.4
		z" class="area" title=""></path>
	<path id="PATH_60" d="M732.4,351.8c-0.4,0.8-0.8,1.4-1.4,1.8c-0.4,0.2-0.6,0.4-0.6,0.4s0-0.2,0.2-0.8c1-2,3.2-7.4,6.4-15.8l2.2-0.6
		c0.2,0,0.4,0,0.4,0s0,0.2,0,0.4C738.4,339.6,736.2,344.6,732.4,351.8z" class="area" title=""></path>
	<path id="PATH_61" d="M745.4,361l-0.8-0.4c-0.6-0.4-1.2-0.8-1.4-1.4c-0.2-0.4-0.2-1-0.4-2c-0.8,0.6-1.6,0.8-2.2,0.8
		c-0.8,0-2-0.2-3.2-0.8c-2.6-1.2-3.4-2.8-2.4-4.6c0.2-0.6,0.8-1.2,1.4-1.6c0.2-0.2,0.4-0.2,0.6-0.2s0.2,0.2,0,0.4
		c0,0.2-0.2,0.2-0.2,0.4c-0.2,0.2-0.2,0.4-0.2,0.4c-0.6,1,0.2,2,2,3c2.6,1.2,4,1.4,4.6,0.4c0.2-0.6,0.4-2.8,0.6-7l1.4-1
		c0.2-0.2,0.4-0.2,0.4-0.2s0,0.2,0,0.4c-0.2,1.8-0.4,4.2-0.8,7.6c-0.2,1.8,0.2,2.8,1.2,3.4l0.6,0.2L745.4,361z" class="area" title=""></path>
	<path id="PATH_62" d="M746.4,366.4l-2,0.8l-0.8-2l2-0.8L746.4,366.4z M754.2,365.4l-1.4-0.6c-1.6-0.8-2.4-2-2.6-3.2
		c-1.2,0.8-2.6,0.8-4.6-0.2l-1.2-0.6l1-2l1.6,0.8c1.8,0.8,3,0.6,3.8-0.6c0.4-0.6,0.6-0.8,0.8-0.6s0.2,0.4,0,1
		c-0.6,1.4,0,2.6,1.8,3.4l1.6,0.8L754.2,365.4z M749.4,368l-2,0.8l-0.8-2l2-0.8L749.4,368z" class="area" title=""></path>
	<path id="PATH_63" d="M752.6,369l2-0.6l0.6,2l-2,0.6L752.6,369z M752.8,372.6l2-0.6l0.6,2l-2,0.6L752.8,372.6z M763,369.8l-1.4-0.6
		c-1.6-0.8-2.4-2-2.6-3.2c-1.2,0.8-2.6,0.8-4.6-0.2l-1.2-0.6l1-2l1.6,0.8c1.8,0.8,3,0.6,3.8-0.6c0.4-0.6,0.6-0.8,0.8-0.6
		c0.2,0.2,0.2,0.4,0,1c-0.6,1.4,0,2.6,1.8,3.4l1.6,0.8L763,369.8z M755.8,370.6l2-0.6l0.6,2l-2,0.6L755.8,370.6z" class="area" title=""></path>
	<path id="PATH_64" d="M779,373c-0.6,1-1.2,1.8-2,2.2c-1,0.6-2,0.6-3,0c-1.2-0.6-1.8-1.6-1.8-2.8c-1.2,0.6-2.2,0.8-3.2,0.2
		c-1.4-0.6-2-1.6-1.8-2.8c-1.2,0.6-2.4,0.6-3.6,0.2l-1.2-0.6l1-2l1.4,0.8c1.2,0.6,2.4,0.4,3.4-1c0.2-0.4,0.4-0.4,0.6-0.4
		s0.2,0.4,0,0.6c-0.6,1.4-0.2,2.6,1.2,3.2c0.8,0.4,1.4,0.4,2,0.2c0.4-0.2,0.8-0.6,1.2-1.2c0.2-0.4,0.4-0.4,0.6-0.4
		c0.2,0,0.2,0.2,0,0.6c-0.6,1.6-0.2,2.6,1,3.2c1.4,0.6,2.2,0.6,2.6,0c0.2-0.6,0.2-1.4,0-2.6l1.6-1.2c0.2-0.2,0.4-0.2,0.4-0.2
		s0,0.2,0.2,0.6C779.6,371.2,779.4,372.2,779,373z" class="area" title=""></path>
</g>
<g id="G_65" class="area" title="">
	<path id="PATH_66" d="M839.8,366l-0.6-0.4c-0.8-0.6-1.2-1.2-1.6-1.8c-0.2-0.8-0.2-1.6,0.4-2.2c-3,0.4-6.4-0.6-10.2-3.2
		c-4-2.6-5.2-5.2-3.4-7.6c0.6-0.8,1.4-1.4,2.6-1.8c0.2,0,0.4,0,0.6,0c0.2,0,0.2,0.2,0,0.4l-0.2,0.2c-0.6,0.4-1,0.8-1.4,1.2
		c-1.2,1.6,0.2,3.6,3.6,6.2c4.2,2.8,7.6,3.8,10.2,3c0.6-0.2,0.8-0.2,1-0.2c0.2,0,0,0.2,0,0.4c0,0.2-0.2,0.4-0.6,0.6
		c-0.2,0.2-0.4,0.4-0.6,0.6c-0.6,0.8-0.4,1.8,1,2.6l0.6,0.4L839.8,366z M836,349.4l-2.2,0.4l-0.4-2.2l2.2-0.4L836,349.4z M839,351.2
		l-2.2,0.4l-0.4-2.2l2.2-0.4L839,351.2z" class="area" title=""></path>
	<path id="PATH_67" d="M848,371.6l-1.2-0.8c-1.6-1-2.2-2.2-2-3.6c-1.2,0.6-2.8,0.4-4.4-0.8l-1-0.8l1.2-2l1.4,1c1.6,1,3,1,4,0
		c0.4-0.4,0.6-0.6,0.8-0.4s0.2,0.4-0.2,1c-0.8,1.4-0.4,2.6,1.2,3.6l1.4,1L848,371.6z M848.8,358l-2.2,0.4l-0.4-2.2l2.2-0.4
		L848.8,358z M851.8,360l-2.2,0.4l-0.4-2.2l2.2-0.4L851.8,360z" class="area" title=""></path>
	<path id="PATH_68" d="M863.4,376.8c-0.6,1-1.4,1.6-2.4,2s-2,0.2-3-0.4c-1.2-0.8-1.6-1.8-1.4-3c-1.2,0.6-2.4,0.4-3.2-0.2
		c-1.2-0.8-1.8-1.8-1.4-3c-1.2,0.4-2.4,0.4-3.6-0.4l-1.2-0.8l1.2-2l1.4,0.8c1.2,0.8,2.4,0.6,3.4-0.6c0.2-0.2,0.4-0.4,0.6-0.2
		c0.2,0,0.2,0.4,0,0.6c-0.8,1.4-0.4,2.4,0.8,3.4c0.8,0.6,1.4,0.6,2,0.4c0.4-0.2,0.8-0.4,1.4-1c0.2-0.2,0.4-0.4,0.6-0.2
		c0.2,0.2,0.2,0.4,0,0.6c-0.8,1.4-0.6,2.6,0.6,3.4c1.2,0.8,2,1,2.4,0.4c0.4-0.4,0.4-1.4,0.4-2.6l1.8-1c0.2-0.2,0.4-0.2,0.4-0.2
		s0,0.2,0,0.6C864.2,375,864,376.2,863.4,376.8z M862,367l-2,0.4l-0.4-2l2-0.4L862,367z M864.8,369l-2,0.4l-0.4-2l2-0.4L864.8,369z
		 M865.2,365.4l-2,0.4l-0.4-2l2-0.4L865.2,365.4z" class="area" title=""></path>
	<path id="PATH_69" d="M873.6,383.8c-1.6,2.4-3.8,2.4-7,0.4c-1.2-0.8-1.8-1.4-2.2-2.2c-0.4-0.8-0.2-1.8,0.4-2.8
		c0.4-0.4,0.8-1,1.4-1.2c0.2-0.2,0.4-0.2,0.6-0.2s0,0.2-0.2,0.6c-0.2,0.2-0.2,0.4-0.4,0.4c-0.4,0.6-0.4,1.4,0,2
		c0.2,0.4,0.8,0.8,1.6,1.4c2.4,1.6,3.8,2,4.4,1.4c0.8-1.2,0.4-3.8-1-7.8l1.6-1.4c0.2-0.2,0.2-0.2,0.4-0.2c0,0,0.2,0.2,0.2,0.4
		C874.8,379,874.8,382,873.6,383.8z" class="area" title=""></path>
	<path id="PATH_70" d="M880.2,392.4c-1.6,2.4-4,4-6.8,4.6c-1,0.2-1.4,0.2-1.6,0.2c-1-0.6-2-1.4-3-2.4c-0.4-0.4-0.6-0.6-0.6-0.6
		s0.4,0,0.8,0.2c1.6,0.6,3.4,0.6,5.2,0.4c0.8,0,1.6-0.2,2.4-0.6c1-0.4,1.6-0.8,2-1.2l0.4-0.6l-2.2-1.4c-1.6-1-1.8-2.2-1-3.4
		c0.6-0.8,1.4-1.6,2.6-2.2c1.2-0.6,2.2-0.8,3-0.4c1,0.8,1.4,2,0.8,3.6C881.6,389.8,881,391.2,880.2,392.4z M879.8,390.2
		c0.4-0.6,0.6-1.2,0.4-1.8c0-0.8-0.4-1.4-0.8-1.6s-0.8-0.4-1.2-0.2c-0.4,0-0.8,0.4-1,0.6c-0.6,0.8-0.2,1.6,0.8,2.2
		C878.6,389.6,879.2,389.8,879.8,390.2z" class="area" title=""></path>
	<path id="PATH_71" d="M890,400l-0.6-0.4c-0.6-0.4-1-0.8-1.2-1.2c-0.2,0.2-0.2,0.4-0.4,0.6c-1,1.6-2.6,2.8-4.6,3.4
		c-1.8,0.6-2.8,0.8-3.4,0.4c-1.2-0.8-2.2-1.6-3.2-2.4c-0.2-0.2-0.4-0.4-0.4-0.6s0.2,0,0.6,0c1.4,0.6,3.2,0.8,5.2,0.6
		c2.2-0.2,3.6-0.8,4.4-2c0.4-0.8,0.6-2,0.2-4l1.8-1c0.2,0,0.2-0.2,0.2-0.2s0,0.2,0,0.4c0,1,0.2,1.8,0.2,2.2c0.2,0.8,0.8,1.4,1.4,1.8
		l0.6,0.4L890,400z" class="area" title=""></path>
	<path id="PATH_72" d="M900.4,402.4c-0.4,0.8-1,1.4-1.6,1.8c-1,0.6-1.8,0.8-2.2,0.4c-0.8-0.6-1.8-2-2.6-4.2c-1,0.2-1.6,0.4-1.8,0.4
		c-0.6,0-1.4-0.2-2-0.6l-0.8-0.6l1.2-2l1.2,0.8c0.8,0.6,1.6,0.6,2.8,0.2c0.6-0.2,1.6-0.6,3-1.2c1-0.4,1.8-0.4,2.4,0
		c0.8,0.6,1.2,1.4,1.2,2.6C901,401,900.8,401.8,900.4,402.4z M898.6,403c0.4-0.4,0.6-1.2,0.6-2c0-1-0.2-1.6-0.6-1.8
		c-0.4-0.4-1.4-0.2-2.8,0.4c0,0.4,0.4,1.2,0.8,2c0.6,0.8,1,1.4,1.4,1.6C898.2,403.2,898.4,403.2,898.6,403z" class="area" title=""></path>
</g>
<g id="G_73" class="area" title="">
	<path id="PATH_74" d="M608.6,389H604c-0.6,0-1.2,0-1.6,0.2c-0.8,0.2-1,0.6-1,1c0,0.2,1,0.4,2.8,0.8c2,0.4,2.8,0.8,2.8,1.2
		c0,1.6-0.4,2.8-1.4,3.6c-1.6,1.4-4.2,2-8,2c-4.6,0-7-1.8-7-5.2c0-0.8,0.2-1.6,0.6-2.6c0.4-1,0.8-1.8,1.2-2.4
		c0.2-0.2,0.4-0.4,0.6-0.4s0.2,0,0.2,0.2s0,0.4-0.2,0.6c-0.6,1.2-1,2.4-1,3.6c0,1.4,0.6,2.4,2,3c1,0.6,2.2,0.8,3.8,0.8
		c1.6,0,3,0,4.4-0.2c2.4-0.4,3.6-0.8,3.6-1.6c0-0.4-0.6-0.6-1.6-0.8c-1.6-0.2-2.6-0.4-3-0.6c-1-0.2-1.6-0.8-1.6-1.4
		c0-0.4,0.2-1,0.8-1.8c0.4-0.6,0.8-1,1.4-1.4c1-0.8,2.2-1.2,4-1.2h2.8V389z" class="area" title=""></path>
	<path id="PATH_75" d="M618.4,389h-1.6c-1.8,0-3-0.6-3.8-1.8c-0.6,1.2-2,1.8-4.2,1.8h-1.2v-2.4h1.8c2,0,3-0.8,3.2-2.2
		c0-0.6,0.2-1,0.4-1s0.4,0.4,0.4,1c0.2,1.4,1.2,2.2,3,2.2h1.8v2.4H618.4z M614.4,378.8l-1.6,1.6l-1.6-1.6l1.6-1.6L614.4,378.8z" class="area" title=""></path>
	<path id="PATH_76" d="M636.8,389h-1.2c-1.4,0-2.2-0.6-2.8-1.6c-0.4,1.2-1.4,1.6-2.6,1.6s-2-0.6-2.6-1.6c-0.6,1.2-1.4,1.6-2.6,1.6
		c-1.4,0-2.4-0.6-3-1.6c-0.8,1.2-1.8,1.6-3.2,1.6h-1.2v-2.4h1.6c1.4,0,2.4-0.8,2.6-2.4c0-0.4,0.2-0.6,0.4-0.6s0.2,0.2,0.4,0.6
		c0.2,1.6,1,2.4,2.6,2.4c1.4,0,2.4-0.8,2.4-2.4c0-0.4,0.2-0.6,0.4-0.6s0.4,0.2,0.4,0.6c0.2,1.6,1,2.4,2,2.4c1.4,0,2.4-0.8,2.4-2.4
		c0-0.4,0.2-0.6,0.4-0.6c0.2,0,0.4,0.2,0.4,0.6c0.2,1.6,1,2.4,2.4,2.4h1.2v2.4H636.8z" class="area" title=""></path>
	<path id="PATH_77" d="M651.2,389H650c-1,0-2-0.6-2.8-1.6c-0.6,1.6-1.2,2.4-1.8,2.4c-0.6,0-1.6-0.4-2.8-1c-1-0.6-1.8-1.2-2.2-1.6
		c-1,1.2-2,1.8-3,1.8h-1.2v-2.4h1.2c1,0,1.8-0.4,2.6-1.2c0.6-0.6,1.2-1.4,2-2.2c0.8-0.8,1.4-1.2,2-1.2c0.8,0,1.4,0.4,2,1.2
		c0.4,0.4,0.8,1.2,1.8,2.2c0.6,0.8,1.4,1.2,2.2,1.2h1.2V389z M645.8,387.4c0-0.6-0.2-1.2-0.6-2c-0.4-0.8-1-1.2-1.8-1.2
		c-0.6,0-1.4,0.6-2.2,1.6c0.2,0.2,0.8,0.6,1.8,1.2s1.8,0.8,2.4,0.8C645.6,387.8,645.6,387.6,645.8,387.4z" class="area" title=""></path>
	<path id="PATH_78" d="M661,385c0,1,0,1.8-0.4,2.6c-0.4,1-1,1.6-1.6,1.6c-1,0-2.6-0.6-4.6-2c-0.6,0.8-1,1.2-1.2,1.4
		c-0.6,0.4-1.2,0.6-2,0.6h-1v-2.4h1.4c0.8,0,1.6-0.4,2.4-1.4c0.4-0.4,1-1.4,1.8-2.6c0.6-1,1.4-1.4,2-1.4c1,0,1.8,0.4,2.4,1.4
		C660.8,383.6,661,384.4,661,385z M659.8,386.6c0-0.6-0.2-1.2-0.6-2c-0.4-0.8-1-1.2-1.6-1.2c-0.6,0-1.2,0.6-2,1.8
		c0.4,0.4,1,0.8,1.8,1.2c0.8,0.4,1.6,0.6,2,0.6C659.6,387,659.8,386.8,659.8,386.6z" class="area" title=""></path>
</g>
<g id="G_79" class="area" title="">
	<path id="PATH_80" d="M784.2,493c0,2-0.6,3.8-1.8,5.6c-1,1.4-2,2.2-2.6,2.2c-1.6,0-2.8,0-4-0.2c-0.4,0-0.6-0.2-0.6-0.2
		s0.2-0.2,0.6-0.2c1.6-0.4,3.2-1.2,4.8-2.4c1.6-1.4,2.6-2.8,2.6-4.2c0-0.8-0.6-2-2-3.4l1-1.8c0-0.2,0.2-0.2,0.2-0.2l0.2,0.2
		c0.4,0.6,1,1.4,1.2,2.4C784,491.4,784.2,492.4,784.2,493z M782.8,482.4l-1.6,1.6l-1.6-1.6l1.6-1.6L782.8,482.4z" class="area" title=""></path>
	<path id="PATH_81" d="M789,490.4c0,0.8-0.2,1.6-0.6,2.2c-0.2,0.4-0.4,0.6-0.4,0.6s-0.2-0.2-0.2-0.8c0-2.4-0.4-8-1.2-17l1.6-1.6
		c0.2-0.2,0.2-0.2,0.2-0.2s0,0.2,0,0.4C788.8,476.8,789,482.2,789,490.4z" class="area" title=""></path>
	<path id="PATH_82" d="M801.4,492.8h-0.8c-0.8,0-1.2-0.2-1.6-0.4c0,0.2,0,0.4,0,0.6c0,1.8-0.6,3.6-1.8,5.4c-1,1.6-2,2.2-2.6,2.2
		c-1.6,0-2.8,0-4-0.2c-0.4,0-0.6-0.2-0.6-0.2s0.2-0.2,0.6-0.2c1.6-0.4,3.2-1.2,4.8-2.4c1.6-1.4,2.6-2.8,2.6-4.2c0-0.8-0.6-2-2-3.4
		l1-1.8c0-0.2,0.2-0.2,0.2-0.2l0.2,0.2c0.6,0.8,1,1.4,1.4,1.6c0.6,0.4,1.4,0.8,2.2,0.8h0.6v2.2H801.4z" class="area" title=""></path>
	<path id="PATH_83" d="M811.2,492.8h-1.6c-1.8,0-3-0.6-3.8-1.8c-0.6,1.2-2,1.8-4.2,1.8h-1.2v-2.4h1.8c2,0,3-0.8,3.2-2.2
		c0-0.6,0.2-1,0.4-1s0.4,0.4,0.4,1c0.2,1.4,1.2,2.2,3,2.2h1.8v2.4H811.2z M804.6,497.2l-1.6,1.6l-1.6-1.6l1.6-1.6L804.6,497.2z
		 M808.2,497.2l-1.6,1.6l-1.6-1.6l1.6-1.6L808.2,497.2z" class="area" title=""></path>
	<path id="PATH_84" d="M827,488.6c0,1.2-0.2,2.2-0.8,3c-0.6,0.8-1.6,1.4-2.6,1.4c-1.4,0-2.2-0.6-2.8-1.6c-0.8,1.2-1.6,1.6-2.8,1.6
		c-1.4,0-2.4-0.6-3-1.6c-0.8,1.2-1.8,1.6-3.2,1.6h-1.4v-2.4h1.6c1.4,0,2.4-0.8,2.6-2.4c0-0.4,0.2-0.6,0.4-0.6c0.2,0,0.2,0.2,0.4,0.6
		c0.2,1.6,1,2.4,2.6,2.4c0.8,0,1.6-0.2,2-0.6c0.2-0.4,0.4-0.8,0.6-1.6c0-0.4,0.2-0.6,0.4-0.6c0.2,0,0.2,0.2,0.4,0.6
		c0.2,1.6,1,2.4,2.4,2.4c1.6,0,2.2-0.4,2.2-1s-0.4-1.4-1.2-2.2l1-1.8c0.2-0.2,0.2-0.4,0.4-0.4s0.2,0.2,0.4,0.4
		C826.8,486.6,827,487.8,827,488.6z M820.2,481.2l-1.4,1.4l-1.4-1.4l1.4-1.4L820.2,481.2z M822,478.2l-1.4,1.4l-1.4-1.4l1.4-1.4
		L822,478.2z M823.8,481.4l-1.4,1.4l-1.4-1.4l1.4-1.4L823.8,481.4z" class="area" title=""></path>
</g>
<g id="G_85" class="area" title="">
	<path id="PATH_86" d="M670.2,522.4c0.2,0.6,0.2,1.2,0.2,1.8c0,0.8-0.2,1.4-0.4,2.2c-0.6,1.4-1.6,2.6-3.6,3.4c-1.6,0.6-3.2,1-5,1
		c-1.8,0-3.2-0.4-4.4-1.2c-1.2-1-1.8-2.2-1.8-4c0-1,0.2-1.8,0.6-3c0.4-0.8,0.6-1.4,1-1.8c0.2-0.2,0.4-0.2,0.4-0.2
		c0.2,0,0.2,0,0.2,0.2c0,0,0,0.2,0,0.4c-0.6,1.2-0.8,2.4-0.8,3.4s0.4,1.8,1,2.6c0.8,1,2.2,1.4,4,1.4c2,0,3.8-0.4,5.2-1
		c1.2-0.6,2-1.2,2.4-2c0.2-0.2,0.2-0.6,0.2-0.8c0-0.6-0.2-1.2-0.4-2c-0.2-0.6-0.8-1.6-1.8-3.2l0.8-1.6c0.2-0.2,0.2-0.4,0.2-0.4
		s0.2,0,0.2,0.2C669.4,519.4,670,520.8,670.2,522.4z M664.4,513.8l-1.6,1.6l-1.6-1.6l1.6-1.6L664.4,513.8z" class="area" title=""></path>
	<path id="PATH_87" d="M680.8,521.8c0,3-1,5.6-3,7.6c-0.6,0.6-1,1-1.2,1c-1.2,0-2.4-0.2-3.8-0.4c-0.6,0-0.8-0.2-0.8-0.2
		s0.2-0.2,0.8-0.4c1.6-0.4,3.2-1.4,4.6-2.6c0.6-0.6,1.2-1,1.6-1.8c0.6-0.8,1-1.6,1-2.2v-0.6h-2.6c-1.8,0-2.8-0.8-2.8-2.2
		c0-1,0.2-2,0.8-3.2c0.6-1.2,1.4-2,2.2-2c1.2,0,2.2,0.8,2.8,2.6C680.4,519,680.8,520.4,680.8,521.8z M679.2,520.2
		c0-0.6-0.2-1.2-0.6-1.8c-0.4-0.6-1-1-1.6-1c-0.4,0-0.8,0.2-1,0.4c-0.4,0.4-0.4,0.6-0.4,1c0,1,0.6,1.4,2,1.4
		C677.8,520.4,678.6,520.4,679.2,520.2z" class="area" title=""></path>
	<path id="PATH_88" d="M690.8,522.8c0,2-0.6,3.8-1.8,5.6c-1,1.4-2,2.2-2.6,2.2c-1.6,0-2.8,0-4-0.2c-0.4,0-0.6-0.2-0.6-0.2
		s0.2-0.2,0.6-0.2c1.6-0.4,3.2-1.2,4.8-2.4c1.6-1.4,2.6-2.8,2.6-4.2c0-0.8-0.6-2-2-3.4l1-1.8c0-0.2,0.2-0.2,0.2-0.2l0.2,0.2
		c0.4,0.6,1,1.4,1.2,2.4C690.6,521.4,690.8,522.2,690.8,522.8z" class="area" title=""></path>
	<path id="PATH_89" d="M701,522.8c0,2-0.6,3.8-1.8,5.6c-1,1.4-2,2.2-2.6,2.2c-1.6,0-2.8,0-4-0.2c-0.4,0-0.6-0.2-0.6-0.2
		s0.2-0.2,0.6-0.2c1.6-0.4,3.2-1.2,4.8-2.4c1.6-1.4,2.6-2.8,2.6-4.2c0-0.8-0.6-2-2-3.4l1-1.8c0-0.2,0.2-0.2,0.2-0.2l0.2,0.2
		c0.4,0.6,1,1.4,1.2,2.4C700.6,521.4,701,522.2,701,522.8z M699.4,512.2l-1.6,1.6l-1.6-1.6l1.6-1.6L699.4,512.2z" class="area" title=""></path>
	<path id="PATH_90" d="M708.8,522.8h-1.2c-1.4,0-2.6-0.6-3-1.8c-0.4-0.8-0.6-2.2-0.6-3.8v-3.8c0-1.8-0.2-4.4-0.4-7.8l1.2-1.4
		c0.2-0.2,0.4-0.2,0.4,0c0.2,1.8,0.4,4.4,0.4,7.8v5.8c0,1.6,0.8,2.4,2.4,2.4h1v2.6H708.8z" class="area" title=""></path>
	<path id="PATH_91" d="M721.2,504.2c0,0.4-0.4,1.2-0.8,2.2l-5,1.6c-2.2,0.8-3.8,1.4-4.6,1.8c1.6,1.6,2.6,2.8,3.2,3.4
		c1,1.4,1.6,2.6,1.8,4c0,1,0,2-0.4,2.8c-0.6,1.8-2.8,2.6-6.2,2.6h-1v-2.4h1.2c1.6,0,2.8,0,3.4-0.2c1.4-0.4,2.2-1,2.2-2
		c0-1.4-1-3-3.2-5l-0.2,0.4c-0.2-0.2-0.6-0.6-1-1.2c-0.6-0.6-0.8-1.2-0.8-1.2c0-0.4,0-0.8,0.2-1.6c0.2-0.8,0.4-1.2,0.6-1.4
		c0.2-0.2,1.6-0.8,4.2-1.6C717,505.4,719.4,504.6,721.2,504.2z" class="area" title=""></path>
</g>
<g id="G_92" class="area" title="">
	<path id="PATH_93" d="M1007.8,450.6c0.2,0.6,0.2,1.2,0.2,1.8c0,0.8-0.2,1.4-0.4,2.2c-0.6,1.4-1.6,2.6-3.6,3.4c-1.6,0.6-3.2,1-5,1
		c-1.8,0-3.2-0.4-4.4-1.2c-1.2-1-1.8-2.2-1.8-4c0-1,0.2-1.8,0.6-3c0.4-0.8,0.6-1.4,1-1.8c0.2-0.2,0.4-0.2,0.4-0.2
		c0.2,0,0.2,0,0.2,0.2c0,0,0,0.2,0,0.4c-0.6,1.2-0.8,2.4-0.8,3.4s0.4,1.8,1,2.6c0.8,1,2.2,1.4,4,1.4c2,0,3.8-0.4,5.2-1
		c1.2-0.6,2-1.2,2.4-2c0.2-0.2,0.2-0.6,0.2-0.8c0-0.6-0.2-1.2-0.4-2c-0.2-0.6-0.8-1.6-1.8-3.2l0.8-1.6c0.2-0.2,0.2-0.4,0.2-0.4
		s0.2,0,0.2,0.2C1007,447.4,1007.6,449,1007.8,450.6z M1002,441.8l-1.6,1.6l-1.6-1.6l1.6-1.6L1002,441.8z" class="area" title=""></path>
	<path id="PATH_94" d="M1016,450.8h-1.4c-1.4,0-2.6-0.6-3-1.8c-0.4-0.8-0.6-2.2-0.6-3.8v-3.8c0-1.8-0.2-4.4-0.4-7.8l1.2-1.4
		c0.2-0.2,0.4-0.2,0.4,0c0.2,1.8,0.4,4.4,0.4,7.8v5.8c0,1.6,0.8,2.4,2.4,2.4h1L1016,450.8L1016,450.8z" class="area" title=""></path>
	<path id="PATH_95" d="M1033.6,450.8h-2c-2.6,0-4-1.4-4-4c0-0.4,0-0.6,0-1c-1,0.4-2.2,1.2-3.8,2.2s-2.6,1.6-3.4,2
		c-1.2,0.6-2.6,0.8-3.8,0.8h-1.4v-2.4h1.6c1.6,0,3.4-0.4,5-1.2c0.8-0.4,2.2-1.2,4.4-2.2c-0.4,0-1.6-0.4-3.6-0.8
		c-1.4-0.4-2.2-0.6-2.4-0.6c-0.8,0-1.6,0.4-2.4,1c-0.2,0.2-0.2,0.2-0.4,0.2c-0.2,0-0.2,0-0.2-0.2v-0.2c0.6-2,1.8-3,3.4-3
		c0.6,0,1.4,0.2,2.4,0.4c1.4,0.4,2.6,0.8,3.6,1c1.4,0.2,3,0.4,4.8,0.4c0.4,0,0.4,0,0.6,0c0,0,0,0.2,0,0.4l-0.6,1.8
		c-1.2,0-2,0-2.4,0.2c0,1,0.2,1.6,0.4,1.8c0.4,0.6,1.2,1,2.6,1h2v2.4H1033.6z M1026,455l-1.6,1.6l-1.6-1.6l1.6-1.6L1026,455z" class="area" title=""></path>
	<path id="PATH_96" d="M1043.2,450.8h-1.6c-1.8,0-3-0.6-3.8-1.8c-0.6,1.2-2,1.8-4.2,1.8h-1.2v-2.4h1.8c2,0,3-0.8,3.2-2.2
		c0-0.6,0.2-1,0.4-1c0.2,0,0.4,0.4,0.4,1c0.2,1.4,1.2,2.2,3,2.2h1.8v2.4H1043.2z M1039.4,440.6l-1.6,1.6l-1.6-1.6l1.6-1.6
		L1039.4,440.6z" class="area" title=""></path>
	<path id="PATH_97" d="M1059,446.6c0,1.2-0.2,2.2-0.8,3s-1.6,1.4-2.6,1.4c-1.4,0-2.2-0.6-2.8-1.6c-0.8,1.2-1.6,1.6-2.8,1.6
		c-1.4,0-2.4-0.6-3-1.6c-0.8,1.2-1.8,1.6-3.2,1.6h-1.4v-2.4h1.6c1.4,0,2.4-0.8,2.6-2.4c0-0.4,0.2-0.6,0.4-0.6c0.2,0,0.2,0.2,0.4,0.6
		c0.2,1.6,1,2.4,2.6,2.4c0.8,0,1.6-0.2,2-0.6c0.2-0.4,0.4-0.8,0.6-1.6c0-0.4,0.2-0.6,0.4-0.6c0.2,0,0.2,0.2,0.4,0.6
		c0.2,1.6,1,2.4,2.4,2.4c1.6,0,2.2-0.4,2.2-1s-0.4-1.4-1.2-2.2l1-1.8c0.2-0.2,0.2-0.4,0.4-0.4c0.2,0,0.2,0.2,0.4,0.4
		C1058.8,444.6,1059,445.6,1059,446.6z" class="area" title=""></path>
	<path id="PATH_98" d="M1069.2,451c0,2-0.6,3.8-1.8,5.6c-1,1.4-2,2.2-2.6,2.2c-1.6,0-2.8,0-4-0.2c-0.4,0-0.6-0.2-0.6-0.2
		s0.2-0.2,0.6-0.2c1.6-0.4,3.2-1.2,4.8-2.4c1.6-1.4,2.6-2.8,2.6-4.2c0-0.8-0.6-2-2-3.4l1-1.8c0-0.2,0.2-0.2,0.2-0.2l0.2,0.2
		c0.4,0.6,1,1.4,1.2,2.4C1069,449.4,1069.2,450.4,1069.2,451z" class="area" title=""></path>
	<path id="PATH_99" d="M1074,448.4c0,0.8-0.2,1.6-0.6,2.2c-0.2,0.4-0.4,0.6-0.4,0.6s-0.2-0.2-0.2-0.8c0-2.4-0.4-8-1.2-17l1.6-1.6
		c0.2-0.2,0.2-0.2,0.2-0.2s0,0.2,0,0.4C1073.8,434.8,1074,440.2,1074,448.4z" class="area" title=""></path>
</g>
<g id="G_100" class="area" title="">
	<path id="PATH_101" d="M943.4,385.4c0,2.4-1.6,3.6-4.8,3.6c-1.2,0-2-0.2-2.6-0.4c-0.8-0.4-1-1.2-1-2.2c0-0.6,0.2-1,0.4-1.6
		c0.2-0.2,0.2-0.4,0.4-0.4s0.2,0.2,0.2,0.4c0,0.2,0,0.4,0,0.6c0,0.8,0.4,1.2,1,1.4c0.4,0.2,1,0.2,2,0.2c2.6,0,3.8-0.4,3.8-1.2
		c0-1.2-1.4-3-4.4-5.2l0.6-1.8c0-0.2,0.2-0.2,0.2-0.2s0.2,0,0.4,0.2C942,381.2,943.4,383.4,943.4,385.4z" class="area" title=""></path>
	<path id="PATH_102" d="M950.4,389h-1.2c-1.4,0-2.2-0.6-2.8-1.6c-0.4-0.8-0.6-1.8-0.6-3.4v-3.4c0-1.6-0.2-3.8-0.4-6.8l1-1.2
		c0.2-0.2,0.4-0.2,0.4,0c0.2,1.6,0.4,3.8,0.4,7v5.2c0,1.4,0.6,2.2,2,2.2h1v2H950.4z" class="area" title=""></path>
	<path id="PATH_103" d="M960.8,374.8c0,0.2-0.2,1-0.6,2c-2.2,0.6-4.6,1.4-7.8,2.4c2.2,2,3.4,3.8,3.6,5.2c0.2,1,0,1.8-0.4,2.6
		c-0.4,0.8-1,1.4-1.8,1.8c-0.8,0.2-2,0.4-3.6,0.4h-0.6v-2h0.6c3.4,0,5-0.6,5-1.8c0-1-1-2.2-2.8-4l-0.2,0.4c-0.2-0.2-0.6-0.4-1-1
		s-0.8-1-0.8-1c0-0.6,0.2-1.2,0.6-1.6c0-0.2,1.2-0.6,3.4-1.2C957,376,959.2,375.4,960.8,374.8z M960.4,372.2l-0.4,1.2l-8.6,2.8
		l0.4-1.2L960.4,372.2z" class="area" title=""></path>
	<path id="PATH_104" d="M969.2,389.2c0,1.8-0.6,3.4-1.6,4.8c-1,1.2-1.8,2-2.4,2c-1.4,0-2.4,0-3.4-0.2c-0.4,0-0.4-0.2-0.4-0.2
		s0.2-0.2,0.4-0.2c1.4-0.2,2.8-1,4.2-2.2s2.2-2.4,2.2-3.6c0-0.8-0.6-1.8-1.8-3l0.8-1.6c0-0.2,0.2-0.2,0.2-0.2s0.2,0,0.2,0.2
		c0.4,0.6,0.8,1.2,1.2,2C969,387.8,969.2,388.6,969.2,389.2z" class="area" title=""></path>
	<path id="PATH_105" d="M976.2,389H975c-1.4,0-2.2-0.6-2.8-1.6c-0.4-0.8-0.6-1.8-0.6-3.4v-3.4c0-1.6-0.2-3.8-0.4-6.8l1-1.2
		c0.2-0.2,0.4-0.2,0.4,0c0.2,1.6,0.4,3.8,0.4,7v5.2c0,1.4,0.6,2.2,2,2.2h1v2H976.2z" class="area" title=""></path>
	<path id="PATH_106" d="M990,385.4c0,1-0.2,2-0.8,2.6c-0.6,0.8-1.4,1.2-2.4,1.2c-1.2,0-2-0.4-2.6-1.4c-0.6,1-1.4,1.4-2.4,1.4
		c-1.2,0-2.2-0.4-2.6-1.4c-0.6,1-1.6,1.4-2.8,1.4h-0.8v-2h1.4c1.2,0,2-0.6,2.2-2c0-0.4,0.2-0.6,0.4-0.6c0.2,0,0.2,0.2,0.2,0.6
		c0.2,1.4,0.8,2,2.2,2c0.8,0,1.4-0.2,1.6-0.6c0.2-0.2,0.4-0.8,0.4-1.4c0-0.4,0.2-0.6,0.2-0.6c0.2,0,0.2,0.2,0.4,0.4
		c0.2,1.4,0.8,2,2.2,2s2-0.4,2-1s-0.4-1.2-1-2l0.8-1.4c0.2-0.2,0.2-0.4,0.2-0.4s0.2,0.2,0.4,0.4C989.8,383.6,990,384.6,990,385.4z" class="area" title=""></path>
	<path id="PATH_107" d="M997,389h-1.2c-1.4,0-2.2-0.6-2.8-1.6c-0.4-0.8-0.6-1.8-0.6-3.4v-3.4c0-1.6-0.2-3.8-0.4-6.8l1-1.2
		c0.2-0.2,0.4-0.2,0.4,0c0.2,1.6,0.4,3.8,0.4,7v5.2c0,1.4,0.6,2.2,2,2.2h1v2H997z" class="area" title=""></path>
	<path id="PATH_108" d="M1001.2,385.6c0,2.4-1.2,3.4-3.4,3.4h-1.4v-2h1.2c1.8,0,2.6-0.4,2.6-1c0-0.4-0.4-1.2-1.2-2.2l0.8-1.8
		c0-0.2,0.2-0.2,0.2-0.2s0.2,0.2,0.2,0.4C1000.8,383.4,1001.2,384.4,1001.2,385.6z M997,392.4l1.4-1.2l1.2,1.2l-1.2,1.2L997,392.4z
		 M998.6,395.2l1.2-1.2l1.2,1.2l-1.2,1.2L998.6,395.2z M1000.2,392.4l1.2-1.2l1.4,1.2l-1.2,1.2L1000.2,392.4z" class="area" title=""></path>
</g>
<g id="G_109" class="area" title="">
	<path id="PATH_110" d="M600,303l-0.4-0.8c-0.6-1-0.8-2-0.8-2.8c-0.2,0.2-0.4,0.4-0.8,0.6c-1.8,1-3,1-3.8-0.2c-0.6-1-0.4-2,0.2-3.2
		c0.6-1,1.4-1.8,2.6-2.4c0.2-0.2,0.4-0.2,0.6-0.4c0-0.2-0.2-0.4-0.2-0.6c-0.6-1.2-1.4-1.8-2.4-2c-2.6,2-4.6,3.4-6,4.2
		c-0.6,0.4-1.6,0.6-2.8,0.8c-0.4,0-0.6,0-0.6,0s0.2-0.2,0.6-0.6l7.6-5.6c0.4-0.2,1-0.4,1.8-0.2c0.8,0,1.4,0.2,1.8,0.4
		c0.4,0.2,0.8,0.4,1.2,1c0.4,0.4,0.8,1,1,1.2l0.2,0.2l1.2-0.4c0.2,0,0.4,0,0.4,0s0,0.2,0,0.4c-0.4,2.2-0.6,3.6-0.8,4.4
		c0,1.4,0.2,2.6,0.6,3.4l0.6,1L600,303z M597.8,299c0.4-0.2,0.8-1,1-2c0-0.2,0.2-1.2,0.6-3c-0.4,0.2-0.8,0.4-1,0.6
		c-0.8,0.4-1.4,1-1.8,1.6c-0.6,0.8-0.6,1.6-0.2,2.4C596.6,299.2,597.2,299.4,597.8,299z" class="area" title=""></path>
	<path id="PATH_111" d="M605,311.4l-0.8-1.4c-1-1.6-1-3-0.4-4.2c-1.4,0-2.6-0.8-3.6-2.6l-0.6-1.2l2-1.2l1,1.6c1,1.6,2.2,2.2,3.6,1.6
		c0.6-0.2,0.8-0.2,1,0s0,0.4-0.6,0.8c-1.2,0.8-1.4,2.2-0.4,3.8l0.8,1.6L605,311.4z M611.6,299.6l-2.2-0.6l0.6-2.2l2.2,0.6
		L611.6,299.6z M613.2,302.6L611,302l0.6-2l2.2,0.6L613.2,302.6z" class="area" title=""></path>
	<path id="PATH_112" d="M616.6,322.8c-1,0.6-2,0.8-3,0.8s-2-0.6-2.4-1.6c-0.6-1.2-0.6-2.2,0-3.4c-1.4,0-2.2-0.6-2.8-1.6
		c-0.8-1.2-0.8-2.4,0-3.4c-1.4,0-2.4-0.8-3-1.8l-0.8-1.2l2-1.2l0.8,1.4c0.8,1.2,1.8,1.6,3.4,1c0.4-0.2,0.6-0.2,0.6,0s0,0.4-0.4,0.6
		c-1.2,1-1.6,2-0.8,3.4c0.4,0.8,1,1.2,1.6,1.2c0.4,0,1,0,1.8-0.4c0.4-0.2,0.6-0.2,0.6,0s0,0.4-0.4,0.6c-1.2,1-1.6,2-0.8,3.2
		c0.8,1.4,1.4,1.8,2,1.4c0.4-0.2,1-1,1.4-2.2h2c0.4,0,0.4,0,0.6,0c0,0,0,0.2-0.2,0.6C618.2,321.6,617.4,322.4,616.6,322.8z" class="area" title=""></path>
	<path id="PATH_113" d="M618,333.8c-1.6,1-3.6,1.4-5.6,1.2c-1.8-0.2-3-0.6-3.2-1.2c-0.8-1.4-1.4-2.4-1.8-3.6c-0.2-0.4-0.2-0.6,0-0.6
		c0.2,0,0.2,0,0.6,0.4c1,1.2,2.6,2.2,4.6,2.8c2,0.8,3.6,0.8,4.8,0c0.8-0.4,1.4-1.6,1.8-3.6l2-0.2c0.2,0,0.2,0,0.4,0c0,0,0,0.2,0,0.4
		c-0.2,0.8-0.8,1.4-1.4,2.2C619.2,333,618.6,333.6,618,333.8z" class="area" title=""></path>
</g>
<g id="G_114" class="area" title="">
	<path id="PATH_115" d="M962,511.2h-1.4c-1.8,0-2.8-1-3.2-3.2c-1,1-1.4,1.4-1.6,1.4H954c-0.6,0-1.2,0-1.8-0.2
		c-0.8-0.2-1.2-0.6-1.2-1c0-1.4,0.6-2.8,1.6-3.6c0.8-0.6,2-1.2,3.6-2l-0.4-2l1.4-1.6c0,0.2,0.6,2.4,1.4,6.6c0.2,1.2,0.6,2.2,0.8,2.6
		c0.4,0.6,0.8,0.8,1.6,0.8h1.4v2.2H962z M957,507.2l-0.6-3.2c-0.6,0.2-1.4,0.6-2.4,1c-1.2,0.6-2,1.2-2,1.4c0,0.4,0.4,0.6,1.4,0.8
		c0.6,0.2,1.2,0.2,1.8,0.2C956,507.4,956.6,507.4,957,507.2z" class="area" title=""></path>
	<path id="PATH_116" d="M972,507.4c0,1,0,1.8-0.4,2.6c-0.4,1-1,1.6-1.6,1.6c-1,0-2.6-0.6-4.6-2c-0.6,0.8-1,1.2-1.2,1.4
		c-0.6,0.4-1.2,0.6-2,0.6h-1v-2.4h1.4c0.8,0,1.6-0.4,2.4-1.4c0.4-0.4,1-1.4,1.8-2.6c0.6-1,1.4-1.4,2-1.4c1,0,1.8,0.4,2.4,1.4
		C971.6,505.8,972,506.6,972,507.4z M970.8,508.8c0-0.6-0.2-1.2-0.6-2s-1-1.2-1.6-1.2c-0.6,0-1.2,0.6-2,1.8c0.4,0.4,1,0.8,1.8,1.2
		c0.8,0.4,1.6,0.6,2,0.6C970.6,509.2,970.8,509.2,970.8,508.8z" class="area" title=""></path>
	<path id="PATH_117" d="M976.6,508.8c0,0.8-0.2,1.6-0.6,2.2c-0.2,0.4-0.4,0.6-0.4,0.6s-0.2-0.2-0.2-0.8c0-2.4-0.4-8-1.2-17l1.6-1.6
		c0.2-0.2,0.2-0.2,0.2-0.2s0,0.2,0,0.4C976.6,495.2,976.6,500.6,976.6,508.8z" class="area" title=""></path>
	<path id="PATH_118" d="M989.2,511.2h-0.8c-0.8,0-1.2-0.2-1.6-0.4c0,0.2,0,0.4,0,0.6c0,1.8-0.6,3.6-1.8,5.4c-1,1.6-2,2.2-2.6,2.2
		c-1.6,0-2.8,0-4-0.2c-0.4,0-0.6-0.2-0.6-0.2s0.2-0.2,0.6-0.2c1.6-0.4,3.2-1.2,4.8-2.4c1.6-1.4,2.6-2.8,2.6-4.2c0-0.8-0.6-2-2-3.4
		l1-1.8c0-0.2,0.2-0.2,0.2-0.2l0.2,0.2c0.6,0.8,1,1.4,1.4,1.6c0.6,0.4,1.4,0.8,2.2,0.8h0.6v2.2H989.2z" class="area" title=""></path>
	<path id="PATH_119" d="M1004.8,505.4l-0.8,1.6c-1.4,0-2.6,0-3.2,0.2c-0.8,0.4-2,0.8-3.6,1.6c-1.6,0.8-2.8,1.4-3.6,1.6
		c-1.2,0.4-2.6,0.6-3.8,0.6h-1.4v-2.4h1.6c1.8,0,3.4-0.4,4.8-1l4.6-2c-0.8-0.2-2-0.6-3.6-1.2c-1.4-0.6-2.2-0.8-2.6-0.8
		c-0.8,0-1.6,0.4-2.4,1c-0.2,0.2-0.2,0.2-0.4,0.2c-0.2,0-0.2,0-0.2-0.2v-0.2c0.6-2,1.8-2.8,3.4-2.8c0.6,0,1.4,0.2,2.2,0.6
		c1.6,0.8,2.8,1.2,3.6,1.6c1.4,0.4,3,0.8,4.8,0.8c0.4,0,0.6,0,0.6,0.2C1005,505,1004.8,505.2,1004.8,505.4z M999,496.4l-1.6,1.6
		l-1.6-1.6l1.6-1.6L999,496.4z" class="area" title=""></path>
</g>
<g id="G_120" class="area" title="">
	<path id="PATH_121" d="M913,556.2c0.2,0.6,0.2,1.2,0.2,1.8c0,0.8-0.2,1.4-0.4,2.2c-0.6,1.4-1.6,2.6-3.6,3.4c-1.6,0.6-3.2,1-5,1
		s-3.2-0.4-4.4-1.2c-1.2-1-1.8-2.2-1.8-4c0-1,0.2-1.8,0.6-3c0.4-0.8,0.6-1.4,1-1.8c0.2-0.2,0.4-0.2,0.4-0.2c0.2,0,0.2,0,0.2,0.2
		c0,0,0,0.2,0,0.4c-0.6,1.2-0.8,2.4-0.8,3.4s0.4,1.8,1,2.6c0.8,1,2.2,1.4,4,1.4c2,0,3.8-0.4,5.2-1c1.2-0.6,2-1.2,2.4-2
		c0.2-0.2,0.2-0.6,0.2-0.8c0-0.6-0.2-1.2-0.4-2c-0.2-0.6-0.8-1.6-1.8-3.2l0.8-1.6c0.2-0.2,0.2-0.4,0.2-0.4s0.2,0,0.2,0.2
		C912,553.2,912.6,554.6,913,556.2z M907,547.6l-1.6,1.6l-1.6-1.6l1.6-1.6L907,547.6z" class="area" title=""></path>
	<path id="PATH_122" d="M921,556.6h-1.4c-1.4,0-2.6-0.6-3-1.8c-0.4-0.8-0.6-2.2-0.6-3.8v-3.8c0-1.8-0.2-4.4-0.4-7.8l1.2-1.4
		c0.2-0.2,0.4-0.2,0.4,0c0.2,1.8,0.4,4.4,0.4,7.8v5.8c0,1.6,0.8,2.4,2.4,2.4h1V556.6z" class="area" title=""></path>
	<path id="PATH_123" d="M930.8,556.6h-1.6c-1.8,0-3-0.6-3.8-1.8c-0.6,1.2-2,1.8-4.2,1.8H920v-2.4h1.8c2,0,3-0.8,3.2-2.2
		c0-0.6,0.2-1,0.4-1c0.2,0,0.4,0.4,0.4,1c0.2,1.4,1.2,2.2,3,2.2h1.8v2.4H930.8z M924.2,545l-1.6,1.6L921,545l1.6-1.6L924.2,545z
		 M927.6,545l-1.6,1.6l-1.6-1.6l1.6-1.6L927.6,545z" class="area" title=""></path>
	<path id="PATH_124" d="M946.6,552.4c0,1.2-0.2,2.2-0.8,3c-0.6,0.8-1.6,1.4-2.6,1.4c-1.4,0-2.2-0.6-2.8-1.6
		c-0.8,1.2-1.6,1.6-2.8,1.6c-1.4,0-2.4-0.6-3-1.6c-0.8,1.2-1.8,1.6-3.2,1.6H930v-2.4h1.6c1.4,0,2.4-0.8,2.6-2.4
		c0-0.4,0.2-0.6,0.4-0.6s0.2,0.2,0.4,0.6c0.2,1.6,1,2.4,2.6,2.4c0.8,0,1.6-0.2,2-0.6c0.2-0.4,0.4-0.8,0.6-1.6c0-0.4,0.2-0.6,0.4-0.6
		s0.2,0.2,0.4,0.6c0.2,1.6,1,2.4,2.4,2.4c1.6,0,2.2-0.4,2.2-1s-0.4-1.4-1.2-2.2l1-1.8c0.2-0.2,0.2-0.4,0.4-0.4
		c0.2,0,0.2,0.2,0.4,0.4C946.4,550.4,946.6,551.4,946.6,552.4z" class="area" title=""></path>
	<path id="PATH_125" d="M957,555.8c0,3-1,5.6-3,7.6c-0.6,0.6-1,1-1.2,1c-1.2,0-2.4-0.2-3.8-0.4c-0.6,0-0.8-0.2-0.8-0.2
		s0.2-0.2,0.8-0.4c1.6-0.4,3.2-1.4,4.6-2.6c0.6-0.6,1.2-1,1.6-1.8c0.6-0.8,1-1.6,1-2.2v-0.6h-2.6c-1.8,0-2.8-0.8-2.8-2.2
		c0-1,0.2-2,0.8-3.2c0.6-1.2,1.4-2,2.2-2c1.2,0,2.2,0.8,2.8,2.6C956.8,552.8,957,554.2,957,555.8z M955.6,554.2
		c0-0.6-0.2-1.2-0.6-1.8s-1-1-1.6-1c-0.4,0-0.8,0.2-1,0.4c-0.4,0.4-0.4,0.6-0.4,1c0,1,0.6,1.4,2,1.4
		C954.2,554.2,954.8,554.2,955.6,554.2z" class="area" title=""></path>
	<path id="PATH_126" d="M969.4,556.6h-0.8c-0.8,0-1.2-0.2-1.6-0.4c0,0.2,0,0.4,0,0.6c0,1.8-0.6,3.6-1.8,5.4c-1,1.6-2,2.2-2.6,2.2
		c-1.6,0-2.8,0-4-0.2c-0.4,0-0.6-0.2-0.6-0.2s0.2-0.2,0.6-0.2c1.6-0.4,3.2-1.2,4.8-2.4c1.6-1.4,2.6-2.8,2.6-4.2c0-0.8-0.6-2-2-3.4
		l1-1.8c0-0.2,0.2-0.2,0.2-0.2l0.2,0.2c0.6,0.8,1,1.4,1.4,1.6c0.6,0.4,1.4,0.8,2.2,0.8h0.6v2.2H969.4z" class="area" title=""></path>
	<path id="PATH_127" d="M985.2,552.4c0,1.2-0.2,2.2-0.8,3s-1.6,1.4-2.6,1.4c-1.4,0-2.2-0.6-2.8-1.6c-0.8,1.2-1.6,1.6-2.8,1.6
		c-1.4,0-2.4-0.6-3-1.6c-0.8,1.2-1.8,1.6-3.2,1.6h-1.4v-2.4h1.6c1.4,0,2.4-0.8,2.6-2.4c0-0.4,0.2-0.6,0.4-0.6c0.2,0,0.2,0.2,0.4,0.6
		c0.2,1.6,1,2.4,2.6,2.4c0.8,0,1.6-0.2,2-0.6c0.2-0.4,0.4-0.8,0.6-1.6c0-0.4,0.2-0.6,0.4-0.6c0.2,0,0.2,0.2,0.4,0.6
		c0.2,1.6,1,2.4,2.4,2.4c1.6,0,2.2-0.4,2.2-1s-0.4-1.4-1.2-2.2l1-1.8c0.2-0.2,0.2-0.4,0.4-0.4c0.2,0,0.2,0.2,0.4,0.4
		C985,550.4,985.2,551.4,985.2,552.4z" class="area" title=""></path>
</g>
<g id="G_128" class="area" title="">
	<path id="PATH_129" d="M867.8,580.8c-1.2,1.6-2.6,2.8-4.6,3.4c-1.8,0.6-2.8,0.8-3.4,0.4c-1.2-0.8-2.2-1.6-3.2-2.4
		c-0.2-0.2-0.4-0.4-0.2-0.6c0.2-0.2,0.2,0,0.6,0c1.4,0.6,3.2,0.8,5.2,0.6c2.2-0.2,3.6-0.8,4.4-2c0.4-0.8,0.6-2,0.2-4l1.8-1
		c0.2,0,0.2-0.2,0.4-0.2c0,0,0,0.2,0,0.4c0,0.8,0,1.6-0.2,2.6C868.6,579.4,868.2,580.4,867.8,580.8z" class="area" title=""></path>
	<path id="PATH_130" d="M873.2,581.4c-0.4,0.6-1,1.2-1.6,1.6c-0.4,0.2-0.6,0.4-0.6,0.2c0,0,0-0.2,0.4-0.6c1.4-2,4.2-6.8,8.6-14.6
		l2.2-0.4c0.2,0,0.4,0,0.4,0s0,0.2-0.2,0.4C881,570.2,877.8,574.6,873.2,581.4z" class="area" title=""></path>
	<path id="PATH_131" d="M882,590.6l-1.8-1.2c-1.6,2.2-3.8,3.4-6.6,4c-0.8,0.2-1.4,0.2-1.4,0c-0.8-0.6-2-1.4-3-2.4
		c-0.4-0.4-0.6-0.6-0.4-0.6c0,0,0.4,0,0.8,0.2c1.6,0.6,3.4,0.8,5.2,0.6c0.8,0,1.6-0.2,2.4-0.6c1-0.4,1.6-0.8,2-1.2l0.4-0.4l-2-1.4
		c-1.6-1-2-2.2-1-3.6c0.6-0.8,1.4-1.6,2.6-2.2c1.2-0.6,2.2-0.8,3-0.4c0.8,0.6,1.2,1.6,1,3c-0.2,1-0.6,2-1.2,3.2l1.8,1.2L882,590.6z
		 M880.4,586.6c0.4-0.6,0.6-1.2,0.6-1.8c0-0.8-0.2-1.4-0.8-1.8c-0.4-0.2-0.8-0.4-1.2-0.2c-0.4,0-0.8,0.2-1,0.6
		c-0.6,0.8-0.2,1.6,1.2,2.4C879.4,586,880,586.2,880.4,586.6z" class="area" title=""></path>
	<path id="PATH_132" d="M902.8,582.4c-0.2,0.2-0.8,0.8-2,1.4l-5-1.6c-2.2-0.6-3.8-1-4.8-1.2c0.4,2.2,0.6,3.8,0.6,4.6
		c0,1.8-0.2,3.2-0.8,4.2c-0.4,0.8-1.2,1.6-2,2.2c-1.6,1-3.8,0.6-6.6-1.4l-0.8-0.6l1.4-2l1,0.6c1.2,0.8,2.2,1.4,3,1.8
		c1.4,0.6,2.4,0.4,2.8-0.4c0.8-1,0.8-3,0.2-6l-0.4,0.2c0-0.2-0.2-0.8-0.2-1.6s0-1.4,0-1.6c0.2-0.4,0.6-0.6,1-1.2
		c0.6-0.4,1-0.8,1.2-0.8c0.2,0,1.6,0.2,4.4,1C898.6,581,901,581.6,902.8,582.4z" class="area" title=""></path>
</g>
<g id="G_133" class="area" title="">
	<path id="PATH_134" d="M764.2,676.6l-0.4-0.8c-0.2-0.6-0.4-1.4,0-2c0.2-0.4,0.4-1,1-1.6c-1-0.2-1.8-0.4-2.2-0.8
		c-0.6-0.6-1.4-1.4-1.8-2.8c-1-2.6-0.6-4.2,1.2-5c0.6-0.2,1.4-0.4,2.2-0.2c0.2,0,0.4,0.2,0.4,0.2c0,0.2,0,0.2-0.2,0.2
		s-0.2,0-0.4,0.2c-0.2,0.2-0.4,0.2-0.4,0.2c-1.2,0.4-1.2,1.6-0.4,3.6c1.2,2.6,2.2,3.8,3.2,3.4c0.6-0.2,2.2-1.8,5-4.8l1.8,0.2
		c0.2,0,0.4,0,0.4,0s-0.2,0.2-0.2,0.4c-1.2,1.2-3,3-5.6,5.2c-1.2,1.2-1.6,2.2-1.2,3.2l0.2,0.6L764.2,676.6z" class="area" title=""></path>
	<path id="PATH_135" d="M768,685.6l-0.6-1.4c-0.8-1.6-0.6-3,0.2-4.2c-1.4-0.2-2.4-1.2-3.2-3l-0.6-1.2l2.2-0.8l0.6,1.6
		c0.8,1.8,1.8,2.4,3.4,2c0.6-0.2,1-0.2,1,0s-0.2,0.4-0.6,0.8c-1.4,0.8-1.6,2-0.8,3.6l0.6,1.6L768,685.6z M776,678l-2.2-0.8l0.8-2.2
		l2.2,0.8L776,678z" class="area" title=""></path>
	<path id="PATH_136" d="M766.2,692.4l-2.2-0.8l0.8-2.2l2.2,0.8L766.2,692.4z M771.8,694.6l-0.6-1.4c-0.8-1.6-0.6-3,0.2-4.2
		c-1.4-0.2-2.4-1.2-3.2-3l-0.6-1.2l2.2-0.8l0.6,1.6c0.8,1.8,1.8,2.4,3.4,2c0.6-0.2,1-0.2,1,0s-0.2,0.4-0.6,0.8
		c-1.4,0.8-1.6,2-0.8,3.6l0.6,1.6L771.8,694.6z" class="area" title=""></path>
	<path id="PATH_137" d="M781.8,707.6c-1,0.4-2.2,0.6-3,0.4c-1-0.2-1.8-0.8-2.2-2c-0.6-1.2-0.4-2.4,0.4-3.2c-1.4-0.2-2.2-1-2.6-2
		c-0.6-1.4-0.4-2.4,0.4-3.4c-1.4-0.2-2.2-1-2.8-2.2l-0.4-1.2l2.2-0.8l0.6,1.4c0.6,1.4,1.6,1.8,3.2,1.4c0.4,0,0.6,0,0.6,0.2
		s0,0.4-0.4,0.6c-1.4,0.8-1.8,1.8-1.2,3.2c0.4,0.8,0.8,1.4,1.4,1.4c0.4,0.2,1,0,1.8-0.2c0.4-0.2,0.6,0,0.6,0c0,0.2,0,0.4-0.4,0.6
		c-1.4,0.8-1.8,1.8-1.2,3.2s1.2,2,1.8,1.6c0.6-0.2,1-0.8,1.6-2l2,0.2c0.4,0,0.4,0,0.4,0.2c0,0,0,0.2-0.2,0.4
		C783.6,706.6,782.6,707.2,781.8,707.6z M786,698.6l-2-0.8l0.8-2l2,0.8L786,698.6z M787.4,701.8l-2-0.8l0.8-2l2,0.8L787.4,701.8z
		 M789.6,699l-2-0.8l0.8-2l2,0.8L789.6,699z" class="area" title=""></path>
	<path id="PATH_138" d="M782,712.6c-0.8,0.4-1.6,0.4-2.2,0.4c-0.4,0-0.6,0-0.8-0.2c0,0,0.2-0.2,0.6-0.4c2.2-0.8,7.2-3.4,15.2-7.6
		l2,1c0.2,0,0.2,0.2,0.4,0.2c0,0,0,0.2-0.2,0.2C794.6,707.4,789.6,709.4,782,712.6z" class="area" title=""></path>
	<path id="PATH_139" d="M784.6,725.2l-0.4-0.8c-0.2-0.6-0.4-1.2-0.2-1.6c-0.2,0-0.4,0.2-0.6,0.2c-1.8,0.8-3.6,0.8-5.8,0.4
		c-1.8-0.4-2.8-0.8-3-1.6c-0.6-1.4-1-2.6-1.4-3.8c0-0.4,0-0.6,0-0.6c0.2,0,0.2,0,0.4,0.4c1,1.4,2.2,2.4,4.2,3.4s3.6,1.2,4.8,0.8
		c0.8-0.4,1.6-1.4,2.2-3.2l2,0.2c0.2,0,0.2,0,0.4,0c0,0,0,0.2-0.2,0.4c-0.6,0.8-0.8,1.6-1,2c-0.2,0.8-0.2,1.6,0.2,2.4l0.2,0.6
		L784.6,725.2z" class="area" title=""></path>
	<path id="PATH_140" d="M792.8,730l-0.8,0.4c-1.2,0.6-2.2,0.6-2.8,0.6c-1.6-0.4-2.8-1.6-3.8-4l-1-2.6l2.2-0.8l0.8,1.8
		c1.4,3.2,2.6,4.6,3.8,4.4c0.2,0,0.2,0,0.4-0.2s0.6-0.2,0.6-0.4c-0.4-0.8-1-1.6-1.2-2.4c-0.8-1.8-0.4-2.8,1-3.4c1-0.4,2-0.6,3.2-0.6
		c1.4,0,2.2,0.6,2.6,1.6c0.4,0.8,0.2,1.8-0.6,2.8C796,728.4,794.6,729.4,792.8,730z M793.8,728c0.6-0.2,1-0.6,1.4-1.2
		s0.4-1.2,0.2-1.8c-0.2-0.4-0.4-0.8-0.8-0.8c-0.4-0.2-0.8-0.2-1.2,0c-0.8,0.4-1,1-0.4,2.2C793,726.8,793.4,727.4,793.8,728z
		 M802,723.6l-2.2-0.8l0.8-2.2l2.2,0.8L802,723.6z" class="area" title=""></path>
</g>
<g id="G_141" class="area" title="">
	<path id="PATH_142" d="M816.4,649.8c0,2.8-1.8,4.2-5.6,4.2c-1.4,0-2.4-0.2-3-0.6c-0.8-0.4-1.2-1.4-1.2-2.6c0-0.6,0.2-1.2,0.4-1.8
		c0.2-0.2,0.2-0.4,0.4-0.4s0.2,0.2,0.2,0.6c0,0.2,0,0.4,0,0.6c0,0.8,0.4,1.4,1.2,1.6c0.4,0.2,1.2,0.2,2.2,0.2c3,0,4.4-0.4,4.4-1.4
		c0-1.4-1.8-3.4-5.2-5.8l0.6-2c0-0.2,0.2-0.2,0.2-0.2s0.2,0,0.4,0.2C814.8,645,816.4,647.4,816.4,649.8z" class="area" title=""></path>
	<path id="PATH_143" d="M824.4,653.8H823c-1.4,0-2.6-0.6-3-1.8c-0.4-0.8-0.6-2.2-0.6-3.8v-3.8c0-1.8-0.2-4.4-0.4-7.8l1.2-1.4
		c0.2-0.2,0.4-0.2,0.4,0c0.2,1.8,0.4,4.4,0.4,7.8v5.8c0,1.6,0.8,2.4,2.4,2.4h1V653.8z" class="area" title=""></path>
	<path id="PATH_144" d="M829.2,650c0,2.6-1.4,4-4,4h-1.6v-2.4h1.4c2,0,3-0.4,3-1s-0.4-1.4-1.4-2.4l0.8-2c0-0.2,0.2-0.2,0.2-0.2
		s0.2,0.2,0.4,0.4C828.8,647.4,829.2,648.6,829.2,650z M828.6,658.2l-1.6,1.6l-1.6-1.6l1.6-1.6L828.6,658.2z" class="area" title=""></path>
	<path id="PATH_145" d="M837.2,632.4c-0.8,0.8-2,1-3.2,1c-0.2,0-0.4,0-0.8,0s-0.6,0-0.8,0c-0.2,0-0.4,0.2-0.6,0.4
		c-0.2,0.2-0.4,0.4-0.4,0.4c-0.2,0-0.2-0.2-0.2-0.4s0.2-0.6,0.4-1c0.2-0.6,0.4-0.8,0.6-0.8s0.6,0,1.2,0.2s1,0.2,1.2,0.2
		c1.2,0,2,0,2.6-0.2c0.4,0,0.6-0.2,0.6-0.2h0.2C837.6,632,837.4,632.2,837.2,632.4z M836,651.4c0,0.8-0.2,1.6-0.6,2.2
		c-0.2,0.4-0.4,0.6-0.4,0.6s-0.2-0.2-0.2-0.8c0-2.4-0.4-8-1.2-17l1.6-1.6c0.2-0.2,0.2-0.2,0.2-0.2s0,0.2,0,0.4
		C835.8,637.6,836,643,836,651.4z" class="area" title=""></path>
	<path id="PATH_146" d="M847.2,654c0,2-0.6,3.8-1.8,5.6c-1,1.4-2,2.2-2.6,2.2c-1.6,0-2.8,0-4-0.2c-0.4,0-0.6-0.2-0.6-0.2
		s0.2-0.2,0.6-0.2c1.6-0.4,3.2-1.2,4.8-2.4c1.6-1.4,2.6-2.8,2.6-4.2c0-0.8-0.6-2-2-3.4l1-1.8c0-0.2,0.2-0.2,0.2-0.2l0.2,0.2
		c0.4,0.6,1,1.4,1.2,2.4C847,652.6,847.2,653.4,847.2,654z M845.6,643.4L844,645l-1.6-1.6l1.6-1.6L845.6,643.4z" class="area" title=""></path>
	<path id="PATH_147" d="M857.4,653c0,3-1,5.6-3,7.6c-0.6,0.6-1,1-1.2,1c-1.2,0-2.4-0.2-3.8-0.4c-0.6,0-0.8-0.2-0.8-0.2
		s0.2-0.2,0.8-0.4c1.6-0.4,3.2-1.4,4.6-2.6c0.6-0.6,1.2-1,1.6-1.8c0.6-0.8,1-1.6,1-2.2v-0.6H854c-1.8,0-2.8-0.8-2.8-2.2
		c0-1,0.2-2,0.8-3.2s1.4-2,2.2-2c1.2,0,2.2,0.8,2.8,2.6C857.2,650.2,857.4,651.6,857.4,653z M856,651.4c0-0.6-0.2-1.2-0.6-1.8
		c-0.4-0.6-1-1-1.6-1c-0.4,0-0.8,0.2-1,0.4c-0.4,0.4-0.4,0.6-0.4,1c0,1,0.6,1.4,2,1.4C854.6,651.6,855.2,651.6,856,651.4z" class="area" title=""></path>
	<path id="PATH_148" d="M870,653.8h-0.8c-0.8,0-1.2-0.2-1.6-0.4c0,0.2,0,0.4,0,0.6c0,1.8-0.6,3.6-1.8,5.4c-1,1.6-2,2.2-2.6,2.2
		c-1.6,0-2.8,0-4-0.2c-0.4,0-0.6-0.2-0.6-0.2s0.2-0.2,0.6-0.2c1.6-0.4,3.2-1.2,4.8-2.4c1.6-1.4,2.6-2.8,2.6-4.2c0-0.8-0.6-2-2-3.4
		l1-1.8c0-0.2,0.2-0.2,0.2-0.2l0.2,0.2c0.6,0.8,1,1.4,1.4,1.6c0.6,0.4,1.4,0.8,2.2,0.8h0.6v2.2H870z" class="area" title=""></path>
	<path id="PATH_149" d="M879.8,653.8h-1.6c-1.8,0-3-0.6-3.8-1.8c-0.6,1.2-2,1.8-4.2,1.8H869v-2.4h1.8c2,0,3-0.8,3.2-2.2
		c0-0.6,0.2-1,0.4-1c0.2,0,0.4,0.4,0.4,1c0.2,1.4,1.2,2.2,3,2.2h1.8v2.4H879.8z M873.2,658.2l-1.6,1.6l-1.6-1.6l1.6-1.6L873.2,658.2
		z M876.6,658.2l-1.6,1.6l-1.6-1.6l1.6-1.6L876.6,658.2z" class="area" title=""></path>
	<path id="PATH_150" d="M887.6,648.2v0.8c0,1.4-0.2,2.2-0.6,2.8c-1,1.4-2.6,2-5.2,2H879v-2.4h2c3.4,0,5.2-0.6,5.6-1.6
		c0-0.2,0-0.2,0-0.4c0-0.4,0-0.6-0.2-0.8c-0.8,0.2-1.8,0.2-2.6,0.2c-1.8,0-2.8-0.8-2.8-2.4c0-1,0.2-2.2,0.8-3.2
		c0.6-1.2,1.4-1.8,2.4-1.8c0.8,0,1.6,0.6,2.2,1.6C887.2,644.6,887.6,646.2,887.6,648.2z M885.2,637.2l-1.6,1.6l-1.6-1.6l1.6-1.6
		L885.2,637.2z M886,646.4c0-0.6-0.2-1.2-0.6-1.8c-0.4-0.6-1-0.8-1.6-0.8c-0.4,0-0.8,0.2-1.2,0.4c-0.2,0.2-0.4,0.6-0.4,1
		c0,0.8,0.6,1.2,2,1.2C884.6,646.8,885.2,646.6,886,646.4z" class="area" title=""></path>
</g>
<g id="G_151" class="area" title="">
	<path id="PATH_152" d="M1102.6,572.8c-0.2,0.6-0.6,1.2-0.8,1.6c-0.4,0.6-1,1.2-1.6,1.6c-1.2,1-2.8,1.2-4.8,1
		c-1.6-0.2-3.2-0.8-4.8-1.8c-1.4-1-2.4-2.2-2.8-3.4c-0.4-1.4-0.2-3,0.6-4.4c0.6-0.8,1.2-1.4,2.2-2c0.6-0.4,1.2-0.8,1.8-0.8
		c0.2,0,0.4,0,0.6,0c0.2,0,0.2,0.2,0,0.2l-0.2,0.2c-1.2,0.6-2,1.4-2.6,2.2s-0.8,1.8-0.6,2.6c0.2,1.2,1,2.4,2.4,3.4
		c1.6,1,3.4,1.8,5,2c1.4,0.2,2.4,0.2,3-0.2c0.2-0.2,0.4-0.4,0.6-0.6c0.2-0.4,0.6-1,0.8-1.8c0.2-0.6,0.2-1.8,0.2-3.6l1.6-1
		c0.2-0.2,0.4-0.2,0.4-0.2s0,0.2,0,0.4C1103.6,569.8,1103.4,571.4,1102.6,572.8z M1102.6,562.4l-2.2,0.4l-0.4-2.2l2.2-0.4
		L1102.6,562.4z" class="area" title=""></path>
	<path id="PATH_153" d="M1109.2,577.6l-1.2-0.8c-1.2-0.8-1.8-2-1.6-3.2c0.2-1,0.6-2.2,1.6-3.6l2.2-3.2c1-1.6,2.4-3.8,4-6.8l1.8-0.4
		c0.4,0,0.4,0,0.4,0.2c-0.8,1.6-2,3.8-4,6.8l-3.2,4.8c-1,1.4-0.8,2.6,0.6,3.4l0.8,0.6L1109.2,577.6z" class="area" title=""></path>
	<path id="PATH_154" d="M1117.4,583l-1.2-0.8c-1.6-1-2.2-2.2-2-3.6c-1.2,0.6-2.8,0.4-4.4-0.8l-1-0.8l1.2-2l1.4,1c1.6,1,3,1,4-0.2
		c0.4-0.4,0.6-0.6,0.8-0.6c0.2,0.2,0.2,0.4-0.2,1c-0.8,1.4-0.2,2.6,1.2,3.6l1.4,1L1117.4,583z M1111.4,584.2l-2.2,0.4l-0.4-2.2
		l2.2-0.4L1111.4,584.2z" class="area" title=""></path>
	<path id="PATH_155" d="M1127.8,589.8l-0.8-0.6c-0.6-0.4-1.4-0.8-2-1c-1.2-0.2-2,0-2.4,0.8c-0.6,1-0.6,2.4,0.2,4l-2,1.2
		c-1.2-1.6-2-3.2-2.4-4.8c-0.4-2-0.2-3.8,0.8-5.4l-2.2-1.6l1.2-2l2.2,1.4c0.8-1.2,2.2-2.4,3.8-3.6c1.6-1,2.6-1.4,3-1.2s0.4,1.2,0,3
		c-0.4,1.6-0.8,2.6-1,3.2c-1.6,2.4-3.4,2.8-5.8,1.4c-0.4,0.8-0.4,1.8-0.4,2.8s0.4,1.8,0.8,2.6c0.2-0.2,0.2-0.4,0.4-0.8
		c0.8-1.2,1.8-2,2.8-2.4c1.6-0.6,3-0.4,4.4,0.4l0.8,0.4L1127.8,589.8z M1124.6,583.8c0.2-0.4,0.4-1,0.6-2.2c0.2-1.2,0.2-1.8,0-2
		c-0.2-0.2-0.8,0-1.6,0.8c-1,0.6-1.8,1.6-2.4,2.4C1123.2,584,1124.2,584.2,1124.6,583.8z" class="area" title=""></path>
	<path id="PATH_156" d="M1142,599.2l-0.6-0.4c-1.6-1-2.8-2.2-3.8-3.4c-1.6-0.6-4-1.8-7-3.8l-3.4-2.2l1.2-2l1.8,1.2
		c0.6,0.4,1,0.4,1.2,0.4c0.2,0,0.6-0.4,0.8-0.8c0.4-0.6,1.2-2,2.4-3.8c1.8-2.8,3.2-5.4,4.2-7.8l2-0.4c0.2,0,0.4,0,0.4,0s0,0.2,0,0.4
		c-0.2,0.8-0.4,1.6-0.6,2.6c0,0.2,0,0.4-0.2,0.4c0,0-0.2,0-0.2-0.2l-0.6-0.4c-1.8,3.2-3,5-3.2,5.4l-1.2,1.8
		c-0.4,0.6-1.2,1.6-2.4,2.6c0.2,0,0.8,0,2-0.2c1.4-0.2,2.8-0.4,3.6-0.4c1.6,0,2.8,0.4,3.8,1c0.8,0.6,1.4,1.2,1.6,2s0.2,1.6-0.4,2.4
		c-0.8,1.2-1.8,1.8-3,2c0.2,0.2,0.6,0.4,1,0.6c0.4,0.2,0.8,0.4,1,0.6l0.6,0.4L1142,599.2z M1141.6,594c0.4-0.6,0.4-1.2,0-2
		c-0.4-0.6-0.8-1.2-1.4-1.6c-1.2-0.8-3.8-1-7.8-0.6c0.6,0.6,1.4,1,2.2,1.6c1,0.6,2.2,1.2,3.6,2
		C1140.2,594.4,1141.4,594.6,1141.6,594z" class="area" title=""></path>
	<path id="PATH_157" d="M1159.4,604.4c-1.2,1.6-2.8,2.2-5.4,1.6c-1.8-0.4-3.6-1.2-5.6-2.6c-1.2-0.8-2-1.4-2.4-1.8
		c-0.6-0.8-1-1.6-0.8-2.4c-1.2,0.6-2.4,0.6-3.4-0.2l-0.6-0.4l1.2-2l0.6,0.4c1.2,0.8,2.4,0.6,3.4-0.4c0.2-0.2,0.4-0.4,0.6-0.2
		s0.2,0.4,0,0.6c-0.6,1.2-0.6,2.2,0.4,2.8c5.2-1.2,8.8-1.4,10.6-0.2c0.8,0.6,1.2,1.2,1.4,2C1160,602.8,1160,603.6,1159.4,604.4z
		 M1157.6,604.6c0.4-0.4,0.4-1.2,0-1.8c-0.2-0.6-0.6-1.2-1.2-1.4c-1.6-1-4-1.2-7.4-0.4c0.4,0.4,1,0.6,1.4,1c1.2,0.8,2.4,1.4,3.6,2
		C1156,604.8,1157.2,605,1157.6,604.6z" class="area" title=""></path>
	<path id="PATH_158" d="M1161.8,609.2c-0.4,0.6-1,1.2-1.6,1.6c-0.4,0.2-0.6,0.4-0.6,0.2c0,0,0-0.2,0.4-0.8c1.2-2,4-6.8,8.4-14.8
		l2.2-0.4c0.2,0,0.4,0,0.4,0s0,0.2-0.2,0.4C1169.2,597.8,1166.4,602.4,1161.8,609.2z" class="area" title=""></path>
</g>
<g id="G_159" class="area" title="">
	<path id="PATH_160" d="M1209.8,534h-0.8c-0.8,0-1.2-0.2-1.6-0.4c0,0.2,0,0.4,0,0.6c0,1.8-0.6,3.6-1.8,5.4c-1,1.6-2,2.2-2.6,2.2
		c-1.6,0-2.8,0-4-0.2c-0.4,0-0.6-0.2-0.6-0.2s0.2-0.2,0.6-0.2c1.6-0.4,3.2-1.2,4.8-2.4c1.6-1.4,2.6-2.8,2.6-4.2c0-0.8-0.6-2-2-3.4
		l1-1.8c0-0.2,0.2-0.2,0.2-0.2l0.2,0.2c0.6,0.8,1,1.4,1.4,1.6c0.6,0.4,1.4,0.8,2.2,0.8h0.6v2.2H1209.8z M1206,523.4l-1.6,1.6
		l-1.6-1.6l1.6-1.6L1206,523.4z" class="area" title=""></path>
	<path id="PATH_161" d="M1214.6,530c0,2.6-1.4,4-4,4h-1.6v-2.4h1.4c2,0,3-0.4,3-1s-0.4-1.4-1.4-2.4l0.8-2c0-0.2,0.2-0.2,0.2-0.2
		s0.2,0.2,0.4,0.4C1214.2,527.4,1214.6,528.8,1214.6,530z M1213,538.4l-1.6,1.6l-1.6-1.6l1.6-1.6L1213,538.4z M1216.4,538.4
		l-1.6,1.6l-1.6-1.6l1.6-1.6L1216.4,538.4z" class="area" title=""></path>
	<path id="PATH_162" d="M1226.6,534.2c0,2-0.6,3.8-1.8,5.6c-1,1.4-2,2.2-2.6,2.2c-1.6,0-2.8,0-4-0.2c-0.4,0-0.6-0.2-0.6-0.2
		s0.2-0.2,0.6-0.2c1.6-0.4,3.2-1.2,4.8-2.4c1.6-1.4,2.6-2.8,2.6-4.2c0-0.8-0.6-2-2-3.4l1-1.8c0-0.2,0.2-0.2,0.2-0.2l0.2,0.2
		c0.4,0.6,1,1.4,1.2,2.4C1226.4,532.6,1226.6,533.4,1226.6,534.2z" class="area" title=""></path>
	<path id="PATH_163" d="M1254.8,534h-4.6c-0.6,0-1.2,0-1.6,0.2c-0.8,0.2-1,0.6-1,1c0,0.2,1,0.4,2.8,0.8c2,0.4,2.8,0.8,2.8,1.2
		c0,1.6-0.4,2.8-1.4,3.6c-1.6,1.4-4.2,2-8,2c-4.6,0-7-1.8-7-5.2c0-0.8,0.2-1.6,0.6-2.6c0.4-1,0.8-1.8,1.2-2.4
		c0.2-0.2,0.4-0.4,0.6-0.4c0.2,0,0.2,0,0.2,0.2s0,0.4-0.2,0.6c-0.6,1.2-1,2.4-1,3.6c0,1.4,0.6,2.4,2,3c1,0.6,2.2,0.8,3.8,0.8
		s3,0,4.4-0.2c2.4-0.4,3.6-0.8,3.6-1.6c0-0.4-0.6-0.6-1.6-0.8c-1.6-0.2-2.6-0.4-3-0.6c-1-0.2-1.6-0.8-1.6-1.4c0-0.4,0.2-1,0.8-1.8
		c0.4-0.6,0.8-1,1.4-1.4c1-0.8,2.2-1.2,4-1.2h2.8V534z" class="area" title=""></path>
	<path id="PATH_164" d="M1259.6,530c0,2.6-1.4,4-4,4h-1.6v-2.4h1.4c2,0,3-0.4,3-1s-0.4-1.4-1.4-2.4l0.8-2c0-0.2,0.2-0.2,0.2-0.2
		s0.2,0.2,0.4,0.4C1259.2,527.4,1259.6,528.8,1259.6,530z M1259.4,521l-1.6,1.6l-1.6-1.6l1.6-1.6L1259.4,521z" class="area" title=""></path>
</g>
<g id="G_165" class="area" title="">
	<path id="PATH_166" d="M1067.4,630h-1.4c-1.4,0-2.6-0.6-3-1.8c-0.4-0.8-0.6-2.2-0.6-3.8v-3.8c0-1.8-0.2-4.4-0.4-7.8l1.2-1.4
		c0.2-0.2,0.4-0.2,0.4,0c0.2,1.8,0.4,4.4,0.4,7.8v5.8c0,1.6,0.8,2.4,2.4,2.4h1V630L1067.4,630z" class="area" title=""></path>
	<path id="PATH_167" d="M1085.8,630h-1.2c-1.4,0-2.2-0.6-2.8-1.6c-0.4,1.2-1.4,1.6-2.6,1.6c-1.2,0-2-0.6-2.6-1.6
		c-0.6,1.2-1.4,1.6-2.6,1.6c-1.4,0-2.4-0.6-3-1.6c-0.8,1.2-1.8,1.6-3.2,1.6h-1.4v-2.4h1.6c1.4,0,2.4-0.8,2.6-2.4
		c0-0.4,0.2-0.6,0.4-0.6c0.2,0,0.2,0.2,0.4,0.6c0.2,1.6,1,2.4,2.6,2.4c1.4,0,2.4-0.8,2.4-2.4c0-0.4,0.2-0.6,0.4-0.6
		c0.2,0,0.4,0.2,0.4,0.6c0.2,1.6,1,2.4,2,2.4c1.4,0,2.4-0.8,2.4-2.4c0-0.4,0.2-0.6,0.4-0.6c0.2,0,0.4,0.2,0.4,0.6
		c0.2,1.6,1,2.4,2.4,2.4h1.2v2.4H1085.8z" class="area" title=""></path>
	<path id="PATH_168" d="M1093.6,624.4v0.8c0,1.4-0.2,2.2-0.6,2.8c-1,1.4-2.6,2-5.2,2h-2.8v-2.4h2c3.4,0,5.2-0.6,5.6-1.6
		c0-0.2,0-0.2,0-0.4c0-0.4,0-0.6-0.2-0.8c-0.8,0.2-1.8,0.2-2.6,0.2c-1.8,0-2.8-0.8-2.8-2.4c0-1,0.2-2.2,0.8-3.2
		c0.6-1.2,1.4-1.8,2.4-1.8c0.8,0,1.6,0.6,2.2,1.6C1093.2,620.6,1093.6,622.4,1093.6,624.4z M1091.4,613.4l-1.6,1.6l-1.6-1.6l1.6-1.6
		L1091.4,613.4z M1092.2,622.6c0-0.6-0.2-1.2-0.6-1.8c-0.4-0.6-1-0.8-1.6-0.8c-0.4,0-0.8,0.2-1.2,0.4s-0.4,0.6-0.4,1
		c0,0.8,0.6,1.2,2,1.2C1090.8,622.8,1091.4,622.8,1092.2,622.6z" class="area" title=""></path>
</g>
<g id="G_169" class="area" title="">
	<path id="PATH_170" d="M978,696.4c0,0.4-0.2,0.8-0.6,1.6s-0.8,1.2-1,1.2c-0.6,0-1.4-0.2-2.4-0.4s-1.8-0.4-2.4-0.4
		c-1,0-1.8,0.2-2.2,0.4c0.4,3.4,0.6,6,0.6,7.6c0,0.8-0.2,1.6-0.8,2.6c-0.2,0.2-0.2,0.4-0.2,0.4s0,0,0-0.2c-0.2-3.2-0.4-6.4-0.8-9.6
		c0-0.4,0.2-0.8,0.6-1.4c0.4-0.4,0.6-0.8,1-1c0.4-0.4,1-0.4,1.6-0.4c-0.2-0.6-0.2-1-0.2-1.4c0-0.6,0.2-1.4,0.8-2.2
		c0.6-0.8,1.2-1.2,2-1.2c1,0,2,0.6,3,1.6S978,695.4,978,696.4z M976.4,697c-0.2-0.6-0.8-1.4-1.4-2c-0.8-0.8-1.4-1-2.2-1
		c-1,0-1.4,0.4-1.4,1c0,0.4,0.2,0.8,0.4,1.6C973.2,696.6,974.8,696.6,976.4,697z" class="area" title=""></path>
	<path id="PATH_171" d="M990.6,700.4h-0.8c-0.8,0-1.2-0.2-1.6-0.4c0,0.2,0,0.4,0,0.6c0,1.8-0.6,3.6-1.8,5.4c-1,1.6-2,2.2-2.6,2.2
		c-1.6,0-2.8,0-4-0.2c-0.4,0-0.6-0.2-0.6-0.2s0.2-0.2,0.6-0.2c1.6-0.4,3.2-1.2,4.8-2.4c1.6-1.4,2.6-2.8,2.6-4.2c0-0.8-0.6-2-2-3.4
		l1-1.8c0-0.2,0.2-0.2,0.2-0.2l0.2,0.2c0.6,0.8,1,1.4,1.4,1.6c0.6,0.4,1.4,0.8,2.2,0.8h0.6v2.2H990.6z" class="area" title=""></path>
	<path id="PATH_172" d="M1003,700.4h-1c-0.8,0-1.6,0.2-2.2,0.4c-1,0.4-1.6,1-1.6,2c0,1.2,0.8,2.2,2.4,3.2l-1,2
		c-1.8-0.6-3.4-1.6-4.6-2.8c-1.6-1.4-2.4-3.2-2.4-5h-2.8V698h2.6c0-1.6,0.4-3.2,1.2-5.2c0.8-1.8,1.4-2.6,1.8-2.6
		c0.4,0,1,0.8,1.6,2.6c0.6,1.6,0.8,2.6,0.8,3.2c0,2.8-1.4,4.2-4.2,4.2c0.2,0.8,0.6,1.6,1.2,2.4c0.6,0.8,1.4,1.4,2.2,1.8
		c0-0.2,0-0.6,0-0.8c0-1.4,0.4-2.6,1-3.6c1-1.4,2.2-2.2,4-2.2h0.8v2.6H1003z M997,697.2c0-0.4-0.2-1.2-0.6-2.2
		c-0.4-1.2-0.8-1.6-1.2-1.6c-0.2,0-0.6,0.4-1,1.4s-0.6,2.2-0.6,3.4C995.8,698,997,697.8,997,697.2z" class="area" title=""></path>
	<path id="PATH_173" d="M1018.6,694.6l-0.8,1.6c-1.4,0-2.6,0-3.2,0.2c-0.8,0.4-2,0.8-3.6,1.6s-2.8,1.4-3.6,1.6
		c-1.2,0.4-2.6,0.6-3.8,0.6h-1.4V698h1.6c1.8,0,3.4-0.4,4.8-1l4.6-2c-0.8-0.2-2-0.6-3.6-1.2c-1.4-0.6-2.2-0.8-2.6-0.8
		c-0.8,0-1.6,0.4-2.4,1c-0.2,0.2-0.2,0.2-0.4,0.2c-0.2,0-0.2,0-0.2-0.2v-0.2c0.6-2,1.8-2.8,3.4-2.8c0.6,0,1.4,0.2,2.2,0.6
		c1.6,0.8,2.8,1.2,3.6,1.6c1.4,0.4,3,0.8,4.8,0.8c0.4,0,0.6,0,0.6,0.2C1018.8,694.2,1018.8,694.4,1018.6,694.6z M1012,704.4
		l-1.6,1.6l-1.6-1.6l1.6-1.6L1012,704.4z" class="area" title=""></path>
</g>
<g id="G_174" class="area" title="">
	<path id="PATH_175" d="M1247.8,680.6c0,1.4-0.4,2.6-1.4,3.2c-0.6,0.4-1.8,0.8-3.6,1c-2,0.4-4,0.6-6.2,0.6c-5.2,0-8-1.4-8-4.4
		c0-1,0.4-2,1.2-3c0.2-0.2,0.2-0.4,0.4-0.4c0.2,0,0.2,0,0.2,0.2c0,0,0,0.2,0,0.4c-0.2,0.6-0.4,1.2-0.4,1.8c0,2,2.6,3,7.6,3
		c2.4,0,4.6-0.2,6.2-0.4c2-0.4,2.8-0.8,2.8-1.4c0-0.4-0.4-1.2-1.4-2.4l1-1.8c0.2-0.2,0.2-0.2,0.4,0
		C1247.4,678.2,1247.8,679.4,1247.8,680.6z M1240,689.6l-1.6,1.6l-1.6-1.6l1.6-1.6L1240,689.6z" class="area" title=""></path>
	<path id="PATH_176" d="M1252.6,682.6c0,0.8-0.2,1.6-0.6,2.2c-0.2,0.4-0.4,0.6-0.4,0.6s-0.2-0.2-0.2-0.8c0-2.4-0.4-8-1.2-17l1.6-1.6
		c0.2-0.2,0.2-0.2,0.2-0.2s0,0.2,0,0.4C1252.4,668.8,1252.6,674.2,1252.6,682.6z" class="area" title=""></path>
	<path id="PATH_177" d="M1262.6,685.2c0,2-0.6,3.8-1.8,5.6c-1,1.4-2,2.2-2.6,2.2c-1.6,0-2.8,0-4-0.2c-0.4,0-0.6-0.2-0.6-0.2
		s0.2-0.2,0.6-0.2c1.6-0.4,3.2-1.2,4.8-2.4c1.6-1.4,2.6-2.8,2.6-4.2c0-0.8-0.6-2-2-3.4l1-1.8c0-0.2,0.2-0.2,0.2-0.2l0.2,0.2
		c0.4,0.6,1,1.4,1.2,2.4C1262.4,683.6,1262.6,684.4,1262.6,685.2z" class="area" title=""></path>
	<path id="PATH_178" d="M1267.4,682.6c0,0.8-0.2,1.6-0.6,2.2c-0.2,0.4-0.4,0.6-0.4,0.6s-0.2-0.2-0.2-0.8c0-2.4-0.4-8-1.2-17l1.6-1.6
		c0.2-0.2,0.2-0.2,0.2-0.2s0,0.2,0,0.4C1267.2,668.8,1267.4,674.2,1267.4,682.6z" class="area" title=""></path>
	<path id="PATH_179" d="M1279.6,680.8c0,2.8-1.8,4.2-5.6,4.2c-1.4,0-2.4-0.2-3-0.6c-0.8-0.4-1.2-1.4-1.2-2.6c0-0.6,0.2-1.2,0.4-1.8
		c0.2-0.2,0.2-0.4,0.4-0.4c0.2,0,0.2,0.2,0.2,0.6c0,0.2,0,0.4,0,0.6c0,0.8,0.4,1.4,1.2,1.6c0.4,0.2,1.2,0.2,2.2,0.2
		c3,0,4.4-0.4,4.4-1.4c0-1.4-1.8-3.4-5.2-5.8l0.6-2c0-0.2,0.2-0.2,0.2-0.2s0.2,0,0.4,0.2C1278,676,1279.6,678.6,1279.6,680.8z" class="area" title=""></path>
</g>
<g id="G_180" class="area" title="">
	<path id="PATH_181" d="M1196,777.4h-0.8c-1,0-1.8-0.2-2.2-0.6c-0.6-0.4-1-1.2-1-2c-2.2,2-5.6,3-10.2,3c-4.8,0-7.2-1.4-7.2-4.4
		c0-1,0.4-2,1.2-3c0.2-0.2,0.2-0.2,0.4-0.2c0.2,0,0.2,0,0.2,0.2c0,0,0,0.2,0,0.4c-0.2,0.6-0.4,1.2-0.4,1.8c0,2,2.2,3,6.6,3
		c5,0,8.4-1,10-3.2c0.4-0.4,0.6-0.6,0.8-0.6c0.2,0,0.2,0.2,0.2,0.4s0,0.4-0.2,0.8c0,0.4-0.2,0.6-0.2,0.8c0,1,0.8,1.6,2.2,1.6h0.8v2
		H1196z M1183.6,765.8l-1.6,1.6l-1.6-1.6l1.6-1.6L1183.6,765.8z M1187,765.8l-1.6,1.6l-1.6-1.6l1.6-1.6L1187,765.8z" class="area" title=""></path>
	<path id="PATH_182" d="M1211.8,773c0,1.2-0.2,2.2-0.8,3s-1.6,1.4-2.6,1.4c-1.4,0-2.2-0.6-2.8-1.6c-0.8,1.2-1.6,1.6-2.8,1.6
		c-1.4,0-2.4-0.6-3-1.6c-0.8,1.2-1.8,1.6-3.2,1.6h-1.4V775h1.6c1.4,0,2.4-0.8,2.6-2.4c0-0.4,0.2-0.6,0.4-0.6c0.2,0,0.2,0.2,0.4,0.6
		c0.2,1.6,1,2.4,2.6,2.4c0.8,0,1.6-0.2,2-0.6c0.2-0.4,0.4-0.8,0.6-1.6c0-0.4,0.2-0.6,0.4-0.6c0.2,0,0.2,0.2,0.4,0.6
		c0.2,1.6,1,2.4,2.4,2.4c1.6,0,2.2-0.4,2.2-1s-0.4-1.4-1.2-2.2l1-1.8c0.2-0.2,0.2-0.4,0.4-0.4c0.2,0,0.2,0.2,0.4,0.4
		C1211.6,771.2,1211.8,772.2,1211.8,773z M1205.2,765.8l-1.4,1.4l-1.4-1.4l1.4-1.4L1205.2,765.8z M1206.8,762.6l-1.4,1.4l-1.4-1.4
		l1.4-1.4L1206.8,762.6z M1208.6,765.8l-1.4,1.4l-1.4-1.4l1.4-1.4L1208.6,765.8z" class="area" title=""></path>
	<path id="PATH_183" d="M1224.2,773.2c0,2.8-1.8,4.2-5.6,4.2c-1.4,0-2.4-0.2-3-0.6c-0.8-0.4-1.2-1.4-1.2-2.6c0-0.6,0.2-1.2,0.4-1.8
		c0.2-0.2,0.2-0.4,0.4-0.4c0.2,0,0.2,0.2,0.2,0.6c0,0.2,0,0.4,0,0.6c0,0.8,0.4,1.4,1.2,1.6c0.4,0.2,1.2,0.2,2.2,0.2
		c3,0,4.4-0.4,4.4-1.4c0-1.4-1.8-3.4-5.2-5.8l0.6-2c0-0.2,0.2-0.2,0.2-0.2s0.2,0,0.4,0.2C1222.4,768.4,1224.2,770.8,1224.2,773.2z" class="area" title=""></path>
	<path id="PATH_184" d="M1252.2,777.4h-1c-1,0-1.6,0-2-0.2c0,0.6,0.2,1,0.2,1.6c0,1-0.2,1.6-0.4,2.2c-0.6,1.4-1.6,2.6-3.6,3.4
		c-1.6,0.6-3.2,1-5,1c-1.8,0-3.2-0.4-4.4-1.2c-1.2-1-1.8-2.2-1.8-4c0-1,0.2-1.8,0.6-3c0.4-0.8,0.6-1.4,1-1.8
		c0.2-0.2,0.4-0.2,0.4-0.2c0.2,0,0.2,0,0.2,0.2c0,0,0,0.2,0,0.4c-0.6,1.2-0.8,2.4-0.8,3.4s0.4,1.8,1,2.6c0.8,1,2.2,1.4,4,1.4
		c2,0,3.8-0.4,5.2-1c1.2-0.6,2-1.2,2.4-2c0.2-0.2,0.2-0.6,0-1.4c0-0.6-0.2-1.2-0.2-1.4c-0.2-0.6-1-1.6-2-3l0.8-1.6
		c0.2-0.2,0.2-0.4,0.2-0.4s0.2,0,0.2,0.2c1,1.6,2,2.4,3.2,2.4h1.6v2.4H1252.2z M1243.4,768.4l-1.6,1.6l-1.6-1.6l1.6-1.6
		L1243.4,768.4z" class="area" title=""></path>
	<path id="PATH_185" d="M1257,773.4c0,2.6-1.4,4-4,4h-1.6V775h1.4c2,0,3-0.4,3-1s-0.4-1.4-1.4-2.4l0.8-2c0-0.2,0.2-0.2,0.2-0.2
		s0.2,0.2,0.4,0.4C1256.6,770.8,1257,772,1257,773.4z M1255.4,781.8l-1.6,1.6l-1.6-1.6l1.6-1.6L1255.4,781.8z M1258.8,781.8
		l-1.6,1.6l-1.6-1.6l1.6-1.6L1258.8,781.8z" class="area" title=""></path>
	<path id="PATH_186" d="M1269,777.6c0,2-0.6,3.8-1.8,5.6c-1,1.4-2,2.2-2.6,2.2c-1.6,0-2.8,0-4-0.2c-0.4,0-0.6-0.2-0.6-0.2
		s0.2-0.2,0.6-0.2c1.6-0.4,3.2-1.2,4.8-2.4c1.6-1.4,2.6-2.8,2.6-4.2c0-0.8-0.6-2-2-3.4l1-1.8c0-0.2,0.2-0.2,0.2-0.2l0.2,0.2
		c0.4,0.6,1,1.4,1.2,2.4C1268.8,776,1269,776.8,1269,777.6z" class="area" title=""></path>
	<path id="PATH_187" d="M1279,777.6c0,2-0.6,3.8-1.8,5.6c-1,1.4-2,2.2-2.6,2.2c-1.6,0-2.8,0-4-0.2c-0.4,0-0.6-0.2-0.6-0.2
		s0.2-0.2,0.6-0.2c1.6-0.4,3.2-1.2,4.8-2.4c1.6-1.4,2.6-2.8,2.6-4.2c0-0.8-0.6-2-2-3.4l1-1.8c0-0.2,0.2-0.2,0.2-0.2l0.2,0.2
		c0.4,0.6,1,1.4,1.2,2.4C1278.8,776,1279,776.8,1279,777.6z M1277.6,766.8l-1.6,1.6l-1.6-1.6l1.6-1.6L1277.6,766.8z" class="area" title=""></path>
</g>
<g id="G_188" class="area" title="">
	<path id="PATH_189" d="M860.2,768h-1c-1,0-1.6,0-2-0.2c0,0.6,0.2,1,0.2,1.6c0,1-0.2,1.6-0.4,2.2c-0.6,1.4-1.6,2.6-3.6,3.4
		c-1.6,0.6-3.2,1-5,1s-3.2-0.4-4.4-1.2c-1.2-1-1.8-2.2-1.8-4c0-1,0.2-1.8,0.6-3c0.4-0.8,0.6-1.4,1-1.8c0.2-0.2,0.4-0.2,0.4-0.2
		c0.2,0,0.2,0,0.2,0.2c0,0,0,0.2,0,0.4c-0.6,1.2-0.8,2.4-0.8,3.4s0.4,1.8,1,2.6c0.8,1,2.2,1.4,4,1.4c2,0,3.8-0.4,5.2-1
		c1.2-0.6,2-1.2,2.4-2c0.2-0.2,0.2-0.6,0-1.4c0-0.6-0.2-1.2-0.2-1.4c-0.2-0.6-1-1.6-2-3l0.8-1.6c0.2-0.2,0.2-0.4,0.2-0.4
		s0.2,0,0.2,0.2c1,1.6,2,2.4,3.2,2.4h1.6v2.4H860.2z M851.4,759l-1.6,1.6l-1.6-1.6l1.6-1.6L851.4,759z" class="area" title=""></path>
	<path id="PATH_190" d="M865,764c0,2.6-1.4,4-4,4h-1.6v-2.4h1.4c2,0,3-0.4,3-1s-0.4-1.4-1.4-2.4l0.8-2c0-0.2,0.2-0.2,0.2-0.2
		s0.2,0.2,0.4,0.4C864.6,761.4,865,762.8,865,764z M863.4,772.4l-1.6,1.6l-1.6-1.6l1.6-1.6L863.4,772.4z M866.8,772.4l-1.6,1.6
		l-1.6-1.6l1.6-1.6L866.8,772.4z" class="area" title=""></path>
	<path id="PATH_191" d="M877,768.2c0,2-0.6,3.8-1.8,5.6c-1,1.4-2,2.2-2.6,2.2c-1.6,0-2.8,0-4-0.2c-0.4,0-0.6-0.2-0.6-0.2
		s0.2-0.2,0.6-0.2c1.6-0.4,3.2-1.2,4.8-2.4c1.6-1.4,2.6-2.8,2.6-4.2c0-0.8-0.6-2-2-3.4l1-1.8c0-0.2,0.2-0.2,0.2-0.2l0.2,0.2
		c0.4,0.6,1,1.4,1.2,2.4C876.8,766.6,877,767.4,877,768.2z M875.4,757.4l-1.6,1.6l-1.6-1.6l1.6-1.6L875.4,757.4z" class="area" title=""></path>
	<path id="PATH_192" d="M887,768.2c0,2-0.6,3.8-1.8,5.6c-1,1.4-2,2.2-2.6,2.2c-1.6,0-2.8,0-4-0.2c-0.4,0-0.6-0.2-0.6-0.2
		s0.2-0.2,0.6-0.2c1.6-0.4,3.2-1.2,4.8-2.4c1.6-1.4,2.6-2.8,2.6-4.2c0-0.8-0.6-2-2-3.4l1-1.8c0-0.2,0.2-0.2,0.2-0.2l0.2,0.2
		c0.4,0.6,1,1.4,1.2,2.4C886.8,766.6,887,767.4,887,768.2z" class="area" title=""></path>
	<path id="PATH_193" d="M895,768h-1.4c-1.4,0-2.6-0.6-3-1.8c-0.4-0.8-0.6-2.2-0.6-3.8v-3.8c0-1.8-0.2-4.4-0.4-7.8l1.2-1.4
		c0.2-0.2,0.4-0.2,0.4,0c0.2,1.8,0.4,4.4,0.4,7.8v5.8c0,1.6,0.8,2.4,2.4,2.4h1V768z" class="area" title=""></path>
	<path id="PATH_194" d="M907.4,749.4c0,0.4-0.4,1.2-0.8,2.2l-5,1.6c-2.2,0.8-3.8,1.4-4.6,1.8c1.6,1.6,2.6,2.8,3.2,3.4
		c1,1.4,1.6,2.6,1.8,4c0,1,0,2-0.4,2.8c-0.6,1.8-2.8,2.6-6.2,2.6h-1v-2.4h1.2c1.6,0,2.8,0,3.4-0.2c1.4-0.4,2.2-1,2.2-2
		c0-1.4-1-3-3.2-5l-0.2,0.4c-0.2-0.2-0.6-0.6-1-1.2c-0.6-0.6-0.8-1.2-0.8-1.2c0-0.4,0-0.8,0.2-1.6s0.4-1.2,0.6-1.4
		c0.2-0.2,1.6-0.8,4.2-1.6C903.2,750.8,905.6,750,907.4,749.4z" class="area" title=""></path>
	<path id="PATH_195" d="M924.6,767.2c0,3-1,5.6-3,7.6c-0.6,0.6-1,1-1.2,1c-1.2,0-2.4-0.2-3.8-0.4c-0.6,0-0.8-0.2-0.8-0.2
		s0.2-0.2,0.8-0.4c1.6-0.4,3.2-1.4,4.6-2.6c0.6-0.6,1.2-1,1.6-1.8c0.6-0.8,1-1.6,1-2.2v-0.6h-2.6c-1.8,0-2.8-0.8-2.8-2.2
		c0-1,0.2-2,0.8-3.2c0.6-1.2,1.4-2,2.2-2c1.2,0,2.2,0.8,2.8,2.6C924.4,764.2,924.6,765.6,924.6,767.2z M923.2,765.6
		c0-0.6-0.2-1.2-0.6-1.8c-0.4-0.6-1-1-1.6-1c-0.4,0-0.8,0.2-1,0.4c-0.4,0.4-0.4,0.6-0.4,1c0,1,0.6,1.4,2,1.4
		C921.8,765.8,922.4,765.6,923.2,765.6z" class="area" title=""></path>
	<path id="PATH_196" d="M945,768h-0.8c-0.8,0-1.2-0.2-1.6-0.4c0,0.2,0,0.4,0,0.6c0,1.8-0.6,3.6-1.8,5.4c-1,1.6-2,2.2-2.6,2.2
		c-1.6,0-2.8,0-4-0.2c-0.4,0-0.6-0.2-0.6-0.2s0.2-0.2,0.6-0.2c1.6-0.4,3.2-1.2,4.8-2.4c1.6-1.4,2.6-2.8,2.6-4.2c0-0.8-0.6-2-2-3.4
		l1-1.8c0-0.2,0.2-0.2,0.2-0.2l0.2,0.2c0.6,0.8,1,1.4,1.4,1.6c0.6,0.4,1.4,0.8,2.2,0.8h0.6v2.2H945z" class="area" title=""></path>
	<path id="PATH_197" d="M954.8,768h-1.6c-1.8,0-3-0.6-3.8-1.8c-0.6,1.2-2,1.8-4.2,1.8H944v-2.4h1.8c2,0,3-0.8,3.2-2.2
		c0-0.6,0.2-1,0.4-1c0.2,0,0.4,0.4,0.4,1c0.2,1.4,1.2,2.2,3,2.2h1.8v2.4H954.8z M948.2,772.4l-1.6,1.6l-1.6-1.6l1.6-1.6L948.2,772.4
		z M951.6,772.4L950,774l-1.6-1.6l1.6-1.6L951.6,772.4z" class="area" title=""></path>
	<path id="PATH_198" d="M962.6,762.4c0,1.8-0.2,3-0.6,3.6c-1,1.4-2.6,2-5.2,2H954v-2.4h2c3.4,0,5.2-0.6,5.6-1.6
		c0.2-0.4,0-0.8-0.2-1.2c-0.8,0.2-1.6,0.2-2.6,0.2c-1.8,0-2.8-0.8-2.8-2.4c0-1,0.2-2.2,0.8-3.2c0.6-1.2,1.4-1.8,2.4-1.8
		c0.8,0,1.6,0.6,2.2,1.6C962.2,758.8,962.6,760.4,962.6,762.4z M958.6,751.4L957,753l-1.6-1.6l1.6-1.6L958.6,751.4z M961,760.6
		c0-0.6-0.2-1.2-0.6-1.8c-0.4-0.6-1-0.8-1.6-0.8c-0.4,0-0.8,0.2-1.2,0.4s-0.4,0.6-0.4,1c0,0.8,0.6,1.2,2,1.2
		C959.6,760.8,960.2,760.8,961,760.6z M962,751.4l-1.6,1.6l-1.6-1.6l1.6-1.6L962,751.4z" class="area" title=""></path>
</g>
<g id="G_199" class="area" title="">
	<path id="PATH_200" d="M934.4,866h-2c-2.6,0-4-1.2-4-3.6c0-0.6,0-1,0.2-1.6c-2.2,0.4-4,1.2-5.6,2.2c-2.2,1.4-3.2,3-3.2,4.8
		s0.8,3,2.6,4c1.4,0.6,3,1,5,1s3.8-0.2,5.4-0.6c0.2,0,0.2,0,0.4,0c0.2,0,0.2,0,0.2,0.2s-0.2,0.2-0.4,0.4c-1,1-2,1.6-3.2,1.8
		c-1,0.2-2.2,0.4-3.6,0.4c-2.8,0-5-0.6-6.4-2c-1-1-1.6-2.4-1.6-4c0-3.8,2.6-6.8,7.6-8.8c-2.2-0.4-3.6-0.6-4.6-0.6
		c-0.4,0-1,0.2-1.8,0.8c-0.8,0.6-1.2,0.8-1,0.8c-0.2,0-0.2-0.2-0.2-0.6c0-0.6,0.4-1.2,0.8-1.8c0.6-1,1.6-1.6,2.8-1.6
		c1,0,2.4,0.2,4.2,0.6c1.8,0.4,3.4,0.6,4.4,0.6h1.4c0.4,0,0.6,0,0.6,0.2c0,0,0,0.2-0.2,0.4l-0.6,1.6c-0.6,0-1.4,0.2-2.6,0.2
		c0,0.4,0,0.6,0,0.8c0,1.6,1,2.2,3.2,2.2h1.8v2.2H934.4z M926.8,867.4l-1.6,1.6l-1.6-1.6l1.6-1.6L926.8,867.4z" class="area" title=""></path>
	<path id="PATH_201" d="M944.2,866h-1.6c-1.8,0-3-0.6-3.8-1.8c-0.6,1.2-2,1.8-4.2,1.8h-1v-2.4h1.8c2,0,3-0.8,3.2-2.2
		c0-0.6,0.2-1,0.4-1c0.2,0,0.4,0.4,0.4,1c0.2,1.4,1.2,2.2,3,2.2h1.8L944.2,866L944.2,866z M940.2,855.6l-1.6,1.6l-1.6-1.6l1.6-1.6
		L940.2,855.6z" class="area" title=""></path>
	<path id="PATH_202" d="M959.8,860.2l-0.8,1.6c-1.4,0-2.6,0-3.2,0.2c-0.8,0.4-2,0.8-3.6,1.6s-2.8,1.4-3.6,1.6
		c-1.2,0.4-2.6,0.6-3.8,0.6h-1.4v-2.4h1.6c1.8,0,3.4-0.4,4.8-1l4.6-2c-0.8-0.2-2-0.6-3.6-1.2c-1.4-0.6-2.2-0.8-2.6-0.8
		c-0.8,0-1.6,0.4-2.4,1c-0.2,0.2-0.2,0.2-0.4,0.2c-0.2,0-0.2,0-0.2-0.2v-0.2c0.6-2,1.8-2.8,3.4-2.8c0.6,0,1.4,0.2,2.2,0.6
		c1.6,0.8,2.8,1.2,3.6,1.6c1.4,0.4,3,0.8,4.8,0.8c0.4,0,0.6,0,0.6,0.2C960,859.8,960,860,959.8,860.2z M954.2,851l-1.6,1.6L951,851
		l1.6-1.6L954.2,851z" class="area" title=""></path>
</g>
<g id="G_203" class="area" title="">
	<path id="PATH_204" d="M889.2,928.8l-0.6-0.6c-0.6-0.6-0.8-1-0.8-1.4c-0.2,0.2-0.2,0.2-0.4,0.4c-1.4,1.4-3,2.2-5.2,2.6
		c-1.8,0.4-3,0.2-3.4-0.2c-1-1-2-2-2.6-3c-0.2-0.2-0.2-0.4-0.2-0.6c0,0,0.2,0,0.6,0.2c1.4,0.8,3,1.4,5,1.6c2.2,0.2,3.8-0.2,4.6-1.2
		c0.6-0.6,1-2,0.8-3.8l2-0.6c0.2,0,0.2,0,0.4,0c0,0,0,0.2,0,0.4c-0.2,1-0.2,1.8-0.2,2.2c0,0.8,0.4,1.4,1,2l0.4,0.4L889.2,928.8z" class="area" title=""></path>
	<path id="PATH_205" d="M898,937.6l-0.8-0.8c-0.6-0.6-1.2-1-1.8-1.4c-1-0.4-2-0.4-2.6,0.4c-0.8,0.8-1,2.2-0.6,4l-2.2,0.8
		c-0.8-1.8-1.2-3.6-1.4-5.2c0-2,0.6-3.8,1.8-5.2l-2-2l1.6-1.6l1.8,1.8c1-1,2.6-2,4.6-2.8c1.8-0.8,2.8-1,3.2-0.6s0.2,1.4-0.6,3
		c-0.6,1.4-1.2,2.4-1.6,2.8c-2,2-4,2-6,0.2c-0.4,0.8-0.8,1.6-1,2.6c-0.2,1,0,2,0.2,2.8c0.2-0.2,0.4-0.4,0.6-0.6c1-1,2-1.6,3.2-1.8
		c1.6-0.4,3.2,0.2,4.2,1.4l0.6,0.6L898,937.6z M896,931c0.2-0.2,0.6-1,1-2c0.4-1.2,0.6-1.8,0.4-2c-0.2-0.2-0.8,0-1.8,0.4
		s-2,1.2-2.8,2C894.6,930.8,895.6,931.4,896,931z" class="area" title=""></path>
	<path id="PATH_206" d="M907.8,941.8c-0.6,0.8-1.4,1.2-2,1.6c-1,0.4-1.8,0.4-2.2,0c-0.8-0.8-1.4-2.2-1.8-4.6c-1,0-1.6,0.2-1.8,0
		c-0.6,0-1.2-0.4-1.8-1l-0.8-0.8l1.6-1.6l1,1c0.6,0.6,1.6,0.8,2.6,0.6c0.6-0.2,1.6-0.2,3-0.6c1.2-0.2,2,0,2.4,0.4
		c0.6,0.6,1,1.6,0.6,2.8C908.6,940.4,908.4,941.2,907.8,941.8z M906,942c0.4-0.4,0.8-1,0.8-1.8c0.2-0.8,0-1.6-0.4-2
		c-0.4-0.4-1.4-0.4-2.8-0.2c0,0.4,0.2,1.2,0.4,2.2c0.4,1,0.6,1.6,1,1.8S905.8,942.2,906,942z" class="area" title=""></path>
</g>
<g id="G_207" class="area" title="">
	<path id="PATH_208" d="M1045.2,927.8c0,2.8-1.2,4.2-3.6,4.2c-1.4,0-2.2-0.6-2.6-1.8c-0.6,1.2-1.6,1.8-2.8,1.8c-0.4,0-1,0-1.4-0.2
		c0,1.2-0.2,2.4-0.2,3.8c-0.6,1.4-1.6,2.6-3.4,3.4c-1.6,0.6-3.2,1-5,1c-1.8,0-3.2-0.4-4.4-1.2c-1.2-1-1.8-2.2-1.8-4
		c0-1,0.2-1.8,0.6-3c0.4-0.8,0.6-1.4,1-1.8c0.2-0.2,0.4-0.2,0.4-0.2c0.2,0,0.2,0,0.2,0.2c0,0,0,0.2,0,0.4c-0.6,1.2-0.8,2.4-0.8,3.4
		s0.4,1.8,1,2.6c0.8,1,2.2,1.4,4,1.4c2,0,3.8-0.4,5.2-1c1.2-0.6,2-1.2,2.2-2c0.2-0.2,0.2-0.6,0-1.4c0-0.6-0.2-1.2-0.2-1.4
		c-0.2-0.6-0.8-1.6-2-3l0.8-1.6c0.2-0.2,0.2-0.4,0.2-0.4s0.2,0,0.2,0.2c0.6,0.8,1,1.4,1.2,1.6c0.6,0.6,1.2,0.8,2,0.8
		c0.8,0,1.6-0.2,2-0.8c0.2-0.4,0.4-0.8,0.6-1.8c0-0.4,0.2-0.6,0.4-0.6c0.2,0,0.2,0.2,0.2,0.6c0.2,1,0.4,1.6,0.8,2
		c0.4,0.4,1.2,0.6,2.2,0.6c0.4,0,0.8-0.2,1-0.4c0.4-0.2,0.6-0.6,0.6-1c0-0.6-0.4-1.2-1.2-2.2l1-1.8c0.2-0.2,0.2-0.2,0.2-0.2l0.2,0.2
		C1045,925.6,1045.2,926.6,1045.2,927.8z M1038.6,920.4l-1.4,1.4l-1.4-1.4l1.4-1.4L1038.6,920.4z M1040.4,917.2l-1.4,1.4l-1.4-1.4
		l1.4-1.4L1040.4,917.2z M1042.2,920.4l-1.4,1.4l-1.4-1.4l1.4-1.4L1042.2,920.4z" class="area" title=""></path>
	<path id="PATH_209" d="M1050,929.6c0,0.8-0.2,1.6-0.6,2.2c-0.2,0.4-0.4,0.6-0.4,0.6s-0.2-0.2-0.2-0.8c0-2.4-0.4-8-1.2-17l1.6-1.6
		c0.2-0.2,0.2-0.2,0.2-0.2s0,0.2,0,0.4C1049.8,915.8,1050,921.2,1050,929.6z" class="area" title=""></path>
	<path id="PATH_210" d="M1062.4,932h-0.8c-0.8,0-1.2-0.2-1.6-0.4c0,0.2,0,0.4,0,0.6c0,1.8-0.6,3.6-1.8,5.4c-1,1.6-2,2.2-2.6,2.2
		c-1.6,0-2.8,0-4-0.2c-0.4,0-0.6-0.2-0.6-0.2s0.2-0.2,0.6-0.2c1.6-0.4,3.2-1.2,4.8-2.4c1.6-1.4,2.6-2.8,2.6-4.2c0-0.8-0.6-2-2-3.4
		l1-1.8c0-0.2,0.2-0.2,0.2-0.2l0.2,0.2c0.6,0.8,1,1.4,1.4,1.6c0.6,0.4,1.4,0.8,2.2,0.8h0.6v2.2H1062.4z" class="area" title=""></path>
	<path id="PATH_211" d="M1074.4,915.8c0,0.4-0.2,1-0.6,2.2c-2.4,0.6-5.4,1.6-8.8,2.6c2.4,2.4,3.8,4.4,4,5.8c0.2,1,0,2-0.4,3
		s-1.2,1.6-2.2,2c-0.8,0.4-2.2,0.4-4,0.4h-0.8v-2.4h0.6c3.8,0,5.8-0.6,5.8-2c0-1-1-2.6-3.2-4.6l-0.2,0.6c-0.2-0.2-0.6-0.6-1-1.2
		c-0.6-0.6-0.8-1-0.8-1.2c0-0.6,0.2-1.2,0.8-1.8c0.2-0.2,1.4-0.6,4-1.4C1070.2,917,1072.4,916.4,1074.4,915.8z M1074,912.8l-0.4,1.4
		l-9.8,3.2l0.4-1.4L1074,912.8z" class="area" title=""></path>
</g>
<g id="G_212" class="area" title="">
	<path id="PATH_213" d="M972.4,987.2c0,2.8-1.8,4.2-5.6,4.2c-1.4,0-2.4-0.2-3-0.6c-0.8-0.4-1.2-1.4-1.2-2.6c0-0.6,0.2-1.2,0.4-1.8
		c0.2-0.2,0.2-0.4,0.4-0.4s0.2,0.2,0.2,0.6c0,0.2,0,0.4,0,0.6c0,0.8,0.4,1.4,1.2,1.6c0.4,0.2,1.2,0.2,2.2,0.2c3,0,4.4-0.4,4.4-1.4
		c0-1.4-1.8-3.4-5.2-5.8l0.6-2c0-0.2,0.2-0.2,0.2-0.2s0.2,0,0.4,0.2C970.8,982.6,972.4,985,972.4,987.2z" class="area" title=""></path>
	<path id="PATH_214" d="M984.8,991.4H984c-0.8,0-1.2-0.2-1.6-0.4c0,0.2,0,0.4,0,0.6c0,1.8-0.6,3.6-1.8,5.4c-1,1.6-2,2.2-2.6,2.2
		c-1.6,0-2.8,0-4-0.2c-0.4,0-0.6-0.2-0.6-0.2s0.2-0.2,0.6-0.2c1.6-0.4,3.2-1.2,4.8-2.4c1.6-1.4,2.6-2.8,2.6-4.2c0-0.8-0.6-2-2-3.4
		l1-1.8c0-0.2,0.2-0.2,0.2-0.2l0.2,0.2c0.6,0.8,1,1.4,1.4,1.6c0.6,0.4,1.4,0.8,2.2,0.8h0.6v2.2H984.8z" class="area" title=""></path>
	<path id="PATH_215" d="M994.8,987.4c0,1,0,1.8-0.4,2.6c-0.4,1-1,1.6-1.6,1.6c-1,0-2.6-0.6-4.6-2c-0.6,0.8-1,1.2-1.2,1.4
		c-0.6,0.4-1.2,0.6-2,0.6h-1v-2.4h1.4c0.8,0,1.6-0.4,2.4-1.4c0.4-0.4,1-1.4,1.8-2.6c0.6-1,1.4-1.4,2-1.4c1,0,1.8,0.4,2.4,1.4
		C994.6,986,994.8,986.8,994.8,987.4z M993.6,989c0-0.6-0.2-1.2-0.6-2s-1-1.2-1.6-1.2s-1.2,0.6-2,1.8c0.4,0.4,1,0.8,1.8,1.2
		c0.8,0.4,1.6,0.6,2,0.6C993.4,989.4,993.6,989.2,993.6,989z" class="area" title=""></path>
	<path id="PATH_216" d="M1010,975.6c0,0.2,0,0.2,0.2,0.6c0,0-0.2,0-0.4,0h-0.6c0,1.6-0.2,3.4-0.6,5c-0.4,2.2-1.2,4-2,5.2
		c0.4,0.8,0.6,1.8,0.6,2.6c0,0.4-0.2,1-0.4,1.6c-0.2,0.6-0.6,1-1,1.2c-1.8,0.4-3.6,0.6-5.8,0.4l0.6-2.2c2-1,3.4-2,4.2-3.2
		c-2-2.6-4.2-5.2-6.8-7.8l-0.4,0.6c-1.4-1.6-2-2.4-2-2.8c0-0.4,0.2-1,0.4-2c0-0.2,0.2-0.4,0.2-0.4s0.2,0.2,0.6,0.4
		c3.8,3.6,6.8,7.2,8.8,10.8c0.8-1.2,1.2-3,1.4-5.2c0.2-1.8,0.2-3.8,0-6l1.6-1.6C1009.6,974,1009.8,975,1010,975.6z M1006.4,989.4
		v-0.2c0-0.6-0.2-1.2-0.6-1.6c-0.6,0.8-1.4,1.6-2.4,2.4c0.2,0,0.4,0,0.8,0C1005,989.8,1005.8,989.8,1006.4,989.4z" class="area" title=""></path>
</g>
<g id="G_217" class="area" title="">
	<path id="PATH_218" d="M1174.2,894.4c0.2,0.6,0.2,1.2,0.2,1.8c0,0.8-0.2,1.4-0.4,2.2c-0.6,1.4-1.6,2.6-3.6,3.4c-1.6,0.6-3.2,1-5,1
		c-1.8,0-3.2-0.4-4.4-1.2c-1.2-1-1.8-2.2-1.8-4c0-1,0.2-1.8,0.6-3c0.4-0.8,0.6-1.4,1-1.8c0.2-0.2,0.4-0.2,0.4-0.2
		c0.2,0,0.2,0,0.2,0.2c0,0,0,0.2,0,0.4c-0.6,1.2-0.8,2.4-0.8,3.4s0.4,1.8,1,2.6c0.8,1,2.2,1.4,4,1.4c2,0,3.8-0.4,5.2-1
		c1.2-0.6,2-1.2,2.4-2c0.2-0.2,0.2-0.6,0.2-0.8c0-0.6-0.2-1.2-0.4-2c-0.2-0.6-0.8-1.6-1.8-3.2l0.8-1.6c0.2-0.2,0.2-0.4,0.2-0.4
		s0.2,0,0.2,0.2C1173.4,891.2,1174,892.8,1174.2,894.4z M1168.4,885.8l-1.6,1.6l-1.6-1.6l1.6-1.6L1168.4,885.8z" class="area" title=""></path>
	<path id="PATH_219" d="M1182.4,894.6h-1.4c-1.4,0-2.6-0.6-3-1.8c-0.4-0.8-0.6-2.2-0.6-3.8v-3.8c0-1.8-0.2-4.4-0.4-7.8l1.2-1.4
		c0.2-0.2,0.4-0.2,0.4,0c0.2,1.8,0.4,4.4,0.4,7.8v5.8c0,1.6,0.8,2.4,2.4,2.4h1V894.6L1182.4,894.6z" class="area" title=""></path>
	<path id="PATH_220" d="M1192.2,894.6h-1.6c-1.8,0-3-0.6-3.8-1.8c-0.6,1.2-2,1.8-4.2,1.8h-1v-2.4h1.8c2,0,3-0.8,3.2-2.2
		c0-0.6,0.2-1,0.4-1c0.2,0,0.4,0.4,0.4,1c0.2,1.4,1.2,2.2,3,2.2h1.8L1192.2,894.6L1192.2,894.6z M1185.4,883l-1.6,1.6l-1.6-1.6
		l1.6-1.6L1185.4,883z M1188.8,883l-1.6,1.6l-1.6-1.6l1.6-1.6L1188.8,883z" class="area" title=""></path>
	<path id="PATH_221" d="M1208,890.4c0,1.2-0.2,2.2-0.8,3s-1.6,1.4-2.6,1.4c-1.4,0-2.2-0.6-2.8-1.6c-0.8,1.2-1.6,1.6-2.8,1.6
		c-1.4,0-2.4-0.6-3-1.6c-0.8,1.2-1.8,1.6-3.2,1.6h-1.4v-2.4h1.6c1.4,0,2.4-0.8,2.6-2.4c0-0.4,0.2-0.6,0.4-0.6c0.2,0,0.2,0.2,0.4,0.6
		c0.2,1.6,1,2.4,2.6,2.4c0.8,0,1.6-0.2,2-0.6c0.2-0.4,0.4-0.8,0.6-1.6c0-0.4,0.2-0.6,0.4-0.6c0.2,0,0.2,0.2,0.4,0.6
		c0.2,1.6,1,2.4,2.4,2.4c1.6,0,2.2-0.4,2.2-1s-0.4-1.4-1.2-2.2l1-1.8c0.2-0.2,0.2-0.4,0.4-0.4c0.2,0,0.2,0.2,0.4,0.4
		C1207.6,888.4,1208,889.6,1208,890.4z" class="area" title=""></path>
	<path id="PATH_222" d="M1218.2,894.8c0,2-0.6,3.8-1.8,5.6c-1,1.4-2,2.2-2.6,2.2c-1.6,0-2.8,0-4-0.2c-0.4,0-0.6-0.2-0.6-0.2
		s0.2-0.2,0.6-0.2c1.6-0.4,3.2-1.2,4.8-2.4c1.6-1.4,2.6-2.8,2.6-4.2c0-0.8-0.6-2-2-3.4l1-1.8c0-0.2,0.2-0.2,0.2-0.2l0.2,0.2
		c0.4,0.6,1,1.4,1.2,2.4C1218,893.2,1218.2,894.2,1218.2,894.8z" class="area" title=""></path>
	<path id="PATH_223" d="M1233.4,878.8c0,0.2,0,0.2,0.2,0.6c0,0-0.2,0-0.4,0h-0.6c0,1.6-0.2,3.4-0.6,5c-0.4,2.2-1.2,4-2,5.2
		c0.4,0.8,0.6,1.8,0.6,2.6c0,0.4-0.2,1-0.4,1.6c-0.2,0.6-0.6,1-1,1.2c-1.8,0.4-3.6,0.6-5.8,0.4l0.6-2.2c2-1,3.4-2,4.2-3.2
		c-2-2.6-4.2-5.2-6.8-7.8l-0.4,0.6c-1.4-1.6-2-2.4-2-2.8c0-0.4,0.2-1,0.4-2c0-0.2,0.2-0.4,0.2-0.4s0.2,0.2,0.6,0.4
		c3.8,3.6,6.8,7.2,8.8,10.8c0.8-1.2,1.2-3,1.4-5.2c0.2-1.8,0.2-3.8,0-6l1.6-1.6C1232.8,877.2,1233.2,878.2,1233.4,878.8z
		 M1229.6,892.6v-0.2c0-0.6-0.2-1.2-0.6-1.6c-0.6,0.8-1.4,1.6-2.4,2.4c0.2,0,0.4,0,0.8,0C1228.4,893,1229,893,1229.6,892.6z" class="area" title=""></path>
</g>
<polygon class="st4 area" points="625.5,448 641.2,465.6 664.4,473.6 680.8,465.4 686.4,453.4 681.8,446.1 681.8,435.9 666.8,427.8 
	658.4,424.4 649.2,424.4 636.2,431.6 " id="_x35_80" title=""></polygon>
<g id="G_223" class="area" title="">
	<path d="M640.3,451.1c-1.5,0-2.6-0.5-2.6-1.7c0-0.4,0.1-0.9,0.5-1.7c0.6-1.3,2.1-2.5,4.5-3.9l-0.1-1.1c0.4-0.4,0.7-0.8,1.1-1.2h0.2
		c0.1,2.2,0.1,4.4,0.1,6.6c0,1,0.1,1.6,0.5,2c0.3,0.3,0.9,0.4,1.5,0.4h0.3v1.8H646c-1.4,0-2.4-0.4-2.9-2
		C642.3,450.8,641.4,451.1,640.3,451.1z M642.8,445.4c-2.5,1.3-3.8,2.4-3.8,3.1c0,0.6,0.8,0.8,1.8,0.8c0.6,0,1.3-0.1,2.1-0.4
		L642.8,445.4z" id="PATH_224" class="area" title=""></path>
	<path d="M646.6,450.6c1.1,0,2.2-0.4,2.4-1.2l0.4-1.5l1-0.7l0.1,0.1c-0.2,0.7-0.3,1.3-0.3,1.6c0,0.5,0.1,0.9,0.5,1.2
		c0.5,0.4,1,0.6,1.8,0.6h0.3v1.8h-0.3c-1.4,0-2.4-0.4-2.9-1.4h-0.1c-0.5,0.9-1.6,1.4-2.8,1.4h-0.3c-0.8,0-1-0.6-1-0.9
		c0-0.3,0.2-0.9,1-0.9H646.6z M648.2,458c-0.6-0.6-1.1-1-1.7-1.5c0.4-0.5,0.8-1,1.1-1.3c0.6,0.5,1.1,0.9,1.6,1.5
		C648.9,457.3,648.6,457.7,648.2,458z M651,457.9c-0.6-0.6-1.1-1-1.7-1.5c0.4-0.5,0.8-1,1.1-1.3c0.6,0.5,1.1,0.9,1.6,1.5
		C651.7,457.1,651.4,457.5,651,457.9z" id="PATH_225" class="area" title=""></path>
	<path d="M652.8,450.6c1.3,0,2.3-0.2,3.5-1.2c0.2-1.4,0.8-2.8,1.9-3.8c1-0.9,1.9-1.3,3-1.3c1,0,1.9,0.6,1.9,1.4
		c0,0.5-0.1,0.9-0.3,1.4l-0.1,0c-0.4-0.7-1-1.1-1.8-1.1c-0.7,0-1.3,0.2-1.9,0.6c-0.9,0.6-1.5,1.3-1.7,2.1l0,0
		c0.5-0.2,0.9-0.3,1.4-0.3c0.8,0,1.4,0.3,1.8,0.8c0.5,0.5,0.7,1.2,0.7,1.7s-0.1,1-0.3,1.6c-0.5,1-1.2,1.4-1.9,1.4
		c-0.8,0-1.5-0.3-2-1c-0.4-0.5-0.8-1.1-0.8-1.8h-0.1c-1,1-2.1,1.3-3.4,1.3h-0.1c-0.8,0-1-0.6-1-0.9c0-0.3,0.2-0.9,1-0.9H652.8z
		 M659.6,452.2c0.5,0,0.8-0.1,0.9-0.4c0-1-0.9-1.8-2.1-1.8c-0.4,0-0.8,0.1-1.1,0.3C657.6,451.4,658.6,452.2,659.6,452.2z
		 M663.1,441.3c-0.2,0.4-0.4,0.7-0.6,1c-1.4,0.2-2.6,0.6-3.7,1.1l0,0l0.3-0.6c0.1-0.2,0.4-0.4,0.7-0.5v0c-0.7-0.2-1.1-0.6-1.1-1.2
		c0-0.4,0.3-0.9,0.7-1.2c0.5-0.5,1.1-0.8,1.7-0.8c0.6,0,0.9,0.3,0.9,0.7s-0.2,0.7-0.5,0.9h0c-0.2-0.3-0.3-0.5-0.5-0.6
		c-0.1,0-0.3,0-0.4,0c-0.5,0-1,0.3-1,0.5c0,0.7,1.2,0.9,2,0.9C662.1,441.3,662.6,441.3,663.1,441.3L663.1,441.3z" id="PATH_226" class="area" title=""></path>
	<path d="M669.3,452.4h-0.2c-1.1,0-1.8-0.2-2.4-0.8c-0.9-0.9-0.9-1.9-0.9-4c0-2.7-0.2-5.5-0.4-8.5c0.5-0.5,0.9-1,1.3-1.3l0.1,0.1
		c0.2,3.1,0.2,6.8,0.2,10.3v0.8c0,0.9,0.5,1.3,1.1,1.5c0.4,0.1,0.7,0.2,0.9,0.2h0.2V452.4z" id="PATH_227" class="area" title=""></path>
	<path d="M670.5,450.6c1.2,0,2.3,0,3.1-0.3c0.9-0.3,1.7-0.8,1.7-1.2c0-0.1,0-0.2,0-0.3c-0.5,0.1-1.1,0.1-1.6,0.1
		c-1.6,0-2.9-0.4-3.4-1.5c-0.1-0.3-0.2-0.6-0.2-1c0-1,0.4-2.1,1.1-2.8c0.6-0.6,1.2-0.9,1.8-0.9c1.1,0,2.1,1.1,2.7,2.8
		c0.4,0.9,0.6,2,0.6,3.4c0,0.9-0.2,1.7-0.7,2.2c-0.9,1-2.5,1.4-5.1,1.4h-1.1c-0.8,0-1-0.6-1-0.9c0-0.3,0.2-0.9,1-0.9H670.5z
		 M670.9,441.3c-0.6-0.6-1.1-1-1.7-1.5c0.4-0.5,0.8-1,1.1-1.3c0.6,0.5,1.1,0.9,1.6,1.5C671.6,440.5,671.3,440.9,670.9,441.3z
		 M672.6,444.4c-0.9,0-1.7,0.7-1.7,1.3c0,1.1,1.9,1.5,4.1,1.5C674.7,445.8,673.7,444.4,672.6,444.4z M673.7,441.1
		c-0.6-0.6-1.1-1-1.7-1.5c0.4-0.5,0.8-1,1.1-1.3c0.6,0.5,1.1,0.9,1.6,1.5C674.3,440.3,674.1,440.7,673.7,441.1z" id="PATH_228" class="area" title=""></path>
</g>
<path class="st2 area" d="M855.7,465.4l4.2,2l32.2,15.4l26.1,10.2l22,7.1c4.3-0.4,8.5-0.8,12.8-1.3c0.3-3.9,0.7-7.7,1-11.6l-5.8-21.8
	c-6.1-2.8-12.1-5.6-18.2-8.5c-7.3-6.1-14.6-12.3-22-18.4c-10.4-2.2-20.7-4.3-31.1-6.5c-6.8,0.5-13.6,0.9-20.4,1.4
	c-2.3,0-4.5,0-6.8,0c-2.5,2.4-5,4.9-7.4,7.3l1.6,12.7v13.4L855.7,465.4z" id="_x36_10" title=""></path>
<g id="G_230" class="area" title="">
	<path d="M880.6,458.3c1,1.9,1.6,3.8,1.6,6c0,1.5-0.5,3.1-1,3.7c-1.3,1.3-3.1,2.2-4.9,2.2c-2.8,0-4.5-1.8-4.5-4.4
		c0-1.9,0.6-3.1,1.3-4.3l0.6,0.3c-0.5,0.9-0.8,2.1-0.8,2.7c0,1.2,0.4,2,1,2.5c0.6,0.6,1.7,1,2.8,1c1.2,0,2.6-0.6,3.5-1.3
		c0.6-0.5,1-0.9,1-1.2c0-1-0.2-1.9-0.5-2.6c-0.4-1.2-0.8-2.1-1.2-2.9c0.4-0.6,0.7-1.2,1.1-1.8L880.6,458.3z M876.7,453.6
		c0.6,0.4,1.2,1,1.8,1.6c-0.3,0.5-0.7,1-1.2,1.4c-0.6-0.5-1.1-1-1.7-1.5C875.9,454.6,876.3,454,876.7,453.6z" id="PATH_231" class="area" title=""></path>
	<path d="M888.7,466.8h-0.2c-1.2,0-1.9-0.2-2.5-0.8c-0.9-0.9-0.9-1.9-0.9-4.1c0-2.8-0.2-5.7-0.4-8.8c0.5-0.5,1-1,1.4-1.4l0.1,0.1
		c0.2,3.2,0.2,7,0.2,10.6v0.8c0,0.9,0.5,1.4,1.1,1.6c0.4,0.1,0.7,0.2,0.9,0.2h0.2V466.8z" id="PATH_232" class="area" title=""></path>
	<path d="M889.9,464.9c1.3,0,2.4,0,3.2-0.3c0.9-0.3,1.7-0.8,1.7-1.2c0-0.1,0-0.2,0-0.3c-0.5,0.1-1.1,0.1-1.7,0.1
		c-1.7,0-3-0.5-3.5-1.6c-0.1-0.3-0.2-0.7-0.2-1.1c0-1.1,0.4-2.2,1.1-2.9c0.6-0.6,1.2-1,1.9-1c1.2,0,2.1,1.1,2.8,2.9
		c0.4,1,0.6,2.1,0.6,3.5c0,0.9-0.2,1.7-0.7,2.3c-0.9,1.1-2.6,1.5-5.2,1.5h-1.2c-0.8,0-1-0.6-1-1c0-0.4,0.2-0.9,1-0.9H889.9z
		 M890.4,455.3c-0.6-0.6-1.1-1-1.7-1.5c0.4-0.5,0.8-1,1.2-1.4c0.6,0.5,1.1,1,1.7,1.6C891.1,454.5,890.8,454.9,890.4,455.3z
		 M892.1,458.6c-1,0-1.8,0.7-1.8,1.3c0,1.2,1.9,1.6,4.2,1.5C894.3,460,893.3,458.6,892.1,458.6z M893.2,455.1
		c-0.6-0.6-1.1-1-1.7-1.5c0.4-0.5,0.8-1,1.2-1.4c0.6,0.5,1.1,1,1.7,1.6C894,454.3,893.7,454.7,893.2,455.1z" id="PATH_233" class="area" title=""></path>
	<path d="M903.4,459.2l1,2c0.4,0.7,0.7,1.5,0.7,2.8v1.6c0,1.3-0.7,2.7-1.8,4.1c-0.9,0.9-1.7,1.3-2.4,1.3c-1.1,0-2.3-0.4-3.8-1.1
		l0.2-0.5c0.5,0.1,1,0.3,1.6,0.3c2.1,0,4.2-1.8,5.1-4c0.1-0.2,0.2-0.5,0.2-0.6c0-0.2-0.1-0.5-0.2-0.8c-0.5-1.2-1.1-2.2-1.8-3.2
		C902.6,460.4,902.9,459.8,903.4,459.2L903.4,459.2z" id="PATH_234" class="area" title=""></path>
	<path d="M912.6,459.2l1,2c0.4,0.7,0.7,1.5,0.7,2.8v1.6c0,1.3-0.7,2.7-1.8,4.1c-0.9,0.9-1.7,1.3-2.4,1.3c-1.1,0-2.3-0.4-3.8-1.1
		l0.2-0.5c0.5,0.1,1,0.3,1.6,0.3c2.1,0,4.2-1.8,5.1-4c0.1-0.2,0.2-0.5,0.2-0.6c0-0.2-0.1-0.5-0.2-0.8c-0.5-1.2-1.1-2.2-1.8-3.2
		C911.8,460.4,912.2,459.8,912.6,459.2L912.6,459.2z M911.3,454.2c0.6,0.4,1.2,1,1.8,1.6c-0.3,0.5-0.7,1-1.2,1.4
		c-0.6-0.5-1.1-1-1.7-1.5C910.5,455.1,910.9,454.6,911.3,454.2z" id="PATH_235" class="area" title=""></path>
</g>
<path class="st5 area active" d="M921,599.4c-5.7,2.9-11.3,5.8-17,8.7c-3.3,3.8-6.5,7.7-9.8,11.5c-1.5,4.2-3,8.3-4.5,12.5
	c5.1,4.3,10.2,8.6,15.3,12.9l15,20.8l41-4.2l34.3,11.6l13.5-16.6l8.2-21.6l1.6-13.4l-46.6-9.8c-7.9-2-15.8-4.1-23.8-6.1
	c-4.5-3.6-9.1-7.3-13.6-10.9C930.1,596.3,925.5,597.9,921,599.4z" id="_x32_99" title=""></path>
<g id="G_237" class="area" title="">
	<path d="M937.5,633.6c0.9,2.1,1.6,3.3,3.4,3.3h0.3v1.9h-0.3c-0.7,0-1.2-0.1-1.5-0.5h-0.1c0,0.2,0,0.4,0,0.5c0,0.7-0.2,1.6-0.6,2.3
		c-1.2,2.1-2.5,3-3.6,3c-1.1,0-2.5-0.5-3.8-1.2l0.2-0.5c0.4,0.2,1,0.3,1.7,0.3c2,0,4.7-2.3,5-4.5c-0.1-0.2-0.2-0.4-0.4-0.7
		c-0.6-0.8-1-1.5-1.3-2.3c0.3-0.7,0.6-1.3,0.8-1.8L937.5,633.6z" id="PATH_238" class="area" title=""></path>
	<path d="M941.4,636.9c0.8,0,1.8-0.2,2.4-0.4c-0.5-0.8-0.5-1.6-0.5-2.3c0-1.2,0.3-2.5,1.4-3.6c0.8-0.8,1.7-1.4,2.3-1.4
		s1.2,0.6,1.8,1.7c0.4,0.7,0.6,1.4,0.6,2.2c0,1.4-0.4,2.5-1,3.5c0.6,0.2,1.3,0.3,2.4,0.3h0.5v1.9h-0.4c-1.5,0-3-0.3-4.9-1
		c-1.9,0.7-3.3,1-4.3,1h-0.3c-0.8,0-1.1-0.6-1.1-1c0-0.4,0.2-0.9,1.1-0.9H941.4z M948.5,634.2c0-0.5-0.2-1.1-0.4-1.4
		c-0.4-0.8-0.9-1.4-1.5-1.4c-1.2,0-2.3,1.4-2.6,2.5c0.2,0.9,0.8,1.6,2.1,2C947.1,635.8,948.5,634.8,948.5,634.2z M946.1,624.1
		c0.6,0.5,1.2,1,1.8,1.6c-0.3,0.5-0.7,1-1.3,1.5c-0.6-0.6-1.2-1-1.8-1.6C945.3,625.1,945.7,624.6,946.1,624.1z" id="PATH_239" class="area" title=""></path>
	<path d="M952.1,636.9c2.5,0,5-0.9,8.1-2.7l0-0.1c-1.8-0.7-3.4-1.1-4.8-1.1c-0.9,0-1.5,0.3-1.9,0.8l0.2,0.8l-0.5,1.4h-0.2l-0.7-2
		c0.1-1.7,1.5-2.7,3.3-2.7c1,0,2.6,0.4,5,1.3c0.7,0.3,1.6,0.5,2.6,0.5l1.2,0l0,0l-0.8,1.6c-1.3,0-2.1,0.2-2.6,0.6l-2.5,1.6
		c-2,1.3-4.2,2-6.6,2h-0.8c-0.8,0-1.1-0.6-1.1-1c0-0.4,0.2-0.9,1.1-0.9H952.1z M956.4,625.9c0.6,0.5,1.2,1,1.8,1.6
		c-0.3,0.5-0.7,1-1.3,1.5c-0.6-0.6-1.2-1-1.8-1.6C955.6,626.9,956,626.4,956.4,625.9z" id="PATH_240" class="area" title=""></path>
</g>
<path class="st2 area" d="M522.6,503.9" id="PATH_241" title=""></path>
</svg>
