<!--?xml version="1.0" encoding="utf-8"?-->
<!-- Generator: Adobe Illustrator 27.4.1, SVG Export Plug-In . SVG Version: 6.00 Build 0)  -->
<svg version="1.1" id="Layer_1" xmlns="http://www.w3.org/2000/svg" xmlns:xlink="http://www.w3.org/1999/xlink" x="0px" y="0px" viewBox="0 0 1920 1080" style="enable-background:new 0 0 1920 1080;" xml:space="preserve" width="100%" height="100%">
<style type="text/css">
	.st0{fill:#FBD1D1;stroke:#020202;stroke-width:0.4444;stroke-miterlimit:22.2222;}
	.st1{fill:#DBECCB;stroke:#020202;stroke-width:0.4444;stroke-miterlimit:22.2222;}
	.st2{fill:#E8D0E5;stroke:#020202;stroke-width:0.4444;stroke-miterlimit:22.2222;}
	.st3{fill:#FDFAD6;stroke:#020202;stroke-width:0.4444;stroke-miterlimit:22.2222;}
	.st4{fill:none;stroke:#040404;stroke-width:1.1111;stroke-miterlimit:22.2222;}
	.st5{fill:#E8D0E5;stroke:#020202;stroke-width:0.5872;stroke-miterlimit:29.3578;}
	.st6{fill:#DBECCB;stroke:#020202;stroke-width:0.5872;stroke-miterlimit:29.3578;}
	.st7{fill:#FEF5B4;stroke:#020202;stroke-width:0.5;stroke-miterlimit:10;}
	.st8{fill:#F8F5B6;stroke:#040404;stroke-width:0.5;stroke-miterlimit:22.2222;}
	.st9{fill:#FDF9CB;stroke:#020202;stroke-width:0.5;stroke-miterlimit:10;}
</style>
<path id="_x37_14" class="st0 area" d="M620.7,567c14.4-3.3,26.4-11.1,40.9-14.4c14.4-4.4,32,7.8,40.9-2.2c6.7-5.6-16.7-11.1-8.9-20
	c2.2-3.3,8.9-3.3,13.3-1.1c12.2,5.6,25.6,15.6,37.6,6.7c10-6.7,20-11.1,26.7-21.1c5.6-8.9-5.6-15.6-8.9-23.3
	c-1.3-2.7-1.1-5.3-0.2-7.8l-8-4l-34.2-22L694,431.9c-4.9,5.3-9.1,11.8-15.8,15.8c-4.4,3.3-12.2-1.1-18.9,2.2
	c-11.1,6.7-13.3,20-24.4,24.4c-5.6,3.3-12.2-1.1-17.8-1.1c-20-1.1-35.3,21.1-58.7,8.9c-7.8-4.4-16.7,4.4-24.4,10
	c-2.7,2.2-6,3.1-9.3,3.3c12.2,19.3,22.2,39.3,22.9,40.7c1.6,3.1,3.6,6.2,5.8,9.6c17.8,4,34.2,15.8,51.6,21.8
	C609.6,568.1,615.1,568.1,620.7,567z" title=""></path>
<path id="_x37_13" class="st1 area" d="M814.2,551.7c5.6,4.4,5.6,13.3,12.2,16.7c2.2,1.1,6.7-1.1,8.9,0c5.6,6.7,10,14.4,17.8,15.6
	c6.7,1.1,10-11.1,17.8-6.7c14.4,7.8,31.1-1.1,46.4,5.6c3.3,2.2,5.6,5.6,8.9,5.6c13.3,0,14.4-13.3,6.7-23.3c-3.3-3.3,1.1-8.9,4.4-10
	c15.6-4.4,32-3.3,45.3-7.8c2.7-0.9,5.1-1.8,7.6-3.1l-125.8-16.2l-35.1-10.4l-67.1-33.6c-0.9,2.4-1.1,5.1,0.2,7.8
	c3.3,7.8,14.4,14.4,8.9,23.3c-0.2,0.2-0.4,0.4-0.7,0.9C781.1,532.1,800.7,538.1,814.2,551.7z" title=""></path>
<path id="_x37_11" class="st1 area" d="M1082,549.4c10,10,23.1,23.3,14.4,37.6c-1.1,2.2-3.3,5.6-2.2,8.9c3.3,5.6,11.1,12.2,4.4,16.7
	c-8.9,6.7-21.1,8.9-16.7,22.2c-2.2-1.1-4.4,0-5.6,1.1c0,1.1,0,3.3,0,4.4c4.4,4.4,15.6,10,10,14.4c-11.1,8.9-25.6,10-38.7,3.3
	c-1.1,8.9-11.1,6.7-17.8,5.6c0,2.2-1.1,4.4,0,5.6c5.6,5.6,7.8,14.4,12.2,18.9c4.4,4.4,15.6,1.1,20-4.4c3.3-3.3,4.4-8.9,8.9-12.2
	c11.1-5.6,21.1,10,28.9,5.6c10-5.6,25.6-3.3,27.8-11.1c4.4-16.7,21.1-25.6,35.3-33.1c8.9-4.4,10-15.6,16.7-23.3
	c6.7-6.7,15.6-3.3,24.4-5.6c3.3-1.1,4.4-4.4,6.7-8.9c1.6-2.7,4.2-5.1,7.3-7.6l-1.1-1.1l-21.6-8l-60.7-12.9l-39.1-14.4l4-4.9l2.4,0.9
	l4.9,1.6l4.9-0.9l-16.9-8l-14.9,2.4C1079.1,545.2,1080.2,548.6,1082,549.4z" title=""></path>
<path id="_x37_16" class="st2 area" d="M690.4,655.7c17.8-6.7,32.2-27.8,55.3-34.2c12.2-2.2,5.6-23.3,3.3-35.3
	c-2.2-7.8,6.7-13.3,12.2-18.9c4.4-5.6-1.1-10-5.6-14.4c-1.1-2.2,1.1-5.6,1.1-7.8c0.9-5.8-7.1-6-13.3-8c-11.8,7.6-24.7-2-36.4-7.3
	c-4.4-2.2-11.1-2.2-13.3,1.1c-7.8,8.9,15.6,14.4,8.9,20c-8.9,10-26.7-2.2-40.9,2.2c-14.4,3.3-26.7,11.1-40.9,14.4
	c-5.6,1.1-11.1,1.1-15.6,0c-17.3-6-33.8-17.8-51.6-21.8c4.9,7.1,10.9,14.2,16.7,21.3c4.4,5.3,8.9,10.7,13.1,16.2
	c13.1,17.6,13.1,42.4,13.1,71.6c0,3.1,0.2,5.8,0.9,8.4C628.2,671,661.8,666.8,690.4,655.7z" title=""></path>
<path id="_x37_26" class="st3 area" d="M1174,977.7c-36.4-11.1-57.6-46.4-38.7-78.7c-17.8,18.9-43.1,45.3-63.1,15.6
	c-2.2-4.4-3.3-14.4-7.8-15.6c-16.7-4.4-19.8-16.7-22.2-30.9c0-2.2-2.2-5.6-5.6-5.6c-8.9,0-20,0-23.3-7.8c-4.4-8.9,8.9-11.1,10-18.9
	c2.2-7.8,0-14.4-2.2-22.2c-4.4-21.1,11.1-45.3-13.3-60.9c-6.7-3.3,4.4-10,7.8-17.8c-8.9,1.1-17.8,4.4-22.2,12.2
	c-7.8,14.4-15.6,47.6-33.1,35.3c-16.7-11.1-36.4-11.1-52-1.1c-3.3,3.3-1.1,8.9-4.4,12.2c-12.2,6.7-26.7-3.3-36.4,4.4
	c-31.1,23.3-62,42-100.7,39.8c-7.1,0-16.4,3.6-22,10c8.7,19.3,16.4,37.3,18.4,42.2c7.3,7.3,56.2,56.4,67.6,71.8
	c10.2,13.8,40,33.6,67.1,33.6c15.1,0,30,6.4,44.2,12.4c13.8,6,26.9,11.6,39.6,11.6c27.1,0,99.3,0,122.9-4c17.1-2.9,53.8-22,76.2-34
	C1178.9,979.9,1176.7,978.3,1174,977.7z" title=""></path>
<path id="_x37_38" class="st2 area" d="M1031.1,698.8c-5.6,2.2-7.8,10-4.4,14.4c2.2,3.3,5.6,8.9,12.2,6.7c8.9-3.3,10-13.3,17.8-17.8
	c10-5.6,21.1-2.2,30.9-1.1c4.4,0,8.9,3.3,12.2,6.7c7.8,8.9,13.3,13.3,20,22.2c2.2,3.3,7.8,4.4,8.9,7.8c2.2,4.4,0,10,3.3,13.3
	c16.7,10,32.2-3.3,40.9-18.9c1.1-1.1,5.6,0,8.9,0c2.2,0,2.2-3.3,2.2-3.3c4.4-7.8-4.4-14.4-4.4-20c2.2-15.6,2.2-25.6-12.2-36.4
	c-1.1-1.1-1.1-6.7,1.1-6.7c13.3-3.3,24.4-1.1,36.4-10c6.7-5.6,24.4,1.1,25.6-11.1c0-5.6,1.8-10.4,4.4-14.7l-0.9-2.9l-4-7.1l1.6-20
	l-14-12.4c-2.9,2.2-5.6,4.7-7.3,7.6c-2.2,4.4-3.3,7.8-6.7,8.9c-8.9,2.2-17.8-1.1-24.4,5.6c-6.7,7.8-7.8,18.9-16.7,23.3
	c-14.4,7.8-30.9,16.7-35.3,33.1c-2.2,7.8-17.8,5.6-27.8,11.1c-7.8,4.4-17.8-11.1-28.9-5.6c-4.4,3.3-5.6,8.9-8.9,12.2
	c-4,5.1-13.6,8.2-18.4,5.6c-0.7,2.2-1.3,4.4-2.4,6.7C1038.9,698.8,1035.6,698.8,1031.1,698.8z" title=""></path>
<path id="_x37_40" class="st3 area" d="M1100.9,763c0,2.2,0,5.6,0,5.6c11.1,5.6,22.2-6.7,33.1-1.1c5.6,3.3,10,11.1,6.7,15.6
	c-12.2,15.6-13.3,30.9-1.1,44.2c3.3,4.4,12.2,3.3,15.6-1.1c8.9-10,23.3-12.2,25.6-22.2c5.6-18.9,14.4-30.9,27.8-42
	c3.3-4.4-4.4-11.1-1.1-12.2c14.4-4.4,20-15.6,21.1-29.8c0-0.4,0-0.7,0.2-1.1c0,0,0,0-0.2,0c0-1.1,0-4.4,0-5.6
	c12.7-4.9,25.3-8.9,33.6-19.6l-10.7-28.2l-6.4-10.4l-4.9-8l-4.9-17.1c-2.9,4.2-4.4,9.1-4.4,14.7c-1.1,12.2-18.9,5.6-25.6,11.1
	c-12.2,8.9-23.3,6.7-36.4,10c-2.2,0-2.2,5.6-1.1,6.7c14.4,11.1,14.4,21.1,12.2,36.4c0,5.6,8.9,12.2,4.4,20c0,0,0,3.3-2.2,3.3
	c-3.3,0-7.8-1.1-8.9,0c-8.9,15.6-24.4,28.9-40.9,18.9c-1.6-1.6-2-3.8-2-6.2C1119.6,750.6,1114.9,764.1,1100.9,763z" title=""></path>
<path id="_x37_32" class="st3 area" d="M862.9,647.9c11.1-3.3,15.6-6.7,22.2-16.7c2.2-2.2,7.8-2.2,10-4.4c2.2-5.6,1.1-13.3,5.6-16.7
	c4.4-4.4,12.2-8.9,14.4-13.3c2.4-3.6,3.1-8.2,4-13.1c-0.4-0.4-1.1-0.9-1.8-1.3c-15.6-6.7-32,2.2-46.4-5.6
	c-7.8-4.4-11.1,7.8-17.8,6.7c-7.8-1.1-12.2-8.9-17.8-15.6c-2.2-1.1-6.7,1.1-8.9,0c-6.7-3.3-6.7-12.2-12.2-16.7
	c-13.6-13.6-33.1-19.6-43.8-35.8c-6.7,9.3-16.2,13.8-26,20.2c-0.4,0.2-0.7,0.4-1.1,0.9c6.2,2,14.2,2.2,13.3,8c0,2.2-2.2,5.6-1.1,7.8
	c4.4,4.4,10,8.9,5.6,14.4c-5.6,5.6-14.4,11.1-12.2,18.9c2.2,12.2,8.9,33.1-3.3,35.3c-19.6,5.6-32.9,21.3-47.1,30.2
	c8.7,4.2,18.4,5.1,24.9-0.2c10-6.7,20-13.3,29.8-10c2.2,1.1,1.1,11.1,5.6,13.3c12.2,10,25.6,1.1,32.2-12.2c1.1-1.1,5.6-2.2,6.7-1.1
	c5.6,11.1,13.3,16.7,24.4,8.9c4.4-3.3,12.2-7.8,16.7-4.4c3.3,2.2,4.4,11.1,10,7.8c4.2-1.6,7.8-2.7,11.6-3.1
	C860.7,649,861.6,647.9,862.9,647.9z" title=""></path>
<path id="_x37_34" class="st2 area" d="M919.3,731.9c6.7-15.6-12.2-28.7-24.4-40.9c-5.6-6.7,2.2-14.4,0-20c-1.1-5.6-3.3-11.1-1.1-16.7
	c0-1.1,2.2-3.3,3.3-5.6c3.3-6.7-6.7-7.8-7.8-13.3c0-2.2,0-4.4-0.4-6.2c-1.6,0.4-2.9,0.9-3.8,2c-6.7,10-11.1,13.3-22.2,16.7
	c-1.3,0-2.2,1.1-2.9,2.4c1.3-0.2,2.4-0.2,4-0.2c1.1,1.1,3.3,2.2,4.4,3.3c0,2.2,1.1,4.4,2.2,6.7c2.2,5.6,10,11.1,7.8,16.7
	c-1.1,3.3-5.6,8.9-12.2,8.9c3.3,2.2,7.8,6.7,3.3,7.8c-8.9,3.3-20-2.2-28.7,5.6c-3.3,4.4,1.1,11.1-2.2,13.3c-3.3,2.2-10,4.4-11.1,5.6
	c-18.9,45.6-60.7,72.2-105.6,85.3c6.2,10,14.9,28.2,22.7,45.3c5.6-6.4,14.9-10,22-10c38.7,2.2,69.8-16.7,100.7-39.8
	c10-7.8,24.4,2.2,36.4-4.4c3.3-3.3,1.1-8.9,4.4-12.2c0.9-0.7,1.8-1.1,2.7-1.6C906.9,765.7,912.7,747.2,919.3,731.9z" title=""></path>
<path id="_x37_22" class="st0 area" d="M1094.2,595.9c-1.1-3.3,1.1-6.7,2.2-8.9c8.9-14.4-4.4-27.8-14.4-37.6c-1.8-0.9-2.9-4.2-2.7-7.1
	h-0.2l-16,6.4l-19.1,2.4l-54-6.9c-2.4,1.1-4.9,2.2-7.6,3.1c-13.3,4.4-29.8,3.3-45.3,7.8c-3.3,1.1-7.8,6.7-4.4,10
	c7.8,10,6.7,23.3-6.7,23.3c-2.7,0-4.7-2.2-7.1-4.2c-0.7,4.9-1.6,9.6-3.8,13.1c-2.2,4.4-10,8.9-14.4,13.3c-4.4,3.3-3.3,11.1-5.6,16.7
	c-1.3,1.3-3.8,1.8-6,2.4c0.4,2,0.4,4.2,0.4,6.2c1.1,5.6,11.1,6.7,7.8,13.3c-1.1,2.2-3.3,4.4-3.3,5.6c-2.2,5.6,0,11.1,1.1,16.7
	c2.2,5.6-5.6,13.3,0,20c12.2,12.2,30.9,25.6,24.4,40.9c-6.9,15.1-12.7,33.6-8.4,48.2c15.1-8.4,33.8-7.8,49.3,2.7
	c17.8,12.2,25.6-21.1,33.1-35.3c4.4-7.8,13.3-11.1,22.2-12.2c0,0,0,0.2-0.2,0.2c6-5.8,6.7-14.9,11.3-22c0-0.2-0.2-0.2-0.2-0.4
	c-3.3-4.4-1.1-12.2,4.4-14.4c4.4,0,7.8,0,10-3.3c1.1-2.2,1.8-4.4,2.4-6.7c-0.4-0.2-1.1-0.7-1.3-1.1c-4.4-4.4-6.7-13.3-12.2-18.9
	c-1.1-1.1,0-3.3,0-5.6c6.7,1.1,16.7,3.3,17.8-5.6c13.3,6.7,27.6,5.6,38.7-3.3c5.6-4.4-5.6-10-10-14.4c0-1.1,0-3.3,0-4.4
	c1.1-1.1,3.3-2.2,5.6-1.1c-4.4-13.3,7.8-15.6,16.7-22.2C1105.3,608.1,1097.6,601.4,1094.2,595.9z" title=""></path>
<path id="_x37_37" class="st1 area active" d="M1216,907.4c-4.4,1.3-8.7,2.7-12.2,0.4c-13.3-7.8-26.4-8.9-37.6-15.6c-5.6-2.2-8.9-12.2-13.3-17.8
	c-6.9-10.7-12-29.1-6.9-44.9c-2.4,0-4.9-0.9-6.2-2.9c-12.2-13.3-11.1-28.7,1.1-44.2c3.3-4.4-1.1-12.2-6.7-15.6
	c-11.1-5.6-22.2,6.7-33.1,1.1c0,0,0-3.3,0-5.6c14,1.1,18.4-12.4,28.9-18.2c-0.2-2.4-0.2-4.9-1.3-7.1c-1.1-3.3-6.7-4.4-8.9-7.8
	c-6.7-8.9-12.2-13.3-20-22.2c-3.3-3.3-7.8-6.7-12.2-6.7c-10-1.1-21.1-4.4-30.9,1.1c-7.8,4.4-8.9,14.4-17.8,17.8
	c-6.4,2.2-9.8-2.9-12-6.2c-4.7,7.1-5.6,16.2-11.3,22c-3.6,7.6-14.2,14.2-7.6,17.3c24.4,15.6,8.9,39.8,13.3,60.9
	c2.2,7.8,4.4,14.4,2.2,22.2c-1.1,7.8-14.4,10-10,18.9c3.3,7.8,14.4,7.8,23.3,7.8c3.3,0,5.6,3.3,5.6,5.6c2.2,14.4,5.6,26.7,22.2,30.9
	c4.4,1.1,5.6,11.1,7.8,15.6c19.8,29.8,45.3,3.3,63.1-15.6c-18.9,32,2.2,67.6,38.7,78.7c2.7,0.7,4.9,2.2,6.9,4.2
	c1.6-0.9,2.9-1.6,4.2-2.2c5.8-3.1,10.4-5.6,13.6-7.1c0.9-0.4,2-0.9,3.1-1.1c-3.8-15.8-7.8-31.1-4.4-46.7
	C1198.2,919.4,1210,915.2,1216,907.4z" title=""></path>
<path id="_x37_28" class="st0 area" d="M1271.3,770.8c-1.1-6.7-10-10-13.3-17.8c1.1,0,2.2,0,3.3-1.1c-1.1-1.1-3.3-2.2-3.3-3.3
	c10-25.3-14.2-23.3-29.8-29.8c0,0.4-0.2,0.7-0.2,1.1c-1.1,14.4-6.7,25.6-21.1,29.8c-3.3,1.1,4.4,7.8,1.1,12.2
	c-13.3,11.1-22.2,23.3-27.6,42c-2.2,10-16.7,12.2-25.6,22.2c-2,2.7-5.8,4-9.1,4c-4.9,15.6,0.2,34,6.9,44.9
	c4.4,5.6,7.8,15.6,13.3,17.8c11.1,6.7,24.4,7.8,37.6,15.6c3.3,2,7.6,0.7,12.2-0.4c0.4-0.4,0.9-1.1,1.1-1.8c2.2-5.6-5.6-8.9-4.4-12.2
	c5.6-16.7-3.3-33.1,4.4-47.6c8.9-15.6,7.8-33.1,21.1-43.1c6.7-5.6,14.4-3.3,22.2-4.4c12.2-3.3,4.4-12.2,5.6-21.1
	C1265.8,776.3,1272.4,774.1,1271.3,770.8z" title=""></path>
<path id="_x37_35" class="st1 area" d="M827.6,717.7c1.1-1.1,7.8-3.3,11.1-5.6s-1.1-8.9,2.2-13.3c8.9-7.8,20-2.2,28.7-5.6
	c4.4-1.1,0-5.6-3.3-7.8c6.7,0,11.1-5.6,12.2-8.9c2.2-5.6-5.6-11.1-7.8-16.7c-1.1-2.2-2.2-4.4-2.2-6.7c-1.1-1.1-3.3-2.2-4.4-3.3
	c-5.6,0-10,1.1-15.6,3.3c-5.6,3.3-6.7-5.6-10-7.8c-4.4-3.3-12.2,1.1-16.7,4.4c-11.1,7.8-18.9,2.2-24.4-8.9c-1.1-1.1-5.6,0-6.7,1.1
	c-6.7,13.3-20,22.2-32,12.2c-4.4-2.2-3.3-12.2-5.6-13.3c-10-3.3-20,3.3-30,10c-6.4,5.3-16.2,4.4-24.9,0.2c-2.7,1.8-5.6,3.1-8.2,4.2
	c-28.4,11.1-62,15.3-93.1,7.1c4,19.3,20.2,30.2,20.4,30.4l0.9,0.7c3.6,3.6,88.2,88.4,100.4,104.4c0.9,1.1,1.8,2.7,2.9,4.4
	C766.9,789.9,808.7,763,827.6,717.7z" title=""></path>
<path id="_x37_29" class="st2 area" d="M1365.1,788.3l-8.9-2.4l-7.1-4l-23.1-26.4l-33.6-24l-16-15.1l-14.4-21.6l-0.4-1.3
	c-8.2,10.7-20.9,14.7-33.6,19.6c0,1.1,0,4.4,0,5.6c15.6,6.7,39.8,4.4,29.8,29.8c0,1.1,2.2,2.2,3.3,3.3c-1.1,1.1-2.2,1.1-3.3,1.1
	c3.3,7.8,12.2,11.1,13.3,17.8c1.1,3.3-5.6,5.6-5.6,6.7c-1.1,8.9,6.7,17.8-5.6,21.1c-7.8,1.1-15.6-1.1-22.2,4.4
	c-13.3,10-12.2,27.6-21.1,43.1c-7.8,14.4,1.1,30.9-4.4,47.6c-1.1,3.3,6.7,6.7,4.4,12.2c-5.6,8.9-18.9,13.3-20,18.9
	c-3.1,15.6,0.7,31.1,4.4,46.7c10.9-2.9,28.9,3.6,55.8,13.6c4.9,1.8,10,3.8,14.9,5.6c0.2-0.4,0.7-0.9,0.9-1.3
	c13.1-10.9,48-42.2,54.2-57.6c8-19.8,31.1-70,32-72.2l23.8-55.8c0.4-0.9,1.1-1.6,1.8-2.2L1365.1,788.3z" title=""></path>
<path id="_x37_17" class="st1 area" d="M558.7,481.9c23.3,12.2,38.7-10,58.7-8.9c5.6,0,12.2,4.4,17.8,1.1c11.1-4.4,13.3-17.8,24.4-24.4
	c6.7-3.3,14.4,1.1,18.9-2.2c6.7-4,10.9-10.2,15.8-15.8l-5.3-5.3l-24-32.7l-9.6-20.7l-4.9-21.6l0.9-4l0.9-5.6v-5.6l-16-24.7l-4-8.9
	l-1.6-12v-12l4-11.1l-19.1-64l-7.1-67.8l-8.9-20l-0.4-7.1c-13.6,2-27.1,0-41.6-3.3c-5.6-1.1-12.2,0-16.7,3.3
	c-7.6,5.6-16.2,8.9-24.7,8.4c-1.1,9.8-7.8,63.6-7.8,77.6c0,15.3-7.1,50-34.2,72.4c-16.7,14-7.6,35.3,6,61.6c1.1,2.4,2.4,4.7,3.6,6.9
	c12.2,24.4,21.3,46.7,8,73.3c-10.4,20.9-8,41.8,6.2,52.4c8.2,6.2,18,19.6,26.7,33.3c3.3-0.2,6.7-1.1,9.3-3.3
	C542,486.3,550.9,477.4,558.7,481.9z" title=""></path>
<path id="_x37_08" class="st3 area" d="M540.9,109c4.4-3.3,11.1-4.4,16.7-3.3c14.2,3.1,28,5.1,41.6,3.3l-0.7-22.7l-3.1-11.1l5.6-16.7
	l-1.6-48l-30.4-6.4h-15.1l-10.4,5.6l-9.6,8l-11.1,7.1L510,29.7l-11.1,3.1l-2.9-0.2c0.2,0.4,0.4,0.9,0.7,1.3l20.2,80.9l-0.2,1.1
	c0,0,0,0.7-0.2,1.6C524.7,117.7,533.6,114.3,540.9,109z" title=""></path>
<path id="PATH_19" class="st4 area" d="M1218,801.2" title=""></path>
<line id="LINE_20" class="st4 area" x1="1162.7" y1="616.3" x2="1192" y2="552.3" title=""></line>
<path id="PATH_21" class="st4 area" d="M858.9,558.1" title=""></path>
<g id="G_22" class="area" title="">
	<path id="PATH_23" d="M525.6,62.3c0,0.9-0.2,1.8-0.7,2.4c-0.2,0.4-0.4,0.7-0.4,0.7s-0.2-0.2-0.2-0.9c0-2.7-0.4-8.9-1.3-18.9
		l1.8-1.8c0.2-0.2,0.2-0.2,0.2-0.2s0,0.2,0,0.4C525.6,47.2,525.6,53.2,525.6,62.3z" class="area" title=""></path>
	<path id="PATH_24" d="M536.9,65.4c0,2.2-0.7,4.2-2,6.2c-1.1,1.6-2.2,2.4-2.9,2.4c-1.8,0-3.1,0-4.4-0.2c-0.4,0-0.7-0.2-0.7-0.2
		s0.2-0.2,0.7-0.2c1.8-0.4,3.6-1.3,5.3-2.7c1.8-1.6,2.9-3.1,2.9-4.7c0-0.9-0.7-2.2-2.2-3.8l1.1-2c0-0.2,0.2-0.2,0.2-0.2l0.2,0.2
		c0.4,0.7,1.1,1.6,1.3,2.7C536.7,63.7,536.9,64.6,536.9,65.4z" class="area" title=""></path>
	<path id="PATH_25" d="M545.8,65.2h-1.6c-1.6,0-2.9-0.7-3.3-2c-0.4-0.9-0.7-2.4-0.7-4.2v-4.2c0-2-0.2-4.9-0.4-8.7l1.3-1.6
		c0.2-0.2,0.4-0.2,0.4,0c0.2,2,0.4,4.9,0.4,8.7v6.7c0,1.8,0.9,2.7,2.7,2.7h1.1V65.2z" class="area" title=""></path>
	<path id="PATH_26" d="M556.7,65.2h-1.8c-2,0-3.3-0.7-4.2-2c-0.7,1.3-2.2,2-4.7,2h-1.3v-2.7h2c2.2,0,3.3-0.9,3.6-2.4
		c0-0.7,0.2-1.1,0.4-1.1s0.4,0.4,0.4,1.1c0.2,1.6,1.3,2.4,3.3,2.4h2v2.7H556.7z M549.1,52.3l-1.8,1.8l-1.8-1.8l1.8-1.8L549.1,52.3z
		 M552.9,52.3l-1.8,1.6l-1.8-1.8l1.8-1.8L552.9,52.3z" class="area" title=""></path>
	<path id="PATH_27" d="M574.2,60.3c0,1.3-0.2,2.4-0.9,3.3c-0.7,0.9-1.8,1.6-2.9,1.6c-1.6,0-2.4-0.7-3.1-1.8
		c-0.9,1.3-1.8,1.8-3.1,1.8c-1.6,0-2.7-0.7-3.3-1.8c-0.9,1.3-2,1.8-3.6,1.8h-1.6v-2.7h1.8c1.6,0,2.7-0.9,2.9-2.7
		c0-0.4,0.2-0.7,0.4-0.7c0.2,0,0.2,0.2,0.4,0.7c0.2,1.8,1.1,2.7,2.9,2.7c0.9,0,1.8-0.2,2.2-0.7c0.2-0.4,0.4-0.9,0.7-1.8
		c0-0.4,0.2-0.7,0.4-0.7c0.2,0,0.2,0.2,0.4,0.7c0.2,1.8,1.1,2.7,2.7,2.7c1.8,0,2.4-0.4,2.4-1.1c0-0.7-0.4-1.6-1.3-2.4l1.1-2
		c0.2-0.2,0.2-0.4,0.4-0.4s0.2,0.2,0.4,0.4C573.8,58.3,574.2,59.4,574.2,60.3z" class="area" title=""></path>
	<path id="PATH_28" d="M583.1,41.4c-0.9,0.9-2.2,1.1-3.6,1.1c-0.2,0-0.4,0-0.9,0s-0.7,0-0.9,0c-0.2,0-0.4,0.2-0.7,0.4
		c-0.2,0.2-0.4,0.4-0.4,0.4c-0.2,0-0.2-0.2-0.2-0.4c0-0.2,0.2-0.7,0.4-1.1c0.2-0.7,0.4-0.9,0.7-0.9c0.2,0,0.7,0,1.3,0.2
		c0.7,0,1.1,0.2,1.3,0.2c1.3,0,2.2,0,2.9-0.2c0.4,0,0.7-0.2,0.7-0.2h0.2C583.8,41,583.6,41.2,583.1,41.4z M581.8,62.3
		c0,0.9-0.2,1.8-0.7,2.4c-0.2,0.4-0.4,0.7-0.4,0.7s-0.2-0.2-0.2-0.9c0-2.7-0.4-8.9-1.3-18.9l1.8-1.8c0.2-0.2,0.2-0.2,0.2-0.2
		s0,0.2,0,0.4C581.8,47.2,581.8,53.2,581.8,62.3z" class="area" title=""></path>
</g>
<g id="G_29" class="area" title="">
	<path id="PATH_30" d="M538.4,315.4h-1.1c-1.6,0-2.4-0.7-3.1-1.8c-0.4,1.3-1.6,2-2.9,2c-1.3,0-2.2-0.7-2.9-2c-0.7,1.3-1.8,2-3.1,2
		c-0.4,0-1.1,0-1.6-0.2c0,1.3-0.2,2.7-0.2,4.2c-0.7,1.6-1.8,2.9-3.8,3.8c-1.8,0.7-3.6,1.1-5.6,1.1s-3.6-0.4-4.9-1.3
		c-1.3-1.1-2-2.4-2-4.4c0-1.1,0.2-2,0.7-3.3c0.4-0.9,0.7-1.6,1.1-2c0.2-0.2,0.4-0.2,0.4-0.2c0.2,0,0.2,0,0.2,0.2c0,0,0,0.2,0,0.4
		c-0.7,1.3-0.9,2.7-0.9,3.8s0.4,2,1.1,2.9c0.9,1.1,2.4,1.6,4.4,1.6c2.2,0,4.2-0.4,5.8-1.1c1.3-0.7,2.2-1.3,2.4-2.2
		c0.2-0.2,0.2-0.7,0-1.6c0-0.7-0.2-1.3-0.2-1.6c-0.2-0.7-0.9-1.8-2.2-3.3l0.9-1.8c0.2-0.2,0.2-0.4,0.2-0.4s0.2,0,0.2,0.4
		c0.7,0.9,1.1,1.6,1.3,1.8c0.7,0.7,1.3,0.9,2.2,0.9c0.9,0,1.8-0.2,2.2-0.9c0.2-0.4,0.4-0.9,0.7-2c0-0.4,0.2-0.7,0.4-0.7
		c0.2,0,0.2,0.2,0.4,0.7c0.2,1.8,1.1,2.9,2.4,2.9c1.6,0,2.7-0.9,2.7-2.7c0-0.4,0.2-0.7,0.4-0.7s0.4,0.2,0.4,0.7
		c0.2,1.8,1.1,2.7,2.7,2.7h1.3v2.2H538.4z M528,304.3l-1.6,1.6l-1.6-1.6l1.6-1.6L528,304.3z M530,300.8l-1.6,1.6l-1.6-1.6l1.6-1.6
		L530,300.8z M532,304.3l-1.6,1.6l-1.6-1.6l1.6-1.6L532,304.3z" class="area" title=""></path>
	<path id="PATH_31" d="M543.6,297.9c0.2,0.2,0.2,0.4,0.2,0.4s-0.2,0-0.4,0h-0.7c0.2,2.9,0.2,7.1,0.2,12.7c0,1.3-0.2,2.4-0.9,3.1
		c-0.7,0.9-1.8,1.3-2.9,1.3h-1.3v-2.7h1.1c1.8,0,2.7-0.7,2.4-2c-0.2-4.7-0.4-9.6-0.7-14.4l1.6-1.3c0.2-0.2,0.4-0.4,0.4-0.4
		s0,0.2,0.2,0.4C542.9,295.7,543.1,296.6,543.6,297.9z" class="area" title=""></path>
	<path id="PATH_32" d="M548.9,312.8c0,0.9-0.2,1.8-0.7,2.4c-0.2,0.4-0.4,0.7-0.4,0.7s-0.2-0.2-0.2-0.9c0-2.7-0.4-8.9-1.3-18.9
		l1.8-1.8c0.2-0.2,0.2-0.2,0.2-0.2s0,0.2,0,0.4C548.9,297.4,548.9,303.4,548.9,312.8z" class="area" title=""></path>
	<path id="PATH_33" d="M562.9,315.4h-2.4c-0.2,3.1-1.3,5.6-3.6,7.8c-0.7,0.7-1.1,1.1-1.3,1.1c-1.1,0-2.7-0.2-4.2-0.4
		c-0.4,0-0.9-0.2-0.9-0.2s0.2-0.2,0.9-0.4c1.8-0.4,3.6-1.6,5.1-2.7c0.7-0.7,1.3-1.1,1.8-2c0.7-0.9,1.1-1.8,1.1-2.4v-0.7h-2.9
		c-2.2,0-3.1-0.9-3.1-2.7c0-1.1,0.2-2.2,0.9-3.6s1.6-2.2,2.4-2.2c1.1,0,2,0.7,2.7,2.2c0.4,1.1,0.9,2.2,0.9,3.6h2.4v2.7H562.9z
		 M558.9,312.8c0-0.7-0.2-1.3-0.7-2c-0.4-0.9-1.1-1.1-1.8-1.1c-0.4,0-0.9,0.2-1.1,0.4c-0.4,0.4-0.4,0.7-0.4,1.3
		c0,1.1,0.9,1.6,2.7,1.6C557.6,313,558.2,312.8,558.9,312.8z" class="area" title=""></path>
	<path id="PATH_34" d="M579.8,309.4c0,2.4-1.3,4.2-4,5.1c-2,0.7-5.1,0.9-9.3,0.9H562v-2.7h2.2c0.7,0,1.1-0.2,1.3-0.4
		c0.2-0.2,0.2-0.7,0.2-1.3c0-0.9,0-2.7,0-4.9c-0.2-3.6-0.4-6.9-0.9-9.8l1.6-1.6c0.2-0.2,0.2-0.2,0.2-0.2s0.2,0.2,0.2,0.4
		c0.2,0.9,0.4,1.8,0.9,2.7c0,0.2,0.2,0.4,0.2,0.4s-0.2,0-0.4,0h-0.7c0.2,4,0.2,6.4,0.2,7.1v2.4c0,0.9-0.2,2.2-0.7,3.8
		c0.2,0,0.7-0.4,1.8-1.3c1.1-1.1,2.2-2,3.1-2.7c1.6-0.9,2.9-1.3,4.2-1.3c1.1,0,2,0.2,2.7,0.9C579.3,307.4,579.8,308.3,579.8,309.4z
		 M578.2,310.8c0-0.7-0.4-1.3-1.3-1.8c-0.7-0.4-1.6-0.7-2.2-0.7c-1.6,0-4.2,1.6-7.6,4.4c0.9,0,2,0.2,2.9,0.2c1.3,0,2.9-0.2,4.4-0.4
		C576.9,312.1,578.2,311.4,578.2,310.8z" class="area" title=""></path>
</g>
<g id="G_35" class="area" title="">
	<path id="PATH_36" d="M593.6,506.6h-0.9c-0.9,0-1.3-0.2-1.8-0.4c0,0.2,0,0.4,0,0.7c0,2-0.7,4-2,6c-1.1,1.8-2.2,2.4-2.9,2.4
		c-1.8,0-3.1,0-4.4-0.2c-0.4,0-0.7-0.2-0.7-0.2s0.2-0.2,0.7-0.2c1.8-0.4,3.6-1.3,5.3-2.7c1.8-1.6,2.9-3.1,2.9-4.7
		c0-0.9-0.7-2.2-2.2-3.8l1.1-2c0-0.2,0.2-0.2,0.2-0.2l0.2,0.2c0.7,0.9,1.1,1.6,1.6,1.8c0.7,0.4,1.6,0.9,2.4,0.9h0.7v2.4H593.6z" class="area" title=""></path>
	<path id="PATH_37" d="M607.3,506.6h-1.1c-0.9,0-1.8,0.2-2.4,0.4c-1.1,0.4-1.8,1.1-1.8,2.2c0,1.3,0.9,2.4,2.7,3.6l-1.1,2.2
		c-2-0.7-3.8-1.8-5.1-3.1c-1.8-1.6-2.7-3.6-2.7-5.6h-3.1v-2.7h2.9c0-1.8,0.4-3.6,1.3-5.8c0.9-2,1.6-2.9,2-2.9s1.1,0.9,1.8,2.9
		c0.7,1.8,0.9,2.9,0.9,3.6c0,3.1-1.6,4.7-4.7,4.7c0.2,0.9,0.7,1.8,1.3,2.7c0.7,0.9,1.6,1.6,2.4,2c0-0.2,0-0.7,0-0.9
		c0-1.6,0.4-2.9,1.1-4c1.1-1.6,2.4-2.4,4.4-2.4h0.9v3.1H607.3z M600.4,503c0-0.4-0.2-1.3-0.7-2.4c-0.4-1.3-0.9-1.8-1.3-1.8
		c-0.2,0-0.7,0.4-1.1,1.6c-0.4,1.1-0.7,2.4-0.7,3.8C599.3,503.9,600.4,503.7,600.4,503z" class="area" title=""></path>
	<path id="PATH_38" d="M624.9,501.9c0,1.3-0.2,2.4-0.9,3.3c-0.7,0.9-1.8,1.6-2.9,1.6c-1.6,0-2.4-0.7-3.1-1.8
		c-0.9,1.3-1.8,1.8-3.1,1.8c-1.6,0-2.7-0.7-3.3-1.8c-0.9,1.3-2,1.8-3.6,1.8h-1.6v-2.7h1.8c1.6,0,2.7-0.9,2.9-2.7
		c0-0.4,0.2-0.7,0.4-0.7c0.2,0,0.2,0.2,0.4,0.7c0.2,1.8,1.1,2.7,2.9,2.7c0.9,0,1.8-0.2,2.2-0.7c0.2-0.4,0.4-0.9,0.7-1.8
		c0-0.4,0.2-0.7,0.4-0.7s0.2,0.2,0.4,0.7c0.2,1.8,1.1,2.7,2.7,2.7c1.8,0,2.4-0.4,2.4-1.1c0-0.7-0.4-1.6-1.3-2.4l1.1-2
		c0.2-0.2,0.2-0.4,0.4-0.4s0.2,0.2,0.4,0.4C624.4,499.7,624.9,500.8,624.9,501.9z M617.3,493.7l-1.6,1.6l-1.6-1.6l1.6-1.6
		L617.3,493.7z M619.3,490.3l-1.6,1.6l-1.6-1.6l1.6-1.6L619.3,490.3z M621.3,493.7l-1.6,1.6l-1.6-1.6l1.6-1.6L621.3,493.7z" class="area" title=""></path>
	<path id="PATH_39" d="M652.7,506.3c0.2,0.7,0.2,1.3,0.2,2c0,0.9-0.2,1.6-0.4,2.4c-0.7,1.6-1.8,2.9-4,3.8c-1.8,0.7-3.6,1.1-5.6,1.1
		s-3.6-0.4-4.9-1.3c-1.3-1.1-2-2.4-2-4.4c0-1.1,0.2-2,0.7-3.3c0.4-0.9,0.7-1.6,1.1-2c0.2-0.2,0.4-0.2,0.4-0.2c0.2,0,0.2,0,0.2,0.2
		c0,0,0,0.2,0,0.4c-0.7,1.3-0.9,2.7-0.9,3.8s0.4,2,1.1,2.9c0.9,1.1,2.4,1.6,4.4,1.6c2.2,0,4.2-0.4,5.8-1.1c1.3-0.7,2.2-1.3,2.7-2.2
		c0.2-0.2,0.2-0.7,0.2-0.9c0-0.7-0.2-1.3-0.4-2.2c-0.2-0.7-0.9-1.8-2-3.6l0.9-1.8c0.2-0.2,0.2-0.4,0.2-0.4s0.2,0,0.2,0.2
		C651.8,502.8,652.4,504.6,652.7,506.3z M646.2,496.6l-1.8,1.8l-1.8-1.8l1.8-1.8L646.2,496.6z" class="area" title=""></path>
	<path id="PATH_40" d="M658.2,503.9c0,0.9-0.2,1.8-0.7,2.4c-0.2,0.4-0.4,0.7-0.4,0.7s-0.2-0.2-0.2-0.9c0-2.7-0.4-8.9-1.3-18.9
		l1.8-1.8c0.2-0.2,0.2-0.2,0.2-0.2s0,0.2,0,0.4C658,488.6,658.2,494.6,658.2,503.9z" class="area" title=""></path>
	<path id="PATH_41" d="M672,506.6h-2.4c-0.2,3.1-1.3,5.6-3.6,7.8c-0.7,0.7-1.1,1.1-1.3,1.1c-1.1,0-2.7-0.2-4.2-0.4
		c-0.4,0-0.9-0.2-0.9-0.2s0.2-0.2,0.9-0.4c1.8-0.4,3.6-1.6,5.1-2.7c0.7-0.7,1.3-1.1,1.8-2c0.7-0.9,1.1-1.8,1.1-2.4v-0.7h-2.9
		c-2.2,0-3.1-0.9-3.1-2.7c0-1.1,0.2-2.2,0.9-3.6s1.6-2.2,2.4-2.2c1.1,0,2,0.7,2.7,2.2c0.4,1.1,0.9,2.2,0.9,3.6h2.4v2.7H672z
		 M668,503.9c0-0.7-0.2-1.3-0.7-2c-0.4-0.9-1.1-1.1-1.8-1.1c-0.4,0-0.9,0.2-1.1,0.4c-0.4,0.4-0.4,0.7-0.4,1.3c0,1.1,0.9,1.6,2.7,1.6
		C666.7,504.1,667.3,503.9,668,503.9z" class="area" title=""></path>
	<path id="PATH_42" d="M691.3,500.6c0,2.2-1.3,3.8-4,4.9c-1.8,0.7-4,1.1-6.7,1.1c-1.6,0-2.7,0-3.3-0.2c-1.1-0.2-1.8-0.9-2.2-1.8
		c-0.9,1.3-2,2-3.3,2h-0.7v-2.7h0.9c1.8,0,2.7-0.9,2.9-2.4c0-0.4,0.2-0.7,0.4-0.7s0.4,0.2,0.4,0.7c0.2,1.6,0.9,2.4,2.2,2.4
		c4.2-4.4,7.3-6.7,9.8-6.7c1.1,0,2,0.2,2.7,0.9C691.1,498.8,691.3,499.7,691.3,500.6z M689.8,501.9c0-0.7-0.4-1.1-1.1-1.8
		c-0.7-0.4-1.3-0.7-2-0.7c-2,0-4.4,1.3-7.1,4.2c0.7,0,1.3,0,2,0c1.6,0,3.1-0.2,4.7-0.4C688.4,503.2,689.8,502.8,689.8,501.9z
		 M686.4,491l-1.8,1.8l-1.8-1.8l1.8-1.8L686.4,491z" class="area" title=""></path>
	<path id="PATH_43" d="M702.7,506.8c0,2.2-0.7,4.2-2,6.2c-1.1,1.6-2.2,2.4-2.9,2.4c-1.8,0-3.1,0-4.4-0.2c-0.4,0-0.7-0.2-0.7-0.2
		s0.2-0.2,0.7-0.2c1.8-0.4,3.6-1.3,5.3-2.7c1.8-1.6,2.9-3.1,2.9-4.7c0-0.9-0.7-2.2-2.2-3.8l1.1-2c0-0.2,0.2-0.2,0.2-0.2l0.2,0.2
		c0.4,0.7,1.1,1.6,1.3,2.7C702.4,505,702.7,505.9,702.7,506.8z" class="area" title=""></path>
</g>
<g id="G_44" class="area" title="">
	<path id="PATH_45" d="M641.1,585.4c0,0.2,0.2,0.4,0,0.4c0,0-0.2,0-0.4,0H640c0.4,8.4,0.7,14.4,0.4,17.8c-0.2,5.3-3.3,7.8-9.1,7.8
		c-2,0-3.3-0.4-4.4-1.1c-1.3-0.9-2-2.2-2-4.2c0-1.8,0.4-3.6,1.6-4.9c0.2-0.2,0.2-0.2,0.4-0.2c0.2,0,0.2,0,0.2,0.2v0.2
		c-0.4,1.1-0.7,2.2-0.7,3.1c0,1.3,0.4,2.4,1.6,3.3c0.9,0.7,2,1.1,3.6,1.1c2.2,0,4-0.4,5.6-1.1c1.3-0.7,2-1.3,2-2.2
		c0-9.6-0.2-16.9-0.9-21.8l1.6-1.3c0.2-0.2,0.2-0.2,0.4-0.2c0,0,0.2,0.2,0.2,0.4C640.2,583.2,640.4,584.1,641.1,585.4z" class="area" title=""></path>
	<path id="PATH_46" d="M650,602.8h-1.6c-1.6,0-2.9-0.7-3.3-2c-0.4-0.9-0.7-2.4-0.7-4.2v-4.2c0-2-0.2-4.9-0.4-8.7l1.3-1.6
		c0.2-0.2,0.4-0.2,0.4,0c0.2,2,0.4,4.9,0.4,8.7v6.4c0,1.8,0.9,2.7,2.7,2.7h1.1V602.8L650,602.8z" class="area" title=""></path>
	<path id="PATH_47" d="M667.6,598.1c0,1.3-0.2,2.4-0.9,3.3c-0.7,0.9-1.8,1.6-2.9,1.6c-1.6,0-2.4-0.7-3.1-1.8
		c-0.9,1.3-1.8,1.8-3.1,1.8c-1.6,0-2.7-0.7-3.3-1.8c-0.9,1.3-2,1.8-3.6,1.8h-1.6v-2.7h1.8c1.6,0,2.7-0.9,2.9-2.7
		c0-0.4,0.2-0.7,0.4-0.7c0.2,0,0.2,0.2,0.4,0.7c0.2,1.8,1.1,2.7,2.9,2.7c0.9,0,1.8-0.2,2.2-0.7c0.2-0.4,0.4-0.9,0.7-1.8
		c0-0.4,0.2-0.7,0.4-0.7s0.2,0.2,0.4,0.7c0.2,1.8,1.1,2.7,2.7,2.7c1.8,0,2.4-0.4,2.4-1.1s-0.4-1.6-1.3-2.4l1.1-2
		c0.2-0.2,0.2-0.4,0.4-0.4s0.2,0.2,0.4,0.4C667.1,595.9,667.6,597.2,667.6,598.1z" class="area" title=""></path>
	<path id="PATH_48" d="M676.4,602.8h-1.6c-1.6,0-2.9-0.7-3.3-2c-0.4-0.9-0.7-2.4-0.7-4.2v-4.2c0-2-0.2-4.9-0.4-8.7l1.3-1.6
		c0.2-0.2,0.4-0.2,0.4,0c0.2,2,0.4,4.9,0.4,8.7v6.4c0,1.8,0.9,2.7,2.7,2.7h1.1V602.8L676.4,602.8z" class="area" title=""></path>
	<path id="PATH_49" d="M687.3,598.3c0,1.1,0,2-0.4,2.9c-0.4,1.1-1.1,1.8-1.8,1.8c-1.1,0-2.9-0.7-5.1-2.2c-0.7,0.9-1.1,1.3-1.3,1.6
		c-0.7,0.4-1.3,0.7-2.2,0.7h-0.9v-2.7h1.6c0.9,0,1.8-0.4,2.7-1.6c0.4-0.4,1.1-1.6,2-2.9c0.7-1.1,1.6-1.6,2.2-1.6
		c1.1,0,2,0.4,2.7,1.6C687.1,596.8,687.3,597.7,687.3,598.3z M686,600.1c0-0.7-0.2-1.3-0.7-2.2c-0.4-0.9-1.1-1.3-1.8-1.3
		c-0.7,0-1.3,0.7-2.2,2c0.4,0.4,1.1,0.9,2,1.3c0.9,0.4,1.8,0.7,2.2,0.7C686,600.6,686,600.3,686,600.1z" class="area" title=""></path>
</g>
<g id="G_50" class="area" title="">
	<path id="PATH_51" d="M767.1,606.1c0,0.9-0.2,1.8-0.7,2.4c-0.2,0.4-0.4,0.7-0.4,0.7s-0.2-0.2-0.2-0.9c0-2.7-0.4-8.9-1.3-18.9
		l1.8-1.8c0.2-0.2,0.2-0.2,0.2-0.2s0,0.2,0,0.4C766.9,590.8,767.1,596.8,767.1,606.1z" class="area" title=""></path>
	<path id="PATH_52" d="M780.9,608.8H780c-0.9,0-1.3-0.2-1.8-0.4c0,0.2,0,0.4,0,0.7c0,2-0.7,4-2,6c-1.1,1.8-2.2,2.4-2.9,2.4
		c-1.8,0-3.1,0-4.4-0.2c-0.4,0-0.7-0.2-0.7-0.2s0.2-0.2,0.7-0.2c1.8-0.4,3.6-1.3,5.3-2.7c1.8-1.6,2.9-3.1,2.9-4.7
		c0-0.9-0.7-2.2-2.2-3.8l1.1-2c0-0.2,0.2-0.2,0.2-0.2l0.2,0.2c0.7,0.9,1.1,1.6,1.6,1.8c0.7,0.4,1.6,0.9,2.4,0.9h0.7v2.4H780.9z" class="area" title=""></path>
	<path id="PATH_53" d="M798.4,604.1c0,1.3-0.2,2.4-0.9,3.3c-0.7,0.9-1.8,1.6-2.9,1.6c-1.6,0-2.4-0.7-3.1-1.8
		c-0.9,1.3-1.8,1.8-3.1,1.8c-1.6,0-2.7-0.7-3.3-1.8c-0.9,1.3-2,1.8-3.6,1.8H780v-2.7h1.8c1.6,0,2.7-0.9,2.9-2.7
		c0-0.4,0.2-0.7,0.4-0.7c0.2,0,0.2,0.2,0.4,0.7c0.2,1.8,1.1,2.7,2.9,2.7c0.9,0,1.8-0.2,2.2-0.7c0.2-0.4,0.4-0.9,0.7-1.8
		c0-0.4,0.2-0.7,0.4-0.7s0.2,0.2,0.4,0.7c0.2,1.8,1.1,2.7,2.7,2.7c1.8,0,2.4-0.4,2.4-1.1c0-0.7-0.4-1.6-1.3-2.4l1.1-2
		c0.2-0.2,0.2-0.4,0.4-0.4c0.2,0,0.2,0.2,0.4,0.4C798,601.9,798.4,603,798.4,604.1z" class="area" title=""></path>
	<path id="PATH_54" d="M822.4,608.8h-1.6c-2,0-3.1-1.1-3.6-3.6c-1.1,1.1-1.6,1.6-1.8,1.6h-2.2c-0.7,0-1.3,0-2-0.2
		c-0.9-0.2-1.3-0.7-1.3-1.1c0-1.8,0.7-3.1,1.8-4c0.9-0.7,2.2-1.3,4-2.2l-0.4-2.2l1.6-1.8c0,0.2,0.7,2.7,1.6,7.3
		c0.2,1.3,0.7,2.4,0.9,2.9c0.4,0.7,0.9,0.9,1.8,0.9h1.6v2.4H822.4z M816.9,604.3l-0.7-3.6c-0.7,0.2-1.6,0.7-2.7,1.1
		c-1.3,0.7-2.2,1.3-2.2,1.6c0,0.4,0.4,0.7,1.6,0.9c0.7,0.2,1.3,0.2,2,0.2C815.8,604.3,816.4,604.3,816.9,604.3z" class="area" title=""></path>
	<path id="PATH_55" d="M834.9,608.8h-1.3c-2.2,0-4-0.7-5.1-2.2c-1.3,1.6-3.1,2.2-5.1,2.2h-1.8v-2.7h2.2c1.6,0,2.7-0.2,3.3-0.9
		c-0.2-0.4-0.4-0.9-0.9-1.3c-0.4-0.4-0.9-0.9-1.1-0.9c-0.4-0.2-0.7-0.2-0.7-0.4c0,0,0-0.2,0.2-0.4c0.7-1.3,1.8-2,3.8-2
		c2.4,0,3.8,0.7,3.8,2.2c0,0.7-0.7,1.6-2,2.9c0.2,0.4,0.9,0.7,1.6,0.9s1.1,0.2,1.6,0.2h1.8v2.4H834.9z" class="area" title=""></path>
	<path id="PATH_56" d="M846,604.3c0,1.1,0,2-0.4,2.9c-0.4,1.1-1.1,1.8-1.8,1.8c-1.1,0-2.9-0.7-5.1-2.2c-0.7,0.9-1.1,1.3-1.3,1.6
		c-0.7,0.4-1.3,0.7-2.2,0.7H834v-2.7h1.6c0.9,0,1.8-0.4,2.7-1.6c0.4-0.4,1.1-1.6,2-2.9c0.7-1.1,1.6-1.6,2.2-1.6c1.1,0,2,0.4,2.7,1.6
		C845.6,602.8,845.8,603.4,846,604.3z M844.7,605.9c0-0.7-0.2-1.3-0.7-2.2c-0.4-0.9-1.1-1.3-1.8-1.3c-0.7,0-1.3,0.7-2.2,2
		c0.4,0.4,1.1,0.9,2,1.3c0.9,0.4,1.8,0.7,2.2,0.7C844.4,606.6,844.7,606.3,844.7,605.9z" class="area" title=""></path>
	<path id="PATH_57" d="M859.8,608.8h-2.4c-0.2,3.1-1.3,5.6-3.6,7.8c-0.7,0.7-1.1,1.1-1.3,1.1c-1.1,0-2.7-0.2-4.2-0.4
		c-0.4,0-0.9-0.2-0.9-0.2s0.2-0.2,0.9-0.4c1.8-0.4,3.6-1.6,5.1-2.7c0.7-0.7,1.3-1.1,1.8-2c0.7-0.9,1.1-1.8,1.1-2.4v-0.7h-2.9
		c-2.2,0-3.1-0.9-3.1-2.7c0-1.1,0.2-2.2,0.9-3.6c0.7-1.3,1.6-2.2,2.4-2.2c1.1,0,2,0.7,2.7,2.2c0.4,1.1,0.9,2.2,0.9,3.6h2.4v2.7
		H859.8z M855.8,606.1c0-0.7-0.2-1.3-0.7-2c-0.4-0.9-1.1-1.1-1.8-1.1c-0.4,0-0.9,0.2-1.1,0.4c-0.4,0.4-0.4,0.7-0.4,1.3
		c0,1.1,0.9,1.6,2.7,1.6C854.4,606.3,855.1,606.1,855.8,606.1z" class="area" title=""></path>
	<path id="PATH_58" d="M879.1,602.8c0,2.2-1.3,3.8-4,4.9c-1.8,0.7-4,1.1-6.7,1.1c-1.6,0-2.7,0-3.3-0.2c-1.1-0.2-1.8-0.9-2.2-1.8
		c-0.9,1.3-2,2-3.3,2h-0.9v-2.7h0.9c1.8,0,2.7-0.9,2.9-2.4c0-0.4,0.2-0.7,0.4-0.7c0.2,0,0.4,0.2,0.4,0.7c0.2,1.6,0.9,2.4,2.2,2.4
		c4.2-4.4,7.3-6.7,9.8-6.7c1.1,0,2,0.2,2.7,0.9C878.7,601,879.1,601.9,879.1,602.8z M877.6,604.1c0-0.7-0.4-1.1-1.1-1.8
		c-0.7-0.4-1.3-0.7-2-0.7c-2,0-4.4,1.3-7.1,4.2c0.7,0,1.3,0,2,0c1.6,0,3.1-0.2,4.7-0.4C876.2,605.4,877.6,605,877.6,604.1z" class="area" title=""></path>
</g>
<g id="G_59" class="area" title="">
	<path id="PATH_60" d="M826.4,540.8l-4.9-1.8c-0.7-0.2-1.1-0.2-1.8-0.2c-0.9,0-1.3,0.2-1.6,0.7c0,0,0.9,0.7,2.7,2
		c1.8,1.1,2.7,2,2.4,2.4c-0.7,1.6-1.6,2.7-2.7,3.1c-2,0.9-5.1,0.4-9.1-0.9c-4.9-1.8-6.7-4.4-5.3-8c0.2-0.9,0.9-1.8,1.6-2.4
		c0.7-0.9,1.3-1.6,2.2-2c0.2-0.2,0.4-0.2,0.7-0.2s0.2,0.2,0.2,0.4s-0.2,0.4-0.4,0.4c-1.1,0.9-1.8,2-2.2,3.3s-0.2,2.7,0.9,4
		c0.9,0.9,2,1.6,3.6,2.2c1.8,0.7,3.3,1.1,4.7,1.3c2.7,0.7,4,0.4,4.4-0.2c0.2-0.2-0.4-0.7-1.3-1.3c-1.6-0.9-2.7-1.6-2.9-1.6
		c-0.9-0.7-1.3-1.3-1.1-2c0.2-0.4,0.7-1.1,1.6-1.6c0.7-0.4,1.3-0.9,2-1.1c1.3-0.4,2.9-0.4,4.7,0.2l2.9,1.1L826.4,540.8z" class="area" title=""></path>
	<path id="PATH_61" d="M837.1,525.9c0,0.2,0,0.4,0,0.7c0,0-0.2,0-0.4,0l-0.7-0.2c-0.9,2.9-2.2,6.9-4,12c-0.4,1.3-1.1,2.2-2,2.7
		c-0.9,0.7-2,0.7-3.3,0.2l-1.3-0.4l0.9-2.4l1.1,0.4c1.6,0.7,2.7,0.2,3.1-1.1c1.3-4.7,2.9-9.1,4.2-14l1.8-0.9
		c0.2-0.2,0.4-0.2,0.4-0.2s0,0.2,0,0.4C837.1,523.7,837.1,524.8,837.1,525.9z" class="area" title=""></path>
	<path id="PATH_62" d="M844.4,547.2l-0.9-0.2c-0.7-0.2-1.3-0.7-1.6-1.1c0,0.2-0.2,0.4-0.2,0.7c-0.7,2-2,3.6-4,5.1
		c-1.6,1.1-2.9,1.6-3.6,1.3c-1.6-0.7-2.9-1.1-4-1.8c-0.4-0.2-0.4-0.4-0.4-0.4c0-0.2,0.2-0.2,0.7,0c1.8,0.2,3.8,0,5.8-0.9
		c2.2-0.9,3.8-2,4.2-3.3c0.2-0.9,0-2.4-0.9-4.2l1.6-1.6c0.2-0.2,0.2-0.2,0.2-0.2s0.2,0.2,0.2,0.4c0.4,1.1,0.7,1.8,0.9,2.2
		c0.4,0.7,1.1,1.3,2,1.6l0.7,0.2L844.4,547.2z M844.2,534.8l-2.2,1.1l-1.1-2.2l2.2-1.1L844.2,534.8z" class="area" title=""></path>
	<path id="PATH_63" d="M850.9,544.8c-0.9,2.9-2.9,3.8-5.6,2.7l-1.8-0.7l0.9-2.4l1.3,0.4c2,0.7,3.3,0.7,3.6,0c0.2-0.4,0-1.6-0.4-3.1
		l1.6-1.8c0.2-0.2,0.2-0.2,0.2-0.2s0.2,0.2,0.2,0.4C851.3,541.9,851.3,543.4,850.9,544.8z M854.2,535.2l-2.2,1.1l-1.1-2.2l2.2-1.1
		L854.2,535.2z" class="area" title=""></path>
	<path id="PATH_64" d="M855.3,548.1c-0.2,0.9-0.7,1.6-1.3,2.2c-0.4,0.4-0.7,0.4-0.7,0.4s0-0.2,0.2-0.9c0.9-2.4,2.4-8.4,4.9-18.2
		l2.2-1.1c0.2,0,0.2-0.2,0.4-0.2c0,0,0,0.2,0,0.4C860.2,533.9,858.2,539.4,855.3,548.1z" class="area" title=""></path>
	<path id="PATH_65" d="M873.1,557.7c-0.7,2-2,3.8-4,5.1c-1.6,1.1-2.9,1.6-3.6,1.3c-1.6-0.7-2.9-1.1-4-1.8c-0.4-0.2-0.4-0.4-0.4-0.4
		c0-0.2,0.2-0.2,0.7,0c1.8,0.2,3.8,0,5.8-0.9c2.2-0.9,3.8-2,4.2-3.3c0.2-0.9,0-2.4-0.9-4.2l1.6-1.6c0.2-0.2,0.2-0.2,0.2-0.2
		s0.2,0.2,0.2,0.4c0.2,0.9,0.4,1.8,0.4,2.9C873.3,555.9,873.3,556.8,873.1,557.7z" class="area" title=""></path>
	<path id="PATH_66" d="M889.3,563.2l-0.9-0.2c-0.9-0.2-1.3-0.7-1.8-1.6c-0.2-0.4-0.4-1.1-0.7-2c-0.9,0.7-1.6,1.1-2.4,1.3
		c-0.9,0.2-2.2,0-3.8-0.7c-2.9-1.1-4-2.7-3.3-4.7c0.2-0.7,0.7-1.3,1.3-2c0.2-0.2,0.4-0.2,0.7-0.2c0.2,0,0.2,0.2,0,0.4
		c0,0.2-0.2,0.2-0.2,0.4s-0.2,0.4-0.2,0.4c-0.4,1.3,0.4,2.2,2.4,3.1c3.1,1.1,4.7,1.1,5.1-0.2c0.2-0.7,0.2-3.1-0.2-7.8l1.6-1.3
		c0.2-0.2,0.2-0.2,0.4-0.2c0,0,0,0.2,0,0.4c0.2,2,0.2,4.7,0.2,8.4c0,2,0.7,3.1,1.8,3.6l0.7,0.2L889.3,563.2z" class="area" title=""></path>
	<path id="PATH_67" d="M899.8,566.8l-1.6-0.7c-2-0.7-2.9-1.8-3.1-3.3c-1.1,1.1-2.9,1.1-4.9,0.4l-1.3-0.4l0.9-2.4l1.8,0.7
		c2,0.7,3.3,0.2,4.2-1.1c0.2-0.7,0.7-0.9,0.9-0.9s0.2,0.4,0,1.1c-0.4,1.6,0.4,2.9,2.4,3.6l1.8,0.7L899.8,566.8z M899.3,554.6
		l-2.2,1.1l-1.1-2.2l2.2-1.1L899.3,554.6z" class="area" title=""></path>
	<path id="PATH_68" d="M906.2,564.3c-0.9,2.9-2.9,3.8-5.6,2.7l-1.8-0.7l0.9-2.4l1.3,0.4c2,0.7,3.3,0.7,3.6,0c0.2-0.4,0-1.6-0.4-3.1
		l1.6-1.8c0.2-0.2,0.2-0.2,0.2-0.2s0.2,0.2,0.2,0.4C906.7,561.7,906.7,563,906.2,564.3z M902.4,573l-2.2,1.1l-1.1-2.4l2.2-1.1
		L902.4,573z" class="area" title=""></path>
</g>
<g id="G_69" class="area" title="">
	<path id="PATH_70" d="M977.1,658.8h-0.9c-1.1,0-2-0.2-2.4-0.7c-0.7-0.4-1.1-1.3-1.1-2.2c-2.4,2.2-6.2,3.3-11.3,3.3
		c-5.3,0-8-1.6-8-4.9c0-1.1,0.4-2.2,1.3-3.3c0.2-0.2,0.2-0.2,0.4-0.2s0.2,0,0.2,0.2c0,0,0,0.2,0,0.4c-0.2,0.7-0.4,1.3-0.4,2
		c0,2.2,2.4,3.3,7.3,3.3c5.6,0,9.3-1.1,11.1-3.6c0.4-0.4,0.7-0.7,0.9-0.7c0.2,0,0.2,0.2,0.2,0.4c0,0.2,0,0.4-0.2,0.9
		c0,0.4-0.2,0.7-0.2,0.9c0,1.1,0.9,1.8,2.4,1.8h0.9v2.2H977.1z M963.3,645.9l-1.8,1.8l-1.8-1.8l1.8-1.8L963.3,645.9z M967.1,645.9
		l-1.8,1.8l-1.8-1.8l1.8-1.8L967.1,645.9z" class="area" title=""></path>
	<path id="PATH_71" d="M994.7,654.1c0,1.3-0.2,2.4-0.9,3.3c-0.7,0.9-1.8,1.6-2.9,1.6c-1.6,0-2.4-0.7-3.1-1.8
		c-0.9,1.3-1.8,1.8-3.1,1.8c-1.6,0-2.7-0.7-3.3-1.8c-0.9,1.3-2,1.8-3.6,1.8h-1.6v-2.7h1.8c1.6,0,2.7-0.9,2.9-2.7
		c0-0.4,0.2-0.7,0.4-0.7s0.2,0.2,0.4,0.7c0.2,1.8,1.1,2.7,2.9,2.7c0.9,0,1.8-0.2,2.2-0.7c0.2-0.4,0.4-0.9,0.7-1.8
		c0-0.4,0.2-0.7,0.4-0.7c0.2,0,0.2,0.2,0.4,0.7c0.2,1.8,1.1,2.7,2.7,2.7c1.8,0,2.4-0.4,2.4-1.1c0-0.7-0.4-1.6-1.3-2.4l1.1-2
		c0.2-0.2,0.2-0.4,0.4-0.4s0.2,0.2,0.4,0.4C994.2,651.9,994.7,653,994.7,654.1z M987.1,645.9l-1.6,1.6l-1.6-1.6l1.6-1.6L987.1,645.9
		z M989.1,642.6l-1.6,1.6l-1.6-1.6l1.6-1.6L989.1,642.6z M991.1,645.9l-1.6,1.6l-1.6-1.6l1.6-1.6L991.1,645.9z" class="area" title=""></path>
	<path id="PATH_72" d="M1005.8,659c0,2.2-0.7,4.2-2,6.2c-1.1,1.6-2.2,2.4-2.9,2.4c-1.8,0-3.1,0-4.4-0.2c-0.4,0-0.7-0.2-0.7-0.2
		s0.2-0.2,0.7-0.2c1.8-0.4,3.6-1.3,5.3-2.7c1.8-1.6,2.9-3.1,2.9-4.7c0-0.9-0.7-2.2-2.2-3.8l1.1-2c0-0.2,0.2-0.2,0.2-0.2l0.2,0.2
		c0.4,0.7,1.1,1.6,1.3,2.7C1005.6,657.2,1005.8,658.3,1005.8,659z" class="area" title=""></path>
</g>
<g id="G_79" class="area" title="">
	<path id="PATH_80" d="M837.8,765h-0.9c-1.1,0-2-0.2-2.4-0.7c-0.7-0.4-1.1-1.3-1.1-2.2c-2.4,2.2-6.2,3.3-11.3,3.3
		c-5.3,0-8-1.6-8-4.9c0-1.1,0.4-2.2,1.3-3.3c0.2-0.2,0.2-0.2,0.4-0.2c0.2,0,0.2,0,0.2,0.2c0,0,0,0.2,0,0.4c-0.2,0.7-0.4,1.3-0.4,2
		c0,2.2,2.4,3.3,7.3,3.3c5.6,0,9.3-1.1,11.1-3.6c0.4-0.4,0.7-0.7,0.9-0.7s0.2,0.2,0.2,0.4s0,0.4-0.2,0.9c0,0.4-0.2,0.7-0.2,0.9
		c0,1.1,0.9,1.8,2.4,1.8h0.9v2.2H837.8z M824,752.1l-1.8,1.8l-1.8-1.8l1.8-1.8L824,752.1z M827.8,752.1l-1.8,1.8l-1.8-1.8l1.8-1.8
		L827.8,752.1z" class="area" title=""></path>
	<path id="PATH_81" d="M849.8,765h-1.1c-0.7,0-1.6-0.2-2.7-0.4c-1.1-0.2-2-0.7-2.4-1.1c-0.4,0.4-1.1,0.7-2,0.9
		c-1.1,0.4-2.2,0.4-3.3,0.4h-1.6v-2.7h1.1c1.8,0,2.9-0.2,3.3-0.4c-0.4-0.2-0.7-0.7-0.9-1.1c-0.2-0.4-0.4-0.9-0.4-1.3
		c0-0.9,0.4-2,1.1-3.3c0.9-1.3,1.8-2.2,2.9-2.2c1.1,0,1.8,0.7,2.4,1.8c0.4,0.9,0.7,2,0.7,3.1c0,0.7-0.2,1.6-0.7,2
		c-0.2,0.4-0.4,0.7-0.9,0.9c0.4,0.2,1.6,0.4,3.1,0.4h0.9v3.1H849.8z M846,759.4c0-0.4-0.2-1.1-0.7-1.6c-0.4-0.7-0.9-0.9-1.6-0.9
		c-0.4,0-1.1,0.2-1.6,0.7c-0.4,0.4-0.9,1.1-0.9,1.6s0.2,1.1,0.9,1.6c0.4,0.4,1.1,0.7,1.6,0.9c0.4,0,1.1-0.2,1.3-0.7
		C845.8,760.3,846,759.9,846,759.4z M845.3,748.3l-1.8,1.8l-1.8-1.8l1.8-1.8L845.3,748.3z" class="area" title=""></path>
	<path id="PATH_82" d="M867.3,760.3c0,1.3-0.2,2.4-0.9,3.3c-0.7,0.9-1.8,1.6-2.9,1.6c-1.6,0-2.4-0.7-3.1-1.8
		c-0.9,1.3-1.8,1.8-3.1,1.8c-1.6,0-2.7-0.7-3.3-1.8c-0.9,1.3-2,1.8-3.6,1.8h-1.6v-2.7h1.8c1.6,0,2.7-0.9,2.9-2.7
		c0-0.4,0.2-0.7,0.4-0.7s0.2,0.2,0.4,0.7c0.2,1.8,1.1,2.7,2.9,2.7c0.9,0,1.8-0.2,2.2-0.7c0.2-0.4,0.4-0.9,0.7-1.8
		c0-0.4,0.2-0.7,0.4-0.7c0.2,0,0.2,0.2,0.4,0.7c0.2,1.8,1.1,2.7,2.7,2.7c1.8,0,2.4-0.4,2.4-1.1s-0.4-1.6-1.3-2.4l1.1-2
		c0.2-0.2,0.2-0.4,0.4-0.4c0.2,0,0.2,0.2,0.4,0.4C866.9,758.1,867.3,759.4,867.3,760.3z M859.8,752.1l-1.6,1.6l-1.6-1.6l1.6-1.6
		L859.8,752.1z M861.8,748.8l-1.6,1.6l-1.6-1.6l1.6-1.6L861.8,748.8z M863.8,752.1l-1.6,1.6l-1.6-1.6l1.6-1.6L863.8,752.1z" class="area" title=""></path>
</g>
<g id="G_83" class="area" title="">
	<path id="PATH_84" d="M912.2,909.2c0,2.2-0.7,4.2-2,6.2c-1.1,1.6-2.2,2.4-2.9,2.4c-1.8,0-3.1,0-4.4-0.2c-0.4,0-0.7-0.2-0.7-0.2
		s0.2-0.2,0.7-0.2c1.8-0.4,3.6-1.3,5.3-2.7c1.8-1.6,2.9-3.1,2.9-4.7c0-0.9-0.7-2.2-2.2-3.8l1.1-2c0-0.2,0.2-0.2,0.2-0.2l0.2,0.2
		c0.4,0.7,1.1,1.6,1.3,2.7C912,907.4,912.2,908.3,912.2,909.2z" class="area" title=""></path>
	<path id="PATH_85" d="M921.1,909h-1.6c-1.6,0-2.9-0.7-3.3-2c-0.4-0.9-0.7-2.4-0.7-4.2v-4.2c0-2-0.2-4.9-0.4-8.7l1.3-1.6
		c0.2-0.2,0.4-0.2,0.4,0c0.2,2,0.4,4.9,0.4,8.7v6.4c0,1.8,0.9,2.7,2.7,2.7h1.1V909z" class="area" title=""></path>
	<path id="PATH_86" d="M926.4,904.6c0,2.9-1.6,4.4-4.4,4.4h-1.8v-2.4h1.6c2.2,0,3.3-0.4,3.3-1.1c0-0.7-0.4-1.6-1.6-2.7l0.9-2.2
		c0-0.2,0.2-0.2,0.2-0.2s0.2,0.2,0.4,0.4C926,901.7,926.4,903.2,926.4,904.6z M925.8,913.9l-1.8,1.8l-1.8-1.8l1.8-1.8L925.8,913.9z" class="area" title=""></path>
	<path id="PATH_87" d="M940,904.3c0,3.1-2,4.7-6.2,4.7c-1.6,0-2.7-0.2-3.3-0.7c-0.9-0.4-1.3-1.6-1.3-2.9c0-0.7,0.2-1.3,0.4-2
		c0.2-0.2,0.2-0.4,0.4-0.4c0.2,0,0.2,0.2,0.2,0.7c0,0.2,0,0.4,0,0.7c0,0.9,0.4,1.6,1.3,1.8c0.4,0.2,1.3,0.2,2.4,0.2
		c3.3,0,4.9-0.4,4.9-1.6c0-1.6-2-3.8-5.8-6.4l0.7-2.2c0-0.2,0.2-0.2,0.2-0.2s0.2,0,0.4,0.2C938.2,899,940,901.9,940,904.3z" class="area" title=""></path>
	<path id="PATH_88" d="M951.6,908.1c0,3.3-1.1,6.2-3.3,8.4c-0.7,0.7-1.1,1.1-1.3,1.1c-1.3,0-2.7-0.2-4.2-0.4c-0.7,0-0.9-0.2-0.9-0.2
		s0.2-0.2,0.9-0.4c1.8-0.4,3.6-1.6,5.1-2.9c0.7-0.7,1.3-1.1,1.8-2c0.7-0.9,1.1-1.8,1.1-2.4v-0.4h-2.9c-2,0-3.1-0.9-3.1-2.4
		c0-1.1,0.2-2.2,0.9-3.6c0.7-1.3,1.6-2.2,2.4-2.2c1.3,0,2.4,0.9,3.1,2.9C951.3,905,951.6,906.3,951.6,908.1z M949.8,906.3
		c0-0.7-0.2-1.3-0.7-2c-0.4-0.7-1.1-1.1-1.8-1.1c-0.4,0-0.9,0.2-1.1,0.4c-0.4,0.4-0.4,0.7-0.4,1.1c0,1.1,0.7,1.6,2.2,1.6
		C948.4,906.6,949.1,906.3,949.8,906.3z" class="area" title=""></path>
	<path id="PATH_89" d="M962.7,909.2c0,2.2-0.7,4.2-2,6.2c-1.1,1.6-2.2,2.4-2.9,2.4c-1.8,0-3.1,0-4.4-0.2c-0.4,0-0.7-0.2-0.7-0.2
		s0.2-0.2,0.7-0.2c1.8-0.4,3.6-1.3,5.3-2.7c1.8-1.6,2.9-3.1,2.9-4.7c0-0.9-0.7-2.2-2.2-3.8l1.1-2c0-0.2,0.2-0.2,0.2-0.2l0.2,0.2
		c0.4,0.7,1.1,1.6,1.3,2.7C962.4,907.4,962.7,908.3,962.7,909.2z" class="area" title=""></path>
</g>
<g id="G_98" class="area" title="">
	<path id="PATH_99" d="M1115.8,689.4l-0.2,2.4l-2.7-0.2l0.2-2.4L1115.8,689.4z M1126.9,692.8c0.7,0.4,1.1,0.9,1.3,1.3
		c0.4,0.7,0.9,1.3,1.3,2.2c0.7,1.6,0.4,3.6-0.7,5.6c-0.9,1.6-2,3.1-3.6,4.4c-1.6,1.3-3.1,1.8-4.7,2c-1.8,0-3.1-0.7-4.4-2.2
		c-0.7-0.7-1.1-1.8-1.6-2.9c-0.2-0.9-0.4-1.6-0.4-2.2c0-0.2,0-0.4,0.2-0.7h0.2c0,0,0.2,0.2,0.2,0.4c0.4,1.6,0.9,2.7,1.6,3.6
		c0.7,0.9,1.6,1.3,2.7,1.6c1.3,0.2,2.9-0.2,4.4-1.6c1.8-1.3,2.9-2.9,3.8-4.7c0.7-1.3,0.9-2.4,0.7-3.3c0-0.2-0.2-0.4-0.4-0.9
		c-0.4-0.4-0.9-0.9-1.8-1.3c-0.7-0.4-2-0.9-3.8-1.3l-0.4-2c0-0.2,0-0.4,0-0.4s0.2,0,0.4,0C1124,690.8,1125.6,691.7,1126.9,692.8z" class="area" title=""></path>
	<path id="PATH_100" d="M1134.2,687.2l-1.1,0.9c-1.3,1.1-2.7,1.3-4,0.7c-0.9-0.4-2-1.3-3.1-2.9l-2.7-3.3c-1.3-1.6-3.3-3.8-6-6.4
		l0.2-2c0-0.4,0.2-0.4,0.4-0.2c1.6,1.3,3.6,3.6,6,6.4l4.2,5.1c1.1,1.3,2.4,1.6,3.8,0.4l0.9-0.7L1134.2,687.2z" class="area" title=""></path>
	<path id="PATH_101" d="M1149.3,674.8l-1.8,1.3c-2.2,1.8-4.2,1.8-6.2-0.7c-0.2-0.2-0.4-0.7-0.7-0.9c-0.4,1.1-1.1,2.4-1.8,4.4
		s-1.1,3.3-1.6,4.2c-0.7,1.3-1.6,2.4-2.7,3.3l-1.1,1.1l-1.6-2l1.3-1.1c1.3-1.1,2.4-2.7,3.3-4.7c0.4-0.9,1.1-2.7,2.2-5.1
		c-0.4,0.2-1.8,0.9-3.6,1.8c-1.3,0.7-2.2,1.1-2.4,1.3c-0.7,0.4-1.1,1.3-1.3,2.7c0,0.2,0,0.4-0.2,0.4c-0.2,0-0.2,0-0.4,0
		c0,0,0-0.2-0.2-0.2c-0.9-2.2-0.7-3.8,0.9-4.9c0.4-0.4,1.3-0.9,2.2-1.1c1.6-0.7,2.9-1.1,3.8-1.6c1.3-0.7,2.9-1.8,4.4-3.1
		c0.2-0.2,0.4-0.2,0.4-0.2s0.2,0.2,0.2,0.4l0.7,2c-1.1,0.9-1.8,1.6-1.8,1.8c0.7,0.7,1.1,1.3,1.6,1.3c0.9,0.2,1.8,0,2.9-1.1l1.8-1.3
		L1149.3,674.8z M1145.6,683.7l-0.2,2.4l-2.7-0.2l0.2-2.4L1145.6,683.7z" class="area" title=""></path>
	<path id="PATH_102" d="M1157.6,667.9l-1.3,1.1c-1.6,1.3-3.1,1.6-4.4,1.1c0.2,1.6-0.4,3.1-2.2,4.4l-1.1,0.9l-1.6-2l1.6-1.3
		c1.8-1.3,2-2.9,1.1-4.2c-0.4-0.7-0.4-0.9-0.2-1.1c0.2-0.2,0.4,0,1.1,0.4c1.1,1.1,2.7,1.1,4.2-0.2l1.6-1.3L1157.6,667.9z
		 M1154.9,676.3l-0.2,2.4l-2.4-0.2l0.2-2.4L1154.9,676.3z M1158,673.9l-0.2,2.4l-2.4-0.2l0.2-2.4L1158,673.9z" class="area" title=""></path>
	<path id="PATH_103" d="M1165.1,655.9c0.4,0.7,0.9,1.6,1.1,2.4c0.2,1.3,0,2.2-0.7,2.7c-0.4,0.4-2,1.1-4.7,1.8
		c-0.7,2.2-1.8,3.8-2.9,4.9l-0.9,0.7l-1.6-2l1.1-0.9c0.7-0.7,1.3-1.3,1.8-2c-1.1,0-2-0.2-2.7-1.1c-0.9-1.1-1.1-2.9-0.4-5.3l-1.6,0.4
		c0-0.7,0.2-1.6,0.2-2.7c2.2-0.4,4.2-0.9,6.2-0.9C1162.2,654.1,1164.2,654.6,1165.1,655.9z M1159.6,658.1c-0.4-0.4-0.9-0.7-1.3-0.9
		c-0.7-0.2-1.1-0.2-1.6,0.2s-0.7,0.9-0.9,1.8c-0.2,0.9-0.2,1.6,0.2,2c0.7,0.7,1.8,0.9,3.3,0.2c0.2-0.4,0.4-0.9,0.7-1.6
		C1160,659,1159.8,658.6,1159.6,658.1z M1164.9,657.2c-0.4-0.4-1.1-0.7-2.4-0.9c-1.1,0-1.8,0-2.7,0c1.1,1.3,1.6,2.7,1.3,4
		c1.8-0.7,2.9-1.1,3.3-1.6C1165.1,658.3,1165.3,657.9,1164.9,657.2z" class="area" title=""></path>
	<path id="PATH_104" d="M1170,635c0,0,0.2,0.2,0.4,0.2l-0.2,0.2l-0.4,0.4c1.1,1.3,2.2,3.1,3.1,4.7c1.1,2.2,1.8,4.2,2,6
		c1.1,0.4,1.8,0.9,2.4,1.8c0.4,0.4,0.7,0.9,0.9,1.6c0.2,0.7,0.2,1.3,0,1.6c-1.3,1.6-2.7,3.1-4.7,4.4l-0.9-2.4c1.1-2.2,1.6-4,1.3-5.8
		c-3.6-0.9-7.3-1.6-11.3-2l0.2,0.9c-2.2-0.2-3.6-0.7-3.8-0.9c-0.2-0.2-0.7-0.9-1.1-2c-0.2-0.2-0.2-0.4,0-0.4s0.4,0,0.9,0
		c5.8,0.2,10.9,1.3,15.1,2.9c-0.2-1.6-1.1-3.3-2.4-5.3c-1.1-1.8-2.7-3.3-4.2-5.1l0.4-2.4C1168.2,633.9,1169.1,634.6,1170,635z
		 M1176.4,649.4l-0.2-0.2c-0.4-0.4-0.9-0.9-1.6-1.1c0,1.1-0.2,2.4-0.4,3.8c0.2-0.2,0.4-0.2,0.7-0.4
		C1175.6,650.8,1176.2,650.1,1176.4,649.4z" class="area" title=""></path>
</g>
<g id="G_105" class="area" title="">
	<path id="PATH_106" d="M1258.9,870.3h-0.9c-0.9,0-1.3-0.2-1.8-0.4c0,0.2,0,0.4,0,0.7c0,2-0.7,4-2,6c-1.1,1.8-2.2,2.4-2.9,2.4
		c-1.8,0-3.1,0-4.4-0.2c-0.4,0-0.7-0.2-0.7-0.2s0.2-0.2,0.7-0.2c1.8-0.4,3.6-1.3,5.3-2.7c1.8-1.6,2.9-3.1,2.9-4.7
		c0-0.9-0.7-2.2-2.2-3.8l1.1-2c0-0.2,0.2-0.2,0.2-0.2l0.2,0.2c0.7,0.9,1.1,1.6,1.6,1.8c0.7,0.4,1.6,0.9,2.4,0.9h0.7v2.4H1258.9z" class="area" title=""></path>
	<path id="PATH_107" d="M1276.4,865.4c0,1.3-0.2,2.4-0.9,3.3c-0.7,0.9-1.8,1.6-2.9,1.6c-1.6,0-2.4-0.7-3.1-1.8
		c-0.9,1.3-1.8,1.8-3.1,1.8c-1.6,0-2.7-0.7-3.3-1.8c-0.9,1.3-2,1.8-3.6,1.8h-1.6v-2.7h1.8c1.6,0,2.7-0.9,2.9-2.7
		c0-0.4,0.2-0.7,0.4-0.7c0.2,0,0.2,0.2,0.4,0.7c0.2,1.8,1.1,2.7,2.9,2.7c0.9,0,1.8-0.2,2.2-0.7c0.2-0.4,0.4-0.9,0.7-1.8
		c0-0.4,0.2-0.7,0.4-0.7c0.2,0,0.2,0.2,0.4,0.7c0.2,1.8,1.1,2.7,2.7,2.7c1.8,0,2.4-0.4,2.4-1.1s-0.4-1.6-1.3-2.4l1.1-2
		c0.2-0.2,0.2-0.4,0.4-0.4c0.2,0,0.2,0.2,0.4,0.4C1276.2,863.4,1276.4,864.6,1276.4,865.4z" class="area" title=""></path>
	<path id="PATH_108" d="M1290.2,865.7c0,3.1-2,4.7-6.2,4.7c-1.6,0-2.7-0.2-3.3-0.7c-0.9-0.4-1.3-1.6-1.3-2.9c0-0.7,0.2-1.3,0.4-2
		c0.2-0.2,0.2-0.4,0.4-0.4c0.2,0,0.2,0.2,0.2,0.7c0,0.2,0,0.4,0,0.7c0,0.9,0.4,1.6,1.3,1.8c0.4,0.2,1.3,0.2,2.4,0.2
		c3.3,0,4.9-0.4,4.9-1.6c0-1.6-2-3.8-5.8-6.4l0.7-2.2c0-0.2,0.2-0.2,0.2-0.2s0.2,0,0.4,0.2C1288.2,860.3,1290.2,863,1290.2,865.7z" class="area" title=""></path>
	<path id="PATH_109" d="M1301.6,869.4c0,3.3-1.1,6.2-3.3,8.4c-0.7,0.7-1.1,1.1-1.3,1.1c-1.3,0-2.7-0.2-4.2-0.4
		c-0.7,0-0.9-0.2-0.9-0.2s0.2-0.2,0.9-0.4c1.8-0.4,3.6-1.6,5.1-2.9c0.7-0.7,1.3-1.1,1.8-2c0.7-0.9,1.1-1.8,1.1-2.4v-0.7h-2.9
		c-2,0-3.1-0.9-3.1-2.4c0-1.1,0.2-2.2,0.9-3.6c0.7-1.3,1.6-2.2,2.4-2.2c1.3,0,2.4,0.9,3.1,2.9
		C1301.3,866.1,1301.6,867.7,1301.6,869.4z M1300,867.4c0-0.7-0.2-1.3-0.7-2c-0.4-0.7-1.1-1.1-1.8-1.1c-0.4,0-0.9,0.2-1.1,0.4
		c-0.2,0.2-0.4,0.7-0.4,1.1c0,1.1,0.7,1.6,2.2,1.6C1298.4,867.7,1299.1,867.7,1300,867.4z" class="area" title=""></path>
	<path id="PATH_110" d="M1312.9,870.6c0,2.2-0.7,4.2-2,6.2c-1.1,1.6-2.2,2.4-2.9,2.4c-1.8,0-3.1,0-4.4-0.2c-0.4,0-0.7-0.2-0.7-0.2
		s0.2-0.2,0.7-0.2c1.8-0.4,3.6-1.3,5.3-2.7c1.8-1.6,2.9-3.1,2.9-4.7c0-0.9-0.7-2.2-2.2-3.8l1.1-2c0-0.2,0.2-0.2,0.2-0.2l0.2,0.2
		c0.4,0.7,1.1,1.6,1.3,2.7C1312.4,868.8,1312.9,869.7,1312.9,870.6z" class="area" title=""></path>
</g>
<g id="G_111" class="area" title="">
	<path id="PATH_112" d="M1216.9,802.1l-0.9,0.9c-1.1,1.1-2.2,1.3-3.6,0.9c0.4,1.3,0.2,2.4-0.9,3.3c-0.9,0.9-2.2,1.1-3.3,0.4
		c0.4,1.6,0,2.7-0.9,3.6c-0.4,0.4-0.9,0.7-1.3,0.9c0.9,1.1,1.8,2,2.7,3.3c0.7,1.6,0.7,3.3-0.2,5.3c-0.7,1.8-1.8,3.3-3.1,4.7
		c-1.3,1.3-2.9,2-4.4,2.2c-1.8,0.2-3.3-0.4-4.4-1.8c-0.7-0.7-1.3-1.8-1.6-2.9c-0.2-0.9-0.4-1.6-0.4-2.2c0-0.2,0-0.4,0.2-0.7h0.2
		c0,0,0.2,0.2,0.2,0.4c0.4,1.3,1.1,2.7,1.8,3.3c0.7,0.9,1.6,1.3,2.7,1.3c1.3,0.2,2.9-0.4,4.2-1.8c1.6-1.6,2.7-3.1,3.3-4.7
		c0.4-1.3,0.7-2.4,0.4-3.3c0-0.2-0.4-0.7-0.9-1.1c-0.7-0.4-1.1-0.9-1.3-0.9c-0.7-0.2-2-0.7-3.8-0.9l-0.4-2c0-0.2,0-0.4,0-0.4
		s0.2,0,0.4,0c1.1,0.2,1.8,0.4,2,0.4c0.9,0,1.6-0.2,2.2-0.9c0.7-0.7,1.1-1.3,1.1-2c0-0.4-0.2-1.1-0.9-1.8c-0.2-0.4-0.2-0.7-0.2-0.7
		c0.2-0.2,0.4,0,0.7,0.2c1.6,1.1,2.7,1.3,3.8,0.4c1.1-1.1,1.3-2.4,0.2-3.8c-0.2-0.4-0.2-0.7-0.2-0.7c0.2-0.2,0.4,0,0.7,0.2
		c1.3,1.1,2.7,1.1,3.8,0.2l0.9-0.9L1216.9,802.1z M1200.7,797.2v2.2h-2.2v-2.2H1200.7z M1201.6,801.2v2.2h-2.2v-2.2H1201.6z
		 M1204.4,798.3v2.2h-2.2v-2.2H1204.4z" class="area" title=""></path>
	<path id="PATH_113" d="M1222.9,796.6l-0.7,0.7c-1.3,1.3-2.9,1.8-4.4,1.1c0.2,0.7,0.2,1.3,0,2c-0.2,0.7-0.7,1.3-1.1,1.8l-0.7,0.7
		l-1.8-1.8l0.7-0.7c1.3-1.3,1.6-2.4,0.4-3.6l-5.3-5.6c-2-2.2-3.6-3.8-4.7-4.9l0.2-2.4l10.2,10.9c1.6,1.6,3.1,1.8,4.4,0.4l0.7-0.7
		L1222.9,796.6z" class="area" title=""></path>
	<path id="PATH_114" d="M1228,785.9c0.9,0.7,1.3,1.6,1.6,2.2c0.4,1.1,0.4,2-0.2,2.4c-0.9,0.9-2.7,1.3-5.3,1.8c0,1.1,0,1.8,0,2
		c-0.2,0.7-0.4,1.3-1.1,2l-0.9,0.9l-1.8-1.8l1.1-1.1c0.7-0.7,1.1-1.6,0.9-2.9c0-0.7-0.2-1.8-0.4-3.3c-0.2-1.3,0-2.2,0.7-2.7
		c0.9-0.7,1.8-0.9,3.1-0.7C1226.7,785,1227.3,785.2,1228,785.9z M1228.2,787.9c-0.4-0.4-1.1-0.9-2-1.1c-0.9-0.2-1.8-0.2-2.2,0.2
		s-0.7,1.6-0.2,3.1c0.4,0,1.3,0,2.4-0.4s1.8-0.7,2.2-1.1C1228.4,788.6,1228.4,788.1,1228.2,787.9z" class="area" title=""></path>
	<path id="PATH_115" d="M1232.9,783.4c0.7,0.7,1.1,1.3,1.3,2.2c0.2,0.4,0.2,0.7,0.2,0.9c0,0-0.2-0.2-0.7-0.4
		c-1.8-1.8-6.4-6.2-13.8-12.9l0.2-2.4c0-0.2,0-0.4,0-0.4s0.2,0,0.4,0.2C1222.7,772.6,1226.7,776.8,1232.9,783.4z" class="area" title=""></path>
</g>
<g id="G_116" class="area" title="">
	<path id="PATH_117" d="M1188.2,735c2.7,1.8,2.9,4.2,0.7,7.8c-0.9,1.3-1.6,2.2-2.2,2.4c-0.9,0.4-2,0.4-3.1-0.4
		c-0.7-0.4-1.1-0.9-1.3-1.6c-0.2-0.2-0.2-0.4-0.2-0.7c0-0.2,0.2,0,0.7,0.2c0.2,0.2,0.4,0.2,0.7,0.4c0.9,0.4,1.6,0.4,2.2,0
		c0.4-0.2,0.9-0.9,1.6-2c1.8-2.7,2.2-4.4,1.3-4.9c-1.3-0.9-4.2-0.4-8.4,1.3l-1.6-1.8c-0.7-0.4-0.7-0.4-0.7-0.4s0.2-0.2,0.4-0.2
		C1182.7,733.7,1186,733.4,1188.2,735z" class="area" title=""></path>
	<path id="PATH_118" d="M1197.6,727.2c2.9,1.8,4.7,4.2,5.3,7.6c0.2,1.1,0.2,1.6,0.2,1.8c-0.7,1.1-1.6,2.2-2.7,3.3
		c-0.4,0.4-0.7,0.7-0.7,0.7s0-0.4,0.2-0.9c0.4-1.8,0.7-3.8,0.4-5.8c-0.2-0.9-0.4-1.8-0.7-2.4c-0.4-1.1-0.9-1.8-1.6-2.2l-0.7-0.4
		l-1.6,2.4c-1.1,1.8-2.2,2.2-3.8,1.1c-0.9-0.7-1.8-1.6-2.4-2.7c-0.9-1.3-0.9-2.4-0.4-3.3c0.7-1.1,2-1.6,4-1.1
		C1194.7,725.7,1196,726.3,1197.6,727.2z M1195.1,727.7c-0.7-0.4-1.3-0.4-2-0.4c-0.9,0-1.6,0.4-1.8,0.9c-0.2,0.4-0.2,0.9-0.2,1.3
		s0.4,0.9,0.7,1.1c0.9,0.4,1.8,0.2,2.4-1.1C1194.4,729,1194.7,728.3,1195.1,727.7z" class="area" title=""></path>
	<path id="PATH_119" d="M1205.8,716.1l-0.4,0.9c-0.4,0.7-0.9,1.1-1.3,1.3c0.2,0.2,0.4,0.2,0.7,0.4c1.8,1.1,3.1,2.7,4,4.9
		c0.7,1.8,0.9,3.1,0.7,3.8c-0.9,1.3-1.8,2.7-2.7,3.6c-0.2,0.2-0.4,0.4-0.7,0.4c-0.2,0,0-0.2,0-0.7c0.7-1.6,0.9-3.6,0.4-6
		c-0.2-2.4-1.1-4-2.2-4.9c-0.9-0.4-2.2-0.4-4.4,0l-1.1-2c0-0.2-0.2-0.2-0.2-0.2s0.2,0,0.4,0c1.1,0,2-0.2,2.4-0.4
		c0.9-0.2,1.6-0.9,2-1.6l0.4-0.7L1205.8,716.1z" class="area" title=""></path>
	<path id="PATH_120" d="M1194.4,693.9l1.1,1.3l-2.9,11.1l-1.1-1.3L1194.4,693.9z M1213.8,703.4l-0.7,1.1c-0.7,0.9-1.8,1.8-3.1,2.2
		c-1.1,0.2-2.7,0.4-4.4,0.7c2.7,2,2.9,4.9,0.4,8.7l-0.7,1.1l-2.2-1.3l0.4-0.7c2.2-3.6,2.7-5.6,1.3-6.4c-1.1-0.7-2.9-0.7-5.6,0
		c-1.1,0.2-2.2,0.7-3.6,1.1c-0.9-0.4-1.3-1.1-1.3-1.8c0-0.2,1.1-4.4,3.3-12.4c0.2,0.2,0.7,0.9,1.6,2c-0.7,2-1.6,5.1-2.9,10
		c3.3-0.7,6.2-1.1,8.9-1.6c1.6-0.2,2.7-0.4,3.3-0.7c1.1-0.4,2-1.1,2.7-2l0.4-0.7L1213.8,703.4z" class="area" title=""></path>
	<path id="PATH_121" d="M1207.6,691.7l0.4,2.4l-2.4,0.7l-0.4-2.4L1207.6,691.7z M1219.8,694.1l-0.9,1.3c-1.1,1.8-2.4,2.4-4,2.4
		c0.7,1.3,0.4,3.1-0.7,4.9l-0.7,1.1l-2.2-1.3l1.1-1.8c1.1-1.8,1.1-3.3-0.2-4.4c-0.4-0.4-0.7-0.7-0.7-0.9c0.2-0.2,0.4-0.2,1.1,0.2
		c1.6,0.7,2.9,0.2,4-1.6l1.1-1.6L1219.8,694.1z" class="area" title=""></path>
	<path id="PATH_122" d="M1207.6,680.3c0.2,0,0.4,0.2,0.4,0.2s0,0.2-0.2,0.4l-0.4,0.7c2.7,1.6,6.2,3.8,10.7,6.7
		c1.1,0.7,1.8,1.6,2.2,2.4c0.4,1.1,0.2,2.2-0.4,3.1l-0.7,1.1l-2.2-1.3l0.7-0.9c0.9-1.6,0.9-2.4-0.2-3.1c-4.2-2.4-8.4-4.9-12.7-7.1
		l-0.4-2c0-0.2,0-0.4,0-0.4s0.2,0,0.4,0C1205.3,679.9,1206.4,680.1,1207.6,680.3z" class="area" title=""></path>
</g>
<g id="G_123" class="area" title="">
	<path id="PATH_124" d="M1176.3,540.3h-1.5c-1.9,0-3-1.1-3.4-3.6c-1.1,1.1-1.5,1.6-1.7,1.6h-1.9c-0.6,0-1.3,0-1.9-0.2
		c-0.9-0.2-1.3-0.7-1.3-1.1c0-1.8,0.6-3.1,1.7-4c0.9-0.7,2.1-1.3,3.9-2.2l-0.4-2.2l1.5-1.8c0,0.2,0.6,2.7,1.5,7.3
		c0.2,1.3,0.6,2.4,0.9,2.9c0.4,0.7,0.9,0.9,1.7,0.9h1.5v2.4H1176.3z M1171,535.9l-0.6-3.6c-0.6,0.2-1.5,0.7-2.6,1.1
		c-1.3,0.7-2.1,1.3-2.1,1.6c0,0.4,0.4,0.7,1.5,0.9c0.6,0.2,1.3,0.2,1.9,0.2C1169.9,535.9,1170.6,535.9,1171,535.9z" class="area" title=""></path>
	<path id="PATH_125" d="M1186.9,540.3h-1.5c-1.9,0-3.2-0.7-4.1-2c-0.6,1.3-2.1,2-4.5,2h-1.3v-2.7h1.9c2.1,0,3.2-0.9,3.4-2.4
		c0-0.7,0.2-1.1,0.4-1.1c0.2,0,0.4,0.4,0.4,1.1c0.2,1.6,1.3,2.4,3.2,2.4h1.9V540.3z M1179.8,545.2l-1.7,1.8l-1.7-1.8l1.7-1.8
		L1179.8,545.2z M1183.4,545.2l-1.7,1.8l-1.7-1.8l1.7-1.8L1183.4,545.2z" class="area" title=""></path>
	<path id="PATH_126" d="M1195.2,534.1v0.9c0,1.6-0.2,2.4-0.6,3.1c-1.1,1.6-2.8,2.2-5.6,2.2h-3v-2.7h2.1c3.6,0,5.6-0.7,6-1.8
		c0-0.2,0-0.2,0-0.4c0-0.4,0-0.7-0.2-0.9c-0.9,0.2-1.9,0.2-2.8,0.2c-1.9,0-3-0.9-3-2.7c0-1.1,0.2-2.4,0.9-3.6c0.6-1.3,1.5-2,2.6-2
		c0.9,0,1.7,0.7,2.4,1.8C1194.8,529.9,1195.2,531.9,1195.2,534.1z M1192.6,521.9l-1.7,1.8l-1.7-1.8l1.7-1.8L1192.6,521.9z
		 M1193.7,532.1c0-0.7-0.2-1.3-0.6-2s-1.1-0.9-1.7-0.9c-0.4,0-0.9,0.2-1.3,0.4c-0.4,0.2-0.4,0.7-0.4,1.1c0,0.9,0.6,1.3,2.1,1.3
		C1192.2,532.3,1192.9,532.3,1193.7,532.1z" class="area" title=""></path>
	<path id="PATH_127" d="M1208.5,540.3h-0.9c-0.9,0-1.3-0.2-1.7-0.4c0,0.2,0,0.4,0,0.7c0,2-0.6,4-1.9,6c-1.1,1.8-2.1,2.4-2.8,2.4
		c-1.7,0-3,0-4.3-0.2c-0.4,0-0.6-0.2-0.6-0.2s0.2-0.2,0.6-0.2c1.7-0.4,3.4-1.3,5.1-2.7c1.7-1.6,2.8-3.1,2.8-4.7
		c0-0.9-0.6-2.2-2.1-3.8l1.1-2c0-0.2,0.2-0.2,0.2-0.2l0.2,0.2c0.6,0.9,1.1,1.6,1.5,1.8c0.6,0.4,1.5,0.9,2.4,0.9h0.6v2.4H1208.5z" class="area" title=""></path>
	<path id="PATH_128" d="M1225.4,535.7c0,1.3-0.2,2.4-0.9,3.3c-0.6,0.9-1.7,1.6-2.8,1.6c-1.5,0-2.4-0.7-3-1.8c-0.9,1.3-1.7,1.8-3,1.8
		c-1.5,0-2.6-0.7-3.2-1.8c-0.9,1.3-1.9,1.8-3.4,1.8h-1.5v-2.9h1.7c1.5,0,2.6-0.9,2.8-2.7c0-0.4,0.2-0.7,0.4-0.7
		c0.2,0,0.2,0.2,0.4,0.7c0.2,1.8,1.1,2.7,2.8,2.7c0.9,0,1.7-0.2,2.1-0.7c0.2-0.4,0.4-0.9,0.6-1.8c0-0.4,0.2-0.7,0.4-0.7
		c0.2,0,0.2,0.2,0.4,0.7c0.2,1.8,1.1,2.7,2.6,2.7c1.7,0,2.4-0.4,2.4-1.1s-0.4-1.6-1.3-2.4l1.1-2c0.2-0.2,0.2-0.4,0.4-0.4
		s0.2,0.2,0.4,0.4C1225,533.4,1225.4,534.6,1225.4,535.7z M1218.2,527.4l-1.5,1.6l-1.5-1.6l1.5-1.6L1218.2,527.4z M1220.1,524.1
		l-1.5,1.6l-1.5-1.6l1.5-1.6L1220.1,524.1z M1222,527.4l-1.5,1.6l-1.5-1.6l1.5-1.6L1222,527.4z" class="area" title=""></path>
	<path id="PATH_129" d="M1230.6,537.7c0,0.9-0.2,1.8-0.6,2.4c-0.2,0.4-0.4,0.7-0.4,0.7s-0.2-0.2-0.2-0.9c0-2.7-0.4-8.9-1.3-18.9
		l1.7-1.8c0.2-0.2,0.2-0.2,0.2-0.2s0,0.2,0,0.4C1230.4,522.3,1230.6,528.6,1230.6,537.7z" class="area" title=""></path>
	<path id="PATH_130" d="M1253.5,540.3h-1.5c-1.9,0-3-1.1-3.4-3.6c-1.1,1.1-1.5,1.6-1.7,1.6h-1.9c-0.6,0-1.3,0-1.9-0.2
		c-0.9-0.2-1.3-0.7-1.3-1.1c0-1.8,0.6-3.1,1.7-4c0.9-0.7,2.1-1.3,3.9-2.2l-0.4-2.2l1.5-1.8c0,0.2,0.6,2.7,1.5,7.3
		c0.2,1.3,0.6,2.4,0.9,2.9c0.4,0.7,0.9,0.9,1.7,0.9h1.5v2.4H1253.5z M1248.4,535.9l-0.6-3.6c-0.6,0.2-1.5,0.7-2.6,1.1
		c-1.3,0.7-2.1,1.3-2.1,1.6c0,0.4,0.4,0.7,1.5,0.9c0.6,0.2,1.3,0.2,1.9,0.2C1247.1,535.9,1247.7,535.9,1248.4,535.9z" class="area" title=""></path>
	<path id="PATH_131" d="M1258.7,535.9c0,2.9-1.5,4.4-4.3,4.4h-1.7v-2.7h1.5c2.1,0,3.2-0.4,3.2-1.1c0-0.7-0.4-1.6-1.5-2.7l0.9-2.2
		c0-0.2,0.2-0.2,0.2-0.2s0.2,0.2,0.4,0.4C1258.2,533,1258.7,534.6,1258.7,535.9z M1258.7,525.9l-1.7,1.8l-1.7-1.8l1.7-1.8
		L1258.7,525.9z" class="area" title=""></path>
	<path id="PATH_132" d="M1267.2,540.3h-1.5c-1.5,0-2.8-0.7-3.2-2c-0.4-0.9-0.6-2.4-0.6-4.2v-4.2c0-2-0.2-4.9-0.4-8.7l1.3-1.6
		c0.2-0.2,0.4-0.2,0.4,0c0.2,2,0.4,4.9,0.4,8.7v6.4c0,1.8,0.9,2.7,2.6,2.7h1.1L1267.2,540.3L1267.2,540.3z" class="area" title=""></path>
	<path id="PATH_133" d="M1277.7,540.3h-1.7c-1.9,0-3.2-0.7-4.1-2c-0.6,1.3-2.1,2-4.5,2h-1.3v-2.7h1.9c2.1,0,3.2-0.9,3.4-2.4
		c0-0.7,0.2-1.1,0.4-1.1c0.2,0,0.4,0.4,0.4,1.1c0.2,1.6,1.3,2.4,3.2,2.4h1.9v2.7H1277.7z M1270.5,527.4l-1.7,1.8l-1.7-1.8l1.7-1.8
		L1270.5,527.4z M1274.1,527.4l-1.7,1.8l-1.7-1.8l1.7-1.8L1274.1,527.4z" class="area" title=""></path>
	<path id="PATH_134" d="M1294.7,535.7c0,1.3-0.2,2.4-0.9,3.3c-0.6,0.9-1.7,1.6-2.8,1.6c-1.5,0-2.4-0.7-3-1.8c-0.9,1.3-1.7,1.8-3,1.8
		c-1.5,0-2.6-0.7-3.2-1.8c-0.9,1.3-1.9,1.8-3.4,1.8h-1.5v-2.9h1.7c1.5,0,2.6-0.9,2.8-2.7c0-0.4,0.2-0.7,0.4-0.7
		c0.2,0,0.2,0.2,0.4,0.7c0.2,1.8,1.1,2.7,2.8,2.7c0.9,0,1.7-0.2,2.1-0.7c0.2-0.4,0.4-0.9,0.6-1.8c0-0.4,0.2-0.7,0.4-0.7
		s0.2,0.2,0.4,0.7c0.2,1.8,1.1,2.7,2.6,2.7c1.7,0,2.4-0.4,2.4-1.1s-0.4-1.6-1.3-2.4l1.1-2c0.2-0.2,0.2-0.4,0.4-0.4
		c0.2,0,0.2,0.2,0.4,0.4C1294.3,533.4,1294.7,534.6,1294.7,535.7z" class="area" title=""></path>
	<path id="PATH_135" d="M1303.5,516.6c-0.9,0.9-2.1,1.1-3.4,1.1c-0.2,0-0.4,0-0.9,0s-0.6,0-0.9,0s-0.4,0.2-0.6,0.4
		c-0.2,0.2-0.4,0.4-0.4,0.4c-0.2,0-0.2-0.2-0.2-0.4s0.2-0.7,0.4-1.1c0.2-0.7,0.4-0.9,0.6-0.9s0.6,0,1.3,0.2c0.6,0,1.1,0.2,1.3,0.2
		c1.3,0,2.1,0,2.8-0.2c0.4,0,0.6-0.2,0.6-0.2h0.2C1303.9,516.1,1303.7,516.3,1303.5,516.6z M1302,537.7c0,0.9-0.2,1.8-0.6,2.4
		c-0.2,0.4-0.4,0.7-0.4,0.7s-0.2-0.2-0.2-0.9c0-2.7-0.4-8.9-1.3-18.9l1.7-1.8c0.2-0.2,0.2-0.2,0.2-0.2s0,0.2,0,0.4
		C1302,522.3,1302,528.3,1302,537.7z" class="area" title=""></path>
</g>
<path id="_x37_90" class="st5 area" d="M1413.7,911.5c0-2.9,4.7-9.1,6.2-9.1c27.3-4.1,54.3-17.9,64.3-42.3l-41.1-20.8l-6.5-6.5
	l-14.7-14.1l-6.8-3.2l-10-1.8l-22.9-14.7c0,0.3,0,0.6-0.3,0.9l-24.7,57.5c-0.3,0.6-25,53.7-32.9,74c-7.3,18.5-42,49.3-54.9,60.5
	c9.7,2.9,18.2,5.3,24.7,5.3c10.9,0,29.7,9.1,53.1,23.5C1382.9,995.5,1408.4,956.4,1413.7,911.5z" title=""></path>
<g id="G_36" class="area" title="">
	<path id="PATH_37_00000175317707803227843630000001990920450337829538_" d="M1383.6,873.9h-1c-1,0-1.5-0.2-2-0.5c0,0.2,0,0.5,0,0.7
		c0,2.1-0.8,4.1-2.3,6.2c-1.3,1.8-2.5,2.5-3.3,2.5c-2,0-3.5,0-5.1-0.2c-0.5,0-0.8-0.2-0.8-0.2s0.3-0.2,0.8-0.2
		c2-0.5,4.1-1.4,6.1-2.7c2-1.6,3.3-3.2,3.3-4.8c0-0.9-0.8-2.3-2.5-3.9l1.3-2.1c0-0.2,0.3-0.2,0.3-0.2l0.3,0.2
		c0.8,0.9,1.3,1.6,1.8,1.8c0.8,0.5,1.8,0.9,2.8,0.9h0.8v2.5H1383.6z" class="area" title=""></path>
	<path id="PATH_38_00000023241574288477280680000000582249096702175923_" d="M1407.2,873.9h-1.5c-1.8,0-2.8-0.7-3.5-1.8
		c-0.5,1.4-1.8,1.8-3.3,1.8c-1.5,0-2.5-0.7-3.3-1.8c-0.8,1.1-1.8,1.8-3.3,1.8c-1.8,0-3-0.7-3.8-1.8c-1,1.4-2.3,1.8-4.1,1.8h-1.8
		v-2.7h2c1.8,0,3-0.9,3.3-2.7c0-0.5,0.3-0.7,0.5-0.7s0.3,0.2,0.5,0.7c0.3,1.8,1.3,2.7,3.3,2.7c1.8,0,3-0.9,3-2.7
		c0-0.5,0.3-0.7,0.5-0.7s0.5,0.2,0.5,0.7c0.3,1.8,1.3,2.7,2.5,2.7c1.8,0,3-0.9,3-2.7c0-0.5,0.3-0.7,0.5-0.7c0.3,0,0.5,0.2,0.5,0.7
		c0.3,1.8,1.3,2.7,3,2.7h1.5v2.7H1407.2z" class="area" title=""></path>
	<path id="PATH_39_00000178178782530482056730000006708018818610903216_" d="M1419.6,869.3c0,1.1,0,2.1-0.5,3
		c-0.5,1.1-1.3,1.8-2,1.8c-1.3,0-3.3-0.7-5.8-2.3c-0.8,0.9-1.3,1.4-1.5,1.6c-0.8,0.5-1.5,0.7-2.5,0.7h-1.3v-2.7h1.8c1,0,2-0.5,3-1.6
		c0.5-0.5,1.3-1.6,2.3-3c0.8-1.1,1.8-1.6,2.5-1.6c1.3,0,2.3,0.5,3,1.6C1419.3,867.7,1419.6,868.4,1419.6,869.3z M1418,870.9
		c0-0.7-0.3-1.4-0.8-2.3c-0.5-0.9-1.3-1.4-2-1.4s-1.5,0.7-2.5,2.1c0.5,0.5,1.3,0.9,2.3,1.4c1,0.5,2,0.7,2.5,0.7
		C1418,871.6,1418,871.4,1418,870.9z" class="area" title=""></path>
	<path id="PATH_40_00000077319792471772258630000005169600926879854728_" d="M1425.6,871.1c0,0.9-0.3,1.8-0.8,2.5
		c-0.3,0.5-0.5,0.7-0.5,0.7s-0.3-0.2-0.3-0.9c0-2.7-0.5-9.1-1.5-19.4l2-1.8c0.3,0,0.5,0,0.5-0.2c0,0,0,0.2,0,0.5
		C1425.4,855.4,1425.6,861.6,1425.6,871.1z" class="area" title=""></path>
	<path id="PATH_41_00000000945211047951627330000012092011777007026568_" d="M1438.3,874.1c0,2.3-0.8,4.3-2.3,6.4
		c-1.3,1.6-2.5,2.5-3.3,2.5c-2,0-3.5,0-5.1-0.2c-0.5,0-0.8-0.2-0.8-0.2s0.3-0.2,0.8-0.2c2-0.5,4.1-1.4,6.1-2.7
		c2-1.6,3.3-3.2,3.3-4.8c0-0.9-0.8-2.3-2.5-3.9l1.3-2.1c0-0.2,0.3-0.2,0.3-0.2l0.3,0.2c0.5,0.7,1.3,1.6,1.5,2.7
		C1438.1,872.3,1438.3,873.2,1438.3,874.1z" class="area" title=""></path>
</g>
<path id="_x37_88" class="st6 area" d="M1510.1,1064.1c13.8-0.8,17.5,6.2,32.2,6.9c13.3,0.6,14.5-5,26.9-3.6c12.7,1.4,14.8,8.9,24.4,9.2
	c21,0.7,38.8-16.5,44.3-32.1c4.7-15.3-30.5-21.4-39.6-41.1c-4.7-9.1-1.5-18.5,9.1-20c-4.7-19.4,2.1-33.8,16.4-43.4l-38.5-16.4
	l-69-47l-35.5-17.9c-10,24.7-37.3,38.2-64.3,42.3c-1.5,0-6.2,6.2-6.2,9.1c-5.3,44.9-30.8,84-66.3,108.9
	c13.8,12.9,54.3,49.5,73.1,48.7c0.8,0,8.9-0.4,19.5-1.2c7.6-0.6,13.8-1.2,17.6-1.5c3.8,1.9,9.5,4.3,16.9,5.4
	c9.7,1.4,17.6-0.2,22.2-1.5C1497.1,1066.8,1502.9,1064.5,1510.1,1064.1z" title=""></path>
<path class="st6 area" d="M1688.3,1014.8" id="PATH_128"></path>
<g id="G_167" class="area" title="">
	<path id="PATH_168" d="M1475.3,974.9h-1.3c-1.3,0-2,0-2.6-0.2c0,0.7,0.3,1.2,0.3,2c0,1.2-0.3,2-0.5,2.7c-0.8,1.7-2,3.2-4.6,4.2
		c-2,0.7-4.1,1.2-6.4,1.2c-2.3,0-4.1-0.5-5.6-1.5c-1.5-1.2-2.3-2.7-2.3-4.9c0-1.2,0.3-2.2,0.8-3.7c0.5-1,0.8-1.7,1.3-2.2
		c0.3-0.2,0.5-0.2,0.5-0.2c0.3,0,0.3,0,0.3,0.2c0,0,0,0.2,0,0.5c-0.8,1.5-1,3-1,4.2s0.5,2.2,1.3,3.2c1,1.2,2.8,1.7,5.1,1.7
		c2.6,0,4.9-0.5,6.7-1.2c1.5-0.7,2.6-1.5,3.1-2.5c0.3-0.2,0.3-0.7,0-1.7c0-0.7-0.3-1.5-0.3-1.7c-0.3-0.7-1.3-2-2.6-3.7l1-2
		c0.3-0.2,0.3-0.5,0.3-0.5s0.3,0,0.3,0.2c1.3,2,2.6,3,4.1,3h2v3H1475.3z M1464,963.8l-2,2l-2-2l2-2L1464,963.8z" class="area" title=""></path>
	<path id="PATH_169" d="M1481.4,970c0,3.2-1.8,4.9-5.1,4.9h-2v-3h1.8c2.6,0,3.8-0.5,3.8-1.2c0-0.7-0.5-1.7-1.8-3l1-2.5
		c0-0.2,0.3-0.2,0.3-0.2s0.3,0.2,0.5,0.5C1480.9,966.8,1481.4,968.2,1481.4,970z M1480.7,980.3l-2,2l-2-2l2-2L1480.7,980.3z" class="area" title=""></path>
	<path id="PATH_170" d="M1491.7,974.9h-1.8c-1.8,0-3.3-0.7-3.8-2.2c-0.5-1-0.8-2.7-0.8-4.7v-4.7c0-2.2-0.3-5.4-0.5-9.6l1.5-1.7
		c0.3-0.2,0.5-0.2,0.5,0c0.3,2.2,0.5,5.4,0.5,9.6v7.1c0,2,1,3,3.1,3h1.3V974.9L1491.7,974.9z" class="area" title=""></path>
	<path id="PATH_171" d="M1509.3,974.9h-1.8c-1.3,0-2.6-0.7-4.1-2c-0.8-0.7-1.8-2-3.1-3.7c0.3,3.9-2,5.9-6.9,5.9h-2.8v-3h3.3
		c3.3,0,5.1-1,5.1-2.7c0-1-0.5-2.2-1.8-3.7c-0.8-1-1.8-2-3.3-3.2c-1.3-1.2-1.8-2-1.8-2c0-1.7,0.3-3,0.8-3.7c0-0.2,1.8-0.7,5.1-2
		s6.4-2.2,9.2-3c0,0.2-0.3,1.2-0.8,2.7c-3.3,1-7.4,2.5-12.5,4.4c2.3,2,5.4,5.2,8.7,9.6c1.3,1.5,2.3,2.5,3.1,3
		c0.5,0.2,1.5,0.5,2.6,0.5h1V974.9z" class="area" title=""></path>
	<path id="PATH_172" d="M1521.9,974.9h-2c-2.3,0-3.8-0.7-4.9-2.2c-0.8,1.5-2.6,2.2-5.4,2.2h-1.5v-3h2.3c2.6,0,3.8-1,4.1-2.7
		c0-0.7,0.3-1.2,0.5-1.2c0.3,0,0.5,0.5,0.5,1.2c0.3,1.7,1.5,2.7,3.8,2.7h2.3v3H1521.9z M1516.7,962.1l-2,2l-2-2l2-2L1516.7,962.1z" class="area" title=""></path>
	<path id="PATH_173" d="M1528,970c0,3.2-1.8,4.9-5.1,4.9h-2v-3h1.8c2.6,0,3.8-0.5,3.8-1.2c0-0.7-0.5-1.7-1.8-3l1-2.5
		c0-0.2,0.3-0.2,0.3-0.2s0.3,0.2,0.5,0.5C1527.5,966.8,1528,968.2,1528,970z M1525.7,959.1l-2,2l-2-2l2-2L1525.7,959.1z M1530,959.1
		l-2,2l-2-2l2-2L1530,959.1z" class="area" title=""></path>
</g>
<g id="G_136" class="area" title="">
	<path d="M716.3,699c0.7,1.3,1,2.2,1.4,3.4c0.5,1.5,1.5,1.8,3.2,1.8h0.2v2.2h-0.4c-1,0-1.8-0.2-2.5-0.8h-0.1
		c-0.1,1.8-0.6,3.4-1.1,4.1c-1.2,1.6-3.9,2.8-6,2.8c-3.3,0-5.4-2.2-5.4-5.3c0-2.2,0.7-3.8,1.5-5.1l0.7,0.4c-0.6,1.1-1,2.5-1,3.3
		c0,1.5,0.5,2.4,1.2,3.1c0.7,0.7,2,1.2,3.3,1.2c1.4,0,3.1-0.7,4.3-1.5c0.8-0.6,1.3-1.1,1.3-1.8c0-0.7-0.1-1.4-0.6-2.9
		c-0.6-1.3-1-2.2-1.4-2.9c0.4-0.6,0.7-1.3,1.2-1.9H716.3z M712.2,693.7c0.7,0.5,1.4,1.2,2.1,1.9c-0.4,0.6-0.9,1.2-1.5,1.7
		c-0.7-0.7-1.4-1.2-2.1-1.8C711.2,694.8,711.7,694.2,712.2,693.7z" id="PATH_137" class="area" title=""></path>
	<path d="M721.6,704.2c1.3,0,2.3-0.9,3-3.1c0.2-0.7,0.7-1.4,1.3-2.1c0.7-0.6,1.4-1,2.2-1c2.1,0,3.4,3,3.7,6c-0.4,1.6-1,2.3-1.9,2.3
		c-1.7,0-3.5-0.8-5.2-2.1h-0.1c-0.5,1.5-1.5,2.3-3,2.3h-0.3c-1,0-1.2-0.7-1.2-1.2c0-0.4,0.3-1.1,1.2-1.1H721.6z M727.7,703.5
		c0.7,0.3,1.4,0.5,2.1,0.5c0.3,0,0.5,0,0.6-0.2c-0.5-2.7-1.7-3.8-2.8-3.8c-1,0-1.8,0.6-2.4,1.7C725.8,702.5,726.7,703.1,727.7,703.5
		z" id="PATH_138" class="area" title=""></path>
	<path d="M745.2,704.2v2.2h-1.5c-0.1,1.1-0.6,2.5-1.3,3.6c-1.4,2.1-3.3,3-4.2,3c-1.6,0-3.4-0.7-5.1-1.8l0.3-0.6
		c0.7,0.4,1.5,0.6,2.6,0.6c1.8,0,3.4-0.9,4.9-2.4c0.8-0.9,1.4-1.6,1.7-2.5h-0.9c-3.6,0-5.4-1.1-5.4-3.6c0-1.2,0.4-2.1,0.9-2.8
		c0.7-1,1.6-1.7,2.7-1.7c1.6,0,3.3,2.3,3.8,5.9H745.2z M741.2,701.6c-0.6-0.6-1.2-1-1.9-1c-1,0-2,0.8-2,1.5c0,0.9,0.8,1.4,1.9,1.7
		c1,0.3,2,0.3,3.2,0.3C742.2,703.2,741.8,702.3,741.2,701.6z" id="PATH_139" class="area" title=""></path>
	<path d="M746.6,704.2c1.5,0,2.8-0.1,3.8-0.4c1.1-0.3,2.1-1,2.1-1.5c0-0.1,0-0.3,0-0.4c-0.6,0.1-1.4,0.1-2,0.1c-2,0-3.6-0.5-4.2-1.9
		c-0.2-0.4-0.3-0.8-0.3-1.3c0-1.3,0.5-2.6,1.3-3.5c0.7-0.7,1.5-1.2,2.3-1.2c1.4,0,2.6,1.4,3.4,3.5c0.4,1.2,0.7,2.5,0.7,4.2
		c0,1.1-0.3,2.1-0.9,2.8c-1.1,1.3-3.1,1.7-6.3,1.7h-1.4c-1,0-1.2-0.7-1.2-1.2c0-0.4,0.3-1.1,1.2-1.1H746.6z M749.2,696.6
		c-1.2,0-2.1,0.9-2.1,1.6c0,1.4,2.3,1.9,5.1,1.8C751.9,698.3,750.7,696.6,749.2,696.6z M748.9,688.7c0.7,0.5,1.4,1.2,2.1,1.9
		c-0.4,0.6-0.9,1.2-1.5,1.7c-0.7-0.7-1.4-1.2-2.1-1.8C747.9,689.8,748.4,689.2,748.9,688.7z" id="PATH_140" class="area" title=""></path>
</g>
<g id="G_141" class="area" title="">
	<path d="M1046.7,802.9c0.1,4.6,0.3,8.6,0.3,13c0,0.9,0.4,1.9,0.9,2.4c0.4,0.3,1,0.5,1.8,0.5h0.2v2.4h-0.4c-1.3,0-2.3-0.4-2.9-1.4
		h-0.1c-0.1,0.9-0.3,1.9-0.6,2.8c-0.6,0.9-1.3,1.6-2.1,2.1c-1.2,0.8-2.5,1.2-3.9,1.2c-1.6,0-3-0.6-3.9-1.6c-0.9-1-1.3-2.4-1.3-4.2
		c0-1.6,0.5-3.1,1.2-4.7l0.7,0.3c-0.5,1.1-0.8,2.2-0.8,3.2c0,1.1,0.3,2,0.9,2.9c0.8,1,1.9,1.5,3.2,1.5c1.2,0,2.3-0.4,3.2-0.9
		c0.9-0.5,1.7-1.1,2-1.8c0-0.2,0.1-0.4,0.1-1.2c0-2.9-0.1-7.7-0.6-14.9c0.6-0.6,1.1-1.2,1.7-1.6L1046.7,802.9z" id="PATH_142" class="area" title=""></path>
	<path d="M1064.2,821.2h-0.4c-2.3,0-3.5-1.3-4.8-3c-0.6-0.8-1.2-1.6-1.6-2.1h-0.1c0,2.9-1.7,5.1-6.9,5.1h-0.5c-1,0-1.3-0.7-1.3-1.2
		c0-0.4,0.3-1.1,1.3-1.1h0.7c1.5,0,3.3-0.3,4.5-1.1c0.4-0.2,0.9-0.6,0.9-0.9c0-0.4-0.2-0.8-0.4-1.3c-0.8-1.7-2.6-3.7-4.6-5.6
		c-0.5-0.5-0.9-0.9-1.2-1.3c-0.1-0.3-0.1-0.7-0.1-1c0-0.5,0.2-1,0.5-1.6c0.1-0.3,0.4-0.5,0.7-0.7c1.9-1.2,6.3-2.7,11.4-4.3l0.1,0.1
		c-0.4,0.8-0.9,1.5-1.4,2.3c-1.1,0.3-2.7,0.8-4.2,1.4c-2.2,0.8-4.3,1.7-5.6,2.4v0.1c1,0.6,2.1,1.1,2.9,1.4l-0.6,0.9
		c2,1.8,4.3,4.4,6.8,7.3c1,1.2,2.1,1.9,3.6,1.9h0.3V821.2z" id="PATH_143" class="area" title=""></path>
	<path d="M1064.5,818.9c0.9,0,2.2-0.1,3.3-0.5c-0.3-0.8-0.4-1.7-0.4-2.5c0-1.1,0.4-2.2,1.2-3.4c0.5-0.7,1.1-1.3,1.8-1.7
		c0.1-0.6,0.2-1.2,0.3-1.9h0.1c1.8,1.7,4.4,3.3,6.5,5c1.6,1.2,2.3,2.3,2.3,4c0,1.8-1.2,3.5-3.7,3.5c-1.5,0-3.9-0.5-6.3-1.3
		c-2.1,0.9-3.7,1.3-5.1,1.3h-0.4c-1,0-1.3-0.7-1.3-1.2c0-0.4,0.3-1.1,1.3-1.1H1064.5z M1073.3,815.7c0-1.6-1.1-3-1.9-3
		c-1.4,0-3.1,2-3.1,2.9c0,0.6,0.7,1.5,2,2.2C1071.3,817.5,1073.3,816.7,1073.3,815.7z M1076.6,819.2c1,0,2-0.4,2-0.8
		c0-1.2-1.7-2.5-4-4c-0.1,1.5-0.6,2.9-1.4,4.3C1074.1,819,1075.2,819.2,1076.6,819.2z" id="PATH_144" class="area" title=""></path>
	<path d="M1087.7,821.2h-0.2c-1.5,0-2.4-0.3-3.2-1.1c-1.1-1.2-1.2-2.5-1.2-5.2c0-3.5-0.2-7.2-0.5-11.2c0.6-0.7,1.2-1.3,1.7-1.7
		l0.1,0.1c0.3,4.1,0.3,8.9,0.3,13.4v1.1c0,1.2,0.7,1.7,1.4,2c0.5,0.2,0.9,0.2,1.2,0.2h0.3V821.2z" id="PATH_145" class="area" title=""></path>
	<path d="M1088.1,818.9c1.4,0,2.9-0.6,3.2-1.6l0.5-2l1.3-0.9l0.1,0.1c-0.3,0.9-0.4,1.7-0.4,2.2c0,0.6,0.2,1.2,0.6,1.5
		c0.6,0.5,1.3,0.7,2.3,0.7h0.3v2.4h-0.4c-1.8,0-3.2-0.5-3.8-1.9h-0.1c-0.6,1.2-2.1,1.9-3.7,1.9h-0.4c-1,0-1.3-0.7-1.3-1.2
		c0-0.4,0.3-1.1,1.3-1.1H1088.1z M1090.2,828.6c-0.8-0.7-1.4-1.3-2.2-1.9c0.5-0.7,1-1.3,1.5-1.8c0.8,0.6,1.4,1.2,2.1,2
		C1091.1,827.7,1090.8,828.2,1090.2,828.6z M1093.8,828.4c-0.8-0.7-1.4-1.3-2.2-1.9c0.5-0.7,1-1.3,1.5-1.8c0.8,0.6,1.4,1.2,2.1,2
		C1094.7,827.4,1094.3,827.9,1093.8,828.4z" id="PATH_146" class="area" title=""></path>
	<path d="M1111.1,813.3c0.2,1.4,0.3,2.5,0.3,3.3c0,0.8-0.3,1.9-0.7,2.5c-0.7,1.2-1.7,2-2.7,2c-0.8,0-1.7-0.6-2.3-1.5h-0.1
		c-0.8,0.9-1.9,1.6-3.2,1.6c-1,0-1.7-0.5-1.8-1.6h-0.1c-1.1,1.3-2.7,1.6-4,1.6h-0.3c-1,0-1.3-0.7-1.3-1.2c0-0.4,0.3-1.1,1.3-1.1h0.6
		c1.7,0,3-0.4,3.9-1.7l1-1.5l1.4-0.5l0.1,0.1c-0.7,1.2-1.3,2.1-1.3,2.7c0,0.6,0.4,0.9,1,0.9c0.5,0,1.2-0.2,1.7-0.5
		c0.6-0.5,0.7-1,1.3-3l1.1-0.6l0.1,0.1c-0.1,0.6-0.2,1.3-0.2,1.8c0,1.4,1,2.1,1.9,2.1c0.5,0,1-0.3,1-0.8c0-0.7-0.2-1.9-0.5-3
		c0.5-0.6,1.1-1.2,1.7-1.7L1111.1,813.3z" id="PATH_147" class="area" title=""></path>
</g>
<polygon class="st7 area" points="1029.5,665.7 995.2,681.4 961.6,715 941.8,742.4 940,765.4 941.8,775.7 953.3,782.2 971.4,788.4 
	984.8,773.5 1000.8,750.1 1015.3,738.9 1029.5,713.1 1041.1,695.9 1042.2,688.1 1034.7,670.6 " id="_x32_71" title=""></polygon>
<g id="G_149" class="area" title="">
	<path d="M974.1,723.4c0.9,2.2,1.8,3.5,3.6,3.5h0.3v2.1h-0.3c-0.7,0-1.2-0.1-1.6-0.5H976c0,0.2,0,0.4,0,0.6c0,0.8-0.2,1.7-0.6,2.5
		c-1.3,2.2-2.7,3.2-3.9,3.2c-1.2,0-2.7-0.5-4-1.3l0.2-0.5c0.4,0.2,1,0.4,1.9,0.4c2.2,0,5-2.4,5.3-4.8c-0.1-0.2-0.2-0.5-0.4-0.7
		c-0.6-0.9-1-1.6-1.4-2.4c0.3-0.7,0.6-1.3,0.9-1.9L974.1,723.4z" id="PATH_150" class="area" title=""></path>
	<path d="M990.4,729h-0.3c-2,0-3-1.1-4.2-2.6c-0.5-0.7-1-1.4-1.4-1.8h-0.1c0,2.5-1.4,4.4-6,4.4H978c-0.9,0-1.1-0.6-1.1-1.1
		c0-0.4,0.3-1,1.1-1h0.6c1.3,0,2.9-0.2,3.9-0.9c0.3-0.2,0.8-0.6,0.8-0.8c0-0.3-0.1-0.7-0.3-1.1c-0.7-1.5-2.1-2.6-3.8-4.4
		c-0.4-0.5-0.9-0.8-1.1-1.1c0-0.3-0.1-0.4-0.1-0.7c0-0.5,0.2-0.9,0.4-1.4c0.1-0.2,0.4-0.4,0.6-0.5c1.7-1.1,5.4-2.4,9.8-3.7l0,0.1
		c-0.3,0.7-0.7,1.3-1.1,1.9c-1,0.2-2.3,0.7-3.7,1.2c-1.9,0.7-3.8,1.5-4.9,2.1v0c0.9,0.5,1.9,0.8,2.6,1.1l-0.5,0.9
		c1.7,1.5,3.6,3.2,5.8,5.8c0.9,1.1,1.8,1.6,3.1,1.6h0.3V729z M978.8,714.7c0.1-0.3,0.2-0.7,0.4-1c2.2-1.1,5.3-2.2,8.8-3.2l0,0
		l-0.6,1C983.7,712.6,981,713.6,978.8,714.7L978.8,714.7z" id="PATH_151" class="area" title=""></path>
	<path d="M990.8,726.9c1.2,0,2.5-0.5,2.8-1.4l0.5-1.7l1.1-0.8l0.1,0.1c-0.2,0.8-0.4,1.5-0.4,1.9c0,0.6,0.1,1,0.5,1.3
		c0.5,0.4,1.1,0.6,2,0.6h0.3v2.1h-0.4c-1.6,0-2.8-0.4-3.3-1.6h-0.1c-0.5,1.1-1.8,1.6-3.2,1.6h-0.3c-0.9,0-1.1-0.6-1.1-1.1
		c0-0.4,0.3-1,1.1-1H990.8z M993.6,717.2c0.7,0.5,1.3,1.1,1.9,1.7c-0.4,0.6-0.8,1.1-1.3,1.6c-0.6-0.6-1.3-1.1-1.9-1.7
		C992.7,718.3,993.1,717.7,993.6,717.2z" id="PATH_152" class="area" title=""></path>
	<path d="M1010.7,722.1c0.2,1.2,0.3,2.2,0.3,2.9c0,0.7-0.3,1.6-0.6,2.2c-0.6,1-1.5,1.8-2.4,1.8c-0.7,0-1.4-0.5-2-1.3h-0.1
		c-0.7,0.8-1.6,1.4-2.8,1.4c-0.9,0-1.5-0.4-1.5-1.4h-0.1c-1,1.1-2.3,1.4-3.4,1.4h-0.3c-0.9,0-1.1-0.6-1.1-1.1c0-0.4,0.3-1,1.1-1h0.5
		c1.5,0,2.6-0.4,3.4-1.5l0.9-1.3l1.2-0.4l0.1,0.1c-0.6,1-1.1,1.8-1.1,2.3c0,0.5,0.3,0.8,0.8,0.8c0.5,0,1-0.2,1.4-0.5
		c0.6-0.4,0.6-0.9,1.1-2.6l1-0.6l0.1,0.1c-0.1,0.5-0.2,1.1-0.2,1.6c0,1.2,0.9,1.9,1.7,1.9c0.5,0,0.9-0.2,0.9-0.7
		c0-0.6-0.2-1.7-0.4-2.6C1009.6,723,1010.1,722.5,1010.7,722.1L1010.7,722.1z" id="PATH_153" class="area" title=""></path>
</g>
<path class="st8 area" d="M1154.9,570.6l-17.5,27.1l-30.1,13.8l-8.6,1.1l-0.4-10.9l-4.2-9.3l3.9-21.8c0,0-8.8-16.5-11.5-16.6
	c-2.7,0-11-10.2-11-10.2l12.8-3l17.9,1.6l23.9,15.6l16.7,9.5L1154.9,570.6z" id="_x36_18" title=""></path>
<g id="G_155" class="area" title="">
	<path d="M1103.1,575.4c0.6,1.5,1.2,2.4,2.5,2.4h0.2v1.4h-0.2c-0.5,0-0.9-0.1-1.1-0.4h0c0,0.1,0,0.3,0,0.4c0,0.5-0.1,1.2-0.4,1.7
		c-0.9,1.6-1.9,2.2-2.7,2.2c-0.8,0-1.9-0.4-2.8-0.9l0.2-0.4c0.3,0.1,0.7,0.2,1.3,0.2c1.5,0,3.5-1.7,3.7-3.4
		c-0.1-0.1-0.2-0.3-0.3-0.5c-0.4-0.6-0.7-1.1-1-1.7C1102.6,576.2,1102.8,575.8,1103.1,575.4L1103.1,575.4z" id="PATH_156" class="area" title=""></path>
	<path d="M1107.1,577.8c0.2-0.8,0.4-1.6,0.6-2.4c0.3-1.1,0.7-2,1.3-2.9l0.1,0c0.1,0.2,0.3,0.4,0.4,0.7c0.8,1.2,1.5,2.2,1.5,3.2
		c0,0.5-0.1,1-0.2,1.5h2.2v1.4h-0.3c-0.2,0-0.7,0-0.9-0.1l-0.1,0c0.3,0.5,0.5,1.1,0.5,1.5c0,0.5-0.1,1-0.4,1.3
		c-0.3,0.6-1,1.1-1.7,1.1c-0.5,0-1.1-0.1-1.6-0.4c-0.9-0.6-1.5-1.8-1.5-2.9v-0.6c-0.3,0-0.6,0.1-0.9,0.1h-0.2
		c-0.6,0-0.8-0.4-0.8-0.8c0-0.3,0.2-0.7,0.8-0.7H1107.1z M1108.3,580.8c0.6,0.7,1.4,1.1,2.1,1.1c0.4,0,0.7-0.2,0.7-0.6
		s-0.1-0.8-0.4-1.3c-0.3-0.5-0.9-0.9-1.8-0.9c-0.4,0-0.8,0-1.3,0.1C1107.6,579.8,1107.9,580.4,1108.3,580.8z M1109.4,577.7
		c0.5-0.1,0.7-0.4,0.7-0.6c0-0.7-0.7-1.7-1.4-2.7h-0.1c-0.4,1.1-0.7,2.3-1.1,3.4C1108.3,577.8,1108.9,577.8,1109.4,577.7z" id="PATH_157" class="area" title=""></path>
	<path d="M1124.4,579.3h-0.3c-1.4,0-2-0.4-2.3-1.1h-0.1c-0.6,0.7-1.3,1.1-1.9,1.1c-0.5,0-1-0.1-1.2-0.9h0c-0.5,0.6-1.1,0.9-1.9,0.9
		c-0.6,0-1-0.3-1.1-1h0c-0.7,0.8-1.6,1-2.4,1h-0.2c-0.6,0-0.8-0.4-0.8-0.8c0-0.3,0.2-0.7,0.8-0.7h0.4c1,0,1.8-0.3,2.4-1l0.6-0.9
		l0.9-0.3l0,0.1c-0.4,0.7-0.7,1.3-0.7,1.6c0,0.3,0.3,0.6,0.6,0.6c0.3,0,0.7-0.1,1-0.3c0.3-0.2,0.6-0.6,0.7-1l0.3-0.7l0.9-0.4l0,0
		c-0.3,0.9-0.5,1.3-0.5,1.7c0,0.3,0.2,0.7,0.6,0.7c0.4,0,0.6-0.1,0.8-0.2c0.3-0.2,0.5-0.6,0.7-1.1c0-0.2,0.1-0.4,0.2-0.9l0.9-0.6
		l0,0c-0.1,0.5-0.3,1.1-0.3,1.5c0,0.9,0.8,1.2,1.8,1.2h0.2V579.3z M1118.4,573.8c-0.5-0.4-0.9-0.8-1.3-1.2c0.3-0.4,0.6-0.8,0.9-1.1
		c0.5,0.4,0.8,0.7,1.3,1.2C1119,573.2,1118.7,573.5,1118.4,573.8z M1119,571.4c-0.5-0.4-0.9-0.8-1.3-1.2c0.3-0.4,0.6-0.8,0.9-1.1
		c0.5,0.4,0.8,0.7,1.3,1.2C1119.6,570.8,1119.4,571.1,1119,571.4z M1120.6,573.7c-0.5-0.4-0.9-0.8-1.3-1.2c0.3-0.4,0.6-0.8,0.9-1.1
		c0.5,0.4,0.8,0.7,1.3,1.2C1121.1,573.1,1120.9,573.4,1120.6,573.7z" id="PATH_158" class="area" title=""></path>
	<path d="M1124.6,577.8c1,0,1.7,0,2.2-0.2c0.4-0.1,0.6-0.3,0.6-0.5c0-0.5-0.5-1.6-1.1-2.8c0.3-0.5,0.5-0.9,0.8-1.3h0.1
		c0.5,0.9,1.1,2.3,1.1,3.4c0,0.8-0.3,1.5-0.8,2.1c-0.5,0.5-1.3,0.7-3,0.7h-0.1c-0.6,0-0.8-0.4-0.8-0.8c0-0.3,0.2-0.7,0.8-0.7H1124.6
		z M1126.2,569.5c0.5,0.3,0.9,0.7,1.3,1.2c-0.2,0.4-0.5,0.8-0.9,1.1c-0.4-0.4-0.9-0.8-1.3-1.2
		C1125.6,570.2,1125.9,569.8,1126.2,569.5z" id="PATH_159" class="area" title=""></path>
	<path d="M1133.3,579.3h-0.1c-0.9,0-1.5-0.2-1.9-0.6c-0.7-0.7-0.7-1.5-0.7-3.1c0-2.1-0.1-4.4-0.3-6.7c0.4-0.4,0.7-0.8,1.1-1l0.1,0
		c0.2,2.5,0.2,5.4,0.2,8.1v0.6c0,0.7,0.4,1,0.8,1.2c0.3,0.1,0.6,0.1,0.7,0.1h0.2V579.3z" id="PATH_160" class="area" title=""></path>
	<path d="M1133.5,577.8c0.9,0,1.8-0.3,1.9-1l0.3-1.2l0.8-0.6l0.1,0.1c-0.2,0.6-0.2,1.1-0.2,1.3c0,0.4,0.1,0.7,0.4,0.9
		c0.4,0.3,0.8,0.4,1.4,0.4h0.2v1.4h-0.3c-1.1,0-1.9-0.3-2.3-1.1h0c-0.4,0.8-1.3,1.1-2.2,1.1h-0.2c-0.6,0-0.8-0.4-0.8-0.8
		c0-0.3,0.2-0.7,0.8-0.7H1133.5z M1134.8,583.8c-0.5-0.4-0.9-0.8-1.3-1.2c0.3-0.4,0.6-0.8,0.9-1.1c0.5,0.4,0.8,0.7,1.3,1.2
		C1135.3,583.2,1135.1,583.5,1134.8,583.8z M1137,583.6c-0.5-0.4-0.9-0.8-1.3-1.2c0.3-0.4,0.6-0.8,0.9-1.1c0.5,0.4,0.8,0.7,1.3,1.2
		C1137.5,583,1137.3,583.3,1137,583.6z" id="PATH_161" class="area" title=""></path>
	<path d="M1145.3,567.2c-0.2,0.5-0.5,0.9-0.8,1.4c-0.6,0.1-1.2,0.3-1.8,0.6c-1.2,0.4-2.4,0.9-3.7,1.5v0l1.8,0.7l-0.3,0.6
		c1.7,1.4,2.9,2.8,2.9,4c0,1-0.3,1.9-0.7,2.3c-0.7,0.6-1.8,1-3.9,1h-0.4c-0.6,0-0.8-0.4-0.8-0.8c0-0.3,0.2-0.7,0.8-0.7h0.7
		c1.2,0,2.2-0.1,3-0.6c0.4-0.2,0.6-0.5,0.6-0.6c0-0.5-0.3-1.1-0.8-1.7c-0.5-0.7-1.5-1.8-3.4-3.2c-0.3-0.2-0.4-0.7-0.4-1
		c0-0.2,0.1-0.5,0.3-0.7c0.1-0.2,0.3-0.4,0.8-0.7C1140.5,568.7,1142.7,568,1145.3,567.2L1145.3,567.2z" id="PATH_162" class="area" title=""></path>
</g>
<path class="st9 area" d="M1300,736.8l-8.2,38.2l-12.4,11.6l28.6,16.8l21.5-13.3l14.7-6.2l5.1-2c0,0-7.4-17.2-10.6-16.4
	c-3.1,0.8-17.9-17.1-17.9-17.1L1300,736.8z" id="_x37_04" title=""></path>
<g id="G_164" class="area" title="">
	<path d="M1305.9,771.8c-0.2-0.8-0.5-1.2-0.7-1.2c-0.4,0-1,0.3-1.6,0.7c-0.5,0.4-1,0.9-1,1.3c0,0.9,2.5,0.8,3.2,1.3
		c0.3,0.2,0.4,0.5,0.4,1.1c0,0.5-0.4,1.4-0.8,1.8c-1,0.9-2.5,1.6-3.8,1.6c-2.3,0-3.4-1.5-3.4-3.6c0-0.9,0.2-1.7,0.5-2.4l0.4,0.1
		c-0.2,0.7-0.3,1.2-0.3,1.7c0,1.8,1.3,2.8,2.9,2.8c0.6,0,1.7-0.2,2.6-0.8c0.6-0.4,1.2-0.8,1.2-1c0-0.3-0.7-0.5-1.5-0.6
		c-0.9-0.1-1.5-0.3-1.8-0.6c-0.2-0.2-0.4-0.5-0.4-0.9c0-1,0.4-1.8,1.1-2.5c0.7-0.7,1.7-1.4,2.4-1.4c0.3,0,0.5,0.2,0.7,0.5
		c0.2,0.3,0.2,0.7,0.2,0.9c0,0.2-0.2,0.7-0.4,1.1L1305.9,771.8z" id="PATH_165" class="area" title=""></path>
	<path d="M1310.8,775.5h-0.1c-0.8,0-1.3-0.2-1.7-0.6c-0.6-0.6-0.6-1.3-0.6-2.7c0-1.9-0.1-3.8-0.3-5.9c0.3-0.4,0.6-0.7,0.9-0.9l0.1,0
		c0.2,2.1,0.2,4.7,0.2,7.1v0.6c0,0.6,0.4,0.9,0.7,1c0.2,0.1,0.5,0.1,0.6,0.1h0.1V775.5z" id="PATH_166" class="area" title=""></path>
	<path d="M1311.4,774.3c1.6,0,3.2-0.6,5.2-1.8l0,0c-1.1-0.4-2.2-0.7-3.1-0.7c-0.6,0-1,0.2-1.2,0.5l0.1,0.5l-0.3,0.9h-0.1l-0.5-1.3
		c0.1-1.1,0.9-1.8,2.1-1.8c0.7,0,1.7,0.2,3.2,0.8c0.5,0.2,1.1,0.3,1.7,0.3l0.8,0l0,0l-0.5,1c-0.8,0-1.4,0.2-1.7,0.4l-1.6,1.1
		c-1.3,0.8-2.7,1.3-4.2,1.3h-0.5c-0.5,0-0.7-0.4-0.7-0.7c0-0.2,0.2-0.6,0.7-0.6H1311.4z M1314,778.5c-0.4-0.4-0.8-0.7-1.1-1
		c0.3-0.4,0.5-0.7,0.8-0.9c0.4,0.3,0.7,0.6,1.1,1C1314.4,778,1314.2,778.2,1314,778.5z M1315.3,780.4c-0.4-0.4-0.8-0.7-1.1-1
		c0.3-0.4,0.5-0.7,0.8-0.9c0.4,0.3,0.7,0.6,1.1,1C1315.8,779.9,1315.6,780.2,1315.3,780.4z M1315.9,778.4c-0.4-0.4-0.8-0.7-1.1-1
		c0.3-0.4,0.5-0.7,0.8-0.9c0.4,0.3,0.7,0.6,1.1,1C1316.3,777.8,1316.1,778.1,1315.9,778.4z" id="PATH_167" class="area" title=""></path>
	<path d="M1326.6,765.5c0.1,1.9,0.1,3.8,0.1,5.7c0,0.9,0,1.6,0.3,2.2c0.2,0.5,0.7,0.9,1.2,0.9h0.1v1.2h-0.2c-0.9,0-2-0.8-2-2.7
		l-0.1,0c-0.4,1.4-1.2,2.1-2.1,2.5c-0.7,0.3-1.2,0.4-2,0.4l-1.1-0.1l0-0.1c1.6-0.6,2.8-1.2,3.7-1.8c-0.2-1-1.1-2.5-2.8-4.8
		c-0.5-0.7-1-1.3-1-1.6c0-0.2,0.2-0.6,0.3-0.9h0c0.5,0.5,1.2,1,1.8,1.4l-0.3,0.6c0.5,0.7,1,1.5,1.6,2.4c0.4,0.7,0.8,1.5,0.8,2.1
		c0,0.2,0,0.4,0,0.6l0,0c0.3-0.3,0.5-0.6,0.7-0.8c0.4-0.6,0.4-1.3,0.4-3c0-1.1-0.1-2.3-0.1-3.4
		C1326,765.9,1326.2,765.7,1326.6,765.5L1326.6,765.5z" id="PATH_168" class="area"></path>
	<path d="M1334.3,765c-0.2,0.4-0.5,0.8-0.7,1.2c-0.5,0.1-1,0.3-1.6,0.5c-1,0.4-2.1,0.8-3.2,1.3v0l1.6,0.6l-0.2,0.5
		c1.5,1.2,2.5,2.5,2.5,3.5c0,0.9-0.2,1.6-0.6,2c-0.6,0.5-1.6,0.9-3.4,0.9h-0.4c-0.5,0-0.7-0.4-0.7-0.7c0-0.2,0.2-0.6,0.7-0.6h0.6
		c1,0,1.9-0.1,2.6-0.5c0.4-0.2,0.5-0.4,0.5-0.5c0-0.4-0.3-1-0.7-1.5c-0.4-0.6-1.3-1.5-2.9-2.8c-0.3-0.2-0.4-0.6-0.4-0.9
		c0-0.2,0.1-0.4,0.2-0.6c0.1-0.2,0.3-0.4,0.7-0.6C1330.1,766.3,1332,765.7,1334.3,765L1334.3,765z" id="PATH_169" class="area"></path>
</g>
</svg>
