<!--?xml version="1.0" encoding="utf-8"?-->
<!-- Generator: Adobe Illustrator 27.4.1, SVG Export Plug-In . SVG Version: 6.00 Build 0)  -->
<svg version="1.1" id="Layer_1" xmlns="http://www.w3.org/2000/svg" xmlns:xlink="http://www.w3.org/1999/xlink" x="0px" y="0px" viewBox="0 0 1920 1080" style="enable-background:new 0 0 1920 1080;" xml:space="preserve" width="100%" height="100%">
<style type="text/css">
	.st0{fill:#DBECCB;stroke:#020202;stroke-width:0.4202;stroke-miterlimit:21.0117;}
	.st1{fill:#E8D0E5;stroke:#020202;stroke-width:0.4202;stroke-miterlimit:21.0117;}
	.st2{fill:#FDFAD6;stroke:#020202;stroke-width:0.4202;stroke-miterlimit:21.0117;}
	.st3{fill:#D3D3D3;stroke:#030303;stroke-width:0.4202;stroke-miterlimit:21.0117;}
	.st4{fill:#FBD1D1;stroke:#020202;stroke-width:0.4202;stroke-miterlimit:21.0117;}
	.st5{fill:#FFFFFF;stroke:#000000;stroke-width:0.5;stroke-miterlimit:10;}
</style>
<path id="_x38_93" class="st0 area" d="M939.7,137.8c-1.7,3.4-10.3,3.4-15.5,8.6c-3.4,6.9-3.4,15.5,0,20.6c18.9,30.9,58.4,42.9,49.8,87.6
	c-1.7,8.6,10.3,17.2,20.6,17.2c34.5,5.3,79-15.5,96.2,24c5.3,13.7,3.4,29.2,17.2,36.1c8.6,3.4,17.2,1.7,25.8,6.9
	c15.5,10.3,22.3,37.8,41.2,25.8c18.9-13.7,25.8-42.9,53.2-44.8c22.3-1.7,42.9,13.7,63.5,6.9c12-5,25.8-8.2,37.2-14.9
	c-0.8-1.5-1.5-2.9-2.1-4.4c-2.9-8.6-1.1-17.9,5.5-27.5c13.4-20.2,29.8-54.4,36.1-67.9c-4.4-2.1-9.2-4.4-14.7-6.9
	c-19.1-9-40.8-19.3-50.4-25.6c-12.4-8.2-27.5-15.8-46.4-8.2c-12.6,5-25.4,4.2-34.9-2.3c-8.4-5.7-13.4-15.3-13.4-25.6
	c0-2.3,0-4.6,0.2-6.7c0.4-15.1,0.8-27.1-19.1-40.3c-25.4-17-78.6-52.3-95.8-60.9c-13-6.5-52.3-15.8-69.3-19.5c0,5.5,0,10.1,0,13.7
	c0,8,4.6,13.9,9.5,20.2c6.1,8,13.9,17.9,7.4,30.9c-6.1,12-18.5,21.2-31.5,23.3c-2.1,0.4-4,0.4-6.1,0.4c-10.7,0-21.2-4.6-30-13.4
	c-0.2-0.2-0.6-0.6-0.8-0.8C956.1,99.6,947.9,118.7,939.7,137.8z" title=""></path>
<path id="_x38_96" class="st1 area" d="M1379.3,344.2c-1.5-2.9-4.2-4.8-8.4-6.3c-15.8-5.3-34.5-13-41.8-26.1
	c-11.1,6.7-25.2,10.1-37.2,14.9c-20.6,6.9-41.2-8.6-63.7-6.9c-27.5,1.7-34.2,30.9-53.2,44.8c-18.9,12-25.8-15.5-41.2-25.8
	c-8.6-5.3-17.2-3.4-25.8-6.9c-0.8-0.4-1.9-1.1-2.5-1.5c0.4,7.6,1.7,15.1,0.8,22.1c-1.7,17.2-20.6,17.2-25.8,30.9
	c-6.9,20.6,20.6,27.5,36.1,37.8c6.7,5.3,6.7,12,6.7,18.9c1.7,8.6,12,13.7,18.9,15.5c17.2,5.3,36.1-6.9,51.5,0
	c13.7,6.9,30.9,20.6,32.6,36.1c1.1,13.2,5.7,22.9,12.6,30.5c10.9-12.6,24.8-21.6,41.8-21.6c42.7,0,67.9-10.7,67.9-28.6
	c0-16.4,8.6-42.4,15.5-63.5c2.9-8.8,5.3-16.4,6.7-21.4c0.8-3.6,2.3-7.6,3.8-11.8C1378.4,364.6,1382.9,351.5,1379.3,344.2z" title=""></path>
<path id="_x39_64" class="st2 area" d="M879.6,354.3c3.4-1.7,8.6-1.7,12,0c8.6,10.3,8.6,37.8,24,30.9c17.2-8.6,32.6-27.5,51.5-20.6
	c25.8,8.6,29.2,41.2,8.6,63.7c-8.6,8.6,10.3,17.2,20.6,12c12-8.6,15.5-24,25.8-25.8c23.1-5,46.9-3.6,68.1-8.2
	c-8-5.7-13.2-12.4-9.7-22.9c5.3-13.7,24-13.7,25.8-30.9c0.8-7.1-0.4-14.7-0.8-22.1c-10.9-7.6-9.9-21.6-14.5-34.5
	c-17.2-39.5-61.8-18.9-96.2-24c-10.3,0-22.3-8.6-20.6-17.2c8.6-44.8-30.9-56.7-49.8-87.6c-3.4-5.3-3.4-13.7,0-20.6
	c5.3-5.3,13.7-5.3,15.5-8.6c8.2-19.1,16.4-38.2,33.2-47.7c-11.8-10.9-24.8-6.9-40.1-2.3c-8,2.5-16.4,5-24.4,5
	c-12,0-21.4-7.1-31.3-14.7c-11.3-8.6-24-18.3-43.9-20.4c-40.3-4.4-71.4-22.1-72.7-22.7l-1.3-0.6l-0.8-1.3
	c-0.4-0.6-4.6-6.5-10.1-14.5c-11.8,10.5-48.1,42.9-60.1,54.8c-17.9,17.9-85.7,25.2-109.9,25.2c-2.1,0-3.6,0.4-4,0.8
	c-2.9,4.4,4.6,22.3,9.2,33.2c5.3,12.2,10.1,24,10.1,32.4c0,12,19.8,31.3,33,44.3c6.3,6.1,11.8,11.6,15.3,16
	c4.4,5.5,10.7,11.1,17,16.8c10.3,9,20.8,18.5,24.8,28.8c3.8,9.7,29.8,37.8,45.4,53.4l1.9,1.9v38.9c25,2.5,50.8,1.5,73.1,10.1
	C835.1,386.8,857.4,376.5,879.6,354.3z" title=""></path>
<path id="PATH_6" class="st3 area" d="M980.9,421.7c0.2-0.2,0.4-0.6,0.6-0.8c-0.2,0.2-0.4,0.2-0.4,0.4
	C981.1,421.3,980.9,421.5,980.9,421.7z" title=""></path>
<path id="_x38_92" class="st1 area" d="M696,668.6c25.8-6.9,39.5-22.3,53.2-42.9c3.4-3.4,12-1.7,12-5.3c1.7-10.3,5.3-18.9,12-25.8
	c3.4-5.3-1.7-12-3.4-17.2c-10.3-15.5-29.2-24-36.1-39.5c-10.3-22.3-12-46.4-20.6-68.7c-2.7-5.7-2.1-13.7,0-20.2c-0.2,0-0.4,0-0.4,0
	c-1.7,0-3.4,0.2-5.7,0.2c-10.1,0.6-27.1,1.7-65.3-3.2c-38.7-4.8-62.2,23.3-66.2,28.6c3.2,2.7,5.5,5.7,6.1,9.9
	c1.3,7.6-3.2,15.3-14.7,26.9c-20.4,20.4-27.7,52.7-20.6,66.8c4,7.8,5.5,20.6,6.9,34c1.9,16.2,4.4,38.2,12,42
	c17.9,8.8,30.7,12.8,55.1,17c23.1,3.8,46,14.1,52.5,17.2C680.2,681,687,671.7,696,668.6z" title=""></path>
<path id="_x38_94" class="st4 area" d="M819.5,582.7L819.5,582.7c-3.4-37.8,36.1-63.7,65.3-77.3c8.6-3.4,10.3-13.7,13.7-24
	c1.7-5.3,6.9-10.3,12-10.3c28.6,1.5,54.8-9,65.8-33.6c-2.9-2.5-4-5.9-0.6-9.5c1.9-2.1,3.6-4.2,5-6.3c0-0.2,0-0.2,0-0.4
	c0.2-0.2,0.2-0.2,0.4-0.4c14.1-21.6,8.8-48.5-14.3-56.3c-18.9-6.9-34.5,12-51.5,20.6c-15.5,6.9-15.5-20.6-24-30.9
	c-3.4-1.7-8.6-1.7-12,0c-22.3,22.3-44.8,32.6-75.6,20.6c-22.3-8.6-48.3-7.6-73.1-10.1v34c0,18.7-2.3,49.8-17.9,50.4
	c-2.3,6.5-2.9,14.5,0,20.2c8.6,22.3,10.3,46.4,20.6,68.7c6.9,15.5,25.8,24,36.1,39.5c1.5,4.2,4.8,9.2,4.6,13.9
	C788.9,594,804.6,587.9,819.5,582.7z" title=""></path>
<path id="_x38_80" class="st2 area" d="M709.6,800.8c17.2,12,34.2,6.9,49.8,24c5.3,3.4,12,3.4,17.2,1.7c13.7-10.3,32.6-15.5,42.9-8.6
	c10.3,8.6,6.9,41.2,25.8,27.5c15.5-10.3,30.9-12,48.1-17.2c10.3-1.7,10.3-15.5,17.2-24c3.4-5.3,13.7,0,15.5-6.9
	c1.7-10.3,5.3-22.3,0-32.6c-1.7-5.3-8.6-12-3.4-15.5c15.1-15.1,18.1-31.7,15.5-49c-1.9-1.3-3.8-2.7-5.3-4.4
	c-32.6-37.8-61.8-77.3-104.8-103.2c-3.4-3.4-6.9-6.9-8.6-10.3c-14.9,5.3-30.9,11.1-45.2,8.6c0,1.3-0.4,2.3-1.1,3.4
	c-6.9,6.9-10.3,15.5-12,25.8c0,3.4-8.6,1.7-12,5.3c-13.7,20.6-27.5,36.1-53.2,42.9c-9,3.4-15.8,12.4-23.1,20
	c1.1,0.4,1.7,0.8,1.9,0.8l3.2,1.7l0.4,3.6c0.2,1.9,4.4,44.3,4.4,57.6c0,3.8-1.9,8.4-4.6,13.4C684.4,780.2,694.9,791.5,709.6,800.8z" title=""></path>
<path id="_x38_87" class="st4 area" d="M1201.3,997.6c-18.1-22.5-43.9-95.2-45-98.3l-22.1-74.8c-0.6-2.1-9.2-43.3,9.9-67.2
	c6.3-8,9.5-17.2,12.6-26.3c1.3-3.8,2.5-7.6,4.2-11.1c-12.4-6.5-23.7-14.5-30.7-27.1c-5.3-10.3,15.5-18.9,6.9-22.3
	c-22.3-10.3-51.5-6.9-77.3,1.7c-20.6,5.3-36.1-10.3-53.2-15.5c-25.8-10.3-22.3,20.6-30.9,36.1c-7.4,13.2-26.1,15.1-37.8,7.8
	c2.5,17-0.2,33.6-15.5,49c-5.3,3.4,1.7,10.3,3.4,15.5c5.3,10.3,1.7,22.3,0,32.6c-1.7,6.9-12,1.7-15.5,6.9c-6.9,8.6-6.9,22.3-17.2,24
	c-17.2,5.3-32.6,6.9-48.1,17.2c-7.4,5.5-11.3,3.6-14.1-1.1c-4.8,16-4.4,30.9,7.1,38.9c24,13.7,46.4,27.5,55.1,58.4
	c0,5.3,8.6,8.6,8.6,13.7c-1.3,16.4,0.6,30.7,10.9,41c9.5-4.2,20.4-5,30.5-5c5.9,0,12.6-0.6,20-1.3c21-2.1,42.9-4,51.3,8.6
	c4.2,6.3,12,16.2,19.5,25.8c7.6,9.7,15.5,20,20,26.7c6.7,10.1,38.7,18.5,49.4,14.9c4.6-1.5,11.1-4.2,18.7-6.9
	c14.1-5.3,31.3-12.2,43.1-15.1c11.6-2.9,33-18.9,37.8-33C1205.1,1005.8,1204.5,1001.4,1201.3,997.6z" title=""></path>
<path id="_x38_90" class="st0 area" d="M902.1,955.4c0-5.3-8.6-8.6-8.6-13.7c-8.6-30.9-30.9-44.8-55.1-58.4c-11.6-8-12-22.9-7.1-38.9
	c-4.2-7.1-5.5-21.2-11.6-26.5c-10.3-6.9-29.2-1.7-42.9,8.6c-5.3,1.7-12,1.7-17.2-1.7c-15.5-17.2-32.6-12-49.8-24
	c-14.7-9.2-25.2-20.8-31.5-35.1c-8.4,14.9-25.8,33-32.4,39.5l-34.9,39.1c-1.1,1.1-18.3,18.9-8,36.1c12.2,20.4,18.9,27.5,46.9,27.5
	c34,0,53.8,10.5,59,31.3c4,16.2,12.6,50.2,36.8,66.2c24.2,16,75.6,36.4,81.5,38.5c11.8,2.3,43.3,5.7,56.3-3.6c3.2-2.3,4.8-5,5.5-8.6
	c2.9-20,12.4-30.3,24.2-35.5C902.5,986.1,900.6,971.8,902.1,955.4z" title=""></path>
<path id="_x38_97" class="st0 area" d="M1184.5,702c19.1,0,24.2-21.4,24.2-32.8c0-17-4.4-73.5-4.4-74v-1.1l0.2-1.1
	c0.6-2.5,11.3-44.3,34.9-71c-6.7-7.6-11.6-17.2-12.6-30.5c-1.7-15.5-18.9-29.2-32.6-36.1c-15.5-6.9-34.5,5.3-51.5,0
	c-6.9-1.7-17.2-6.9-18.9-15.5c0-6.9,0-13.7-6.9-18.9c-7.8-5-18.5-9.5-26.3-14.9c-21.2,4.4-45,3.2-68.1,8.2
	c-10.3,1.7-13.7,17.2-25.8,25.8c-6.1,3.2-15.5,1.3-20-2.7c-10.9,24.4-37.2,34.9-65.8,33.6c-5.3,0-10.3,5.3-12,10.3
	c-3.4,10.3-5.3,20.6-13.7,24c-29.2,13.7-68.7,39.5-65.3,77.3c1.7,3.4,5.3,6.9,8.6,10.3c42.9,25.8,72.1,65.3,104.8,103.2
	c10.3,12,34.5,12,42.9-3.4c8.6-15.5,5.3-46.4,30.9-36.1c17.2,5.3,32.6,20.6,53.2,15.5c25.8-8.6,55.1-12,77.3-1.7
	c8.6,3.4-12,12-6.9,22.3c6.9,12.6,18.3,20.6,30.7,27.1C1165.4,709.8,1171.5,702,1184.5,702z" title=""></path>
<g id="G_13" class="area" title="">
	<path id="PATH_14" d="M1093.9,195.2c0.2,0.6,0.2,1.3,0.2,1.9c0,0.8-0.2,1.5-0.4,2.3c-0.6,1.5-1.7,2.7-3.8,3.6
		c-1.7,0.6-3.4,1.1-5.3,1.1c-1.9,0-3.4-0.4-4.6-1.3c-1.3-1.1-1.9-2.3-1.9-4.2c0-1.1,0.2-1.9,0.6-3.2c0.4-0.8,0.6-1.5,1.1-1.9
		c0.2-0.2,0.4-0.2,0.4-0.2c0.2,0,0.2,0,0.2,0.2c0,0,0,0.2,0,0.4c-0.6,1.3-0.8,2.5-0.8,3.6s0.4,1.9,1.1,2.7c0.8,1.1,2.3,1.5,4.2,1.5
		c2.1,0,4-0.4,5.5-1.1c1.3-0.6,2.1-1.3,2.5-2.1c0.2-0.2,0.2-0.6,0.2-0.8c0-0.6-0.2-1.3-0.4-2.1c-0.2-0.6-0.8-1.7-1.9-3.4l0.8-1.7
		c0.2-0.2,0.2-0.4,0.2-0.4s0.2,0,0.2,0.2C1093.1,191.8,1093.7,193.5,1093.9,195.2z M1087.6,186l-1.7,1.7l-1.7-1.7l1.7-1.7
		L1087.6,186z" class="area" title=""></path>
	<path id="PATH_15" d="M1104.7,195.6c0,2.1-0.6,4-1.9,5.9c-1.1,1.5-2.1,2.3-2.7,2.3c-1.7,0-2.9,0-4.2-0.2c-0.4,0-0.6-0.2-0.6-0.2
		s0.2-0.2,0.6-0.2c1.7-0.4,3.4-1.3,5-2.5c1.7-1.5,2.7-2.9,2.7-4.4c0-0.8-0.6-2.1-2.1-3.6l1.1-1.9c0-0.2,0.2-0.2,0.2-0.2l0.2,0.2
		c0.4,0.6,1.1,1.5,1.3,2.5C1104.5,193.9,1104.7,194.8,1104.7,195.6z M1103.2,184.3l-1.7,1.7l-1.7-1.7l1.7-1.7L1103.2,184.3z" class="area" title=""></path>
	<path id="PATH_16" d="M1115.4,195.6c0,2.1-0.6,4-1.9,5.9c-1.1,1.5-2.1,2.3-2.7,2.3c-1.7,0-2.9,0-4.2-0.2c-0.4,0-0.6-0.2-0.6-0.2
		s0.2-0.2,0.6-0.2c1.7-0.4,3.4-1.3,5-2.5c1.7-1.5,2.7-2.9,2.7-4.4c0-0.8-0.6-2.1-2.1-3.6l1.1-1.9c0-0.2,0.2-0.2,0.2-0.2l0.2,0.2
		c0.4,0.6,1.1,1.5,1.3,2.5C1115.2,193.9,1115.4,194.8,1115.4,195.6z" class="area" title=""></path>
</g>
<g id="G_17" class="area" title="">
	<path id="PATH_18" d="M771.8,263.7h-1.3c-1.1,0-2.3-0.4-3.4-1.5c-0.8-0.6-1.7-1.9-2.7-3.4c0,1.9-0.6,3.2-2.1,4
		c-1.1,0.6-2.7,0.8-4.8,0.8h-4.4c-5,0-7.8-1.5-7.8-4.4c0-1.1,0.4-2.1,1.1-3.2c0.2-0.2,0.4-0.4,0.4-0.4c0.2,0,0.2,0,0.2,0.2
		s0,0.2,0,0.4c-0.2,0.8-0.4,1.3-0.4,1.9c0,0.8,0.4,1.5,1.1,1.9c1.1,0.8,2.7,1.3,5,1.3h4.2c4.2,0,6.5-0.8,6.5-2.5
		c0-1.3-0.8-2.7-2.7-4.4c-0.8-0.8-1.7-1.5-2.7-2.3c0-0.8,0.2-1.5,0.6-2.1c0.2-0.2,4-1.5,11.6-3.8c0,0.2-0.2,1.1-0.6,2.3
		c-1.9,0.4-5,1.5-9.2,2.7c2.3,2.3,4.2,4.4,5.7,6.3c1.1,1.1,1.7,1.9,2.3,2.3c0.8,0.6,1.9,1.1,2.9,1.1h0.8v2.7H771.8z M769.5,243.5
		l-0.4,1.7l-10.3,3.4l0.4-1.5L769.5,243.5z" class="area" title=""></path>
	<path id="PATH_19" d="M782.1,263.7h-1.7c-1.9,0-3.2-0.6-4-1.9c-0.6,1.3-2.1,1.9-4.4,1.9h-1.3v-2.5h1.9c2.1,0,3.2-0.8,3.4-2.3
		c0-0.6,0.2-1.1,0.4-1.1c0.2,0,0.4,0.4,0.4,1.1c0.2,1.5,1.3,2.3,3.2,2.3h1.9v2.5H782.1z M777.9,252.8l-1.7,1.7l-1.7-1.7l1.7-1.7
		L777.9,252.8z" class="area" title=""></path>
	<path id="PATH_20" d="M795,259.5c0,0.8-0.2,1.7-0.8,2.5c-0.6,1.1-1.3,1.5-2.1,1.5c-0.6,0-2.1-0.4-4.4-1.5c-1.9,1.3-3.6,1.7-5,1.7
		h-1.3v-2.5h1.3c0.8,0,1.7,0,2.5-0.2c-0.8-0.6-1.3-1.5-1.3-2.5c0-1.3,0.8-2.7,2.7-4.2l-1.5-0.6c0.4-0.4,1.1-1.1,1.9-1.9
		c1.9,1.1,3.6,1.9,5,3.2C793.9,256.6,795,258,795,259.5z M789.5,257.8c0-0.6-0.2-1.1-0.4-1.5c-0.2-0.6-0.6-0.8-1.3-0.8
		s-1.1,0.2-1.7,0.6c-0.6,0.4-1.1,1.1-1.1,1.5c0,0.8,0.8,1.7,2.3,2.1c0.4-0.2,0.8-0.4,1.3-0.6C789.1,258.7,789.5,258.2,789.5,257.8z
		 M793.9,260.3c0-0.6-0.4-1.3-1.3-2.1c-0.6-0.6-1.3-1.3-1.9-1.5c0,1.7-0.4,2.9-1.5,3.8c1.7,0.6,2.9,0.8,3.4,0.8
		C793.5,261.2,793.9,261,793.9,260.3z" class="area" title=""></path>
	<path id="PATH_21" d="M803.4,241.2c-0.8,0.8-2.1,1.1-3.4,1.1c-0.2,0-0.4,0-0.8,0s-0.6,0-0.8,0c-0.2,0-0.4,0.2-0.6,0.4
		s-0.4,0.4-0.4,0.4c-0.2,0-0.2-0.2-0.2-0.4s0.2-0.6,0.4-1.1c0.2-0.6,0.4-0.8,0.6-0.8s0.6,0,1.3,0.2c0.6,0,1.1,0.2,1.3,0.2
		c1.3,0,2.1,0,2.7-0.2c0.4,0,0.6-0.2,0.6-0.2h0.2C803.8,240.8,803.6,241,803.4,241.2z M802.1,261.2c0,0.8-0.2,1.7-0.6,2.3
		c-0.2,0.4-0.4,0.6-0.4,0.6s-0.2-0.2-0.2-0.8c0-2.5-0.4-8.4-1.3-17.9l1.7-1.7c0.2-0.2,0.2-0.2,0.2-0.2s0,0.2,0,0.4
		C801.9,246.7,802.1,252.4,802.1,261.2z" class="area" title=""></path>
	<path id="PATH_22" d="M813.9,263.9c0,2.1-0.6,4-1.9,5.9c-1.1,1.5-2.1,2.3-2.7,2.3c-1.7,0-2.9,0-4.2-0.2c-0.4,0-0.6-0.2-0.6-0.2
		s0.2-0.2,0.6-0.2c1.7-0.4,3.4-1.3,5-2.5c1.7-1.5,2.7-2.9,2.7-4.4c0-0.8-0.6-2.1-2.1-3.6l1.1-1.9c0-0.2,0.2-0.2,0.2-0.2l0.2,0.2
		c0.4,0.6,1.1,1.5,1.3,2.5C813.7,262.2,813.9,263.1,813.9,263.9z" class="area" title=""></path>
	<path id="PATH_23" d="M826.7,259.3c0,2.9-1.9,4.4-5.9,4.4c-1.5,0-2.5-0.2-3.2-0.6c-0.8-0.4-1.3-1.5-1.3-2.7c0-0.6,0.2-1.3,0.4-1.9
		c0.2-0.2,0.2-0.4,0.4-0.4c0.2,0,0.2,0.2,0.2,0.6c0,0.2,0,0.4,0,0.6c0,0.8,0.4,1.5,1.3,1.7c0.4,0.2,1.3,0.2,2.3,0.2
		c3.2,0,4.6-0.4,4.6-1.5c0-1.5-1.9-3.6-5.5-6.1l0.6-2.1c0-0.2,0.2-0.2,0.2-0.2s0.2,0,0.4,0.2C825,254.2,826.7,257,826.7,259.3z" class="area" title=""></path>
	<path id="PATH_24" d="M839.7,263.7h-2.3c-0.2,2.9-1.3,5.3-3.4,7.4c-0.6,0.6-1.1,1.1-1.3,1.1c-1.1,0-2.5-0.2-4-0.4
		c-0.4,0-0.8-0.2-0.8-0.2s0.2-0.2,0.8-0.4c1.7-0.4,3.4-1.5,4.8-2.5c0.6-0.6,1.3-1.1,1.7-1.9c0.6-0.8,1.1-1.7,1.1-2.3v-0.6h-2.7
		c-2.1,0-2.9-0.8-2.9-2.5c0-1.1,0.2-2.1,0.8-3.4c0.6-1.3,1.5-2.1,2.3-2.1c1.1,0,1.9,0.6,2.5,2.1c0.4,1.1,0.8,2.1,0.8,3.4h2.3v2.5
		H839.7z M835.9,261.2c0-0.6-0.2-1.3-0.6-1.9c-0.4-0.8-1.1-1.1-1.7-1.1c-0.4,0-0.8,0.2-1.1,0.4c-0.4,0.4-0.4,0.6-0.4,1.3
		c0,1.1,0.8,1.5,2.5,1.5C834.9,261.4,835.3,261.2,835.9,261.2z" class="area" title=""></path>
	<path id="PATH_25" d="M850,263.7h-1.5c-1.9,0-3.2-0.6-4-1.9c-0.6,1.3-2.1,1.9-4.4,1.9h-1.3v-2.5h1.9c2.1,0,3.2-0.8,3.4-2.3
		c0-0.6,0.2-1.1,0.4-1.1c0.2,0,0.4,0.4,0.4,1.1c0.2,1.5,1.3,2.3,3.2,2.3h1.9L850,263.7L850,263.7z M845.6,268.3l-1.7,1.7l-1.7-1.7
		l1.7-1.7L845.6,268.3z" class="area" title=""></path>
	<path id="PATH_26" d="M863,244.2c0,0.4-0.4,1.3-0.8,2.3l-5.3,1.7c-2.3,0.8-4,1.5-4.8,1.9c1.7,1.7,2.7,2.9,3.4,3.6
		c1.1,1.5,1.7,2.7,1.9,4.2c0,1.1,0,2.1-0.4,2.9c-0.6,1.9-2.9,2.7-6.5,2.7h-1.1V261h1.3c1.7,0,2.9,0,3.6-0.2c1.5-0.4,2.3-1.1,2.3-2.1
		c0-1.5-1.1-3.2-3.4-5.3l-0.2,0.4c-0.2-0.2-0.6-0.6-1.1-1.3c-0.6-0.6-0.8-1.3-0.8-1.3c0-0.4,0-0.8,0.2-1.7s0.4-1.3,0.6-1.5
		s1.7-0.8,4.4-1.7C858.6,245.6,861.1,244.8,863,244.2z" class="area" title=""></path>
</g>
<g id="G_27" class="area" title="">
	<path id="PATH_28" d="M1240.2,406.2h-1.1c-1.1,0-1.7,0-2.1-0.2c0,0.6,0.2,1.1,0.2,1.7c0,1.1-0.2,1.7-0.4,2.3
		c-0.6,1.5-1.7,2.7-3.8,3.6c-1.7,0.6-3.4,1.1-5.3,1.1c-1.9,0-3.4-0.4-4.6-1.3c-1.3-1.1-1.9-2.3-1.9-4.2c0-1.1,0.2-1.9,0.6-3.2
		c0.4-0.8,0.6-1.5,1.1-1.9c0.2-0.2,0.4-0.2,0.4-0.2c0.2,0,0.2,0,0.2,0.2c0,0,0,0.2,0,0.4c-0.6,1.3-0.8,2.5-0.8,3.6
		c0,1.1,0.4,1.9,1.1,2.7c0.8,1.1,2.3,1.5,4.2,1.5c2.1,0,4-0.4,5.5-1.1c1.3-0.6,2.1-1.3,2.5-2.1c0.2-0.2,0.2-0.6,0-1.5
		c0-0.6-0.2-1.3-0.2-1.5c-0.2-0.6-1.1-1.7-2.1-3.2l0.8-1.7c0.2-0.2,0.2-0.4,0.2-0.4s0.2,0,0.2,0.2c1.1,1.7,2.1,2.5,3.4,2.5h1.7v2.5
		H1240.2z M1230.9,396.9l-1.7,1.7l-1.7-1.7l1.7-1.7L1230.9,396.9z" class="area" title=""></path>
	<path id="PATH_29" d="M1250.5,406.2h-1.7c-1.9,0-3.2-0.6-4-1.9c-0.6,1.3-2.1,1.9-4.4,1.9h-1.1v-2.5h1.9c2.1,0,3.2-0.8,3.4-2.3
		c0-0.6,0.2-1.1,0.4-1.1c0.2,0,0.4,0.4,0.4,1.1c0.2,1.5,1.3,2.3,3.2,2.3h1.9L1250.5,406.2L1250.5,406.2z M1243.6,410.8l-1.7,1.7
		l-1.7-1.7l1.7-1.7L1243.6,410.8z M1247.1,410.8l-1.7,1.7l-1.7-1.7l1.7-1.7L1247.1,410.8z" class="area" title=""></path>
	<path id="PATH_30" d="M1260.8,406.2h-1.7c-1.9,0-3.2-0.6-4-1.9c-0.6,1.3-2.1,1.9-4.4,1.9h-1.3v-2.5h1.9c2.1,0,3.2-0.8,3.4-2.3
		c0-0.6,0.2-1.1,0.4-1.1c0.2,0,0.4,0.4,0.4,1.1c0.2,1.5,1.3,2.3,3.2,2.3h1.9v2.5H1260.8z M1256.6,395.4l-1.7,1.7l-1.7-1.7l1.7-1.7
		L1256.6,395.4z" class="area" title=""></path>
	<path id="PATH_31" d="M1271.3,402c0,1.1,0,1.9-0.4,2.7c-0.4,1.1-1.1,1.7-1.7,1.7c-1.1,0-2.7-0.6-4.8-2.1c-0.6,0.8-1.1,1.3-1.3,1.5
		c-0.6,0.4-1.3,0.6-2.1,0.6h-1.1v-2.5h1.5c0.8,0,1.7-0.4,2.5-1.5c0.4-0.4,1.1-1.5,1.9-2.7c0.6-1.1,1.5-1.5,2.1-1.5
		c1.1,0,1.9,0.4,2.5,1.5C1270.9,400.5,1271.1,401.3,1271.3,402z M1270,403.6c0-0.6-0.2-1.3-0.6-2.1c-0.4-0.8-1.1-1.3-1.7-1.3
		c-0.6,0-1.3,0.6-2.1,1.9c0.4,0.4,1.1,0.8,1.9,1.3c0.8,0.4,1.7,0.6,2.1,0.6C1269.8,404.1,1270,404.1,1270,403.6z" class="area" title=""></path>
	<path id="PATH_32" d="M1279.5,406.2h-1.5c-1.5,0-2.7-0.6-3.2-1.9c-0.4-0.8-0.6-2.3-0.6-4v-4c0-1.9-0.2-4.6-0.4-8.2l1.3-1.5
		c0.2-0.2,0.4-0.2,0.4,0c0.2,1.9,0.4,4.6,0.4,8.2v6.1c0,1.7,0.8,2.5,2.5,2.5h1.1L1279.5,406.2L1279.5,406.2z" class="area" title=""></path>
	<path id="PATH_33" d="M1287.7,400.3v0.8c0,1.5-0.2,2.3-0.6,2.9c-1.1,1.5-2.7,2.1-5.5,2.1h-2.9v-2.5h2.1c3.6,0,5.5-0.6,5.9-1.7
		c0-0.2,0-0.2,0-0.4c0-0.4,0-0.6-0.2-0.8c-0.8,0.2-1.9,0.2-2.7,0.2c-1.9,0-2.9-0.8-2.9-2.5c0-1.1,0.2-2.3,0.8-3.4
		c0.6-1.3,1.5-1.9,2.5-1.9c0.8,0,1.7,0.6,2.3,1.7C1287.3,396.5,1287.7,398.2,1287.7,400.3z M1285.4,388.7l-1.7,1.7l-1.7-1.7l1.7-1.7
		L1285.4,388.7z M1286.2,398.4c0-0.6-0.2-1.3-0.6-1.9c-0.4-0.6-1.1-0.8-1.7-0.8c-0.4,0-0.8,0.2-1.3,0.4c-0.4,0.2-0.4,0.6-0.4,1.1
		c0,0.8,0.6,1.3,2.1,1.3C1284.7,398.8,1285.4,398.6,1286.2,398.4z" class="area" title=""></path>
</g>
<g id="G_34" class="area" title="">
	<path id="PATH_35" d="M808.8,455.1c0,2.1-0.6,4-1.9,5.9c-1.1,1.5-2.1,2.3-2.7,2.3c-1.7,0-2.9,0-4.2-0.2c-0.4,0-0.6-0.2-0.6-0.2
		s0.2-0.2,0.6-0.2c1.7-0.4,3.4-1.3,5-2.5c1.7-1.5,2.7-2.9,2.7-4.4c0-0.8-0.6-2.1-2.1-3.6l1.1-1.9c0-0.2,0.2-0.2,0.2-0.2l0.2,0.2
		c0.4,0.6,1.1,1.5,1.3,2.5C808.6,453.4,808.8,454.3,808.8,455.1z" class="area" title=""></path>
	<path id="PATH_36" d="M817.2,454.9h-1.5c-1.5,0-2.7-0.6-3.2-1.9c-0.4-0.8-0.6-2.3-0.6-4v-4c0-1.9-0.2-4.6-0.4-8.2l1.3-1.5
		c0.2-0.2,0.4-0.2,0.4,0c0.2,1.9,0.4,4.6,0.4,8.2v6.1c0,1.7,0.8,2.5,2.5,2.5h1.1V454.9z" class="area" title=""></path>
	<path id="PATH_37" d="M830.3,454.9h-1.1c-0.8,0-1.7,0.2-2.3,0.4c-1.1,0.4-1.7,1.1-1.7,2.1c0,1.3,0.8,2.3,2.5,3.4l-1.1,2.1
		c-1.9-0.6-3.6-1.7-4.8-2.9c-1.7-1.5-2.5-3.4-2.5-5.3h-2.9v-2.5h2.7c0-1.7,0.4-3.4,1.3-5.5c0.8-1.9,1.5-2.7,1.9-2.7s1.1,0.8,1.7,2.7
		c0.6,1.7,0.8,2.7,0.8,3.4c0,2.9-1.5,4.4-4.4,4.4c0.2,0.8,0.6,1.7,1.3,2.5s1.5,1.5,2.3,1.9c0-0.2,0-0.6,0-0.8c0-1.5,0.4-2.7,1.1-3.8
		c1.1-1.5,2.3-2.3,4.2-2.3h0.8v2.9H830.3z M823.9,451.5c0-0.4-0.2-1.3-0.6-2.3c-0.4-1.3-0.8-1.7-1.3-1.7c-0.2,0-0.6,0.4-1.1,1.5
		c-0.4,1.1-0.6,2.3-0.6,3.6C822.7,452.4,823.9,452.2,823.9,451.5z" class="area" title=""></path>
	<path id="PATH_38" d="M835.3,450.7c0,2.7-1.5,4.2-4.2,4.2h-1.7v-2.5h1.5c2.1,0,3.2-0.4,3.2-1.1c0-0.6-0.4-1.5-1.5-2.5l0.8-2.1
		c0-0.2,0.2-0.2,0.2-0.2s0.2,0.2,0.4,0.4C834.9,448,835.3,449.4,835.3,450.7z M834.7,459.5l-1.7,1.7l-1.7-1.7l1.7-1.7L834.7,459.5z" class="area" title=""></path>
</g>
<g id="G_39" class="area" title="">
	<path id="PATH_40" d="M1005.9,560.6c0.2,0.6,0.2,1.3,0.2,1.9c0,0.8-0.2,1.5-0.4,2.3c-0.6,1.5-1.7,2.7-3.8,3.6
		c-1.7,0.6-3.4,1.1-5.3,1.1s-3.4-0.4-4.6-1.3c-1.3-1.1-1.9-2.3-1.9-4.2c0-1.1,0.2-1.9,0.6-3.2c0.4-0.8,0.6-1.5,1.1-1.9
		c0.2-0.2,0.4-0.2,0.4-0.2c0.2,0,0.2,0,0.2,0.2c0,0,0,0.2,0,0.4c-0.6,1.3-0.8,2.5-0.8,3.6c0,1.1,0.4,1.9,1.1,2.7
		c0.8,1.1,2.3,1.5,4.2,1.5c2.1,0,4-0.4,5.5-1.1c1.3-0.6,2.1-1.3,2.5-2.1c0.2-0.2,0.2-0.6,0.2-0.8c0-0.6-0.2-1.3-0.4-2.1
		c-0.2-0.6-0.8-1.7-1.9-3.4l0.8-1.7c0.2-0.2,0.2-0.4,0.2-0.4s0.2,0,0.2,0.2C1005.1,557.2,1005.7,558.9,1005.9,560.6z M999.8,551.3
		l-1.7,1.7l-1.7-1.7l1.7-1.7L999.8,551.3z" class="area" title=""></path>
	<path id="PATH_41" d="M1011.2,558.3c0,0.8-0.2,1.7-0.6,2.3c-0.2,0.4-0.4,0.6-0.4,0.6s-0.2-0.2-0.2-0.8c0-2.5-0.4-8.4-1.3-17.9
		l1.7-1.7c0.2-0.2,0.2-0.2,0.2-0.2s0,0.2,0,0.4C1011,544,1011.2,549.7,1011.2,558.3z" class="area" title=""></path>
	<path id="PATH_42" d="M1027.6,560.8h-0.8c-0.8,0-1.5-0.2-2.1-0.8c-0.4-0.4-0.8-0.8-1.3-1.7c-0.4,0.8-1.1,1.5-1.7,1.9
		c-0.8,0.4-1.9,0.6-3.6,0.6c-2.9,0-4.4-1.1-4.4-3.2c0-0.6,0.2-1.5,0.6-2.1c0.2-0.2,0.2-0.4,0.4-0.4c0.2,0,0.2,0.2,0.2,0.4
		s0,0.2,0,0.6c0,0.4,0,0.4,0,0.6c0,1.3,1.1,1.9,3.2,1.9c2.9,0,4.4-0.6,4.4-1.7c0-0.6-0.8-2.9-2.5-6.9l0.8-1.7
		c0.2-0.2,0.2-0.4,0.2-0.4s0.2,0.2,0.2,0.4c0.6,1.7,1.7,4.2,2.9,7.6c0.6,1.7,1.5,2.5,2.7,2.5h0.6V560.8L1027.6,560.8z" class="area" title=""></path>
	<path id="PATH_43" d="M1042.5,560.8h-1.3c-1.1,0-2.1-0.6-2.9-1.7c-0.6,1.7-1.3,2.5-1.9,2.5s-1.7-0.4-2.9-1.1
		c-1.1-0.6-1.9-1.3-2.3-1.7c-1.1,1.3-2.1,1.9-3.2,1.9h-1.3v-2.5h1.3c1.1,0,1.9-0.4,2.7-1.3c0.6-0.6,1.3-1.5,2.1-2.3s1.5-1.3,2.1-1.3
		c0.8,0,1.5,0.4,2.1,1.3c0.4,0.4,0.8,1.3,1.9,2.3c0.6,0.8,1.5,1.3,2.3,1.3h1.3V560.8L1042.5,560.8z M1036.8,559.1
		c0-0.6-0.2-1.3-0.6-2.1c-0.4-0.8-1.1-1.3-1.9-1.3c-0.6,0-1.5,0.6-2.3,1.7c0.2,0.2,0.8,0.6,1.9,1.3c1.1,0.6,1.9,0.8,2.5,0.8
		C1036.8,559.5,1036.8,559.3,1036.8,559.1z" class="area" title=""></path>
	<path id="PATH_44" d="M1055.3,556.6c0,0.8-0.2,1.7-0.8,2.5c-0.6,1.1-1.3,1.5-2.1,1.5c-0.6,0-2.1-0.4-4.4-1.5
		c-1.9,1.3-3.6,1.7-5,1.7h-1.1v-2.5h1.3c0.8,0,1.7,0,2.5-0.2c-0.8-0.6-1.3-1.5-1.3-2.5c0-1.3,0.8-2.7,2.7-4.2l-1.5-0.6
		c0.4-0.4,1.1-1.1,1.9-1.9c1.9,1.1,3.6,1.9,5,3.2C1054.4,553.7,1055.3,555.1,1055.3,556.6z M1049.8,554.9c0-0.6-0.2-1.1-0.4-1.5
		c-0.2-0.6-0.6-0.8-1.3-0.8s-1.1,0.2-1.7,0.6s-1.1,1.1-1.1,1.5c0,0.8,0.8,1.7,2.3,2.1c0.4-0.2,0.8-0.4,1.3-0.6
		C1049.6,555.8,1049.8,555.3,1049.8,554.9z M1054.2,557.4c0-0.6-0.4-1.3-1.3-2.1c-0.6-0.6-1.3-1.3-1.9-1.5c0,1.7-0.4,2.9-1.5,3.8
		c1.7,0.6,2.9,0.8,3.4,0.8C1053.8,558.5,1054.2,558.1,1054.2,557.4z" class="area" title=""></path>
</g>
<g id="G_45" class="area" title="">
	<path id="PATH_46" d="M632.3,578.2c0,2.9-1.9,4.4-5.9,4.4c-1.5,0-2.5-0.2-3.2-0.6c-0.8-0.4-1.3-1.5-1.3-2.7c0-0.6,0.2-1.3,0.4-1.9
		c0.2-0.2,0.2-0.4,0.4-0.4c0.2,0,0.2,0.2,0.2,0.6c0,0.2,0,0.4,0,0.6c0,0.8,0.4,1.5,1.3,1.7c0.4,0.2,1.3,0.2,2.3,0.2
		c3.2,0,4.6-0.4,4.6-1.5c0-1.5-1.9-3.6-5.5-6.1l0.6-2.1c0-0.2,0.2-0.2,0.2-0.2s0.2,0,0.4,0.2C630.6,573.2,632.3,575.9,632.3,578.2z" class="area" title=""></path>
	<path id="PATH_47" d="M640.7,582.7h-1.5c-1.5,0-2.7-0.6-3.2-1.9c-0.4-0.8-0.6-2.3-0.6-4v-4c0-1.9-0.2-4.6-0.4-8.2l1.3-1.5
		c0.2-0.2,0.4-0.2,0.4,0c0.2,1.9,0.4,4.6,0.4,8.2v6.1c0,1.7,0.8,2.5,2.5,2.5h1.1C640.7,579.9,640.7,582.7,640.7,582.7z" class="area" title=""></path>
	<path id="PATH_48" d="M645.8,578.5c0,2.7-1.5,4.2-4.2,4.2h-1.7v-2.5h1.5c2.1,0,3.2-0.4,3.2-1.1c0-0.6-0.4-1.5-1.5-2.5l0.8-2.1
		c0-0.2,0.2-0.2,0.2-0.2s0.2,0.2,0.4,0.4C645.4,575.7,645.8,577.2,645.8,578.5z M645.1,587.3l-1.7,1.7l-1.7-1.7l1.7-1.7L645.1,587.3
		z" class="area" title=""></path>
	<path id="PATH_49" d="M654.2,560.2c-0.8,0.8-2.1,1.1-3.4,1.1c-0.2,0-0.4,0-0.8,0s-0.6,0-0.8,0c-0.2,0-0.4,0.2-0.6,0.4
		s-0.4,0.4-0.4,0.4c-0.2,0-0.2-0.2-0.2-0.4s0.2-0.6,0.4-1.1c0.2-0.6,0.4-0.8,0.6-0.8s0.6,0,1.3,0.2c0.6,0.2,1.1,0.2,1.3,0.2
		c1.3,0,2.1,0,2.7-0.2c0.4,0,0.6-0.2,0.6-0.2h0.2C654.6,559.8,654.4,560,654.2,560.2z M652.9,580.1c0,0.8-0.2,1.7-0.6,2.3
		c-0.2,0.4-0.4,0.6-0.4,0.6s-0.2-0.2-0.2-0.8c0-2.5-0.4-8.4-1.3-17.9l1.7-1.7c0.2-0.2,0.2-0.2,0.2-0.2s0,0.2,0,0.4
		C652.7,565.6,652.9,571.3,652.9,580.1z" class="area" title=""></path>
	<path id="PATH_50" d="M670.4,582.7h-0.8c-0.8,0-1.5-0.2-2.1-0.8c-0.4-0.4-0.8-0.8-1.3-1.7c-0.4,0.8-1.1,1.5-1.7,1.9
		c-0.8,0.4-1.9,0.6-3.6,0.6c-2.9,0-4.4-1.1-4.4-3.2c0-0.6,0.2-1.5,0.6-2.1c0.2-0.2,0.2-0.4,0.4-0.4c0.2,0,0.2,0.2,0.2,0.4
		c0,0.2,0,0.2,0,0.6c0,0.4,0,0.4,0,0.6c0,1.3,1.1,1.9,3.2,1.9c2.9,0,4.4-0.6,4.4-1.7c0-0.6-0.8-2.9-2.5-6.9l0.8-1.7
		c0.2-0.2,0.2-0.4,0.2-0.4s0.2,0.2,0.2,0.4c0.6,1.7,1.7,4.2,2.9,7.6c0.6,1.7,1.5,2.5,2.7,2.5h0.6L670.4,582.7L670.4,582.7z" class="area" title=""></path>
	<path id="PATH_51" d="M687,578.2c0,1.3-0.2,2.3-0.8,3.2c-0.6,0.8-1.7,1.5-2.7,1.5c-1.5,0-2.3-0.6-2.9-1.7c-0.8,1.3-1.7,1.7-2.9,1.7
		c-1.5,0-2.5-0.6-3.2-1.7c-0.8,1.3-1.9,1.7-3.4,1.7h-1.5v-2.5h1.7c1.5,0,2.5-0.8,2.7-2.5c0-0.4,0.2-0.6,0.4-0.6
		c0.2,0,0.2,0.2,0.4,0.6c0.2,1.7,1.1,2.5,2.7,2.5c0.8,0,1.7-0.2,2.1-0.6c0.2-0.4,0.4-0.8,0.6-1.7c0-0.4,0.2-0.6,0.4-0.6
		c0.2,0,0.2,0.2,0.4,0.6c0.2,1.7,1.1,2.5,2.5,2.5c1.7,0,2.3-0.4,2.3-1.1s-0.4-1.5-1.3-2.3l1.1-1.9c0.2-0.2,0.2-0.4,0.4-0.4
		c0.2,0,0.2,0.2,0.4,0.4C686.7,576.1,687,577.2,687,578.2z" class="area" title=""></path>
	<path id="PATH_52" d="M692,580.1c0,0.8-0.2,1.7-0.6,2.3c-0.2,0.4-0.4,0.6-0.4,0.6s-0.2-0.2-0.2-0.8c0-2.5-0.4-8.4-1.3-17.9l1.7-1.7
		c0.2-0.2,0.2-0.2,0.2-0.2s0,0.2,0,0.4C692,565.8,692,571.5,692,580.1z" class="area" title=""></path>
</g>
<g id="G_53" class="area" title="">
	<path id="PATH_54" d="M782.3,727.8c0.2,0.6,0.2,1.3,0.2,1.9c0,0.8-0.2,1.5-0.4,2.3c-0.6,1.5-1.7,2.7-3.8,3.6
		c-1.7,0.6-3.4,1.1-5.3,1.1s-3.4-0.4-4.6-1.3c-1.3-1.1-1.9-2.3-1.9-4.2c0-1.1,0.2-1.9,0.6-3.2c0.4-0.8,0.6-1.5,1.1-1.9
		c0.2-0.2,0.4-0.2,0.4-0.2c0.2,0,0.2,0,0.2,0.2c0,0,0,0.2,0,0.4c-0.6,1.3-0.8,2.5-0.8,3.6c0,1.1,0.4,1.9,1.1,2.7
		c0.8,1.1,2.3,1.5,4.2,1.5c2.1,0,4-0.4,5.5-1.1c1.3-0.6,2.1-1.3,2.5-2.1c0.2-0.2,0.2-0.6,0.2-0.8c0-0.6-0.2-1.3-0.4-2.1
		c-0.2-0.6-0.8-1.7-1.9-3.4l0.8-1.7c0.2-0.2,0.2-0.4,0.2-0.4s0.2,0,0.2,0.2C781.5,724.5,782.1,726.2,782.3,727.8z M776.3,718.6
		l-1.7,1.7l-1.7-1.7l1.7-1.7L776.3,718.6z" class="area" title=""></path>
	<path id="PATH_55" d="M791,728.1h-1.5c-1.5,0-2.7-0.6-3.2-1.9c-0.4-0.8-0.6-2.3-0.6-4v-4c0-1.9-0.2-4.6-0.4-8.2l1.3-1.5
		c0.2-0.2,0.4-0.2,0.4,0c0.2,1.9,0.4,4.6,0.4,8.2v6.1c0,1.7,0.8,2.5,2.5,2.5h1.1V728.1z" class="area" title=""></path>
	<path id="PATH_56" d="M804,708.5c0,0.4-0.4,1.3-0.8,2.3l-5.3,1.7c-2.3,0.8-4,1.5-4.8,1.9c1.7,1.7,2.7,2.9,3.4,3.6
		c1.1,1.5,1.7,2.7,1.9,4.2c0,1.1,0,2.1-0.4,2.9c-0.6,1.9-2.9,2.7-6.5,2.7h-1.1v-2.5h1.3c1.7,0,2.9,0,3.6-0.2
		c1.5-0.4,2.3-1.1,2.3-2.1c0-1.5-1.1-3.2-3.4-5.3l-0.2,0.4c-0.2-0.2-0.6-0.6-1.1-1.3c-0.6-0.6-0.8-1.3-0.8-1.3c0-0.4,0-0.8,0.2-1.7
		s0.4-1.3,0.6-1.5s1.7-0.8,4.4-1.7C799.6,710,801.9,709.1,804,708.5z" class="area" title=""></path>
	<path id="PATH_57" d="M816,728.1h-0.8c-0.8,0-1.3-0.2-1.7-0.4c0,0.2,0,0.4,0,0.6c0,1.9-0.6,3.8-1.9,5.7c-1.1,1.7-2.1,2.3-2.7,2.3
		c-1.7,0-2.9,0-4.2-0.2c-0.4,0-0.6-0.2-0.6-0.2s0.2-0.2,0.6-0.2c1.7-0.4,3.4-1.3,5-2.5c1.7-1.5,2.7-2.9,2.7-4.4
		c0-0.8-0.6-2.1-2.1-3.6l1.1-1.9c0-0.2,0.2-0.2,0.2-0.2l0.2,0.2c0.6,0.8,1.1,1.5,1.5,1.7c0.6,0.4,1.5,0.8,2.3,0.8h0.6v2.3H816z" class="area" title=""></path>
	<path id="PATH_58" d="M835.5,728.1h-1.3c-1.5,0-2.3-0.6-2.9-1.7c-0.4,1.3-1.5,1.7-2.7,1.7c-1.3,0-2.1-0.6-2.7-1.7
		c-0.6,1.3-1.5,1.7-2.7,1.7c-1.5,0-2.5-0.6-3.2-1.7c-0.8,1.3-1.9,1.7-3.4,1.7h-1.5v-2.5h1.7c1.5,0,2.5-0.8,2.7-2.5
		c0-0.4,0.2-0.6,0.4-0.6c0.2,0,0.2,0.2,0.4,0.6c0.2,1.7,1.1,2.5,2.7,2.5c1.5,0,2.5-0.8,2.5-2.5c0-0.4,0.2-0.6,0.4-0.6
		c0.2,0,0.4,0.2,0.4,0.6c0.2,1.7,1.1,2.5,2.1,2.5c1.5,0,2.5-0.8,2.5-2.5c0-0.4,0.2-0.6,0.4-0.6c0.2,0,0.4,0.2,0.4,0.6
		c0.2,1.7,1.1,2.5,2.5,2.5h1.3v2.5H835.5z" class="area" title=""></path>
	<path id="PATH_59" d="M840.5,723.9c0,2.7-1.5,4.2-4.2,4.2h-1.7v-2.5h1.5c2.1,0,3.2-0.4,3.2-1.1s-0.4-1.5-1.5-2.5l0.8-2.1
		c0-0.2,0.2-0.2,0.2-0.2s0.2,0.2,0.4,0.4C840.1,721.1,840.5,722.6,840.5,723.9z M838.9,732.7l-1.7,1.7l-1.7-1.7l1.7-1.7L838.9,732.7
		z M842.4,732.7l-1.7,1.7l-1.7-1.7l1.7-1.7L842.4,732.7z" class="area" title=""></path>
	<path id="PATH_60" d="M855.5,728.1h-2.3c-0.2,2.9-1.3,5.3-3.4,7.4c-0.6,0.6-1.1,1.1-1.3,1.1c-1.1,0-2.5-0.2-4-0.4
		c-0.4,0-0.8-0.2-0.8-0.2s0.2-0.2,0.8-0.4c1.7-0.4,3.4-1.5,4.8-2.5c0.6-0.6,1.3-1.1,1.7-1.9c0.6-0.8,1.1-1.7,1.1-2.3v-0.6h-2.7
		c-2.1,0-2.9-0.8-2.9-2.5c0-1.1,0.2-2.1,0.8-3.4c0.6-1.3,1.5-2.1,2.3-2.1c1.1,0,1.9,0.6,2.5,2.1c0.4,1.1,0.8,2.1,0.8,3.4h2.3v2.5
		H855.5z M851.7,725.5c0-0.6-0.2-1.3-0.6-1.9c-0.4-0.8-1.1-1.1-1.7-1.1c-0.4,0-0.8,0.2-1.1,0.4c-0.4,0.4-0.4,0.6-0.4,1.3
		c0,1.1,0.8,1.5,2.5,1.5C850.6,725.7,851.1,725.5,851.7,725.5z" class="area" title=""></path>
	<path id="PATH_61" d="M860.5,723.9c0,2.7-1.5,4.2-4.2,4.2h-1.7v-2.5h1.5c2.1,0,3.2-0.4,3.2-1.1s-0.4-1.5-1.5-2.5l0.8-2.1
		c0-0.2,0.2-0.2,0.2-0.2s0.2,0.2,0.4,0.4C860.1,721.1,860.5,722.6,860.5,723.9z M858.6,714.6l-1.7,1.7l-1.7-1.7l1.7-1.7L858.6,714.6
		z M862.2,714.6l-1.7,1.7l-1.7-1.7l1.7-1.7L862.2,714.6z" class="area" title=""></path>
</g>
<g id="G_62" class="area" title="">
	<path id="PATH_63" d="M992.3,874.1h-0.8c-0.8,0-1.3-0.2-1.7-0.4c0,0.2,0,0.4,0,0.6c0,1.9-0.6,3.8-1.9,5.7c-1.1,1.7-2.1,2.3-2.7,2.3
		c-1.7,0-2.9,0-4.2-0.2c-0.4,0-0.6-0.2-0.6-0.2s0.2-0.2,0.6-0.2c1.7-0.4,3.4-1.3,5-2.5c1.7-1.5,2.7-2.9,2.7-4.4
		c0-0.8-0.6-2.1-2.1-3.6l1.1-1.9c0-0.2,0.2-0.2,0.2-0.2l0.2,0.2c0.6,0.8,1.1,1.5,1.5,1.7c0.6,0.4,1.5,0.8,2.3,0.8h0.6v2.3H992.3z" class="area" title=""></path>
	<path id="PATH_64" d="M997.3,869.9c0,2.7-1.5,4.2-4.2,4.2h-1.7v-2.5h1.5c2.1,0,3.2-0.4,3.2-1.1s-0.4-1.5-1.5-2.5l0.8-2.1
		c0-0.2,0.2-0.2,0.2-0.2s0.2,0.2,0.4,0.4C996.9,867.2,997.3,868.6,997.3,869.9z M995.6,878.7l-1.7,1.7l-1.7-1.7l1.7-1.7L995.6,878.7
		z M999.2,878.7l-1.7,1.7l-1.7-1.7l1.7-1.7L999.2,878.7z" class="area" title=""></path>
	<path id="PATH_65" d="M1018.9,874.1h-1.3c-2.5,0-4-1.9-4-5.7c0-0.4,0-1.1,0-1.9c-1.7,4-3.6,6.9-6.1,8.6c-1.5,0.4-3.4,0.6-5.5,0.6
		c-0.4,0-0.6,0-0.6,0s0.6-0.4,1.9-1.1c0.8-0.4,1.7-0.8,2.5-1.3c1.5-0.6,2.9-1.7,4.2-3.2c-0.6-2.1-1.5-4-2.7-5.7
		c-0.8-1.1-2.1-2.3-4-3.8l-0.2,0.8c-0.6-0.4-1.1-0.8-1.5-1.3c-0.6-0.6-1.1-1.1-1.1-1.5c0-0.4,0-1.1,0.2-2.1c0-0.2,0-0.4,0.2-0.4
		s0.2,0,0.4,0.2c2.7,1.9,4.8,3.8,6.1,5.5c1.7,2.1,2.7,4.4,3.4,7.1c0.8-1.1,1.5-2.1,1.9-3.4c0.6-1.5,0.8-2.7,0.8-3.8
		c0-1.9-0.2-4-0.4-6.3l1.7-1.5c0.2,1.1,0.2,5.9,0.4,14.5c0,1.9,0.8,2.9,2.5,2.9h1.1L1018.9,874.1L1018.9,874.1z" class="area" title=""></path>
	<path id="PATH_66" d="M1029.2,869.9c0,1.1,0,1.9-0.4,2.7c-0.4,1.1-1.1,1.7-1.7,1.7c-1.1,0-2.7-0.6-4.8-2.1
		c-0.6,0.8-1.1,1.3-1.3,1.5c-0.6,0.4-1.3,0.6-2.1,0.6h-1.1v-2.5h1.5c0.8,0,1.7-0.4,2.5-1.5c0.4-0.4,1.1-1.5,1.9-2.7
		c0.6-1.1,1.5-1.5,2.1-1.5c1.1,0,1.9,0.4,2.5,1.5C1029,868.4,1029.2,869,1029.2,869.9z M1028,871.4c0-0.6-0.2-1.3-0.6-2.1
		c-0.4-0.8-1.1-1.3-1.7-1.3c-0.6,0-1.3,0.6-2.1,1.9c0.4,0.4,1.1,0.8,1.9,1.3c0.8,0.4,1.7,0.6,2.1,0.6
		C1028,872,1028,871.8,1028,871.4z" class="area" title=""></path>
</g>
<g id="G_67" class="area" title="">
	<path id="PATH_68" d="M747.5,906.2h-0.8c-0.8,0-1.5-0.2-2.1-0.8c-0.4-0.4-0.8-0.8-1.3-1.7c-0.4,0.8-1.1,1.5-1.7,1.9
		c-0.8,0.4-1.9,0.6-3.6,0.6c-2.9,0-4.4-1.1-4.4-3.2c0-0.6,0.2-1.5,0.6-2.1c0.2-0.2,0.2-0.4,0.4-0.4c0.2,0,0.2,0.2,0.2,0.4
		s0,0.2,0,0.6c0,0.4,0,0.4,0,0.6c0,1.3,1.1,1.9,3.2,1.9c2.9,0,4.4-0.6,4.4-1.7c0-0.6-0.8-2.9-2.5-6.9l0.8-1.7
		c0.2-0.2,0.2-0.4,0.2-0.4s0.2,0.2,0.2,0.4c0.6,1.7,1.7,4.2,2.9,7.6c0.6,1.7,1.5,2.5,2.7,2.5h0.6V906.2L747.5,906.2z" class="area" title=""></path>
	<path id="PATH_69" d="M752.5,902c0,2.7-1.5,4.2-4.2,4.2h-1.7v-2.5h1.5c2.1,0,3.2-0.4,3.2-1.1s-0.4-1.5-1.5-2.5l0.8-2.1
		c0-0.2,0.2-0.2,0.2-0.2s0.2,0.2,0.4,0.4C752.1,899.3,752.5,900.8,752.5,902z M752.3,892.6l-1.7,1.7l-1.7-1.7l1.7-1.7L752.3,892.6z" class="area" title=""></path>
	<path id="PATH_70" d="M763.2,905.4c0,3.2-1.1,5.9-3.2,8c-0.6,0.6-1.1,1.1-1.3,1.1c-1.3,0-2.5-0.2-4-0.4c-0.6,0-0.8-0.2-0.8-0.2
		s0.2-0.2,0.8-0.4c1.7-0.4,3.4-1.5,4.8-2.7c0.6-0.6,1.3-1.1,1.7-1.9c0.6-0.8,1.1-1.7,1.1-2.3v-0.6h-2.7c-1.9,0-2.9-0.8-2.9-2.3
		c0-1.1,0.2-2.1,0.8-3.4s1.5-2.1,2.3-2.1c1.3,0,2.3,0.8,2.9,2.7C763,902.5,763.2,903.7,763.2,905.4z M761.8,903.7
		c0-0.6-0.2-1.3-0.6-1.9s-1.1-1.1-1.7-1.1c-0.4,0-0.8,0.2-1.1,0.4c-0.4,0.4-0.4,0.6-0.4,1.1c0,1.1,0.6,1.5,2.1,1.5
		C760.3,903.9,760.9,903.7,761.8,903.7z" class="area" title=""></path>
	<path id="PATH_71" d="M771.6,906.2h-1.5c-1.5,0-2.7-0.6-3.2-1.9c-0.4-0.8-0.6-2.3-0.6-4v-4c0-1.9-0.2-4.6-0.4-8.2l1.3-1.5
		c0.2-0.2,0.4-0.2,0.4,0c0.2,1.9,0.4,4.6,0.4,8.2v6.1c0,1.7,0.8,2.5,2.5,2.5h1.1L771.6,906.2L771.6,906.2z" class="area" title=""></path>
	<path id="PATH_72" d="M784.7,906.2h-1.1c-0.8,0-1.7,0.2-2.3,0.4c-1.1,0.4-1.7,1.1-1.7,2.1c0,1.3,0.8,2.3,2.5,3.4l-1.1,2.1
		c-1.9-0.6-3.6-1.7-4.8-2.9c-1.7-1.5-2.5-3.4-2.5-5.3h-2.9v-2.5h2.7c0-1.7,0.4-3.4,1.3-5.5c0.8-1.9,1.5-2.7,1.9-2.7s1.1,0.8,1.7,2.7
		c0.6,1.7,0.8,2.7,0.8,3.4c0,2.9-1.5,4.4-4.4,4.4c0.2,0.8,0.6,1.7,1.3,2.5c0.6,0.8,1.5,1.5,2.3,1.9c0-0.2,0-0.6,0-0.8
		c0-1.5,0.4-2.7,1.1-3.8c1.1-1.5,2.3-2.3,4.2-2.3h0.8v2.9H784.7z M778.4,902.9c0-0.4-0.2-1.3-0.6-2.3c-0.4-1.3-0.8-1.7-1.3-1.7
		c-0.2,0-0.6,0.4-1.1,1.5s-0.6,2.3-0.6,3.6C777.1,903.7,778.4,903.5,778.4,902.9z" class="area" title=""></path>
	<path id="PATH_73" d="M789.7,902c0,2.7-1.5,4.2-4.2,4.2h-1.7v-2.5h1.5c2.1,0,3.2-0.4,3.2-1.1s-0.4-1.5-1.5-2.5l0.8-2.1
		c0-0.2,0.2-0.2,0.2-0.2s0.2,0.2,0.4,0.4C789.3,899.3,789.7,900.8,789.7,902z M789.5,892.6l-1.7,1.7l-1.7-1.7l1.7-1.7L789.5,892.6z" class="area" title=""></path>
</g>
<polygon class="st5 area active" points="1295.5,174.9 1265.6,168.9 1230,173.1 1197,204 1189,256.8 1189,302 1213.5,324 1228.2,319.8 
	1253.2,323.2 1279.5,328.6 1311.9,319.6 1329.1,311.8 1329.1,300 1350,260.8 1374,214 1374,204 1311,177 " id="_x34_80" title=""></polygon>
<g id="G_73" class="area" title="">
	<path d="M1217.5,239.5c0.6,1.2,0.9,2,1.3,3.1c0.5,1.4,1.3,1.6,2.9,1.6h0.2v2.1h-0.3c-1,0-1.7-0.2-2.3-0.7h0c-0.1,1.6-0.6,3.1-1,3.7
		c-1.1,1.5-3.6,2.6-5.5,2.6c-3,0-4.9-2-4.9-4.9c0-2,0.6-3.5,1.4-4.7l0.6,0.3c-0.5,1-0.9,2.3-0.9,3c0,1.4,0.5,2.2,1.1,2.8
		c0.6,0.6,1.8,1.1,3,1.1c1.3,0,2.9-0.6,3.9-1.4c0.7-0.5,1.2-1,1.2-1.7c0-0.6-0.1-1.3-0.6-2.7c-0.5-1.2-0.9-2-1.3-2.6
		c0.3-0.6,0.7-1.2,1.1-1.7H1217.5z M1213.7,234.5c0.7,0.5,1.3,1.1,1.9,1.7c-0.4,0.6-0.8,1.1-1.3,1.6c-0.6-0.6-1.3-1.1-1.9-1.7
		C1212.8,235.6,1213.2,235,1213.7,234.5z" id="PATH_74" class="area" title=""></path>
	<path d="M1222.2,244.2c1.4,0,2.5,0,3.2-0.3c0.6-0.2,0.9-0.4,0.9-0.7c0-0.8-0.8-2.3-1.6-4c0.4-0.7,0.8-1.3,1.2-1.8h0.1
		c0.7,1.3,1.6,3.3,1.6,4.9c0,1.2-0.5,2.1-1.1,3c-0.7,0.7-1.9,1-4.3,1h-0.2c-0.9,0-1.1-0.6-1.1-1.1c0-0.4,0.3-1,1.1-1H1222.2z
		 M1223.8,252.7c-0.7-0.6-1.2-1.1-1.9-1.7c0.4-0.6,0.9-1.1,1.3-1.5c0.7,0.5,1.2,1,1.8,1.7C1224.6,251.8,1224.2,252.3,1223.8,252.7z
		 M1226.9,252.5c-0.7-0.6-1.2-1.1-1.9-1.7c0.4-0.6,0.9-1.1,1.3-1.5c0.7,0.5,1.2,1,1.8,1.7C1227.7,251.6,1227.4,252.1,1226.9,252.5z" id="PATH_75" class="area" title=""></path>
	<path d="M1235.7,240.7c0.9,2.2,1.8,3.5,3.6,3.5h0.3v2.1h-0.3c-0.7,0-1.2-0.1-1.6-0.5h-0.1c0,0.2,0,0.4,0,0.6c0,0.8-0.2,1.7-0.6,2.5
		c-1.3,2.2-2.7,3.2-3.9,3.2c-1.2,0-2.7-0.5-4-1.3l0.2-0.5c0.4,0.2,1,0.4,1.9,0.4c2.2,0,5-2.4,5.3-4.8c-0.1-0.2-0.2-0.5-0.4-0.7
		c-0.6-0.9-1-1.6-1.4-2.4c0.3-0.7,0.6-1.3,0.9-1.9L1235.7,240.7z M1234.3,235.1c0.7,0.5,1.3,1.1,1.9,1.7c-0.4,0.6-0.8,1.1-1.3,1.6
		c-0.6-0.6-1.3-1.1-1.9-1.7C1233.4,236.2,1233.9,235.6,1234.3,235.1z" id="PATH_76" class="area" title=""></path>
	<path d="M1240.6,244.2c2.6,0,5.3-0.9,8.6-2.9l0-0.1c-1.9-0.7-3.6-1.1-5.1-1.1c-0.9,0-1.6,0.3-2,0.8l0.2,0.8l-0.5,1.5h-0.2l-0.8-2.1
		c0.1-1.8,1.6-2.9,3.5-2.9c1.1,0,2.8,0.4,5.3,1.4c0.8,0.3,1.7,0.5,2.8,0.5l1.3,0l0,0l-0.9,1.7c-1.4,0-2.3,0.3-2.8,0.6l-2.7,1.8
		c-2.2,1.4-4.5,2.2-7,2.2h-0.8c-0.9,0-1.1-0.6-1.1-1.1c0-0.4,0.3-1,1.1-1H1240.6z M1245.5,248.7c0.7,0.5,1.3,1.1,1.9,1.7
		c-0.4,0.6-0.8,1.1-1.3,1.6c-0.6-0.6-1.3-1.1-1.9-1.7C1244.6,249.7,1245.1,249.2,1245.5,248.7z" id="PATH_77" class="area" title=""></path>
	<path d="M1261.6,237.9l1.1,2.2c0.4,0.8,0.8,1.7,0.8,3.1v1.8c0,1.4-0.8,3-2,4.5c-1,1-1.9,1.5-2.7,1.5c-1.2,0-2.6-0.4-4.1-1.2
		l0.2-0.5c0.5,0.2,1.1,0.3,1.8,0.3c2.3,0,4.6-2,5.7-4.4c0.1-0.3,0.2-0.5,0.2-0.7c0-0.3-0.1-0.6-0.2-0.9c-0.6-1.3-1.2-2.5-1.9-3.5
		C1260.7,239.2,1261.1,238.6,1261.6,237.9L1261.6,237.9z" id="PATH_78" class="area" title=""></path>
	<path d="M1267.1,241.9c0,1.4,0.6,2.5,2.6,2.5c1.3,0,2.3-0.4,3.5-1c0.2-0.1,0.3-0.3,0.3-0.4c0-0.9-0.6-2-1.5-3.1
		c-0.9-1-2.1-1.9-3.3-2.4c-0.4-0.2-0.5-0.4-0.5-0.6c0-0.4,0.5-1.2,0.8-1.8l0.1,0c1.3,0.8,2.8,2,3.9,3.3c1,1.2,1.6,2.5,1.6,3.8
		c0,1-0.3,1.9-0.7,2.8c-1.4,0.9-3,1.5-4.5,1.5c-1.8,0-3.1-1-3.1-3.4c0-0.3,0-0.7,0.1-1.2H1267.1z" id="PATH_79" class="area" title=""></path>
	<path d="M1286.8,235.6l0.2-0.1c1,0.9,4,2.8,4.6,4.6c0.2,0.7,0.2,1.2,0.2,1.8c0,1-0.4,2.4-0.9,3c-1,1.1-2.2,1.5-3.3,1.5
		c-0.8,0-1.5-0.2-1.9-0.5c-1.1-0.7-1.7-2-1.7-3.6c0-1.1,0.5-2.3,1-3.1c0.4-0.6,0.9-1.3,1.6-2
		C1286.6,236.7,1286.7,236.2,1286.8,235.6z M1285,242.1c0,1.2,1.3,2.2,2.7,2.2c0.9,0,1.8-0.3,2.5-0.9c0.5-0.4,0.7-0.7,0.7-1.1
		c0-0.5-0.4-1.2-0.9-1.8c-0.7-0.8-1.6-1.5-2.6-2.1C1285.9,239.7,1285,240.9,1285,242.1z" id="PATH_80" class="area" title=""></path>
	<path d="M1299.8,244.6c-1.9,0-3.5-0.9-3.5-3c0-1.1,0.4-2,1-2.8c0.7-0.8,1.5-1.3,2.3-1.3c0.9,0,1.8,0.7,2.4,1.8c0.6,1.1,1,2.6,1,4.4
		c0,1.5-0.4,2.9-1.2,4.2c-1.4,2.2-2.8,3.1-4.1,3.1c-1.5,0-3-0.5-4.6-1.6l0.2-0.5c0.8,0.4,1.6,0.5,2.4,0.5c1.6,0,3.3-0.8,4.7-2.5
		c0.7-0.8,1.4-1.7,1.5-2.7C1301.3,244.5,1300.6,244.6,1299.8,244.6z M1299.1,239.5c-0.8,0-1.8,0.8-1.8,1.4c0,1,1.4,1.7,2.7,1.7
		c0.6,0,1.2-0.1,1.8-0.2C1301.5,240.8,1300.5,239.5,1299.1,239.5z" id="PATH_81" class="area" title=""></path>
	<path d="M1311,240.7c0.9,2.2,1.8,3.5,3.6,3.5h0.3v2.1h-0.3c-0.7,0-1.2-0.1-1.6-0.5h-0.1c0,0.2,0,0.4,0,0.6c0,0.8-0.2,1.7-0.6,2.5
		c-1.3,2.2-2.7,3.2-3.9,3.2c-1.2,0-2.7-0.5-4-1.3l0.2-0.5c0.4,0.2,1,0.4,1.9,0.4c2.2,0,5-2.4,5.3-4.8c-0.1-0.2-0.2-0.5-0.4-0.7
		c-0.6-0.9-1-1.6-1.4-2.4c0.3-0.7,0.6-1.3,0.9-1.9L1311,240.7z" id="PATH_82" class="area" title=""></path>
	<path d="M1316.3,244.2c1.4,0,2.6,0,3.5-0.3c1-0.3,1.9-0.9,1.9-1.3c0-0.1,0-0.2,0-0.4c-0.6,0.1-1.2,0.1-1.8,0.1
		c-1.9,0-3.3-0.5-3.9-1.7c-0.1-0.3-0.2-0.7-0.2-1.2c0-1.2,0.4-2.4,1.2-3.2c0.6-0.7,1.4-1.1,2.1-1.1c1.3,0,2.4,1.2,3.1,3.2
		c0.4,1.1,0.7,2.3,0.7,3.8c0,1-0.2,1.9-0.8,2.5c-1,1.2-2.9,1.6-5.8,1.6h-1.3c-0.9,0-1.1-0.6-1.1-1.1c0-0.4,0.3-1,1.1-1H1316.3z
		 M1316.8,233.6c-0.7-0.6-1.2-1.1-1.9-1.7c0.4-0.6,0.9-1.1,1.3-1.5c0.7,0.5,1.2,1,1.8,1.7C1317.6,232.7,1317.3,233.2,1316.8,233.6z
		 M1318.7,237.2c-1.1,0-1.9,0.8-1.9,1.4c0,1.3,2.1,1.7,4.7,1.7C1321.1,238.8,1320,237.2,1318.7,237.2z M1319.9,233.4
		c-0.7-0.6-1.2-1.1-1.9-1.7c0.4-0.6,0.9-1.1,1.3-1.5c0.7,0.5,1.2,1,1.8,1.7C1320.7,232.5,1320.4,232.9,1319.9,233.4z" id="PATH_83" class="area" title=""></path>
</g>
</svg>
