<!--?xml version="1.0" encoding="utf-8"?-->
<!-- Generator: Adobe Illustrator 27.4.1, SVG Export Plug-In . SVG Version: 6.00 Build 0)  -->
<svg version="1.1" id="Layer_1" xmlns="http://www.w3.org/2000/svg" xmlns:xlink="http://www.w3.org/1999/xlink" x="0px" y="0px" viewBox="0 0 1920 1080" style="enable-background:new 0 0 1920 1080;" xml:space="preserve" width="100%" height="100%">
<style type="text/css">
	.st0{fill:#FDFAD4;stroke:#010101;stroke-width:0.5217;stroke-miterlimit:26.087;}
	.st1{fill:#DBECCB;stroke:#010101;stroke-width:0.5217;stroke-miterlimit:26.087;}
	.st2{fill:#FBD0D1;stroke:#010101;stroke-width:0.5217;stroke-miterlimit:26.087;}
	.st3{fill:#E8D0E5;stroke:#010101;stroke-width:0.5217;stroke-miterlimit:26.087;}
	.st4{fill:#DBECCB;stroke:#010101;stroke-width:0.7826;stroke-miterlimit:26.087;}
	.st5{fill:none;stroke:#020202;stroke-width:1.3043;stroke-miterlimit:26.087;}
</style>
<path id="_x34_20" class="st0 area" d="M470,583c4.4-1.8,7.6-5,10.7-7.8c-5.7-3.1-16.2-8.6-23.5-13.3c-6.8-4.7-15.7-3.9-24.8-3.4
	c-3.1,0.3-6.3,0.5-9.4,0.5c-13.3,0-20.9-7.8-27.9-14.6c-4.4-4.4-10.7-8.3-17.5-12.5c-3.1-1.8-6.3-3.9-9.7-6
	c-10.2-6.8-49-21.7-61.6-21.7c-4.7,0-8.9-2.1-12.5-5.5l0,0l-49.6,17H244l16.4,15.7l11,3.4l5,3.1l2.1,6l2.3,2.9l13.8,3.7l3.4,3.7
	l2.3,5l3.1,3.7l5,1.3l5.2,0.8l78.3,27.9c6.3-1.8,12.5-3.9,18.8-6C430.3,581.7,450.9,588.5,470,583z" title=""></path>
<path id="_x38_66" class="st1 area" d="M839.1,543.4c-24.5-9.7-53.2-12.3-80.6-8.1c-26.1,4.2-41,31.6-64.2,43.8
	c-30,16.4-68.3,20.6-101.2,13.6c-28.2-7.6-52.7-21.9-80.1-27.7c-9.1,6-23.2,11.7-25.3,12.5l-1.3,0.5l-1.3-0.5c-0.3,0-1.8-1-4.4-2.3
	c-3.1,3.1-6.3,6-10.7,7.8c-19,5.5-39.7-1.3-58.7,4.2c-6.3,1.8-12.5,3.9-18.8,6l2.9,1l7.8,5l4.2,5.2l2.1,5.7l0.5,13.6l1.3,5.2
	l3.7,4.4l23.2,18.3l18,11.5l12.3,11.5l2.9,1.3l5.7-3.4l5.7,0.5l10.7,3.7l5.2-0.5l9.7-2.9l11-1.6l15.4-7.8l5.2-0.8h2.3l2.1,0.8
	l4.4,4.2l2.3,0.8l4.2,0.8l16.2,5l5.2,0.8l18-1.6l5-1.3l4.4-0.8l5.2,0.8l7,6l4.4,8.6l3.7,9.4l4.2,7l8.9,4.4l21.7-0.8l10.7,2.1l7,7.3
	l2.9,8.1l4.2,6l10.7,1.6l20.3-1.6l2.9,0.5l4.2,2.3l2.9,0.8l2.9-0.8l1.6-1.6l1.6-1.6l1.6-1.6L758,713l23-20.1l2.9-1.6l15.4-14.6
	l3.7-1.6l10.7-3.4l4.4-0.8l5.7-1.3l2.3-4.2l1.3-5l2.9-5.2l8.9-4.4l11,1.6l19,7l11,0.5l9.9-2.1l8.9-5l7.8-7.3l3.7-5.7l2.3-7.8
	l1.6-8.6l-3.4-8.1l-2.6-7l-2.1-6.3l-5.5-16.2l-1.6-3.9c-6.3-13.6,2.6,2.6-4.2-8.6C885.5,557.2,861,550.2,839.1,543.4z" title=""></path>
<path id="_x38_62" class="st2 area" d="M856.8,524.3c-8.3,5.5-18.8-12-24.3-20.1c-19-27.4-44.1-1.6-72.8-7.3c-5.5,0-8.1-8.1-4.2-13.6
	c4.2-7.6,11-14.1,15.4-21.9c-8.6-0.5-17.5-1-25-1.8l-8.3-0.8c-25.3-2.1-72.3-6.3-89-6.3c-12.5,0-23.2,2.3-35.5,5
	c-6,1.3-12,2.6-18.8,3.7c-16.7,2.9-48,21.1-57.7,26.9c2.6,3.4,7.3,9.4,11.7,16.2c6.3,9.7,2.6,18.8-0.3,22.4
	c-0.5,0.5-24,25.8-29,32.3c-1.3,1.8-3.9,3.7-6.8,5.7c27.4,5.7,52.2,20.1,80.1,27.7c32.9,6.8,71.2,2.6,101.2-13.6
	c23.2-12.3,38.3-39.7,64.2-43.8c27.4-4.2,56.1-1.3,80.6,8.1c9.9,3.1,20.3,6.3,29.7,10.2c3.1-3.7,6-7.3,8.6-11.5
	C885.5,529.8,867.8,516,856.8,524.3z" title=""></path>
<path id="_x34_34" class="st3 area" d="M966.1,569.5c9.7-15.1,20.6-30,0-43.8c-4.2-2.6-2.6-11,2.6-13.6c16.4-6.8,30,13.6,46.4,9.7
	c17.7-4.2,15.1-30,11-42.3c-8.1-19-32.9-17.7-51.9-21.9c-20.6-4.2-24.5-31.6-45.1-36.8c-15.1-4.2-31.6-4.2-47.7,0
	c-7.3,1.3-15.1,2.9-22.7,3.9c-8.6,10.2-15.7,18.5-18,20.9c-7.3,7.3-26.9,18-34.7,18c-4.4,0-19.6-0.8-35.2-1.6
	c-4.2,7.8-11,14.3-15.4,21.9c-4.2,5.5-1.3,13.6,4.2,13.6c28.7,5.5,53.7-20.1,72.8,7.3c5.5,8.1,15.9,25.6,24.3,20.1
	c11-8.1,28.7,5.5,20.6,17.7c-2.6,4.2-5.5,8.1-8.6,11.5c11.2,4.7,21.1,11,26.3,19.8c6.8,11.2,12.8,36.5,19,50.1l5.2-18l2.3-2.3
	l3.4-1.6l7.8-7.8l5-2.1h2.1l7.8,1.6h8.9l2.1-0.5l3.7-2.9l2.3-0.5l5,0.3C964.8,583.3,962.5,576,966.1,569.5z" title=""></path>
<path id="_x38_69" class="st2 area" d="M1781.1,952.4c0-9.9-3.7-17.2-7-23.7l-1-2.3c-3.1-6.5-20.1-30-26.3-35c-7-5.2-15.4-13-15.1-20.6
	c0-2.3,1-5.7,5-8.3c9.7-6.3,11.5-8.3,6-18.3c-1-1.8-2.3-4.7-3.9-8.1c-27.9,5.7-50.3,23.7-77.5,35c-24.5,9.7-50.6-12.3-73.8-24.5
	c-15.1-8.1-35.5-1.3-47.7,11c-2.6,2.9-9.7,2.9-12.3,0c-24.5-21.9-54.8-19-84.8-24.5c-8.1-1.3-17.7-11-24.5-21.9
	c-2.6-2.6-8.1-5.5-12.3-2.6c-8.3,6.8-12.3,24.5-24.5,19c-9.7-4.2-20.6-6.8-26.1,2.6c-2.6,5.5-4.2,12.3-8.1,13.6
	c-16.7,6.3-32.6,17.2-48.3,27.7l0.5,2.3l0.5,1.3h0.8l2.9-0.5l1.3,0.5l5.2,6.5l0.5,1.3l2.3,2.3l2.1,5.2l2.9,11.5l5.7,14.3l1.6,13.8
	l1.6,4.2l3.4,2.1l31.3,2.9l-2.1,1.6l16.4,5.2l6,0.8l2.3-0.5l4.4-1.3l2.9-0.5l2.9,0.5l5,2.9l2.9,0.5l13.6-3.4l5.2-0.5l6,0.5l5,1.3
	l3.7,3.4l2.3,6.5l0.5,2.3l-0.5,0.8l-0.5,1.6l-0.8,3.1l-1.3,12.3h3.7l5.2-3.1l8.1-7.3l9.9-5.2l9.7-2.3l8.9,2.1l7.3,9.9l7.3,15.9
	l5.2,7.8l6.5,3.1l7.8,1.3l7.3,2.3l8.1,1.6l8.6-1.3l8.6-6.5l1.3-0.5l0.8,1.6l2.1,0.5l2.3-0.8l2.1-1.3l2.9-2.9h1.3l0.8,0.8l1.6,0.8
	l3.7-0.8l5.2-5l3.4-2.1l7.8-1.6l7-0.5l-1.6,4.4l4.4,2.3l12.5,0.8l15.1-2.3l43.3,8.6h20.3l2.9,0.8l1.3,2.1l0.8,2.9l1.6,2.9l2.1,1.3
	l8.1-0.5l9.4,4.4l6,7.8l11,18.8l2.9,2.9l4.2,1.6l5,1.3l5.2,0.5l2.3-0.8l2.1-0.8l2.1-0.8l1.6,1.3l2.1,2.1l2.1,0.5l5-1.3l13.6-7
	l3.1-0.5c-0.3-0.5-0.3-1-0.3-1.3C1777.7,1033.8,1781.1,964.2,1781.1,952.4z" title=""></path>
<path id="_x34_36" class="st1 area" d="M1351.7,741.7c-8.3-34.2-12.3-68.3-28.7-98.3c-5.5-9.7-32.9-2.6-28.7-17.7
	c1.3-6.8,13.6-13.6,6.8-21.9c-5.5-5.5-13.6-12.3-21.9-9.7c-12.8,4.4-24,14.1-36,20.6l-0.3,2.6l2.9,4.4l8.1,7.3l3.4,5.2l15.4,65.2
	l0.8,13l-4.2,35v2.9l0.8,6l0.8,2.3l1.3,2.3l4.4,4.4l2.9,5.2l1.6,6l1.3,12.5l1.6,2.1l-1.3,7.3l15.9,18.3l3.4,8.9l-2.3,5.7l-7.8,8.6
	l-1.3,6l0.5,3.4l2.3,5.2l0.8,5l3.1,10.2l0.3,1c15.7-10.4,31.6-21.4,48.3-27.7c4.2-1.3,5.5-8.1,8.1-13.6c5.5-9.7,16.4-6.8,26.1-2.9
	c2.6,1,4.7,1.3,6.5,0.8c7.6-25.8-11-50.3-25.8-73.3c-1.6-2.1-2.1-5.5-1.8-8.3C1355.6,745.6,1352.5,743.7,1351.7,741.7z" title=""></path>
<path id="_x38_57" class="st1 area" d="M977.1,318c9.7-4.2,20.6-13.6,31.6-9.7c13.6,4.2,21.9,16.4,36.8,12.3
	c13.6-5.5,23.2-17.7,35.5-20.6c23.2-2.6,45.1,5.5,69.7,2.6c2.9-1.3,8.1,6.8,11,15.1c2.6,8.1,16.4,1.3,20.6,8.1
	c11,16.4,9.7,45.1,34.2,38.3c6.8-2.9,19-8.1,19-15.1c-1.3-25.6,17.7-40.4,35.7-55.6c-8.3-11.5-13.3-25-13.3-30.3
	c0-6.3-6.5-38.3-9.7-53.2l-63.7,4.7l-4.7,18.5c-2.1,8.9-17.5,14.3-23.5,14.3c-2.6,0-10.7,0.5-18.8,0.8c-8.3,0.5-16.4,0.8-19,0.8
	c-16.2,0-27.7-0.5-34.7-1.8c-9.7-1.6-25-14.6-36.3-24.3c-1.6-1.3-3.1-2.6-4.4-3.9c-11.5-9.4-20.1-26.1-23.2-33.7
	c-3.9-9.7,0-62.1,1.6-68.6c1.3-5.2,7.3-58.4,9.9-83l-13,1.3c-1.8,0.5-14.1,3.4-22.2,5.2c-6.5,1.3-20.3,8.3-30.3,13.6
	c-2.3,1.3-4.7,2.3-6.5,3.4c-4.7,2.3-12,6.3-19.6,10.2c-9.4,5-19,9.9-26.6,13.8c-16.2,8.1-29.2,6.3-39.7-5.7
	c-6.3-7.6-18.5-8.1-25-7.8c0.5,1.8,0.8,3.1,1,4.4c9.1,11.7,24.8,30.5,29.5,32.9c5.5,2.9,13.8,11.5,15.4,20.3
	c0.8,5.2-0.8,9.9-4.4,13.6c-10.7,10.7-11,25.3-11,26.9c0,2.6-1.3,29-2.6,56.6c-1.3,26.3-2.6,53.7-2.6,56.3c0,3.4,7.3,14.6,15.7,19.6
	c6,3.7,10.7,12.8,15.1,21.7c2.6,5.2,5.2,10.2,7.8,13.3c1.6,2.1,2.6,4.2,2.9,6.5c10.2-3.9,17.5-13,27.1-17.7
	C953.9,315.1,966.1,321.9,977.1,318z" title=""></path>
<path id="_x38_59" class="st0 area" d="M1232.7,517.6c5.5-6.8,0-20.6-6.8-30c-1.3-2.6-1.3-8.1,0-11c11-17.7,34.2-24.5,39.7-43.8
	c8.1-30-23.2-49.3-31.6-78c0-0.3-0.3-0.8-0.3-1c-3.7,4.7-12,8.6-17.5,10.7c-24.5,6.8-23.2-21.9-34.2-38.3c-4.2-6.8-17.7,0-20.6-8.1
	c-2.6-8.1-8.1-16.4-11-15.1c-24.5,2.9-46.4-5.5-69.7-2.6c-12.3,2.6-21.9,15.1-35.5,20.6c-15.1,4.2-23.2-8.1-36.8-12.3
	c-11-4.2-21.9,5.5-31.6,9.7c-11,4.2-23.2-2.6-34.2,4.2c-9.7,4.7-17.2,13.8-27.1,17.7c1.6,9.1-5.7,19.6-13,29.7
	c-5.7,8.1-27.7,35-43.8,54.8c7.8-1,15.4-2.6,22.7-3.9c16.4-4.2,32.9-4.2,47.7,0c20.6,5.5,24.5,32.9,45.1,36.8
	c19,4.2,43.8,2.6,51.9,21.9c4.2,12.3,6.8,38.3-11,42.3c-16.4,4.2-30-16.4-46.4-9.7c-5.5,2.6-6.8,11-2.6,13.6
	c20.6,13.6,9.7,28.7,0,43.8c-3.7,6.5-1.6,13.8,3.4,20.6l3.1,0.3l2.3-0.5l9.7-2.3l10.7-1.6l2.9-0.8l4.2-4.2l1.3-0.8v-1.3l6-5
	l15.9-10.2l4.2-3.7l2.1-1.6l2.1-0.5l1.3-0.8l0.5-2.9l0.8-1.6l4.2-4.2l1.6-1.3l6.5-1.6l15.4-0.5l5.2-2.9l5.2-4.2l7.8-2.1l14.6-0.8
	l7.3,1.3l12.8,5.2l7,1.6l14.6,0.8l7.3,1.3l5.7,3.7l1.6-2.1l5.2,1.6l24.8,0.5l2.3,1.3l1.6,2.3l2.3,2.9l3.4,1.3h6.5l3.4-1.3l2.9-2.9
	l1.3,6.5l4.2,5.7l1.8,1.3C1214.5,548.9,1217.1,532.2,1232.7,517.6z" title=""></path>
<path id="_x34_77" class="st2 area" d="M1291.7,491.5c1.3,2.6,5.5,4.2,6.8,6.8c13.6,20.6,8.1,57.4,32.9,56.1c11-1.3,19-12.3,36.8-15.1
	c12.8-1.8,11-15.1,8.9-28.4c-3.4-1.6-7.3-2.9-12-3.4c-18.5-1.8-26.6-21.7-26.6-28.7c0-2.1-1-9.7-2.1-17c-1.6-10.4-3.1-22.4-3.1-27.4
	v-2.1c0.3-8.3,0.3-16.2-13-18.8c-5.7-1-8.1-4.4-8.9-6.8c-3.4-9.4,7.6-23.7,8.9-25.6c0.3-0.5,12-12.3,17-18.8
	c4.7-6,19.8-12.8,26.1-15.4c-1.6-5.2-4.4-17-4.4-23.7c0-2.1,0-7.3-8.9-7.3c-1.8,0-5.2-0.3-10.2-0.8c-9.9-1-24.5-2.6-39.4-2.6
	c-11.5,0-21.7-8.6-29-18.8c-18,15.1-37,30-35.7,55.6c0,1.6-0.8,3.1-1.8,4.4c0,0.3,0.3,0.8,0.3,1c8.1,28.7,39.7,47.7,31.6,78
	c-1.8,6.3-5.7,11.5-10.2,15.9C1271.3,458.3,1284.4,472.7,1291.7,491.5z" title=""></path>
<path id="_x38_77" class="st3 area" d="M1461,593c-18,0-20.9-3.9-26.6-15.4c-5-9.9-11.2-17.7-25.8-24.3c-13.8-6-15.4-18.3-16.4-25.3
	c-0.3-1.6-0.5-3.1-0.8-3.9c-0.8-2.6-5.7-9.4-14.6-13.6c2.1,13.6,3.9,26.6-8.9,28.4c-17.7,2.9-26.1,13.6-36.8,15.1
	c-24.5,1.3-19-35.5-32.9-56.1c-1.3-2.6-5.5-4.2-6.8-6.8c-7.3-18.8-20.3-33.1-36.3-42.8c-9.4,9.1-22.2,15.9-29.5,27.9
	c-1.3,2.6-1.3,8.1,0,11c6.8,9.7,12.3,23.2,6.8,30c-15.7,14.9-18.3,31.6-19.6,49l3.7,2.6l7,1.3v2.1l-2.1,1.6l-3.7,5.2l-1.3,0.8
	l-2.3,1.3v2.1l1.6,1.3l2.9-0.5v2.9l0.8,2.1l1.3,1.3l5-2.3l1.6,1.3l1.3,1.6l1.3,1.3l1.3,0.5l0.8,1.3l1.3,1.6l2.3,0.5l2.3-0.5l7.3-3.1
	l-1.6,2.1l-0.8,2.9l0.5,2.3l2.1,2.1l-2.9,1.3l-2.3,1.6l-2.9,1.3l-3.4-0.5l2.3,2.9l7.3,5.2l-0.3,1.8c12-6.8,23.2-16.2,36-20.6
	c8.1-2.6,16.4,4.2,21.9,9.7c6.8,8.3-5.5,15.1-6.8,21.9c-4.2,15.1,23.2,8.1,28.7,17.7c16.4,30,20.6,64.2,28.7,98.3
	c0.8,2.1,3.9,3.7,7.8,5.2c0.3-2.6,1.3-4.7,3.1-5.2c26.1-6.8,57.4,20.6,75.1-5.5c5.5-6.8-5.5-9.7-6.8-15.1c-1.3-5.5,4.2-11,2.9-15.1
	c-2.9-17.7-4.2-32.9,9.7-47.7c4.2-4.2-2.6-11-4.2-16.4c-4.2-9.7,1.3-21.9,12.3-27.4c8.1-3.7,9.1-13,12.3-21.4
	C1462.8,593,1462,593,1461,593z" title=""></path>
<path id="_x31_05" class="st0 area" d="M1720.3,794.6c-5.2-12.8-10.4-24.8-12.3-29c-4.7-9.4-10.4-40.4-12-48.5c-0.8,0.3-1.3,0.5-2.1,0.5
	c-0.8,0.3-1.6,0.3-2.6,0.3c-10.2,0-24.3-8.3-36-15.1c-1.6-0.8-3.1-1.8-4.4-2.6c-1.6-0.8-3.1-1.8-5-2.9c-12-6.8-25.6-14.3-29-22.7
	c-1-2.6-1.6-5-1.8-7.3c-1-5-1.8-9.4-11-17.2c-13-11.5-17.2-11-29.7-7.8c-15.4,3.9-40.2-7.3-48.8-14.3c-6-4.7-13.3-12.5-20.3-20.1
	c-3.1-3.4-6.3-6.5-8.9-9.4c-6.3-6.3-15.1-6.3-28.2-6c-1.6,0-3.1,0-4.7,0c-3.1,8.3-4.2,18-12.3,21.4c-11,5.5-16.4,17.7-12.3,27.4
	c1.3,5.5,8.1,12.3,4.2,16.4c-13.6,15.1-12.3,30-9.7,47.7c1.3,4.2-4.2,9.7-2.9,15.1c1.3,5.5,12.3,8.1,6.8,15.1
	c-17.7,26.1-49.3-1.3-75.1,5.5c-4.2,1.3-4.2,9.7-1.3,13.6c14.9,22.7,33.4,47.5,25.8,73.3c7.6-2.1,11.5-14.3,18-19.8
	c4.2-2.6,9.7,0,12.3,2.9c6.8,11,16.4,20.6,24.5,21.9c30,5.5,60.3,2.9,84.8,24.5c2.6,2.6,9.7,2.6,12.3,0c12.3-12.3,32.9-19,47.7-11
	c23.2,12.3,49.3,34.2,73.8,24.5c27.1-11.2,49.6-29.2,77.5-35C1733.3,826.2,1726.6,809.7,1720.3,794.6z" title=""></path>
<polygon id="_x31_02" class="st4 area active" points="546.1,726.5 544.3,725.5 544,723.4 544,721 543.5,719 539.9,717.7 531.3,716.3 
	527.3,715.3 522.4,714.8 518.5,716.1 514.6,719 512.2,722.9 517.2,731.2 524.7,735.1 544.3,736.4 546.9,734.9 548.2,731.5 
	547.7,728.3 " title=""></polygon>
<polygon id="_x38_72" class="st2 area" points="1074.4,595.3 1068.1,592.4 1063.4,591.7 1054,591.7 1022.5,599 997.4,616.2 
	988.3,618.5 954.9,605.2 949.2,608.9 950.7,611.2 954.4,614.6 958.6,618.5 960.7,623.5 962,636.3 960.9,641.5 957.3,645.7 
	958.3,647.5 959.1,649.6 956.5,650.3 954.1,652.4 952.6,653.2 950,653.7 945.3,653.2 942.7,653.2 927.3,659.7 922.3,663.9 
	911.3,670.7 907.2,672.5 902.7,673.3 870.9,684.3 858.4,691.6 855.8,690.8 853.4,692.3 842,687.9 839.6,690.8 842,699.7 843.3,701 
	842.7,704.1 841.2,709 842.5,716.1 843.5,719.2 845.3,721 847.7,720.5 850.6,719.7 852.9,718.2 854.2,716.1 855,713.5 857.6,713.5 
	860.2,714.8 862.3,715.3 864.4,714 868.8,711.1 879.5,708.3 894.1,706.2 898.3,704.1 906.4,697.6 920,691.6 933,682.2 937.7,679.3 
	942.7,678.5 953.6,680.1 958.6,680.1 963,677.2 967.4,673.3 983.3,664.7 989.6,669.9 994.8,675.4 1000,677.7 1007.1,673.6 
	1018.8,661.3 1020.9,660.3 1023,657.7 1031.9,653 1034,650.3 1035.5,646.7 1045.4,636 1048.3,631.3 1053.5,618.5 1058.7,613.8 
	1073.9,609.7 1081.2,604.7 1079.6,599.7 " title=""></polygon>
<line id="LINE_29" class="st5 area" x1="355.7" y1="549.7" x2="250.6" y2="575.5" title=""></line>
<line id="LINE_30" class="st5 area" x1="1072.8" y1="701.2" x2="987.3" y2="645.1" title=""></line>
<g id="G_31" class="area" title="">
	<path id="PATH_32" d="M923.1,249.4c0,3.7-2.3,5.5-7.3,5.5c-1.8,0-3.1-0.3-3.9-0.8c-1-0.5-1.6-1.8-1.6-3.4c0-0.8,0.3-1.6,0.5-2.3
		c0.3-0.3,0.3-0.5,0.5-0.5c0.3,0,0.3,0.3,0.3,0.8c0,0.3,0,0.5,0,0.8c0,1,0.5,1.8,1.6,2.1c0.5,0.3,1.6,0.3,2.9,0.3
		c3.9,0,5.7-0.5,5.7-1.8c0-1.8-2.3-4.4-6.8-7.6l0.8-2.6c0-0.3,0.3-0.3,0.3-0.3s0.3,0,0.5,0.3C920.7,243.1,923.1,246.3,923.1,249.4z" class="area" title=""></path>
	<path id="PATH_33" d="M933.5,254.9h-1.8c-1.8,0-3.4-0.8-3.9-2.3c-0.5-1-0.8-2.9-0.8-5v-5c0-2.3-0.3-5.7-0.5-10.2l1.6-1.8
		c0.3-0.3,0.5-0.3,0.5,0c0.3,2.3,0.5,5.7,0.5,10.2v7.6c0,2.1,1,3.1,3.1,3.1h1.3L933.5,254.9L933.5,254.9z" class="area" title=""></path>
	<path id="PATH_34" d="M939.5,249.7c0,3.4-1.8,5.2-5.2,5.2h-2.1v-3.1h1.8c2.6,0,3.9-0.5,3.9-1.3c0-0.8-0.5-1.8-1.8-3.1l1-2.6
		c0-0.3,0.3-0.3,0.3-0.3s0.3,0.3,0.5,0.5C939,246.3,939.5,247.8,939.5,249.7z M938.7,260.6l-2.1,2.1l-2.1-2.1l2.1-2.1L938.7,260.6z" class="area" title=""></path>
	<path id="PATH_35" d="M950.2,227c-1,1-2.6,1.3-4.2,1.3c-0.3,0-0.5,0-1,0c-0.5,0-0.8,0-1,0c-0.3,0-0.5,0.3-0.8,0.5
		c-0.3,0.3-0.5,0.5-0.5,0.5c-0.3,0-0.3-0.3-0.3-0.5s0.3-0.8,0.5-1.3c0.3-0.8,0.5-1,0.8-1c0.3,0,0.8,0,1.6,0.3c0.8,0,1.3,0.3,1.6,0.3
		c1.6,0,2.6,0,3.4-0.3c0.5,0,0.8-0.3,0.8-0.3h0.3C950.7,226.4,950.5,226.4,950.2,227z M948.4,251.5c0,1-0.3,2.1-0.8,2.9
		c-0.3,0.5-0.5,0.8-0.5,0.8s-0.3-0.3-0.3-1c0-3.1-0.5-10.4-1.6-22.2l2.1-2.1c0.3-0.3,0.3-0.3,0.3-0.3s0,0.3,0,0.5
		C948.4,233.5,948.4,240.8,948.4,251.5z" class="area" title=""></path>
	<path id="PATH_36" d="M986.7,254.9h-6c-0.8,0-1.6,0-2.1,0.3c-1,0.3-1.3,0.8-1.3,1.3c0,0.3,1.3,0.5,3.7,1c2.6,0.5,3.7,1,3.7,1.6
		c0,2.1-0.5,3.7-1.8,4.7c-2.1,1.8-5.5,2.6-10.4,2.6c-6,0-9.1-2.3-9.1-6.8c0-1,0.3-2.1,0.8-3.4s1-2.3,1.6-3.1
		c0.3-0.3,0.5-0.5,0.8-0.5c0.3,0,0.3,0,0.3,0.3s0,0.5-0.3,0.8c-0.8,1.6-1.3,3.1-1.3,4.7c0,1.8,0.8,3.1,2.6,3.9c1.3,0.8,2.9,1,5,1
		s3.9,0,5.7-0.3c3.1-0.5,4.7-1,4.7-2.1c0-0.5-0.8-0.8-2.1-1c-2.1-0.3-3.4-0.5-3.9-0.8c-1.3-0.3-2.1-1-2.1-1.8c0-0.5,0.3-1.3,1-2.3
		c0.5-0.8,1-1.3,1.8-1.8c1.3-1,2.9-1.6,5.2-1.6h3.7V254.9z" class="area" title=""></path>
	<path id="PATH_37" d="M1007.1,247.3l-1,2.1c-1.8,0-3.4,0-4.2,0.3c-1,0.5-2.6,1-4.7,2.1c-2.1,1-3.7,1.8-4.7,2.1
		c-1.6,0.5-3.4,0.8-5,0.8h-1.8v-3.1h2.1c2.3,0,4.4-0.5,6.3-1.3l6-2.6c-1-0.3-2.6-0.8-4.7-1.6c-1.8-0.8-2.9-1-3.4-1
		c-1,0-2.1,0.5-3.1,1.3c-0.3,0.3-0.3,0.3-0.5,0.3c-0.3,0-0.3,0-0.3-0.3V246c0.8-2.6,2.3-3.7,4.4-3.7c0.8,0,1.8,0.3,2.9,0.8
		c2.1,1,3.7,1.6,4.7,2.1c1.8,0.5,3.9,1,6.3,1c0.5,0,0.8,0,0.8,0.3C1007.3,246.8,1007.3,246.8,1007.1,247.3z M998.5,260.1l-2.1,2.1
		l-2.1-2.1l2.1-2.1L998.5,260.1z" class="area" title=""></path>
	<path id="PATH_38" d="M1017.8,254.9h-1.8c-1.8,0-3.4-0.8-3.9-2.3c-0.5-1-0.8-2.9-0.8-5v-5c0-2.3-0.3-5.7-0.5-10.2l1.6-1.8
		c0.3-0.3,0.5-0.3,0.5,0c0.3,2.3,0.5,5.7,0.5,10.2v7.6c0,2.1,1,3.1,3.1,3.1h1.3L1017.8,254.9L1017.8,254.9z" class="area" title=""></path>
	<path id="PATH_39" d="M1038.1,247.3l-1,2.1c-1.8,0-3.4,0-4.2,0.3c-1,0.5-2.6,1-4.7,2.1c-2.1,1-3.7,1.8-4.7,2.1
		c-1.6,0.5-3.4,0.8-5,0.8h-1.8v-3.1h2.1c2.3,0,4.4-0.5,6.3-1.3l6-2.6c-1-0.3-2.6-0.8-4.7-1.6c-1.8-0.8-2.9-1-3.4-1
		c-1,0-2.1,0.5-3.1,1.3c-0.3,0.3-0.3,0.3-0.5,0.3c-0.3,0-0.3,0-0.3-0.3V246c0.8-2.6,2.3-3.7,4.4-3.7c0.8,0,1.8,0.3,2.9,0.8
		c2.1,1,3.7,1.6,4.7,2.1c1.8,0.5,3.9,1,6.3,1c0.5,0,0.8,0,0.8,0.3C1038.4,246.8,1038.1,246.8,1038.1,247.3z" class="area" title=""></path>
</g>
<g id="G_40" class="area" title="">
	<path id="PATH_41" d="M1285.2,408c-0.8,0.5-1.3,1-1.8,1.6c-0.8,0.5-1.6,1-2.6,1.3c-2.1,0.5-4.2,0-6.3-1.3c-1.8-1-3.4-2.6-4.7-4.7
		c-1.3-1.8-1.8-3.7-1.8-5.5c0.3-2.1,1-3.7,2.9-5c1-0.8,2.1-1,3.7-1.3c1-0.3,1.8-0.3,2.6-0.3c0.3,0,0.5,0,0.8,0.3c0,0.3,0,0.3,0,0.3
		s-0.3,0-0.5,0.3c-1.8,0.3-3.1,0.8-4.2,1.6s-1.8,1.8-2.1,2.9c-0.3,1.6,0,3.4,1.3,5.2c1.6,2.1,3.1,3.7,5,5c1.6,1,2.9,1.3,3.7,1
		c0.3,0,0.8-0.3,1-0.5c0.5-0.3,1.3-1,1.8-1.8c0.5-0.8,1.3-2.1,2.1-4.4l2.3-0.3c0.3,0,0.5,0,0.5,0s0,0.3,0,0.5
		C1287.8,404.6,1286.7,406.4,1285.2,408z M1290.1,395.2l-2.9-0.5l0.5-2.9l2.9,0.5L1290.1,395.2z" class="area" title=""></path>
	<path id="PATH_42" d="M1291.2,411.7c-0.8,0.5-1.8,1-2.9,1c-0.5,0-0.8,0-1,0c0,0,0.3-0.3,0.8-0.8c2.6-1.6,8.3-6.3,17.5-13.8l2.9,0.8
		c0.3,0,0.5,0,0.5,0.3c0,0,0,0.3-0.3,0.3C1305.8,401.5,1300,405.7,1291.2,411.7z" class="area" title=""></path>
	<path id="PATH_43" d="M1301.9,423.4c-3.1,2.1-5.7,1-8.6-2.9c-1-1.6-1.6-2.6-1.6-3.7c0-1.3,0.5-2.3,1.8-3.1c0.5-0.5,1.3-0.8,2.3-0.8
		c0.5,0,0.8,0,0.8,0c0,0.3,0,0.3-0.5,0.5c-0.3,0.3-0.5,0.3-0.8,0.5c-0.8,0.5-1.3,1.3-1,2.3c0.3,0.5,0.5,1.6,1.3,2.6
		c2.1,3.1,3.7,4.4,4.7,3.7c1.6-1,2.3-4.4,2.6-9.9l2.6-0.8c0.3,0,0.5,0,0.5,0s0,0.3,0,0.5C1305.8,418.2,1304.2,421.8,1301.9,423.4z" class="area" title=""></path>
	<path id="PATH_44" d="M1305.8,437.2c-3.1,2.1-6.8,2.9-10.4,2.3c-1.3-0.3-1.8-0.5-2.1-0.5c-0.8-1.3-1.6-2.6-2.3-4.4
		c-0.3-0.5-0.3-1-0.3-1s0.5,0.3,1,0.5c1.6,1.3,3.7,2.3,6,3.1c1,0.3,2.1,0.5,3.1,0.5c1.3,0,2.3-0.3,2.9-0.5l0.8-0.5l-2.1-2.9
		c-1.3-1.8-1.3-3.4,0.5-4.7c1-0.8,2.3-1.3,4.2-1.3c1.8-0.3,3.1,0,3.7,1c1,1.3,0.8,2.9-0.8,5C1308.7,434.9,1307.3,435.9,1305.8,437.2
		z M1306.6,434.3c0.8-0.5,1.3-1,1.6-2.1c0.3-1,0.3-1.8-0.3-2.3c-0.3-0.5-0.8-0.8-1.3-0.8c-0.5,0-1,0-1.6,0.3c-1,0.8-1,1.8,0,3.1
		C1305.3,433,1305.8,433.6,1306.6,434.3z" class="area" title=""></path>
	<path id="PATH_45" d="M1312,448.7c-2.1,1.3-4.4,2.1-7.3,2.1c-2.3,0-3.9-0.5-4.4-1.3c-1-1.6-2.1-3.1-2.6-4.4c-0.3-0.5-0.3-0.8,0-0.8
		s0.3,0,0.8,0.3c1.6,1.6,3.7,2.6,6.3,3.4c2.9,0.8,5,0.8,6.3-0.3c1-0.5,1.6-2.1,2.1-4.7l2.6-0.5c0.3,0,0.3,0,0.5,0c0,0,0,0.3,0,0.5
		c-0.3,1-0.8,2.1-1.6,3.1C1313.6,447.4,1312.8,448.2,1312,448.7z" class="area" title=""></path>
</g>
<g id="G_46" class="area" title="">
	<path id="PATH_47" d="M1067.3,423.1c0,3.7-1.6,5.5-4.7,5.5c-1.8,0-2.9-0.8-3.4-2.3c-0.8,1.6-2.1,2.3-3.7,2.3c-0.5,0-1.3,0-1.8-0.3
		c0,1.6-0.3,3.1-0.3,5c-0.8,1.8-2.1,3.4-4.4,4.4c-2.1,0.8-4.2,1.3-6.5,1.3s-4.2-0.5-5.7-1.6c-1.6-1.3-2.3-2.9-2.3-5.2
		c0-1.3,0.3-2.3,0.8-3.9c0.5-1,0.8-1.8,1.3-2.3c0.3-0.3,0.5-0.3,0.5-0.3c0.3,0,0.3,0,0.3,0.3c0,0,0,0.3,0,0.5c-0.8,1.6-1,3.1-1,4.4
		s0.5,2.3,1.3,3.4c1,1.3,2.9,1.8,5.2,1.8c2.6,0,5-0.5,6.8-1.3c1.6-0.8,2.6-1.6,2.9-2.6c0.3-0.3,0.3-0.8,0-1.8c0-0.8-0.3-1.6-0.3-1.8
		c-0.3-0.8-1-2.1-2.6-3.9l1-2.1c0.3-0.3,0.3-0.5,0.3-0.5s0.3,0,0.3,0.3c0.8,1,1.3,1.8,1.6,2.1c0.8,0.8,1.6,1,2.6,1s2.1-0.3,2.6-1
		c0.3-0.5,0.5-1,0.8-2.3c0-0.5,0.3-0.8,0.5-0.8c0.3,0,0.3,0.3,0.3,0.8c0.3,1.3,0.5,2.1,1,2.6s1.6,0.8,2.9,0.8c0.5,0,1-0.3,1.3-0.5
		c0.5-0.3,0.8-0.8,0.8-1.3c0-0.8-0.5-1.6-1.6-2.9l1.3-2.3c0.3-0.3,0.3-0.3,0.3-0.3l0.3,0.3C1066.8,420.3,1067.3,421.8,1067.3,423.1z
		" class="area" title=""></path>
	<path id="PATH_48" d="M1077.8,428.6h-1.8c-1.8,0-3.4-0.8-3.9-2.3c-0.5-1-0.8-2.9-0.8-5v-5c0-2.3-0.3-5.7-0.5-10.2l1.6-1.8
		c0.3-0.3,0.5-0.3,0.5,0c0.3,2.3,0.5,5.7,0.5,10.2v7.6c0,2.1,1,3.1,3.1,3.1h1.3L1077.8,428.6L1077.8,428.6z" class="area" title=""></path>
	<path id="PATH_49" d="M1090.6,428.6h-2.1c-2.3,0-3.9-0.8-5-2.3c-0.8,1.6-2.6,2.3-5.5,2.3h-1.6v-3.1h2.3c2.6,0,3.9-1,4.2-2.9
		c0-0.8,0.3-1.3,0.5-1.3s0.5,0.5,0.5,1.3c0.3,1.8,1.6,2.9,3.9,2.9h2.3v3.1H1090.6z M1084.8,434.3l-2.1,2.1l-2.1-2.1l2.1-2.1
		L1084.8,434.3z" class="area" title=""></path>
	<path id="PATH_50" d="M1104.4,423.7l-0.8,2.3l-7,1.8c-2.1,0.5-3.9,0.8-5.5,0.8h-1.3v-3.1h2.1c0.5,0,1,0,2.1-0.3
		c-1.6-1.3-2.3-2.3-2.3-3.7c0-1,0.5-2.3,1.8-3.9c1.6-1.8,3.1-2.9,4.7-2.9c1.8,0,3.1,0.8,4.2,2.3c0.3,0.5,0.5,0.8,0.5,1
		c0,0,0,0.3-0.3,0.3s-0.5,0-1.3-0.3c-1.3-0.3-2.3-0.5-3.4-0.5c-0.8,0-1.6,0.3-2.6,0.8s-1.8,1-1.8,1.8c0,0.5,0.5,1.3,1.3,2.1
		c1,1,2.3,1.6,3.7,1.6c0.5,0,2.3-0.5,5.5-1.3c0.3,0,0.3,0,0.5,0l0,0C1104.4,423.1,1104.4,423.4,1104.4,423.7z" class="area" title=""></path>
	<path id="PATH_51" d="M1117.4,428.9c0,2.6-0.8,5-2.3,7.3c-1.3,1.8-2.6,2.9-3.4,2.9c-2.1,0-3.7,0-5.2-0.3c-0.5,0-0.8-0.3-0.8-0.3
		s0.3-0.3,0.8-0.3c2.1-0.5,4.2-1.6,6.3-3.1c2.1-1.8,3.4-3.7,3.4-5.5c0-1-0.8-2.6-2.6-4.4l1.3-2.3c0-0.3,0.3-0.3,0.3-0.3l0.3,0.3
		c0.5,0.8,1.3,1.8,1.6,3.1C1117.2,426.8,1117.4,428.1,1117.4,428.9z" class="area" title=""></path>
	<path id="PATH_52" d="M1137.8,428.6h-1c-1,0-1.8-0.3-2.6-1c-0.5-0.5-1-1-1.6-2.1c-0.5,1-1.3,1.8-2.1,2.3c-1,0.5-2.3,0.8-4.4,0.8
		c-3.7,0-5.5-1.3-5.5-3.9c0-0.8,0.3-1.8,0.8-2.6c0.3-0.3,0.3-0.5,0.5-0.5s0.3,0.3,0.3,0.5c0,0.3,0,0.3,0,0.8c0,0.3,0,0.5,0,0.8
		c0,1.6,1.3,2.3,3.9,2.3c3.7,0,5.5-0.8,5.5-2.1c0-0.8-1-3.7-3.1-8.6l1-2.1c0.3-0.3,0.3-0.5,0.3-0.5s0.3,0.3,0.3,0.5
		c0.8,2.1,2.1,5.2,3.7,9.4c0.8,2.1,1.8,3.1,3.4,3.1h0.8L1137.8,428.6L1137.8,428.6z" class="area" title=""></path>
	<path id="PATH_53" d="M1150.8,428.6h-2.1c-2.3,0-3.9-0.8-5-2.3c-0.8,1.6-2.6,2.3-5.5,2.3h-1.6v-3.1h2.3c2.6,0,3.9-1,4.2-2.9
		c0-0.8,0.3-1.3,0.5-1.3c0.3,0,0.5,0.5,0.5,1.3c0.3,1.8,1.6,2.9,3.9,2.9h2.3v3.1H1150.8z M1145.6,415.3l-2.1,2.1l-2.1-2.1l2.1-2.1
		L1145.6,415.3z" class="area" title=""></path>
	<path id="PATH_54" d="M1157.1,423.4c0,3.4-1.8,5.2-5.2,5.2h-2.1v-3.1h1.8c2.6,0,3.9-0.5,3.9-1.3s-0.5-1.8-1.8-3.1l1-2.6
		c0-0.3,0.3-0.3,0.3-0.3s0.3,0.3,0.5,0.5C1156.6,420.3,1157.1,421.8,1157.1,423.4z M1156,434.3l-2.1,2.1l-2.1-2.1l2.1-2.1
		L1156,434.3z" class="area" title=""></path>
</g>
<g id="G_55" class="area" title="">
	<path id="PATH_56" d="M876.1,491.2h-1c-1,0-1.6-0.3-2.1-0.5c0,0.3,0,0.5,0,0.8c0,2.3-0.8,4.7-2.3,7c-1.3,2.1-2.6,2.9-3.4,2.9
		c-2.1,0-3.7,0-5.2-0.3c-0.5,0-0.8-0.3-0.8-0.3s0.3-0.3,0.8-0.3c2.1-0.5,4.2-1.6,6.3-3.1c2.1-1.8,3.4-3.7,3.4-5.5
		c0-1-0.8-2.6-2.6-4.4l1.3-2.3c0-0.3,0.3-0.3,0.3-0.3l0.3,0.3c0.8,1,1.3,1.8,1.8,2.1c0.8,0.5,1.8,1,2.9,1h0.8v2.9H876.1z" class="area" title=""></path>
	<path id="PATH_57" d="M888.9,491.2h-2.1c-2.3,0-3.9-0.8-5-2.3c-0.8,1.6-2.6,2.3-5.5,2.3h-1.6v-3.1h2.3c2.6,0,3.9-1,4.2-2.9
		c0-0.8,0.3-1.3,0.5-1.3c0.3,0,0.5,0.5,0.5,1.3c0.3,1.8,1.6,2.9,3.9,2.9h2.3v3.1H888.9z M880.3,497l-2.1,2.1l-2.1-2.1l2.1-2.1
		L880.3,497z M885,497l-2.1,2.1l-2.1-2.1l2.1-2.1L885,497z" class="area" title=""></path>
	<path id="PATH_58" d="M907.7,491.2h-1.6c-1.3,0-2.6-0.8-3.7-2.1c-0.8,2.1-1.6,3.1-2.3,3.1c-0.8,0-2.1-0.5-3.7-1.3
		c-1.3-0.8-2.3-1.6-2.9-2.1c-1.3,1.6-2.6,2.3-3.9,2.3h-1.6v-3.1h1.6c1.3,0,2.3-0.5,3.4-1.6c0.8-0.8,1.6-1.8,2.6-2.9
		c1-1,1.8-1.6,2.6-1.6c1,0,1.8,0.5,2.6,1.6c0.5,0.5,1,1.6,2.3,2.9c0.8,1,1.8,1.6,2.9,1.6h1.6V491.2z M900.7,489.1
		c0-0.8-0.3-1.6-0.8-2.6s-1.3-1.6-2.3-1.6c-0.8,0-1.8,0.8-2.9,2.1c0.3,0.3,1,0.8,2.3,1.6c1.3,0.8,2.3,1,3.1,1
		C900.4,489.7,900.7,489.4,900.7,489.1z" class="area" title=""></path>
	<path id="PATH_59" d="M928,483.7l-1,2.1c-1.8,0-3.4,0-4.2,0.3c-1,0.5-2.6,1-4.7,2.1c-2.1,1-3.7,1.8-4.7,2.1c-1.6,0.5-3.4,0.8-5,0.8
		h-1.8v-3.1h2.1c2.3,0,4.4-0.5,6.3-1.3l6-2.6c-1-0.3-2.6-0.8-4.7-1.6c-1.8-0.8-2.9-1-3.4-1c-1,0-2.1,0.5-3.1,1.3
		c-0.3,0.3-0.3,0.3-0.5,0.3c-0.3,0-0.3,0-0.3-0.3v-0.3c0.8-2.6,2.3-3.7,4.4-3.7c0.8,0,1.8,0.3,2.9,0.8c2.1,1,3.7,1.6,4.7,2.1
		c1.8,0.5,3.9,1,6.3,1c0.5,0,0.8,0,0.8,0.3C928.3,483.1,928.3,483.4,928,483.7z M920.7,471.9l-2.1,2.1l-2.1-2.1l2.1-2.1L920.7,471.9
		z" class="area" title=""></path>
</g>
<g id="G_60" class="area" title="">
	<path id="PATH_61" d="M1342.8,601c0,1.8-0.5,3.4-1.8,4.2c-0.8,0.5-2.3,1-4.7,1.3c-2.6,0.5-5.2,0.8-8.1,0.8
		c-6.8,0-10.4-1.8-10.4-5.7c0-1.3,0.5-2.6,1.6-3.9c0.3-0.3,0.3-0.5,0.5-0.5s0.3,0,0.3,0.3c0,0,0,0.3,0,0.5c-0.3,0.8-0.5,1.6-0.5,2.3
		c0,2.6,3.4,3.9,9.9,3.9c3.1,0,6-0.3,8.1-0.5c2.6-0.5,3.7-1,3.7-1.8c0-0.5-0.5-1.6-1.8-3.1l1.3-2.3c0.3-0.3,0.3-0.3,0.5,0
		C1342.3,598.2,1342.8,599.7,1342.8,601z M1332.4,612.8l-2.1,2.1l-2.1-2.1l2.1-2.1L1332.4,612.8z" class="area" title=""></path>
	<path id="PATH_62" d="M1353.3,607h-1.8c-1.8,0-3.4-0.8-3.9-2.3c-0.5-1-0.8-2.9-0.8-5v-5c0-2.3-0.3-5.7-0.5-10.2l1.6-1.8
		c0.3-0.3,0.5-0.3,0.5,0c0.3,2.3,0.5,5.7,0.5,10.2v7.6c0,2.1,1,3.1,3.1,3.1h1.3L1353.3,607L1353.3,607z" class="area" title=""></path>
	<path id="PATH_63" d="M1366,607h-2.1c-2.3,0-3.9-0.8-5-2.3c-0.8,1.6-2.6,2.3-5.5,2.3h-1.6v-3.1h2.3c2.6,0,3.9-1,4.2-2.9
		c0-0.8,0.3-1.3,0.5-1.3s0.5,0.5,0.5,1.3c0.3,1.8,1.6,2.9,3.9,2.9h2.3v3.1H1366z M1360.8,593.5l-2.1,2.1l-2.1-2.1l2.1-2.1
		L1360.8,593.5z" class="area" title=""></path>
	<path id="PATH_64" d="M1378.8,607h-2.1c-2.3,0-3.9-0.8-5-2.3c-0.8,1.6-2.6,2.3-5.5,2.3h-1.6v-3.1h2.3c2.6,0,3.9-1,4.2-2.9
		c0-0.8,0.3-1.3,0.5-1.3s0.5,0.5,0.5,1.3c0.3,1.8,1.6,2.9,3.9,2.9h2.3v3.1H1378.8z M1370.2,612.8l-2.1,2.1l-2.1-2.1l2.1-2.1
		L1370.2,612.8z M1374.7,612.8l-2.1,2.1l-2.1-2.1l2.1-2.1L1374.7,612.8z" class="area" title=""></path>
	<path id="PATH_65" d="M1391.9,601.8c0,1.3,0,2.3-0.5,3.4c-0.5,1.3-1.3,2.1-2.1,2.1c-1.3,0-3.4-0.8-6-2.6c-0.8,1-1.3,1.6-1.6,1.8
		c-0.8,0.5-1.6,0.8-2.6,0.8h-1.3v-3.1h1.8c1,0,2.1-0.5,3.1-1.8c0.5-0.5,1.3-1.8,2.3-3.4c0.8-1.3,1.8-1.8,2.6-1.8
		c1.3,0,2.3,0.5,3.1,1.8C1391.3,599.7,1391.6,600.8,1391.9,601.8z M1390.3,603.7c0-0.8-0.3-1.6-0.8-2.6c-0.5-1-1.3-1.6-2.1-1.6
		c-0.8,0-1.6,0.8-2.6,2.3c0.5,0.5,1.3,1,2.3,1.6s2.1,0.8,2.6,0.8C1390,604.4,1390.3,604.2,1390.3,603.7z" class="area" title=""></path>
</g>
<g id="G_66" class="area" title="">
	<path id="PATH_67" d="M1091.1,711.4h-1.3c-1.6,0-2.9-0.3-3.7-1c0,0.3,0.3,0.8,0.3,1.3c0,2.6-0.8,4.2-2.6,4.2
		c-1.6,0-2.6-0.8-3.7-2.3c-0.8-1.3-1-2.9-1-4.4c0-0.3,0-0.8,0-1c-0.3,0-0.5,0-0.8,0c-1.8,0-2.9,0.5-3.7,1.3c0.5,4.2,0.8,7.3,0.8,9.4
		c0,1-0.3,2.1-0.8,3.7c-0.3,0.5-0.3,0.8-0.5,0.8s-0.3-0.3-0.3-1l-1.3-12c0-0.5,0.3-1.3,0.8-2.1c0.5-0.8,1-1.3,1.6-1.8
		c0.3-0.3,1-0.5,2.1-0.8c0.8-0.3,1.6-0.3,2.1-0.3c0.3,0,0.3,0,0.5,0l0.3-1.6c0-0.3,0.3-0.5,0.3-0.5s0.3,0,0.5,0.3
		c2.1,1.8,3.7,3.1,4.4,3.7c1.6,1,2.9,1.6,4.2,1.6h1.6v2.9H1091.1z M1085.3,711.1c0-0.8-0.5-1.6-1.6-2.6c-0.3-0.3-1-1-2.9-2.6
		c0,0.5,0,1,0,1.6c0,1.3,0.3,2.3,0.8,3.1c0.5,1.3,1.3,1.8,2.3,1.8C1084.8,712.4,1085.3,712.2,1085.3,711.1z" class="area" title=""></path>
	<path id="PATH_68" d="M1115.3,711.4h-1.6c-1.8,0-2.9-0.8-3.7-2.1c-0.5,1.6-1.8,2.1-3.4,2.1c-1.6,0-2.6-0.8-3.4-2.1
		c-0.8,1.6-1.8,2.1-3.4,2.1c-1.8,0-3.1-0.8-3.9-2.1c-1,1.6-2.3,2.1-4.2,2.1h-1.8v-3.1h2.1c1.8,0,3.1-1,3.4-3.1
		c0-0.5,0.3-0.8,0.5-0.8s0.3,0.3,0.5,0.8c0.3,2.1,1.3,3.1,3.4,3.1c1.8,0,3.1-1,3.1-3.1c0-0.5,0.3-0.8,0.5-0.8s0.5,0.3,0.5,0.8
		c0.3,2.1,1.3,3.1,2.6,3.1c1.8,0,3.1-1,3.1-3.1c0-0.5,0.3-0.8,0.5-0.8s0.5,0.3,0.5,0.8c0.3,2.1,1.3,3.1,3.1,3.1h1.6v3.1H1115.3z
		 M1103.1,698.1l-1.8,1.8l-1.8-1.8l1.8-1.8L1103.1,698.1z M1105.4,694.2l-1.8,1.8l-1.8-1.8l1.8-1.8L1105.4,694.2z M1107.8,698.1
		l-1.8,1.8l-1.8-1.8l1.8-1.8L1107.8,698.1z" class="area" title=""></path>
	<path id="PATH_69" d="M1125.3,703.8c0,2.3-0.3,3.9-0.8,4.7c-1.3,1.8-3.4,2.6-6.8,2.6h-3.7V708h2.6c4.4,0,6.8-0.8,7.3-2.1
		c0.3-0.5,0-1-0.3-1.6c-1,0.3-2.1,0.3-3.4,0.3c-2.3,0-3.7-1-3.7-3.1c0-1.3,0.3-2.9,1-4.2c0.8-1.6,1.8-2.3,3.1-2.3
		c1,0,2.1,0.8,2.9,2.1C1124.7,699.1,1125.3,701.2,1125.3,703.8z M1120.3,689.7l-2.1,2.1l-2.1-2.1l2.1-2.1L1120.3,689.7z
		 M1123.4,701.7c0-0.8-0.3-1.6-0.8-2.3c-0.5-0.8-1.3-1-2.1-1c-0.5,0-1,0.3-1.6,0.5c-0.5,0.3-0.5,0.8-0.5,1.3c0,1,0.8,1.6,2.6,1.6
		C1121.6,702,1122.4,702,1123.4,701.7z M1124.7,689.7l-2.1,2.1l-2.1-2.1l2.1-2.1L1124.7,689.7z" class="area" title=""></path>
</g>
<g id="G_70" class="area" title="">
	<path id="PATH_71" d="M639.8,528.8H638c-1.3,0-2.6-0.8-4.2-2.1c-0.8-0.8-1.8-2.1-3.1-3.9c0,1.8-0.3,3.1-1,3.9
		c-1.3,1.6-3.9,2.3-7.8,2.3h-5.2c-6.3,0-9.7-1.8-9.7-5.5c0-1.3,0.5-2.6,1.3-3.9c0.3-0.3,0.5-0.5,0.5-0.5c0.3,0,0.3,0,0.3,0.3
		s0,0.3,0,0.5c-0.3,1-0.5,1.6-0.5,2.3c0,1,0.5,1.8,1.3,2.3c1.3,1,3.4,1.6,6.3,1.6h5.2c2.9,0,5-0.3,6-0.5c1.3-0.5,1.8-1.3,1.8-2.3
		s-0.5-2.3-1.8-3.9c-0.8-0.8-1.8-2.1-3.4-3.4c-1.3-1-1.8-1.8-1.8-1.8c0-1.8,0.3-2.9,0.8-3.7c0-0.3,1.8-0.8,5.5-2.1
		c3.7-1.3,6.8-2.3,9.1-3.1c0,0.3-0.3,1.3-0.8,2.9c-2.9,0.8-7,2.3-12.8,4.4c2.6,2.3,5.5,5.7,8.9,10.2c1.3,1.6,2.3,2.6,3.1,3.1
		c0.5,0.3,1.6,0.5,2.6,0.5h1v2.3H639.8z" class="area" title=""></path>
	<path id="PATH_72" d="M652.6,528.8h-2.1c-2.3,0-3.9-0.8-5-2.3c-0.8,1.6-2.6,2.3-5.5,2.3h-1.6v-3.1h2.3c2.6,0,3.9-1,4.2-2.9
		c0-0.8,0.3-1.3,0.5-1.3s0.5,0.5,0.5,1.3c0.3,1.8,1.6,2.9,3.9,2.9h2.3v3.1H652.6z M643.7,513.7l-2.1,2.1l-2.1-2.1l2.1-2.1
		L643.7,513.7z M648.1,513.7l-2.1,2.1l-2.1-2.1l2.1-2.1L648.1,513.7z" class="area" title=""></path>
	<path id="PATH_73" d="M676.6,528.8H675c-1.8,0-2.9-0.8-3.7-2.1c-0.5,1.6-1.8,2.1-3.4,2.1c-1.6,0-2.6-0.8-3.4-2.1
		c-0.8,1.6-1.8,2.1-3.4,2.1c-1.8,0-3.1-0.8-3.9-2.1c-1,1.6-2.3,2.1-4.2,2.1h-1.8v-3.1h2.1c1.8,0,3.1-1,3.4-3.1
		c0-0.5,0.3-0.8,0.5-0.8s0.3,0.3,0.5,0.8c0.3,2.1,1.3,3.1,3.4,3.1c1.8,0,3.1-1,3.1-3.1c0-0.5,0.3-0.8,0.5-0.8s0.5,0.3,0.5,0.8
		c0.3,2.1,1.3,3.1,2.6,3.1c1.8,0,3.1-1,3.1-3.1c0-0.5,0.3-0.8,0.5-0.8s0.5,0.3,0.5,0.8c0.3,2.1,1.3,3.1,3.1,3.1h1.6v3.1H676.6z" class="area" title=""></path>
	<path id="PATH_74" d="M682.8,523.6c0,3.4-1.8,5.2-5.2,5.2h-2.1v-3.1h1.8c2.6,0,3.9-0.5,3.9-1.3s-0.5-1.8-1.8-3.1l1-2.6
		c0-0.3,0.3-0.3,0.3-0.3s0.3,0.3,0.5,0.5C682.3,520.2,682.8,521.7,682.8,523.6z M682,534.5l-2.1,2.1l-2.1-2.1l2.1-2.1L682,534.5z" class="area" title=""></path>
</g>
<g id="G_75" class="area" title="">
	<path id="PATH_76" d="M633,641.7h-2.1c-2.3,0-3.7-1.3-4.2-4.2c-1.3,1.3-1.8,1.8-2.1,1.8h-2.3c-0.8,0-1.6,0-2.3-0.3
		c-1-0.3-1.6-0.8-1.6-1.3c0-2.1,0.8-3.7,2.1-4.7c1-0.8,2.6-1.6,4.7-2.6l-0.5-2.6l1.8-2.1c0,0.3,0.8,3.1,1.8,8.6
		c0.3,1.6,0.8,2.9,1,3.4c0.5,0.8,1,1,2.1,1h1.8v2.9H633z M626.5,636.5l-0.8-4.2c-0.8,0.3-1.8,0.8-3.1,1.3c-1.6,0.8-2.6,1.6-2.6,1.8
		c0,0.5,0.5,0.8,1.8,1c0.8,0.3,1.6,0.3,2.3,0.3C625.2,636.8,626,636.5,626.5,636.5z" class="area" title=""></path>
	<path id="PATH_77" d="M650.7,641.7h-1.6c-1.3,0-2.9-0.5-4.2-1.8c-1-0.8-2.1-2.3-3.4-4.2c-0.3,3.9-2.9,6-8.1,6H632v-3.1h1
		c4.7,0,7.3-1,7.3-2.9c0-1.6-1-3.4-3.4-5.5c-1-1-2.1-1.8-3.4-2.9c0-1,0.3-1.8,0.8-2.6c0.3-0.3,5-1.8,14.3-4.7c0,0.3-0.3,1.3-0.8,2.9
		c-2.3,0.5-6.3,1.8-11.5,3.4c2.6,2.9,5.2,5.5,7,7.8c1.3,1.3,2.1,2.3,2.9,2.9c1,0.8,2.3,1.3,3.7,1.3h1v3.4H650.7z M647.9,616.7
		l-0.5,1.8l-12.8,4.2l0.5-1.8L647.9,616.7z" class="area" title=""></path>
	<path id="PATH_78" d="M663.5,641.7h-2.1c-2.3,0-3.9-0.8-5-2.3c-0.8,1.6-2.6,2.3-5.5,2.3h-1.6v-3.1h2.3c2.6,0,3.9-1,4.2-2.9
		c0-0.8,0.3-1.3,0.5-1.3c0.3,0,0.5,0.5,0.5,1.3c0.3,1.8,1.6,2.9,3.9,2.9h2.3v3.1H663.5z M658.3,628.4l-2.1,2.1l-2.1-2.1l2.1-2.1
		L658.3,628.4z" class="area" title=""></path>
	<path id="PATH_79" d="M669.5,621.1c0.3,0.3,0.3,0.5,0.3,0.5s-0.3,0-0.5,0h-0.8c0.3,3.4,0.3,8.3,0.3,14.9c0,1.6-0.3,2.9-1,3.7
		c-0.8,1-2.1,1.6-3.4,1.6h-1.6v-3.1h1.3c2.1,0,3.1-0.8,2.9-2.3c-0.3-5.5-0.5-11.2-0.8-17l1.8-1.6c0.3-0.3,0.5-0.5,0.5-0.5
		s0,0.3,0.3,0.5C668.5,618.8,669,619.8,669.5,621.1z" class="area" title=""></path>
	<path id="PATH_80" d="M682.8,642c0,2.6-0.8,5-2.3,7.3c-1.3,1.8-2.6,2.9-3.4,2.9c-2.1,0-3.7,0-5.2-0.3c-0.5,0-0.8-0.3-0.8-0.3
		s0.3-0.3,0.8-0.3c2.1-0.5,4.2-1.6,6.3-3.1c2.1-1.8,3.4-3.7,3.4-5.5c0-1-0.8-2.6-2.6-4.4l1.3-2.3c0-0.3,0.3-0.3,0.3-0.3l0.3,0.3
		c0.5,0.8,1.3,1.8,1.6,3.1C682.6,639.9,682.8,641.2,682.8,642z" class="area" title=""></path>
	<path id="PATH_81" d="M703.2,641.7h-1c-1,0-1.8-0.3-2.6-1c-0.5-0.5-1-1-1.6-2.1c-0.5,1-1.3,1.8-2.1,2.3c-1,0.5-2.3,0.8-4.4,0.8
		c-3.7,0-5.5-1.3-5.5-3.9c0-0.8,0.3-1.8,0.8-2.6c0.3-0.3,0.3-0.5,0.5-0.5s0.3,0.3,0.3,0.5s0,0.3,0,0.8c0,0.5,0,0.5,0,0.8
		c0,1.6,1.3,2.3,3.9,2.3c3.7,0,5.5-0.8,5.5-2.1c0-0.8-1-3.7-3.1-8.6l1-2.1c0.3-0.3,0.3-0.5,0.3-0.5s0.3,0.3,0.3,0.5
		c0.8,2.1,2.1,5.2,3.7,9.4c0.8,2.1,1.8,3.1,3.4,3.1h0.8L703.2,641.7L703.2,641.7z" class="area" title=""></path>
	<path id="PATH_82" d="M716,641.7h-2.1c-2.3,0-3.9-0.8-5-2.3c-0.8,1.6-2.6,2.3-5.5,2.3h-1.6v-3.1h2.3c2.6,0,3.9-1,4.2-2.9
		c0-0.8,0.3-1.3,0.5-1.3s0.5,0.5,0.5,1.3c0.3,1.8,1.6,2.9,3.9,2.9h2.3v3.1H716z M710.7,628.4l-2.1,2.1l-2.1-2.1l2.1-2.1L710.7,628.4
		z" class="area" title=""></path>
	<path id="PATH_83" d="M722.2,636.5c0,3.4-1.8,5.2-5.2,5.2h-2.1v-3.1h1.8c2.6,0,3.9-0.5,3.9-1.3s-0.5-1.8-1.8-3.1l1-2.6
		c0-0.3,0.3-0.3,0.3-0.3s0.3,0.3,0.5,0.5C721.7,633.4,722.2,635,722.2,636.5z M721.4,647.5l-2.1,2.1l-2.1-2.1l2.1-2.1L721.4,647.5z" class="area" title=""></path>
</g>
<g id="G_84" class="area" title="">
	<path id="PATH_85" d="M158.7,580.4c0.3,0.8,0.3,1.6,0.3,2.3c0,1-0.3,1.8-0.5,2.9c-0.8,1.8-2.1,3.4-4.7,4.4
		c-2.1,0.8-4.2,1.3-6.5,1.3s-4.2-0.5-5.7-1.6c-1.6-1.3-2.3-2.9-2.3-5.2c0-1.3,0.3-2.3,0.8-3.9c0.5-1,0.8-1.8,1.3-2.3
		c0.3-0.3,0.5-0.3,0.5-0.3c0.3,0,0.3,0,0.3,0.3c0,0,0,0.3,0,0.5c-0.8,1.6-1,3.1-1,4.4c0,1.3,0.5,2.3,1.3,3.4c1,1.3,2.9,1.8,5.2,1.8
		c2.6,0,5-0.5,6.8-1.3c1.6-0.8,2.6-1.6,3.1-2.6c0.3-0.3,0.3-0.8,0.3-1c0-0.8-0.3-1.6-0.5-2.6c-0.3-0.8-1-2.1-2.3-4.2l1-2.1
		c0.3-0.3,0.3-0.5,0.3-0.5s0.3,0,0.3,0.3C157.7,576.5,158.5,578.3,158.7,580.4z M151.2,569.2l-2.1,2.1l-2.1-2.1l2.1-2.1L151.2,569.2
		z" class="area" title=""></path>
	<path id="PATH_86" d="M169.4,581h-1.8c-1.8,0-3.4-0.8-3.9-2.3c-0.5-1-0.8-2.9-0.8-5v-5c0-2.3-0.3-5.7-0.5-10.2l1.6-1.8
		c0.3-0.3,0.5-0.3,0.5,0c0.3,2.3,0.5,5.7,0.5,10.2v7.6c0,2.1,1,3.1,3.1,3.1h1.3C169.4,577.6,169.4,581,169.4,581z" class="area" title=""></path>
	<path id="PATH_87" d="M182.2,581h-2.1c-2.3,0-3.9-0.8-5-2.3c-0.8,1.6-2.6,2.3-5.5,2.3h-1.6v-3.1h2.3c2.6,0,3.9-1,4.2-2.9
		c0-0.8,0.3-1.3,0.5-1.3c0.3,0,0.5,0.5,0.5,1.3c0.3,1.8,1.6,2.9,3.9,2.9h2.6V581z M173.6,586.7l-2.1,2.1l-2.1-2.1l2.1-2.1
		L173.6,586.7z M178,586.7l-2.1,2.1l-2.1-2.1l2.1-2.1L178,586.7z" class="area" title=""></path>
	<path id="PATH_88" d="M202.8,575.2c0,1.6-0.3,2.9-1,3.9s-2.1,1.8-3.4,1.8c-1.8,0-2.9-0.8-3.7-2.1c-1,1.6-2.1,2.1-3.7,2.1
		c-1.8,0-3.1-0.8-3.9-2.1c-1,1.6-2.3,2.1-4.2,2.1h-1.8v-3.1h2.1c1.8,0,3.1-1,3.4-3.1c0-0.5,0.3-0.8,0.5-0.8c0.3,0,0.3,0.3,0.5,0.8
		c0.3,2.1,1.3,3.1,3.4,3.1c1,0,2.1-0.3,2.6-0.8c0.3-0.5,0.5-1,0.8-2.1c0-0.5,0.3-0.8,0.5-0.8s0.3,0.3,0.5,0.8
		c0.3,2.1,1.3,3.1,3.1,3.1c2.1,0,2.9-0.5,2.9-1.3c0-0.8-0.5-1.8-1.6-2.9l1.3-2.3c0.3-0.3,0.3-0.5,0.5-0.5c0.3,0,0.3,0.3,0.5,0.5
		C202.3,572.9,202.8,574.2,202.8,575.2z" class="area" title=""></path>
	<path id="PATH_89" d="M216.1,581.2c0,2.6-0.8,5-2.3,7.3c-1.3,1.8-2.6,2.9-3.4,2.9c-2.1,0-3.7,0-5.2-0.3c-0.5,0-0.8-0.3-0.8-0.3
		s0.3-0.3,0.8-0.3c2.1-0.5,4.2-1.6,6.3-3.1c2.1-1.8,3.4-3.7,3.4-5.5c0-1-0.8-2.6-2.6-4.4l1.3-2.3c0-0.3,0.3-0.3,0.3-0.3l0.3,0.3
		c0.5,0.8,1.3,1.8,1.6,3.1C215.9,579.1,216.1,580.2,216.1,581.2z" class="area" title=""></path>
	<path id="PATH_90" d="M226.6,581h-1.8c-1.8,0-3.4-0.8-3.9-2.3c-0.5-1-0.8-2.9-0.8-5v-5c0-2.3-0.3-5.7-0.5-10.2l1.6-1.8
		c0.3-0.3,0.5-0.3,0.5,0c0.3,2.3,0.5,5.7,0.5,10.2v7.6c0,2.1,1,3.1,3.1,3.1h1.3V581z" class="area" title=""></path>
	<path id="PATH_91" d="M232.6,575.7c0,3.4-1.8,5.2-5.2,5.2h-2.1v-3.1h1.8c2.6,0,3.9-0.5,3.9-1.3c0-0.8-0.5-1.8-1.8-3.1l1-2.6
		c0-0.3,0.3-0.3,0.3-0.3s0.3,0.3,0.5,0.5C232,572.3,232.6,573.9,232.6,575.7z M226.6,585.9l1.8-1.8l1.8,1.8l-1.8,1.8L226.6,585.9z
		 M228.9,590.1l1.8-1.8l1.8,1.8l-1.8,1.8L228.9,590.1z M231,585.9l1.8-1.8l1.8,1.8l-1.8,1.8L231,585.9z" class="area" title=""></path>
</g>
<g id="G_100" class="area" title="">
	<path id="PATH_101" d="M1541.1,928.7h-1.8c-1.3,0-2.6-0.8-4.2-2.1c-0.8-0.8-1.8-2.1-3.1-3.9c0,1.8-0.3,3.1-1,3.9
		c-1.3,1.6-3.9,2.3-7.8,2.3h-5.2c-6.3,0-9.7-1.8-9.7-5.5c0-1.3,0.5-2.6,1.3-3.9c0.3-0.3,0.5-0.5,0.5-0.5c0.3,0,0.3,0,0.3,0.3
		c0,0.3,0,0.3,0,0.5c-0.3,1-0.5,1.6-0.5,2.3c0,1,0.5,1.8,1.3,2.3c1.3,1,3.4,1.6,6.3,1.6h5.2c2.9,0,5-0.3,6-0.5
		c1.3-0.5,1.8-1.3,1.8-2.3s-0.5-2.3-1.8-3.9c-0.8-0.8-1.8-2.1-3.4-3.4c-1.3-1-1.8-1.8-1.8-1.8c0-1.8,0.3-2.9,0.8-3.7
		c0-0.3,1.8-0.8,5.5-2.1c3.7-1.3,6.8-2.3,9.1-3.1c0,0.3-0.3,1.3-0.8,2.9c-2.9,0.8-7,2.3-12.8,4.4c2.6,2.3,5.5,5.7,8.9,10.2
		c1.3,1.6,2.3,2.6,3.1,3.1c0.5,0.3,1.6,0.5,2.6,0.5h1v2.3H1541.1z" class="area" title=""></path>
	<path id="PATH_102" d="M1561.7,923.2c0,1.6-0.3,2.9-1,3.9c-0.8,1-2.1,1.8-3.4,1.8c-1.8,0-2.9-0.8-3.7-2.1c-1,1.6-2.1,2.1-3.7,2.1
		c-1.8,0-3.1-0.8-3.9-2.1c-1,1.6-2.3,2.1-4.2,2.1h-1.8v-3.1h2.1c1.8,0,3.1-1,3.4-3.1c0-0.5,0.3-0.8,0.5-0.8c0.3,0,0.3,0.3,0.5,0.8
		c0.3,2.1,1.3,3.1,3.4,3.1c1,0,2.1-0.3,2.6-0.8c0.3-0.5,0.5-1,0.8-2.1c0-0.5,0.3-0.8,0.5-0.8c0.3,0,0.3,0.3,0.5,0.8
		c0.3,2.1,1.3,3.1,3.1,3.1c2.1,0,2.9-0.5,2.9-1.3s-0.5-1.8-1.6-2.9l1.3-2.3c0.3-0.3,0.3-0.5,0.5-0.5s0.3,0.3,0.5,0.5
		C1561.2,920.6,1561.7,921.9,1561.7,923.2z" class="area" title=""></path>
	<path id="PATH_103" d="M1572.1,928.7h-1.8c-1.8,0-3.4-0.8-3.9-2.3c-0.5-1-0.8-2.9-0.8-5v-5c0-2.3-0.3-5.7-0.5-10.2l1.6-1.8
		c0.3-0.3,0.5-0.3,0.5,0c0.3,2.3,0.5,5.7,0.5,10.2v7.6c0,2.1,1,3.1,3.1,3.1h1.3V928.7z" class="area" title=""></path>
	<path id="PATH_104" d="M1592.5,921.1l-1,2.1c-1.8,0-3.4,0-4.2,0.3c-1,0.5-2.6,1-4.7,2.1c-2.1,1-3.7,1.8-4.7,2.1
		c-1.6,0.5-3.4,0.8-5,0.8h-1.8v-3.1h2.1c2.3,0,4.4-0.5,6.3-1.3l6-2.6c-1-0.3-2.6-0.8-4.7-1.6c-1.8-0.8-2.9-1-3.4-1
		c-1,0-2.1,0.5-3.1,1.3c-0.3,0.3-0.3,0.3-0.5,0.3c-0.3,0-0.3,0-0.3-0.3v-0.3c0.8-2.6,2.3-3.7,4.4-3.7c0.8,0,1.8,0.3,2.9,0.8
		c2.1,1,3.7,1.6,4.7,2.1c1.8,0.5,3.9,1,6.3,1c0.5,0,0.8,0,0.8,0.3C1592.7,920.6,1592.5,920.9,1592.5,921.1z M1583.9,933.9l-2.1,2.1
		l-2.1-2.1l2.1-2.1L1583.9,933.9z" class="area" title=""></path>
</g>
<g id="G_105" class="area" title="">
	<path id="PATH_106" d="M1484.7,758.9c0,3.7-2.3,5.5-7.3,5.5c-1.8,0-3.1-0.3-3.9-0.8c-1-0.5-1.6-1.8-1.6-3.4c0-0.8,0.3-1.6,0.5-2.3
		c0.3-0.3,0.3-0.5,0.5-0.5c0.3,0,0.3,0.3,0.3,0.8c0,0.3,0,0.5,0,0.8c0,1,0.5,1.8,1.6,2.1c0.5,0.3,1.6,0.3,2.9,0.3
		c3.9,0,5.7-0.5,5.7-1.8c0-1.8-2.3-4.4-6.8-7.6l0.8-2.6c0-0.3,0.3-0.3,0.3-0.3s0.3,0,0.5,0.3C1482.4,752.6,1484.7,756,1484.7,758.9z
		" class="area" title=""></path>
	<path id="PATH_107" d="M1497.8,764.6c0,2.6-0.8,5-2.3,7.3c-1.3,1.8-2.6,2.9-3.4,2.9c-2.1,0-3.7,0-5.2-0.3c-0.5,0-0.8-0.3-0.8-0.3
		s0.3-0.3,0.8-0.3c2.1-0.5,4.2-1.6,6.3-3.1c2.1-1.8,3.4-3.7,3.4-5.5c0-1-0.8-2.6-2.6-4.4l1.3-2.3c0-0.3,0.3-0.3,0.3-0.3l0.3,0.3
		c0.5,0.8,1.3,1.8,1.6,3.1C1497.5,762.5,1497.8,763.6,1497.8,764.6z" class="area" title=""></path>
	<path id="PATH_108" d="M1508.2,764.3h-1.8c-1.8,0-3.4-0.8-3.9-2.3c-0.5-1-0.8-2.9-0.8-5v-5c0-2.3-0.3-5.7-0.5-10.2l1.6-1.8
		c0.3-0.3,0.5-0.3,0.5,0c0.3,2.3,0.5,5.7,0.5,10.2v7.6c0,2.1,1,3.1,3.1,3.1h1.3V764.3z" class="area" title=""></path>
	<path id="PATH_109" d="M1523.9,743.2c0,0.5-0.3,1.3-0.8,2.9c-3.1,0.8-7,2.1-11.5,3.4c3.1,3.1,5,5.7,5.2,7.6c0.3,1.3,0,2.6-0.5,3.9
		c-0.5,1.3-1.6,2.1-2.9,2.6c-1,0.5-2.9,0.5-5.2,0.5h-1V761h0.8c5,0,7.6-0.8,7.6-2.6c0-1.3-1.3-3.4-4.2-6l-0.3,0.8
		c-0.3-0.3-0.8-0.8-1.3-1.6c-0.8-0.8-1-1.3-1-1.6c0-0.8,0.3-1.6,1-2.3c0.3-0.3,1.8-0.8,5.2-1.8
		C1518.1,744.8,1521.3,744,1523.9,743.2z M1523.3,739.3l-0.5,1.8l-12.8,4.2l0.5-1.8L1523.3,739.3z" class="area" title=""></path>
	<path id="PATH_110" d="M1536.4,764.6c0,2.6-0.8,5-2.3,7.3c-1.3,1.8-2.6,2.9-3.4,2.9c-2.1,0-3.7,0-5.2-0.3c-0.5,0-0.8-0.3-0.8-0.3
		s0.3-0.3,0.8-0.3c2.1-0.5,4.2-1.6,6.3-3.1c2.1-1.8,3.4-3.7,3.4-5.5c0-1-0.8-2.6-2.6-4.4l1.3-2.3c0-0.3,0.3-0.3,0.3-0.3l0.3,0.3
		c0.5,0.8,1.3,1.8,1.6,3.1C1536.1,762.5,1536.4,763.6,1536.4,764.6z" class="area" title=""></path>
	<path id="PATH_111" d="M1546.8,764.3h-1.8c-1.8,0-3.4-0.8-3.9-2.3c-0.5-1-0.8-2.9-0.8-5v-5c0-2.3-0.3-5.7-0.5-10.2l1.6-1.8
		c0.3-0.3,0.5-0.3,0.5,0c0.3,2.3,0.5,5.7,0.5,10.2v7.6c0,2.1,1,3.1,3.1,3.1h1.3V764.3z" class="area" title=""></path>
	<path id="PATH_112" d="M1567.4,758.9c0,1.6-0.3,2.9-1,3.9c-0.8,1-2.1,1.8-3.4,1.8c-1.8,0-2.9-0.8-3.7-2.1c-1,1.6-2.1,2.1-3.7,2.1
		c-1.8,0-3.1-0.8-3.9-2.1c-1,1.6-2.3,2.1-4.2,2.1h-1.8v-3.1h2.1c1.8,0,3.1-1,3.4-3.1c0-0.5,0.3-0.8,0.5-0.8c0.3,0,0.3,0.3,0.5,0.8
		c0.3,2.1,1.3,3.1,3.4,3.1c1,0,2.1-0.3,2.6-0.8c0.3-0.5,0.5-1,0.8-2.1c0-0.5,0.3-0.8,0.5-0.8s0.3,0.3,0.5,0.8
		c0.3,2.1,1.3,3.1,3.1,3.1c2.1,0,2.9-0.5,2.9-1.3s-0.5-1.8-1.6-2.9l1.3-2.3c0.3-0.3,0.3-0.5,0.5-0.5s0.3,0.3,0.5,0.5
		C1566.9,756.3,1567.4,757.6,1567.4,758.9z" class="area" title=""></path>
	<path id="PATH_113" d="M1577.9,764.3h-1.8c-1.8,0-3.4-0.8-3.9-2.3c-0.5-1-0.8-2.9-0.8-5v-5c0-2.3-0.3-5.7-0.5-10.2l1.6-1.8
		c0.3-0.3,0.5-0.3,0.5,0c0.3,2.3,0.5,5.7,0.5,10.2v7.6c0,2.1,1,3.1,3.1,3.1h1.3V764.3z" class="area" title=""></path>
	<path id="PATH_114" d="M1583.9,759.1c0,3.4-1.8,5.2-5.2,5.2h-2.1v-3.1h1.8c2.6,0,3.9-0.5,3.9-1.3s-0.5-1.8-1.8-3.1l1-2.6
		c0-0.3,0.3-0.3,0.3-0.3s0.3,0.3,0.5,0.5C1583.3,755.7,1583.9,757.6,1583.9,759.1z M1577.9,769.6l1.8-1.8l1.8,1.8l-1.8,1.8
		L1577.9,769.6z M1580.2,773.5l1.8-1.8l1.8,1.8l-1.8,1.8L1580.2,773.5z M1582.3,769.6l1.8-1.8l1.8,1.8l-1.8,1.8L1582.3,769.6z" class="area" title=""></path>
</g>
<g id="G_115" class="area" title="">
	<path id="PATH_116" d="M1300.8,730.2l-1.3-1.6c-0.8-1-1-2.6-1-4.7c0-1,0.5-2.6,1-5c-1.3,1.3-2.6,1.8-3.9,1.8
		c-2.1,0-4.2-1.6-6.8-4.4l-3.4-3.9c-4.2-5-4.7-8.6-2.1-10.7c1-0.8,2.3-1.3,3.9-1.6c0.5,0,0.8,0,0.8,0.3c0,0,0,0.3,0,0.5
		c0,0-0.3,0.3-0.5,0.3c-1,0.3-1.6,0.5-2.1,1c-0.8,0.5-1,1.6-1,2.6c0,1.6,1,3.7,2.9,5.7l3.4,3.9c1.8,2.3,3.4,3.7,4.2,4.2
		c1,0.8,2.1,0.8,3.1,0c0.8-0.8,1.3-1.8,1.8-3.9c0.3-1,0.3-2.6,0.5-5c0-1.6,0.3-2.6,0.3-2.6c1.3-1,2.3-1.8,3.4-1.8
		c0.3,0,1.8,0.8,5.2,2.9c3.4,1.8,6,3.7,8.3,5c-0.3,0.3-1.3,0.8-2.6,1.3c-2.6-1.6-6.5-3.9-11.7-6.8c-0.3,3.4-0.8,7.8-2.1,13.3
		c-0.5,2.1-0.5,3.4-0.5,4.4c0,0.8,0.5,1.6,1.3,2.3l0.8,0.8L1300.8,730.2z" class="area" title=""></path>
	<path id="PATH_117" d="M1299.3,737l-2.9-0.3l0.3-2.9l2.9,0.3L1299.3,737z M1302.1,740.3l-2.9-0.3l0.3-2.9l2.9,0.3L1302.1,740.3z
		 M1308.9,731.5c-2.6,2.3-5,2.1-7.3-0.5l-1.3-1.6l2.3-1.8l1,1.3c1.6,2.1,2.9,2.6,3.7,2.1c0.5-0.5,1-1.6,1.3-3.4l2.6-0.8
		c0.3,0,0.5,0,0.5,0s0,0.3,0,0.5C1311.3,729.1,1310.2,730.4,1308.9,731.5z" class="area" title=""></path>
	<path id="PATH_118" d="M1317,749.2l-0.8-0.8c-0.5-0.8-1-1.3-1-2.1c-0.3,0.3-0.5,0.3-0.5,0.5c-1.8,1.6-4.2,2.6-7,2.6
		c-2.3,0.3-3.9,0-4.4-0.8c-1.3-1.6-2.3-2.9-3.1-4.2c-0.3-0.5-0.3-0.8-0.3-0.8s0.3,0,0.8,0.3c1.6,1.3,3.7,2.1,6.5,2.6
		c2.9,0.5,5,0.3,6.3-1c0.8-0.8,1.3-2.3,1.6-5l2.6-0.8c0.3,0,0.3,0,0.5,0c0,0,0,0.3,0,0.5c-0.3,1.3-0.5,2.3-0.5,2.9
		c0,1,0.5,2.1,1,2.9l0.5,0.5L1317,749.2z" class="area" title=""></path>
	<path id="PATH_119" d="M1315.4,756.3l-2.9-0.3l0.3-2.9l2.9,0.3L1315.4,756.3z M1318.3,759.7l-2.9-0.3l0.3-2.9l2.9,0.3L1318.3,759.7
		z M1325.3,759.1l-1.3-1.6c-1.6-1.8-2.1-3.7-1.3-5.2c-1.8,0.3-3.7-0.5-5.2-2.6l-1-1.3l2.3-1.8l1.6,1.8c1.6,1.8,3.4,2.3,5,1.3
		c0.8-0.5,1-0.5,1.3-0.3c0.3,0.3,0,0.5-0.5,1.3c-1.3,1.3-1.3,3.1,0.3,5l1.6,1.8L1325.3,759.1z" class="area" title=""></path>
	<path id="PATH_120" d="M1342.8,771.1c-1.3,1-2.3,1.6-3.7,1.6s-2.6-0.3-3.7-1.6c-1-1.3-1.3-2.9-0.8-4.2c-1.8,0.3-3.1-0.3-3.9-1.3
		c-1.3-1.6-1.6-2.9-0.8-4.4c-1.8,0.3-3.1-0.5-4.2-1.8l-1-1.3l2.3-1.8l1.3,1.6c1.3,1.6,2.6,1.6,4.4,0.5c0.5-0.3,0.8-0.3,0.8,0
		c0.3,0.3,0,0.5-0.3,0.8c-1.3,1.6-1.6,2.9-0.3,4.4c0.8,0.8,1.6,1.3,2.3,1.3c0.5,0,1.3-0.3,2.1-0.8c0.5-0.3,0.8-0.3,0.8-0.3
		c0.3,0.3,0,0.5-0.3,0.8c-1.3,1.6-1.6,3.1-0.3,4.4c1.3,1.6,2.3,2.1,2.9,1.3c0.5-0.5,1-1.6,1.3-3.1l2.3-0.5c0.5,0,0.5,0,0.8,0
		c0,0,0,0.3-0.3,0.8C1344.4,769.3,1343.6,770.6,1342.8,771.1z" class="area" title=""></path>
</g>
<g id="G_98" class="area" title="">
	<path d="M525.4,766.6c-0.2,1.3-0.4,2.4-0.8,3.3c-1,2.4-4,4-6.9,4c-4,0-6-2.7-6-6.3c0-2.2,0.7-4.3,1.6-5.7l0.7,0.4
		c-0.6,1.3-1,2.6-1,3.8c0,3.4,2.3,5,5,5c3.2,0,6.1-2.4,6.1-4.3c0-1.3-0.8-3.5-2.1-5.4c0.4-0.7,0.8-1.3,1.4-2.2h0.1
		c0.8,1.5,1.3,2.7,1.7,3.9c0.3,0.7,0.6,1,1.3,1c0.6,0,1.2-0.3,1.6-0.6c0.4-0.3,0.9-0.8,1.2-1.6l0.5-1.5l1.4-0.6l0.1,0.1
		c-0.5,1.4-0.6,2.3-0.6,3c0,0.9,0.6,1.3,1.4,1.3c1.6,0,2.2-1.5,2.5-2.7l0.3-1.4l1.5-0.9l0.1,0.1c-0.2,0.9-0.5,2.1-0.5,2.8
		c0,1.6,1.6,2.1,3.5,2.1h0.5v2.6h-0.5c-2.5,0-3.9-0.8-4.4-1.9h-0.1c-1.1,1.4-2.4,1.9-3.6,1.9c-0.9,0-1.9-0.3-2.2-1.7H529
		c-0.7,1-1.7,1.7-3.3,1.7H525.4z M528.8,756.4c-0.8-0.8-1.6-1.5-2.4-2.1c0.5-0.7,1.1-1.4,1.6-1.9c0.8,0.7,1.5,1.3,2.3,2.2
		C529.8,755.3,529.4,755.8,528.8,756.4z M529.9,752c-0.8-0.8-1.6-1.5-2.4-2.1c0.5-0.7,1.1-1.4,1.6-1.9c0.8,0.7,1.5,1.3,2.3,2.2
		C530.9,750.9,530.5,751.5,529.9,752z M532.8,756.1c-0.8-0.8-1.6-1.5-2.4-2.1c0.5-0.7,1.1-1.4,1.6-1.9c0.8,0.7,1.5,1.3,2.3,2.2
		C533.8,755,533.4,755.6,532.8,756.1z" id="PATH_99" class="area" title=""></path>
	<path d="M540.5,763.9c1.6,0,3.2-0.6,3.5-1.8l0.6-2.2l1.4-1l0.1,0.1c-0.3,1-0.5,1.9-0.5,2.4c0,0.7,0.2,1.3,0.7,1.7
		c0.7,0.5,1.5,0.8,2.5,0.8h0.4v2.6h-0.5c-2,0-3.5-0.6-4.2-2.1h-0.1c-0.7,1.4-2.3,2.1-4.1,2.1H540c-1.1,0-1.4-0.8-1.4-1.4
		c0-0.5,0.3-1.3,1.4-1.3H540.5z M542.8,774.7c-0.8-0.8-1.6-1.5-2.4-2.1c0.5-0.7,1.1-1.4,1.6-1.9c0.8,0.7,1.5,1.3,2.3,2.2
		C543.8,773.7,543.4,774.2,542.8,774.7z M546.7,774.5c-0.8-0.8-1.6-1.5-2.4-2.1c0.5-0.7,1.1-1.4,1.6-1.9c0.8,0.7,1.5,1.3,2.3,2.2
		C547.7,773.4,547.3,773.9,546.7,774.5z" id="PATH_100" class="area" title=""></path>
	<path d="M562,744.5c-0.5,0.8-1,1.7-1.5,2.5c-1,0.3-2.2,0.6-3.3,1c-2.2,0.8-4.4,1.7-6.7,2.7v0.1l3.3,1.3l-0.5,1
		c3.2,2.6,5.3,5.2,5.3,7.3c0,1.9-0.5,3.4-1.3,4.2c-1.3,1.1-3.3,1.9-7.2,1.9h-0.8c-1.1,0-1.4-0.8-1.4-1.4c0-0.5,0.3-1.3,1.4-1.3h1.3
		c2.1,0,4.1-0.2,5.5-1.1c0.7-0.5,1.1-0.9,1.1-1.1c0-0.9-0.6-2-1.4-3.1c-0.9-1.2-2.8-3.2-6.2-5.8c-0.6-0.5-0.7-1.2-0.7-1.9
		c0-0.4,0.2-0.9,0.5-1.3c0.2-0.4,0.6-0.8,1.5-1.3c2.4-1.2,6.3-2.6,11-4.1L562,744.5z" id="PATH_101" class="area"></path>
</g>
</svg>
