<!--?xml version="1.0" encoding="utf-8"?-->
<!-- Generator: Adobe Illustrator 27.4.1, SVG Export Plug-In . SVG Version: 6.00 Build 0)  -->
<svg version="1.1" id="Layer_1" xmlns="http://www.w3.org/2000/svg" xmlns:xlink="http://www.w3.org/1999/xlink" x="0px" y="0px" viewBox="0 0 1920 1080" style="enable-background:new 0 0 1920 1080;" xml:space="preserve" width="100%" height="100%">
<style type="text/css">
	.st0{fill:#FBD0D1;stroke:#010101;stroke-width:0.4625;stroke-miterlimit:23.1263;}
	.st1{fill:#DBECCB;stroke:#010101;stroke-width:0.4625;stroke-miterlimit:23.1263;}
	.st2{fill:#E8D0E5;stroke:#010101;stroke-width:0.4625;stroke-miterlimit:23.1263;}
	.st3{fill:#FDFAD4;stroke:#010101;stroke-width:0.4625;stroke-miterlimit:23.1263;}
	.st4{fill:#D3D3D3;stroke:#010101;stroke-width:0.4625;stroke-miterlimit:23.1263;}
	.st5{fill:none;stroke:#020202;stroke-width:1.1563;stroke-miterlimit:23.1263;}
</style>
<path id="_x33_97" class="st0 area" d="M899.4,144.5c7.2,3.7-5.3,19.9,3.7,23.6c36.1,14.6,63.4,37.9,94.1,56c5.3,3.7,19.9,3.7,18-5.3
	c0-18,9-27.1,23.6-36.1c10.9-5.3-12.7-23.6-3.7-34.5c2.8-2.8,8.8-3.5,13.9-6l-4.2-16.2l-0.5-5.6l0.7-2.5l1.2-2.5l1.2-2.3l-0.7-2.3
	l-1.2-3l0.5-5.6l-0.7-3.2l-4.4-5.6l-4.2-3.7l-5.1-1.4l-12.3,5.6l-4.4-0.7L986,73.8l-7.2-7.2l-2.5-1.2l-6.2-1.2l-3-0.7l-3-2.3
	l-8.6-3.7L939,54.3l-13.4-7.2l-1.2,1.9l-0.5,3.7l-3,3.2l-2.3,0.7l-2.3,0.5l-4.9-0.7h-2.3l-1.4,1.2l-1.4,1.4l-1.9,1.2l-4.9,0.5
	l-5.3-0.7l-9.3-3.2L874,47.5l-3.7-1.9l-4.2,0.5l-3.2,2.3l-2.5,3.7l-2.3,4.4l-3,4.2l-3.7,1.9l-3,0.2c0,0.2,0,0.7,0,0.9
	C839.7,104.8,868.7,124.7,899.4,144.5z" title=""></path>
<path id="_x34_00" class="st1 area" d="M584.7,314.7c-7.2-10.9,9-19.9,14.6-30.8c0.2-1.2,0.5-2.5,0.2-3.7c-2.1-0.5-4.4-1.2-6.5-1.6
	c-7.9-2.1-15.3-3.9-21.7-5.3c-16-3.2-28.9-10.2-33.1-12.5c-7.4,3.5-43.9,20.8-63.8,29.1c-17.8,7.4-27.1,22.4-29.4,27.1
	c7.4,0,11.3-1.4,17.8-3.5l2.3-0.7c4.9-1.6,6.5-3.2,7.6-4.4c1.9-1.9,3.5-3.2,8.1-3.2c2.3,0,4.2,0.7,5.8,2.3c3.2,3.5,3,9.5,2.8,14.3
	c0,0.9,0,2.1,0,2.8c0,1.6,3.9,4.9,6.5,6.7c3.7,3,7.2,5.6,8.3,9c1.9,5.8,2.1,26.4,2.1,28.7v1.4l-2.5,2.1c9.7-2.8,19.4-8.1,27.1-12.5
	c23.6-12.7,43.5,7.2,61.5,19.9c1.6,1.6,8.3,6.7,10.6-0.7c-0.2-1.4-0.2-2.8-0.2-4.4c0,1.6,0.2,3,0.2,4.4c0-0.5,0.2-0.7,0.2-1.2
	C608.2,354.5,599.2,334.6,584.7,314.7z" title=""></path>
<path id="_x34_96" class="st2 area" d="M605.9,445.4c11.1-3.7,33.5-11.1,22.2-29.8C618,405.4,604.5,395,602.5,379
	c-2.1,7.4-8.8,2.5-10.6,0.7c-18-12.7-37.9-32.6-61.5-19.9c-7.6,4.4-17.3,9.7-27.1,12.5l-29.8,23.1l27.1,36.3l-1.4,3.7
	C528.2,458.4,567.1,451.9,605.9,445.4z" title=""></path>
<path id="_x34_06" class="st3 area" d="M832.6,515.5c-5.6-1.9-16.2,3.7-14.6-3.7c0-3.7,3.7-10.9,0-14.6c-3.7-5.3-12.7-9-14.6-16.2
	c-3.7-12.7,1.9-23.6,10.9-36.1c5.3-5.3,1.9-19.9-7.2-25.4c-5.3,0-12.7,3.7-14.6,1.9c-3.7-3.7-9-5.3-10.9-5.3
	c-16.2-5.3-34.5-1.9-46.9-9c-18-10.9-32.6-10.9-50.6-14.6c3.7-5.3,7.2-16.2,5.3-16.2c-25.9-1.6-64.8,18.5-87,2.1
	c0,0.2-0.2,0.5-0.2,0.9c2.1,16,15.5,26.4,25.7,36.5c11.1,18.5-11.1,25.9-22.2,29.8c-38.9,6.5-77.5,13-106.6-9.9l-18,45.8l1.4,34.7
	c7.4,6.2,53.9,46,60.1,53.7c7.6,9.3,16,27.8,6.9,41.2c-1.2,1.9-2.1,4.4-2.5,6.9c8.1,3.9,16,8.3,25,13.4
	c10.9,7.2,21.7-10.9,34.5-14.6c7.2,0,14.6-1.9,21.7-5.3c3.7-1.9,9-7.2,14.6-7.2c28.9-5.3,57.8,3.7,83.3-16.2c3.7-1.9,9-1.9,10.9,0
	c9,9,5.3,37.9,19.9,25.4c14.6-10.9,30.8-9,45.3-10.9c-1.9-3.7,7.2-3.7,3.7-7.2c-7.2-3.7-23.6-3.7-16.2-14.6
	c3.7-7.2,16.2-3.7,23.6-7.2c14.6-7.2-5.3-19.9-9-28.9C798.1,526.4,823.6,526.4,832.6,515.5z" title=""></path>
<path id="PATH_7" class="st4 area" d="M792.6,590.9c-1.6-2.5-3.2-5.1-4.9-7.6C786.3,587.2,788.9,589.5,792.6,590.9z" title=""></path>
<path id="_x34_24" class="st1 area" d="M856.2,287.5c7.2,16.2,28.9,50.6,48.8,25.2c5.3-7.2-9-16.2-1.9-18c14.6-3.7,28.9-5.3,34.5-16.2
	c9-18-25.2-19.9-36.1-34.5c0-1.9,0-5.3,0-7.2c10.9-12.7,30.8,1.9,37.9-14.6c2.8-10.6,2.3-22.2,4.9-32.6
	c-12.7-8.1-26.1-15.5-41.2-21.5c-9-3.7,3.7-19.9-3.7-23.6c-30.8-19.9-59.7-39.8-50.6-81.4c0-0.2,0-0.7,0-0.9l-16.9,1.6l-3-0.7
	l-5.3-3.9v62.7c0,0.5-1.9,33.5-1.9,40.9c0,8.3-9.7,15.7-25.7,24.7c-3.5,1.9-5.1,4.6-5.1,8.1c-0.2,6,4.2,13,7.2,15
	c1.9,1.2,4.2,2.1,6.9,3.2c5.6,2.3,11.1,4.6,12.7,9.3c2.1,6.2-1.4,17.1-1.9,18.5c6,3.5,13,6,20.1,7.9
	C854.3,253.2,850.6,275,856.2,287.5z" title=""></path>
<path id="_x32_60" class="st0 area" d="M736.6,341.3c-10.2-1.9-21-7.2-25.9-15.5c-2.5-4.2-13.2-7.2-22.4-9.7c-8.8-2.3-16.9-4.6-21.5-8.3
	c-2.3-1.9-4.6-3.9-7.2-6.5c-7.6-7.2-16.2-15.3-26.4-15.3c-8.6,0-21-3-33.8-6.2c0,1.2,0,2.5-0.2,3.7c-5.3,10.9-21.7,19.9-14.6,30.8
	c14.6,19.9,23.6,39.8,18,63.4v0.2c15.5,11.3,39.1,5.1,60.6,0.9c5.1-11.3,11.3-23.4,19-26.4c16.2-5.3,37.9,12.7,52.5-1.9
	C737.3,348.5,737.5,345,736.6,341.3z" title=""></path>
<path id="_x31_81" class="st2 area" d="M794.6,410.5c-5.3-7.2,3.7-19.9-1.9-23.6c-7.2-9-14.6-19.9-5.3-25.4c9.3-4.6,15.7-14.3,20.8-23.8
	c-2.8-1.6-5.3-3.5-8.1-5.1c-3.7-3.7-1.9-18,7.2-25.4c9-9-5.3-21.7-14.6-32.6c-3.2-3.2-0.7-10.4-2.5-17.1c-1.9,0.7-3.5,1.6-5.6,2.3
	c-16.2,6.5-13.2,24.1-13.2,24.7c0.5,8.3,2.8,31,7.2,38.2c1.4,2.5,1.6,5.1,0.2,7.6c-4.6,8.3-26.1,11.6-34.2,11.6
	c-2.5,0-5.3-0.2-8.1-0.7c0.9,3.7,0.7,7.2-1.9,9.7c-14.6,14.6-36.1-3.7-52.5,1.9c-7.6,3-13.9,15-19,26.4c9.5-1.9,18.5-3.5,26.1-2.8
	c1.9,0-1.9,10.9-5.3,16.2c18,3.7,32.6,3.7,50.6,14.6c12.7,7.2,30.8,3.7,46.9,9c1.9,0,7.2,1.9,10.9,5.3c1.6,1.6,7.6-1.2,12.7-1.6
	c0-1.2,0-2.5,0-3.7C801.8,414.2,798.1,412.3,794.6,410.5z" title=""></path>
<path id="_x32_58" class="st1 area" d="M890.4,378.1c-7.2-16.2-32.6-14.6-48.8-21.7c-11.8-4.4-22.2-11.1-33.5-18.3
	c-5.1,9.5-11.8,19.2-20.8,23.8c-9,5.3-1.9,16.2,5.3,25.2c5.6,3.7-3.7,16.2,1.9,23.6c3.7,1.9,7.2,3.7,10.9,5.3c0,1.2,0,2.5,0,3.7
	c0.7,0,1.2-0.2,1.9-0.2c9,5.3,12.7,19.9,7.2,25.2l0,0c20.1,0.2,39.8,0.9,52.5,16.2c1.9,1.9,9,0,9,0
	C885.1,434.1,899.4,405.2,890.4,378.1z" title=""></path>
<path id="_x34_48" class="st0 area" d="M857.8,515.5c7.2,1.9,16.2,9,9,14.6c-5.3,7.2-12.7,16.2-7.2,23.6c14.6,14.6,50.6-3.7,43.5,27.1
	c18-3.7,25.4-23.6,34.5-36.1c5.3-10.9,19.9,7.2,25.4,0c7.2-10.9,12.7-28.9,27.1-37.9c1.9-1.9-5.3-7.2-3.7-10.9
	c12.7-21.7,48.8-37.9,39.8-57.8c-10.9-21.7-39.8-37.9-63.4-50.6c-19.9-10.9-5.3-39.8-36.1-50.6c-8.6-3.2-13.9-14.6-21.3-24.1
	c0,0.2-0.2,0.5-0.5,0.5c-19.9,25.4-41.6-9-48.8-25.2c-5.3-12.7-1.9-34.5-19.9-37.9c-7.2-1.9-14.1-4.6-20.1-7.9l-0.2,0.7l-0.7,0.5
	c-0.5,0.5-9.5,7.9-25,14.8c1.9,6.7-0.7,13.9,2.5,17.1c9,10.9,23.6,23.6,14.6,32.6c-9,7.2-10.9,21.7-7.2,25.2
	c14.6,9,27.1,18,41.6,23.6c16.2,7.2,41.6,5.3,48.8,21.7c9,27.1-5.3,56-14.6,83.3c0,0-7.2,1.9-9,0c-12.7-15.3-32.4-16-52.5-16.2
	c-9,12.7-14.3,23.4-10.9,36.1c1.9,7.2,10.9,10.9,14.6,16.2c3.7,3.7,0,10.9,0,14.6c-1.6,6.7,7.2,2.8,13,3.2
	C839.7,512.9,848.5,512,857.8,515.5z" title=""></path>
<path id="_x34_29" class="st2 area" d="M843.4,643.8c-3.7,12.7,1.9,27.1,1.9,39.8c1.9,14.6-7.2,34.5,12.7,43.5c7.2,1.9,10.9-5.3,10.9-7.2
	c3.7-7.2,7.2-14.6,12.7-14.6c18-3.7,41.6-3.7,46.9-21.7c3.7-9-3.7-18,1.9-27.1c5.3-5.3,7.2-10.9,3.7-16.2c-1.9-3.7-5.3-9-10.9-10.9
	c9-12.7,9-28.9,1.9-41.6c-1.9-5.3-14.6,5.3-21.7-3.7c-1.2-2.3-0.7-4.9,0.7-7.2c3.7-25.7-30.3-9.7-44.2-23.6
	c-5.3-7.2,1.9-16.2,7.2-23.6c7.2-5.3-1.9-12.7-9-14.6c-9.5-3.5-18-2.5-26.8-0.2c0.5,0,1.2,0.2,1.6,0.2c-9,10.9-34.5,10.9-28.9,28.9
	c3.7,9,23.6,21.7,9,28.9c-7.2,3.7-19.9,0-23.6,7.2c-0.7,0.9-1.2,1.9-1.4,2.5c-2.1,4.9,1.6,6,4.9,7.6c3.9,1.6,9.5,2.5,12.7,4.2
	c3.7,3.7-5.3,3.7-3.7,7.2l0,0c6,6.9,12.3,13.2,18.3,19.9c1.6,2.5,0.9,5.1-0.5,7.4c4.9,1.9,9.9,3.5,14.8,5.1
	C836.3,634.8,845.3,640.4,843.4,643.8z" title=""></path>
<path id="_x34_27" class="st0 area" d="M809,750.7c3.7-3.7,0-10.9,3.7-14.6c15.5-8.3,36.3,0.5,43.2-10.2c-17.1-9.5-8.8-28.4-10.6-42.3
	c0-12.7-5.3-27.1-1.9-39.8c1.9-3.7-7.2-9-9-9c-5.1-1.6-9.9-3.2-14.8-5.1c-1.6,2.5-3.9,5.1-5.1,6.9c-9,12.7-3.7,30.8-23.6,32.6
	c-5.3,0-16.2,7.2-10.9,16.2c3.7,3.7,9,5.3,9,9c0,16.2-12.7,27.1-23.6,39.8c-3.2,6.7,4.2,15-1.9,21.7
	C777.5,760.4,794,757.2,809,750.7z" title=""></path>
<path id="_x34_31" class="st3 area" d="M852.5,870c5.3-27.1,27.1-41.6,34.5-63.4c16.1-41.6-38-32.6-63.4-50.6c-3.7-3.7-7.2-5.3-10.9-9
	c-0.7-0.2-1.2-0.5-1.9-0.7c-0.2,1.6-0.7,3-1.6,4.2c-15,6.5-31.5,9.7-45.3,5.6c-0.5,0.5-1.2,1.2-1.9,1.6
	c-10.9,10.9-23.6,23.6-37.9,16.2c-5.8-2.3-8.8-9.3-13-15.3c-0.5,0.5-0.9,0.9-1.4,1.4c-2.3,1.6-6.9,3.9-12.3,6.2
	c-7.6,3.5-18,8.3-21,12l-1.2,1.6c-6.9,8.6-13.9,18.3-8.3,24.7c7.2,8.3,23.4,32.6,31,44.4l3,4.6c4.2,6.2,6.9,13.4,7.9,16.7
	c8.6,1.2,40.7,6.5,47.4,15.7c6,8.6,7.9,9.7,26.4,11.1c16.9,1.2,22.9-10.4,22.9-10.6l0.5-0.7l0.7-0.5c1.2-0.7,11.8-6.2,19.4-3.5
	c2.1,0.9,3.9,2.3,5.1,4.4C842.3,883.9,851.3,879.3,852.5,870z" title=""></path>
<path id="_x33_88" class="st1 area" d="M1015.3,748.8c0-7.2-14.6-1.9-14.6-5.3c-1.9-12.7,18-5.3,21.7-16.2c-10.9-1.9-23.6-5.3-28.9-16.2
	c-7.2-12.7,9-18,7.2-27.1c-5.3-10.9-12.7-23.6-21.7-34.5s-21.7-3.7-34.5-1.9c-2.1,0-5.6-1.9-9-2.8c0.5,3.9-1.4,7.9-5.3,11.8
	c-5.3,9,1.9,18-1.9,27.1c-5.3,18-28.9,18-46.9,21.7c-5.3,0-9,7.2-12.7,14.6c0,1.9-3.7,9-10.9,7.2c-0.7-0.2-1.4-0.7-2.1-1.2
	c-6.9,10.6-27.8,1.6-43.2,10.2c-2.5,2.5-1.6,6.7-1.9,10.2c0.7,0.2,1.4,0.2,1.9,0.7c3.7,3.7,7.2,5.3,10.9,9
	c21.5,15.3,63.8,11.1,66.1,34.9c6.5,6.9,13.4,13,24.3,10.2c5.3,0,9-7.2,14.6-7.2c14.6-1.9,28.9-3.7,43.5-7.2
	c8.8-3.5,20.8-3.7,23.4,1.2C1008.6,780.5,1016.4,764.8,1015.3,748.8z" title=""></path>
<path id="_x34_38" class="st2 area" d="M1038.9,231.5c7.2-1.9,16.2-3.7,23.6,0c10.9,5.3,18,21.7,28.9,25.4c21.7,5.3,32.6,18,45.3,34.5
	c3.7,5.3,14.6,7.2,18,12.7c16.2,19.9,28.9,59.7,56,48.8c16.2-5.3,34.5,0,45.3-12.7c5.1-3.2,0.9-14.3,4.4-21.5l-6.7-3.7l-4.4-7.4
	l-6.2-15.5l-4.4-7.2l-23.1-26.4l-9.9-14.8l-8.1-16.4l-6.7-8.1l-7.9-3.2l-18.3-3l-8.3-4.9l-14.1-11.1l-31.5-9.7l-2.3-0.5l-1.9,1.2
	l-2.5,3.7l-1.4,1.4l-2.3,0.5l-3-1.9l-1.4-4.4l-1.2-4.9l-1.4-4.2l-3.7-3.7l-3-0.5l-6.9,2.5h-2.1l-1.8-1.2l-1.4-1.2l-1.4-1.4l-3.7-0.7
	l-0.5-1.9l0.5-2.3l0.5-1.9l0.5-0.7l0.7-0.7l0.5-1.2l-1.4-1.9l-4.2-4.2l-13.4-10.9l-2.5-3.7l-0.2-1.2c-5.1,2.5-11.1,3.2-13.9,6
	c-9,10.9,14.6,28.9,3.7,34.5c-13.6,8.6-22.4,17.1-23.4,33.5C1021.5,224.8,1029.1,232.9,1038.9,231.5z" title=""></path>
<path id="_x34_09" class="st3 area" d="M1221.6,358.2c10.9,10.9,34.5,18,32.6,36.1c0,5.3-12.7,5.3-14.6,10.9c-5.3,9,5.3,16.2,3.7,27.1
	c-1.9,3.7,3.7,3.7,7.2,5.3c7.2,1.9,18-5.3,21.7,0c19.9,25.4,39.8,36.1,70.5,25.4c3.7,0,10.9,9,16.2,5.3c7.2-7.2,18-19.9,23.6-12.7
	c10.9,14.6,21.7,19.9,34.5,5.3c3.7-1.9,9,0,10.9,1.9c3.2,6.2,8.1,13.2,13.9,16.9l0.2-1.6l-0.7-5.3l0.5-3l1.4-1.4l2.3-0.7l1.9-1.2
	l0.7-3v-2.3l0.5-2.5l0.7-2.3l1.2-1.9l2.3-2.5l0.5-1.9l-0.5-1.2l-0.5-7.9l-3.2-16l-3.2-4.9l-0.7-2.5v-6l-0.5-2.5l-0.7-3l-1.2-1.4
	l-1.2-1.4l-1.8-1.2l-1.9-1.2l0.5-1.9l0.5-0.5l0.7-1.2l-3.2-7.4l1.4-12.7l4.4-20.4l-1.2-4.2l-0.5-3l1.2-2.5l1.2-2.3l1.2-2.3l1.2-3
	v-3.2v-3l-1.2-2.5l-1.9-3.7l-1.4-9l-9-1.2l-10.9-1.9l-159.3,3l-0.7-0.5c-3.5,7.4,0.7,18.3-4.4,21.5c-9.5,11.1-24.3,8.3-38.6,11.1
	C1218.1,354.5,1219.5,357.1,1221.6,358.2z" title=""></path>
<path id="_x35_40" class="st1 area" d="M1185.3,593.2c-19.9,18-39.8,3.7-57.8,0c-23.6-5.3-46.9,0-70.5,5.3c-9,1.9-23.6,14.6-14.6,25.4
	c3.7,7.2,14.6,16.2,9,23.6c-3.7,5.3-10.9,12.7-7.2,14.6c14.6,5.3,21.7,16.2,32.6,25.4c10.9,9,16.2-9,21.7-14.6
	c9,21.7,23.6,3.7,39.8,3.7c7.2,1.9,7.2,10.9,10.9,16.2c5.1,9.9,17.8,13.9,25.9,22c0.5-0.2,0.9-0.2,1.4-0.5
	c7.6-1.6,14.8-0.5,21.5,2.1c-1.9-13.9-5.1-26.1,0.2-40c7.4-13.4,7.6-37.7,18.5-52c-6.2-1.9-12.3-4.4-16.7-9.5
	c-5.1-6.9-15.3-17.1-6.7-22.7C1189.9,591.6,1187.1,591.6,1185.3,593.2z" title=""></path>
<path id="_x33_93" class="st0 area" d="M1029.8,676.4c-5.3,9,19.9,16.2,9,32.6c-5.8,7.6-13,13.4-21,17.1c1.6,0.2,3.2,0.7,4.9,0.9
	c-3.7,10.9-23.6,3.7-21.7,16.2c0,3.7,14.6-1.9,14.6,5.3c1.2,16-6.7,31.7-20.1,39.3c0,0.2,0.2,0.5,0.2,0.5
	c16.2,30.8,37.9,59.7,76.1,54.3c0.9,0,1.6-0.2,2.3,0c8.8-5.1,18.3-8.3,24.7-12.5c27.1-18,16.2-50.6-12.7-70.5
	c-1.9-3.7,3.7-7.2,5.3-9c25.4-9,39.8,28.9,57.8,19.9c17.8-9-3-47.6,25.9-55.7c-8.1-8.1-20.8-12-25.9-22c-3.7-5.3-3.7-14.6-10.9-16.2
	c-16.2,0-30.8,18-39.8-3.7c-5.3,5.3-10.9,23.6-21.7,14.6c-10.9-9-18-19.9-32.6-25.4l0,0C1037.2,665.1,1031.7,671.4,1029.8,676.4z" title=""></path>
<path id="_x33_90" class="st3 area" d="M1076.8,546.2c-12.7-10.9-34.5,1.9-45.3-7.2c-15-12.5-28.2-24.1-44.4-30.5
	c-12.5,9.5-17.6,25.9-24.3,36.1c-5.3,7.2-19.9-10.9-25.4,0c-9,12.7-16.2,32.6-34.5,36.1c0.2-1.4,0.5-2.5,0.7-3.5
	c-1.4,2.3-1.9,4.9-0.7,7.2c7.2,9,19.9-1.9,21.7,3.7c7.2,12.7,7.2,28.9-1.9,41.6c5.3,1.9,9,7.2,10.9,10.9c0.9,1.6,1.6,3,1.9,4.6
	c3.5,0.7,6.9,2.8,9,2.8c12.7-1.9,25.2-9,34.5,1.9c9,10.9,16.2,23.6,21.7,34.5c1.9,9-14.6,14.6-7.2,27.1c4.6,9.3,14.6,13.2,24.3,15.3
	c8.1-3.9,15.3-9.5,21-17.1c10.9-16.2-14.6-23.6-9-32.6c2.1-5.1,7.4-11.3,14.3-14.6c-3.5-1.9,3.7-9,7.2-14.3c5.3-7.2-5.3-16.2-9-23.6
	c-9-10.9,5.3-23.6,14.6-25.2c9.3-2.1,18.7-4.4,28-5.8c-3.7-5.1-8.6-9.7-11.8-16C1067.8,566.1,1087.7,555.3,1076.8,546.2z" title=""></path>
<path id="_x34_35" class="st2 area" d="M984.5,293.6c6.1-4.5,12.6-9.8,19.1-15.9c2.5-2.4,4.9-4.8,7.1-7.1c1.7,0.1,4,0.1,6.6-0.5
	c4.7-1.1,7.9-3.6,9.5-5.1c7.6,12.9,11.6,19.3,12,19c0.6-0.3-5.4-13-18-37.9c-1.9-3.7-10.9-1.9-16.2-5.3c6-3.7,2.3-8.8,0.5-14.1
	c-3-0.2-5.8-0.9-7.6-2.3c-18-10.6-34.9-23.1-53-34.5c-2.5,10.4-2.3,22-4.9,32.6c-7.2,16.2-27.1,1.9-37.9,14.6c0,1.9,0,5.3,0,7.2
	c10.9,14.6,45.3,16.2,36.1,34.5c-5.3,10.9-19.9,12.7-34.5,16.2c-6.9,1.9,6.5,10.4,2.1,17.6c7.4,9.5,12.7,20.8,21.3,24.1
	c6.7,2.6,9.9,4,14.2,9c7.9,9.1,6.9,21.2,9,21.2c0.8,0,2-2,3.2-9.9c3.6-9.5,7.9-19.8,13.1-30.4C972.3,314.3,978.5,303.4,984.5,293.6z
	" title=""></path>
<path id="_x33_47" class="st3 area" d="M1074.9,423.2c1.9-1.9,9,1.9,12.7,0c18-19.9-19.9-25.4-21.7-39.8c0-3.7,5.3-9,3.7-10.9
	c-19.2-14.8-32.1-30.5-52-28.2c0.5,0.5,0.9,0.7,1.4,1.2c1.9,3.7,1.9,9,0,12.7c-12.5,15.7-42.6,13.6-46.9,34
	c21.5,11.8,44.6,26.8,54.3,45.8c1.2,2.5,1.6,4.9,1.4,7.2C1044.4,446.3,1061.5,438.9,1074.9,423.2z" title=""></path>
<path id="_x34_39" class="st1 area" d="M1293.9,482.9c-6-9.3-7.6-19.4-6.5-28.9c-5.1-4.4-10.2-9.9-15.3-16.2c-3.7-5.3-14.6,1.9-21.7,0
	c-3.7-1.9-9-1.9-7.2-5.3c1.9-10.9-9-18-3.7-27.1c1.9-5.3,14.6-5.3,14.6-10.9c1.9-18-21.7-25.4-32.6-36.1c-2.1-0.9-3.5-3.7-4.4-7.2
	c-2.1,0.5-4.4,0.9-6.5,1.6c-27.1,10.9-39.8-28.9-56-48.8c-3.7-5.3-14.6-7.2-18-12.7c-12.7-16.2-23.6-28.9-45.3-34.5
	c-10.9-3.7-18-19.9-28.9-25.4c-7.2-3.7-16.2-1.9-23.6,0c-9.7,1.4-17.1-6.7-23.4-15.5c0,0.9,0,1.9,0,2.8c1.2,6-4.6,8.1-10.4,7.6
	c2.1,5.3,5.6,10.4-0.5,14.1c5.3,3.7,14.6,1.9,16.2,5.3c10.9,12.7,7.2,23.6,18,37.9c9,12.7-10.9,36.1-27.1,50.6
	c-3.2,4.9,2.1,6.7,6,9.7c19.7-2.3,32.8,13.6,52,28.2c1.9,1.9-3.7,7.2-3.7,10.9c1.9,14.6,39.8,19.9,21.7,39.8
	c-3.7,1.9-10.9-1.9-12.7,0c-13.4,15.7-30.5,23.1-47.4,21.7c-0.9,16.9-30.1,31.7-41.2,50.6c-1.9,3.7,5.3,9,3.7,10.9
	c-0.9,0.7-1.9,1.2-2.8,1.9c16.2,6.7,29.4,18.3,44.4,30.5c9.9,8.3,28.7-1.4,41.6,4.9c0-0.5,0-0.7,0-1.2c1.9-36.1,16.2-65.2,45.3-86.7
	c9-7.2,28.9-1.9,30.8,5.3c3.7,19.9,9,39.8,27.1,46.9c16.2,7.2,30.8-3.7,45.3-12.7c5.3-1.9,10.9-1.9,16.2,0c5.3,3.7,9,9,14.6,12.7
	c14.6,6.7,32.1,3.5,46.3,9.3C1302.3,505.1,1300,492.1,1293.9,482.9z" title=""></path>
<path id="_x34_37" class="st2 area" d="M1237.7,495.6c-5.3-1.9-10.9-1.9-16.2,0c-14.6,9-28.9,19.9-45.3,12.7c-18-7.2-23.6-27.1-27.1-46.9
	c-1.9-7.2-21.7-12.7-30.8-5.3c-28.9,21.7-43.5,50.6-45.3,86.7c0,0.5,0,0.7,0,1.2c1.4,0.7,2.5,1.4,3.7,2.5c10.9,9-9,19.9-3.7,30.8
	c3.2,6.2,8.1,10.9,11.8,16c14.1-2.3,28.4-3,42.6,0.5c18,3.7,37.9,18,57.8,0c1.6-1.6,4.6-1.9,7.6-1.2c0.5-0.2,0.9-0.5,1.4-0.7
	c14.6-7.2,21.7-16.2,23.6-30.8c0-3.7,12.7,1.9,14.6-1.9c3.7-5.3,0-18,7.2-18c21.7,0,43.5,5.3,56.2-16.2c1.2-2.3,2.1-4.6,2.8-6.9
	c-14.1-5.8-31.5-2.5-46.3-9.3C1246.8,504.6,1243.3,499.3,1237.7,495.6z" title=""></path>
<path id="_x33_93_00000150801974250005500280000016647319687445542562_" class="st3 area" d="M1380.2,913.7l-2.5-4.9l-16.4-20.4l-3.2-6.7
	l-1.9-3l-3-2.3l-5.3-2.5l-1.9-1.9l-1.9-6l-1.4-1.9l-1.9-1.2h-2.3l3-5.6l5.6-2.5l11.8-1.4l5.6-1.4l4.2-3l1.6-1.9
	c-18,0.7-35.4,0.2-51.1-11.6c-18-12.7-28.9-27.1-45.3-41.6c-10.9-9-16.2-28.9-30.8-39.8c-1.9-1.9-1.9-9,0-10.9
	c0.5-0.5,0.7-0.9,1.2-1.2c-7.2-3.7-14.3-7.9-21-11.3c-14.6-9-28.9-19.9-46.9-16.2c-30.8,7.2-9,46.9-27.1,56.2
	c-18,9-32.6-28.9-57.8-19.9c-1.9,1.9-7.2,5.3-5.3,9c28.9,19.9,39.8,52.5,12.7,70.5c-6.5,4.4-16.2,7.4-24.7,12.5
	c12.7,0.2,1.4,18.7,3.2,29.1c0,1.9,5.3,3.7,7.2,7.2c1.4,17.1,4.4,40.7-6.9,53.9c1.9,1.2,4.2,2.8,7.2,5.6
	c9.3,8.1,16.4,19.7,18.7,23.6c10.2,0,63.1,0.2,73.1,1.4c10.9,1.4,26.1,9.7,28,15.5c0.5,1.4,0.7,3.2,0.9,5.8c0.5,6,1.4,16,7.2,18.3
	c9.7,4.2,16-2.1,19.4-8.3c0-0.2,13.4-23.1,21.3-23.1h37.9c0.7,0,1.2,0.2,1.6,0.5v-0.7l1.4-11.6l6-11.8l7.2-9l7.4-7.9l10.4-5.1
	l3.2-3.7l-1.4-5.6L1380.2,913.7z" title=""></path>
<path id="_x34_02" class="st1 area" d="M1400.6,716.2c-12.7-5.3-12.7-19.9-23.6-27.1c-9-7.2-19.9,7.2-23.6,18c-1.8,0-5.6,0-7.2,0
	c-4.9-6-9.5-9.5-14.8-9.7c-3.4,1.4-7.3,2.8-11.8,4c-4.8,1.3-9.2,2.1-13,2.6c-9.1-5.3-21.9-14.3-34.1-28.6
	c-10-11.8-16.2-23.3-20.1-32c-5-5.1-23.1-23.3-37.5-18.8c-17.2,5.3-26.4,41.8-16.9,91.8c15,8.9,30.1,17.9,45.1,26.8
	c-0.4,2.7-0.8,5.4-1.2,8.1c4.2,5.3,10.5,13.4,18,23.4c7.9,10.6,10.4,16,14,19.2c16.2,14.6,27.1,28.9,45.3,41.6
	c15.5,11.8,33.1,12.3,51.1,11.6l8.3-9.3l1.2-1.9l1.2-1.9l3-1.4l3-0.5h3l2.5-0.5l2.3-3l0.7-6.2l-0.7-6.7l0.5-6l4.2-4.4l6.7-5.3
	l4.4-7.4l1.2-4.4l6.7-2.3l1.8-8.1l0.7-9.3v-2.3l-1.2-4.9V759l0.5-3l3.2-4.9l0.7-2.5l0.5-4.9l3.2-9.7l1.2-10.9l0.2-0.7
	C1419.8,720.8,1410,719.5,1400.6,716.2z" title=""></path>
<path id="_x33_83" class="st0 area" d="M1466.2,593l-2.3-10.4l-1.8-2.5l-5.1-7.9l-3-6l-0.5-6.7l0.7-1.4l3-3l0.7-1.9l-0.5-4.4l0.5-1.4
	l1.4-6v-2.5l-1.4-1.9l1.4-5.6l-0.5-4.4l-0.7-3.7l-1.2-9.3l-1.2-4.4l-1.9-4.2l-2.5-3.7l-3.2-4.2l-3.7-3.2l-4.4-2.3l-5.3-0.7l-3-1.4
	l2.3-3l4.4-3.2l2.5-3V480c-5.8-3.7-10.6-10.4-13.9-16.9c-1.8-1.9-7.2-3.7-10.9-1.9c-12.7,14.6-23.6,9-34.5-5.3
	c-5.3-7.2-16.2,5.3-23.6,12.7c-5.3,3.7-12.7-5.3-16.2-5.3c-22.9,8.1-40,4.2-55.3-9c-1.2,9.5,0.5,19.9,6.5,28.9
	c7.2,10.9,9,27.1,1.9,41.6c-12.7,21.7-34.5,16.2-56.2,16.2c-7.2,0-3.7,12.7-7.2,18c-1.9,3.7-14.6-1.9-14.6,1.9
	c-1.8,14.6-9,23.6-23.6,30.8c-10.9,5.3,0,16.2,5.3,23.6c10.9,12.7,30.8,9,41.6,19.9c16.2,12.7,23.6,32.6,36.1,50.6
	c9,14.6,27.1,23.6,45.3,14.6c9-5.3,16.2-1.9,23.6,7.2c1.9,0,5.3,0,7.2,0c3.7-10.9,14.6-25.4,23.6-18c10.9,7.2,10.9,21.7,23.6,27.1
	c9.5,3.2,19.2,4.6,28.4,6.5l1.6-3l5.3-7.2l-2.3-2.3l-0.5-2.3l0.5-2.3l0.5-3l-0.5-1.2l-7.9-9.9l-0.5-2.8l1.4-1.2l1.9-1.2l0.5-2.5
	l-1.2-2.3l-1.2-1.2l-0.5-2.5l0.5-5.6l1.2-5.3l3-2.5h4.9l5.3-1.2l4.2-2.3l1.9-4.4l-1.2-13.4l1.2-5.3l1.2-3l4.4-6l1.4-2.5l1.9-7.9
	l2.3-5.1l5.3-6l3-4.9l1.2-5.1L1466.2,593z" title=""></path>
<path id="_x34_32" class="st2 area" d="M1084,879c-1.8-3.7-7.2-5.3-7.2-7.2c-1.8-10.9,10.9-30.8-5.3-28.9c-37.9,5.3-59.7-23.6-76.1-54.3
	c-1.9-5.3-14.6-5.3-23.6-1.9c-14.6,3.7-28.9,5.3-43.5,7.2c-5.3,0-9,7.2-14.6,7.2c-10.9,2.8-17.6-3.2-24.3-10.2
	c0.5,4.2-0.5,9.5-2.8,15.7c-7.2,21.7-28.9,36.1-34.5,63.4c-1.2,9-10.2,13.9-21,16.2c0.5,0.7,0.7,1.2,0.9,1.9
	c3.9,10.2,19.9,33.1,25,38.2c4.2,4.2,24.3,21,32.6,28c2.3-7.4,8.8-16.7,23.4-16.7c12,0,29.4-0.9,43.2-1.6c9.5-0.5,17.8-0.9,21.7-0.9
	c4.6,0,21.5-0.7,39.5-1.4c19-0.7,38.6-1.4,44.4-1.4c2.8,0,4.6-0.2,6.2-0.5c3.5-0.5,5.6-0.5,8.6,1.2
	C1088.6,919.7,1085.3,896.1,1084,879z" title=""></path>
<path id="_x34_26" class="st1 area" d="M724.1,774.3c14.6,7.2,27.1-5.3,37.9-16.2c9-7.2,0-16.2,3.7-23.6c10.9-12.7,23.6-23.6,23.6-39.8
	c0-3.7-5.3-5.3-9-9c-5.3-9,5.3-16.2,10.9-16.2c19.9-1.9,14.6-19.9,23.6-32.6c1.9-3.7,9-9,5.3-14.6c-5.8-6.7-12.3-13-18.3-19.9
	c-14.6,1.9-30.8,0-45.1,10.9c-14.6,12.7-10.9-16.2-19.9-25.4c-1.9-1.9-7.2-1.9-10.9,0c-25.2,19.9-54.3,10.9-83.3,16.2
	c-5.3,0-10.9,5.6-14.6,7.2c-7.2,3.7-14.6,5.3-21.7,5.3c-12.7,3.7-23.6,21.7-34.5,14.6c-9-5.1-16.9-9.5-25-13.4
	c-1.2,8.1,0.9,19,2.5,27.5c0.9,5.1,1.9,9.5,1.9,12.5c0,12-16,16.2-29.8,16.2c-13.4,0-22.9,5.6-24.7,8.3l-0.7,1.2
	c-3.7,6-15.3,24.5-39.3,25.9c-15.7,0.9-27.1,7.4-32.8,18.7c-0.9,2.1-9.9,19.7-19.4,29.1c-4.4,4.4-14.1,16.7-22.9,27.5
	c-0.7,0.9-1.6,2.1-2.3,3c9,0.2,28,0.7,43.9,2.8c21.5,2.8,37.7-8.8,45.3-14.3c9.9-7.2,31.7-28.2,32.6-33.5c1.6-8.1,16-23.4,23.4-26.4
	c1.6-0.7,5.1-2.3,9.5-4.6c13.4-6.9,33.8-17.3,45.3-18.5h0.9c28.4-2.5,58.3-3.9,65,5.3c4.2,6,11.1,8.3,17.8,10.6
	c3,0.9,5.8,2.1,8.3,3.2c8.8,4.4,22.4,14.1,29.1,20.8c4.6,4.6,12.5,14.6,12,21.7c0,1.6-0.7,3-1.4,4.2
	C715.3,765,718.1,772,724.1,774.3z" title=""></path>
<line id="LINE_32" class="st5 area" x1="439.9" y1="347.4" x2="548.1" y2="340.9" title=""></line>
<line id="LINE_33" class="st5 area" x1="759" y1="380" x2="736.8" y2="273.8" title=""></line>
<line id="LINE_34" class="st5 area" x1="972.7" y1="292.8" x2="1057.8" y2="51.8" title=""></line>
<line id="LINE_35" class="st5 area" x1="1028.5" y1="409.6" x2="1180.6" y2="106.1" title=""></line>
<line id="LINE_36" class="st5 area" x1="600.2" y1="858" x2="809" y2="710.7" title=""></line>
<line id="LINE_38" class="st5 area" x1="1049" y1="987.3" x2="999.1" y2="590.9" title=""></line>
<g id="G_39" class="area" title="">
	<path id="PATH_40" d="M1039.3,32.1c0.2,0.7,0.2,1.4,0.2,2.1c0,0.9-0.2,1.6-0.5,2.5c-0.7,1.6-1.9,3-4.2,3.9
		c-1.9,0.7-3.7,1.2-5.8,1.2c-2.1,0-3.7-0.5-5.1-1.4c-1.4-1.2-2.1-2.5-2.1-4.6c0-1.2,0.2-2.1,0.7-3.5c0.5-0.9,0.7-1.6,1.2-2.1
		c0.2-0.2,0.5-0.2,0.5-0.2c0.2,0,0.2,0,0.2,0.2c0,0,0,0.2,0,0.5c-0.7,1.4-0.9,2.8-0.9,3.9c0,1.2,0.5,2.1,1.2,3
		c0.9,1.2,2.5,1.6,4.6,1.6c2.3,0,4.4-0.5,6-1.2c1.4-0.7,2.3-1.4,2.8-2.3c0.2-0.2,0.2-0.7,0.2-0.9c0-0.7-0.2-1.4-0.5-2.3
		c-0.2-0.7-0.9-1.9-2.1-3.7l0.9-1.9c0.2-0.2,0.2-0.5,0.2-0.5s0.2,0,0.2,0.2C1038.4,28.4,1039.1,30.3,1039.3,32.1z M1032.6,22
		l-1.9,1.9l-1.9-1.9l1.9-1.9L1032.6,22z" class="area" title=""></path>
	<path id="PATH_41" d="M1045.1,29.6c0,0.9-0.2,1.9-0.7,2.5c-0.2,0.5-0.5,0.7-0.5,0.7s-0.2-0.2-0.2-0.9c0-2.8-0.5-9.3-1.4-19.7
		l1.9-1.9c0.2-0.2,0.2-0.2,0.2-0.2s0,0.2,0,0.5C1044.9,13.6,1045.1,19.9,1045.1,29.6z" class="area" title=""></path>
	<path id="PATH_42" d="M1056.7,32.6c0,2.3-0.7,4.4-2.1,6.5c-1.2,1.6-2.3,2.5-3,2.5c-1.9,0-3.2,0-4.6-0.2c-0.5,0-0.7-0.2-0.7-0.2
		s0.2-0.2,0.7-0.2c1.9-0.5,3.7-1.4,5.6-2.8c1.9-1.6,3-3.2,3-4.9c0-0.9-0.7-2.3-2.3-3.9l1.2-2.1c0-0.2,0.2-0.2,0.2-0.2l0.2,0.2
		c0.5,0.7,1.2,1.6,1.4,2.8C1056.4,30.8,1056.7,31.7,1056.7,32.6z" class="area" title=""></path>
	<path id="PATH_43" d="M1065.9,32.4h-1.6c-1.6,0-3-0.7-3.5-2.1c-0.5-0.9-0.7-2.5-0.7-4.4v-4.4c0-2.1-0.2-5.1-0.5-9l1.4-1.6
		c0.2-0.2,0.5-0.2,0.5,0c0.2,2.1,0.5,5.1,0.5,9v6.7c0,1.9,0.9,2.8,2.8,2.8h1.2L1065.9,32.4L1065.9,32.4z" class="area" title=""></path>
	<path id="PATH_44" d="M1077.3,32.4h-1.9c-2.1,0-3.5-0.7-4.4-2.1c-0.7,1.4-2.3,2.1-4.9,2.1h-1.4v-2.8h2.1c2.3,0,3.5-0.9,3.7-2.5
		c0-0.7,0.2-1.2,0.5-1.2c0.2,0,0.5,0.5,0.5,1.2c0.2,1.6,1.4,2.5,3.5,2.5h2.1v2.8H1077.3z M1072.6,20.4l-1.9,1.9l-1.9-1.9l1.9-1.9
		L1072.6,20.4z" class="area" title=""></path>
	<path id="PATH_45" d="M1095.3,25.7l-0.9,1.9c-1.6,0-3,0-3.7,0.2c-0.9,0.5-2.3,0.9-4.2,1.9c-1.9,0.9-3.2,1.6-4.2,1.9
		c-1.4,0.5-3,0.7-4.4,0.7h-1.6v-2.8h1.9c2.1,0,3.9-0.5,5.6-1.2l5.3-2.3c-0.9-0.2-2.3-0.7-4.2-1.4c-1.6-0.7-2.5-0.9-3-0.9
		c-0.9,0-1.9,0.5-2.8,1.2c-0.2,0.2-0.2,0.2-0.5,0.2c-0.2,0-0.2,0-0.2-0.2v-0.2c0.7-2.3,2.1-3.2,3.9-3.2c0.7,0,1.6,0.2,2.5,0.7
		c1.9,0.9,3.2,1.4,4.2,1.9c1.6,0.5,3.5,0.9,5.6,0.9c0.5,0,0.7,0,0.7,0.2C1095.5,25.2,1095.5,25.4,1095.3,25.7z M1082.6,36.8l1.6-1.6
		l1.6,1.6l-1.6,1.6L1082.6,36.8z M1084.7,40.2l1.6-1.6l1.6,1.6l-1.6,1.6L1084.7,40.2z M1086.7,36.8l1.6-1.6l1.6,1.6l-1.6,1.6
		L1086.7,36.8z" class="area" title=""></path>
</g>
<g id="G_46" class="area" title="">
	<path id="PATH_47" d="M919.8,123.3h-0.9c-0.9,0-1.4-0.2-1.9-0.5c0,0.2,0,0.5,0,0.7c0,2.1-0.7,4.2-2.1,6.2c-1.2,1.9-2.3,2.5-3,2.5
		c-1.9,0-3.2,0-4.6-0.2c-0.5,0-0.7-0.2-0.7-0.2s0.2-0.2,0.7-0.2c1.9-0.5,3.7-1.4,5.6-2.8c1.9-1.6,3-3.2,3-4.9c0-0.9-0.7-2.3-2.3-3.9
		l1.2-2.1c0-0.2,0.2-0.2,0.2-0.2l0.2,0.2c0.7,0.9,1.2,1.6,1.6,1.9c0.7,0.5,1.6,0.9,2.5,0.9h0.7v2.5L919.8,123.3L919.8,123.3z
		 M915.4,111.2l-1.9,1.9l-1.9-1.9l1.9-1.9L915.4,111.2z" class="area" title=""></path>
	<path id="PATH_48" d="M933.6,104.5c0,0.5-0.2,1.2-0.7,2.5c-2.8,0.7-6.2,1.9-10.2,3c2.8,2.8,4.4,5.1,4.6,6.7c0.2,1.2,0,2.3-0.5,3.5
		s-1.4,1.9-2.5,2.3c-0.9,0.5-2.5,0.5-4.6,0.5h-0.9v-2.8h0.7c4.4,0,6.7-0.7,6.7-2.3c0-1.2-1.2-3-3.7-5.3l-0.2,0.7
		c-0.2-0.2-0.7-0.7-1.2-1.4c-0.7-0.7-0.9-1.2-0.9-1.4c0-0.7,0.2-1.4,0.9-2.1c0.2-0.2,1.6-0.7,4.6-1.6
		C928.8,105.9,931.6,105.2,933.6,104.5z M933.2,101.1l-0.5,1.6l-11.3,3.7l0.5-1.6L933.2,101.1z" class="area" title=""></path>
	<path id="PATH_49" d="M944.7,123.5c0,2.3-0.7,4.4-2.1,6.5c-1.2,1.6-2.3,2.5-3,2.5c-1.9,0-3.2,0-4.6-0.2c-0.5,0-0.7-0.2-0.7-0.2
		s0.2-0.2,0.7-0.2c1.9-0.5,3.7-1.4,5.6-2.8c1.9-1.6,3-3.2,3-4.9c0-0.9-0.7-2.3-2.3-3.9l1.2-2.1c0-0.2,0.2-0.2,0.2-0.2l0.2,0.2
		c0.5,0.7,1.2,1.6,1.4,2.8C944.5,121.6,944.7,122.8,944.7,123.5z" class="area" title=""></path>
	<path id="PATH_50" d="M959.1,118.4c0,3.2-2.1,4.9-6.5,4.9c-1.6,0-2.8-0.2-3.5-0.7c-0.9-0.5-1.4-1.6-1.4-3c0-0.7,0.2-1.4,0.5-2.1
		c0.2-0.2,0.2-0.5,0.5-0.5c0.2,0,0.2,0.2,0.2,0.7c0,0.2,0,0.5,0,0.7c0,0.9,0.5,1.6,1.4,1.9c0.5,0.2,1.4,0.2,2.5,0.2
		c3.5,0,5.1-0.5,5.1-1.6c0-1.6-2.1-3.9-6-6.7l0.7-2.3c0-0.2,0.2-0.2,0.2-0.2s0.2,0,0.5,0.2C957,113.1,959.1,115.9,959.1,118.4z" class="area" title=""></path>
</g>
<g id="G_51" class="area" title="">
	<path id="PATH_52" d="M860.1,208.6c0.2,0.7,0.2,1.4,0.2,2.1c0,0.9-0.2,1.6-0.5,2.5c-0.7,1.6-1.9,3-4.2,3.9
		c-1.9,0.7-3.7,1.2-5.8,1.2s-3.7-0.5-5.1-1.4c-1.4-1.2-2.1-2.5-2.1-4.6c0-1.2,0.2-2.1,0.7-3.5c0.5-0.9,0.7-1.6,1.2-2.1
		c0.2-0.2,0.5-0.2,0.5-0.2c0.2,0,0.2,0,0.2,0.2c0,0,0,0.2,0,0.5c-0.7,1.4-0.9,2.8-0.9,3.9s0.5,2.1,1.2,3c0.9,1.2,2.5,1.6,4.6,1.6
		c2.3,0,4.4-0.5,6-1.2c1.4-0.7,2.3-1.4,2.8-2.3c0.2-0.2,0.2-0.7,0.2-0.9c0-0.7-0.2-1.4-0.5-2.3c-0.2-0.7-0.9-1.9-2.1-3.7l0.9-1.9
		c0.2-0.2,0.2-0.5,0.2-0.5s0.2,0,0.2,0.2C859.2,204.9,859.9,206.7,860.1,208.6z M853.4,198.7l-1.9,1.9l-1.9-1.9l1.9-1.9L853.4,198.7
		z" class="area" title=""></path>
	<path id="PATH_53" d="M869.6,208.8H868c-1.6,0-3-0.7-3.5-2.1c-0.5-0.9-0.7-2.5-0.7-4.4V198c0-2.1-0.2-5.1-0.5-9l1.4-1.6
		c0.2-0.2,0.5-0.2,0.5,0c0.2,2.1,0.5,5.1,0.5,9v6.7c0,1.9,0.9,2.8,2.8,2.8h1.2v2.9H869.6z" class="area" title=""></path>
	<path id="PATH_54" d="M887.6,202.1l-0.9,1.9c-1.6,0-3,0-3.7,0.2c-0.9,0.5-2.3,0.9-4.2,1.9c-1.9,0.9-3.2,1.6-4.2,1.9
		c-1.4,0.5-3,0.7-4.4,0.7h-1.6v-2.8h1.9c2.1,0,3.9-0.5,5.6-1.2l5.3-2.3c-0.9-0.2-2.3-0.7-4.2-1.4c-1.6-0.7-2.5-0.9-3-0.9
		c-0.9,0-1.9,0.5-2.8,1.2c-0.2,0.2-0.2,0.2-0.5,0.2s-0.2,0-0.2-0.2V201c0.7-2.3,2.1-3.2,3.9-3.2c0.7,0,1.6,0.2,2.5,0.7
		c1.9,0.9,3.2,1.4,4.2,1.9c1.6,0.5,3.5,0.9,5.6,0.9c0.5,0,0.7,0,0.7,0.2C887.8,201.7,887.6,201.9,887.6,202.1z M874.7,213.2l1.6-1.6
		l1.6,1.6l-1.6,1.6L874.7,213.2z M876.7,216.9l1.6-1.6l1.6,1.6l-1.6,1.6L876.7,216.9z M878.8,213.2l1.6-1.6l1.6,1.6l-1.6,1.6
		L878.8,213.2z" class="area" title=""></path>
	<path id="PATH_55" d="M902.2,208.8h-2.5c-0.2,3.2-1.4,5.8-3.7,8.1c-0.7,0.7-1.2,1.2-1.4,1.2c-1.2,0-2.8-0.2-4.4-0.5
		c-0.5,0-0.9-0.2-0.9-0.2s0.2-0.2,0.9-0.5c1.9-0.5,3.7-1.6,5.3-2.8c0.7-0.7,1.4-1.2,1.9-2.1c0.7-0.9,1.2-1.9,1.2-2.5v-0.7h-3
		c-2.3,0-3.2-0.9-3.2-2.8c0-1.2,0.2-2.3,0.9-3.7s1.6-2.3,2.5-2.3c1.2,0,2.1,0.7,2.8,2.3c0.5,1.2,0.9,2.3,0.9,3.7h2.5v2.8H902.2z
		 M898,206.3c0-0.7-0.2-1.4-0.7-2.1c-0.5-0.9-1.2-1.2-1.9-1.2c-0.5,0-0.9,0.2-1.2,0.5c-0.5,0.5-0.5,0.7-0.5,1.4
		c0,1.2,0.9,1.6,2.8,1.6C896.6,206.3,897.3,206.3,898,206.3z" class="area" title=""></path>
	<path id="PATH_56" d="M911.2,202.4c0,2.1-0.2,3.5-0.7,4.2c-1.2,1.6-3,2.3-6,2.3h-3.2v-2.8h2.3c3.9,0,6-0.7,6.5-1.9
		c0.2-0.5,0-0.9-0.2-1.4c-0.9,0.2-1.9,0.2-3,0.2c-2.1,0-3.2-0.9-3.2-2.8c0-1.2,0.2-2.5,0.9-3.7c0.7-1.4,1.6-2.1,2.8-2.1
		c0.9,0,1.9,0.7,2.5,1.9C910.7,198.2,911.2,200,911.2,202.4z M906.6,189.9l-1.9,1.9l-1.9-1.9l1.9-1.9L906.6,189.9z M909.4,200.3
		c0-0.7-0.2-1.4-0.7-2.1c-0.5-0.7-1.2-0.9-1.9-0.9c-0.5,0-0.9,0.2-1.4,0.5c-0.5,0.2-0.5,0.7-0.5,1.2c0,0.9,0.7,1.4,2.3,1.4
		C907.7,200.7,908.4,200.5,909.4,200.3z M910.5,189.9l-1.9,1.9l-1.9-1.9l1.9-1.9L910.5,189.9z" class="area" title=""></path>
</g>
<g id="G_57" class="area" title="">
	<path id="PATH_58" d="M1163,79.1c0,3.2-2.1,4.9-6.5,4.9c-1.6,0-2.8-0.2-3.5-0.7c-0.9-0.5-1.4-1.6-1.4-3c0-0.7,0.2-1.4,0.5-2.1
		c0.2-0.2,0.2-0.5,0.5-0.5s0.2,0.2,0.2,0.7c0,0.2,0,0.5,0,0.7c0,0.9,0.5,1.6,1.4,1.9c0.5,0.2,1.4,0.2,2.5,0.2c3.5,0,5.1-0.5,5.1-1.6
		c0-1.6-2.1-3.9-6-6.7l0.7-2.3c0-0.2,0.2-0.2,0.2-0.2s0.2,0,0.5,0.2C1161.2,73.8,1163,76.5,1163,79.1z" class="area" title=""></path>
	<path id="PATH_59" d="M1177.4,83.9h-2.5c-0.2,3.2-1.4,5.8-3.7,8.1c-0.7,0.7-1.2,1.2-1.4,1.2c-1.2,0-2.8-0.2-4.4-0.5
		c-0.5,0-0.9-0.2-0.9-0.2s0.2-0.2,0.9-0.5c1.9-0.5,3.7-1.6,5.3-2.8c0.7-0.7,1.4-1.2,1.9-2.1c0.7-0.9,1.2-1.9,1.2-2.5v-0.7h-3
		c-2.3,0-3.2-0.9-3.2-2.8c0-1.2,0.2-2.3,0.9-3.7c0.7-1.4,1.6-2.3,2.5-2.3c1.2,0,2.1,0.7,2.8,2.3c0.5,1.2,0.9,2.3,0.9,3.7h2.5v2.8
		H1177.4z M1173.2,81.4c0-0.7-0.2-1.4-0.7-2.1c-0.5-0.9-1.2-1.2-1.9-1.2c-0.5,0-0.9,0.2-1.2,0.5s-0.5,0.7-0.5,1.4
		c0,1.2,0.9,1.6,2.8,1.6C1172.1,81.4,1172.5,81.4,1173.2,81.4z" class="area" title=""></path>
	<path id="PATH_60" d="M1182.7,65.7c0.2,0.2,0.2,0.5,0.2,0.5s-0.2,0-0.5,0h-0.7c0.2,3,0.2,7.4,0.2,13.2c0,1.4-0.2,2.5-0.9,3.2
		c-0.7,0.9-1.8,1.4-3,1.4h-1.4v-2.8h1.2c1.9,0,2.8-0.7,2.5-2.1c-0.2-4.9-0.5-9.9-0.7-15l1.6-1.4c0.2-0.2,0.5-0.5,0.5-0.5
		s0,0.2,0.2,0.5C1182,63.6,1182.2,64.5,1182.7,65.7z" class="area" title=""></path>
	<path id="PATH_61" d="M1192,83.9h-1.6c-1.6,0-3-0.7-3.5-2.1c-0.5-0.9-0.7-2.5-0.7-4.4V73c0-2.1-0.2-5.1-0.5-9l1.4-1.6
		c0.2-0.2,0.5-0.2,0.5,0c0.2,2.1,0.5,5.1,0.5,9v6.7c0,1.9,0.9,2.8,2.8,2.8h1.2L1192,83.9L1192,83.9z" class="area" title=""></path>
	<path id="PATH_62" d="M1203.3,83.9h-1.9c-2.1,0-3.5-0.7-4.4-2.1c-0.7,1.4-2.3,2.1-4.9,2.1h-1.2v-2.8h2.1c2.3,0,3.5-0.9,3.7-2.5
		c0-0.7,0.2-1.2,0.5-1.2s0.5,0.5,0.5,1.2c0.2,1.6,1.4,2.5,3.5,2.5h2.1L1203.3,83.9L1203.3,83.9z M1198.9,72.2L1197,74l-1.8-1.9
		l1.8-1.9L1198.9,72.2z" class="area" title=""></path>
	<path id="PATH_63" d="M1214.9,83.9h-1.9c-2.1,0-3.5-0.7-4.4-2.1c-0.7,1.4-2.3,2.1-4.9,2.1h-1.4v-2.8h2.1c2.3,0,3.5-0.9,3.7-2.5
		c0-0.7,0.2-1.2,0.5-1.2s0.5,0.5,0.5,1.2c0.2,1.6,1.4,2.5,3.5,2.5h2.1v2.8H1214.9z M1207.2,89l-1.9,1.9l-1.9-1.9l1.9-1.9L1207.2,89z
		 M1211.2,89l-1.9,1.9l-1.9-1.9l1.9-1.9L1211.2,89z" class="area" title=""></path>
	<path id="PATH_64" d="M1220.4,79.3c0,3-1.6,4.6-4.6,4.6h-1.9v-2.8h1.6c2.3,0,3.5-0.5,3.5-1.2s-0.5-1.6-1.6-2.8l0.9-2.3
		c0-0.2,0.2-0.2,0.2-0.2s0.2,0.2,0.5,0.5C1219.9,76.5,1220.4,77.9,1220.4,79.3z M1219.5,89l-1.9,1.9l-1.9-1.9l1.9-1.9L1219.5,89z" class="area" title=""></path>
</g>
<g id="G_65" class="area" title="">
	<path id="PATH_66" d="M1151,263.9c0,1.6-0.5,3-1.6,3.7c-0.7,0.5-2.1,0.9-4.2,1.2c-2.3,0.5-4.6,0.7-7.2,0.7c-6,0-9.3-1.6-9.3-5.1
		c0-1.2,0.5-2.3,1.4-3.5c0.2-0.2,0.2-0.5,0.5-0.5c0.2,0,0.2,0,0.2,0.2c0,0,0,0.2,0,0.5c-0.2,0.7-0.5,1.4-0.5,2.1
		c0,2.3,3,3.5,8.8,3.5c2.8,0,5.3-0.2,7.2-0.5c2.3-0.5,3.2-0.9,3.2-1.6c0-0.5-0.5-1.4-1.6-2.8l1.2-2.1c0.2-0.2,0.2-0.2,0.5,0
		C1150.6,261.3,1151,262.7,1151,263.9z M1139.2,255.5l-1.9,1.9l-1.9-1.9l1.9-1.9L1139.2,255.5z M1143.2,255.5l-1.8,1.9l-1.9-1.9
		l1.9-1.9L1143.2,255.5z" class="area" title=""></path>
	<path id="PATH_67" d="M1172.5,269h-1.4c-2.8,0-4.4-2.1-4.4-6.2c0-0.5,0-1.2,0-2.1c-1.9,4.4-3.9,7.6-6.7,9.5c-1.6,0.5-3.7,0.7-6,0.7
		c-0.5,0-0.7,0-0.7,0s0.7-0.5,2.1-1.2c0.9-0.5,1.9-0.9,2.8-1.4c1.6-0.7,3.2-1.9,4.6-3.5c-0.7-2.3-1.6-4.4-3-6.2
		c-0.9-1.2-2.3-2.5-4.4-4.2l-0.2,0.9c-0.7-0.5-1.2-0.9-1.6-1.4c-0.7-0.7-1.2-1.2-1.2-1.6c0-0.5,0-1.2,0.2-2.3c0-0.2,0-0.5,0.2-0.5
		s0.2,0,0.5,0.2c3,2.1,5.3,4.2,6.7,6c1.9,2.3,3,4.9,3.7,7.9c0.9-1.2,1.6-2.3,2.1-3.7c0.7-1.6,0.9-3,0.9-4.2c0-2.1-0.2-4.4-0.5-6.9
		l1.9-1.6c0.2,1.2,0.2,6.5,0.5,16c0,2.1,0.9,3.2,2.8,3.2h1.2L1172.5,269L1172.5,269z" class="area" title=""></path>
	<path id="PATH_68" d="M1186.9,247.7c0,0.5-0.5,1.4-0.9,2.5l-5.8,1.9c-2.5,0.9-4.4,1.6-5.3,2.1c1.9,1.9,3,3.2,3.7,3.9
		c1.2,1.6,1.9,3,2.1,4.6c0,1.2,0,2.3-0.5,3.2c-0.7,2.1-3.2,3-7.2,3h-1.2v-2.8h1.4c1.9,0,3.2,0,3.9-0.2c1.6-0.5,2.5-1.2,2.5-2.3
		c0-1.6-1.2-3.5-3.7-5.8l-0.2,0.5c-0.2-0.2-0.7-0.7-1.2-1.4c-0.7-0.7-0.9-1.4-0.9-1.4c0-0.5,0-0.9,0.2-1.9c0.2-0.9,0.5-1.4,0.7-1.6
		c0.2-0.2,1.9-0.9,4.9-1.9C1182,249.1,1184.8,248.1,1186.9,247.7z" class="area" title=""></path>
</g>
<g id="G_69" class="area" title="">
	<path id="PATH_70" d="M1328.9,385.1h-1.2c-1.6,0-2.5-0.7-3.2-1.9c-0.5,1.4-1.6,2.1-3,2.1s-2.3-0.7-3-2.1c-0.7,1.4-1.9,2.1-3.2,2.1
		c-0.5,0-1.2,0-1.6-0.2c0,1.4-0.2,2.8-0.2,4.4c-0.7,1.6-1.9,3-3.9,3.9c-1.9,0.7-3.7,1.2-5.8,1.2c-2.1,0-3.7-0.5-5.1-1.4
		c-1.4-1.2-2.1-2.5-2.1-4.6c0-1.2,0.2-2.1,0.7-3.5c0.5-0.9,0.7-1.6,1.2-2.1c0.2-0.2,0.5-0.2,0.5-0.2c0.2,0,0.2,0,0.2,0.2
		c0,0,0,0.2,0,0.5c-0.7,1.4-0.9,2.8-0.9,3.9s0.5,2.1,1.2,3c0.9,1.2,2.5,1.6,4.6,1.6c2.3,0,4.4-0.5,6-1.2c1.4-0.7,2.3-1.4,2.5-2.3
		c0.2-0.2,0.2-0.7,0-1.6c0-0.7-0.2-1.4-0.2-1.6c-0.2-0.7-0.9-1.9-2.3-3.5l0.9-1.9c0.2-0.2,0.2-0.5,0.2-0.5s0.2,0,0.2,0.5
		c0.7,0.9,1.2,1.6,1.4,1.9c0.7,0.7,1.4,0.9,2.3,0.9s1.9-0.2,2.3-0.9c0.2-0.5,0.5-0.9,0.7-2.1c0-0.5,0.2-0.7,0.5-0.7
		c0.2,0,0.2,0.2,0.5,0.7c0.2,1.9,1.2,3,2.5,3c1.6,0,2.8-0.9,2.8-2.8c0-0.5,0.2-0.7,0.5-0.7s0.5,0.2,0.5,0.7c0.2,1.9,1.2,2.8,2.8,2.8
		h1.4v2.3h-0.7V385.1z" class="area" title=""></path>
	<path id="PATH_71" d="M1346.9,378.3l-0.9,1.9c-1.6,0-3,0-3.7,0.2c-0.9,0.5-2.3,0.9-4.2,1.9c-1.9,0.9-3.2,1.6-4.2,1.9
		c-1.4,0.5-3,0.7-4.4,0.7h-1.6V382h1.9c2.1,0,3.9-0.5,5.6-1.2l5.3-2.3c-0.9-0.2-2.3-0.7-4.2-1.4c-1.6-0.7-2.5-0.9-3-0.9
		c-0.9,0-1.9,0.5-2.8,1.2c-0.2,0.2-0.2,0.2-0.5,0.2c-0.2,0-0.2,0-0.2-0.2v-0.2c0.7-2.3,2.1-3.2,3.9-3.2c0.7,0,1.6,0.2,2.5,0.7
		c1.9,0.9,3.2,1.4,4.2,1.9c1.6,0.5,3.5,0.9,5.6,0.9c0.5,0,0.7,0,0.7,0.2C1347.1,377.9,1347.1,378.1,1346.9,378.3z M1340.4,367.9
		l-1.8,1.9l-1.9-1.9l1.9-1.9L1340.4,367.9z" class="area" title=""></path>
	<path id="PATH_72" d="M1361.5,385.1h-0.9c-0.9,0-1.4-0.2-1.9-0.5c0,0.2,0,0.5,0,0.7c0,2.1-0.7,4.2-2.1,6.2c-1.2,1.9-2.3,2.5-3,2.5
		c-1.9,0-3.2,0-4.6-0.2c-0.5,0-0.7-0.2-0.7-0.2s0.2-0.2,0.7-0.2c1.9-0.5,3.7-1.4,5.6-2.8c1.9-1.6,3-3.2,3-4.9c0-0.9-0.7-2.3-2.3-3.9
		l1.2-2.1c0-0.2,0.2-0.2,0.2-0.2l0.2,0.2c0.7,0.9,1.2,1.6,1.6,1.9c0.7,0.5,1.6,0.9,2.5,0.9h0.7v2.5h-0.2V385.1z" class="area" title=""></path>
	<path id="PATH_73" d="M1379.7,380.2c0,1.4-0.2,2.5-0.9,3.5s-1.9,1.6-3,1.6c-1.6,0-2.5-0.7-3.2-1.9c-0.9,1.4-1.9,1.9-3.2,1.9
		c-1.6,0-2.8-0.7-3.5-1.9c-0.9,1.4-2.1,1.9-3.7,1.9h-1.6v-2.8h1.9c1.6,0,2.8-0.9,3-2.8c0-0.5,0.2-0.7,0.5-0.7c0.2,0,0.2,0.2,0.5,0.7
		c0.2,1.9,1.2,2.8,3,2.8c0.9,0,1.9-0.2,2.3-0.7c0.2-0.5,0.5-0.9,0.7-1.9c0-0.5,0.2-0.7,0.5-0.7c0.2,0,0.2,0.2,0.5,0.7
		c0.2,1.9,1.2,2.8,2.8,2.8c1.9,0,2.5-0.5,2.5-1.2s-0.5-1.6-1.4-2.5l1.2-2.1c0.2-0.2,0.2-0.5,0.5-0.5c0.2,0,0.2,0.2,0.5,0.5
		C1379.5,377.9,1379.7,379,1379.7,380.2z" class="area" title=""></path>
</g>
<g id="G_74" class="area" title="">
	<path id="PATH_75" d="M1142.5,398.9h-0.9c-0.9,0-1.6-0.2-2.3-0.9c-0.5-0.5-0.9-0.9-1.4-1.9c-0.5,0.9-1.2,1.6-1.9,2.1
		c-0.9,0.5-2.1,0.7-3.9,0.7c-3.2,0-4.9-1.2-4.9-3.5c0-0.7,0.2-1.6,0.7-2.3c0.2-0.2,0.2-0.5,0.5-0.5c0.2,0,0.2,0.2,0.2,0.5
		c0,0.2,0,0.2,0,0.7c0,0.2,0,0.5,0,0.7c0,1.4,1.2,2.1,3.5,2.1c3.2,0,4.9-0.7,4.9-1.9c0-0.7-0.9-3.2-2.8-7.6l0.9-1.9
		c0.2-0.2,0.2-0.5,0.2-0.5s0.2,0.2,0.2,0.5c0.7,1.9,1.9,4.6,3.2,8.3c0.7,1.9,1.6,2.8,3,2.8h0.7L1142.5,398.9L1142.5,398.9z" class="area" title=""></path>
	<path id="PATH_76" d="M1156.8,398.9h-1.2c-0.9,0-1.9,0.2-2.5,0.5c-1.2,0.5-1.9,1.2-1.9,2.3c0,1.4,0.9,2.5,2.8,3.7l-1.2,2.3
		c-2.1-0.7-3.9-1.9-5.3-3.2c-1.9-1.6-2.8-3.7-2.8-5.8h-3.2v-2.8h3c0-1.9,0.5-3.7,1.4-6c0.9-2.1,1.6-3,2.1-3s1.2,0.9,1.9,3
		c0.7,1.9,0.9,3,0.9,3.7c0,3.2-1.6,4.9-4.9,4.9c0.2,0.9,0.7,1.9,1.4,2.8c0.7,0.9,1.6,1.6,2.5,2.1c0-0.2,0-0.7,0-0.9
		c0-1.6,0.5-3,1.2-4.2c1.2-1.6,2.5-2.5,4.6-2.5h0.9v3.2h0.3V398.9z M1149.9,395.2c0-0.5-0.2-1.4-0.7-2.5c-0.5-1.4-0.9-1.9-1.4-1.9
		c-0.2,0-0.7,0.5-1.2,1.6c-0.5,1.2-0.7,2.5-0.7,3.9C1148.5,396.4,1149.9,395.9,1149.9,395.2z" class="area" title=""></path>
	<path id="PATH_77" d="M1178.3,398.9h-1.4c-1.6,0-2.5-0.7-3.2-1.9c-0.5,1.4-1.6,1.9-3,1.9s-2.3-0.7-3-1.9c-0.7,1.4-1.6,1.9-3,1.9
		c-1.6,0-2.8-0.7-3.5-1.9c-0.9,1.4-2.1,1.9-3.7,1.9h-1.6v-2.8h1.9c1.6,0,2.8-0.9,3-2.8c0-0.5,0.2-0.7,0.5-0.7c0.2,0,0.2,0.2,0.5,0.7
		c0.2,1.9,1.2,2.8,3,2.8c1.6,0,2.8-0.9,2.8-2.8c0-0.5,0.2-0.7,0.5-0.7c0.2,0,0.5,0.2,0.5,0.7c0.2,1.9,1.2,2.8,2.3,2.8
		c1.6,0,2.8-0.9,2.8-2.8c0-0.5,0.2-0.7,0.5-0.7c0.2,0,0.5,0.2,0.5,0.7c0.2,1.9,1.2,2.8,2.8,2.8h1.4v2.8H1178.3z M1167.4,387.4
		l-1.6,1.6l-1.6-1.6l1.6-1.6L1167.4,387.4z M1169.5,383.7l-1.6,1.6l-1.6-1.6l1.6-1.6L1169.5,383.7z M1171.6,387.4l-1.6,1.6l-1.6-1.6
		l1.6-1.6L1171.6,387.4z" class="area" title=""></path>
	<path id="PATH_78" d="M1189.6,394.3c0,1.2,0,2.1-0.5,3c-0.5,1.2-1.2,1.9-1.9,1.9c-1.2,0-3-0.7-5.3-2.3c-0.7,0.9-1.2,1.4-1.4,1.6
		c-0.7,0.5-1.4,0.7-2.3,0.7h-1.2v-2.8h1.6c0.9,0,1.9-0.5,2.8-1.6c0.5-0.5,1.2-1.6,2.1-3c0.7-1.2,1.6-1.6,2.3-1.6
		c1.2,0,2.1,0.5,2.8,1.6C1189.4,392.7,1189.6,393.6,1189.6,394.3z M1188.3,396.2c0-0.7-0.2-1.4-0.7-2.3s-1.2-1.4-1.8-1.4
		c-0.7,0-1.4,0.7-2.3,2.1c0.5,0.5,1.2,0.9,2.1,1.4s1.9,0.7,2.3,0.7C1188,396.6,1188.3,396.4,1188.3,396.2z" class="area" title=""></path>
</g>
<g id="G_79" class="area" title="">
	<path id="PATH_80" d="M1306,589.7c0,0.5-0.2,0.9-0.7,1.9c-0.5,0.9-0.9,1.4-1.2,1.4c-0.7,0-1.6-0.2-2.8-0.5
		c-1.2-0.2-2.1-0.5-2.8-0.5c-1.2,0-2.1,0.2-2.5,0.5c0.5,3.9,0.7,6.9,0.7,8.8c0,0.9-0.2,1.9-0.9,3c-0.2,0.2-0.2,0.5-0.2,0.5
		s0,0,0-0.2c-0.2-3.7-0.5-7.4-0.9-11.1c0-0.5,0.2-0.9,0.7-1.6c0.5-0.5,0.7-0.9,1.2-1.2c0.5-0.5,1.2-0.5,1.9-0.5
		c-0.2-0.7-0.2-1.2-0.2-1.6c0-0.7,0.2-1.6,0.9-2.5s1.4-1.4,2.3-1.4c1.2,0,2.3,0.7,3.5,1.9C1306,587.6,1306,588.6,1306,589.7z
		 M1304.4,590.4c-0.2-0.7-0.9-1.6-1.6-2.3c-0.9-0.9-1.6-1.2-2.5-1.2c-1.2,0-1.6,0.5-1.6,1.2c0,0.5,0.2,0.9,0.5,1.9
		C1300.4,589.7,1302.3,590,1304.4,590.4z" class="area" title=""></path>
	<path id="PATH_81" d="M1315.2,594.1h-1.6c-1.6,0-3-0.7-3.5-2.1c-0.5-0.9-0.7-2.5-0.7-4.4v-4.4c0-2.1-0.2-5.1-0.5-9l1.4-1.6
		c0.2-0.2,0.5-0.2,0.5,0c0.2,2.1,0.5,5.1,0.5,9v6.7c0,1.9,0.9,2.8,2.8,2.8h1.2L1315.2,594.1L1315.2,594.1z" class="area" title=""></path>
	<path id="PATH_82" d="M1333.3,587.4l-0.9,1.9c-1.6,0-3,0-3.7,0.2c-0.9,0.5-2.3,0.9-4.2,1.9s-3.2,1.6-4.2,1.9
		c-1.4,0.5-3,0.7-4.4,0.7h-1.6v-2.8h1.9c2.1,0,3.9-0.5,5.6-1.2l5.3-2.3c-0.9-0.2-2.3-0.7-4.2-1.4c-1.6-0.7-2.5-0.9-3-0.9
		c-0.9,0-1.9,0.5-2.8,1.2c-0.2,0.2-0.2,0.2-0.5,0.2c-0.2,0-0.2,0-0.2-0.2v-0.2c0.7-2.3,2.1-3.2,3.9-3.2c0.7,0,1.6,0.2,2.5,0.7
		c1.8,0.9,3.2,1.4,4.2,1.9c1.6,0.5,3.5,0.9,5.6,0.9c0.5,0,0.7,0,0.7,0.2C1333.5,586.9,1333.5,587.2,1333.3,587.4z M1325.6,599
		l-1.9,1.9l-1.9-1.9l1.9-1.9L1325.6,599z" class="area" title=""></path>
	<path id="PATH_83" d="M1370.3,594.1h-0.9c-1.2,0-2.1-0.2-2.5-0.7c-0.7-0.5-1.2-1.4-1.2-2.3c-2.5,2.3-6.5,3.5-11.8,3.5
		c-5.6,0-8.3-1.6-8.3-5.1c0-1.2,0.5-2.3,1.4-3.5c0.2-0.2,0.2-0.2,0.5-0.2c0.2,0,0.2,0,0.2,0.2c0,0,0,0.2,0,0.5
		c-0.2,0.7-0.5,1.4-0.5,2.1c0,2.3,2.5,3.5,7.6,3.5c5.8,0,9.7-1.2,11.6-3.7c0.5-0.5,0.7-0.7,0.9-0.7s0.2,0.2,0.2,0.5
		c0,0.2,0,0.5-0.2,0.9c0,0.5-0.2,0.7-0.2,0.9c0,1.2,0.9,1.9,2.5,1.9h0.9v2.3h-0.2V594.1z M1355.9,580.7l-1.9,1.9l-1.9-1.9l1.9-1.9
		L1355.9,580.7z M1359.9,580.7l-1.9,1.9l-1.9-1.9l1.9-1.9L1359.9,580.7z" class="area" title=""></path>
	<path id="PATH_84" d="M1375.8,589.7c0,3-1.6,4.6-4.6,4.6h-1.9v-2.8h1.6c2.3,0,3.5-0.5,3.5-1.2s-0.5-1.6-1.6-2.8l0.9-2.3
		c0-0.2,0.2-0.2,0.2-0.2s0.2,0.2,0.5,0.5C1375.3,586.7,1375.8,588.1,1375.8,589.7z M1375.1,599.2l-1.9,1.9l-1.9-1.9l1.9-1.9
		L1375.1,599.2z" class="area" title=""></path>
	<path id="PATH_85" d="M1390.4,594.1h-0.9c-0.9,0-1.4-0.2-1.9-0.5c0,0.2,0,0.5,0,0.7c0,2.1-0.7,4.2-2.1,6.2c-1.2,1.9-2.3,2.5-3,2.5
		c-1.9,0-3.2,0-4.6-0.2c-0.5,0-0.7-0.2-0.7-0.2s0.2-0.2,0.7-0.2c1.9-0.5,3.7-1.4,5.6-2.8c1.9-1.6,3-3.2,3-4.9c0-0.9-0.7-2.3-2.3-3.9
		l1.2-2.1c0-0.2,0.2-0.2,0.2-0.2l0.2,0.2c0.7,0.9,1.2,1.6,1.6,1.9c0.7,0.5,1.6,0.9,2.5,0.9h0.7v2.5L1390.4,594.1L1390.4,594.1z" class="area" title=""></path>
	<path id="PATH_86" d="M1395.9,589.7c0,3-1.6,4.6-4.6,4.6h-1.8v-2.8h1.6c2.3,0,3.5-0.5,3.5-1.2s-0.5-1.6-1.6-2.8l0.9-2.3
		c0-0.2,0.2-0.2,0.2-0.2s0.2,0.2,0.5,0.5C1395.2,586.7,1395.9,588.1,1395.9,589.7z M1393.6,579.5l-1.9,1.9l-1.9-1.9l1.9-1.9
		L1393.6,579.5z M1397.6,579.5l-1.9,1.9l-1.9-1.9l1.9-1.9L1397.6,579.5z" class="area" title=""></path>
</g>
<g id="G_87" class="area" title="">
	<path id="PATH_88" d="M1132.8,546.9c0.2,0.7,0.2,1.4,0.2,2.1c0,0.9-0.2,1.6-0.5,2.5c-0.7,1.6-1.9,3-4.2,3.9
		c-1.9,0.7-3.7,1.2-5.8,1.2c-2.1,0-3.7-0.5-5.1-1.4c-1.4-1.2-2.1-2.5-2.1-4.6c0-1.2,0.2-2.1,0.7-3.5c0.5-0.9,0.7-1.6,1.2-2.1
		c0.2-0.2,0.5-0.2,0.5-0.2c0.2,0,0.2,0,0.2,0.2c0,0,0,0.2,0,0.5c-0.7,1.4-0.9,2.8-0.9,3.9s0.5,2.1,1.2,3c0.9,1.2,2.5,1.6,4.6,1.6
		c2.3,0,4.4-0.5,6-1.2c1.4-0.7,2.3-1.4,2.8-2.3c0.2-0.2,0.2-0.7,0.2-0.9c0-0.7-0.2-1.4-0.5-2.3c-0.2-0.7-0.9-1.9-2.1-3.7l0.9-1.9
		c0.2-0.2,0.2-0.5,0.2-0.5s0.2,0,0.2,0.2C1131.6,543.5,1132.3,545.1,1132.8,546.9z M1125.8,537l-1.9,1.9l-1.9-1.9l1.9-1.9
		L1125.8,537z" class="area" title=""></path>
	<path id="PATH_89" d="M1142,547.4h-1.6c-1.6,0-3-0.7-3.5-2.1c-0.5-0.9-0.7-2.5-0.7-4.4v-4.4c0-2.1-0.2-5.1-0.5-9l1.4-1.6
		c0.2-0.2,0.5-0.2,0.5,0c0.2,2.1,0.5,5.1,0.5,9v6.7c0,1.9,0.9,2.8,2.8,2.8h1.2v3H1142z" class="area" title=""></path>
	<path id="PATH_90" d="M1158.7,547.4h-1.4c-1.2,0-2.3-0.7-3.2-1.9c-0.7,1.9-1.4,2.8-2.1,2.8s-1.9-0.5-3.2-1.2
		c-1.2-0.7-2.1-1.4-2.5-1.9c-1.2,1.4-2.3,2.1-3.5,2.1h-1.4v-2.8h1.4c1.2,0,2.1-0.5,3-1.4c0.7-0.7,1.4-1.6,2.3-2.5s1.6-1.4,2.3-1.4
		c0.9,0,1.6,0.5,2.3,1.4c0.5,0.5,0.9,1.4,2.1,2.5c0.7,0.9,1.6,1.4,2.5,1.4h1.4L1158.7,547.4L1158.7,547.4z M1152.4,545.3
		c0-0.7-0.2-1.4-0.7-2.3s-1.2-1.4-2.1-1.4c-0.7,0-1.6,0.7-2.5,1.9c0.2,0.2,0.9,0.7,2.1,1.4s2.1,0.9,2.8,0.9
		C1152.2,545.8,1152.4,545.8,1152.4,545.3z" class="area" title=""></path>
	<path id="PATH_91" d="M1164.2,542.8c0,3-1.6,4.6-4.6,4.6h-1.9v-2.8h1.6c2.3,0,3.5-0.5,3.5-1.2s-0.5-1.6-1.6-2.8l0.9-2.3
		c0-0.2,0.2-0.2,0.2-0.2s0.2,0.2,0.5,0.5C1163.7,539.8,1164.2,541.2,1164.2,542.8z M1162.4,552.5l-1.9,1.9l-1.9-1.9l1.9-1.9
		L1162.4,552.5z M1166.3,552.5l-1.9,1.9l-1.8-1.9l1.8-1.9L1166.3,552.5z" class="area" title=""></path>
	<path id="PATH_92" d="M1180.9,547.4h-0.9c-0.9,0-1.4-0.2-1.9-0.5c0,0.2,0,0.5,0,0.7c0,2.1-0.7,4.2-2.1,6.2c-1.2,1.9-2.3,2.5-3,2.5
		c-1.9,0-3.2,0-4.6-0.2c-0.5,0-0.7-0.2-0.7-0.2s0.2-0.2,0.7-0.2c1.9-0.5,3.7-1.4,5.6-2.8c1.9-1.6,3-3.2,3-4.9c0-0.9-0.7-2.3-2.3-3.9
		l1.2-2.1c0-0.2,0.2-0.2,0.2-0.2l0.2,0.2c0.7,0.9,1.2,1.6,1.6,1.9c0.7,0.5,1.6,0.9,2.5,0.9h0.7v2.5L1180.9,547.4L1180.9,547.4z" class="area" title=""></path>
	<path id="PATH_93" d="M1189.6,540.7v0.9c0,1.6-0.2,2.5-0.7,3.2c-1.2,1.6-3,2.3-6,2.3h-3.2v-2.8h2.3c3.9,0,6-0.7,6.5-1.9
		c0-0.2,0-0.2,0-0.5c0-0.5,0-0.7-0.2-0.9c-0.9,0.2-2.1,0.2-3,0.2c-2.1,0-3.2-0.9-3.2-2.8c0-1.2,0.2-2.5,0.9-3.7
		c0.7-1.4,1.6-2.1,2.8-2.1c0.9,0,1.8,0.7,2.5,1.9C1189.2,536.5,1189.6,538.4,1189.6,540.7z M1187.1,528l-1.9,1.9l-1.9-1.9l1.9-1.9
		L1187.1,528z M1188,538.8c0-0.7-0.2-1.4-0.7-2.1c-0.5-0.7-1.2-0.9-1.8-0.9c-0.5,0-0.9,0.2-1.4,0.5c-0.5,0.2-0.5,0.7-0.5,1.2
		c0,0.9,0.7,1.4,2.3,1.4C1186.4,539.1,1187.1,539.1,1188,538.8z" class="area" title=""></path>
</g>
<g id="G_107" class="area" title="">
	<path id="PATH_108" d="M1195.4,864.9v0.5c0,1.6-0.2,2.8-0.7,3.7c-1.2,1.9-5.6,2.8-13,2.8c-5.6,0-8.6-1.6-8.6-4.6
		c0-1.6,0.5-3,1.2-4.2c0.2-0.2,0.5-0.5,0.5-0.5c0.2,0,0.2,0,0.2,0.2s-0.2,0.7-0.5,1.6c0,0.5-0.2,0.7-0.2,1.2c0,1.6,1.2,2.5,3.2,3.2
		c1.2,0.2,2.8,0.5,5.1,0.5c6.7,0,10.4-0.7,11.1-2.1c0-0.2,0.2-0.5,0.2-0.9c0-0.2,0-0.5,0-0.7c-1.2,0.2-2.3,0.2-3.2,0.2
		c-2.1,0-3.2-0.9-3.2-2.8c0-1.2,0.2-2.5,0.9-3.7c0.7-1.4,1.6-2.1,2.8-2.1c0.9,0,1.9,0.7,2.8,1.9
		C1195,860.8,1195.4,862.6,1195.4,864.9z M1192.4,852.2l-1.9,1.9l-1.8-1.9l1.8-1.9L1192.4,852.2z M1193.6,862.8
		c0-0.7-0.2-1.4-0.7-2.1c-0.5-0.7-1.2-0.9-1.8-0.9c-1.2,0-1.9,0.7-1.9,1.9c0,0.9,0.7,1.4,2.3,1.4
		C1192,863.3,1192.7,863.1,1193.6,862.8z" class="area" title=""></path>
	<path id="PATH_109" d="M1200.7,868.6c0,0.9-0.2,1.9-0.7,2.5c-0.2,0.5-0.5,0.7-0.5,0.7s-0.2-0.2-0.2-0.9c0-2.8-0.5-9.3-1.4-19.7
		l1.9-1.9c0.2-0.2,0.2-0.2,0.2-0.2s0,0.2,0,0.5C1200.7,852.9,1200.7,859.1,1200.7,868.6z" class="area" title=""></path>
	<path id="PATH_110" d="M1215.1,871.4h-2.5c-0.2,3.2-1.4,5.8-3.7,8.1c-0.7,0.7-1.2,1.2-1.4,1.2c-1.2,0-2.8-0.2-4.4-0.5
		c-0.5,0-0.9-0.2-0.9-0.2s0.2-0.2,0.9-0.5c1.9-0.5,3.7-1.6,5.3-2.8c0.7-0.7,1.4-1.2,1.9-2.1c0.7-0.9,1.2-1.9,1.2-2.5v-0.7h-3
		c-2.3,0-3.2-0.9-3.2-2.8c0-1.2,0.2-2.3,0.9-3.7c0.7-1.4,1.6-2.3,2.5-2.3c1.2,0,2.1,0.7,2.8,2.3c0.5,1.2,0.9,2.3,0.9,3.7h2.5v2.8
		H1215.1z M1210.9,868.6c0-0.7-0.2-1.4-0.7-2.1c-0.5-0.9-1.2-1.2-1.9-1.2c-0.5,0-0.9,0.2-1.2,0.5c-0.2,0.2-0.5,0.7-0.5,1.4
		c0,1.2,0.9,1.6,2.8,1.6C1209.8,868.9,1210.2,868.9,1210.9,868.6z" class="area" title=""></path>
	<path id="PATH_111" d="M1233.1,864.7l-0.9,1.9c-1.6,0-3,0-3.7,0.2c-0.9,0.5-2.3,0.9-4.2,1.9s-3.2,1.6-4.2,1.9
		c-1.4,0.5-3,0.7-4.4,0.7h-1.6v-2.8h1.9c2.1,0,3.9-0.5,5.6-1.2l5.3-2.3c-0.9-0.2-2.3-0.7-4.2-1.4c-1.6-0.7-2.5-0.9-3-0.9
		c-0.9,0-1.9,0.5-2.8,1.2c-0.2,0.2-0.2,0.2-0.5,0.2c-0.2,0-0.2,0-0.2-0.2v-0.2c0.7-2.3,2.1-3.2,3.9-3.2c0.7,0,1.6,0.2,2.5,0.7
		c1.8,0.9,3.2,1.4,4.2,1.9c1.6,0.5,3.5,0.9,5.6,0.9c0.5,0,0.7,0,0.7,0.2C1233.4,864.2,1233.4,864.5,1233.1,864.7z M1226.6,854.3
		l-1.8,1.9l-1.9-1.9l1.9-1.9L1226.6,854.3z" class="area" title=""></path>
</g>
<g id="G_112" class="area" title="">
	<path id="PATH_113" d="M1117.5,638.7c0,1.6-0.5,2.8-1.4,3.7s-2.3,1.2-3.7,1.2c-0.9,0-1.9-0.2-2.5-0.9c-0.7-0.7-1.2-1.4-1.2-2.3
		c0-1.2,0.5-2.3,1.4-3.9c0.7-1.4,1.6-2.5,2.5-3.5C1115.9,634.6,1117.5,636.4,1117.5,638.7z M1116.3,639.7c0-0.7-0.5-1.4-1.6-2.3
		c-0.9-0.9-1.6-1.4-2.5-1.6c-1.2,1.6-1.9,2.8-1.9,3.7c0,0.5,0.2,0.9,0.9,1.4c0.5,0.2,0.9,0.5,1.6,0.5c0.9,0,1.9-0.2,2.5-0.5
		C1115.9,640.1,1116.3,639.9,1116.3,639.7z" class="area" title=""></path>
	<path id="PATH_114" d="M1129.5,642.7c0,3.5-1.2,6.5-3.5,8.8c-0.7,0.7-1.2,1.2-1.4,1.2c-1.4,0-2.8-0.2-4.4-0.5
		c-0.7,0-0.9-0.2-0.9-0.2s0.2-0.2,0.9-0.5c1.9-0.5,3.7-1.6,5.3-3c0.7-0.7,1.4-1.2,1.8-2.1c0.7-0.9,1.2-1.9,1.2-2.5v-0.7h-3
		c-2.1,0-3.2-0.9-3.2-2.5c0-1.2,0.2-2.3,0.9-3.7c0.7-1.4,1.6-2.3,2.5-2.3c1.4,0,2.5,0.9,3.2,3
		C1129.3,639.2,1129.5,640.8,1129.5,642.7z M1127.9,640.6c0-0.7-0.2-1.4-0.7-2.1s-1.2-1.2-1.9-1.2c-0.5,0-0.9,0.2-1.2,0.5
		c-0.2,0.2-0.5,0.7-0.5,1.2c0,1.2,0.7,1.6,2.3,1.6C1126.3,640.8,1127,640.8,1127.9,640.6z" class="area" title=""></path>
	<path id="PATH_115" d="M1134.8,640.6c0,0.9-0.2,1.9-0.7,2.5c-0.2,0.5-0.5,0.7-0.5,0.7s-0.2-0.2-0.2-0.9c0-2.8-0.5-9.3-1.4-19.7
		l1.9-1.9c0.2-0.2,0.2-0.2,0.2-0.2s0,0.2,0,0.5C1134.8,624.9,1134.8,631.1,1134.8,640.6z" class="area" title=""></path>
	<path id="PATH_116" d="M1146.6,643.8c0,2.3-0.7,4.4-2.1,6.5c-1.2,1.6-2.3,2.5-3,2.5c-1.9,0-3.2,0-4.6-0.2c-0.5,0-0.7-0.2-0.7-0.2
		s0.2-0.2,0.7-0.2c1.9-0.5,3.7-1.4,5.6-2.8c1.9-1.6,3-3.2,3-4.9c0-0.9-0.7-2.3-2.3-3.9l1.2-2.1c0-0.2,0.2-0.2,0.2-0.2l0.2,0.2
		c0.5,0.7,1.2,1.6,1.4,2.8C1146.4,642,1146.6,642.9,1146.6,643.8z M1144.8,631.3l-1.9,1.9l-1.9-1.9l1.9-1.9L1144.8,631.3z" class="area" title=""></path>
</g>
<g id="G_117" class="area" title="">
	<path id="PATH_118" d="M1046.5,733.3c0,2.3-0.7,4.4-2.1,6.5c-1.2,1.6-2.3,2.5-3,2.5c-1.9,0-3.2,0-4.6-0.2c-0.5,0-0.7-0.2-0.7-0.2
		s0.2-0.2,0.7-0.2c1.8-0.5,3.7-1.4,5.6-2.8c1.8-1.6,3-3.2,3-4.9c0-0.9-0.7-2.3-2.3-3.9l1.2-2.1c0-0.2,0.2-0.2,0.2-0.2l0.2,0.2
		c0.5,0.7,1.2,1.6,1.4,2.8C1046.3,731.5,1046.5,732.4,1046.5,733.3z" class="area" title=""></path>
	<path id="PATH_119" d="M1052,730.3c0,0.9-0.2,1.9-0.7,2.5c-0.2,0.5-0.5,0.7-0.5,0.7s-0.2-0.2-0.2-0.9c0-2.8-0.5-9.3-1.4-19.7
		l1.9-1.9c0.2-0.2,0.2-0.2,0.2-0.2s0,0.2,0,0.5C1051.8,714.4,1052,720.6,1052,730.3z" class="area" title=""></path>
	<path id="PATH_120" d="M1066.4,733.1h-2.5c-0.2,3.2-1.4,5.8-3.7,8.1c-0.7,0.7-1.2,1.2-1.4,1.2c-1.2,0-2.8-0.2-4.4-0.5
		c-0.5,0-0.9-0.2-0.9-0.2s0.2-0.2,0.9-0.5c1.9-0.5,3.7-1.6,5.3-2.8c0.7-0.7,1.4-1.2,1.9-2.1c0.7-0.9,1.2-1.9,1.2-2.5v-0.7h-3
		c-2.3,0-3.2-0.9-3.2-2.8c0-1.2,0.2-2.3,0.9-3.7c0.7-1.4,1.6-2.3,2.5-2.3c1.2,0,2.1,0.7,2.8,2.3c0.5,1.2,0.9,2.3,0.9,3.7h2.5v2.8
		H1066.4z M1062.2,730.3c0-0.7-0.2-1.4-0.7-2.1c-0.5-0.9-1.2-1.2-1.9-1.2c-0.5,0-0.9,0.2-1.2,0.5c-0.2,0.2-0.5,0.7-0.5,1.4
		c0,1.2,0.9,1.6,2.8,1.6C1060.8,730.6,1061.5,730.3,1062.2,730.3z" class="area" title=""></path>
	<path id="PATH_121" d="M1086.7,733.1h-2.3c-3,0-4.6-1.6-4.6-4.6c0-0.5,0-0.7,0-1.2c-1.2,0.5-2.5,1.4-4.4,2.5s-3,1.9-3.9,2.3
		c-1.4,0.7-3,0.9-4.4,0.9h-1.6v-2.8h1.9c1.9,0,3.9-0.5,5.8-1.4c0.9-0.5,2.5-1.4,5.1-2.5c-0.5,0-1.9-0.5-4.2-0.9
		c-1.6-0.5-2.5-0.7-2.8-0.7c-0.9,0-1.9,0.5-2.8,1.2c-0.2,0.2-0.2,0.2-0.5,0.2c-0.2,0-0.2,0-0.2-0.2v-0.2c0.7-2.3,2.1-3.5,3.9-3.5
		c0.7,0,1.6,0.2,2.8,0.5c1.6,0.5,3,0.9,4.2,1.2c1.6,0.2,3.5,0.5,5.6,0.5c0.5,0,0.5,0,0.7,0s0,0.2,0,0.5l-0.7,2.1
		c-1.4,0-2.3,0-2.8,0.2c0,1.2,0.2,1.9,0.5,2.1c0.5,0.7,1.4,1.2,3,1.2h2.3v2.8h-0.6V733.1z M1077.9,715.8l-1.9,1.9l-1.9-1.9l1.9-1.9
		L1077.9,715.8z" class="area" title=""></path>
	<path id="PATH_122" d="M1098.1,733.1h-1.9c-2.1,0-3.5-0.7-4.4-2.1c-0.7,1.4-2.3,2.1-4.9,2.1h-1.4v-2.8h2.1c2.3,0,3.5-0.9,3.7-2.5
		c0-0.7,0.2-1.2,0.5-1.2c0.2,0,0.5,0.5,0.5,1.2c0.2,1.6,1.4,2.5,3.5,2.5h2.1v2.8H1098.1z M1090.2,719.7l-1.9,1.9l-1.9-1.9l1.9-1.9
		L1090.2,719.7z M1094.1,719.7l-1.9,1.9l-1.9-1.9l1.9-1.9L1094.1,719.7z" class="area" title=""></path>
	<path id="PATH_123" d="M1116.1,728.2c0,1.4-0.2,2.5-0.9,3.5s-1.9,1.6-3,1.6c-1.6,0-2.5-0.7-3.2-1.9c-0.9,1.4-1.9,1.9-3.2,1.9
		c-1.6,0-2.8-0.7-3.5-1.9c-0.9,1.4-2.1,1.9-3.7,1.9h-1.6v-2.8h1.9c1.6,0,2.8-0.9,3-2.8c0-0.5,0.2-0.7,0.5-0.7c0.2,0,0.2,0.2,0.5,0.7
		c0.2,1.9,1.2,2.8,3,2.8c0.9,0,1.9-0.2,2.3-0.7c0.2-0.5,0.5-0.9,0.7-1.9c0-0.5,0.2-0.7,0.5-0.7c0.2,0,0.2,0.2,0.5,0.7
		c0.2,1.9,1.2,2.8,2.8,2.8c1.9,0,2.5-0.5,2.5-1.2s-0.5-1.6-1.4-2.5l1.2-2.1c0.2-0.2,0.2-0.5,0.5-0.5c0.2,0,0.2,0.2,0.5,0.5
		C1115.9,725.9,1116.1,727.1,1116.1,728.2z M1108.5,719.7l-1.6,1.6l-1.6-1.6l1.6-1.6L1108.5,719.7z M1110.3,716.2l-1.6,1.6l-1.6-1.6
		l1.6-1.6L1110.3,716.2z M1112.4,719.7l-1.6,1.6l-1.6-1.6l1.6-1.6L1112.4,719.7z" class="area" title=""></path>
	<path id="PATH_124" d="M1127.9,733.3c0,2.3-0.7,4.4-2.1,6.5c-1.2,1.6-2.3,2.5-3,2.5c-1.9,0-3.2,0-4.6-0.2c-0.5,0-0.7-0.2-0.7-0.2
		s0.2-0.2,0.7-0.2c1.9-0.5,3.7-1.4,5.6-2.8c1.9-1.6,3-3.2,3-4.9c0-0.9-0.7-2.3-2.3-3.9l1.2-2.1c0-0.2,0.2-0.2,0.2-0.2l0.2,0.2
		c0.5,0.7,1.2,1.6,1.4,2.8C1127.7,731.5,1127.9,732.4,1127.9,733.3z" class="area" title=""></path>
</g>
<g id="G_125" class="area" title="">
	<path id="PATH_126" d="M909.6,737c0,1.6-0.5,3-1.6,3.7c-0.7,0.5-2.1,0.9-4.2,1.2c-2.3,0.5-4.6,0.7-7.2,0.7c-6,0-9.3-1.6-9.3-5.1
		c0-1.2,0.5-2.3,1.4-3.5c0.2-0.2,0.2-0.5,0.5-0.5s0.2,0,0.2,0.2c0,0,0,0.2,0,0.5c-0.2,0.7-0.5,1.4-0.5,2.1c0,2.3,3,3.5,8.8,3.5
		c2.8,0,5.3-0.2,7.2-0.5c2.3-0.5,3.2-0.9,3.2-1.6c0-0.5-0.5-1.4-1.6-2.8l1.2-2.1c0.2-0.2,0.2-0.2,0.5,0
		C908.9,734.5,909.6,735.9,909.6,737z M897.8,728.7l-1.9,1.9l-1.9-1.9l1.9-1.9L897.8,728.7z M901.7,728.7l-1.9,1.9l-1.9-1.9l1.9-1.9
		L901.7,728.7z" class="area" title=""></path>
	<path id="PATH_127" d="M927.2,723.9c0,0.2,0,0.2,0.2,0.7c0,0-0.2,0-0.5,0h-0.7c0,1.9-0.2,3.9-0.7,5.8c-0.5,2.5-1.4,4.6-2.3,6
		c0.5,0.9,0.7,2.1,0.7,3c0,0.5-0.2,1.2-0.5,1.9c-0.2,0.7-0.7,1.2-1.2,1.4c-2.1,0.5-4.2,0.7-6.7,0.5l0.7-2.5c2.3-1.2,3.9-2.3,4.9-3.7
		c-2.3-3-4.9-6-7.9-9l-0.5,0.7c-1.6-1.9-2.3-2.8-2.3-3.2c0-0.5,0.2-1.2,0.5-2.3c0-0.2,0.2-0.5,0.2-0.5s0.2,0.2,0.7,0.5
		c4.4,4.2,7.9,8.3,10.2,12.5c0.9-1.4,1.4-3.5,1.6-6c0.2-2.1,0.2-4.4,0-6.9l1.9-1.9C926.5,722,926.9,723.2,927.2,723.9z M922.8,739.8
		v-0.2c0-0.7-0.2-1.4-0.7-1.9c-0.7,0.9-1.6,1.9-2.8,2.8c0.2,0,0.5,0,0.9,0C921.1,740.3,922.1,740.3,922.8,739.8z" class="area" title=""></path>
	<path id="PATH_128" d="M939.2,741.2c0,3.5-1.2,6.5-3.5,8.8c-0.7,0.7-1.2,1.2-1.4,1.2c-1.4,0-2.8-0.2-4.4-0.5
		c-0.7,0-0.9-0.2-0.9-0.2s0.2-0.2,0.9-0.5c1.9-0.5,3.7-1.6,5.3-3c0.7-0.7,1.4-1.2,1.9-2.1c0.7-0.9,1.2-1.9,1.2-2.5v-0.7h-3
		c-2.1,0-3.2-0.9-3.2-2.5c0-1.2,0.2-2.3,0.9-3.7s1.6-2.3,2.5-2.3c1.4,0,2.5,0.9,3.2,3C939,738,939.2,739.6,939.2,741.2z
		 M937.6,739.3c0-0.7-0.2-1.4-0.7-2.1c-0.5-0.7-1.2-1.2-1.9-1.2c-0.5,0-0.9,0.2-1.2,0.5c-0.5,0.5-0.5,0.7-0.5,1.2
		c0,1.2,0.7,1.6,2.3,1.6C935.9,739.6,936.6,739.6,937.6,739.3z" class="area" title=""></path>
	<path id="PATH_129" d="M964.2,742.1h-1.6c-2.1,0-3.2-1.2-3.7-3.7c-1.2,1.2-1.6,1.6-1.9,1.6h-2.1c-0.7,0-1.4,0-2.1-0.2
		c-0.9-0.2-1.4-0.7-1.4-1.2c0-1.9,0.7-3.2,1.9-4.2c0.9-0.7,2.3-1.4,4.2-2.3l-0.5-2.3l1.6-1.9c0,0.2,0.7,2.8,1.6,7.6
		c0.2,1.4,0.7,2.5,0.9,3c0.5,0.7,0.9,0.9,1.9,0.9h1.6v2.5h-0.4V742.1z M958.4,737.5l-0.7-3.7c-0.7,0.2-1.6,0.7-2.8,1.2
		c-1.4,0.7-2.3,1.4-2.3,1.6c0,0.5,0.5,0.7,1.6,0.9c0.7,0.2,1.4,0.2,2.1,0.2C957.2,737.7,957.7,737.5,958.4,737.5z" class="area" title=""></path>
	<path id="PATH_130" d="M975.5,737.5c0,1.2,0,2.1-0.5,3c-0.5,1.2-1.2,1.9-1.9,1.9c-1.2,0-3-0.7-5.3-2.3c-0.7,0.9-1.2,1.4-1.4,1.6
		c-0.7,0.5-1.4,0.7-2.3,0.7H963v-2.8h1.6c0.9,0,1.9-0.5,2.8-1.6c0.5-0.5,1.2-1.6,2.1-3c0.7-1.2,1.6-1.6,2.3-1.6
		c1.2,0,2.1,0.5,2.8,1.6C975.3,735.9,975.5,736.8,975.5,737.5z M974.3,739.3c0-0.7-0.2-1.4-0.7-2.3c-0.5-0.9-1.2-1.4-1.9-1.4
		s-1.4,0.7-2.3,2.1c0.5,0.5,1.2,0.9,2.1,1.4c0.9,0.5,1.9,0.7,2.3,0.7C974.1,739.8,974.3,739.6,974.3,739.3z" class="area" title=""></path>
</g>
<g id="G_131" class="area" title="">
	<path id="PATH_132" d="M926.9,864.5c0,3.2-2.1,4.9-6.5,4.9c-1.6,0-2.8-0.2-3.5-0.7c-0.9-0.5-1.4-1.6-1.4-3c0-0.7,0.2-1.4,0.5-2.1
		c0.2-0.2,0.2-0.5,0.5-0.5s0.2,0.2,0.2,0.7c0,0.2,0,0.5,0,0.7c0,0.9,0.5,1.6,1.4,1.9c0.5,0.2,1.4,0.2,2.5,0.2c3.5,0,5.1-0.5,5.1-1.6
		c0-1.6-2.1-3.9-6-6.7l0.7-2.3c0-0.2,0.2-0.2,0.2-0.2s0.2,0,0.5,0.2C925.1,858.9,926.9,861.9,926.9,864.5z" class="area" title=""></path>
	<path id="PATH_133" d="M936.2,869.3h-1.6c-1.6,0-3-0.7-3.5-2.1c-0.5-0.9-0.7-2.5-0.7-4.4v-4.4c0-2.1-0.2-5.1-0.5-9l1.4-1.6
		c0.2-0.2,0.5-0.2,0.5,0c0.2,2.1,0.5,5.1,0.5,9v6.7c0,1.9,0.9,2.8,2.8,2.8h1.2L936.2,869.3L936.2,869.3z" class="area" title=""></path>
	<path id="PATH_134" d="M941.7,864.7c0,3-1.6,4.6-4.6,4.6h-1.9v-2.8h1.6c2.3,0,3.5-0.5,3.5-1.2s-0.5-1.6-1.6-2.8l0.9-2.3
		c0-0.2,0.2-0.2,0.2-0.2s0.2,0.2,0.5,0.5C941.3,861.7,941.7,863.3,941.7,864.7z M941,874.4l-1.9,1.9l-1.9-1.9l1.9-1.9L941,874.4z" class="area" title=""></path>
	<path id="PATH_135" d="M951,869.3h-1.6c-1.6,0-3-0.7-3.5-2.1c-0.5-0.9-0.7-2.5-0.7-4.4v-4.4c0-2.1-0.2-5.1-0.5-9l1.4-1.6
		c0.2-0.2,0.5-0.2,0.5,0c0.2,2.1,0.5,5.1,0.5,9v6.7c0,1.9,0.9,2.8,2.8,2.8h1.2L951,869.3L951,869.3z" class="area" title=""></path>
	<path id="PATH_136" d="M962.3,869.3h-1.9c-2.1,0-3.5-0.7-4.4-2.1c-0.7,1.4-2.3,2.1-4.9,2.1h-1.4v-2.8h2.1c2.3,0,3.5-0.9,3.7-2.5
		c0-0.7,0.2-1.2,0.5-1.2c0.2,0,0.5,0.5,0.5,1.2c0.2,1.6,1.4,2.5,3.5,2.5h2.1v2.8H962.3z M957.7,857.3l-1.9,1.9l-1.9-1.9l1.9-1.9
		L957.7,857.3z" class="area" title=""></path>
	<path id="PATH_137" d="M976.2,850.6c0,0.5-0.2,1.2-0.7,2.5c-2.8,0.7-6.2,1.9-10.2,3c2.8,2.8,4.4,5.1,4.6,6.7c0.2,1.2,0,2.3-0.5,3.5
		s-1.4,1.9-2.5,2.3c-0.9,0.5-2.5,0.5-4.6,0.5h-0.9v-2.8h0.7c4.4,0,6.7-0.7,6.7-2.3c0-1.2-1.2-3-3.7-5.3l-0.2,0.7
		c-0.2-0.2-0.7-0.7-1.2-1.4c-0.7-0.7-0.9-1.2-0.9-1.4c0-0.7,0.2-1.4,0.9-2.1c0.2-0.2,1.6-0.7,4.6-1.6
		C971.1,852,973.9,851.3,976.2,850.6z M975.7,847.1l-0.5,1.6l-11.3,3.7l0.5-1.6L975.7,847.1z" class="area" title=""></path>
</g>
<g id="G_138" class="area" title="">
	<path id="PATH_139" d="M968.1,1012.9h-1.6c-2.1,0-3.2-1.2-3.7-3.7c-1.2,1.2-1.6,1.6-1.9,1.6h-2.1c-0.7,0-1.4,0-2.1-0.2
		c-0.9-0.2-1.4-0.7-1.4-1.2c0-1.9,0.7-3.2,1.9-4.2c0.9-0.7,2.3-1.4,4.2-2.3l-0.5-2.3l1.6-1.9c0,0.2,0.7,2.8,1.6,7.6
		c0.2,1.4,0.7,2.5,0.9,3c0.5,0.7,0.9,0.9,1.9,0.9h1.6v2.5h-0.4V1012.9z M962.3,1008.3l-0.7-3.7c-0.7,0.2-1.6,0.7-2.8,1.2
		c-1.4,0.7-2.3,1.4-2.3,1.6c0,0.5,0.5,0.7,1.6,0.9c0.7,0.2,1.4,0.2,2.1,0.2C961.2,1008.3,961.9,1008.3,962.3,1008.3z" class="area" title=""></path>
	<path id="PATH_140" d="M973.6,1008.3c0,3-1.6,4.6-4.6,4.6h-1.9v-2.8h1.6c2.3,0,3.5-0.5,3.5-1.2s-0.5-1.6-1.6-2.8l0.9-2.3
		c0-0.2,0.2-0.2,0.2-0.2s0.2,0.2,0.5,0.5C973.2,1005.3,973.6,1006.9,973.6,1008.3z M971.8,1018l-1.9,1.9l-1.9-1.9l1.9-1.9
		L971.8,1018z M975.7,1018l-1.9,1.9l-1.9-1.9l1.9-1.9L975.7,1018z" class="area" title=""></path>
	<path id="PATH_141" d="M987.5,1013.2c0,2.3-0.7,4.4-2.1,6.5c-1.2,1.6-2.3,2.5-3,2.5c-1.9,0-3.2,0-4.6-0.2c-0.5,0-0.7-0.2-0.7-0.2
		s0.2-0.2,0.7-0.2c1.9-0.5,3.7-1.4,5.6-2.8c1.9-1.6,3-3.2,3-4.9c0-0.9-0.7-2.3-2.3-3.9l1.2-2.1c0-0.2,0.2-0.2,0.2-0.2l0.2,0.2
		c0.5,0.7,1.2,1.6,1.4,2.8C987.3,1011.3,987.5,1012.2,987.5,1013.2z" class="area" title=""></path>
	<path id="PATH_142" d="M1005.6,1012.9h-0.9c-0.9,0-1.6-0.2-2.3-0.9c-0.5-0.5-0.9-0.9-1.4-1.9c-0.5,0.9-1.2,1.6-1.9,2.1
		c-0.9,0.5-2.1,0.7-3.9,0.7c-3.2,0-4.9-1.2-4.9-3.5c0-0.7,0.2-1.6,0.7-2.3c0.2-0.2,0.2-0.5,0.5-0.5s0.2,0.2,0.2,0.5
		c0,0.2,0,0.2,0,0.7s0,0.5,0,0.7c0,1.4,1.2,2.1,3.5,2.1c3.2,0,4.9-0.7,4.9-1.9c0-0.7-0.9-3.2-2.8-7.6l0.9-1.9
		c0.2-0.2,0.2-0.5,0.2-0.5s0.2,0.2,0.2,0.5c0.7,1.9,1.9,4.6,3.2,8.3c0.7,1.9,1.6,2.8,3,2.8h0.7L1005.6,1012.9L1005.6,1012.9z" class="area" title=""></path>
	<path id="PATH_143" d="M1016.9,1012.9h-1.6c-2.1,0-3.5-0.7-4.4-2.1c-0.7,1.4-2.3,2.1-4.9,2.1h-1.4v-2.8h2.1c2.3,0,3.5-0.9,3.7-2.5
		c0-0.7,0.2-1.2,0.5-1.2c0.2,0,0.5,0.5,0.5,1.2c0.2,1.6,1.4,2.5,3.5,2.5h2.1L1016.9,1012.9L1016.9,1012.9z M1009.3,1018l-1.9,1.9
		l-1.9-1.9l1.9-1.9L1009.3,1018z M1013.2,1018l-1.9,1.9l-1.9-1.9l1.9-1.9L1013.2,1018z" class="area" title=""></path>
	<path id="PATH_144" d="M1034.9,1006.2l-0.9,1.9c-1.6,0-3,0-3.7,0.2c-0.9,0.5-2.3,0.9-4.2,1.9s-3.2,1.6-4.2,1.9
		c-1.4,0.5-3,0.7-4.4,0.7h-1.6v-2.8h1.9c2.1,0,3.9-0.5,5.6-1.2l5.3-2.3c-0.9-0.2-2.3-0.7-4.2-1.4c-1.6-0.7-2.5-0.9-3-0.9
		c-0.9,0-1.9,0.5-2.8,1.2c-0.2,0.2-0.2,0.2-0.5,0.2c-0.2,0-0.2,0-0.2-0.2v-0.2c0.7-2.3,2.1-3.2,3.9-3.2c0.7,0,1.6,0.2,2.5,0.7
		c1.9,0.9,3.2,1.4,4.2,1.9c1.6,0.5,3.5,0.9,5.6,0.9c0.5,0,0.7,0,0.7,0.2C1035.2,1005.8,1035.2,1006,1034.9,1006.2z" class="area" title=""></path>
	<path id="PATH_145" d="M1071.9,1012.9h-0.9c-1.2,0-2.1-0.2-2.5-0.7c-0.7-0.5-1.2-1.4-1.2-2.3c-2.5,2.3-6.5,3.5-11.8,3.5
		c-5.6,0-8.3-1.6-8.3-5.1c0-1.2,0.5-2.3,1.4-3.5c0.2-0.2,0.2-0.2,0.5-0.2c0.2,0,0.2,0,0.2,0.2c0,0,0,0.2,0,0.5
		c-0.2,0.7-0.5,1.4-0.5,2.1c0,2.3,2.5,3.5,7.6,3.5c5.8,0,9.7-1.2,11.6-3.7c0.5-0.5,0.7-0.7,0.9-0.7c0.2,0,0.2,0.2,0.2,0.5
		c0,0.2,0,0.5-0.2,0.9c0,0.5-0.2,0.7-0.2,0.9c0,1.2,0.9,1.9,2.5,1.9h0.9v2.3h-0.2V1012.9z M1057.6,999.5l-1.9,1.9l-1.9-1.9l1.9-1.9
		L1057.6,999.5z M1061.5,999.5l-1.9,1.9l-1.9-1.9l1.9-1.9L1061.5,999.5z" class="area" title=""></path>
	<path id="PATH_146" d="M1077.5,1008.3c0,3-1.6,4.6-4.6,4.6h-1.9v-2.8h1.6c2.3,0,3.5-0.5,3.5-1.2s-0.5-1.6-1.6-2.8l0.9-2.3
		c0-0.2,0.2-0.2,0.2-0.2s0.2,0.2,0.5,0.5C1077,1005.3,1077.5,1006.9,1077.5,1008.3z M1076.8,1018l-1.8,1.9l-1.9-1.9l1.9-1.9
		L1076.8,1018z" class="area" title=""></path>
	<path id="PATH_147" d="M1092.1,1012.9h-0.9c-0.9,0-1.4-0.2-1.9-0.5c0,0.2,0,0.5,0,0.7c0,2.1-0.7,4.2-2.1,6.2
		c-1.2,1.9-2.3,2.5-3,2.5c-1.9,0-3.2,0-4.6-0.2c-0.5,0-0.7-0.2-0.7-0.2s0.2-0.2,0.7-0.2c1.9-0.5,3.7-1.4,5.6-2.8
		c1.9-1.6,3-3.2,3-4.9c0-0.9-0.7-2.3-2.3-3.9l1.2-2.1c0-0.2,0.2-0.2,0.2-0.2l0.2,0.2c0.7,0.9,1.2,1.6,1.6,1.9
		c0.7,0.5,1.6,0.9,2.5,0.9h0.7v2.5L1092.1,1012.9L1092.1,1012.9z" class="area" title=""></path>
	<path id="PATH_148" d="M1097.6,1008.3c0,3-1.6,4.6-4.6,4.6h-1.9v-2.8h1.6c2.3,0,3.5-0.5,3.5-1.2s-0.5-1.6-1.6-2.8l0.9-2.3
		c0-0.2,0.2-0.2,0.2-0.2s0.2,0.2,0.5,0.5C1096.9,1005.3,1097.6,1006.9,1097.6,1008.3z M1095.3,998.1l-1.9,1.9l-1.8-1.9l1.8-1.9
		L1095.3,998.1z M1099.2,998.1l-1.9,1.9l-1.9-1.9l1.9-1.9L1099.2,998.1z" class="area" title=""></path>
</g>
<g id="G_149" class="area" title="">
	<path id="PATH_150" d="M744.9,818.4c0.2,0.7,0.2,1.4,0.2,2.1c0,0.9-0.2,1.6-0.5,2.5c-0.7,1.6-1.9,3-4.2,3.9
		c-1.9,0.7-3.7,1.2-5.8,1.2s-3.7-0.5-5.1-1.4c-1.4-1.2-2.1-2.5-2.1-4.6c0-1.2,0.2-2.1,0.7-3.5c0.5-0.9,0.7-1.6,1.2-2.1
		c0.2-0.2,0.5-0.2,0.5-0.2c0.2,0,0.2,0,0.2,0.2c0,0,0,0.2,0,0.5c-0.7,1.4-0.9,2.8-0.9,3.9s0.5,2.1,1.2,3c0.9,1.2,2.5,1.6,4.6,1.6
		c2.3,0,4.4-0.5,6-1.2c1.4-0.7,2.3-1.4,2.8-2.3c0.2-0.2,0.2-0.7,0.2-0.9c0-0.7-0.2-1.4-0.5-2.3c-0.2-0.7-0.9-1.9-2.1-3.7l0.9-1.9
		c0.2-0.2,0.2-0.5,0.2-0.5s0.2,0,0.2,0.2C744,814.7,744.7,816.6,744.9,818.4z M738.2,808.3l-1.9,1.9l-1.9-1.9l1.9-1.9L738.2,808.3z" class="area" title=""></path>
	<path id="PATH_151" d="M754.4,818.7h-1.6c-1.6,0-3-0.7-3.5-2.1c-0.5-0.9-0.7-2.5-0.7-4.4v-4.4c0-2.1-0.2-5.1-0.5-9l1.4-1.6
		c0.2-0.2,0.5-0.2,0.5,0c0.2,2.1,0.5,5.1,0.5,9v6.7c0,1.9,0.9,2.8,2.8,2.8h1.2v3H754.4z" class="area" title=""></path>
	<path id="PATH_152" d="M765.7,818.7h-1.9c-2.1,0-3.5-0.7-4.4-2.1c-0.7,1.4-2.3,2.1-4.9,2.1h-1.4v-2.8h2.1c2.3,0,3.5-0.9,3.7-2.5
		c0-0.7,0.2-1.2,0.5-1.2s0.5,0.5,0.5,1.2c0.2,1.6,1.4,2.5,3.5,2.5h2.1v2.8H765.7z M757.9,805.3l-1.9,1.9l-1.9-1.9l1.9-1.9
		L757.9,805.3z M761.8,805.3l-1.9,1.9l-1.9-1.9l1.9-1.9L761.8,805.3z" class="area" title=""></path>
	<path id="PATH_153" d="M787,818.7h-1.4c-1.6,0-2.5-0.7-3.2-1.9c-0.5,1.4-1.6,1.9-3,1.9s-2.3-0.7-3-1.9c-0.7,1.4-1.6,1.9-3,1.9
		c-1.6,0-2.8-0.7-3.5-1.9c-0.9,1.4-2.1,1.9-3.7,1.9h-1.6v-2.8h1.9c1.6,0,2.8-0.9,3-2.8c0-0.5,0.2-0.7,0.5-0.7s0.2,0.2,0.5,0.7
		c0.2,1.9,1.2,2.8,3,2.8c1.6,0,2.8-0.9,2.8-2.8c0-0.5,0.2-0.7,0.5-0.7c0.2,0,0.5,0.2,0.5,0.7c0.2,1.9,1.2,2.8,2.3,2.8
		c1.6,0,2.8-0.9,2.8-2.8c0-0.5,0.2-0.7,0.5-0.7s0.5,0.2,0.5,0.7c0.2,1.9,1.2,2.8,2.8,2.8h1.4v2.8H787z" class="area" title=""></path>
	<path id="PATH_154" d="M807.4,818.7h-2.3c-3,0-4.6-1.6-4.6-4.6c0-0.5,0-0.7,0-1.2c-1.2,0.5-2.5,1.4-4.4,2.5s-3,1.9-3.9,2.3
		c-1.4,0.7-3,0.9-4.4,0.9h-1.6v-2.8h1.9c1.9,0,3.9-0.5,5.8-1.4c0.9-0.5,2.5-1.4,5.1-2.5c-0.5,0-1.9-0.5-4.2-0.9
		c-1.6-0.5-2.5-0.7-2.8-0.7c-0.9,0-1.9,0.5-2.8,1.2c-0.2,0.2-0.2,0.2-0.5,0.2s-0.2,0-0.2-0.2v-0.2c0.7-2.3,2.1-3.5,3.9-3.5
		c0.7,0,1.6,0.2,2.8,0.5c1.6,0.5,3,0.9,4.2,1.2c1.6,0.2,3.5,0.5,5.6,0.5c0.5,0,0.5,0,0.7,0c0,0,0,0.2,0,0.5l-0.7,2.1
		c-1.4,0-2.3,0-2.8,0.2c0,1.2,0.2,1.9,0.5,2.1c0.5,0.7,1.4,1.2,3,1.2h2.3v2.8h-0.6V818.7z" class="area" title=""></path>
	<path id="PATH_155" d="M812.7,814c0,3-1.6,4.6-4.6,4.6h-1.9v-2.8h1.6c2.3,0,3.5-0.5,3.5-1.2s-0.5-1.6-1.6-2.8l0.9-2.3
		c0-0.2,0.2-0.2,0.2-0.2s0.2,0.2,0.5,0.5C812.2,811,812.7,812.7,812.7,814z M812,823.8l-1.9,1.9l-1.9-1.9l1.9-1.9L812,823.8z" class="area" title=""></path>
</g>
<g id="G_156" class="area" title="">
	<path id="PATH_157" d="M495.2,858.4c0,3.2-2.1,4.9-6.5,4.9c-1.6,0-2.8-0.2-3.5-0.7c-0.9-0.5-1.4-1.6-1.4-3c0-0.7,0.2-1.4,0.5-2.1
		c0.2-0.2,0.2-0.5,0.5-0.5s0.2,0.2,0.2,0.7c0,0.2,0,0.5,0,0.7c0,0.9,0.5,1.6,1.4,1.9c0.5,0.2,1.4,0.2,2.5,0.2c3.5,0,5.1-0.5,5.1-1.6
		c0-1.6-2.1-3.9-6-6.7l0.7-2.3c0-0.2,0.2-0.2,0.2-0.2s0.2,0,0.5,0.2C493.3,853.1,495.2,855.9,495.2,858.4z" class="area" title=""></path>
	<path id="PATH_158" d="M504.4,863.3h-1.6c-1.6,0-3-0.7-3.5-2.1c-0.5-0.9-0.7-2.5-0.7-4.4v-4.4c0-2.1-0.2-5.1-0.5-9l1.4-1.6
		c0.2-0.2,0.5-0.2,0.5,0c0.2,2.1,0.5,5.1,0.5,9v6.7c0,1.9,0.9,2.8,2.8,2.8h1.2L504.4,863.3L504.4,863.3z" class="area" title=""></path>
	<path id="PATH_159" d="M510,858.7c0,3-1.6,4.6-4.6,4.6h-1.9v-2.8h1.6c2.3,0,3.5-0.5,3.5-1.2s-0.5-1.6-1.6-2.8l0.9-2.3
		c0-0.2,0.2-0.2,0.2-0.2s0.2,0.2,0.5,0.5C509.3,855.9,510,857.3,510,858.7z M509,868.4l-1.9,1.9l-1.9-1.9l1.9-1.9L509,868.4z" class="area" title=""></path>
	<path id="PATH_160" d="M519.2,838.6c-0.9,0.9-2.3,1.2-3.7,1.2c-0.2,0-0.5,0-0.9,0s-0.7,0-0.9,0s-0.5,0.2-0.7,0.5s-0.5,0.5-0.5,0.5
		c-0.2,0-0.2-0.2-0.2-0.5s0.2-0.7,0.5-1.2c0.2-0.7,0.5-0.9,0.7-0.9s0.7,0,1.4,0.2s1.2,0.2,1.4,0.2c1.4,0,2.3,0,3-0.2
		c0.5,0,0.7-0.2,0.7-0.2h0.2C519.7,838.1,519.4,838.3,519.2,838.6z M517.6,860.5c0,0.9-0.2,1.9-0.7,2.5c-0.2,0.5-0.5,0.7-0.5,0.7
		s-0.2-0.2-0.2-0.9c0-2.8-0.5-9.3-1.4-19.7l1.9-1.9c0.2-0.2,0.2-0.2,0.2-0.2s0,0.2,0,0.5C517.6,844.6,517.6,850.8,517.6,860.5z" class="area" title=""></path>
	<path id="PATH_161" d="M550.7,863.3h-1.2c-1.2,0-2.1-0.5-2.5-1.2c0,1.4-0.2,3-0.5,5.1c-0.7,1.6-1.9,3-3.7,3.7
		c-1.6,0.7-3.2,1.2-5.3,1.2s-3.5-0.5-4.6-1.2c-1.4-0.9-2.1-2.3-2.1-4.4c0-1.9,0.5-3.7,1.6-5.1c0.2-0.2,0.2-0.2,0.5-0.2
		s0.2,0,0.2,0.2v0.2c-0.5,1.2-0.7,2.3-0.7,3.2c0,1.4,0.5,2.5,1.6,3.5c0.9,0.7,2.1,1.2,3.7,1.2c1.4,0,3-0.2,4.6-0.9
		c2.3-0.7,3.2-1.6,3.2-2.8l-0.2-11.1c-0.2-5.3-0.2-9-0.5-11.6l1.9-1.6c0,0.7,0.2,3.2,0.5,7.9l0.2,9c0,1.4,0.9,2.3,2.8,2.3h0.7v2.5
		L550.7,863.3L550.7,863.3z" class="area" title=""></path>
	<path id="PATH_162" d="M562,863.3h-1.9c-2.1,0-3.5-0.7-4.4-2.1c-0.7,1.4-2.3,2.1-4.9,2.1h-1.4v-2.8h2.1c2.3,0,3.5-0.9,3.7-2.5
		c0-0.7,0.2-1.2,0.5-1.2s0.5,0.5,0.5,1.2c0.2,1.6,1.4,2.5,3.5,2.5h2.1v2.8H562z M554.4,868.4l-1.9,1.9l-1.9-1.9l1.9-1.9L554.4,868.4
		z M558.5,868.4l-1.9,1.9l-1.9-1.9l1.9-1.9L558.5,868.4z" class="area" title=""></path>
	<path id="PATH_163" d="M570.6,863.3h-0.9c-2.1,0-3.5-0.7-4.2-2.3c-0.2,0.7-0.7,1.2-1.4,1.6c-0.7,0.5-1.4,0.7-2.1,0.7h-0.9v-2.8h0.9
		c1.9,0,2.8-0.7,2.8-2.3v-8.1c0-3,0-5.3-0.2-6.9l2.1-1.6v15.5c0,2.3,0.9,3.5,3,3.5h0.9L570.6,863.3L570.6,863.3z" class="area" title=""></path>
	<path id="PATH_164" d="M588.6,856.6l-0.9,1.9c-1.6,0-3,0-3.7,0.2c-0.9,0.5-2.3,0.9-4.2,1.9c-1.9,0.9-3.2,1.6-4.2,1.9
		c-1.4,0.5-3,0.7-4.4,0.7h-1.6v-2.8h1.9c2.1,0,3.9-0.5,5.6-1.2l5.3-2.3c-0.9-0.2-2.3-0.7-4.2-1.4c-1.6-0.7-2.5-0.9-3-0.9
		c-0.9,0-1.9,0.5-2.8,1.2c-0.2,0.2-0.2,0.2-0.5,0.2s-0.2,0-0.2-0.2v-0.2c0.7-2.3,2.1-3.2,3.9-3.2c0.7,0,1.6,0.2,2.5,0.7
		c1.9,0.9,3.2,1.4,4.2,1.9c1.6,0.5,3.5,0.9,5.6,0.9c0.5,0,0.7,0,0.7,0.2C588.8,856.1,588.8,856.4,588.6,856.6z M582.1,846.2
		l-1.9,1.9l-1.9-1.9l1.9-1.9L582.1,846.2z" class="area" title=""></path>
</g>
<g id="G_165" class="area" title="">
	<path id="PATH_166" d="M649.4,670.7h-1.2c-1.2,0-1.9,0-2.3-0.2c0,0.7,0.2,1.2,0.2,1.9c0,1.2-0.2,1.9-0.5,2.5
		c-0.7,1.6-1.9,3-4.2,3.9c-1.9,0.7-3.7,1.2-5.8,1.2s-3.7-0.5-5.1-1.4c-1.4-1.2-2.1-2.5-2.1-4.6c0-1.2,0.2-2.1,0.7-3.5
		c0.5-0.9,0.7-1.6,1.2-2.1c0.2-0.2,0.5-0.2,0.5-0.2c0.2,0,0.2,0,0.2,0.2c0,0,0,0.2,0,0.5c-0.7,1.4-0.9,2.8-0.9,3.9s0.5,2.1,1.2,3
		c0.9,1.2,2.5,1.6,4.6,1.6c2.3,0,4.4-0.5,6-1.2c1.4-0.7,2.3-1.4,2.8-2.3c0.2-0.2,0.2-0.7,0-1.6c0-0.7-0.2-1.4-0.2-1.6
		c-0.2-0.7-1.2-1.9-2.3-3.5l0.9-1.9c0.2-0.2,0.2-0.5,0.2-0.5s0.2,0,0.2,0.2c1.2,1.9,2.3,2.8,3.7,2.8h1.9v2.8L649.4,670.7
		L649.4,670.7z M639.2,660.3l-1.9,1.9l-1.9-1.9l1.9-1.9L639.2,660.3z" class="area" title=""></path>
	<path id="PATH_167" d="M665.4,670.7h-1.6c-1.2,0-2.3-0.7-3.7-1.9c-0.7-0.7-1.6-1.9-2.8-3.5c0.2,3.7-1.9,5.6-6.2,5.6h-2.5v-2.8h3
		c3,0,4.6-0.9,4.6-2.5c0-0.9-0.5-2.1-1.6-3.5c-0.7-0.9-1.6-1.9-3-3c-1.2-0.9-1.6-1.6-1.6-1.6c0-1.6,0.2-2.8,0.7-3.5
		c0-0.2,1.6-0.7,4.6-1.9s5.8-2.1,8.3-2.8c0,0.2-0.2,1.2-0.7,2.5c-3,0.9-6.7,2.3-11.3,4.2c2.1,1.9,4.9,4.9,7.9,9
		c1.2,1.4,2.1,2.3,2.8,2.8c0.5,0.2,1.4,0.5,2.3,0.5h0.9v2.4H665.4z" class="area" title=""></path>
	<path id="PATH_168" d="M683.6,665.8c0,1.4-0.2,2.5-0.9,3.5c-0.7,0.9-1.9,1.6-3,1.6c-1.6,0-2.5-0.7-3.2-1.9
		c-0.9,1.4-1.9,1.9-3.2,1.9c-1.6,0-2.8-0.7-3.5-1.9c-0.9,1.4-2.1,1.9-3.7,1.9h-1.6v-2.8h1.9c1.6,0,2.8-0.9,3-2.8
		c0-0.5,0.2-0.7,0.5-0.7s0.2,0.2,0.5,0.7c0.2,1.9,1.2,2.8,3,2.8c0.9,0,1.9-0.2,2.3-0.7c0.2-0.5,0.5-0.9,0.7-1.9
		c0-0.5,0.2-0.7,0.5-0.7c0.2,0,0.2,0.2,0.5,0.7c0.2,1.9,1.2,2.8,2.8,2.8c1.9,0,2.5-0.5,2.5-1.2s-0.5-1.6-1.4-2.5l1.2-2.1
		c0.2-0.2,0.2-0.5,0.5-0.5c0.2,0,0.2,0.2,0.5,0.5C683.2,663.5,683.6,664.7,683.6,665.8z" class="area" title=""></path>
	<path id="PATH_169" d="M697.7,665.8c0,3.2-2.1,4.9-6.5,4.9c-1.6,0-2.8-0.2-3.5-0.7c-0.9-0.5-1.4-1.6-1.4-3c0-0.7,0.2-1.4,0.5-2.1
		c0.2-0.2,0.2-0.5,0.5-0.5s0.2,0.2,0.2,0.7c0,0.2,0,0.5,0,0.7c0,0.9,0.5,1.6,1.4,1.9c0.5,0.2,1.4,0.2,2.5,0.2c3.5,0,5.1-0.5,5.1-1.6
		c0-1.6-2.1-3.9-6-6.7l0.7-2.3c0-0.2,0.2-0.2,0.2-0.2s0.2,0,0.5,0.2C695.9,660.3,697.7,663.3,697.7,665.8z" class="area" title=""></path>
	<path id="PATH_170" d="M712.3,670.7h-0.9c-0.9,0-1.4-0.2-1.9-0.5c0,0.2,0,0.5,0,0.7c0,2.1-0.7,4.2-2.1,6.2c-1.2,1.9-2.3,2.5-3,2.5
		c-1.9,0-3.2,0-4.6-0.2c-0.5,0-0.7-0.2-0.7-0.2s0.2-0.2,0.7-0.2c1.9-0.5,3.7-1.4,5.6-2.8c1.9-1.6,3-3.2,3-4.9c0-0.9-0.7-2.3-2.3-3.9
		l1.2-2.1c0-0.2,0.2-0.2,0.2-0.2l0.2,0.2c0.7,0.9,1.2,1.6,1.6,1.9c0.7,0.5,1.6,0.9,2.5,0.9h0.7v2.5L712.3,670.7L712.3,670.7z" class="area" title=""></path>
	<path id="PATH_171" d="M717.6,666c0,3-1.6,4.6-4.6,4.6h-1.9v-2.8h1.6c2.3,0,3.5-0.5,3.5-1.2s-0.5-1.6-1.6-2.8l0.9-2.3
		c0-0.2,0.2-0.2,0.2-0.2s0.2,0.2,0.5,0.5C717.2,663,717.6,664.7,717.6,666z M716.9,675.8l-1.9,1.9l-1.9-1.9l1.9-1.9L716.9,675.8z" class="area" title=""></path>
</g>
<g id="G_172" class="area" title="">
	<path id="PATH_173" d="M845.8,615.9h-0.9c-0.9,0-1.4-0.2-1.9-0.5c0,0.2,0,0.5,0,0.7c0,2.1-0.7,4.2-2.1,6.2c-1.2,1.9-2.3,2.5-3,2.5
		c-1.9,0-3.2,0-4.6-0.2c-0.5,0-0.7-0.2-0.7-0.2s0.2-0.2,0.7-0.2c1.9-0.5,3.7-1.4,5.6-2.8c1.9-1.6,3-3.2,3-4.9c0-0.9-0.7-2.3-2.3-3.9
		l1.2-2.1c0-0.2,0.2-0.2,0.2-0.2l0.2,0.2c0.7,0.9,1.2,1.6,1.6,1.9c0.7,0.5,1.6,0.9,2.5,0.9h0.7v2.5L845.8,615.9L845.8,615.9z" class="area" title=""></path>
	<path id="PATH_174" d="M862.4,615.9H861c-1.2,0-2.3-0.7-3.2-1.9c-0.7,1.9-1.4,2.8-2.1,2.8s-1.9-0.5-3.2-1.2
		c-1.2-0.7-2.1-1.4-2.5-1.9c-1.2,1.4-2.3,2.1-3.5,2.1h-1.4V613h1.4c1.2,0,2.1-0.5,3-1.4c0.7-0.7,1.4-1.6,2.3-2.5s1.6-1.4,2.3-1.4
		c0.9,0,1.6,0.5,2.3,1.4c0.5,0.5,0.9,1.4,2.1,2.5c0.7,0.9,1.6,1.4,2.5,1.4h1.4L862.4,615.9L862.4,615.9z M856.2,614
		c0-0.7-0.2-1.4-0.7-2.3c-0.5-0.9-1.2-1.4-2.1-1.4c-0.7,0-1.6,0.7-2.5,1.9c0.2,0.2,0.9,0.7,2.1,1.4s2.1,0.9,2.8,0.9
		C855.9,614.5,856.2,614.2,856.2,614z" class="area" title=""></path>
	<path id="PATH_175" d="M880.7,611c0,1.4-0.2,2.5-0.9,3.5c-0.7,0.9-1.9,1.6-3,1.6c-1.6,0-2.5-0.7-3.2-1.9c-0.9,1.4-1.9,1.9-3.2,1.9
		c-1.6,0-2.8-0.7-3.5-1.9c-0.9,1.4-2.1,1.9-3.7,1.9h-1.6v-2.8h1.9c1.6,0,2.8-0.9,3-2.8c0-0.5,0.2-0.7,0.5-0.7s0.2,0.2,0.5,0.7
		c0.2,1.9,1.2,2.8,3,2.8c0.9,0,1.9-0.2,2.3-0.7c0.2-0.5,0.5-0.9,0.7-1.9c0-0.5,0.2-0.7,0.5-0.7s0.2,0.2,0.5,0.7
		c0.2,1.9,1.2,2.8,2.8,2.8c1.9,0,2.5-0.5,2.5-1.2s-0.5-1.6-1.4-2.5l1.2-2.1c0.2-0.2,0.2-0.5,0.5-0.5c0.2,0,0.2,0.2,0.5,0.5
		C880.2,608.7,880.7,610.1,880.7,611z M872.8,602.4l-1.6,1.6l-1.6-1.6l1.6-1.6L872.8,602.4z M874.9,599l-1.6,1.6l-1.6-1.6l1.6-1.6
		L874.9,599z M877,602.4l-1.6,1.6l-1.6-1.6l1.6-1.6L877,602.4z" class="area" title=""></path>
	<path id="PATH_176" d="M889.9,615.9h-1.6c-1.6,0-3-0.7-3.5-2.1c-0.5-0.9-0.7-2.5-0.7-4.4V605c0-2.1-0.2-5.1-0.5-9l1.4-1.6
		c0.2-0.2,0.5-0.2,0.5,0c0.2,2.1,0.5,5.1,0.5,9v6.7c0,1.9,0.9,2.8,2.8,2.8h1.2v3H889.9z" class="area" title=""></path>
	<path id="PATH_177" d="M904.3,594.6c0,0.5-0.5,1.4-0.9,2.5l-5.8,1.9c-2.5,0.9-4.4,1.6-5.3,2.1c1.9,1.9,3,3.2,3.7,3.9
		c1.2,1.6,1.9,3,2.1,4.6c0,1.2,0,2.3-0.5,3.2c-0.7,2.1-3.2,3-7.2,3h-1.2V613h1.4c1.9,0,3.2,0,3.9-0.2c1.6-0.5,2.5-1.2,2.5-2.3
		c0-1.6-1.2-3.5-3.7-5.8l-0.2,0.5c-0.2-0.2-0.7-0.7-1.2-1.4c-0.7-0.7-0.9-1.4-0.9-1.4c0-0.5,0-0.9,0.2-1.9c0.2-0.9,0.5-1.4,0.7-1.6
		c0.2-0.2,1.9-0.9,4.9-1.9C899.4,596,902.2,595,904.3,594.6z" class="area" title=""></path>
</g>
<g id="G_178" class="area" title="">
	<path id="PATH_179" d="M627.9,522.2c0,2.3-0.7,4.4-2.1,6.5c-1.2,1.6-2.3,2.5-3,2.5c-1.9,0-3.2,0-4.6-0.2c-0.5,0-0.7-0.2-0.7-0.2
		s0.2-0.2,0.7-0.2c1.9-0.5,3.7-1.4,5.6-2.8c1.9-1.6,3-3.2,3-4.9c0-0.9-0.7-2.3-2.3-3.9l1.2-2.1c0-0.2,0.2-0.2,0.2-0.2l0.2,0.2
		c0.5,0.7,1.2,1.6,1.4,2.8C627.7,520.3,627.9,521.3,627.9,522.2z" class="area" title=""></path>
	<path id="PATH_180" d="M633.5,519c0,0.9-0.2,1.9-0.7,2.5c-0.2,0.5-0.5,0.7-0.5,0.7s-0.2-0.2-0.2-0.9c0-2.8-0.5-9.3-1.4-19.7
		l1.9-1.9c0.2-0.2,0.2-0.2,0.2-0.2s0,0.2,0,0.5C633.2,503.2,633.5,509.5,633.5,519z" class="area" title=""></path>
	<path id="PATH_181" d="M645.3,521c0,3.5-1.2,6.5-3.5,8.8c-0.7,0.7-1.2,1.2-1.4,1.2c-1.4,0-2.8-0.2-4.4-0.5c-0.7,0-0.9-0.2-0.9-0.2
		s0.2-0.2,0.9-0.5c1.9-0.5,3.7-1.6,5.3-3c0.7-0.7,1.4-1.2,1.9-2.1c0.7-0.9,1.2-1.9,1.2-2.5v-0.7h-3c-2.1,0-3.2-0.9-3.2-2.5
		c0-1.2,0.2-2.3,0.9-3.7s1.6-2.3,2.5-2.3c1.4,0,2.5,0.9,3.2,3C645,517.6,645.3,519.2,645.3,521z M643.6,519c0-0.7-0.2-1.4-0.7-2.1
		c-0.5-0.7-1.2-1.2-1.9-1.2c-0.5,0-0.9,0.2-1.2,0.5c-0.5,0.5-0.5,0.7-0.5,1.2c0,1.2,0.7,1.6,2.3,1.6
		C642,519.2,642.7,519.2,643.6,519z" class="area" title=""></path>
	<path id="PATH_182" d="M659.6,522h-0.9c-0.9,0-1.4-0.2-1.9-0.5c0,0.2,0,0.5,0,0.7c0,2.1-0.7,4.2-2.1,6.2c-1.2,1.9-2.3,2.5-3,2.5
		c-1.9,0-3.2,0-4.6-0.2c-0.5,0-0.7-0.2-0.7-0.2s0.2-0.2,0.7-0.2c1.9-0.5,3.7-1.4,5.6-2.8c1.9-1.6,3-3.2,3-4.9c0-0.9-0.7-2.3-2.3-3.9
		l1.2-2.1c0-0.2,0.2-0.2,0.2-0.2l0.2,0.2c0.7,0.9,1.2,1.6,1.6,1.9c0.7,0.5,1.6,0.9,2.5,0.9h0.7v2.5L659.6,522L659.6,522z
		 M655.2,509.7l-1.9,1.9l-1.9-1.9l1.9-1.9L655.2,509.7z" class="area" title=""></path>
	<path id="PATH_183" d="M671.2,522h-1.9c-2.1,0-3.5-0.7-4.4-2.1c-0.7,1.4-2.3,2.1-4.9,2.1h-1.4v-2.8h2.1c2.3,0,3.5-0.9,3.7-2.5
		c0-0.7,0.2-1.2,0.5-1.2s0.5,0.5,0.5,1.2c0.2,1.6,1.4,2.5,3.5,2.5h2.1v2.8H671.2z M666.1,527l-1.9,1.9l-1.9-1.9l1.9-1.9L666.1,527z" class="area" title=""></path>
	<path id="PATH_184" d="M689.2,516.9c0,1.4-0.2,2.5-0.9,3.5c-0.7,0.9-1.9,1.6-3,1.6c-1.6,0-2.5-0.7-3.2-1.9
		c-0.9,1.4-1.9,1.9-3.2,1.9c-1.6,0-2.8-0.7-3.5-1.9c-0.9,1.4-2.1,1.9-3.7,1.9H670v-2.8h1.9c1.6,0,2.8-0.9,3-2.8
		c0-0.5,0.2-0.7,0.5-0.7s0.2,0.2,0.5,0.7c0.2,1.9,1.2,2.8,3,2.8c0.9,0,1.9-0.2,2.3-0.7c0.2-0.5,0.5-0.9,0.7-1.9
		c0-0.5,0.2-0.7,0.5-0.7s0.2,0.2,0.5,0.7c0.2,1.9,1.2,2.8,2.8,2.8c1.9,0,2.5-0.5,2.5-1.2s-0.5-1.6-1.4-2.5l1.2-2.1
		c0.2-0.2,0.2-0.5,0.5-0.5c0.2,0,0.2,0.2,0.5,0.5C689,514.8,689.2,515.9,689.2,516.9z" class="area" title=""></path>
</g>
<g id="G_185" class="area" title="">
	<path id="PATH_186" d="M539.3,409.6c0.2,0.7,0.2,1.4,0.2,2.1c0,0.9-0.2,1.6-0.5,2.5c-0.7,1.6-1.9,3-4.2,3.9
		c-1.9,0.7-3.7,1.2-5.8,1.2s-3.7-0.5-5.1-1.4c-1.4-1.2-2.1-2.5-2.1-4.6c0-1.2,0.2-2.1,0.7-3.5c0.5-0.9,0.7-1.6,1.2-2.1
		c0.2-0.2,0.5-0.2,0.5-0.2c0.2,0,0.2,0,0.2,0.2c0,0,0,0.2,0,0.5c-0.7,1.4-0.9,2.8-0.9,3.9s0.5,2.1,1.2,3c0.9,1.2,2.5,1.6,4.6,1.6
		c2.3,0,4.4-0.5,6-1.2c1.4-0.7,2.3-1.4,2.8-2.3c0.2-0.2,0.2-0.7,0.2-0.9c0-0.7-0.2-1.4-0.5-2.3c-0.2-0.7-0.9-1.9-2.1-3.7l0.9-1.9
		c0.2-0.2,0.2-0.5,0.2-0.5s0.2,0,0.2,0.2C538.4,406.1,538.9,407.7,539.3,409.6z M532.4,399.6l-1.9,1.9l-1.9-1.9l1.9-1.9L532.4,399.6
		z" class="area" title=""></path>
	<path id="PATH_187" d="M551.1,410c0,2.3-0.7,4.4-2.1,6.5c-1.2,1.6-2.3,2.5-3,2.5c-1.9,0-3.2,0-4.6-0.2c-0.5,0-0.7-0.2-0.7-0.2
		s0.2-0.2,0.7-0.2c1.9-0.5,3.7-1.4,5.6-2.8c1.9-1.6,3-3.2,3-4.9c0-0.9-0.7-2.3-2.3-3.9l1.2-2.1c0-0.2,0.2-0.2,0.2-0.2l0.2,0.2
		c0.5,0.7,1.2,1.6,1.4,2.8C550.9,408.4,551.1,409.3,551.1,410z M549.5,397.8l-1.9,1.9l-1.9-1.9l1.9-1.9L549.5,397.8z" class="area" title=""></path>
	<path id="PATH_188" d="M562.9,410c0,2.3-0.7,4.4-2.1,6.5c-1.2,1.6-2.3,2.5-3,2.5c-1.9,0-3.2,0-4.6-0.2c-0.5,0-0.7-0.2-0.7-0.2
		s0.2-0.2,0.7-0.2c1.9-0.5,3.7-1.4,5.6-2.8c1.9-1.6,3-3.2,3-4.9c0-0.9-0.7-2.3-2.3-3.9l1.2-2.1c0-0.2,0.2-0.2,0.2-0.2l0.2,0.2
		c0.5,0.7,1.2,1.6,1.4,2.8C562.7,408.4,562.9,409.3,562.9,410z" class="area" title=""></path>
	<path id="PATH_189" d="M574.7,409.1c0,3.5-1.2,6.5-3.5,8.8c-0.7,0.7-1.2,1.2-1.4,1.2c-1.4,0-2.8-0.2-4.4-0.5
		c-0.7,0-0.9-0.2-0.9-0.2s0.2-0.2,0.9-0.5c1.9-0.5,3.7-1.6,5.3-3c0.7-0.7,1.4-1.2,1.9-2.1c0.7-0.9,1.2-1.9,1.2-2.5v-0.7h-3
		c-2.1,0-3.2-0.9-3.2-2.5c0-1.2,0.2-2.3,0.9-3.7s1.6-2.3,2.5-2.3c1.4,0,2.5,0.9,3.2,3C574.5,405.6,574.7,407.3,574.7,409.1z
		 M573.1,407c0-0.7-0.2-1.4-0.7-2.1s-1.2-1.2-1.9-1.2c-0.5,0-0.9,0.2-1.2,0.5c-0.5,0.5-0.5,0.7-0.5,1.2c0,1.2,0.7,1.6,2.3,1.6
		C571.5,407.3,572.2,407.3,573.1,407z" class="area" title=""></path>
	<path id="PATH_190" d="M580.3,407c0,0.9-0.2,1.9-0.7,2.5c-0.2,0.5-0.5,0.7-0.5,0.7s-0.2-0.2-0.2-0.9c0-2.8-0.5-9.3-1.4-19.7
		l1.9-1.9c0.2-0.2,0.2-0.2,0.2-0.2s0,0.2,0,0.5C580,391.3,580.3,397.5,580.3,407z" class="area" title=""></path>
	<path id="PATH_191" d="M594.4,405.2c0,3.2-2.1,4.9-6.5,4.9c-1.6,0-2.8-0.2-3.5-0.7c-0.9-0.5-1.4-1.6-1.4-3c0-0.7,0.2-1.4,0.5-2.1
		c0.2-0.2,0.2-0.5,0.5-0.5s0.2,0.2,0.2,0.7c0,0.2,0,0.5,0,0.7c0,0.9,0.5,1.6,1.4,1.9c0.5,0.2,1.4,0.2,2.5,0.2c3.5,0,5.1-0.5,5.1-1.6
		c0-1.6-2.1-3.9-6-6.7l0.7-2.3c0-0.2,0.2-0.2,0.2-0.2s0.2,0,0.5,0.2C592.5,399.6,594.4,402.4,594.4,405.2z" class="area" title=""></path>
</g>
<g id="G_192" class="area" title="">
	<path id="PATH_193" d="M369.8,343.9c0,0.5,0,0.7,0,0.7s-0.2,0-0.7-0.2c-0.7-0.5-1.6-0.7-2.8-0.7c-1.6,0-3,0.7-4.2,1.9
		s-1.6,1.9-1.6,2.5c0,0.7,1.2,1.4,3.2,1.6c2.3,0.5,3.7,0.9,4.2,1.6c0,0.2,0.2,0.5,0.2,0.7c0,1.2-0.5,2.5-1.2,3.9
		c-0.5,0.9-1.6,1.6-3.5,2.3c-2.3,0.9-4.6,1.4-7.6,1.4c-2.1,0-3.7-0.5-5.1-1.6c-1.4-1.2-2.1-2.8-2.1-4.6c0-2.1,0.7-4.2,2.1-6
		c0.2-0.2,0.5-0.5,0.7-0.5s0.2,0,0.2,0.2s0,0.2-0.2,0.7c-0.9,1.6-1.4,3.2-1.4,4.6c0,1.2,0.5,2.1,1.2,2.8c1.2,1.2,2.8,1.6,4.9,1.6
		c1.9,0,3.9-0.2,6-0.7c3-0.7,4.6-1.6,4.6-2.8c0-0.5-1.4-0.9-4.4-1.6c-1.2-0.2-1.9-0.5-2.3-0.7c-0.5-0.2-0.9-0.9-0.9-1.6
		c0-1.6,0.7-3.2,2.3-5.3c1.6-2.1,3.5-3.2,5.1-3.2C368.2,341.1,369.4,342,369.8,343.9z" class="area" title=""></path>
	<path id="PATH_194" d="M379.1,352.2h-1.6c-1.6,0-3-0.7-3.5-2.1c-0.5-0.9-0.7-2.5-0.7-4.4v-4.4c0-2.1-0.2-5.1-0.5-9l1.4-1.6
		c0.2-0.2,0.5-0.2,0.5,0c0.2,2.1,0.5,5.1,0.5,9v6.7c0,1.9,0.9,2.8,2.8,2.8h1.2C379.1,349.2,379.1,352.2,379.1,352.2z" class="area" title=""></path>
	<path id="PATH_195" d="M390.4,352.2h-1.9c-2.1,0-3.5-0.7-4.4-2.1c-0.7,1.4-2.3,2.1-4.9,2.1h-1.4v-2.8h2.1c2.3,0,3.5-0.9,3.7-2.5
		c0-0.7,0.2-1.2,0.5-1.2c0.2,0,0.5,0.5,0.5,1.2c0.2,1.6,1.4,2.5,3.5,2.5h2.1v2.8H390.4z M382.5,338.8l-1.9,1.9l-1.9-1.9l1.9-1.9
		L382.5,338.8z M386.5,338.8l-1.9,1.9l-1.9-1.9l1.9-1.9L386.5,338.8z" class="area" title=""></path>
	<path id="PATH_196" d="M403.3,352.2H402c-1.9,0-3.5-0.5-4.6-1.6c0-0.2-0.2-0.2-0.5-0.7l-0.7,0.7c-1.4,1.2-3,1.6-4.9,1.6h-1.9v-2.8
		h2.3c1.6,0,2.8-0.2,3.5-0.9c-0.2-0.5-0.5-0.9-0.9-1.4c-0.5-0.5-0.9-0.9-1.2-0.9c-0.5-0.2-0.7-0.2-0.7-0.5c0,0,0-0.2,0.2-0.5
		c0.7-1.4,1.9-2.1,3.9-2.1c2.5,0,3.9,0.7,3.9,2.3c0,0.7-0.7,1.6-2.1,3c0.2,0.2,0.9,0.7,1.6,0.9c0.7,0.2,1.2,0.2,1.9,0.2h1.9v2.5
		h-0.4V352.2z M398.3,336l-1.9,1.9l-1.9-1.9l1.9-1.9L398.3,336z" class="area" title=""></path>
	<path id="PATH_197" d="M421.4,345.5l-0.9,1.9c-1.6,0-3,0-3.7,0.2c-0.9,0.5-2.3,0.9-4.2,1.9c-1.9,0.9-3.2,1.6-4.2,1.9
		c-1.4,0.5-3,0.7-4.4,0.7h-1.6v-2.8h1.9c2.1,0,3.9-0.5,5.6-1.2l5.3-2.3c-0.9-0.2-2.3-0.7-4.2-1.4c-1.6-0.7-2.5-0.9-3-0.9
		c-0.9,0-1.9,0.5-2.8,1.2c-0.2,0.2-0.2,0.2-0.5,0.2s-0.2,0-0.2-0.2v-0.2c0.7-2.3,2.1-3.2,3.9-3.2c0.7,0,1.6,0.2,2.5,0.7
		c1.9,0.9,3.2,1.4,4.2,1.9c1.6,0.5,3.5,0.9,5.6,0.9c0.5,0,0.7,0,0.7,0.2C421.6,345,421.6,345.3,421.4,345.5z M413.8,357.1l-1.9,1.9
		l-1.9-1.9l1.9-1.9L413.8,357.1z" class="area" title=""></path>
</g>
<g id="G_198" class="area" title="">
	<path id="PATH_199" d="M627.7,340h-1.2c-1.2,0-1.9,0-2.3-0.2c0,0.7,0.2,1.2,0.2,1.9c0,1.2-0.2,1.9-0.5,2.5c-0.7,1.6-1.9,3-4.2,3.9
		c-1.9,0.7-3.7,1.2-5.8,1.2s-3.7-0.5-5.1-1.4c-1.4-1.2-2.1-2.5-2.1-4.6c0-1.2,0.2-2.1,0.7-3.5c0.5-0.9,0.7-1.6,1.2-2.1
		c0.2-0.2,0.5-0.2,0.5-0.2c0.2,0,0.2,0,0.2,0.2c0,0,0,0.2,0,0.5c-0.7,1.4-0.9,2.8-0.9,3.9s0.5,2.1,1.2,3c0.9,1.2,2.5,1.6,4.6,1.6
		c2.3,0,4.4-0.5,6-1.2c1.4-0.7,2.3-1.4,2.8-2.3c0.2-0.2,0.2-0.7,0-1.6c0-0.7-0.2-1.4-0.2-1.6c-0.2-0.7-1.2-1.9-2.3-3.5l0.9-1.9
		c0.2-0.2,0.2-0.5,0.2-0.5s0.2,0,0.2,0.2c1.2,1.9,2.3,2.8,3.7,2.8h1.9v2.8h0.3V340z M617.5,329.6l-1.9,1.9l-1.9-1.9l1.9-1.9
		L617.5,329.6z" class="area" title=""></path>
	<path id="PATH_200" d="M633.2,335.3c0,3-1.6,4.6-4.6,4.6h-1.9v-2.8h1.6c2.3,0,3.5-0.5,3.5-1.2s-0.5-1.6-1.6-2.8l0.9-2.3
		c0-0.2,0.2-0.2,0.2-0.2s0.2,0.2,0.5,0.5C632.8,332.3,633.2,333.7,633.2,335.3z M631.4,345l-1.9,1.9l-1.9-1.9l1.9-1.9L631.4,345z
		 M635.3,345l-1.9,1.9l-1.9-1.9l1.9-1.9L635.3,345z" class="area" title=""></path>
	<path id="PATH_201" d="M649.9,340h-2.5c-0.2,3.2-1.4,5.8-3.7,8.1c-0.7,0.7-1.2,1.2-1.4,1.2c-1.2,0-2.8-0.2-4.4-0.5
		c-0.5,0-0.9-0.2-0.9-0.2s0.2-0.2,0.9-0.5c1.9-0.5,3.7-1.6,5.3-2.8c0.7-0.7,1.4-1.2,1.9-2.1c0.7-0.9,1.2-1.9,1.2-2.5V340h-3
		c-2.3,0-3.2-0.9-3.2-2.8c0-1.2,0.2-2.3,0.9-3.7c0.7-1.4,1.6-2.3,2.5-2.3c1.2,0,2.1,0.7,2.8,2.3c0.5,1.2,0.9,2.3,0.9,3.7h2.5v2.8
		H649.9z M645.7,337.2c0-0.7-0.2-1.4-0.7-2.1c-0.5-0.9-1.2-1.2-1.9-1.2c-0.5,0-0.9,0.2-1.2,0.5c-0.5,0.5-0.5,0.7-0.5,1.4
		c0,1.2,0.9,1.6,2.8,1.6C644.3,337.2,645,337.2,645.7,337.2z" class="area" title=""></path>
	<path id="PATH_202" d="M667.9,333.3l-0.9,1.9c-1.6,0-3,0-3.7,0.2c-0.9,0.5-2.3,0.9-4.2,1.9c-1.9,0.9-3.2,1.6-4.2,1.9
		c-1.4,0.5-3,0.7-4.4,0.7H649V337h1.9c2.1,0,3.9-0.5,5.6-1.2l5.3-2.3c-0.9-0.2-2.3-0.7-4.2-1.4c-1.6-0.7-2.5-0.9-3-0.9
		c-0.9,0-1.9,0.5-2.8,1.2c-0.2,0.2-0.2,0.2-0.5,0.2c-0.2,0-0.2,0-0.2-0.2v-0.2c0.7-2.3,2.1-3.2,3.9-3.2c0.7,0,1.6,0.2,2.5,0.7
		c1.9,0.9,3.2,1.4,4.2,1.9c1.6,0.5,3.5,0.9,5.6,0.9c0.5,0,0.7,0,0.7,0.2C668.1,332.8,668.1,332.8,667.9,333.3z M660.3,344.6
		l-1.9,1.9l-1.9-1.9l1.9-1.9L660.3,344.6z" class="area" title=""></path>
</g>
<g id="G_203" class="area" title="">
	<path id="PATH_204" d="M695.4,243.1c0,1.6-0.5,3-1.6,3.7c-0.7,0.5-2.1,0.9-4.2,1.2c-2.3,0.5-4.6,0.7-7.2,0.7c-6,0-9.3-1.6-9.3-5.1
		c0-1.2,0.5-2.3,1.4-3.5c0.2-0.2,0.2-0.5,0.5-0.5c0.2,0,0.2,0,0.2,0.2c0,0,0,0.2,0,0.5c-0.2,0.7-0.5,1.4-0.5,2.1
		c0,2.3,3,3.5,8.8,3.5c2.8,0,5.3-0.2,7.2-0.5c2.3-0.5,3.2-0.9,3.2-1.6c0-0.5-0.5-1.4-1.6-2.8l1.2-2.1c0.2-0.2,0.2-0.2,0.5,0
		C695,240.5,695.4,241.9,695.4,243.1z M686.2,253.5l-1.9,1.9l-1.9-1.9l1.9-1.9L686.2,253.5z" class="area" title=""></path>
	<path id="PATH_205" d="M704.5,248.1h-1.4c-1.6,0-3-0.7-3.5-2.1c-0.5-0.9-0.7-2.5-0.7-4.4v-4.4c0-2.1-0.2-5.1-0.5-9l1.4-1.6
		c0.2-0.2,0.5-0.2,0.5,0c0.2,2.1,0.5,5.1,0.5,9v6.7c0,1.9,0.9,2.8,2.8,2.8h1.2v3H704.5z" class="area" title=""></path>
	<path id="PATH_206" d="M722.7,243.3c0,1.4-0.2,2.5-0.9,3.5c-0.7,0.9-1.9,1.6-3,1.6c-1.6,0-2.5-0.7-3.2-1.9
		c-0.9,1.4-1.9,1.9-3.2,1.9c-1.6,0-2.8-0.7-3.5-1.9c-0.9,1.4-2.1,1.9-3.7,1.9h-1.6v-2.8h1.9c1.6,0,2.8-0.9,3-2.8
		c0-0.5,0.2-0.7,0.5-0.7s0.2,0.2,0.5,0.7c0.2,1.9,1.2,2.8,3,2.8c0.9,0,1.9-0.2,2.3-0.7c0.2-0.5,0.5-0.9,0.7-1.9
		c0-0.5,0.2-0.7,0.5-0.7c0.2,0,0.2,0.2,0.5,0.7c0.2,1.9,1.2,2.8,2.8,2.8c1.9,0,2.5-0.5,2.5-1.2s-0.5-1.6-1.4-2.5l1.2-2.1
		c0.2-0.2,0.2-0.5,0.5-0.5c0.2,0,0.2,0.2,0.5,0.5C722.5,241,722.7,242.4,722.7,243.3z M714.9,234.7l-1.6,1.6l-1.6-1.6l1.6-1.6
		L714.9,234.7z M716.9,231.3l-1.6,1.6l-1.6-1.6l1.6-1.6L716.9,231.3z M719,234.7l-1.6,1.6l-1.6-1.6l1.6-1.6L719,234.7z" class="area" title=""></path>
	<path id="PATH_207" d="M737.3,248.1h-2.5c-0.2,3.2-1.4,5.8-3.7,8.1c-0.7,0.7-1.2,1.2-1.4,1.2c-1.2,0-2.8-0.2-4.4-0.5
		c-0.5,0-0.9-0.2-0.9-0.2s0.2-0.2,0.9-0.5c1.9-0.5,3.7-1.6,5.3-2.8c0.7-0.7,1.4-1.2,1.9-2.1c0.7-0.9,1.2-1.9,1.2-2.5v-0.7h-3
		c-2.3,0-3.2-0.9-3.2-2.8c0-1.2,0.2-2.3,0.9-3.7s1.6-2.3,2.5-2.3c1.2,0,2.1,0.7,2.8,2.3c0.5,1.2,0.9,2.3,0.9,3.7h2.5v2.8H737.3z
		 M733.1,245.6c0-0.7-0.2-1.4-0.7-2.1c-0.5-0.9-1.2-1.2-1.9-1.2c-0.5,0-0.9,0.2-1.2,0.5c-0.5,0.5-0.5,0.7-0.5,1.4
		c0,1.2,0.9,1.6,2.8,1.6C731.7,245.6,732.4,245.6,733.1,245.6z" class="area" title=""></path>
	<path id="PATH_208" d="M755.3,241.4l-0.9,1.9c-1.6,0-3,0-3.7,0.2c-0.9,0.5-2.3,0.9-4.2,1.9c-1.9,0.9-3.2,1.6-4.2,1.9
		c-1.4,0.5-3,0.7-4.4,0.7h-1.6v-2.8h1.9c2.1,0,3.9-0.5,5.6-1.2l5.3-2.3c-0.9-0.2-2.3-0.7-4.2-1.4c-1.6-0.7-2.5-0.9-3-0.9
		c-0.9,0-1.9,0.5-2.8,1.2c-0.2,0.2-0.2,0.2-0.5,0.2s-0.2,0-0.2-0.2v-0.2c0.7-2.3,2.1-3.2,3.9-3.2c0.7,0,1.6,0.2,2.5,0.7
		c1.9,0.9,3.2,1.4,4.2,1.9c1.6,0.5,3.5,0.9,5.6,0.9c0.5,0,0.7,0,0.7,0.2C755.6,241,755.3,241.2,755.3,241.4z M748.6,231l-1.9,1.9
		l-1.9-1.9l1.9-1.9L748.6,231z" class="area" title=""></path>
</g>
<g id="G_209" class="area" title="">
	<path id="PATH_210" d="M814.8,394.3c0.2,0.7,0.2,1.4,0.2,2.1c0,0.9-0.2,1.6-0.5,2.5c-0.7,1.6-1.9,3-4.2,3.9
		c-1.9,0.7-3.7,1.2-5.8,1.2s-3.7-0.5-5.1-1.4c-1.4-1.2-2.1-2.5-2.1-4.6c0-1.2,0.2-2.1,0.7-3.5c0.5-0.9,0.7-1.6,1.2-2.1
		c0.2-0.2,0.5-0.2,0.5-0.2c0.2,0,0.2,0,0.2,0.2c0,0,0,0.2,0,0.5c-0.7,1.4-0.9,2.8-0.9,3.9s0.5,2.1,1.2,3c0.9,1.2,2.5,1.6,4.6,1.6
		c2.3,0,4.4-0.5,6-1.2c1.4-0.7,2.3-1.4,2.8-2.3c0.2-0.2,0.2-0.7,0.2-0.9c0-0.7-0.2-1.4-0.5-2.3c-0.2-0.7-0.9-1.9-2.1-3.7l0.9-1.9
		c0.2-0.2,0.2-0.5,0.2-0.5s0.2,0,0.2,0.2C813.8,390.6,814.5,392.5,814.8,394.3z M808.1,384.1l-1.9,1.9l-1.9-1.9l1.9-1.9L808.1,384.1
		z" class="area" title=""></path>
	<path id="PATH_211" d="M820.5,391.8c0,0.9-0.2,1.9-0.7,2.5c-0.2,0.5-0.5,0.7-0.5,0.7s-0.2-0.2-0.2-0.9c0-2.8-0.5-9.3-1.4-19.7
		l1.9-1.9c0.2-0.2,0.2-0.2,0.2-0.2s0,0.2,0,0.5C820.3,376,820.5,382.3,820.5,391.8z" class="area" title=""></path>
	<path id="PATH_212" d="M832.1,394.8c0,2.3-0.7,4.4-2.1,6.5c-1.2,1.6-2.3,2.5-3,2.5c-1.9,0-3.2,0-4.6-0.2c-0.5,0-0.7-0.2-0.7-0.2
		s0.2-0.2,0.7-0.2c1.9-0.5,3.7-1.4,5.6-2.8c1.9-1.6,3-3.2,3-4.9c0-0.9-0.7-2.3-2.3-3.9l1.2-2.1c0-0.2,0.2-0.2,0.2-0.2l0.2,0.2
		c0.5,0.7,1.2,1.6,1.4,2.8C831.9,392.9,832.1,394.1,832.1,394.8z M830.5,382.3l-1.9,1.9l-1.9-1.9l1.9-1.9L830.5,382.3z" class="area" title=""></path>
	<path id="PATH_213" d="M844.1,393.6c0,3.5-1.2,6.5-3.5,8.8c-0.7,0.7-1.2,1.2-1.4,1.2c-1.4,0-2.8-0.2-4.4-0.5
		c-0.7,0-0.9-0.2-0.9-0.2s0.2-0.2,0.9-0.5c1.9-0.5,3.7-1.6,5.3-3c0.7-0.7,1.4-1.2,1.9-2.1c0.7-0.9,1.2-1.9,1.2-2.5v-0.7h-3
		c-2.1,0-3.2-0.9-3.2-2.5c0-1.2,0.2-2.3,0.9-3.7s1.6-2.3,2.5-2.3c1.4,0,2.5,0.9,3.2,3C843.9,390.4,844.1,391.8,844.1,393.6z
		 M842.5,391.8c0-0.7-0.2-1.4-0.7-2.1s-1.2-1.2-1.9-1.2c-0.5,0-0.9,0.2-1.2,0.5c-0.5,0.5-0.5,0.7-0.5,1.2c0,1.2,0.7,1.6,2.3,1.6
		C840.9,392,841.6,391.8,842.5,391.8z" class="area" title=""></path>
	<path id="PATH_214" d="M858.5,394.5h-0.9c-0.9,0-1.4-0.2-1.9-0.5c0,0.2,0,0.5,0,0.7c0,2.1-0.7,4.2-2.1,6.2c-1.2,1.9-2.3,2.5-3,2.5
		c-1.9,0-3.2,0-4.6-0.2c-0.5,0-0.7-0.2-0.7-0.2s0.2-0.2,0.7-0.2c1.9-0.5,3.7-1.4,5.6-2.8c1.9-1.6,3-3.2,3-4.9c0-0.9-0.7-2.3-2.3-3.9
		l1.2-2.1c0-0.2,0.2-0.2,0.2-0.2l0.2,0.2c0.7,0.9,1.2,1.6,1.6,1.9c0.7,0.5,1.6,0.9,2.5,0.9h0.7v2.5h-0.2V394.5z" class="area" title=""></path>
	<path id="PATH_215" d="M869.8,394.5H868c-2.1,0-3.5-0.7-4.4-2.1c-0.7,1.4-2.3,2.1-4.9,2.1h-1.4v-2.8h2.1c2.3,0,3.5-0.9,3.7-2.5
		c0-0.7,0.2-1.2,0.5-1.2s0.5,0.5,0.5,1.2c0.2,1.6,1.4,2.5,3.5,2.5h2.1v2.8H869.8z M862.2,399.6l-1.9,1.9l-1.9-1.9l1.9-1.9
		L862.2,399.6z M866.3,399.6l-1.9,1.9l-1.9-1.9l1.9-1.9L866.3,399.6z" class="area" title=""></path>
	<path id="PATH_216" d="M878.8,388.1v0.9c0,1.6-0.2,2.5-0.7,3.2c-1.2,1.6-3,2.3-6,2.3h-3.2v-2.8h2.3c3.9,0,6-0.7,6.5-1.9
		c0-0.2,0-0.2,0-0.5c0-0.5,0-0.7-0.2-0.9c-0.9,0.2-2.1,0.2-3,0.2c-2.1,0-3.2-0.9-3.2-2.8c0-1.2,0.2-2.5,0.9-3.7
		c0.7-1.4,1.6-2.1,2.8-2.1c0.9,0,1.9,0.7,2.5,1.9C878.4,383.9,878.8,385.7,878.8,388.1z M876.3,375.3l-1.9,1.9l-1.9-1.9l1.9-1.9
		L876.3,375.3z M877.2,386c0-0.7-0.2-1.4-0.7-2.1s-1.2-0.9-1.9-0.9c-0.5,0-0.9,0.2-1.4,0.5c-0.2,0.2-0.5,0.7-0.5,1.2
		c0,0.9,0.7,1.4,2.3,1.4C875.6,386.4,876.3,386.2,877.2,386z" class="area" title=""></path>
</g>
<g id="G_217" class="area" title="">
	<path id="PATH_218" d="M908.2,451.7c0,2.3-0.7,4.4-2.1,6.5c-1.2,1.6-2.3,2.5-3,2.5c-1.9,0-3.2,0-4.6-0.2c-0.5,0-0.7-0.2-0.7-0.2
		s0.2-0.2,0.7-0.2c1.9-0.5,3.7-1.4,5.6-2.8c1.9-1.6,3-3.2,3-4.9c0-0.9-0.7-2.3-2.3-3.9l1.2-2.1c0-0.2,0.2-0.2,0.2-0.2l0.2,0.2
		c0.5,0.7,1.2,1.6,1.4,2.8C908,449.8,908.2,450.7,908.2,451.7z" class="area" title=""></path>
	<path id="PATH_219" d="M922.8,451.4h-2.5c-0.2,3.2-1.4,5.8-3.7,8.1c-0.7,0.7-1.2,1.2-1.4,1.2c-1.2,0-2.8-0.2-4.4-0.5
		c-0.5,0-0.9-0.2-0.9-0.2s0.2-0.2,0.9-0.5c1.9-0.5,3.7-1.6,5.3-2.8c0.7-0.7,1.4-1.2,1.9-2.1c0.7-0.9,1.2-1.9,1.2-2.5v-0.7h-3
		c-2.3,0-3.2-0.9-3.2-2.8c0-1.2,0.2-2.3,0.9-3.7c0.7-1.4,1.6-2.3,2.5-2.3c1.2,0,2.1,0.7,2.8,2.3c0.5,1.2,0.9,2.3,0.9,3.7h2.5v2.8
		H922.8z M918.6,448.7c0-0.7-0.2-1.4-0.7-2.1c-0.5-0.9-1.2-1.2-1.9-1.2c-0.5,0-0.9,0.2-1.2,0.5c-0.5,0.5-0.5,0.7-0.5,1.4
		c0,1.2,0.9,1.6,2.8,1.6C917.2,448.9,917.9,448.7,918.6,448.7z" class="area" title=""></path>
	<path id="PATH_220" d="M928.3,446.8c0,3-1.6,4.6-4.6,4.6h-1.9v-2.8h1.6c2.3,0,3.5-0.5,3.5-1.2s-0.5-1.6-1.6-2.8l0.9-2.3
		c0-0.2,0.2-0.2,0.2-0.2s0.2,0.2,0.5,0.5C927.6,443.8,928.3,445.4,928.3,446.8z M927.4,456.5l-1.9,1.9l-1.9-1.9l1.9-1.9L927.4,456.5
		z" class="area" title=""></path>
	<path id="PATH_221" d="M937.3,451.4h-1.6c-1.6,0-3-0.7-3.5-2.1c-0.5-0.9-0.7-2.5-0.7-4.4v-4.4c0-2.1-0.2-5.1-0.5-9l1.4-1.6
		c0.2-0.2,0.5-0.2,0.5,0c0.2,2.1,0.5,5.1,0.5,9v6.7c0,1.9,0.9,2.8,2.8,2.8h1.2L937.3,451.4L937.3,451.4z" class="area" title=""></path>
	<path id="PATH_222" d="M958.6,451.4h-1.2c-1.6,0-2.5-0.7-3.2-1.9c-0.5,1.4-1.6,1.9-3,1.9s-2.3-0.7-3-1.9c-0.7,1.4-1.6,1.9-3,1.9
		c-1.6,0-2.8-0.7-3.5-1.9c-0.9,1.4-2.1,1.9-3.7,1.9h-1.6v-2.8h1.9c1.6,0,2.8-0.9,3-2.8c0-0.5,0.2-0.7,0.5-0.7s0.2,0.2,0.5,0.7
		c0.2,1.9,1.2,2.8,3,2.8c1.6,0,2.8-0.9,2.8-2.8c0-0.5,0.2-0.7,0.5-0.7c0.2,0,0.5,0.2,0.5,0.7c0.2,1.9,1.2,2.8,2.3,2.8
		c1.6,0,2.8-0.9,2.8-2.8c0-0.5,0.2-0.7,0.5-0.7c0.2,0,0.5,0.2,0.5,0.7c0.2,1.9,1.2,2.8,2.8,2.8h1.4v2.8H958.6z M948,439.9l-1.6,1.6
		l-1.6-1.6l1.6-1.6L948,439.9z M950.1,436.2l-1.6,1.6l-1.6-1.6l1.6-1.6L950.1,436.2z M952.1,439.9l-1.6,1.6l-1.6-1.6l1.6-1.6
		L952.1,439.9z" class="area" title=""></path>
	<path id="PATH_223" d="M969.9,451.4H968c-2.1,0-3.5-0.7-4.4-2.1c-0.7,1.4-2.3,2.1-4.9,2.1h-1.4v-2.8h2.1c2.3,0,3.5-0.9,3.7-2.5
		c0-0.7,0.2-1.2,0.5-1.2s0.5,0.5,0.5,1.2c0.2,1.6,1.4,2.5,3.5,2.5h2.1v2.8H969.9z M962.5,456.5l-1.9,1.9l-1.9-1.9l1.9-1.9
		L962.5,456.5z M966.5,456.5l-1.9,1.9l-1.9-1.9l1.9-1.9L966.5,456.5z" class="area" title=""></path>
	<path id="PATH_224" d="M975.5,446.8c0,3-1.6,4.6-4.6,4.6H969v-2.8h1.6c2.3,0,3.5-0.5,3.5-1.2s-0.5-1.6-1.6-2.8l0.9-2.3
		c0-0.2,0.2-0.2,0.2-0.2s0.2,0.2,0.5,0.5C975,443.8,975.5,445.4,975.5,446.8z M975.5,436.2l-1.9,1.9l-1.9-1.9l1.9-1.9L975.5,436.2z" class="area" title=""></path>
</g>
<path id="PATH_208_00000070088671983022954400000004157325474155157129_" class="st1 area" d="M1322.9,860.7" title=""></path>
<path id="PATH_209" class="st1 area" d="M1452.9,843.7" title=""></path>
<g id="G_210" class="area" title="">
	<path id="PATH_211_00000145774017529841088360000000857338357277302151_" d="M1268.8,763c-4.1-2.7-6-7.2-6-12.2l0,0
		c0-5,1.8-9.4,6-12.2l0.6,0.7c-2.8,2.4-4.4,6.8-4.4,11.5c0,4.8,1.6,9.2,4.4,11.6L1268.8,763z" class="area" title=""></path>
	<path id="PATH_212_00000145037893490657585370000008946675055923382661_" d="M1278.7,748.5l1.4,2.6c0.5,1,1,2,1,3.6v2.1
		c0,1.7-0.9,3.5-2.4,5.3c-1.2,1.2-2.2,1.7-3.1,1.7c-1.4,0-3-0.5-4.9-1.5l0.2-0.6c0.6,0.2,1.3,0.3,2.1,0.3c2.7,0,5.4-2.3,6.7-5.1
		c0.2-0.3,0.2-0.6,0.2-0.8c0-0.3-0.2-0.7-0.3-1c-0.7-1.5-1.4-2.9-2.3-4.2C1277.7,750.1,1278.2,749.3,1278.7,748.5L1278.7,748.5z
		 M1277,741.9c0.8,0.6,1.5,1.3,2.3,2c-0.4,0.7-0.9,1.3-1.6,1.9c-0.7-0.7-1.5-1.3-2.2-2C1275.9,743.2,1276.5,742.5,1277,741.9z" class="area" title=""></path>
	<path id="PATH_213_00000018946249414405198660000016643187413691019434_" d="M1290.5,751.8c1.1,2.6,2.1,4.1,4.3,4.1h0.3v2.4h-0.4
		c-0.8,0-1.4-0.2-1.9-0.6h-0.1c0,0.2,0,0.5,0,0.7c0,0.9-0.2,2-0.8,3c-1.5,2.6-3.1,3.8-4.6,3.8c-1.4,0-3.2-0.6-4.8-1.5l0.3-0.6
		c0.5,0.2,1.2,0.4,2.2,0.4c2.6,0,5.9-2.9,6.3-5.7c-0.1-0.2-0.3-0.5-0.5-0.9c-0.7-1-1.2-1.9-1.7-2.8c0.4-0.9,0.7-1.6,1-2.2
		L1290.5,751.8z" class="area" title=""></path>
	<path id="PATH_214_00000094594297067646654350000010485266576068861366_" d="M1296.2,755.9c3.1,0,6.2-1.1,10.2-3.4v-0.1
		c-2.2-0.8-4.2-1.3-6-1.3c-1.1,0-1.9,0.3-2.4,1l0.2,1l-0.6,1.7h-0.2l-0.9-2.5c0.2-2.1,1.8-3.4,4.1-3.4c1.3,0,3.3,0.5,6.2,1.7
		c0.9,0.4,2.1,0.6,3.3,0.6h1.5h0.1l-1,2c-1.6,0-2.7,0.3-3.3,0.7l-3.2,2.1c-2.6,1.7-5.3,2.6-8.2,2.6h-1c-1,0-1.3-0.8-1.3-1.3
		s0.3-1.2,1.3-1.2h1.2V755.9z M1301.7,742.1c0.8,0.6,1.5,1.3,2.3,2c-0.4,0.7-0.9,1.3-1.6,1.9c-0.7-0.7-1.5-1.3-2.2-2
		C1300.6,743.4,1301.2,742.7,1301.7,742.1z" class="area" title=""></path>
	<path id="PATH_215_00000025410282491284452090000014561077177003115962_" d="M1319.7,758.3h-0.2c-1.5,0-2.5-0.3-3.3-1.1
		c-1.2-1.2-1.2-2.5-1.2-5.3c0-3.6-0.2-7.4-0.5-11.4c0.6-0.7,1.2-1.3,1.8-1.8l0.1,0.1c0.3,4.2,0.3,9.1,0.3,13.8v1.1
		c0,1.2,0.7,1.8,1.4,2c0.5,0.2,1,0.2,1.2,0.2h0.3L1319.7,758.3L1319.7,758.3z" class="area" title=""></path>
	<path id="PATH_216_00000021092883217620705490000006756455881029351313_" d="M1320,755.9c1.6,0,2.9-0.1,3.8-0.4
		c0.7-0.2,1.1-0.5,1.1-0.8c0-0.9-0.9-2.8-1.9-4.7c0.5-0.8,0.9-1.5,1.4-2.2h0.1c0.9,1.5,1.9,3.9,1.9,5.8c0,1.4-0.6,2.5-1.3,3.5
		c-0.9,0.9-2.2,1.1-5.1,1.1h-0.2c-1,0-1.3-0.8-1.3-1.3s0.3-1.2,1.3-1.2h0.2V755.9z M1323.6,761.9c0.8,0.6,1.5,1.3,2.3,2
		c-0.4,0.7-0.9,1.3-1.6,1.9c-0.7-0.7-1.5-1.3-2.2-2C1322.6,763.2,1323.1,762.5,1323.6,761.9z" class="area" title=""></path>
	<path id="PATH_217" d="M1335.8,750.8c0,5-1.8,9.4-6,12.2l-0.6-0.6c2.9-2.4,4.4-6.8,4.4-11.6s-1.7-9.3-4.4-11.6l0.6-0.6
		C1333.9,741.4,1335.8,745.8,1335.8,750.8L1335.8,750.8z" class="area" title=""></path>
	<path id="PATH_218_00000021081919986126894680000013098619428987985328_" d="M1348.1,753.1c0.1,1.6,0.7,2.9,3.1,2.9
		c1.5,0,2.7-0.5,4.1-1.2c0.2-0.1,0.4-0.3,0.4-0.5c0-1-0.7-2.4-1.8-3.6c-1.1-1.2-2.5-2.2-3.9-2.9c-0.5-0.2-0.6-0.5-0.6-0.7
		c0-0.5,0.5-1.5,1-2.2h0.2c1.5,1,3.3,2.4,4.6,3.9c1.2,1.4,1.9,2.9,1.9,4.5c0,1.2-0.3,2.3-0.8,3.3c-1.7,1-3.5,1.8-5.3,1.8
		c-2.2,0-3.7-1.2-3.7-4c0-0.3,0-0.8,0.1-1.4h0.7V753.1z" class="area" title=""></path>
	<path id="PATH_219_00000025424414137498624340000013338449221216751765_" d="M1365.3,758.3h-0.2c-1.5,0-2.5-0.3-3.3-1.1
		c-1.2-1.2-1.2-2.5-1.2-5.3c0-3.6-0.2-7.4-0.5-11.4c0.6-0.7,1.2-1.3,1.8-1.8l0.1,0.1c0.3,4.2,0.3,9.1,0.3,13.8v1.1
		c0,1.2,0.7,1.8,1.4,2c0.5,0.2,1,0.2,1.2,0.2h0.3L1365.3,758.3L1365.3,758.3z" class="area" title=""></path>
	<path id="PATH_220_00000018931244710169789820000016819065471631525278_" d="M1365.8,755.9c1.5,0,3-0.6,3.3-1.7l0.6-2.1l1.3-1
		l0.1,0.1c-0.3,1-0.4,1.8-0.4,2.2c0,0.7,0.2,1.2,0.6,1.6c0.6,0.5,1.4,0.8,2.4,0.8h0.3v2.4h-0.4c-1.9,0-3.3-0.5-3.9-1.9h-0.1
		c-0.6,1.3-2.2,1.9-3.8,1.9h-0.4c-1,0-1.3-0.8-1.3-1.3s0.3-1.2,1.3-1.2h0.4V755.9z M1369.3,761.9c0.8,0.6,1.5,1.3,2.3,2
		c-0.4,0.7-0.9,1.3-1.6,1.9c-0.7-0.7-1.5-1.3-2.2-2C1368.2,763.2,1368.8,762.5,1369.3,761.9z" class="area" title=""></path>
	<path id="PATH_221_00000100360960991443192370000007783642150167619457_" d="M1374.3,755.9c1.6,0,2.9-0.1,3.8-0.4
		c0.7-0.2,1.1-0.5,1.1-0.8c0-0.9-0.9-2.8-1.9-4.7c0.5-0.8,0.9-1.5,1.4-2.2h0.1c0.9,1.5,1.9,3.9,1.9,5.8c0,1.4-0.6,2.5-1.3,3.5
		c-0.9,0.9-2.2,1.1-5.1,1.1h-0.2c-1,0-1.3-0.8-1.3-1.3s0.3-1.2,1.3-1.2h0.2V755.9z M1376.1,765.9c-0.8-0.7-1.5-1.4-2.2-2
		c0.5-0.7,1-1.3,1.5-1.8c0.8,0.6,1.4,1.2,2.2,2C1377,764.9,1376.7,765.4,1376.1,765.9z M1379.8,765.7c-0.8-0.7-1.5-1.4-2.2-2
		c0.5-0.7,1-1.3,1.5-1.8c0.8,0.6,1.4,1.2,2.2,2C1380.7,764.7,1380.3,765.2,1379.8,765.7z" class="area" title=""></path>
	<path id="PATH_222_00000166654562644744186790000011513800155819031958_" d="M1389.2,758.3h-0.2c-1.5,0-2.5-0.3-3.3-1.1
		c-1.2-1.2-1.2-2.5-1.2-5.3c0-3.6-0.2-7.4-0.5-11.4c0.6-0.7,1.2-1.3,1.8-1.8l0.1,0.1c0.3,4.2,0.3,9.1,0.3,13.8v1.1
		c0,1.2,0.7,1.8,1.4,2c0.5,0.2,1,0.2,1.2,0.2h0.3L1389.2,758.3L1389.2,758.3z" class="area" title=""></path>
	<path id="PATH_223_00000126283849738557349930000000094320040964836263_" d="M1389.5,755.9c1.6,0,2.9-0.1,3.8-0.4
		c0.7-0.2,1.1-0.5,1.1-0.8c0-0.9-0.9-2.8-1.9-4.7c0.5-0.8,0.9-1.5,1.4-2.2h0.1c0.9,1.5,1.9,3.9,1.9,5.8c0,1.4-0.6,2.5-1.3,3.5
		c-0.9,0.9-2.2,1.1-5.1,1.1h-0.2c-1,0-1.3-0.8-1.3-1.3s0.3-1.2,1.3-1.2h0.2V755.9z M1390.9,746.2c-0.8-0.7-1.5-1.4-2.2-2
		c0.5-0.7,1-1.3,1.5-1.8c0.8,0.6,1.4,1.2,2.2,2C1391.8,745.2,1391.4,745.7,1390.9,746.2z M1394.6,745.9c-0.8-0.7-1.5-1.4-2.2-2
		c0.5-0.7,1-1.3,1.5-1.8c0.8,0.6,1.4,1.2,2.2,2C1395.5,745,1395.1,745.4,1394.6,745.9z" class="area" title=""></path>
</g>
<path id="_x35_61" class="st1 area" d="M972,392.2l8.5-12.7l24.9-11.6
	c5.4-2.9,10.8-5.8,16.1-8.7c-0.7-6-1.4-12-2-18c-2.6-2.3-5.2-4.5-7.8-6.8c8.7-7.4,17.4-14.8,26.2-22.2c1.7-8.4,3.4-16.8,5.1-25.2
	c-4.4-7.5-8.8-15.1-13.2-22.6l-23.2,4.5l-20.4,22l-15.1,24.3l-10.5,25.4l-7.3,16.4l-5,15.3l7.1,10.6l11,7.2L972,392.2z" title=""></path>
<g id="G_225" class="area" title="">
	<path id="PATH_226" d="M967.3,344.2l1.1,2c0.4,0.8,0.8,1.6,0.8,2.9v1.7c0,1.3-0.7,2.8-1.9,4.2c-0.9,1-1.7,1.4-2.5,1.4
		c-1.1,0-2.4-0.4-3.9-1.2l0.2-0.5c0.5,0.2,1,0.3,1.7,0.3c2.1,0,4.3-1.8,5.3-4.1c0.1-0.3,0.2-0.5,0.2-0.7c0-0.3-0.1-0.5-0.2-0.8
		c-0.5-1.2-1.2-2.3-1.8-3.3C966.5,345.4,966.8,344.8,967.3,344.2L967.3,344.2z" class="area active" title=""></path>
	<path id="PATH_227" d="M975.8,352h-0.2c-1.2,0-2-0.2-2.6-0.9c-0.9-0.9-0.9-2-0.9-4.2c0-2.9-0.2-5.9-0.4-9.1c0.5-0.6,1-1.1,1.4-1.4
		l0.1,0.1c0.2,3.3,0.2,7.2,0.2,11v0.9c0,1,0.5,1.4,1.1,1.6c0.4,0.1,0.8,0.2,1,0.2h0.2v1.8H975.8z" class="area" title=""></path>
	<path id="PATH_228" d="M977.5,350c0.2-1.1,0.5-2.1,0.8-3.2c0.4-1.4,1-2.7,1.7-3.9h0.1c0.1,0.3,0.3,0.6,0.6,0.9c1.1,1.6,2,3,2,4.3
		c0,0.7-0.1,1.3-0.3,2h3v1.9H985c-0.3,0-0.9,0-1.3-0.2h-0.1c0.4,0.7,0.6,1.4,0.6,2c0,0.7-0.2,1.3-0.5,1.8c-0.4,0.7-1.3,1.4-2.3,1.4
		c-0.7,0-1.5-0.2-2.1-0.6c-1.3-0.8-2.1-2.4-2.1-3.9v-0.7c-0.3,0-0.8,0.1-1.2,0.1h-0.3c-0.8,0-1.1-0.6-1.1-1s0.2-0.9,1.1-0.9
		L977.5,350L977.5,350z M979.1,354c0.8,0.9,1.9,1.5,2.9,1.5c0.6,0,0.9-0.3,0.9-0.7s-0.1-1.1-0.6-1.8c-0.5-0.7-1.2-1.2-2.4-1.2
		c-0.6,0-1.1,0-1.7,0.1C978.2,352.6,978.6,353.5,979.1,354z M980.7,349.8c0.7-0.2,1-0.5,1-0.8c0-1-0.9-2.3-1.9-3.6h-0.1
		c-0.5,1.5-1,3-1.4,4.6C979.2,350,980,350,980.7,349.8z" class="area" title=""></path>
	<path id="PATH_229" d="M985.7,350c1.2,0,2.4-0.5,2.6-1.3l0.4-1.6l1-0.8l0.1,0.1c-0.2,0.8-0.3,1.4-0.3,1.8c0,0.5,0.1,1,0.5,1.3
		c0.5,0.4,1.1,0.6,1.9,0.6h0.3v1.9h-0.3c-1.5,0-2.6-0.4-3.1-1.5h-0.1c-0.5,1-1.7,1.5-3,1.5h-0.3c-0.8,0-1.1-0.6-1.1-1
		s0.2-0.9,1.1-0.9h0.3V350z M988.5,354.8c0.6,0.5,1.2,1,1.8,1.6c-0.3,0.5-0.7,1-1.3,1.5c-0.6-0.6-1.2-1-1.8-1.6
		C987.7,355.8,988.1,355.3,988.5,354.8z" class="area" title=""></path>
	<path id="PATH_230" d="M992.5,350c0.6,0,1.3-0.2,1.8-0.5s0.7-0.7,0.7-1.8c0-3-0.2-5.8-0.4-9.2v-0.8l1.3-1.4h0.1
		c0.3,3.6,0.3,7.3,0.3,11.9c0,0.7,0.5,1.7,2.2,1.7h0.2v1.9h-0.3c-1.4,0-2.5-0.5-3-1.6h-0.1c-0.5,0.9-1.5,1.6-2.9,1.6h-0.3
		c-0.8,0-1.1-0.6-1.1-1s0.2-0.9,1.1-0.9L992.5,350L992.5,350z" class="area" title=""></path>
	<path id="PATH_231" d="M1008.1,336.3c-0.3,0.6-0.7,1.2-1.1,1.9c-0.8,0.2-1.6,0.5-2.4,0.7c-1.6,0.6-3.3,1.2-5,2v0.1l2.5,0.7
		l-0.4,0.7c2.5,1.8,3.9,3.4,3.9,5c0,1.4-0.4,2.5-1,3.1c-1,0.8-2.5,1.4-5.3,1.4h-0.6c-0.8,0-1.1-0.6-1.1-1s0.2-0.9,1.1-0.9h1
		c1.6,0,3-0.2,4-0.8c0.5-0.3,0.8-0.6,0.8-0.8c0-0.7-0.5-1.6-1.2-2.3c-0.8-0.9-2.3-2.1-4.6-3.7c-0.3-0.2-0.4-0.8-0.4-1.3
		c0-0.3,0.2-0.6,0.3-1c0.1-0.3,0.5-0.5,1.1-0.9C1001.6,338.4,1004.5,337.4,1008.1,336.3L1008.1,336.3z M999.1,338.3
		c0.1-0.3,0.2-0.6,0.4-1c2-1,4.6-1.9,7.9-2.9l0,0l-0.5,0.9C1003.6,336.4,1001.1,337.3,999.1,338.3L999.1,338.3z" class="area" title=""></path>
</g>
<path class="st2 area" d="M987.1,508.5" id="PATH_232" title=""></path>
</svg>
