<!--?xml version="1.0" encoding="utf-8"?-->
<!-- Generator: Adobe Illustrator 27.4.1, SVG Export Plug-In . SVG Version: 6.00 Build 0)  -->
<svg version="1.1" id="Layer_1" xmlns="http://www.w3.org/2000/svg" xmlns:xlink="http://www.w3.org/1999/xlink" x="0px" y="0px" viewBox="0 0 1920 1080" style="enable-background:new 0 0 1920 1080;" xml:space="preserve" width="100%" height="100%">
<style type="text/css">
	.st0{fill:#FDFAD4;stroke:#010101;stroke-width:0.518;stroke-miterlimit:25.8993;}
	.st1{fill:#E8D0E5;stroke:#010101;stroke-width:0.518;stroke-miterlimit:25.8993;}
	.st2{fill:#FBD0D1;stroke:#010101;stroke-width:0.518;stroke-miterlimit:25.8993;}
	.st3{fill:#DBECCB;stroke:#010101;stroke-width:0.518;stroke-miterlimit:25.8993;}
	.st4{fill:none;stroke:#020202;stroke-width:1.295;stroke-miterlimit:25.8993;}
</style>
<path id="_x34_14" class="st0 area" d="M970.5,574.2c-13.2-43-66.3-56.2-86.2-96.1c-16.6-36.5,13.2-76.1,0-112.7
	c-13.2-26.4-39.9-9.8-59.6-3.4c-49.7,9.8-49.7-49.7-39.9-89.4c-16.6,0-39.6-19.9-33.2-29.8c16.6-33.2,29.8-66.3,39.9-99.5
	c7.5-17.6,33.9-23.8,56.5-34.2c1-6.7,6.5-13.5,10.1-17.9l1-1.3c3.4-4.1,12.4-8.5,20.7-12.2c4.4-2.1,8.3-3.9,10.1-5.2
	c0.3-0.3,0.5-0.5,0.5-1.3c0.3-3.4-3.9-10.1-9.3-15.5c-6-6-18.1-14.2-24.6-17.6c-2.1-1-4.4-1.8-6.7-2.6c-6.2-2.3-13.5-4.7-18.1-11.4
	c-3.4-4.7-21.2-5.7-53.4-2.6h-1c-9.3,0.8-27.7,10.4-38.6,16.1c-4.1,2.1-7.3,3.6-8.8,4.4c-5.4,2.1-16.8,14.8-17.9,19.9
	c-1.6,7.5-23.8,27.7-31.1,32.9c-7.5,5.2-22.8,16.3-44,13.7c-17.4-2.6-38.8-2.6-42.7-2.6c-3.9,4.9-7,8.5-8.5,10.1
	c-3.1,3.1-33.2,57.5-51.3,90.9l-0.8,1.3l-85.7,1.6l2.3,165.5l-0.5,0.8c0,0.3-9.6,13.2-14.5,20.5c-1,1.6-2.1,2.8-3.1,3.9l35.7,51
	c1.6,2.6,12.4,23.8,13.7,31.1c0.8,4.7,16.6,30,26.9,45.3c6.5,1.8,46.9,12.9,55.4,14.2c10.9,1.3,29.5,19.4,34.2,26.4
	c1,1.8,3.1,5.2,6,9.8c9.1,15.3,25.9,44,35.7,52.3c13.5,11.1,34.4,47.9,35.2,49.7l1,1.8l-1.8,1.3c0,0-4.9,3.6-6,10.9
	c-0.8,4.7-1,12.9-1.3,19.2c10.1-0.5,24.9-2.1,28.2-3.9c6.7-3.4,27.7,0.3,35.2,2.6l3.6,1.3c79.3,26.2,121.2,40.9,124.8,43.5
	c2.8,2.1,25.1,9.8,41.7,15.5c0.8,0.3,1.6,0.5,2.3,0.8c1.6-1.3,2.8-2.6,4.4-4.1C953.9,720,990.4,647,970.5,574.2z" title=""></path>
<path id="_x34_16" class="st1 area" d="M891,345.5c9.8-19.9-16.6-33.2-26.4-46.4c-6.7-13.2,13.2-29.8,6.7-43
	c-6.7-6.7-13.2-13.2-13.2-16.6c-13.2-26.4,16.6-33.2,33.2-46.4c2.3-2.3,1.3-8,0.5-13.5c-0.5,0-1.3-0.3-1.8-0.3l-1.6-0.3l-0.5-1.6
	c0,0-2.3-8.3-7-15l-2.6-4.1c-6.7-10.4-21.2-31.9-27.2-39.1c-2.8-3.4-3.4-6.7-2.8-10.4c-22.5,10.6-48.9,16.8-56.5,34.2
	c-9.8,33.2-23.3,66.3-39.9,99.5c-6.7,9.8,16.6,29.8,33.2,29.8c-9.8,39.9-9.8,99.5,39.9,89.4c18.6-6.2,43-21.2,57-1
	C886.3,356.6,889.2,351.2,891,345.5z" title=""></path>
<path id="_x34_18" class="st2 area" d="M944.1,388.7c3.4-6.7,3.4-19.9,6.7-29.8c0-3.4,13.2-6.7,13.2-9.8c13.2-19.9,3.4-53.1,16.6-66.3
	c9.8-9.8,36.5-3.4,49.7-23.3c-9.8,0-26.4,16.6-26.4,0c0-8.5,16.8-12.2,23.8-25.4c-3.1-2.6-5.4-4.7-6.5-6
	c-4.9-4.9-19.7-25.9-23.6-35.7c-0.5-1.3-1.3-2.1-2.6-2.6c-3.6-1.3-9.8,1-12.7,2.3c-1.8,2.8-8.8,12.7-24.9,11.4
	c-17.4-1.3-20.5-2.6-27.2-11.9c-3.9-5.2-24.9-10.1-38.6-11.9c0.8,5.4,1.8,11.1-0.5,13.5c-16.6,13.2-46.4,19.9-33.2,46.4
	c0,3.4,6.7,9.8,13.2,16.6c6.7,13.2-13.2,29.8-6.7,43c9.8,13.2,36.5,26.4,26.4,46.4c-1.8,5.4-4.7,11.1-9.3,15.3
	c1,1.3,1.8,2.8,2.6,4.4c4.7,12.7,4.1,25.6,2.1,38.6C905.2,410,928,402.5,944.1,388.7z" title=""></path>
<path id="_x32_52" class="st3 area" d="M1000.3,471.4c3.4-6.7,9.8-13.2,13.2-16.6c26.4-9.8,59.6-6.7,76.1-26.4
	c33.2-29.8-39.9-46.4-29.8-82.9c0-3.4,13.2-9.8,19.9-16.6c6.7-16.6-19.9-19.9-19.9-26.4c0-17.9,6-35.5-1.8-50.5
	c-0.3,1.3-0.5,2.1-0.5,2.3l-0.3,4.7l-3.6-3.1c-0.8-0.8-16.6-13.7-26.2-22c-7,13.2-23.8,16.8-23.8,25.4c0,16.6,16.6,0,26.4,0
	c-13.2,19.9-39.6,13.2-49.7,23.3c-13.2,13.2-3.4,46.4-16.6,66.3c0,3.4-13.2,6.7-13.2,9.8c-3.4,9.8-3.4,23.3-6.7,29.8
	c-16.1,13.7-38.6,21.2-57.8,15.5c-3.9,24.9-12.9,50-2.1,73.8c18.9,37.6,67.1,51.5,83.7,89.4C1000.8,548,981.6,502.4,1000.3,471.4z" title=""></path>
<path id="_x34_21" class="st1 area active" d="M1109.6,454.8c19.9,6.7,16.6-19.9,29.8-26.4c13.2-3.4,26.4,13.2,39.9,6.7
	c16.6-13.2,33.2-33.2,39.9-49.7c3.4-19.9-23.3-33.2-13.2-53.1c6.7-6.7,19.9-13.2,23.3-6.7c19.9,23.3,39.9,46.4,66.3,33.2
	c36.5-16.6-13.2-43-19.9-69.7c6.7,3.4,16.6-3.4,19.9-3.4c4.4-6.5,8.8-16.1,6.5-23.6c-17.6-0.8-59.1-0.8-59.6-0.8h-1.6l-0.8-1.3
	c0,0-7.3-12.9-16.3-21c-6.2-5.4-6.7-5.2-10.1-4.7c-1.6,0.3-3.6,0.5-6.5,0.5c-4.9,0-22.5,0.5-39.4,1.3c-16.1,0.5-31.3,1-35.2,1
	c-3.4,0-10.6,0.5-18.9,0.8c-12.4,0.8-28,1.6-38.8,1.6c-11.9,0-15.3,8.3-16.3,12.2c7.8,14.8,1.8,32.6,1.8,50.5
	c0,6.7,26.4,9.8,19.9,26.4c-6.7,6.7-19.9,13.2-19.9,16.6c-9.8,36.5,62.9,53.1,29.8,82.9c-1.8,2.3-3.9,4.1-6.2,5.7
	C1091.4,442.6,1099.7,449.9,1109.6,454.8z" title=""></path>
<path id="_x32_48" class="st2 area" d="M1109.6,839.1c0-6.7-3.4-16.6,3.4-23.3c6.7-3.4,13.2,3.4,19.9,0c0-3.4,0-9.8,0-13.2
	c13.2-16.6,29.8-13.2,23.3-36.5c3.4,0,9.8-3.4,13.2-3.4c9.8-9.8-9.8-26.4,0-33.2c9.8-9.8,0-19.9,6.7-29.8
	c13.2,9.8,29.8,6.7,23.3-9.8c-6.7-29.8-36.5-53.1-19.9-79.5c6.7-13.2,16.6-29.8,13.2-43c-9.8-19.9-33.2-13.2-53.1-19.9
	c-13.2-6.7-3.4-23.3,6.7-29.8c0-3.4-9.8-6.7-13.2-6.7c-6.7-9.8-3.4-26.4-16.6-29.8c-6.7-3.4-13.2,6.7-19.9,3.4
	c-16.1-10.1-24.9-28.5-37.3-40.1c-14.5,3.4-31.1,4.9-45.6,10.4c-3.4,3.4-9.8,9.8-13.2,16.6c-18.6,31.1,0.5,76.7-32.4,95.8
	c1,2.3,1.8,4.4,2.6,6.7c19.9,72.8-16.6,145.8-62.9,195.5c-1.3,1.3-2.8,2.8-4.4,4.1c15.8,5.4,24.9,8.8,26.7,9.8c1,0.5,4.7,2.8,9.6,6
	c22.5,13.5,46.9,28.2,52.1,33.4c1.6,1.6,5.4,5.4,10.9,10.6c11.7,11.1,28.5,27.7,42.2,41.4c1.8-0.8,3.6-1.6,5.4-2.6
	C1069.9,859.1,1083.2,835.8,1109.6,839.1z" title=""></path>
<path id="_x33_77" class="st0 area" d="M1212.4,561c19.9-19.9,6.7-46.4,39.9-53.1c-6.7-6.7-6.7-9.8-6.7-19.9c0-10.1-23.3-9.8-26.4-26.4
	c3.4,0,6.7,0,9.8,0c-3.4-6.7-6.7-13.2-3.4-19.9c6.7-9.8,19.9-6.7,29.8-13.2c3.1-1,4.1-2.8,4.4-4.9c-14.2-13.2-21.5-34.2-37.6-44.8
	c-1-0.8-2.3-1.6-3.6-2.3c0.8,2.8,1,5.7,0.3,8.8c-6.7,16.6-23.3,36.5-39.9,49.7c-13.2,6.7-26.4-9.8-39.9-6.7
	c-13.2,6.7-9.8,33.2-29.8,26.4c-9.8-4.9-18.1-12.4-26.2-20.7c-6.7,5.2-15.3,8-24.6,10.4c12.4,11.7,21.2,30,37.3,40.1
	c6.7,3.4,13.2-6.7,19.9-3.4c13.2,3.4,9.8,19.9,16.6,29.8c3.4,0,13.2,3.4,13.2,6.7c-9.8,6.7-19.9,23.3-6.7,29.8
	c19.9,6.7,43,0,53.1,19.9c0.5,1.6,0.5,3.4,0.8,4.9C1201,571.1,1207.7,566.9,1212.4,561z" title=""></path>
<path id="_x39_95" class="st2 area" d="M1295.3,557.6c13.2,6.7,26.4,0,39.9,6.7c9.8,6.7,6.7,26.4,16.6,26.4c35.7,8.3,62.4-22.3,93.2-23.3
	l-15.3-50.8l-2.6-14.5l-0.3-18.1l1-3.1l2.8-3.9c-11.4-0.8-23.6-7.5-35.7-5.4c-6.7,0-13.2,6.7-19.9,3.4c-6.7-6.7-6.7-19.9,3.4-26.4
	c-19.9-26.4-49.7-26.4-79.5-16.6c-6.7,0-19.9,3.4-26.4,0c-4.7-2.1-8.8-4.9-12.2-8.3c0,2.1-1.3,3.9-4.4,4.9
	c-9.8,6.7-23.3,3.4-29.8,13.2c-3.4,6.7,0,13.2,3.4,19.9c-3.4,0-6.7,0-9.8,0c3.4,16.6,26.4,16.6,26.4,26.4c0,6.5,0,10.1,1.8,13.5
	C1265.7,517.5,1274.5,544.7,1295.3,557.6z" title=""></path>
<path id="_x36_43" class="st1 area" d="M1186,647c36.5,13.2,59.6,6.7,96.1,3.4c16.6,0,29.8,16.6,46.4,29.8c6.7,9.8,16.6-6.7,26.4-9.8
	c23.3-9.8,19.9,26.4,26.4,33.2c28.7,17.1,67.3-10.1,96.3,5.7l0.5-3.4l0.3-18.6l-15-56.2l-18.9-63.5c-30.8,1-57.5,31.6-93.2,23.3
	c-9.8,0-6.7-19.9-16.6-26.4c-13.2-6.7-26.4,0-39.9-6.7c-20.7-12.9-29.3-39.9-47.9-55.9c1,2.1,2.6,3.9,4.9,6.2
	c-33.2,6.7-19.9,33.2-39.9,53.1c-4.7,6.2-11.4,10.1-19.2,11.7c0.3,12.2-8,26.4-14,38.1c-7.8,12.4-5.4,24.1,0,36
	C1181.6,646.2,1183.9,646.4,1186,647z" title=""></path>
<path id="_x34_43" class="st3 area" d="M1474.5,728l1-3.9l2.1-15c-29.3-15.8-67.9,11.4-96.3-5.7c-6.7-6.7-3.4-43-26.4-33.2
	c-9.8,3.4-19.9,19.9-26.4,9.8c-16.6-13.2-29.8-29.8-46.4-29.8c-36.5,3.4-59.6,9.8-96.1-3.4c-2.1-0.8-4.1-0.8-6.5-0.5
	c6.2,13.7,16.3,27.7,19.7,43.5c6.7,16.6-9.8,19.9-23.3,9.8c-6.7,9.8,3.4,19.9-6.7,29.8c-9.8,6.7,9.8,23.3,0,33.2
	c-3.4,0-9.8,3.4-13.2,3.4c6.7,23.3-9.8,19.9-23.3,36.5c0,3.4,0,9.8,0,13.2c-6.7,3.4-13.2-3.4-19.9,0c-6.7,6.7-3.4,16.6-3.4,23.3
	c-26.4-3.4-39.9,19.9-59.6,33.2c-1.8,0.8-3.6,1.8-5.4,2.6c11.1,11.1,20.2,20.5,22.3,23.6c5.7,8.3,23.3,27.2,39.1,32.4
	c15.5,5.2,21,14,23.8,18.9c0.3,0.5,0.8,1,1,1.6c1.3,1.8,2.6,4.7,3.9,8c2.1,4.7,4.7,10.4,6.7,12.4c1.8,1.8,9.1,12.2,21,29
	c11.7,16.8,27.7,39.6,30,41.7c3.9,2.6,17.1,16.8,21.5,21.2l88.8-36.3c0.5-4.7,2.6-20.2,2.6-24.6v-1.3c0-3.4-0.3-8,3.1-11.1
	c2.6-2.6,6.5-3.9,11.9-3.9c14.8,0,34.2-3.1,37.6-5.2c5.7-3.9,15-12.2,12.9-19.4c-1-3.6-6-22.8,0.3-33.2c2.1-3.4,4.9-5.4,8.8-6.2
	c6-1.3,16.8-4.4,27.2-7.5c17.1-4.9,27.7-8,31.6-8c6,0,17.9-4.9,24.6-11.7c6.5-6.5,19.9-31.9,20.5-32.6l0,0l-6.7-2.6l-2.3-21.5
	l-2.6-10.9l-0.8-5.4l2.6-17.1l-2.6-21l-0.8-11.1l1.6-14.2l-0.3-4.9l-1-2.3l-1-2.3l-0.3-2.3l1.6-4.9l-1-1.3l-1.6-1l-0.8-1.3l1.3-3.6
	L1474.5,728z" title=""></path>
<path id="_x33_10" class="st3 area" d="M1494.4,394.4l-3.4-3.1l-3.1-1.6l-6.2-1.6l-7.8-0.8l-14.2,1l-15.3-1.3l-15.5-6.2l-12.2-11.7
	l-4.9-16.6l1.6-7.5l6-13.2l0.3-8.8l-5.4-35.2l-2.1-18.4c-0.5,0.5-1,0.8-1.8,0.8h-33.7c-1.8,0.3-9.1,8.3-14.8,18.1
	c-4.1,7.3-9.8,11.1-16.3,11.1c-2.3,0-4.9-0.5-7.5-1.6c-7.8-3.4-8.8-14-9.3-20.5c-0.3-1.6-0.3-3.4-0.5-3.9c-0.8-2.3-11.7-9.3-21-10.4
	c-1.3-0.3-3.6-0.3-6.2-0.5c2.3,7.5-2.1,17.1-6.5,23.6c-3.4,0-13.2,6.7-19.9,3.4c6.7,26.4,56.2,53.1,19.9,69.7
	c-26.4,13.2-46.4-9.8-66.3-33.2c-3.4-6.7-16.6,0-23.3,6.7c-8.3,16.8,9.1,28.7,12.9,44c1.3,0.8,2.6,1.6,3.6,2.3
	c19.9,13.2,26.4,43,49.7,53.1c6.7,3.4,19.9,0,26.4,0c29.8-9.8,59.6-9.8,79.5,16.6c-9.8,6.7-9.8,19.9-3.4,26.4
	c6.7,3.4,13.2-3.4,19.9-3.4c12.2-2.1,24.3,4.7,35.7,5.4l33.9-45.6l5.7-4.9l6.7-3.9l2.1-2.6l1-4.4l-0.3-3.9l-0.5-3.9l0.3-3.4l3.6-2.1
	l9.3-0.8l2.6-1l1.6-2.8L1494.4,394.4z" title=""></path>
<line id="LINE_14" class="st4 area" x1="822.1" y1="193.5" x2="893.3" y2="137.3" title=""></line>
<g id="G_15" class="area" title="">
	<path id="PATH_16" d="M691.3,457.6H690c-1.8,0-2.8-0.8-3.6-2.1c-0.5,1.6-1.8,2.3-3.4,2.3s-2.6-0.8-3.4-2.3
		c-0.8,1.6-2.1,2.3-3.6,2.3c-0.5,0-1.3,0-1.8-0.3c0,1.6-0.3,3.1-0.3,4.9c-0.8,1.8-2.1,3.4-4.4,4.4c-2.1,0.8-4.1,1.3-6.5,1.3
		s-4.1-0.5-5.7-1.6c-1.6-1.3-2.3-2.8-2.3-5.2c0-1.3,0.3-2.3,0.8-3.9c0.5-1,0.8-1.8,1.3-2.3c0.3-0.3,0.5-0.3,0.5-0.3
		c0.3,0,0.3,0,0.3,0.3c0,0,0,0.3,0,0.5c-0.8,1.6-1,3.1-1,4.4c0,1.3,0.5,2.3,1.3,3.4c1,1.3,2.8,1.8,5.2,1.8c2.6,0,4.9-0.5,6.7-1.3
		c1.6-0.8,2.6-1.6,2.8-2.6c0.3-0.3,0.3-0.8,0-1.8c0-0.8-0.3-1.6-0.3-1.8c-0.3-0.8-1-2.1-2.6-3.9l1-2.1c0.3-0.3,0.3-0.5,0.3-0.5
		s0.3,0,0.3,0.5c0.8,1,1.3,1.8,1.6,2.1c0.8,0.8,1.6,1,2.6,1c1,0,2.1-0.3,2.6-1c0.3-0.5,0.5-1,0.8-2.3c0-0.5,0.3-0.8,0.5-0.8
		s0.3,0.3,0.5,0.8c0.3,2.1,1.3,3.4,2.8,3.4c1.8,0,3.1-1,3.1-3.1c0-0.5,0.3-0.8,0.5-0.8s0.5,0.3,0.5,0.8c0.3,2.1,1.3,3.1,3.1,3.1h1.6
		v2.6H691.3z" class="area" title=""></path>
	<path id="PATH_17" d="M704,457.6h-2.1c-2.3,0-3.9-0.8-4.9-2.3c-0.8,1.6-2.6,2.3-5.4,2.3H690v-3.1h2.3c2.6,0,3.9-1,4.1-2.8
		c0-0.8,0.3-1.3,0.5-1.3s0.5,0.5,0.5,1.3c0.3,1.8,1.6,2.8,3.9,2.8h2.3v3.1H704z M698.3,463.3l-2.1,2.1l-2.1-2.1l2.1-2.1L698.3,463.3
		z" class="area" title=""></path>
	<path id="PATH_18" d="M723.7,450.6c0,2.8-1.6,4.9-4.7,6c-2.3,0.8-6,1-10.9,1h-5.2v-3.1h2.6c0.8,0,1.3-0.3,1.6-0.5
		c0.3-0.3,0.3-0.8,0.3-1.6c0-1,0-3.1,0-5.7c-0.3-4.1-0.5-8-1-11.4l1.8-1.8c0.3-0.3,0.3-0.3,0.3-0.3s0.3,0.3,0.3,0.5
		c0.3,1,0.5,2.1,1,3.1c0,0.3,0.3,0.5,0.3,0.5s-0.3,0-0.5,0h-0.8c0.3,4.7,0.3,7.5,0.3,8.3v2.8c0,1-0.3,2.6-0.8,4.4
		c0.3,0,0.8-0.5,2.1-1.6c1.3-1.3,2.6-2.3,3.6-3.1c1.8-1,3.4-1.6,4.9-1.6c1.3,0,2.3,0.3,3.1,1C723.2,448.3,723.7,449.4,723.7,450.6z
		 M721.9,452.2c0-0.8-0.5-1.6-1.6-2.1c-0.8-0.5-1.8-0.8-2.6-0.8c-1.8,0-4.9,1.8-8.8,5.2c1,0,2.3,0.3,3.4,0.3c1.6,0,3.4-0.3,5.2-0.5
		C720.6,453.8,721.9,453,721.9,452.2z" class="area" title=""></path>
</g>
<g id="G_19" class="area" title="">
	<path id="PATH_20" d="M1032.6,676h-1.6c-1.6,0-3.4-0.5-5.2-1.6c-0.8,0.3-1.6,0.5-2.1,0.8c-2.6,0.8-5.7,1.3-9.6,1.3
		c-2.6,0-4.7-0.3-6-0.8c-2.1-0.8-3.1-2.3-3.1-4.4c0-1.8,0.5-3.4,1.3-4.7c0.3-0.3,0.3-0.5,0.5-0.5s0.3,0,0.3,0.3c0,0,0,0.3,0,0.5
		c-0.5,1-0.5,1.8-0.5,2.6c0,1.8,1,3.1,3.4,3.6c1,0.3,3.1,0.5,5.7,0.5c2.1,0,3.9,0,4.9-0.3c0.8,0,1.6-0.3,2.3-0.5
		c-0.8-0.8-1.3-1.8-1.3-3.4c0-1.3,0.5-2.6,1.3-3.9c1-1.6,2.1-2.1,3.1-2.3c1.3,0,2.1,0.5,2.8,1.8c0.5,1,0.8,2.1,0.8,3.6
		s-0.5,2.8-1.6,3.6c0.5,0.3,1.8,0.5,3.4,0.5h1V676L1032.6,676z M1026.9,656.5l-2.1,2.1l-2.1-2.1l2.1-2.1L1026.9,656.5z
		 M1028.5,669.2c0-0.5-0.3-1.3-0.8-1.8c-0.5-0.5-1-1-1.6-1c-0.5,0-1,0.3-1.8,1c-0.8,0.8-1,1.3-1,1.8c0,1,1,2.1,2.8,2.8
		C1027.7,671.1,1028.5,670.3,1028.5,669.2z" class="area" title=""></path>
	<path id="PATH_21" d="M1053.1,670.5c0,1.6-0.3,2.8-1,3.9c-0.8,1-2.1,1.8-3.4,1.8c-1.8,0-2.8-0.8-3.6-2.1c-1,1.6-2.1,2.1-3.6,2.1
		c-1.8,0-3.1-0.8-3.9-2.1c-1,1.6-2.3,2.1-4.1,2.1h-1.8v-3.1h2.1c1.8,0,3.1-1,3.4-3.1c0-0.5,0.3-0.8,0.5-0.8c0.3,0,0.3,0.3,0.5,0.8
		c0.3,2.1,1.3,3.1,3.4,3.1c1,0,2.1-0.3,2.6-0.8c0.3-0.5,0.5-1,0.8-2.1c0-0.5,0.3-0.8,0.5-0.8c0.3,0,0.3,0.3,0.5,0.8
		c0.3,2.1,1.3,3.1,3.1,3.1c2.1,0,2.8-0.5,2.8-1.3c0-0.8-0.5-1.8-1.6-2.8l1.3-2.3c0.3-0.3,0.3-0.5,0.5-0.5c0.3,0,0.3,0.3,0.5,0.5
		C1052.6,667.9,1053.1,669.2,1053.1,670.5z" class="area" title=""></path>
	<path id="PATH_22" d="M1069.2,676h-2.8c-0.3,3.6-1.6,6.5-4.1,9.1c-0.8,0.8-1.3,1.3-1.6,1.3c-1.3,0-3.1-0.3-4.9-0.5
		c-0.5,0-1-0.3-1-0.3s0.3-0.3,1-0.5c2.1-0.5,4.1-1.8,6-3.1c0.8-0.8,1.6-1.3,2.1-2.3c0.8-1,1.3-2.1,1.3-2.8V676h-3.4
		c-2.6,0-3.6-1-3.6-3.1c0-1.3,0.3-2.6,1-4.1c0.8-1.6,1.8-2.6,2.8-2.6c1.3,0,2.3,0.8,3.1,2.6c0.5,1.3,1,2.6,1,4.1h2.8v3.1H1069.2z
		 M1064.5,672.9c0-0.8-0.3-1.6-0.8-2.3c-0.5-1-1.3-1.3-2.1-1.3c-0.5,0-1,0.3-1.3,0.5c-0.3,0.3-0.5,0.8-0.5,1.6c0,1.3,1,1.8,3.1,1.8
		C1063.2,673.1,1063.7,672.9,1064.5,672.9z" class="area" title=""></path>
	<path id="PATH_23" d="M1089.4,668.5l-1,2.1c-1.8,0-3.4,0-4.1,0.3c-1,0.5-2.6,1-4.7,2.1s-3.6,1.8-4.7,2.1c-1.6,0.5-3.4,0.8-4.9,0.8
		h-1.8v-3.1h2.1c2.3,0,4.4-0.5,6.2-1.3l6-2.6c-1-0.3-2.6-0.8-4.7-1.6c-1.8-0.8-2.8-1-3.4-1c-1,0-2.1,0.5-3.1,1.3
		c-0.3,0.3-0.3,0.3-0.5,0.3s-0.3,0-0.3-0.3v-0.3c0.8-2.6,2.3-3.6,4.4-3.6c0.8,0,1.8,0.3,2.8,0.8c2.1,1,3.6,1.6,4.7,2.1
		c1.8,0.5,3.9,1,6.2,1c0.5,0,0.8,0,0.8,0.3C1089.6,667.9,1089.6,668.2,1089.4,668.5z M1082.1,656.5l-2.1,2.1l-2.1-2.1l2.1-2.1
		L1082.1,656.5z" class="area" title=""></path>
</g>
<g id="G_24" class="area" title="">
	<path id="PATH_25" d="M1229.5,865.6c0.3,0.8,0.3,1.6,0.3,2.3c0,1-0.3,1.8-0.5,2.8c-0.8,1.8-2.1,3.4-4.7,4.4
		c-2.1,0.8-4.1,1.3-6.5,1.3s-4.1-0.5-5.7-1.6c-1.6-1.3-2.3-2.8-2.3-5.2c0-1.3,0.3-2.3,0.8-3.9c0.5-1,0.8-1.8,1.3-2.3
		c0.3-0.3,0.5-0.3,0.5-0.3c0.3,0,0.3,0,0.3,0.3c0,0,0,0.3,0,0.5c-0.8,1.6-1,3.1-1,4.4c0,1.3,0.5,2.3,1.3,3.4c1,1.3,2.8,1.8,5.2,1.8
		c2.6,0,4.9-0.5,6.7-1.3c1.6-0.8,2.6-1.6,3.1-2.6c0.3-0.3,0.3-0.8,0.3-1c0-0.8-0.3-1.6-0.5-2.6c-0.3-0.8-1-2.1-2.3-4.1l1-2.1
		c0.3-0.3,0.3-0.5,0.3-0.5s0.3,0,0.3,0.3C1228.4,861.4,1229.2,863.5,1229.5,865.6z M1222,854.4l-2.1,2.1l-2.1-2.1l2.1-2.1
		L1222,854.4z" class="area" title=""></path>
	<path id="PATH_26" d="M1235.7,862.7c0,1-0.3,2.1-0.8,2.8c-0.3,0.5-0.5,0.8-0.5,0.8s-0.3-0.3-0.3-1c0-3.1-0.5-10.4-1.6-22l2.1-2.1
		c0.3-0.3,0.3-0.3,0.3-0.3s0,0.3,0,0.5C1235.7,845.1,1235.7,852.1,1235.7,862.7z" class="area" title=""></path>
	<path id="PATH_27" d="M1255.9,865.8h-1c-1,0-1.8-0.3-2.6-1c-0.5-0.5-1-1-1.6-2.1c-0.5,1-1.3,1.8-2.1,2.3c-1,0.5-2.3,0.8-4.4,0.8
		c-3.6,0-5.4-1.3-5.4-3.9c0-0.8,0.3-1.8,0.8-2.6c0.3-0.3,0.3-0.5,0.5-0.5s0.3,0.3,0.3,0.5c0,0.3,0,0.3,0,0.8s0,0.5,0,0.8
		c0,1.6,1.3,2.3,3.9,2.3c3.6,0,5.4-0.8,5.4-2.1c0-0.8-1-3.6-3.1-8.5l1-2.1c0.3-0.3,0.3-0.5,0.3-0.5s0.3,0.3,0.3,0.5
		c0.8,2.1,2.1,5.2,3.6,9.3c0.8,2.1,1.8,3.1,3.4,3.1h0.8L1255.9,865.8L1255.9,865.8z" class="area" title=""></path>
	<path id="PATH_28" d="M1268.8,865.8h-2.1c-2.3,0-3.9-0.8-4.9-2.3c-0.8,1.6-2.6,2.3-5.4,2.3h-1.6v-3.1h2.3c2.6,0,3.9-1,4.1-2.8
		c0-0.8,0.3-1.3,0.5-1.3s0.5,0.5,0.5,1.3c0.3,1.8,1.6,2.8,3.9,2.8h2.3v3.1H1268.8z M1263.7,852.6l-2.1,2.1l-2.1-2.1l2.1-2.1
		L1263.7,852.6z" class="area" title=""></path>
	<path id="PATH_29" d="M1281.5,865.8h-2.1c-2.3,0-3.9-0.8-4.9-2.3c-0.8,1.6-2.6,2.3-5.4,2.3h-1.6v-3.1h2.3c2.6,0,3.9-1,4.1-2.8
		c0-0.8,0.3-1.3,0.5-1.3c0.3,0,0.5,0.5,0.5,1.3c0.3,1.8,1.6,2.8,3.9,2.8h2.3v3.1H1281.5z M1275.8,871.5l-2.1,2.1l-2.1-2.1l2.1-2.1
		L1275.8,871.5z" class="area" title=""></path>
	<path id="PATH_30" d="M1297.6,865.8h-1.3c-1,0-2.1,0.3-2.8,0.5c-1.3,0.5-2.1,1.3-2.1,2.6c0,1.6,1,2.8,3.1,4.1l-1.3,2.6
		c-2.3-0.8-4.4-2.1-6-3.6c-2.1-1.8-3.1-4.1-3.1-6.5h-3.6v-3.1h3.4c0-2.1,0.5-4.1,1.6-6.7c1-2.3,1.8-3.4,2.3-3.4c0.5,0,1.3,1,2.1,3.4
		c0.8,2.1,1,3.4,1,4.1c0,3.6-1.8,5.4-5.4,5.4c0.3,1,0.8,2.1,1.6,3.1c0.8,1,1.8,1.8,2.8,2.3c0-0.3,0-0.8,0-1c0-1.8,0.5-3.4,1.3-4.7
		c1.3-1.8,2.8-2.8,5.2-2.8h1v3.6H1297.6z M1289.8,861.7c0-0.5-0.3-1.6-0.8-2.8c-0.5-1.6-1-2.1-1.6-2.1c-0.3,0-0.8,0.5-1.3,1.8
		c-0.5,1.3-0.8,2.8-0.8,4.4C1288.3,863,1289.8,862.4,1289.8,861.7z" class="area" title=""></path>
	<path id="PATH_31" d="M1303.8,860.6c0,3.4-1.8,5.2-5.2,5.2h-2.1v-3.1h1.8c2.6,0,3.9-0.5,3.9-1.3c0-0.8-0.5-1.8-1.8-3.1l1-2.6
		c0-0.3,0.3-0.3,0.3-0.3s0.3,0.3,0.5,0.5C1303.3,857.5,1303.8,859.1,1303.8,860.6z M1303.6,849l-2.1,2.1l-2.1-2.1l2.1-2.1
		L1303.6,849z" class="area" title=""></path>
</g>
<g id="G_32" class="area" title="">
	<path id="PATH_33" d="M1305.4,624.9h-1.8c-2.3,0-3.6-1.3-4.1-4.1c-1.3,1.3-1.8,1.8-2.1,1.8h-2.3c-0.8,0-1.6,0-2.3-0.3
		c-1-0.3-1.6-0.8-1.6-1.3c0-2.1,0.8-3.6,2.1-4.7c1-0.8,2.6-1.6,4.7-2.6l-0.5-2.6l1.8-2.1c0,0.3,0.8,3.1,1.8,8.5
		c0.3,1.6,0.8,2.8,1,3.4c0.5,0.8,1,1,2.1,1h1.8v2.8H1305.4z M1298.9,619.8l-0.8-4.1c-0.8,0.3-1.8,0.8-3.1,1.3
		c-1.6,0.8-2.6,1.6-2.6,1.8c0,0.5,0.5,0.8,1.8,1c0.8,0.3,1.6,0.3,2.3,0.3C1297.6,620,1298.4,619.8,1298.9,619.8z" class="area" title=""></path>
	<path id="PATH_34" d="M1329.2,624.9h-1.6c-1.8,0-2.8-0.8-3.6-2.1c-0.5,1.6-1.8,2.1-3.4,2.1s-2.6-0.8-3.4-2.1
		c-0.8,1.6-1.8,2.1-3.4,2.1c-1.8,0-3.1-0.8-3.9-2.1c-1,1.6-2.3,2.1-4.1,2.1h-1.8v-3.1h2.1c1.8,0,3.1-1,3.4-3.1
		c0-0.5,0.3-0.8,0.5-0.8s0.3,0.3,0.5,0.8c0.3,2.1,1.3,3.1,3.4,3.1c1.8,0,3.1-1,3.1-3.1c0-0.5,0.3-0.8,0.5-0.8s0.5,0.3,0.5,0.8
		c0.3,2.1,1.3,3.1,2.6,3.1c1.8,0,3.1-1,3.1-3.1c0-0.5,0.3-0.8,0.5-0.8s0.5,0.3,0.5,0.8c0.3,2.1,1.3,3.1,3.1,3.1h1.6v3.1H1329.2z
		 M1317.3,612l-1.8,1.8l-1.8-1.8l1.8-1.8L1317.3,612z M1319.6,607.9l-1.8,1.8l-1.8-1.8l1.8-1.8L1319.6,607.9z M1321.9,612l-1.8,1.8
		l-1.8-1.8l1.8-1.8L1321.9,612z" class="area" title=""></path>
	<path id="PATH_35" d="M1342.1,624.9h-2.1c-2.3,0-3.9-0.8-4.9-2.3c-0.8,1.6-2.6,2.3-5.4,2.3h-1.6v-3.1h2.3c2.6,0,3.9-1,4.1-2.8
		c0-0.8,0.3-1.3,0.5-1.3s0.5,0.5,0.5,1.3c0.3,1.8,1.6,2.8,3.9,2.8h2.3v3.1H1342.1z M1333.6,630.6l-2.1,2.1l-2.1-2.1l2.1-2.1
		L1333.6,630.6z M1338,630.6l-2.1,2.1l-2.1-2.1l2.1-2.1L1338,630.6z" class="area" title=""></path>
	<path id="PATH_36" d="M1348.4,619.8c0,3.4-1.8,5.2-5.2,5.2h-2.1v-3.1h1.8c2.6,0,3.9-0.5,3.9-1.3s-0.5-1.8-1.8-3.1l1-2.6
		c0-0.3,0.3-0.3,0.3-0.3s0.3,0.3,0.5,0.5C1347.6,616.7,1348.4,618.2,1348.4,619.8z M1347.3,630.6l-2.1,2.1l-2.1-2.1l2.1-2.1
		L1347.3,630.6z" class="area" title=""></path>
	<path id="PATH_37" d="M1364.4,624.9h-1c-1,0-1.6-0.3-2.1-0.5c0,0.3,0,0.5,0,0.8c0,2.3-0.8,4.7-2.3,7c-1.3,2.1-2.6,2.8-3.4,2.8
		c-2.1,0-3.6,0-5.2-0.3c-0.5,0-0.8-0.3-0.8-0.3s0.3-0.3,0.8-0.3c2.1-0.5,4.1-1.6,6.2-3.1c2.1-1.8,3.4-3.6,3.4-5.4
		c0-1-0.8-2.6-2.6-4.4l1.3-2.3c0-0.3,0.3-0.3,0.3-0.3l0.3,0.3c0.8,1,1.3,1.8,1.8,2.1c0.8,0.5,1.8,1,2.8,1h0.8v2.8H1364.4z" class="area" title=""></path>
	<path id="PATH_38" d="M1384.9,619.5c0,1.6-0.3,2.8-1,3.9c-0.8,1-2.1,1.8-3.4,1.8c-1.8,0-2.8-0.8-3.6-2.1c-1,1.6-2.1,2.1-3.6,2.1
		c-1.8,0-3.1-0.8-3.9-2.1c-1,1.6-2.3,2.1-4.1,2.1h-1.8v-3.1h2.1c1.8,0,3.1-1,3.4-3.1c0-0.5,0.3-0.8,0.5-0.8s0.3,0.3,0.5,0.8
		c0.3,2.1,1.3,3.1,3.4,3.1c1,0,2.1-0.3,2.6-0.8c0.3-0.5,0.5-1,0.8-2.1c0-0.5,0.3-0.8,0.5-0.8s0.3,0.3,0.5,0.8
		c0.3,2.1,1.3,3.1,3.1,3.1c2.1,0,2.8-0.5,2.8-1.3s-0.5-1.8-1.6-2.8l1.3-2.3c0.3-0.3,0.3-0.5,0.5-0.5s0.3,0.3,0.5,0.5
		C1384.4,616.9,1384.9,618.5,1384.9,619.5z" class="area" title=""></path>
</g>
<g id="G_39" class="area" title="">
	<path id="PATH_40" d="M1309.5,507.9c0.3,0.8,0.3,1.6,0.3,2.3c0,1-0.3,1.8-0.5,2.8c-0.8,1.8-2.1,3.4-4.7,4.4
		c-2.1,0.8-4.1,1.3-6.5,1.3c-2.3,0-4.1-0.5-5.7-1.6c-1.6-1.3-2.3-2.8-2.3-5.2c0-1.3,0.3-2.3,0.8-3.9c0.5-1,0.8-1.8,1.3-2.3
		c0.3-0.3,0.5-0.3,0.5-0.3c0.3,0,0.3,0,0.3,0.3c0,0,0,0.3,0,0.5c-0.8,1.6-1,3.1-1,4.4c0,1.3,0.5,2.3,1.3,3.4c1,1.3,2.8,1.8,5.2,1.8
		c2.6,0,4.9-0.5,6.7-1.3c1.6-0.8,2.6-1.6,3.1-2.6c0.3-0.3,0.3-0.8,0.3-1c0-0.8-0.3-1.6-0.5-2.6c-0.3-0.8-1-2.1-2.3-4.1l1-2.1
		c0.3-0.3,0.3-0.5,0.3-0.5s0.3,0,0.3,0.3C1308.2,503.7,1309,505.8,1309.5,507.9z M1301.7,496.5l-2.1,2.1l-2.1-2.1l2.1-2.1
		L1301.7,496.5z" class="area" title=""></path>
	<path id="PATH_41" d="M1319.9,508.1h-1.8c-1.8,0-3.4-0.8-3.9-2.3c-0.5-1-0.8-2.8-0.8-4.9V496c0-2.3-0.3-5.7-0.5-10.1l1.6-1.8
		c0.3-0.3,0.5-0.3,0.5,0c0.3,2.3,0.5,5.7,0.5,10.1v7.5c0,2.1,1,3.1,3.1,3.1h1.3V508.1L1319.9,508.1z" class="area" title=""></path>
	<path id="PATH_42" d="M1332.6,508.1h-2.1c-2.3,0-3.9-0.8-4.9-2.3c-0.8,1.6-2.6,2.3-5.4,2.3h-1.6V505h2.3c2.6,0,3.9-1,4.1-2.8
		c0-0.8,0.3-1.3,0.5-1.3c0.3,0,0.5,0.5,0.5,1.3c0.3,1.8,1.6,2.8,3.9,2.8h2.3v3.1H1332.6z M1324,513.8l-2.1,2.1l-2.1-2.1l2.1-2.1
		L1324,513.8z M1328.7,513.8l-2.1,2.1l-2.1-2.1l2.1-2.1L1328.7,513.8z" class="area" title=""></path>
	<path id="PATH_43" d="M1345.5,503c0,1.3,0,2.3-0.5,3.4c-0.5,1.3-1.3,2.1-2.1,2.1c-1.3,0-3.4-0.8-6-2.6c-0.8,1-1.3,1.6-1.6,1.8
		c-0.8,0.5-1.6,0.8-2.6,0.8h-1.3v-3.1h1.8c1,0,2.1-0.5,3.1-1.8c0.5-0.5,1.3-1.8,2.3-3.4c0.8-1.3,1.8-1.8,2.6-1.8
		c1.3,0,2.3,0.5,3.1,1.8C1345,501.2,1345.5,502.2,1345.5,503z M1344,505c0-0.8-0.3-1.6-0.8-2.6c-0.5-1-1.3-1.6-2.1-1.6
		c-0.8,0-1.6,0.8-2.6,2.3c0.5,0.5,1.3,1,2.3,1.6c1,0.5,2.1,0.8,2.6,0.8C1343.7,505.6,1344,505.3,1344,505z" class="area" title=""></path>
	<path id="PATH_44" d="M1358.5,508.4c0,2.6-0.8,4.9-2.3,7.3c-1.3,1.8-2.6,2.8-3.4,2.8c-2.1,0-3.6,0-5.2-0.3c-0.5,0-0.8-0.3-0.8-0.3
		s0.3-0.3,0.8-0.3c2.1-0.5,4.1-1.6,6.2-3.1c2.1-1.8,3.4-3.6,3.4-5.4c0-1-0.8-2.6-2.6-4.4l1.3-2.3c0-0.3,0.3-0.3,0.3-0.3l0.3,0.3
		c0.5,0.8,1.3,1.8,1.6,3.1C1358.2,506.3,1358.5,507.6,1358.5,508.4z" class="area" title=""></path>
	<path id="PATH_45" d="M1374.5,502.7c0,3.6-2.3,5.4-7.3,5.4c-1.8,0-3.1-0.3-3.9-0.8c-1-0.5-1.6-1.8-1.6-3.4c0-0.8,0.3-1.6,0.5-2.3
		c0.3-0.3,0.3-0.5,0.5-0.5s0.3,0.3,0.3,0.8c0,0.3,0,0.5,0,0.8c0,1,0.5,1.8,1.6,2.1c0.5,0.3,1.6,0.3,2.8,0.3c3.9,0,5.7-0.5,5.7-1.8
		c0-1.8-2.3-4.4-6.7-7.5l0.8-2.6c0-0.3,0.3-0.3,0.3-0.3s0.3,0,0.5,0.3C1372.2,496.5,1374.5,499.9,1374.5,502.7z" class="area" title=""></path>
</g>
<g id="G_46" class="area" title="">
	<path id="PATH_47" d="M1150.7,493.9h-1c-1,0-1.8-0.3-2.6-1c-0.5-0.5-1-1-1.6-2.1c-0.5,1-1.3,1.8-2.1,2.3c-1,0.5-2.3,0.8-4.4,0.8
		c-3.6,0-5.4-1.3-5.4-3.9c0-0.8,0.3-1.8,0.8-2.6c0.3-0.3,0.3-0.5,0.5-0.5c0.3,0,0.3,0.3,0.3,0.5c0,0.3,0,0.3,0,0.8
		c0,0.3,0,0.5,0,0.8c0,1.6,1.3,2.3,3.9,2.3c3.6,0,5.4-0.8,5.4-2.1c0-0.8-1-3.6-3.1-8.5l1-2.1c0.3-0.3,0.3-0.5,0.3-0.5
		s0.3,0.3,0.3,0.5c0.8,2.1,2.1,5.2,3.6,9.3c0.8,2.1,1.8,3.1,3.4,3.1h0.8V493.9L1150.7,493.9z" class="area" title=""></path>
	<path id="PATH_48" d="M1163.4,493.9h-2.1c-2.3,0-3.9-0.8-4.9-2.3c-0.8,1.6-2.6,2.3-5.4,2.3h-1.6v-3.1h2.3c2.6,0,3.9-1,4.1-2.8
		c0-0.8,0.3-1.3,0.5-1.3s0.5,0.5,0.5,1.3c0.3,1.8,1.6,2.8,3.9,2.8h2.3v3.1H1163.4z M1158.3,480.4l-2.1,2.1l-2.1-2.1l2.1-2.1
		L1158.3,480.4z" class="area" title=""></path>
	<path id="PATH_49" d="M1183.6,486.4l-1,2.1c-1.8,0-3.4,0-4.1,0.3c-1,0.5-2.6,1-4.7,2.1s-3.6,1.8-4.7,2.1c-1.6,0.5-3.4,0.8-4.9,0.8
		h-1.8v-3.1h2.1c2.3,0,4.4-0.5,6.2-1.3l6-2.6c-1-0.3-2.6-0.8-4.7-1.6c-1.8-0.8-2.8-1-3.4-1c-1,0-2.1,0.5-3.1,1.3
		c-0.3,0.3-0.3,0.3-0.5,0.3s-0.3,0-0.3-0.3v-0.3c0.8-2.6,2.3-3.6,4.4-3.6c0.8,0,1.8,0.3,2.8,0.8c2.1,1,3.6,1.6,4.7,2.1
		c1.8,0.5,3.9,1,6.2,1c0.5,0,0.8,0,0.8,0.3C1183.9,485.9,1183.9,485.9,1183.6,486.4z M1175.1,499.1l-2.1,2.1l-2.1-2.1l2.1-2.1
		L1175.1,499.1z" class="area" title=""></path>
	<path id="PATH_50" d="M1200,493.9h-1c-1,0-1.6-0.3-2.1-0.5c0,0.3,0,0.5,0,0.8c0,2.3-0.8,4.7-2.3,7c-1.3,2.1-2.6,2.8-3.4,2.8
		c-2.1,0-3.6,0-5.2-0.3c-0.5,0-0.8-0.3-0.8-0.3s0.3-0.3,0.8-0.3c2.1-0.5,4.1-1.6,6.2-3.1c2.1-1.8,3.4-3.6,3.4-5.4
		c0-1-0.8-2.6-2.6-4.4l1.3-2.3c0-0.3,0.3-0.3,0.3-0.3l0.3,0.3c0.8,1,1.3,1.8,1.8,2.1c0.8,0.5,1.8,1,2.8,1h0.8v2.8H1200z" class="area" title=""></path>
	<path id="PATH_51" d="M1212.9,493.9h-2.1c-2.3,0-3.9-0.8-4.9-2.3c-0.8,1.6-2.6,2.3-5.4,2.3h-1.6v-3.1h2.3c2.6,0,3.9-1,4.1-2.8
		c0-0.8,0.3-1.3,0.5-1.3s0.5,0.5,0.5,1.3c0.3,1.8,1.6,2.8,3.9,2.8h2.3v3.1H1212.9z M1204.4,499.6l-2.1,2.1l-2.1-2.1l2.1-2.1
		L1204.4,499.6z M1208.8,499.6l-2.1,2.1l-2.1-2.1l2.1-2.1L1208.8,499.6z" class="area" title=""></path>
	<path id="PATH_52" d="M1219.1,488.7c0,3.4-1.8,5.2-5.2,5.2h-2.1v-3.1h1.8c2.6,0,3.9-0.5,3.9-1.3c0-0.8-0.5-1.8-1.8-3.1l1-2.6
		c0-0.3,0.3-0.3,0.3-0.3s0.3,0.3,0.5,0.5C1218.3,485.4,1219.1,486.9,1219.1,488.7z M1218.1,499.6l-2.1,2.1l-2.1-2.1l2.1-2.1
		L1218.1,499.6z" class="area" title=""></path>
</g>
<g id="G_53" class="area" title="">
	<path id="PATH_54" d="M1320.4,384.9c0,1.8-0.5,3.1-1.6,4.1c-1,1-2.6,1.3-4.1,1.3c-1,0-2.1-0.3-2.8-1c-0.8-0.8-1.3-1.6-1.3-2.6
		c0-1.3,0.5-2.6,1.6-4.4c0.8-1.6,1.8-2.8,2.8-3.9C1318.6,380.2,1320.4,382.3,1320.4,384.9z M1318.8,385.9c0-0.8-0.5-1.6-1.8-2.6
		c-1-1-1.8-1.6-2.8-1.8c-1.3,1.8-2.1,3.1-2.1,4.1c0,0.5,0.3,1,1,1.6c0.5,0.3,1,0.5,1.8,0.5c1,0,2.1-0.3,2.8-0.5
		C1318.6,386.4,1318.8,386.2,1318.8,385.9z" class="area" title=""></path>
	<path id="PATH_55" d="M1336.4,390.3h-2.8c-0.3,3.6-1.6,6.5-4.1,9.1c-0.8,0.8-1.3,1.3-1.6,1.3c-1.3,0-3.1-0.3-4.9-0.5
		c-0.5,0-1-0.3-1-0.3s0.3-0.3,1-0.5c2.1-0.5,4.1-1.8,6-3.1c0.8-0.8,1.6-1.3,2.1-2.3c0.8-1,1.3-2.1,1.3-2.8v-0.8h-3.4
		c-2.6,0-3.6-1-3.6-3.1c0-1.3,0.3-2.6,1-4.1c0.8-1.6,1.8-2.6,2.8-2.6c1.3,0,2.3,0.8,3.1,2.6c0.5,1.3,1,2.6,1,4.1h2.8v3.1H1336.4z
		 M1331.8,387.2c0-0.8-0.3-1.6-0.8-2.3c-0.5-1-1.3-1.3-2.1-1.3c-0.5,0-1,0.3-1.3,0.5c-0.3,0.3-0.5,0.8-0.5,1.6c0,1.3,1,1.8,3.1,1.8
		C1330.5,387.2,1331,387.2,1331.8,387.2z" class="area" title=""></path>
	<path id="PATH_56" d="M1352.5,366.2c0,0.5-0.5,1.6-1,2.8l-6.5,2.1c-2.8,1-4.9,1.8-6,2.3c2.1,2.1,3.4,3.6,4.1,4.4
		c1.3,1.8,2.1,3.4,2.3,5.2c0,1.3,0,2.6-0.5,3.6c-0.8,2.3-3.6,3.4-8,3.4h-1.3v-3.1h1.6c2.1,0,3.6,0,4.4-0.3c1.8-0.5,2.8-1.3,2.8-2.6
		c0-1.8-1.3-3.9-4.1-6.5l-0.3,0.5c-0.3-0.3-0.8-0.8-1.3-1.6c-0.8-0.8-1-1.6-1-1.6c0-0.5,0-1,0.3-2.1c0.3-1,0.5-1.6,0.8-1.8
		c0.3-0.3,2.1-1,5.4-2.1C1347.1,368,1350.2,367,1352.5,366.2z" class="area" title=""></path>
	<path id="PATH_57" d="M1367.5,390.3h-1c-1,0-1.6-0.3-2.1-0.5c0,0.3,0,0.5,0,0.8c0,2.3-0.8,4.7-2.3,7c-1.3,2.1-2.6,2.8-3.4,2.8
		c-2.1,0-3.6,0-5.2-0.3c-0.5,0-0.8-0.3-0.8-0.3s0.3-0.3,0.8-0.3c2.1-0.5,4.1-1.6,6.2-3.1c2.1-1.8,3.4-3.6,3.4-5.4
		c0-1-0.8-2.6-2.6-4.4l1.3-2.3c0-0.3,0.3-0.3,0.3-0.3l0.3,0.3c0.8,1,1.3,1.8,1.8,2.1c0.8,0.5,1.8,1,2.8,1h0.8v2.8H1367.5z" class="area" title=""></path>
	<path id="PATH_58" d="M1373.7,385.1c0,3.4-1.8,5.2-5.2,5.2h-2.1v-3.1h1.8c2.6,0,3.9-0.5,3.9-1.3s-0.5-1.8-1.8-3.1l1-2.6
		c0-0.3,0.3-0.3,0.3-0.3s0.3,0.3,0.5,0.5C1373.2,381.8,1373.7,383.3,1373.7,385.1z M1371.7,396l-2.1,2.1l-2.1-2.1l2.1-2.1
		L1371.7,396z M1376.1,396l-2.1,2.1l-2.1-2.1l2.1-2.1L1376.1,396z" class="area" title=""></path>
	<path id="PATH_59" d="M1389.3,390.6c0,2.6-0.8,4.9-2.3,7.3c-1.3,1.8-2.6,2.8-3.4,2.8c-2.1,0-3.6,0-5.2-0.3c-0.5,0-0.8-0.3-0.8-0.3
		s0.3-0.3,0.8-0.3c2.1-0.5,4.1-1.6,6.2-3.1c2.1-1.8,3.4-3.6,3.4-5.4c0-1-0.8-2.6-2.6-4.4l1.3-2.3c0-0.3,0.3-0.3,0.3-0.3l0.3,0.3
		c0.5,0.8,1.3,1.8,1.6,3.1C1389,388.5,1389.3,389.5,1389.3,390.6z M1387.5,376.6l-2.1,2.1l-2.1-2.1l2.1-2.1L1387.5,376.6z" class="area" title=""></path>
</g>
<g id="G_65" class="area" title="">
	<path id="PATH_66" d="M908.3,130.3h-1.8c-2.3,0-3.6-1.3-4.1-4.1c-1.3,1.3-1.8,1.8-2.1,1.8H898c-0.8,0-1.6,0-2.3-0.3
		c-1-0.3-1.6-0.8-1.6-1.3c0-1.8,0.8-3.6,2.1-4.7c1-0.8,2.6-1.6,4.7-2.6l-0.5-2.6l1.8-2.1c0,0.3,0.8,3.1,1.8,8.5
		c0.3,1.6,0.8,2.8,1,3.4c0.5,0.8,1,1,2.1,1h1.8v2.8H908.3z M901.9,125.1l-0.8-4.1c-0.8,0.3-1.8,0.8-3.1,1.3
		c-1.6,0.8-2.6,1.6-2.6,1.8c0,0.5,0.5,0.8,1.8,1c0.8,0.3,1.6,0.3,2.3,0.3C900.6,125.4,901.3,125.1,901.9,125.1z" class="area" title=""></path>
	<path id="PATH_67" d="M914.5,125.1c0,3.4-1.8,5.2-5.2,5.2h-2.1v-3.1h1.8c2.6,0,3.9-0.5,3.9-1.3s-0.5-1.8-1.8-3.1l1-2.6
		c0-0.3,0.3-0.3,0.3-0.3s0.3,0.3,0.5,0.5C914,122,914.5,123.5,914.5,125.1z M912.5,136l-2.1,2.1l-2.1-2.1l2.1-2.1L912.5,136z
		 M917.1,136l-2.1,2.1L913,136l2.1-2.1L917.1,136z" class="area" title=""></path>
	<path id="PATH_68" d="M930.3,129.2c0,3.9-1.3,7.3-3.9,9.8c-0.8,0.8-1.3,1.3-1.6,1.3c-1.6,0-3.1-0.3-4.9-0.5c-0.8,0-1-0.3-1-0.3
		s0.3-0.3,1-0.5c2.1-0.5,4.1-1.8,6-3.4c0.8-0.8,1.6-1.3,2.1-2.3c0.8-1,1.3-2.1,1.3-2.8v-0.8h-3.4c-2.3,0-3.6-1-3.6-2.8
		c0-1.3,0.3-2.6,1-4.1c0.8-1.6,1.8-2.6,2.8-2.6c1.6,0,2.8,1,3.6,3.4C930.1,125.6,930.3,127.4,930.3,129.2z M928.5,127.2
		c0-0.8-0.3-1.6-0.8-2.3c-0.5-0.8-1.3-1.3-2.1-1.3c-0.5,0-1,0.3-1.3,0.5c-0.5,0.5-0.5,0.8-0.5,1.3c0,1.3,0.8,1.8,2.6,1.8
		C926.7,127.4,927.5,127.4,928.5,127.2z" class="area" title=""></path>
	<path id="PATH_69" d="M946.4,130.3h-1c-1,0-1.6-0.3-2.1-0.5c0,0.3,0,0.5,0,0.8c0,2.3-0.8,4.7-2.3,7c-1.3,2.1-2.6,2.8-3.4,2.8
		c-2.1,0-3.6,0-5.2-0.3c-0.5,0-0.8-0.3-0.8-0.3s0.3-0.3,0.8-0.3c2.1-0.5,4.1-1.6,6.2-3.1c2.1-1.8,3.4-3.6,3.4-5.4
		c0-1-0.8-2.6-2.6-4.4l1.3-2.3c0-0.3,0.3-0.3,0.3-0.3l0.3,0.3c0.8,1,1.3,1.8,1.8,2.1c0.8,0.5,1.8,1,2.8,1h0.8v2.8H946.4z" class="area" title=""></path>
	<path id="PATH_70" d="M970.5,130.3h-1.6c-1.8,0-2.8-0.8-3.6-2.1c-0.5,1.6-1.8,2.1-3.4,2.1c-1.6,0-2.6-0.8-3.4-2.1
		c-0.8,1.6-1.8,2.1-3.4,2.1c-1.8,0-3.1-0.8-3.9-2.1c-1,1.6-2.3,2.1-4.1,2.1h-1.8v-3.1h2.1c1.8,0,3.1-1,3.4-3.1
		c0-0.5,0.3-0.8,0.5-0.8c0.3,0,0.3,0.3,0.5,0.8c0.3,2.1,1.3,3.1,3.4,3.1c1.8,0,3.1-1,3.1-3.1c0-0.5,0.3-0.8,0.5-0.8s0.5,0.3,0.5,0.8
		c0.3,2.1,1.3,3.1,2.6,3.1c1.8,0,3.1-1,3.1-3.1c0-0.5,0.3-0.8,0.5-0.8c0.3,0,0.5,0.3,0.5,0.8c0.3,2.1,1.3,3.1,3.1,3.1h1.6v3.1H970.5
		z M958.3,117.3l-1.8,1.8l-1.8-1.8l1.8-1.8L958.3,117.3z M960.6,113.2l-1.8,1.8l-1.8-1.8l1.8-1.8L960.6,113.2z M963,117.3l-1.8,1.8
		l-1.8-1.8l1.8-1.8L963,117.3z" class="area" title=""></path>
	<path id="PATH_71" d="M976.7,125.1c0,3.4-1.8,5.2-5.2,5.2h-2.1v-3.1h1.8c2.6,0,3.9-0.5,3.9-1.3s-0.5-1.8-1.8-3.1l1-2.6
		c0-0.3,0.3-0.3,0.3-0.3s0.3,0.3,0.5,0.5C976.2,122,976.7,123.5,976.7,125.1z M975.7,136l-2.1,2.1l-2.1-2.1l2.1-2.1L975.7,136z" class="area" title=""></path>
</g>
<g id="G_72" class="area" title="">
	<path id="PATH_73" d="M917.4,271.7c0,3.6-1.6,5.4-4.7,5.4c-1.8,0-2.8-0.8-3.4-2.3c-0.8,1.6-2.1,2.3-3.6,2.3c-0.5,0-1.3,0-1.8-0.3
		c0,1.6-0.3,3.1-0.3,4.9c-0.8,1.8-2.1,3.4-4.4,4.4c-2.1,0.8-4.1,1.3-6.5,1.3s-4.1-0.5-5.7-1.6c-1.6-1.3-2.3-2.8-2.3-5.2
		c0-1.3,0.3-2.3,0.8-3.9c0.5-1,0.8-1.8,1.3-2.3c0.3-0.3,0.5-0.3,0.5-0.3c0.3,0,0.3,0,0.3,0.3c0,0,0,0.3,0,0.5c-0.8,1.6-1,3.1-1,4.4
		c0,1.3,0.5,2.3,1.3,3.4c1,1.3,2.8,1.8,5.2,1.8c2.6,0,4.9-0.5,6.7-1.3c1.6-0.8,2.6-1.6,2.8-2.6c0.3-0.3,0.3-0.8,0-1.8
		c0-0.8-0.3-1.6-0.3-1.8c-0.3-0.8-1-2.1-2.6-3.9l1-2.1c0.3-0.3,0.3-0.5,0.3-0.5s0.3,0,0.3,0.3c0.8,1,1.3,1.8,1.6,2.1
		c0.8,0.8,1.6,1,2.6,1s2.1-0.3,2.6-1c0.3-0.5,0.5-1,0.8-2.3c0-0.5,0.3-0.8,0.5-0.8c0.3,0,0.3,0.3,0.3,0.8c0.3,1.3,0.5,2.1,1,2.6
		c0.5,0.5,1.6,0.8,2.8,0.8c0.5,0,1-0.3,1.3-0.5c0.5-0.3,0.8-0.8,0.8-1.3c0-0.8-0.5-1.6-1.6-2.8l1.3-2.3c0.3-0.3,0.3-0.3,0.3-0.3
		l0.3,0.3C916.9,268.8,917.4,270.1,917.4,271.7z" class="area" title=""></path>
	<path id="PATH_74" d="M930.6,276.1c0,3.9-1.3,7.3-3.9,9.8c-0.8,0.8-1.3,1.3-1.6,1.3c-1.6,0-3.1-0.3-4.9-0.5c-0.8,0-1-0.3-1-0.3
		s0.3-0.3,1-0.5c2.1-0.5,4.1-1.8,6-3.4c0.8-0.8,1.6-1.3,2.1-2.3c0.8-1,1.3-2.1,1.3-2.8v-0.8h-3.4c-2.3,0-3.6-1-3.6-2.8
		c0-1.3,0.3-2.6,1-4.1c0.8-1.6,1.8-2.6,2.8-2.6c1.6,0,2.8,1,3.6,3.4C930.3,272.2,930.6,274,930.6,276.1z M928.8,274
		c0-0.8-0.3-1.6-0.8-2.3c-0.5-0.8-1.3-1.3-2.1-1.3c-0.5,0-1,0.3-1.3,0.5c-0.5,0.5-0.5,0.8-0.5,1.3c0,1.3,0.8,1.8,2.6,1.8
		C927,274.3,927.8,274,928.8,274z" class="area" title=""></path>
	<path id="PATH_75" d="M946.4,271.7c0,3.6-2.3,5.4-7.3,5.4c-1.8,0-3.1-0.3-3.9-0.8c-1-0.5-1.6-1.8-1.6-3.4c0-0.8,0.3-1.6,0.5-2.3
		c0.3-0.3,0.3-0.5,0.5-0.5c0.3,0,0.3,0.3,0.3,0.8c0,0.3,0,0.5,0,0.8c0,1,0.5,1.8,1.6,2.1c0.5,0.3,1.6,0.3,2.8,0.3
		c3.9,0,5.7-0.5,5.7-1.8c0-1.8-2.3-4.4-6.7-7.5l0.8-2.6c0-0.3,0.3-0.3,0.3-0.3s0.3,0,0.5,0.3C944.3,265.5,946.4,268.8,946.4,271.7z" class="area" title=""></path>
	<path id="PATH_76" d="M962.5,277.1h-1c-1,0-1.6-0.3-2.1-0.5c0,0.3,0,0.5,0,0.8c0,2.3-0.8,4.7-2.3,7c-1.3,2.1-2.6,2.8-3.4,2.8
		c-2.1,0-3.6,0-5.2-0.3c-0.5,0-0.8-0.3-0.8-0.3s0.3-0.3,0.8-0.3c2.1-0.5,4.1-1.6,6.2-3.1c2.1-1.8,3.4-3.6,3.4-5.4
		c0-1-0.8-2.6-2.6-4.4l1.3-2.3c0-0.3,0.3-0.3,0.3-0.3l0.3,0.3c0.8,1,1.3,1.8,1.8,2.1c0.8,0.5,1.8,1,2.8,1h0.8v2.8H962.5z" class="area" title=""></path>
	<path id="PATH_77" d="M972.6,269.9v1c0,1.8-0.3,2.8-0.8,3.6c-1.3,1.8-3.4,2.6-6.7,2.6h-3.6V274h2.6c4.4,0,6.7-0.8,7.3-2.1
		c0-0.3,0-0.3,0-0.5c0-0.5,0-0.8-0.3-1c-1,0.3-2.3,0.3-3.4,0.3c-2.3,0-3.6-1-3.6-3.1c0-1.3,0.3-2.8,1-4.1c0.8-1.6,1.8-2.3,3.1-2.3
		c1,0,2.1,0.8,2.8,2.1C972,264.9,972.6,267.3,972.6,269.9z M969.7,255.6l-2.1,2.1l-2.1-2.1l2.1-2.1L969.7,255.6z M970.7,267.5
		c0-0.8-0.3-1.6-0.8-2.3c-0.5-0.8-1.3-1-2.1-1c-0.5,0-1,0.3-1.6,0.5c-0.5,0.3-0.5,0.8-0.5,1.3c0,1,0.8,1.6,2.6,1.6
		C968.9,267.8,969.7,267.8,970.7,267.5z" class="area" title=""></path>
</g>
<g id="G_78" class="area" title="">
	<path id="PATH_79" d="M972.6,412.3c0.3,0.8,0.3,1.6,0.3,2.3c0,1-0.3,1.8-0.5,2.8c-0.8,1.8-2.1,3.4-4.7,4.4
		c-2.1,0.8-4.1,1.3-6.5,1.3s-4.1-0.5-5.7-1.6c-1.6-1.3-2.3-2.8-2.3-5.2c0-1.3,0.3-2.3,0.8-3.9c0.5-1,0.8-1.8,1.3-2.3
		c0.3-0.3,0.5-0.3,0.5-0.3c0.3,0,0.3,0,0.3,0.3c0,0,0,0.3,0,0.5c-0.8,1.6-1,3.1-1,4.4c0,1.3,0.5,2.3,1.3,3.4c1,1.3,2.8,1.8,5.2,1.8
		c2.6,0,4.9-0.5,6.7-1.3c1.6-0.8,2.6-1.6,3.1-2.6c0.3-0.3,0.3-0.8,0.3-1c0-0.8-0.3-1.6-0.5-2.6c-0.3-0.8-1-2.1-2.3-4.1l1-2.1
		c0.3-0.3,0.3-0.5,0.3-0.5s0.3,0,0.3,0.3C971.5,408.2,972.3,410.2,972.6,412.3z M965.1,401.2l-2.1,2.1l-2.1-2.1l2.1-2.1L965.1,401.2
		z" class="area" title=""></path>
	<path id="PATH_80" d="M983.2,412.6h-1.8c-1.8,0-3.4-0.8-3.9-2.3c-0.5-1-0.8-2.8-0.8-4.9v-4.9c0-2.3-0.3-5.7-0.5-10.1l1.6-1.8
		c0.3-0.3,0.5-0.3,0.5,0c0.3,2.3,0.5,5.7,0.5,10.1v7.5c0,2.1,1,3.1,3.1,3.1h1.3V412.6z" class="area" title=""></path>
	<path id="PATH_81" d="M989.1,407.4c0,3.4-1.8,5.2-5.2,5.2h-2.1v-3.1h1.8c2.6,0,3.9-0.5,3.9-1.3c0-0.8-0.5-1.8-1.8-3.1l1-2.6
		c0-0.3,0.3-0.3,0.3-0.3s0.3,0.3,0.5,0.5C988.6,404.3,989.1,405.8,989.1,407.4z M987.3,418.3l-2.1,2.1l-2.1-2.1l2.1-2.1L987.3,418.3
		z M991.7,418.3l-2.1,2.1l-2.1-2.1l2.1-2.1L991.7,418.3z" class="area" title=""></path>
	<path id="PATH_82" d="M997.7,409.5c0,1-0.3,2.1-0.8,2.8c-0.3,0.5-0.5,0.8-0.5,0.8s-0.3-0.3-0.3-1c0-3.1-0.5-10.4-1.6-22l2.1-2.1
		c0.3-0.3,0.3-0.3,0.3-0.3s0,0.3,0,0.5C997.7,391.9,997.7,398.8,997.7,409.5z" class="area" title=""></path>
	<path id="PATH_83" d="M1014,412.6h-1c-1,0-1.6-0.3-2.1-0.5c0,0.3,0,0.5,0,0.8c0,2.3-0.8,4.7-2.3,7c-1.3,2.1-2.6,2.8-3.4,2.8
		c-2.1,0-3.6,0-5.2-0.3c-0.5,0-0.8-0.3-0.8-0.3s0.3-0.3,0.8-0.3c2.1-0.5,4.1-1.6,6.2-3.1c2.1-1.8,3.4-3.6,3.4-5.4
		c0-1-0.8-2.6-2.6-4.4l1.3-2.3c0-0.3,0.3-0.3,0.3-0.3l0.3,0.3c0.8,1,1.3,1.8,1.8,2.1c0.8,0.5,1.8,1,2.8,1h0.8v2.8H1014z" class="area" title=""></path>
	<path id="PATH_84" d="M1034.5,407.1c0,1.6-0.3,2.8-1,3.9c-0.8,1-2.1,1.8-3.4,1.8c-1.8,0-2.8-0.8-3.6-2.1c-1,1.6-2.1,2.1-3.6,2.1
		c-1.8,0-3.1-0.8-3.9-2.1c-1,1.6-2.3,2.1-4.1,2.1h-1.8v-3.1h2.1c1.8,0,3.1-1,3.4-3.1c0-0.5,0.3-0.8,0.5-0.8c0.3,0,0.3,0.3,0.5,0.8
		c0.3,2.1,1.3,3.1,3.4,3.1c1,0,2.1-0.3,2.6-0.8c0.3-0.5,0.5-1,0.8-2.1c0-0.5,0.3-0.8,0.5-0.8c0.3,0,0.3,0.3,0.5,0.8
		c0.3,2.1,1.3,3.1,3.1,3.1c2.1,0,2.8-0.5,2.8-1.3c0-0.8-0.5-1.8-1.6-2.8l1.3-2.3c0.3-0.3,0.3-0.5,0.5-0.5c0.3,0,0.3,0.3,0.5,0.5
		C1033.9,404.5,1034.5,406.1,1034.5,407.1z" class="area" title=""></path>
</g>
<g id="G_78" class="area">
	<path d="M1116.7,317c-6.5,0-11.5-2.4-11.5-8.2c0-1.9,0.4-3.8,1.4-5.7l0.9,0.4c-0.4,1.3-0.7,2.5-0.7,3.6c0,4.7,4.7,6.7,10.5,6.7
		c2.7,0,5.4-0.4,8-1c1.1-0.3,2.1-0.5,3.1-1c0.2-0.1,0.2-0.2,0.2-0.3c0-1.1-1.1-3.4-2.3-5.8c0.6-1,1.1-1.9,1.8-2.6h0.1
		c1.1,1.9,2.3,4.8,2.3,7.1c0,1.8-0.6,2.8-1.2,3.9C1127.3,315.5,1121.3,317,1116.7,317z M1115.8,301.4c-1-0.9-1.8-1.7-2.7-2.4
		c0.6-0.8,1.3-1.6,1.9-2.2c1,0.8,1.8,1.5,2.7,2.5C1116.9,300.2,1116.4,300.8,1115.8,301.4z M1120.3,301.1c-1-0.9-1.8-1.7-2.7-2.4
		c0.6-0.8,1.3-1.6,1.9-2.2c1,0.8,1.8,1.5,2.7,2.5C1121.4,299.9,1121,300.5,1120.3,301.1z" id="PATH_79" class="area"></path>
	<path d="M1140.9,316.1h-0.3c-1.9,0-3-0.4-4-1.3c-1.4-1.5-1.5-3.1-1.5-6.6c0-4.5-0.3-9.1-0.6-14.1c0.8-0.9,1.5-1.6,2.2-2.2l0.2,0.1
		c0.4,5.1,0.4,11.2,0.4,17v1.3c0,1.5,0.8,2.2,1.8,2.5c0.6,0.2,1.2,0.3,1.5,0.3h0.3V316.1z" id="PATH_80" class="area"></path>
	<path d="M1141.4,313.1c1.8,0,3.7-0.7,4-2.1l0.7-2.5l1.6-1.2l0.1,0.2c-0.3,1.2-0.5,2.2-0.5,2.7c0,0.8,0.2,1.5,0.8,1.9
		c0.8,0.6,1.7,0.9,2.9,0.9h0.4v3h-0.5c-2.3,0-4-0.6-4.8-2.4h-0.1c-0.8,1.6-2.6,2.4-4.7,2.4h-0.4c-1.3,0-1.6-0.9-1.6-1.6
		c0-0.6,0.4-1.4,1.6-1.4H1141.4z M1145.5,299c1,0.7,1.9,1.5,2.8,2.5c-0.5,0.8-1.1,1.6-1.9,2.3c-0.9-0.9-1.8-1.6-2.8-2.4
		C1144.2,300.5,1144.9,299.7,1145.5,299z" id="PATH_81" class="area"></path>
	<path d="M1151.9,313.1c2,0,3.6-0.1,4.6-0.4c0.8-0.3,1.3-0.6,1.3-1c0-1.1-1.1-3.4-2.3-5.8c0.6-1,1.1-1.9,1.8-2.6h0.1
		c1.1,1.9,2.3,4.8,2.3,7.1c0,1.8-0.7,3.1-1.6,4.4c-1.1,1.1-2.7,1.4-6.3,1.4h-0.3c-1.3,0-1.6-0.9-1.6-1.6c0-0.6,0.4-1.4,1.6-1.4
		H1151.9z M1159.5,298.2c-0.3,0.6-0.6,1.1-0.9,1.6c-2.3,0.4-4.4,1-6.1,1.8l0-0.1l0.6-1c0.2-0.3,0.7-0.6,1.1-0.8v-0.1
		c-1.1-0.3-1.8-1-1.8-2c0-0.6,0.4-1.5,1.1-2.1c0.8-0.8,1.9-1.3,2.8-1.3c0.9,0,1.5,0.5,1.5,1.1s-0.4,1.1-0.8,1.5h0
		c-0.3-0.5-0.5-0.8-0.8-0.9c-0.2,0-0.4-0.1-0.7-0.1c-0.8,0-1.6,0.5-1.6,0.8c0,1.1,2,1.5,3.4,1.5
		C1157.9,298.2,1158.7,298.1,1159.5,298.2L1159.5,298.2z" id="PATH_82" class="area"></path>
	<path d="M1170.2,316.1h-0.3c-1.9,0-3-0.4-4-1.3c-1.4-1.5-1.5-3.1-1.5-6.6c0-4.5-0.3-9.1-0.6-14.1c0.8-0.9,1.5-1.6,2.2-2.2l0.2,0.1
		c0.4,5.1,0.4,11.2,0.4,17v1.3c0,1.5,0.8,2.2,1.8,2.5c0.6,0.2,1.2,0.3,1.5,0.3h0.3V316.1z" id="PATH_83" class="area"></path>
	<path d="M1172.2,313.1c2,0,3.8-0.1,5.1-0.5c1.5-0.4,2.8-1.3,2.8-1.9c0-0.2,0-0.4,0-0.5c-0.8,0.1-1.8,0.1-2.6,0.1
		c-2.7,0-4.8-0.7-5.6-2.5c-0.2-0.5-0.4-1.1-0.4-1.7c0-1.7,0.6-3.4,1.8-4.6c0.9-1,2-1.6,3-1.6c1.9,0,3.4,1.8,4.5,4.6
		c0.6,1.5,1,3.3,1,5.6c0,1.5-0.4,2.8-1.1,3.7c-1.5,1.7-4.2,2.3-8.4,2.3h-1.9c-1.3,0-1.6-0.9-1.6-1.6c0-0.6,0.4-1.4,1.6-1.4H1172.2z
		 M1173,297.7c-1-0.9-1.8-1.7-2.7-2.4c0.6-0.8,1.3-1.6,1.9-2.2c1,0.8,1.8,1.5,2.7,2.5C1174.1,296.4,1173.6,297.1,1173,297.7z
		 M1175.7,302.9c-1.5,0-2.8,1.2-2.8,2.1c0,1.9,3.1,2.5,6.8,2.5C1179.2,305.3,1177.6,302.9,1175.7,302.9z M1177.5,297.4
		c-1-0.9-1.8-1.7-2.7-2.4c0.6-0.8,1.3-1.6,1.9-2.2c1,0.8,1.8,1.5,2.7,2.5C1178.6,296.1,1178.1,296.7,1177.5,297.4z" id="PATH_84" class="area"></path>
</g>
</svg>
