<!--?xml version="1.0" encoding="utf-8"?-->
<!-- Generator: Adobe Illustrator 27.4.1, SVG Export Plug-In . SVG Version: 6.00 Build 0)  -->
<svg version="1.1" id="Layer_1" xmlns="http://www.w3.org/2000/svg" xmlns:xlink="http://www.w3.org/1999/xlink" x="0px" y="0px" viewBox="0 0 1920 1080" style="enable-background:new 0 0 1920 1080;" xml:space="preserve" width="100%" height="100%">
<style type="text/css">
	.st0{fill:#FBD1D1;stroke:#020202;stroke-width:0.3661;stroke-miterlimit:18.3051;}
	.st1{fill:#FDFAD6;stroke:#020202;stroke-width:0.3661;stroke-miterlimit:18.3051;}
	.st2{fill:#E8D0E5;stroke:#020202;stroke-width:0.3661;stroke-miterlimit:18.3051;}
	.st3{fill:#DBECCB;stroke:#020202;stroke-width:0.3661;stroke-miterlimit:18.3051;}
	.st4{fill:none;stroke:#040404;stroke-width:0.9153;stroke-miterlimit:18.3051;}
	.st5{fill:#FCF8C6;stroke:#000000;stroke-width:0.5;stroke-miterlimit:10;}
	.st6{fill:#E5C5DE;stroke:#000000;stroke-width:0.5;stroke-miterlimit:10;}
</style>
<path id="_x34_76" class="st0 area" d="M866.7,319.1c11.5,10.6,19.2,23.1,32.8,31.7c2,2,6.8,2.9,7.7,0.9c8.6-14.5-7.7-22.1-12.4-34.6
	c-0.9-3.8-0.9-8.6,0.9-11.5c9.7-12.4,8.6-31.7,19.2-36.6c13.5-6.8,29.8-11.5,41.4-24.2c17.4-20.1,51.1-26.9,59.7-52
	c6.8-20.1,19.2-55.8,44.3-43.4c23.1,10.6,45.2,24.2,71.2,17.4c0.9-0.9,0.9-8.6-0.9-9.7c-8.6-6.8-13.5-11.5-12.4-21.2
	c0.9-2.9,8.6-2,12.4,0.9c2.9,0.9,3.8,4.8,6.8,6.8c6.8,3.8,10.6,11.5,17.4,13.5c10.6,3.5,19.6-1.3,27.1-8.1c-1.1-0.9-2-1.6-2.9-2.4
	c-11.5-8.6-25.4-34.8-36.2-56.7l-1.3-2.6c-4.4-8.8-10.3-15-20.1-21.8c-7.5-4.9-24.2-4.6-33.1-4.4c-1.6,0-3.1,0-4.4,0
	c-8.8,0-27.1,0-41-5.1c-12.6-4.8-30.6-9.7-38.4-9.7c-0.4,0-31.5-0.2-50.3-7.1c-0.5,4.9-0.9,10.1,0.7,14.6
	c4.8,9.7,18.3,25.1,4.8,32.8c-3.8,2.9-8.6,2.9-11.5,4.8c-6.8,5.9-8.6,16.3-18.3,18.3c-9.7,0.9-19.2-0.9-28.9,2.9
	c-16.7,6.4-32,26.5-24.3,44.8c3.8,8.6,10.6,16.3,6.8,26c-4.8,10.6-13.5,23.1-26.9,16.3c0,2.9-0.9,7.7-2.9,7.7
	c-16.3,2.9-19.2,23.1-20.1,36.6c0,4-1.6,8.1-4.4,10.6c3.8,8.4,7.7,16.8,12.1,25.1C848.4,294.2,855.2,308.6,866.7,319.1z" title=""></path>
<path id="_x34_88" class="st1 area" d="M676.2,361.5c4.8-12.4,16.3-20.1,28.9-25.1c7.7-3.8,15.4,3.8,20.1,9.7
	c14.5,19.2,26,38.4,42.3,55.8c11.5,13.5,33.7,11.5,41.4,26.9c3.8,6.8,0.9,16.3,5.9,23.1c5.9,6.8,14.5,12.4,24,8.6
	c10.6-3.8,21.2-14.5,31.7-11.5c4.8,2,9.7,8.6,14.5,4.8c9.7-6.8,18.3-10.6,28-14.5c13.5-5.9,12.4-26,5.9-36.6
	c-3.8-4.8-10.6-8.6-14.5-13.5c-9.7-12.4-0.9-24.2,9.7-32.8c2-2-0.9-5.7-2.9-7.7c-0.7-0.5-1.3-1.1-1.8-1.6c-0.4,1.5-1.1,2.9-2,4.6
	c-0.9,2-5.9,0.9-7.7-0.9c-13.5-8.6-21.2-21.2-32.8-31.7c-11.5-10.6-18.3-25.1-26-39.5c-4.2-8.2-8.2-16.5-12.1-25.1
	c-3.1,2.9-7.5,4-12.1,0.9c-9.7-5.7-18.3-13.5-24-23.1c-5.9-10.6-0.9-24.2-4.8-36.6c-6.8-20.1-26.2-15.9-44.1-17.2l0.5,5.3v34
	l-6.4,17.9c0,0.2-9.9,32.2-12.3,40.6c-2.6,8.8-12.4,30.2-17.8,38.3c-3.7,5.7-11.9,11.3-19.2,16.7c-3.3,2.4-6.6,4.6-8.8,6.6
	c-4.4,3.7-9.9,22.7-12.4,35.1c-0.4,1.8-1.8,2.9-3.7,2.9c-0.2,0-0.5,0-0.7-0.2c-0.2,0-0.5-0.2-0.7-0.4l3.8,6.8
	C672.5,379.1,673.1,367.6,676.2,361.5z" title=""></path>
<path id="_x34_90" class="st2 area" d="M978.4,332.6c8.6,2,17.4,2,25.1-0.9c9.7-2.9,18.3,0,28,0c4.8,0,4.8-6.8,2.9-10.6
	c-5.9-13.5-25.1-24-17.4-39.5c2.9-7.7,9-14.3,13.9-21.2c-0.5-0.5-0.9-1.3-1.3-1.8c-8.2-16.7-16.7-32.6-29.1-45.2
	c-13.7,10.8-32.6,18.3-44.1,31.7c-11.5,12.4-27.8,17.4-41.4,24.2c-10.6,4.8-9.7,24-19.2,36.6c-2,2.9-2,7.7-0.9,11.5
	c0.2,0.5,0.4,1.1,0.7,1.6c5.5-0.4,11-2.4,15.7-3.5C935,309.5,955.3,325.8,978.4,332.6z" title=""></path>
<path id="_x34_91" class="st3 area" d="M940.9,470.3c5.9,13.5,24,18.3,37.5,12.4c8.6-3.8,14.5-14.5,23.1-18.3c7.7-3.8,18.3,2,27.8,3.8
	c22.1,4.8,36.6-8.6,46.1-26c2.9-5.9-0.9-12.4-3.8-17.4c-6.8-12.4,6.8-26,0.9-36.6c-11.5-20.1-32.8-31.9-34.6-56.7
	c0-1.5-1.1-2.9-2.7-4.2c-0.4,2.4-1.5,4.2-4,4.2c-9.7,0-18.3-2.9-28,0c-7.7,2.9-16.3,2.9-25.1,0.9c-23.1-6.8-43.4-23.1-67.4-17.4
	c-4.8,1.1-10.3,3.1-15.7,3.5c4.9,10.3,16.8,17.4,13.9,28.6c0.5,0.5,1.3,1.1,1.8,1.6c2,2,4.8,5.9,2.9,7.7
	c-10.6,8.6-19.2,20.1-9.7,32.8c3.8,4.8,10.6,8.6,14.5,13.5c5.1,8.1,7,22,1.5,30.6C931.2,441.9,934.8,456.7,940.9,470.3z" title=""></path>
<path id="_x34_62" class="st3 area" d="M1217.1,444.3c3.8,11.5,19.2,26,34.6,26c7.7,0,14.5-6.8,22.1-8.6c6.8-0.9,11.5,7.7,20.1,2.9
	c8.6-4.8,14.5,9.7,16.3,18.3c2,7.7-0.9,15.4,2,21.2c4.8,8.6,12.4,15.4,21.2,18.3c7.7,2.9,14.5,7.7,18.3,13.5
	c7.7,12.4,14.5,23.1,25.1,30.8c1.5,1.1,3.1,1.3,4.8,1.1c4-10.6,7-26.5,8.1-33.1c0.4-1.8,0.5-3.3,0.7-4.2
	c1.6-8.2,29.8-43.2,38.8-54.2c-2.9-4.9-8.4-13.4-12.6-16.5c-6.8-5.1-18.3-16.7-25.3-23.4c-7-7-3.3-33.5-1.3-44.3
	c-6.8-6-34.2-30.8-42.7-36.2c-10.8-7.1-39.5-37.9-47-47c-8.6-10.3-19.4-37.7-17.4-47.8c0.4-1.5,0.7-3.1,1.1-4.6
	c1.5-5.1,2.4-8.6-1.6-13.5c-9.2,8.6-18.1,17.8-26,29.3c-10.6,13.5-26.9,13.5-40.5,20.1c-2.9,2-4.8,4.8-6.8,7.7
	c-11.5,20.1-7.7,49.1-30.8,56.7c-0.5,0.2-1.1,0.4-1.6,0.5c5.3,16.1,7,33.3,11.3,50.5C1192,425,1211.2,428.9,1217.1,444.3z" title=""></path>
<path id="_x34_58" class="st0 area" d="M1166,486.5c2.9,12.4,16.5,17.4,26.9,25.1c10.6,8.6,19.2,20.1,18.3,34.6c0,1.8,2.9,3.8,3.8,4.8
	c12.4,8.6,27.8,13.5,31.9,26.9c3.8,13.5,0.9,28.9,15.4,39.5c8.8,6.2,18.7,7.9,28.7,8.1c-1.6-2.4-2.4-5.1-2.6-8.4
	c-0.2-5.5,2.2-12.1,7-13.7c3.8-1.3,11-1.1,21.4-0.5c3.5,0.2,7,0.4,9.5,0.4c25.4,0,29.3-3.5,29.7-4.6c4.4-8.6,10.3-15.2,19.4-21.2
	c2.2-1.5,4.2-5.3,6-9.9c-1.6,0.2-3.3,0-4.8-1.1c-10.6-7.7-17.4-18.3-25.1-30.8c-3.8-5.7-10.6-10.6-18.3-13.5
	c-8.6-2.9-16.3-9.7-21.2-18.3c-2.9-5.9,0-13.5-2-21.2c-2-8.6-7.7-23.1-16.3-18.3s-13.5-3.8-20.1-2.9c-7.7,2-14.5,8.6-22.1,8.6
	c-10.8,0-21.6-7.1-28.6-15.4c-14.5,11.2-38.4,12.6-53.3,8.6c-1.8-0.4-3.8-0.9-5.7-1.3C1164,470.3,1164.9,478.5,1166,486.5z" title=""></path>
<path id="_x34_59" class="st3 area" d="M742.6,599.1c-2-4.8,0.9-11.5,3.8-12.4c23.1-0.9,46.1,0,67.4-13.5c13.5-7.7,18.3-34.6,2.9-39.5
	c-15.4-4.8-39.5-3.8-44.3-21.2c-4.8-13.5-17.4-16.3-26.9-22.1c-18.3-12.3-31.9-30.8-52.7-32l-37.2,102.3l-2,141.3h95.7l2.9,2
	l0.5,2.7C761.7,671.1,757.8,633.2,742.6,599.1z" title=""></path>
<path id="_x34_67" class="st1 area" d="M1065,462.6c2.9,8.6,11.5,17.2,6.8,23.1c-10.6,12.4-13.5,28.9-5.9,41.4
	c12.4,21.2,25.1,52.9,52.9,47.2c12.4-2.9,17.4-19.2,29.8-23.1c21.2-5.9,35.7,15.4,48.1,29.8c4.8,4.8,18.3,5.9,23.1-0.9
	c4.8-6.4,6.8-13.9,7.1-21.6c-4-2.2-8.1-4.6-11.9-7.1c-0.9-0.9-3.8-2.9-3.8-4.8c0.9-14.5-7.7-26-18.3-34.6
	c-10.6-7.7-24.2-12.4-26.9-25.1c-1.1-8.1-2-16.3-1.8-24.5c-23.1-5.7-45.4-12.3-68.5-2.6c-10.3,4-17.2-3.5-24.7-10.1
	c-1.8,2.7-3.8,5.3-6.2,7.5C1064.4,458.9,1064.4,460.6,1065,462.6z" title=""></path>
<path id="_x35_10" class="st0 area" d="M845.5,592.5c10.6-2.9,15.4-16.3,26-15.4c7.7,0.9,16.3,5.9,24,2.9c8.6-3.8,19.2-11.5,14.5-22.1
	c-8.6-17.4-22.1-35.7-19.2-52.9c2-12.4,15.4-23.1,11.5-38.4c-1.3-6.4-4.2-12.6-8.2-18.3c-2.9,1.6-6,3.5-9.2,5.7
	c-4.8,3.8-9.7-2.9-14.5-4.8c-10.6-2.9-21.2,7.7-31.7,11.5c-0.5,0.2-1.1,0.4-1.5,0.5c1.1,19.2,5.7,37,22.7,49.4
	c-3.1,15.7-17.8,30.8-34,35.3c1.5,9.9-3.7,22.5-12.3,27.3c-1.1,0.7-2.4,1.5-3.5,2C821.2,583.7,829.9,596.4,845.5,592.5z" title=""></path>
<path id="_x34_72" class="st0 area" d="M836.9,859.1c8.6-8.6-2.9-23.1-10.6-33.7c-5.9-7.7-1.8-16.3,2.9-21.2
	c12.4-15.4,29.8-25.1,38.4-42.3c6.8-13.5-5.9-26-15.4-35.7c-3.8-3.8-5.9-12.4-10.6-15.4c-26-13.5-53.8-2-80.9-2
	c-2.6,0.2-5.1,0-7.7-0.7v0.4l-0.9,165.1l0.5,10.4l30.8,4.4l2.9,0.9l2.9,2l4.9,5.5l3.8,6.2c0.5-1.6,0.9-3.3,1.1-4.8
	C801.2,874.4,824.5,872.6,836.9,859.1z" title=""></path>
<path id="_x36_35" class="st1 area" d="M923.5,725.2c6.8-4.8,11.5-17.4,21.2-10.6c12.6,10.3,32.2,20.5,45.4,12.3
	c-14.6-10.4-22.7-34.8-28-52.7c-4.8-19.2-0.9-39.5-13.5-56.7c-7.7-11.5-20.1-22.1-34.6-16.3c-11.5,5.9-17.4,18.3-22.1,30.8
	c-0.9,2.9-6.8,5.9-10.6,2.9c-6.8-3.8-16.3-4.8-22.1,0.9c-0.9,2-2,5.9-3.8,8.6c-4.8,7.7-16.3,13.5-10.6,24c2.9,4.8,8.6,5.9,12.4,9.7
	c0.9,2,0.9,5.9,0,6.8c-2.9,2-7.7,0.9-11.5,0.9c-4.8,0.9-4.8,6.8-3.8,9.7c1.3,2.2,3.1,4,4.4,5.9c24.5,1.1,47,7.9,68.8,23.1
	C917.6,726.2,920.6,726.2,923.5,725.2z" title=""></path>
<path id="_x34_83" class="st3 area" d="M1133.3,606.8c12.4,7.7,12.4,21.2,15.4,34.6c0,3.8,4.8,8.6,7.7,8.6c27.8-2,40.5,22.1,56.7,40.5
	c7.7,7.7,19.2,12.4,26.9,21.2c0.9,0.9,4.8,0.9,5.9,0c5.9-6.8,11.5-15.4,18.3-17.4c7.7-3.8,8.6,11.5,10.6,19.2
	c2.4,6.6,10.1,9.9,17.8,9.5c-1.3-1.6-2.4-3.1-3.8-4.8c-3.5-4.2-4.9-8.4-4.4-12.6c0.9-8.1,8.6-14.8,16.7-20.9
	c8.6-6.4,9.2-18.1,9.5-26.5c0.2-3.1,0.2-5.7,0.7-7.7c1.3-4.9,0.2-15.9-10.4-18.7c-4.2-1.1-7.5-3.3-9.5-6.6c-10.1-0.2-20-2-28.7-8.1
	c-14.5-10.6-11.5-26-15.4-39.5c-2.7-9.3-11-14.5-20-19.8c-0.4,7.7-2.4,15.4-7.1,21.6c-4.8,6.8-18.3,5.9-23.1,0.9
	c-12.4-14.5-26.9-35.7-48.1-29.8c-12.4,3.8-17.4,20.1-29.8,23.1c-4.8,0.9-9,0.9-13,0c-2.2,4-7.3,5.1-9.2,7.7
	c-4.8,7.7,6.8,13.5,11.5,21.2c0.9,2,0,3.8,0,5.9c0,0.2-0.2,0.2-0.2,0.2c1.3-0.9,2.6-2,4-3.1C1118.8,602.1,1127.6,602.1,1133.3,606.8
	z" title=""></path>
<path id="_x32_74" class="st3 area" d="M1255.5,757.1c-3.8,17.2-8.6,29.8-20.1,44.3c-3.8,3.8,0,10.6,4.8,11.5c15.4,2,26,13.5,38.4,20.1
	c3.8,0.9,8.6,0,12.4-0.9c0.5-0.4,1.3-0.7,1.8-1.3c-0.7-0.9-1.3-1.6-1.8-2.7c-4.8-9.5,6.8-19.2,2.9-26c-8.2-19,11.2-32.4,22.3-46.1
	c-3.7-2.2-6.4-5.1-8.2-8.6c-1.1-2.2-2.2-4.2-3.5-6.4c-0.9,0.5-1.8,1.1-2.9,1.5C1284.5,746.5,1259.4,738.8,1255.5,757.1z" title=""></path>
<path id="_x34_52" class="st2 area" d="M961.9,936.1c-2,1.8-6.8,1.8-10.6,0c-13.5-10.6-18.3-29.8-35.7-31.9c-4.8-0.9-6.8,9.7-10.6,6.8
	c-8.6-4.8-16.3-18.3-25.1-12.4c-14.5,8.6-31.7,8.6-38.4-6.8c-4.4-9.7-4.2-20.9-7.3-30.2c-12.8,11.3-33.1,14.5-35,37
	c-0.2,1.6-0.5,3.1-1.1,4.8l0.2,0.2l2.6,7.5l2.6,15.4l0.9,2.9l2.6,2.6l3.5,1.5l2.9,0.5h3.5l11-1.5h3.5l3.5,0.9l2.9,2.6l5.9,9.9
	l9.3,11l11,11l2,2.6l1.5,3.5l0.5,4l-0.5,3.5l-2.6,2.9l-2.6,2.6l-2.6,2.9l-0.5,4l0.5,2.6l3.5,7.9l6,6.4l1.5,3.5l0.9,0.5l5.5,17.4
	l0.5,4.4l2.6,6.4l1.5,2.6l2,2l4,2.9l4,2.9l11.3,3.5l-0.5-0.5h0.5l0.5-0.5l1.5-2v2.6l21.4,2l6.4-2l2.6-2l2.6-2l2.6-2.9l0.5-3.5
	l-0.5-4.9l-4-6.4l-1.5-4l0.9-5.9l4.4,0.9l12.4,7h20.3l5.5,2.6l5.5-2l19.4,2l6-1.5l5.5-4.4l4-6l1.5-7v-3.5l-1.5-7l-0.5-3.5l0.9-4
	l2.6-7l0.5-4.4l-1.5-15.4l-2-7.5l-2.6-6.4l-4.4-4.9l-6-4.9l-4.9-4.9l-2.6-7.5l0.9-2l2-2.6l1.5-2.6l-3.5-2.9l0.9-2.6
	C987.5,918,974,925.5,961.9,936.1z" title=""></path>
<path id="_x34_85" class="st3 area" d="M1048,888.7l-7.5-4.4l-9-2l-7.9-3.5l1.8-6.6c-1.8-1.6-3.1-3.7-3.8-6.2
	c-4.8-18.3-17.4-26.9-29.8-39.5c-0.9-2-0.9-5.9,0-7.7c2.9-4.8,10.6-8.6,10.6-11.5c0-22.1,7.7-41.4,18.3-60.6
	c2.4-4.4,1.5-10.1-1.5-14.8c-5.1,0.4-10.1,0.5-14.8,0.4c-5.3-0.2-10.1-2-14.3-5.1c-13,8.2-32.8-2-45.4-12.3
	c-9.7-6.8-14.5,5.9-21.2,10.6c-2.9,0.9-5.9,0.9-8.6-0.9c-21.8-15.2-44.3-21.8-68.8-23.1c1.5,2.2,2.6,4.6,1.5,7.7
	c-0.7,1.8-1.8,3.3-3.1,4.4c3.1,3.8,4.9,9.9,7.9,13c9.7,9.7,22.1,22.1,15.4,35.7c-8.6,17.4-26,26.9-38.4,42.3
	c-4.8,4.8-8.6,13.5-2.9,21.2c7.7,10.6,19.2,25.1,10.6,33.7c-0.7,0.9-1.6,1.6-2.6,2.4c3.1,9.3,2.9,20.7,7.3,30.2
	c6.8,15.4,24,15.4,38.4,6.8c8.6-5.9,16.3,7.7,25.1,12.4c3.8,2.9,5.9-7.7,10.6-6.8c17.4,2,22.1,21.2,35.7,31.9
	c3.8,1.8,8.6,1.8,10.6,0c12.1-10.6,25.6-18.1,38.1-13.7l0.7-2l2.6-4l0.9-1.5l15.9-15.4l3.5-0.9l15.9,2.6h4.9l5.5-5.9L1048,888.7z" title=""></path>
<path id="_x34_82" class="st0 area" d="M1069.7,732.9c0,2.9,4.8,4.8,5.9,4.8c12.4-2,30.8,2,25.1,16.5c-5.9,14.5-19.2,29.8-10.6,45.2
	c5.9,10.6,17.4,19.2,31.7,14.5c9.7-2.9,14.5-11.5,22.1-16.3c5.9-3.8,13.5-2,15.4-6.8c6.8-19.2,12.4-37.5,31.7-48.1
	c4.8-2.9,2.9-8.6,0.9-10.6c-17.4-25.1-42.3-46.1-39.5-76c0.4-2.2,0.5-4.6,1.1-6.8c-2.4-1.6-4.9-4.8-4.9-7.5
	c-2.9-13.5-2.9-26.9-15.4-34.6c-5.9-4.8-14.5-4.8-21.2-0.9c-1.5,1.1-2.7,2.2-4,3.1c-4,7.5-17.2,11.3-14.3,20c0.9,2,2.9,3.8,2,6.8
	c-2.9,4.8-10.6,6.8-7.7,12.4c4.8,9.7,19.2,15.4,16.3,26.9c-2.9,11.5-19.2,10.6-24,20.1c-4.6,9-10.8,15.9-18.1,21.2
	C1067.5,719.9,1071,725.6,1069.7,732.9z" title=""></path>
<path id="_x34_65" class="st1 area" d="M1117.9,838.9c-2.2-6.6,1.1-15.6-0.2-24c-12.6,2.2-22.5-5.9-27.8-15.4
	c-8.6-15.4,4.8-30.8,10.6-45.2c5.9-14.5-12.4-18.3-25.1-16.5c-0.9,0-5.9-2-5.9-4.8c1.3-7.3-2.2-13-7.5-16.3
	c-12.6,9.3-28.2,13.7-43,15c2.9,4.8,4,10.4,1.5,14.8c-10.6,19.2-18.3,38.4-18.3,60.6c0,2.9-7.7,6.8-10.6,11.5c-0.9,2-0.9,5.9,0,7.7
	c12.4,12.4,25.1,21.2,29.8,39.5c0.7,2.6,2,4.6,3.8,6.2l0.2-0.4l8.4-5.5l10.4,1.5l4.9-2.6h4.9l4.9,1.5l6,0.9h1.5l2.6-2h2l2,0.9
	l2.9,4.4l2,1.5l4-0.9l2.9-2.6l2.6-0.5l2.6,4l-0.9,1.5l-0.5,0.9l-0.5,4.4l4.4-3.5l4.4-4.9l3.5-1.5l2.6,12.4l2.6,4.9l4.4,2.9l5.9-0.9
	l-0.5,6l-1.5,3.5l-8.4,11l-5.5,10.4l-2,4.4l-3.5-5.5l-4-3.5l-4.9-2l-6.4-0.9l-4-1.5l-11.9-6.4l-6-1.5l-5.5,0.9l-9.3,3.5h-6.4
	l-11.9-2l-4.4,1.5l-3.5,5.5l9.3,2.6l7.5,4l5.5,7l2,11.3l4,3.5l18.9,11.5l7,2.6l4.9,0.5l2.9,3.5l2.6,4.4l5.5,3.5l4.9-0.9l4-4l3.5-5.5
	l1.5-6l3.5,2.6v2l-0.9,2l-0.5,2.9v4.9v2l0.9,2l4.4,2.9l0.5,0.9l-0.5,13.9l2.9,2.9l7.5,0.5l6-0.9l11-4.9l6-0.9l2.6,0.9l4.2,2.7
	c1.1-15.6-3.7-32.8-2.4-47.8c0.9-10.6,13.5-14.5,16.3-24.2c2.9-10.6-5.9-16.3-11.5-24c-2.9-2.9-4.8-9.7,0.9-13.5
	c9.7-5.7,6.8-15.4,12.4-24c0.4-0.4,0.7-0.7,0.9-1.1C1147.2,851.2,1125.2,857,1117.9,838.9z" title=""></path>
<path id="_x34_63" class="st2 area" d="M1318.1,851.4c-7-9.7-18.9-12.1-25.3-20.5c-0.5,0.4-1.1,0.7-1.8,1.3c-3.8,0.9-8.6,2-12.4,0.9
	c-12.4-6.8-23.1-18.3-38.4-20.1c-4.8-0.9-8.6-7.7-4.8-11.5c11.5-14.5,16.3-26.9,20.1-44.3c3.8-18.3,28.9-10.6,46.1-14.5
	c1.1-0.4,2-0.9,2.9-1.5c-3.5-6-7.5-11.9-12.1-17.9c-7.5,0.4-15.4-2.7-17.8-9.5c-2-7.7-2.9-23.1-10.6-19.2
	c-6.8,2-12.4,10.6-18.3,17.4c-0.9,0.9-4.8,0.9-5.9,0c-7.7-8.6-19.2-13.5-26.9-21.2c-16.3-18.3-28.9-42.3-56.7-40.5
	c-0.9,0-1.8-0.4-2.7-1.1c-0.4,2.4-0.7,4.6-1.1,6.8c-2.9,29.8,22.1,51.1,39.5,76c2,2,3.8,7.7-0.9,10.6
	c-19.2,10.6-25.1,28.9-31.7,48.1c-2,4.8-9.7,2.9-15.4,6.8c-7.7,4.8-12.4,13.5-22.1,16.3c-1.3,0.5-2.6,0.7-3.8,0.9
	c1.3,8.6-2.2,17.4,0,24c7.3,18.1,29.1,12.3,46.1,13.2c17.8-21.8,52.4-17.8,73.2-2.6c13.2,9.9,20.1,24.2,32.2,34.6
	c5.7-6.8,17.4-9.2,25.6-6.8C1304.6,879.2,1326.7,862.9,1318.1,851.4z" title=""></path>
<path id="_x34_66" class="st0 area" d="M1346,935c-25.1-9.7-51.1-15.4-74.1-30.8c-4.8-2.9-6.8-10.6-4.8-16.3c0.5-1.5,1.3-2.7,2.4-3.8
	c-12.1-10.4-18.9-24.7-32.2-34.6c-21.2-15.4-56.7-19.2-74.1,3.8c-5.9,8.6-2.9,18.3-12.4,24.2c-5.9,3.8-3.8,10.6-0.9,13.5
	c5.9,7.7,14.5,13.5,11.5,24c-2.9,9.7-15.4,13.5-16.3,24.2c-1.3,15,3.7,32.2,2.4,47.8l0.2,0.2l2.9,0.9l3.5-0.5l6.4-1.5l2.9-0.5
	l6.4,0.5l2.6,0.5l2.9,1.5l2.9,2l1.5,1.5l0.5,1.5l2,2.9l2.6,6v15.9l0.9,5.5l7.9,12.4l9.3,2l10.4-4.4l91.2-60l10.4-3.5l11-2l10.4,1.5
	l7.5,2.9l2.6,0.9l4.4,2.9l1.5,3.5l0.4,1.3c0.4-0.2,0.7-0.4,1.1-0.4c0.4,0,10.4-1.5,11.7-11.7c0-0.2,1.1-7.9,3.5-15.7
	C1362.3,945.5,1354.9,938.9,1346,935z" title=""></path>
<path id="_x34_70" class="st1 area" d="M1459.8,982.4c0-2.2-1.6-51.4-1.6-56.4c0-4.8,0-19.6-13.2-28.4c-15.9-10.6-23.1-25.1-23.1-34.6
	c0-11,9.3-15.2,23.6-21.6c3.5-1.5,4.9-3.8,4.4-7.3c-0.7-6.4-7-13-10.3-13.7c-8.2-1.6-14.5-9.5-19.4-24c-1.8-5.5-3.1-5.9-13.9-7.5
	c-2.7-0.4-5.9-0.9-9.7-1.6c-6.6-1.1-11.9-4.8-15-10.3c-5.1-8.8-4-20.5-2.7-24.3c1.3-4-0.4-15.6-4-19.4c-1.5-1.5-3.7-2-6-1.6
	c-2.7,0.4-7.9,2.6-12.8,12.3l-2,4c-5.5,11-6.4,13.2-14.1,12.8h-2c-8.8,0-16.1-1.6-21.6-4.9c-11.2,13.7-30.6,27.1-22.3,46.1
	c3.8,6.8-7.7,16.5-2.9,26c5.9,10.6,19.2,12.4,26.9,23.1c8.6,11.5-13.5,27.8-23.1,26c-9.7-2.9-24.2,0.9-27.8,10.6
	c-2,5.9,0,13.5,4.8,16.3c23.1,15.4,49.1,21.2,74.1,30.8c9,3.7,16.3,10.4,23.1,17.8c2.2-7.3,5.7-14.8,10.4-16.5
	c2.6-0.9,5.3-0.2,7.3,2c3.5,3.5,8.2,7.1,13.7,11.3c4.2,3.3,9.2,7.1,14.3,11.5c11,9.3,22.1,14.3,22.1,14.3l23.1,8.6
	C1459.8,983.3,1459.8,982.6,1459.8,982.4z" title=""></path>
<path id="_x34_57" class="st2 area" d="M847.5,709c1.8-5.9-2.9-8.6-5.9-13.5c-0.9-2.9-0.9-8.6,3.8-9.7c3.8,0,8.6,0.9,11.5-0.9
	c0.9-0.9,0.9-4.8,0-6.8c-3.8-3.8-9.7-4.8-12.4-9.7c-5.9-10.6,5.9-16.3,10.6-24c1.8-2.9,2.9-6.8,3.8-8.6c5.9-5.9,15.4-4.8,22.1-0.9
	c3.8,2.9,9.7,0,10.6-2.9c4.8-12.4,10.6-25.1,22.1-30.8c14.5-5.9,26.9,4.8,34.6,16.5c12.4,17.4,8.6,37.5,13.5,56.7
	c6.8,23.1,18.3,56.7,42.3,57.8c26.9,0.9,60.6-6.8,76-36.6c4.8-9.7,21.2-8.6,24-20.1c2.9-11.5-11.5-17.4-16.3-26.9
	c-2.9-5.9,4.8-7.7,7.7-12.4c0.9-2.9-0.9-4.8-2-6.8c-2.9-8.6,10.6-12.4,14.5-20.1c0-2,0.9-3.8,0-5.9c-4.8-7.7-16.3-13.5-11.5-21.2
	c1.8-2.7,7-3.7,9.2-7.7c-6.6-1.6-11.9-5.5-16.8-10.6c-13.9,9.2-31.9,12.6-47.2,6.8c-18.3-6.8-36.6,4.8-54.9,4.8
	c-14.5-0.9-39.5-3.8-37.5-24.2c0-8.6,8.6-16.3,9.7-24c0-8.6-12.4-9.7-19.2-14.5c-8.6-6.8-12.4-19.2-3.8-26.9
	c3.8-2.9,7.7-5.7,11.5-6.8c-2.9-2.4-5.1-5.1-6.8-8.6c-6-13.5-9.7-28.4-20.7-36.8c-1.6,2.6-4,4.8-7.1,6c-6.6,2.6-12.6,5.1-18.9,8.8
	c4,5.5,7,11.9,8.2,18.3c3.8,15.4-9.7,26-11.5,38.4c-2.9,17.4,10.6,35.7,19.2,52.9c4.8,10.6-5.9,18.3-14.5,22.1
	c-7.7,2.9-16.3-1.8-24-2.9c-10.6-0.9-15.4,12.4-26,15.4c-15.6,3.8-24.3-8.8-35.3-17.2c-20.1,11.3-42.1,10.4-63.9,11.3
	c-2.9,0.9-5.9,7.7-3.8,12.4c15.4,33.9,19.2,71.9,10.3,107.8l0.2,1.3c2.6,0.7,5.1,0.9,7.7,0.7c26.9,0,54.9-11.5,80.9,2
	c0.9,0.5,1.8,1.5,2.6,2.4C845.5,712.1,846.6,710.8,847.5,709z" title=""></path>
<path id="_x32_15" class="st0 area" d="M939.8,512.5c6.8,4.8,19.2,5.9,19.2,14.5c-0.9,7.7-9.7,15.4-9.7,24c-1.8,20.1,23.1,23.1,37.5,24
	c18.3,0,36.6-11.5,54.9-4.8c15.4,5.9,33.3,2.4,47.2-6.8c-9.3-10.1-16.3-24.9-23.2-36.4c-7.7-12.4-4.8-28.9,5.9-41.4
	c4.8-5.9-3.8-14.5-6.8-23.1c-0.5-2-0.5-3.7-0.2-5.3c-8.8,9.2-20.3,14.3-35.5,11.2c-9.7-2-20.1-7.7-27.8-3.8
	c-8.6,3.8-14.5,14.5-23.1,18.3c-10.1,4.2-22.7,2.7-30.9-3.8c-3.8,0.9-7.7,3.8-11.5,6.8C927.3,493.3,931.2,505.8,939.8,512.5z" title=""></path>
<path id="_x34_79" class="st2 area" d="M860,510.7c-17-12.6-21.6-30.2-22.7-49.4c-9,2.7-17-2.7-22.5-9.2c-4.8-6.8-2-16.3-5.9-23.1
	c-7.7-15.4-29.8-13.5-41.4-26.9c-16.3-17.4-27.8-36.6-42.3-55.8c-4.8-5.9-12.4-13.5-20.1-9.7c-12.4,4.8-24,12.4-28.9,25.1
	c-3.1,6-3.7,17.6-10.1,21.2l0.9,1.5l2,2.9l5.5,3.5l2,2l1.5,2.9l1.5,5.9l0.9,2.9l4.9,4.9l11.3,9l4,5.9l0.9,7.5l-2,7.5l-7,19.2
	c20.9,1.3,34.4,19.8,52.7,32c9.7,5.9,22.1,8.6,26.9,22.1c4.8,17.4,28.9,16.3,44.3,21.2c5.7,1.8,8.6,6.4,9.3,12.1
	C842.2,541.3,856.9,526.3,860,510.7z" title=""></path>
<path id="_x34_95" class="st0 area" d="M1095.7,459.6c25.1-10.6,49.1-2,74.1,3.8c14.8,3.8,38.8,2.6,53.3-8.6c-2.9-3.5-4.9-7.1-6.2-10.6
	c-5.9-15.4-25.1-19.2-28.9-36.6c-4.4-17.2-5.9-34.4-11.3-50.5c-15,3.8-31.5-2.7-44.5-10.1c-13.5-7.7-15.4-25.1-21.2-39.5
	c-2-2.9-4.8-4.8-7.7-5.9c-4.8-2.9-9.7-4.8-15.4-7.7c-17.4-6.8-29.8-21.2-49.1-26.9c-3.1-1.5-6.2-4.4-8.2-6.8
	c-4.9,7-11,13.7-13.9,21.2c-7.7,15.4,11.5,26,17.4,39.5c0.9,1.8,1.5,4.4,1.1,6.4c1.6,1.1,2.7,2.6,2.7,4.2
	c1.8,25.1,23.1,36.6,34.6,56.7c5.9,10.6-7.7,24-0.9,36.6c2.9,4.8,6.8,11.5,3.8,17.4c-1.5,2.6-2.9,4.9-4.6,7.3
	C1078.5,456.2,1085.5,463.7,1095.7,459.6z" title=""></path>
<path id="_x34_94" class="st1 area" d="M1120.8,258.5c2-0.9,6.8-3.8,5.9-6.8c-8.6-25.1,6.8-39.5,19.2-58.8c5.3-9-4-19-14.3-26.4
	c0,0.2-0.2,0.2-0.2,0.4c-26,6.8-48.1-6.8-71.2-17.4c-25.1-12.4-37.5,23.1-44.3,43.4c-2.9,8.4-8.6,14.6-15.6,20.1
	c12.4,12.6,20.9,28.6,29.1,45.2c2,2.9,5.9,6.8,9.7,8.6c15.6,4.8,26.9,15.2,39.7,22.5c0.4-2.9,1.1-5.5,2.6-8.1
	C1090.1,268.2,1107.3,268.2,1120.8,258.5z" title=""></path>
<path id="_x32_69" class="st2 area" d="M1279.1,239.4c-5.9-5.1-16.3-15.4-26.2-25.4c-9.5-9.5-19.2-19.2-23.2-22.5
	c-3.3-2.7-9.9-8.6-17.6-15.6c-10.1-9.2-22.5-20.3-30.8-26.7c-7.5,7-16.5,11.7-27.1,8.2c-6.8-2-10.6-9.7-17.4-13.5
	c-2.9-2-3.8-5.9-6.8-6.8c-3.8-2.9-11.5-3.8-12.4-0.9c-0.9,9.7,3.8,14.5,12.4,21.2c1.8,0.9,1.8,7.5,1.1,9.3
	c10.3,7.3,19.4,17.4,14.3,26.4c-12.4,19.2-27.8,33.7-19.2,58.8c0.9,2.9-3.8,5.9-5.9,6.8c-13.5,9.7-30.8,9.7-39.5,23.1
	c-1.5,2.4-2.2,5.1-2.6,8.1c2.9,1.6,6,3.3,9.3,4.6c5.9,2.9,10.6,4.8,15.4,7.7c2.9,0.9,5.9,2.9,7.7,5.9c5.9,14.5,7.7,31.9,21.2,39.5
	s30.8,14.5,46.1,9.7c23.1-7.7,19.2-36.6,30.8-56.7c2-2.9,3.8-5.9,6.8-7.7c13.5-6.8,29.8-6.8,40.5-20.1c7.7-11.5,16.7-20.7,26-29.3
	C1281.5,241.6,1280.6,240.5,1279.1,239.4z" title=""></path>
<path id="_x34_55" class="st3 area" d="M787.8,195.9c3.8,12.4-0.9,26,4.8,36.6c5.9,9.7,14.5,17.4,24,23.1c8.6,5.9,16.3-2.9,16.3-11.5
	c0.9-13.5,3.8-33.7,20.1-36.6c2,0,2.9-4.8,2.9-7.7c13.5,6.8,22.1-5.9,26.9-16.3c3.8-9.7-2.9-17.4-6.8-26c-7.7-18.3,7.7-38.4,24-44.3
	c9.7-3.8,19.2-2,28.9-2.9c9.7-2,11.5-12.4,18.3-18.3c2.9-2,7.7-2,11.5-4.8c13.4-7.7,0-23.1-4.8-32.8c-1.8-4.8-1.5-9.7-0.7-14.6
	c-4-1.5-7.5-3.3-9.9-5.3c-9.3-8.1-19.2-10.8-31.9-9.2c-11.9,1.6-54.9,1.8-71.9,0c-15.4-1.5-42.5,1.6-51.3,13.4
	c-8.1,10.6-20.9,22.5-26.2,27.3l5.7,8.4l5.1,10.3c0.9,2,2.9,6.6,2.9,9.2c0.2,0.7,1.5,3.1,2.2,4.4c0.5,0.9,1.1,1.8,1.5,2.7
	c1.1,2.4,3.5,9.7-0.7,13c-0.7,0.7-3.7,6-6,10.3l-0.5,1.1l-1.1,0.5c-3.1,1.5-18.7,8.4-21.6,9.3c-0.5,0.2-1.5,1.8-1.3,2.6
	c3.1,3.7,2.7,10.6-0.9,15c-2.6,3.1-7.7,3.7-11.2,3.5l-2.2,3.7l3.7,4.6l4.9,7.3l0.7,7.1C761.5,179.9,781.1,175.7,787.8,195.9z" title=""></path>
<line id="LINE_30" class="st4 area" x1="645.1" y1="412.8" x2="762.9" y2="447.2" title=""></line>
<line id="LINE_31" class="st4 area" x1="645.1" y1="485.1" x2="869.8" y2="544.8" title=""></line>
<line id="LINE_32" class="st4 area" x1="1272.9" y1="785.5" x2="1334.1" y2="710.2" title=""></line>
<line id="LINE_33" class="st4 area" x1="713.9" y1="801.2" x2="798.8" y2="804.5" title=""></line>
<g id="G_34" class="area" title="">
	<path id="PATH_35" d="M828.1,97h-1.3c-0.9,0-1.8-0.5-2.9-1.5c-0.5-0.5-1.3-1.5-2.2-2.7c0,1.3-0.2,2.2-0.7,2.7
		c-0.9,1.1-2.7,1.6-5.5,1.6h-3.7c-4.4,0-6.8-1.3-6.8-3.8c0-0.9,0.4-1.8,0.9-2.7c0.2-0.2,0.4-0.4,0.4-0.4c0.2,0,0.2,0,0.2,0.2
		c0,0.2,0,0.2,0,0.4c-0.2,0.7-0.4,1.1-0.4,1.6c0,0.7,0.4,1.3,0.9,1.6c0.9,0.7,2.4,1.1,4.4,1.1h3.7c2,0,3.5-0.2,4.2-0.4
		c0.9-0.4,1.3-0.9,1.3-1.6c0-0.7-0.4-1.6-1.3-2.7c-0.5-0.5-1.3-1.5-2.4-2.4c-0.9-0.7-1.3-1.3-1.3-1.3c0-1.3,0.2-2,0.5-2.6
		c0-0.2,1.3-0.5,3.8-1.5c2.6-0.9,4.8-1.6,6.4-2.2c0,0.2-0.2,0.9-0.5,2c-2,0.5-4.9,1.6-9,3.1c1.8,1.6,3.8,4,6.2,7.1
		c0.9,1.1,1.6,1.8,2.2,2.2c0.4,0.2,1.1,0.4,1.8,0.4h0.7V97H828.1z" class="area" title=""></path>
	<path id="PATH_36" d="M845.1,97H844c-1.3,0-2-0.5-2.6-1.5c-0.4,1.1-1.3,1.5-2.4,1.5c-1.1,0-1.8-0.5-2.4-1.5
		c-0.5,1.1-1.3,1.5-2.4,1.5c-1.3,0-2.2-0.5-2.7-1.5c-0.7,1.1-1.6,1.5-2.9,1.5h-1.3v-2.2h1.5c1.3,0,2.2-0.7,2.4-2.2
		c0-0.4,0.2-0.5,0.4-0.5s0.2,0.2,0.4,0.5c0.2,1.5,0.9,2.2,2.4,2.2c1.3,0,2.2-0.7,2.2-2.2c0-0.4,0.2-0.5,0.4-0.5s0.4,0.2,0.4,0.5
		c0.2,1.5,0.9,2.2,1.8,2.2c1.3,0,2.2-0.7,2.2-2.2c0-0.4,0.2-0.5,0.4-0.5s0.4,0.2,0.4,0.5c0.2,1.5,0.9,2.2,2.2,2.2h1.1V97H845.1z
		 M836.5,87.9l-1.3,1.3l-1.3-1.3l1.3-1.3L836.5,87.9z M838.2,84.9l-1.3,1.3l-1.3-1.3l1.3-1.3L838.2,84.9z M839.8,87.9l-1.3,1.3
		l-1.3-1.3l1.3-1.3L839.8,87.9z" class="area" title=""></path>
	<path id="PATH_37" d="M858.1,97H857c-0.9,0-1.8-0.5-2.6-1.5c-0.5,1.5-1.1,2.2-1.6,2.2c-0.5,0-1.5-0.4-2.6-0.9
		c-0.9-0.5-1.6-1.1-2-1.5c-0.9,1.1-1.8,1.6-2.7,1.6h-1.3v-2.2h1.1c0.9,0,1.6-0.4,2.4-1.1c0.5-0.5,1.1-1.3,1.8-2
		c0.7-0.7,1.3-1.1,1.8-1.1c0.7,0,1.3,0.4,1.8,1.1c0.4,0.4,0.7,1.1,1.6,2c0.5,0.7,1.3,1.1,2,1.1h1.1V97H858.1z M853.2,95.6
		c0-0.5-0.2-1.1-0.5-1.8c-0.4-0.7-0.9-1.1-1.6-1.1c-0.5,0-1.3,0.5-2,1.5c0.2,0.2,0.7,0.5,1.6,1.1c0.9,0.5,1.6,0.7,2.2,0.7
		C853.2,95.7,853.2,95.7,853.2,95.6z" class="area" title=""></path>
	<path id="PATH_38" d="M862.5,93.4c0,2.4-1.3,3.7-3.7,3.7h-1.5v-2.2h1.3c1.8,0,2.7-0.4,2.7-0.9s-0.4-1.3-1.3-2.2l0.7-1.8
		c0-0.2,0.2-0.2,0.2-0.2s0.2,0.2,0.4,0.4C862.2,91,862.5,92.3,862.5,93.4z M861.1,101l-1.5,1.5l-1.5-1.5l1.5-1.5L861.1,101z
		 M864.2,101l-1.5,1.5l-1.5-1.5l1.5-1.5L864.2,101z" class="area" title=""></path>
	<path id="PATH_39" d="M878.6,97h-0.7c-0.7,0-1.3-0.2-1.8-0.7c-0.4-0.4-0.7-0.7-1.1-1.5c-0.4,0.7-0.9,1.3-1.5,1.6
		c-0.7,0.4-1.6,0.5-3.1,0.5c-2.6,0-3.8-0.9-3.8-2.7c0-0.5,0.2-1.3,0.5-1.8c0.2-0.2,0.2-0.4,0.4-0.4s0.2,0.2,0.2,0.4
		c0,0.2,0,0.2,0,0.5c0,0.2,0,0.4,0,0.5c0,1.1,0.9,1.6,2.7,1.6c2.6,0,3.8-0.5,3.8-1.5c0-0.5-0.7-2.6-2.2-6l0.7-1.5
		c0.2-0.2,0.2-0.4,0.2-0.4s0.2,0.2,0.2,0.4c0.5,1.5,1.5,3.7,2.6,6.6c0.5,1.5,1.3,2.2,2.4,2.2h0.5L878.6,97L878.6,97z" class="area" title=""></path>
	<path id="PATH_40" d="M882.8,93.4c0,2.4-1.3,3.7-3.7,3.7h-1.5v-2.2h1.3c1.8,0,2.7-0.4,2.7-0.9s-0.4-1.3-1.3-2.2l0.7-1.8
		c0-0.2,0.2-0.2,0.2-0.2s0.2,0.2,0.4,0.4C882.5,91,882.8,92.3,882.8,93.4z M882.8,85.1l-1.5,1.5l-1.5-1.5l1.5-1.5L882.8,85.1z" class="area" title=""></path>
	<path id="PATH_41" d="M887.2,94.8c0,0.7-0.2,1.5-0.5,2c-0.2,0.4-0.4,0.5-0.4,0.5s-0.2-0.2-0.2-0.7c0-2.2-0.4-7.3-1.1-15.6l1.5-1.5
		c0.2-0.2,0.2-0.2,0.2-0.2s0,0.2,0,0.4C887.2,82.2,887.2,87.1,887.2,94.8z" class="area" title=""></path>
</g>
<g id="G_42" class="area" title="">
	<path id="PATH_43" d="M937.8,148.5c0,0.2,0.2,0.4,0,0.4c0,0-0.2,0-0.4,0h-0.5c0.4,7,0.5,11.9,0.4,14.6c-0.2,4.4-2.7,6.4-7.5,6.4
		c-1.6,0-2.7-0.4-3.7-0.9c-1.1-0.7-1.6-1.8-1.6-3.5c0-1.5,0.4-2.9,1.3-4c0.2-0.2,0.2-0.2,0.4-0.2c0.2,0,0.2,0,0.2,0.2v0.2
		c-0.4,0.9-0.5,1.8-0.5,2.6c0,1.1,0.4,2,1.3,2.7c0.7,0.5,1.6,0.9,2.9,0.9c1.8,0,3.3-0.4,4.6-0.9c1.1-0.5,1.6-1.1,1.6-1.8
		c0-7.9-0.2-13.9-0.7-17.9l1.3-1.1c0.2-0.2,0.2-0.2,0.4-0.2c0,0,0.2,0.2,0.2,0.4C937,146.8,937.4,147.5,937.8,148.5z" class="area" title=""></path>
	<path id="PATH_44" d="M949.3,162.9h-2c-0.2,2.6-1.1,4.6-2.9,6.4c-0.5,0.5-0.9,0.9-1.1,0.9c-0.9,0-2.2-0.2-3.5-0.4
		c-0.4,0-0.7-0.2-0.7-0.2s0.2-0.2,0.7-0.4c1.5-0.4,2.9-1.3,4.2-2.2c0.5-0.5,1.1-0.9,1.5-1.6c0.5-0.7,0.9-1.5,0.9-2v-0.5H944
		c-1.8,0-2.6-0.7-2.6-2.2c0-0.9,0.2-1.8,0.7-2.9s1.3-1.8,2-1.8c0.9,0,1.6,0.5,2.2,1.8c0.4,0.9,0.7,1.8,0.7,2.9h2v2.2H949.3z
		 M946,160.7c0-0.5-0.2-1.1-0.5-1.6c-0.4-0.7-0.9-0.9-1.5-0.9c-0.4,0-0.7,0.2-0.9,0.4c-0.4,0.4-0.4,0.5-0.4,1.1
		c0,0.9,0.7,1.3,2.2,1.3C944.9,160.9,945.4,160.7,946,160.7z" class="area" title=""></path>
	<path id="PATH_45" d="M956.4,157.8v0.7c0,1.3-0.2,2-0.5,2.6c-0.9,1.3-2.4,1.8-4.8,1.8h-2.6v-2.2h1.8c3.1,0,4.8-0.5,5.1-1.5
		c0-0.2,0-0.2,0-0.4c0-0.4,0-0.5-0.2-0.7c-0.7,0.2-1.6,0.2-2.4,0.2c-1.6,0-2.6-0.7-2.6-2.2c0-0.9,0.2-2,0.7-2.9
		c0.5-1.1,1.3-1.6,2.2-1.6c0.7,0,1.5,0.5,2,1.5C956.1,154.3,956.4,156,956.4,157.8z M954.2,147.7l-1.5,1.5l-1.5-1.5l1.5-1.5
		L954.2,147.7z M955,156.1c0-0.5-0.2-1.1-0.5-1.6c-0.4-0.5-0.9-0.7-1.5-0.7c-0.4,0-0.7,0.2-1.1,0.4c-0.2,0.2-0.4,0.5-0.4,0.9
		c0,0.7,0.5,1.1,1.8,1.1C953.7,156.3,954.2,156.3,955,156.1z" class="area" title=""></path>
	<path id="PATH_46" d="M965.6,163.1c0,1.8-0.5,3.5-1.6,5.1c-0.9,1.3-1.8,2-2.4,2c-1.5,0-2.6,0-3.7-0.2c-0.4,0-0.5-0.2-0.5-0.2
		s0.2-0.2,0.5-0.2c1.5-0.4,2.9-1.1,4.4-2.2c1.5-1.3,2.4-2.6,2.4-3.8c0-0.7-0.5-1.8-1.8-3.1l0.9-1.6c0-0.2,0.2-0.2,0.2-0.2l0.2,0.2
		c0.4,0.5,0.9,1.3,1.1,2.2C965.4,161.6,965.6,162.4,965.6,163.1z M964.1,153.2l-1.5,1.5l-1.5-1.5l1.5-1.5L964.1,153.2z" class="area" title=""></path>
	<path id="PATH_47" d="M976.7,159.1c0,2.6-1.6,3.8-5.1,3.8c-1.3,0-2.2-0.2-2.7-0.5c-0.7-0.4-1.1-1.3-1.1-2.4c0-0.5,0.2-1.1,0.4-1.6
		c0.2-0.2,0.2-0.4,0.4-0.4c0.2,0,0.2,0.2,0.2,0.5c0,0.2,0,0.4,0,0.5c0,0.7,0.4,1.3,1.1,1.5c0.4,0.2,1.1,0.2,2,0.2c2.7,0,4-0.4,4-1.3
		c0-1.3-1.6-3.1-4.8-5.3l0.5-1.8c0-0.2,0.2-0.2,0.2-0.2s0.2,0,0.4,0.2C975.3,154.7,976.7,157.1,976.7,159.1z" class="area" title=""></path>
</g>
<g id="G_48" class="area" title="">
	<path id="PATH_49" d="M1070.7,215.1h-4.2c-0.5,0-1.1,0-1.5,0.2c-0.7,0.2-0.9,0.5-0.9,0.9c0,0.2,0.9,0.4,2.6,0.7
		c1.8,0.4,2.6,0.7,2.6,1.1c0,1.5-0.4,2.6-1.3,3.3c-1.5,1.3-3.8,1.8-7.3,1.8c-4.2,0-6.4-1.6-6.4-4.8c0-0.7,0.2-1.5,0.5-2.4
		c0.4-0.9,0.7-1.6,1.1-2.2c0.2-0.2,0.4-0.4,0.5-0.4c0.2,0,0.2,0,0.2,0.2s0,0.4-0.2,0.5c-0.5,1.1-0.9,2.2-0.9,3.3
		c0,1.3,0.5,2.2,1.8,2.7c0.9,0.5,2,0.7,3.5,0.7c1.5,0,2.7,0,4-0.2c2.2-0.4,3.3-0.7,3.3-1.5c0-0.4-0.5-0.5-1.5-0.7
		c-1.5-0.2-2.4-0.4-2.7-0.5c-0.9-0.2-1.5-0.7-1.5-1.3c0-0.4,0.2-0.9,0.7-1.6c0.4-0.5,0.7-0.9,1.3-1.3c0.9-0.7,2-1.1,3.7-1.1h2.6
		V215.1z" class="area" title=""></path>
	<path id="PATH_50" d="M1074.9,200.6c0.2,0.2,0.2,0.4,0.2,0.4s-0.2,0-0.4,0h-0.5c0.2,2.4,0.2,5.9,0.2,10.4c0,1.1-0.2,2-0.7,2.6
		c-0.5,0.7-1.5,1.1-2.4,1.1h-1.1v-2.2h0.9c1.5,0,2.2-0.5,2-1.6c-0.2-3.8-0.4-7.9-0.5-11.9l1.3-1.1c0.2-0.2,0.4-0.4,0.4-0.4
		s0,0.2,0.2,0.4C1074.1,198.8,1074.5,199.5,1074.9,200.6z" class="area" title=""></path>
	<path id="PATH_51" d="M1089,200.6c0,0.2,0,0.2,0.2,0.5c0,0-0.2,0-0.4,0h-0.5c0,1.5-0.2,3.1-0.5,4.6c-0.4,2-1.1,3.7-1.8,4.8
		c0.4,0.7,0.5,1.6,0.5,2.4c0,0.4-0.2,0.9-0.4,1.5c-0.2,0.5-0.5,0.9-0.9,1.1c-1.6,0.4-3.3,0.5-5.3,0.4l0.5-2c1.8-0.9,3.1-1.8,3.8-2.9
		c-1.8-2.4-3.8-4.8-6.2-7.1l-0.4,0.5c-1.3-1.5-1.8-2.2-1.8-2.6s0.2-0.9,0.4-1.8c0-0.2,0.2-0.4,0.2-0.4s0.2,0.2,0.5,0.4
		c3.5,3.3,6.2,6.6,8.1,9.9c0.7-1.1,1.1-2.7,1.3-4.8c0.2-1.6,0.2-3.5,0-5.5l1.5-1.5C1088.4,199.2,1088.8,199.9,1089,200.6z
		 M1085.5,213.3v-0.2c0-0.5-0.2-1.1-0.5-1.5c-0.5,0.7-1.3,1.5-2.2,2.2c0.2,0,0.4,0,0.7,0C1084.2,213.6,1084.9,213.4,1085.5,213.3z" class="area" title=""></path>
</g>
<g id="G_52" class="area" title="">
	<path id="PATH_53" d="M1161.8,260.3h-1.3c-1.3,0-2.4-0.5-2.7-1.6c-0.4-0.7-0.5-2-0.5-3.5v-3.5c0-1.6-0.2-4-0.4-7.1l1.1-1.3
		c0.2-0.2,0.4-0.2,0.4,0c0.2,1.6,0.4,4,0.4,7.1v5.3c0,1.5,0.7,2.2,2.2,2.2h0.9V260.3L1161.8,260.3z" class="area" title=""></path>
	<path id="PATH_54" d="M1174.4,260.3h-1.3c-0.9,0-1.8-0.5-2.9-1.5c-0.5-0.5-1.3-1.5-2.2-2.7c0.2,2.9-1.5,4.4-4.9,4.4h-2v-2.4h2.4
		c2.4,0,3.7-0.7,3.7-2c0-0.7-0.4-1.6-1.3-2.7c-0.5-0.7-1.3-1.5-2.4-2.4c-0.9-0.7-1.3-1.3-1.3-1.3c0-1.3,0.2-2.2,0.5-2.7
		c0-0.2,1.3-0.5,3.7-1.5c2.4-0.9,4.6-1.6,6.6-2.2c0,0.2-0.2,0.9-0.5,2c-2.4,0.7-5.3,1.8-9,3.3c1.6,1.5,3.8,3.8,6.2,7.1
		c0.9,1.1,1.6,1.8,2.2,2.2c0.4,0.2,1.1,0.4,1.8,0.4h0.7L1174.4,260.3L1174.4,260.3z" class="area" title=""></path>
	<path id="PATH_55" d="M1178.8,256.6c0,2.4-1.3,3.7-3.7,3.7h-1.5v-2.2h1.3c1.8,0,2.7-0.4,2.7-0.9s-0.4-1.3-1.3-2.2l0.7-1.8
		c0-0.2,0.2-0.2,0.2-0.2s0.2,0.2,0.4,0.4C1178.5,254.3,1178.8,255.4,1178.8,256.6z M1177.4,264.3l-1.5,1.5l-1.5-1.5l1.5-1.5
		L1177.4,264.3z M1180.5,264.3l-1.5,1.5l-1.5-1.5l1.5-1.5L1180.5,264.3z" class="area" title=""></path>
	<path id="PATH_56" d="M1194.8,260.3h-0.7c-0.7,0-1.3-0.2-1.8-0.7c-0.4-0.4-0.7-0.7-1.1-1.5c-0.4,0.7-0.9,1.3-1.5,1.6
		c-0.7,0.4-1.6,0.5-3.1,0.5c-2.6,0-3.8-0.9-3.8-2.7c0-0.5,0.2-1.3,0.5-1.8c0.2-0.2,0.2-0.4,0.4-0.4c0.2,0,0.2,0.2,0.2,0.4
		c0,0.2,0,0.2,0,0.5c0,0.2,0,0.4,0,0.5c0,1.1,0.9,1.6,2.7,1.6c2.6,0,3.8-0.5,3.8-1.5c0-0.5-0.7-2.6-2.2-6l0.7-1.5
		c0.2-0.2,0.2-0.4,0.2-0.4s0.2,0.2,0.2,0.4c0.5,1.5,1.5,3.7,2.6,6.6c0.5,1.5,1.3,2.2,2.4,2.2h0.5V260.3L1194.8,260.3z" class="area" title=""></path>
	<path id="PATH_57" d="M1199.2,256.6c0,2.4-1.3,3.7-3.7,3.7h-1.5v-2.2h1.3c1.8,0,2.7-0.4,2.7-0.9s-0.4-1.3-1.3-2.2l0.7-1.8
		c0-0.2,0.2-0.2,0.2-0.2s0.2,0.2,0.4,0.4C1198.8,254.3,1199.2,255.4,1199.2,256.6z M1199.2,248.2l-1.5,1.5l-1.5-1.5l1.5-1.5
		L1199.2,248.2z" class="area" title=""></path>
	<path id="PATH_58" d="M1203.5,257.9c0,0.7-0.2,1.5-0.5,2c-0.2,0.4-0.4,0.5-0.4,0.5s-0.2-0.2-0.2-0.7c0-2.2-0.4-7.3-1.1-15.6
		l1.5-1.5c0.2-0.2,0.2-0.2,0.2-0.2s0,0.2,0,0.4C1203.4,245.5,1203.5,250.4,1203.5,257.9z" class="area" title=""></path>
</g>
<g id="G_59" class="area" title="">
	<path id="PATH_60" d="M954.1,289.6h-0.7c-0.7,0-1.3-0.2-1.8-0.7c-0.4-0.4-0.7-0.7-1.1-1.5c-0.4,0.7-0.9,1.3-1.5,1.6
		c-0.7,0.4-1.6,0.5-3.1,0.5c-2.6,0-3.8-0.9-3.8-2.7c0-0.5,0.2-1.3,0.5-1.8c0.2-0.2,0.2-0.4,0.4-0.4s0.2,0.2,0.2,0.4
		c0,0.2,0,0.2,0,0.5c0,0.2,0,0.4,0,0.5c0,1.1,0.9,1.6,2.7,1.6c2.6,0,3.8-0.5,3.8-1.5c0-0.5-0.7-2.6-2.2-6l0.7-1.5
		c0.2-0.2,0.2-0.4,0.2-0.4s0.2,0.2,0.2,0.4c0.5,1.5,1.5,3.7,2.6,6.6c0.5,1.5,1.3,2.2,2.4,2.2h0.5V289.6L954.1,289.6z" class="area" title=""></path>
	<path id="PATH_61" d="M958.4,285.9c0,2.4-1.3,3.7-3.7,3.7h-1.5v-2.2h1.3c1.8,0,2.7-0.4,2.7-0.9s-0.4-1.3-1.3-2.2l0.7-1.8
		c0-0.2,0.2-0.2,0.2-0.2s0.2,0.2,0.4,0.4C958.1,283.5,958.4,284.8,958.4,285.9z M958.3,277.7l-1.5,1.5l-1.5-1.5l1.5-1.5L958.3,277.7
		z" class="area" title=""></path>
	<path id="PATH_62" d="M969.8,289.6h-2c-0.2,2.6-1.1,4.6-2.9,6.4c-0.5,0.5-0.9,0.9-1.1,0.9c-0.9,0-2.2-0.2-3.5-0.4
		c-0.4,0-0.7-0.2-0.7-0.2s0.2-0.2,0.7-0.4c1.5-0.4,2.9-1.3,4.2-2.2c0.5-0.5,1.1-0.9,1.5-1.6c0.5-0.7,0.9-1.5,0.9-2v-0.5h-2.4
		c-1.8,0-2.6-0.7-2.6-2.2c0-0.9,0.2-1.8,0.7-2.9c0.5-1.1,1.3-1.8,2-1.8c0.9,0,1.6,0.5,2.2,1.8c0.4,0.9,0.7,1.8,0.7,2.9h2v2.2H969.8z
		 M966.5,287.4c0-0.5-0.2-1.1-0.5-1.6c-0.4-0.7-0.9-0.9-1.5-0.9c-0.4,0-0.7,0.2-0.9,0.4c-0.4,0.4-0.4,0.5-0.4,1.1
		c0,0.9,0.7,1.3,2.2,1.3C965.4,287.6,965.9,287.6,966.5,287.4z" class="area" title=""></path>
	<path id="PATH_63" d="M978.8,289.6h-1.5c-1.6,0-2.7-0.5-3.5-1.6c-0.5,1.1-1.8,1.6-3.8,1.6h-1.1v-2.2h1.6c1.8,0,2.7-0.7,2.9-2
		c0-0.5,0.2-0.9,0.4-0.9c0.2,0,0.4,0.4,0.4,0.9c0.2,1.3,1.1,2,2.7,2h1.6v2.2H978.8z M972.5,279l-1.5,1.5l-1.5-1.5l1.5-1.5L972.5,279
		z M975.7,279l-1.5,1.5l-1.5-1.5l1.5-1.5L975.7,279z" class="area" title=""></path>
	<path id="PATH_64" d="M989.7,274.8c0,0.4-0.2,0.9-0.5,2c-2.2,0.5-4.9,1.5-8.1,2.4c2.2,2.2,3.5,4,3.7,5.3c0.2,0.9,0,1.8-0.4,2.7
		s-1.1,1.5-2,1.8c-0.7,0.4-2,0.4-3.7,0.4H978v-2.2h0.5c3.5,0,5.3-0.5,5.3-1.8c0-0.9-0.9-2.4-2.9-4.2l-0.2,0.5
		c-0.2-0.2-0.5-0.5-0.9-1.1c-0.5-0.5-0.7-0.9-0.7-1.1c0-0.5,0.2-1.1,0.7-1.6c0.2-0.2,1.3-0.5,3.7-1.3
		C985.9,275.9,987.9,275.3,989.7,274.8z M989.4,272l-0.4,1.3l-9,2.9l0.4-1.3L989.4,272z" class="area" title=""></path>
</g>
<g id="G_65" class="area" title="">
	<path id="PATH_66" d="M800.3,339.4c0,2.6-1.1,3.8-3.3,3.8c-1.3,0-2-0.5-2.4-1.6c-0.5,1.1-1.5,1.6-2.6,1.6c-0.4,0-0.9,0-1.3-0.2
		c0,1.1-0.2,2.2-0.2,3.5c-0.5,1.3-1.5,2.4-3.1,3.1c-1.5,0.5-2.9,0.9-4.6,0.9s-2.9-0.4-4-1.1c-1.1-0.9-1.6-2-1.6-3.7
		c0-0.9,0.2-1.6,0.5-2.7c0.4-0.7,0.5-1.3,0.9-1.6c0.2-0.2,0.4-0.2,0.4-0.2c0.2,0,0.2,0,0.2,0.2c0,0,0,0.2,0,0.4
		c-0.5,1.1-0.7,2.2-0.7,3.1s0.4,1.6,0.9,2.4c0.7,0.9,2,1.3,3.7,1.3c1.8,0,3.5-0.4,4.8-0.9c1.1-0.5,1.8-1.1,2-1.8
		c0.2-0.2,0.2-0.5,0-1.3c0-0.5-0.2-1.1-0.2-1.3c-0.2-0.5-0.7-1.5-1.8-2.7l0.7-1.5c0.2-0.2,0.2-0.4,0.2-0.4s0.2,0,0.2,0.2
		c0.5,0.7,0.9,1.3,1.1,1.5c0.5,0.5,1.1,0.7,1.8,0.7c0.7,0,1.5-0.2,1.8-0.7c0.2-0.4,0.4-0.7,0.5-1.6c0-0.4,0.2-0.5,0.4-0.5
		s0.2,0.2,0.2,0.5c0.2,0.9,0.4,1.5,0.7,1.8c0.4,0.4,1.1,0.5,2,0.5c0.4,0,0.7-0.2,0.9-0.4c0.4-0.2,0.5-0.5,0.5-0.9
		c0-0.5-0.4-1.1-1.1-2l0.9-1.6c0.2-0.2,0.2-0.2,0.2-0.2l0.2,0.2C800.1,337.4,800.3,338.3,800.3,339.4z M794.2,332.6l-1.3,1.3
		l-1.3-1.3l1.3-1.3L794.2,332.6z M795.9,329.7l-1.3,1.3l-1.3-1.3l1.3-1.3L795.9,329.7z M797.5,332.6l-1.3,1.3l-1.3-1.3l1.3-1.3
		L797.5,332.6z" class="area" title=""></path>
	<path id="PATH_67" d="M811.8,343.2h-2c-0.2,2.6-1.1,4.6-2.9,6.4c-0.5,0.5-0.9,0.9-1.1,0.9c-0.9,0-2.2-0.2-3.5-0.4
		c-0.4,0-0.7-0.2-0.7-0.2s0.2-0.2,0.7-0.4c1.5-0.4,2.9-1.3,4.2-2.2c0.5-0.5,1.1-0.9,1.5-1.6c0.5-0.7,0.9-1.5,0.9-2v-0.5h-2.4
		c-1.8,0-2.6-0.7-2.6-2.2c0-0.9,0.2-1.8,0.7-2.9c0.5-1.1,1.3-1.8,2-1.8c0.9,0,1.6,0.5,2.2,1.8c0.4,0.9,0.7,1.8,0.7,2.9h2v2.2H811.8z
		 M808.5,341c0-0.5-0.2-1.1-0.5-1.6c-0.4-0.7-0.9-0.9-1.5-0.9c-0.4,0-0.7,0.2-0.9,0.4c-0.4,0.4-0.4,0.5-0.4,1.1
		c0,0.9,0.7,1.3,2.2,1.3C807.4,341.2,807.8,341,808.5,341z" class="area" title=""></path>
	<path id="PATH_68" d="M826.1,339.4c0,1.1-0.2,2-0.7,2.7c-0.5,0.7-1.5,1.3-2.4,1.3c-1.3,0-2-0.5-2.6-1.5c-0.7,1.1-1.5,1.5-2.6,1.5
		c-1.3,0-2.2-0.5-2.7-1.5c-0.7,1.1-1.6,1.5-2.9,1.5h-1.3v-2.2h1.5c1.3,0,2.2-0.7,2.4-2.2c0-0.4,0.2-0.5,0.4-0.5
		c0.2,0,0.2,0.2,0.4,0.5c0.2,1.5,0.9,2.2,2.4,2.2c0.7,0,1.5-0.2,1.8-0.5c0.2-0.4,0.4-0.7,0.5-1.5c0-0.4,0.2-0.5,0.4-0.5
		c0.2,0,0.2,0.2,0.4,0.5c0.2,1.5,0.9,2.2,2.2,2.2c1.5,0,2-0.4,2-0.9s-0.4-1.3-1.1-2l0.9-1.6c0.2-0.2,0.2-0.4,0.4-0.4
		s0.2,0.2,0.4,0.4C825.9,337.5,826.1,338.5,826.1,339.4z M820.1,332.6l-1.3,1.3l-1.3-1.3l1.3-1.3L820.1,332.6z M821.5,329.9
		l-1.3,1.3l-1.3-1.3l1.3-1.3L821.5,329.9z M823.2,332.6l-1.3,1.3l-1.3-1.3l1.3-1.3L823.2,332.6z" class="area" title=""></path>
</g>
<g id="G_69" class="area" title="">
	<path id="PATH_70" d="M960.6,393.9h-0.7c-0.7,0-1.1-0.2-1.5-0.4c0,0.2,0,0.4,0,0.5c0,1.6-0.5,3.3-1.6,4.9c-0.9,1.5-1.8,2-2.4,2
		c-1.5,0-2.6,0-3.7-0.2c-0.4,0-0.5-0.2-0.5-0.2s0.2-0.2,0.5-0.2c1.5-0.4,2.9-1.1,4.4-2.2c1.5-1.3,2.4-2.6,2.4-3.8
		c0-0.7-0.5-1.8-1.8-3.1l0.9-1.6c0-0.2,0.2-0.2,0.2-0.2l0.2,0.2c0.5,0.7,0.9,1.3,1.3,1.5c0.5,0.4,1.3,0.7,2,0.7h0.5v2H960.6z" class="area" title=""></path>
	<path id="PATH_71" d="M969.8,393.9h-1.5c-1.6,0-2.7-0.5-3.5-1.6c-0.5,1.1-1.8,1.6-3.8,1.6h-1.1v-2.2h1.6c1.8,0,2.7-0.7,2.9-2
		c0-0.5,0.2-0.9,0.4-0.9c0.2,0,0.4,0.4,0.4,0.9c0.2,1.3,1.1,2,2.7,2h1.6v2.2H969.8z M963.6,383.3l-1.5,1.5l-1.5-1.5l1.5-1.5
		L963.6,383.3z M966.7,383.3l-1.5,1.5l-1.5-1.5l1.5-1.5L966.7,383.3z" class="area" title=""></path>
	<path id="PATH_72" d="M984.3,390.1c0,1.1-0.2,2-0.7,2.7c-0.5,0.7-1.5,1.3-2.4,1.3c-1.3,0-2-0.5-2.6-1.5c-0.7,1.1-1.5,1.5-2.6,1.5
		c-1.3,0-2.2-0.5-2.7-1.5c-0.7,1.1-1.6,1.5-2.9,1.5h-1.3v-2.4h1.5c1.3,0,2.2-0.7,2.4-2.2c0-0.4,0.2-0.5,0.4-0.5
		c0.2,0,0.2,0.2,0.4,0.5c0.2,1.5,0.9,2.2,2.4,2.2c0.7,0,1.5-0.2,1.8-0.5c0.2-0.4,0.4-0.7,0.5-1.5c0-0.4,0.2-0.5,0.4-0.5
		c0.2,0,0.2,0.2,0.4,0.5c0.2,1.5,0.9,2.2,2.2,2.2c1.5,0,2-0.4,2-0.9c0-0.5-0.4-1.3-1.1-2l0.9-1.6c0.2-0.2,0.2-0.4,0.4-0.4
		c0.2,0,0.2,0.2,0.4,0.4C983.9,388.3,984.3,389.2,984.3,390.1z M978,383.3l-1.3,1.3l-1.3-1.3l1.3-1.3L978,383.3z M979.7,380.6
		l-1.3,1.3l-1.3-1.3l1.3-1.3L979.7,380.6z M981.3,383.3l-1.3,1.3l-1.3-1.3l1.3-1.3L981.3,383.3z" class="area" title=""></path>
	<path id="PATH_73" d="M995.6,393.9h-2c-0.2,2.6-1.1,4.6-2.9,6.4c-0.5,0.5-0.9,0.9-1.1,0.9c-0.9,0-2.2-0.2-3.5-0.4
		c-0.4,0-0.7-0.2-0.7-0.2s0.2-0.2,0.7-0.4c1.5-0.4,2.9-1.3,4.2-2.2c0.5-0.5,1.1-0.9,1.5-1.6c0.5-0.7,0.9-1.5,0.9-2v-0.5h-2.4
		c-1.8,0-2.6-0.7-2.6-2.2c0-0.9,0.2-1.8,0.7-2.9s1.3-1.8,2-1.8c0.9,0,1.6,0.5,2.2,1.8c0.4,0.9,0.7,1.8,0.7,2.9h2v2.2H995.6z
		 M992.3,391.7c0-0.5-0.2-1.1-0.5-1.6c-0.4-0.7-0.9-0.9-1.5-0.9c-0.4,0-0.7,0.2-0.9,0.4c-0.2,0.2-0.4,0.5-0.4,1.1
		c0,0.9,0.7,1.3,2.2,1.3C991.2,391.9,991.8,391.7,992.3,391.7z" class="area" title=""></path>
	<path id="PATH_74" d="M1010.1,390.1c0,1.1-0.2,2-0.7,2.7c-0.5,0.7-1.5,1.3-2.4,1.3c-1.3,0-2-0.5-2.6-1.5c-0.7,1.1-1.5,1.5-2.6,1.5
		c-1.3,0-2.2-0.5-2.7-1.5c-0.7,1.1-1.6,1.5-2.9,1.5h-1.3v-2.4h1.5c1.3,0,2.2-0.7,2.4-2.2c0-0.4,0.2-0.5,0.4-0.5
		c0.2,0,0.2,0.2,0.4,0.5c0.2,1.5,0.9,2.2,2.4,2.2c0.7,0,1.5-0.2,1.8-0.5c0.2-0.4,0.4-0.7,0.5-1.5c0-0.4,0.2-0.5,0.4-0.5
		c0.2,0,0.2,0.2,0.4,0.5c0.2,1.5,0.9,2.2,2.2,2.2c1.5,0,2-0.4,2-0.9c0-0.5-0.4-1.3-1.1-2l0.9-1.6c0.2-0.2,0.2-0.4,0.4-0.4
		c0.2,0,0.2,0.2,0.4,0.4C1009.7,388.3,1010.1,389.2,1010.1,390.1z M1003.8,383.3l-1.3,1.3l-1.3-1.3l1.3-1.3L1003.8,383.3z
		 M1005.5,380.6l-1.3,1.3l-1.3-1.3l1.3-1.3L1005.5,380.6z M1007.1,383.3l-1.3,1.3l-1.3-1.3l1.3-1.3L1007.1,383.3z" class="area" title=""></path>
</g>
<g id="G_75" class="area" title="">
	<path id="PATH_76" d="M1078.2,351.8c-0.4,0.5-0.7,0.9-1.1,1.3c-0.5,0.5-1.1,0.9-1.6,1.1c-1.3,0.5-2.7,0.5-4.6-0.2
		c-1.5-0.5-2.7-1.5-3.8-2.7c-1.1-1.1-1.6-2.4-1.8-3.7c-0.2-1.5,0.4-2.7,1.5-3.7c0.5-0.5,1.5-1.1,2.4-1.3c0.7-0.2,1.3-0.4,1.8-0.4
		c0.2,0,0.4,0,0.5,0.2v0.2c0,0-0.2,0.2-0.4,0.2c-1.1,0.4-2.2,0.9-2.7,1.5c-0.7,0.5-1.1,1.3-1.1,2.2c-0.2,1.1,0.4,2.4,1.5,3.5
		c1.3,1.3,2.6,2.4,4,2.9c1.1,0.5,2,0.5,2.7,0.4c0.2,0,0.4-0.2,0.7-0.4c0.4-0.4,0.7-0.9,1.1-1.5c0.4-0.5,0.5-1.6,0.9-3.3l1.6-0.5
		c0.2,0,0.4,0,0.4,0s0,0.2,0,0.4C1079.6,349.3,1079.1,350.5,1078.2,351.8z M1080.4,342.5h-2v-2.2h2V342.5z" class="area" title=""></path>
	<path id="PATH_77" d="M1082.9,357.3l-0.9-0.9c-0.9-0.9-1.1-2-0.7-3.3c0.4-0.7,1.1-1.6,2.2-2.7l2.6-2.4c1.3-1.1,2.9-2.9,4.9-5.1h1.6
		c0.4,0,0.4,0.2,0.2,0.4c-0.9,1.3-2.7,2.9-5.1,5.1l-3.8,3.7c-1.1,1.1-1.1,2-0.2,3.1l0.7,0.7L1082.9,357.3z" class="area" title=""></path>
	<path id="PATH_78" d="M1091.9,367l-0.7-0.9c-0.5-0.5-0.7-1.6-0.7-2.9c-1.5,0.7-2.4,0.7-2.7,0.2c-0.4-0.4-0.7-1.3-1.1-2.4
		c-0.2-1.1-0.4-1.8-0.4-2.4c-1.5,0.2-2.4-0.2-3.1-0.9l-0.7-0.7l1.6-1.5l0.7,0.9c0.5,0.5,1.5,0.9,2.4,1.1c0.7,0,1.6,0,2.6,0
		c0.9,0,1.6,0.2,2,0.5c0.5,0.5,0.5,1.3,0.5,2.2c0,0.4-0.2,1.3-0.4,2.6c-0.2,0.9,0,1.6,0.5,2.2l0.7,0.9L1091.9,367z M1089.7,362.4
		c0.4-0.4,0.7-0.9,0.9-1.6c0.2-0.7,0.2-1.5-0.2-1.8c-0.4-0.5-1.3-0.7-2.4-0.5c0,0.4,0,0.9,0.4,1.8c0.2,0.9,0.5,1.6,0.9,2.2
		C1089.3,362.4,1089.5,362.4,1089.7,362.4z" class="area" title=""></path>
	<path id="PATH_79" d="M1091,372h-2v-2h2V372z M1093,374.3h-2v-2h2V374.3z M1097.9,373.6l-0.9-1.1c-1.1-1.3-1.5-2.4-1.1-3.7
		c-1.3,0.4-2.6-0.2-3.8-1.6l-0.7-0.9l1.5-1.5l1.1,1.3c1.3,1.3,2.4,1.6,3.5,0.7c0.4-0.4,0.7-0.4,0.9-0.2c0.2,0.2,0,0.4-0.4,0.9
		c-0.9,1.1-0.7,2.2,0.4,3.5l1.1,1.3L1097.9,373.6z" class="area" title=""></path>
	<path id="PATH_80" d="M1102.5,378.5l-0.5-0.5c-1.1-1.1-1.5-2.4-0.9-3.7c-0.5,0.2-1.1,0.2-1.6,0c-0.5-0.2-1.1-0.5-1.5-0.9l-0.5-0.5
		l1.6-1.5l0.5,0.5c1.1,1.1,2,1.3,2.9,0.4l4.6-4.2c1.8-1.6,3.1-2.9,4-3.8l2,0.2l-9.2,8.4c-1.3,1.3-1.5,2.6-0.4,3.7l0.5,0.5
		L1102.5,378.5z" class="area" title=""></path>
	<path id="PATH_81" d="M1115.1,386.6c-0.7,0.7-1.6,1.1-2.6,1.3c-0.9,0.2-1.8-0.2-2.6-0.9c-0.9-0.9-1.1-1.8-0.7-2.9
		c-1.3,0.2-2.2-0.2-2.9-0.9c-0.9-0.9-1.1-2-0.7-2.9c-1.3,0.2-2.2-0.2-3.1-1.1l-0.9-0.9l1.6-1.5l0.9,1.1c0.9,0.9,2,1.1,3.1,0.2
		c0.4-0.2,0.5-0.2,0.5-0.2c0.2,0.2,0,0.4-0.2,0.5c-0.9,1.1-0.9,2.2,0,3.1c0.5,0.5,1.1,0.9,1.6,0.9c0.4,0,0.9-0.2,1.5-0.7
		c0.4-0.2,0.5-0.2,0.5-0.2c0.2,0.2,0,0.4-0.2,0.5c-0.9,1.1-0.9,2.2-0.2,3.1c0.9,1.1,1.6,1.3,2.2,0.9c0.4-0.4,0.7-1.1,0.9-2.2
		l1.6-0.4c0.2,0,0.4,0,0.5,0c0.2,0,0,0.2-0.2,0.5C1116.2,385.1,1115.7,386.1,1115.1,386.6z" class="area" title=""></path>
	<path id="PATH_82" d="M1126.9,405.1l-0.5-0.5c-0.5-0.5-0.7-1.1-0.7-1.6c0-0.4,0.2-0.9,0.4-1.8c-0.9,0.2-1.6,0.2-2.2,0
		c-0.7-0.2-1.6-0.9-2.6-1.8c-1.6-1.8-2-3.5-0.5-4.8c0.4-0.4,1.1-0.7,1.8-0.9c0.2,0,0.4,0,0.5,0c0,0,0,0.2-0.2,0.4
		c0,0-0.2,0.2-0.4,0.4c-0.2,0.2-0.4,0.2-0.4,0.4c-0.7,0.7-0.5,1.8,0.7,3.1c1.8,2,3.1,2.6,3.8,1.8c0.4-0.4,1.3-2.2,2.9-5.7l1.6-0.4
		c0.2,0,0.4,0,0.4,0s0,0.2-0.2,0.4c-0.7,1.5-1.6,3.5-3.1,6.2c-0.7,1.5-0.7,2.6,0,3.3l0.4,0.4L1126.9,405.1z" class="area" title=""></path>
	<path id="PATH_83" d="M1137.8,417l-1.3-1.3c-1.6-1.8-1.6-3.5,0.2-5.1c0.2-0.2,0.4-0.4,0.7-0.5c-0.9-0.4-2.2-0.7-3.8-1.3
		c-1.6-0.4-2.7-0.7-3.5-1.1c-1.1-0.5-2.2-1.3-2.9-2l-0.9-0.9l1.5-1.5l0.9,1.1c1.1,1.1,2.4,2,3.8,2.6c0.7,0.4,2.2,0.7,4.2,1.5
		c-0.2-0.4-0.7-1.3-1.6-2.9c-0.5-1.1-0.9-1.8-1.1-2c-0.4-0.5-1.1-0.7-2.2-0.9c-0.2,0-0.4,0-0.4-0.2c0,0,0-0.2,0-0.4
		c0,0,0.2,0,0.2-0.2c1.8-0.7,3.1-0.5,4,0.4c0.4,0.4,0.7,1.1,1.1,1.8c0.5,1.3,1.1,2.4,1.5,3.1c0.5,1.1,1.5,2.2,2.7,3.5
		c0.2,0.2,0.4,0.4,0.4,0.4s-0.2,0.2-0.4,0.2l-1.6,0.5c-0.7-0.9-1.3-1.3-1.6-1.5c-0.5,0.5-0.9,1.1-1.1,1.3c-0.2,0.7,0.2,1.5,0.9,2.4
		l1.3,1.3L1137.8,417z M1130.3,414.2h-2V412h2V414.2z" class="area" title=""></path>
	<path id="PATH_84" d="M1149.2,429.3l-0.7-0.7c-0.9-0.9-1.1-1.8-0.5-2.9c-1.1,0.4-2,0.2-2.7-0.7c-0.7-0.7-0.9-1.6-0.5-2.7
		c-1.1,0.4-2,0-2.7-0.7c-0.9-0.9-1.1-2-0.7-2.9c-1.3,0.2-2.2-0.2-3.1-1.1l-0.9-0.9l1.6-1.5l0.9,1.1c0.9,0.9,2,1.1,3.1,0.2
		c0.4-0.2,0.5-0.2,0.5-0.2c0.2,0.2,0,0.4-0.2,0.5c-0.9,1.1-0.9,2.2,0,3.1s2,1.1,3.1,0.2c0.4-0.2,0.5-0.2,0.5-0.2
		c0.2,0.2,0,0.4-0.2,0.5c-0.9,1.1-1.1,2-0.4,2.9c0.9,0.9,2,1.1,3.1,0.2c0.4-0.2,0.5-0.2,0.5-0.2c0.2,0.2,0,0.4-0.2,0.5
		c-0.9,1.1-0.9,2.2-0.2,3.1l0.7,0.7L1149.2,429.3z" class="area" title=""></path>
	<path id="PATH_85" d="M1158,433.5c-0.5,0.7-1.3,1.1-1.8,1.3c-0.9,0.4-1.6,0.4-2-0.2c-0.7-0.7-1.1-2.2-1.5-4.4c-0.9,0-1.5,0-1.6,0
		c-0.5-0.2-1.1-0.4-1.6-0.9l-0.7-0.7l1.6-1.5l0.9,0.9c0.5,0.5,1.3,0.9,2.4,0.7c0.5,0,1.5-0.2,2.7-0.4c1.1-0.2,1.8,0,2.2,0.5
		c0.5,0.7,0.7,1.5,0.5,2.6C1158.7,432.4,1158.3,432.9,1158,433.5z M1156.1,433.6c0.4-0.4,0.7-0.9,0.9-1.6c0.2-0.7,0.2-1.5-0.2-1.8
		c-0.4-0.4-1.3-0.5-2.6-0.4c0,0.4,0,1.1,0.4,2c0.4,0.9,0.5,1.5,0.9,1.8C1155.8,433.8,1156,433.8,1156.1,433.6z" class="area" title=""></path>
</g>
<g id="G_91" class="area" title="">
	<path id="PATH_92" d="M527.4,399.2c0.2,0.5,0.2,1.1,0.2,1.6c0,0.7-0.2,1.3-0.4,2c-0.5,1.3-1.5,2.4-3.3,3.1
		c-1.5,0.5-2.9,0.9-4.6,0.9s-2.9-0.4-4-1.1c-1.1-0.9-1.6-2-1.6-3.7c0-0.9,0.2-1.6,0.5-2.7c0.4-0.7,0.5-1.3,0.9-1.6
		c0.2-0.2,0.4-0.2,0.4-0.2c0.2,0,0.2,0,0.2,0.2c0,0,0,0.2,0,0.4c-0.5,1.1-0.7,2.2-0.7,3.1c0,0.9,0.4,1.6,0.9,2.4
		c0.7,0.9,2,1.3,3.7,1.3c1.8,0,3.5-0.4,4.8-0.9c1.1-0.5,1.8-1.1,2.2-1.8c0.2-0.2,0.2-0.5,0.2-0.7c0-0.5-0.2-1.1-0.4-1.8
		c-0.2-0.5-0.7-1.5-1.6-2.9l0.7-1.5c0.2-0.2,0.2-0.4,0.2-0.4s0.2,0,0.2,0.2C526.6,396.5,527.2,398,527.4,399.2z M522.1,391.4
		l-1.5,1.5l-1.5-1.5l1.5-1.5L522.1,391.4z" class="area" title=""></path>
	<path id="PATH_93" d="M534.9,399.6h-1.3c-1.3,0-2.4-0.5-2.7-1.6c-0.4-0.7-0.5-2-0.5-3.5V391c0-1.6-0.2-4-0.4-7.1l1.1-1.3
		c0.2-0.2,0.4-0.2,0.4,0c0.2,1.6,0.4,4,0.4,7.1v5.3c0,1.5,0.7,2.2,2.2,2.2h0.9V399.6z" class="area" title=""></path>
	<path id="PATH_94" d="M545.8,384.8c0,0.4-0.2,0.9-0.5,2c-2.2,0.5-4.9,1.5-8.1,2.4c2.2,2.2,3.5,4,3.7,5.3c0.2,0.9,0,1.8-0.4,2.7
		s-1.1,1.5-2,1.8c-0.7,0.4-2,0.4-3.7,0.4h-0.7v-2.2h0.5c3.5,0,5.3-0.5,5.3-1.8c0-0.9-0.9-2.4-2.9-4.2l-0.2,0.5
		c-0.2-0.2-0.5-0.5-0.9-1.1c-0.5-0.5-0.7-0.9-0.7-1.1c0-0.5,0.2-1.1,0.7-1.6c0.2-0.2,1.3-0.5,3.7-1.3
		C541.8,385.9,544,385.3,545.8,384.8z M545.5,382l-0.4,1.3l-9,2.9l0.4-1.3L545.5,382z" class="area" title=""></path>
	<path id="PATH_95" d="M556.5,395.8c0,2.6-1.6,3.8-5.1,3.8c-1.3,0-2.2-0.2-2.7-0.5c-0.7-0.4-1.1-1.3-1.1-2.4c0-0.5,0.2-1.1,0.4-1.6
		c0.2-0.2,0.2-0.4,0.4-0.4c0.2,0,0.2,0.2,0.2,0.5c0,0.2,0,0.4,0,0.5c0,0.7,0.4,1.3,1.1,1.5c0.4,0.2,1.1,0.2,2,0.2c2.7,0,4-0.4,4-1.3
		c0-1.3-1.6-3.1-4.8-5.3l0.5-1.8c0-0.2,0.2-0.2,0.2-0.2s0.2,0,0.4,0.2C555,391.4,556.5,393.7,556.5,395.8z" class="area" title=""></path>
	<path id="PATH_96" d="M560.9,397.4c0,0.7-0.2,1.5-0.5,2c-0.2,0.4-0.4,0.5-0.4,0.5s-0.2-0.2-0.2-0.7c0-2.2-0.4-7.3-1.1-15.6l1.5-1.5
		c0.2-0.2,0.2-0.2,0.2-0.2s0,0.2,0,0.4C560.9,384.8,560.9,389.7,560.9,397.4z" class="area" title=""></path>
	<path id="PATH_97" d="M570.2,399.8c0,1.8-0.5,3.5-1.6,5.1c-0.9,1.3-1.8,2-2.4,2c-1.5,0-2.6,0-3.7-0.2c-0.4,0-0.5-0.2-0.5-0.2
		s0.2-0.2,0.5-0.2c1.5-0.4,2.9-1.1,4.4-2.2c1.5-1.3,2.4-2.6,2.4-3.8c0-0.7-0.5-1.8-1.8-3.1l0.9-1.6c0-0.2,0.2-0.2,0.2-0.2l0.2,0.2
		c0.4,0.5,0.9,1.3,1.1,2.2C569.8,398.3,570.2,399.1,570.2,399.8z M568.7,389.9l-1.5,1.5l-1.5-1.5l1.5-1.5L568.7,389.9z" class="area" title=""></path>
	<path id="PATH_98" d="M577.5,380c-0.7,0.7-1.8,0.9-2.9,0.9c-0.2,0-0.4,0-0.7,0c-0.4,0-0.5,0-0.7,0s-0.4,0.2-0.5,0.4
		c-0.2,0.2-0.4,0.4-0.4,0.4c-0.2,0-0.2-0.2-0.2-0.4c0-0.2,0.2-0.5,0.4-0.9c0.2-0.5,0.4-0.7,0.5-0.7c0.2,0,0.5,0,1.1,0.2
		c0.5,0,0.9,0.2,1.1,0.2c1.1,0,1.8,0,2.4-0.2c0.4,0,0.5-0.2,0.5-0.2h0.2C577.9,379.6,577.7,379.8,577.5,380z M576.2,397.4
		c0,0.7-0.2,1.5-0.5,2c-0.2,0.4-0.4,0.5-0.4,0.5s-0.2-0.2-0.2-0.7c0-2.2-0.4-7.3-1.1-15.6l1.5-1.5c0.2-0.2,0.2-0.2,0.2-0.2
		s0,0.2,0,0.4C576.2,384.8,576.2,389.7,576.2,397.4z" class="area" title=""></path>
	<path id="PATH_99" d="M606.4,399.6h-0.7c-0.9,0-1.6-0.2-2-0.5c-0.5-0.4-0.9-1.1-0.9-1.8c-2,1.8-5.1,2.7-9.3,2.7
		c-4.4,0-6.6-1.3-6.6-4c0-0.9,0.4-1.8,1.1-2.7c0.2-0.2,0.2-0.2,0.4-0.2s0.2,0,0.2,0.2c0,0,0,0.2,0,0.4c-0.2,0.5-0.4,1.1-0.4,1.6
		c0,1.8,2,2.7,6,2.7c4.6,0,7.7-0.9,9.2-2.9c0.4-0.4,0.5-0.5,0.7-0.5s0.2,0.2,0.2,0.4c0,0.2,0,0.4-0.2,0.7c0,0.4-0.2,0.5-0.2,0.7
		c0,0.9,0.7,1.5,2,1.5h0.7v1.8H606.4z M595.1,389l-1.5,1.5l-1.5-1.5l1.5-1.5L595.1,389z M598.2,389l-1.5,1.5l-1.5-1.5l1.5-1.5
		L598.2,389z" class="area" title=""></path>
	<path id="PATH_100" d="M620.9,395.8c0,1.1-0.2,2-0.7,2.7c-0.5,0.7-1.5,1.3-2.4,1.3c-1.3,0-2-0.5-2.6-1.5c-0.7,1.1-1.5,1.5-2.6,1.5
		c-1.3,0-2.2-0.5-2.7-1.5c-0.7,1.1-1.6,1.5-2.9,1.5h-1.3v-2.2h1.5c1.3,0,2.2-0.7,2.4-2.2c0-0.4,0.2-0.5,0.4-0.5s0.2,0.2,0.4,0.5
		c0.2,1.5,0.9,2.2,2.4,2.2c0.7,0,1.5-0.2,1.8-0.5c0.2-0.4,0.4-0.7,0.5-1.5c0-0.4,0.2-0.5,0.4-0.5s0.2,0.2,0.4,0.5
		c0.2,1.5,0.9,2.2,2.2,2.2c1.5,0,2-0.4,2-0.9s-0.4-1.3-1.1-2l0.9-1.6c0.2-0.2,0.2-0.4,0.4-0.4c0.2,0,0.2,0.2,0.4,0.4
		C620.7,393.9,620.9,394.8,620.9,395.8z M614.7,389l-1.3,1.3l-1.3-1.3l1.3-1.3L614.7,389z M616.3,386.2l-1.3,1.3l-1.3-1.3l1.3-1.3
		L616.3,386.2z M618,389l-1.3,1.3l-1.3-1.3l1.3-1.3L618,389z" class="area" title=""></path>
	<path id="PATH_101" d="M632.2,395.8c0,2.6-1.6,3.8-5.1,3.8c-1.3,0-2.2-0.2-2.7-0.5c-0.7-0.4-1.1-1.3-1.1-2.4c0-0.5,0.2-1.1,0.4-1.6
		c0.2-0.2,0.2-0.4,0.4-0.4s0.2,0.2,0.2,0.5c0,0.2,0,0.4,0,0.5c0,0.7,0.4,1.3,1.1,1.5c0.4,0.2,1.1,0.2,2,0.2c2.7,0,4-0.4,4-1.3
		c0-1.3-1.6-3.1-4.8-5.3l0.5-1.8c0-0.2,0.2-0.2,0.2-0.2s0.2,0,0.4,0.2C630.6,391.4,632.2,393.7,632.2,395.8z" class="area" title=""></path>
</g>
<g id="G_102" class="area" title="">
	<path id="PATH_103" d="M582.3,476.8H581c-1.6,0-2.6-0.9-2.9-2.9c-0.9,0.9-1.3,1.3-1.5,1.3H575c-0.5,0-1.1,0-1.6-0.2
		c-0.7-0.2-1.1-0.5-1.1-0.9c0-1.3,0.5-2.6,1.5-3.3c0.7-0.5,1.8-1.1,3.3-1.8l-0.4-1.8l1.3-1.5c0,0.2,0.5,2.2,1.3,6
		c0.2,1.1,0.5,2,0.7,2.4c0.4,0.5,0.7,0.7,1.5,0.7h1.3v2H582.3z M577.7,473.2l-0.5-2.9c-0.5,0.2-1.3,0.5-2.2,0.9
		c-1.1,0.5-1.8,1.1-1.8,1.3c0,0.4,0.4,0.5,1.3,0.7c0.5,0.2,1.1,0.2,1.6,0.2C576.8,473.2,577.1,473.2,577.7,473.2z" class="area" title=""></path>
	<path id="PATH_104" d="M586.7,473.2c0,2.4-1.3,3.7-3.7,3.7h-1.5v-2.2h1.3c1.8,0,2.7-0.4,2.7-0.9s-0.4-1.3-1.3-2.2l0.7-1.8
		c0-0.2,0.2-0.2,0.2-0.2s0.2,0.2,0.4,0.4C586.3,470.8,586.7,472.1,586.7,473.2z M585.2,480.9l-1.5,1.5l-1.5-1.5l1.5-1.5L585.2,480.9
		z M588.3,480.9l-1.5,1.5l-1.5-1.5l1.5-1.5L588.3,480.9z" class="area" title=""></path>
	<path id="PATH_105" d="M602.6,476.8h-0.7c-0.7,0-1.3-0.2-1.8-0.7c-0.4-0.4-0.7-0.7-1.1-1.5c-0.4,0.7-0.9,1.3-1.5,1.6
		c-0.7,0.4-1.6,0.5-3.1,0.5c-2.6,0-3.8-0.9-3.8-2.7c0-0.5,0.2-1.3,0.5-1.8c0.2-0.2,0.2-0.4,0.4-0.4s0.2,0.2,0.2,0.4
		c0,0.2,0,0.2,0,0.5c0,0.2,0,0.4,0,0.5c0,1.1,0.9,1.6,2.7,1.6c2.6,0,3.8-0.5,3.8-1.5c0-0.5-0.7-2.6-2.2-6l0.7-1.5
		c0.2-0.2,0.2-0.4,0.2-0.4s0.2,0.2,0.2,0.4c0.5,1.5,1.5,3.7,2.6,6.6c0.5,1.5,1.3,2.2,2.4,2.2h0.5V476.8z" class="area" title=""></path>
	<path id="PATH_106" d="M611.6,476.8h-1.5c-1.6,0-2.7-0.5-3.5-1.6c-0.5,1.1-1.8,1.6-3.8,1.6h-1.1v-2.2h1.6c1.8,0,2.7-0.7,2.9-2
		c0-0.5,0.2-0.9,0.4-0.9s0.4,0.4,0.4,0.9c0.2,1.3,1.1,2,2.7,2h1.6v2.2H611.6z M605.5,480.9l-1.5,1.5l-1.5-1.5l1.5-1.5L605.5,480.9z
		 M608.8,480.9l-1.5,1.5l-1.5-1.5l1.5-1.5L608.8,480.9z" class="area" title=""></path>
	<path id="PATH_107" d="M624.7,476.8h-1.1c-0.9,0-1.8-0.5-2.6-1.5c-0.5,1.5-1.1,2.2-1.6,2.2c-0.5,0-1.5-0.4-2.6-0.9
		c-0.9-0.5-1.6-1.1-2-1.5c-0.9,1.1-1.8,1.6-2.7,1.6H611v-2.2h1.1c0.9,0,1.6-0.4,2.4-1.1c0.5-0.5,1.1-1.3,1.8-2
		c0.7-0.7,1.3-1.1,1.8-1.1c0.7,0,1.3,0.4,1.8,1.1c0.4,0.4,0.7,1.1,1.6,2c0.5,0.7,1.3,1.1,2,1.1h1.1V476.8z M619.8,475.4
		c0-0.5-0.2-1.1-0.5-1.8c-0.4-0.7-0.9-1.1-1.6-1.1c-0.5,0-1.3,0.5-2,1.5c0.2,0.2,0.7,0.5,1.6,1.1c0.9,0.5,1.6,0.7,2.2,0.7
		C619.6,475.6,619.8,475.6,619.8,475.4z" class="area" title=""></path>
	<path id="PATH_108" d="M639,471.5l-0.7,1.5c-1.3,0-2.4,0-2.9,0.2c-0.7,0.4-1.8,0.7-3.3,1.5c-1.5,0.7-2.6,1.3-3.3,1.5
		c-1.1,0.4-2.4,0.5-3.5,0.5H624v-2.2h1.5c1.6,0,3.1-0.4,4.4-0.9l4.2-1.8c-0.7-0.2-1.8-0.5-3.3-1.1c-1.3-0.5-2-0.7-2.4-0.7
		c-0.7,0-1.5,0.4-2.2,0.9c-0.2,0.2-0.2,0.2-0.4,0.2s-0.2,0-0.2-0.2v-0.2c0.5-1.8,1.6-2.6,3.1-2.6c0.5,0,1.3,0.2,2,0.5
		c1.5,0.7,2.6,1.1,3.3,1.5c1.3,0.4,2.7,0.7,4.4,0.7c0.4,0,0.5,0,0.5,0.2C639.2,471.2,639.2,471.4,639,471.5z" class="area" title=""></path>
</g>
<g id="G_109" class="area" title="">
	<path id="PATH_110" d="M701.8,570c0,1.3-0.4,2.2-1.1,2.9c-0.7,0.7-1.8,0.9-2.9,0.9c-0.7,0-1.5-0.2-2-0.7c-0.5-0.5-0.9-1.1-0.9-1.8
		c0-0.9,0.4-1.8,1.1-3.1c0.5-1.1,1.3-2,2-2.7C700.5,566.7,701.8,568.2,701.8,570z M700.9,570.8c0-0.5-0.4-1.1-1.3-1.8
		c-0.7-0.7-1.3-1.1-2-1.3c-0.9,1.3-1.5,2.2-1.5,2.9c0,0.4,0.2,0.7,0.7,1.1c0.4,0.2,0.7,0.4,1.3,0.4c0.7,0,1.5-0.2,2-0.4
		C700.5,571.1,700.9,570.9,700.9,570.8z" class="area" title=""></path>
	<path id="PATH_111" d="M713.3,573.9h-0.9c-0.7,0-1.1-0.2-1.5-0.4c0,0.2,0,0.4,0,0.5c0,1.6-0.5,3.3-1.6,4.9c-0.9,1.5-1.8,2-2.4,2
		c-1.5,0-2.6,0-3.7-0.2c-0.4,0-0.5-0.2-0.5-0.2s0.2-0.2,0.5-0.2c1.5-0.4,2.9-1.1,4.4-2.2c1.5-1.3,2.4-2.6,2.4-3.8
		c0-0.7-0.5-1.8-1.8-3.1l0.9-1.6c0-0.2,0.2-0.2,0.2-0.2l0.2,0.2c0.5,0.7,0.9,1.3,1.3,1.5c0.5,0.4,1.3,0.7,2,0.7h0.5L713.3,573.9
		L713.3,573.9z M709.7,564.2l-1.5,1.5l-1.5-1.5l1.5-1.5L709.7,564.2z" class="area" title=""></path>
	<path id="PATH_112" d="M717.7,570.2c0,2.4-1.3,3.7-3.7,3.7h-1.5v-2.2h1.3c1.8,0,2.7-0.4,2.7-0.9s-0.4-1.3-1.3-2.2l0.7-1.8
		c0-0.2,0.2-0.2,0.2-0.2s0.2,0.2,0.4,0.4C717.2,567.8,717.7,569.1,717.7,570.2z M716.3,577.9l-1.5,1.5l-1.5-1.5l1.5-1.5L716.3,577.9
		z M719.4,577.9l-1.5,1.5l-1.5-1.5l1.5-1.5L719.4,577.9z" class="area" title=""></path>
	<path id="PATH_113" d="M730.7,573.9h-2c-0.2,2.6-1.1,4.6-2.9,6.4c-0.5,0.5-0.9,0.9-1.1,0.9c-0.9,0-2.2-0.2-3.5-0.4
		c-0.4,0-0.7-0.2-0.7-0.2s0.2-0.2,0.7-0.4c1.5-0.4,2.9-1.3,4.2-2.2c0.5-0.5,1.1-0.9,1.5-1.6c0.5-0.7,0.9-1.5,0.9-2v-0.5h-2.4
		c-1.8,0-2.6-0.7-2.6-2.2c0-0.9,0.2-1.8,0.7-2.9s1.3-1.8,2-1.8c0.9,0,1.6,0.5,2.2,1.8c0.4,0.9,0.7,1.8,0.7,2.9h2v2.2H730.7z
		 M727.4,571.7c0-0.5-0.2-1.1-0.5-1.6c-0.4-0.7-0.9-0.9-1.5-0.9c-0.4,0-0.7,0.2-0.9,0.4c-0.4,0.4-0.4,0.5-0.4,1.1
		c0,0.9,0.7,1.3,2.2,1.3C726.5,571.9,726.9,571.7,727.4,571.7z" class="area" title=""></path>
	<path id="PATH_114" d="M741.9,570.2c0,0.7-0.2,1.5-0.7,2.2c-0.5,0.9-1.1,1.3-1.8,1.3c-0.5,0-1.8-0.4-3.8-1.3
		c-1.6,1.1-3.1,1.5-4.4,1.5h-0.9v-2.2h1.1c0.7,0,1.5,0,2.2-0.2c-0.7-0.5-1.1-1.3-1.1-2.2c0-1.1,0.7-2.4,2.4-3.7l-1.3-0.5
		c0.4-0.4,0.9-0.9,1.6-1.6c1.6,0.9,3.1,1.6,4.4,2.7C741,567.6,741.9,568.9,741.9,570.2z M737.1,568.7c0-0.5-0.2-0.9-0.4-1.3
		c-0.2-0.5-0.5-0.7-1.1-0.7s-0.9,0.2-1.5,0.5c-0.5,0.4-0.9,0.9-0.9,1.3c0,0.7,0.7,1.5,2,1.8c0.4-0.2,0.7-0.4,1.1-0.5
		C737,569.5,737.1,569.1,737.1,568.7z M741,570.9c0-0.5-0.4-1.1-1.1-1.8c-0.5-0.5-1.1-1.1-1.6-1.3c0,1.5-0.4,2.6-1.3,3.3
		c1.5,0.5,2.6,0.7,2.9,0.7C740.6,571.7,741,571.5,741,570.9z" class="area" title=""></path>
</g>
<g id="G_115" class="area" title="">
	<path id="PATH_116" d="M1018.7,636.8c0,1.8-0.5,3.5-1.6,5.1c-0.9,1.3-1.8,2-2.4,2c-1.5,0-2.6,0-3.7-0.2c-0.4,0-0.5-0.2-0.5-0.2
		s0.2-0.2,0.5-0.2c1.5-0.4,2.9-1.1,4.4-2.2c1.5-1.3,2.4-2.6,2.4-3.8c0-0.7-0.5-1.8-1.8-3.1l0.9-1.6c0-0.2,0.2-0.2,0.2-0.2l0.2,0.2
		c0.4,0.5,0.9,1.3,1.1,2.2C1018.5,635.4,1018.7,636.1,1018.7,636.8z M1017.4,626.9l-1.5,1.5l-1.5-1.5l1.5-1.5L1017.4,626.9z" class="area" title=""></path>
	<path id="PATH_117" d="M1023.1,634.3c0,0.7-0.2,1.5-0.5,2c-0.2,0.4-0.4,0.5-0.4,0.5s-0.2-0.2-0.2-0.7c0-2.2-0.4-7.3-1.1-15.6
		l1.5-1.5c0.2-0.2,0.2-0.2,0.2-0.2s0,0.2,0,0.4C1022.9,621.8,1023.1,626.8,1023.1,634.3z" class="area" title=""></path>
	<path id="PATH_118" d="M1034.4,636.7h-2c-0.2,2.6-1.1,4.6-2.9,6.4c-0.5,0.5-0.9,0.9-1.1,0.9c-0.9,0-2.2-0.2-3.5-0.4
		c-0.4,0-0.7-0.2-0.7-0.2s0.2-0.2,0.7-0.4c1.5-0.4,2.9-1.3,4.2-2.2c0.5-0.5,1.1-0.9,1.5-1.6c0.5-0.7,0.9-1.5,0.9-2v-0.5h-2.4
		c-1.8,0-2.6-0.7-2.6-2.2c0-0.9,0.2-1.8,0.7-2.9c0.5-1.1,1.3-1.8,2-1.8c0.9,0,1.6,0.5,2.2,1.8c0.4,0.9,0.7,1.8,0.7,2.9h2v2.2H1034.4
		z M1031.1,634.5c0-0.5-0.2-1.1-0.5-1.6c-0.4-0.7-0.9-0.9-1.5-0.9c-0.4,0-0.7,0.2-0.9,0.4c-0.2,0.2-0.4,0.5-0.4,1.1
		c0,0.9,0.7,1.3,2.2,1.3C1030,634.5,1030.6,634.5,1031.1,634.5z" class="area" title=""></path>
	<path id="PATH_119" d="M1045.6,633c0,0.7-0.2,1.5-0.7,2.2c-0.5,0.9-1.1,1.3-1.8,1.3c-0.5,0-1.8-0.4-3.8-1.3
		c-1.6,1.1-3.1,1.5-4.4,1.5h-0.9v-2.2h1.1c0.7,0,1.5,0,2.2-0.2c-0.7-0.5-1.1-1.3-1.1-2.2c0-1.1,0.7-2.4,2.4-3.7l-1.3-0.5
		c0.4-0.4,0.9-0.9,1.6-1.6c1.6,0.9,3.1,1.6,4.4,2.7C1044.7,630.2,1045.6,631.7,1045.6,633z M1040.8,631.3c0-0.5-0.2-0.9-0.4-1.3
		c-0.2-0.5-0.5-0.7-1.1-0.7s-0.9,0.2-1.5,0.5c-0.5,0.4-0.9,0.9-0.9,1.3c0,0.7,0.7,1.5,2,1.8c0.4-0.2,0.7-0.4,1.1-0.5
		C1040.6,632.3,1040.8,631.9,1040.8,631.3z M1044.7,633.5c0-0.5-0.4-1.1-1.1-1.8c-0.5-0.5-1.1-1.1-1.6-1.3c0,1.5-0.4,2.6-1.3,3.3
		c1.5,0.5,2.6,0.7,2.9,0.7C1044.3,634.5,1044.7,634.3,1044.7,633.5z" class="area" title=""></path>
	<path id="PATH_120" d="M1049.8,634.3c0,0.7-0.2,1.5-0.5,2c-0.2,0.4-0.4,0.5-0.4,0.5s-0.2-0.2-0.2-0.7c0-2.2-0.4-7.3-1.1-15.6
		l1.5-1.5c0.2-0.2,0.2-0.2,0.2-0.2s0,0.2,0,0.4C1049.8,621.8,1049.8,626.8,1049.8,634.3z" class="area" title=""></path>
</g>
<g id="G_121" class="area" title="">
	<path id="PATH_122" d="M899.9,670.7c0.2,0.5,0.2,1.1,0.2,1.6c0,0.7-0.2,1.3-0.4,2c-0.5,1.3-1.5,2.4-3.3,3.1
		c-1.5,0.5-2.9,0.9-4.6,0.9c-1.6,0-2.9-0.4-4-1.1c-1.1-0.9-1.6-2-1.6-3.7c0-0.9,0.2-1.6,0.5-2.7c0.4-0.7,0.5-1.3,0.9-1.6
		c0.2-0.2,0.4-0.2,0.4-0.2c0.2,0,0.2,0,0.2,0.2c0,0,0,0.2,0,0.4c-0.5,1.1-0.7,2.2-0.7,3.1c0,0.9,0.4,1.6,0.9,2.4
		c0.7,0.9,2,1.3,3.7,1.3c1.8,0,3.5-0.4,4.8-0.9c1.1-0.5,1.8-1.1,2.2-1.8c0.2-0.2,0.2-0.5,0.2-0.7c0-0.5-0.2-1.1-0.4-1.8
		c-0.2-0.5-0.7-1.5-1.6-2.9l0.7-1.5c0.2-0.2,0.2-0.4,0.2-0.4s0.2,0,0.2,0.2C899.1,667.8,899.7,669.2,899.9,670.7z M894.6,662.6
		l-1.5,1.5l-1.5-1.5l1.5-1.5L894.6,662.6z" class="area" title=""></path>
	<path id="PATH_123" d="M909.6,670.1c0,2.7-0.9,5.1-2.7,7c-0.5,0.5-0.9,0.9-1.1,0.9c-1.1,0-2.2-0.2-3.5-0.4c-0.5,0-0.7-0.2-0.7-0.2
		s0.2-0.2,0.7-0.4c1.5-0.4,2.9-1.3,4.2-2.4c0.5-0.5,1.1-0.9,1.5-1.6c0.5-0.7,0.9-1.5,0.9-2v-0.5h-2.4c-1.6,0-2.6-0.7-2.6-2
		c0-0.9,0.2-1.8,0.7-2.9c0.5-1.1,1.3-1.8,2-1.8c1.1,0,2,0.7,2.6,2.4C909.4,667.4,909.6,668.7,909.6,670.1z M908.3,668.7
		c0-0.5-0.2-1.1-0.5-1.6s-0.9-0.9-1.5-0.9c-0.4,0-0.7,0.2-0.9,0.4c-0.4,0.4-0.4,0.5-0.4,0.9c0,0.9,0.5,1.3,1.8,1.3
		C907,668.9,907.6,668.7,908.3,668.7z" class="area" title=""></path>
	<path id="PATH_124" d="M918.7,671.1c0,1.8-0.5,3.5-1.6,5.1c-0.9,1.3-1.8,2-2.4,2c-1.5,0-2.6,0-3.7-0.2c-0.4,0-0.5-0.2-0.5-0.2
		s0.2-0.2,0.5-0.2c1.5-0.4,2.9-1.1,4.4-2.2c1.5-1.3,2.4-2.6,2.4-3.8c0-0.7-0.5-1.8-1.8-3.1l0.9-1.6c0-0.2,0.2-0.2,0.2-0.2l0.2,0.2
		c0.4,0.5,0.9,1.3,1.1,2.2C918.5,669.6,918.7,670.3,918.7,671.1z" class="area" title=""></path>
	<path id="PATH_125" d="M926,670.9h-1.3c-1.3,0-2.4-0.5-2.7-1.6c-0.4-0.7-0.5-2-0.5-3.5v-3.5c0-1.6-0.2-4-0.4-7.1l1.1-1.3
		c0.2-0.2,0.4-0.2,0.4,0c0.2,1.6,0.4,4,0.4,7.1v5.3c0,1.5,0.7,2.2,2.2,2.2h0.9L926,670.9L926,670.9z" class="area" title=""></path>
	<path id="PATH_126" d="M937.4,653.9c0,0.4-0.4,1.1-0.7,2l-4.6,1.5c-2,0.7-3.5,1.3-4.2,1.6c1.5,1.5,2.4,2.6,2.9,3.1
		c0.9,1.3,1.5,2.4,1.6,3.7c0,0.9,0,1.8-0.4,2.6c-0.5,1.6-2.6,2.4-5.7,2.4h-0.9v-2.2h1.1c1.5,0,2.6,0,3.1-0.2c1.3-0.4,2-0.9,2-1.8
		c0-1.3-0.9-2.7-2.9-4.6l-0.2,0.4c-0.2-0.2-0.5-0.5-0.9-1.1c-0.5-0.5-0.7-1.1-0.7-1.1c0-0.4,0-0.7,0.2-1.5c0.2-0.7,0.4-1.1,0.5-1.3
		c0.2-0.2,1.5-0.7,3.8-1.5C933.5,655.1,935.7,654.4,937.4,653.9z" class="area" title=""></path>
</g>
<g id="G_127" class="area" title="">
	<path id="PATH_128" d="M640.1,796.3h-0.7c-0.7,0-1.1-0.2-1.5-0.4c0,0.2,0,0.4,0,0.5c0,1.6-0.5,3.3-1.6,4.9c-0.9,1.5-1.8,2-2.4,2
		c-1.5,0-2.6,0-3.7-0.2c-0.4,0-0.5-0.2-0.5-0.2s0.2-0.2,0.5-0.2c1.5-0.4,2.9-1.1,4.4-2.2c1.5-1.3,2.4-2.6,2.4-3.8
		c0-0.7-0.5-1.8-1.8-3.1l0.9-1.6c0-0.2,0.2-0.2,0.2-0.2l0.2,0.2c0.5,0.7,0.9,1.3,1.3,1.5c0.5,0.4,1.3,0.7,2,0.7h0.5v2H640.1z" class="area" title=""></path>
	<path id="PATH_129" d="M651.5,796.3h-0.9c-0.7,0-1.5,0.2-2,0.4c-0.9,0.4-1.5,0.9-1.5,1.8c0,1.1,0.7,2,2.2,2.9l-0.9,1.8
		c-1.6-0.5-3.1-1.5-4.2-2.6c-1.5-1.3-2.2-2.9-2.2-4.6h-2.6v-2.2h2.4c0-1.5,0.4-2.9,1.1-4.8c0.7-1.6,1.3-2.4,1.6-2.4
		c0.4,0,0.9,0.7,1.5,2.4c0.5,1.5,0.7,2.4,0.7,2.9c0,2.6-1.3,3.8-3.8,3.8c0.2,0.7,0.5,1.5,1.1,2.2c0.5,0.7,1.3,1.3,2,1.6
		c0-0.2,0-0.5,0-0.7c0-1.3,0.4-2.4,0.9-3.3c0.9-1.3,2-2,3.7-2h0.7v2.6H651.5z M645.8,793.3c0-0.4-0.2-1.1-0.5-2
		c-0.4-1.1-0.7-1.5-1.1-1.5c-0.2,0-0.5,0.4-0.9,1.3c-0.4,0.9-0.5,2-0.5,3.1C644.9,794.1,645.8,793.9,645.8,793.3z" class="area" title=""></path>
	<path id="PATH_130" d="M668.3,796.3h-1.1c-1.3,0-2-0.5-2.6-1.5c-0.4,1.1-1.3,1.5-2.4,1.5s-1.8-0.5-2.4-1.5
		c-0.5,1.1-1.3,1.5-2.4,1.5c-1.3,0-2.2-0.5-2.7-1.5c-0.7,1.1-1.6,1.5-2.9,1.5h-1.3v-2.2h1.5c1.3,0,2.2-0.7,2.4-2.2
		c0-0.4,0.2-0.5,0.4-0.5s0.2,0.2,0.4,0.5c0.2,1.5,0.9,2.2,2.4,2.2c1.3,0,2.2-0.7,2.2-2.2c0-0.4,0.2-0.5,0.4-0.5
		c0.2,0,0.4,0.2,0.4,0.5c0.2,1.5,0.9,2.2,1.8,2.2c1.3,0,2.2-0.7,2.2-2.2c0-0.4,0.2-0.5,0.4-0.5s0.4,0.2,0.4,0.5
		c0.2,1.5,0.9,2.2,2.2,2.2h1.1v2.2H668.3z M659.9,787.1l-1.3,1.3l-1.3-1.3l1.3-1.3L659.9,787.1z M661.4,784.2l-1.3,1.3l-1.3-1.3
		l1.3-1.3L661.4,784.2z M663,787.1l-1.3,1.3l-1.3-1.3l1.3-1.3L663,787.1z" class="area" title=""></path>
	<path id="PATH_131" d="M677.5,792.6c0,0.9,0,1.6-0.4,2.4c-0.4,0.9-0.9,1.5-1.5,1.5c-0.9,0-2.4-0.5-4.2-1.8
		c-0.5,0.7-0.9,1.1-1.1,1.3c-0.5,0.4-1.1,0.5-1.8,0.5h-0.9v-2.2h1.3c0.7,0,1.5-0.4,2.2-1.3c0.4-0.4,0.9-1.3,1.6-2.4
		c0.5-0.9,1.3-1.3,1.8-1.3c0.9,0,1.6,0.4,2.2,1.3C677.1,791.3,677.3,791.9,677.5,792.6z M676.4,793.9c0-0.5-0.2-1.1-0.5-1.8
		s-0.9-1.1-1.5-1.1c-0.5,0-1.1,0.5-1.8,1.6c0.4,0.4,0.9,0.7,1.6,1.1c0.7,0.4,1.5,0.5,1.8,0.5C676.2,794.4,676.4,794.3,676.4,793.9z" class="area" title=""></path>
	<path id="PATH_132" d="M688.8,796.3h-0.7c-0.7,0-1.1-0.2-1.5-0.4c0,0.2,0,0.4,0,0.5c0,1.6-0.5,3.3-1.6,4.9c-0.9,1.5-1.8,2-2.4,2
		c-1.5,0-2.6,0-3.7-0.2c-0.4,0-0.5-0.2-0.5-0.2s0.2-0.2,0.5-0.2c1.5-0.4,2.9-1.1,4.4-2.2c1.5-1.3,2.4-2.6,2.4-3.8
		c0-0.7-0.5-1.8-1.8-3.1l0.9-1.6c0-0.2,0.2-0.2,0.2-0.2l0.2,0.2c0.5,0.7,0.9,1.3,1.3,1.5c0.5,0.4,1.3,0.7,2,0.7h0.5v2H688.8z" class="area" title=""></path>
	<path id="PATH_133" d="M703.1,791l-0.7,1.5c-1.3,0-2.4,0-2.9,0.2c-0.7,0.4-1.8,0.7-3.3,1.5c-1.5,0.7-2.6,1.3-3.3,1.5
		c-1.1,0.4-2.4,0.5-3.5,0.5h-1.3v-2.2h1.5c1.6,0,3.1-0.4,4.4-0.9l4.2-1.8c-0.7-0.2-1.8-0.5-3.3-1.1c-1.3-0.5-2-0.7-2.4-0.7
		c-0.7,0-1.5,0.4-2.2,0.9c-0.2,0.2-0.2,0.2-0.4,0.2c-0.2,0-0.2,0-0.2-0.2V790c0.5-1.8,1.6-2.6,3.1-2.6c0.5,0,1.3,0.2,2,0.5
		c1.5,0.7,2.6,1.1,3.3,1.5c1.3,0.4,2.7,0.7,4.4,0.7c0.4,0,0.5,0,0.5,0.2C703.3,790.6,703.3,790.8,703.1,791z M698,782.5l-1.5,1.5
		l-1.5-1.5l1.5-1.5L698,782.5z" class="area" title=""></path>
</g>
<g id="G_134" class="area" title="">
	<path id="PATH_135" d="M894,825.9c0.2,0.5,0.2,1.1,0.2,1.6c0,0.7-0.2,1.3-0.4,2c-0.5,1.3-1.5,2.4-3.3,3.1c-1.5,0.5-2.9,0.9-4.6,0.9
		c-1.6,0-2.9-0.4-4-1.1c-1.1-0.9-1.6-2-1.6-3.7c0-0.9,0.2-1.6,0.5-2.7c0.4-0.7,0.5-1.3,0.9-1.6c0.2-0.2,0.4-0.2,0.4-0.2
		c0.2,0,0.2,0,0.2,0.2c0,0,0,0.2,0,0.4c-0.5,1.1-0.7,2.2-0.7,3.1c0,0.9,0.4,1.6,0.9,2.4c0.7,0.9,2,1.3,3.7,1.3
		c1.8,0,3.5-0.4,4.8-0.9c1.1-0.5,1.8-1.1,2.2-1.8c0.2-0.2,0.2-0.5,0.2-0.7c0-0.5-0.2-1.1-0.4-1.8c-0.2-0.5-0.7-1.5-1.6-2.9l0.7-1.5
		c0.2-0.2,0.2-0.4,0.2-0.4s0.2,0,0.2,0.2C893.3,823,893.8,824.5,894,825.9z M888.7,817.9l-1.5,1.5l-1.5-1.5l1.5-1.5L888.7,817.9z" class="area" title=""></path>
	<path id="PATH_136" d="M901.5,826.1h-1.3c-1.3,0-2.4-0.5-2.7-1.6c-0.4-0.7-0.5-2-0.5-3.5v-3.5c0-1.6-0.2-4-0.4-7.1l1.1-1.3
		c0.2-0.2,0.4-0.2,0.4,0c0.2,1.6,0.4,4,0.4,7.1v5.3c0,1.5,0.7,2.2,2.2,2.2h0.9V826.1z" class="area" title=""></path>
	<path id="PATH_137" d="M912.5,811.3c0,0.4-0.2,0.9-0.5,2c-2.2,0.5-4.9,1.5-8.1,2.4c2.2,2.2,3.5,4,3.7,5.3c0.2,0.9,0,1.8-0.4,2.7
		c-0.4,0.9-1.1,1.5-2,1.8c-0.7,0.4-2,0.4-3.7,0.4h-0.7v-2.2h0.5c3.5,0,5.3-0.5,5.3-1.8c0-0.9-0.9-2.4-2.9-4.2l-0.2,0.5
		c-0.2-0.2-0.5-0.5-0.9-1.1c-0.5-0.5-0.7-0.9-0.7-1.1c0-0.5,0.2-1.1,0.7-1.6c0.2-0.2,1.3-0.5,3.7-1.3
		C908.5,812.4,910.7,811.8,912.5,811.3z M912.1,808.5l-0.4,1.3l-9,2.9l0.4-1.3L912.1,808.5z" class="area" title=""></path>
	<path id="PATH_138" d="M923.1,822.3c0,2.6-1.6,3.8-5.1,3.8c-1.3,0-2.2-0.2-2.7-0.5c-0.7-0.4-1.1-1.3-1.1-2.4c0-0.5,0.2-1.1,0.4-1.6
		c0.2-0.2,0.2-0.4,0.4-0.4s0.2,0.2,0.2,0.5c0,0.2,0,0.4,0,0.5c0,0.7,0.4,1.3,1.1,1.5c0.4,0.2,1.1,0.2,2,0.2c2.7,0,4-0.4,4-1.3
		c0-1.3-1.6-3.1-4.8-5.3l0.5-1.8c0-0.2,0.2-0.2,0.2-0.2s0.2,0,0.4,0.2C921.7,817.9,923.1,820.3,923.1,822.3z" class="area" title=""></path>
	<path id="PATH_139" d="M930.4,826.1h-1.3c-1.3,0-2.4-0.5-2.7-1.6c-0.4-0.7-0.5-2-0.5-3.5v-3.5c0-1.6-0.2-4-0.4-7.1l1.1-1.3
		c0.2-0.2,0.4-0.2,0.4,0c0.2,1.6,0.4,4,0.4,7.1v5.3c0,1.5,0.7,2.2,2.2,2.2h0.9L930.4,826.1L930.4,826.1z" class="area" title=""></path>
	<path id="PATH_140" d="M944.9,822.3c0,1.1-0.2,2-0.7,2.7s-1.5,1.3-2.4,1.3c-1.3,0-2-0.5-2.6-1.5c-0.7,1.1-1.5,1.5-2.6,1.5
		c-1.3,0-2.2-0.5-2.7-1.5c-0.7,1.1-1.6,1.5-2.9,1.5h-1.3v-2.2h1.5c1.3,0,2.2-0.7,2.4-2.2c0-0.4,0.2-0.5,0.4-0.5s0.2,0.2,0.4,0.5
		c0.2,1.5,0.9,2.2,2.4,2.2c0.7,0,1.5-0.2,1.8-0.5c0.2-0.4,0.4-0.7,0.5-1.5c0-0.4,0.2-0.5,0.4-0.5s0.2,0.2,0.4,0.5
		c0.2,1.5,0.9,2.2,2.2,2.2c1.5,0,2-0.4,2-0.9s-0.4-1.3-1.1-2l0.9-1.6c0.2-0.2,0.2-0.4,0.4-0.4s0.2,0.2,0.4,0.4
		C944.5,820.4,944.9,821.3,944.9,822.3z M938.7,815.5l-1.3,1.3l-1.3-1.3l1.3-1.3L938.7,815.5z M940.3,812.7L939,814l-1.5-1.3
		l1.3-1.3L940.3,812.7z M942,815.5l-1.3,1.3l-1.3-1.3l1.3-1.3L942,815.5z" class="area" title=""></path>
</g>
<g id="G_141" class="area" title="">
	<path id="PATH_142" d="M904.8,977.3c0.2,0.5,0.2,1.1,0.2,1.6c0,0.7-0.2,1.3-0.4,2c-0.5,1.3-1.5,2.4-3.3,3.1
		c-1.5,0.5-2.9,0.9-4.6,0.9c-1.6,0-2.9-0.4-4-1.1c-1.1-0.9-1.6-2-1.6-3.7c0-0.9,0.2-1.6,0.5-2.7c0.4-0.7,0.5-1.3,0.9-1.6
		c0.2-0.2,0.4-0.2,0.4-0.2c0.2,0,0.2,0,0.2,0.2c0,0,0,0.2,0,0.4c-0.5,1.1-0.7,2.2-0.7,3.1s0.4,1.6,0.9,2.4c0.7,0.9,2,1.3,3.7,1.3
		c1.8,0,3.5-0.4,4.8-0.9c1.1-0.5,1.8-1.1,2.2-1.8c0.2-0.2,0.2-0.5,0.2-0.7c0-0.5-0.2-1.1-0.4-1.8c-0.2-0.5-0.7-1.5-1.6-2.9l0.7-1.5
		c0.2-0.2,0.2-0.4,0.2-0.4s0.2,0,0.2,0.2C904.1,974.4,904.6,975.8,904.8,977.3z M899.5,969.3l-1.5,1.5l-1.5-1.5l1.5-1.5L899.5,969.3
		z" class="area" title=""></path>
	<path id="PATH_143" d="M909.4,975.3c0,0.7-0.2,1.5-0.5,2c-0.2,0.4-0.4,0.5-0.4,0.5s-0.2-0.2-0.2-0.7c0-2.2-0.4-7.3-1.1-15.6
		l1.5-1.5c0.2-0.2,0.2-0.2,0.2-0.2s0,0.2,0,0.4C909.2,962.7,909.4,967.6,909.4,975.3z" class="area" title=""></path>
	<path id="PATH_144" d="M920.6,973.6c0,2.6-1.6,3.8-5.1,3.8c-1.3,0-2.2-0.2-2.7-0.5c-0.7-0.4-1.1-1.3-1.1-2.4c0-0.5,0.2-1.1,0.4-1.6
		c0.2-0.2,0.2-0.4,0.4-0.4c0.2,0,0.2,0.2,0.2,0.5c0,0.2,0,0.4,0,0.5c0,0.7,0.4,1.3,1.1,1.5c0.4,0.2,1.1,0.2,2,0.2c2.7,0,4-0.4,4-1.3
		c0-1.3-1.6-3.1-4.8-5.3l0.5-1.8c0-0.2,0.2-0.2,0.2-0.2s0.2,0,0.4,0.2C918.9,969.3,920.6,971.6,920.6,973.6z" class="area" title=""></path>
	<path id="PATH_145" d="M927.9,977.5h-1.3c-1.3,0-2.4-0.5-2.7-1.6c-0.4-0.7-0.5-2-0.5-3.5v-3.5c0-1.6-0.2-4-0.4-7.1l1.1-1.3
		c0.2-0.2,0.4-0.2,0.4,0c0.2,1.6,0.4,4,0.4,7.1v5.3c0,1.5,0.7,2.2,2.2,2.2h0.9L927.9,977.5L927.9,977.5z" class="area" title=""></path>
	<path id="PATH_146" d="M932.1,973.8c0,2.4-1.3,3.7-3.7,3.7H927v-2.2h1.3c1.8,0,2.7-0.4,2.7-0.9s-0.4-1.3-1.3-2.2l0.7-1.8
		c0-0.2,0.2-0.2,0.2-0.2s0.2,0.2,0.4,0.4C931.7,971.5,932.1,972.7,932.1,973.8z M931.5,981.5l-1.5,1.5l-1.5-1.5l1.5-1.5L931.5,981.5
		z" class="area" title=""></path>
	<path id="PATH_147" d="M939.6,957.9c-0.7,0.7-1.8,0.9-2.9,0.9c-0.2,0-0.4,0-0.7,0c-0.4,0-0.5,0-0.7,0s-0.4,0.2-0.5,0.4
		c-0.2,0.2-0.4,0.4-0.4,0.4c-0.2,0-0.2-0.2-0.2-0.4c0-0.2,0.2-0.5,0.4-0.9c0.2-0.5,0.4-0.7,0.5-0.7s0.5,0,1.1,0.2
		c0.5,0.2,0.9,0.2,1.1,0.2c1.1,0,1.8,0,2.4-0.2c0.4,0,0.5-0.2,0.5-0.2h0.2C940,957.5,939.8,957.7,939.6,957.9z M938.3,975.3
		c0,0.7-0.2,1.5-0.5,2c-0.2,0.4-0.4,0.5-0.4,0.5s-0.2-0.2-0.2-0.7c0-2.2-0.4-7.3-1.1-15.6l1.5-1.5c0.2-0.2,0.2-0.2,0.2-0.2
		s0,0.2,0,0.4C938.3,962.7,938.3,967.6,938.3,975.3z" class="area" title=""></path>
</g>
<g id="G_148" class="area" title="">
	<path id="PATH_149" d="M1033.3,829.8h-0.7c-0.7,0-1.1-0.2-1.5-0.4c0,0.2,0,0.4,0,0.5c0,1.6-0.5,3.3-1.6,4.9c-0.9,1.5-1.8,2-2.4,2
		c-1.5,0-2.6,0-3.7-0.2c-0.4,0-0.5-0.2-0.5-0.2s0.2-0.2,0.5-0.2c1.5-0.4,2.9-1.1,4.4-2.2c1.5-1.3,2.4-2.6,2.4-3.8
		c0-0.7-0.5-1.8-1.8-3.1l0.9-1.6c0-0.2,0.2-0.2,0.2-0.2l0.2,0.2c0.5,0.7,0.9,1.3,1.3,1.5c0.5,0.4,1.3,0.7,2,0.7h0.5v2H1033.3z" class="area" title=""></path>
	<path id="PATH_150" d="M1044.7,829.8h-0.9c-0.7,0-1.5,0.2-2,0.4c-0.9,0.4-1.5,0.9-1.5,1.8c0,1.1,0.7,2,2.2,2.9l-0.9,1.8
		c-1.6-0.5-3.1-1.5-4.2-2.6c-1.5-1.3-2.2-2.9-2.2-4.6h-2.6v-2.2h2.4c0-1.5,0.4-2.9,1.1-4.8c0.7-1.6,1.3-2.4,1.6-2.4
		c0.4,0,0.9,0.7,1.5,2.4c0.5,1.5,0.7,2.4,0.7,2.9c0,2.6-1.3,3.8-3.8,3.8c0.2,0.7,0.5,1.5,1.1,2.2c0.5,0.7,1.3,1.3,2,1.6
		c0-0.2,0-0.5,0-0.7c0-1.3,0.4-2.4,0.9-3.3c0.9-1.3,2-2,3.7-2h0.7v2.6H1044.7z M1039.2,826.8c0-0.4-0.2-1.1-0.5-2
		c-0.4-1.1-0.7-1.5-1.1-1.5c-0.2,0-0.5,0.4-0.9,1.3c-0.4,0.9-0.5,2-0.5,3.1C1038.1,827.6,1039.2,827.4,1039.2,826.8z" class="area" title=""></path>
	<path id="PATH_151" d="M1061.7,829.8h-1.1c-1.3,0-2-0.5-2.6-1.5c-0.4,1.1-1.3,1.5-2.4,1.5s-1.8-0.5-2.4-1.5
		c-0.5,1.1-1.3,1.5-2.4,1.5c-1.3,0-2.2-0.5-2.7-1.5c-0.7,1.1-1.6,1.5-2.9,1.5h-1.3v-2.2h1.5c1.3,0,2.2-0.7,2.4-2.2
		c0-0.4,0.2-0.5,0.4-0.5c0.2,0,0.2,0.2,0.4,0.5c0.2,1.5,0.9,2.2,2.4,2.2c1.3,0,2.2-0.7,2.2-2.2c0-0.4,0.2-0.5,0.4-0.5
		s0.4,0.2,0.4,0.5c0.2,1.5,0.9,2.2,1.8,2.2c1.3,0,2.2-0.7,2.2-2.2c0-0.4,0.2-0.5,0.4-0.5s0.4,0.2,0.4,0.5c0.2,1.5,0.9,2.2,2.2,2.2
		h1.1v2.2H1061.7z M1053.1,820.4l-1.3,1.3l-1.3-1.3l1.3-1.3L1053.1,820.4z M1054.7,817.7l-1.3,1.3l-1.3-1.3l1.3-1.3L1054.7,817.7z
		 M1056.4,820.4l-1.3,1.3l-1.3-1.3l1.3-1.3L1056.4,820.4z" class="area" title=""></path>
	<path id="PATH_152" d="M1072.9,825.9c0,0.7-0.2,1.5-0.7,2.2c-0.5,0.9-1.1,1.3-1.8,1.3c-0.5,0-1.8-0.4-3.8-1.3
		c-1.6,1.1-3.1,1.5-4.4,1.5h-0.9v-2.2h1.1c0.7,0,1.5,0,2.2-0.2c-0.7-0.5-1.1-1.3-1.1-2.2c0-1.1,0.7-2.4,2.4-3.7l-1.3-0.5
		c0.4-0.4,0.9-0.9,1.6-1.6c1.6,0.9,3.1,1.6,4.4,2.7C1071.9,823.4,1072.9,824.8,1072.9,825.9z M1067.9,824.5c0-0.5-0.2-0.9-0.4-1.3
		c-0.2-0.5-0.5-0.7-1.1-0.7s-0.9,0.2-1.5,0.5c-0.5,0.4-0.9,0.9-0.9,1.3c0,0.7,0.7,1.5,2,1.8c0.4-0.2,0.7-0.4,1.1-0.5
		C1067.7,825.4,1067.9,825,1067.9,824.5z M1071.8,826.7c0-0.5-0.4-1.1-1.1-1.8c-0.5-0.5-1.1-1.1-1.6-1.3c0,1.5-0.4,2.6-1.3,3.3
		c1.5,0.5,2.6,0.7,2.9,0.7C1071.4,827.6,1071.8,827.4,1071.8,826.7z" class="area" title=""></path>
	<path id="PATH_153" d="M1080,829.8h-1.3c-1.3,0-2.4-0.5-2.7-1.6c-0.4-0.7-0.5-2-0.5-3.5v-3.5c0-1.6-0.2-4-0.4-7.1l1.1-1.3
		c0.2-0.2,0.4-0.2,0.4,0c0.2,1.6,0.4,4,0.4,7.1v5.3c0,1.5,0.7,2.2,2.2,2.2h0.9V829.8L1080,829.8z" class="area" title=""></path>
	<path id="PATH_154" d="M1089.1,826.1c0,0.9,0,1.6-0.4,2.4c-0.4,0.9-0.9,1.5-1.5,1.5c-0.9,0-2.4-0.5-4.2-1.8
		c-0.5,0.7-0.9,1.1-1.1,1.3c-0.5,0.4-1.1,0.5-1.8,0.5h-0.9v-2.2h1.3c0.7,0,1.5-0.4,2.2-1.3c0.4-0.4,0.9-1.3,1.6-2.4
		c0.5-0.9,1.3-1.3,1.8-1.3c0.9,0,1.6,0.4,2.2,1.3C1088.8,824.8,1089,825.4,1089.1,826.1z M1088,827.4c0-0.5-0.2-1.1-0.5-1.8
		s-0.9-1.1-1.5-1.1c-0.5,0-1.1,0.5-1.8,1.6c0.4,0.4,0.9,0.7,1.6,1.1c0.7,0.4,1.5,0.5,1.8,0.5C1087.9,827.9,1088,827.8,1088,827.4z" class="area" title=""></path>
</g>
<g id="G_155" class="area" title="">
	<path id="PATH_156" d="M1198.2,945.3c0.2,0.5,0.2,1.1,0.2,1.6c0,0.7-0.2,1.3-0.4,2c-0.5,1.3-1.5,2.4-3.3,3.1
		c-1.5,0.5-2.9,0.9-4.6,0.9c-1.6,0-2.9-0.4-4-1.1c-1.1-0.9-1.6-2-1.6-3.7c0-0.9,0.2-1.6,0.5-2.7c0.4-0.7,0.5-1.3,0.9-1.6
		c0.2-0.2,0.4-0.2,0.4-0.2c0.2,0,0.2,0,0.2,0.2c0,0,0,0.2,0,0.4c-0.5,1.1-0.7,2.2-0.7,3.1c0,0.9,0.4,1.6,0.9,2.4
		c0.7,0.9,2,1.3,3.7,1.3c1.8,0,3.5-0.4,4.8-0.9c1.1-0.5,1.8-1.1,2.2-1.8c0.2-0.2,0.2-0.5,0.2-0.7c0-0.5-0.2-1.1-0.4-1.8
		c-0.2-0.5-0.7-1.5-1.6-2.9l0.7-1.5c0.2-0.2,0.2-0.4,0.2-0.4s0.2,0,0.2,0.2C1197.5,942.3,1198.1,943.8,1198.2,945.3z M1192.9,937.2
		l-1.5,1.5l-1.5-1.5l1.5-1.5L1192.9,937.2z" class="area" title=""></path>
	<path id="PATH_157" d="M1205.7,945.5h-1.3c-1.3,0-2.4-0.5-2.7-1.6c-0.4-0.7-0.5-2-0.5-3.5v-3.5c0-1.6-0.2-4-0.4-7.1l1.1-1.3
		c0.2-0.2,0.4-0.2,0.4,0c0.2,1.6,0.4,4,0.4,7.1v5.3c0,1.5,0.7,2.2,2.2,2.2h0.9L1205.7,945.5L1205.7,945.5z" class="area" title=""></path>
	<path id="PATH_158" d="M1221.9,945.5h-1.8c-2.4,0-3.7-1.3-3.7-3.7c0-0.4,0-0.5,0-0.9c-0.9,0.4-2,1.1-3.5,2
		c-1.5,0.9-2.4,1.5-3.1,1.8c-1.1,0.5-2.4,0.7-3.5,0.7h-1.5v-2.2h1.5c1.5,0,3.1-0.4,4.6-1.1c0.7-0.4,2-1.1,4-2
		c-0.4,0-1.5-0.4-3.3-0.7c-1.3-0.4-2-0.5-2.2-0.5c-0.7,0-1.5,0.4-2.2,0.9c-0.2,0.2-0.2,0.2-0.4,0.2c-0.2,0-0.2,0-0.2-0.2v-0.2
		c0.5-1.8,1.6-2.7,3.1-2.7c0.5,0,1.3,0.2,2.2,0.4c1.3,0.4,2.4,0.7,3.3,0.9c1.3,0.2,2.7,0.4,4.4,0.4c0.4,0,0.4,0,0.5,0
		c0.2,0,0,0.2,0,0.4l-0.5,1.6c-1.1,0-1.8,0-2.2,0.2c0,0.9,0.2,1.5,0.4,1.6c0.4,0.5,1.1,0.9,2.4,0.9h1.8v2.2H1221.9z M1214.7,949.1
		l-1.5,1.5l-1.5-1.5l1.5-1.5L1214.7,949.1z" class="area" title=""></path>
	<path id="PATH_159" d="M1226.1,941.8c0,2.4-1.3,3.7-3.7,3.7h-1.5v-2.2h1.3c1.8,0,2.7-0.4,2.7-0.9s-0.4-1.3-1.3-2.2l0.7-1.8
		c0-0.2,0.2-0.2,0.2-0.2s0.2,0.2,0.4,0.4C1225.7,939.4,1226.1,940.7,1226.1,941.8z M1224.6,949.5l-1.5,1.5l-1.5-1.5l1.5-1.5
		L1224.6,949.5z M1227.7,949.5l-1.5,1.5l-1.5-1.5l1.5-1.5L1227.7,949.5z" class="area" title=""></path>
	<path id="PATH_160" d="M1242,945.5h-0.7c-0.7,0-1.3-0.2-1.8-0.7c-0.4-0.4-0.7-0.7-1.1-1.5c-0.4,0.7-0.9,1.3-1.5,1.6
		c-0.7,0.4-1.6,0.5-3.1,0.5c-2.6,0-3.8-0.9-3.8-2.7c0-0.5,0.2-1.3,0.5-1.8c0.2-0.2,0.2-0.4,0.4-0.4s0.2,0.2,0.2,0.4
		c0,0.2,0,0.2,0,0.5s0,0.4,0,0.5c0,1.1,0.9,1.6,2.7,1.6c2.6,0,3.8-0.5,3.8-1.5c0-0.5-0.7-2.6-2.2-6l0.7-1.5c0.2-0.2,0.2-0.4,0.2-0.4
		s0.2,0.2,0.2,0.4c0.5,1.5,1.5,3.7,2.6,6.6c0.5,1.5,1.3,2.2,2.4,2.2h0.5L1242,945.5L1242,945.5z" class="area" title=""></path>
	<path id="PATH_161" d="M1251.1,945.5h-1.5c-1.6,0-2.7-0.5-3.5-1.6c-0.5,1.1-1.8,1.6-3.8,1.6h-1.1v-2.2h1.6c1.8,0,2.7-0.7,2.9-2
		c0-0.5,0.2-0.9,0.4-0.9c0.2,0,0.4,0.4,0.4,0.9c0.2,1.3,1.1,2,2.7,2h1.6v2.2H1251.1z M1247.5,935.9l-1.5,1.5l-1.5-1.5l1.5-1.5
		L1247.5,935.9z" class="area" title=""></path>
	<path id="PATH_162" d="M1262.3,941.8c0,0.7-0.2,1.5-0.7,2.2c-0.5,0.9-1.1,1.3-1.8,1.3c-0.5,0-1.8-0.4-3.8-1.3
		c-1.6,1.1-3.1,1.5-4.4,1.5h-0.9v-2.2h1.1c0.7,0,1.5,0,2.2-0.2c-0.7-0.5-1.1-1.3-1.1-2.2c0-1.1,0.7-2.4,2.4-3.7l-1.3-0.5
		c0.4-0.4,0.9-0.9,1.6-1.6c1.6,0.9,3.1,1.6,4.4,2.7C1261.4,939.2,1262.3,940.5,1262.3,941.8z M1257.4,940.3c0-0.5-0.2-0.9-0.4-1.3
		c-0.2-0.5-0.5-0.7-1.1-0.7s-0.9,0.2-1.5,0.5c-0.5,0.4-0.9,0.9-0.9,1.3c0,0.7,0.7,1.5,2,1.8c0.4-0.2,0.7-0.4,1.1-0.5
		C1257.2,941.1,1257.4,940.7,1257.4,940.3z M1261.2,942.5c0-0.5-0.4-1.1-1.1-1.8c-0.5-0.5-1.1-1.1-1.6-1.3c0,1.5-0.4,2.6-1.3,3.3
		c1.5,0.5,2.6,0.7,2.9,0.7C1260.8,943.3,1261.2,943.1,1261.2,942.5z" class="area" title=""></path>
</g>
<g id="G_163" class="area" title="">
	<path id="PATH_164" d="M1359.3,873c0.2,0.5,0.2,1.1,0.2,1.6c0,0.7-0.2,1.3-0.4,2c-0.5,1.3-1.5,2.4-3.3,3.1
		c-1.5,0.5-2.9,0.9-4.6,0.9s-2.9-0.4-4-1.1c-1.1-0.9-1.6-2-1.6-3.7c0-0.9,0.2-1.6,0.5-2.7c0.4-0.7,0.5-1.3,0.9-1.6
		c0.2-0.2,0.4-0.2,0.4-0.2c0.2,0,0.2,0,0.2,0.2c0,0,0,0.2,0,0.4c-0.5,1.1-0.7,2.2-0.7,3.1c0,0.9,0.4,1.6,0.9,2.4
		c0.7,0.9,2,1.3,3.7,1.3c1.8,0,3.5-0.4,4.8-0.9c1.1-0.5,1.8-1.1,2.2-1.8c0.2-0.2,0.2-0.5,0.2-0.7c0-0.5-0.2-1.1-0.4-1.8
		c-0.2-0.5-0.7-1.5-1.6-2.9l0.7-1.5c0.2-0.2,0.2-0.4,0.2-0.4s0.2,0,0.2,0.2C1358.6,870,1359.1,871.5,1359.3,873z M1354,864.9
		l-1.5,1.5l-1.5-1.5l1.5-1.5L1354,864.9z" class="area" title=""></path>
	<path id="PATH_165" d="M1366.8,873.2h-1.3c-1.3,0-2.4-0.5-2.7-1.6c-0.4-0.7-0.5-2-0.5-3.5v-3.5c0-1.6-0.2-4-0.4-7.1l1.1-1.3
		c0.2-0.2,0.4-0.2,0.4,0c0.2,1.6,0.4,4,0.4,7.1v5.3c0,1.5,0.7,2.2,2.2,2.2h0.9V873.2L1366.8,873.2z" class="area" title=""></path>
	<path id="PATH_166" d="M1378.2,873.2h-0.9c-0.7,0-1.5,0.2-2,0.4c-0.9,0.4-1.5,0.9-1.5,1.8c0,1.1,0.7,2,2.2,2.9l-0.9,1.8
		c-1.6-0.5-3.1-1.5-4.2-2.6c-1.5-1.3-2.2-2.9-2.2-4.6h-2.6v-2.2h2.4c0-1.5,0.4-2.9,1.1-4.8c0.7-1.6,1.3-2.4,1.6-2.4s0.9,0.7,1.5,2.4
		c0.5,1.5,0.7,2.4,0.7,2.9c0,2.6-1.3,3.8-3.8,3.8c0.2,0.7,0.5,1.5,1.1,2.2s1.3,1.3,2,1.6c0-0.2,0-0.5,0-0.7c0-1.3,0.4-2.4,0.9-3.3
		c0.9-1.3,2-2,3.7-2h0.7v2.6H1378.2z M1372.7,870.2c0-0.4-0.2-1.1-0.5-2c-0.4-1.1-0.7-1.5-1.1-1.5c-0.2,0-0.5,0.4-0.9,1.3
		c-0.4,0.9-0.5,2-0.5,3.1C1371.6,871,1372.7,870.8,1372.7,870.2z" class="area" title=""></path>
	<path id="PATH_167" d="M1387.1,873.2h-1.5c-1.6,0-2.7-0.5-3.5-1.6c-0.5,1.1-1.8,1.6-3.8,1.6h-1.1V871h1.6c1.8,0,2.7-0.7,2.9-2
		c0-0.5,0.2-0.9,0.4-0.9c0.2,0,0.4,0.4,0.4,0.9c0.2,1.3,1.1,2,2.7,2h1.6v2.2H1387.1z M1383.1,877.2l-1.5,1.5l-1.5-1.5l1.5-1.5
		L1383.1,877.2z" class="area" title=""></path>
	<path id="PATH_168" d="M1398.5,873.2h-0.9c-0.7,0-1.5,0.2-2,0.4c-0.9,0.4-1.5,0.9-1.5,1.8c0,1.1,0.7,2,2.2,2.9l-0.9,1.8
		c-1.6-0.5-3.1-1.5-4.2-2.6c-1.5-1.3-2.2-2.9-2.2-4.6h-2.6v-2.2h2.4c0-1.5,0.4-2.9,1.1-4.8c0.7-1.6,1.3-2.4,1.6-2.4
		c0.4,0,0.9,0.7,1.5,2.4c0.5,1.5,0.7,2.4,0.7,2.9c0,2.6-1.3,3.8-3.8,3.8c0.2,0.7,0.5,1.5,1.1,2.2c0.5,0.7,1.3,1.3,2,1.6
		c0-0.2,0-0.5,0-0.7c0-1.3,0.4-2.4,0.9-3.3c0.9-1.3,2-2,3.7-2h0.7v2.6H1398.5z M1393,870.2c0-0.4-0.2-1.1-0.5-2
		c-0.4-1.1-0.7-1.5-1.1-1.5c-0.2,0-0.5,0.4-0.9,1.3c-0.4,0.9-0.5,2-0.5,3.1C1391.9,871,1393,870.8,1393,870.2z" class="area" title=""></path>
	<path id="PATH_169" d="M1402.9,869.5c0,2.4-1.3,3.7-3.7,3.7h-1.5V871h1.3c1.8,0,2.7-0.4,2.7-0.9s-0.4-1.3-1.3-2.2l0.7-1.8
		c0-0.2,0.2-0.2,0.2-0.2s0.2,0.2,0.4,0.4C1402.5,867.1,1402.9,868.4,1402.9,869.5z M1402.3,877.2l-1.5,1.5l-1.5-1.5l1.5-1.5
		L1402.3,877.2z" class="area" title=""></path>
</g>
<g id="G_170" class="area" title="">
	<path id="PATH_171" d="M1179.4,808.2h-1.3c-1.6,0-2.6-0.9-2.9-2.9c-0.9,0.9-1.3,1.3-1.5,1.3h-1.6c-0.5,0-1.1,0-1.6-0.2
		c-0.7-0.2-1.1-0.5-1.1-0.9c0-1.5,0.5-2.6,1.5-3.3c0.7-0.5,1.8-1.1,3.3-1.8l-0.4-1.8l1.3-1.5c0,0.2,0.5,2.2,1.3,6
		c0.2,1.1,0.5,2,0.7,2.4c0.4,0.5,0.7,0.7,1.5,0.7h1.3v2H1179.4z M1174.8,804.5l-0.5-2.9c-0.5,0.2-1.3,0.5-2.2,0.9
		c-1.1,0.5-1.8,1.1-1.8,1.3c0,0.4,0.4,0.5,1.3,0.7c0.5,0.2,1.1,0.2,1.6,0.2C1173.9,804.5,1174.4,804.5,1174.8,804.5z" class="area" title=""></path>
	<path id="PATH_172" d="M1183.8,804.5c0,2.4-1.3,3.7-3.7,3.7h-1.5V806h1.3c1.8,0,2.7-0.4,2.7-0.9s-0.4-1.3-1.3-2.2l0.7-1.8
		c0-0.2,0.2-0.2,0.2-0.2s0.2,0.2,0.4,0.4C1183.4,802.1,1183.8,803.4,1183.8,804.5z M1182.3,812.2l-1.5,1.5l-1.5-1.5l1.5-1.5
		L1182.3,812.2z M1185.4,812.2l-1.5,1.5l-1.5-1.5l1.5-1.5L1185.4,812.2z" class="area" title=""></path>
	<path id="PATH_173" d="M1199.9,808.2h-0.7c-0.7,0-1.3-0.2-1.8-0.7c-0.4-0.4-0.7-0.7-1.1-1.5c-0.4,0.7-0.9,1.3-1.5,1.6
		c-0.7,0.4-1.6,0.5-3.1,0.5c-2.6,0-3.8-0.9-3.8-2.7c0-0.5,0.2-1.3,0.5-1.8c0.2-0.2,0.2-0.4,0.4-0.4c0.2,0,0.2,0.2,0.2,0.4
		c0,0.2,0,0.2,0,0.5c0,0.4,0,0.4,0,0.5c0,1.1,0.9,1.6,2.7,1.6c2.6,0,3.8-0.5,3.8-1.5c0-0.5-0.7-2.6-2.2-6l0.7-1.5
		c0.2-0.2,0.2-0.4,0.2-0.4s0.2,0.2,0.2,0.4c0.5,1.5,1.5,3.7,2.6,6.6c0.5,1.5,1.3,2.2,2.4,2.2h0.5L1199.9,808.2L1199.9,808.2z" class="area" title=""></path>
	<path id="PATH_174" d="M1208.9,808.2h-1.5c-1.6,0-2.7-0.5-3.5-1.6c-0.5,1.1-1.8,1.6-3.8,1.6h-1.1V806h1.6c1.8,0,2.7-0.7,2.9-2
		c0-0.5,0.2-0.9,0.4-0.9c0.2,0,0.4,0.4,0.4,0.9c0.2,1.3,1.1,2,2.7,2h1.6v2.2H1208.9z M1202.8,812.2l-1.5,1.5l-1.5-1.5l1.5-1.5
		L1202.8,812.2z M1205.9,812.2l-1.5,1.5l-1.5-1.5l1.5-1.5L1205.9,812.2z" class="area" title=""></path>
	<path id="PATH_175" d="M1218,804.5c0,0.9,0,1.6-0.4,2.4c-0.4,0.9-0.9,1.5-1.5,1.5c-0.9,0-2.4-0.5-4.2-1.8c-0.5,0.7-0.9,1.1-1.1,1.3
		c-0.5,0.4-1.1,0.5-1.8,0.5h-0.9v-2.2h1.3c0.7,0,1.5-0.4,2.2-1.3c0.4-0.4,0.9-1.3,1.6-2.4c0.5-0.9,1.3-1.3,1.8-1.3
		c0.9,0,1.6,0.4,2.2,1.3C1217.6,803.2,1217.8,803.8,1218,804.5z M1216.9,805.8c0-0.5-0.2-1.1-0.5-1.8c-0.4-0.7-0.9-1.1-1.5-1.1
		c-0.5,0-1.1,0.5-1.8,1.6c0.4,0.4,0.9,0.7,1.6,1.1c0.7,0.4,1.5,0.5,1.8,0.5C1216.7,806.3,1216.9,806.2,1216.9,805.8z" class="area" title=""></path>
	<path id="PATH_176" d="M1222.2,806c0,0.7-0.2,1.5-0.5,2c-0.2,0.4-0.4,0.5-0.4,0.5s-0.2-0.2-0.2-0.7c0-2.2-0.4-7.3-1.1-15.6l1.5-1.5
		c0.2-0.2,0.2-0.2,0.2-0.2s0,0.2,0,0.4C1222.2,793.3,1222.2,798.3,1222.2,806z" class="area" title=""></path>
</g>
<g id="G_177" class="area" title="">
	<path id="PATH_178" d="M1113.3,723.2h-0.7c-0.7,0-1.1-0.2-1.5-0.4c0,0.2,0,0.4,0,0.5c0,1.6-0.5,3.3-1.6,4.9c-0.9,1.5-1.8,2-2.4,2
		c-1.5,0-2.6,0-3.7-0.2c-0.4,0-0.5-0.2-0.5-0.2s0.2-0.2,0.5-0.2c1.5-0.4,2.9-1.1,4.4-2.2c1.5-1.3,2.4-2.6,2.4-3.8
		c0-0.7-0.5-1.8-1.8-3.1l0.9-1.6c0-0.2,0.2-0.2,0.2-0.2l0.2,0.2c0.5,0.7,0.9,1.3,1.3,1.5c0.5,0.4,1.3,0.7,2,0.7h0.5v2H1113.3z" class="area" title=""></path>
	<path id="PATH_179" d="M1122.3,723.2h-1.5c-1.6,0-2.7-0.5-3.5-1.6c-0.5,1.1-1.8,1.6-3.8,1.6h-1.1V721h1.6c1.8,0,2.7-0.7,2.9-2
		c0-0.5,0.2-0.9,0.4-0.9c0.2,0,0.4,0.4,0.4,0.9c0.2,1.3,1.1,2,2.7,2h1.6v2.2H1122.3z M1116.2,727.3l-1.5,1.5l-1.5-1.5l1.5-1.5
		L1116.2,727.3z M1119.3,727.3l-1.5,1.5l-1.5-1.5l1.5-1.5L1119.3,727.3z" class="area" title=""></path>
	<path id="PATH_180" d="M1139.1,723.2h-1.1c-1.3,0-2-0.5-2.6-1.5c-0.4,1.1-1.3,1.5-2.4,1.5s-1.8-0.5-2.4-1.5
		c-0.5,1.1-1.3,1.5-2.4,1.5c-1.3,0-2.2-0.5-2.7-1.5c-0.7,1.1-1.6,1.5-2.9,1.5h-1.3V721h1.5c1.3,0,2.2-0.7,2.4-2.2
		c0-0.4,0.2-0.5,0.4-0.5c0.2,0,0.2,0.2,0.4,0.5c0.2,1.5,0.9,2.2,2.4,2.2c1.3,0,2.2-0.7,2.2-2.2c0-0.4,0.2-0.5,0.4-0.5
		s0.4,0.2,0.4,0.5c0.2,1.5,0.9,2.2,1.8,2.2c1.3,0,2.2-0.7,2.2-2.2c0-0.4,0.2-0.5,0.4-0.5s0.4,0.2,0.4,0.5c0.2,1.5,0.9,2.2,2.2,2.2
		h1.1v2.2H1139.1z M1130.7,714.1l-1.3,1.3l-1.5-1.5l1.3-1.3L1130.7,714.1z M1132.2,711.2l-1.3,1.3l-1.3-1.3l1.3-1.3L1132.2,711.2z
		 M1133.8,713.9l-1.3,1.3l-1.3-1.3l1.3-1.3L1133.8,713.9z" class="area" title=""></path>
	<path id="PATH_181" d="M1148.3,719.6c0,0.9,0,1.6-0.4,2.4c-0.4,0.9-0.9,1.5-1.5,1.5c-0.9,0-2.4-0.5-4.2-1.8
		c-0.5,0.7-0.9,1.1-1.1,1.3c-0.5,0.4-1.1,0.5-1.8,0.5h-0.9v-2.2h1.3c0.7,0,1.5-0.4,2.2-1.3c0.4-0.4,0.9-1.3,1.6-2.4
		c0.5-0.9,1.3-1.3,1.8-1.3c0.9,0,1.6,0.4,2.2,1.3C1147.9,718.3,1148.1,718.8,1148.3,719.6z M1147.2,720.9c0-0.5-0.2-1.1-0.5-1.8
		c-0.4-0.7-0.9-1.1-1.5-1.1c-0.5,0-1.1,0.5-1.8,1.6c0.4,0.4,0.9,0.7,1.6,1.1c0.7,0.4,1.5,0.5,1.8,0.5
		C1147,721.4,1147.2,721.2,1147.2,720.9z" class="area" title=""></path>
	<path id="PATH_182" d="M1152.5,720.9c0,0.7-0.2,1.5-0.5,2c-0.2,0.4-0.4,0.5-0.4,0.5s-0.2-0.2-0.2-0.7c0-2.2-0.4-7.3-1.1-15.6
		l1.5-1.5c0.2-0.2,0.2-0.2,0.2-0.2s0,0.2,0,0.4C1152.5,708.4,1152.5,713.3,1152.5,720.9z" class="area" title=""></path>
	<path id="PATH_183" d="M1161.8,723.4c0,1.8-0.5,3.5-1.6,5.1c-0.9,1.3-1.8,2-2.4,2c-1.5,0-2.6,0-3.7-0.2c-0.4,0-0.5-0.2-0.5-0.2
		s0.2-0.2,0.5-0.2c1.5-0.4,2.9-1.1,4.4-2.2c1.5-1.3,2.4-2.6,2.4-3.8c0-0.7-0.5-1.8-1.8-3.1l0.9-1.6c0-0.2,0.2-0.2,0.2-0.2l0.2,0.2
		c0.4,0.5,0.9,1.3,1.1,2.2C1161.6,722,1161.8,722.7,1161.8,723.4z" class="area" title=""></path>
</g>
<g id="G_184" class="area" title="">
	<path id="PATH_185" d="M1189.3,636.7h-0.9c-0.7,0-1.1-0.2-1.5-0.4c0,0.2,0,0.4,0,0.5c0,1.6-0.5,3.3-1.6,4.9c-0.9,1.5-1.8,2-2.4,2
		c-1.5,0-2.6,0-3.7-0.2c-0.4,0-0.5-0.2-0.5-0.2s0.2-0.2,0.5-0.2c1.5-0.4,2.9-1.1,4.4-2.2c1.5-1.3,2.4-2.6,2.4-3.8
		c0-0.7-0.5-1.8-1.8-3.1l0.9-1.6c0-0.2,0.2-0.2,0.2-0.2l0.2,0.2c0.5,0.7,0.9,1.3,1.3,1.5c0.5,0.4,1.3,0.7,2,0.7h0.5V636.7
		L1189.3,636.7z M1185.6,626.9l-1.5,1.5l-1.5-1.5l1.5-1.5L1185.6,626.9z" class="area" title=""></path>
	<path id="PATH_186" d="M1198.2,633c0,0.9,0,1.6-0.4,2.4c-0.4,0.9-0.9,1.5-1.5,1.5c-0.9,0-2.4-0.5-4.2-1.8c-0.5,0.7-0.9,1.1-1.1,1.3
		c-0.5,0.4-1.1,0.5-1.8,0.5h-0.9v-2.2h1.3c0.7,0,1.5-0.4,2.2-1.3c0.4-0.4,0.9-1.3,1.6-2.4c0.5-0.9,1.3-1.3,1.8-1.3
		c0.9,0,1.6,0.4,2.2,1.3C1198.1,631.7,1198.2,632.3,1198.2,633z M1197.1,634.3c0-0.5-0.2-1.1-0.5-1.8s-0.9-1.1-1.5-1.1
		c-0.5,0-1.1,0.5-1.8,1.6c0.4,0.4,0.9,0.7,1.6,1.1c0.7,0.4,1.5,0.5,1.8,0.5C1197,634.8,1197.1,634.6,1197.1,634.3z" class="area" title=""></path>
	<path id="PATH_187" d="M1209.6,636.7h-0.7c-0.7,0-1.1-0.2-1.5-0.4c0,0.2,0,0.4,0,0.5c0,1.6-0.5,3.3-1.6,4.9c-0.9,1.5-1.8,2-2.4,2
		c-1.5,0-2.6,0-3.7-0.2c-0.4,0-0.5-0.2-0.5-0.2s0.2-0.2,0.5-0.2c1.5-0.4,2.9-1.1,4.4-2.2c1.5-1.3,2.4-2.6,2.4-3.8
		c0-0.7-0.5-1.8-1.8-3.1l0.9-1.6c0-0.2,0.2-0.2,0.2-0.2l0.2,0.2c0.5,0.7,0.9,1.3,1.3,1.5c0.5,0.4,1.3,0.7,2,0.7h0.5v2H1209.6z" class="area" title=""></path>
	<path id="PATH_188" d="M1221.1,636.7h-0.9c-0.7,0-1.5,0.2-2,0.4c-0.9,0.4-1.5,0.9-1.5,1.8c0,1.1,0.7,2,2.2,2.9l-0.9,1.8
		c-1.6-0.5-3.1-1.5-4.2-2.6c-1.5-1.3-2.2-2.9-2.2-4.6h-2.6v-2.2h2.4c0-1.5,0.4-2.9,1.1-4.8c0.7-1.6,1.3-2.4,1.6-2.4s0.9,0.7,1.5,2.4
		c0.5,1.5,0.7,2.4,0.7,2.9c0,2.6-1.3,3.8-3.8,3.8c0.2,0.7,0.5,1.5,1.1,2.2s1.3,1.3,2,1.6c0-0.2,0-0.5,0-0.7c0-1.3,0.4-2.4,0.9-3.3
		c0.9-1.3,2-2,3.7-2h0.7v2.6H1221.1z M1215.4,633.7c0-0.4-0.2-1.1-0.5-2c-0.4-1.1-0.7-1.5-1.1-1.5c-0.2,0-0.5,0.4-0.9,1.3
		c-0.4,0.9-0.5,2-0.5,3.1C1214.3,634.5,1215.4,634.3,1215.4,633.7z" class="area" title=""></path>
	<path id="PATH_189" d="M1230.1,633c0,0.9,0,1.6-0.4,2.4c-0.4,0.9-0.9,1.5-1.5,1.5c-0.9,0-2.4-0.5-4.2-1.8c-0.5,0.7-0.9,1.1-1.1,1.3
		c-0.5,0.4-1.1,0.5-1.8,0.5h-0.9v-2.2h1.3c0.7,0,1.5-0.4,2.2-1.3c0.4-0.4,0.9-1.3,1.6-2.4c0.5-0.9,1.3-1.3,1.8-1.3
		c0.9,0,1.6,0.4,2.2,1.3C1229.9,631.7,1230.1,632.3,1230.1,633z M1229,634.3c0-0.5-0.2-1.1-0.5-1.8s-0.9-1.1-1.5-1.1
		c-0.5,0-1.1,0.5-1.8,1.6c0.4,0.4,0.9,0.7,1.6,1.1c0.7,0.4,1.5,0.5,1.8,0.5C1228.8,634.8,1229,634.6,1229,634.3z" class="area" title=""></path>
	<path id="PATH_190" d="M1234.5,634.3c0,0.7-0.2,1.5-0.5,2c-0.2,0.4-0.4,0.5-0.4,0.5s-0.2-0.2-0.2-0.7c0-2.2-0.4-7.3-1.1-15.6
		l1.5-1.5c0.2-0.2,0.2-0.2,0.2-0.2s0,0.2,0,0.4C1234.3,621.8,1234.5,626.8,1234.5,634.3z" class="area" title=""></path>
	<path id="PATH_191" d="M1243.6,636.8c0,1.8-0.5,3.5-1.6,5.1c-0.9,1.3-1.8,2-2.4,2c-1.5,0-2.6,0-3.7-0.2c-0.4,0-0.5-0.2-0.5-0.2
		s0.2-0.2,0.5-0.2c1.5-0.4,2.9-1.1,4.4-2.2c1.5-1.3,2.4-2.6,2.4-3.8c0-0.7-0.5-1.8-1.8-3.1l0.9-1.6c0-0.2,0.2-0.2,0.2-0.2l0.2,0.2
		c0.4,0.5,0.9,1.3,1.1,2.2C1243.5,635.4,1243.6,636.1,1243.6,636.8z" class="area" title=""></path>
</g>
<g id="G_192" class="area" title="">
	<path id="PATH_193" d="M1007,521.1c0,0.4,0,0.5,0,0.5s-0.2,0-0.5-0.2c-0.5-0.4-1.3-0.5-2.2-0.5c-1.3,0-2.4,0.5-3.3,1.5
		c-0.9,0.9-1.3,1.5-1.3,2c0,0.5,0.9,1.1,2.6,1.3c1.8,0.4,2.9,0.7,3.3,1.3c0,0.2,0.2,0.4,0.2,0.5c0,0.9-0.4,2-0.9,3.1
		c-0.4,0.7-1.3,1.3-2.7,1.8c-1.8,0.7-3.7,1.1-6,1.1c-1.6,0-2.9-0.4-4-1.3c-1.1-0.9-1.6-2.2-1.6-3.7c0-1.6,0.5-3.3,1.6-4.8
		c0.2-0.2,0.4-0.4,0.5-0.4s0.2,0,0.2,0.2s0,0.2-0.2,0.5c-0.7,1.3-1.1,2.6-1.1,3.7c0,0.9,0.4,1.6,0.9,2.2c0.9,0.9,2.2,1.3,3.8,1.3
		c1.5,0,3.1-0.2,4.8-0.5c2.4-0.5,3.7-1.3,3.7-2.2c0-0.4-1.1-0.7-3.5-1.3c-0.9-0.2-1.5-0.4-1.8-0.5c-0.4-0.2-0.7-0.7-0.7-1.3
		c0-1.3,0.5-2.6,1.8-4.2s2.7-2.6,4-2.6C1005.9,518.9,1006.8,519.7,1007,521.1z" class="area" title=""></path>
	<path id="PATH_194" d="M1016.5,527c0,2.7-0.9,5.1-2.7,7c-0.5,0.5-0.9,0.9-1.1,0.9c-1.1,0-2.2-0.2-3.5-0.4c-0.5,0-0.7-0.2-0.7-0.2
		s0.2-0.2,0.7-0.4c1.5-0.4,2.9-1.3,4.2-2.4c0.5-0.5,1.1-0.9,1.5-1.6c0.5-0.7,0.9-1.5,0.9-2v-0.5h-2.4c-1.6,0-2.6-0.7-2.6-2
		c0-0.9,0.2-1.8,0.7-2.9s1.3-1.8,2-1.8c1.1,0,2,0.7,2.6,2.4C1016.3,524.4,1016.5,525.5,1016.5,527z M1015.2,525.5
		c0-0.5-0.2-1.1-0.5-1.6s-0.9-0.9-1.5-0.9c-0.4,0-0.7,0.2-0.9,0.4c-0.2,0.2-0.4,0.5-0.4,0.9c0,0.9,0.5,1.3,1.8,1.3
		C1013.9,525.7,1014.5,525.5,1015.2,525.5z" class="area" title=""></path>
	<path id="PATH_195" d="M1023.8,527.7h-1.3c-1.3,0-2.4-0.5-2.7-1.6c-0.4-0.7-0.5-2-0.5-3.5v-3.5c0-1.6-0.2-4-0.4-7.1l1.1-1.3
		c0.2-0.2,0.4-0.2,0.4,0c0.2,1.6,0.4,4,0.4,7.1v5.3c0,1.5,0.7,2.2,2.2,2.2h0.9L1023.8,527.7L1023.8,527.7z" class="area" title=""></path>
	<path id="PATH_196" d="M1028.2,524.1c0,2.4-1.3,3.7-3.7,3.7h-1.5v-2.2h1.3c1.8,0,2.7-0.4,2.7-0.9s-0.4-1.3-1.3-2.2l0.7-1.8
		c0-0.2,0.2-0.2,0.2-0.2s0.2,0.2,0.4,0.4C1027.8,521.7,1028.2,523,1028.2,524.1z M1027.6,531.8l-1.5,1.5l-1.5-1.5l1.5-1.5
		L1027.6,531.8z" class="area" title=""></path>
</g>
<g id="G_197" class="area" title="">
	<path id="PATH_198" d="M1119.3,521.7h-0.9c-0.9,0-1.6-0.4-2-0.9c0,1.1-0.2,2.4-0.4,4c-0.5,1.3-1.5,2.4-2.9,2.9
		c-1.3,0.5-2.6,0.9-4.2,0.9s-2.7-0.4-3.7-0.9c-1.1-0.7-1.6-1.8-1.6-3.5c0-1.5,0.4-2.9,1.3-4c0.2-0.2,0.2-0.2,0.4-0.2
		c0.2,0,0.2,0,0.2,0.2v0.2c-0.4,0.9-0.5,1.8-0.5,2.6c0,1.1,0.4,2,1.3,2.7c0.7,0.5,1.6,0.9,2.9,0.9c1.1,0,2.4-0.2,3.7-0.7
		c1.8-0.5,2.6-1.3,2.6-2.2l-0.2-8.8c-0.2-4.2-0.2-7.1-0.4-9.2l1.5-1.3c0,0.5,0.2,2.6,0.4,6.2l0.2,7.1c0,1.1,0.7,1.8,2.2,1.8h0.5v2
		H1119.3z" class="area" title=""></path>
	<path id="PATH_199" d="M1131.6,521.7h-1.1c-0.9,0-2-0.4-2.9-1.3c-0.7-0.5-1.5-1.6-2.4-2.9c-0.2,2.7-2,4.2-5.7,4.2h-1.1v-2.2h0.7
		c3.3,0,5.1-0.7,5.1-2c0-1.1-0.7-2.4-2.4-3.8c-0.7-0.7-1.5-1.3-2.4-2c0-0.7,0.2-1.3,0.5-1.8c0.2-0.2,3.5-1.3,10.1-3.3
		c0,0.2-0.2,0.9-0.5,2c-1.6,0.4-4.4,1.3-8.1,2.4c1.8,2,3.7,3.8,4.9,5.5c0.9,0.9,1.5,1.6,2,2c0.7,0.5,1.6,0.9,2.6,0.9h0.7v2.4H1131.6
		z M1129.8,504.1l-0.4,1.3l-9,2.9l0.4-1.3L1129.8,504.1z" class="area" title=""></path>
	<path id="PATH_200" d="M1140.8,521.7h-1.5c-1.6,0-2.7-0.5-3.5-1.6c-0.5,1.1-1.8,1.6-3.8,1.6h-1.1v-2.2h1.6c1.8,0,2.7-0.7,2.9-2
		c0-0.5,0.2-0.9,0.4-0.9c0.2,0,0.4,0.4,0.4,0.9c0.2,1.3,1.1,2,2.7,2h1.6v2.2H1140.8z M1134.5,511.1l-1.5,1.5l-1.5-1.5l1.5-1.5
		L1134.5,511.1z M1137.7,511.1l-1.5,1.5l-1.5-1.5l1.5-1.5L1137.7,511.1z" class="area" title=""></path>
	<path id="PATH_201" d="M1150.6,521.7h-0.9c-0.5,0-1.3-0.2-2.2-0.4c-0.9-0.2-1.6-0.5-2-0.9c-0.4,0.4-0.9,0.5-1.6,0.7
		c-0.9,0.4-1.8,0.4-2.7,0.4h-1.3v-2.2h0.9c1.5,0,2.4-0.2,2.7-0.4c-0.4-0.2-0.5-0.5-0.7-0.9c-0.2-0.4-0.4-0.7-0.4-1.1
		c0-0.7,0.4-1.6,0.9-2.7c0.7-1.1,1.5-1.8,2.4-1.8c0.9,0,1.5,0.5,2,1.5c0.4,0.7,0.5,1.6,0.5,2.6c0,0.7-0.2,1.3-0.5,1.6
		c-0.2,0.4-0.4,0.5-0.7,0.7c0.4,0.2,1.3,0.4,2.6,0.4h0.7v2.6H1150.6z M1147.5,516.9c0-0.4-0.2-0.9-0.5-1.3c-0.4-0.5-0.7-0.7-1.3-0.7
		c-0.4,0-0.9,0.2-1.3,0.5c-0.4,0.4-0.7,0.9-0.7,1.3c0,0.4,0.2,0.9,0.7,1.3c0.4,0.4,0.9,0.5,1.3,0.7c0.4,0,0.9-0.2,1.1-0.5
		C1147.4,517.7,1147.5,517.3,1147.5,516.9z M1147,508l-1.5,1.5l-1.5-1.5l1.5-1.5L1147,508z" class="area" title=""></path>
	<path id="PATH_202" d="M1161.8,518c0,0.7-0.2,1.5-0.7,2.2c-0.5,0.9-1.1,1.3-1.8,1.3c-0.5,0-1.8-0.4-3.8-1.3
		c-1.6,1.1-3.1,1.5-4.4,1.5h-1.1v-2.2h1.1c0.7,0,1.5,0,2.2-0.2c-0.7-0.5-1.1-1.3-1.1-2.2c0-1.1,0.7-2.4,2.4-3.7l-1.3-0.5
		c0.4-0.4,0.9-0.9,1.6-1.6c1.6,0.9,3.1,1.6,4.4,2.7C1160.9,515.5,1161.8,516.8,1161.8,518z M1156.9,516.6c0-0.5-0.2-0.9-0.4-1.3
		c-0.2-0.5-0.5-0.7-1.1-0.7c-0.5,0-0.9,0.2-1.5,0.5c-0.5,0.4-0.9,0.9-0.9,1.3c0,0.7,0.7,1.5,2,1.8c0.4-0.2,0.7-0.4,1.1-0.5
		C1156.7,517.3,1156.9,516.9,1156.9,516.6z M1160.9,518.8c0-0.5-0.4-1.1-1.1-1.8c-0.5-0.5-1.1-1.1-1.6-1.3c0,1.5-0.4,2.6-1.3,3.3
		c1.5,0.5,2.6,0.7,2.9,0.7C1160.3,519.5,1160.9,519.3,1160.9,518.8z" class="area" title=""></path>
</g>
<g id="G_203" class="area" title="">
	<path id="PATH_204" d="M1263.8,544.8h-1.3c-0.9,0-1.8-0.5-2.9-1.5c-0.5-0.5-1.3-1.5-2.2-2.7c0,1.3-0.2,2.2-0.7,2.7
		c-0.9,1.1-2.7,1.6-5.5,1.6h-3.7c-4.4,0-6.8-1.3-6.8-3.8c0-0.9,0.4-1.8,0.9-2.7c0.2-0.2,0.4-0.4,0.4-0.4c0.2,0,0.2,0,0.2,0.2
		s0,0.2,0,0.4c-0.2,0.7-0.4,1.1-0.4,1.6c0,0.7,0.4,1.3,0.9,1.6c0.9,0.7,2.4,1.1,4.4,1.1h3.7c2,0,3.5-0.2,4.2-0.4
		c0.9-0.4,1.3-0.9,1.3-1.6c0-0.7-0.4-1.6-1.3-2.7c-0.5-0.5-1.3-1.5-2.4-2.4c-0.9-0.7-1.3-1.3-1.3-1.3c0-1.3,0.2-2,0.5-2.6
		c0-0.2,1.3-0.5,3.8-1.5c2.6-0.9,4.8-1.6,6.4-2.2c0,0.2-0.2,0.9-0.5,2c-2,0.5-4.9,1.6-9,3.1c1.8,1.6,3.8,4,6.2,7.1
		c0.9,1.1,1.6,1.8,2.2,2.2c0.4,0.2,1.1,0.4,1.8,0.4h0.7v1.6H1263.8z" class="area" title=""></path>
	<path id="PATH_205" d="M1270.5,544.8h-0.7c-1.6,0-2.7-0.5-3.3-1.8c-0.2,0.5-0.5,0.9-1.1,1.3s-1.1,0.5-1.6,0.5h-0.7v-2.2h0.7
		c1.5,0,2.2-0.5,2.2-1.8v-6.4c0-2.4,0-4.2-0.2-5.5l1.6-1.3v12.3c0,1.8,0.7,2.7,2.4,2.7h0.7V544.8z" class="area" title=""></path>
	<path id="PATH_206" d="M1279.5,541.1c0,0.9,0,1.6-0.4,2.4c-0.4,0.9-0.9,1.5-1.5,1.5c-0.9,0-2.4-0.5-4.2-1.8
		c-0.5,0.7-0.9,1.1-1.1,1.3c-0.5,0.4-1.1,0.5-1.8,0.5h-0.9v-2.2h1.3c0.7,0,1.5-0.4,2.2-1.3c0.4-0.4,0.9-1.3,1.6-2.4
		c0.5-0.9,1.3-1.3,1.8-1.3c0.9,0,1.6,0.4,2.2,1.3C1279.3,539.6,1279.5,540.4,1279.5,541.1z M1278.4,542.4c0-0.5-0.2-1.1-0.5-1.8
		c-0.4-0.7-0.9-1.1-1.5-1.1c-0.5,0-1.1,0.5-1.8,1.6c0.4,0.4,0.9,0.7,1.6,1.1c0.7,0.4,1.5,0.5,1.8,0.5
		C1278.4,542.9,1278.4,542.7,1278.4,542.4z" class="area" title=""></path>
	<path id="PATH_207" d="M1301.3,551c-1.3,1.3-3.1,1.8-5.9,1.8c-1.8,0-3.3-0.4-4.6-1.3c-1.3-0.9-2-2.4-2-4c0-2.6,1.5-4.8,4.2-6.4
		c-1.5-0.7-2.2-1.6-2.2-2.7c0-0.9,0.4-2,1.3-2.9c0.9-1.1,2-1.6,2.9-1.6c1.1,0,2,0.5,2.7,1.6c0.2,0.2,0.2,0.4,0.2,0.5
		c0,0,0,0.2-0.2,0.2c-0.2,0-0.2,0-0.5-0.2c-0.4-0.2-1.3-0.2-2.2-0.2c-0.5,0-1.1,0.2-1.8,0.5c-0.9,0.4-1.3,0.7-1.3,1.3
		c0,0.5,0.4,1.1,1.3,1.6c0.7,0.5,1.5,0.7,2,0.7c0.4,0,1.8-0.4,3.8-1.1c0.4,0,0.4-0.2,0.5-0.2l0,0c0,0,0,0.2-0.2,0.4l-0.5,1.6
		c-6,1.3-9,3.3-9,5.9c0,1.6,0.7,2.7,2.4,3.5c1.1,0.5,2.7,0.7,4.4,0.7s2.9-0.2,4-0.4c0.4-0.2,0.5-0.2,0.7-0.2h0.2
		C1301.8,550.3,1301.7,550.6,1301.3,551z M1296.4,529.2l-1.5,1.5l-1.5-1.5l1.5-1.5L1296.4,529.2z" class="area" title=""></path>
	<path id="PATH_208" d="M1307.2,544.8h-1.3c-1.3,0-2.4-0.5-2.7-1.6c-0.4-0.7-0.5-2-0.5-3.5v-3.5c0-1.6-0.2-4-0.4-7.1l1.1-1.3
		c0.2-0.2,0.4-0.2,0.4,0c0.2,1.6,0.4,4,0.4,7.1v5.3c0,1.5,0.7,2.2,2.2,2.2h0.9L1307.2,544.8L1307.2,544.8z" class="area" title=""></path>
	<path id="PATH_209" d="M1311.5,541.1c0,2.4-1.3,3.7-3.7,3.7h-1.5v-2.2h1.3c1.8,0,2.7-0.4,2.7-0.9s-0.4-1.3-1.3-2.2l0.7-1.8
		c0-0.2,0.2-0.2,0.2-0.2s0.2,0.2,0.4,0.4C1311.2,538.7,1311.5,539.8,1311.5,541.1z M1311,548.8l-1.5,1.5l-1.5-1.5l1.5-1.5
		L1311,548.8z" class="area" title=""></path>
</g>
<g id="G_210" class="area" title="">
	<path id="PATH_211" d="M1339.9,679.7c0,0.4,0,0.5,0,0.5s-0.2,0-0.5-0.2c-0.5-0.4-1.3-0.5-2.2-0.5c-1.3,0-2.4,0.5-3.3,1.5
		s-1.3,1.5-1.3,2c0,0.5,0.9,1.1,2.6,1.3c1.8,0.4,2.9,0.7,3.3,1.3c0,0.2,0.2,0.4,0.2,0.5c0,0.9-0.4,2-0.9,3.1
		c-0.4,0.7-1.3,1.3-2.7,1.8c-1.8,0.7-3.7,1.1-6,1.1c-1.6,0-2.9-0.4-4-1.3c-1.1-0.9-1.6-2.2-1.6-3.7c0-1.6,0.5-3.3,1.6-4.8
		c0.2-0.2,0.4-0.4,0.5-0.4c0.2,0,0.2,0,0.2,0.2s0,0.2-0.2,0.5c-0.7,1.3-1.1,2.6-1.1,3.7c0,0.9,0.4,1.6,0.9,2.2
		c0.9,0.9,2.2,1.3,3.8,1.3c1.5,0,3.1-0.2,4.8-0.5c2.4-0.5,3.7-1.3,3.7-2.2c0-0.4-1.1-0.7-3.5-1.3c-0.9-0.2-1.5-0.4-1.8-0.5
		s-0.7-0.7-0.7-1.3c0-1.3,0.5-2.6,1.8-4.2s2.7-2.6,4-2.6C1338.8,677.7,1339.6,678.4,1339.9,679.7z" class="area" title=""></path>
	<path id="PATH_212" d="M1349.3,686.6c0,1.8-0.5,3.5-1.6,5.1c-0.9,1.3-1.8,2-2.4,2c-1.5,0-2.6,0-3.7-0.2c-0.4,0-0.5-0.2-0.5-0.2
		s0.2-0.2,0.5-0.2c1.5-0.4,2.9-1.1,4.4-2.2c1.5-1.3,2.4-2.6,2.4-3.8c0-0.7-0.5-1.8-1.8-3.1l0.9-1.6c0-0.2,0.2-0.2,0.2-0.2l0.2,0.2
		c0.4,0.5,0.9,1.3,1.1,2.2C1349.1,685.2,1349.3,685.9,1349.3,686.6z" class="area" title=""></path>
	<path id="PATH_213" d="M1356.6,686.4h-1.3c-1.3,0-2.4-0.5-2.7-1.6c-0.4-0.7-0.5-2-0.5-3.5v-3.5c0-1.6-0.2-4-0.4-7.1l1.1-1.3
		c0.2-0.2,0.4-0.2,0.4,0c0.2,1.6,0.4,4,0.4,7.1v5.3c0,1.5,0.7,2.2,2.2,2.2h0.9V686.4L1356.6,686.4z" class="area" title=""></path>
	<path id="PATH_214" d="M1370.9,681.1l-0.7,1.5c-1.3,0-2.4,0-2.9,0.2c-0.7,0.4-1.8,0.7-3.3,1.5c-1.5,0.7-2.6,1.3-3.3,1.5
		c-1.1,0.4-2.4,0.5-3.5,0.5h-1.3v-2.2h1.5c1.6,0,3.1-0.4,4.4-0.9l4.2-1.8c-0.7-0.2-1.8-0.5-3.3-1.1c-1.3-0.5-2-0.7-2.4-0.7
		c-0.7,0-1.5,0.4-2.2,0.9c-0.2,0.2-0.2,0.2-0.4,0.2s-0.2,0-0.2-0.2v-0.2c0.5-1.8,1.6-2.6,3.1-2.6c0.5,0,1.3,0.2,2,0.5
		c1.5,0.7,2.6,1.1,3.3,1.5c1.3,0.4,2.7,0.7,4.4,0.7c0.4,0,0.5,0,0.5,0.2C1371,680.8,1371,680.9,1370.9,681.1z M1364.8,690.1
		l-1.5,1.5l-1.5-1.5l1.5-1.5L1364.8,690.1z" class="area" title=""></path>
	<path id="PATH_215" d="M1378.2,686.4h-1.3c-1.3,0-2.4-0.5-2.7-1.6c-0.4-0.7-0.5-2-0.5-3.5v-3.5c0-1.6-0.2-4-0.4-7.1l1.1-1.3
		c0.2-0.2,0.4-0.2,0.4,0c0.2,1.6,0.4,4,0.4,7.1v5.3c0,1.5,0.7,2.2,2.2,2.2h0.9V686.4z" class="area" title=""></path>
	<path id="PATH_216" d="M1387.9,682.8l-0.5,1.6c-1.5,0.4-2.9,0.7-4.4,1.3c-1.6,0.4-3.3,0.7-4.4,0.7h-0.9v-2.2h1.5
		c0.7,0,1.1,0,1.5-0.2c-0.4-0.2-0.5-0.5-0.7-0.7c-0.5-0.5-0.7-1.1-0.7-1.8c0-0.5,0.2-1.1,0.7-2c1.3-1.8,2.4-2.7,3.8-2.7
		c1.3,0,2.2,0.5,2.9,1.6c0.2,0.4,0.4,0.5,0.4,0.7c0,0,0,0.2-0.2,0.2c-0.2,0-0.5,0-0.9-0.2c-0.5-0.2-0.9-0.2-1.1-0.2
		c-0.4,0-0.7,0-1.1-0.2c-0.5,0-1.1,0.2-1.8,0.5c-0.7,0.4-1.3,0.7-1.3,1.3c0,0.4,0.4,0.9,0.9,1.5c0.7,0.7,1.6,1.1,2.6,1.1
		c0.4,0,1.3-0.2,2.4-0.5l1.5-0.4c0,0,0.2,0,0.4,0l0,0C1388.1,682.6,1388.1,682.6,1387.9,682.8z M1384.6,672l-1.5,1.5l-1.5-1.5
		l1.5-1.5L1384.6,672z" class="area" title=""></path>
	<path id="PATH_217" d="M1395.4,666.9c-0.7,0.7-1.8,0.9-2.9,0.9c-0.2,0-0.4,0-0.7,0c-0.4,0-0.5,0-0.7,0c-0.2,0-0.4,0.2-0.5,0.4
		c-0.2,0.2-0.4,0.4-0.4,0.4c-0.2,0-0.2-0.2-0.2-0.4c0-0.2,0.2-0.5,0.4-0.9c0.2-0.5,0.4-0.7,0.5-0.7s0.5,0,1.1,0.2
		c0.5,0.2,0.9,0.2,1.1,0.2c1.1,0,1.8,0,2.4-0.2c0.4,0,0.5-0.2,0.5-0.2h0.2C1395.8,666.5,1395.6,666.7,1395.4,666.9z M1394.1,684.2
		c0,0.7-0.2,1.5-0.5,2c-0.2,0.4-0.4,0.5-0.4,0.5s-0.2-0.2-0.2-0.7c0-2.2-0.4-7.3-1.1-15.6l1.5-1.5c0.2-0.2,0.2-0.2,0.2-0.2
		s0,0.2,0,0.4C1394.1,671.6,1394.1,676.6,1394.1,684.2z" class="area" title=""></path>
</g>
<polygon class="st5 area" points="1387.8,427.1 1361.9,440.8 1334.1,461.8 1316.3,485.1 1311,499.2 1313.7,506.5 1322.8,516.6 
	1333.3,522.1 1351.6,533.6 1364.8,555.1 1376.7,566.4 1381.5,567.5 1387.8,552.8 1389.9,527.6 1408.8,502.2 1425.1,481.4 
	1429.3,476.3 1416.6,459.8 1402.9,443.7 " id="_x34_56" title=""></polygon>
<g id="G_212" class="area" title="">
	<path d="M1356.7,484.1l1,1.8c0.4,0.7,0.7,1.4,0.7,2.6v1.5c0,1.2-0.7,2.5-1.7,3.8c-0.8,0.9-1.6,1.2-2.3,1.2c-1,0-2.2-0.4-3.5-1.1
		l0.2-0.5c0.4,0.1,0.9,0.2,1.5,0.2c1.9,0,3.9-1.7,4.8-3.7c0.1-0.2,0.2-0.5,0.2-0.6c0-0.2-0.1-0.5-0.2-0.7c-0.5-1.1-1-2.1-1.6-3
		C1356,485.2,1356.3,484.6,1356.7,484.1L1356.7,484.1z M1355.5,479.4c0.6,0.4,1.1,0.9,1.6,1.5c-0.3,0.5-0.7,0.9-1.1,1.3
		c-0.5-0.5-1.1-0.9-1.6-1.4C1354.7,480.3,1355.1,479.8,1355.5,479.4z" id="PATH_213" class="area"></path>
	<path d="M1370,491.1h-0.3c-1.2,0-2.3-0.5-2.8-2.2h-0.1c-0.1,0.5-0.4,1-1,1.3c-0.9,0.5-1.8,0.9-2.7,0.9c-1.5,0-2.4-0.9-2.4-2.5
		c0-0.3,0-0.7,0-1l0.5,0c0.1,1.1,0.6,1.8,1.9,1.8c0.7,0,1.6-0.3,2.2-0.7c0.5-0.3,0.9-0.7,0.9-1c0-0.9-0.5-2.7-1.1-5.1
		c0.3-0.5,0.6-1,1-1.4l0.1,0.1c0.5,2,0.9,4.1,1.3,6.1c0.2,1.4,1.1,2.1,2.2,2.1h0.2V491.1z" id="PATH_214" class="area"></path>
	<path d="M1370.3,489.4c0.7,0,1.6-0.1,2.4-0.4c-0.2-0.6-0.3-1.2-0.3-1.9c0-0.8,0.3-1.7,0.9-2.5c0.4-0.5,0.8-1,1.3-1.3
		c0-0.4,0.1-0.9,0.2-1.4h0.1c1.3,1.3,3.2,2.4,4.8,3.7c1.2,0.9,1.7,1.7,1.7,2.9c0,1.4-0.8,2.6-2.7,2.6c-1.1,0-2.9-0.4-4.7-0.9
		c-1.5,0.6-2.7,0.9-3.7,0.9h-0.3c-0.8,0-1-0.5-1-0.9c0-0.3,0.2-0.8,1-0.8H1370.3z M1376.8,487.1c0-1.1-0.8-2.2-1.4-2.2
		c-1,0-2.3,1.4-2.3,2.2c0,0.4,0.5,1.1,1.5,1.6C1375.3,488.4,1376.8,487.8,1376.8,487.1z M1379.2,489.6c0.8,0,1.4-0.3,1.4-0.6
		c0-0.9-1.2-1.9-2.9-3c-0.1,1.1-0.5,2.1-1.1,3.2C1377.4,489.5,1378.2,489.6,1379.2,489.6z" id="PATH_215" class="area"></path>
	<path d="M1384.4,487.4c0,1.2,0.5,2.1,2.2,2.1c1.1,0,2-0.3,3-0.9c0.2-0.1,0.3-0.2,0.3-0.3c0-0.7-0.5-1.7-1.3-2.6
		c-0.8-0.8-1.8-1.6-2.8-2.1c-0.3-0.2-0.4-0.3-0.4-0.5c0-0.3,0.4-1.1,0.7-1.6l0.1,0c1.1,0.7,2.4,1.7,3.3,2.8c0.8,1,1.4,2.1,1.4,3.2
		c0,0.8-0.2,1.7-0.6,2.4c-1.2,0.7-2.5,1.3-3.8,1.3c-1.6,0-2.6-0.9-2.6-2.9c0-0.2,0-0.6,0.1-1H1384.4z" id="PATH_216" class="area"></path>
</g>
<polygon class="st6 area active" points="1351.6,533.6 1323.3,541.4 1311.6,572.3 1311,593.2 1311.6,602.5 1323.3,603.5 1350.9,603.5 
	1356,598.6 1364.8,586.1 1379.2,572.5 1381.5,567.5 1375.7,562.6 1358.5,544.8 " id="_x35_89" title=""></polygon>
<g id="G_218" class="area" title="">
	<path d="M1330.7,568.7c0.7,1.4,1.1,2.8,1.1,4.4c0,1.1-0.3,2.3-0.8,2.7c-0.9,1-2.3,1.6-3.6,1.6c-2,0-3.3-1.3-3.3-3.3
		c0-1.4,0.4-2.3,0.9-3.1l0.4,0.2c-0.4,0.7-0.6,1.5-0.6,2c0,0.9,0.3,1.5,0.7,1.9c0.5,0.4,1.2,0.7,2,0.7c0.9,0,1.9-0.4,2.6-0.9
		c0.5-0.4,0.7-0.7,0.7-0.9c0-0.7-0.2-1.4-0.3-1.9c-0.3-0.8-0.6-1.6-0.9-2.1C1330,569.7,1330.3,569.2,1330.7,568.7L1330.7,568.7z
		 M1327.7,565.3c0.4,0.3,0.9,0.7,1.3,1.1c-0.2,0.4-0.5,0.7-0.9,1.1c-0.4-0.4-0.8-0.7-1.3-1.1C1327.2,566,1327.5,565.6,1327.7,565.3z
		" id="PATH_219" class="area" title=""></path>
	<path d="M1337.2,573.8c-1.3,0-2.3-0.6-2.3-2c0-0.7,0.3-1.3,0.7-1.8c0.5-0.5,1-0.9,1.5-0.9c0.6,0,1.2,0.4,1.6,1.2
		c0.4,0.7,0.7,1.8,0.7,3c0,1-0.2,1.9-0.8,2.8c-1,1.5-1.9,2-2.8,2c-1,0-2-0.3-3.1-1.1l0.2-0.3c0.5,0.3,1,0.4,1.6,0.4
		c1.1,0,2.2-0.5,3.2-1.6c0.5-0.5,0.9-1.2,1-1.8C1338.2,573.8,1337.7,573.8,1337.2,573.8z M1336.8,570.4c-0.5,0-1.2,0.6-1.2,1
		c0,0.7,0.9,1.1,1.8,1.1c0.4,0,0.8,0,1.2-0.1C1338.3,571.3,1337.7,570.4,1336.8,570.4z" id="PATH_220" class="area" title=""></path>
	<path d="M1348.5,575h-0.2c-1,0-1.8-0.4-2.2-1.8h-0.1c-0.1,0.4-0.3,0.8-0.8,1c-0.7,0.4-1.4,0.7-2.2,0.7c-1.2,0-1.9-0.7-1.9-2
		c0-0.3,0-0.5,0-0.8l0.4,0c0,0.9,0.5,1.4,1.5,1.4c0.6,0,1.2-0.2,1.8-0.5c0.4-0.2,0.7-0.5,0.7-0.8c0-0.7-0.4-2.2-0.9-4
		c0.2-0.4,0.5-0.8,0.8-1.1l0.1,0c0.4,1.5,0.7,3.2,1,4.8c0.2,1.1,0.9,1.6,1.7,1.6h0.2V575z" id="PATH_221" class="area" title=""></path>
	<path d="M1348.8,573.6c0.8,0,1.7-0.3,1.8-0.9l0.3-1.2l0.7-0.5l0.1,0.1c-0.2,0.5-0.2,1-0.2,1.2c0,0.4,0.1,0.7,0.4,0.9
		c0.3,0.3,0.8,0.4,1.3,0.4h0.2v1.4h-0.2c-1.1,0-1.8-0.3-2.2-1.1h0c-0.4,0.7-1.2,1.1-2.1,1.1h-0.2c-0.6,0-0.8-0.4-0.8-0.7
		c0-0.3,0.2-0.7,0.8-0.7H1348.8z M1350,579.2c-0.4-0.4-0.8-0.8-1.3-1.1c0.3-0.4,0.6-0.7,0.8-1c0.4,0.3,0.8,0.7,1.2,1.1
		C1350.5,578.7,1350.3,579,1350,579.2z M1352,579.1c-0.4-0.4-0.8-0.8-1.3-1.1c0.3-0.4,0.6-0.7,0.8-1c0.4,0.3,0.8,0.7,1.2,1.1
		C1352.6,578.6,1352.3,578.8,1352,579.1z" id="PATH_222" class="area" title=""></path>
	<path d="M1353.6,573.6c0.9,0,1.6-0.3,1.8-0.9c0.1-0.4,0.2-0.8,0.3-1.2c0.2-0.2,0.5-0.4,0.7-0.6l0.1,0.1c-0.1,0.3-0.2,0.7-0.2,1
		c0,0.6,0.2,0.9,0.6,1.2c0.6-0.9,1.3-1.9,2.2-2.7c0.7-0.6,1.6-1.2,2.6-1.2c1,0,1.7,0.6,2,1.2c0.2,0.4,0.3,0.9,0.3,1.3
		c0,0.3-0.1,0.7-0.2,1c-0.3,0.8-1,1.5-2.2,1.9c-0.7,0.2-1.6,0.3-2.7,0.3c-1.4,0-2.5-0.3-3.1-1.1h0c-0.6,0.9-1.5,1.1-2.2,1.1h-0.1
		c-0.6,0-0.8-0.4-0.8-0.7c0-0.3,0.2-0.7,0.8-0.7H1353.6z M1359.5,573.6c1,0,2.1-0.3,2.8-0.6c0.5-0.2,0.9-0.5,0.9-0.8
		c-0.1-0.9-0.9-1.6-1.8-1.6c-1.3,0-2.7,1.2-3.8,2.8C1357.8,573.5,1358.5,573.6,1359.5,573.6z" id="PATH_223" class="area" title=""></path>
</g>
<g id="G_224" class="area" title="">
	<path d="M1256.8,377l0.3-0.1c1.2,1.1,4.8,3.3,5.4,5.4c0.2,0.8,0.3,1.4,0.3,2.1c0,1.2-0.4,2.8-1,3.5c-1.2,1.3-2.6,1.8-3.9,1.8
		c-1,0-1.7-0.2-2.3-0.6c-1.3-0.9-2-2.4-2-4.2c0-1.3,0.6-2.7,1.2-3.7c0.4-0.8,1-1.5,1.9-2.4C1256.6,378.3,1256.7,377.6,1256.8,377z
		 M1254.8,384.7c0,1.4,1.5,2.6,3.2,2.6c1.1,0,2.1-0.4,3-1c0.6-0.4,0.8-0.9,0.8-1.3c0-0.6-0.5-1.4-1-2.1c-0.8-1-1.9-1.8-3.1-2.5
		C1255.9,381.8,1254.8,383.2,1254.8,384.7z" id="PATH_225" class="area" title=""></path>
	<path d="M1279,389.5h-0.4c-1.7,0-3.1-0.7-3.9-3.1h-0.1c-0.2,0.7-0.6,1.3-1.4,1.8c-1.3,0.8-2.6,1.3-3.8,1.3c-2.1,0-3.3-1.3-3.3-3.5
		c0-0.5,0-0.9,0.1-1.4l0.7-0.1c0.1,1.6,0.9,2.6,2.7,2.6c1,0,2.2-0.4,3.1-1c0.7-0.4,1.2-1,1.2-1.4c0-1.3-0.7-3.8-1.6-7.1
		c0.4-0.7,0.9-1.4,1.4-2l0.1,0.1c0.7,2.7,1.3,5.7,1.8,8.5c0.3,1.9,1.6,2.9,3,2.9h0.3V389.5z M1271.9,369.7c0.8,0.6,1.5,1.3,2.3,2
		c-0.4,0.7-0.9,1.3-1.6,1.9c-0.7-0.7-1.5-1.3-2.2-2C1270.9,371,1271.4,370.3,1271.9,369.7z" id="PATH_226" class="area" title=""></path>
	<path d="M1279.3,387.1c1.6,0,2.9-0.1,3.8-0.4c0.7-0.2,1.1-0.5,1.1-0.8c0-0.9-0.9-2.8-1.9-4.7c0.5-0.8,0.9-1.5,1.4-2.2h0.1
		c0.9,1.5,1.9,3.9,1.9,5.8c0,1.4-0.6,2.5-1.3,3.5c-0.9,0.9-2.2,1.1-5.1,1.1h-0.2c-1,0-1.3-0.8-1.3-1.3c0-0.5,0.3-1.2,1.3-1.2H1279.3
		z M1281.2,397.1c-0.8-0.7-1.5-1.4-2.2-2c0.5-0.7,1-1.3,1.5-1.8c0.8,0.6,1.4,1.2,2.2,2C1282.1,396.1,1281.7,396.6,1281.2,397.1z
		 M1284.8,396.9c-0.8-0.7-1.5-1.4-2.2-2c0.5-0.7,1-1.3,1.5-1.8c0.8,0.6,1.4,1.2,2.2,2C1285.8,395.9,1285.4,396.4,1284.8,396.9z" id="PATH_227" class="area" title=""></path>
	<path d="M1289.5,389.9c0.2-1.2,0.2-2.6,0.2-3.8v-1.9c0-3.5-0.4-8.6-0.7-11.8c0.5-0.7,1.3-1.5,1.9-2l0.2,0.1c0.4,4.2,0.5,9,0.5,13.4
		c0,1.2,0,2.3-0.1,3.1c-0.1,1-0.6,1.8-1.7,3.1L1289.5,389.9z" id="PATH_228" class="area" title=""></path>
</g>
</svg>
