<!--?xml version="1.0" encoding="utf-8"?-->
<!-- Generator: Adobe Illustrator 27.4.1, SVG Export Plug-In . SVG Version: 6.00 Build 0)  -->
<svg version="1.1" id="Layer_1" xmlns="http://www.w3.org/2000/svg" xmlns:xlink="http://www.w3.org/1999/xlink" x="0px" y="0px" viewBox="0 0 1920 1080" style="enable-background:new 0 0 1920 1080;" xml:space="preserve" width="100%" height="100%">
<style type="text/css">
	.st0{fill:#FBD1D1;stroke:#020202;stroke-width:0.5131;stroke-miterlimit:25.6532;}
	.st1{fill:#E8D0E5;stroke:#020202;stroke-width:0.5131;stroke-miterlimit:25.6532;}
	.st2{fill:#FDFAD6;stroke:#020202;stroke-width:0.5131;stroke-miterlimit:25.6532;}
	.st3{fill:#DBECCB;stroke:#020202;stroke-width:0.5131;stroke-miterlimit:25.6532;}
</style>
<path id="_x37_67" class="st0 area" d="M607,754.2c3.8-1.8,1.8-5.6,1.8-7.7c-7.7-13.1-20.8-22.8-15.1-38c3.8-5.6,11.3-1.8,13.3-3.8
	c13.3-15.1,0-39.8,19-47.2c22.8-9.5,45.4,5.6,70,2.1c3.8-2.1,9.5-3.8,9.5-7.7c0-20.8-24.6-34.1-32.1-51
	c-7.4-13.1,11.3-13.1,20.8-16.9c7.7-5.6,9.5-16.9,3.8-20.8c-15.1-16.9-51-7.7-58.7-30.3c-7.7-20.8,11.3-45.4-1.8-66.2
	c-15.1-24.6-49.3-32.1-60.5-58.7c-12.1-28-27.7-63.6-60.8-55.9c0.8,5.6,0.3,12.8-4.9,20.5c-5.1,7.4-13.6,12.8-19.8,16.9
	c-1.8,1.3-4.4,2.8-5.1,3.6c-0.3,0.5-1.5,2.3-3.6,4.9c-3.8,5.4-15.6,21-17.2,25.1c-1,7.4-13.9,16.2-38.7,25.4
	c-18.5,6.9-46.9,6.9-55.4,0c-1.5-1.3-4.4-2.1-16.7,5.9c-10,6.4-20.3,3.6-27.2-0.3c-4.1,4.1-11,9.7-19,12.1c-8.2,2.3-22.8,1.8-32.1,1
	c0,4.9-1.3,10.8-6.4,13.9c-2.6,1.5-10,9.7-16.4,17.2c1,4.4,2.3,9.7,3.3,11.8c3.1,6.4-0.8,16.7-3.3,22.3l-2.1,4.6l-19-2.8
	c-4.6,0-18.2-0.5-24.9-5.9c-2.8-2.1-5.1-4.4-7.4-6.4s-4.6-4.1-6.9-5.6c-2.6-1.3-15.6-1-24.4,1c-1.3,0.3-1.8,0.8-3.3,5.9
	c-0.8,3.1-1.8,6.7-4.1,10.3c-1.5,2.3-1.3,4.6,4.6,12.8c5.1,7.2,14.1,16.2,14.1,16.2l18.5,17.4c14.6,8.5,36.7,21,41.6,22.3
	c6.4,1.8,12.3,7.4,14.9,14.4c2.3,6.2,1.8,12.6-1.5,18c-3.3,5.1-3.1,6.4,2.3,11.8c3.1,3.1,20.8,8,35.4,10.3c11,2.8,17.4,5.9,20,9.5
	c2.3,2.8,20.5,17.2,26.2,20.5c5.6,3.3,11.8,7.2,17.2,16.4c0.8,1.3,1.3,2.6,2.1,3.8c3.6,6.9,5.4,9.5,10,10
	c7.4,0.8,32.8,11.5,62.9,24.6c8.5,3.6,15.1,6.7,17.7,7.7c8.7,3.3,17.4,13.9,20.8,18.5c5.1,1.8,16.4,5.9,20.5,9.2
	c1.5,1,3.3,3.3,5.6,5.9c10-6.2,19.2-13.3,27.2-21C544.7,741.1,576.7,759.8,607,754.2z" title=""></path>
<path id="_x37_55" class="st1 area" d="M947.7,741.1c-16.9-22.8-49.3-16.9-75.7-24.6c-1.8-1.8-5.6-3.8-5.6-7.7c1.8-16.9,13.3-34.1,5.6-51
	c-5.6-9.5-19-19-32.1-13.1c-15.1,7.7-45.4,26.4-52.8,1.8c-5.6-20.8-20.8-32.1-35.9-43.6c-16.9-11.3-38,0-54.9-5.6
	c-5.6-1.8-10.8-5.4-15.1-9.5c-6.9,2.1-12.1,5.1-7.4,13.3c7.4,16.9,32.1,30.3,32.1,51c0,3.8-5.6,5.6-9.5,7.7
	c-24.6,3.8-47.2-11.3-70-1.8c-19,7.7-5.6,32.1-19,47.2c-1.8,1.8-9.5-1.8-13.3,3.8c-5.6,15.1,7.4,24.6,15.1,37.7
	c0,1.8,1.8,5.6-1.8,7.7c-30.3,5.6-62.3-13.3-85.2,7.7c-8,7.7-17.2,14.9-27.2,21c5.9,7.4,13.3,19,15.4,24.9c1.3,4.1,5.9,8,9.7,9.7
	c0.8,0.5,1.8,0.8,2.8,1.3c5.9,2.8,14.4,6.4,18,12.8c1.8,2.8,12.3,10.5,17.2,14.1c2.6,1.8,4.9,3.6,6.4,4.9
	c3.3,2.3,26.9,11.5,47.2,18.7l22.3,2.6c3.6,1.5,21.8,9.2,28,15.4c3.3,3.3,6.2,7.2,8.7,10.5c2.1,2.8,4.1,5.4,5.9,7.2
	c1.8,1.5,7.7,4.6,12.8,7.2c5.1,2.6,11,5.6,16.4,8.7c0.3,0.3,32.8,20.5,40.3,37.5c2.6,5.9,14.6,9.5,22.3,11
	c7.4-6.7,32.6-29.5,47.2-48.7c20.3-26.9,74.4-32.3,103.9-29.2c12.1,1.3,32.1,1.8,52.8,2.1c-2.3-7.4-3.8-14.9-3.8-21.8
	C966.7,826,979.8,782.7,947.7,741.1z" title=""></path>
<path id="_x37_54" class="st2 area" d="M964.6,423.3c-19,19-47.2,7.7-73.9,11.3c-3.8,0-7.7,3.8-9.5,7.4c-7.7,15.1-3.8,35.9-19,45.4
	c-16.9,9.5-35.9,5.6-52.8,16.9c-15.1,11.3-9.5,30.3-16.9,41.6c-7.7,15.1-32.1,15.1-39.8,28.5c-3.6,7.7-6.7,16.2-10.5,24.4
	c2.8,0.8,5.9,2.1,8.5,3.8c15.1,11.3,30.3,22.8,35.9,43.6c7.7,24.6,38,5.6,52.8-1.8c13.3-5.6,26.4,3.8,32.1,13.1
	c7.7,16.9-3.8,34.1-5.6,51c0,3.8,3.8,5.6,5.6,7.7c26.4,7.4,58.7,1.8,75.7,24.6c32.1,41.6,19,85.2,20.8,130.6
	c0,6.9,1.3,14.4,3.8,21.8c29.8,0.3,61.1-0.5,72.9-2.1c26.4-3.8,47.7,2.3,67.5,19.2c10,8.5,34.9,13.6,58.5,16.4
	c-0.3-1.5-1-3.1-2.1-4.4c-26.4-34.1-38-66.2-3.8-98.3c1.8-1.8-9.5-9.5-13.3-15.1c0-1.8,0-7.7,0-9.5c5.6-13.3,32.1-1.8,26.4-20.8
	c-3.8-5.6-15.1-9.5-9.5-19c13.3-20.8,30.3-39.8,15.1-66.2c-4.9-8.5-0.5-16.9,6.2-22.3c-9.2-4.9-17.2-11.5-12.1-19.2
	c7.7-11.3,26.4,0,34.1-13.3c3.8-13.1,0-28.5,5.6-38c13.1-22.6,3.8-47.2-13.3-60.5c-23.3-21.5-69-33.1-65.2-63.4
	c-13.6-15.6-17.7-37.7-31.3-55.7C1074.4,372,1006.2,383.5,964.6,423.3z" title=""></path>
<path id="_x31_03" class="st3 area" d="M800.2,453.5c-11.3-3.8-19,3.8-22.8,11.3c-3.8,3.8-1.8,11.3-7.7,13.1
	c-13.3,3.8-22.8-13.1-32.1-15.1c-22.8-2.1-51,5.6-64.4-19c-3.8-9.5,0-19-1.8-28.5c-1.8-5.6-7.4-13.3-13.3-13.3
	c-26.4-1.8-41.6-16.9-60.5-34.1c-12.3-10.8-29.2-1.5-33.6,13.1c4.9,8.7,9,18,12.6,26.7c11.3,26.4,45.4,34.1,60.5,58.7
	c13.3,20.8-5.6,45.4,1.8,66.2c7.4,22.8,43.6,13.3,58.7,30.3c5.6,3.8,3.8,15.1-3.8,20.8c-3.6,1.5-8.7,2.3-13.3,3.6
	c4.4,4.4,9.5,7.7,15.1,9.5c14.4,4.9,31.3-2.3,46.2,1.8c3.6-8.2,6.9-16.7,10.5-24.4c7.4-13.3,32.1-13.3,39.8-28.5
	c7.7-11.3,1.8-30.3,16.9-41.6c9-5.9,18.5-7.7,28-9.5c-1.5-1.3-3.1-2.8-5.1-3.8C818.9,480,815.3,461,800.2,453.5z" title=""></path>
<path id="_x33_96" class="st1 area" d="M964.6,383.5c-9.5-16.9-5.6-41.6-16.9-56.7c-12.8-14.6-45.1-8-45.4-31.8
	c-14.1,13.6-33.9,22.3-51,22.3c-43.6,0-79.5,3.8-109.8,43.6c-20.8,28.5-52.8,9.5-79.5-1.8c-5.6-1.8-15.1-1.8-16.9,1.8
	c-10.3,10.3-20.3,17.7-30.5,22.3c12.6,10.3,25.4,18,43.6,19.2c5.6,0,11.3,7.7,13.3,13.3c1.8,9.5-1.8,19,1.8,28.5
	c13.3,24.6,41.6,16.9,64.4,19c9.5,1.8,19,19,32.1,15.1c5.6-1.8,3.8-9.5,7.7-13.1c3.8-7.7,11.3-15.1,22.8-11.3
	c15.1,7.7,19,26.4,32.1,37.7c2.1,1,3.8,2.3,5.1,3.8c8.5-1.5,16.9-3.1,25.1-7.4c15.1-9.5,11.3-30.3,19-45.4c1.8-3.8,5.6-7.4,9.5-7.4
	c26.4-3.8,54.9,7.4,73.9-11.3c7.4-7.2,15.9-13.3,24.6-18.5C979.2,399.4,970.5,393.3,964.6,383.5z" title=""></path>
<path id="_x37_47" class="st3 area" d="M1232.4,328.4c-0.8-5.4-1.5-11.3-0.3-18.5c1.8-11.3-3.3-29.5-6.9-39.5c-7.4,2.8-13.9,5.4-18.5,6.9
	c-3.1,1-6.9,1.5-11,1.5c-18.7,0-45.9-9.2-54.4-21.8c-4.4-6.4-12.1-16.4-19.8-26.2c-7.7-10-15.6-20.3-20.3-27.2
	c-4.1-6.4-24.6-4.4-39.8-2.8c-7.7,0.8-14.9,1.5-21.5,1.5c-22.8,0-38.7,5.1-42.3,29.8c-1,7.4-4.9,13.3-11,17.7
	c-18.7,13.3-55.9,8-65.9,6.2c0,14.9-7.7,28.7-18.7,39.2c0.3,23.6,32.6,16.9,45.4,31.8c11.3,15.1,7.7,39.8,16.9,56.7
	c5.6,9.7,14.6,16.2,24.6,21.3c40.3-23.3,91.3-23.9,119.3,16.4c13.6,18.2,17.7,40,31.3,55.7c0.3-1.5,0.5-3.1,1-4.6
	c5.6-20.8,24.6-38,35.9-56.7c2.3-4.4,5.1-8,8.5-10.5c-0.5-0.8-0.8-1.8-1-2.8c-3.3-12.6,11.5-24.4,26.9-36.7
	c5.4-4.4,10.5-8.5,14.1-11.8C1234.5,344.3,1233.7,337.9,1232.4,328.4z" title=""></path>
<path id="_x37_63" class="st2 area" d="M661.9,358.9c26.4,11.3,58.7,30.3,79.5,1.8c30.3-39.8,66.2-43.6,109.8-43.6
	c30.8,0,69.5-27.4,69.8-61.6c-1-0.3-1.5-0.3-2.1-0.5l-1-0.3c-2.3-1-58.7-22.6-85.7-40.5c-29-19.2-38.5-57-43.1-74.9
	c-1.3-5.4-5.4-21.5-46.9-21.5c-34.6,0-45.1-11-59-34.4c-5.4-9-6.2-18-4.6-25.7h-53.9l-12.6-7.4l-14.6,3.3l-26.2-15.9
	c-4.1,13.6-8.7,29.8-9.5,34.1c-0.8,5.4-9.5,45.4-23.6,56.4c-4.4,3.6-11.3,11.5-17.7,19.2c-9.2,11-18.2,21.5-25.1,25.7
	c-7.7,4.6-22.3,21.8-29,30v16.7c2.6,8.5,5.6,16.9,7.2,18.7c3.1,3.1,13.6,14.6,16.2,18.7c2.6,3.6,12.6,21.8,16.2,30
	c0.5,1,0.8,2.1,1,3.1c2.1,1.5,3.1,4.4,2.3,6.9c-0.3,0.8-0.5,1.3-1,2.1c0.3,6.2-0.3,12.1-0.5,14.9c1,4.9,5.4,23.3,6.4,29.2
	c0.3,1,0.3,2.1,0.5,3.1c0.3,1.5,0.8,3.6,1,5.9c23.1-5.4,37.5,10.3,48.2,29.2c4.1-14.9,21.3-23.9,33.6-13.1
	c5.9,5.1,11.3,10.3,16.9,14.9c10.3-4.6,20.3-12.3,30.5-22.3C646.8,356.8,656.3,356.8,661.9,358.9z" title=""></path>
<path id="_x37_60" class="st0 area active" d="M1373.5,503.8c-10.3-2.1-18-5.4-19-5.9l-1.8-0.8l-1-1.5c-2.3-3.3-22.1-31.8-22.1-51.3
	c0-5.1,0-16.9-29-16.9c-21,0-39,0-90-9c-9.2-1.5-21.5-4.9-25.9-13.3c-3.3,2.8-6.2,6.2-8.5,10.5c-11.3,19-30.3,35.9-35.9,56.7
	c-9.5,34.1,39.8,45.4,64.4,68c16.9,13.3,26.4,38,13.3,60.5c-5.6,9.5-2.1,24.6-5.6,38c-7.7,13.3-26.4,1.8-34.1,13.3
	c-5.1,7.7,2.8,14.6,12.1,19.2c3.8-3.1,8.5-5.4,12.6-6.2c28.5-9.5,54.9,9.5,79.5,19c16.9,5.6,32.1-13.3,49.3-19c0.5,0,1-0.3,1.5-0.3
	c5.1-14.6,13.9-29.8,8-43.4c-9.5-20.8,9.5-34.1,19-47.2c9.5-11.3-7.4-26.4-1.8-41.6c1.8-3.8,11.3-5.6,9.5-7.4
	C1364,517.9,1369.9,511.3,1373.5,503.8z" title=""></path>
<path id="_x37_41" class="st1 area" d="M1560.3,462.8c0.5-4.6,0.8-9,0.8-12.6c0-1.3-0.3-2.1-1-2.6c-4.9-4.6-23.1-3.8-35.1-3.1
	c-4.9,0.3-9.5,0.5-13.6,0.5c-20.5,0-36.9,0-59-9.5c-2.3-1-3.8-1.3-5.1-0.8c-3.8,1.8-7.4,12.3-10.8,22.6c-2.8,8.7-6.2,18.5-11,28.2
	c-10.8,21.8-34.9,21.3-52.1,18c-3.6,7.4-9.7,14.1-5.9,21.5c1.8,1.8-7.7,3.8-9.5,7.7c-5.6,15.1,11.3,30.3,2.1,41.6
	c-9.5,13.3-28.5,26.4-19,47.2c5.9,13.6-2.8,28.7-8,43.4c9.2-1.5,19.8-1.5,26.9,2.1c26.4,15.1,47.2,47.2,79.5,37.7
	c24.6-7.7,32.1-32.1,47.2-54.9c9.5-13.3,22.8-16.9,38-19c-3.8-19-34.1-26.4-26.4-43.6c5.6-9.5,28.5-1.8,38-13.3
	c9.5-13.3-5.6-26.4-15.1-37.7c-2.1-3.8,0-11.3,3.8-15.1c9.5-7.7,22.6-3.8,34.1,1.8c4.4,1.5,9,1.3,13.9,0.5
	C1556.4,507.4,1558.7,481.8,1560.3,462.8z" title=""></path>
<path id="_x31_0" class="st3 area" d="M1754.7,634.4c-6.9,3.8-18.5,9.7-24.9,12.1c-3.8,1.3-8.5,1.5-13.9,1.5c-4.4,0-9.5-0.3-14.9-0.5
	c-6.4-0.3-13.3-0.8-20.8-0.8c-22.1,0-26.4-23.6-28.7-36.4c-0.5-2.8-1-5.1-1.3-6.7c-2.6-7.4-6.9-28.2-8.5-36.2
	c-10.8-5.6-48.2-25.1-66.7-41c-1-0.8-2.1-1.8-2.8-2.8c-4.6,0.8-9.5,1-13.9-0.5c-11.3-5.6-24.6-9.5-34.1-1.8
	c-3.8,3.8-5.6,11.3-3.8,15.1c9.5,11.3,24.6,24.6,15.1,37.7c-9.5,11.3-32.1,3.8-37.7,13.3c-7.4,16.9,22.6,24.6,26.4,43.6
	c-15.1,1.8-28.5,5.6-38,19c-15.1,22.6-22.8,47.2-47.2,54.9c-32.1,9.5-52.8-22.6-79.5-38c-7.4-3.8-19-3.8-28.2-1.8
	c-16.9,5.6-32.1,24.6-49.3,19c-24.6-9.5-51-28.5-79.5-19c-11.3,1.8-26.4,15.1-19,28.5c15.1,26.4-1.8,45.4-15.1,66.2
	c-5.6,9.5,5.6,13.3,9.5,19c5.6,19-20.8,7.7-26.4,20.8c0,2.1,0,7.7,0,9.5c3.8,5.6,15.1,13.3,13.1,15.1c-34.1,32.1-22.8,64.4,3.8,98.5
	c1,1.3,1.8,2.8,2.1,4.4c15.9,1.8,31.3,2.8,41,2.8c16.2,0,50,9.5,73.4,18.2c22.6,8.5,54.9,8.5,68.8,8.5c2.1,0,4.6,0,7.7-0.3
	c18.7-0.5,50.3-1.3,67.2,10.3c20,13.3,31.8,26.2,40.8,44.1l2.3,4.6c3.6,6.9,9.5,19,16.7,32.3c0.5-0.5,1-1,1.8-1.3
	c0.3-0.3,29.5-14.9,46.7-26.2c15.1-10.3,52.3-28.2,64.9-34.1c-4.6-14.4-5.4-28.5-5.6-33.1c-2.1-5.1-9-22.3-9-33.9
	c0-6.2,0.8-17.7,1.5-30c0.8-11.5,1.5-23.6,1.5-29.2c0-14.6,15.6-27.4,17.4-29l2.1-1.5l2.6,0.3c0.5,0,47.5,3.1,76.7,3.1
	c26.9,0,34.1-7.4,42.6-15.9c0.5-0.5,0.5-1,0.5-1.3c-0.3-7.2-21.8-26.7-35.9-39.5c-10.5-9.5-14.9-17.4-14.1-25.4
	c1.3-11.3,12.6-17.4,24.4-23.9c4.9-2.6,9.7-5.4,13.9-8.5c4.6-3.1,8.5-5.6,12.1-8c12.3-8,17.7-11.3,24.1-30.3
	C1761.9,664.9,1758.3,646.7,1754.7,634.4z" title=""></path>
<g id="G_13" class="area" title="">
	<path id="PATH_14" d="M672.4,226.8c0.3,0.8,0.3,1.5,0.3,2.3c0,1-0.3,1.8-0.5,2.8c-0.8,1.8-2.1,3.3-4.6,4.4
		c-2.1,0.8-4.1,1.3-6.4,1.3s-4.1-0.5-5.6-1.5c-1.5-1.3-2.3-2.8-2.3-5.1c0-1.3,0.3-2.3,0.8-3.8c0.5-1,0.8-1.8,1.3-2.3
		c0.3-0.3,0.5-0.3,0.5-0.3c0.3,0,0.3,0,0.3,0.3c0,0,0,0.3,0,0.5c-0.8,1.5-1,3.1-1,4.4c0,1.3,0.5,2.3,1.3,3.3c1,1.3,2.8,1.8,5.1,1.8
		c2.6,0,4.9-0.5,6.7-1.3c1.5-0.8,2.6-1.5,3.1-2.6c0.3-0.3,0.3-0.8,0.3-1c0-0.8-0.3-1.5-0.5-2.6c-0.3-0.8-1-2.1-2.3-4.1l1-2.1
		c0.3-0.3,0.3-0.5,0.3-0.5s0.3,0,0.3,0.3C671.4,222.7,672.2,224.7,672.4,226.8z M665,215.5l-2.1,2.1l-2.1-2.1l2.1-2.1L665,215.5z" class="area" title=""></path>
	<path id="PATH_15" d="M682.9,227h-1.8c-1.8,0-3.3-0.8-3.8-2.3c-0.5-1-0.8-2.8-0.8-4.9V215c0-2.3-0.3-5.6-0.5-10l1.5-1.8
		c0.3-0.3,0.5-0.3,0.5,0c0.3,2.3,0.5,5.6,0.5,10v7.4c0,2.1,1,3.1,3.1,3.1h1.3V227z" class="area" title=""></path>
	<path id="PATH_16" d="M696.8,227h-1.3c-0.8,0-1.8-0.3-3.1-0.5c-1.3-0.3-2.3-0.8-2.8-1.3c-0.5,0.5-1.3,0.8-2.3,1
		c-1.3,0.5-2.6,0.5-3.8,0.5h-1.8v-3.1h1.3c2.1,0,3.3-0.3,3.8-0.5c-0.5-0.3-0.8-0.8-1-1.3c-0.3-0.5-0.5-1-0.5-1.5
		c0-1,0.5-2.3,1.3-3.8c1-1.5,2.1-2.6,3.3-2.6s2.1,0.8,2.8,2.1c0.5,1,0.8,2.3,0.8,3.6c0,1-0.3,1.8-0.8,2.3c-0.3,0.5-0.5,0.8-1,1
		c0.5,0.3,1.8,0.5,3.6,0.5h1v3.6H696.8z M692.4,220.4c0-0.5-0.3-1.3-0.8-1.8c-0.5-0.8-1-1-1.8-1c-0.5,0-1.3,0.3-1.8,0.8
		c-0.5,0.5-1,1.3-1,1.8c0,0.5,0.3,1.3,1,1.8c0.5,0.5,1.3,0.8,1.8,1c0.5,0,1.3-0.3,1.5-0.8C692.2,221.4,692.4,220.9,692.4,220.4z
		 M691.7,207.8l-2.1,2.1l-2.1-2.1l2.1-2.1L691.7,207.8z" class="area" title=""></path>
	<path id="PATH_17" d="M702.7,206.8c0.3,0.3,0.3,0.5,0.3,0.5s-0.3,0-0.5,0h-0.8c0.3,3.3,0.3,8.2,0.3,14.6c0,1.5-0.3,2.8-1,3.6
		c-0.8,1-2.1,1.5-3.3,1.5H696V224h1.3c2.1,0,3.1-0.8,2.8-2.3c-0.3-5.4-0.5-11-0.8-16.7l1.8-1.5c0.3-0.3,0.5-0.5,0.5-0.5
		s0,0.3,0.3,0.5C701.7,204.2,702.2,205.2,702.7,206.8z" class="area" title=""></path>
	<path id="PATH_18" d="M718.3,221.6c0,3.6-2.3,5.4-7.2,5.4c-1.8,0-3.1-0.3-3.8-0.8c-1-0.5-1.5-1.8-1.5-3.3c0-0.8,0.3-1.5,0.5-2.3
		c0.3-0.3,0.3-0.5,0.5-0.5s0.3,0.3,0.3,0.8c0,0.3,0,0.5,0,0.8c0,1,0.5,1.8,1.5,2.1c0.5,0.3,1.5,0.3,2.8,0.3c3.8,0,5.6-0.5,5.6-1.8
		c0-1.8-2.3-4.4-6.7-7.4l0.8-2.6c0-0.3,0.3-0.3,0.3-0.3s0.3,0,0.5,0.3C716.3,215.5,718.3,218.8,718.3,221.6z" class="area" title=""></path>
</g>
<g id="G_19" class="area" title="">
	<path id="PATH_20" d="M1048.5,307.6c0,3.6-2.3,5.4-7.2,5.4c-1.8,0-3.1-0.3-3.8-0.8c-1-0.5-1.5-1.8-1.5-3.3c0-0.8,0.3-1.5,0.5-2.3
		c0.3-0.3,0.3-0.5,0.5-0.5s0.3,0.3,0.3,0.8c0,0.3,0,0.5,0,0.8c0,1,0.5,1.8,1.5,2.1c0.5,0.3,1.5,0.3,2.8,0.3c3.8,0,5.6-0.5,5.6-1.8
		c0-1.8-2.3-4.4-6.7-7.4l0.8-2.6c0-0.3,0.3-0.3,0.3-0.3s0.3,0,0.5,0.3C1046.5,301.4,1048.5,304.8,1048.5,307.6z" class="area" title=""></path>
	<path id="PATH_21" d="M1064.4,313h-1c-1,0-1.5-0.3-2.1-0.5c0,0.3,0,0.5,0,0.8c0,2.3-0.8,4.6-2.3,6.9c-1.3,2.1-2.6,2.8-3.3,2.8
		c-2.1,0-3.6,0-5.1-0.3c-0.5,0-0.8-0.3-0.8-0.3s0.3-0.3,0.8-0.3c2.1-0.5,4.1-1.5,6.2-3.1c2.1-1.8,3.3-3.6,3.3-5.4
		c0-1-0.8-2.6-2.6-4.4l1.3-2.3c0-0.3,0.3-0.3,0.3-0.3l0.3,0.3c0.8,1,1.3,1.8,1.8,2.1c0.8,0.5,1.8,1,2.8,1h0.8v2.8H1064.4z" class="area" title=""></path>
	<path id="PATH_22" d="M1084.4,305.5l-1,2.1c-1.8,0-3.3,0-4.1,0.3c-1,0.5-2.6,1-4.6,2.1s-3.6,1.8-4.6,2.1c-1.5,0.5-3.3,0.8-4.9,0.8
		h-1.8v-3.1h2.1c2.3,0,4.4-0.5,6.2-1.3l5.9-2.6c-1-0.3-2.6-0.8-4.6-1.5c-1.8-0.8-2.8-1-3.3-1c-1,0-2.1,0.5-3.1,1.3
		c-0.3,0.3-0.3,0.3-0.5,0.3s-0.3,0-0.3-0.3v-0.3c0.8-2.6,2.3-3.6,4.4-3.6c0.8,0,1.8,0.3,2.8,0.8c2.1,1,3.6,1.5,4.6,2.1
		c1.8,0.5,3.8,1,6.2,1c0.5,0,0.8,0,0.8,0.3C1084.7,305,1084.7,305.3,1084.4,305.5z M1076,318.1l-2.1,2.1l-2.1-2.1l2.1-2.1
		L1076,318.1z" class="area" title=""></path>
	<path id="PATH_23" d="M1098,311.9c0,3.8-1.3,7.2-3.8,9.7c-0.8,0.8-1.3,1.3-1.5,1.3c-1.5,0-3.1-0.3-4.9-0.5c-0.8,0-1-0.3-1-0.3
		s0.3-0.3,1-0.5c2.1-0.5,4.1-1.8,5.9-3.3c0.8-0.8,1.5-1.3,2.1-2.3c0.8-1,1.3-2.1,1.3-2.8v-0.8h-3.3c-2.3,0-3.6-1-3.6-2.8
		c0-1.3,0.3-2.6,1-4.1c0.8-1.5,1.8-2.6,2.8-2.6c1.5,0,2.8,1,3.6,3.3C1097.8,308.1,1098,309.9,1098,311.9z M1096.2,309.9
		c0-0.8-0.3-1.5-0.8-2.3c-0.5-0.8-1.3-1.3-2.1-1.3c-0.5,0-1,0.3-1.3,0.5s-0.5,0.8-0.5,1.3c0,1.3,0.8,1.8,2.6,1.8
		C1094.4,310.1,1095.2,309.9,1096.2,309.9z" class="area" title=""></path>
	<path id="PATH_24" d="M1113.9,313h-1c-1,0-1.5-0.3-2.1-0.5c0,0.3,0,0.5,0,0.8c0,2.3-0.8,4.6-2.3,6.9c-1.3,2.1-2.6,2.8-3.3,2.8
		c-2.1,0-3.6,0-5.1-0.3c-0.5,0-0.8-0.3-0.8-0.3s0.3-0.3,0.8-0.3c2.1-0.5,4.1-1.5,6.2-3.1c2.1-1.8,3.3-3.6,3.3-5.4
		c0-1-0.8-2.6-2.6-4.4l1.3-2.3c0-0.3,0.3-0.3,0.3-0.3l0.3,0.3c0.8,1,1.3,1.8,1.8,2.1c0.8,0.5,1.8,1,2.8,1h0.8v2.8H1113.9z" class="area" title=""></path>
	<path id="PATH_25" d="M1120.1,307.8c0,3.3-1.8,5.1-5.1,5.1h-2.1v-3.1h1.8c2.6,0,3.8-0.5,3.8-1.3s-0.5-1.8-1.8-3.1l1-2.6
		c0-0.3,0.3-0.3,0.3-0.3s0.3,0.3,0.5,0.5C1119.6,304.5,1120.1,306.3,1120.1,307.8z M1119.3,318.6l-2.1,2.1l-2.1-2.1l2.1-2.1
		L1119.3,318.6z" class="area" title=""></path>
</g>
<g id="G_32" class="area" title="">
	<path id="PATH_33" d="M461.3,588h-1c-1.3,0-2.3-0.3-2.8-0.8c-0.8-0.5-1.3-1.5-1.3-2.6c-2.8,2.6-7.2,3.8-13.1,3.8
		c-6.2,0-9.2-1.8-9.2-5.6c0-1.3,0.5-2.6,1.5-3.8c0.3-0.3,0.3-0.3,0.5-0.3c0.3,0,0.3,0,0.3,0.3c0,0,0,0.3,0,0.5
		c-0.3,0.8-0.5,1.5-0.5,2.3c0,2.6,2.8,3.8,8.5,3.8c6.4,0,10.8-1.3,12.8-4.1c0.5-0.5,0.8-0.8,1-0.8c0.3,0,0.3,0.3,0.3,0.5
		s0,0.5-0.3,1c0,0.5-0.3,0.8-0.3,1c0,1.3,1,2.1,2.8,2.1h1v2.6H461.3z M445.4,573.1l-2.1,2.1l-2.1-2.1l2.1-2.1L445.4,573.1z
		 M449.8,573.1l-2.1,2.1l-2.1-2.1l2.1-2.1L449.8,573.1z" class="area" title=""></path>
	<path id="PATH_34" d="M481.6,582.6c0,1.5-0.3,2.8-1,3.8c-0.8,1-2.1,1.8-3.3,1.8c-1.8,0-2.8-0.8-3.6-2.1c-1,1.5-2.1,2.1-3.6,2.1
		c-1.8,0-3.1-0.8-3.8-2.1c-1,1.5-2.3,2.1-4.1,2.1h-1.8v-3.1h2.1c1.8,0,3.1-1,3.3-3.1c0-0.5,0.3-0.8,0.5-0.8c0.3,0,0.3,0.3,0.5,0.8
		c0.3,2.1,1.3,3.1,3.3,3.1c1,0,2.1-0.3,2.6-0.8c0.3-0.5,0.5-1,0.8-2.1c0-0.5,0.3-0.8,0.5-0.8s0.3,0.3,0.5,0.8
		c0.3,2.1,1.3,3.1,3.1,3.1c2.1,0,2.8-0.5,2.8-1.3s-0.5-1.8-1.5-2.8l1.3-2.3c0.3-0.3,0.3-0.5,0.5-0.5s0.3,0.3,0.5,0.5
		C481.1,580,481.6,581.3,481.6,582.6z M472.8,573.1l-1.8,1.8l-1.8-1.8l1.8-1.8L472.8,573.1z M475.2,569.2l-1.8,1.8l-1.8-1.8l1.8-1.8
		L475.2,569.2z M477.5,573.1l-1.8,1.8l-1.8-1.8l1.8-1.8L477.5,573.1z" class="area" title=""></path>
	<path id="PATH_35" d="M501.6,588h-1c-1,0-1.8-0.3-2.6-1c-0.5-0.5-1-1-1.5-2.1c-0.5,1-1.3,1.8-2.1,2.3c-1,0.5-2.3,0.8-4.4,0.8
		c-3.6,0-5.4-1.3-5.4-3.8c0-0.8,0.3-1.8,0.8-2.6c0.3-0.3,0.3-0.5,0.5-0.5c0.3,0,0.3,0.3,0.3,0.5s0,0.3,0,0.8c0,0.3,0,0.5,0,0.8
		c0,1.5,1.3,2.3,3.8,2.3c3.6,0,5.4-0.8,5.4-2.1c0-0.8-1-3.6-3.1-8.5l1-2.1c0.3-0.3,0.3-0.5,0.3-0.5s0.3,0.3,0.3,0.5
		c0.8,2.1,2.1,5.1,3.6,9.2c0.8,2.1,1.8,3.1,3.3,3.1h0.8L501.6,588L501.6,588z" class="area" title=""></path>
	<path id="PATH_36" d="M517.2,582.8c0,1-0.3,2.1-1,3.1c-0.8,1.3-1.5,1.8-2.6,1.8c-0.8,0-2.6-0.5-5.4-1.8c-2.3,1.5-4.4,2.1-6.2,2.1
		h-1.5v-3.1h1.5c1,0,2.1,0,3.1-0.3c-1-0.8-1.5-1.8-1.5-3.1c0-1.5,1-3.3,3.3-5.1l-1.8-0.8c0.5-0.5,1.3-1.3,2.3-2.3
		c2.3,1.3,4.4,2.3,6.2,3.8C515.9,579.2,517.2,581,517.2,582.8z M510.6,580.8c0-0.8-0.3-1.3-0.5-1.8c-0.3-0.8-0.8-1-1.5-1
		c-0.8,0-1.3,0.3-2.1,0.8c-0.8,0.5-1.3,1.3-1.3,1.8c0,1,1,2.1,2.8,2.6c0.5-0.3,1-0.5,1.5-0.8C510.3,581.8,510.6,581.3,510.6,580.8z
		 M515.9,583.9c0-0.8-0.5-1.5-1.5-2.6c-0.8-0.8-1.5-1.5-2.3-1.8c0,2.1-0.5,3.6-1.8,4.6c2.1,0.8,3.6,1,4.1,1
		C515.4,585.1,515.9,584.6,515.9,583.9z" class="area" title=""></path>
	<path id="PATH_37" d="M533.1,588h-2.8c-0.3,3.6-1.5,6.4-4.1,9c-0.8,0.8-1.3,1.3-1.5,1.3c-1.3,0-3.1-0.3-4.9-0.5c-0.5,0-1-0.3-1-0.3
		s0.3-0.3,1-0.5c2.1-0.5,4.1-1.8,5.9-3.1c0.8-0.8,1.5-1.3,2.1-2.3c0.8-1,1.3-2.1,1.3-2.8V588h-3.3c-2.6,0-3.6-1-3.6-3.1
		c0-1.3,0.3-2.6,1-4.1c0.8-1.5,1.8-2.6,2.8-2.6c1.3,0,2.3,0.8,3.1,2.6c0.5,1.3,1,2.6,1,4.1h2.8v3.1H533.1z M528.5,584.9
		c0-0.8-0.3-1.5-0.8-2.3c-0.5-1-1.3-1.3-2.1-1.3c-0.5,0-1,0.3-1.3,0.5c-0.5,0.5-0.5,0.8-0.5,1.5c0,1.3,1,1.8,3.1,1.8
		C527.2,585.1,527.7,585.1,528.5,584.9z" class="area" title=""></path>
	<path id="PATH_38" d="M549,564.4c0,0.5-0.5,1.5-1,2.8l-6.4,2.1c-2.8,1-4.9,1.8-5.9,2.3c2.1,2.1,3.3,3.6,4.1,4.4
		c1.3,1.8,2.1,3.3,2.3,5.1c0,1.3,0,2.6-0.5,3.6c-0.8,2.3-3.6,3.3-8,3.3h-1.3v-3.1h1.5c2.1,0,3.6,0,4.4-0.3c1.8-0.5,2.8-1.3,2.8-2.6
		c0-1.8-1.3-3.8-4.1-6.4l-0.3,0.5c-0.3-0.3-0.8-0.8-1.3-1.5c-0.8-0.8-1-1.5-1-1.5c0-0.5,0-1,0.3-2.1c0.3-1,0.5-1.5,0.8-1.8
		c0.3-0.3,2.1-1,5.4-2.1C543.6,565.9,546.7,564.9,549,564.4z" class="area" title=""></path>
</g>
<g id="G_39" class="area" title="">
	<path id="PATH_40" d="M691.7,510.2c0,1.8-0.5,3.1-1.5,4.1c-1,1-2.6,1.3-4.1,1.3c-1,0-2.1-0.3-2.8-1s-1.3-1.5-1.3-2.6
		c0-1.3,0.5-2.6,1.5-4.4c0.8-1.5,1.8-2.8,2.8-3.8C689.9,505.6,691.7,507.7,691.7,510.2z M690.1,511.3c0-0.8-0.5-1.5-1.8-2.6
		c-1-1-1.8-1.5-2.8-1.8c-1.3,1.8-2.1,3.1-2.1,4.1c0,0.5,0.3,1,1,1.5c0.5,0.3,1,0.5,1.8,0.5c1,0,2.1-0.3,2.8-0.5
		C689.9,511.8,690.1,511.5,690.1,511.3z" class="area" title=""></path>
	<path id="PATH_41" d="M704.5,515.9c0,2.6-0.8,4.9-2.3,7.2c-1.3,1.8-2.6,2.8-3.3,2.8c-2.1,0-3.6,0-5.1-0.3c-0.5,0-0.8-0.3-0.8-0.3
		s0.3-0.3,0.8-0.3c2.1-0.5,4.1-1.5,6.2-3.1c2.1-1.8,3.3-3.6,3.3-5.4c0-1-0.8-2.6-2.6-4.4l1.3-2.3c0-0.3,0.3-0.3,0.3-0.3l0.3,0.3
		c0.5,0.8,1.3,1.8,1.5,3.1C704.2,513.8,704.5,514.9,704.5,515.9z" class="area" title=""></path>
	<path id="PATH_42" d="M717.8,514.6c0,3.8-1.3,7.2-3.8,9.7c-0.8,0.8-1.3,1.3-1.5,1.3c-1.5,0-3.1-0.3-4.9-0.5c-0.8,0-1-0.3-1-0.3
		s0.3-0.3,1-0.5c2.1-0.5,4.1-1.8,5.9-3.3c0.8-0.8,1.5-1.3,2.1-2.3c0.8-1,1.3-2.1,1.3-2.8v-0.8h-3.3c-2.3,0-3.6-1-3.6-2.8
		c0-1.3,0.3-2.6,1-4.1c0.8-1.5,1.8-2.6,2.8-2.6c1.5,0,2.8,1,3.6,3.3C717.6,510.8,717.8,512.6,717.8,514.6z M716,512.6
		c0-0.8-0.3-1.5-0.8-2.3c-0.5-0.8-1.3-1.3-2.1-1.3c-0.5,0-1,0.3-1.3,0.5c-0.5,0.5-0.5,0.8-0.5,1.3c0,1.3,0.8,1.8,2.6,1.8
		C714.2,512.8,715,512.6,716,512.6z" class="area" title=""></path>
	<path id="PATH_43" d="M733.5,510.2c0,3.6-2.3,5.4-7.2,5.4c-1.8,0-3.1-0.3-3.8-0.8c-1-0.5-1.5-1.8-1.5-3.3c0-0.8,0.3-1.5,0.5-2.3
		c0.3-0.3,0.3-0.5,0.5-0.5s0.3,0.3,0.3,0.8c0,0.3,0,0.5,0,0.8c0,1,0.5,1.8,1.5,2.1c0.5,0.3,1.5,0.3,2.8,0.3c3.8,0,5.6-0.5,5.6-1.8
		c0-1.8-2.3-4.4-6.7-7.4l0.8-2.6c0-0.3,0.3-0.3,0.3-0.3s0.3,0,0.5,0.3C731.2,504.1,733.5,507.4,733.5,510.2z" class="area" title=""></path>
</g>
<g id="G_44" class="area" title="">
	<path id="PATH_45" d="M703.2,796.5h-1c-1,0-1.5-0.3-2.1-0.5c0,0.3,0,0.5,0,0.8c0,2.3-0.8,4.6-2.3,6.9c-1.3,2.1-2.6,2.8-3.3,2.8
		c-2.1,0-3.6,0-5.1-0.3c-0.5,0-0.8-0.3-0.8-0.3s0.3-0.3,0.8-0.3c2.1-0.5,4.1-1.5,6.2-3.1c2.1-1.8,3.3-3.6,3.3-5.4
		c0-1-0.8-2.6-2.6-4.4l1.3-2.3c0-0.3,0.3-0.3,0.3-0.3l0.3,0.3c0.8,1,1.3,1.8,1.8,2.1c0.8,0.5,1.8,1,2.8,1h0.8v2.8H703.2z" class="area" title=""></path>
	<path id="PATH_46" d="M715.8,796.5h-2.1c-2.3,0-3.8-0.8-4.9-2.3c-0.8,1.5-2.6,2.3-5.4,2.3h-1.5v-3.1h2.3c2.6,0,3.8-1,4.1-2.8
		c0-0.8,0.3-1.3,0.5-1.3c0.3,0,0.5,0.5,0.5,1.3c0.3,1.8,1.5,2.8,3.8,2.8h2.3v3.1H715.8z M707.1,781.4l-2.1,2.1l-2.1-2.1l2.1-2.1
		L707.1,781.4z M711.4,781.4l-2.1,2.1l-2.1-2.1l2.1-2.1L711.4,781.4z" class="area" title=""></path>
	<path id="PATH_47" d="M735.8,788.8l-1,2.1c-1.8,0-3.3,0-4.1,0.3c-1,0.5-2.6,1-4.6,2.1c-2.1,1-3.6,1.8-4.6,2.1
		c-1.5,0.5-3.3,0.8-4.9,0.8h-1.8v-3.1h2.1c2.3,0,4.4-0.5,6.2-1.3l5.9-2.6c-1-0.3-2.6-0.8-4.6-1.5c-1.8-0.8-2.8-1-3.3-1
		c-1,0-2.1,0.5-3.1,1.3c-0.3,0.3-0.3,0.3-0.5,0.3c-0.3,0-0.3,0-0.3-0.3v-0.3c0.8-2.6,2.3-3.6,4.4-3.6c0.8,0,1.8,0.3,2.8,0.8
		c2.1,1,3.6,1.5,4.6,2.1c1.8,0.5,3.8,1,6.2,1c0.5,0,0.8,0,0.8,0.3C736,788.3,736,788.6,735.8,788.8z M728.6,777.3l-2.1,2.1l-2.1-2.1
		l2.1-2.1L728.6,777.3z" class="area" title=""></path>
	<path id="PATH_48" d="M751.7,791.1c0,3.6-2.3,5.4-7.2,5.4c-1.8,0-3.1-0.3-3.8-0.8c-1-0.5-1.5-1.8-1.5-3.3c0-0.8,0.3-1.5,0.5-2.3
		c0.3-0.3,0.3-0.5,0.5-0.5s0.3,0.3,0.3,0.8c0,0.3,0,0.5,0,0.8c0,1,0.5,1.8,1.5,2.1c0.5,0.3,1.5,0.3,2.8,0.3c3.8,0,5.6-0.5,5.6-1.8
		c0-1.8-2.3-4.4-6.7-7.4l0.8-2.6c0-0.3,0.3-0.3,0.3-0.3s0.3,0,0.5,0.3C749.6,785,751.7,788.1,751.7,791.1z" class="area" title=""></path>
	<path id="PATH_49" d="M786.8,796.5h-1.3c-1.3,0-2.3-0.5-2.8-1.3c0,1.5-0.3,3.3-0.5,5.6c-0.8,1.8-2.1,3.3-4.1,4.1
		c-1.8,0.8-3.6,1.3-5.9,1.3s-3.8-0.5-5.1-1.3c-1.5-1-2.3-2.6-2.3-4.9c0-2.1,0.5-4.1,1.8-5.6c0.3-0.3,0.3-0.3,0.5-0.3s0.3,0,0.3,0.3
		v0.3c-0.5,1.3-0.8,2.6-0.8,3.6c0,1.5,0.5,2.8,1.8,3.8c1,0.8,2.3,1.3,4.1,1.3c1.5,0,3.3-0.3,5.1-1c2.6-0.8,3.6-1.8,3.6-3.1
		l-0.3-12.3c-0.3-5.9-0.3-10-0.5-12.8l2.1-1.8c0,0.8,0.3,3.6,0.5,8.7l0.3,10c0,1.5,1,2.6,3.1,2.6h0.8v2.8H786.8z" class="area" title=""></path>
	<path id="PATH_50" d="M793,791.4c0,3.3-1.8,5.1-5.1,5.1h-2.1v-3.1h1.8c2.6,0,3.8-0.5,3.8-1.3c0-0.8-0.5-1.8-1.8-3.1l1-2.6
		c0-0.3,0.3-0.3,0.3-0.3s0.3,0.3,0.5,0.5C792.5,788.1,793,789.6,793,791.4z M786.8,801.4l1.8-1.8l1.8,1.8l-1.8,1.8L786.8,801.4z
		 M789.1,805.5l1.8-1.8l1.8,1.8l-1.8,1.8L789.1,805.5z M791.5,801.4l1.8-1.8l1.8,1.8l-1.8,1.8L791.5,801.4z" class="area" title=""></path>
</g>
<g id="G_51" class="area" title="">
	<path id="PATH_52" d="M961.8,602.6c0,3.6-2.3,5.4-7.2,5.4c-1.8,0-3.1-0.3-3.8-0.8c-1-0.5-1.5-1.8-1.5-3.3c0-0.8,0.3-1.5,0.5-2.3
		c0.3-0.3,0.3-0.5,0.5-0.5s0.3,0.3,0.3,0.8c0,0.3,0,0.5,0,0.8c0,1,0.5,1.8,1.5,2.1c0.5,0.3,1.5,0.3,2.8,0.3c3.8,0,5.6-0.5,5.6-1.8
		c0-1.8-2.3-4.4-6.7-7.4l0.8-2.6c0-0.3,0.3-0.3,0.3-0.3s0.3,0,0.5,0.3C959.5,596.4,961.8,599.8,961.8,602.6z" class="area" title=""></path>
	<path id="PATH_53" d="M971.8,608H970c-1.8,0-3.3-0.8-3.8-2.3c-0.5-1-0.8-2.8-0.8-4.9v-4.9c0-2.3-0.3-5.6-0.5-10l1.5-1.8
		c0.3-0.3,0.5-0.3,0.5,0c0.3,2.3,0.5,5.6,0.5,10v7.4c0,2.1,1,3.1,3.1,3.1h1.3L971.8,608L971.8,608z" class="area" title=""></path>
	<path id="PATH_54" d="M978,602.9c0,3.3-1.8,5.1-5.1,5.1h-2.1v-3.1h1.8c2.6,0,3.8-0.5,3.8-1.3c0-0.8-0.5-1.8-1.8-3.1l1-2.6
		c0-0.3,0.3-0.3,0.3-0.3s0.3,0.3,0.5,0.5C977.4,599.5,978,601.3,978,602.9z M977.2,613.6l-2.1,2.1l-2.1-2.1l2.1-2.1L977.2,613.6z" class="area" title=""></path>
	<path id="PATH_55" d="M988.2,580.5c-1,1-2.6,1.3-4.1,1.3c-0.3,0-0.5,0-1,0c-0.5,0-0.8,0-1,0c-0.3,0-0.5,0.3-0.8,0.5
		c-0.3,0.3-0.5,0.5-0.5,0.5c-0.3,0-0.3-0.3-0.3-0.5c0-0.3,0.3-0.8,0.5-1.3c0.3-0.8,0.5-1,0.8-1c0.3,0,0.8,0,1.5,0.3
		c0.8,0.3,1.3,0.3,1.5,0.3c1.5,0,2.6,0,3.3-0.3c0.5,0,0.8-0.3,0.8-0.3h0.3C988.7,580,988.7,580.3,988.2,580.5z M986.7,604.9
		c0,1-0.3,2.1-0.8,2.8c-0.3,0.5-0.5,0.8-0.5,0.8s-0.3-0.3-0.3-1c0-3.1-0.5-10.3-1.5-21.8l2.1-2.1c0.3-0.3,0.3-0.3,0.3-0.3
		s0,0.3,0,0.5C986.7,587.2,986.7,594.1,986.7,604.9z" class="area" title=""></path>
	<path id="PATH_56" d="M1014.6,602.9c0,0.5-0.3,1-0.8,2.1c-0.5,1-1,1.5-1.3,1.5c-0.8,0-1.8-0.3-3.1-0.5c-1.3-0.3-2.3-0.5-3.1-0.5
		c-1.3,0-2.3,0.3-2.8,0.5c0.5,4.4,0.8,7.7,0.8,9.7c0,1-0.3,2.1-1,3.3c-0.3,0.3-0.3,0.5-0.3,0.5s0,0,0-0.3c-0.3-4.1-0.5-8.2-1-12.3
		c0-0.5,0.3-1,0.8-1.8c0.5-0.5,0.8-1,1.3-1.3c0.5-0.5,1.3-0.5,2.1-0.5c-0.3-0.8-0.3-1.3-0.3-1.8c0-0.8,0.3-1.8,1-2.8
		c0.8-1,1.5-1.5,2.6-1.5c1.3,0,2.6,0.8,3.8,2.1C1014.6,600.5,1014.6,601.8,1014.6,602.9z M1012.6,603.9c-0.3-0.8-1-1.8-1.8-2.6
		c-1-1-1.8-1.3-2.8-1.3c-1.3,0-1.8,0.5-1.8,1.3c0,0.5,0.3,1,0.5,2.1C1008.2,603.1,1010.3,603.4,1012.6,603.9z" class="area" title=""></path>
	<path id="PATH_57" d="M1030.5,608h-1c-1,0-1.5-0.3-2.1-0.5c0,0.3,0,0.5,0,0.8c0,2.3-0.8,4.6-2.3,6.9c-1.3,2.1-2.6,2.8-3.3,2.8
		c-2.1,0-3.6,0-5.1-0.3c-0.5,0-0.8-0.3-0.8-0.3s0.3-0.3,0.8-0.3c2.1-0.5,4.1-1.5,6.2-3.1c2.1-1.8,3.3-3.6,3.3-5.4
		c0-1-0.8-2.6-2.6-4.4l1.3-2.3c0-0.3,0.3-0.3,0.3-0.3l0.3,0.3c0.8,1,1.3,1.8,1.8,2.1c0.8,0.5,1.8,1,2.8,1h0.8v2.8H1030.5z" class="area" title=""></path>
	<path id="PATH_58" d="M1050.6,600.5l-1,2.1c-1.8,0-3.3,0-4.1,0.3c-1,0.5-2.6,1-4.6,2.1s-3.6,1.8-4.6,2.1c-1.5,0.5-3.3,0.8-4.9,0.8
		h-1.8v-3.1h2.1c2.3,0,4.4-0.5,6.2-1.3l5.9-2.6c-1-0.3-2.6-0.8-4.6-1.5c-1.8-0.8-2.8-1-3.3-1c-1,0-2.1,0.5-3.1,1.3
		c-0.3,0.3-0.3,0.3-0.5,0.3c-0.3,0-0.3,0-0.3-0.3v-0.3c0.8-2.6,2.3-3.6,4.4-3.6c0.8,0,1.8,0.3,2.8,0.8c2.1,1,3.6,1.5,4.6,2.1
		c1.8,0.5,3.8,1,6.2,1c0.5,0,0.8,0,0.8,0.3C1050.8,600,1050.8,600.3,1050.6,600.5z M1043.4,588.7l-2.1,2.1l-2.1-2.1l2.1-2.1
		L1043.4,588.7z" class="area" title=""></path>
</g>
<g id="G_59" class="area" title="">
	<path id="PATH_60" d="M1386.1,796.5c0,2.6-0.8,4.9-2.3,7.2c-1.3,1.8-2.6,2.8-3.3,2.8c-2.1,0-3.6,0-5.1-0.3c-0.5,0-0.8-0.3-0.8-0.3
		s0.3-0.3,0.8-0.3c2.1-0.5,4.1-1.5,6.2-3.1c2.1-1.8,3.3-3.6,3.3-5.4c0-1-0.8-2.6-2.6-4.4l1.3-2.3c0-0.3,0.3-0.3,0.3-0.3l0.3,0.3
		c0.5,0.8,1.3,1.8,1.5,3.1C1385.8,794.7,1386.1,795.8,1386.1,796.5z M1384.3,782.9l-2.1,2.1l-2.1-2.1l2.1-2.1L1384.3,782.9z" class="area" title=""></path>
	<path id="PATH_61" d="M1399.2,796.5c0,2.6-0.8,4.9-2.3,7.2c-1.3,1.8-2.6,2.8-3.3,2.8c-2.1,0-3.6,0-5.1-0.3c-0.5,0-0.8-0.3-0.8-0.3
		s0.3-0.3,0.8-0.3c2.1-0.5,4.1-1.5,6.2-3.1c2.1-1.8,3.3-3.6,3.3-5.4c0-1-0.8-2.6-2.6-4.4l1.3-2.3c0-0.3,0.3-0.3,0.3-0.3l0.3,0.3
		c0.5,0.8,1.3,1.8,1.5,3.1C1398.9,794.7,1399.2,795.8,1399.2,796.5z" class="area" title=""></path>
	<path id="PATH_62" d="M1414.8,791.1c0,3.6-2.3,5.4-7.2,5.4c-1.8,0-3.1-0.3-3.8-0.8c-1-0.5-1.5-1.8-1.5-3.3c0-0.8,0.3-1.5,0.5-2.3
		c0.3-0.3,0.3-0.5,0.5-0.5c0.3,0,0.3,0.3,0.3,0.8c0,0.3,0,0.5,0,0.8c0,1,0.5,1.8,1.5,2.1c0.5,0.3,1.5,0.3,2.8,0.3
		c3.8,0,5.6-0.5,5.6-1.8c0-1.8-2.3-4.4-6.7-7.4l0.8-2.6c0-0.3,0.3-0.3,0.3-0.3s0.3,0,0.5,0.3C1412.5,785,1414.8,788.1,1414.8,791.1z
		" class="area" title=""></path>
	<path id="PATH_63" d="M1430.7,796.5h-2.8c-0.3,3.6-1.5,6.4-4.1,9c-0.8,0.8-1.3,1.3-1.5,1.3c-1.3,0-3.1-0.3-4.9-0.5
		c-0.5,0-1-0.3-1-0.3s0.3-0.3,1-0.5c2.1-0.5,4.1-1.8,5.9-3.1c0.8-0.8,1.5-1.3,2.1-2.3c0.8-1,1.3-2.1,1.3-2.8v-0.8h-3.3
		c-2.6,0-3.6-1-3.6-3.1c0-1.3,0.3-2.6,1-4.1c0.8-1.5,1.8-2.6,2.8-2.6c1.3,0,2.3,0.8,3.1,2.6c0.5,1.3,1,2.6,1,4.1h2.8v3.1H1430.7z
		 M1426.1,793.5c0-0.8-0.3-1.5-0.8-2.3c-0.5-1-1.3-1.3-2.1-1.3c-0.5,0-1,0.3-1.3,0.5c-0.3,0.3-0.5,0.8-0.5,1.5c0,1.3,1,1.8,3.1,1.8
		C1424.8,793.5,1425.3,793.5,1426.1,793.5z" class="area" title=""></path>
	<path id="PATH_64" d="M1448.2,796.5h-1.5c-1.3,0-2.8-0.5-4.1-1.8c-1-0.8-2.1-2.3-3.3-4.1c-0.3,3.8-2.8,5.9-8,5.9h-1.5v-3.1h1
		c4.6,0,7.2-1,7.2-2.8c0-1.5-1-3.3-3.3-5.4c-1-1-2.1-1.8-3.3-2.8c0-1,0.3-1.8,0.8-2.6c0.3-0.3,4.9-1.8,14.1-4.6
		c0,0.3-0.3,1.3-0.8,2.8c-2.3,0.5-6.2,1.8-11.3,3.3c2.6,2.8,5.1,5.4,6.9,7.7c1.3,1.3,2.1,2.3,2.8,2.8c1,0.8,2.3,1.3,3.6,1.3h1v3.3
		H1448.2z M1445.4,771.6l-0.5,1.8l-12.6,4.1l0.5-1.8L1445.4,771.6z" class="area" title=""></path>
	<path id="PATH_65" d="M1460.8,796.5h-2.1c-2.3,0-3.8-0.8-4.9-2.3c-0.8,1.5-2.6,2.3-5.4,2.3h-1.3v-3.1h2.3c2.6,0,3.8-1,4.1-2.8
		c0-0.8,0.3-1.3,0.5-1.3s0.5,0.5,0.5,1.3c0.3,1.8,1.5,2.8,3.8,2.8h2.3L1460.8,796.5L1460.8,796.5z M1452.3,802.2l-2.1,2.1l-2.1-2.1
		l2.1-2.1L1452.3,802.2z M1456.6,801.9l-2.1,2.1l-2.1-2.1l2.1-2.1L1456.6,801.9z" class="area" title=""></path>
	<path id="PATH_66" d="M1466.7,776c0.3,0.3,0.3,0.5,0.3,0.5s-0.3,0-0.5,0h-0.8c0.3,3.3,0.3,8.2,0.3,14.6c0,1.5-0.3,2.8-1,3.6
		c-0.8,1-2.1,1.5-3.3,1.5h-1.5v-3.1h1.3c2.1,0,3.1-0.8,2.8-2.3c-0.3-5.4-0.5-11-0.8-16.7l1.8-1.5c0.3-0.3,0.5-0.5,0.5-0.5
		s0,0.3,0.3,0.5C1465.6,773.7,1466.1,774.7,1466.7,776z" class="area" title=""></path>
	<path id="PATH_67" d="M1472.8,793.2c0,1-0.3,2.1-0.8,2.8c-0.3,0.5-0.5,0.8-0.5,0.8s-0.3-0.3-0.3-1c0-3.1-0.5-10.3-1.5-21.8l2.1-2.1
		c0.3-0.3,0.3-0.3,0.3-0.3s0,0.3,0,0.5C1472.8,775.8,1472.8,782.7,1472.8,793.2z" class="area" title=""></path>
</g>
<g id="G_68" class="area" title="">
	<path id="PATH_69" d="M1427.7,587.7h-1.8c-1.8,0-3.3-0.8-3.8-2.3c-0.5-1-0.8-2.8-0.8-4.9v-4.9c0-2.3-0.3-5.6-0.5-10l1.5-1.8
		c0.3-0.3,0.5-0.3,0.5,0c0.3,2.3,0.5,5.6,0.5,10v7.4c0,2.1,1,3.1,3.1,3.1h1.3V587.7z" class="area" title=""></path>
	<path id="PATH_70" d="M1433.8,582.6c0,3.3-1.8,5.1-5.1,5.1h-2.1v-3.1h1.8c2.6,0,3.8-0.5,3.8-1.3s-0.5-1.8-1.8-3.1l1-2.6
		c0-0.3,0.3-0.3,0.3-0.3s0.3,0.3,0.5,0.5C1433.3,579.2,1433.8,580.8,1433.8,582.6z M1433.6,570.8l-2.1,2.1l-2.1-2.1l2.1-2.1
		L1433.6,570.8z" class="area" title=""></path>
	<path id="PATH_71" d="M1446.9,588c0,2.6-0.8,4.9-2.3,7.2c-1.3,1.8-2.6,2.8-3.3,2.8c-2.1,0-3.6,0-5.1-0.3c-0.5,0-0.8-0.3-0.8-0.3
		s0.3-0.3,0.8-0.3c2.1-0.5,4.1-1.5,6.2-3.1c2.1-1.8,3.3-3.6,3.3-5.4c0-1-0.8-2.6-2.6-4.4l1.3-2.3c0-0.3,0.3-0.3,0.3-0.3l0.3,0.3
		c0.5,0.8,1.3,1.8,1.5,3.1C1446.6,585.9,1446.9,586.9,1446.9,588z M1444.8,574.1l-2.1,2.1l-2.1-2.1l2.1-2.1L1444.8,574.1z" class="area" title=""></path>
	<path id="PATH_72" d="M1452.8,584.4c0,1-0.3,2.1-0.8,2.8c-0.3,0.5-0.5,0.8-0.5,0.8s-0.3-0.3-0.3-1c0-3.1-0.5-10.3-1.5-21.8l2.1-2.1
		c0.3-0.3,0.3-0.3,0.3-0.3s0,0.3,0,0.5C1452.8,566.9,1452.8,573.9,1452.8,584.4z" class="area" title=""></path>
</g>
<g id="G_65" class="area" title="">
	<path d="M1231.2,520c0.1,1.8,0.8,3.3,3.5,3.3c1.7,0,3.1-0.5,4.7-1.4c0.3-0.2,0.4-0.3,0.4-0.5c0-1.2-0.8-2.7-2-4.1
		c-1.2-1.3-2.9-2.5-4.4-3.2c-0.5-0.3-0.7-0.5-0.7-0.8c0-0.5,0.6-1.7,1.1-2.4l0.2,0c1.7,1.1,3.7,2.7,5.1,4.4c1.3,1.6,2.1,3.3,2.1,5.1
		c0,1.3-0.3,2.6-0.9,3.8c-1.9,1.1-4,2-6,2c-2.4,0-4.1-1.4-4.1-4.5c0-0.3,0-0.9,0.1-1.6H1231.2z" id="PATH_66" class="area"></path>
	<path d="M1252,523.6c-2.5,0-4.7-1.2-4.7-4c0-1.4,0.5-2.6,1.4-3.7c1-1.1,2.1-1.8,3.1-1.8c1.2,0,2.4,0.9,3.2,2.4
		c0.8,1.5,1.4,3.5,1.4,5.9c0,2-0.5,3.9-1.6,5.7c-1.9,2.9-3.7,4.1-5.5,4.1c-2,0-4-0.6-6.2-2.1l0.3-0.7c1.1,0.5,2.1,0.7,3.1,0.7
		c2.2,0,4.3-1.1,6.3-3.3c1-1.1,1.9-2.3,2-3.6C1253.9,523.5,1252.9,523.6,1252,523.6z M1251,516.8c-1,0-2.4,1.1-2.4,1.9
		c0,1.3,1.9,2.3,3.7,2.3c0.8,0,1.7-0.1,2.4-0.3C1254.1,518.6,1252.9,516.8,1251,516.8z" id="PATH_67" class="area"></path>
	<path d="M1267.2,514.8l1.5,2.9c0.6,1.1,1.1,2.2,1.1,4.1v2.4c0,1.9-1,4-2.7,6c-1.3,1.4-2.5,2-3.5,2c-1.6,0-3.4-0.6-5.5-1.7l0.2-0.7
		c0.7,0.2,1.4,0.4,2.4,0.4c3,0,6.1-2.6,7.5-5.8c0.2-0.4,0.2-0.7,0.2-0.9c0-0.4-0.2-0.8-0.3-1.1c-0.8-1.7-1.6-3.3-2.6-4.7
		c0.5-0.9,1-1.8,1.5-2.7L1267.2,514.8z" id="PATH_68" class="area" title=""></path>
	<path d="M1289.2,523.6c-2.5,0-4.7-1.2-4.7-4c0-1.4,0.5-2.6,1.4-3.7c1-1.1,2.1-1.8,3.1-1.8c1.2,0,2.4,0.9,3.2,2.4
		c0.8,1.5,1.4,3.5,1.4,5.9c0,2-0.5,3.9-1.6,5.7c-1.9,2.9-3.7,4.1-5.5,4.1c-2,0-4-0.6-6.2-2.1l0.3-0.7c1.1,0.5,2.1,0.7,3.1,0.7
		c2.2,0,4.3-1.1,6.3-3.3c1-1.1,1.9-2.3,2-3.6C1291.1,523.5,1290.1,523.6,1289.2,523.6z M1288.2,516.8c-1,0-2.4,1.1-2.4,1.9
		c0,1.3,1.9,2.3,3.7,2.3c0.8,0,1.7-0.1,2.4-0.3C1291.3,518.6,1290.1,516.8,1288.2,516.8z" id="PATH_69" class="area"></path>
	<path d="M1298.2,520c0.1,1.8,0.8,3.3,3.5,3.3c1.7,0,3.1-0.5,4.7-1.4c0.3-0.2,0.4-0.3,0.4-0.5c0-1.2-0.8-2.7-2-4.1
		c-1.2-1.3-2.9-2.5-4.4-3.2c-0.5-0.3-0.7-0.5-0.7-0.8c0-0.5,0.6-1.7,1.1-2.4l0.2,0c1.7,1.1,3.7,2.7,5.1,4.4c1.3,1.6,2.1,3.3,2.1,5.1
		c0,1.3-0.3,2.6-0.9,3.8c-1.9,1.1-4,2-6,2c-2.4,0-4.1-1.4-4.1-4.5c0-0.3,0-0.9,0.1-1.6H1298.2z" id="PATH_70" class="area"></path>
</g>
<g id="G_71" class="area" title="">
	<path d="M802.1,393.1c0.1,0.5,0.3,1.7,0.7,3.9c0.3,1.9,1,3.6,2.1,4.3c0.6,0.3,1.3,0.5,2,0.5h0.3v3.2h-0.4c-3,0-4.2-1.3-5.2-5.4
		l-0.6-2.5h-0.1c-0.7,1.5-2,2.8-3.7,2.7c0.3,1.3,0.3,2.3,0.3,3.4c0,0.3,0,0.6,0,1.3c0,0.5-0.4,1.9-1.4,3.3c-1.7,2.5-3.6,3.8-4.9,3.8
		c-2.2,0-4.1-0.8-6.5-2l0.3-0.8c0.6,0.3,1.5,0.6,2.3,0.6c2.6,0,4.9-1.2,6.8-3.5c1.1-1.3,2-2.6,2-3.5c-0.6-1.6-1.8-2.9-3.1-4.2
		l0.8-3.2h0.2c0.6,0.6,1.3,1.2,1.8,1.6c0.6,0.4,1.3,0.5,2.1,0.5c0.6,0,1.2-0.2,1.8-0.7c0.8-0.6,1.3-2,2.1-3.4H802.1z M799.1,390.4
		c-1-1-1.9-1.8-2.9-2.6c0.6-0.9,1.3-1.7,2-2.4c1,0.8,1.9,1.6,2.8,2.7C800.3,389.2,799.8,389.8,799.1,390.4z M803.9,390.1
		c-1-1-1.9-1.8-2.9-2.6c0.6-0.9,1.3-1.7,2-2.4c1,0.8,1.9,1.6,2.8,2.7C805.1,388.8,804.6,389.5,803.9,390.1z" id="PATH_72" class="area"></path>
	<path d="M832.8,405.1h-0.6c-3.1,0-4.5-0.9-5.1-2.3h-0.1c-1.4,1.6-2.8,2.3-4.3,2.3c-1.1,0-2.3-0.3-2.7-2.1h-0.1
		c-1.1,1.2-2.5,2.1-4.3,2.1c-1.4,0-2.2-0.6-2.4-2.1H813c-1.5,1.8-3.6,2.1-5.3,2.1h-0.4c-1.4,0-1.7-1-1.7-1.7c0-0.6,0.4-1.5,1.7-1.5
		h0.8c2.3,0,4-0.6,5.3-2.3l1.2-1.9l1.9-0.7l0.1,0.1c-0.9,1.6-1.6,2.8-1.6,3.6c0,0.8,0.6,1.2,1.3,1.2c0.7,0,1.5-0.2,2.2-0.7
		c0.6-0.4,1.2-1.3,1.6-2.2l0.6-1.5l1.9-0.9l0.1,0.1c-0.7,1.9-1,2.8-1,3.7c0,0.7,0.4,1.4,1.4,1.4c0.8,0,1.3-0.3,1.7-0.5
		c0.7-0.5,1.1-1.3,1.4-2.4c0.1-0.4,0.2-0.9,0.5-2l1.9-1.3l0.1,0.1c-0.3,1.1-0.6,2.5-0.6,3.4c0,2,1.7,2.7,4.1,2.7h0.5V405.1z
		 M819.5,392.9c-1-1-1.9-1.8-2.9-2.6c0.6-0.9,1.3-1.7,2-2.4c1,0.8,1.9,1.6,2.8,2.7C820.7,391.6,820.2,392.3,819.5,392.9z
		 M820.9,387.6c-1-1-1.9-1.8-2.9-2.6c0.6-0.9,1.3-1.7,2-2.4c1,0.8,1.9,1.6,2.8,2.7C822.1,386.3,821.6,387,820.9,387.6z M824.3,392.6
		c-1-1-1.9-1.8-2.9-2.6c0.6-0.9,1.3-1.7,2-2.4c1,0.8,1.9,1.6,2.8,2.7C825.5,391.3,825,392,824.3,392.6z" id="PATH_73" class="area" title=""></path>
	<path d="M833.3,401.9c0.8,0,1.7-0.1,2.8-0.7c0.9-0.5,1.3-1.4,1.3-2.7c0-4-0.3-8.3-0.7-12.9c-0.1-1.1-0.2-2.2-0.2-3.1
		c0-0.5,0.2-1.1,0.7-1.7c0.3-0.4,0.8-0.9,1.4-1.4l0.2,0.1c0,1.6,0.7,3.6,2,5.7c-0.4,0.4-1,0.8-1.6,1.3c0.1,2.9,0.3,5.9,0.3,8.6
		c0,2.7-0.3,4.8-1,6.3c-0.5,1.3-1.1,2.3-2.3,2.9c-1,0.5-2.1,0.7-3.1,0.7h-0.4c-1.4,0-1.7-1-1.7-1.7c0-0.6,0.4-1.5,1.7-1.5H833.3z" id="PATH_74" class="area" title=""></path>
	<path d="M845.1,405.5c0.2-1.6,0.3-3.3,0.3-5v-2.4c0-4.6-0.5-11.2-0.9-15.5c0.7-0.9,1.7-1.9,2.4-2.6l0.2,0.1
		c0.5,5.4,0.6,11.7,0.6,17.5c0,1.5,0,3-0.2,4.1c-0.1,1.4-0.7,2.4-2.2,4L845.1,405.5z" id="PATH_75" class="area" title=""></path>
</g>
</svg>
