<!--?xml version="1.0" encoding="utf-8"?-->
<!-- Generator: Adobe Illustrator 27.4.1, SVG Export Plug-In . SVG Version: 6.00 Build 0)  -->
<svg version="1.1" id="Layer_1" xmlns="http://www.w3.org/2000/svg" xmlns:xlink="http://www.w3.org/1999/xlink" x="0px" y="0px" viewBox="0 0 1920 1080" style="enable-background:new 0 0 1920 1080;" xml:space="preserve" width="100%" height="100%">
<style type="text/css">
	.st0{fill:#FDFAD6;stroke:#020202;stroke-width:0.4114;stroke-miterlimit:20.5714;}
	.st1{fill:#E8D0E5;stroke:#020202;stroke-width:0.4114;stroke-miterlimit:20.5714;}
	.st2{fill:#DBECCB;stroke:#020202;stroke-width:0.4114;stroke-miterlimit:20.5714;}
	.st3{fill:#FBD1D1;stroke:#020202;stroke-width:0.4114;stroke-miterlimit:20.5714;}
	.st4{fill:#FFFFFF;stroke:#000000;stroke-width:0.5;stroke-miterlimit:10;}
</style>
<path id="_x38_46" class="st0 area" d="M797.3,308.2c14.8-8.4,14.8-26.5,10.7-42.6c28.8-17.1,61.7,1,84.1,24.5c5.3,5.3,14.8,0,22.4,1
	c2.1,1,5.3,1,7.4,3.3c17.1,28.8,49,27.8,77.8,34.1c14.8,4.3,20.2,19.1,26.5,32.9c1.9,5.6,6,9.3,10.9,12.1l1-2.9l4.1,0.6
	c1.2,0.2,28.8,3.7,53.5,14.2c16.5,7,38.3,12.5,50.4,6.6c4.3-2.1,7-5.3,8.4-10.3c9.5-32.9,41.3-34.1,67.9-31.5
	c13.4,1.2,33.5,3.3,37-0.8c0.6-0.8,1.4-3.1-0.8-9.7c-5.8-17.3-19.1-57.6,1.2-78.2c3.7-3.7,8.2-8,13.2-12.5
	c-6.2-4.7-11.5-11.1-16.9-16.5c-20.2-21.2-55.3-4.3-84.1-10.7c-8.4-1-11.7-7.4-18.1-12.8c-3.1-2.1-5.3-7.4-10.7-8.4
	c-12.8-2.1-24.5,5.3-36.2,2.1c-11.7-4.3-23.5-11.7-37.2-11.7c-5.3-1-6.4-10.7-11.7-13.8c-14.8-12.8-28.8,7.4-43.6,13.8
	c-3.1,1-8.4,1-10.7-1c-11.7-8.4-16-26.5-27.8-30.9c-24.5-7.4-53.3-7.4-74.5-27.8c-8.4-8.4-21.4,3.3-29.8-2.1
	c-24.5-12.8-49-14.8-74.5-11.7c-20,2.7-28.6-13.8-39.1-28c-1.9-0.4-3.7-0.8-5.3-1.4c-4.9,10.7-18.3,38.3-29.6,55.1
	c-3.3,4.9-4.3,9.1-3.1,12.8c3.1,9.3,22,15.6,28.2,17.7c6,2.1,10.3,5.6,12.5,10.3c4.7,9.7,0.4,22.4-3.1,32.5c-1,3.1-2.1,6-2.7,8.4
	c-1,4.3-3.1,10.5-5.6,17.7c-4.5,14-10.7,32.7-11.7,44.4c6.8,2.1,14.2,1.6,19.5,3.9C770.7,297.5,780.2,317.8,797.3,308.2z" title=""></path>
<path id="_x38_42" class="st1 area" d="M1385.2,741.2c-14.6-10.9-42.6-38.9-50-53.9l-1.6-3.5c-7.4-15-13-24.9-24.9-24.9
	c-4.9,0-12.8-0.4-22-1.2c-21.8-1.4-54.9-3.7-66.2,0.8c-16.5,6.6-40.9,7.2-46.1,7.2c-3.9,1.2-16.9,4.9-25.9-1.2
	c-3.7-2.5-7.8-7.6-7.8-17.7c0-10.9-6.6-19.5-13.6-28.6c-1.6-2.3-3.3-4.5-4.9-6.8c-1.9,0.4-3.5,1-5.1,2.3c-1,2.1-4.3,2.1-6.4,3.3
	c-9.7,8.4-22.4,1-29.8,14.8c-6.4,11.7-4.3,22.4,3.3,32.9c1,2.1-1,5.3,0,7.4c12.8,16,36.2,13.8,51,2.1c2.1-1,6.4-1,9.7,0
	c12.8,6.4,25.5,11.7,40.5,13.8c4.3,0,9.7,4.3,9.7,8.4c4.3,22.4,3.3,42.6,19.1,60.7c4.3,4.3-2.1,18.1,4.3,24.5
	c10.7,10.7,22.4,20.2,24.5,34.1c2.1,19.1-1,38.3,12.8,55.3c4.1,4.7,3.3,12.8-0.2,18.9c14.2-5.1,32.9-5.8,52,1.4
	c25.9,9.7,63.8-7,69.5-21.4c3.1-7.4,6.6-25.3,6.6-67.5c0-3.1,1-8.2,2.3-14.8C1387.7,774.7,1392.8,746.9,1385.2,741.2z" title=""></path>
<path id="_x38_49" class="st1 area" d="M793,771.2c-14.8-7.4-11.7-24.5-16-39.3c-2.3-9.7-13.8-16-22.4-24.5c-2.1-2.1-2.1-6.4-1-8.4
	c6.4-7.4,13.8-13.8,10.7-23.5c-3.3-8.4-13.8-9.7-19.1-6.4c-9.7,5.3-16,16-25.5,19.1c-14.8,6.4-21.4-7.4-33.1-13.8
	c-12.8-6.4-29.8-7.4-44.6-10.7c-13.8-3.9-28,3.9-34.1,15.4c3.9,8.2,8,15.4,11.5,19.7c4.7,6,5.8,13,3.3,20.4
	c-5.3,15.8-25.5,30-37.2,32.9c-6.4,1.6-15.4,4.9-24.1,8c2.7,7.4,8,24.3,6,36.2c-0.6,3.9-0.2,7.6,0.4,11.3c1,8.2,2.3,17.5-8.6,28.4
	c-3.3,3.1-7.4,6.6-11.9,10.1c-5.6,4.3-18.3,14.6-17.5,17.9c0,0,1,2.7,12.8,4.7c38.9,6.8,52.7,6.8,68.5,6.8
	c27.2,0,32.9,12.8,32.9,23.7c0,9.5,9.7,25.7,14.4,32.7c6.2,2.5,32.3,11.3,40.5-5.1c3.5-7,6-14.2,8-20.6c3.9-11.5,6.8-20.6,14-23.9
	c3.7-1.6,7.8-1.4,12.3,0.4c15.2,6.6,25.7,6.6,42,6.6c3.1,0,6.4-0.2,10.1-0.4c10.7-0.6,21.6-1,29.4,1.9c6.4-16.7,17.1-30.2,33.3-36.2
	c0.6-0.2,1-0.4,1.6-0.6c-4.3-22-12.8-38.5-27.2-56C814.4,790.4,806.9,777.6,793,771.2z" title=""></path>
<path id="_x35_19" class="st0 area" d="M799.3,631.7c2.1-4.3,2.1-10.7,0-11.7c-14.8-9.7-38.3-11.7-43.6-32.9
	c-3.3-11.7-24.5-17.1-29.8-30.9c-4.3-10.7,1-21.2,7.4-31.9c2.5-3.1,1.4-6.6-0.4-10.3c-6.6-1.4-13-4.7-18.7-9.9
	c-7.4-7.4-18.1,4.3-27.6,0c-4.3-2.1-8.4-7.4-13.8-8.4c-8.4-3.3-14.8,7.4-23.5,8.4c-16,3.3-23.5-17.1-34.1-25.5c-0.6-0.6-1-1-1.6-1.4
	c-4.3,3.3-9.7,5.1-15.8,5.1c-6,0-8,4.1-11.9,15.8c-2.7,7.6-5.6,16.3-11.7,23.9c-12.1,15.2-6,43.8-6,44.2l17.3,58.6
	c0.2,0.2,11.1,31.7,22.2,54.7c6.2-11.7,20.4-19.3,34.1-15.4c14.8,3.3,31.9,4.3,44.6,10.7c11.7,6.4,18.1,20.2,33.1,13.8
	c9.7-3.3,16-13.8,25.5-19.1c4.9-3.1,14.6-2.3,18.5,4.9c4.1-4.5,7.6-9.5,10.3-14.6C779.2,648.8,794.2,643.5,799.3,631.7z" title=""></path>
<path id="_x38_30" class="st2 area" d="M1083.6,672.3c-1-2.3,1-5.3,0-7.4c-3.7-5.1-6-10.3-6.8-15.4c-23.2-6-43.4-21.6-64.6-36.6
	c-8.4-6.4-21.4,0-31.9-5.3c-2.1-1-6.4-2.1-8.4-4.3c-9.7-21.2-28.8-19.1-46.9-24.5c-9.3-3.1-18.7-8-28.4-12.3c-6.4,8-14,15-24.7,16.7
	c-17.1,3.3-31.9-7.4-47.9,0c-10.7,4.3-25.5-1-27.8-13.8c-1-9.7,7.4-14.8,12.8-22.4c2.3-3.3-1-9.7-2.1-9.7
	c-18.3-4.7-34.8-14.8-37.9-33.1c-3.7,2.7-8.4,4.5-12.1,6.4c-7.6,4.1-15.8,5.3-23.9,3.5c1.9,3.5,2.9,7.2,0.4,10.3
	c-6.4,10.7-11.7,21.2-7.4,31.9c5.3,13.8,26.5,19.1,29.8,30.9c5.3,21.2,28.8,23.5,43.6,32.9c2.3,1,2.3,7.4,0,11.7
	c-5.3,11.7-20.2,17.1-25.5,27.8c-2.7,5.1-6.2,10.1-10.3,14.4c0.2,0.4,0.4,1,0.6,1.4c3.3,9.7-4.3,16-10.7,23.5c-1,2.1-1,6.4,1,8.4
	c8.4,8.4,20.2,14.8,22.4,24.5c4.3,14.8,1,31.9,16,39.3c13.8,6.4,21.4,19.1,28.8,27.8c14.4,17.5,22.6,33.7,27.2,56
	c16.7-5.3,35.2,1.6,53.7-1.6c12.8-3.3,17.1-17.1,29.8-20.2c6.4-2.1,13.8,2.1,19.1-1c11.7-6.4,20.2-17.1,32.9-25.5
	c6.8-3.7,14-9.1,17.7-16.9c-1.4-5.6-0.4-11.7,4.5-16.3c10.7-10.7,27.8-8.4,41.6-12.8c22.4-5.3,31.9-28.8,34.1-51
	c0.8-11.3,1.2-23.5,3.1-35C1084.9,673.7,1084.3,673.1,1083.6,672.3z" title=""></path>
<path id="_x38_31" class="st1 area" d="M649.4,504c8.4-1,14.8-11.7,23.5-8.4c5.3,1,9.7,6.4,13.8,8.4c9.7,4.3,20.2-7.4,27.6,0
	c12.8,11.7,28.8,13.8,42.6,6.4c3.9-1.9,8.4-3.9,12.1-6.4c-0.4-2.1-0.6-4.1-0.6-6.4c-1-9.7-13.8-8.4-18.1-16c-1-2.1-1-5.3,0-7.4
	c2.1-3.3,4.3-6.4,7.4-7.4c-6.4-16-2.1-26.5,12.8-38.3c3.3-2.1,0-8.4-1-12.8c-3.3-12.8,14.8-23.5,16-31.9c2.7-17.5,3.9-34.4,9.5-51
	c-1.2-1.4-2.5-3.5-3.1-6.6c-1.9-5.3,3.1-10.7,2.3-16.7c-15.2,5.8-24.3-12.5-36.4-18.5c-5.6-2.3-12.8-1.9-19.5-3.9
	c0,0.8-0.2,1.6-0.2,2.5c0,9.9-6.2,32.9-64.2,32.9c-31.7,0-48.1,57.2-50.2,64.6c0.4,6.6,3.5,45.5,3.5,58.4c0,12.1-4.7,24.5-13.6,31.3
	c0.6,0.4,1,1,1.6,1.4C625.9,486.9,633.3,507.3,649.4,504z" title=""></path>
<path id="_x34_07" class="st3 area" d="M769.7,415.7c1,4.3,4.3,10.7,1,12.8c-14.8,11.7-19.1,22.4-12.8,38.3c-3.3,1-5.3,4.3-7.4,7.4
	c-1,2.1-1,5.3,0,7.4c4.3,7.4,17.1,6.4,18.1,16c0,22.4,18.1,34.1,38.3,39.3c1,0,4.3,6.4,2.1,9.7c-5.3,7.4-13.8,12.8-12.8,22.4
	c2.1,12.8,17.1,18.1,27.8,13.8c16-7.4,30.9,3.3,47.9,0c10.9-1.6,18.3-8.6,24.7-16.7c-3.5-1.6-7.2-3.3-10.9-4.7
	c-7.4-4.3-18.1-13.8-13.8-24.5c1-5.3,9.7-8.4,10.7-12.8c0.4-4.7,1.9-8.8,3.5-12.3c-14.4,2.5-16.3-15.8-16.3-28
	c0-2.1-4.3-3.3-4.3-5.3c-2.1-10.7,12.8-8.4,17.1-16c1-3.3-4.3-7.4-2.1-9.7c12.8-10.7,20.2-21.2,6.4-34.1c-1-1-1-4.3,0-6.4
	c6.4-7.4,10.7-20.2,1-24.5c-18.1-7.4-37.2-8.4-54.3-18.1c-12.8-7.4-2.1-20.2-3.3-31.9c-1-2.1-2.1-5.3-4.3-6.4
	c-10.7-1.9-24.3,8.2-31.1,1.2c-5.8,16.7-6.8,33.5-9.5,51C784.5,392.3,766.4,403,769.7,415.7z" title=""></path>
<path id="_x38_35" class="st0 area" d="M1112.6,587.9c0-23.9-1.4-32.9-15.6-32.9c-21.8,0-54.7,0-70.1-23c-8.4-12.5-13.8-24.5-16-35.2
	c-15.8-20.2-37.4-35.6-60.1-20.2c-16,10.7-26.5,21.2-46.9,23.5c-5.3,0-10.7,9.7-16,11.7c-0.6,0.2-1.2,0.2-1.9,0.4
	c-1.6,3.7-3.1,7.6-3.5,12.3c-1,4.3-9.7,7.4-10.7,12.8c-4.3,10.7,6.4,20.2,13.8,24.5c13.8,5.3,26.7,12.8,39.5,17.1
	c18.1,5.3,37.2,3.3,46.9,24.5c2.1,2.1,6.4,3.3,8.4,4.3c10.7,5.3,23.5-1,31.9,5.3c21.2,15.2,41.3,30.9,64.6,36.6
	c-0.8-5.6,0.2-11.5,3.5-17.5c7.4-13.8,20.2-6.4,29.8-14.8c2.1-1,5.3-1,6.4-3.3c1.6-1.2,3.3-2.1,5.1-2.3
	C1116.8,604.4,1112.6,596.8,1112.6,587.9z" title=""></path>
<path id="_x38_40" class="st0 area" d="M1081.6,880.9c-4.3-3.3-7.4-8.4-7.4-12.8c-1-34.1-29.8-53.3-59.7-63.8
	c-5.6-2.3-10.5-8.2-11.9-14.6c-3.7,7.6-10.9,13-17.7,16.9c-12.8,8.4-21.2,19.1-32.9,25.5c-5.3,3.3-12.8-1-19.1,1
	c-12.8,3.3-17.1,17.1-29.8,20.2c-19.1,3.3-38.3-4.3-55.3,2.1c-16.3,6-26.9,19.5-33.3,36.2c2.3,0.8,4.1,1.9,5.8,3.5
	c2.7,2.5,3.9,5.8,3.9,9.5c0,3.1-0.2,6.6-0.6,10.7c-1.2,14.2-2.7,31.7,8,40.9c15.4,13.4,51.6,31.5,52,31.7l2.3,1.2l0.4,2.5
	c0,0.2,4.5,22.8,6.8,29.4c0.6,1.9,1,4.1,1.4,6.6c2.3,12.8,4.9,19.7,12.1,19.7c6,0,11.7,0.4,16.9,0.6c7.8,0.4,15,0.8,18.5-0.4
	c4.3-1.4,13.6-6.4,19.1-9.5c-0.2-0.4-0.4-0.8-0.4-0.8l-0.6-1.2v-1.2c0.2-2.1,4.1-49.2,42.4-56.8c23.7-4.7,40.9-16.5,57.6-27.8
	c6.6-4.5,13.6-9.3,20.6-13.4c21.4-12.1,45.1-11.7,70.4-11.3c3.5,0,7,0.2,10.7,0.2C1144.1,900.2,1107.1,900.4,1081.6,880.9z" title=""></path>
<path id="_x38_51" class="st3 area" d="M1255,871.4c-13.8-17.1-10.7-36.2-12.8-55.3c-2.3-13.8-13.8-23.5-24.5-34.1
	c-6.4-6.4,0-20.2-4.3-24.5c-16-18.1-14.8-38.3-19.1-60.7c0-4.3-5.3-8.4-9.7-8.4c-14.8-2.1-27.8-7.4-40.5-13.8c-3.3-1-7.4-1-9.7,0
	c-14.2,11.1-36,13.6-49.2,0c-1.9,11.5-2.3,23.7-3.1,35c-2.1,22.4-11.7,45.9-34.1,51c-13.8,4.3-30.9,2.1-41.6,12.8
	c-10.7,9.7-3.3,26.5,7.4,30.9c29.8,10.7,58.6,29.8,59.7,63.8c0,4.3,3.3,9.7,7.4,12.8c25.5,19.5,62.5,19.3,80,44.8c1.6,0,3.1,0,4.7,0
	c29.2,0,59.2-9.7,68.7-22.2c4.3-5.8,11.1-10.5,19.7-13.6C1258.5,884,1259.1,876.1,1255,871.4z" title=""></path>
<path id="_x38_38" class="st2 area" d="M791.9,326.3c4.3,18.1,21.4,3.3,34.1,5.3c2.3,1,3.3,4.3,4.3,6.4c1,11.7-9.7,24.5,3.3,31.9
	c17.1,9.7,36.2,10.7,54.3,18.1c9.7,4.3,5.3,17.1-1,24.5c-1,2.1-1,5.3,0,6.4c13.8,12.8,6.4,23.5-6.4,34.1c-2.1,2.1,3.3,6.4,2.3,9.7
	c-4.3,7.4-19.1,5.3-17.1,16c0,2.1,4.3,3.3,4.3,5.3c0,12.8,2.3,31.9,18.1,27.8c5.3-2.1,10.7-11.7,16-11.7
	c20.2-2.1,30.9-12.8,46.9-23.5c22.6-15.4,44.2,0,60.1,20.2c-2.3-10.5-1.6-20,1.9-28.6c6.6-16.7,13.6-60.9,13.6-61.3l0.2-0.8
	l10.7-32.3c-4.9-2.9-8.8-6.6-10.9-12.1c-6.4-13.8-11.7-28.8-26.5-32.9c-28.8-6.4-60.7-5.3-77.8-34.1c-2.3-2.1-5.3-2.1-7.4-3.3
	c-7.4-1-17.1,4.3-22.4-1c-22.4-23.5-55.3-41.6-84.1-24.5c4.3,16,4.3,34.1-10.7,42.6c-1,0.6-2.1,1-3.1,1.4
	C795,315.6,790.3,320.9,791.9,326.3z" title=""></path>
<path id="_x38_45" class="st3 area" d="M797.3,117.7c25.5-3.3,50-1,74.5,11.7c8.4,5.3,21.2-6.4,29.8,2.1c21.4,20.2,50,20.2,74.5,27.8
	c11.7,4.3,16,22.4,27.8,30.9c2.1,2.1,7.4,2.1,10.7,1c14.8-6.4,28.8-26.5,43.6-13.8c5.3,3.3,6.4,12.8,11.7,13.8
	c13.8,0,25.5,7.4,37.2,11.7c11.7,3.3,23.5-4.3,36.2-2.1c5.3,1,7.4,6.4,10.7,8.4c6.4,5.3,9.7,11.7,18.1,12.8
	c28.8,6.4,63.8-10.7,84.1,10.7c5.3,5.3,10.7,11.7,16.9,16.5c15.4-14.2,35.2-31.1,47.1-36.8c2.5-1.2,5.1-2.1,7.6-2.9
	c0.2-1,0.4-2.1,1.2-2.9c1.9-2.1,5.1-2.3,7.4-0.4c0,0,0.4,0.4,0.8,0.6c9.7-2.9,14.8-6,14.8-17.5c0-15.2,5.1-35.2,9.3-51.2
	c2.5-9.3,4.7-18.1,4.7-21.6c0-2.7,0.6-5.8,1.6-9.9c1.9-9.1,4.5-21.6-0.6-28.2c-2.9-3.7-8.4-5.3-16.5-5.3c-30,0-54.1-10.5-75.5-19.7
	c-6.8-3.1-13.4-5.8-20-8.2c-21.6-8-41.1-7.4-57-6.8c-3.7,0.2-7.4,0.2-10.7,0.2c-17.1,0-85.8,3.5-86.4,3.5
	c-3.1,0.6-87.8,14-116.4,3.1c-26.7-10.1-56.8-13.6-74.5-13.6c-20,0-56.4,7-60.7,12.5c-0.2,13-12.1,38.9-39.1,42.8l-3.7,0.4
	c-18.3,2.7-34.8,4.9-48.1,2.3C768.7,103.9,777.3,120.1,797.3,117.7z" title=""></path>
<g id="G_15" class="area" title="">
	<path id="PATH_16" d="M1057.3,116.2h-1.4c-1.9,0-2.9-1-3.3-3.3c-1,1-1.4,1.4-1.6,1.4h-1.9c-0.6,0-1.2,0-1.9-0.2
		c-0.8-0.2-1.2-0.6-1.2-1c0-1.4,0.6-2.9,1.6-3.7c0.8-0.6,2.1-1.2,3.7-2.1l-0.4-2.1l1.4-1.6c0,0.2,0.6,2.5,1.4,6.8
		c0.2,1.2,0.6,2.3,0.8,2.7c0.4,0.6,0.8,0.8,1.6,0.8h1.4v2.3H1057.3z M1052.2,112.1l-0.6-3.3c-0.6,0.2-1.4,0.6-2.5,1
		c-1.2,0.6-2.1,1.2-2.1,1.4c0,0.4,0.4,0.6,1.4,0.8c0.6,0.2,1.2,0.2,1.9,0.2C1050.9,112.1,1051.5,112.1,1052.2,112.1z" class="area" title=""></path>
	<path id="PATH_17" d="M1062.2,112.1c0,2.7-1.4,4.1-4.1,4.1h-1.6v-2.5h1.4c2.1,0,3.1-0.4,3.1-1s-0.4-1.4-1.4-2.5l0.8-2.1
		c0-0.2,0.2-0.2,0.2-0.2s0.2,0.2,0.4,0.4C1061.6,109.4,1062.2,110.9,1062.2,112.1z M1060.6,120.8l-1.6,1.6l-1.6-1.6l1.6-1.6
		L1060.6,120.8z M1064.1,120.8l-1.6,1.6l-1.6-1.6l1.6-1.6L1064.1,120.8z" class="area" title=""></path>
	<path id="PATH_18" d="M1080.1,116.2h-1c-0.8,0-1.4-0.2-2.1-0.8c-0.4-0.4-0.8-0.8-1.2-1.6c-0.4,0.8-1,1.4-1.6,1.9
		c-0.8,0.4-1.9,0.6-3.5,0.6c-2.9,0-4.3-1-4.3-3.1c0-0.6,0.2-1.4,0.6-2.1c0.2-0.2,0.2-0.4,0.4-0.4s0.2,0.2,0.2,0.4c0,0.2,0,0.2,0,0.6
		c0,0.2,0,0.4,0,0.6c0,1.2,1,1.9,3.1,1.9c2.9,0,4.3-0.6,4.3-1.6c0-0.6-0.8-2.9-2.5-6.8l0.8-1.6c0.2-0.2,0.2-0.4,0.2-0.4
		s0.2,0.2,0.2,0.4c0.6,1.6,1.6,4.1,2.9,7.4c0.6,1.6,1.4,2.5,2.7,2.5h0.6v2.3H1080.1z" class="area" title=""></path>
	<path id="PATH_19" d="M1085.1,112.1c0,2.7-1.4,4.1-4.1,4.1h-1.6v-2.5h1.4c2.1,0,3.1-0.4,3.1-1s-0.4-1.4-1.4-2.5l0.8-2.1
		c0-0.2,0.2-0.2,0.2-0.2s0.2,0.2,0.4,0.4C1084.7,109.4,1085.1,110.9,1085.1,112.1z M1084.9,102.9l-1.6,1.6l-1.6-1.6l1.6-1.6
		L1084.9,102.9z" class="area" title=""></path>
	<path id="PATH_20" d="M1095.4,116.4c0,2.1-0.6,3.9-1.9,5.8c-1,1.4-2.1,2.3-2.7,2.3c-1.6,0-2.9,0-4.1-0.2c-0.4,0-0.6-0.2-0.6-0.2
		s0.2-0.2,0.6-0.2c1.6-0.4,3.3-1.2,4.9-2.5c1.6-1.4,2.7-2.9,2.7-4.3c0-0.8-0.6-2.1-2.1-3.5l1-1.9c0-0.2,0.2-0.2,0.2-0.2l0.2,0.2
		c0.4,0.6,1,1.4,1.2,2.5C1095.2,114.8,1095.4,115.6,1095.4,116.4z" class="area" title=""></path>
	<path id="PATH_21" d="M1105.9,116.4c0,2.1-0.6,3.9-1.9,5.8c-1,1.4-2.1,2.3-2.7,2.3c-1.6,0-2.9,0-4.1-0.2c-0.4,0-0.6-0.2-0.6-0.2
		s0.2-0.2,0.6-0.2c1.6-0.4,3.3-1.2,4.9-2.5c1.6-1.4,2.7-2.9,2.7-4.3c0-0.8-0.6-2.1-2.1-3.5l1-1.9c0-0.2,0.2-0.2,0.2-0.2l0.2,0.2
		c0.4,0.6,1,1.4,1.2,2.5C1105.6,114.8,1105.9,115.6,1105.9,116.4z M1104.4,105.3l-1.6,1.6l-1.6-1.6l1.6-1.6L1104.4,105.3z" class="area" title=""></path>
</g>
<g id="G_22" class="area" title="">
	<path id="PATH_23" d="M980.4,237.2c0,1.4-0.4,2.5-1.2,3.3s-2.1,1-3.3,1c-0.8,0-1.6-0.2-2.3-0.8c-0.6-0.6-1-1.2-1-2.1
		c0-1,0.4-2.1,1.2-3.5c0.6-1.2,1.4-2.3,2.3-3.1C978.9,233.5,980.4,235.1,980.4,237.2z M979.1,238c0-0.6-0.4-1.2-1.4-2.1
		c-0.8-0.8-1.4-1.2-2.3-1.4c-1,1.4-1.6,2.5-1.6,3.3c0,0.4,0.2,0.8,0.8,1.2c0.4,0.2,0.8,0.4,1.4,0.4c0.8,0,1.6-0.2,2.3-0.4
		C978.9,238.4,979.1,238.2,979.1,238z" class="area" title=""></path>
	<path id="PATH_24" d="M990.9,240.7c0,3.1-1,5.8-3.1,7.8c-0.6,0.6-1,1-1.2,1c-1.2,0-2.5-0.2-3.9-0.4c-0.6,0-0.8-0.2-0.8-0.2
		s0.2-0.2,0.8-0.4c1.6-0.4,3.3-1.4,4.7-2.7c0.6-0.6,1.2-1,1.6-1.9c0.6-0.8,1-1.6,1-2.3v-0.6h-2.7c-1.9,0-2.9-0.8-2.9-2.3
		c0-1,0.2-2.1,0.8-3.3s1.4-2.1,2.3-2.1c1.2,0,2.3,0.8,2.9,2.7C990.7,237.6,990.9,239,990.9,240.7z M989.4,238.8
		c0-0.6-0.2-1.2-0.6-1.9c-0.4-0.6-1-1-1.6-1c-0.4,0-0.8,0.2-1,0.4c-0.4,0.4-0.4,0.6-0.4,1c0,1,0.6,1.4,2.1,1.4
		C988,239,988.6,239,989.4,238.8z" class="area" title=""></path>
	<path id="PATH_25" d="M999.1,241.5h-1.4c-1.4,0-2.7-0.6-3.1-1.9c-0.4-0.8-0.6-2.3-0.6-3.9v-3.9c0-1.9-0.2-4.5-0.4-8l1.2-1.4
		c0.2-0.2,0.4-0.2,0.4,0c0.2,1.9,0.4,4.5,0.4,8v6c0,1.6,0.8,2.5,2.5,2.5h1V241.5z" class="area" title=""></path>
	<path id="PATH_26" d="M1015.3,237c0,1.2-0.2,2.3-0.8,3.1s-1.6,1.4-2.7,1.4c-1.4,0-2.3-0.6-2.9-1.6c-0.8,1.2-1.6,1.6-2.9,1.6
		c-1.4,0-2.5-0.6-3.1-1.6c-0.8,1.2-1.9,1.6-3.3,1.6h-1.4V239h1.6c1.4,0,2.5-0.8,2.7-2.5c0-0.4,0.2-0.6,0.4-0.6
		c0.2,0,0.2,0.2,0.4,0.6c0.2,1.6,1,2.5,2.7,2.5c0.8,0,1.6-0.2,2.1-0.6c0.2-0.4,0.4-0.8,0.6-1.6c0-0.4,0.2-0.6,0.4-0.6
		s0.2,0.2,0.4,0.6c0.2,1.6,1,2.5,2.5,2.5c1.6,0,2.3-0.4,2.3-1c0-0.6-0.4-1.4-1.2-2.3l1-1.9c0.2-0.2,0.2-0.4,0.4-0.4s0.2,0.2,0.4,0.4
		C1014.9,235.1,1015.3,236.2,1015.3,237z" class="area" title=""></path>
</g>
<g id="G_27" class="area" title="">
	<path id="PATH_28" d="M939.2,381.2c0,2.9-1.2,4.3-3.7,4.3c-1.4,0-2.3-0.6-2.7-1.9c-0.6,1.2-1.6,1.9-2.9,1.9c-0.4,0-1,0-1.4-0.2
		c0,1.2-0.2,2.5-0.2,3.9c-0.6,1.4-1.6,2.7-3.5,3.5c-1.6,0.6-3.3,1-5.1,1c-1.9,0-3.3-0.4-4.5-1.2c-1.2-1-1.9-2.3-1.9-4.1
		c0-1,0.2-1.9,0.6-3.1c0.4-0.8,0.6-1.4,1-1.9c0.2-0.2,0.4-0.2,0.4-0.2c0.2,0,0.2,0,0.2,0.2c0,0,0,0.2,0,0.4
		c-0.6,1.2-0.8,2.5-0.8,3.5c0,1,0.4,1.9,1,2.7c0.8,1,2.3,1.4,4.1,1.4c2.1,0,3.9-0.4,5.3-1c1.2-0.6,2.1-1.2,2.3-2.1
		c0.2-0.2,0.2-0.6,0-1.4c0-0.6-0.2-1.2-0.2-1.4c-0.2-0.6-0.8-1.6-2.1-3.1l0.8-1.6c0.2-0.2,0.2-0.4,0.2-0.4s0.2,0,0.2,0.2
		c0.6,0.8,1,1.4,1.2,1.6c0.6,0.6,1.2,0.8,2.1,0.8c0.8,0,1.6-0.2,2.1-0.8c0.2-0.4,0.4-0.8,0.6-1.9c0-0.4,0.2-0.6,0.4-0.6
		c0.2,0,0.2,0.2,0.2,0.6c0.2,1,0.4,1.6,0.8,2.1c0.4,0.4,1.2,0.6,2.3,0.6c0.4,0,0.8-0.2,1-0.4c0.4-0.2,0.6-0.6,0.6-1
		c0-0.6-0.4-1.2-1.2-2.3l1-1.9c0.2-0.2,0.2-0.2,0.2-0.2l0.2,0.2C939,378.9,939.2,380,939.2,381.2z M932.4,373.6L931,375l-1.4-1.4
		l1.4-1.4L932.4,373.6z M934.3,370.3l-1.4,1.4l-1.4-1.4l1.4-1.4L934.3,370.3z M936.1,373.6l-1.4,1.4l-1.4-1.4l1.4-1.4L936.1,373.6z" class="area" title=""></path>
	<path id="PATH_29" d="M952.2,385.5h-0.8c-0.8,0-1.2-0.2-1.6-0.4c0,0.2,0,0.4,0,0.6c0,1.9-0.6,3.7-1.9,5.6c-1,1.6-2.1,2.3-2.7,2.3
		c-1.6,0-2.9,0-4.1-0.2c-0.4,0-0.6-0.2-0.6-0.2s0.2-0.2,0.6-0.2c1.6-0.4,3.3-1.2,4.9-2.5c1.6-1.4,2.7-2.9,2.7-4.3
		c0-0.8-0.6-2.1-2.1-3.5l1-1.9c0-0.2,0.2-0.2,0.2-0.2l0.2,0.2c0.6,0.8,1,1.4,1.4,1.6c0.6,0.4,1.4,0.8,2.3,0.8h0.6v2.3H952.2z" class="area" title=""></path>
	<path id="PATH_30" d="M963.3,385.5h-1c-0.6,0-1.4-0.2-2.5-0.4c-1-0.2-1.9-0.6-2.3-1c-0.4,0.4-1,0.6-1.9,0.8c-1,0.4-2.1,0.4-3.1,0.4
		h-1.4v-2.5h1c1.6,0,2.7-0.2,3.1-0.4c-0.4-0.2-0.6-0.6-0.8-1c-0.2-0.4-0.4-0.8-0.4-1.2c0-0.8,0.4-1.9,1-3.1c0.8-1.2,1.6-2.1,2.7-2.1
		c1,0,1.6,0.6,2.3,1.6c0.4,0.8,0.6,1.9,0.6,2.9c0,0.8-0.2,1.4-0.6,1.9c-0.2,0.4-0.4,0.6-0.8,0.8c0.4,0.2,1.4,0.4,2.9,0.4h0.8v2.9
		H963.3z M959.8,380.2c0-0.4-0.2-1-0.6-1.4c-0.4-0.6-0.8-0.8-1.4-0.8c-0.4,0-1,0.2-1.4,0.6c-0.4,0.4-0.8,1-0.8,1.4
		c0,0.4,0.2,1,0.8,1.4c0.4,0.4,1,0.6,1.4,0.8c0.4,0,1-0.2,1.2-0.6C959.6,381,959.8,380.6,959.8,380.2z M959.2,370.1l-1.6,1.6
		l-1.6-1.6l1.6-1.6L959.2,370.1z" class="area" title=""></path>
	<path id="PATH_31" d="M968.2,381.4c0,2.7-1.4,4.1-4.1,4.1h-1.6V383h1.4c2.1,0,3.1-0.4,3.1-1s-0.4-1.4-1.4-2.5l0.8-2.1
		c0-0.2,0.2-0.2,0.2-0.2s0.2,0.2,0.4,0.4C967.8,378.7,968.2,380.2,968.2,381.4z M966.2,372.3l-1.6,1.6l-1.6-1.6l1.6-1.6L966.2,372.3
		z M969.9,372.3l-1.6,1.6l-1.6-1.6l1.6-1.6L969.9,372.3z" class="area" title=""></path>
</g>
<g id="G_32" class="area" title="">
	<path id="PATH_33" d="M681.9,408.1c0.2,0.6,0.2,1.2,0.2,1.9c0,0.8-0.2,1.4-0.4,2.3c-0.6,1.4-1.6,2.7-3.7,3.5c-1.6,0.6-3.3,1-5.1,1
		s-3.3-0.4-4.5-1.2c-1.2-1-1.9-2.3-1.9-4.1c0-1,0.2-1.9,0.6-3.1c0.4-0.8,0.6-1.4,1-1.9c0.2-0.2,0.4-0.2,0.4-0.2c0.2,0,0.2,0,0.2,0.2
		c0,0,0,0.2,0,0.4c-0.6,1.2-0.8,2.5-0.8,3.5s0.4,1.9,1,2.7c0.8,1,2.3,1.4,4.1,1.4c2.1,0,3.9-0.4,5.3-1c1.2-0.6,2.1-1.2,2.5-2.1
		c0.2-0.2,0.2-0.6,0.2-0.8c0-0.6-0.2-1.2-0.4-2.1c-0.2-0.6-0.8-1.6-1.9-3.3l0.8-1.6c0.2-0.2,0.2-0.4,0.2-0.4s0.2,0,0.2,0.2
		C680.8,404.8,681.5,406.5,681.9,408.1z M675.7,399.1l-1.6,1.6l-1.6-1.6l1.6-1.6L675.7,399.1z" class="area" title=""></path>
	<path id="PATH_34" d="M690.1,408.3h-1.4c-1.4,0-2.7-0.6-3.1-1.9c-0.4-0.8-0.6-2.3-0.6-3.9v-3.9c0-1.9-0.2-4.5-0.4-8l1.2-1.4
		c0.2-0.2,0.4-0.2,0.4,0c0.2,1.9,0.4,4.5,0.4,8v6c0,1.6,0.8,2.5,2.5,2.5h1L690.1,408.3L690.1,408.3z" class="area" title=""></path>
	<path id="PATH_35" d="M708.2,408.3h-2.1c-2.7,0-4.1-1.4-4.1-4.1c0-0.4,0-0.6,0-1c-1,0.4-2.3,1.2-3.9,2.3c-1.6,1-2.7,1.6-3.5,2.1
		c-1.2,0.6-2.7,0.8-3.9,0.8h-1.4v-2.5h1.6c1.6,0,3.5-0.4,5.1-1.2c0.8-0.4,2.3-1.2,4.5-2.3c-0.4,0-1.6-0.4-3.7-0.8
		c-1.4-0.4-2.3-0.6-2.5-0.6c-0.8,0-1.6,0.4-2.5,1c-0.2,0.2-0.2,0.2-0.4,0.2c-0.2,0-0.2,0-0.2-0.2v-0.2c0.6-2.1,1.9-3.1,3.5-3.1
		c0.6,0,1.4,0.2,2.5,0.4c1.4,0.4,2.7,0.8,3.7,1c1.4,0.2,3.1,0.4,4.9,0.4c0.4,0,0.4,0,0.6,0c0,0,0,0.2,0,0.4l-0.6,1.9
		c-1.2,0-2.1,0-2.5,0.2c0,1,0.2,1.6,0.4,1.9c0.4,0.6,1.2,1,2.7,1h2.1v2.5H708.2z M700.4,412.5l-1.6,1.6l-1.6-1.6l1.6-1.6
		L700.4,412.5z" class="area" title=""></path>
	<path id="PATH_36" d="M718.3,408.3h-1.6c-1.9,0-3.1-0.6-3.9-1.9c-0.6,1.2-2.1,1.9-4.3,1.9h-1.2v-2.5h1.9c2.1,0,3.1-0.8,3.3-2.3
		c0-0.6,0.2-1,0.4-1s0.4,0.4,0.4,1c0.2,1.4,1.2,2.3,3.1,2.3h1.9v2.5H718.3z M711.5,412.9l-1.6,1.6l-1.6-1.6l1.6-1.6L711.5,412.9z
		 M715,412.9l-1.6,1.6l-1.6-1.6l1.6-1.6L715,412.9z" class="area" title=""></path>
	<path id="PATH_37" d="M732.9,408.3h-1.2c-1,0-2.1-0.6-2.9-1.6c-0.6,1.6-1.2,2.5-1.9,2.5c-0.6,0-1.6-0.4-2.9-1
		c-1-0.6-1.9-1.2-2.3-1.6c-1,1.2-2.1,1.9-3.1,1.9h-1.2v-2.5h1.2c1,0,1.9-0.4,2.7-1.2c0.6-0.6,1.2-1.4,2.1-2.3
		c0.8-0.8,1.4-1.2,2.1-1.2c0.8,0,1.4,0.4,2.1,1.2c0.4,0.4,0.8,1.2,1.9,2.3c0.6,0.8,1.4,1.2,2.3,1.2h1.2V408.3z M727.3,406.7
		c0-0.6-0.2-1.2-0.6-2.1s-1-1.2-1.9-1.2c-0.6,0-1.4,0.6-2.3,1.6c0.2,0.2,0.8,0.6,1.9,1.2s1.9,0.8,2.5,0.8
		C727.3,406.9,727.3,406.9,727.3,406.7z" class="area" title=""></path>
	<path id="PATH_38" d="M745.6,389.2c0,0.4-0.4,1.2-0.8,2.3l-5.1,1.6c-2.3,0.8-3.9,1.4-4.7,1.9c1.6,1.6,2.7,2.9,3.3,3.5
		c1,1.4,1.6,2.7,1.9,4.1c0,1,0,2.1-0.4,2.9c-0.6,1.9-2.9,2.7-6.4,2.7h-1v-2.5h1.2c1.6,0,2.9,0,3.5-0.2c1.4-0.4,2.3-1,2.3-2.1
		c0-1.4-1-3.1-3.3-5.1l-0.2,0.4c-0.2-0.2-0.6-0.6-1-1.2c-0.6-0.6-0.8-1.2-0.8-1.2c0-0.4,0-0.8,0.2-1.6c0.2-0.8,0.4-1.2,0.6-1.4
		c0.2-0.2,1.6-0.8,4.3-1.6C741.3,390.7,743.8,389.8,745.6,389.2z" class="area" title=""></path>
</g>
<g id="G_39" class="area" title="">
	<path id="PATH_40" d="M802.2,452.4c0.2,0.6,0.2,1.2,0.2,1.9c0,0.8-0.2,1.4-0.4,2.3c-0.6,1.4-1.6,2.7-3.7,3.5c-1.6,0.6-3.3,1-5.1,1
		c-1.9,0-3.3-0.4-4.5-1.2c-1.2-1-1.9-2.3-1.9-4.1c0-1,0.2-1.9,0.6-3.1c0.4-0.8,0.6-1.4,1-1.9c0.2-0.2,0.4-0.2,0.4-0.2
		c0.2,0,0.2,0,0.2,0.2c0,0,0,0.2,0,0.4c-0.6,1.2-0.8,2.5-0.8,3.5s0.4,1.9,1,2.7c0.8,1,2.3,1.4,4.1,1.4c2.1,0,3.9-0.4,5.3-1
		c1.2-0.6,2.1-1.2,2.5-2.1c0.2-0.2,0.2-0.6,0.2-0.8c0-0.6-0.2-1.2-0.4-2.1c-0.2-0.6-0.8-1.6-1.9-3.3l0.8-1.6
		c0.2-0.2,0.2-0.4,0.2-0.4s0.2,0,0.2,0.2C801.4,449.1,802,450.7,802.2,452.4z M796.3,443.3l-1.6,1.6l-1.6-1.6l1.6-1.6L796.3,443.3z" class="area" title=""></path>
	<path id="PATH_41" d="M810.7,452.6h-1.4c-1.4,0-2.7-0.6-3.1-1.9c-0.4-0.8-0.6-2.3-0.6-3.9v-3.9c0-1.9-0.2-4.5-0.4-8l1.2-1.4
		c0.2-0.2,0.4-0.2,0.4,0c0.2,1.9,0.4,4.5,0.4,8v6c0,1.6,0.8,2.5,2.5,2.5h1V452.6z" class="area" title=""></path>
	<path id="PATH_42" d="M823.2,448.5c0,0.8-0.2,1.6-0.8,2.5c-0.6,1-1.2,1.4-2.1,1.4c-0.6,0-2.1-0.4-4.3-1.4c-1.9,1.2-3.5,1.6-4.9,1.6
		h-1v-2.5h1.2c0.8,0,1.6,0,2.5-0.2c-0.8-0.6-1.2-1.4-1.2-2.5c0-1.2,0.8-2.7,2.7-4.1l-1.4-0.6c0.4-0.4,1-1,1.9-1.9
		c1.9,1,3.5,1.9,4.9,3.1C822.2,445.6,823.2,447,823.2,448.5z M817.9,446.8c0-0.6-0.2-1-0.4-1.4c-0.2-0.6-0.6-0.8-1.2-0.8
		c-0.6,0-1,0.2-1.6,0.6c-0.6,0.4-1,1-1,1.4c0,0.8,0.8,1.6,2.3,2.1c0.4-0.2,0.8-0.4,1.2-0.6C817.6,447.6,817.9,447.2,817.9,446.8z
		 M822.2,449.3c0-0.6-0.4-1.2-1.2-2.1c-0.6-0.6-1.2-1.2-1.9-1.4c0,1.6-0.4,2.9-1.4,3.7c1.6,0.6,2.9,0.8,3.3,0.8
		C821.8,450.1,822.2,449.9,822.2,449.3z" class="area" title=""></path>
	<path id="PATH_43" d="M827.9,450.1c0,0.8-0.2,1.6-0.6,2.3c-0.2,0.4-0.4,0.6-0.4,0.6s-0.2-0.2-0.2-0.8c0-2.5-0.4-8.2-1.2-17.5
		l1.6-1.6c0.2-0.2,0.2-0.2,0.2-0.2s0,0.2,0,0.4C827.9,435.9,827.9,441.5,827.9,450.1z" class="area" title=""></path>
	<path id="PATH_44" d="M840.9,452.6h-0.8c-0.8,0-1.2-0.2-1.6-0.4c0,0.2,0,0.4,0,0.6c0,1.9-0.6,3.7-1.9,5.6c-1,1.6-2.1,2.3-2.7,2.3
		c-1.6,0-2.9,0-4.1-0.2c-0.4,0-0.6-0.2-0.6-0.2s0.2-0.2,0.6-0.2c1.6-0.4,3.3-1.2,4.9-2.5c1.6-1.4,2.7-2.9,2.7-4.3
		c0-0.8-0.6-2.1-2.1-3.5l1-1.9c0-0.2,0.2-0.2,0.2-0.2l0.2,0.2c0.6,0.8,1,1.4,1.4,1.6c0.6,0.4,1.4,0.8,2.3,0.8h0.6v2.3H840.9z" class="area" title=""></path>
	<path id="PATH_45" d="M848.7,446.8v0.8c0,1.4-0.2,2.3-0.6,2.9c-1,1.4-2.7,2.1-5.3,2.1h-2.9v-2.5h2.1c3.5,0,5.3-0.6,5.8-1.6
		c0-0.2,0-0.2,0-0.4c0-0.4,0-0.6-0.2-0.8c-0.8,0.2-1.9,0.2-2.7,0.2c-1.9,0-2.9-0.8-2.9-2.5c0-1,0.2-2.3,0.8-3.3
		c0.6-1.2,1.4-1.9,2.5-1.9c0.8,0,1.6,0.6,2.3,1.6C848.5,442.9,848.7,444.8,848.7,446.8z M846.4,435.5l-1.6,1.6l-1.6-1.6l1.6-1.6
		L846.4,435.5z M847.3,445c0-0.6-0.2-1.2-0.6-1.9c-0.4-0.6-1-0.8-1.6-0.8c-0.4,0-0.8,0.2-1.2,0.4c-0.2,0.2-0.4,0.6-0.4,1
		c0,0.8,0.6,1.2,2.1,1.2C845.8,445.2,846.4,445.2,847.3,445z" class="area" title=""></path>
</g>
<g id="G_46" class="area" title="">
	<path id="PATH_47" d="M983.9,576.8c0.2,0.6,0.2,1.2,0.2,1.9c0,0.8-0.2,1.4-0.4,2.3c-0.6,1.4-1.6,2.7-3.7,3.5c-1.6,0.6-3.3,1-5.1,1
		c-1.9,0-3.3-0.4-4.5-1.2c-1.2-1-1.9-2.3-1.9-4.1c0-1,0.2-1.9,0.6-3.1c0.4-0.8,0.6-1.4,1-1.9c0.2-0.2,0.4-0.2,0.4-0.2
		c0.2,0,0.2,0,0.2,0.2c0,0,0,0.2,0,0.4c-0.6,1.2-0.8,2.5-0.8,3.5s0.4,1.9,1,2.7c0.8,1,2.3,1.4,4.1,1.4c2.1,0,3.9-0.4,5.3-1
		c1.2-0.6,2.1-1.2,2.5-2.1c0.2-0.2,0.2-0.6,0.2-0.8c0-0.6-0.2-1.2-0.4-2.1c-0.2-0.6-0.8-1.6-1.9-3.3l0.8-1.6
		c0.2-0.2,0.2-0.4,0.2-0.4s0.2,0,0.2,0.2C983,573.5,983.7,575.2,983.9,576.8z M977.9,567.8l-1.6,1.6l-1.6-1.6l1.6-1.6L977.9,567.8z" class="area" title=""></path>
	<path id="PATH_48" d="M992.3,577h-1.4c-1.4,0-2.7-0.6-3.1-1.9c-0.4-0.8-0.6-2.3-0.6-3.9v-3.9c0-1.9-0.2-4.5-0.4-8l1.2-1.4
		c0.2-0.2,0.4-0.2,0.4,0c0.2,1.9,0.4,4.5,0.4,8v6c0,1.6,0.8,2.5,2.5,2.5h1V577z" class="area" title=""></path>
	<path id="PATH_49" d="M1002.4,577h-1.4c-1.9,0-3.1-0.6-3.9-1.9c-0.6,1.2-2.1,1.9-4.3,1.9h-1.2v-2.5h1.9c2.1,0,3.1-0.8,3.3-2.3
		c0-0.6,0.2-1,0.4-1c0.2,0,0.4,0.4,0.4,1c0.2,1.4,1.2,2.3,3.1,2.3h1.9L1002.4,577L1002.4,577z M995.6,581.6l-1.6,1.6l-1.6-1.6
		l1.6-1.6L995.6,581.6z M999.1,581.6l-1.6,1.6l-1.6-1.6l1.6-1.6L999.1,581.6z" class="area" title=""></path>
	<path id="PATH_50" d="M1012.5,577h-1.6c-1.9,0-3.1-0.6-3.9-1.9c-0.6,1.2-2.1,1.9-4.3,1.9h-1.2v-2.5h1.9c2.1,0,3.1-0.8,3.3-2.3
		c0-0.6,0.2-1,0.4-1c0.2,0,0.4,0.4,0.4,1c0.2,1.4,1.2,2.3,3.1,2.3h1.9v2.5H1012.5z M1005.7,565.1l-1.6,1.6l-1.6-1.6l1.6-1.6
		L1005.7,565.1z M1009.2,565.1l-1.6,1.6l-1.6-1.6l1.6-1.6L1009.2,565.1z" class="area" title=""></path>
	<path id="PATH_51" d="M1028.7,572.7c0,1.2-0.2,2.3-0.8,3.1c-0.6,0.8-1.6,1.4-2.7,1.4c-1.4,0-2.3-0.6-2.9-1.6
		c-0.8,1.2-1.6,1.6-2.9,1.6c-1.4,0-2.5-0.6-3.1-1.6c-0.8,1.2-1.9,1.6-3.3,1.6h-1.4v-2.5h1.6c1.4,0,2.5-0.8,2.7-2.5
		c0-0.4,0.2-0.6,0.4-0.6c0.2,0,0.2,0.2,0.4,0.6c0.2,1.6,1,2.5,2.7,2.5c0.8,0,1.6-0.2,2.1-0.6c0.2-0.4,0.4-0.8,0.6-1.6
		c0-0.4,0.2-0.6,0.4-0.6c0.2,0,0.2,0.2,0.4,0.6c0.2,1.6,1,2.5,2.5,2.5c1.6,0,2.3-0.4,2.3-1s-0.4-1.4-1.2-2.3l1-1.9
		c0.2-0.2,0.2-0.4,0.4-0.4c0.2,0,0.2,0.2,0.4,0.4C1028.5,570.7,1028.7,571.7,1028.7,572.7z M1021.9,565.1l-1.4,1.4l-1.4-1.4l1.4-1.4
		L1021.9,565.1z M1023.6,562l-1.4,1.4l-1.4-1.4l1.4-1.4L1023.6,562z M1025.4,565.1l-1.4,1.4l-1.4-1.4l1.4-1.4L1025.4,565.1z" class="area" title=""></path>
	<path id="PATH_52" d="M1037.1,555c-0.8,0.8-2.1,1-3.3,1c-0.2,0-0.4,0-0.8,0s-0.6,0-0.8,0c-0.2,0-0.4,0.2-0.6,0.4
		c-0.2,0.2-0.4,0.4-0.4,0.4c-0.2,0-0.2-0.2-0.2-0.4c0-0.2,0.2-0.6,0.4-1c0.2-0.6,0.4-0.8,0.6-0.8s0.6,0,1.2,0.2c0.6,0,1,0.2,1.2,0.2
		c1.2,0,2.1,0,2.7-0.2c0.4,0,0.6-0.2,0.6-0.2h0.2C1037.6,554.6,1037.3,554.8,1037.1,555z M1035.9,574.6c0,0.8-0.2,1.6-0.6,2.3
		c-0.2,0.4-0.4,0.6-0.4,0.6s-0.2-0.2-0.2-0.8c0-2.5-0.4-8.2-1.2-17.5l1.6-1.6c0.2-0.2,0.2-0.2,0.2-0.2s0,0.2,0,0.4
		C1035.7,560.4,1035.9,565.9,1035.9,574.6z" class="area" title=""></path>
</g>
<g id="G_53" class="area" title="">
	<path id="PATH_54" d="M658.4,594.1c0,1.4-0.4,2.7-1.4,3.3c-0.6,0.4-1.9,0.8-3.7,1c-2.1,0.4-4.1,0.6-6.4,0.6c-5.3,0-8.2-1.4-8.2-4.5
		c0-1,0.4-2.1,1.2-3.1c0.2-0.2,0.2-0.4,0.4-0.4c0.2,0,0.2,0,0.2,0.2c0,0,0,0.2,0,0.4c-0.2,0.6-0.4,1.2-0.4,1.9
		c0,2.1,2.7,3.1,7.8,3.1c2.5,0,4.7-0.2,6.4-0.4c2.1-0.4,2.9-0.8,2.9-1.4c0-0.4-0.4-1.2-1.4-2.5l1-1.9c0.2-0.2,0.2-0.2,0.4,0
		C658,591.6,658.4,592.9,658.4,594.1z M650.4,603.4l-1.6,1.6l-1.6-1.6l1.6-1.6L650.4,603.4z" class="area" title=""></path>
	<path id="PATH_55" d="M663.4,596.2c0,0.8-0.2,1.6-0.6,2.3c-0.2,0.4-0.4,0.6-0.4,0.6s-0.2-0.2-0.2-0.8c0-2.5-0.4-8.2-1.2-17.5
		l1.6-1.6c0.2-0.2,0.2-0.2,0.2-0.2s0,0.2,0,0.4C663.2,582,663.4,587.5,663.4,596.2z" class="area" title=""></path>
	<path id="PATH_56" d="M679.4,598.6h-0.8c-0.8,0-1.4-0.2-2.1-0.8c-0.4-0.4-0.8-0.8-1.2-1.6c-0.4,0.8-1,1.4-1.6,1.9
		c-0.8,0.4-1.9,0.6-3.5,0.6c-2.9,0-4.3-1-4.3-3.1c0-0.6,0.2-1.4,0.6-2.1c0.2-0.2,0.2-0.4,0.4-0.4c0.2,0,0.2,0.2,0.2,0.4
		c0,0.2,0,0.2,0,0.6c0,0.4,0,0.4,0,0.6c0,1.2,1,1.9,3.1,1.9c2.9,0,4.3-0.6,4.3-1.6c0-0.6-0.8-2.9-2.5-6.8l0.8-1.6
		c0.2-0.2,0.2-0.4,0.2-0.4s0.2,0.2,0.2,0.4c0.6,1.6,1.6,4.1,2.9,7.4c0.6,1.6,1.4,2.5,2.7,2.5h0.6V598.6L679.4,598.6z" class="area" title=""></path>
	<path id="PATH_57" d="M689.5,598.6h-1.6c-1.9,0-3.1-0.6-3.9-1.9c-0.6,1.2-2.1,1.9-4.3,1.9h-1.2v-2.5h1.9c2.1,0,3.1-0.8,3.3-2.3
		c0-0.6,0.2-1,0.4-1c0.2,0,0.4,0.4,0.4,1c0.2,1.4,1.2,2.3,3.1,2.3h1.9v2.5H689.5z M685.4,587.9l-1.6,1.6l-1.6-1.6l1.6-1.6
		L685.4,587.9z" class="area" title=""></path>
	<path id="PATH_58" d="M705.5,592.7l-0.8,1.6c-1.4,0-2.7,0-3.3,0.2c-0.8,0.4-2.1,0.8-3.7,1.6c-1.6,0.8-2.9,1.4-3.7,1.6
		c-1.2,0.4-2.7,0.6-3.9,0.6h-1.4V596h1.6c1.9,0,3.5-0.4,4.9-1l4.7-2.1c-0.8-0.2-2.1-0.6-3.7-1.2c-1.4-0.6-2.3-0.8-2.7-0.8
		c-0.8,0-1.6,0.4-2.5,1c-0.2,0.2-0.2,0.2-0.4,0.2s-0.2,0-0.2-0.2v-0.2c0.6-2.1,1.9-2.9,3.5-2.9c0.6,0,1.4,0.2,2.3,0.6
		c1.6,0.8,2.9,1.2,3.7,1.6c1.4,0.4,3.1,0.8,4.9,0.8c0.4,0,0.6,0,0.6,0.2C705.7,592.3,705.7,592.5,705.5,592.7z M699.8,583.2
		l-1.6,1.6l-1.6-1.6l1.6-1.6L699.8,583.2z" class="area" title=""></path>
</g>
<g id="G_59" class="area" title="">
	<path id="PATH_60" d="M914.1,695.7c0,0.4-0.4,1.2-0.8,2.3c-1.2,0.4-2.9,0.8-5.1,1.6c-2.3,0.8-3.9,1.4-4.7,1.9
		c1.6,1.6,2.7,2.9,3.3,3.5c1,1.4,1.6,2.7,1.9,4.1c0,1,0,2.1-0.4,2.9c-0.8,1.9-2.9,2.7-6.4,2.7h-4.3c-4.9,0-7.6-1.4-7.6-4.3
		c0-1,0.4-2.1,1-3.1c0.2-0.2,0.4-0.4,0.4-0.4c0.2,0,0.2,0,0.2,0.2c0,0.2,0,0.2,0,0.4c-0.2,0.8-0.4,1.2-0.4,1.9c0,0.8,0.4,1.4,1,1.9
		c1,0.8,2.7,1.2,4.9,1.2h4.5c1.6,0,2.9,0,3.5-0.2c1.4-0.2,2.3-1,2.3-1.9c0-1.4-1-3.3-3.3-5.3l-0.2,0.4c-0.2-0.2-0.6-0.6-1-1.2
		c-0.6-0.8-0.8-1.2-0.8-1.2c0-0.4,0-0.8,0.2-1.6c0.2-0.8,0.4-1.2,0.6-1.4c0.2-0.2,1.6-0.8,4.3-1.6
		C909.8,697.2,912.3,696.3,914.1,695.7z" class="area" title=""></path>
	<path id="PATH_61" d="M918.2,712.4c0,0.8-0.2,1.6-0.6,2.3c-0.2,0.4-0.4,0.6-0.4,0.6s-0.2-0.2-0.2-0.8c0-2.5-0.4-8.2-1.2-17.5
		l1.6-1.6c0.2-0.2,0.2-0.2,0.2-0.2s0,0.2,0,0.4C918.2,698.2,918.2,703.7,918.2,712.4z" class="area" title=""></path>
	<path id="PATH_62" d="M928.7,715.1c0,2.1-0.6,3.9-1.9,5.8c-1,1.4-2.1,2.3-2.7,2.3c-1.6,0-2.9,0-4.1-0.2c-0.4,0-0.6-0.2-0.6-0.2
		s0.2-0.2,0.6-0.2c1.6-0.4,3.3-1.2,4.9-2.5c1.6-1.4,2.7-2.9,2.7-4.3c0-0.8-0.6-2.1-2.1-3.5l1-1.9c0-0.2,0.2-0.2,0.2-0.2l0.2,0.2
		c0.4,0.6,1,1.4,1.2,2.5C928.5,713.4,928.7,714.2,928.7,715.1z" class="area" title=""></path>
	<path id="PATH_63" d="M933.5,712.4c0,0.8-0.2,1.6-0.6,2.3c-0.2,0.4-0.4,0.6-0.4,0.6s-0.2-0.2-0.2-0.8c0-2.5-0.4-8.2-1.2-17.5
		l1.6-1.6c0.2-0.2,0.2-0.2,0.2-0.2s0,0.2,0,0.4C933.5,698.2,933.5,703.7,933.5,712.4z" class="area" title=""></path>
</g>
<g id="G_64" class="area" title="">
	<path id="PATH_65" d="M678.4,794.1h-0.8c-0.8,0-1.4-0.2-2.1-0.8c-0.4-0.4-0.8-0.8-1.2-1.6c-0.4,0.8-1,1.4-1.6,1.9
		c-0.8,0.4-1.9,0.6-3.5,0.6c-2.9,0-4.3-1-4.3-3.1c0-0.6,0.2-1.4,0.6-2.1c0.2-0.2,0.2-0.4,0.4-0.4c0.2,0,0.2,0.2,0.2,0.4
		c0,0.2,0,0.2,0,0.6s0,0.4,0,0.6c0,1.2,1,1.9,3.1,1.9c2.9,0,4.3-0.6,4.3-1.6c0-0.6-0.8-2.9-2.5-6.8l0.8-1.9c0.2-0.2,0.2-0.4,0.2-0.4
		s0.2,0.2,0.2,0.4c0.6,1.6,1.6,4.1,2.9,7.4c0.6,1.6,1.4,2.5,2.7,2.5h0.6L678.4,794.1L678.4,794.1z" class="area" title=""></path>
	<path id="PATH_66" d="M683.3,789.9c0,2.7-1.4,4.1-4.1,4.1h-1.6v-2.5h1.4c2.1,0,3.1-0.4,3.1-1s-0.4-1.4-1.4-2.5l0.8-2.1
		c0-0.2,0.2-0.2,0.2-0.2s0.2,0.2,0.4,0.4C682.9,787.3,683.3,788.7,683.3,789.9z M683.1,780.7l-1.6,1.6l-1.6-1.6l1.6-1.6L683.1,780.7
		z" class="area" title=""></path>
	<path id="PATH_67" d="M693.6,794.3c0,2.1-0.6,3.9-1.9,5.8c-1,1.4-2.1,2.3-2.7,2.3c-1.6,0-2.9,0-4.1-0.2c-0.4,0-0.6-0.2-0.6-0.2
		s0.2-0.2,0.6-0.2c1.6-0.4,3.3-1.2,4.9-2.5c1.6-1.4,2.7-2.9,2.7-4.3c0-0.8-0.6-2.1-2.1-3.5l1-1.9c0-0.2,0.2-0.2,0.2-0.2l0.2,0.2
		c0.4,0.6,1,1.4,1.2,2.5C693.4,792.6,693.6,793.4,693.6,794.3z M692.2,783.2l-1.6,1.6l-1.6-1.6l1.6-1.6L692.2,783.2z" class="area" title=""></path>
	<path id="PATH_68" d="M701.8,794.1h-1.4c-1.4,0-2.7-0.6-3.1-1.9c-0.4-0.8-0.6-2.3-0.6-3.9v-3.9c0-1.9-0.2-4.5-0.4-8l1.2-1.4
		c0.2-0.2,0.4-0.2,0.4,0c0.2,1.9,0.4,4.5,0.4,8v6c0,1.6,0.8,2.5,2.5,2.5h1L701.8,794.1L701.8,794.1z" class="area" title=""></path>
	<path id="PATH_69" d="M718.1,789.7c0,1.2-0.2,2.3-0.8,3.1c-0.6,0.8-1.6,1.4-2.7,1.4c-1.4,0-2.3-0.6-2.9-1.6
		c-0.8,1.2-1.6,1.6-2.9,1.6c-1.4,0-2.5-0.6-3.1-1.6c-0.8,1.2-1.9,1.6-3.3,1.6H701v-2.5h1.6c1.4,0,2.5-0.8,2.7-2.5
		c0-0.4,0.2-0.6,0.4-0.6c0.2,0,0.2,0.2,0.4,0.6c0.2,1.6,1,2.5,2.7,2.5c0.8,0,1.6-0.2,2.1-0.6c0.2-0.4,0.4-0.8,0.6-1.6
		c0-0.4,0.2-0.6,0.4-0.6c0.2,0,0.2,0.2,0.4,0.6c0.2,1.6,1,2.5,2.5,2.5c1.6,0,2.3-0.4,2.3-1s-0.4-1.4-1.2-2.3l1-1.9
		c0.2-0.2,0.2-0.4,0.4-0.4c0.2,0,0.2,0.2,0.4,0.4C717.7,787.7,718.1,788.7,718.1,789.7z M711.1,782.1l-1.4,1.4l-1.4-1.4l1.4-1.4
		L711.1,782.1z M712.9,779l-1.4,1.4l-1.4-1.4l1.4-1.4L712.9,779z M714.8,782.1l-1.4,1.4l-1.4-1.4l1.4-1.4L714.8,782.1z" class="area" title=""></path>
</g>
<g id="G_70" class="area" title="">
	<path id="PATH_71" d="M941.3,925.9h-1c-1,0-1.6,0-2.1-0.2c0,0.6,0.2,1,0.2,1.6c0,1-0.2,1.6-0.4,2.3c-0.6,1.4-1.6,2.7-3.7,3.5
		c-1.6,0.6-3.3,1-5.1,1c-1.9,0-3.3-0.4-4.5-1.2c-1.2-1-1.9-2.3-1.9-4.1c0-1,0.2-1.9,0.6-3.1c0.4-0.8,0.6-1.4,1-1.9
		c0.2-0.2,0.4-0.2,0.4-0.2c0.2,0,0.2,0,0.2,0.2c0,0,0,0.2,0,0.4c-0.6,1.2-0.8,2.5-0.8,3.5s0.4,1.9,1,2.7c0.8,1,2.3,1.4,4.1,1.4
		c2.1,0,3.9-0.4,5.3-1c1.2-0.6,2.1-1.2,2.5-2.1c0.2-0.2,0.2-0.6,0-1.4c0-0.6-0.2-1.2-0.2-1.4c-0.2-0.6-1-1.6-2.1-3.1l0.8-1.6
		c0.2-0.2,0.2-0.4,0.2-0.4s0.2,0,0.2,0.2c1,1.6,2.1,2.5,3.3,2.5h1.6v2.5H941.3z M932.2,916.7l-1.6,1.6l-1.6-1.6l1.6-1.6L932.2,916.7
		z" class="area" title=""></path>
	<path id="PATH_72" d="M951.4,925.9h-1.6c-1.9,0-3.1-0.6-3.9-1.9c-0.6,1.2-2.1,1.9-4.3,1.9h-1.2v-2.3h1.9c2.1,0,3.1-0.8,3.3-2.3
		c0-0.6,0.2-1,0.4-1s0.4,0.4,0.4,1c0.2,1.4,1.2,2.3,3.1,2.3h1.9v2.3H951.4z M944.6,930.4l-1.6,1.6l-1.6-1.6l1.6-1.6L944.6,930.4z
		 M948.3,930.4l-1.6,1.6l-1.6-1.6l1.6-1.6L948.3,930.4z" class="area" title=""></path>
	<path id="PATH_73" d="M966.2,925.9h-1.2c-1,0-2.1-0.6-2.9-1.6c-0.6,1.6-1.2,2.5-1.9,2.5s-1.6-0.4-2.9-1c-1-0.6-1.9-1.2-2.3-1.6
		c-1,1.2-2.1,1.9-3.1,1.9h-1.2v-2.3h1.2c1,0,1.9-0.4,2.7-1.2c0.6-0.6,1.2-1.4,2.1-2.3c0.8-0.8,1.4-1.2,2.1-1.2
		c0.8,0,1.4,0.4,2.1,1.2c0.4,0.4,0.8,1.2,1.9,2.3c0.6,0.8,1.4,1.2,2.3,1.2h1.2V925.9L966.2,925.9z M960.6,924.3
		c0-0.6-0.2-1.2-0.6-2.1c-0.4-0.8-1-1.2-1.9-1.2c-0.6,0-1.4,0.6-2.3,1.6c0.2,0.2,0.8,0.6,1.9,1.2c1,0.6,1.9,0.8,2.5,0.8
		C960.4,924.5,960.6,924.5,960.6,924.3z" class="area" title=""></path>
	<path id="PATH_74" d="M982.2,920l-0.8,1.6c-1.4,0-2.7,0-3.3,0.2c-0.8,0.4-2.1,0.8-3.7,1.6c-1.6,0.8-2.9,1.4-3.7,1.6
		c-1.2,0.4-2.7,0.6-3.9,0.6h-1.4v-2.1h1.6c1.9,0,3.5-0.4,4.9-1l4.7-2.1c-0.8-0.2-2.1-0.6-3.7-1.2c-1.4-0.6-2.3-0.8-2.7-0.8
		c-0.8,0-1.6,0.4-2.5,1c-0.2,0.2-0.2,0.2-0.4,0.2c-0.2,0-0.2,0-0.2-0.2v-0.2c0.6-2.1,1.9-2.9,3.5-2.9c0.6,0,1.4,0.2,2.3,0.6
		c1.6,0.8,2.9,1.2,3.7,1.6c1.4,0.4,3.1,0.8,4.9,0.8c0.4,0,0.6,0,0.6,0.2C982.4,919.5,982.4,919.7,982.2,920z M976.5,910.5l-1.6,1.6
		l-1.6-1.6l1.6-1.6L976.5,910.5z" class="area" title=""></path>
</g>
<g id="G_75" class="area" title="">
	<path id="PATH_76" d="M1125.2,810.1c0,1.4-0.4,2.7-1.4,3.3c-0.6,0.4-1.9,0.8-3.7,1c-2.1,0.4-4.1,0.6-6.4,0.6
		c-5.3,0-8.2-1.4-8.2-4.5c0-1,0.4-2.1,1.2-3.1c0.2-0.2,0.2-0.4,0.4-0.4s0.2,0,0.2,0.2c0,0,0,0.2,0,0.4c-0.2,0.6-0.4,1.2-0.4,1.9
		c0,2.1,2.7,3.1,7.8,3.1c2.5,0,4.7-0.2,6.4-0.4c2.1-0.4,2.9-0.8,2.9-1.4c0-0.4-0.4-1.2-1.4-2.5l1-1.9c0.2-0.2,0.2-0.2,0.4,0
		C1124.8,807.6,1125.2,808.9,1125.2,810.1z M1114.9,802.7l-1.6,1.6l-1.6-1.6l1.6-1.6L1114.9,802.7z M1118.4,802.7l-1.6,1.6l-1.6-1.6
		l1.6-1.6L1118.4,802.7z" class="area" title=""></path>
	<path id="PATH_77" d="M1144.5,814.6h-1.2c-2.5,0-3.9-1.9-3.9-5.6c0-0.4,0-1,0-1.9c-1.6,3.9-3.5,6.8-6,8.4c-1.4,0.4-3.3,0.6-5.3,0.6
		c-0.4,0-0.6,0-0.6,0s0.6-0.4,1.9-1c0.8-0.4,1.6-0.8,2.5-1.2c1.4-0.6,2.9-1.6,4.1-3.1c-0.6-2.1-1.4-3.9-2.7-5.6
		c-0.8-1-2.1-2.3-3.9-3.7l-0.2,0.8c-0.6-0.4-1-0.8-1.4-1.2c-0.6-0.6-1-1-1-1.4c0-0.4,0-1,0.2-2.1c0-0.2,0-0.4,0.2-0.4s0.2,0,0.4,0.2
		c2.7,1.9,4.7,3.7,6,5.3c1.6,2.1,2.7,4.3,3.3,7c0.8-1,1.4-2.1,1.9-3.3c0.6-1.4,0.8-2.7,0.8-3.7c0-1.9-0.2-3.9-0.4-6.2l1.6-1.4
		c0.2,1,0.2,5.8,0.4,14.2c0,1.9,0.8,2.9,2.5,2.9h1L1144.5,814.6L1144.5,814.6z" class="area" title=""></path>
	<path id="PATH_78" d="M1162.6,814.6h-2.1c-2.7,0-4.1-1.4-4.1-4.1c0-0.4,0-0.6,0-1c-1,0.4-2.3,1.2-3.9,2.3c-1.6,1-2.7,1.6-3.5,2.1
		c-1.2,0.6-2.7,0.8-3.9,0.8h-1.4v-2.5h1.6c1.6,0,3.5-0.4,5.1-1.2c0.8-0.4,2.3-1.2,4.5-2.3c-0.4,0-1.6-0.4-3.7-0.8
		c-1.4-0.4-2.3-0.6-2.5-0.6c-0.8,0-1.6,0.4-2.5,1c-0.2,0.2-0.2,0.2-0.4,0.2c-0.2,0-0.2,0-0.2-0.2V808c0.6-2.1,1.9-3.1,3.5-3.1
		c0.6,0,1.4,0.2,2.5,0.4c1.4,0.4,2.7,0.8,3.7,1c1.4,0.2,3.1,0.4,4.9,0.4c0.4,0,0.4,0,0.6,0s0,0.2,0,0.4l-0.6,1.9
		c-1.2,0-2.1,0-2.5,0.2c0,1,0.2,1.6,0.4,1.9c0.4,0.6,1.2,1,2.7,1h2.1v2.5H1162.6z" class="area" title=""></path>
	<path id="PATH_79" d="M1172.7,810.5c0,1,0,1.9-0.4,2.7c-0.4,1-1,1.6-1.6,1.6c-1,0-2.7-0.6-4.7-2.1c-0.6,0.8-1,1.2-1.2,1.4
		c-0.6,0.4-1.2,0.6-2.1,0.6h-1v-2.5h1.4c0.8,0,1.6-0.4,2.5-1.4c0.4-0.4,1-1.4,1.9-2.7c0.6-1,1.4-1.4,2.1-1.4c1,0,1.9,0.4,2.5,1.4
		C1172.3,809.1,1172.7,809.7,1172.7,810.5z M1171.5,812c0-0.6-0.2-1.2-0.6-2.1c-0.4-0.8-1-1.2-1.6-1.2c-0.6,0-1.2,0.6-2.1,1.9
		c0.4,0.4,1,0.8,1.9,1.2c0.8,0.4,1.6,0.6,2.1,0.6C1171.3,812.6,1171.5,812.4,1171.5,812z" class="area" title=""></path>
</g>
<g id="G_80" class="area" title="">
	<path id="PATH_81" d="M1279.3,784.6c0.2,0.6,0.2,1.2,0.2,1.9c0,0.8-0.2,1.4-0.4,2.3c-0.6,1.4-1.6,2.7-3.7,3.5c-1.6,0.6-3.3,1-5.1,1
		s-3.3-0.4-4.5-1.2c-1.2-1-1.9-2.3-1.9-4.1c0-1,0.2-1.9,0.6-3.1c0.4-0.8,0.6-1.4,1-1.9c0.2-0.2,0.4-0.2,0.4-0.2c0.2,0,0.2,0,0.2,0.2
		c0,0,0,0.2,0,0.4c-0.6,1.2-0.8,2.5-0.8,3.5s0.4,1.9,1,2.7c0.8,1,2.3,1.4,4.1,1.4c2.1,0,3.9-0.4,5.3-1c1.2-0.6,2.1-1.2,2.5-2.1
		c0.2-0.2,0.2-0.6,0.2-0.8c0-0.6-0.2-1.2-0.4-2.1c-0.2-0.6-0.8-1.6-1.9-3.3l0.8-1.6c0.2-0.2,0.2-0.4,0.2-0.4s0.2,0,0.2,0.2
		C1278.4,781.3,1279.1,782.9,1279.3,784.6z M1273.3,775.5l-1.6,1.6l-1.6-1.6l1.6-1.6L1273.3,775.5z" class="area" title=""></path>
	<path id="PATH_82" d="M1287.7,784.8h-1.4c-1.4,0-2.7-0.6-3.1-1.9c-0.4-0.8-0.6-2.3-0.6-3.9v-3.9c0-1.9-0.2-4.5-0.4-8l1.2-1.4
		c0.2-0.2,0.4-0.2,0.4,0c0.2,1.9,0.4,4.5,0.4,8v6c0,1.6,0.8,2.5,2.5,2.5h1V784.8L1287.7,784.8z" class="area" title=""></path>
	<path id="PATH_83" d="M1305.8,784.8h-2.1c-2.7,0-4.1-1.4-4.1-4.1c0-0.4,0-0.6,0-1c-1,0.4-2.3,1.2-3.9,2.3c-1.6,1-2.7,1.6-3.5,2.1
		c-1.2,0.6-2.7,0.8-3.9,0.8h-1.4v-2.5h1.6c1.6,0,3.5-0.4,5.1-1.2c0.8-0.4,2.3-1.2,4.5-2.3c-0.4,0-1.6-0.4-3.7-0.8
		c-1.4-0.4-2.3-0.6-2.5-0.6c-0.8,0-1.6,0.4-2.5,1c-0.2,0.2-0.2,0.2-0.4,0.2s-0.2,0-0.2-0.2v-0.2c0.6-2.1,1.9-3.1,3.5-3.1
		c0.6,0,1.4,0.2,2.5,0.4c1.4,0.4,2.7,0.8,3.7,1c1.4,0.2,3.1,0.4,4.9,0.4c0.4,0,0.4,0,0.6,0s0,0.2,0,0.4l-0.6,1.9
		c-1.2,0-2.1,0-2.5,0.2c0,1,0.2,1.6,0.4,1.9c0.4,0.6,1.2,1,2.7,1h2.1v2.5H1305.8z M1298,788.9l-1.6,1.6l-1.6-1.6l1.6-1.6L1298,788.9
		z" class="area" title=""></path>
	<path id="PATH_84" d="M1315.7,784.8h-1.6c-1.9,0-3.1-0.6-3.9-1.9c-0.6,1.2-2.1,1.9-4.3,1.9h-1.2v-2.5h1.9c2.1,0,3.1-0.8,3.3-2.3
		c0-0.6,0.2-1,0.4-1s0.4,0.4,0.4,1c0.2,1.4,1.2,2.3,3.1,2.3h1.9v2.5H1315.7z M1308.9,789.3l-1.6,1.6l-1.6-1.6l1.6-1.6L1308.9,789.3z
		 M1312.6,789.3l-1.6,1.6l-1.6-1.6l1.6-1.6L1312.6,789.3z" class="area" title=""></path>
	<path id="PATH_85" d="M1320.4,768.5c0.2,0.2,0.2,0.4,0.2,0.4s-0.2,0-0.4,0h-0.6c0.2,2.7,0.2,6.6,0.2,11.7c0,1.2-0.2,2.3-0.8,2.9
		c-0.6,0.8-1.6,1.2-2.7,1.2h-1.2v-2.5h1c1.6,0,2.5-0.6,2.3-1.9c-0.2-4.3-0.4-8.8-0.6-13.4l1.4-1.2c0.2-0.2,0.4-0.4,0.4-0.4
		s0,0.2,0.2,0.4C1319.8,766.5,1320,767.3,1320.4,768.5z" class="area" title=""></path>
	<path id="PATH_86" d="M1333.2,780.5c0,2.9-1.9,4.3-5.8,4.3c-1.4,0-2.5-0.2-3.1-0.6c-0.8-0.4-1.2-1.4-1.2-2.7c0-0.6,0.2-1.2,0.4-1.9
		c0.2-0.2,0.2-0.4,0.4-0.4c0.2,0,0.2,0.2,0.2,0.6c0,0.2,0,0.4,0,0.6c0,0.8,0.4,1.4,1.2,1.6c0.4,0.2,1.2,0.2,2.3,0.2
		c3.1,0,4.5-0.4,4.5-1.4c0-1.4-1.9-3.5-5.3-6l0.6-2.1c0-0.2,0.2-0.2,0.2-0.2s0.2,0,0.4,0.2C1331.5,775.5,1333.2,778.2,1333.2,780.5z
		" class="area" title=""></path>
</g>
<polygon class="st4 area active" points="802.4,775.1 765,795.3 727.3,829 724.5,870 725,883 749.8,894.2 786.8,894.2 814.4,891.6 819.9,879.2 
	835.1,862.2 847.7,855.4 856,854.5 839.9,805 810,777.2 " id="_x38_50" title=""></polygon>
<g id="G_86" class="area" title="">
	<path d="M757.8,839.3c1.1,2,1.7,4,1.7,6.4c0,1.6-0.5,3.3-1.1,4c-1.3,1.4-3.4,2.4-5.2,2.4c-2.9,0-4.8-2-4.8-4.7c0-2,0.6-3.4,1.3-4.5
		l0.6,0.3c-0.5,1-0.9,2.2-0.9,2.9c0,1.3,0.4,2.2,1,2.7c0.7,0.6,1.8,1,3,1c1.2,0,2.8-0.6,3.8-1.4c0.7-0.5,1.1-1,1.1-1.3
		c0-1.1-0.2-2-0.5-2.8c-0.4-1.2-0.8-2.3-1.3-3.1c0.4-0.7,0.8-1.3,1.2-2L757.8,839.3z M753.5,834.3c0.6,0.5,1.3,1,1.9,1.7
		c-0.3,0.6-0.8,1.1-1.3,1.5c-0.6-0.6-1.2-1.1-1.8-1.6C752.7,835.3,753.1,834.8,753.5,834.3z" id="PATH_87" class="area" title=""></path>
	<path d="M762.5,848.6c0.2-1,0.2-2.1,0.2-3.1V844c0-2.9-0.3-7-0.6-9.7c0.4-0.6,1-1.2,1.5-1.7l0.1,0c0.3,3.4,0.4,7.4,0.4,11
		c0,1,0,1.9-0.1,2.6c0,0.9-0.5,1.5-1.4,2.5L762.5,848.6z" id="PATH_88" class="area" title=""></path>
	<path d="M772.2,843c0.9,2.1,1.7,3.4,3.5,3.4h0.3v2h-0.3c-0.7,0-1.2-0.1-1.6-0.5H774c0,0.2,0,0.4,0,0.5c0,0.7-0.2,1.7-0.6,2.4
		c-1.2,2.2-2.6,3.1-3.7,3.1c-1.2,0-2.6-0.5-3.9-1.2l0.2-0.5c0.4,0.2,1,0.3,1.8,0.3c2.1,0,4.8-2.4,5.2-4.7c-0.1-0.2-0.2-0.4-0.4-0.7
		c-0.6-0.9-1-1.6-1.4-2.3c0.3-0.7,0.6-1.3,0.9-1.8L772.2,843z" id="PATH_89" class="area" title=""></path>
	<path d="M777,846.4c2.5,0,5.1-0.9,8.3-2.8l0-0.1c-1.8-0.7-3.5-1.1-4.9-1.1c-0.9,0-1.5,0.3-2,0.8l0.2,0.8l-0.5,1.4H778l-0.8-2.1
		c0.1-1.7,1.5-2.8,3.4-2.8c1,0,2.7,0.4,5.1,1.4c0.8,0.3,1.7,0.5,2.7,0.5l1.3,0l0,0l-0.8,1.6c-1.3,0-2.2,0.2-2.7,0.6l-2.6,1.7
		c-2.1,1.4-4.3,2.1-6.8,2.1H776c-0.9,0-1.1-0.6-1.1-1c0-0.4,0.2-1,1.1-1H777z M781.7,850.7c0.6,0.5,1.3,1,1.9,1.7
		c-0.3,0.6-0.8,1.1-1.3,1.5c-0.6-0.6-1.2-1.1-1.8-1.6C780.9,851.7,781.3,851.2,781.7,850.7z" id="PATH_90" class="area" title=""></path>
	<path d="M796.2,848.4H796c-1.2,0-2-0.2-2.7-0.9c-1-1-1-2.1-1-4.4c0-3-0.2-6.1-0.4-9.4c0.5-0.6,1-1.1,1.5-1.5l0.1,0.1
		c0.2,3.4,0.2,7.5,0.2,11.3v0.9c0,1,0.6,1.5,1.2,1.7c0.4,0.1,0.8,0.2,1,0.2h0.2V848.4z" id="PATH_91" class="area" title=""></path>
	<path d="M797.9,846.4c0.2-1.1,0.5-2.2,0.8-3.3c0.4-1.5,1-2.8,1.8-4l0.1,0c0.1,0.3,0.4,0.6,0.6,0.9c1.2,1.6,2,3.1,2,4.4
		c0,0.7-0.1,1.4-0.3,2.1h3v2h-0.4c-0.3,0-0.9,0-1.3-0.2l-0.1,0c0.4,0.7,0.6,1.5,0.6,2.1c0,0.7-0.2,1.4-0.5,1.9
		c-0.5,0.8-1.4,1.5-2.3,1.5c-0.7,0-1.5-0.2-2.2-0.6c-1.3-0.8-2.1-2.4-2.1-4v-0.8c-0.4,0-0.8,0.1-1.2,0.1h-0.3c-0.9,0-1.1-0.6-1.1-1
		c0-0.4,0.2-1,1.1-1H797.9z M799.6,850.5c0.8,1,2,1.6,3,1.6c0.6,0,0.9-0.3,0.9-0.8s-0.1-1.1-0.6-1.9c-0.5-0.7-1.2-1.2-2.5-1.2
		c-0.6,0-1.2,0-1.8,0.1C798.7,849,799.1,849.9,799.6,850.5z M801.3,846.1c0.8-0.2,1-0.5,1-0.8c0-1-0.9-2.4-1.9-3.8h-0.1
		c-0.5,1.5-1,3.1-1.5,4.8C799.7,846.4,800.6,846.3,801.3,846.1z" id="PATH_92" class="area" title=""></path>
	<path d="M806.4,846.4c1.2,0,2.1-0.8,2.6-2.8c0.2-0.6,0.6-1.3,1.2-1.9c0.6-0.5,1.2-0.9,2-0.9c1.9,0,3,2.6,3.3,5.4
		c-0.3,1.4-0.9,2-1.7,2c-1.5,0-3.1-0.7-4.6-1.8h-0.1c-0.4,1.4-1.3,2-2.7,2h-0.3c-0.9,0-1.1-0.6-1.1-1c0-0.4,0.2-1,1.1-1H806.4z
		 M811.9,845.7c0.6,0.2,1.2,0.5,1.9,0.5c0.2,0,0.4,0,0.5-0.2c-0.5-2.4-1.5-3.4-2.5-3.4c-0.9,0-1.6,0.5-2.1,1.5
		C810.2,844.8,811,845.3,811.9,845.7z" id="PATH_93" class="area" title=""></path>
</g>
</svg>
