<!--?xml version="1.0" encoding="utf-8"?-->
<!-- Generator: Adobe Illustrator 27.4.1, SVG Export Plug-In . SVG Version: 6.00 Build 0)  -->
<svg version="1.1" id="Layer_1" xmlns="http://www.w3.org/2000/svg" xmlns:xlink="http://www.w3.org/1999/xlink" x="0px" y="0px" viewBox="0 0 1920 1080" style="enable-background:new 0 0 1920 1080;" xml:space="preserve" width="100%" height="100%">
<style type="text/css">
	.st0{fill:#FBD1D1;stroke:#020202;stroke-width:0.5872;stroke-miterlimit:29.3578;}
	.st1{fill:#DBECCB;stroke:#020202;stroke-width:0.5872;stroke-miterlimit:29.3578;}
	.st2{fill:#E8D0E5;stroke:#020202;stroke-width:0.5872;stroke-miterlimit:29.3578;}
	.st3{fill:#FDFAD6;stroke:#020202;stroke-width:0.5872;stroke-miterlimit:29.3578;}
	.st4{fill:none;stroke:#040404;stroke-width:1.4679;stroke-miterlimit:29.3578;}
	.st5{fill:#FFF3B8;stroke:#040404;stroke-width:0.5;stroke-miterlimit:10;}
	.st6{fill:#FFEEC0;stroke:#040404;stroke-width:0.5;stroke-miterlimit:10;}
	.st7{fill:#F8BFD8;stroke:#040404;stroke-width:0.5;stroke-miterlimit:10;}
	.st8{fill:#FCDFEC;stroke:#040404;stroke-width:0.5;stroke-miterlimit:10;}
	.st9{fill:#EACAE1;stroke:#040404;stroke-width:0.5;stroke-miterlimit:10;}
</style>
<path id="_x35_16" class="st0 area" d="M453,430.2c29.7-2.6,27.3-34.1,26.1-60.5l-91.9-17.3l-2.1-0.9c-14.4,9.7-21.1,24.1-16.4,43.4
	c-10.6,1.5-13.8,10.6-9.1,20c9.1,20,44.3,25.8,39.6,41.4c-0.6,1.8-1.5,3.2-2.1,5c1.5-0.3,2.6-0.9,3.8-1.8
	C417.8,446.9,431.6,433.1,453,430.2z" title=""></path>
<path id="_x38_24" class="st1 area" d="M558.4,472.8c16.7-6.2,4.7-33.5-6.2-49c-2.9-7.6,4.7-12.3,7.6-18.2c1.8-6.5,0.3-12-1.2-17.9
	l-36.4-9.7l-43.2-8.2c0.9,23.2,2.9,50.5-17,58.4c1.8,5.9,3.5,11.7,5.9,17.3C483.5,477.5,529.3,485.1,558.4,472.8z" title=""></path>
<path id="_x38_27" class="st2 area" d="M679,643.9c13.8,4.7,27.6-9.1,29.1-20c2.9-24.4,25.8-35.2,33.5-54.9c4.7-12.3-9.1-18.2-16.7-25.8
	c-2.9-4.7,1.5-7.6,4.7-10.6c16.7-21.4,65.8-20,54.9-58.1c-1.5-1.5,4.7-4.7,6.2-6.2c2.6-10.3-1.2-19.4-4.4-29.1l-3.5,0.3L697,416.4
	l-89-15.6l-49.3-13.2c1.5,5.9,2.9,11.7,1.2,17.9c-2.9,6.2-10.9,10.6-7.6,18.2c10.6,15.3,22.9,42.9,6.2,49
	c-14.7,6.2-33.8,7.3-51.1,2.6c-9.4,15.6-12,35.5-0.9,52.3c13.8,18.2,0,38.2-12.3,56.7c-2.9,4.7-4.7,13.8,1.5,18.5
	c7.3,5.3,13.2,11.4,16.7,18.2c11.7,6.8,25,10.9,38.2,12.3C593.3,636.3,637.7,627.2,679,643.9z" title=""></path>
<path id="_x37_71" class="st3 area" d="M967.6,474.5c4.7,4.7,10.6,1.5,15.3-1.5c4.7-6.2,4.7-15.3,9.1-18.2c10.6-7.6,24.4,1.5,33.5-6.2
	c22-16.1,21.4-44.9,28.2-70.2l-19.4,3.5l-83.1,19.1l-36.7,12.6c0.6,0.9,0.9,1.5,1.2,2.3c2.9,9.1,1.5,18.2-2.9,27.6
	c-4.7,10.6,10.6,18.2,21.4,21.4c1.2,0,2.3,0.6,3.5,1.5C948.6,466.3,959.1,466.6,967.6,474.5z" title=""></path>
<path id="_x37_70" class="st1 area" d="M1046.6,413.5c-3.5,13.8-8.8,26.1-20.6,34.9c-9.1,7.6-22.9-1.5-33.5,6.2
	c-4.7,2.9-4.7,12.3-9.1,18.2c-4.7,2.9-10.6,6.2-15.3,1.5c-8.8-7.6-19.4-8.2-30.2-7.6c2.1,1.5,3.8,4.1,2.6,6.2
	c-6.2,9.1-16.7,18.2-7.6,27.6c10.6,13.8,15.3,27.6,24.4,42.9c1.5,4.7,7.6,7.6,9.1,12.3c4.7,9.1,1.5,21.4-6.2,22.9
	c-16.7,2.9-36.7-6.2-42.9,16.7c-6.2,30.5,9.1,56.7,36.7,71.9c12.3,7.6,24.4,29.1,7.6,38.2c-9.1,6.2-20-10.6-32-1.5
	c-6.2,4.7-12.3,13.8-20,10.6c-9.1-4.7-20-10.6-29.1-6.2c-21.4,7.6-45.8,0-65.8,12.3c-18.2,10.6-21.4,36.7-41.4,47.3
	c-18.2,9.1-36.7-1.5-54.9-6.2c-7-2.1-13.2,1.2-20,3.8c10.3,5.3,19.1,10,24.1,13.8c18.5,13.8,35.2,40.5,43.4,69.3
	c4.4,15,20.3,21.1,38.8,28.2c12.6,4.7,25.5,9.7,37,17.9c22.9,16.4,37,15.9,53.4,15.6c2.9,0,5.9-0.3,8.8-0.3c18.5,0,50.8-7.6,71-19.7
	c21.4-12.9,56.4-40.8,67.5-63.4c2.9-6.2,9.1-10.6,18.2-13.2c5.3-1.5,11.7-2.3,18.5-2.9c2.9-11.7,7.3-23.5-5-33.5
	c-4.7-4.7,6.2-12.3,13.8-10.6c-12.3-9.1-21.4-24.4-15.3-38.2c7.6-16.7,9.1-35.2,4.7-49c-6.2-16.7-29.1-24.4-41.1-39.6
	c-2.9-6.2,4.7-6.2,9.1-7.6c-9.1-25.8,10.9-38.2,29.1-53.4c4.7-2.9,4.7-12.3,2.9-20c-4.7-18.2-27.6-33.5-18.5-50.5
	c12.3-18.2,30.5-38.2,18.5-61.1c1.5-0.6,2.9-0.9,4.7-1.5C1066.9,438.7,1055.1,427.6,1046.6,413.5z" title=""></path>
<path id="_x34_89" class="st0 area active" d="M1097.7,399.7c9.4-10.3,14.4-20.8,16.1-32l-59.9,10.9c-2.9,11.4-4.7,23.8-7.3,34.9
	c8.5,14.1,20.6,25.2,35.8,32c13.5-4.1,25.2-7.9,18.5-23.2C1097.7,414.9,1093,404.1,1097.7,399.7z" title=""></path>
<path id="_x37_77" class="st1 area" d="M1142,430.2c9.1-7.6,29.1,1.5,39.6-7.6c9.1-7.6,22.9-1.5,27.6-10.6s13.8-13.8,16.7-21.4
	c1.5-6.2,2.9-15.3-6.2-15.3c2.6-10.9,8.8-20.3,8.2-32l-25.5,7.3l-82.5,15.6l-6.5,1.2c-1.8,11.4-7,21.7-16.1,32
	c-4.7,4.7,0,15.3,2.9,22.9c3.5,7.6,2.1,12.6-1.8,15.9c4.1,2.6,8.2,5.3,12.3,7C1123.5,451.3,1134.4,439.3,1142,430.2z" title=""></path>
<path id="_x38_02" class="st3 area" d="M1244.2,448.4c10.6,7.6,25.8,9.1,33.5-1.5c1.5-4.7-6.2-13.8-1.5-15.3c10.6-4.7,25.8-6.2,29.1-15.3
	c1.5-12.3-1.5-20,1.5-32c2.9-7.6-13.8-18.2-7.6-25.8c11.7-12.9,10-25,3.5-36.7l-17.9,5.3l-56.7,16.1c0.6,11.4-5.6,21.1-8.2,32
	c9.1,0,7.6,9.1,6.2,15.3c-2.9,7.6-12.3,12.3-16.7,21.4c-0.3,0.9-0.9,1.5-1.2,2.1C1220.1,424.6,1230.7,438.4,1244.2,448.4z" title=""></path>
<path id="_x39_23" class="st0 area" d="M1210.7,469.8c11.4,5,22.9-9.7,34.1-21.1c-0.3,0-0.3-0.3-0.6-0.3c-13.8-10-24.1-23.8-36.4-34.6
	c-5.6,6.2-17.9,1.8-26.1,8.8c-1.8,1.5-3.5,2.3-5.6,2.9C1189,440.2,1193.1,462.8,1210.7,469.8z" title=""></path>
<path id="_x37_74" class="st2 area" d="M1183.1,752.6c6.2-10.6-15.3-15.3-16.7-22.9c-2.9-13.8,0-29.1-12.3-41.4c-6.2-6.2-2.9-20,2.9-27.6
	c9.1-12.3,22.9-18.2,33.5-30.5c1.5-2.9,10.9,0,15.3-1.5c4.7-2.9,10.6-9.1,9.1-16.7c-1.5-6.2-9.1-12.3-9.1-16.7
	c1.5-27.6-15.3-44.3-32-62.5c-1.5-1.5-1.5-7.6,0-7.6c16.7-10.6,29.1-22.9,24.4-42.9c4.7,0,2.9-6.2,7.6-6.2c0-2.9,0-5.6-0.3-8.5
	c-13.8-8.8-18.2-28.5-29.7-42c-11.2,3.8-26.4-1.8-34.3,4.7c-7.6,9.1-18.2,21.4-30.5,15.3c-4.1-1.8-8.2-4.4-12.3-7
	c-4.7,4.1-12.9,6.2-21.1,8.5c12.3,22.9-6.2,42.9-18.5,61.1c-9.1,16.7,13.8,32,18.5,50.5c1.5,7.6,1.5,16.7-2.9,20
	c-18.2,15.3-38.2,27.6-29.1,53.4c-4.7,1.5-12.3,1.5-9.1,7.6c12,15.3,35.2,22.9,41.1,39.6c4.7,13.8,2.9,32-4.7,49
	c-6.2,13.8,2.9,29.1,15.3,38.2c-7.6-1.5-18.2,6.2-13.8,10.6c12.3,10,8.2,22,5,33.5c22-1.2,49.3,3.2,69.3,9.1
	C1141.4,787.2,1169.6,776.3,1183.1,752.6z" title=""></path>
<path id="_x37_98" class="st3 area" d="M1412.4,802.8c13.8-33.5-22.9-47.3-39.6-71.9c-18.2-25.8-10.6-52,2.9-79.6
	c7.6-15.3-15.3-33.8-35.2-36.7c-21.4-4.7-39.6,6.2-58.1,12.3c-21.4,6.2-38.2-9.1-56.7-16.7c-3.8-1.8-7.9-2.3-12.3-2.3
	c0.9,1.2,1.5,2.6,1.8,3.8c1.5,7.6-4.7,13.8-9.1,16.7c-4.7,1.5-13.8-1.5-15.3,1.5c-10.6,12.3-24.4,18.2-33.5,30.5
	c-6.2,7.6-9.1,21.4-2.9,27.6c12.3,12.3,9.1,27.6,12.3,41.1c1.5,7.6,22.9,12.3,16.7,22.9c-13.5,24.1-41.7,34.6-34.1,66.9
	c9.4,2.6,17.3,5.9,22,8.5c12,7.3,48.1,15,77.2,21.4c19.1,4.1,35.5,7.6,45.2,10.9c2.9,0.9,5.9,2.1,9.1,2.9c0.6-0.9,1.2-1.8,2.3-2.3
	c2.3-1.5,59.3-33.8,89.5-33.8c8.2,0,15.3-4.1,21.4-10.3C1413,812.4,1410.1,807.4,1412.4,802.8z" title=""></path>
<path id="_x39_21" class="st0 area" d="M1340.5,593.4c-15.3-12.3-21.7-25-30.5-40.5
	c-13.2,4.7-26.4-5-41.1-2.1c-23.2,6.5-42.9,19.4-66.1,21.4c2.6,6.8,3.8,14.4,3.2,22.9c0,3.5,4.7,8.2,7.3,12.9
	c4.4,0,8.5,0.9,12.3,2.3c18.2,7.6,35.2,22.9,56.4,16.7c18.2-6.2,36.4-16.4,57.5-12.3C1347.5,608.7,1351,602.5,1340.5,593.4z" title=""></path>
<path id="_x37_94" class="st2 area" d="M1675.2,582.9c-10.6,7.6-24.4-4.7-33.5,1.5c-27.6,18.5-64.3,22.9-85.4,0
	c-10.6-11.7-17.6-27.9-28.2-41.1c-25.8,7.6-63.7,21.1-80.4-6.2c-4.7-7.6,2.9-16.7,0-21.4c-18.2-29.1-39.6-53.4-68.7-70.2
	c7.6-13.8-1.5-27.6,2.9-41.4c1.5-2.9,2.9-6.2,4.7-7.6c7.6-12.3-10.6-18.2-12-27.6c-2.9-22.3,7-46.1-7.9-65.5l-1.5,0.3l-61.9,17.9
	c6.5,11.7,7.9,23.8-3.5,36.7c-6.2,7.6,10.6,18.2,7.6,25.8c-2.9,12.3,0,20-1.5,32c-2.9,9.1-18.2,10.6-29.1,15.3
	c-4.7,1.5,2.9,10.6,1.5,15.3c-1.2,1.8-2.6,2.9-4.1,4.1c-7.9,30.5,32.9,48.1,47,72.2c4.7,9.1,0,24.4-9.1,29.1
	c-0.6,0.3-1.2,0.3-1.5,0.6c9.1,15.9,15.6,28.2,30.5,40.5c10.6,8.8,6.8,15.3-0.6,21.1c0.3,0,0.3,0,0.6,0c20,2.9,42.9,21.4,35.2,36.7
	c-13.8,27.6-21.4,53.4-2.9,79.6c16.7,24.4,53.4,38.2,39.6,71.9c-2.3,4.7,0.9,9.4,3.8,14.1c6.2-5.9,11.4-13.8,17.3-22
	c5.9-8.2,11.7-16.7,18.5-23.8c22.3-22.3,48.7-34.6,74.3-34.6c21.7,0,80.4-3.2,92.2-4.1c13.5-12,102.8-90.4,122.1-106
	c13.2-10.6,14.1-24.4,2.9-41.1c-5-7.6-3.2-18.5-1.2-26.1C1718.3,557.9,1696.3,570.5,1675.2,582.9z" title=""></path>
<path id="_x37_95" class="st2 area" d="M1624.7,347.7c0,6.2-10.6,9.1-12.3,15.3c-6.2,30.5,27.6,35.2,50.5,32c2.9,0,4.7,4.7,4.7,6.2
	c2.9,29.1,22.9,47.3,52,39.6c21.7-6.8,42-20,63.4-25c-17-6.8-31.4-12.9-32.6-13.2c-3.2-1.5-27.9-14.4-32.3-32.9
	c-4.4-17-4.4-49.6-4.4-50.8c0-2.3,1.5-4.4,3.5-5.6l-68.1-6.2h-1.5C1632.6,313.9,1627.3,331.3,1624.7,347.7z" title=""></path>
<path id="_x33_00" class="st0 area" d="M1374.2,368.8c1.5,9.1,20,15.3,12,27.6c-1.5,1.5-2.9,4.7-4.7,7.6c-4.7,13.8,4.7,27.6-2.9,41.4
	c29.1,16.7,50.5,41.4,68.7,70.2c2.9,4.7-4.7,13.8,0,21.4c16.7,27.6,54.9,13.8,81,6.2c-7.6-32-29.1-67.2-65.8-70.2
	c-2.9-1.5-7.6-4.7-6.2-7.6c2.9-25.8-21.4-33.5-32-52c-1.5-4.7-2.9-9.1-1.5-13.8c4.7-7.6,12.3-13.8,9.1-22.9
	c-4.7-7.6-13.8-13.8-10.6-22.9c7-18.8-1.2-41.7-13.5-59l-41.7,8.8C1381.3,323,1371.3,346.8,1374.2,368.8z" title=""></path>
<path id="_x38_03" class="st1 area" d="M1320.8,523.3c-14.1-24.1-54.9-41.7-47-72.2c-7.9,5.9-20,3.8-29.1-2.3
	c-11.4,11.4-22.9,26.1-34.1,21.1c-1.8-0.6-3.2-1.5-4.7-2.3c0.3,2.9,0.3,5.6,0.3,8.5c-4.7,0-2.9,6.2-7.6,6.2c4.7,20-7.6,32-24.4,42.9
	c-1.5,0-1.5,6.2,0,7.6c11.4,12.6,23.2,24.7,28.8,39.6c22.9-2.1,42.9-15,66.1-21.4c14.7-2.9,27.9,6.8,41.1,2.1c-0.9-1.8,1.2,1.8,0,0
	c1.2,1.8-0.9-1.8,0,0c0.6-0.3,1.2-0.3,1.5-0.6C1320.8,547.6,1325.2,532.4,1320.8,523.3z" title=""></path>
<path id="_x38_22" class="st0 area" d="M718.7,761.7c18.2,4.7,36.7,15.3,54.9,6.2c20-10.6,22.9-36.7,41.4-47.3
	c20-12.3,44.3-4.7,65.8-12.3c9.1-4.7,20,1.5,29.1,6.2c7.6,2.9,13.8-6.2,20-10.6c12.3-9.1,22.9,7.6,32,1.5
	c16.7-9.1,4.7-30.5-7.6-38.2c-27.6-15.3-42.9-41.4-36.7-71.9c6.2-22.9,25.8-13.8,42.9-16.7c7.6-1.5,10.6-13.8,6.2-22.9
	c-1.5-4.7-7.6-7.6-9.1-12.3c-9.1-15.3-13.8-29.1-24.4-42.9c-9.1-9.1,1.5-18.2,7.6-27.6c1.5-2.9-2.9-7.6-6.2-7.6
	c-10.6-2.9-25.8-10.6-21.4-21.4c4.7-9.1,6.2-18.2,2.9-27.6c-0.3-0.9-0.6-1.8-1.2-2.3l-42.3,15L786.2,439c3.2,9.7,7,19.1,4.4,29.1
	c-1.5,1.5-7.6,4.7-6.2,6.2c10.6,38.2-38.2,36.7-54.9,58.1c-2.9,2.9-7.6,6.2-4.7,10.6c7.6,7.6,21.4,13.8,16.7,25.8
	c-7.6,20-30.5,30.5-33.5,54.9c-1.5,10.6-15.3,24.4-29.1,20c-41.1-16.7-85.4-7.6-128.3-10.6c-13.2-1.2-26.4-5.6-38.2-12.3
	c6.8,12.9,5.9,27.9-5.9,42.9c-3.8,5-5.6,13.5-2.3,21.4c14.7,1.2,29.1,2.1,38.2,2.1c7.6,0,15.9,1.5,24.4,4.1c0.3,0,0.6,0,0.9,0
	c1.2,0,2.1,0.6,2.9,1.2c16.4,5.6,34.1,15.9,49.6,29.1c13.8,11.4,40.2,24.7,63.7,36.4c5.3,2.6,10.3,5,15,7.3
	C705.5,762.8,711.6,759.6,718.7,761.7z" title=""></path>
<path id="_x36_22" class="st3 area" d="M506.4,663.9c18.2-22.9,10.6-45.8-10.6-61.1c-6.2-4.7-4.7-13.8-1.5-18.2
	c12.3-18.2,25.8-38.2,12.3-56.7c-11.2-16.7-8.5-36.7,0.9-52.3c-16.7-4.4-31.7-14.4-39.3-30.2c-2.6-5.6-4.1-11.4-5.9-17.3
	c-2.6,1.2-5.9,1.8-9.4,2.1c-21.4,2.9-35.2,16.7-52,29.1c-1.2,0.9-2.3,1.5-3.5,1.8c-10.3,20-38.5,39-66.6,17.9
	c-9.1-7.6-32,7.6-24.4,21.4c2.9,4.7,10.9,7.6,10.9,12.3c2.6,34.1,10.3,73.4-7.9,104.2c17.9,10,35.2,20,43.4,26.4
	c18.2,14.7,80.4,29.9,100.7,34.9l3.8,0.9c8.5,2.1,27.9,4.4,46.7,6.2C500.8,677.1,502.6,668.9,506.4,663.9z" title=""></path>
<path id="_x37_84" class="st1 area" d="M1701.6,497.4c-5.6-4.7-12,3.8-17.6,5.6c-12,3.8-33.2-1.8-33.2-12c2.6-35.2-32.3-43.4-56.4-52.8
	c-12-4.7-25.8,1.8-37.9,7.3c-3.8,1.8-11.2-2.6-11.2-7.3c0.9-7.3,3.8-15.9-4.7-18.5c-16.7-6.5-43.4,6.5-49-14.7
	c-3.8-16.7,13.8-30.5,2.6-47.3c-12-17.6-31.4-20.3-49.9-25c-1.8-0.9-4.7-2.6-5.6-4.7c-6.5-12.6,5-28.8-5-39l-25.8,5.6
	c12.3,17.3,20.6,40.5,13.5,59c-2.9,9.1,6.2,15.3,10.6,22.9c2.9,9.1-4.7,15.3-9.1,22.9c-1.5,4.7,0,9.1,1.5,13.8
	c10.6,18.2,35.2,25.8,32,52c-1.5,2.9,2.9,6.2,6.2,7.6c36.7,2.9,58.1,38.2,65.8,70.2c-0.3,0-0.3,0-0.6,0.3
	c10.6,13.2,17.6,29.4,28.2,41.1c21.4,22.9,58.1,18.2,85.4,0c9.1-6.2,22.9,6.2,33.8-1.5c21.1-12.3,43.4-25,67.2-23.2
	c0.6-2.3,1.5-4.4,2.1-5.9c4.7-12.3,15-28.2,27.6-31.1c10.6-2.6,21.7-6.2,31.7-10c0.3,0,0.6-0.3,0.9-0.3c-3.5-2.3-7.3-4.1-11.4-4.4
	C1763.5,505.7,1730.3,518.9,1701.6,497.4z" title=""></path>
<path id="_x37_83" class="st3 area" d="M1836,443.1c-2.6-6.2-6.2-9.7-11.2-11.4c-11.2-3.8-27.6-10-42-15.9c-21.4,5-42,18.2-63.4,25
	c-29.1,7.6-49-10.6-52-39.6c0-1.5-1.5-6.2-4.7-6.2c-22.9,2.9-56.7-1.5-50.5-32c1.5-6.2,12.3-9.1,12.3-15.3
	c2.6-16.1,7.9-33.8,22.6-40.5h-0.9l-19.7-8.2l-11.4-14.7l4.1-0.9l10-2.3l-16.4,0.9l-6.5-2.3l-3.2-6.5h24.7l27.9,4.1l7.3-1.8l13.2-5
	l7.3-0.9l13.2,3.2l6.5,0.9l5.9-2.3l22.3-6.5l34.6-4.1l27.3-9.1l0.9-21.4l-23.2,18.8l-34.6,7.3l-190.2,10.9l-21.4,3.2l-90.7,19.1
	c10,10.3-1.5,26.4,5,39c0.9,1.8,3.8,3.8,5.6,4.7c18.5,4.7,37.9,7.3,49.9,25c11.2,16.7-6.5,30.5-2.6,47.3c5.6,21.1,32.3,8.2,49,14.7
	c8.2,2.6,5.6,11.2,4.7,18.5c0,4.7,7.3,9.4,11.2,7.3c12-5.6,25.8-12,37.9-7.3c24.1,9.4,59.3,17.6,56.4,52.8c0,10.3,21.1,15.9,33.2,12
	c5.6-1.8,12-10.3,17.6-5.6c28.8,21.1,61.9,8.2,91.6,10.3c4.1,0.6,7.9,2.1,11.4,4.4c14.4-5.9,25.8-12.6,29.4-19.1
	C1839,482.5,1842.2,458.4,1836,443.1z" title=""></path>
<line id="LINE_27" class="st4 area" x1="1148.6" y1="385.3" x2="1126.6" y2="311.6" title=""></line>
<line id="LINE_28" class="st4 area" x1="980.8" y1="424.9" x2="958.8" y2="351.2" title=""></line>
<line id="LINE_29" class="st4 area" x1="1268.8" y1="387.9" x2="1291.2" y2="282.2" title=""></line>
<line id="LINE_30" class="st4 area" x1="1398.6" y1="377.7" x2="1398.6" y2="205.6" title=""></line>
<line id="LINE_32" class="st4 area" x1="1699.8" y1="374.4" x2="1759.7" y2="343.3" title=""></line>
<line id="LINE_33" class="st4 area" x1="514.1" y1="428.1" x2="537" y2="347.4" title=""></line>
<line id="LINE_34" class="st4 area" x1="418.6" y1="402.3" x2="441.5" y2="274" title=""></line>
<g id="G_42" class="area" title="">
	<path id="PATH_43" d="M389.9,234.4c0,4.1-2.6,6.2-8.2,6.2c-2.1,0-3.5-0.3-4.4-0.9c-1.2-0.6-1.8-2.1-1.8-3.8c0-0.9,0.3-1.8,0.6-2.6
		c0.3-0.3,0.3-0.6,0.6-0.6c0.3,0,0.3,0.3,0.3,0.9c0,0.3,0,0.6,0,0.9c0,1.2,0.6,2.1,1.8,2.3c0.6,0.3,1.8,0.3,3.2,0.3
		c4.4,0,6.5-0.6,6.5-2.1c0-2.1-2.6-5-7.6-8.5l0.9-2.9c0-0.3,0.3-0.3,0.3-0.3s0.3,0,0.6,0.3C387.5,227.3,389.9,231.2,389.9,234.4z" class="area" title=""></path>
	<path id="PATH_44" d="M401.6,240.6h-2.1c-2.1,0-3.8-0.9-4.4-2.6c-0.6-1.2-0.9-3.2-0.9-5.6v-5.6c0-2.6-0.3-6.5-0.6-11.4l1.8-2.1
		c0.3-0.3,0.6-0.3,0.6,0c0.3,2.6,0.6,6.5,0.6,11.4v8.5c0,2.3,1.2,3.5,3.5,3.5h1.5V240.6z" class="area" title=""></path>
	<path id="PATH_45" d="M408.7,234.7c0,3.8-2.1,5.9-5.9,5.9h-2.3V237h2.1c2.9,0,4.4-0.6,4.4-1.5s-0.6-2.1-2.1-3.5l1.2-2.9
		c0-0.3,0.3-0.3,0.3-0.3s0.3,0.3,0.6,0.6C408.1,230.9,408.7,232.9,408.7,234.7z M407.8,247l-2.3,2.3l-2.3-2.3l2.3-2.3L407.8,247z" class="area" title=""></path>
	<path id="PATH_46" d="M420.4,209.1c-1.2,1.2-2.9,1.5-4.7,1.5c-0.3,0-0.6,0-1.2,0c-0.6,0-0.9,0-1.2,0c-0.3,0-0.6,0.3-0.9,0.6
		c-0.3,0.3-0.6,0.6-0.6,0.6c-0.3,0-0.3-0.3-0.3-0.6s0.3-0.9,0.6-1.5c0.3-0.9,0.6-1.2,0.9-1.2s0.9,0,1.8,0.3c0.9,0,1.5,0.3,1.8,0.3
		c1.8,0,2.9,0,3.8-0.3c0.6,0,0.9-0.3,0.9-0.3h0.3C421,208.6,421,208.8,420.4,209.1z M418.6,237c0,1.2-0.3,2.3-0.9,3.2
		c-0.3,0.6-0.6,0.9-0.6,0.9s-0.3-0.3-0.3-1.2c0-3.5-0.6-11.7-1.8-25l2.3-2.3c0.3-0.3,0.3-0.3,0.3-0.3s0,0.3,0,0.6
		C418.3,216.8,418.6,224.7,418.6,237z" class="area" title=""></path>
	<path id="PATH_47" d="M472.4,234.4c0,4.1-1.8,6.2-5.3,6.2c-2.1,0-3.2-0.9-3.8-2.6c-0.9,1.8-2.3,2.6-4.1,2.6c-0.6,0-1.5,0-2.1-0.3
		c0,1.8-0.3,3.5-0.3,5.6c-0.9,2.1-2.3,3.8-5,5c-2.3,0.9-4.7,1.5-7.3,1.5s-4.7-0.6-6.5-1.8c-1.8-1.5-2.6-3.2-2.6-5.9
		c0-1.5,0.3-2.6,0.9-4.4c0.6-1.2,0.9-2.1,1.5-2.6c0.3-0.3,0.6-0.3,0.6-0.3c0.3,0,0.3,0,0.3,0.3c0,0,0,0.3,0,0.6
		c-0.9,1.8-1.2,3.5-1.2,5c0,1.5,0.6,2.6,1.5,3.8c1.2,1.5,3.2,2.1,5.9,2.1c2.9,0,5.6-0.6,7.6-1.5c1.8-0.9,2.9-1.8,3.2-2.9
		c0.3-0.3,0.3-0.9,0-2.1c0-0.9-0.3-1.8-0.3-2.1c-0.3-0.9-1.2-2.3-2.9-4.4l1.2-2.3c0.3-0.3,0.3-0.6,0.3-0.6s0.3,0,0.3,0.3
		c0.9,1.2,1.5,2.1,1.8,2.3c0.9,0.9,1.8,1.2,2.9,1.2s2.3-0.3,2.9-1.2c0.3-0.6,0.6-1.2,0.9-2.6c0-0.6,0.3-0.9,0.6-0.9
		c0.3,0,0.3,0.3,0.3,0.9c0.3,1.5,0.6,2.3,1.2,2.9s1.8,0.9,3.2,0.9c0.6,0,1.2-0.3,1.5-0.6c0.6-0.3,0.9-0.9,0.9-1.5
		c0-0.9-0.6-1.8-1.8-3.2l1.5-2.6c0.3-0.3,0.3-0.3,0.3-0.3l0.3,0.3C472.1,231.2,472.4,232.6,472.4,234.4z" class="area" title=""></path>
	<path id="PATH_48" d="M484.1,240.6h-2.1c-2.1,0-3.8-0.9-4.4-2.6c-0.6-1.2-0.9-3.2-0.9-5.6v-5.6c0-2.6-0.3-6.5-0.6-11.4l1.8-2.1
		c0.3-0.3,0.6-0.3,0.6,0c0.3,2.6,0.6,6.5,0.6,11.4v8.5c0,2.3,1.2,3.5,3.5,3.5h1.5V240.6z" class="area" title=""></path>
	<path id="PATH_49" d="M498.5,240.6h-2.3c-2.6,0-4.4-0.9-5.6-2.6c-0.9,1.8-2.9,2.6-6.2,2.6h-1.8V237h2.6c2.9,0,4.4-1.2,4.7-3.2
		c0-0.9,0.3-1.5,0.6-1.5c0.3,0,0.6,0.6,0.6,1.5c0.3,2.1,1.8,3.2,4.4,3.2h2.6v3.5H498.5z M492,247l-2.3,2.3l-2.3-2.3l2.3-2.3L492,247
		z" class="area" title=""></path>
	<path id="PATH_50" d="M514.1,234.7l-0.9,2.6l-7.9,2.1c-2.3,0.6-4.4,0.9-6.2,0.9h-1.5v-3.5h2.3c0.6,0,1.2,0,2.3-0.3
		c-1.8-1.5-2.6-2.6-2.6-4.1c0-1.2,0.6-2.6,2.1-4.4c1.8-2.1,3.5-3.2,5.3-3.2c2.1,0,3.5,0.9,4.7,2.6c0.3,0.6,0.6,0.9,0.6,1.2
		c0,0,0,0.3-0.3,0.3c-0.3,0-0.6,0-1.5-0.3c-1.5-0.3-2.6-0.6-3.8-0.6c-0.9,0-1.8,0.3-2.9,0.9c-1.2,0.6-2.1,1.2-2.1,2.1
		c0,0.6,0.6,1.5,1.5,2.3c1.2,1.2,2.6,1.8,4.1,1.8c0.6,0,2.6-0.6,6.2-1.5c0.3,0,0.3,0,0.6,0l0,0C514.1,234.4,514.1,234.4,514.1,234.7
		z" class="area" title=""></path>
</g>
<g id="G_51" class="area" title="">
	<path id="PATH_52" d="M546.1,302.8c0,4.1-1.8,6.2-5.3,6.2c-2.1,0-3.2-0.9-3.8-2.6c-0.9,1.8-2.3,2.6-4.1,2.6c-0.6,0-1.5,0-2.1-0.3
		c0,1.8-0.3,3.5-0.3,5.6c-0.9,2.1-2.3,3.8-5,5c-2.3,0.9-4.7,1.5-7.3,1.5c-2.6,0-4.7-0.6-6.5-1.8c-1.8-1.5-2.6-3.2-2.6-5.9
		c0-1.5,0.3-2.6,0.9-4.4c0.6-1.2,0.9-2.1,1.5-2.6c0.3-0.3,0.6-0.3,0.6-0.3c0.3,0,0.3,0,0.3,0.3c0,0,0,0.3,0,0.6
		c-0.9,1.8-1.2,3.5-1.2,5s0.6,2.6,1.5,3.8c1.2,1.5,3.2,2.1,5.9,2.1c2.9,0,5.6-0.6,7.6-1.5c1.8-0.9,2.9-1.8,3.2-2.9
		c0.3-0.3,0.3-0.9,0-2.1c0-0.9-0.3-1.8-0.3-2.1c-0.3-0.9-1.2-2.3-2.9-4.4l1.2-2.3c0.3-0.3,0.3-0.6,0.3-0.6s0.3,0,0.3,0.3
		c0.9,1.2,1.5,2.1,1.8,2.3c0.9,0.9,1.8,1.2,2.9,1.2c1.2,0,2.3-0.3,2.9-1.2c0.3-0.6,0.6-1.2,0.9-2.6c0-0.6,0.3-0.9,0.6-0.9
		c0.3,0,0.3,0.3,0.3,0.9c0.3,1.5,0.6,2.3,1.2,2.9s1.8,0.9,3.2,0.9c0.6,0,1.2-0.3,1.5-0.6c0.6-0.3,0.9-0.9,0.9-1.5
		c0-0.9-0.6-1.8-1.8-3.2l1.5-2.6c0.3-0.3,0.3-0.3,0.3-0.3l0.3,0.3C545.5,299.6,546.1,301,546.1,302.8z" class="area" title=""></path>
	<path id="PATH_53" d="M564.3,309H561c-0.3,4.1-1.8,7.3-4.7,10.3c-0.9,0.9-1.5,1.5-1.8,1.5c-1.5,0-3.5-0.3-5.6-0.6
		c-0.6,0-1.2-0.3-1.2-0.3s0.3-0.3,1.2-0.6c2.3-0.6,4.7-2.1,6.8-3.5c0.9-0.9,1.8-1.5,2.3-2.6c0.9-1.2,1.5-2.3,1.5-3.2V309h-3.8
		c-2.9,0-4.1-1.2-4.1-3.5c0-1.5,0.3-2.9,1.2-4.7c0.9-1.8,2.1-2.9,3.2-2.9c1.5,0,2.6,0.9,3.5,2.9c0.6,1.5,1.2,2.9,1.2,4.7h3.2v3.5
		H564.3z M559,305.4c0-0.9-0.3-1.8-0.9-2.6c-0.6-1.2-1.5-1.5-2.3-1.5c-0.6,0-1.2,0.3-1.5,0.6c-0.6,0.6-0.6,0.9-0.6,1.8
		c0,1.5,1.2,2.1,3.5,2.1C557.2,305.7,558.1,305.4,559,305.4z" class="area" title=""></path>
	<path id="PATH_54" d="M571,285.8c0.3,0.3,0.3,0.6,0.3,0.6s-0.3,0-0.6,0h-0.9c0.3,3.8,0.3,9.4,0.3,16.7c0,1.8-0.3,3.2-1.2,4.1
		c-0.9,1.2-2.3,1.8-3.8,1.8h-1.8v-3.5h1.5c2.3,0,3.5-0.9,3.2-2.6c-0.3-6.2-0.6-12.6-0.9-19.1l2.1-1.8c0.3-0.3,0.6-0.6,0.6-0.6
		s0,0.3,0.3,0.6C569.8,282.8,570.4,284,571,285.8z" class="area" title=""></path>
	<path id="PATH_55" d="M582.8,309h-2.1c-2.1,0-3.8-0.9-4.4-2.6c-0.6-1.2-0.9-3.2-0.9-5.6v-5.6c0-2.6-0.3-6.5-0.6-11.4l1.8-2.1
		c0.3-0.3,0.6-0.3,0.6,0c0.3,2.6,0.6,6.5,0.6,11.4v8.5c0,2.3,1.2,3.5,3.5,3.5h1.5V309z" class="area" title=""></path>
	<path id="PATH_56" d="M605.7,300.4l-1.2,2.3c-2.1,0-3.8,0-4.7,0.3c-1.2,0.6-2.9,1.2-5.3,2.3c-2.3,1.2-4.1,2.1-5.3,2.3
		c-1.8,0.6-3.8,0.9-5.6,0.9h-2.1v-3.5h2.3c2.6,0,5-0.6,7-1.5l6.8-2.9c-1.2-0.3-2.9-0.9-5.3-1.8c-2.1-0.9-3.2-1.2-3.8-1.2
		c-1.2,0-2.3,0.6-3.5,1.5c-0.3,0.3-0.3,0.3-0.6,0.3c-0.3,0-0.3,0-0.3-0.3V299c0.9-2.9,2.6-4.1,5-4.1c0.9,0,2.1,0.3,3.2,0.9
		c2.3,1.2,4.1,1.8,5.3,2.3c2.1,0.6,4.4,1.2,7,1.2c0.6,0,0.9,0,0.9,0.3C605.9,299.9,605.9,300.1,605.7,300.4z M589.5,314.5l2.1-2.1
		l2.1,2.1l-2.1,2.1L589.5,314.5z M592.1,318.9l2.1-2.1l2.1,2.1l-2.1,2.1L592.1,318.9z M594.8,314.5l2.1-2.1l2.1,2.1l-2.1,2.1
		L594.8,314.5z" class="area" title=""></path>
</g>
<g id="G_57" class="area" title="">
	<path id="PATH_58" d="M875.2,308.1c0,4.1-2.6,6.2-8.2,6.2c-2.1,0-3.5-0.3-4.4-0.9c-1.2-0.6-1.8-2.1-1.8-3.8c0-0.9,0.3-1.8,0.6-2.6
		c0.3-0.3,0.3-0.6,0.6-0.6s0.3,0.3,0.3,0.9c0,0.3,0,0.6,0,0.9c0,1.2,0.6,2.1,1.8,2.3c0.6,0.3,1.8,0.3,3.2,0.3c4.4,0,6.5-0.6,6.5-2.1
		c0-2.1-2.6-5-7.6-8.5l0.9-2.9c0-0.3,0.3-0.3,0.3-0.3s0.3,0,0.6,0.3C872.8,301,875.2,304.8,875.2,308.1z" class="area" title=""></path>
	<path id="PATH_59" d="M886.9,314.2h-2.1c-2.1,0-3.8-0.9-4.4-2.6c-0.6-1.2-0.9-3.2-0.9-5.6v-5.6c0-2.6-0.3-6.5-0.6-11.4l1.8-2.1
		c0.3-0.3,0.6-0.3,0.6,0c0.3,2.6,0.6,6.5,0.6,11.4v8.5c0,2.3,1.2,3.5,3.5,3.5h1.5L886.9,314.2L886.9,314.2z" class="area" title=""></path>
	<path id="PATH_60" d="M893.9,308.4c0,3.8-2.1,5.9-5.9,5.9h-2.3v-3.5h2.1c2.9,0,4.4-0.6,4.4-1.5c0-0.9-0.6-2.1-2.1-3.5l1.2-2.9
		c0-0.3,0.3-0.3,0.3-0.3s0.3,0.3,0.6,0.6C893.4,304.6,893.9,306.6,893.9,308.4z M892.8,320.7l-2.3,2.3l-2.3-2.3l2.3-2.3L892.8,320.7
		z" class="area" title=""></path>
	<path id="PATH_61" d="M905.7,282.8c-1.2,1.2-2.9,1.5-4.7,1.5c-0.3,0-0.6,0-1.2,0s-0.9,0-1.2,0s-0.6,0.3-0.9,0.6
		c-0.3,0.3-0.6,0.6-0.6,0.6c-0.3,0-0.3-0.3-0.3-0.6s0.3-0.9,0.6-1.5c0.3-0.9,0.6-1.2,0.9-1.2c0.3,0,0.9,0,1.8,0.3
		c0.9,0,1.5,0.3,1.8,0.3c1.8,0,2.9,0,3.8-0.3c0.6,0,0.9-0.3,0.9-0.3h0.3C906.3,282.2,906,282.5,905.7,282.8z M903.6,310.7
		c0,1.2-0.3,2.3-0.9,3.2c-0.3,0.6-0.6,0.9-0.6,0.9s-0.3-0.3-0.3-1.2c0-3.5-0.6-11.7-1.8-25l2.3-2.3c0.3-0.3,0.3-0.3,0.3-0.3
		s0,0.3,0,0.6C903.6,290.5,903.6,298.4,903.6,310.7z" class="area" title=""></path>
	<path id="PATH_62" d="M934.8,308.1c0,4.1-2.6,6.2-8.2,6.2c-2.1,0-3.5-0.3-4.4-0.9c-1.2-0.6-1.8-2.1-1.8-3.8c0-0.9,0.3-1.8,0.6-2.6
		c0.3-0.3,0.3-0.6,0.6-0.6c0.3,0,0.3,0.3,0.3,0.9c0,0.3,0,0.6,0,0.9c0,1.2,0.6,2.1,1.8,2.3c0.6,0.3,1.8,0.3,3.2,0.3
		c4.4,0,6.5-0.6,6.5-2.1c0-2.1-2.6-5-7.6-8.5l0.9-2.9c0-0.3,0.3-0.3,0.3-0.3s0.3,0,0.6,0.3C932.4,301,934.8,304.8,934.8,308.1z" class="area" title=""></path>
	<path id="PATH_63" d="M953,314.2h-3.2c-0.3,4.1-1.8,7.3-4.7,10.3c-0.9,0.9-1.5,1.5-1.8,1.5c-1.5,0-3.5-0.3-5.6-0.6
		c-0.6,0-1.2-0.3-1.2-0.3s0.3-0.3,1.2-0.6c2.3-0.6,4.7-2.1,6.8-3.5c0.9-0.9,1.8-1.5,2.3-2.6c0.9-1.2,1.5-2.3,1.5-3.2v-0.9h-3.8
		c-2.9,0-4.1-1.2-4.1-3.5c0-1.5,0.3-2.9,1.2-4.7c0.9-1.8,2.1-2.9,3.2-2.9c1.5,0,2.6,0.9,3.5,2.9c0.6,1.5,1.2,2.9,1.2,4.7h3.2v3.5
		H953z M948,310.7c0-0.9-0.3-1.8-0.9-2.6c-0.6-1.2-1.5-1.5-2.3-1.5c-0.6,0-1.2,0.3-1.5,0.6c-0.6,0.6-0.6,0.9-0.6,1.8
		c0,1.5,1.2,2.1,3.5,2.1C946.2,311,946.8,311,948,310.7z" class="area" title=""></path>
	<path id="PATH_64" d="M974.1,314.2h-1.8c-1.5,0-2.9-0.9-4.1-2.3c-0.9,2.3-1.8,3.5-2.6,3.5c-0.9,0-2.3-0.6-4.1-1.5
		c-1.5-0.9-2.6-1.8-3.2-2.3c-1.5,1.8-2.9,2.6-4.4,2.6h-1.8v-3.5h1.8c1.5,0,2.6-0.6,3.8-1.8c0.9-0.9,1.8-2.1,2.9-3.2
		c1.2-1.2,2.1-1.8,2.9-1.8c1.2,0,2.1,0.6,2.9,1.8c0.6,0.6,1.2,1.8,2.6,3.2c0.9,1.2,2.1,1.8,3.2,1.8h1.8V314.2z M966.2,311.9
		c0-0.9-0.3-1.8-0.9-2.9c-0.6-1.2-1.5-1.8-2.6-1.8c-0.9,0-2.1,0.9-3.2,2.3c0.3,0.3,1.2,0.9,2.6,1.8c1.5,0.9,2.6,1.2,3.5,1.2
		C965.9,312.2,966.2,312.2,966.2,311.9z" class="area" title=""></path>
	<path id="PATH_65" d="M999.9,314.2H997c-3.8,0-5.9-2.1-5.9-5.9c0-0.6,0-0.9,0-1.5c-1.5,0.6-3.2,1.8-5.6,3.2c-2.3,1.5-3.8,2.3-5,2.9
		c-1.8,0.9-3.8,1.2-5.6,1.2h-2.1v-3.5h2.3c2.3,0,5-0.6,7.3-1.8c1.2-0.6,3.2-1.8,6.5-3.2c-0.6,0-2.3-0.6-5.3-1.2
		c-2.1-0.6-3.2-0.9-3.5-0.9c-1.2,0-2.3,0.6-3.5,1.5c-0.3,0.3-0.3,0.3-0.6,0.3c-0.3,0-0.3,0-0.3-0.3v-0.3c0.9-2.9,2.6-4.4,5-4.4
		c0.9,0,2.1,0.3,3.5,0.6c2.1,0.6,3.8,1.2,5.3,1.5c2.1,0.3,4.4,0.6,7,0.6c0.6,0,0.6,0,0.9,0c0,0,0,0.3,0,0.6l-0.9,2.6
		c-1.8,0-2.9,0-3.5,0.3c0,1.5,0.3,2.3,0.6,2.6c0.6,0.9,1.8,1.5,3.8,1.5h2.9v3.5H999.9z" class="area" title=""></path>
	<path id="PATH_66" d="M1014.3,308.4c0,1.5,0,2.6-0.6,3.8c-0.6,1.5-1.5,2.3-2.3,2.3c-1.5,0-3.8-0.9-6.8-2.9
		c-0.9,1.2-1.5,1.8-1.8,2.1c-0.9,0.6-1.8,0.9-2.9,0.9h-1.5V311h2.1c1.2,0,2.3-0.6,3.5-2.1c0.6-0.6,1.5-2.1,2.6-3.8
		c0.9-1.5,2.1-2.1,2.9-2.1c1.5,0,2.6,0.6,3.5,2.1C1013.7,306.3,1014.3,307.2,1014.3,308.4z M1012.6,310.4c0-0.9-0.3-1.8-0.9-2.9
		c-0.6-1.2-1.5-1.8-2.3-1.8c-0.9,0-1.8,0.9-2.9,2.6c0.6,0.6,1.5,1.2,2.6,1.8c1.2,0.6,2.3,0.9,2.9,0.9
		C1012.3,311.3,1012.6,311,1012.6,310.4z" class="area" title=""></path>
</g>
<g id="G_67" class="area" title="">
	<path id="PATH_68" d="M1090.6,296.6h-1.2c-1.2,0-1.8-0.3-2.3-0.6c0,0.3,0,0.6,0,0.9c0,2.6-0.9,5.3-2.6,7.9
		c-1.5,2.3-2.9,3.2-3.8,3.2c-2.3,0-4.1,0-5.9-0.3c-0.6,0-0.9-0.3-0.9-0.3s0.3-0.3,0.9-0.3c2.3-0.6,4.7-1.8,7-3.5
		c2.3-2.1,3.8-4.1,3.8-6.2c0-1.2-0.9-2.9-2.9-5l1.5-2.6c0-0.3,0.3-0.3,0.3-0.3l0.3,0.3c0.9,1.2,1.5,2.1,2.1,2.3
		c0.9,0.6,2.1,1.2,3.2,1.2h0.9v3.2H1090.6z" class="area" title=""></path>
	<path id="PATH_69" d="M1117.9,296.6h-1.8c-2.1,0-3.2-0.9-4.1-2.3c-0.6,1.8-2.1,2.3-3.8,2.3c-1.8,0-2.9-0.9-3.8-2.3
		c-0.9,1.8-2.1,2.3-3.8,2.3c-2.1,0-3.5-0.9-4.4-2.3c-1.2,1.8-2.6,2.3-4.7,2.3h-2.1v-3.5h2.3c2.1,0,3.5-1.2,3.8-3.5
		c0-0.6,0.3-0.9,0.6-0.9s0.3,0.3,0.6,0.9c0.3,2.3,1.5,3.5,3.8,3.5c2.1,0,3.5-1.2,3.5-3.5c0-0.6,0.3-0.9,0.6-0.9
		c0.3,0,0.6,0.3,0.6,0.9c0.3,2.3,1.5,3.5,2.9,3.5c2.1,0,3.5-1.2,3.5-3.5c0-0.6,0.3-0.9,0.6-0.9s0.6,0.3,0.6,0.9
		c0.3,2.3,1.5,3.5,3.5,3.5h1.8v3.5H1117.9z" class="area" title=""></path>
	<path id="PATH_70" d="M1128.8,296.6h-1.2c-2.6,0-4.4-0.9-5.3-2.9c-0.3,0.9-0.9,1.5-1.8,2.1s-1.8,0.9-2.6,0.9h-1.2v-3.5h1.2
		c2.3,0,3.5-0.9,3.5-2.9v-10.3c0-3.8,0-6.8-0.3-8.8l2.6-2.1v19.7c0,2.9,1.2,4.4,3.8,4.4h1.2V296.6z" class="area" title=""></path>
	<path id="PATH_71" d="M1135.9,290.8c0,3.8-2.1,5.9-5.9,5.9h-2.3v-3.5h2.1c2.9,0,4.4-0.6,4.4-1.5s-0.6-2.1-2.1-3.5l1.2-2.9
		c0-0.3,0.3-0.3,0.3-0.3s0.3,0.3,0.6,0.6C1135.3,286.9,1135.9,288.7,1135.9,290.8z M1134.7,303.1l-2.3,2.3l-2.3-2.3l2.3-2.3
		L1134.7,303.1z" class="area" title=""></path>
	<path id="PATH_72" d="M1147.3,296.6h-2.1c-2.1,0-3.8-0.9-4.4-2.6c-0.6-1.2-0.9-3.2-0.9-5.6v-5.6c0-2.6-0.3-6.5-0.6-11.4l1.8-2.1
		c0.3-0.3,0.6-0.3,0.6,0c0.3,2.6,0.6,6.5,0.6,11.4v8.8c0,2.3,1.2,3.5,3.5,3.5h1.5V296.6L1147.3,296.6z" class="area" title=""></path>
	<path id="PATH_73" d="M1154.3,290.8c0,3.8-2.1,5.9-5.9,5.9h-2.3v-3.5h2.1c2.9,0,4.4-0.6,4.4-1.5s-0.6-2.1-2.1-3.5l1.2-2.9
		c0-0.3,0.3-0.3,0.3-0.3s0.3,0.3,0.6,0.6C1153.8,286.9,1154.3,288.7,1154.3,290.8z M1153.5,303.1l-2.3,2.3l-2.3-2.3l2.3-2.3
		L1153.5,303.1z" class="area" title=""></path>
</g>
<g id="G_74" class="area" title="">
	<path id="PATH_75" d="M1260,246.7c0,2.9-0.9,5.6-2.6,8.2c-1.5,2.1-2.9,3.2-3.8,3.2c-2.3,0-4.1,0-5.9-0.3c-0.6,0-0.9-0.3-0.9-0.3
		s0.3-0.3,0.9-0.3c2.3-0.6,4.7-1.8,7-3.5c2.3-2.1,3.8-4.1,3.8-6.2c0-1.2-0.9-2.9-2.9-5l1.5-2.6c0-0.3,0.3-0.3,0.3-0.3l0.3,0.3
		c0.6,0.9,1.5,2.1,1.8,3.5C1259.7,244.4,1260,245.5,1260,246.7z" class="area" title=""></path>
	<path id="PATH_76" d="M1271.5,246.4h-2.1c-2.1,0-3.8-0.9-4.4-2.6c-0.6-1.2-0.9-3.2-0.9-5.6v-5.6c0-2.6-0.3-6.5-0.6-11.4l1.8-2.1
		c0.3-0.3,0.6-0.3,0.6,0c0.3,2.6,0.6,6.5,0.6,11.4v8.5c0,2.3,1.2,3.5,3.5,3.5h1.5L1271.5,246.4L1271.5,246.4z" class="area" title=""></path>
	<path id="PATH_77" d="M1286.2,246.4h-2.3c-2.6,0-4.4-0.9-5.6-2.6c-0.9,1.8-2.9,2.6-6.2,2.6h-1.8v-3.5h2.6c2.9,0,4.4-1.2,4.7-3.2
		c0-0.9,0.3-1.5,0.6-1.5c0.3,0,0.6,0.6,0.6,1.5c0.3,2.1,1.8,3.2,4.4,3.2h2.6v3.5H1286.2z M1279.7,252.9l-2.3,2.3l-2.3-2.3l2.3-2.3
		L1279.7,252.9z" class="area" title=""></path>
	<path id="PATH_78" d="M1293.2,240.6c0,3.8-2.1,5.9-5.9,5.9h-2.3v-3.5h2.1c2.9,0,4.4-0.6,4.4-1.5c0-0.9-0.6-2.1-2.1-3.5l1.2-2.9
		c0-0.3,0.3-0.3,0.3-0.3s0.3,0.3,0.6,0.6C1292.3,236.7,1293.2,238.8,1293.2,240.6z M1290.9,252.9l-2.3,2.3l-2.3-2.3l2.3-2.3
		L1290.9,252.9z M1295.9,252.9l-2.3,2.3l-2.3-2.3l2.3-2.3L1295.9,252.9z" class="area" title=""></path>
	<path id="PATH_79" d="M1314.1,246.4h-3.2c-0.3,4.1-1.8,7.3-4.7,10.3c-0.9,0.9-1.5,1.5-1.8,1.5c-1.5,0-3.5-0.3-5.6-0.6
		c-0.6,0-1.2-0.3-1.2-0.3s0.3-0.3,1.2-0.6c2.3-0.6,4.7-2.1,6.8-3.5c0.9-0.9,1.8-1.5,2.3-2.6c0.9-1.2,1.5-2.3,1.5-3.2v-0.9h-3.8
		c-2.9,0-4.1-1.2-4.1-3.5c0-1.5,0.3-2.9,1.2-4.7c0.9-1.8,2.1-2.9,3.2-2.9c1.5,0,2.6,0.9,3.5,2.9c0.6,1.5,1.2,2.9,1.2,4.7h3.2v3.5
		H1314.1z M1308.8,242.9c0-0.9-0.3-1.8-0.9-2.6c-0.6-1.2-1.5-1.5-2.3-1.5c-0.6,0-1.2,0.3-1.5,0.6c-0.3,0.3-0.6,0.9-0.6,1.8
		c0,1.5,1.2,2.1,3.5,2.1C1307.3,243.2,1307.9,242.9,1308.8,242.9z" class="area" title=""></path>
	<path id="PATH_80" d="M1337,237.9l-1.2,2.3c-2.1,0-3.8,0-4.7,0.3c-1.2,0.6-2.9,1.2-5.3,2.3c-2.3,1.2-4.1,2.1-5.3,2.3
		c-1.8,0.6-3.8,0.9-5.6,0.9h-2.1v-3.5h2.3c2.6,0,5-0.6,7-1.5l6.8-2.9c-1.2-0.3-2.9-0.9-5.3-1.8c-2.1-0.9-3.2-1.2-3.8-1.2
		c-1.2,0-2.3,0.6-3.5,1.5c-0.3,0.3-0.3,0.3-0.6,0.3c-0.3,0-0.3,0-0.3-0.3v-0.3c0.9-2.9,2.6-4.1,5-4.1c0.9,0,2.1,0.3,3.2,0.9
		c2.3,1.2,4.1,1.8,5.3,2.3c2.1,0.6,4.4,1.2,7,1.2c0.6,0,0.9,0,0.9,0.3C1337.2,237.3,1337.2,237.6,1337,237.9z M1327.3,252.3
		l-2.3,2.3l-2.3-2.3l2.3-2.3L1327.3,252.3z" class="area" title=""></path>
</g>
<g id="G_81" class="area" title="">
	<path id="PATH_82" d="M1348.7,163.9c0,4.1-2.6,6.2-8.2,6.2c-2.1,0-3.5-0.3-4.4-0.9c-1.2-0.6-1.8-2.1-1.8-3.8c0-0.9,0.3-1.8,0.6-2.6
		c0.3-0.3,0.3-0.6,0.6-0.6s0.3,0.3,0.3,0.9c0,0.3,0,0.6,0,0.9c0,1.2,0.6,2.1,1.8,2.3c0.6,0.3,1.8,0.3,3.2,0.3c4.4,0,6.5-0.6,6.5-2.1
		c0-2.1-2.6-5-7.6-8.5l0.9-2.9c0-0.3,0.3-0.3,0.3-0.3s0.3,0,0.6,0.3C1346.1,156.9,1348.7,160.7,1348.7,163.9z" class="area" title=""></path>
	<path id="PATH_83" d="M1363.7,168.9c0,4.4-1.5,8.2-4.4,11.2c-0.9,0.9-1.5,1.5-1.8,1.5c-1.8,0-3.5-0.3-5.6-0.6
		c-0.9,0-1.2-0.3-1.2-0.3s0.3-0.3,1.2-0.6c2.3-0.6,4.7-2.1,6.8-3.8c0.9-0.9,1.8-1.5,2.3-2.6c0.9-1.2,1.5-2.3,1.5-3.2v-0.9h-3.8
		c-2.6,0-4.1-1.2-4.1-3.2c0-1.5,0.3-2.9,1.2-4.7c0.9-1.8,2.1-2.9,3.2-2.9c1.8,0,3.2,1.2,4.1,3.8
		C1363.4,164.5,1363.7,166.6,1363.7,168.9z M1361.6,166.6c0-0.9-0.3-1.8-0.9-2.6s-1.5-1.5-2.3-1.5c-0.6,0-1.2,0.3-1.5,0.6
		s-0.6,0.9-0.6,1.5c0,1.5,0.9,2.1,2.9,2.1C1359.6,166.9,1360.4,166.6,1361.6,166.6z" class="area" title=""></path>
	<path id="PATH_84" d="M1378.6,170.4c0,2.9-0.9,5.6-2.6,8.2c-1.5,2.1-2.9,3.2-3.8,3.2c-2.3,0-4.1,0-5.9-0.3c-0.6,0-0.9-0.3-0.9-0.3
		s0.3-0.3,0.9-0.3c2.3-0.6,4.7-1.8,7-3.5c2.3-2.1,3.8-4.1,3.8-6.2c0-1.2-0.9-2.9-2.9-5l1.5-2.6c0-0.3,0.3-0.3,0.3-0.3l0.3,0.3
		c0.6,0.9,1.5,2.1,1.8,3.5C1378.3,168,1378.6,169.2,1378.6,170.4z" class="area" title=""></path>
	<path id="PATH_85" d="M1396.6,163.9c0,4.1-2.6,6.2-8.2,6.2c-2.1,0-3.5-0.3-4.4-0.9c-1.2-0.6-1.8-2.1-1.8-3.8c0-0.9,0.3-1.8,0.6-2.6
		c0.3-0.3,0.3-0.6,0.6-0.6s0.3,0.3,0.3,0.9c0,0.3,0,0.6,0,0.9c0,1.2,0.6,2.1,1.8,2.3c0.6,0.3,1.8,0.3,3.2,0.3c4.4,0,6.5-0.6,6.5-2.1
		c0-2.1-2.6-5-7.6-8.5l0.9-2.9c0-0.3,0.3-0.3,0.3-0.3s0.3,0,0.6,0.3C1394.2,156.9,1396.6,160.7,1396.6,163.9z" class="area" title=""></path>
	<path id="PATH_86" d="M1433.2,169.8c0.3,0.9,0.3,1.8,0.3,2.6c0,1.2-0.3,2.1-0.6,3.2c-0.9,2.1-2.3,3.8-5.3,5
		c-2.3,0.9-4.7,1.5-7.3,1.5s-4.7-0.6-6.5-1.8c-1.8-1.5-2.6-3.2-2.6-5.9c0-1.5,0.3-2.6,0.9-4.4c0.6-1.2,0.9-2.1,1.5-2.6
		c0.3-0.3,0.6-0.3,0.6-0.3c0.3,0,0.3,0,0.3,0.3c0,0,0,0.3,0,0.6c-0.9,1.8-1.2,3.5-1.2,5c0,1.5,0.6,2.6,1.5,3.8
		c1.2,1.5,3.2,2.1,5.9,2.1c2.9,0,5.6-0.6,7.6-1.5c1.8-0.9,2.9-1.8,3.5-2.9c0.3-0.3,0.3-0.9,0.3-1.2c0-0.9-0.3-1.8-0.6-2.9
		c-0.3-0.9-1.2-2.3-2.6-4.7l1.2-2.3c0.3-0.3,0.3-0.6,0.3-0.6s0.3,0,0.3,0.3C1432.1,165.1,1433,167.4,1433.2,169.8z M1424.7,156.9
		l-2.3,2.3l-2.3-2.3l2.3-2.3L1424.7,156.9z" class="area" title=""></path>
	<path id="PATH_87" d="M1445.3,170.1h-2.1c-2.1,0-3.8-0.9-4.4-2.6c-0.6-1.2-0.9-3.2-0.9-5.6v-5.6c0-2.6-0.3-6.5-0.6-11.4l1.8-2.1
		c0.3-0.3,0.6-0.3,0.6,0c0.3,2.6,0.6,6.5,0.6,11.4v8.5c0,2.3,1.2,3.5,3.5,3.5h1.5V170.1L1445.3,170.1z" class="area" title=""></path>
	<path id="PATH_88" d="M1459.7,170.1h-2.3c-2.6,0-4.4-0.9-5.6-2.6c-0.9,1.8-2.9,2.6-6.2,2.6h-1.8v-3.5h2.6c2.9,0,4.4-1.2,4.7-3.2
		c0-0.9,0.3-1.5,0.6-1.5s0.6,0.6,0.6,1.5c0.3,2.1,1.8,3.2,4.4,3.2h2.6v3.5H1459.7z M1450,176.6l-2.3,2.3l-2.3-2.3l2.3-2.3
		L1450,176.6z M1455,176.6l-2.3,2.3l-2.3-2.3l2.3-2.3L1455,176.6z" class="area" title=""></path>
	<path id="PATH_89" d="M1474.3,164.2c0,1.5,0,2.6-0.6,3.8c-0.6,1.5-1.5,2.3-2.3,2.3c-1.5,0-3.8-0.9-6.8-2.9
		c-0.9,1.2-1.5,1.8-1.8,2.1c-0.9,0.6-1.8,0.9-2.9,0.9h-1.5v-3.5h2.1c1.2,0,2.3-0.6,3.5-2.1c0.6-0.6,1.5-2.1,2.6-3.8
		c0.9-1.5,2.1-2.1,2.9-2.1c1.5,0,2.6,0.6,3.5,2.1C1473.8,162.2,1474.3,163,1474.3,164.2z M1472.6,166.3c0-0.9-0.3-1.8-0.9-2.9
		s-1.5-1.8-2.3-1.8c-0.9,0-1.8,0.9-2.9,2.6c0.6,0.6,1.5,1.2,2.6,1.8c1.2,0.6,2.3,0.9,2.9,0.9
		C1472.3,167.2,1472.6,166.9,1472.6,166.3z" class="area" title=""></path>
</g>
<g id="G_90" class="area" title="">
	<path id="PATH_91" d="M1524.3,346.2h-1.2c-1.2,0-1.8-0.3-2.3-0.6c0,0.3,0,0.6,0,0.9c0,2.6-0.9,5.3-2.6,7.9
		c-1.5,2.3-2.9,3.2-3.8,3.2c-2.3,0-4.1,0-5.9-0.3c-0.6,0-0.9-0.3-0.9-0.3s0.3-0.3,0.9-0.3c2.3-0.6,4.7-1.8,7-3.5
		c2.3-2.1,3.8-4.1,3.8-6.2c0-1.2-0.9-2.9-2.9-5l1.5-2.6c0-0.3,0.3-0.3,0.3-0.3l0.3,0.3c0.9,1.2,1.5,2.1,2.1,2.3
		c0.9,0.6,2.1,1.2,3.2,1.2h0.9v3.2H1524.3z" class="area" title=""></path>
	<path id="PATH_92" d="M1542.5,346.2h-1.5c-1.2,0-2.3,0.3-3.2,0.6c-1.5,0.6-2.3,1.5-2.3,2.9c0,1.8,1.2,3.2,3.5,4.7l-1.5,2.9
		c-2.6-0.9-5-2.3-6.8-4.1c-2.3-2.1-3.5-4.7-3.5-7.3h-4.1v-3.5h3.8c0-2.3,0.6-4.7,1.8-7.6c1.2-2.6,2.1-3.8,2.6-3.8s1.5,1.2,2.3,3.8
		c0.9,2.3,1.2,3.8,1.2,4.7c0,4.1-2.1,6.2-6.2,6.2c0.3,1.2,0.9,2.3,1.8,3.5c0.9,1.2,2.1,2.1,3.2,2.6c0-0.3,0-0.9,0-1.2
		c0-2.1,0.6-3.8,1.5-5.3c1.5-2.1,3.2-3.2,5.9-3.2h1.2v4.1H1542.5z M1533.7,341.5c0-0.6-0.3-1.8-0.9-3.2c-0.6-1.8-1.2-2.3-1.8-2.3
		c-0.3,0-0.9,0.6-1.5,2.1c-0.6,1.5-0.9,3.2-0.9,5C1531.9,342.7,1533.7,342.4,1533.7,341.5z" class="area" title=""></path>
	<path id="PATH_93" d="M1569.5,346.2h-1.8c-2.1,0-3.2-0.9-4.1-2.3c-0.6,1.8-2.1,2.3-3.8,2.3s-2.9-0.9-3.8-2.3
		c-0.9,1.8-2.1,2.3-3.8,2.3c-2.1,0-3.5-0.9-4.4-2.3c-1.2,1.8-2.6,2.3-4.7,2.3h-1.8v-3.5h2.3c2.1,0,3.5-1.2,3.8-3.5
		c0-0.6,0.3-0.9,0.6-0.9c0.3,0,0.3,0.3,0.6,0.9c0.3,2.3,1.5,3.5,3.8,3.5c2.1,0,3.5-1.2,3.5-3.5c0-0.6,0.3-0.9,0.6-0.9
		c0.3,0,0.6,0.3,0.6,0.9c0.3,2.3,1.5,3.5,2.9,3.5c2.1,0,3.5-1.2,3.5-3.5c0-0.6,0.3-0.9,0.6-0.9c0.3,0,0.6,0.3,0.6,0.9
		c0.3,2.3,1.5,3.5,3.5,3.5h1.8v3.5H1569.5z M1556,331.6l-2.1,2.1l-2.1-2.1l2.1-2.1L1556,331.6z M1558.6,326.9l-2.1,2.1l-2.1-2.1
		l2.1-2.1L1558.6,326.9z M1561.2,331.6l-2.1,2.1l-2.1-2.1l2.1-2.1L1561.2,331.6z" class="area" title=""></path>
	<path id="PATH_94" d="M1587.7,346.2h-1.5c-1.2,0-2.3,0.3-3.2,0.6c-1.5,0.6-2.3,1.5-2.3,2.9c0,1.8,1.2,3.2,3.5,4.7l-1.5,2.9
		c-2.6-0.9-5-2.3-6.8-4.1c-2.3-2.1-3.5-4.7-3.5-7.3h-4.1v-3.5h3.8c0-2.3,0.6-4.7,1.8-7.6c1.2-2.6,2.1-3.8,2.6-3.8
		c0.6,0,1.5,1.2,2.3,3.8c0.9,2.3,1.2,3.8,1.2,4.7c0,4.1-2.1,6.2-6.2,6.2c0.3,1.2,0.9,2.3,1.8,3.5c0.9,1.2,2.1,2.1,3.2,2.6
		c0-0.3,0-0.9,0-1.2c0-2.1,0.6-3.8,1.5-5.3c1.5-2.1,3.2-3.2,5.9-3.2h1.2v4.1H1587.7z M1578.9,341.5c0-0.6-0.3-1.8-0.9-3.2
		c-0.6-1.8-1.2-2.3-1.8-2.3c-0.3,0-0.9,0.6-1.5,2.1c-0.6,1.5-0.9,3.2-0.9,5C1577.1,342.7,1578.9,342.4,1578.9,341.5z" class="area" title=""></path>
	<path id="PATH_95" d="M1594.7,340.4c0,3.8-2.1,5.9-5.9,5.9h-2.3v-3.5h2.1c2.9,0,4.4-0.6,4.4-1.5s-0.6-2.1-2.1-3.5l1.2-2.9
		c0-0.3,0.3-0.3,0.3-0.3s0.3,0.3,0.6,0.6C1594.1,336.6,1594.7,338.6,1594.7,340.4z M1593.8,352.7l-2.3,2.3l-2.3-2.3l2.3-2.3
		L1593.8,352.7z" class="area" title=""></path>
</g>
<g id="G_96" class="area" title="">
	<path id="PATH_97" d="M1791.1,340.1c0,2.1-0.6,3.5-1.8,4.7c-1.2,1.2-2.9,1.5-4.7,1.5c-1.2,0-2.3-0.3-3.2-1.2
		c-0.9-0.9-1.5-1.8-1.5-2.9c0-1.5,0.6-2.9,1.8-5c0.9-1.8,2.1-3.2,3.2-4.4C1789.1,334.8,1791.1,337.1,1791.1,340.1z M1789.4,341.2
		c0-0.9-0.6-1.8-2.1-2.9c-1.2-1.2-2.1-1.8-3.2-2.1c-1.5,2.1-2.3,3.5-2.3,4.7c0,0.6,0.3,1.2,1.2,1.8c0.6,0.3,1.2,0.6,2.1,0.6
		c1.2,0,2.3-0.3,3.2-0.6C1789.1,341.8,1789.4,341.5,1789.4,341.2z" class="area" title=""></path>
	<path id="PATH_98" d="M1802.9,346.2h-2.1c-2.1,0-3.8-0.9-4.4-2.6c-0.6-1.2-0.9-3.2-0.9-5.6v-5.6c0-2.6-0.3-6.5-0.6-11.4l1.8-2.1
		c0.3-0.3,0.6-0.3,0.6,0c0.3,2.6,0.6,6.5,0.6,11.4v8.5c0,2.3,1.2,3.5,3.5,3.5h1.5V346.2z" class="area" title=""></path>
	<path id="PATH_99" d="M1820.5,322.5c0,0.6-0.3,1.5-0.9,3.2c-3.5,0.9-7.9,2.3-12.9,3.8c3.5,3.5,5.6,6.5,5.9,8.5
		c0.3,1.5,0,2.9-0.6,4.4s-1.8,2.3-3.2,2.9c-1.2,0.6-3.2,0.6-5.9,0.6h-1.2v-3.5h0.9c5.6,0,8.5-0.9,8.5-2.9c0-1.5-1.5-3.8-4.7-6.8
		l-0.3,0.9c-0.3-0.3-0.9-0.9-1.5-1.8c-0.9-0.9-1.2-1.5-1.2-1.8c0-0.9,0.3-1.8,1.2-2.6c0.3-0.3,2.1-0.9,5.9-2.1
		C1814,324.2,1817.5,323.3,1820.5,322.5z M1819.9,318.1l-0.6,2.1l-14.4,4.7l0.6-2.1L1819.9,318.1z" class="area" title=""></path>
	<path id="PATH_100" d="M1837.8,346.2h-2.9c-0.3,4.1-1.8,7.3-4.7,10.3c-0.9,0.9-1.5,1.5-1.8,1.5c-1.5,0-3.5-0.3-5.6-0.6
		c-0.6,0-1.2-0.3-1.2-0.3s0.3-0.3,1.2-0.6c2.3-0.6,4.7-2.1,6.8-3.5c0.9-0.9,1.8-1.5,2.3-2.6c0.9-1.2,1.5-2.3,1.5-3.2v-0.9h-3.8
		c-2.9,0-4.1-1.2-4.1-3.5c0-1.5,0.3-2.9,1.2-4.7c0.9-1.8,2.1-2.9,3.2-2.9c1.5,0,2.6,0.9,3.5,2.9c0.6,1.5,1.2,2.9,1.2,4.7h3.2V346.2z
		 M1832.8,342.7c0-0.9-0.3-1.8-0.9-2.6c-0.6-1.2-1.5-1.5-2.3-1.5c-0.6,0-1.2,0.3-1.5,0.6c-0.3,0.3-0.6,0.9-0.6,1.8
		c0,1.5,1.2,2.1,3.5,2.1C1831,343,1831.6,342.7,1832.8,342.7z" class="area" title=""></path>
	<path id="PATH_101" d="M1848.7,346.2h-1.2c-2.6,0-4.4-0.9-5.3-2.9c-0.3,0.9-0.9,1.5-1.8,2.1s-1.8,0.9-2.6,0.9h-1.2v-3.5h1.2
		c2.3,0,3.5-0.9,3.5-2.9v-10.3c0-3.8,0-6.8-0.3-8.8l2.6-2.1v19.7c0,2.9,1.2,4.4,3.8,4.4h1.2L1848.7,346.2L1848.7,346.2z" class="area" title=""></path>
	<path id="PATH_102" d="M1866.3,322.5c0,0.6-0.3,1.5-0.9,3.2c-3.5,0.9-7.9,2.3-12.9,3.8c3.5,3.5,5.6,6.5,5.9,8.5
		c0.3,1.5,0,2.9-0.6,4.4c-0.6,1.5-1.8,2.3-3.2,2.9c-1.2,0.6-3.2,0.6-5.9,0.6h-1.2v-3.5h0.9c5.6,0,8.5-0.9,8.5-2.9
		c0-1.5-1.5-3.8-4.7-6.8l-0.3,0.9c-0.3-0.3-0.9-0.9-1.5-1.8c-0.9-0.9-1.2-1.5-1.2-1.8c0-0.9,0.3-1.8,1.2-2.6
		c0.3-0.3,2.1-0.9,5.9-2.1C1860.1,324.2,1863.6,323.3,1866.3,322.5z M1865.7,318.1l-0.6,2.1l-14.4,4.7l0.6-2.1L1865.7,318.1z" class="area" title=""></path>
</g>
<g id="G_103" class="area" title="">
	<path id="PATH_104" d="M1579.2,534.1h-2.1c-2.1,0-3.8-0.9-4.4-2.6c-0.6-1.2-0.9-3.2-0.9-5.6v-5.6c0-2.6-0.3-6.5-0.6-11.4l1.8-2.1
		c0.3-0.3,0.6-0.3,0.6,0c0.3,2.6,0.6,6.5,0.6,11.4v8.5c0,2.3,1.2,3.5,3.5,3.5h1.5V534.1z" class="area" title=""></path>
	<path id="PATH_105" d="M1599.1,534.1h-2.1c-1.5,0-2.9-0.9-4.7-2.3c-0.9-0.9-2.1-2.3-3.5-4.4c0.3,4.7-2.3,7-7.9,7h-3.2v-3.5h3.8
		c3.8,0,5.9-1.2,5.9-3.2c0-1.2-0.6-2.6-2.1-4.4c-0.9-1.2-2.1-2.3-3.8-3.8c-1.5-1.2-2.1-2.1-2.1-2.1c0-2.1,0.3-3.5,0.9-4.4
		c0-0.3,2.1-0.9,5.9-2.3c3.8-1.5,7.3-2.6,10.6-3.5c0,0.3-0.3,1.5-0.9,3.2c-3.8,1.2-8.5,2.9-14.4,5.3c2.6,2.3,6.2,6.2,10,11.4
		c1.5,1.8,2.6,2.9,3.5,3.5c0.6,0.3,1.8,0.6,2.9,0.6h1.2V534.1z" class="area" title=""></path>
	<path id="PATH_106" d="M1606.2,528.6c0,3.8-2.1,5.9-5.9,5.9h-2.3v-3.5h2.1c2.9,0,4.4-0.6,4.4-1.5s-0.6-2.1-2.1-3.5l1.2-2.9
		c0-0.3,0.3-0.3,0.3-0.3s0.3,0.3,0.6,0.6C1605.6,524.7,1606.2,526.5,1606.2,528.6z M1605.9,515l-2.3,2.3l-2.3-2.3l2.3-2.3
		L1605.9,515z" class="area" title=""></path>
</g>
<g id="G_107" class="area" title="">
	<path id="PATH_108" d="M1450,609c0,0.6,0,0.9,0,0.9s-0.3,0-0.9-0.3c-0.9-0.6-2.1-0.9-3.5-0.9c-2.1,0-3.8,0.9-5.3,2.3
		s-2.1,2.3-2.1,3.2c0,0.9,1.5,1.8,4.1,2.1c2.9,0.6,4.7,1.2,5.3,2.1c0,0.3,0.3,0.6,0.3,0.9c0,1.5-0.6,3.2-1.5,5
		c-0.6,1.2-2.1,2.1-4.4,2.9c-2.9,1.2-5.9,1.8-9.7,1.8c-2.6,0-4.7-0.6-6.5-2.1s-2.6-3.5-2.6-5.9c0-2.6,0.9-5.3,2.6-7.6
		c0.3-0.3,0.6-0.6,0.9-0.6s0.3,0,0.3,0.3s0,0.3-0.3,0.9c-1.2,2.1-1.8,4.1-1.8,5.9c0,1.5,0.6,2.6,1.5,3.5c1.5,1.5,3.5,2.1,6.2,2.1
		c2.3,0,5-0.3,7.6-0.9c3.8-0.9,5.9-2.1,5.9-3.5c0-0.6-1.8-1.2-5.6-2.1c-1.5-0.3-2.3-0.6-2.9-0.9c-0.6-0.3-1.2-1.2-1.2-2.1
		c0-2.1,0.9-4.1,2.9-6.8c2.1-2.6,4.4-4.1,6.5-4.1C1448.2,605.5,1449.7,606.6,1450,609z" class="area" title=""></path>
	<path id="PATH_109" d="M1465,619.9c0,2.9-0.9,5.6-2.6,8.2c-1.5,2.1-2.9,3.2-3.8,3.2c-2.3,0-4.1,0-5.9-0.3c-0.6,0-0.9-0.3-0.9-0.3
		s0.3-0.3,0.9-0.3c2.3-0.6,4.7-1.8,7-3.5c2.3-2.1,3.8-4.1,3.8-6.2c0-1.2-0.9-2.9-2.9-5l1.5-2.6c0-0.3,0.3-0.3,0.3-0.3l0.3,0.3
		c0.6,0.9,1.5,2.1,1.8,3.5C1464.7,617.5,1465,619,1465,619.9z" class="area" title=""></path>
	<path id="PATH_110" d="M1476.7,619.6h-2.1c-2.1,0-3.8-0.9-4.4-2.6c-0.6-1.2-0.9-3.2-0.9-5.6v-5.6c0-2.6-0.3-6.5-0.6-11.4l1.8-2.1
		c0.3-0.3,0.6-0.3,0.6,0c0.3,2.6,0.6,6.5,0.6,11.4v8.5c0,2.3,1.2,3.5,3.5,3.5h1.5L1476.7,619.6L1476.7,619.6z" class="area" title=""></path>
	<path id="PATH_111" d="M1499.9,613.4c0,1.8-0.3,3.2-1.2,4.4s-2.3,2.1-3.8,2.1c-2.1,0-3.2-0.9-4.1-2.3c-1.2,1.8-2.3,2.3-4.1,2.3
		c-2.1,0-3.5-0.9-4.4-2.3c-1.2,1.8-2.6,2.3-4.7,2.3h-2.1v-3.5h2.3c2.1,0,3.5-1.2,3.8-3.5c0-0.6,0.3-0.9,0.6-0.9
		c0.3,0,0.3,0.3,0.6,0.9c0.3,2.3,1.5,3.5,3.8,3.5c1.2,0,2.3-0.3,2.9-0.9c0.3-0.6,0.6-1.2,0.9-2.3c0-0.6,0.3-0.9,0.6-0.9
		s0.3,0.3,0.6,0.9c0.3,2.3,1.5,3.5,3.5,3.5c2.3,0,3.2-0.6,3.2-1.5s-0.6-2.1-1.8-3.2l1.5-2.6c0.3-0.3,0.3-0.6,0.6-0.6
		s0.3,0.3,0.6,0.6C1499.3,610.5,1499.9,611.9,1499.9,613.4z" class="area" title=""></path>
</g>
<g id="G_125" class="area" title="">
	<path id="PATH_126" d="M1226.9,717.3c0,2.1-0.6,3.5-1.8,4.7c-1.2,1.2-2.9,1.5-4.7,1.5c-1.2,0-2.3-0.3-3.2-1.2
		c-0.9-0.9-1.5-1.8-1.5-2.9c0-1.5,0.6-2.9,1.8-5c0.9-1.8,2.1-3.2,3.2-4.4C1224.8,712,1226.9,714.4,1226.9,717.3z M1225.4,718.5
		c0-0.9-0.6-1.8-2.1-2.9c-1.2-1.2-2.1-1.8-3.2-2.1c-1.5,2.1-2.3,3.5-2.3,4.7c0,0.6,0.3,1.2,1.2,1.8c0.6,0.3,1.2,0.6,2.1,0.6
		c1.2,0,2.3-0.3,3.2-0.6C1224.8,719.1,1225.4,718.8,1225.4,718.5z" class="area" title=""></path>
	<path id="PATH_127" d="M1245.1,723.5h-3.2c-0.3,4.1-1.8,7.3-4.7,10.3c-0.9,0.9-1.5,1.5-1.8,1.5c-1.5,0-3.5-0.3-5.6-0.6
		c-0.6,0-1.2-0.3-1.2-0.3s0.3-0.3,1.2-0.6c2.3-0.6,4.7-2.1,6.8-3.5c0.9-0.9,1.8-1.5,2.3-2.6c0.9-1.2,1.5-2.3,1.5-3.2v-0.9h-3.8
		c-2.9,0-4.1-1.2-4.1-3.5c0-1.5,0.3-2.9,1.2-4.7s2.1-2.9,3.2-2.9c1.5,0,2.6,0.9,3.5,2.9c0.6,1.5,1.2,2.9,1.2,4.7h3.2v3.5H1245.1z
		 M1240.1,720c0-0.9-0.3-1.8-0.9-2.6c-0.6-1.2-1.5-1.5-2.3-1.5c-0.6,0-1.2,0.3-1.5,0.6c-0.3,0.3-0.6,0.9-0.6,1.8
		c0,1.5,1.2,2.1,3.5,2.1C1238.3,720.3,1238.9,720,1240.1,720z" class="area" title=""></path>
	<path id="PATH_128" d="M1263.3,696.2c0,0.6-0.6,1.8-1.2,3.2l-7.3,2.3c-3.2,1.2-5.6,2.1-6.8,2.6c2.3,2.3,3.8,4.1,4.7,5
		c1.5,2.1,2.3,3.8,2.6,5.9c0,1.5,0,2.9-0.6,4.1c-0.9,2.6-4.1,3.8-9.1,3.8h-1.5v-3.5h1.8c2.3,0,4.1,0,5-0.3c2.1-0.6,3.2-1.5,3.2-2.9
		c0-2.1-1.5-4.4-4.7-7.3l-0.3,0.6c-0.3-0.3-0.9-0.9-1.5-1.8c-0.9-0.9-1.2-1.8-1.2-1.8c0-0.6,0-1.2,0.3-2.3c0.3-1.2,0.6-1.8,0.9-2.1
		c0.3-0.3,2.3-1.2,6.2-2.3C1257.1,698.2,1260.6,697.1,1263.3,696.2z" class="area" title=""></path>
	<path id="PATH_129" d="M1280,717.3c0,4.1-2.6,6.2-8.2,6.2c-2.1,0-3.5-0.3-4.4-0.9c-1.2-0.6-1.8-2.1-1.8-3.8c0-0.9,0.3-1.8,0.6-2.6
		c0.3-0.3,0.3-0.6,0.6-0.6s0.3,0.3,0.3,0.9c0,0.3,0,0.6,0,0.9c0,1.2,0.6,2.1,1.8,2.3c0.6,0.3,1.8,0.3,3.2,0.3c4.4,0,6.5-0.6,6.5-2.1
		c0-2.1-2.6-5-7.6-8.5l0.9-2.9c0-0.3,0.3-0.3,0.3-0.3s0.3,0,0.6,0.3C1277.7,710.3,1280,714.1,1280,717.3z" class="area" title=""></path>
	<path id="PATH_130" d="M1287,720c0,1.2-0.3,2.3-0.9,3.2c-0.3,0.6-0.6,0.9-0.6,0.9s-0.3-0.3-0.3-1.2c0-3.5-0.6-11.7-1.8-25l2.3-2.3
		c0.3-0.3,0.3-0.3,0.3-0.3s0,0.3,0,0.6C1286.8,699.7,1287,707.6,1287,720z" class="area" title=""></path>
	<path id="PATH_131" d="M1305.2,723.5h-3.2c-0.3,4.1-1.8,7.3-4.7,10.3c-0.9,0.9-1.5,1.5-1.8,1.5c-1.5,0-3.5-0.3-5.6-0.6
		c-0.6,0-1.2-0.3-1.2-0.3s0.3-0.3,1.2-0.6c2.3-0.6,4.7-2.1,6.8-3.5c0.9-0.9,1.8-1.5,2.3-2.6c0.9-1.2,1.5-2.3,1.5-3.2v-0.9h-3.8
		c-2.9,0-4.1-1.2-4.1-3.5c0-1.5,0.3-2.9,1.2-4.7s2.1-2.9,3.2-2.9c1.5,0,2.6,0.9,3.5,2.9c0.6,1.5,1.2,2.9,1.2,4.7h3.2v3.5H1305.2z
		 M1300,720c0-0.9-0.3-1.8-0.9-2.6c-0.6-1.2-1.5-1.5-2.3-1.5c-0.6,0-1.2,0.3-1.5,0.6c-0.3,0.3-0.6,0.9-0.6,1.8
		c0,1.5,1.2,2.1,3.5,2.1C1298.2,720.3,1299.1,720,1300,720z" class="area" title=""></path>
	<path id="PATH_132" d="M1328.4,717.3c0,1.8-0.3,3.2-1.2,4.4c-0.9,1.2-2.3,2.1-3.8,2.1c-2.1,0-3.2-0.9-4.1-2.3
		c-1.2,1.8-2.3,2.3-4.1,2.3c-2.1,0-3.5-0.9-4.4-2.3c-1.2,1.8-2.6,2.3-4.7,2.3h-2.1v-3.5h2.3c2.1,0,3.5-1.2,3.8-3.5
		c0-0.6,0.3-0.9,0.6-0.9s0.3,0.3,0.6,0.9c0.3,2.3,1.5,3.5,3.8,3.5c1.2,0,2.3-0.3,2.9-0.9c0.3-0.6,0.6-1.2,0.9-2.3
		c0-0.6,0.3-0.9,0.6-0.9s0.3,0.3,0.6,0.9c0.3,2.3,1.5,3.5,3.5,3.5c2.3,0,3.2-0.6,3.2-1.5s-0.6-2.1-1.8-3.2l1.5-2.6
		c0.3-0.3,0.3-0.6,0.6-0.6c0.3,0,0.3,0.3,0.6,0.6C1327.9,714.4,1328.4,715.9,1328.4,717.3z" class="area" title=""></path>
</g>
<g id="G_133" class="area" title="">
	<path id="PATH_134" d="M1136.1,623.7h-1.5c-1.5,0-2.6-0.6-3.2-1.5c0,1.8-0.3,3.8-0.6,6.5c-0.9,2.1-2.3,3.8-4.7,4.7
		c-2.1,0.9-4.1,1.5-6.8,1.5c-2.6,0-4.4-0.6-5.9-1.5c-1.8-1.2-2.6-2.9-2.6-5.6c0-2.3,0.6-4.7,2.1-6.5c0.3-0.3,0.3-0.3,0.6-0.3
		c0.3,0,0.3,0,0.3,0.3v0.3c-0.6,1.5-0.9,2.9-0.9,4.1c0,1.8,0.6,3.2,2.1,4.4c1.2,0.9,2.6,1.5,4.7,1.5c1.8,0,3.8-0.3,5.9-1.2
		c2.9-0.9,4.1-2.1,4.1-3.5l-0.3-14.1c-0.3-6.8-0.3-11.4-0.6-14.7l2.3-2.1c0,0.9,0.3,4.1,0.6,10l0.3,11.4c0,1.8,1.2,2.9,3.5,2.9h0.9
		v3.2H1136.1z" class="area" title=""></path>
	<path id="PATH_135" d="M1143.2,617.8c0,3.8-2.1,5.9-5.9,5.9h-2.3v-3.5h2.1c2.9,0,4.4-0.6,4.4-1.5s-0.6-2.1-2.1-3.5l1.2-2.9
		c0-0.3,0.3-0.3,0.3-0.3s0.3,0.3,0.6,0.6C1142.6,614,1143.2,616,1143.2,617.8z M1142.3,630.1l-2.3,2.3l-2.3-2.3l2.3-2.3
		L1142.3,630.1z" class="area" title=""></path>
	<path id="PATH_136" d="M1154.9,623.7h-2.1c-2.1,0-3.8-0.9-4.4-2.6c-0.6-1.2-0.9-3.2-0.9-5.6v-5.6c0-2.6-0.3-6.5-0.6-11.4l1.8-2.1
		c0.3-0.3,0.6-0.3,0.6,0c0.3,2.6,0.6,6.5,0.6,11.4v8.5c0,2.3,1.2,3.5,3.5,3.5h1.5V623.7L1154.9,623.7z" class="area" title=""></path>
	<path id="PATH_137" d="M1162,617.8c0,3.8-2.1,5.9-5.9,5.9h-2.3v-3.5h2.1c2.9,0,4.4-0.6,4.4-1.5s-0.6-2.1-2.1-3.5l1.2-2.9
		c0-0.3,0.3-0.3,0.3-0.3s0.3,0.3,0.6,0.6C1161.4,614,1162,616,1162,617.8z M1161.1,630.1l-2.3,2.3l-2.3-2.3l2.3-2.3L1161.1,630.1z" class="area" title=""></path>
</g>
<g id="G_138" class="area" title="">
	<path id="PATH_139" d="M1238.9,490.1h-1.5c-1.8,0-3.2-0.3-4.1-1.2c0,0.3,0.3,0.9,0.3,1.5c0,2.9-0.9,4.7-2.9,4.7
		c-1.8,0-2.9-0.9-4.1-2.6c-0.9-1.5-1.2-3.2-1.2-5c0-0.3,0-0.9,0-1.2c-0.3,0-0.6,0-0.9,0c-2.1,0-3.2,0.6-4.1,1.5
		c0.6,4.7,0.9,8.2,0.9,10.6c0,1.2-0.3,2.3-0.9,4.1c-0.3,0.6-0.3,0.9-0.6,0.9c-0.3,0-0.3-0.3-0.3-1.2l-1.5-13.5
		c0-0.6,0.3-1.5,0.9-2.3c0.6-0.9,1.2-1.5,1.8-2.1c0.3-0.3,1.2-0.6,2.3-0.9c0.9-0.3,1.8-0.3,2.3-0.3c0.3,0,0.3,0,0.6,0l0.3-1.8
		c0-0.3,0.3-0.6,0.3-0.6s0.3,0,0.6,0.3c2.3,2.1,4.1,3.5,5,4.1c1.8,1.2,3.2,1.8,4.7,1.8h1.8v3.2H1238.9z M1232.4,489.8
		c0-0.9-0.6-1.8-1.8-2.9c-0.3-0.3-1.2-1.2-3.2-2.9c0,0.6,0,1.2,0,1.8c0,1.5,0.3,2.6,0.9,3.5c0.6,1.5,1.5,2.1,2.6,2.1
		C1231.9,491.6,1232.4,491,1232.4,489.8z" class="area" title=""></path>
	<path id="PATH_140" d="M1245.9,484.2c0,3.8-2.1,5.9-5.9,5.9h-2.3v-3.5h2.1c2.9,0,4.4-0.6,4.4-1.5s-0.6-2.1-2.1-3.5l1.2-2.9
		c0-0.3,0.3-0.3,0.3-0.3s0.3,0.3,0.6,0.6C1245.4,480.4,1245.9,482.5,1245.9,484.2z M1245.7,472.2l-0.3,1.5c-2.1,0.3-4.4,0.9-6.5,1.8
		v-1.2c0.3-0.3,0.9-0.6,1.8-1.2c-1.2-0.9-1.8-1.5-1.8-2.1c0-0.6,0.3-1.5,1.2-2.3c0.9-1.2,1.8-1.5,2.6-1.5c1.2,0,1.8,0.6,2.3,1.5
		c0,0.3,0.3,0.6,0,0.6s-0.3,0-0.6,0c-0.6-0.3-1.2-0.3-1.8-0.3c-0.3,0-0.6,0-1.2,0.3c-0.6,0.3-0.6,0.6-0.6,0.9c0,0.6,0.3,1.2,1.2,1.5
		c0.6,0.3,1.2,0.6,1.8,0.6s0.9,0,1.5-0.3l0,0c0.3,0,0.6,0,0.6,0C1245.7,471.9,1245.7,472.2,1245.7,472.2z" class="area" title=""></path>
	<path id="PATH_141" d="M1257.7,490.1h-2.1c-2.1,0-3.8-0.9-4.4-2.6c-0.6-1.2-0.9-3.2-0.9-5.6v-5.6c0-2.6-0.3-6.5-0.6-11.4l1.8-2.1
		c0.3-0.3,0.6-0.3,0.6,0c0.3,2.6,0.6,6.5,0.6,11.4v8.5c0,2.3,1.2,3.5,3.5,3.5h1.5V490.1L1257.7,490.1z" class="area" title=""></path>
	<path id="PATH_142" d="M1269.1,481.9c0,2.6-0.3,4.4-0.9,5.3c-1.5,2.1-3.8,2.9-7.6,2.9h-4.1v-3.5h2.9c5,0,7.6-0.9,8.2-2.3
		c0.3-0.6,0-1.2-0.3-1.8c-1.2,0.3-2.3,0.3-3.8,0.3c-2.6,0-4.1-1.2-4.1-3.5c0-1.5,0.3-3.2,1.2-4.7c0.9-1.8,2.1-2.6,3.5-2.6
		c1.2,0,2.3,0.9,3.2,2.3C1268.6,476.6,1269.1,478.9,1269.1,481.9z M1263.3,465.7l-2.3,2.3l-2.3-2.3l2.3-2.3L1263.3,465.7z
		 M1266.8,479.2c0-0.9-0.3-1.8-0.9-2.6c-0.6-0.9-1.5-1.2-2.3-1.2c-0.6,0-1.2,0.3-1.8,0.6c-0.6,0.3-0.6,0.9-0.6,1.5
		c0,1.2,0.9,1.8,2.9,1.8C1264.7,479.5,1265.6,479.5,1266.8,479.2z M1268.3,465.7l-2.3,2.3l-2.3-2.3l2.3-2.3L1268.3,465.7z" class="area" title=""></path>
	<path id="PATH_143" d="M1227.4,546.5h-1.2c-1.2,0-1.8-0.3-2.3-0.6c0,0.3,0,0.6,0,0.9c0,2.6-0.9,5.3-2.6,7.9
		c-1.5,2.3-2.9,3.2-3.8,3.2c-2.3,0-4.1,0-5.9-0.3c-0.6,0-0.9-0.3-0.9-0.3s0.3-0.3,0.9-0.3c2.3-0.6,4.7-1.8,7-3.5
		c2.3-2.1,3.8-4.1,3.8-6.2c0-1.2-0.9-2.9-2.9-5l1.5-2.6c0-0.3,0.3-0.3,0.3-0.3l0.3,0.3c0.9,1.2,1.5,2.1,2.1,2.3
		c0.9,0.6,2.1,1.2,3.2,1.2h0.9v3.2H1227.4z" class="area" title=""></path>
	<path id="PATH_144" d="M1245.7,546.5h-1.5c-1.2,0-2.3,0.3-3.2,0.6c-1.5,0.6-2.3,1.5-2.3,2.9c0,1.8,1.2,3.2,3.5,4.7l-1.5,2.9
		c-2.6-0.9-5-2.3-6.8-4.1c-2.3-2.1-3.5-4.7-3.5-7.3h-4.1v-3.2h3.8c0-2.3,0.6-4.7,1.8-7.6c1.2-2.6,2.1-3.8,2.6-3.8
		c0.6,0,1.5,1.2,2.3,3.8c0.9,2.3,1.2,3.8,1.2,4.7c0,4.1-2.1,6.2-6.2,6.2c0.3,1.2,0.9,2.3,1.8,3.5c0.9,1.2,2.1,2.1,3.2,2.6
		c0-0.3,0-0.9,0-1.2c0-2.1,0.6-3.8,1.5-5.3c1.5-2.1,3.2-3.2,5.9-3.2h1.2v3.8H1245.7z M1236.8,541.8c0-0.6-0.3-1.8-0.9-3.2
		c-0.6-1.8-1.2-2.3-1.8-2.3c-0.3,0-0.9,0.6-1.5,2.1c-0.6,1.5-0.9,3.2-0.9,5C1235.1,542.9,1236.8,542.6,1236.8,541.8z" class="area" title=""></path>
	<path id="PATH_145" d="M1268.8,540.3c0,1.8-0.3,3.2-1.2,4.4c-0.9,1.2-2.3,2.1-3.8,2.1c-2.1,0-3.2-0.9-4.1-2.3
		c-1.2,1.8-2.3,2.3-4.1,2.3c-2.1,0-3.5-0.9-4.4-2.3c-1.2,1.8-2.6,2.3-4.7,2.3h-2.1v-3.8h2.3c2.1,0,3.5-1.2,3.8-3.5
		c0-0.6,0.3-0.9,0.6-0.9s0.3,0.3,0.6,0.9c0.3,2.3,1.5,3.5,3.8,3.5c1.2,0,2.3-0.3,2.9-0.9c0.3-0.6,0.6-1.2,0.9-2.3
		c0-0.6,0.3-0.9,0.6-0.9s0.3,0.3,0.6,0.9c0.3,2.3,1.5,3.5,3.5,3.5c2.3,0,3.2-0.6,3.2-1.5c0-0.9-0.6-2.1-1.8-3.2l1.5-2.6
		c0.3-0.3,0.3-0.6,0.6-0.6c0.3,0,0.3,0.3,0.6,0.6C1268.3,537.4,1268.8,538.8,1268.8,540.3z M1258.9,529.4l-2.1,2.1l-2.1-2.1l2.1-2.1
		L1258.9,529.4z M1261.5,525l-2.1,2.1l-2.1-2.1l2.1-2.1L1261.5,525z M1264.1,529.4l-2.1,2.1l-2.1-2.1l2.1-2.1L1264.1,529.4z" class="area" title=""></path>
</g>
<g id="G_146" class="area" title="">
	<path id="PATH_147" d="M807,608.1c0,2.9-0.9,5.6-2.6,8.2c-1.5,2.1-2.9,3.2-3.8,3.2c-2.3,0-4.1,0-5.9-0.3c-0.6,0-0.9-0.3-0.9-0.3
		s0.3-0.3,0.9-0.3c2.3-0.6,4.7-1.8,7-3.5c2.3-2.1,3.8-4.1,3.8-6.2c0-1.2-0.9-2.9-2.9-5l1.5-2.6c0-0.3,0.3-0.3,0.3-0.3l0.3,0.3
		c0.6,0.9,1.5,2.1,1.8,3.5C806.8,606.1,807,607.2,807,608.1z" class="area" title=""></path>
	<path id="PATH_148" d="M825.2,608.1H822c-0.3,4.1-1.8,7.3-4.7,10.3c-0.9,0.9-1.5,1.5-1.8,1.5c-1.5,0-3.5-0.3-5.6-0.6
		c-0.6,0-1.2-0.3-1.2-0.3s0.3-0.3,1.2-0.6c2.3-0.6,4.7-2.1,6.8-3.5c0.9-0.9,1.8-1.5,2.3-2.6c0.9-1.2,1.5-2.3,1.5-3.2v-0.9h-3.8
		c-2.9,0-4.1-1.2-4.1-3.5c0-1.5,0.3-2.9,1.2-4.7c0.9-1.8,2.1-2.9,3.2-2.9c1.5,0,2.6,0.9,3.5,2.9c0.6,1.5,1.2,2.9,1.2,4.7h3.2v3.5
		H825.2z M820,604.6c0-0.9-0.3-1.8-0.9-2.6c-0.6-1.2-1.5-1.5-2.3-1.5c-0.6,0-1.2,0.3-1.5,0.6c-0.6,0.6-0.6,0.9-0.6,1.8
		c0,1.5,1.2,2.1,3.5,2.1C818.5,604.6,819.1,604.6,820,604.6z" class="area" title=""></path>
	<path id="PATH_149" d="M832.3,602.2c0,3.8-2.1,5.9-5.9,5.9h-2.3v-3.5h2.1c2.9,0,4.4-0.6,4.4-1.5s-0.6-2.1-2.1-3.5l1.2-2.9
		c0-0.3,0.3-0.3,0.3-0.3s0.3,0.3,0.6,0.6C831.7,598.4,832.3,600.2,832.3,602.2z M832,588.7l-2.3,2.3l-2.3-2.3l2.3-2.3L832,588.7z" class="area" title=""></path>
</g>
<g id="G_150" class="area" title="">
	<path id="PATH_151" d="M943.6,771.3h-1.2c-1.5,0-2.6-0.6-3.2-1.5c0,1.8-0.3,3.8-0.6,6.5c-0.9,2.1-2.3,3.8-4.7,4.7
		c-2.1,0.9-4.1,1.5-6.8,1.5c-2.6,0-4.4-0.6-5.9-1.5c-1.8-1.2-2.6-2.9-2.6-5.6c0-2.3,0.6-4.7,2.1-6.5c0.3-0.3,0.3-0.3,0.6-0.3
		c0.3,0,0.3,0,0.3,0.3v0.3c-0.6,1.5-0.9,2.9-0.9,4.1c0,1.8,0.6,3.2,2.1,4.4c1.2,0.9,2.6,1.5,4.7,1.5c1.8,0,3.8-0.3,5.9-1.2
		c2.9-0.9,4.1-2.1,4.1-3.5l-0.3-14.1c-0.3-6.8-0.3-11.4-0.6-14.7l2.3-2.1c0,0.9,0.3,4.1,0.6,10l0.3,11.4c0,1.8,1.2,2.9,3.5,2.9h0.9
		v3.2H943.6z" class="area" title=""></path>
	<path id="PATH_152" d="M958.2,765.5c0,1.5,0,2.6-0.6,3.8c-0.6,1.5-1.5,2.3-2.3,2.3c-1.5,0-3.8-0.9-6.8-2.9
		c-0.9,1.2-1.5,1.8-1.8,2.1c-0.9,0.6-1.8,0.9-2.9,0.9h-1.5v-3.5h2.1c1.2,0,2.3-0.6,3.5-2.1c0.6-0.6,1.5-2.1,2.6-3.8
		c0.9-1.5,2.1-2.1,2.9-2.1c1.5,0,2.6,0.6,3.5,2.1C957.7,763.4,958.2,764.3,958.2,765.5z M956.5,767.5c0-0.9-0.3-1.8-0.9-2.9
		c-0.6-1.2-1.5-1.8-2.3-1.8s-1.8,0.9-2.9,2.6c0.6,0.6,1.5,1.2,2.6,1.8c1.2,0.6,2.3,0.9,2.9,0.9C956.2,768.4,956.5,768.1,956.5,767.5
		z" class="area" title=""></path>
	<path id="PATH_153" d="M970,739.9c-1.2,1.2-2.9,1.5-4.7,1.5c-0.3,0-0.6,0-1.2,0s-0.9,0-1.2,0s-0.6,0.3-0.9,0.6
		c-0.3,0.3-0.6,0.6-0.6,0.6c-0.3,0-0.3-0.3-0.3-0.6s0.3-0.9,0.6-1.5c0.3-0.9,0.6-1.2,0.9-1.2c0.3,0,0.9,0,1.8,0.3
		c0.9,0.3,1.5,0.3,1.8,0.3c1.8,0,2.9,0,3.8-0.3c0.6,0,0.9-0.3,0.9-0.3h0.3C970.6,739.3,970.6,739.6,970,739.9z M968.2,767.5
		c0,1.2-0.3,2.3-0.9,3.2c-0.3,0.6-0.6,0.9-0.6,0.9s-0.3-0.3-0.3-1.2c0-3.5-0.6-11.7-1.8-25l2.3-2.3c0.3-0.3,0.3-0.3,0.3-0.3
		s0,0.3,0,0.6C967.9,747.6,968.2,755.5,968.2,767.5z" class="area" title=""></path>
</g>
<g id="G_154" class="area" title="">
	<path id="PATH_155" d="M608.6,547.3h-1.2c-1.2,0-1.8-0.3-2.3-0.6c0,0.3,0,0.6,0,0.9c0,2.6-0.9,5.3-2.6,7.9
		c-1.5,2.3-2.9,3.2-3.8,3.2c-2.3,0-4.1,0-5.9-0.3c-0.6,0-0.9-0.3-0.9-0.3s0.3-0.3,0.9-0.3c2.3-0.6,4.7-1.8,7-3.5
		c2.3-2.1,3.8-4.1,3.8-6.2c0-1.2-0.9-2.9-2.9-5l1.5-2.6c0-0.3,0.3-0.3,0.3-0.3l0.3,0.3c0.9,1.2,1.5,2.1,2.1,2.3
		c0.9,0.6,2.1,1.2,3.2,1.2h0.9v3.2H608.6z" class="area" title=""></path>
	<path id="PATH_156" d="M626.8,547.3h-1.5c-1.2,0-2.3,0.3-3.2,0.6c-1.5,0.6-2.3,1.5-2.3,2.9c0,1.8,1.2,3.2,3.5,4.7l-1.5,2.9
		c-2.6-0.9-5-2.3-6.8-4.1c-2.3-2.1-3.5-4.7-3.5-7.3h-4.1v-3.5h3.8c0-2.3,0.6-4.7,1.8-7.6c1.2-2.6,2.1-3.8,2.6-3.8
		c0.6,0,1.5,1.2,2.3,3.8c0.9,2.3,1.2,3.8,1.2,4.7c0,4.1-2.1,6.2-6.2,6.2c0.3,1.2,0.9,2.3,1.8,3.5s2.1,2.1,3.2,2.6c0-0.3,0-0.9,0-1.2
		c0-2.1,0.6-3.8,1.5-5.3c1.5-2.1,3.2-3.2,5.9-3.2h1.2v4.1H626.8z M617.7,542.6c0-0.6-0.3-1.8-0.9-3.2c-0.6-1.8-1.2-2.3-1.8-2.3
		c-0.3,0-0.9,0.6-1.5,2.1s-0.9,3.2-0.9,5C616.2,543.8,617.7,543.5,617.7,542.6z" class="area" title=""></path>
	<path id="PATH_157" d="M650,540.9c0,1.8-0.3,3.2-1.2,4.4c-0.9,1.2-2.3,2.1-3.8,2.1c-2.1,0-3.2-0.9-4.1-2.3
		c-1.2,1.8-2.3,2.3-4.1,2.3c-2.1,0-3.5-0.9-4.4-2.3c-1.2,1.8-2.6,2.3-4.7,2.3h-2.1v-3.5h2.3c2.1,0,3.5-1.2,3.8-3.5
		c0-0.6,0.3-0.9,0.6-0.9s0.3,0.3,0.6,0.9c0.3,2.3,1.5,3.5,3.8,3.5c1.2,0,2.3-0.3,2.9-0.9c0.3-0.6,0.6-1.2,0.9-2.3
		c0-0.6,0.3-0.9,0.6-0.9c0.3,0,0.3,0.3,0.6,0.9c0.3,2.3,1.5,3.5,3.5,3.5c2.3,0,3.2-0.6,3.2-1.5c0-0.9-0.6-2.1-1.8-3.2l1.5-2.6
		c0.3-0.3,0.3-0.6,0.6-0.6c0.3,0,0.3,0.3,0.6,0.6C649.4,538.2,650,539.7,650,540.9z M640,530.3l-2.1,2.1l-2.1-2.1l2.1-2.1L640,530.3
		z M642.6,525.6l-2.1,2.1l-2.1-2.1l2.1-2.1L642.6,525.6z M645.3,530.3l-2.1,2.1l-2.1-2.1l2.1-2.1L645.3,530.3z" class="area" title=""></path>
	<path id="PATH_158" d="M668.2,547.3H665c-0.3,4.1-1.8,7.3-4.7,10.3c-0.9,0.9-1.5,1.5-1.8,1.5c-1.5,0-3.5-0.3-5.6-0.6
		c-0.6,0-1.2-0.3-1.2-0.3s0.3-0.3,1.2-0.6c2.3-0.6,4.7-2.1,6.8-3.5c0.9-0.9,1.8-1.5,2.3-2.6c0.9-1.2,1.5-2.3,1.5-3.2v-0.9h-3.8
		c-2.9,0-4.1-1.2-4.1-3.5c0-1.5,0.3-2.9,1.2-4.7s2.1-2.9,3.2-2.9c1.5,0,2.6,0.9,3.5,2.9c0.6,1.5,1.2,2.9,1.2,4.7h3.2v3.5H668.2z
		 M662.9,543.8c0-0.9-0.3-1.8-0.9-2.6c-0.6-1.2-1.5-1.5-2.3-1.5c-0.6,0-1.2,0.3-1.5,0.6c-0.6,0.6-0.6,0.9-0.6,1.8
		c0,1.5,1.2,2.1,3.5,2.1C661.4,543.8,662,543.8,662.9,543.8z" class="area" title=""></path>
	<path id="PATH_159" d="M675.2,541.5c0,3.8-2.1,5.9-5.9,5.9H667v-3.5h2.1c2.9,0,4.4-0.6,4.4-1.5s-0.6-2.1-2.1-3.5l1.2-2.9
		c0-0.3,0.3-0.3,0.3-0.3s0.3,0.3,0.6,0.6C674.6,537.7,675.2,539.4,675.2,541.5z M674.9,528l-2.3,2.3l-2.3-2.3l2.3-2.3L674.9,528z" class="area" title=""></path>
</g>
<g id="G_160" class="area" title="">
	<path id="PATH_161" d="M379.3,560.3h-1.2c-1.5,0-2.6-0.3-3.2-0.9c-0.9-0.6-1.5-1.8-1.5-2.9c-3.2,2.9-8.2,4.4-15,4.4
		c-7,0-10.6-2.1-10.6-6.5c0-1.5,0.6-2.9,1.8-4.4c0.3-0.3,0.3-0.3,0.6-0.3c0.3,0,0.3,0,0.3,0.3c0,0,0,0.3,0,0.6
		c-0.3,0.9-0.6,1.8-0.6,2.6c0,2.9,3.2,4.4,9.7,4.4c7.3,0,12.3-1.5,14.7-4.7c0.6-0.6,0.9-0.9,1.2-0.9s0.3,0.3,0.3,0.6s0,0.6-0.3,1.2
		c0,0.6-0.3,0.9-0.3,1.2c0,1.5,1.2,2.3,3.2,2.3h1.2v2.9H379.3z M361.1,543.2l-2.3,2.3l-2.3-2.3l2.3-2.3L361.1,543.2z M366.1,543.2
		l-2.3,2.3l-2.3-2.3l2.3-2.3L366.1,543.2z" class="area" title=""></path>
	<path id="PATH_162" d="M402.5,553.8c0,1.8-0.3,3.2-1.2,4.4c-0.9,1.2-2.3,2.1-3.8,2.1c-2.1,0-3.2-0.9-4.1-2.3
		c-1.2,1.8-2.3,2.3-4.1,2.3c-2.1,0-3.5-0.9-4.4-2.3c-1.2,1.8-2.6,2.3-4.7,2.3h-2.1v-3.5h2.3c2.1,0,3.5-1.2,3.8-3.5
		c0-0.6,0.3-0.9,0.6-0.9c0.3,0,0.3,0.3,0.6,0.9c0.3,2.3,1.5,3.5,3.8,3.5c1.2,0,2.3-0.3,2.9-0.9c0.3-0.6,0.6-1.2,0.9-2.3
		c0-0.6,0.3-0.9,0.6-0.9c0.3,0,0.3,0.3,0.6,0.9c0.3,2.3,1.5,3.5,3.5,3.5c2.3,0,3.2-0.6,3.2-1.5c0-0.9-0.6-2.1-1.8-3.2l1.5-2.6
		c0.3-0.3,0.3-0.6,0.6-0.6s0.3,0.3,0.6,0.6C401.9,551.2,402.5,552.6,402.5,553.8z M392.5,543.2l-2.1,2.1l-2.1-2.1l2.1-2.1
		L392.5,543.2z M395.2,538.5l-2.1,2.1l-2.1-2.1l2.1-2.1L395.2,538.5z M397.8,543.2l-2.1,2.1l-2.1-2.1l2.1-2.1L397.8,543.2z" class="area" title=""></path>
	<path id="PATH_163" d="M420.4,554.1c0,4.1-2.6,6.2-8.2,6.2c-2.1,0-3.5-0.3-4.4-0.9c-1.2-0.6-1.8-2.1-1.8-3.8c0-0.9,0.3-1.8,0.6-2.6
		c0.3-0.3,0.3-0.6,0.6-0.6c0.3,0,0.3,0.3,0.3,0.9c0,0.3,0,0.6,0,0.9c0,1.2,0.6,2.1,1.8,2.3c0.6,0.3,1.8,0.3,3.2,0.3
		c4.4,0,6.5-0.6,6.5-2.1c0-2.1-2.6-5-7.6-8.5l0.9-2.9c0-0.3,0.3-0.3,0.3-0.3s0.3,0,0.6,0.3C418.1,547,420.4,550.6,420.4,554.1z" class="area" title=""></path>
	<path id="PATH_164" d="M435.1,560.6c0,2.9-0.9,5.6-2.6,8.2c-1.5,2.1-2.9,3.2-3.8,3.2c-2.3,0-4.1,0-5.9-0.3c-0.6,0-0.9-0.3-0.9-0.3
		s0.3-0.3,0.9-0.3c2.3-0.6,4.7-1.8,7-3.5c2.3-2.1,3.8-4.1,3.8-6.2c0-1.2-0.9-2.9-2.9-5l1.5-2.6c0-0.3,0.3-0.3,0.3-0.3l0.3,0.3
		c0.6,0.9,1.5,2.1,1.8,3.5C434.8,558.2,435.1,559.4,435.1,560.6z" class="area" title=""></path>
	<path id="PATH_165" d="M462.7,560.3h-1.8c-3.5,0-5.6-2.6-5.6-7.9c0-0.6,0-1.5,0-2.6c-2.3,5.6-5,9.7-8.5,12
		c-2.1,0.6-4.7,0.9-7.6,0.9c-0.6,0-0.9,0-0.9,0s0.9-0.6,2.6-1.5c1.2-0.6,2.3-1.2,3.5-1.8c2.1-0.9,4.1-2.3,5.9-4.4
		c-0.9-2.9-2.1-5.6-3.8-7.9c-1.2-1.5-2.9-3.2-5.6-5.3l-0.6,1.2c-0.9-0.6-1.5-1.2-2.1-1.8c-0.9-0.9-1.5-1.5-1.5-2.1s0-1.5,0.3-2.9
		c0-0.3,0-0.6,0.3-0.6c0.3,0,0.3,0,0.6,0.3c3.8,2.6,6.8,5.3,8.5,7.6c2.3,2.9,3.8,6.2,4.7,10c1.2-1.5,2.1-2.9,2.6-4.7
		c0.9-2.1,1.2-3.8,1.2-5.3c0-2.6-0.3-5.6-0.6-8.8l2.3-2.1c0.3,1.5,0.3,8.2,0.6,20.3c0,2.6,1.2,4.1,3.5,4.1h1.5v3.2H462.7z" class="area" title=""></path>
	<path id="PATH_166" d="M480.9,533c0,0.6-0.6,1.8-1.2,3.2l-7.3,2.3c-3.2,1.2-5.6,2.1-6.8,2.6c2.3,2.3,3.8,4.1,4.7,5
		c1.5,2.1,2.3,3.8,2.6,5.9c0,1.5,0,2.9-0.6,4.1c-0.9,2.6-4.1,3.8-9.1,3.8h-1.5v-3.5h1.8c2.3,0,4.1,0,5-0.3c2.1-0.6,3.2-1.5,3.2-2.9
		c0-2.1-1.5-4.4-4.7-7.3l-0.3,0.6c-0.3-0.3-0.9-0.9-1.5-1.8c-0.9-0.9-1.2-1.8-1.2-1.8c0-0.6,0-1.2,0.3-2.3c0.3-1.2,0.6-1.8,0.9-2.1
		c0.3-0.3,2.3-1.2,6.2-2.3C474.7,535,478.2,533.8,480.9,533z" class="area" title=""></path>
</g>
<g id="G_140" class="area" title="">
	<path d="M1236,581l0.2-0.1c1.1,1,4.4,3,5,5c0.2,0.8,0.3,1.3,0.3,2c0,1.1-0.4,2.6-0.9,3.3c-1.1,1.2-2.4,1.6-3.6,1.6
		c-0.9,0-1.6-0.2-2.1-0.5c-1.2-0.8-1.8-2.2-1.8-3.9c0-1.2,0.5-2.5,1.1-3.4c0.4-0.7,0.9-1.4,1.7-2.2
		C1235.8,582.2,1235.9,581.6,1236,581z M1234.1,588.1c0,1.3,1.4,2.4,2.9,2.4c1,0,1.9-0.4,2.7-0.9c0.6-0.4,0.8-0.8,0.8-1.2
		c0-0.6-0.5-1.3-0.9-1.9c-0.7-0.9-1.8-1.7-2.8-2.3C1235.1,585.5,1234.1,586.8,1234.1,588.1z" id="PATH_141" class="area"></path>
	<path d="M1249.2,592.6h-0.2c-1.4,0-2.3-0.3-3-1c-1.1-1.1-1.1-2.3-1.1-4.9c0-3.3-0.2-6.8-0.5-10.6c0.6-0.7,1.1-1.2,1.7-1.6l0.1,0.1
		c0.3,3.8,0.3,8.4,0.3,12.7v1c0,1.1,0.6,1.6,1.3,1.9c0.4,0.2,0.9,0.2,1.1,0.2h0.2V592.6z" id="PATH_142" class="area"></path>
	<path d="M1260.1,574.4c-0.4,0.7-0.8,1.4-1.3,2.2c-0.9,0.2-1.9,0.5-2.8,0.9c-1.9,0.7-3.8,1.4-5.9,2.3v0.1l2.9,0.8l-0.4,0.9
		c2.9,2.1,4.5,4,4.5,5.8c0,1.6-0.4,2.9-1.1,3.6c-1.1,1-2.9,1.6-6.1,1.6h-0.7c-1,0-1.2-0.7-1.2-1.2c0-0.4,0.3-1.1,1.2-1.1h1.1
		c1.8,0,3.5-0.2,4.7-0.9c0.6-0.4,1-0.7,1-0.9c0-0.8-0.6-1.8-1.3-2.7c-0.9-1-2.7-2.4-5.3-4.3c-0.4-0.3-0.5-0.9-0.5-1.5
		c0-0.4,0.2-0.7,0.4-1.1c0.1-0.3,0.5-0.6,1.3-1C1252.6,576.8,1256,575.6,1260.1,574.4L1260.1,574.4z M1249.7,576.7
		c0.1-0.4,0.2-0.7,0.5-1.1c2.3-1.1,5.3-2.2,9.2-3.4l0,0l-0.6,1C1254.9,574.5,1252,575.6,1249.7,576.7L1249.7,576.7z" id="PATH_143" class="area"></path>
	<path d="M1267.7,586.5c1,2.4,1.9,3.8,4,3.8h0.3v2.2h-0.4c-0.8,0-1.3-0.2-1.8-0.6h-0.1c0,0.2,0,0.4,0,0.6c0,0.8-0.2,1.9-0.7,2.7
		c-1.4,2.4-2.9,3.5-4.2,3.5c-1.3,0-2.9-0.6-4.4-1.4l0.3-0.6c0.5,0.2,1.1,0.4,2,0.4c2.4,0,5.4-2.7,5.8-5.3c-0.1-0.2-0.2-0.5-0.5-0.8
		c-0.7-1-1.1-1.8-1.5-2.6c0.4-0.8,0.7-1.5,1-2L1267.7,586.5z" id="PATH_144" class="area"></path>
	<path d="M1272.4,590.3c1.4,0,2.8-0.5,3-1.5l0.5-1.9l1.2-0.9l0.1,0.1c-0.2,0.9-0.4,1.7-0.4,2c0,0.6,0.2,1.1,0.6,1.5
		c0.6,0.5,1.2,0.7,2.2,0.7h0.3v2.2h-0.4c-1.7,0-3-0.5-3.6-1.8h-0.1c-0.6,1.2-2,1.8-3.5,1.8h-0.3c-1,0-1.2-0.7-1.2-1.2
		c0-0.4,0.3-1.1,1.2-1.1H1272.4z M1274.4,599.6c-0.7-0.7-1.4-1.2-2.1-1.8c0.5-0.6,0.9-1.2,1.4-1.7c0.7,0.6,1.3,1.1,2,1.9
		C1275.2,598.7,1274.9,599.1,1274.4,599.6z M1277.8,599.4c-0.7-0.7-1.4-1.2-2.1-1.8c0.5-0.6,0.9-1.2,1.4-1.7c0.7,0.6,1.3,1.1,2,1.9
		C1278.6,598.5,1278.3,598.9,1277.8,599.4z" id="PATH_145" class="area"></path>
	<path d="M1294.1,585.1c0.2,1.3,0.3,2.4,0.3,3.1c0,0.8-0.3,1.8-0.6,2.4c-0.7,1.1-1.6,1.9-2.6,1.9c-0.8,0-1.6-0.6-2.2-1.5h-0.1
		c-0.8,0.9-1.8,1.5-3.1,1.5c-1,0-1.6-0.5-1.7-1.5h-0.1c-1.1,1.2-2.5,1.5-3.7,1.5h-0.3c-1,0-1.2-0.7-1.2-1.2c0-0.4,0.3-1.1,1.2-1.1
		h0.6c1.6,0,2.9-0.4,3.7-1.6l1-1.4l1.4-0.5l0.1,0.1c-0.7,1.1-1.2,2-1.2,2.5c0,0.5,0.4,0.9,0.9,0.9c0.5,0,1.1-0.2,1.6-0.5
		c0.6-0.5,0.7-1,1.2-2.8l1.1-0.6l0.1,0.1c-0.1,0.6-0.2,1.2-0.2,1.7c0,1.3,1,2,1.8,2c0.5,0,0.9-0.3,0.9-0.8c0-0.7-0.2-1.8-0.4-2.8
		c0.5-0.6,1-1.1,1.6-1.6L1294.1,585.1z M1288.1,583.8c-0.7-0.7-1.4-1.2-2.1-1.8c0.5-0.6,0.9-1.2,1.4-1.7c0.7,0.6,1.3,1.1,2,1.9
		C1288.9,582.9,1288.6,583.4,1288.1,583.8z M1289,580.1c-0.7-0.7-1.4-1.2-2.1-1.8c0.5-0.6,0.9-1.2,1.4-1.7c0.7,0.6,1.3,1.1,2,1.9
		C1289.9,579.2,1289.5,579.6,1289,580.1z M1291.5,583.6c-0.7-0.7-1.4-1.2-2.1-1.8c0.5-0.6,0.9-1.2,1.4-1.7c0.7,0.6,1.3,1.1,2,1.9
		C1292.3,582.7,1292,583.2,1291.5,583.6z" id="PATH_146" class="area" title=""></path>
</g>
<polygon class="st5 area" points="1742.4,559.7 1706,565 1671,586.4 1648.1,582.5 1641.4,584.3 1605.9,599.8 1566.3,592.6 1541.3,608.1 
	1516,652 1516,685.3 1531.2,724.1 1546,735.2 1587.7,735.2 1629.2,731 1697.2,663.5 1741.2,626 1751.9,602.7 1751.9,586.4 " id="_x39_19" title=""></polygon>
<g id="G_148" class="area" title="">
	<path d="M1580,653.2c-2,0-3.5-0.7-3.5-2.2c0-0.6,0.2-1.3,0.6-2.2c0.8-1.7,2.8-3.4,6.1-5.2l-0.1-1.4c0.5-0.6,1-1.1,1.5-1.6h0.2
		c0.1,3,0.1,5.9,0.1,8.9c0,1.3,0.2,2.2,0.7,2.7c0.4,0.4,1.2,0.5,2,0.5h0.5v2.4h-0.4c-1.9,0-3.2-0.5-3.9-2.6
		C1582.6,652.8,1581.4,653.2,1580,653.2z M1583.3,645.6c-3.4,1.8-5.2,3.2-5.2,4.2c0,0.7,1.1,1.1,2.4,1.1c0.8,0,1.7-0.2,2.8-0.5
		L1583.3,645.6z" id="PATH_149" class="area"></path>
	<path d="M1602.8,655h-0.4c-2.3,0-3.6-1.3-4.9-3.1c-0.6-0.8-1.2-1.6-1.7-2.1h-0.1c0,3-1.7,5.2-7.1,5.2h-0.5c-1,0-1.3-0.8-1.3-1.3
		c0-0.5,0.3-1.2,1.3-1.2h0.8c1.5,0,3.4-0.3,4.6-1.1c0.4-0.2,0.9-0.7,0.9-0.9c0-0.4-0.2-0.8-0.4-1.3c-0.8-1.7-2.5-3.1-4.5-5.2
		c-0.5-0.5-1-1-1.3-1.3c-0.1-0.3-0.1-0.5-0.1-0.9c0-0.5,0.2-1.1,0.5-1.6c0.2-0.3,0.4-0.4,0.7-0.6c2-1.3,6.4-2.8,11.6-4.4l0.1,0.1
		c-0.4,0.8-0.8,1.5-1.4,2.3c-1.1,0.3-2.8,0.8-4.3,1.4c-2.3,0.9-4.5,1.7-5.8,2.4v0c1,0.6,2.3,1,3.1,1.3l-0.6,1c2,1.8,4.2,3.8,6.8,6.9
		c1.1,1.3,2.2,1.9,3.7,1.9h0.3V655z M1589,638.1c0.1-0.4,0.2-0.8,0.5-1.2c2.6-1.3,6.3-2.6,10.4-3.8l0,0.1l-0.7,1.2
		C1594.8,635.6,1591.7,636.8,1589,638.1L1589,638.1z" id="PATH_150" class="area" title=""></path>
	<path d="M1603.1,652.6c1.6,0,2.9-0.1,3.8-0.4c0.7-0.2,1.1-0.5,1.1-0.8c0-0.9-0.9-2.8-1.9-4.7c0.5-0.8,0.9-1.5,1.4-2.2h0.1
		c0.9,1.5,1.9,3.9,1.9,5.8c0,1.4-0.6,2.5-1.3,3.5c-0.9,0.9-2.2,1.1-5.1,1.1h-0.2c-1,0-1.3-0.8-1.3-1.3c0-0.5,0.3-1.2,1.3-1.2H1603.1
		z M1605.7,638.4c0.8,0.6,1.5,1.3,2.3,2c-0.4,0.7-0.9,1.3-1.6,1.9c-0.7-0.7-1.5-1.3-2.2-2C1604.7,639.6,1605.2,639,1605.7,638.4z" id="PATH_151" class="area"></path>
	<path d="M1613.6,649.8c0.1,1.6,0.7,2.9,3.1,2.9c1.5,0,2.7-0.5,4.1-1.2c0.2-0.1,0.4-0.3,0.4-0.5c0-1-0.7-2.4-1.8-3.6
		c-1.1-1.2-2.5-2.2-3.9-2.9c-0.5-0.2-0.6-0.5-0.6-0.7c0-0.5,0.5-1.5,1-2.2l0.2,0c1.5,1,3.3,2.4,4.6,3.9c1.2,1.4,1.9,2.9,1.9,4.5
		c0,1.2-0.3,2.3-0.8,3.3c-1.7,1-3.5,1.8-5.3,1.8c-2.2,0-3.7-1.2-3.7-4c0-0.3,0-0.8,0.1-1.4H1613.6z" id="PATH_152" class="area"></path>
	<path d="M1632.3,645.2l1.4,2.6c0.5,1,1,2,1,3.6v2.1c0,1.7-0.9,3.5-2.4,5.3c-1.2,1.2-2.2,1.7-3.1,1.7c-1.4,0-3-0.5-4.9-1.5l0.2-0.6
		c0.6,0.2,1.3,0.3,2.1,0.3c2.7,0,5.4-2.3,6.7-5.1c0.2-0.3,0.2-0.6,0.2-0.8c0-0.3-0.2-0.7-0.3-1c-0.7-1.5-1.4-2.9-2.3-4.2
		c0.4-0.8,0.9-1.6,1.4-2.4L1632.3,645.2z" id="PATH_153" class="area"></path>
	<path d="M1643,655h-0.2c-1.5,0-2.5-0.3-3.3-1.1c-1.2-1.2-1.2-2.5-1.2-5.3c0-3.6-0.2-7.4-0.5-11.4c0.6-0.7,1.2-1.3,1.8-1.8l0.1,0.1
		c0.3,4.2,0.3,9.1,0.3,13.8v1.1c0,1.2,0.7,1.8,1.4,2c0.5,0.2,1,0.2,1.2,0.2h0.3V655z" id="PATH_154" class="area" title=""></path>
	<path d="M1645.1,652.6c0.3-1.3,0.6-2.7,1-4.1c0.5-1.8,1.2-3.4,2.2-4.9l0.2-0.1c0.2,0.4,0.4,0.7,0.7,1.1c1.4,2,2.5,3.8,2.5,5.4
		c0,0.8-0.1,1.7-0.4,2.5h3.7v2.4h-0.5c-0.3,0-1.1,0-1.6-0.2l-0.1,0c0.5,0.8,0.8,1.8,0.8,2.6c0,0.8-0.2,1.7-0.6,2.3
		c-0.6,0.9-1.7,1.8-2.9,1.8c-0.9,0-1.9-0.2-2.7-0.8c-1.6-1-2.6-3-2.6-4.9v-0.9c-0.4,0.1-1,0.1-1.5,0.1h-0.4c-1,0-1.3-0.8-1.3-1.3
		c0-0.5,0.3-1.2,1.3-1.2H1645.1z M1647.1,657.6c1,1.2,2.4,1.9,3.6,1.9c0.7,0,1.1-0.4,1.1-0.9s-0.1-1.4-0.7-2.3
		c-0.6-0.8-1.5-1.5-3-1.5c-0.7,0-1.4,0.1-2.2,0.2C1646,655.8,1646.5,656.8,1647.1,657.6z M1649.1,652.3c0.9-0.2,1.3-0.6,1.3-1
		c0-1.2-1.1-2.9-2.4-4.6h-0.1c-0.6,1.9-1.3,3.8-1.8,5.8C1647.2,652.6,1648.3,652.5,1649.1,652.3z" id="PATH_155" class="area"></path>
	<path d="M1656.2,652.6c3.1,0,6.2-1.1,10.2-3.4l0-0.1c-2.2-0.8-4.2-1.3-6-1.3c-1.1,0-1.9,0.3-2.4,1l0.2,1l-0.6,1.7h-0.2l-0.9-2.5
		c0.2-2.1,1.8-3.4,4.1-3.4c1.3,0,3.3,0.5,6.2,1.7c0.9,0.4,2.1,0.6,3.3,0.6l1.5,0l0.1,0l-1,2c-1.6,0-2.7,0.3-3.3,0.7l-3.2,2.1
		c-2.6,1.7-5.3,2.6-8.2,2.6h-1c-1,0-1.3-0.8-1.3-1.3c0-0.5,0.3-1.2,1.3-1.2H1656.2z M1661.2,660.8c-0.8-0.7-1.5-1.4-2.2-2
		c0.5-0.7,1-1.3,1.5-1.8c0.8,0.6,1.4,1.2,2.2,2C1662.1,659.8,1661.7,660.3,1661.2,660.8z M1663.8,664.6c-0.8-0.7-1.5-1.4-2.2-2
		c0.5-0.7,1-1.3,1.5-1.8c0.8,0.6,1.4,1.2,2.2,2C1664.8,663.6,1664.4,664.1,1663.8,664.6z M1664.9,660.5c-0.8-0.7-1.5-1.4-2.2-2
		c0.5-0.7,1-1.3,1.5-1.8c0.8,0.6,1.4,1.2,2.2,2C1665.8,659.5,1665.4,660,1664.9,660.5z" id="PATH_156" class="area"></path>
</g>
<polygon class="st6 area" points="1088.3,696.2 1070,718.1 1070,782.5 1070,811.8 1110.6,811.8 1149.4,818.9 1157.3,783.8 1178.1,757.5 
	1171.1,743.7 1123.7,718.2 " id="_x36_21" title=""></polygon>
<g id="G_158" class="area" title="">
	<path d="M1085.5,755.3v1.9h-0.9c0,0.4,0.1,0.8,0.1,1.1c0,0.5-0.5,1.6-0.7,1.9c-2,1.8-4.8,2.8-7.1,2.8c-1.9,0-3.3-0.7-4.2-1.6
		c-0.9-1-1.3-2.5-1.3-4.2c0-1.5,0.6-3.6,1.4-5l0.6,0.3c-0.6,1.5-0.9,2.8-0.9,3.8c0,1.3,0.4,2.5,1.2,3.3c0.9,1,2.2,1.4,3.7,1.4
		c1.4,0,3-0.4,4.8-1.3c0.7-0.4,1.2-0.7,1.4-1c-0.3-0.7-2-1.4-4.4-1.4l-0.1-0.2l1-1.7H1085.5z" id="PATH_159" class="area"></path>
	<path d="M1086.8,755.3c1.3,0,2.4,0,3.3-0.3c1-0.3,1.8-0.9,1.8-1.3c0-0.1,0-0.2,0-0.3c-0.5,0.1-1.2,0.1-1.7,0.1
		c-1.8,0-3.1-0.5-3.6-1.6c-0.1-0.3-0.2-0.7-0.2-1.1c0-1.1,0.4-2.2,1.1-3c0.6-0.6,1.3-1,2-1c1.2,0,2.2,1.2,2.9,3
		c0.4,1,0.6,2.1,0.6,3.6c0,1-0.2,1.8-0.7,2.4c-1,1.1-2.7,1.5-5.4,1.5h-1.2c-0.8,0-1.1-0.6-1.1-1c0-0.4,0.2-0.9,1.1-0.9H1086.8z
		 M1087.3,745.3c-0.6-0.6-1.2-1.1-1.8-1.6c0.4-0.5,0.8-1,1.2-1.4c0.6,0.5,1.1,1,1.7,1.6C1088,744.5,1087.7,744.9,1087.3,745.3z
		 M1089,748.7c-1,0-1.8,0.8-1.8,1.3c0,1.2,2,1.6,4.4,1.6C1091.3,750.2,1090.2,748.7,1089,748.7z M1090.2,745.1
		c-0.6-0.6-1.2-1.1-1.8-1.6c0.4-0.5,0.8-1,1.2-1.4c0.6,0.5,1.1,1,1.7,1.6C1090.9,744.4,1090.6,744.7,1090.2,745.1z" id="PATH_160" class="area" title=""></path>
	<path d="M1109.9,754.9c0.5-0.4,0.6-0.8,1.1-2.4l0.9-0.5l0.1,0.1c-0.1,0.5-0.2,1.1-0.2,1.5c0,1.2,0.8,1.7,1.6,1.7
		c0.4,0,0.8-0.2,0.8-0.7c0-0.6-0.2-1.6-0.4-2.5c0.4-0.5,0.9-1,1.4-1.4l0.1,0c0.2,1.1,0.2,2.1,0.2,2.7c0,0.7-0.3,1.5-0.5,2.1
		c-0.6,1-1.4,1.7-2.2,1.7c-0.7,0-1.3-0.5-1.9-1.3h-0.1c-0.5,0.6-1.3,1.3-2.4,1.3c-1.5,0-2.5-1.2-2.5-2.9c-1.5,0.5-2.6,0.8-3.5,1.3
		c0.1,0.4,0.2,0.8,0.2,1.1c0,0.6,0,1.3-0.1,1.9c0,1.1-0.4,1.9-1.2,2.9c-1.3,1.4-2.4,1.8-3.3,1.8c-1.1,0-2.3-0.5-3.7-1.5l0.2-0.4
		c0.6,0.3,1.2,0.4,1.8,0.4c1.4,0,2.7-0.7,3.9-1.7c1-1,1.5-1.7,1.5-2.5c0-0.5-0.5-1.2-1.1-1.8c0.1-0.5,0.2-1.2,0.5-1.8
		c1.8-0.7,3.6-1.3,5.6-1.8l0,0.1c-0.1,0.3-0.1,0.6-0.1,0.9c0,1,0.9,2,1.9,2C1109,755.3,1109.5,755.2,1109.9,754.9z M1110,749.7
		c-0.6-0.6-1.2-1.1-1.8-1.6c0.4-0.5,0.8-1,1.2-1.4c0.6,0.5,1.1,1,1.7,1.6C1110.7,748.9,1110.4,749.3,1110,749.7z M1110.8,746.5
		c-0.6-0.6-1.2-1.1-1.8-1.6c0.4-0.5,0.8-1,1.2-1.4c0.6,0.5,1.1,1,1.7,1.6C1111.5,745.7,1111.2,746.1,1110.8,746.5z M1112.9,749.5
		c-0.6-0.6-1.2-1.1-1.8-1.6c0.4-0.5,0.8-1,1.2-1.4c0.6,0.5,1.1,1,1.7,1.6C1113.6,748.7,1113.3,749.1,1112.9,749.5z" id="PATH_161" class="area"></path>
	<path d="M1138.2,755.3v1.9h-0.9c0,0.4,0.1,0.8,0.1,1.1c0,0.5-0.5,1.6-0.7,1.9c-2,1.8-4.8,2.8-7.1,2.8c-1.9,0-3.3-0.7-4.2-1.6
		c-0.9-1-1.3-2.5-1.3-4.2c0-1.5,0.6-3.6,1.4-5l0.6,0.3c-0.6,1.5-0.9,2.8-0.9,3.8c0,1.3,0.4,2.5,1.2,3.3c0.9,1,2.2,1.4,3.7,1.4
		c1.4,0,3-0.4,4.8-1.3c0.7-0.4,1.2-0.7,1.4-1c-0.3-0.7-2-1.4-4.4-1.4l-0.1-0.2l1-1.7H1138.2z" id="PATH_162" class="area"></path>
	<path d="M1138.5,755.3c1.3,0,2.3,0,3-0.3c0.5-0.2,0.9-0.4,0.9-0.7c0-0.7-0.7-2.2-1.5-3.7c0.4-0.7,0.7-1.2,1.1-1.7h0.1
		c0.7,1.2,1.5,3.1,1.5,4.6c0,1.1-0.5,2-1.1,2.8c-0.7,0.7-1.8,0.9-4.1,0.9h-0.2c-0.8,0-1.1-0.6-1.1-1c0-0.4,0.2-0.9,1.1-0.9H1138.5z
		 M1140,762.6c-0.6-0.6-1.2-1.1-1.8-1.6c0.4-0.5,0.8-1,1.2-1.4c0.6,0.5,1.1,1,1.7,1.6C1140.7,761.8,1140.4,762.2,1140,762.6z
		 M1142.1,765.6c-0.6-0.6-1.2-1.1-1.8-1.6c0.4-0.5,0.8-1,1.2-1.4c0.6,0.5,1.1,1,1.7,1.6C1142.8,764.8,1142.5,765.2,1142.1,765.6z
		 M1142.9,762.4c-0.6-0.6-1.2-1.1-1.8-1.6c0.4-0.5,0.8-1,1.2-1.4c0.6,0.5,1.1,1,1.7,1.6C1143.6,761.6,1143.3,762,1142.9,762.4z" id="PATH_163" class="area"></path>
	<path d="M1156.5,757.2h-0.3c-1.4,0-2.5-0.6-3.1-2.5h-0.1c-0.1,0.6-0.4,1.1-1.1,1.5c-1,0.6-2,1-3,1c-1.7,0-2.6-1-2.6-2.8
		c0-0.4,0-0.7,0-1.1l0.6,0c0.1,1.3,0.7,2,2.1,2c0.8,0,1.8-0.3,2.5-0.8c0.6-0.3,1-0.8,1-1.1c0-1-0.5-3-1.3-5.6
		c0.3-0.5,0.7-1.1,1.1-1.6l0.1,0.1c0.6,2.2,1,4.5,1.4,6.7c0.3,1.5,1.3,2.3,2.4,2.3h0.3V757.2z" id="PATH_164" class="area"></path>
	<path d="M1156.9,755.3c1.2,0,2.4-0.5,2.6-1.3l0.4-1.6l1-0.8l0.1,0.1c-0.2,0.8-0.3,1.4-0.3,1.8c0,0.5,0.1,1,0.5,1.3
		c0.5,0.4,1.1,0.6,1.9,0.6h0.3v1.9h-0.3c-1.5,0-2.6-0.4-3.1-1.5h-0.1c-0.5,1-1.7,1.5-3,1.5h-0.3c-0.8,0-1.1-0.6-1.1-1
		c0-0.4,0.2-0.9,1.1-0.9H1156.9z M1159.5,746.2c0.6,0.5,1.2,1,1.8,1.6c-0.3,0.5-0.7,1-1.3,1.5c-0.6-0.6-1.2-1-1.8-1.6
		C1158.7,747.2,1159.1,746.6,1159.5,746.2z" id="PATH_165" class="area"></path>
	<path d="M1163.6,755.3c1.3,0,2.3,0,3-0.3c0.5-0.2,0.9-0.4,0.9-0.7c0-0.7-0.7-2.2-1.5-3.7c0.4-0.7,0.7-1.2,1.1-1.7h0.1
		c0.7,1.2,1.5,3.1,1.5,4.6c0,1.1-0.5,2-1.1,2.8c-0.7,0.7-1.8,0.9-4.1,0.9h-0.2c-0.8,0-1.1-0.6-1.1-1c0-0.4,0.2-0.9,1.1-0.9H1163.6z
		 M1166.5,760.1c0.6,0.5,1.2,1,1.8,1.6c-0.3,0.5-0.7,1-1.3,1.5c-0.6-0.6-1.2-1-1.8-1.6C1165.7,761.1,1166.1,760.6,1166.5,760.1z" id="PATH_166" class="area"></path>
</g>
<polygon class="st7 area" points="1070,582.2 1088.3,615.4 1102,661.5 1095.4,695.3 1074.2,706.2 1070,718.1 1046.6,668 1029,634.8 
	1046.6,599.8 " id="_x33_99" title=""></polygon>
<g id="G_168" class="area" title="">
	<path d="M1036,645.8v1.6h-0.6c0,0.4,0,0.7,0,0.9c0,0.4-0.3,1.3-0.5,1.6c-1.3,1.5-3.3,2.4-4.8,2.4c-1.3,0-2.2-0.6-2.8-1.4
		c-0.6-0.9-0.9-2.1-0.9-3.5c0-1.3,0.4-3,1-4.2l0.4,0.2c-0.4,1.3-0.6,2.3-0.6,3.2c0,1.1,0.3,2.1,0.8,2.8c0.6,0.8,1.5,1.2,2.5,1.2
		c1,0,2-0.3,3.3-1.1c0.5-0.3,0.8-0.6,0.9-0.9c-0.2-0.6-1.4-1.2-3-1.2l-0.1-0.2l0.7-1.4H1036z" id="PATH_169" class="area" title=""></path>
	<path d="M1036.2,645.8c0.9,0,1.6,0,2-0.2c0.4-0.2,0.6-0.3,0.6-0.6c0-0.6-0.5-1.8-1-3.1c0.2-0.5,0.5-1,0.8-1.4h0.1
		c0.5,1,1,2.6,1,3.9c0,1-0.3,1.7-0.7,2.4c-0.5,0.6-1.2,0.8-2.8,0.8h-0.1c-0.6,0-0.7-0.5-0.7-0.9c0-0.3,0.2-0.8,0.7-0.8H1036.2z
		 M1038.2,649.8c0.4,0.4,0.8,0.8,1.2,1.4c-0.2,0.5-0.5,0.9-0.9,1.2c-0.4-0.5-0.8-0.9-1.2-1.3
		C1037.6,650.7,1037.9,650.2,1038.2,649.8z" id="PATH_170" class="area" title=""></path>
	<path d="M1044.8,643.1c0.6,1.7,1.1,2.7,2.3,2.7h0.2v1.6h-0.2c-0.5,0-0.8-0.1-1-0.4h0c0,0.2,0,0.3,0,0.4c0,0.6-0.1,1.4-0.4,2
		c-0.8,1.8-1.7,2.5-2.5,2.5c-0.8,0-1.7-0.4-2.6-1l0.2-0.4c0.3,0.2,0.7,0.3,1.2,0.3c1.4,0,3.2-1.9,3.4-3.8c-0.1-0.2-0.1-0.4-0.3-0.6
		c-0.4-0.7-0.7-1.3-0.9-1.9C1044.3,644,1044.5,643.5,1044.8,643.1L1044.8,643.1z" id="PATH_171" class="area" title=""></path>
	<path d="M1047.9,645.8c0.4,0,0.9-0.1,1.5-0.3v-0.1c-0.7-0.6-1.2-1.4-1.2-2.5c0-0.5,0.2-1.1,0.4-1.7c0.5-1,1.2-1.7,2.1-1.7
		c1,0,1.8,0.8,2.3,2.1l-0.2,0.3c-0.6-0.6-1.1-0.8-1.8-0.8c-1.1,0-1.9,0.6-1.9,1.1c0,0.6,0.3,1.2,0.9,1.8c0.4,0.4,1,0.7,1.2,0.7
		c0.8,0,1.7-0.4,3-0.9l0.1,0.1l-0.5,1.6c-1.6,0.7-2.4,0.8-3.7,1.3c-0.9,0.4-1.7,0.7-2.5,0.7h-0.3c-0.6,0-0.7-0.5-0.7-0.9
		c0-0.3,0.2-0.8,0.7-0.8H1047.9z M1049.7,635.6c0.4,0.4,0.8,0.8,1.2,1.4c-0.2,0.5-0.5,0.9-0.9,1.2c-0.4-0.5-0.8-0.9-1.2-1.3
		C1049.2,636.5,1049.5,636,1049.7,635.6z" id="PATH_172" class="area" title=""></path>
	<path d="M1069.5,645.8v1.6h-0.6c0,0.4,0,0.7,0,0.9c0,0.4-0.3,1.3-0.5,1.6c-1.3,1.5-3.3,2.4-4.8,2.4c-1.3,0-2.2-0.6-2.8-1.4
		c-0.6-0.9-0.9-2.1-0.9-3.5c0-1.3,0.4-3,1-4.2l0.4,0.2c-0.4,1.3-0.6,2.3-0.6,3.2c0,1.1,0.3,2.1,0.8,2.8c0.6,0.8,1.5,1.2,2.5,1.2
		c1,0,2-0.3,3.3-1.1c0.5-0.3,0.8-0.6,0.9-0.9c-0.2-0.6-1.4-1.2-3-1.2l-0.1-0.2l0.7-1.4H1069.5z" id="PATH_173" class="area" title=""></path>
	<path d="M1069.7,645.8c0.9,0,1.6,0,2-0.2c0.4-0.2,0.6-0.3,0.6-0.6c0-0.6-0.5-1.8-1-3.1c0.2-0.5,0.5-1,0.8-1.4h0.1
		c0.5,1,1,2.6,1,3.9c0,1-0.3,1.7-0.7,2.4c-0.5,0.6-1.2,0.8-2.8,0.8h-0.1c-0.6,0-0.7-0.5-0.7-0.9c0-0.3,0.2-0.8,0.7-0.8H1069.7z
		 M1070.7,651.9c-0.4-0.5-0.8-0.9-1.2-1.3c0.3-0.5,0.6-0.9,0.8-1.2c0.4,0.4,0.8,0.8,1.2,1.4C1071.2,651.3,1071,651.6,1070.7,651.9z
		 M1072.2,654.4c-0.4-0.5-0.8-0.9-1.2-1.3c0.3-0.5,0.6-0.9,0.8-1.2c0.4,0.4,0.8,0.8,1.2,1.4C1072.7,653.8,1072.5,654.1,1072.2,654.4
		z M1072.7,651.8c-0.4-0.5-0.8-0.9-1.2-1.3c0.3-0.5,0.6-0.9,0.8-1.2c0.4,0.4,0.8,0.8,1.2,1.4C1073.2,651.1,1073,651.4,1072.7,651.8z
		" id="PATH_174" class="area" title=""></path>
	<path d="M1078.5,640.9l0.7,1.7c0.3,0.6,0.5,1.3,0.5,2.4v1.4c0,1.1-0.5,2.3-1.3,3.5c-0.6,0.8-1.2,1.2-1.7,1.2c-0.8,0-1.6-0.3-2.7-1
		l0.1-0.4c0.3,0.1,0.7,0.2,1.1,0.2c1.5,0,2.9-1.5,3.6-3.4c0.1-0.2,0.1-0.4,0.1-0.6c0-0.2-0.1-0.5-0.1-0.7c-0.4-1-0.8-1.9-1.2-2.8
		C1077.9,641.9,1078.2,641.4,1078.5,640.9L1078.5,640.9z" id="PATH_175" class="area" title=""></path>
	<path d="M1088.5,647.4h-0.2c-0.9,0-1.7-0.5-2.1-2.1h-0.1c-0.1,0.5-0.3,0.9-0.7,1.2c-0.7,0.5-1.4,0.9-2.1,0.9
		c-1.2,0-1.8-0.9-1.8-2.3c0-0.3,0-0.6,0-0.9l0.4,0c0,1.1,0.5,1.7,1.5,1.7c0.5,0,1.2-0.3,1.7-0.6c0.4-0.3,0.7-0.6,0.7-1
		c0-0.9-0.4-2.6-0.9-4.7c0.2-0.4,0.5-0.9,0.7-1.3l0.1,0.1c0.4,1.8,0.7,3.8,1,5.6c0.2,1.3,0.9,1.9,1.6,1.9h0.2V647.4z" id="PATH_176" class="area" title=""></path>
	<path d="M1088.8,645.8c0.8,0,1.6-0.4,1.8-1.1l0.3-1.4l0.7-0.6l0.1,0.1c-0.1,0.6-0.2,1.2-0.2,1.5c0,0.4,0.1,0.8,0.3,1.1
		c0.3,0.3,0.7,0.5,1.3,0.5h0.2v1.6h-0.2c-1,0-1.8-0.3-2.1-1.3h0c-0.4,0.9-1.2,1.3-2.1,1.3h-0.2c-0.6,0-0.7-0.5-0.7-0.9
		c0-0.3,0.2-0.8,0.7-0.8H1088.8z M1090.6,638.2c0.4,0.4,0.8,0.8,1.2,1.4c-0.2,0.5-0.5,0.9-0.9,1.2c-0.4-0.5-0.8-0.9-1.2-1.3
		C1090,639,1090.3,638.5,1090.6,638.2z" id="PATH_177" class="area" title=""></path>
	<path d="M1093.4,645.8c0.9,0,1.6,0,2-0.2c0.4-0.2,0.6-0.3,0.6-0.6c0-0.6-0.5-1.8-1-3.1c0.2-0.5,0.5-1,0.8-1.4h0.1
		c0.5,1,1,2.6,1,3.9c0,1-0.3,1.7-0.7,2.4c-0.5,0.6-1.2,0.8-2.8,0.8h-0.1c-0.6,0-0.7-0.5-0.7-0.9c0-0.3,0.2-0.8,0.7-0.8H1093.4z
		 M1095.3,649.8c0.4,0.4,0.8,0.8,1.2,1.4c-0.2,0.5-0.5,0.9-0.9,1.2c-0.4-0.5-0.8-0.9-1.2-1.3
		C1094.8,650.7,1095.1,650.2,1095.3,649.8z" id="PATH_178" class="area" title=""></path>
</g>
<g id="G_179" class="area" title="">
	<path d="M1201.3,435.6c0.1,2.5,0.1,5,0.1,7.4c0,1.1,0,2.1,0.3,2.8c0.3,0.6,0.9,1.2,1.5,1.2h0.1v1.6h-0.2c-1.2,0-2.6-1.1-2.6-3.5
		l-0.1,0c-0.5,1.8-1.6,2.7-2.8,3.3c-0.9,0.4-1.6,0.5-2.6,0.5l-1.4-0.1l-0.1-0.1c2.1-0.8,3.6-1.6,4.8-2.4c-0.2-1.3-1.4-3.3-3.7-6.2
		c-0.6-0.9-1.3-1.6-1.3-2.1c0-0.3,0.2-0.8,0.3-1.2h0.1c0.7,0.7,1.5,1.3,2.4,1.8l-0.4,0.7c0.7,0.9,1.3,1.9,2,3.1c0.5,0.9,1,1.9,1,2.7
		c0,0.3,0,0.5-0.1,0.8l0,0c0.4-0.4,0.7-0.7,0.9-1.1c0.5-0.8,0.5-1.7,0.5-3.9c0-1.5-0.1-2.9-0.2-4.4c0.3-0.4,0.6-0.8,1-1.1
		L1201.3,435.6z" id="PATH_180" class="area" title=""></path>
	<path d="M1211.3,435c-0.3,0.5-0.6,1-1,1.6c-0.6,0.2-1.4,0.4-2,0.6c-1.3,0.5-2.7,1-4.2,1.7v0l2.1,0.8l-0.3,0.6
		c2,1.6,3.3,3.2,3.3,4.5c0,1.2-0.3,2.1-0.8,2.6c-0.8,0.7-2.1,1.2-4.4,1.2h-0.5c-0.7,0-0.9-0.5-0.9-0.9c0-0.3,0.2-0.8,0.9-0.8h0.8
		c1.3,0,2.5-0.1,3.4-0.7c0.5-0.3,0.7-0.5,0.7-0.7c0-0.6-0.4-1.2-0.9-1.9c-0.6-0.8-1.7-2-3.8-3.6c-0.4-0.3-0.5-0.7-0.5-1.2
		c0-0.3,0.1-0.5,0.3-0.8c0.1-0.2,0.4-0.5,1-0.8c1.5-0.7,3.9-1.6,6.8-2.5L1211.3,435z" id="PATH_181" class="area" title=""></path>
	<path d="M1216.1,448.7h-0.1c-1,0-1.7-0.2-2.2-0.7c-0.8-0.8-0.8-1.7-0.8-3.6c0-2.4-0.1-4.9-0.3-7.6c0.4-0.5,0.8-0.9,1.2-1.2l0.1,0.1
		c0.2,2.8,0.2,6.1,0.2,9.2v0.7c0,0.8,0.5,1.2,1,1.4c0.3,0.1,0.6,0.1,0.8,0.1h0.2V448.7z" id="PATH_182" class="area" title=""></path>
	<path d="M1216.4,447.1c1,0,2-0.4,2.2-1.1l0.4-1.4l0.9-0.6l0.1,0.1c-0.2,0.6-0.3,1.2-0.3,1.5c0,0.4,0.1,0.8,0.4,1.1
		c0.4,0.3,0.9,0.5,1.6,0.5h0.2v1.6h-0.3c-1.2,0-2.2-0.3-2.6-1.3h-0.1c-0.4,0.9-1.4,1.3-2.5,1.3h-0.2c-0.7,0-0.9-0.5-0.9-0.9
		c0-0.3,0.2-0.8,0.9-0.8H1216.4z M1217.8,453.8c-0.5-0.5-1-0.9-1.5-1.3c0.3-0.5,0.7-0.9,1-1.2c0.5,0.4,1,0.8,1.4,1.4
		C1218.4,453.1,1218.2,453.4,1217.8,453.8z M1220.2,453.6c-0.5-0.5-1-0.9-1.5-1.3c0.3-0.5,0.7-0.9,1-1.2c0.5,0.4,1,0.8,1.4,1.4
		C1220.9,452.9,1220.6,453.3,1220.2,453.6z" id="PATH_183" class="area" title=""></path>
	<path d="M1229.7,435c-0.3,0.5-0.6,1-1,1.6c-0.6,0.2-1.4,0.4-2,0.6c-1.3,0.5-2.7,1-4.2,1.7v0l2.1,0.8l-0.3,0.6
		c2,1.6,3.3,3.2,3.3,4.5c0,1.2-0.3,2.1-0.8,2.6c-0.8,0.7-2.1,1.2-4.4,1.2h-0.5c-0.7,0-0.9-0.5-0.9-0.9c0-0.3,0.2-0.8,0.9-0.8h0.8
		c1.3,0,2.5-0.1,3.4-0.7c0.5-0.3,0.7-0.5,0.7-0.7c0-0.6-0.4-1.2-0.9-1.9c-0.6-0.8-1.7-2-3.8-3.6c-0.4-0.3-0.5-0.7-0.5-1.2
		c0-0.3,0.1-0.5,0.3-0.8c0.1-0.2,0.4-0.5,1-0.8c1.5-0.7,3.9-1.6,6.8-2.5L1229.7,435z" id="PATH_184" class="area" title=""></path>
</g>
<g id="G_185" class="area" title="">
	<path d="M1036.6,395.8l0.9,1.7c0.3,0.6,0.6,1.3,0.6,2.4v1.4c0,1.1-0.6,2.3-1.6,3.5c-0.8,0.8-1.5,1.2-2.1,1.2c-0.9,0-2-0.3-3.3-1
		l0.1-0.4c0.4,0.1,0.9,0.2,1.4,0.2c1.8,0,3.6-1.5,4.5-3.4c0.1-0.2,0.1-0.4,0.1-0.6c0-0.2-0.1-0.5-0.2-0.7c-0.5-1-1-1.9-1.5-2.8
		C1035.9,396.8,1036.2,396.3,1036.6,395.8L1036.6,395.8z" id="PATH_186" class="area" title=""></path>
	<path d="M1043.7,402.3h-0.1c-1,0-1.7-0.2-2.2-0.7c-0.8-0.8-0.8-1.7-0.8-3.6c0-2.4-0.1-4.9-0.3-7.6c0.4-0.5,0.8-0.9,1.2-1.2l0.1,0.1
		c0.2,2.8,0.2,6.1,0.2,9.2v0.7c0,0.8,0.5,1.2,1,1.4c0.3,0.1,0.6,0.1,0.8,0.1h0.2V402.3z" id="PATH_187" class="area" title=""></path>
	<path d="M1044,400.7c1,0,2-0.4,2.2-1.1l0.4-1.4l0.9-0.6l0.1,0.1c-0.2,0.6-0.3,1.2-0.3,1.5c0,0.4,0.1,0.8,0.4,1.1
		c0.4,0.3,0.9,0.5,1.6,0.5h0.2v1.6h-0.3c-1.2,0-2.2-0.3-2.6-1.3h-0.1c-0.4,0.9-1.4,1.3-2.5,1.3h-0.2c-0.7,0-0.9-0.5-0.9-0.9
		c0-0.3,0.2-0.8,0.9-0.8H1044z M1046.2,393c0.5,0.4,1,0.8,1.5,1.4c-0.3,0.5-0.6,0.9-1.1,1.2c-0.5-0.5-1-0.9-1.5-1.3
		C1045.5,393.9,1045.9,393.4,1046.2,393z" id="PATH_188" class="area" title=""></path>
	<path d="M1057.3,388.7c-0.3,0.5-0.6,1-1,1.6c-0.6,0.2-1.4,0.4-2,0.6c-1.3,0.5-2.7,1-4.2,1.7v0l2.1,0.8l-0.3,0.6
		c2,1.6,3.3,3.2,3.3,4.5c0,1.2-0.3,2.1-0.8,2.6c-0.8,0.7-2.1,1.2-4.4,1.2h-0.5c-0.7,0-0.9-0.5-0.9-0.9c0-0.3,0.2-0.8,0.9-0.8h0.8
		c1.3,0,2.5-0.1,3.4-0.7c0.5-0.3,0.7-0.5,0.7-0.7c0-0.6-0.4-1.2-0.9-1.9c-0.6-0.8-1.7-2-3.8-3.6c-0.4-0.3-0.5-0.7-0.5-1.2
		c0-0.3,0.1-0.5,0.3-0.8c0.1-0.2,0.4-0.5,1-0.8c1.5-0.7,3.9-1.6,6.8-2.5L1057.3,388.7z" id="PATH_189" class="area" title=""></path>
	<path d="M1071.5,395c0.9,1.7,1.4,3.3,1.4,5.2c0,1.3-0.4,2.7-0.9,3.2c-1.1,1.2-2.7,1.9-4.2,1.9c-2.4,0-3.9-1.6-3.9-3.8
		c0-1.6,0.5-2.7,1.1-3.7l0.5,0.3c-0.4,0.8-0.7,1.8-0.7,2.4c0,1.1,0.4,1.8,0.9,2.2c0.5,0.5,1.4,0.9,2.4,0.9c1,0,2.3-0.5,3.1-1.1
		c0.6-0.4,0.9-0.8,0.9-1.1c0-0.9-0.2-1.6-0.4-2.2c-0.3-1-0.7-1.8-1.1-2.5C1070.8,396.1,1071.1,395.5,1071.5,395L1071.5,395z
		 M1068.1,390.9c0.5,0.4,1,0.8,1.5,1.4c-0.3,0.5-0.6,0.9-1.1,1.2c-0.5-0.5-1-0.9-1.5-1.3C1067.4,391.7,1067.7,391.3,1068.1,390.9z" id="PATH_190" class="area" title=""></path>
	<path d="M1079.3,401c-1.5,0-2.8-0.7-2.8-2.4c0-0.8,0.3-1.5,0.8-2.2c0.6-0.6,1.2-1.1,1.8-1.1c0.7,0,1.4,0.5,1.9,1.4
		c0.5,0.9,0.8,2.1,0.8,3.5c0,1.2-0.3,2.3-1,3.3c-1.1,1.7-2.2,2.4-3.3,2.4c-1.2,0-2.4-0.4-3.6-1.2l0.2-0.4c0.6,0.3,1.2,0.4,1.9,0.4
		c1.3,0,2.6-0.6,3.7-1.9c0.6-0.6,1.1-1.4,1.2-2.1C1080.4,400.9,1079.8,401,1079.3,401z M1078.7,397c-0.6,0-1.4,0.7-1.4,1.1
		c0,0.8,1.1,1.3,2.2,1.3c0.5,0,1-0.1,1.4-0.2C1080.5,398,1079.8,397,1078.7,397z" id="PATH_191" class="area" title=""></path>
	<path d="M1092.6,402.3h-0.2c-1.1,0-2.1-0.5-2.6-2.1h-0.1c-0.1,0.5-0.4,0.9-0.9,1.2c-0.8,0.5-1.7,0.9-2.6,0.9
		c-1.4,0-2.2-0.9-2.2-2.3c0-0.3,0-0.6,0-0.9l0.5,0c0.1,1.1,0.6,1.7,1.8,1.7c0.7,0,1.5-0.3,2.1-0.6c0.5-0.3,0.8-0.6,0.8-1
		c0-0.9-0.5-2.6-1.1-4.7c0.3-0.4,0.6-0.9,0.9-1.3l0.1,0.1c0.5,1.8,0.9,3.8,1.2,5.6c0.2,1.3,1.1,1.9,2,1.9h0.2V402.3z" id="PATH_192" class="area" title=""></path>
	<path d="M1092.8,400.7c1.1,0,1.9,0,2.5-0.2c0.4-0.2,0.7-0.3,0.7-0.6c0-0.6-0.6-1.8-1.3-3.1c0.3-0.5,0.6-1,1-1.4h0.1
		c0.6,1,1.3,2.6,1.3,3.9c0,1-0.4,1.7-0.9,2.4c-0.6,0.6-1.5,0.8-3.4,0.8h-0.2c-0.7,0-0.9-0.5-0.9-0.9c0-0.3,0.2-0.8,0.9-0.8H1092.8z
		 M1094.1,407.4c-0.5-0.5-1-0.9-1.5-1.3c0.3-0.5,0.7-0.9,1-1.2c0.5,0.4,1,0.8,1.4,1.4C1094.7,406.7,1094.4,407,1094.1,407.4z
		 M1096.5,407.2c-0.5-0.5-1-0.9-1.5-1.3c0.3-0.5,0.7-0.9,1-1.2c0.5,0.4,1,0.8,1.4,1.4C1097.1,406.6,1096.9,406.9,1096.5,407.2z" id="PATH_193" class="area" title=""></path>
	<path d="M1103.5,397.9c0.7,1.7,1.4,2.7,2.9,2.7h0.2v1.6h-0.3c-0.6,0-1-0.1-1.3-0.4h-0.1c0,0.2,0,0.3,0,0.4c0,0.6-0.2,1.4-0.5,2
		c-1,1.8-2.1,2.5-3,2.5c-1,0-2.1-0.4-3.2-1l0.2-0.4c0.3,0.2,0.8,0.3,1.5,0.3c1.7,0,3.9-1.9,4.2-3.8c-0.1-0.2-0.2-0.4-0.3-0.6
		c-0.5-0.7-0.8-1.3-1.1-1.9C1102.9,398.8,1103.2,398.4,1103.5,397.9L1103.5,397.9z" id="PATH_194" class="area" title=""></path>
	<path d="M1107.6,400.7c1.1,0,2,0,2.8-0.3c0.8-0.2,1.5-0.7,1.5-1.1c0-0.1,0-0.2,0-0.3c-0.5,0.1-1,0.1-1.4,0.1c-1.5,0-2.6-0.4-3-1.4
		c-0.1-0.3-0.2-0.6-0.2-0.9c0-0.9,0.3-1.9,1-2.5c0.5-0.5,1.1-0.9,1.6-0.9c1,0,1.9,1,2.4,2.5c0.3,0.8,0.5,1.8,0.5,3
		c0,0.8-0.2,1.5-0.6,2c-0.8,0.9-2.3,1.3-4.5,1.3h-1c-0.7,0-0.9-0.5-0.9-0.9c0-0.3,0.2-0.8,0.9-0.8H1107.6z M1109.5,395.2
		c-0.8,0-1.5,0.6-1.5,1.1c0,1,1.7,1.3,3.7,1.3C1111.4,396.4,1110.5,395.2,1109.5,395.2z M1109.2,389.5c0.5,0.4,1,0.8,1.5,1.4
		c-0.3,0.5-0.6,0.9-1.1,1.2c-0.5-0.5-1-0.9-1.5-1.3C1108.5,390.3,1108.9,389.9,1109.2,389.5z" id="PATH_195" class="area" title=""></path>
</g>
<polygon class="st8 area" points="1178.1,355 1178.1,377.7 1193.5,395.1 1217.8,407.4 1234.8,385.3 1234.8,355 1228,343.3 1202.5,350.6 
	" id="_x34_86" title=""></polygon>
<g id="G_197" class="area" title="">
	<path d="M1188.4,365.4c0.7,1.7,1.4,2.7,2.9,2.7h0.2v1.6h-0.3c-0.6,0-1-0.1-1.3-0.4h-0.1c0,0.2,0,0.3,0,0.4c0,0.6-0.2,1.4-0.5,2
		c-1,1.8-2.1,2.5-3,2.5c-1,0-2.1-0.4-3.2-1l0.2-0.4c0.3,0.2,0.8,0.3,1.5,0.3c1.7,0,3.9-1.9,4.2-3.8c-0.1-0.2-0.2-0.4-0.3-0.6
		c-0.5-0.7-0.8-1.3-1.1-1.9C1187.8,366.3,1188.1,365.8,1188.4,365.4L1188.4,365.4z" id="PATH_198" class="area" title=""></path>
	<path d="M1191.7,368.1c1,0,2-0.4,2.2-1.1l0.4-1.4l0.9-0.6l0.1,0.1c-0.2,0.6-0.3,1.2-0.3,1.5c0,0.4,0.1,0.8,0.4,1.1
		c0.4,0.3,0.9,0.5,1.6,0.5h0.2v1.6h-0.3c-1.2,0-2.2-0.3-2.6-1.3h-0.1c-0.4,0.9-1.4,1.3-2.5,1.3h-0.2c-0.7,0-0.9-0.5-0.9-0.9
		c0-0.3,0.2-0.8,0.9-0.8H1191.7z M1193.2,374.8c-0.5-0.5-1-0.9-1.5-1.3c0.3-0.5,0.7-0.9,1-1.2c0.5,0.4,1,0.8,1.4,1.4
		C1193.8,374.1,1193.5,374.5,1193.2,374.8z M1195.6,374.6c-0.5-0.5-1-0.9-1.5-1.3c0.3-0.5,0.7-0.9,1-1.2c0.5,0.4,1,0.8,1.4,1.4
		C1196.2,374,1196,374.3,1195.6,374.6z" id="PATH_199" class="area" title=""></path>
	<path d="M1197.5,368.1c1.3,0,1.8-0.7,2.1-1.9c0.5-1.6,1.5-2.4,2.3-2.4c0.6,0,1.1,0.2,1.5,0.9c0.3,0.5,0.6,0.9,1.3,2.4
		c0.3,0.6,1,1,2,1h0.2v1.6h-0.2c-0.7,0-1.4-0.3-2-1.1h-0.1c-0.1,0.4-0.2,0.7-0.4,1c-0.3,0.3-0.5,0.4-0.8,0.4c-1,0-2.6-0.7-3.6-1.8
		h-0.1c-0.4,0.8-1.2,1.5-2.5,1.5h-0.2c-0.7,0-0.9-0.5-0.9-0.9c0-0.3,0.2-0.8,0.9-0.8H1197.5z M1201.8,367.9c0.6,0.3,1.3,0.6,1.8,0.6
		c0.2,0,0.5,0,0.5-0.3c0-0.5-0.3-1.2-0.6-1.7c-0.5-0.7-1.1-1.1-1.6-1.1c-0.7,0-1.2,0.5-1.5,1.1
		C1200.5,366.9,1201.3,367.6,1201.8,367.9z" id="PATH_200" class="area" title=""></path>
	<path d="M1207.3,368.1c1,0,2-0.4,2.2-1.1l0.4-1.4l0.9-0.6l0.1,0.1c-0.2,0.6-0.3,1.2-0.3,1.5c0,0.4,0.1,0.8,0.4,1.1
		c0.4,0.3,0.9,0.5,1.6,0.5h0.2v1.6h-0.3c-1.2,0-2.2-0.3-2.6-1.3h-0.1c-0.4,0.9-1.4,1.3-2.5,1.3h-0.2c-0.7,0-0.9-0.5-0.9-0.9
		c0-0.3,0.2-0.8,0.9-0.8H1207.3z M1209.5,360.4c0.5,0.4,1,0.8,1.5,1.4c-0.3,0.5-0.6,0.9-1.1,1.2c-0.5-0.5-1-0.9-1.5-1.3
		C1208.8,361.3,1209.2,360.8,1209.5,360.4z" id="PATH_201" class="area" title=""></path>
	<path d="M1214.2,368.1c0.2-0.9,0.4-1.8,0.7-2.7c0.3-1.2,0.8-2.3,1.4-3.3l0.1,0c0.1,0.2,0.3,0.5,0.5,0.8c0.9,1.3,1.7,2.5,1.7,3.6
		c0,0.6-0.1,1.1-0.2,1.7h2.5v1.6h-0.3c-0.2,0-0.7,0-1.1-0.1l-0.1,0c0.3,0.6,0.5,1.2,0.5,1.7c0,0.5-0.2,1.1-0.4,1.5
		c-0.4,0.6-1.1,1.2-1.9,1.2c-0.6,0-1.3-0.2-1.8-0.5c-1.1-0.7-1.7-2-1.7-3.3v-0.6c-0.3,0-0.7,0.1-1,0.1h-0.2c-0.7,0-0.9-0.5-0.9-0.9
		c0-0.3,0.2-0.8,0.9-0.8H1214.2z M1215.5,371.5c0.7,0.8,1.6,1.3,2.4,1.3c0.5,0,0.7-0.3,0.7-0.6s-0.1-0.9-0.5-1.5c-0.4-0.6-1-1-2-1
		c-0.5,0-1,0-1.4,0.1C1214.8,370.3,1215.1,371,1215.5,371.5z M1216.9,367.9c0.6-0.2,0.8-0.4,0.8-0.6c0-0.8-0.8-1.9-1.6-3.1h-0.1
		c-0.4,1.3-0.8,2.6-1.2,3.9C1215.6,368.1,1216.3,368.1,1216.9,367.9z" id="PATH_202" class="area" title=""></path>
	<path d="M1221,368.1c1.1,0,1.9,0,2.5-0.2c0.4-0.2,0.7-0.3,0.7-0.6c0-0.6-0.6-1.8-1.3-3.1c0.3-0.5,0.6-1,1-1.4h0.1
		c0.6,1,1.3,2.6,1.3,3.9c0,1-0.4,1.7-0.9,2.4c-0.6,0.6-1.5,0.8-3.4,0.8h-0.2c-0.7,0-0.9-0.5-0.9-0.9c0-0.3,0.2-0.8,0.9-0.8H1221z
		 M1223.4,372.1c0.5,0.4,1,0.8,1.5,1.4c-0.3,0.5-0.6,0.9-1.1,1.2c-0.5-0.5-1-0.9-1.5-1.3C1222.7,373,1223.1,372.5,1223.4,372.1z" id="PATH_203" class="area" title=""></path>
</g>
<polygon class="st9 area" points="838,432.8 843,512.7 857,572.3 903.6,602.7 917.4,595.2 926,582.2 956.5,578.9 968.2,568.9 
	966.5,555.6 941.1,512.7 931.4,487.6 940.6,472.8 944.1,467.2 906.9,446.9 920.4,424 914.8,413.8 890.4,422.4 " id="_x34_05" title=""></polygon>
<g id="G_205" class="area" title="">
	<path d="M862.1,489.5c1,2,1.6,3.9,1.6,6.2c0,1.5-0.5,3.2-1.1,3.9c-1.3,1.4-3.3,2.3-5,2.3c-2.8,0-4.6-1.9-4.6-4.6
		c0-1.9,0.6-3.3,1.3-4.4l0.6,0.3c-0.5,1-0.8,2.1-0.8,2.8c0,1.3,0.4,2.1,1,2.6c0.7,0.6,1.7,1,2.9,1c1.2,0,2.7-0.6,3.7-1.3
		c0.7-0.5,1-1,1-1.3c0-1-0.2-1.9-0.5-2.7c-0.4-1.2-0.8-2.2-1.3-3c0.4-0.6,0.7-1.3,1.2-1.9L862.1,489.5z M857.9,484.6
		c0.6,0.5,1.2,1,1.8,1.6c-0.3,0.5-0.7,1-1.3,1.5c-0.6-0.6-1.2-1-1.8-1.6C857.1,485.6,857.5,485.1,857.9,484.6z" id="PATH_206" class="area" title=""></path>
	<path d="M870.4,498.3h-0.2c-1.2,0-2-0.2-2.6-0.9c-0.9-0.9-0.9-2-0.9-4.2c0-2.9-0.2-5.9-0.4-9.1c0.5-0.6,1-1.1,1.4-1.4l0.1,0.1
		c0.2,3.3,0.2,7.2,0.2,11v0.9c0,1,0.5,1.4,1.1,1.6c0.4,0.1,0.8,0.2,1,0.2h0.2V498.3z" id="PATH_207" class="area" title=""></path>
	<path d="M870.7,496.3c1.2,0,2.4-0.5,2.6-1.3l0.4-1.6l1-0.8l0.1,0.1c-0.2,0.8-0.3,1.4-0.3,1.8c0,0.5,0.1,1,0.5,1.3
		c0.5,0.4,1.1,0.6,1.9,0.6h0.3v1.9h-0.3c-1.5,0-2.6-0.4-3.1-1.5h-0.1c-0.5,1-1.7,1.5-3,1.5h-0.3c-0.8,0-1.1-0.6-1.1-1
		c0-0.4,0.2-0.9,1.1-0.9H870.7z M872.4,490.6c-0.6-0.6-1.2-1.1-1.8-1.6c0.4-0.5,0.8-1,1.2-1.4c0.6,0.5,1.1,1,1.7,1.6
		C873.1,489.8,872.8,490.2,872.4,490.6z M875.3,490.4c-0.6-0.6-1.2-1.1-1.8-1.6c0.4-0.5,0.8-1,1.2-1.4c0.6,0.5,1.1,1,1.7,1.6
		C876,489.6,875.7,490,875.3,490.4z" id="PATH_208" class="area" title=""></path>
	<path d="M892.7,498.3h-0.4c-1.9,0-2.7-0.6-3.1-1.4h-0.1c-0.8,1-1.7,1.4-2.6,1.4c-0.7,0-1.4-0.2-1.6-1.3h-0.1
		c-0.7,0.7-1.5,1.3-2.6,1.3c-0.8,0-1.4-0.4-1.5-1.3h-0.1c-0.9,1.1-2.2,1.3-3.2,1.3h-0.3c-0.8,0-1.1-0.6-1.1-1c0-0.4,0.2-0.9,1.1-0.9
		h0.5c1.4,0,2.4-0.4,3.2-1.4l0.8-1.2l1.2-0.4l0.1,0.1c-0.6,1-1,1.7-1,2.2c0,0.5,0.3,0.8,0.8,0.8c0.4,0,0.9-0.2,1.3-0.5
		c0.4-0.3,0.8-0.8,1-1.3l0.4-0.9l1.2-0.5l0.1,0.1c-0.5,1.2-0.6,1.7-0.6,2.3c0,0.4,0.3,0.9,0.8,0.9c0.5,0,0.8-0.2,1-0.3
		c0.5-0.3,0.7-0.8,0.9-1.5c0.1-0.2,0.2-0.5,0.3-1.2l1.2-0.8l0.1,0c-0.2,0.7-0.4,1.5-0.4,2.1c0,1.2,1,1.6,2.5,1.6h0.3V498.3z" id="PATH_209" class="area" title=""></path>
	<path d="M893.1,496.3c1.6,0,2.1-0.8,2.6-2.2c0.6-1.9,1.8-2.9,2.8-2.9c0.7,0,1.3,0.3,1.8,1c0.4,0.5,0.7,1.1,1.5,2.8
		c0.3,0.7,1.1,1.2,2.4,1.2h0.3v1.9h-0.3c-0.9,0-1.7-0.3-2.3-1.3h-0.1c-0.1,0.5-0.2,0.9-0.5,1.2c-0.3,0.3-0.7,0.5-1,0.5
		c-1.2,0-3.1-0.8-4.3-2.1h-0.1c-0.4,1-1.4,1.8-3,1.8h-0.2c-0.8,0-1.1-0.6-1.1-1c0-0.4,0.2-0.9,1.1-0.9H893.1z M898.2,496.1
		c0.7,0.4,1.6,0.7,2.1,0.7c0.3,0,0.6,0,0.6-0.4c0-0.6-0.4-1.4-0.8-2c-0.6-0.9-1.3-1.4-1.9-1.4c-0.8,0-1.5,0.6-1.7,1.4
		C896.6,494.9,897.6,495.7,898.2,496.1z" id="PATH_210" class="area" title=""></path>
	<path d="M905.4,496.3c2.5,0,5-0.9,8.1-2.7l0-0.1c-1.8-0.7-3.4-1.1-4.8-1.1c-0.9,0-1.5,0.3-1.9,0.8l0.2,0.8l-0.5,1.4h-0.2l-0.7-2
		c0.1-1.7,1.5-2.7,3.3-2.7c1,0,2.6,0.4,5,1.3c0.7,0.3,1.6,0.5,2.6,0.5l1.2,0l0,0l-0.8,1.6c-1.3,0-2.1,0.2-2.6,0.6l-2.5,1.6
		c-2,1.3-4.2,2-6.6,2h-0.8c-0.8,0-1.1-0.6-1.1-1c0-0.4,0.2-0.9,1.1-0.9H905.4z M909.4,502.9c-0.6-0.6-1.2-1.1-1.8-1.6
		c0.4-0.5,0.8-1,1.2-1.4c0.6,0.5,1.1,1,1.7,1.6C910.1,502.1,909.8,502.5,909.4,502.9z M911.5,505.9c-0.6-0.6-1.2-1.1-1.8-1.6
		c0.4-0.5,0.8-1,1.2-1.4c0.6,0.5,1.1,1,1.7,1.6C912.2,505.1,911.9,505.5,911.5,505.9z M912.3,502.7c-0.6-0.6-1.2-1.1-1.8-1.6
		c0.4-0.5,0.8-1,1.2-1.4c0.6,0.5,1.1,1,1.7,1.6C913,501.9,912.7,502.3,912.3,502.7z" id="PATH_211" class="area" title=""></path>
</g>
</svg>
