<!--?xml version="1.0" encoding="utf-8"?-->
<!-- Generator: Adobe Illustrator 27.4.1, SVG Export Plug-In . SVG Version: 6.00 Build 0)  -->
<svg version="1.1" id="Layer_1" xmlns="http://www.w3.org/2000/svg" xmlns:xlink="http://www.w3.org/1999/xlink" x="0px" y="0px" viewBox="0 0 1920 1080" style="enable-background:new 0 0 1920 1080;" xml:space="preserve" width="100%" height="100%">
<style type="text/css">
	.st0{fill:#E8D0E5;stroke:#000000;stroke-width:0.4481;stroke-miterlimit:22.4066;}
	.st1{fill:#DBECCB;stroke:#000000;stroke-width:0.4481;stroke-miterlimit:22.4066;}
	.st2{fill:#FBCFD0;stroke:#000000;stroke-width:0.4481;stroke-miterlimit:22.4066;}
	.st3{fill:#FDF9D2;stroke:#000000;stroke-width:0.4481;stroke-miterlimit:22.4066;}
	.st4{fill:none;stroke:#010101;stroke-width:1.1203;stroke-miterlimit:22.4066;}
	.st5{fill:#FFFFFF;stroke:#000000;stroke-width:0.5;stroke-miterlimit:10;}
</style>
<path id="_x35_53" class="st0 area active" d="M974,151.5c0,3.6,4,8.3,10.1,9.2c3.1-8.7,9.6-15,21.7-12.5c1.3-12.8-6.3-19.5-14.8-27.1
	C979.2,124.8,974,141.6,974,151.5z" title=""></path>
<path id="_x36_33" class="st1 area" d="M855.2,241.1c4.5-20.2,26.9-15.7,40.3-29.1c2.2-2.2-2.2-9,0-11.2c4.5-4.5,11.2-6.7,13.4-13.4
	c0-22.4-4.5-44.8,15.7-47.1c12.5-1.8,33.4,11.9,49.3,9.9c0.4-9.9,5.6-25.3,17-29.1c-4.5-4-9-8.5-12.5-14.3
	c-4.9-7.4-7.2-15.2-7.8-23.3l-42.1-6.3l-32.3-4.7c0,0.4,0,0.7-0.2,1.1c-0.4,0.7-9.6,18.1-14.3,22.9c-4.7,4.7-13.7,9-19,9
	c-2.5,0-11.9,2.7-20.4,5.2c-7.2,2-14.6,4.3-18.8,5.2c-1.6,0.2-2.9,1.1-3.6,2.5c-2.9,4.7-1.1,14.6,0.2,19.7
	c2.2,8.1-8.1,15.5-10.1,16.8c-3.6,2.2-18.8,4-27.3,4c-2.7,0-4.7,0.4-5.6,1.6c-1.1,1.1-1.1,3.1-1.1,5.2v0.9c0,2.7-0.9,10.5-1.6,15
	C809.3,187.1,851,203.2,855.2,241.1z" title=""></path>
<path id="_x36_31" class="st2 area" d="M893.3,279.2c2.2,4.5,15.7-6.7,20.2,0c2.7,2.7,5.6,5.2,8.5,7.2l50.4-61.6l16.8-20.8
	c-5.8-4.3-8.7-10.3-8.7-19c0-6.9,0.4-16.6,3.4-24.4c-6-0.9-10.1-5.8-10.1-9.2c0-0.4,0-0.9,0-1.3c-15.9,2-37-11.7-49.3-9.9
	c-20.2,2.2-15.7,24.6-15.7,47.1c-2.2,6.7-9,9-13.4,13.4c-2.2,2.2,2.2,9,0,11.2c-13.4,13.4-35.9,9-40.3,29.1
	c-0.2-2.5-0.7-4.9-1.3-7.4C851.2,255.7,878.8,262.6,893.3,279.2z" title=""></path>
<path id="_x36_32" class="st0 area" d="M893.3,489.8c4.5,0,4.5,6.7,9,4.5c-6.7,20.2,13.4,9,22.4,11.2c-2.2,4.5,4.5,4.5,2.2,9
	c11.2,2.2,15.7-11.2,26.9-4.5c6.7-11.2,22.4-22.4,29.1-15.7c12.1,13.7,27.3,27.3,44.8,31.1l-2.9-3.6l-8.3-8.1l-5.6-7.4l-13.4-12.8
	l-3.8-4.7l-3.8-8.5l-3.8-4.5l-0.7-2.2l-0.2-2.7l-0.9-2.9l-5.2-13.2l-1.1-1.6l-1.6-1.3l-1.8-0.7l-0.9-0.9l-0.2-0.9l0.2-0.9l0.9-1.1
	l1.3-1.1l0.4-1.6l-0.4-1.3l-1.3-0.9l-2.2-1.1l-0.9-2.2l-0.7-2.7l-1.3-2.2l-1.6-0.7l-1.1-0.2l-1.1-0.4l-1.3-1.6l-0.7-1.8l-0.4-3.8
	l-0.4-1.8l-1.6-2.7l-4.3-4.7l-1.3-3.1v-2.9l1.6-5.6l0.2-2.9l-1.1-4l-2.2-1.6l-2.7-1.1l-2-1.6c-5.2,3.4-11.2,6.5-15.7,11
	c-6.7,9,4.5,22.4-2.2,29.1c-13.4,11.2-26.9-15.7-33.6-6.7c-9,13.4-9,15.7-22.4,26.9c6.5,4.7,5.8,10.8,4.3,16.4
	C888,475,897.1,478.4,893.3,489.8z" title=""></path>
<path id="_x35_42" class="st2 area" d="M723,561.5c11.2,9-13.4,17.9-9,31.4c2.2,13.4,24.6,4.5,31.4,17.9c-2.2,0-6.7,0-6.7,0
	c-2.2,4.5,0,9,0,13.4c2.2-2.2,6.7,2.2,6.7,2.2c4.5,24.6-33.6,33.6-22.4,49.3c17.9,24.6,56,11.2,85.1,24.6
	c-11.2,11.2-38.1,9-24.6,31.4c-13.4-2.2-20.2,9-24.6,15.7c-6.7,13.4,9,20.2,17.9,20.2c24.6-2.2,47.1-11.2,71.7,2.2
	c20.2,11.2,47.1-17.9,76.2-13.4c9,2.2,9-15.7,22.4-15.7c-4.5-9,0-11.2,4.5-17.9c-4.5-2.2-6.7-2.2-11.2-4.5
	c-11.2-9-13.4-24.6-22.4-29.1c-11.2-4.5-29.1-4.5-42.6-13.4c-13.4-9-15.7-17.9-22.4-31.4c-2.2-2.2-9-2.2-9-4.5
	c-4.5-20.2-26.9-33.6-17.9-53.8c-22.4-9-29.1-33.6-15.7-51.5c2.2,0,6.7,0,9,0c1.3-1.3,1.1-3.6,0.2-5.6c0,0.4,0,0.7-0.2,1.1
	c-26.9-24.9-61.4-9.6-93-17.7c0.4,1.6,0.4,2.7-0.2,4c-1.6,2.9-5.8,3.4-8.1,3.4c-4.5,0-37.6-2.5-42.8-2.7c-1.8,1.1-7.2,4.9-13,7.4
	c-1.6,0.7-2.7,1.6-2.9,2.2s0.4,1.6,0.4,1.6l9.9,11.9v24.2c0,0.4,0,0.9,0,1.3C685.4,568.9,706.5,548.5,723,561.5z" title=""></path>
<path id="_x39_60" class="st0 area" d="M741,772.1c0-4.5,6.7-6.7,4.5-11.2c3.8-0.9,8.3-1.8,12.5-3.6c-1.1-2.7-1.1-6,0.9-9.9
	c4.5-6.7,11.2-17.9,24.6-15.7c-13.4-22.4,13.4-20.2,24.6-31.4c-29.1-13.4-67.2,0-85.1-24.6c-11.2-15.7,26.9-24.6,22.4-49.3
	c0,0-4.5-4.5-6.7-2.2c0-4.5-2.2-9,0-13.4c0,0,4.5,0,6.7,0c-6.7-13.4-29.1-4.5-31.4-17.9c-4.5-13.4,20.2-22.4,9-31.4
	c-16.6-13-37.6,7.4-53.3,4c-0.9,5.8-7.2,6.9-16.6,6.9c-8.5,0-11.9,12.3-13,16.8c-0.2,0.7-0.4,1.3-0.4,1.8c-0.7,2.2-2,33.2-2.7,52.2
	l-7.6,68.8c0,0.2-1.8,11.2-1.8,14.8c0,2,2.9,7.4,4.9,11.4c1.3,2.7,2.7,4.9,3.4,6.7c2,5.2,4,11.2,0.9,17.3c-2.9,5.8-3.4,7.2-2.7,10.1
	c0.9,3.4,6.9,12.1,12.8,12.8c5.2,0.7,6.9,6.3,7.6,11.4c1.3-0.4,2.5-1.1,3.8-2C682.7,772.1,709.6,774.4,741,772.1z" title=""></path>
<path id="_x35_97" class="st1 area" d="M700.6,828.1c17.9-4.5,33.6,20.2,60.5,13.4c4.5-2.2,0-6.7,0-9c2.2,0,4.5,0,6.7,0
	c4.5-6.7,2.2-17.9,13.4-20.2c11.2-4.5-4.5-11.2-4.5-15.7c0-10.5,2.7-20.8,9.2-30.2c-2.9,0.4-6,0.9-9.2,1.1
	c-6.3,0-16.1-3.4-18.8-10.3c-4.3,1.6-8.7,2.5-12.5,3.6c2.2,4.5-4.5,6.7-4.5,11.2c-31.4,2.2-58.3,0-82.9,22.4c-1.1,0.9-2.5,1.6-3.8,2
	c0.4,2.9,0.4,5.6,0.4,7.2c0,3.4,1.6,18.8,1.8,21.1C669.9,831.7,685.2,833.3,700.6,828.1z" title=""></path>
<path id="_x35_47" class="st3 area" d="M781.3,951.4c2.2,2.2,6.7,2.2,6.7,6.7c22.4-9,44.8,0,67.2-4.5c-2.2-4.5,0-9-2.2-13.4
	c-9-11.2-29.1-13.4-29.1-20.2c-2.2-17.9,9-38.1,20.2-56c4.5-6.7,20.2,2.2,26.9-6.7c2.2-6.7-2.2-13.4-4.5-20.2
	c15.7,4.5,24.6-11.2,33.6-20.2c4.5-9-6.7-11.2-9-17.9c6.7,0,20.2-2.2,15.7-6.7c-6.9-10.5-9.9-21.1-16.4-29.6
	c-15.7,6.3-30,13.7-41.9,7.2c-21.5-11.9-41.5-6.3-62.5-3.4c-6.5,9.4-9.2,19.7-9.2,30.2c0,4.5,15.7,11.2,4.5,15.7
	c-11.2,2.2-9,13.4-13.4,20.2c-2.2,0-4.5,0-6.7,0c0,2.2,4.5,6.7,0,9c-26.9,6.7-42.6-17.9-60.5-13.4c-15.5,5.2-30.7,3.8-44.1-3.1
	c0,0.2,0,0.2,0,0.2l0.2,1.6l-1.6,0.2c-0.2,0-7.6,0.9-11.4,0.9c-1.3,0-2.9,1.1-4.7,2.5c-1.1,0.9-2.5,1.8-4,2.5
	c0.4,2.9,3.8,21.5,6.3,26.4c1.1,2.2,3.8,8.7,6.9,16.1c4.3,10.3,9.6,23.3,11.9,27.1c3.6,6,2.5,9.2-1.1,12.1c33.6,4.7,65,12.5,91,36.5
	C754.4,958.1,770.1,949.1,781.3,951.4z" title=""></path>
<path id="_x39_91" class="st1 area" d="M884.4,971.6c-6.7,2.2-13.4-2.2-20.2-4.5c-4.3-2.9-5.8-9.2-9.2-14.1c0,0.2,0.2,0.4,0.2,0.7
	c-22.4,4.5-44.8-4.5-67.2,4.5c0-4.5-4.5-4.5-6.7-6.7c-11.2-2.2-26.9,6.7-31.4,0c-26-24-57.4-32-91-36.5c-0.9,0.7-2,1.6-3.1,2.2
	s-1.3,1.3-1.3,1.8c0,2,2.7,5.4,6.9,8.5c4,2.9,13.4,16.4,15.5,20.4l0.7,1.3c1.8,3.6,4.3,8.3,4.3,14.6c0,6.5-1.8,43.7-1.8,45.3l0,0
	l2.5-0.4l3.8-0.4l18.6-6.9l6-0.2l5.6,2l7.8,8.3l5.4,2.5h5.2l23.3-2.5l2.2,1.1l0.9,2.7l0.4,0.9l5.2,4.9l0.9-0.2l0.7-1.1l0.9-0.7
	l10.8-3.1l5.6-0.2l5.2,1.3h0.7l1.3-0.2l0.7,0.2v0.7l-0.2,1.8l0.2,0.7l1.3,2l1.1,0.7l4.5,0.7l1.3,0.7l2.7,1.8l0.9-0.9l0.7-2.9
	l0.2-1.1l-0.4-0.7v-0.9l1.3-1.3l0.7-0.4l3.6-0.7l4.7-0.2l2.5,0.2l1.8,1.1l-0.4,0.4l-1.3,2.5l2.9,2.2l6.7,1.1l2.7,1.6l7.6,7.4
	l1.6,0.4h2l-0.7-2.2l-2.9-5.2v-0.2v-0.7v-0.7l-0.4-1.1l-0.7-0.2h-1.1l-1.3-0.9h-0.9l-0.7-0.4l-0.4-3.1l-0.4-0.9v-1.1l1.1-1.8l2-2.5
	l1.1-2.2l2.2-1.3l9.2-2.9l2.2-0.2l2.2,0.2l2,1.3l0.7,0.9C862.2,992.4,864.4,977.4,884.4,971.6z" title=""></path>
<path id="_x35_46" class="st2 area" d="M938.2,899.9c-4.5,2.2,4.5,13.4,0,22.4c-2.2,2.2-11.2,2.2-9,9c4.5,9,29.1,22.4,13.4,20.2
	c-29.4,0-55.1-1.8-74.6,17c5.4,2.2,11,4.9,16.4,3.1c-19.9,6-22.2,20.8-28.7,36.5l4.3,4.3l0.4,1.3v8.5l0.4,2.2l3.1,4.9l-2,1.8l2,1.3
	l12.5,1.6l18.1,4.7l21.5,3.8l22,6.9l0.4,0.7l0.9,3.6l0.4,0.9l4.9,2l26,6.5l-1.6-1.8l-2-1.3l7.2-2.2l1.8-1.1l1.1-1.1l0.2-0.4v-0.9
	l0.4-1.6l2.2-2.9l0.7-1.6l-1.1-1.3l-1.3-0.7l-3.1-1.1l2.9-2.2h2.2l2,0.9l2.9,0.4l-0.9-0.9l-1.1-1.6l-0.9-0.7l0.4-0.9l0.2-2.7
	l0.4-0.7l1.1-0.9l0.7,0.4l0.4,0.9l2.2,1.8l0.4,2.5l0.7,2.2l4.3-12.8l2.9-50.9l0.4-2.2l0.9-1.3l1.8-2l0.9-1.3l0.4-5.4l-1.6-6
	l-0.7-5.6l2.7-4.3l2.9-0.7h2.5l2.2-0.4l2-2.7l0.9-2.7l2.7-21.3C989.7,908.1,970,885.1,938.2,899.9z" title=""></path>
<path id="_x35_99" class="st0 area" d="M938.2,886.4c-32.3-4-37.4-33.6-52.7-54c-5.2,4.3-11.2,6.9-19,4.7c2.2,6.7,6.7,13.4,4.5,20.2
	c-6.7,9-22.4,0-26.9,6.7c-11.2,17.9-22.4,38.1-20.2,56c0,6.7,20.2,9,29.1,20.2c2,4.3,0.2,8.5,2,12.8c3.4,4.9,4.9,11.4,9.2,14.1
	c1.3,0.4,2.5,0.9,3.8,1.3c19.5-18.8,45.5-17,74.6-17c15.7,2.2-9-11.2-13.4-20.2c-2.2-6.7,6.7-6.7,9-9c4.5-9-4.5-20.2,0-22.4
	c3.6-1.8,7.2-2.9,10.5-3.6C946.4,890.7,941.3,886.4,938.2,886.4z" title=""></path>
<path id="_x33_19" class="st2 area" d="M947.1,615.3c-6.7-9-11.2,9-6.7,15.7c13.4,17.9,24.6,35.9,31.4,56c0,2.2,6.7,4.5,9,9
	s2.2,9,2.2,11.2c9,9,15.7-13.4,24.6-9c11.2,4.5,6.7,22.4,17.9,29.1c6.7,2.2,2.2,11.2,11.2,15.7c-6.7,15.7-29.1,26.9-22.4,44.8
	c2.2,2.2,15.7,2.2,24.6,6.7c4.5,0,11.2,6.7,15.7,9c17.7,7.8,40.8,12.3,52.2,28.7l11.9-1.3c-9.9-14.8-29.1-22.4-32.7-38.5
	c-4.5-13.4,24.6-11.2,31.4-26.9c-2.2,0-4.5,0-6.7,0c-2.2-4.5,0-9,0-13.4c-9,2.2-15.7-4.5-22.4-4.5c2.2-15.7-4.5-24.6-17.9-33.6
	c-4.5-4.5-2.2-17.9-4.5-29.1c-9,6.7-15.7,2.2-20.2-4.5c-13.4-20.2-24.6-42.6-47.1-53.8c-4.9-2.5-6.5-7.4-6-13
	c-1.1-0.2-2.2-0.4-2.9-0.4C974,610.8,965,628.7,947.1,615.3z" title=""></path>
<path id="_x31_3" class="st3 area" d="M960.6,678c-10.5,10.5-22.6,14.3-36.1,17.5c4.5,6.7,8.1,16.4,15.9,22.9c4.5,2.2,6.7,2.2,11.2,4.5
	c-4.5,6.7-9,9-4.5,17.9c-13.2,0-13.4,17.3-22,15.7c4.7,6.7,7.4,16.4,17.5,17.9c0-9,13.4-11.2,17.9-6.7c9,11.2,22.4,24.6,38.1,17.9
	c0,13.4-2.2,26.9,0,40.3c0,4.5,6.7,6.7,13.4,4.5c0,2.2,0,4.5,0,6.7c6.7,4.5,13.4,9,20.2,4.5c13.4-13.4,35.9-17.9,56-13.4
	c4.3,0,6.5,3.1,8.3,6.7l0.2-0.7l1.1-0.7l1.3-0.4l7.4-0.9c-11.4-16.4-34.3-20.8-52.2-28.7c-4.5-2.2-11.2-9-15.7-9
	c-9-4.5-22.4-4.5-24.6-6.7c-6.7-17.9,15.7-29.1,22.4-44.8c-9-4.5-4.5-13.4-11.2-15.7c-11.2-6.7-6.7-24.6-17.9-29.1
	c-9-4.5-15.7,17.9-24.6,9c0-2.2,0-6.7-2.2-11.2s-9-6.7-9-9c-1.1-3.1-2.2-6.3-3.6-9.4C965.5,677.1,961.9,678,960.6,678z" title=""></path>
<path id="_x35_48" class="st1 area" d="M1143.2,572.7l-2.9-1.8l-21.5,4.5l-2.7-1.6l-8.3-9.4l-1.8-3.4l-0.9-2.7l-0.9-1.6l-1.3-0.9
	l-2.2-0.7l-2.2-1.3l-1.3-1.8l-1.1-2.2l-1.3-1.8l-3.8-2l-17.3-3.6l-11-5.2l-4-0.9l-8.7-0.7l-4-1.3l-6.3-3.8l-7.8-2.2l-2.5-1.3
	l-1.1-1.3c-17.5-4-32.7-17.5-44.8-31.1c-6.7-6.7-22.4,4.5-29.1,15.7c-11.2-6.7-15.7,6.7-26.9,4.5c2.2-4.5-4.5-4.5-2.2-9
	c-9-2.2-29.1,9-22.4-11.2c-4.5,2.2-4.5-4.5-9-4.5c3.8-11.4-5.4-14.8-13.7-19.5c-0.7,2.2-1.3,4.3-2,6c-4.5,6.7-15.7-2.2-20.2,2.2
	c-2.2,6.7,2.2,17.9-2.2,20.2c-13.2,11-32.9,9-35.6,30.2c0.9,2,1.1,4.3-0.2,5.6c-2.2,0-6.7,0-9,0c-13.4,17.9-6.7,42.6,15.7,51.5
	c-9,20.2,13.4,33.6,17.9,53.8c0,2.2,6.7,2.2,9,4.5c6.7,13.4,9,22.4,22.4,31.4c13.4,9,31.4,9,42.6,13.4c2.7,1.3,4.7,3.6,6.5,6.3
	c13.4-3.4,25.5-6.9,36.1-17.5c1.6,0,4.9-0.9,7.6-0.4c-6.7-16.4-16.6-31.6-27.8-46.6c-4.5-6.7,0-24.6,6.7-15.7
	c17.9,13.4,26.9-4.5,42.6-2.2c0.7,0,1.8,0.2,2.9,0.4c0.9-9.4,7.8-20.2,15-22.9c31.4-15.7,60.5,11.2,91.9,6.7
	c13.4-2.2,29.1-6.7,38.1-20.2c1.1-1.1,3.4-1.1,6-0.9L1143.2,572.7z" title=""></path>
<path id="_x35_65" class="st0 area" d="M1212,737l-2-2.9l-1.3-1.6l-1.1-0.9l-3.4-1.1l-1.3-1.1l-3.6-3.1l-1.6-0.7h-1.3l-7.2,2.2l-1.6,0.2
	l-2.2-0.2h-3.6l-6.7,2.2l-3.6,0.7l-7.6,1.6l-3.6,0.2l-4-0.9l-3.1-1.8l-1.1-0.4l-0.9,0.2l-1.8,1.1h-0.9l-2-1.1l-5.6-5.4h2l1.3-1.1
	l0.7-1.8l0.7-2.2l0.2-2.5l-0.7-1.6l-2.5-3.4l6.7-16.4l0.9-6.5l-4.5-51.8l-5.8-25.5l4-33.4l-0.2-1.8c-2.5-0.2-4.9-0.2-6,0.9
	c-9,13.4-24.6,17.9-38.1,20.2c-31.4,4.5-60.5-22.4-91.9-6.7c-11.2,4.5-22.4,29.1-9,35.9c22.4,11.2,33.6,33.6,47.1,53.8
	c4.5,6.7,11.2,11.2,20.2,4.5c2.2,11.2,0,24.6,4.5,29.1c13.4,9,20.2,17.9,17.9,33.6c6.7,0,13.4,6.7,22.4,4.5c0,4.5-2.2,9,0,13.4
	c2.2,0,4.5,0,6.7,0c-6.7,15.7-35.9,13.4-31.4,26.9c3.6,16.1,22.9,23.5,32.7,38.5l2.5-0.2l2.9-0.9l0.9-0.9l1.1-1.3l1.1-0.7l1.3,0.2
	l1.6,0.9h1.1l4-0.9l1.1-0.4l0.9-0.7l0.9-0.7l1.3-2.7l1.1-1.3l1.3-0.4l31.1,0.9l5.2,0.9h5.2l3.8-0.9l1.1,0.2l1.1,0.4l1.1,0.7l0.9,0.7
	h1.3l2.9-2.9l1.3-6.3l1.1-22.4l0.9-2.5l2.2-1.3l5.4-0.9l2-1.8l0.2-2.9l-1.1-2.5l-1.6-2.5l-1.1-2.9l-0.7-17.5l0.2-1.8l0.4-1.6l1.6-2
	l0.4-1.6l1.3-2.5l2.7-1.3h2.7l2.5,0.9L1212,737z" title=""></path>
<path id="_x33_18" class="st1 area" d="M1088.3,828.1c-20.2-4.5-42.6,0-56,13.4c-6.7,4.5-13.4,0-20.2-4.5c0-2.2,0-4.5,0-6.7
	c-6.7,2.2-13.4,0-13.4-4.5c-2.2-13.4,0-26.9,0-40.3c-15.7,6.7-29.1-6.7-38.1-17.9c-4.5-4.5-17.9-2.2-17.9,6.7
	c-10.1-1.3-12.8-11-17.5-17.9c-0.2,0-0.2,0-0.4,0c-11.9-1.8-23.5,2-34.3,6.3c6.3,8.3,9.2,19,16.4,29.6c4.5,4.5-9,6.7-15.7,6.7
	c2.2,6.7,13.4,9,9,17.9c-4.5,4.5-9.2,11-14.6,15.5c15.5,20.6,20.4,50,52.7,54c3.1,0,8.3,4.3,10.5,9.9c26-5.8,43.9,13.9,65.9,28
	l3.8-29.8l1.1-4.7l1.8-4.3l3.1-2.5l15.9-4.9l4.7-3.1l2.5-1.3l2.7-0.9l5.4-0.9l1.1-1.6l0.7-3.8l2-3.8l5.2,0.7l5.8,2.2l4.7,0.7
	l2.9-1.6v-2.2l-1.3-2.9l-0.7-3.6l0.9-1.8l4-4.3l1.3-2.7v-1.1l-0.4-0.7l-0.4-1.1l0.2-1.3l0.9-1.1l1.1-0.9l2.5-1.1l1.1-0.4l1.6-1.3
	l1.1-0.7h1.3h2.7l1.3-0.2l0.9-0.7l0.7-1.6C1094.8,831.1,1092.5,828.1,1088.3,828.1z" title=""></path>
<path id="_x35_57" class="st3 area" d="M819.4,530.1c2.2-22.4,22.4-20.2,35.9-31.4c4.5-2.2,0-13.4,2.2-20.2c4.5-4.5,15.7,4.5,20.2-2.2
	c2.2-6.7,6.7-15.7-2.2-22.4c13.4-11.2,13.4-13.4,22.4-26.9c6.7-9,20.2,17.9,33.6,6.7c6.7-6.7-4.5-20.2,2.2-29.1
	c4.5-4.5,10.5-7.6,15.7-11l-0.7-0.7l-39.4-48.6l-17.5-21.3l17.5-21.1l13-15.7c-2.9-2-5.8-4.5-8.5-7.2c-4.5-6.7-17.9,4.5-20.2,0
	c-14.3-16.6-42.1-23.5-39.4-45.5c-8.5-32.7-47.1-47.1-79.3-52.2c-0.2,1.8-0.4,2.9-0.4,3.1l-0.2,0.9L773,186l-61.2,25.1
	c-0.4,4.7-2,18.6-4,21.3c-1.3,2.5-2.5,28-2.5,33.8c0,1.8,1.6,25.8,2.9,48.8c1.8,27.3,3.6,55.8,3.6,58.3c0,4.3,2.9,26.9,5.6,33.2
	c5.6,13.2,6.7,21.1,3.4,24.4c-3.8,3.8-6.3,9.2-4.7,10.8c2.9,2.9,5.4,18.8,6,23.5v0.2v0.2c-0.4,15,0,40.3,2.5,44.1
	c0.7,0.9,1.1,2,1.3,2.7C758,520.5,792.5,505.3,819.4,530.1z" title=""></path>
<path id="_x33_14" class="st3 area" d="M980.7,185.1c0,8.7,2.9,14.8,8.7,19l25.5-31.4l2.2-2.5l-0.2-0.9h-0.2l0.2-2.9l0.2-1.1l0.9-0.4
	l-0.4-10.5v-0.2c-4,0.9-8.1-2.7-12.1-2.7c0.2-1.1,0.4-2.2,0.4-3.4C982.7,143.2,980.7,170.1,980.7,185.1z" title=""></path>
<path id="_x32_85" class="st2 area" d="M1005.4,151.5c4,0,8.1,3.6,12.1,2.7l-0.7-1.6l2.5-4.9l0.9-3.4v-3.1l-0.4-3.1l-1.8-5.2l-2.2-4.9
	l-0.2-1.6l-0.2-4.5l-1.1-3.6l-3.6-5.8l-1.3-3.1v-3.1l0.9-6.5l-0.9-2.9l-4.7-6l-2.5-2l-3.4-1.3l-28.2-4.3c0.7,8.1,2.9,15.9,7.8,23.3
	C989.7,124.6,1009.9,129.1,1005.4,151.5z" title=""></path>
<line id="LINE_20" class="st4 area" x1="989.5" y1="140.7" x2="1077.3" y2="83.4" title=""></line>
<line id="LINE_21" class="st4 area" x1="989.5" y1="101.1" x2="1033.4" y2="41.2" title=""></line>
<line id="LINE_22" class="st4 area" x1="995.5" y1="178.4" x2="1086.3" y2="170.5" title=""></line>
<line id="LINE_23" class="st4 area" x1="930.1" y1="471" x2="995.5" y2="440.5" title=""></line>
<line id="LINE_24" class="st4 area" x1="1055.1" y1="742.6" x2="1150.1" y2="843.4" title=""></line>
<line id="LINE_25" class="st4 area" x1="984.3" y1="756" x2="1086.9" y2="880.6" title=""></line>
<line id="LINE_26" class="st4 area" x1="891.3" y1="914.9" x2="1037.6" y2="942.4" title=""></line>
<line id="LINE_27" class="st4 area" x1="927.8" y1="216.9" x2="984.3" y2="247.1" title=""></line>
<g id="G_28" class="area" title="">
	<path id="PATH_29" d="M1040.6,29.8h-0.9c-0.9,0-1.6-0.2-2.2-0.9c-0.4-0.4-0.9-0.9-1.3-1.8c-0.4,0.9-1.1,1.6-1.8,2
		c-0.9,0.4-2,0.7-3.8,0.7c-3.1,0-4.7-1.1-4.7-3.4c0-0.7,0.2-1.6,0.7-2.2c0.2-0.2,0.2-0.4,0.4-0.4s0.2,0.2,0.2,0.4c0,0.2,0,0.2,0,0.7
		c0,0.2,0,0.4,0,0.7c0,1.3,1.1,2,3.4,2c3.1,0,4.7-0.7,4.7-1.8c0-0.7-0.9-3.1-2.7-7.4l0.9-1.8c0.2-0.2,0.2-0.4,0.2-0.4
		s0.2,0.2,0.2,0.4c0.7,1.8,1.8,4.5,3.1,8.1c0.7,1.8,1.6,2.7,2.9,2.7h0.7V29.8L1040.6,29.8z" class="area" title=""></path>
	<path id="PATH_30" d="M1051.5,29.8h-1.8c-2,0-3.4-0.7-4.3-2c-0.7,1.3-2.2,2-4.7,2h-1.1v-2.7h2c2.2,0,3.4-0.9,3.6-2.5
		c0-0.7,0.2-1.1,0.4-1.1c0.2,0,0.4,0.4,0.4,1.1c0.2,1.6,1.3,2.5,3.4,2.5h2V29.8L1051.5,29.8z M1047,18.4l-1.8,1.8l-1.8-1.8l1.8-1.8
		L1047,18.4z" class="area" title=""></path>
	<path id="PATH_31" d="M1062.7,25.3c0,1.1,0,2-0.4,2.9c-0.4,1.1-1.1,1.8-1.8,1.8c-1.1,0-2.9-0.7-5.2-2.2c-0.7,0.9-1.1,1.3-1.3,1.6
		c-0.7,0.4-1.3,0.7-2.2,0.7h-1.1v-2.7h1.6c0.9,0,1.8-0.4,2.7-1.6c0.4-0.4,1.1-1.6,2-2.9c0.7-1.1,1.6-1.6,2.2-1.6
		c1.1,0,2,0.4,2.7,1.6C1062.3,23.8,1062.5,24.6,1062.7,25.3z M1061.4,27.1c0-0.7-0.2-1.3-0.7-2.2c-0.4-0.9-1.1-1.3-1.8-1.3
		s-1.3,0.7-2.2,2c0.4,0.4,1.1,0.9,2,1.3c0.9,0.4,1.8,0.7,2.2,0.7C1061.2,27.6,1061.4,27.3,1061.4,27.1z" class="area" title=""></path>
	<path id="PATH_32" d="M1076.6,29.8h-0.9c-0.9,0-1.3-0.2-1.8-0.4c0,0.2,0,0.4,0,0.7c0,2-0.7,4-2,6c-1.1,1.8-2.2,2.5-2.9,2.5
		c-1.8,0-3.1,0-4.5-0.2c-0.4,0-0.7-0.2-0.7-0.2s0.2-0.2,0.7-0.2c1.8-0.4,3.6-1.3,5.4-2.7c1.8-1.6,2.9-3.1,2.9-4.7
		c0-0.9-0.7-2.2-2.2-3.8l1.1-2c0-0.2,0.2-0.2,0.2-0.2l0.2,0.2c0.7,0.9,1.1,1.6,1.6,1.8c0.7,0.4,1.6,0.9,2.5,0.9h0.7v2.5H1076.6z" class="area" title=""></path>
	<path id="PATH_33" d="M1087.6,29.8h-1.8c-2,0-3.4-0.7-4.3-2c-0.7,1.3-2.2,2-4.7,2h-1.3v-2.7h2c2.2,0,3.4-0.9,3.6-2.5
		c0-0.7,0.2-1.1,0.4-1.1c0.2,0,0.4,0.4,0.4,1.1c0.2,1.6,1.3,2.5,3.4,2.5h2v2.7H1087.6z M1080.2,34.7l-1.8,1.8l-1.8-1.8l1.8-1.8
		L1080.2,34.7z M1084,34.7l-1.8,1.8l-1.8-1.8l1.8-1.8L1084,34.7z" class="area" title=""></path>
	<path id="PATH_34" d="M1101.3,25.3c0,0.9-0.2,1.8-0.9,2.7c-0.7,1.1-1.3,1.6-2.2,1.6c-0.7,0-2.2-0.4-4.7-1.6c-2,1.3-3.8,1.8-5.4,1.8
		h-1.3v-2.7h1.3c0.9,0,1.8,0,2.7-0.2c-0.9-0.7-1.3-1.6-1.3-2.7c0-1.3,0.9-2.9,2.9-4.5l-1.6-0.7c0.4-0.4,1.1-1.1,2-2
		c2,1.1,3.8,2,5.4,3.4C1100.2,22.2,1101.3,23.8,1101.3,25.3z M1095.4,23.5c0-0.7-0.2-1.1-0.4-1.6c-0.2-0.7-0.7-0.9-1.3-0.9
		c-0.7,0-1.1,0.2-1.8,0.7c-0.7,0.4-1.1,1.1-1.1,1.6c0,0.9,0.9,1.8,2.5,2.2c0.4-0.2,0.9-0.4,1.3-0.7
		C1095.2,24.4,1095.4,24,1095.4,23.5z M1100.2,26.2c0-0.7-0.4-1.3-1.3-2.2c-0.7-0.7-1.3-1.3-2-1.6c0,1.8-0.4,3.1-1.6,4
		c1.8,0.7,3.1,0.9,3.6,0.9C1099.7,27.3,1100.2,26.9,1100.2,26.2z" class="area" title=""></path>
</g>
<g id="G_35" class="area" title="">
	<path id="PATH_36" d="M1104.4,78.4h-1.1c-1.1,0-2-0.4-2.5-1.1c0,1.3-0.2,2.9-0.4,4.9c-0.7,1.6-1.8,2.9-3.6,3.6
		c-1.6,0.7-3.1,1.1-5.2,1.1s-3.4-0.4-4.5-1.1c-1.3-0.9-2-2.2-2-4.3c0-1.8,0.4-3.6,1.6-4.9c0.2-0.2,0.2-0.2,0.4-0.2
		c0.2,0,0.2,0,0.2,0.2v0.2c-0.4,1.1-0.7,2.2-0.7,3.1c0,1.3,0.4,2.5,1.6,3.4c0.9,0.7,2,1.1,3.6,1.1c1.3,0,2.9-0.2,4.5-0.9
		c2.2-0.7,3.1-1.6,3.1-2.7l-0.2-10.8c-0.2-5.2-0.2-8.7-0.4-11.2l1.8-1.6c0,0.7,0.2,3.1,0.4,7.6l0.2,8.7c0,1.3,0.9,2.2,2.7,2.2h0.7
		v2.5H1104.4z" class="area" title=""></path>
	<path id="PATH_37" d="M1109.8,73.9c0,2.9-1.6,4.5-4.5,4.5h-1.8v-2.7h1.6c2.2,0,3.4-0.4,3.4-1.1c0-0.7-0.4-1.6-1.6-2.7l0.9-2.2
		c0-0.2,0.2-0.2,0.2-0.2s0.2,0.2,0.4,0.4C1109.3,71,1109.8,72.6,1109.8,73.9z M1108.9,83.4l-1.8,1.8l-1.8-1.8l1.8-1.8L1108.9,83.4z" class="area" title=""></path>
	<path id="PATH_38" d="M1114.9,75.7c0,0.9-0.2,1.8-0.7,2.5c-0.2,0.4-0.4,0.7-0.4,0.7s-0.2-0.2-0.2-0.9c0-2.7-0.4-9-1.3-19l1.8-1.8
		c0.2-0.2,0.2-0.2,0.2-0.2s0,0.2,0,0.4C1114.9,60.3,1114.9,66.3,1114.9,75.7z" class="area" title=""></path>
	<path id="PATH_39" d="M1126.4,78.6c0,2.2-0.7,4.3-2,6.3c-1.1,1.6-2.2,2.5-2.9,2.5c-1.8,0-3.1,0-4.5-0.2c-0.4,0-0.7-0.2-0.7-0.2
		s0.2-0.2,0.7-0.2c1.8-0.4,3.6-1.3,5.4-2.7c1.8-1.6,2.9-3.1,2.9-4.7c0-0.9-0.7-2.2-2.2-3.8l1.1-2c0-0.2,0.2-0.2,0.2-0.2l0.2,0.2
		c0.4,0.7,1.1,1.6,1.3,2.7C1126.1,76.9,1126.4,77.8,1126.4,78.6z M1124.6,66.5l-1.8,1.8l-1.8-1.8l1.8-1.8L1124.6,66.5z" class="area" title=""></path>
</g>
<g id="G_40" class="area" title="">
	<path id="PATH_41" d="M838.2,154.2c0,2.2-0.7,4.3-2,6.3c-1.1,1.6-2.2,2.5-2.9,2.5c-1.8,0-3.1,0-4.5-0.2c-0.4,0-0.7-0.2-0.7-0.2
		s0.2-0.2,0.7-0.2c1.8-0.4,3.6-1.3,5.4-2.7c1.8-1.6,2.9-3.1,2.9-4.7c0-0.9-0.7-2.2-2.2-3.8l1.1-2c0-0.2,0.2-0.2,0.2-0.2l0.2,0.2
		c0.4,0.7,1.1,1.6,1.3,2.7C838,152.4,838.2,153.3,838.2,154.2z M836.7,142.1l-1.8,1.8l-1.8-1.8l1.8-1.8L836.7,142.1z" class="area" title=""></path>
	<path id="PATH_42" d="M849.9,153c0,3.4-1.1,6.3-3.4,8.5c-0.7,0.7-1.1,1.1-1.3,1.1c-1.3,0-2.7-0.2-4.3-0.4c-0.7,0-0.9-0.2-0.9-0.2
		s0.2-0.2,0.9-0.4c1.8-0.4,3.6-1.6,5.2-2.9c0.7-0.7,1.3-1.1,1.8-2c0.7-0.9,1.1-1.8,1.1-2.5v-0.7h-2.9c-2,0-3.1-0.9-3.1-2.5
		c0-1.1,0.2-2.2,0.9-3.6c0.7-1.3,1.6-2.2,2.5-2.2c1.3,0,2.5,0.9,3.1,2.9C849.6,149.7,849.9,151.2,849.9,153z M848.3,151
		c0-0.7-0.2-1.3-0.7-2c-0.4-0.7-1.1-1.1-1.8-1.1c-0.4,0-0.9,0.2-1.1,0.4c-0.4,0.4-0.4,0.7-0.4,1.1c0,1.1,0.7,1.6,2.2,1.6
		C846.7,151.2,847.4,151.2,848.3,151z" class="area" title=""></path>
	<path id="PATH_43" d="M863.8,153.9h-0.9c-0.9,0-1.3-0.2-1.8-0.4c0,0.2,0,0.4,0,0.7c0,2-0.7,4-2,6c-1.1,1.8-2.2,2.5-2.9,2.5
		c-1.8,0-3.1,0-4.5-0.2c-0.4,0-0.7-0.2-0.7-0.2s0.2-0.2,0.7-0.2c1.8-0.4,3.6-1.3,5.4-2.7c1.8-1.6,2.9-3.1,2.9-4.7
		c0-0.9-0.7-2.2-2.2-3.8l1.1-2c0-0.2,0.2-0.2,0.2-0.2l0.2,0.2c0.7,0.9,1.1,1.6,1.6,1.8c0.7,0.4,1.6,0.9,2.5,0.9h0.7v2.5H863.8z" class="area" title=""></path>
	<path id="PATH_44" d="M879.9,153.9h-1.6c-1.1,0-2.2-0.7-3.1-1.8c-0.7,1.8-1.3,2.7-2,2.7s-1.8-0.4-3.1-1.1c-1.1-0.7-2-1.3-2.5-1.8
		c-1.1,1.3-2.2,2-3.4,2h-1.3v-2.7h1.3c1.1,0,2-0.4,2.9-1.3c0.7-0.7,1.3-1.6,2.2-2.5c0.9-0.9,1.6-1.3,2.2-1.3c0.9,0,1.6,0.4,2.2,1.3
		c0.4,0.4,0.9,1.3,2,2.5c0.7,0.9,1.6,1.3,2.5,1.3h1.3v2.7H879.9z M873.8,151.9c0-0.7-0.2-1.3-0.7-2.2s-1.1-1.3-2-1.3
		c-0.7,0-1.6,0.7-2.5,1.8c0.2,0.2,0.9,0.7,2,1.3c1.1,0.7,2,0.9,2.7,0.9C873.6,152.4,873.8,152.4,873.8,151.9z" class="area" title=""></path>
	<path id="PATH_45" d="M890.9,153.9h-1.8c-2,0-3.4-0.7-4.3-2c-0.7,1.3-2.2,2-4.7,2h-1.3v-2.7h2c2.2,0,3.4-0.9,3.6-2.5
		c0-0.7,0.2-1.1,0.4-1.1s0.4,0.4,0.4,1.1c0.2,1.6,1.3,2.5,3.4,2.5h2v2.7H890.9z M883.5,158.9l-1.8,1.8l-1.8-1.8l1.8-1.8L883.5,158.9
		z M887.3,158.9l-1.8,1.8l-1.8-1.8l1.8-1.8L887.3,158.9z" class="area" title=""></path>
	<path id="PATH_46" d="M896.3,149.5c0,2.9-1.6,4.5-4.5,4.5H890v-2.7h1.6c2.2,0,3.4-0.4,3.4-1.1c0-0.7-0.4-1.6-1.6-2.7l0.9-2.2
		c0-0.2,0.2-0.2,0.2-0.2s0.2,0.2,0.4,0.4C895.8,146.5,896.3,147.9,896.3,149.5z M896,139.1l-1.8,1.8l-1.8-1.8l1.8-1.8L896,139.1z" class="area" title=""></path>
</g>
<g id="G_47" class="area" title="">
	<path id="PATH_48" d="M1122.1,174.5h-1.6c-1.1,0-2.2-0.7-3.6-1.8c-0.7-0.7-1.6-1.8-2.7-3.4c0,1.6-0.2,2.7-0.9,3.4
		c-1.1,1.3-3.4,2-6.7,2h-4.5c-5.4,0-8.3-1.6-8.3-4.7c0-1.1,0.4-2.2,1.1-3.4c0.2-0.2,0.4-0.4,0.4-0.4c0.2,0,0.2,0,0.2,0.2
		s0,0.2,0,0.4c-0.2,0.9-0.4,1.3-0.4,2c0,0.9,0.4,1.6,1.1,2c1.1,0.9,2.9,1.3,5.4,1.3h4.5c2.5,0,4.3-0.2,5.2-0.4
		c1.1-0.4,1.6-1.1,1.6-2c0-0.9-0.4-2-1.6-3.4c-0.7-0.7-1.6-1.8-2.9-2.9c-1.1-0.9-1.6-1.6-1.6-1.6c0-1.6,0.2-2.5,0.7-3.1
		c0-0.2,1.6-0.7,4.7-1.8c3.1-1.1,5.8-2,7.8-2.7c0,0.2-0.2,1.1-0.7,2.5c-2.5,0.7-6,2-11,3.8c2.2,2,4.7,4.9,7.6,8.7
		c1.1,1.3,2,2.2,2.7,2.7c0.4,0.2,1.3,0.4,2.2,0.4h0.9v2H1122.1z" class="area" title=""></path>
	<path id="PATH_49" d="M1135.8,169.8c0,0.9-0.2,1.8-0.9,2.7c-0.7,1.1-1.3,1.6-2.2,1.6c-0.7,0-2.2-0.4-4.7-1.6
		c-2,1.3-3.8,1.8-5.4,1.8h-1.1v-2.7h1.3c0.9,0,1.8,0,2.7-0.2c-0.9-0.7-1.3-1.6-1.3-2.7c0-1.3,0.9-2.9,2.9-4.5l-1.6-0.7
		c0.4-0.4,1.1-1.1,2-2c2,1.1,3.8,2,5.4,3.4C1134.9,166.7,1135.8,168.3,1135.8,169.8z M1130,168c0-0.7-0.2-1.1-0.4-1.6
		c-0.2-0.7-0.7-0.9-1.3-0.9c-0.7,0-1.1,0.2-1.8,0.7c-0.7,0.4-1.1,1.1-1.1,1.6c0,0.9,0.9,1.8,2.5,2.2c0.4-0.2,0.9-0.4,1.3-0.7
		C1129.7,168.9,1130,168.5,1130,168z M1134.7,170.7c0-0.7-0.4-1.3-1.3-2.2c-0.7-0.7-1.3-1.3-2-1.6c0,1.8-0.4,3.1-1.6,4
		c1.8,0.7,3.1,0.9,3.6,0.9C1134.2,171.9,1134.7,171.4,1134.7,170.7z" class="area" title=""></path>
	<path id="PATH_50" d="M1147.2,174.5c0,2.2-0.7,4.3-2,6.3c-1.1,1.6-2.2,2.5-2.9,2.5c-1.8,0-3.1,0-4.5-0.2c-0.4,0-0.7-0.2-0.7-0.2
		s0.2-0.2,0.7-0.2c1.8-0.4,3.6-1.3,5.4-2.7c1.8-1.6,2.9-3.1,2.9-4.7c0-0.9-0.7-2.2-2.2-3.8l1.1-2c0-0.2,0.2-0.2,0.2-0.2l0.2,0.2
		c0.4,0.7,1.1,1.6,1.3,2.7C1147,173,1147.2,173.9,1147.2,174.5z M1145.6,162.7l-1.8,1.8l-1.8-1.8l1.8-1.8L1145.6,162.7z" class="area" title=""></path>
</g>
<g id="G_51" class="area" title="">
	<path id="PATH_52" d="M1019.5,249.2c0.2,0.7,0.2,1.3,0.2,2c0,0.9-0.2,1.6-0.4,2.5c-0.7,1.6-1.8,2.9-4,3.8c-1.8,0.7-3.6,1.1-5.6,1.1
		c-2,0-3.6-0.4-4.9-1.3c-1.3-1.1-2-2.5-2-4.5c0-1.1,0.2-2,0.7-3.4c0.4-0.9,0.7-1.6,1.1-2c0.2-0.2,0.4-0.2,0.4-0.2
		c0.2,0,0.2,0,0.2,0.2c0,0,0,0.2,0,0.4c-0.7,1.3-0.9,2.7-0.9,3.8s0.4,2,1.1,2.9c0.9,1.1,2.5,1.6,4.5,1.6c2.2,0,4.3-0.4,5.8-1.1
		c1.3-0.7,2.2-1.3,2.7-2.2c0.2-0.2,0.2-0.7,0.2-0.9c0-0.7-0.2-1.3-0.4-2.2c-0.2-0.7-0.9-1.8-2-3.6l0.9-1.8c0.2-0.2,0.2-0.4,0.2-0.4
		s0.2,0,0.2,0.2C1018.6,245.6,1019.3,247.4,1019.5,249.2z M1013,239.5l-1.8,1.8l-1.8-1.8l1.8-1.8L1013,239.5z" class="area" title=""></path>
	<path id="PATH_53" d="M1033.6,249.4h-2.5c-0.2,3.1-1.3,5.6-3.6,7.8c-0.7,0.7-1.1,1.1-1.3,1.1c-1.1,0-2.7-0.2-4.3-0.4
		c-0.4,0-0.9-0.2-0.9-0.2s0.2-0.2,0.9-0.4c1.8-0.4,3.6-1.6,5.2-2.7c0.7-0.7,1.3-1.1,1.8-2c0.7-0.9,1.1-1.8,1.1-2.5v-0.7h-2.9
		c-2.2,0-3.1-0.9-3.1-2.7c0-1.1,0.2-2.2,0.9-3.6c0.7-1.3,1.6-2.2,2.5-2.2c1.1,0,2,0.7,2.7,2.2c0.4,1.1,0.9,2.2,0.9,3.6h2.5v2.7
		H1033.6z M1029.6,246.9c0-0.7-0.2-1.3-0.7-2c-0.4-0.9-1.1-1.1-1.8-1.1c-0.4,0-0.9,0.2-1.1,0.4c-0.2,0.2-0.4,0.7-0.4,1.3
		c0,1.1,0.9,1.6,2.7,1.6C1028.5,246.9,1028.9,246.9,1029.6,246.9z" class="area" title=""></path>
	<path id="PATH_54" d="M1044.8,244.9c0,1.1,0,2-0.4,2.9c-0.4,1.1-1.1,1.8-1.8,1.8c-1.1,0-2.9-0.7-5.2-2.2c-0.7,0.9-1.1,1.3-1.3,1.6
		c-0.7,0.4-1.3,0.7-2.2,0.7h-1.1v-2.7h1.6c0.9,0,1.8-0.4,2.7-1.6c0.4-0.4,1.1-1.6,2-2.9c0.7-1.1,1.6-1.6,2.2-1.6
		c1.1,0,2,0.4,2.7,1.6C1044.4,243.3,1044.6,244.2,1044.8,244.9z M1043.5,246.7c0-0.7-0.2-1.3-0.7-2.2s-1.1-1.3-1.8-1.3
		c-0.7,0-1.3,0.7-2.2,2c0.4,0.4,1.1,0.9,2,1.3c0.9,0.4,1.8,0.7,2.2,0.7C1043.2,247.1,1043.5,246.9,1043.5,246.7z" class="area" title=""></path>
	<path id="PATH_55" d="M1053.5,249.4h-1.6c-1.6,0-2.9-0.7-3.4-2c-0.4-0.9-0.7-2.5-0.7-4.3v-4.3c0-2-0.2-4.9-0.4-8.7l1.3-1.6
		c0.2-0.2,0.4-0.2,0.4,0c0.2,2,0.4,4.9,0.4,8.7v6.5c0,1.8,0.9,2.7,2.7,2.7h1.1V249.4z" class="area" title=""></path>
	<path id="PATH_56" d="M1067.2,244.9c0,0.9-0.2,1.8-0.9,2.7c-0.7,1.1-1.3,1.6-2.2,1.6c-0.7,0-2.2-0.4-4.7-1.6
		c-2,1.3-3.8,1.8-5.4,1.8h-1.1v-2.7h1.3c0.9,0,1.8,0,2.7-0.2c-0.9-0.7-1.3-1.6-1.3-2.7c0-1.3,0.9-2.9,2.9-4.5l-1.6-0.7
		c0.4-0.4,1.1-1.1,2-2c2,1.1,3.8,2,5.4,3.4C1066.1,241.8,1067.2,243.3,1067.2,244.9z M1061.4,243.1c0-0.7-0.2-1.1-0.4-1.6
		c-0.2-0.7-0.7-0.9-1.3-0.9c-0.7,0-1.1,0.2-1.8,0.7s-1.1,1.1-1.1,1.6c0,0.9,0.9,1.8,2.5,2.2c0.4-0.2,0.9-0.4,1.3-0.7
		C1061.2,244,1061.4,243.6,1061.4,243.1z M1066.1,245.8c0-0.7-0.4-1.3-1.3-2.2c-0.7-0.7-1.3-1.3-2-1.6c0,1.8-0.4,3.1-1.6,4
		c1.8,0.7,3.1,0.9,3.6,0.9C1065.6,246.9,1066.1,246.5,1066.1,245.8z" class="area" title=""></path>
</g>
<g id="G_57" class="area" title="">
	<path id="PATH_58" d="M777.3,345.5c0.2,0.7,0.2,1.3,0.2,2c0,0.9-0.2,1.6-0.4,2.5c-0.7,1.6-1.8,2.9-4,3.8c-1.8,0.7-3.6,1.1-5.6,1.1
		s-3.6-0.4-4.9-1.3c-1.3-1.1-2-2.5-2-4.5c0-1.1,0.2-2,0.7-3.4c0.4-0.9,0.7-1.6,1.1-2c0.2-0.2,0.4-0.2,0.4-0.2c0.2,0,0.2,0,0.2,0.2
		c0,0,0,0.2,0,0.4c-0.7,1.3-0.9,2.7-0.9,3.8s0.4,2,1.1,2.9c0.9,1.1,2.5,1.6,4.5,1.6c2.2,0,4.3-0.4,5.8-1.1c1.3-0.7,2.2-1.3,2.7-2.2
		c0.2-0.2,0.2-0.7,0.2-0.9c0-0.7-0.2-1.3-0.4-2.2c-0.2-0.7-0.9-1.8-2-3.6l0.9-1.8c0.2-0.2,0.2-0.4,0.2-0.4s0.2,0,0.2,0.2
		C776.4,341.9,777,343.7,777.3,345.5z M770.8,335.9l-1.8,1.8l-1.8-1.8l1.8-1.8L770.8,335.9z" class="area" title=""></path>
	<path id="PATH_59" d="M782.7,343c0,0.9-0.2,1.8-0.7,2.5c-0.2,0.4-0.4,0.7-0.4,0.7s-0.2-0.2-0.2-0.9c0-2.7-0.4-9-1.3-19l1.8-1.8
		c0.2-0.2,0.2-0.2,0.2-0.2s0,0.2,0,0.4C782.7,327.8,782.7,333.9,782.7,343z" class="area" title=""></path>
	<path id="PATH_60" d="M800.4,345.7h-0.9c-0.9,0-1.6-0.2-2.2-0.9c-0.4-0.4-0.9-0.9-1.3-1.8c-0.4,0.9-1.1,1.6-1.8,2
		c-0.9,0.4-2,0.7-3.8,0.7c-3.1,0-4.7-1.1-4.7-3.4c0-0.7,0.2-1.6,0.7-2.2c0.2-0.2,0.2-0.4,0.4-0.4s0.2,0.2,0.2,0.4s0,0.2,0,0.7
		c0,0.2,0,0.4,0,0.7c0,1.3,1.1,2,3.4,2c3.1,0,4.7-0.7,4.7-1.8c0-0.7-0.9-3.1-2.7-7.4l0.9-1.8c0.2-0.2,0.2-0.4,0.2-0.4
		s0.2,0.2,0.2,0.4c0.7,1.8,1.8,4.5,3.1,8.1c0.7,1.8,1.6,2.7,2.9,2.7h0.7V345.7L800.4,345.7z" class="area" title=""></path>
	<path id="PATH_61" d="M814,341.3c0,0.9-0.2,1.8-0.9,2.7c-0.7,1.1-1.3,1.6-2.2,1.6c-0.7,0-2.2-0.4-4.7-1.6c-2,1.3-3.8,1.8-5.4,1.8
		h-1.1V343h1.3c0.9,0,1.8,0,2.7-0.2c-0.9-0.7-1.3-1.6-1.3-2.7c0-1.3,0.9-2.9,2.9-4.5l-1.6-0.7c0.4-0.4,1.1-1.1,2-2
		c2,1.1,3.8,2,5.4,3.4C812.9,338.1,814,339.7,814,341.3z M808,339.5c0-0.7-0.2-1.1-0.4-1.6c-0.2-0.7-0.7-0.9-1.3-0.9
		s-1.1,0.2-1.8,0.7s-1.1,1.1-1.1,1.6c0,0.9,0.9,1.8,2.5,2.2c0.4-0.2,0.9-0.4,1.3-0.7C807.7,340.4,808,339.9,808,339.5z M812.7,342.1
		c0-0.7-0.4-1.3-1.3-2.2c-0.7-0.7-1.3-1.3-2-1.6c0,1.8-0.4,3.1-1.6,4c1.8,0.7,3.1,0.9,3.6,0.9C812.2,343.3,812.7,342.8,812.7,342.1z
		" class="area" title=""></path>
	<path id="PATH_62" d="M819.2,343c0,0.9-0.2,1.8-0.7,2.5c-0.2,0.4-0.4,0.7-0.4,0.7s-0.2-0.2-0.2-0.9c0-2.7-0.4-9-1.3-19l1.8-1.8
		c0.2-0.2,0.2-0.2,0.2-0.2s0,0.2,0,0.4C819.2,327.8,819.2,333.9,819.2,343z" class="area" title=""></path>
	<path id="PATH_63" d="M830.6,346c0,2.2-0.7,4.3-2,6.3c-1.1,1.6-2.2,2.5-2.9,2.5c-1.8,0-3.1,0-4.5-0.2c-0.4,0-0.7-0.2-0.7-0.2
		s0.2-0.2,0.7-0.2c1.8-0.4,3.6-1.3,5.4-2.7c1.8-1.6,2.9-3.1,2.9-4.7c0-0.9-0.7-2.2-2.2-3.8l1.1-2c0-0.2,0.2-0.2,0.2-0.2l0.2,0.2
		c0.4,0.7,1.1,1.6,1.3,2.7C830.2,344.2,830.6,345.3,830.6,346z M828.8,334.1l-1.8,1.8l-1.8-1.8l1.8-1.8L828.8,334.1z" class="area" title=""></path>
</g>
<g id="G_64" class="area" title="">
	<path id="PATH_65" d="M1008.7,435.8c0,1.6-0.4,2.7-1.3,3.6c-0.9,0.9-2.2,1.1-3.6,1.1c-0.9,0-1.8-0.2-2.5-0.9
		c-0.7-0.7-1.1-1.3-1.1-2.2c0-1.1,0.4-2.2,1.3-3.8c0.7-1.3,1.6-2.5,2.5-3.4C1007.2,431.8,1008.7,433.6,1008.7,435.8z M1007.4,436.7
		c0-0.7-0.4-1.3-1.6-2.2c-0.9-0.9-1.6-1.3-2.5-1.6c-1.1,1.6-1.8,2.7-1.8,3.6c0,0.4,0.2,0.9,0.9,1.3c0.4,0.2,0.9,0.4,1.6,0.4
		c0.9,0,1.8-0.2,2.5-0.4C1007.2,437.2,1007.4,436.9,1007.4,436.7z" class="area" title=""></path>
	<path id="PATH_66" d="M1020.2,439.6c0,3.4-1.1,6.3-3.4,8.5c-0.7,0.7-1.1,1.1-1.3,1.1c-1.3,0-2.7-0.2-4.3-0.4
		c-0.7,0-0.9-0.2-0.9-0.2s0.2-0.2,0.9-0.4c1.8-0.4,3.6-1.6,5.2-2.9c0.7-0.7,1.3-1.1,1.8-2c0.7-0.9,1.1-1.8,1.1-2.5v-0.7h-2.9
		c-2,0-3.1-0.9-3.1-2.5c0-1.1,0.2-2.2,0.9-3.6c0.7-1.3,1.6-2.2,2.5-2.2c1.3,0,2.5,0.9,3.1,2.9
		C1019.9,436.3,1020.2,437.8,1020.2,439.6z M1018.6,437.6c0-0.7-0.2-1.3-0.7-2c-0.4-0.7-1.1-1.1-1.8-1.1c-0.4,0-0.9,0.2-1.1,0.4
		c-0.2,0.2-0.4,0.7-0.4,1.1c0,1.1,0.7,1.6,2.2,1.6C1017,437.8,1017.7,437.8,1018.6,437.6z" class="area" title=""></path>
	<path id="PATH_67" d="M1029.1,440.5h-1.6c-1.6,0-2.9-0.7-3.4-2c-0.4-0.9-0.7-2.5-0.7-4.3V430c0-2-0.2-4.9-0.4-8.7l1.3-1.6
		c0.2-0.2,0.4-0.2,0.4,0c0.2,2,0.4,4.9,0.4,8.7v6.5c0,1.8,0.9,2.7,2.7,2.7h1.1V440.5z" class="area" title=""></path>
	<path id="PATH_68" d="M1046.6,434l-0.9,1.8c-1.6,0-2.9,0-3.6,0.2c-0.9,0.4-2.2,0.9-4,1.8c-1.8,0.9-3.1,1.6-4,1.8
		c-1.3,0.4-2.9,0.7-4.3,0.7h-1.6v-2.7h1.8c2,0,3.8-0.4,5.4-1.1l5.2-2.2c-0.9-0.2-2.2-0.7-4-1.3c-1.6-0.7-2.5-0.9-2.9-0.9
		c-0.9,0-1.8,0.4-2.7,1.1c-0.2,0.2-0.2,0.2-0.4,0.2c-0.2,0-0.2,0-0.2-0.2v-0.2c0.7-2.2,2-3.1,3.8-3.1c0.7,0,1.6,0.2,2.5,0.7
		c1.8,0.9,3.1,1.3,4,1.8c1.6,0.4,3.4,0.9,5.4,0.9c0.4,0,0.7,0,0.7,0.2C1046.8,433.6,1046.8,433.8,1046.6,434z M1039.2,445l-1.8,1.8
		l-1.8-1.8l1.8-1.8L1039.2,445z" class="area" title=""></path>
	<path id="PATH_69" d="M1060.7,440.5h-0.9c-0.9,0-1.3-0.2-1.8-0.4c0,0.2,0,0.4,0,0.7c0,2-0.7,4-2,6c-1.1,1.8-2.2,2.5-2.9,2.5
		c-1.8,0-3.1,0-4.5-0.2c-0.4,0-0.7-0.2-0.7-0.2s0.2-0.2,0.7-0.2c1.8-0.4,3.6-1.3,5.4-2.7c1.8-1.6,2.9-3.1,2.9-4.7
		c0-0.9-0.7-2.2-2.2-3.8l1.1-2c0-0.2,0.2-0.2,0.2-0.2l0.2,0.2c0.7,0.9,1.1,1.6,1.6,1.8c0.7,0.4,1.6,0.9,2.5,0.9h0.7v2.5H1060.7z" class="area" title=""></path>
	<path id="PATH_70" d="M1071.9,440.5h-1.8c-2,0-3.4-0.7-4.3-2c-0.7,1.3-2.2,2-4.7,2h-1.3v-2.7h2c2.2,0,3.4-0.9,3.6-2.5
		c0-0.7,0.2-1.1,0.4-1.1s0.4,0.4,0.4,1.1c0.2,1.6,1.3,2.5,3.4,2.5h2v2.7H1071.9z M1064.5,445.4l-1.8,1.8l-1.8-1.8l1.8-1.8
		L1064.5,445.4z M1068.3,445.4l-1.8,1.8l-1.8-1.8l1.8-1.8L1068.3,445.4z" class="area" title=""></path>
	<path id="PATH_71" d="M1082.9,436c0,1.1,0,2-0.4,2.9c-0.4,1.1-1.1,1.8-1.8,1.8c-1.1,0-2.9-0.7-5.2-2.2c-0.7,0.9-1.1,1.3-1.3,1.6
		c-0.7,0.4-1.3,0.7-2.2,0.7h-0.9V438h1.6c0.9,0,1.8-0.4,2.7-1.6c0.4-0.4,1.1-1.6,2-2.9c0.7-1.1,1.6-1.6,2.2-1.6c1.1,0,2,0.4,2.7,1.6
		C1082.7,434.5,1082.9,435.1,1082.9,436z M1081.6,437.6c0-0.7-0.2-1.3-0.7-2.2s-1.1-1.3-1.8-1.3c-0.7,0-1.3,0.7-2.2,2
		c0.4,0.4,1.1,0.9,2,1.3s1.8,0.7,2.2,0.7C1081.6,438.3,1081.6,438,1081.6,437.6z" class="area" title=""></path>
</g>
<g id="G_72" class="area" title="">
	<path id="PATH_73" d="M914.4,567.3c0,3.1-1.3,4.7-4,4.7c-1.6,0-2.5-0.7-2.9-2c-0.7,1.3-1.8,2-3.1,2c-0.4,0-1.1,0-1.6-0.2
		c0,1.3-0.2,2.7-0.2,4.3c-0.7,1.6-1.8,2.9-3.8,3.8c-1.8,0.7-3.6,1.1-5.6,1.1c-2,0-3.6-0.4-4.9-1.3c-1.3-1.1-2-2.5-2-4.5
		c0-1.1,0.2-2,0.7-3.4c0.4-0.9,0.7-1.6,1.1-2c0.2-0.2,0.4-0.2,0.4-0.2c0.2,0,0.2,0,0.2,0.2c0,0,0,0.2,0,0.4
		c-0.7,1.3-0.9,2.7-0.9,3.8c0,1.1,0.4,2,1.1,2.9c0.9,1.1,2.5,1.6,4.5,1.6c2.2,0,4.3-0.4,5.8-1.1c1.3-0.7,2.2-1.3,2.5-2.2
		c0.2-0.2,0.2-0.7,0-1.6c0-0.7-0.2-1.3-0.2-1.6c-0.2-0.7-0.9-1.8-2.2-3.4l0.9-1.8c0.2-0.2,0.2-0.4,0.2-0.4s0.2,0,0.2,0.2
		c0.7,0.9,1.1,1.6,1.3,1.8c0.7,0.7,1.3,0.9,2.2,0.9s1.8-0.2,2.2-0.9c0.2-0.4,0.4-0.9,0.7-2c0-0.4,0.2-0.7,0.4-0.7
		c0.2,0,0.2,0.2,0.2,0.7c0.2,1.1,0.4,1.8,0.9,2.2s1.3,0.7,2.5,0.7c0.4,0,0.9-0.2,1.1-0.4c0.4-0.2,0.7-0.7,0.7-1.1
		c0-0.7-0.4-1.3-1.3-2.5l1.1-2c0.2-0.2,0.2-0.2,0.2-0.2l0.2,0.2C914.2,564.9,914.4,566.2,914.4,567.3z M907,559l-1.6,1.6l-1.6-1.6
		l1.6-1.6L907,559z M909,555.7l-1.6,1.6l-1.6-1.6l1.6-1.6L909,555.7z M911,559l-1.6,1.6l-1.6-1.6l1.6-1.6L911,559z" class="area" title=""></path>
	<path id="PATH_74" d="M923.4,572h-1.6c-1.6,0-2.9-0.7-3.4-2c-0.4-0.9-0.7-2.5-0.7-4.3v-4.3c0-2-0.2-4.9-0.4-8.7l1.3-1.6
		c0.2-0.2,0.4-0.2,0.4,0c0.2,2,0.4,4.9,0.4,8.7v6.5c0,1.8,0.9,2.7,2.7,2.7h1.1V572z" class="area" title=""></path>
	<path id="PATH_75" d="M940.8,565.5l-0.9,1.8c-1.6,0-2.9,0-3.6,0.2c-0.9,0.4-2.2,0.9-4,1.8c-1.8,0.9-3.1,1.6-4,1.8
		c-1.3,0.4-2.9,0.7-4.3,0.7h-1.6v-2.7h1.8c2,0,3.8-0.4,5.4-1.1l5.2-2.2c-0.9-0.2-2.2-0.7-4-1.3c-1.6-0.7-2.5-0.9-2.9-0.9
		c-0.9,0-1.8,0.4-2.7,1.1c-0.2,0.2-0.2,0.2-0.4,0.2c-0.2,0-0.2,0-0.2-0.2v-0.2c0.7-2.2,2-3.1,3.8-3.1c0.7,0,1.6,0.2,2.5,0.7
		c1.8,0.9,3.1,1.3,4,1.8c1.6,0.4,3.4,0.9,5.4,0.9c0.4,0,0.7,0,0.7,0.2C941.1,565.1,941.1,565.3,940.8,565.5z M934.6,555.5l-1.8,1.8
		l-1.8-1.8l1.8-1.8L934.6,555.5z" class="area" title=""></path>
</g>
<g id="G_76" class="area" title="">
	<path id="PATH_77" d="M1084,661c0.2,0.7,0.2,1.3,0.2,2c0,0.9-0.2,1.6-0.4,2.5c-0.7,1.6-1.8,2.9-4,3.8c-1.8,0.7-3.6,1.1-5.6,1.1
		s-3.6-0.4-4.9-1.3c-1.3-1.1-2-2.5-2-4.5c0-1.1,0.2-2,0.7-3.4c0.4-0.9,0.7-1.6,1.1-2c0.2-0.2,0.4-0.2,0.4-0.2c0.2,0,0.2,0,0.2,0.2
		c0,0,0,0.2,0,0.4c-0.7,1.3-0.9,2.7-0.9,3.8s0.4,2,1.1,2.9c0.9,1.1,2.5,1.6,4.5,1.6c2.2,0,4.3-0.4,5.8-1.1c1.3-0.7,2.2-1.3,2.7-2.2
		c0.2-0.2,0.2-0.7,0.2-0.9c0-0.7-0.2-1.3-0.4-2.2c-0.2-0.7-0.9-1.8-2-3.6l0.9-1.8c0.2-0.2,0.2-0.4,0.2-0.4s0.2,0,0.2,0.2
		C1082.9,657.6,1083.6,659.2,1084,661z M1077.3,651.4l-1.8,1.8l-1.8-1.8l1.8-1.8L1077.3,651.4z" class="area" title=""></path>
	<path id="PATH_78" d="M1089.4,658.5c0,0.9-0.2,1.8-0.7,2.5c-0.2,0.4-0.4,0.7-0.4,0.7s-0.2-0.2-0.2-0.9c0-2.7-0.4-9-1.3-19l1.8-1.8
		c0.2-0.2,0.2-0.2,0.2-0.2s0,0.2,0,0.4C1089.4,643.3,1089.4,649.3,1089.4,658.5z" class="area" title=""></path>
	<path id="PATH_79" d="M1101,660.5c0,3.4-1.1,6.3-3.4,8.5c-0.7,0.7-1.1,1.1-1.3,1.1c-1.3,0-2.7-0.2-4.3-0.4c-0.7,0-0.9-0.2-0.9-0.2
		s0.2-0.2,0.9-0.4c1.8-0.4,3.6-1.6,5.2-2.9c0.7-0.7,1.3-1.1,1.8-2c0.7-0.9,1.1-1.8,1.1-2.5V661h-2.9c-2,0-3.1-0.9-3.1-2.5
		c0-1.1,0.2-2.2,0.9-3.6s1.6-2.2,2.5-2.2c1.3,0,2.5,0.9,3.1,2.9C1100.8,657.2,1101,658.8,1101,660.5z M1099.3,658.5
		c0-0.7-0.2-1.3-0.7-2c-0.4-0.7-1.1-1.1-1.8-1.1c-0.4,0-0.9,0.2-1.1,0.4c-0.2,0.2-0.4,0.7-0.4,1.1c0,1.1,0.7,1.6,2.2,1.6
		C1097.9,658.8,1098.6,658.8,1099.3,658.5z" class="area" title=""></path>
	<path id="PATH_80" d="M1106.2,658.5c0,0.9-0.2,1.8-0.7,2.5c-0.2,0.4-0.4,0.7-0.4,0.7s-0.2-0.2-0.2-0.9c0-2.7-0.4-9-1.3-19l1.8-1.8
		c0.2-0.2,0.2-0.2,0.2-0.2s0,0.2,0,0.4C1106.2,643.3,1106.2,649.3,1106.2,658.5z" class="area" title=""></path>
	<path id="PATH_81" d="M1120.1,661.4h-0.9c-0.9,0-1.3-0.2-1.8-0.4c0,0.2,0,0.4,0,0.7c0,2-0.7,4-2,6c-1.1,1.8-2.2,2.5-2.9,2.5
		c-1.8,0-3.1,0-4.5-0.2c-0.4,0-0.7-0.2-0.7-0.2s0.2-0.2,0.7-0.2c1.8-0.4,3.6-1.3,5.4-2.7c1.8-1.6,2.9-3.1,2.9-4.7
		c0-0.9-0.7-2.2-2.2-3.8l1.1-2c0-0.2,0.2-0.2,0.2-0.2l0.2,0.2c0.7,0.9,1.1,1.6,1.6,1.8c0.7,0.4,1.6,0.9,2.5,0.9h0.7v2.5H1120.1z" class="area" title=""></path>
	<path id="PATH_82" d="M1137.8,656.5c0,1.3-0.2,2.5-0.9,3.4c-0.7,0.9-1.8,1.6-2.9,1.6c-1.6,0-2.5-0.7-3.1-1.8
		c-0.9,1.3-1.8,1.8-3.1,1.8c-1.6,0-2.7-0.7-3.4-1.8c-0.9,1.3-2,1.8-3.6,1.8h-1.6v-2.7h1.8c1.6,0,2.7-0.9,2.9-2.7
		c0-0.4,0.2-0.7,0.4-0.7c0.2,0,0.2,0.2,0.4,0.7c0.2,1.8,1.1,2.7,2.9,2.7c0.9,0,1.8-0.2,2.2-0.7c0.2-0.4,0.4-0.9,0.7-1.8
		c0-0.4,0.2-0.7,0.4-0.7c0.2,0,0.2,0.2,0.4,0.7c0.2,1.8,1.1,2.7,2.7,2.7c1.8,0,2.5-0.4,2.5-1.1c0-0.7-0.4-1.6-1.3-2.5l1.1-2
		c0.2-0.2,0.2-0.4,0.4-0.4c0.2,0,0.2,0.2,0.4,0.4C1137.6,654.5,1137.8,655.6,1137.8,656.5z" class="area" title=""></path>
</g>
<g id="G_83" class="area" title="">
	<path id="PATH_84" d="M1174.5,850.1c0.2,0.7,0.2,1.3,0.2,2c0,0.9-0.2,1.6-0.4,2.5c-0.7,1.6-1.8,2.9-4,3.8c-1.8,0.7-3.6,1.1-5.6,1.1
		s-3.6-0.4-4.9-1.3c-1.3-1.1-2-2.5-2-4.5c0-1.1,0.2-2,0.7-3.4c0.4-0.9,0.7-1.6,1.1-2c0.2-0.2,0.4-0.2,0.4-0.2c0.2,0,0.2,0,0.2,0.2
		c0,0,0,0.2,0,0.4c-0.7,1.3-0.9,2.7-0.9,3.8c0,1.1,0.4,2,1.1,2.9c0.9,1.1,2.5,1.6,4.5,1.6c2.2,0,4.3-0.4,5.8-1.1
		c1.3-0.7,2.2-1.3,2.7-2.2c0.2-0.2,0.2-0.7,0.2-0.9c0-0.7-0.2-1.3-0.4-2.2c-0.2-0.7-0.9-1.8-2-3.6l0.9-1.8c0.2-0.2,0.2-0.4,0.2-0.4
		s0.2,0,0.2,0.2C1173.6,846.5,1174.3,848.3,1174.5,850.1z M1168,840.5l-1.8,1.8l-1.8-1.8l1.8-1.8L1168,840.5z" class="area" title=""></path>
	<path id="PATH_85" d="M1179.9,847.6c0,0.9-0.2,1.8-0.7,2.5c-0.2,0.4-0.4,0.7-0.4,0.7s-0.2-0.2-0.2-0.9c0-2.7-0.4-9-1.3-19l1.8-1.8
		c0.2-0.2,0.2-0.2,0.2-0.2s0,0.2,0,0.4C1179.9,832.4,1179.9,838.5,1179.9,847.6z" class="area" title=""></path>
	<path id="PATH_86" d="M1191.3,850.6c0,2.2-0.7,4.3-2,6.3c-1.1,1.6-2.2,2.5-2.9,2.5c-1.8,0-3.1,0-4.5-0.2c-0.4,0-0.7-0.2-0.7-0.2
		s0.2-0.2,0.7-0.2c1.8-0.4,3.6-1.3,5.4-2.7c1.8-1.6,2.9-3.1,2.9-4.7c0-0.9-0.7-2.2-2.2-3.8l1.1-2c0-0.2,0.2-0.2,0.2-0.2l0.2,0.2
		c0.4,0.7,1.1,1.6,1.3,2.7C1191.1,849,1191.3,849.9,1191.3,850.6z" class="area" title=""></path>
	<path id="PATH_87" d="M1205.2,850.3h-2.5c-0.2,3.1-1.3,5.6-3.6,7.8c-0.7,0.7-1.1,1.1-1.3,1.1c-1.1,0-2.7-0.2-4.3-0.4
		c-0.4,0-0.9-0.2-0.9-0.2s0.2-0.2,0.9-0.4c1.8-0.4,3.6-1.6,5.2-2.7c0.7-0.7,1.3-1.1,1.8-2c0.7-0.9,1.1-1.8,1.1-2.5v-0.7h-2.9
		c-2.2,0-3.1-0.9-3.1-2.7c0-1.1,0.2-2.2,0.9-3.6c0.7-1.3,1.6-2.2,2.5-2.2c1.1,0,2,0.7,2.7,2.2c0.4,1.1,0.9,2.2,0.9,3.6h2.5v2.7
		H1205.2z M1201.2,847.9c0-0.7-0.2-1.3-0.7-2c-0.4-0.9-1.1-1.1-1.8-1.1c-0.4,0-0.9,0.2-1.1,0.4c-0.2,0.2-0.4,0.7-0.4,1.3
		c0,1.1,0.9,1.6,2.7,1.6C1200.1,847.9,1200.5,847.9,1201.2,847.9z" class="area" title=""></path>
	<path id="PATH_88" d="M1222.9,845.6c0,1.3-0.2,2.5-0.9,3.4c-0.7,0.9-1.8,1.6-2.9,1.6c-1.6,0-2.5-0.7-3.1-1.8
		c-0.9,1.3-1.8,1.8-3.1,1.8c-1.6,0-2.7-0.7-3.4-1.8c-0.9,1.3-2,1.8-3.6,1.8h-1.6v-2.7h1.8c1.6,0,2.7-0.9,2.9-2.7
		c0-0.4,0.2-0.7,0.4-0.7c0.2,0,0.2,0.2,0.4,0.7c0.2,1.8,1.1,2.7,2.9,2.7c0.9,0,1.8-0.2,2.2-0.7c0.2-0.4,0.4-0.9,0.7-1.8
		c0-0.4,0.2-0.7,0.4-0.7c0.2,0,0.2,0.2,0.4,0.7c0.2,1.8,1.1,2.7,2.7,2.7c1.8,0,2.5-0.4,2.5-1.1s-0.4-1.6-1.3-2.5l1.1-2
		c0.2-0.2,0.2-0.4,0.4-0.4c0.2,0,0.2,0.2,0.4,0.4C1222.5,843.6,1222.9,844.7,1222.9,845.6z" class="area" title=""></path>
	<path id="PATH_89" d="M1243.3,849.4c0,3.4-1.1,6.3-3.4,8.5c-0.7,0.7-1.1,1.1-1.3,1.1c-1.3,0-2.7-0.2-4.3-0.4
		c-0.7,0-0.9-0.2-0.9-0.2s0.2-0.2,0.9-0.4c1.8-0.4,3.6-1.6,5.2-2.9c0.7-0.7,1.3-1.1,1.8-2c0.7-0.9,1.1-1.8,1.1-2.5v-0.7h-2.9
		c-2,0-3.1-0.9-3.1-2.5c0-1.1,0.2-2.2,0.9-3.6c0.7-1.3,1.6-2.2,2.5-2.2c1.3,0,2.5,0.9,3.1,2.9
		C1243.1,846.3,1243.3,847.9,1243.3,849.4z M1241.8,847.6c0-0.7-0.2-1.3-0.7-2s-1.1-1.1-1.8-1.1c-0.4,0-0.9,0.2-1.1,0.4
		c-0.2,0.2-0.4,0.7-0.4,1.1c0,1.1,0.7,1.6,2.2,1.6C1240.2,847.9,1240.9,847.9,1241.8,847.6z" class="area" title=""></path>
	<path id="PATH_90" d="M1279,850.3h-0.9c-1.1,0-2-0.2-2.5-0.7c-0.7-0.4-1.1-1.3-1.1-2.2c-2.5,2.2-6.3,3.4-11.4,3.4
		c-5.4,0-8.1-1.6-8.1-4.9c0-1.1,0.4-2.2,1.3-3.4c0.2-0.2,0.2-0.2,0.4-0.2c0.2,0,0.2,0,0.2,0.2c0,0,0,0.2,0,0.4
		c-0.2,0.7-0.4,1.3-0.4,2c0,2.2,2.5,3.4,7.4,3.4c5.6,0,9.4-1.1,11.2-3.6c0.4-0.4,0.7-0.7,0.9-0.7c0.2,0,0.2,0.2,0.2,0.4
		c0,0.2,0,0.4-0.2,0.9c0,0.4-0.2,0.7-0.2,0.9c0,1.1,0.9,1.8,2.5,1.8h0.9v2.2H1279z M1267.1,855.5l-1.8,1.8l-1.8-1.8l1.8-1.8
		L1267.1,855.5z" class="area" title=""></path>
	<path id="PATH_91" d="M1289.9,850.3h-1.6c-2,0-3.4-0.7-4.3-2c-0.7,1.3-2.2,2-4.7,2h-1.3v-2.7h2c2.2,0,3.4-0.9,3.6-2.5
		c0-0.7,0.2-1.1,0.4-1.1c0.2,0,0.4,0.4,0.4,1.1c0.2,1.6,1.3,2.5,3.4,2.5h2V850.3z M1282.5,855.3l-1.8,1.8l-1.8-1.8l1.8-1.8
		L1282.5,855.3z M1286.6,855.3l-1.8,1.8l-1.8-1.8l1.8-1.8L1286.6,855.3z" class="area" title=""></path>
	<path id="PATH_92" d="M1307.6,845.6c0,1.3-0.2,2.5-0.9,3.4c-0.7,0.9-1.8,1.6-2.9,1.6c-1.6,0-2.5-0.7-3.1-1.8
		c-0.9,1.3-1.8,1.8-3.1,1.8c-1.6,0-2.7-0.7-3.4-1.8c-0.9,1.3-2,1.8-3.6,1.8h-1.6v-2.7h1.8c1.6,0,2.7-0.9,2.9-2.7
		c0-0.4,0.2-0.7,0.4-0.7c0.2,0,0.2,0.2,0.4,0.7c0.2,1.8,1.1,2.7,2.9,2.7c0.9,0,1.8-0.2,2.2-0.7c0.2-0.4,0.4-0.9,0.7-1.8
		c0-0.4,0.2-0.7,0.4-0.7c0.2,0,0.2,0.2,0.4,0.7c0.2,1.8,1.1,2.7,2.7,2.7c1.8,0,2.5-0.4,2.5-1.1s-0.4-1.6-1.3-2.5l1.1-2
		c0.2-0.2,0.2-0.4,0.4-0.4c0.2,0,0.2,0.2,0.4,0.4C1307.4,843.6,1307.6,844.7,1307.6,845.6z" class="area" title=""></path>
</g>
<g id="G_93" class="area" title="">
	<path id="PATH_94" d="M1108.2,888.2c0.2,0.7,0.2,1.3,0.2,2c0,0.9-0.2,1.6-0.4,2.5c-0.7,1.6-1.8,2.9-4,3.8c-1.8,0.7-3.6,1.1-5.6,1.1
		c-2,0-3.6-0.4-4.9-1.3c-1.3-1.1-2-2.5-2-4.5c0-1.1,0.2-2,0.7-3.4c0.4-0.9,0.7-1.6,1.1-2c0.2-0.2,0.4-0.2,0.4-0.2
		c0.2,0,0.2,0,0.2,0.2c0,0,0,0.2,0,0.4c-0.7,1.3-0.9,2.7-0.9,3.8c0,1.1,0.4,2,1.1,2.9c0.9,1.1,2.5,1.6,4.5,1.6
		c2.2,0,4.3-0.4,5.8-1.1c1.3-0.7,2.2-1.3,2.7-2.2c0.2-0.2,0.2-0.7,0.2-0.9c0-0.7-0.2-1.3-0.4-2.2c-0.2-0.7-0.9-1.8-2-3.6l0.9-1.8
		c0.2-0.2,0.2-0.4,0.2-0.4s0.2,0,0.2,0.2C1107.3,884.6,1108,886.4,1108.2,888.2z M1101.7,878.6l-1.8,1.8l-1.8-1.8l1.8-1.8
		L1101.7,878.6z" class="area" title=""></path>
	<path id="PATH_95" d="M1117.4,888.4h-1.6c-1.6,0-2.9-0.7-3.4-2c-0.4-0.9-0.7-2.5-0.7-4.3v-4.3c0-2-0.2-4.9-0.4-8.7l1.3-1.6
		c0.2-0.2,0.4-0.2,0.4,0c0.2,2,0.4,4.9,0.4,8.7v6.5c0,1.8,0.9,2.7,2.7,2.7h1.1V888.4z" class="area" title=""></path>
	<path id="PATH_96" d="M1128.4,888.4h-1.8c-2,0-3.4-0.7-4.3-2c-0.7,1.3-2.2,2-4.7,2h-1.3v-2.7h2c2.2,0,3.4-0.9,3.6-2.5
		c0-0.7,0.2-1.1,0.4-1.1s0.4,0.4,0.4,1.1c0.2,1.6,1.3,2.5,3.4,2.5h2v2.7H1128.4z M1120.8,875.4l-1.8,1.8l-1.8-1.8l1.8-1.8
		L1120.8,875.4z M1124.6,875.4l-1.8,1.8l-1.8-1.8l1.8-1.8L1124.6,875.4z" class="area" title=""></path>
	<path id="PATH_97" d="M1146.1,883.7c0,1.3-0.2,2.5-0.9,3.4c-0.7,0.9-1.8,1.6-2.9,1.6c-1.6,0-2.5-0.7-3.1-1.8
		c-0.9,1.3-1.8,1.8-3.1,1.8c-1.6,0-2.7-0.7-3.4-1.8c-0.9,1.3-2,1.8-3.6,1.8h-1.6V886h1.8c1.6,0,2.7-0.9,2.9-2.7
		c0-0.4,0.2-0.7,0.4-0.7s0.2,0.2,0.4,0.7c0.2,1.8,1.1,2.7,2.9,2.7c0.9,0,1.8-0.2,2.2-0.7c0.2-0.4,0.4-0.9,0.7-1.8
		c0-0.4,0.2-0.7,0.4-0.7c0.2,0,0.2,0.2,0.4,0.7c0.2,1.8,1.1,2.7,2.7,2.7c1.8,0,2.5-0.4,2.5-1.1c0-0.7-0.4-1.6-1.3-2.5l1.1-2
		c0.2-0.2,0.2-0.4,0.4-0.4c0.2,0,0.2,0.2,0.4,0.4C1145.6,881.7,1146.1,882.8,1146.1,883.7z" class="area" title=""></path>
	<path id="PATH_98" d="M1160,888.4h-0.9c-0.9,0-1.3-0.2-1.8-0.4c0,0.2,0,0.4,0,0.7c0,2-0.7,4-2,6c-1.1,1.8-2.2,2.5-2.9,2.5
		c-1.8,0-3.1,0-4.5-0.2c-0.4,0-0.7-0.2-0.7-0.2s0.2-0.2,0.7-0.2c1.8-0.4,3.6-1.3,5.4-2.7c1.8-1.6,2.9-3.1,2.9-4.7
		c0-0.9-0.7-2.2-2.2-3.8l1.1-2c0-0.2,0.2-0.2,0.2-0.2l0.2,0.2c0.7,0.9,1.1,1.6,1.6,1.8c0.7,0.4,1.6,0.9,2.5,0.9h0.7v2.5H1160z" class="area" title=""></path>
	<path id="PATH_99" d="M1174.1,888.4h-1.1c-0.9,0-1.8,0.2-2.5,0.4c-1.1,0.4-1.8,1.1-1.8,2.2c0,1.3,0.9,2.5,2.7,3.6l-1.1,2.2
		c-2-0.7-3.8-1.8-5.2-3.1c-1.8-1.6-2.7-3.6-2.7-5.6h-3.1v-2.7h2.9c0-1.8,0.4-3.6,1.3-5.8c0.9-2,1.6-2.9,2-2.9s1.1,0.9,1.8,2.9
		c0.7,1.8,0.9,2.9,0.9,3.6c0,3.1-1.6,4.7-4.7,4.7c0.2,0.9,0.7,1.8,1.3,2.7s1.6,1.6,2.5,2c0-0.2,0-0.7,0-0.9c0-1.6,0.4-2.9,1.1-4
		c1.1-1.6,2.5-2.5,4.5-2.5h0.9v3.1H1174.1z M1167.1,884.8c0-0.4-0.2-1.3-0.7-2.5c-0.4-1.3-0.9-1.8-1.3-1.8c-0.2,0-0.7,0.4-1.1,1.6
		c-0.4,1.1-0.7,2.5-0.7,3.8C1166,886,1167.1,885.5,1167.1,884.8z" class="area" title=""></path>
	<path id="PATH_100" d="M1185.1,884.2c0,1.1,0,2-0.4,2.9c-0.4,1.1-1.1,1.8-1.8,1.8c-1.1,0-2.9-0.7-5.2-2.2c-0.7,0.9-1.1,1.3-1.3,1.6
		c-0.7,0.4-1.3,0.7-2.2,0.7h-1.1v-2.7h1.6c0.9,0,1.8-0.4,2.7-1.6c0.4-0.4,1.1-1.6,2-2.9c0.7-1.1,1.6-1.6,2.2-1.6
		c1.1,0,2,0.4,2.7,1.6C1184.9,882.4,1185.1,883.3,1185.1,884.2z M1183.7,885.7c0-0.7-0.2-1.3-0.7-2.2c-0.4-0.9-1.1-1.3-1.8-1.3
		c-0.7,0-1.3,0.7-2.2,2c0.4,0.4,1.1,0.9,2,1.3s1.8,0.7,2.2,0.7C1183.7,886.2,1183.7,886.2,1183.7,885.7z" class="area" title=""></path>
</g>
<g id="G_101" class="area" title="">
	<path id="PATH_102" d="M1065.4,958.1h-0.9c-0.9,0-1.6-0.2-2.2-0.9c-0.4-0.4-0.9-0.9-1.3-1.8c-0.4,0.9-1.1,1.6-1.8,2
		c-0.9,0.4-2,0.7-3.8,0.7c-3.1,0-4.7-1.1-4.7-3.4c0-0.7,0.2-1.6,0.7-2.2c0.2-0.2,0.2-0.4,0.4-0.4c0.2,0,0.2,0.2,0.2,0.4s0,0.2,0,0.7
		c0,0.4,0,0.4,0,0.7c0,1.3,1.1,2,3.4,2c3.1,0,4.7-0.7,4.7-1.8c0-0.7-0.9-3.1-2.7-7.4l0.9-1.8c0.2-0.2,0.2-0.4,0.2-0.4
		s0.2,0.2,0.2,0.4c0.7,1.8,1.8,4.5,3.1,8.1c0.7,1.8,1.6,2.7,2.9,2.7h0.7V958.1L1065.4,958.1z" class="area" title=""></path>
	<path id="PATH_103" d="M1076.4,958.1h-1.8c-2,0-3.4-0.7-4.3-2c-0.7,1.3-2.2,2-4.7,2h-1.3v-2.7h2c2.2,0,3.4-0.9,3.6-2.5
		c0-0.7,0.2-1.1,0.4-1.1c0.2,0,0.4,0.4,0.4,1.1c0.2,1.6,1.3,2.5,3.4,2.5h2v2.7H1076.4z M1072.1,946.5l-1.8,1.8l-1.8-1.8l1.8-1.8
		L1072.1,946.5z" class="area" title=""></path>
	<path id="PATH_104" d="M1085.1,951.8c0,2-0.2,3.4-0.7,4c-1.1,1.6-2.9,2.2-5.8,2.2h-3.1v-2.7h2.2c3.8,0,5.8-0.7,6.3-1.8
		c0.2-0.4,0-0.9-0.2-1.3c-0.9,0.2-1.8,0.2-2.9,0.2c-2,0-3.1-0.9-3.1-2.7c0-1.1,0.2-2.5,0.9-3.6c0.7-1.3,1.6-2,2.7-2
		c0.9,0,1.8,0.7,2.5,1.8C1084.7,947.6,1085.1,949.6,1085.1,951.8z M1080.9,939.5l-1.8,1.8l-1.8-1.8l1.8-1.8L1080.9,939.5z
		 M1083.6,949.8c0-0.7-0.2-1.3-0.7-2c-0.4-0.7-1.1-0.9-1.8-0.9c-0.4,0-0.9,0.2-1.3,0.4c-0.4,0.2-0.4,0.7-0.4,1.1
		c0,0.9,0.7,1.3,2.2,1.3C1082,950,1082.7,950,1083.6,949.8z M1084.7,939.5l-1.8,1.8l-1.8-1.8l1.8-1.8L1084.7,939.5z" class="area" title=""></path>
	<path id="PATH_105" d="M1107.8,958.1h-0.9c-0.9,0-1.3-0.2-1.8-0.4c0,0.2,0,0.4,0,0.7c0,2-0.7,4-2,6c-1.1,1.8-2.2,2.5-2.9,2.5
		c-1.8,0-3.1,0-4.5-0.2c-0.4,0-0.7-0.2-0.7-0.2s0.2-0.2,0.7-0.2c1.8-0.4,3.6-1.3,5.4-2.7c1.8-1.6,2.9-3.1,2.9-4.7
		c0-0.9-0.7-2.2-2.2-3.8l1.1-2c0-0.2,0.2-0.2,0.2-0.2l0.2,0.2c0.7,0.9,1.1,1.6,1.6,1.8c0.7,0.4,1.6,0.9,2.5,0.9h0.7v2.5H1107.8z" class="area" title=""></path>
	<path id="PATH_106" d="M1129.3,958.1h-1.8c-1.6,0-3.1-0.2-4.9-0.7c-1.6,0.4-3.6,0.7-5.8,0.7c-1.6,0-2.7,0-3.4-0.2
		c-1.1-0.2-1.8-0.9-2.2-1.8c-0.9,1.3-2,2-3.4,2h-0.9v-2.7h0.9c1.8,0,2.7-0.9,2.9-2.7c0-0.4,0.2-0.7,0.4-0.7c0.2,0,0.4,0.2,0.4,0.7
		c0.2,1.6,0.9,2.5,2.2,2.5c4.3-4.5,7.4-6.7,9.9-6.7c1.1,0,2,0.2,2.7,0.9c0.7,0.7,1.1,1.6,1.1,2.5c0,1.3-0.4,2.5-1.6,3.6
		c0.2,0,0.7,0,1.1,0c0.4,0,0.9,0,1.1,0h0.9v2.7H1129.3z M1125.7,953.4c0-0.7-0.4-1.3-1.1-1.8c-0.7-0.4-1.3-0.7-2-0.7
		c-2,0-4.5,1.3-7.2,4.3c0.7,0,1.3,0,2,0c1.6,0,3.1-0.2,4.7-0.4C1124.6,954.7,1125.7,954.1,1125.7,953.4z" class="area" title=""></path>
	<path id="PATH_107" d="M1138,951.8c0,2-0.2,3.4-0.7,4c-1.1,1.6-2.9,2.2-5.8,2.2h-3.1v-2.7h2.2c3.8,0,5.8-0.7,6.3-1.8
		c0.2-0.4,0-0.9-0.2-1.3c-0.9,0.2-1.8,0.2-2.9,0.2c-2,0-3.1-0.9-3.1-2.7c0-1.1,0.2-2.5,0.9-3.6c0.7-1.3,1.6-2,2.7-2
		c0.9,0,1.8,0.7,2.5,1.8C1137.6,947.6,1138,949.6,1138,951.8z M1133.5,939.5l-1.8,1.8l-1.8-1.8l1.8-1.8L1133.5,939.5z M1136.2,949.8
		c0-0.7-0.2-1.3-0.7-2c-0.4-0.7-1.1-0.9-1.8-0.9c-0.4,0-0.9,0.2-1.3,0.4s-0.4,0.7-0.4,1.1c0,0.9,0.7,1.3,2.2,1.3
		C1134.9,950,1135.6,950,1136.2,949.8z M1137.3,939.5l-1.8,1.8l-1.8-1.8l1.8-1.8L1137.3,939.5z" class="area" title=""></path>
</g>
<g id="G_108" class="area" title="">
	<path id="PATH_109" d="M915.5,994.4c0,2.2-0.7,4.3-2,6.3c-1.1,1.6-2.2,2.5-2.9,2.5c-1.8,0-3.1,0-4.5-0.2c-0.4,0-0.7-0.2-0.7-0.2
		s0.2-0.2,0.7-0.2c1.8-0.4,3.6-1.3,5.4-2.7c1.8-1.6,2.9-3.1,2.9-4.7c0-0.9-0.7-2.2-2.2-3.8l1.1-2c0-0.2,0.2-0.2,0.2-0.2l0.2,0.2
		c0.4,0.7,1.1,1.6,1.3,2.7C915.3,992.6,915.5,993.5,915.5,994.4z" class="area" title=""></path>
	<path id="PATH_110" d="M924.3,994.2h-1.6c-1.6,0-2.9-0.7-3.4-2c-0.4-0.9-0.7-2.5-0.7-4.3v-4.3c0-2-0.2-4.9-0.4-8.7l1.3-1.6
		c0.2-0.2,0.4-0.2,0.4,0c0.2,2,0.4,4.9,0.4,8.7v6.5c0,1.8,0.9,2.7,2.7,2.7h1.1V994.2z" class="area" title=""></path>
	<path id="PATH_111" d="M938.2,994.2H937c-0.9,0-1.8,0.2-2.5,0.4c-1.1,0.4-1.8,1.1-1.8,2.2c0,1.3,0.9,2.5,2.7,3.6l-1.1,2.2
		c-2-0.7-3.8-1.8-5.2-3.1c-1.8-1.6-2.7-3.6-2.7-5.6h-3.1v-2.7h2.9c0-1.8,0.4-3.6,1.3-5.8c0.9-2,1.6-2.9,2-2.9s1.1,0.9,1.8,2.9
		c0.7,1.8,0.9,2.9,0.9,3.6c0,3.1-1.6,4.7-4.7,4.7c0.2,0.9,0.7,1.8,1.3,2.7c0.7,0.9,1.6,1.6,2.5,2c0-0.2,0-0.7,0-0.9
		c0-1.6,0.4-2.9,1.1-4c1.1-1.6,2.5-2.5,4.5-2.5h0.9v3.1H938.2z M931.4,990.6c0-0.4-0.2-1.3-0.7-2.5c-0.4-1.3-0.9-1.8-1.3-1.8
		c-0.2,0-0.7,0.4-1.1,1.6s-0.7,2.5-0.7,3.8C930.1,991.5,931.4,991.3,931.4,990.6z" class="area" title=""></path>
	<path id="PATH_112" d="M943.5,989.7c0,2.9-1.6,4.5-4.5,4.5h-1.8v-2.7h1.6c2.2,0,3.4-0.4,3.4-1.1s-0.4-1.6-1.6-2.7l0.9-2.2
		c0-0.2,0.2-0.2,0.2-0.2s0.2,0.2,0.4,0.4C943.1,986.8,943.5,988.1,943.5,989.7z M942.9,999.1l-1.8,1.8l-1.8-1.8l1.8-1.8L942.9,999.1
		z" class="area" title=""></path>
	<path id="PATH_113" d="M952.5,994.2h-1.6c-1.6,0-2.9-0.7-3.4-2c-0.4-0.9-0.7-2.5-0.7-4.3v-4.3c0-2-0.2-4.9-0.4-8.7l1.3-1.6
		c0.2-0.2,0.4-0.2,0.4,0c0.2,2,0.4,4.9,0.4,8.7v6.5c0,1.8,0.9,2.7,2.7,2.7h1.1V994.2z" class="area" title=""></path>
	<path id="PATH_114" d="M970,987.7l-0.9,1.8c-1.6,0-2.9,0-3.6,0.2c-0.9,0.4-2.2,0.9-4,1.8c-1.8,0.9-3.1,1.6-4,1.8
		c-1.3,0.4-2.9,0.7-4.3,0.7h-1.6v-2.7h1.8c2,0,3.8-0.4,5.4-1.1l5.2-2.2c-0.9-0.2-2.2-0.7-4-1.3c-1.6-0.7-2.5-0.9-2.9-0.9
		c-0.9,0-1.8,0.4-2.7,1.1c-0.2,0.2-0.2,0.2-0.4,0.2s-0.2,0-0.2-0.2v-0.2c0.7-2.2,2-3.1,3.8-3.1c0.7,0,1.6,0.2,2.5,0.7
		c1.8,0.9,3.1,1.3,4,1.8c1.6,0.4,3.4,0.9,5.4,0.9c0.4,0,0.7,0,0.7,0.2C970.2,987.2,970.2,987.2,970,987.7z M957.6,998.2l1.6-1.6
		l1.6,1.6l-1.6,1.6L957.6,998.2z M959.7,1001.8l1.6-1.6l1.6,1.6l-1.6,1.6L959.7,1001.8z M961.5,998.2l1.6-1.6l1.6,1.6l-1.6,1.6
		L961.5,998.2z" class="area" title=""></path>
</g>
<g id="G_115" class="area" title="">
	<path id="PATH_116" d="M938.4,847.9c0,2.2-0.7,4.3-2,6.3c-1.1,1.6-2.2,2.5-2.9,2.5c-1.8,0-3.1,0-4.5-0.2c-0.4,0-0.7-0.2-0.7-0.2
		s0.2-0.2,0.7-0.2c1.8-0.4,3.6-1.3,5.4-2.7c1.8-1.6,2.9-3.1,2.9-4.7c0-0.9-0.7-2.2-2.2-3.8l1.1-2c0-0.2,0.2-0.2,0.2-0.2l0.2,0.2
		c0.4,0.7,1.1,1.6,1.3,2.7C938.2,846.1,938.4,847.2,938.4,847.9z M936.6,836l-1.8,1.8L933,836l1.8-1.8L936.6,836z" class="area" title=""></path>
	<path id="PATH_117" d="M947.1,847.6h-1.6c-1.6,0-2.9-0.7-3.4-2c-0.4-0.9-0.7-2.5-0.7-4.3v-4.3c0-2-0.2-4.9-0.4-8.7l1.3-1.6
		c0.2-0.2,0.4-0.2,0.4,0c0.2,2,0.4,4.9,0.4,8.7v6.5c0,1.8,0.9,2.7,2.7,2.7h1.1V847.6z" class="area" title=""></path>
	<path id="PATH_118" d="M952.5,843.2c0,2.9-1.6,4.5-4.5,4.5h-1.8V845h1.6c2.2,0,3.4-0.4,3.4-1.1c0-0.7-0.4-1.6-1.6-2.7l0.9-2.2
		c0-0.2,0.2-0.2,0.2-0.2s0.2,0.2,0.4,0.4C952,840.5,952.5,841.8,952.5,843.2z M951.8,852.6l-1.8,1.8l-1.8-1.8l1.8-1.8L951.8,852.6z" class="area" title=""></path>
	<path id="PATH_119" d="M966.4,847.6h-0.9c-0.9,0-1.3-0.2-1.8-0.4c0,0.2,0,0.4,0,0.7c0,2-0.7,4-2,6c-1.1,1.8-2.2,2.5-2.9,2.5
		c-1.8,0-3.1,0-4.5-0.2c-0.4,0-0.7-0.2-0.7-0.2s0.2-0.2,0.7-0.2c1.8-0.4,3.6-1.3,5.4-2.7c1.8-1.6,2.9-3.1,2.9-4.7
		c0-0.9-0.7-2.2-2.2-3.8l1.1-2c0-0.2,0.2-0.2,0.2-0.2l0.2,0.2c0.7,0.9,1.1,1.6,1.6,1.8c0.7,0.4,1.6,0.9,2.5,0.9h0.7v2.5H966.4z" class="area" title=""></path>
	<path id="PATH_120" d="M984.1,842.9c0,1.3-0.2,2.5-0.9,3.4s-1.8,1.6-2.9,1.6c-1.6,0-2.5-0.7-3.1-1.8c-0.9,1.3-1.8,1.8-3.1,1.8
		c-1.6,0-2.7-0.7-3.4-1.8c-0.9,1.3-2,1.8-3.6,1.8h-1.3v-2.7h1.8c1.6,0,2.7-0.9,2.9-2.7c0-0.4,0.2-0.7,0.4-0.7c0.2,0,0.2,0.2,0.4,0.7
		c0.2,1.8,1.1,2.7,2.9,2.7c0.9,0,1.8-0.2,2.2-0.7c0.2-0.4,0.4-0.9,0.7-1.8c0-0.4,0.2-0.7,0.4-0.7c0.2,0,0.2,0.2,0.4,0.7
		c0.2,1.8,1.1,2.7,2.7,2.7c1.8,0,2.5-0.4,2.5-1.1s-0.4-1.6-1.3-2.5l1.1-2c0.2-0.2,0.2-0.4,0.4-0.4s0.2,0.2,0.4,0.4
		C983.9,840.7,984.1,842,984.1,842.9z" class="area" title=""></path>
</g>
<g id="G_121" class="area" title="">
	<path id="PATH_122" d="M750.6,969.5c0,0.4-0.4,1.3-0.9,2.5c-1.3,0.4-3.1,0.9-5.6,1.8s-4.3,1.6-5.2,2c1.8,1.8,2.9,3.1,3.6,3.8
		c1.1,1.6,1.8,2.9,2,4.5c0,1.1,0,2.2-0.4,3.1c-0.9,2-3.1,2.9-6.9,2.9h-4.7c-5.4,0-8.3-1.6-8.3-4.7c0-1.1,0.4-2.2,1.1-3.4
		c0.2-0.2,0.4-0.4,0.4-0.4c0.2,0,0.2,0,0.2,0.2c0,0.2,0,0.2,0,0.4c-0.2,0.9-0.4,1.3-0.4,2c0,0.9,0.4,1.6,1.1,2
		c1.1,0.9,2.9,1.3,5.4,1.3h5.2c1.8,0,3.1,0,3.8-0.2c1.6-0.2,2.5-1.1,2.5-2c0-1.6-1.1-3.6-3.6-5.8l-0.2,0.4c-0.2-0.2-0.7-0.7-1.1-1.3
		c-0.7-0.9-0.9-1.3-0.9-1.3c0-0.4,0-0.9,0.2-1.8s0.4-1.3,0.7-1.6s1.8-0.9,4.7-1.8C745.9,971.1,748.6,970.2,750.6,969.5z" class="area" title=""></path>
	<path id="PATH_123" d="M761.1,990.6c0,2.2-0.7,4.3-2,6.3c-1.1,1.6-2.2,2.5-2.9,2.5c-1.8,0-3.1,0-4.5-0.2c-0.4,0-0.7-0.2-0.7-0.2
		s0.2-0.2,0.7-0.2c1.8-0.4,3.6-1.3,5.4-2.7c1.8-1.6,2.9-3.1,2.9-4.7c0-0.9-0.7-2.2-2.2-3.8l1.1-2c0-0.2,0.2-0.2,0.2-0.2l0.2,0.2
		c0.4,0.7,1.1,1.6,1.3,2.7C760.9,988.8,761.1,989.7,761.1,990.6z" class="area" title=""></path>
	<path id="PATH_124" d="M770.1,990.4h-1.6c-1.6,0-2.9-0.7-3.4-2c-0.4-0.9-0.7-2.5-0.7-4.3v-4.3c0-2-0.2-4.9-0.4-8.7l1.3-1.6
		c0.2-0.2,0.4-0.2,0.4,0c0.2,2,0.4,4.9,0.4,8.7v6.5c0,1.8,0.9,2.7,2.7,2.7h1.1V990.4L770.1,990.4z" class="area" title=""></path>
	<path id="PATH_125" d="M781.1,990.4h-1.8c-2,0-3.4-0.7-4.3-2c-0.7,1.3-2.2,2-4.7,2H769v-2.7h2c2.2,0,3.4-0.9,3.6-2.5
		c0-0.7,0.2-1.1,0.4-1.1s0.4,0.4,0.4,1.1c0.2,1.6,1.3,2.5,3.4,2.5h2v2.7H781.1z M776.6,978.7l-1.8,1.8l-1.8-1.8l1.8-1.8L776.6,978.7
		z" class="area" title=""></path>
	<path id="PATH_126" d="M795,969.5c0,0.4-0.4,1.3-0.9,2.5l-5.6,1.8c-2.5,0.9-4.3,1.6-5.2,2c1.8,1.8,2.9,3.1,3.6,3.8
		c1.1,1.6,1.8,2.9,2,4.5c0,1.1,0,2.2-0.4,3.1c-0.7,2-3.1,2.9-6.9,2.9h-1.1v-2.7h1.3c1.8,0,3.1,0,3.8-0.2c1.6-0.4,2.5-1.1,2.5-2.2
		c0-1.6-1.1-3.4-3.6-5.6l-0.2,0.4c-0.2-0.2-0.7-0.7-1.1-1.3c-0.7-0.7-0.9-1.3-0.9-1.3c0-0.4,0-0.9,0.2-1.8s0.4-1.3,0.7-1.6
		c0.2-0.2,1.8-0.9,4.7-1.8C790.3,971.1,793,970.2,795,969.5z" class="area" title=""></path>
</g>
<g id="G_127" class="area" title="">
	<path id="PATH_128" d="M712.5,888.9h-0.9c-0.9,0-1.3-0.2-1.8-0.4c0,0.2,0,0.4,0,0.7c0,2-0.7,4-2,6c-1.1,1.8-2.2,2.5-2.9,2.5
		c-1.8,0-3.1,0-4.5-0.2c-0.4,0-0.7-0.2-0.7-0.2s0.2-0.2,0.7-0.2c1.8-0.4,3.6-1.3,5.4-2.7c1.8-1.6,2.9-3.1,2.9-4.7
		c0-0.9-0.7-2.2-2.2-3.8l1.1-2c0-0.2,0.2-0.2,0.2-0.2l0.2,0.2c0.7,0.9,1.1,1.6,1.6,1.8c0.7,0.4,1.6,0.9,2.5,0.9h0.4V888.9z" class="area" title=""></path>
	<path id="PATH_129" d="M726.4,888.9h-1.1c-0.9,0-1.8,0.2-2.5,0.4c-1.1,0.4-1.8,1.1-1.8,2.2c0,1.3,0.9,2.5,2.7,3.6l-1.1,2.2
		c-2-0.7-3.8-1.8-5.2-3.1c-1.8-1.6-2.7-3.6-2.7-5.6h-3.1V886h2.9c0-1.8,0.4-3.6,1.3-5.8c0.9-2,1.6-2.9,2-2.9c0.4,0,1.1,0.9,1.8,2.9
		c0.7,1.8,0.9,2.9,0.9,3.6c0,3.1-1.6,4.7-4.7,4.7c0.2,0.9,0.7,1.8,1.3,2.7c0.7,0.9,1.6,1.6,2.5,2c0-0.2,0-0.7,0-0.9
		c0-1.6,0.4-2.9,1.1-4c1.1-1.6,2.5-2.5,4.5-2.5h0.9v3.1H726.4z M719.5,885.3c0-0.4-0.2-1.3-0.7-2.5c-0.4-1.3-0.9-1.8-1.3-1.8
		c-0.2,0-0.7,0.4-1.1,1.6c-0.4,1.1-0.7,2.5-0.7,3.8C718.3,886.2,719.5,886,719.5,885.3z" class="area" title=""></path>
	<path id="PATH_130" d="M744.1,883.9c0,1.3-0.2,2.5-0.9,3.4c-0.7,0.9-1.8,1.6-2.9,1.6c-1.6,0-2.5-0.7-3.1-1.8
		c-0.9,1.3-1.8,1.8-3.1,1.8c-1.6,0-2.7-0.7-3.4-1.8c-0.9,1.3-2,1.8-3.6,1.8h-1.6v-2.7h1.8c1.6,0,2.7-0.9,2.9-2.7
		c0-0.4,0.2-0.7,0.4-0.7s0.2,0.2,0.4,0.7c0.2,1.8,1.1,2.7,2.9,2.7c0.9,0,1.8-0.2,2.2-0.7c0.2-0.4,0.4-0.9,0.7-1.8
		c0-0.4,0.2-0.7,0.4-0.7s0.2,0.2,0.4,0.7c0.2,1.8,1.1,2.7,2.7,2.7c1.8,0,2.5-0.4,2.5-1.1s-0.4-1.6-1.3-2.5l1.1-2
		c0.2-0.2,0.2-0.4,0.4-0.4s0.2,0.2,0.4,0.4C743.7,881.9,744.1,883,744.1,883.9z M736.5,875.9l-1.6,1.6l-1.6-1.6l1.6-1.6L736.5,875.9
		z M738.5,872.3l-1.6,1.6l-1.6-1.6l1.6-1.6L738.5,872.3z M740.5,875.9l-1.6,1.6l-1.6-1.6l1.6-1.6L740.5,875.9z" class="area" title=""></path>
	<path id="PATH_131" d="M783.8,888.9H782c-1.1,0-2.2-0.7-3.6-1.8c-0.7-0.7-1.6-1.8-2.7-3.4c0,1.6-0.2,2.7-0.9,3.4
		c-1.1,1.3-3.4,2-6.7,2h-4.5c-5.4,0-8.3-1.6-8.3-4.7c0-1.1,0.4-2.2,1.1-3.4c0.2-0.2,0.4-0.4,0.4-0.4c0.2,0,0.2,0,0.2,0.2
		c0,0.2,0,0.2,0,0.4c-0.2,0.9-0.4,1.3-0.4,2c0,0.9,0.4,1.6,1.1,2c1.1,0.9,2.9,1.3,5.4,1.3h4.5c2.5,0,4.3-0.2,5.2-0.4
		c1.1-0.4,1.6-1.1,1.6-2s-0.4-2-1.6-3.4c-0.7-0.7-1.6-1.8-2.9-2.9c-1.1-0.9-1.6-1.6-1.6-1.6c0-1.6,0.2-2.5,0.7-3.1
		c0-0.2,1.6-0.7,4.7-1.8c3.1-1.1,5.8-2,7.8-2.7c0,0.2-0.2,1.1-0.7,2.5c-2.5,0.7-6,2-11,3.8c2.2,2,4.7,4.9,7.6,8.7
		c1.1,1.3,2,2.2,2.7,2.7c0.4,0.2,1.3,0.4,2.2,0.4h0.9v2H783.8z" class="area" title=""></path>
	<path id="PATH_132" d="M794.8,888.9H793c-2,0-3.4-0.7-4.3-2c-0.7,1.3-2.2,2-4.7,2h-1.3v-2.7h2c2.2,0,3.4-0.9,3.6-2.5
		c0-0.7,0.2-1.1,0.4-1.1s0.4,0.4,0.4,1.1c0.2,1.6,1.3,2.5,3.4,2.5h2v2.7H794.8z M787.4,893.8l-1.8,1.8l-1.8-1.8l1.8-1.8L787.4,893.8
		z M791.2,893.8l-1.8,1.8l-1.8-1.8l1.8-1.8L791.2,893.8z" class="area" title=""></path>
	<path id="PATH_133" d="M800.1,884.4c0,2.9-1.6,4.5-4.5,4.5h-1.8v-2.7h1.6c2.2,0,3.4-0.4,3.4-1.1c0-0.7-0.4-1.6-1.6-2.7l0.9-2.2
		c0-0.2,0.2-0.2,0.2-0.2s0.2,0.2,0.4,0.4C799.7,881.5,800.1,882.8,800.1,884.4z M799.9,874.1l-1.8,1.8l-1.8-1.8l1.8-1.8L799.9,874.1
		z" class="area" title=""></path>
</g>
<g id="G_140" class="area" title="">
	<path id="PATH_141" d="M687.9,722.2c0.2,0.7,0.2,1.3,0.2,2c0,0.9-0.2,1.6-0.4,2.5c-0.7,1.6-1.8,2.9-4,3.8c-1.8,0.7-3.6,1.1-5.6,1.1
		s-3.6-0.4-4.9-1.3c-1.3-1.1-2-2.5-2-4.5c0-1.1,0.2-2,0.7-3.4c0.4-0.9,0.7-1.6,1.1-2c0.2-0.2,0.4-0.2,0.4-0.2c0.2,0,0.2,0,0.2,0.2
		c0,0,0,0.2,0,0.4c-0.7,1.3-0.9,2.7-0.9,3.8c0,1.1,0.4,2,1.1,2.9c0.9,1.1,2.5,1.6,4.5,1.6c2.2,0,4.3-0.4,5.8-1.1
		c1.3-0.7,2.2-1.3,2.7-2.2c0.2-0.2,0.2-0.7,0.2-0.9c0-0.7-0.2-1.3-0.4-2.2c-0.2-0.7-0.9-1.8-2-3.6l0.9-1.8c0.2-0.2,0.2-0.4,0.2-0.4
		s0.2,0,0.2,0.2C687,718.6,687.6,720.4,687.9,722.2z M681.4,712.5l-1.8,1.8l-1.8-1.8l1.8-1.8L681.4,712.5z" class="area" title=""></path>
	<path id="PATH_142" d="M697.1,722.4h-1.6c-1.6,0-2.9-0.7-3.4-2c-0.4-0.9-0.7-2.5-0.7-4.3v-4.3c0-2-0.2-4.9-0.4-8.7l1.3-1.6
		c0.2-0.2,0.4-0.2,0.4,0c0.2,2,0.4,4.9,0.4,8.7v6.5c0,1.8,0.9,2.7,2.7,2.7h1.1V722.4z" class="area" title=""></path>
	<path id="PATH_143" d="M712.1,722.4h-1.3c-1.1,0-2.5-0.4-3.6-1.6c-0.9-0.7-1.8-2-2.9-3.6c-0.2,3.4-2.5,5.2-6.9,5.2h-1.3v-2.7h0.9
		c4,0,6.3-0.9,6.3-2.5c0-1.3-0.9-2.9-2.9-4.7c-0.9-0.9-1.8-1.6-2.9-2.5c0-0.9,0.2-1.6,0.7-2.2c0.2-0.2,4.3-1.6,12.3-4
		c0,0.2-0.2,1.1-0.7,2.5c-2,0.4-5.4,1.6-9.9,2.9c2.2,2.5,4.5,4.7,6,6.7c1.1,1.1,1.8,2,2.5,2.5c0.9,0.7,2,1.1,3.1,1.1h0.9v2.9H712.1z
		 M709.8,700.9l-0.4,1.6l-11,3.6l0.4-1.6L709.8,700.9z" class="area" title=""></path>
	<path id="PATH_144" d="M717.4,704.7c0.2,0.2,0.2,0.4,0.2,0.4s-0.2,0-0.4,0h-0.7c0.2,2.9,0.2,7.2,0.2,12.8c0,1.3-0.2,2.5-0.9,3.1
		c-0.7,0.9-1.8,1.3-2.9,1.3h-1.3v-2.7h0.9c1.8,0,2.7-0.7,2.5-2c-0.2-4.7-0.4-9.6-0.7-14.6l1.6-1.3c0.2-0.2,0.4-0.4,0.4-0.4
		s0,0.2,0.2,0.4C716.6,702.7,716.8,703.6,717.4,704.7z" class="area" title=""></path>
	<path id="PATH_145" d="M722.6,719.7c0,0.9-0.2,1.8-0.7,2.5c-0.2,0.4-0.4,0.7-0.4,0.7s-0.2-0.2-0.2-0.9c0-2.7-0.4-9-1.3-19l1.8-1.8
		c0.2-0.2,0.2-0.2,0.2-0.2s0,0.2,0,0.4C722.6,704.5,722.6,710.5,722.6,719.7z" class="area" title=""></path>
	<path id="PATH_146" d="M736.5,717.7c0,3.1-2,4.7-6.3,4.7c-1.6,0-2.7-0.2-3.4-0.7c-0.9-0.4-1.3-1.6-1.3-2.9c0-0.7,0.2-1.3,0.4-2
		c0.2-0.2,0.2-0.4,0.4-0.4s0.2,0.2,0.2,0.7c0,0.2,0,0.4,0,0.7c0,0.9,0.4,1.6,1.3,1.8c0.4,0.2,1.3,0.2,2.5,0.2c3.4,0,4.9-0.4,4.9-1.6
		c0-1.6-2-3.8-5.8-6.5l0.7-2.2c0-0.2,0.2-0.2,0.2-0.2s0.2,0,0.4,0.2C734.5,712.5,736.5,715.2,736.5,717.7z" class="area" title=""></path>
</g>
<g id="G_147" class="area" title="">
	<path id="PATH_148" d="M779.5,672.2h-0.9c-0.9,0-1.3-0.2-1.8-0.4c0,0.2,0,0.4,0,0.7c0,2-0.7,4-2,6c-1.1,1.8-2.2,2.5-2.9,2.5
		c-1.8,0-3.1,0-4.5-0.2c-0.4,0-0.7-0.2-0.7-0.2s0.2-0.2,0.7-0.2c1.8-0.4,3.6-1.3,5.4-2.7c1.8-1.6,2.9-3.1,2.9-4.7
		c0-0.9-0.7-2.2-2.2-3.8l1.1-2c0-0.2,0.2-0.2,0.2-0.2l0.2,0.2c0.7,0.9,1.1,1.6,1.6,1.8c0.7,0.4,1.6,0.9,2.5,0.9h0.7v2.5H779.5z" class="area" title=""></path>
	<path id="PATH_149" d="M793.4,672.2h-1.1c-0.9,0-1.8,0.2-2.5,0.4c-1.1,0.4-1.8,1.1-1.8,2.2c0,1.3,0.9,2.5,2.7,3.6l-1.1,2.2
		c-2-0.7-3.8-1.8-5.2-3.1c-1.8-1.6-2.7-3.6-2.7-5.6h-3.1v-2.7h2.9c0-1.8,0.4-3.6,1.3-5.8c0.9-2,1.6-2.9,2-2.9c0.4,0,1.1,0.9,1.8,2.9
		c0.7,1.8,0.9,2.9,0.9,3.6c0,3.1-1.6,4.7-4.7,4.7c0.2,0.9,0.7,1.8,1.3,2.7c0.7,0.9,1.6,1.6,2.5,2c0-0.2,0-0.7,0-0.9
		c0-1.6,0.4-2.9,1.1-4c1.1-1.6,2.5-2.5,4.5-2.5h0.9v3.1H793.4z M786.7,668.6c0-0.4-0.2-1.3-0.7-2.5c-0.4-1.3-0.9-1.8-1.3-1.8
		c-0.2,0-0.7,0.4-1.1,1.6c-0.4,1.1-0.7,2.5-0.7,3.8C785.3,669.5,786.7,669.3,786.7,668.6z" class="area" title=""></path>
	<path id="PATH_150" d="M814,672.2h-1.3c-1.6,0-2.5-0.7-3.1-1.8c-0.4,1.3-1.6,1.8-2.9,1.8s-2.2-0.7-2.9-1.8
		c-0.7,1.3-1.6,1.8-2.9,1.8c-1.6,0-2.7-0.7-3.4-1.8c-0.9,1.3-2,1.8-3.6,1.8h-1.6v-2.7h1.8c1.6,0,2.7-0.9,2.9-2.7
		c0-0.4,0.2-0.7,0.4-0.7s0.2,0.2,0.4,0.7c0.2,1.8,1.1,2.7,2.9,2.7c1.6,0,2.7-0.9,2.7-2.7c0-0.4,0.2-0.7,0.4-0.7s0.4,0.2,0.4,0.7
		c0.2,1.8,1.1,2.7,2.2,2.7c1.6,0,2.7-0.9,2.7-2.7c0-0.4,0.2-0.7,0.4-0.7s0.4,0.2,0.4,0.7c0.2,1.8,1.1,2.7,2.7,2.7h1.3v2.7H814z
		 M803.7,661l-1.6,1.6l-1.6-1.6l1.6-1.6L803.7,661z M805.7,657.4l-1.6,1.6l-1.6-1.6l1.6-1.6L805.7,657.4z M807.7,661l-1.6,1.6
		l-1.8-1.6l1.6-1.6L807.7,661z" class="area" title=""></path>
	<path id="PATH_151" d="M819.4,667.7c0,2.9-1.6,4.5-4.5,4.5h-1.8v-2.7h1.6c2.2,0,3.4-0.4,3.4-1.1c0-0.7-0.4-1.6-1.6-2.7l0.9-2.2
		c0-0.2,0.2-0.2,0.2-0.2s0.2,0.2,0.4,0.4C819,664.8,819.4,666.4,819.4,667.7z M819.2,657.6l-1.8,1.8l-1.8-1.8l1.8-1.8L819.2,657.6z" class="area" title=""></path>
	<path id="PATH_152" d="M824.8,669.5c0,0.9-0.2,1.8-0.7,2.5c-0.2,0.4-0.4,0.7-0.4,0.7s-0.2-0.2-0.2-0.9c0-2.7-0.4-9-1.3-19l1.8-1.8
		c0.2-0.2,0.2-0.2,0.2-0.2s0,0.2,0,0.4C824.6,654,824.8,660.1,824.8,669.5z" class="area" title=""></path>
	<path id="PATH_153" d="M838.7,672.2h-0.9c-0.9,0-1.3-0.2-1.8-0.4c0,0.2,0,0.4,0,0.7c0,2-0.7,4-2,6c-1.1,1.8-2.2,2.5-2.9,2.5
		c-1.8,0-3.1,0-4.5-0.2c-0.4,0-0.7-0.2-0.7-0.2s0.2-0.2,0.7-0.2c1.8-0.4,3.6-1.3,5.4-2.7c1.8-1.6,2.9-3.1,2.9-4.7
		c0-0.9-0.7-2.2-2.2-3.8l1.1-2c0-0.2,0.2-0.2,0.2-0.2l0.2,0.2c0.7,0.9,1.1,1.6,1.6,1.8c0.7,0.4,1.6,0.9,2.5,0.9h0.7v2.5H838.7z" class="area" title=""></path>
	<path id="PATH_154" d="M844,667.7c0,2.9-1.6,4.5-4.5,4.5h-1.8v-2.7h1.6c2.2,0,3.4-0.4,3.4-1.1c0-0.7-0.4-1.6-1.6-2.7l0.9-2.2
		c0-0.2,0.2-0.2,0.2-0.2s0.2,0.2,0.4,0.4C843.6,664.8,844,666.4,844,667.7z M842.3,677.1l-1.8,1.8l-1.8-1.8l1.8-1.8L842.3,677.1z
		 M846.1,677.1l-1.8,1.8l-1.8-1.8l1.8-1.8L846.1,677.1z" class="area" title=""></path>
	<path id="PATH_155" d="M851.4,669.5c0,0.9-0.2,1.8-0.7,2.5c-0.2,0.4-0.4,0.7-0.4,0.7s-0.2-0.2-0.2-0.9c0-2.7-0.4-9-1.3-19l1.8-1.8
		c0.2-0.2,0.2-0.2,0.2-0.2s0,0.2,0,0.4C851.4,654,851.4,660.1,851.4,669.5z" class="area" title=""></path>
</g>
<polygon class="st5 area" points="750.6,759.7 761.1,772.5 779,781.2 802.6,772.5 823.6,767.9 844,776.6 858.6,781.2 875.4,769.4 
	878.5,751.6 855.7,738.3 844.3,718.9 838.7,701.4 824.8,706 803.8,716.8 783.8,722.4 771.3,722.4 759,735.2 751.1,749 " id="_x35_68" title=""></polygon>
<g id="G_151" class="area" title="">
	<path d="M793.3,740.3l1.1,2c0.4,0.8,0.8,1.6,0.8,2.9v1.7c0,1.3-0.7,2.8-1.9,4.2c-0.9,1-1.7,1.4-2.5,1.4c-1.1,0-2.4-0.4-3.9-1.2
		l0.2-0.5c0.5,0.2,1,0.3,1.7,0.3c2.1,0,4.3-1.8,5.3-4.1c0.1-0.3,0.2-0.5,0.2-0.7c0-0.3-0.1-0.5-0.2-0.8c-0.5-1.2-1.2-2.3-1.8-3.3
		C792.5,741.5,792.8,740.9,793.3,740.3L793.3,740.3z" id="PATH_152" class="area"></path>
	<path d="M806.8,746.2v1.9h-1.3c-0.1,1-0.5,2.1-1.2,3.1c-1.2,1.8-2.8,2.6-3.6,2.6c-1.4,0-2.9-0.6-4.4-1.5l0.3-0.5
		c0.6,0.3,1.3,0.5,2.2,0.5c1.5,0,2.9-0.8,4.2-2.1c0.7-0.7,1.2-1.3,1.4-2.1h-0.7c-3.1,0-4.7-1-4.7-3.1c0-1,0.3-1.8,0.8-2.4
		c0.6-0.8,1.4-1.5,2.3-1.5c1.4,0,2.8,2,3.3,5.1H806.8z M803.4,744c-0.5-0.5-1-0.8-1.6-0.8c-0.8,0-1.7,0.7-1.7,1.3
		c0,0.8,0.7,1.2,1.6,1.5c0.8,0.2,1.7,0.2,2.7,0.2C804.3,745.3,803.9,744.5,803.4,744z" id="PATH_153" class="area"></path>
	<path d="M807.1,746.2c1.2,0,2.4-0.5,2.6-1.3l0.4-1.6l1-0.8l0.1,0.1c-0.2,0.8-0.3,1.4-0.3,1.8c0,0.5,0.1,1,0.5,1.3
		c0.5,0.4,1.1,0.6,1.9,0.6h0.3v1.9h-0.3c-1.5,0-2.6-0.4-3.1-1.5h-0.1c-0.5,1-1.7,1.5-3,1.5h-0.3c-0.8,0-1.1-0.6-1.1-1
		c0-0.4,0.2-0.9,1.1-0.9H807.1z M808.6,753.4c-0.6-0.6-1.2-1.1-1.8-1.6c0.4-0.5,0.8-1,1.2-1.4c0.6,0.5,1.1,1,1.7,1.6
		C809.3,752.7,809,753,808.6,753.4z M810.7,756.5c-0.6-0.6-1.2-1.1-1.8-1.6c0.4-0.5,0.8-1,1.2-1.4c0.6,0.5,1.1,1,1.7,1.6
		C811.5,755.7,811.2,756.1,810.7,756.5z M811.5,753.2c-0.6-0.6-1.2-1.1-1.8-1.6c0.4-0.5,0.8-1,1.2-1.4c0.6,0.5,1.1,1,1.7,1.6
		C812.3,752.5,812,752.9,811.5,753.2z" id="PATH_154" class="area"></path>
	<path d="M813.8,746.2c1.4,0,2.4-0.3,3.7-1.3c0.2-1.5,0.9-3,2-4c1-0.9,2.1-1.4,3.2-1.4c1.1,0,2,0.6,2,1.5c0,0.5-0.1,1-0.3,1.5
		l-0.1,0c-0.4-0.8-1-1.1-1.9-1.1c-0.8,0-1.3,0.2-2,0.6c-0.9,0.6-1.6,1.4-1.8,2.3l0,0c0.5-0.2,1-0.4,1.5-0.4c0.8,0,1.5,0.3,2,0.8
		c0.5,0.5,0.7,1.3,0.7,1.8c0,0.6-0.1,1.1-0.4,1.7c-0.6,1.1-1.3,1.5-2.1,1.5c-0.8,0-1.6-0.4-2.1-1.1c-0.5-0.5-0.8-1.2-0.8-1.9h-0.1
		c-1.1,1.1-2.3,1.4-3.6,1.4h-0.2c-0.8,0-1.1-0.6-1.1-1c0-0.4,0.2-0.9,1.1-0.9H813.8z M820.9,747.9c0.5,0,0.8-0.2,1-0.4
		c0-1.1-1-1.9-2.2-1.9c-0.4,0-0.8,0.1-1.2,0.3C818.8,747,819.9,747.9,820.9,747.9z M822.4,751.6c0.6,0.5,1.2,1,1.8,1.6
		c-0.3,0.5-0.7,1-1.3,1.5c-0.6-0.6-1.2-1-1.8-1.6C821.5,752.6,821.9,752.1,822.4,751.6z" id="PATH_155" class="area"></path>
</g>
<g id="G_156" class="area" title="">
	<path d="M708.6,805c-1.8-0.7-2.8-0.8-4.2-0.8c-0.9,0-1.5,0.3-1.9,0.8l0.3,1.3l-0.4,1.2l-0.2,0l-0.9-2.4c0.1-1.7,1.5-2.7,3.3-2.7
		c1,0,2.6,0.4,5,1.3c0.7,0.3,1.5,0.5,2.6,0.5l1.3,0l0,0l-0.9,1.5c-1,0.1-3.3,0.7-4,1c-3.3,1.2-5.6,3-5.6,5c0,3.1,3.3,5,7.6,5
		c1.4,0,2.6-0.1,3.9-0.3l0,0.2c-0.8,0.6-1.6,1.3-2.5,1.8c-0.8,0.2-1.8,0.3-2.9,0.3c-4,0-7.3-1.9-7.3-6.1
		C701.8,808.8,704.9,806,708.6,805L708.6,805z M708.4,810c0.6,0.5,1.2,1,1.8,1.6c-0.3,0.5-0.7,1-1.3,1.5c-0.6-0.6-1.2-1-1.8-1.6
		C707.6,811,708,810.4,708.4,810z" id="PATH_157" class="area" title=""></path>
	<path d="M725,808v1.9h-1.3c-0.1,1-0.5,2.1-1.2,3.1c-1.2,1.8-2.8,2.6-3.6,2.6c-1.4,0-2.9-0.6-4.4-1.5l0.3-0.5
		c0.6,0.3,1.3,0.5,2.2,0.5c1.5,0,2.9-0.8,4.2-2.1c0.7-0.7,1.2-1.3,1.4-2.1H722c-3.1,0-4.7-1-4.7-3.1c0-1,0.3-1.8,0.8-2.4
		c0.6-0.8,1.4-1.5,2.3-1.5c1.4,0,2.8,2,3.3,5.1H725z M721.6,805.8c-0.5-0.5-1-0.8-1.6-0.8c-0.8,0-1.7,0.7-1.7,1.3
		c0,0.8,0.7,1.2,1.6,1.5c0.8,0.2,1.7,0.2,2.7,0.2C722.5,807.2,722.1,806.4,721.6,805.8z" id="PATH_158" class="area" title=""></path>
	<path d="M725.3,808c1.2,0,2.4-0.5,2.6-1.3l0.4-1.6l1-0.8l0.1,0.1c-0.2,0.8-0.3,1.4-0.3,1.8c0,0.5,0.1,1,0.5,1.3
		c0.5,0.4,1.1,0.6,1.9,0.6h0.3v1.9h-0.3c-1.5,0-2.6-0.4-3.1-1.5h-0.1c-0.5,1-1.7,1.5-3,1.5H725c-0.8,0-1.1-0.6-1.1-1
		c0-0.4,0.2-0.9,1.1-0.9H725.3z M728,798.9c0.6,0.5,1.2,1,1.8,1.6c-0.3,0.5-0.7,1-1.3,1.5c-0.6-0.6-1.2-1-1.8-1.6
		C727.2,799.9,727.6,799.4,728,798.9z" id="PATH_159" class="area" title=""></path>
	<path d="M733.1,808c1.3,0,2.4,0,3.3-0.3c1-0.3,1.8-0.9,1.8-1.3c0-0.1,0-0.2,0-0.3c-0.5,0.1-1.2,0.1-1.7,0.1c-1.8,0-3.1-0.5-3.6-1.6
		c-0.1-0.3-0.2-0.7-0.2-1.1c0-1.1,0.4-2.2,1.1-3c0.6-0.6,1.3-1,2-1c1.2,0,2.2,1.2,2.9,3c0.4,1,0.6,2.1,0.6,3.6c0,1-0.2,1.8-0.7,2.4
		c-1,1.1-2.7,1.5-5.4,1.5h-1.2c-0.8,0-1.1-0.6-1.1-1c0-0.4,0.2-0.9,1.1-0.9H733.1z M735.4,801.5c-1,0-1.8,0.8-1.8,1.3
		c0,1.2,2,1.6,4.4,1.6C737.6,803,736.6,801.5,735.4,801.5z M735,794.7c0.6,0.5,1.2,1,1.8,1.6c-0.3,0.5-0.7,1-1.3,1.5
		c-0.6-0.6-1.2-1-1.8-1.6C734.2,795.7,734.6,795.1,735,794.7z" id="PATH_160" class="area" title=""></path>
</g>
</svg>
