<!--?xml version="1.0" encoding="utf-8"?-->
<!-- Generator: Adobe Illustrator 27.4.1, SVG Export Plug-In . SVG Version: 6.00 Build 0)  -->
<svg version="1.1" id="Layer_1" xmlns="http://www.w3.org/2000/svg" xmlns:xlink="http://www.w3.org/1999/xlink" x="0px" y="0px" viewBox="0 0 1920 1080" style="enable-background:new 0 0 1920 1080;" xml:space="preserve" width="100%" height="100%">
<style type="text/css">
	.st0{fill:#E8D0E5;stroke:#020202;stroke-width:0.453;stroke-miterlimit:22.6495;}
	.st1{fill:#DBECCB;stroke:#020202;stroke-width:0.453;stroke-miterlimit:22.6495;}
	.st2{fill:#FBD1D1;stroke:#020202;stroke-width:0.453;stroke-miterlimit:22.6495;}
	.st3{fill:#FDFAD6;stroke:#020202;stroke-width:0.453;stroke-miterlimit:22.6495;}
	.st4{fill:#D3D3D3;stroke:#030303;stroke-width:0.453;stroke-miterlimit:22.6495;}
	.st5{fill:none;stroke:#040404;stroke-width:1.1325;stroke-miterlimit:22.6495;}
	.st6{enable-background:new    ;}
	.st7{fill:#EFBED9;stroke:#000000;stroke-width:0.5;stroke-miterlimit:10;}
	.st8{fill:#F6F4B4;stroke:#000000;stroke-width:0.5;stroke-miterlimit:10;}
	.st9{fill:#FAE4CD;stroke:#020202;stroke-width:0.453;stroke-miterlimit:22.6495;}
</style>
<path id="_x33_29" class="st0 area" d="M837.8,784.8c5.4-8.2,0.9-19.9-4.5-29.2c-5.4-10-23.6-14.5-19.9-29.2c0-2.7,2.7-5.4,1.8-8.2
	c-7.2-11.8-25.6-18.1-22.6-33.7c0.9-4.5,5.4-7.2,7.2-10.9c10.9-19.9-3.6-48.2,19.9-58.2c27.4-10.9,44.6-31,42.8-60.9
	c0-2.7,4.5-5.4,5.4-8.2c1.8-5.4,4.5-10.9,8.2-11.8c14.5-1.8,32.8,8.2,41-7.2c4.5-8.2,0.9-17.2,3.6-25.6c2.7-9.1,12.7-20.8,2.7-27.4
	c-8.2-4.5-19-4.5-28.3-7.2c-10.9-4.5-19,2.7-27.4,10.9c-2.7,3.6-9.1,0-14.5,0.9c-5.4,1.8-10,6.3-14.5,9.1c-5.4,3.6-10-3.6-14.5-4.5
	c-10-2.7-22.9,0.9-28.3-8.2c-2.7-5.4,0-15.4-7.2-19c-6.3-1.8-10.9,4.5-15.4,6.3c-11.8,2.7-25.4-2.7-31,9.1
	c-4.5,9.1,2.7,19,10.9,24.7c0.9,0.9,0,4.5-0.9,5.4c-11.8,8.2-5.4,21.7-13.6,31c-8.2,9.1-18.1-3.6-22-11.8c-0.9-1.8-3.6,1.8-6.3,3.6
	c-13.6,9.1-26.3,19-41.9,23.8c-15.4,3.6-19,25.6-33.7,31c-6.6,2-12.5,2-18.6,3.6c0.5,0.2,0.9,0.7,1.4,0.9c3.6,1.8-0.9,7.2-3.6,11.8
	c-5.4,6.3-0.9,15.4-3.6,23.8c-1.8,2.7-4.5,5.4-8.2,3.6c-21.1-14.5-43.7-20.8-67.3-27.4c-5.4-1.8-8.2-6.3-12.7-10
	c-3.6-1.8-8.2-1.8-11.8,0c-7.2,2.7-13.6,10-21.7,10c-17,0.9-34,4.1-51,2.9c3.2,14.9-0.5,31.9-3.2,44.4c-1.1,5.2-2.3,10.4-2.3,12.7
	c0,7.9-3.6,21.5-8.4,40.3c-6.6,25.8-14.9,58.2-14.9,81.5c0,24.2-10.9,35.1-23.8,41.2c18.1,9.1,46.2,16.8,74.1-2
	c53.9-35.8,155.8-31.3,199.8-12.5c27.9,12,96.9,27.2,134.8,34.9C813.1,828.8,823.8,802.5,837.8,784.8z" title=""></path>
<path id="_x33_51" class="st1 area" d="M930.7,727.3c-14.5-0.9-22.6-16.3-36.5-21.1c-6.3-2.7-12.9,0-19,3.6c-4.5,2.7-10.9,2.7-15.4,0.9
	c-17.2-8.2-25.6-31-45.5-33.7c-5.4-0.7-10.6-1.4-15.9-1.6c-2,2.7-5.2,5.2-5.9,8.8c-2.7,15.4,15.4,21.7,22.6,33.7
	c0.9,2.7-1.8,5.4-1.8,8.2c-3.6,14.5,14.5,19,20.2,29.2c5.4,9.1,10,20.8,4.5,29.2c-14,17.9-24.5,43.9-44.2,54.6
	c15.4,3.2,25.6,5.2,26,5.2l8.4,1.6l-1.4,8.4c-0.2,1.1-3.6,28.1,35.1,42.6c17.4,6.6,40.1,12.2,62.1,17.9c44.8,11.3,72.7,19,81.5,31.9
	c7.5,11.1,63.9,56.6,101.9,85.8c23.8-27,56.2-69.5,56.2-87c0-28.3,0-60.2-20.6-80.9c-22.9-22.9-53-58.7-65.5-83.6
	c-4.1-8.2-12.7-27.6-14-49.8C1019.7,720.3,974.8,729.1,930.7,727.3z" title=""></path>
<path id="_x33_50" class="st2 area" d="M907.8,704.7c7.2-3.6,19-7.2,15.4-16.3c-3.6-10-19-14.5-15.4-26.3c3.6-9.1,16.3-15.4,11.8-26.3
	c-3.6-9.1-11.8-15.4-19.9-20.2c-1.8-0.9-4.5-1.8-6.3-2.7c-10.9-7.2-18.1-18.1-31-22.6c-2.7-0.9-5.4-1.4-7.9-1.6
	c-7.5,12-19.5,21.1-34.9,27.2c-23.8,10-9.1,38.3-19.9,58.2c-0.5,0.7-0.9,1.4-1.4,2.3c5.2,0.2,10.6,0.7,15.9,1.6
	c19.9,2.7,28.3,25.6,45.5,33.7c4.5,1.8,10.9,1.8,15.4-0.9c6.3-3.6,12.7-6.3,19-3.6c2.5,0.9,5,2,7.2,3.6
	C903.3,707.4,906,705.8,907.8,704.7z" title=""></path>
<path id="_x34_53" class="st3 area" d="M983.4,653.7c-0.9-4.5-4.5-8.2-8.2-10c-6.3-3.6-12.7,3.6-19,2.7c-5.4-1.8-9.1-6.3-12.9-7.2
	c-7.9-0.7-16.1-0.5-23.3-2.5c3.4,10.2-8.6,16.5-12.2,25.4c-3.6,11.8,11.8,16.3,15.4,26.5c3.6,9.1-8.2,12.7-15.4,16.3
	c-1.8,1.1-4.5,2.7-6.6,5.4c9.7,6.3,17.4,16.8,29.2,17.4c44.2,1.8,89-7.2,132.5,4.3c-0.5-6.1-0.2-12.5,0.7-18.6
	c-12.2-3.6-20.2-14.3-32.2-17.7C1008.8,689.3,989.8,677.3,983.4,653.7z" title=""></path>
<path id="_x33_49" class="st1 area" d="M1094.7,601.6c-0.2-0.5-15.2-31-17.4-58.7c-5.9-2.9-12.7-4.8-18.3-8.6
	c-10.9-6.3-14.5-20.8-28.3-23.8c-12.7-3.6-25.6,3.6-38.3,0.9c-15.4-4.5-22.9-21.7-39.2-24.7c-9.5-1.6-18.6-0.5-27.4,2
	c-1.6,4.3-4.1,8.6-5.4,12.5c-2.7,8.2,0.9,17.2-3.6,25.6c-8.2,15.4-26.5,5.4-41,7.2c-3.6,0.9-6.3,6.3-8.2,11.8
	c-0.9,2.7-5.4,5.4-5.4,8.2c0.7,13.1-2.3,24.5-7.9,34c2.7,0.2,5.2,0.7,7.9,1.6c12.7,4.5,19.9,15.4,31,22.6c1.8,0.9,4.5,1.8,6.3,2.7
	c8.2,4.5,16.3,10.9,19.9,20.2c0.2,0.2,0.2,0.7,0.5,1.1c7.2,2.3,15.4,2,23.3,2.5c3.6,0.9,7.2,5.4,12.9,7.2c6.3,0.9,12.7-6.3,19-2.7
	c3.6,1.8,7.2,5.4,8.2,10c6.3,23.6,25.6,35.6,48.2,41.9c12,3.4,19.9,14,32.2,17.7c1.8-11.6,6.1-23.3,14.5-33.7
	C1098.5,653.9,1105.1,622.7,1094.7,601.6z" title=""></path>
<path id="PATH_8" class="st4 area" d="M1077.2,542.9c0-1.4-0.2-2.7-0.2-4.1c-0.7,1.1-1.6,2-2.3,2.9
	C1075.4,542.3,1076.3,542.5,1077.2,542.9z" title=""></path>
<path id="_x37_" class="st0 area" d="M1102.6,471.6c-5.4-15.4-12.9-31-10-49.1c3.6-14.5,17.2-22.9,19.9-37.4c0.9-7.2,2.7-14.5-0.9-20.8
	c-13.4-22.4-14.9-45.5-9.7-67.9c-15.6-6.6-29.4-13.8-39-25.6c-8.4,5.7-15.9,12.2-18.8,20.6c-4.5,10.9-13.6,18.1-19,28.3
	c-1.8,2.7-1.8,7.2,0,10c10.9,18.1,45.5,29.2,32.6,51.9c-17.2,27.4-18.1,58.2-31,86.5c-1.8,3.6-5.4,8.2-8.2,11.8
	c-7.2,10.9,3.6,19,7.2,28.3c0.2,0.5,0.5,1.1,0.5,1.8c1.4,0.2,2.7,0.5,4.1,0.9c13.6,2.7,17.2,17.2,28.3,23.8
	c4.8,3.4,10.4,5.2,15.6,7.5c0.7-0.9,1.6-2,2.3-2.9c-0.5-12,1.8-23.1,9.3-30.1c0.5-0.5,0.9-0.9,1.4-1.1c3.2-7.2,7.2-14,12.5-21.3
	C1102.6,482.5,1103.5,477,1102.6,471.6z" title=""></path>
<path id="_x33_35" class="st1 area active" d="M727.5,259.4c0,2.7-2.7,5.4-4.5,8.2c-2.7,6.3-10.9,9.1-14.5,15.4c-7.2,14.5-6.3,30.1-6.3,44.6
	c0.9,16.3,21.7,15.4,31.7,4.5c4.5-3.6,4.5-10,5.4-16.3c0.9-7.2,11.8-10.9,18.1-6.3c9.1,5.4,19,16.3,30.1,10.9
	c10.9-5.4,22-17.2,33.7-12.7c10.9,3.6,15.4,16.3,23.8,25.6c2.7,1.8,5.4,2.7,8.2,3.6c10,3.6,22,0,31.9,6.3c11.8,6.3,30.1,13.6,43.7,0
	c13.6-14.5,33.7,1.8,52.8-3.6c7.2-1.8,16.3-6.3,23.8-2.7c8.6,3.4,15.4,0.2,22-4.5c-0.7-0.9-1.4-1.8-1.8-2.7c-1.8-2.7-1.8-7.2,0-10
	c5.4-10,14.7-17.2,19-28.3c2.7-8.4,10.4-15.2,18.8-20.6c-4.3-5.2-7.5-11.6-9.7-18.8c-10.4-36.5-31.9-71.1-55-88.3
	c-9.1-6.8-29.9-17.2-52.1-28.3c-33.7-16.8-72-35.8-93.3-53.5c-17.9-14.9-37.8-26.7-56.6-34.7c-2,18.3-6.3,53.5-10.6,70.7
	c-2.7,10.4-7.2,17.9-12.2,25.6c-7.5,11.8-15.9,25.1-22.4,55.5c-4.5,20.2-14.3,31.5-26.5,37.6C722.5,244.2,726.8,251.2,727.5,259.4z" title=""></path>
<path id="_x32_21" class="st2 area" d="M515.5,411.6c3.6,0,9.1-6.3,10.9-2.7c11.8,16.3,26.5,12.7,41.9,10c5.4-0.9,9.1,7.2,11.8,6.3
	c10.9-4.5,25.6-12.7,23.8-23.8c-1.8-8.2-16.3,0-24.5-5.4c-7.2-4.5-12.9-11.8-20.2-14.5c-6.3-1.8-12.7,1.8-18.1,5.4
	c-1.8,0.9-5.4,0.9-7.2-0.9c-7-8.6-16.5-13.1-26.3-16.5c-6.6,7.5-13.8,13.1-21.3,17.7C491.9,400.5,500.3,411.6,515.5,411.6z" title=""></path>
<path id="_x33_26" class="st1 area" d="M666.6,522.6c0.9-7.2,7.2-16.3,14.5-17.2c19-0.9,26.5-16.3,37.4-28.3c4.5-6.3,3.6-19.9-5.4-22.6
	c-9.1-1.8-15.4-6.3-22-12.7c-1.8-1.8-4.5-2.7-7.2-2.7c-19.9,2.7-35.6-2.7-53.7-12.7c-11.8-6.3-26.5,15.4-36.5,29.2
	c-1.8,2.7-1.8,6.3,0,9.1c11.8,17.2,4.5,34.7,6.3,52.8c0,4.5,5.4,8.2,7.2,12.7c2.7,4.5-0.9,9.1-4.5,12.7c-0.9,1.8-0.9,4.5,0,5.4
	c11.1,9.5,16.1,20.4,20.2,33.3c3.9-0.7,7.7-1.1,11.8-2.5c14.5-5.4,18.1-27.4,33.7-31c8.6-2.5,16.5-6.8,24-11.6
	C681.3,537.3,664.1,537.7,666.6,522.6z" title=""></path>
<path id="_x33_38" class="st0 area" d="M627.4,411.6c-2.7-8.8-14-12.7-24-11.1c0.2,0.2,0.2,0.7,0.2,0.9c1.8,10.9-12.7,19-23.8,23.8
	c-2.7,0.9-6.3-7.2-11.8-6.3c-15.4,2.7-30.1,6.3-41.9-10c-1.8-3.6-7.2,2.7-10.9,2.7c-14.9,0-23.6-11.1-29.2-24.5
	c-6.3,3.9-12.7,6.8-18.8,9.1c-0.7,5.9-1.6,12,2.7,17.9c5.4,8.2,10.9,16.3,12.7,25.6c4.5,15.4-11.8,25.6-23.8,31
	c-12.7,5.4-26.3,13.6-40.1,15.4c-22.6,3.6-53.7,14.5-43.7,41c5.9,16.1,27.4,26.3,32.6,41c3.6,0.9,7,2.3,10.2,4.1
	c0.2-2.7,0.5-5.7,1.8-7.5c6.3-6.3,13.8-10.9,17.2-18.1c5.4-10.9,5.4-24.7,18.1-29.2c6.3-1.8,14.5,1.8,20.8-0.9
	c9.1-3.6,17.2-11.8,28.3-10c8.2,0.9,12.9,8.2,19,10.9c10,3.6,19.9-4.5,28.3-0.9c2.7,0.9,5,2.3,7.2,4.1c5.7-5.4,10.6-12,14.5-19.7
	c1.8-3.6,5.4-7.2,9.1-10.9c5.2-4.3,10.9-8.8,16.3-13.6c-1.1-4.1-2.7-7.9-5.4-12c-1.8-2.7-1.8-6.3,0-9.1c10-13.6,24.5-35.3,36.2-29.2
	C629.9,421.3,629.2,416.6,627.4,411.6z" title=""></path>
<path id="_x35_86" class="st3 area" d="M573.7,500.8c-4.1,7.7-8.8,14-14.5,19.5c6.3,5.2,10.6,13.1,18.3,18.6c0.9,1.8,1.8,5.4,0.9,8.2
	c-4.5,8.2-15.4,15.4-8.2,23.6c7.2,9.1,20.8,0,29.2,3.6c5.9,1.6,11.8,5,17,8.2c2.3-0.7,4.5-0.9,6.8-1.4c-3.9-12.9-9.1-23.8-20.2-33.3
	c-0.9-0.9-0.9-3.6,0-5.4c3.6-3.6,7.2-8.2,4.5-12.7c-1.8-4.5-7.2-8.2-7.2-12.7c-1.4-14,2.5-27.4-0.9-40.8
	c-5.4,4.8-11.1,9.3-16.3,13.6C579.1,493.3,575.5,497,573.7,500.8z" title=""></path>
<path id="PATH_15" class="st3 area" d="M1027.2,332.3c-6.6,4.5-13.4,7.9-22,4.5c-7.2-3.6-16.3,0.9-23.8,2.7c-19,5.4-39.2-10.9-52.8,3.6
	c-13.6,13.6-31.9,6.3-43.7,0c-10-6.3-21.7-2.7-31.9-6.3c-2.7-0.9-5.4-1.8-8.2-3.6c-8.2-9.1-12.7-21.7-23.8-25.6
	c-11.8-4.5-22.6,7.2-33.5,12.7c-10.9,5.4-21.1-5.4-30.1-10.9c-6.3-4.5-17.2-0.9-18.1,6.3c-0.9,6.3-0.9,12.7-5.4,16.3
	c-10,10.9-31,11.8-31.9-4.5c0-14.5-0.9-30.1,6.3-44.6c3.6-6.3,11.8-9.1,14.5-15.4c1.8-2.7,4.5-5.4,4.5-8.2
	c-0.7-8.2-5.2-15.2-3.2-22.9c-20.6,10-48.5,4.5-69.3,0.7c-4.3-0.9-8.6-1.6-12.7-2.3c-24-4.1-42.4,12-63.4,30.6
	c-5.4,4.8-10.9,9.5-16.8,14c-14.7,11.8-21.5,27.6-28.3,44.4c-5.7,13.8-11.8,28.1-22.4,41.4c-1.1,1.6-2.5,2.9-3.9,4.3
	c9.7,3.4,19,7.9,26.3,16.5c1.8,1.8,5.4,1.8,7.2,0.9c5.4-3.6,11.8-7.2,18.1-5.4c7.2,2.7,12.7,10,20.2,14.5c7.9,5.2,21.5-2,24.2,4.5
	c10-1.6,21.3,2,24,11.1c1.8,5,2.5,10,2.5,14.5h0.2c18.1,10,33.7,15.4,53.7,12.7c2.7,0,5.4,0.9,7.2,2.7c6.3,6.3,12.9,10.9,22,12.7
	c9.1,2.7,10,16.3,5.4,22.6c-10.9,11.8-18.1,27.4-37.4,28.3c-7.2,0.9-13.6,10-14.7,17.2c-2.5,15.2,14.7,14.7,25.8,13.8
	c5.9-3.9,11.8-7.9,17.9-12c2.7-1.8,5.4-5.4,6.3-3.6c3.6,8.2,13.6,20.8,22,11.8c8.2-9.1,1.8-22.6,13.6-31c0.9-0.9,1.8-4.5,0.9-5.4
	c-8.2-5.4-15.4-15.4-10.9-24.7c5.4-11.8,19-6.3,31-9.1c4.5-1.8,9.1-8.2,15.4-6.3c7.2,3.6,4.5,13.6,7.2,19c5.4,9.1,18.1,5.4,28.3,8.2
	c4.5,0.9,9.1,8.2,14.5,4.5c4.5-2.7,9.1-7.2,14.5-9.1c5.4-0.9,11.8,2.7,14.5-0.9c8.2-8.2,16.3-15.4,27.4-10.9
	c9.1,2.7,20.2,2.7,28.3,7.2c5.7,3.6,5,9.1,2.7,14.7c8.8-2.3,17.9-3.6,27.4-2c16.3,2.7,23.6,19.9,39.2,24.5
	c11.3,2.5,22.6-3.2,34.2-1.8c0-0.7-0.2-1.4-0.5-1.8c-3.6-9.1-14.5-17.2-7.2-28.3c2.7-3.6,6.3-8.2,8.2-11.8
	c12.7-28.3,13.6-59.1,31-86.5C1070.2,359.9,1039.6,348.8,1027.2,332.3z" title=""></path>
<path id="_x33_24" class="st2 area" d="M1476.7,395c-23.8-8.2-49.1-10.9-72.9-19.9c-17.2-5.4-37.4-1.8-53.7-8.2
	c-17.2-6.3-32.6-14.5-49.6-19.9c-13.4,2.5-25.8,3.9-35.8,3.9c-4.1,0-8.2,0.2-12,0.2c-24,0.7-48.7,1.4-85.8-25.1
	c-14.5-10.4-31.7-17-48.2-23.3c-5.7-2.3-11.3-4.3-16.8-6.6c-5.2,22.4-3.6,45.5,9.7,67.9c3.6,6.3,1.8,13.6,0.9,20.8
	c-2.7,14.5-16.3,22.6-19.9,37.4c-2.7,18.1,4.5,33.7,10,49.1c0.9,5.4,0,10.9-2.7,14.5c-5,7-9.3,13.8-12.5,21.3
	c12-10.2,31.5-7.9,59.6,7.2c86.7,46.2,116,58,144.3,69.3c12.5,5,23.8,14.5,35.6,24.7c10,8.4,20.6,17.7,33.3,25.1
	c7.7-10,13.8-22.4,21.7-32.6c6.3-7.2,12.9-16.3,18.1-25.6c20.8-34.7,28.3-72.7,43.7-109.2c2.7-6.3,6.3-11.8,7.2-19
	c0.9-0.9,3.6-1.8,3.6-1.8c5.4-14.5,16.3-24.7,25.4-35.6C1484.9,404.3,1480.4,395.9,1476.7,395z" title=""></path>
<path id="_x33_23" class="st3 area" d="M1807.9,280.9c-12.7-4.3-36.5-9.5-62.1-14.9c-44.2-9.7-94.7-20.6-113.9-32.2
	c-21.1-12.7-103.1-30.1-141.1-19c-5.4,1.6-12.5,4.5-15.2,9.7c-18.3,36.7-72.3,78.6-101.9,96.5c-20.6,12.5-48.5,21.5-73.2,26.3
	c17,5.4,32.4,13.6,49.6,19.9c16.3,6.3,36.5,2.7,53.7,8.2c23.8,9.1,49.1,11.8,72.9,20.2c3.6,0.9,8.2,9.1,3.6,14.5
	c-9.1,10.9-19.9,20.8-25.4,35.6c0,0-2.7,0.9-3.6,1.8c-0.9,7.2-4.5,12.7-7.2,19c-15.4,36.5-22.9,74.7-43.7,109.2
	c-5.4,9.1-11.8,18.1-18.1,25.6c-8.2,10.4-14.3,22.6-21.7,32.6c10,5.9,21.1,10.9,34.2,13.6c51.2,11.3,103.3-0.9,112.3-18.6
	c13.6-27,80-96.9,143.6-125.9c40.3-18.3,76.1-48.7,104.6-73.2c15.4-13.1,28.8-24.5,39.6-31c15.9-9.5,28.3-22.9,39.2-34.9
	c8.4-9.1,16.1-17.4,24.2-22.9c10.4-7,26-23.6,35.8-34.4C1873.1,300.6,1833,289,1807.9,280.9z" title=""></path>
<path id="_x33_37" class="st2 area" d="M488.1,595.5c8.2,0,14.7-7.2,22-10c3.6-1.8,8.2-1.8,11.8,0c4.5,3.6,7.2,8.2,12.7,10
	c23.8,6.3,46.4,12.7,67.5,27.4c3.6,1.8,6.3-0.9,8.2-3.6c2.7-8.2-1.8-17.2,3.6-23.8c2.7-4.5,7.2-10,3.6-11.8
	c-5.4-3.6-11.8-7.2-18.1-9.1c-8.2-3.6-21.7,5.4-29.2-3.6c-7.2-8.2,3.6-15.4,8.2-23.6c0.9-2.7,0-6.3-0.9-8.2
	c-10-7.2-14.5-19-25.6-22.6c-8.2-3.6-18.1,4.5-28.3,0.9c-6.3-2.7-10.9-10-19-10.9c-10.9-1.8-19,6.3-28.3,10
	c-6.3,2.7-14.5-0.9-20.8,0.9c-12.9,4.5-12.9,18.1-18.1,29.2c-3.6,7.2-10.9,11.8-17.2,18.1c-1.6,2-1.6,4.8-1.8,7.5
	c4.5,2.5,8.4,5.4,11.3,9.3c4.1,5,6.6,10.9,7.9,17.2C454.1,599.6,471.1,596.2,488.1,595.5z" title=""></path>
<path id="_x32_26" class="st1 area" d="M375.3,527.1c-10-26.5,21.1-37.4,43.7-41c13.8-1.8,27.4-10,40.1-15.4c11.8-5.4,28.3-15.4,23.8-31
	c-1.8-9.1-7.2-17.2-12.7-25.6c-4.3-5.9-3.2-12-2.7-17.9c-16.8,6.1-31.9,7-38.3,7c-5.4,0-17,0.7-31.5,1.4c-31.9,1.8-80,4.3-131.1,4.3
	c-61.6,0-118.2,7.7-163.8,13.8c-9.5,1.4-18.6,2.5-27,3.6c-38.3,4.8-44.6,78.4-44.6,79c-0.2,2-1.1,3.9-2.5,5.4
	c33.5-1.6,71.6-3.2,86.7-3.2c5.4,0,11.1-0.2,17.2-0.5c27.9-0.9,62.5-2.3,101.9,12.5c11.3,4.3,22.4,9.1,34.2,14.3
	c35.8,15.6,72.7,31.7,119.6,31.7c7.2,0,13.8,0.7,19.5,2.3C402.7,553.4,381.2,543.2,375.3,527.1z" title=""></path>
<line id="LINE_20" class="st5 area" x1="646" y1="506" x2="614" y2="133.7" title=""></line>
<line id="LINE_21" class="st5 area" x1="507.6" y1="565.4" x2="384.6" y2="613.6" title=""></line>
<line id="LINE_22" class="st5 area" x1="591.6" y1="541.4" x2="387.1" y2="671.4" title=""></line>
<line id="LINE_23" class="st5 area" x1="1155.6" y1="252.8" x2="1060.9" y2="320.3" title=""></line>
<line id="LINE_24" class="st5 area" x1="547.7" y1="400.7" x2="468.6" y2="364.2" title=""></line>
<g id="G_25" class="area" title="">
	<path id="PATH_26" d="M573.7,111.2h-0.9c-0.9,0-1.4-0.2-1.8-0.5c0,0.2,0,0.5,0,0.7c0,2-0.7,4.1-2,6.1c-1.1,1.8-2.3,2.5-2.9,2.5
		c-1.8,0-3.2,0-4.5-0.2c-0.5,0-0.7-0.2-0.7-0.2s0.2-0.2,0.7-0.2c1.8-0.5,3.6-1.4,5.4-2.7c1.8-1.6,2.9-3.2,2.9-4.8
		c0-0.9-0.7-2.3-2.3-3.9l1.1-2c0-0.2,0.2-0.2,0.2-0.2l0.2,0.2c0.7,0.9,1.1,1.6,1.6,1.8c0.7,0.5,1.6,0.9,2.5,0.9h0.7v2.5H573.7z" class="area" title=""></path>
	<path id="PATH_27" d="M587.8,111.2h-1.1c-0.9,0-1.8,0.2-2.5,0.5c-1.1,0.5-1.8,1.1-1.8,2.3c0,1.4,0.9,2.5,2.7,3.6l-1.1,2.3
		c-2-0.7-3.9-1.8-5.2-3.2c-1.8-1.6-2.7-3.6-2.7-5.7h-3.2v-2.7h2.9c0-1.8,0.5-3.6,1.4-5.9c0.9-2,1.6-2.9,2-2.9c0.5,0,1.1,0.9,1.8,2.9
		c0.7,1.8,0.9,2.9,0.9,3.6c0,3.2-1.6,4.8-4.8,4.8c0.2,0.9,0.7,1.8,1.4,2.7c0.7,0.9,1.6,1.6,2.5,2c0-0.2,0-0.7,0-0.9
		c0-1.6,0.5-2.9,1.1-4.1c1.1-1.6,2.5-2.5,4.5-2.5h0.9v3.2H587.8z M581,107.6c0-0.5-0.2-1.4-0.7-2.5c-0.5-1.4-0.9-1.8-1.4-1.8
		c-0.2,0-0.7,0.5-1.1,1.6s-0.7,2.5-0.7,3.9C579.6,108.5,581,108.3,581,107.6z" class="area" title=""></path>
	<path id="PATH_28" d="M608.6,111.2h-1.4c-1.6,0-2.5-0.7-3.2-1.8c-0.5,1.4-1.6,1.8-2.9,1.8s-2.3-0.7-2.9-1.8
		c-0.7,1.4-1.6,1.8-2.9,1.8c-1.6,0-2.7-0.7-3.4-1.8c-0.9,1.4-2,1.8-3.6,1.8h-1.6v-2.7h1.8c1.6,0,2.7-0.9,2.9-2.7
		c0-0.5,0.2-0.7,0.5-0.7s0.2,0.2,0.5,0.7c0.2,1.8,1.1,2.7,2.9,2.7c1.6,0,2.7-0.9,2.7-2.7c0-0.5,0.2-0.7,0.5-0.7s0.5,0.2,0.5,0.7
		c0.2,1.8,1.1,2.7,2.3,2.7c1.6,0,2.7-0.9,2.7-2.7c0-0.5,0.2-0.7,0.5-0.7s0.5,0.2,0.5,0.7c0.2,1.8,1.1,2.7,2.7,2.7h1.4v2.7H608.6z
		 M598.2,99.7l-1.6,1.6l-1.6-1.6l1.6-1.6L598.2,99.7z M600.2,96.3l-1.6,1.6l-1.6-1.6l1.6-1.6L600.2,96.3z M602.3,99.7l-1.6,1.6
		l-1.6-1.6l1.6-1.6L602.3,99.7z" class="area" title=""></path>
	<path id="PATH_29" d="M619.9,106.7c0,1.1,0,2-0.5,2.9c-0.5,1.1-1.1,1.8-1.8,1.8c-1.1,0-2.9-0.7-5.2-2.3c-0.7,0.9-1.1,1.4-1.4,1.6
		c-0.7,0.5-1.4,0.7-2.3,0.7h-1.1v-2.7h1.6c0.9,0,1.8-0.5,2.7-1.6c0.5-0.5,1.1-1.6,2-2.9c0.7-1.1,1.6-1.6,2.3-1.6
		c1.1,0,2,0.5,2.7,1.6C619.5,104.9,619.9,105.8,619.9,106.7z M618.6,108.3c0-0.7-0.2-1.4-0.7-2.3s-1.1-1.4-1.8-1.4s-1.4,0.7-2.3,2
		c0.5,0.5,1.1,0.9,2,1.4c0.9,0.5,1.8,0.7,2.3,0.7C618.3,109,618.6,108.8,618.6,108.3z" class="area" title=""></path>
	<path id="PATH_30" d="M641.2,111.2h-1.4c-2.7,0-4.3-2-4.3-6.1c0-0.5,0-1.1,0-2c-1.8,4.3-3.9,7.5-6.6,9.3c-1.6,0.5-3.6,0.7-5.9,0.7
		c-0.5,0-0.7,0-0.7,0s0.7-0.5,2-1.1c0.9-0.5,1.8-0.9,2.7-1.4c1.6-0.7,3.2-1.8,4.5-3.4c-0.7-2.3-1.6-4.3-2.9-6.1
		c-0.9-1.1-2.3-2.5-4.3-4.1l-0.2,0.9c-0.7-0.5-1.1-0.9-1.6-1.4c-0.7-0.7-1.1-1.1-1.1-1.6c0-0.5,0-1.1,0.2-2.3c0-0.2,0-0.5,0.2-0.5
		s0.2,0,0.5,0.2c2.9,2,5.2,4.1,6.6,5.9c1.8,2.3,2.9,4.8,3.6,7.7c0.9-1.1,1.6-2.3,2-3.6c0.7-1.6,0.9-2.9,0.9-4.1c0-2-0.2-4.3-0.5-6.8
		l1.8-1.6c0.2,1.1,0.2,6.3,0.5,15.6c0,2,0.9,3.2,2.7,3.2h1.1L641.2,111.2L641.2,111.2z" class="area" title=""></path>
	<path id="PATH_31" d="M658.9,106.3c0,1.4-0.2,2.5-0.9,3.4c-0.7,0.9-1.8,1.6-2.9,1.6c-1.6,0-2.5-0.7-3.2-1.8
		c-0.9,1.4-1.8,1.8-3.2,1.8c-1.6,0-2.7-0.7-3.4-1.8c-0.9,1.4-2,1.8-3.6,1.8h-1.6v-2.7h1.8c1.6,0,2.7-0.9,2.9-2.7
		c0-0.5,0.2-0.7,0.5-0.7s0.2,0.2,0.5,0.7c0.2,1.8,1.1,2.7,2.9,2.7c0.9,0,1.8-0.2,2.3-0.7c0.2-0.5,0.5-0.9,0.7-1.8
		c0-0.5,0.2-0.7,0.5-0.7s0.2,0.2,0.5,0.7c0.2,1.8,1.1,2.7,2.7,2.7c1.8,0,2.5-0.5,2.5-1.1c0-0.7-0.5-1.6-1.4-2.5l1.1-2
		c0.2-0.2,0.2-0.5,0.5-0.5s0.2,0.2,0.5,0.5C658.6,104.2,658.9,105.4,658.9,106.3z" class="area" title=""></path>
	<path id="PATH_32" d="M664.3,108.3c0,0.9-0.2,1.8-0.7,2.5c-0.2,0.5-0.5,0.7-0.5,0.7s-0.2-0.2-0.2-0.9c0-2.7-0.5-9.1-1.4-19.3
		l1.8-1.8c0.2-0.2,0.2-0.2,0.2-0.2s0,0.2,0,0.5C664.3,92.9,664.3,99,664.3,108.3z" class="area" title=""></path>
</g>
<g id="G_33" class="area" title="">
	<path id="PATH_34" d="M439.4,340.5c0,3.2-1.4,4.8-4.1,4.8c-1.6,0-2.5-0.7-2.9-2c-0.7,1.4-1.8,2-3.2,2c-0.5,0-1.1,0-1.6-0.2
		c0,1.4-0.2,2.7-0.2,4.3c-0.7,1.6-1.8,2.9-3.9,3.9c-1.8,0.7-3.6,1.1-5.7,1.1c-2,0-3.6-0.5-5-1.4c-1.4-1.1-2-2.5-2-4.5
		c0-1.1,0.2-2,0.7-3.4c0.5-0.9,0.7-1.6,1.1-2c0.2-0.2,0.5-0.2,0.5-0.2c0.2,0,0.2,0,0.2,0.2c0,0,0,0.2,0,0.5
		c-0.7,1.4-0.9,2.7-0.9,3.9s0.5,2,1.1,2.9c0.9,1.1,2.5,1.6,4.5,1.6c2.3,0,4.3-0.5,5.9-1.1c1.4-0.7,2.3-1.4,2.5-2.3
		c0.2-0.2,0.2-0.7,0-1.6c0-0.7-0.2-1.4-0.2-1.6c-0.2-0.7-0.9-1.8-2.3-3.4l0.9-1.8c0.2-0.2,0.2-0.5,0.2-0.5s0.2,0,0.2,0.2
		c0.7,0.9,1.1,1.6,1.4,1.8c0.7,0.7,1.4,0.9,2.3,0.9c0.9,0,1.8-0.2,2.3-0.9c0.2-0.5,0.5-0.9,0.7-2c0-0.5,0.2-0.7,0.5-0.7
		c0.2,0,0.2,0.2,0.2,0.7c0.2,1.1,0.5,1.8,0.9,2.3c0.5,0.5,1.4,0.7,2.5,0.7c0.5,0,0.9-0.2,1.1-0.5c0.5-0.2,0.7-0.7,0.7-1.1
		c0-0.7-0.5-1.4-1.4-2.5l1.1-2c0.2-0.2,0.2-0.2,0.2-0.2l0.2,0.2C438.9,338,439.4,339.1,439.4,340.5z" class="area" title=""></path>
	<path id="PATH_35" d="M457.1,345.2h-0.9c-0.9,0-1.6-0.2-2.3-0.9c-0.5-0.5-0.9-0.9-1.4-1.8c-0.5,0.9-1.1,1.6-1.8,2
		c-0.9,0.5-2,0.7-3.9,0.7c-3.2,0-4.8-1.1-4.8-3.4c0-0.7,0.2-1.6,0.7-2.3c0.2-0.2,0.2-0.5,0.5-0.5c0.2,0,0.2,0.2,0.2,0.5s0,0.2,0,0.7
		c0,0.2,0,0.5,0,0.7c0,1.4,1.1,2,3.4,2c3.2,0,4.8-0.7,4.8-1.8c0-0.7-0.9-3.2-2.7-7.5l0.9-1.8c0.2-0.2,0.2-0.5,0.2-0.5
		s0.2,0.2,0.2,0.5c0.7,1.8,1.8,4.5,3.2,8.2c0.7,1.8,1.6,2.7,2.9,2.7h0.7L457.1,345.2L457.1,345.2z" class="area" title=""></path>
	<path id="PATH_36" d="M465.9,338.9c0,2-0.2,3.4-0.7,4.1c-1.1,1.6-2.9,2.3-5.9,2.3h-3.2v-2.7h2.3c3.9,0,5.9-0.7,6.3-1.8
		c0.2-0.5,0-0.9-0.2-1.4c-0.9,0.2-1.8,0.2-2.9,0.2c-2,0-3.2-0.9-3.2-2.7c0-1.1,0.2-2.5,0.9-3.6c0.7-1.4,1.6-2,2.7-2
		c0.9,0,1.8,0.7,2.5,1.8C465.4,334.8,465.9,336.6,465.9,338.9z M461.4,326.4l-1.8,1.8l-1.8-1.8l1.8-1.8L461.4,326.4z M464.1,336.8
		c0-0.7-0.2-1.4-0.7-2c-0.5-0.7-1.1-0.9-1.8-0.9c-0.5,0-0.9,0.2-1.4,0.5c-0.5,0.2-0.5,0.7-0.5,1.1c0,0.9,0.7,1.4,2.3,1.4
		C462.5,337.1,463.4,337.1,464.1,336.8z M465.2,326.4l-1.8,1.8l-1.8-1.8l1.8-1.8L465.2,326.4z" class="area" title=""></path>
</g>
<g id="G_37" class="area" title="">
	<path id="PATH_38" d="M267,469.6c0,3.2-2,4.8-6.3,4.8c-1.6,0-2.7-0.2-3.4-0.7c-0.9-0.5-1.4-1.6-1.4-2.9c0-0.7,0.2-1.4,0.5-2
		c0.2-0.2,0.2-0.5,0.5-0.5c0.2,0,0.2,0.2,0.2,0.7c0,0.2,0,0.5,0,0.7c0,0.9,0.5,1.6,1.4,1.8c0.5,0.2,1.4,0.2,2.5,0.2
		c3.4,0,5-0.5,5-1.6c0-1.6-2-3.9-5.9-6.6l0.7-2.3c0-0.2,0.2-0.2,0.2-0.2s0.2,0,0.5,0.2C265,464.1,267,467.1,267,469.6z" class="area" title=""></path>
	<path id="PATH_39" d="M278.4,474.5c0,2.3-0.7,4.3-2,6.3c-1.1,1.6-2.3,2.5-2.9,2.5c-1.8,0-3.2,0-4.5-0.2c-0.5,0-0.7-0.2-0.7-0.2
		s0.2-0.2,0.7-0.2c1.8-0.5,3.6-1.4,5.4-2.7c1.8-1.6,2.9-3.2,2.9-4.8c0-0.9-0.7-2.3-2.3-3.9l1.1-2c0-0.2,0.2-0.2,0.2-0.2l0.2,0.2
		c0.5,0.7,1.1,1.6,1.4,2.7C278.1,472.7,278.4,473.6,278.4,474.5z" class="area" title=""></path>
	<path id="PATH_40" d="M299.7,474.3h-1.4c-2.7,0-4.3-2-4.3-6.1c0-0.5,0-1.1,0-2c-1.8,4.3-3.9,7.5-6.6,9.3c-1.6,0.5-3.6,0.7-5.9,0.7
		c-0.5,0-0.7,0-0.7,0s0.7-0.5,2-1.1c0.9-0.5,1.8-0.9,2.7-1.4c1.6-0.7,3.2-1.8,4.5-3.4c-0.7-2.3-1.6-4.3-2.9-6.1
		c-0.9-1.1-2.3-2.5-4.3-4.1l-0.2,0.9c-0.7-0.5-1.1-0.9-1.6-1.4c-0.7-0.7-1.1-1.1-1.1-1.6c0-0.5,0-1.1,0.2-2.3c0-0.2,0-0.5,0.2-0.5
		s0.2,0,0.5,0.2c2.9,2,5.2,4.1,6.6,5.9c1.8,2.3,2.9,4.8,3.6,7.7c0.9-1.1,1.6-2.3,2-3.6c0.7-1.6,0.9-2.9,0.9-4.1c0-2-0.2-4.3-0.5-6.8
		l1.8-1.6c0.2,1.1,0.2,6.3,0.5,15.6c0,2,0.9,3.2,2.7,3.2h1.1L299.7,474.3L299.7,474.3z" class="area" title=""></path>
	<path id="PATH_41" d="M310.8,469.8c0,1.1,0,2-0.5,2.9c-0.5,1.1-1.1,1.8-1.8,1.8c-1.1,0-2.9-0.7-5.2-2.3c-0.7,0.9-1.1,1.4-1.4,1.6
		c-0.7,0.5-1.4,0.7-2.3,0.7h-1.1v-2.7h1.6c0.9,0,1.8-0.5,2.7-1.6c0.5-0.5,1.1-1.6,2-2.9c0.7-1.1,1.6-1.6,2.3-1.6
		c1.1,0,2,0.5,2.7,1.6C310.5,468.2,310.8,468.9,310.8,469.8z M309.6,471.4c0-0.7-0.2-1.4-0.7-2.3c-0.5-0.9-1.1-1.4-1.8-1.4
		c-0.7,0-1.4,0.7-2.3,2c0.5,0.5,1.1,0.9,2,1.4c0.9,0.5,1.8,0.7,2.3,0.7C309.4,472.1,309.6,471.8,309.6,471.4z" class="area" title=""></path>
</g>
<g id="G_42" class="area" title="">
	<path id="PATH_43" d="M496.5,476.4c0,2.3-0.7,4.3-2,6.3c-1.1,1.6-2.3,2.5-2.9,2.5c-1.8,0-3.2,0-4.5-0.2c-0.5,0-0.7-0.2-0.7-0.2
		s0.2-0.2,0.7-0.2c1.8-0.5,3.6-1.4,5.4-2.7c1.8-1.6,2.9-3.2,2.9-4.8c0-0.9-0.7-2.3-2.3-3.9l1.1-2c0-0.2,0.2-0.2,0.2-0.2l0.2,0.2
		c0.5,0.7,1.1,1.6,1.4,2.7C496.3,474.8,496.5,475.7,496.5,476.4z" class="area" title=""></path>
	<path id="PATH_44" d="M505.5,476.1H504c-1.6,0-2.9-0.7-3.4-2c-0.5-0.9-0.7-2.5-0.7-4.3v-4.3c0-2-0.2-5-0.5-8.8l1.4-1.6
		c0.2-0.2,0.5-0.2,0.5,0c0.2,2,0.5,5,0.5,8.8v6.6c0,1.8,0.9,2.7,2.7,2.7h1.1V476.1z" class="area" title=""></path>
	<path id="PATH_45" d="M510.7,471.8c0,2.9-1.6,4.5-4.5,4.5h-1.8v-2.7h1.6c2.3,0,3.4-0.5,3.4-1.1c0-0.7-0.5-1.6-1.6-2.7l0.9-2.3
		c0-0.2,0.2-0.2,0.2-0.2s0.2,0.2,0.5,0.5C510.3,468.9,510.7,470.2,510.7,471.8z M509.2,481.1l-1.8,1.8l-1.8-1.8l1.8-1.8L509.2,481.1
		z M513,481.1l-1.8,1.8l-1.8-1.8l1.8-1.8L513,481.1z" class="area" title=""></path>
	<path id="PATH_46" d="M527.1,476.1h-0.9c-0.9,0-1.4-0.2-1.8-0.5c0,0.2,0,0.5,0,0.7c0,2-0.7,4.1-2,6.1c-1.1,1.8-2.3,2.5-2.9,2.5
		c-1.8,0-3.2,0-4.5-0.2c-0.5,0-0.7-0.2-0.7-0.2s0.2-0.2,0.7-0.2c1.8-0.5,3.6-1.4,5.4-2.7c1.8-1.6,2.9-3.2,2.9-4.8
		c0-0.9-0.7-2.3-2.3-3.9l1.1-2c0-0.2,0.2-0.2,0.2-0.2l0.2,0.2c0.7,0.9,1.1,1.6,1.6,1.8c0.7,0.5,1.6,0.9,2.5,0.9h0.7v2.5H527.1z" class="area" title=""></path>
	<path id="PATH_47" d="M541.1,476.1H540c-0.9,0-1.8,0.2-2.5,0.5c-1.1,0.5-1.8,1.1-1.8,2.3c0,1.4,0.9,2.5,2.7,3.6l-1.1,2.3
		c-2-0.7-3.9-1.8-5.2-3.2c-1.8-1.6-2.7-3.6-2.7-5.7h-3.2v-2.7h2.9c0-1.8,0.5-3.6,1.4-5.9c0.9-2,1.6-2.9,2-2.9s1.1,0.9,1.8,2.9
		c0.7,1.8,0.9,2.9,0.9,3.6c0,3.2-1.6,4.8-4.8,4.8c0.2,0.9,0.7,1.8,1.4,2.7c0.7,0.9,1.6,1.6,2.5,2c0-0.2,0-0.7,0-0.9
		c0-1.6,0.5-2.9,1.1-4.1c1.1-1.6,2.5-2.5,4.5-2.5h0.9v3.2H541.1z M534.3,472.5c0-0.5-0.2-1.4-0.7-2.5c-0.5-1.4-0.9-1.8-1.4-1.8
		c-0.2,0-0.7,0.5-1.1,1.6c-0.5,1.1-0.7,2.5-0.7,3.9C532.9,473.6,534.3,473.2,534.3,472.5z" class="area" title=""></path>
	<path id="PATH_48" d="M559,471.4c0,1.4-0.2,2.5-0.9,3.4c-0.7,0.9-1.8,1.6-2.9,1.6c-1.6,0-2.5-0.7-3.2-1.8c-0.9,1.4-1.8,1.8-3.2,1.8
		c-1.6,0-2.7-0.7-3.4-1.8c-0.9,1.4-2,1.8-3.6,1.8h-1.6v-2.7h1.8c1.6,0,2.7-0.9,2.9-2.7c0-0.5,0.2-0.7,0.5-0.7c0.2,0,0.2,0.2,0.5,0.7
		c0.2,1.8,1.1,2.7,2.9,2.7c0.9,0,1.8-0.2,2.3-0.7c0.2-0.5,0.5-0.9,0.7-1.8c0-0.5,0.2-0.7,0.5-0.7c0.2,0,0.2,0.2,0.5,0.7
		c0.2,1.8,1.1,2.7,2.7,2.7c1.8,0,2.5-0.5,2.5-1.1c0-0.7-0.5-1.6-1.4-2.5l1.1-2c0.2-0.2,0.2-0.5,0.5-0.5c0.2,0,0.2,0.2,0.5,0.5
		C558.8,469.3,559,470.5,559,471.4z M551.3,463.2l-1.6,1.6l-1.6-1.8l1.6-1.6L551.3,463.2z M553.3,459.6l-1.6,1.6l-1.6-1.6l1.6-1.6
		L553.3,459.6z M555.4,463.2l-1.6,1.6l-1.6-1.6l1.6-1.6L555.4,463.2z" class="area" title=""></path>
</g>
<g id="G_49" class="area" title="">
	<path id="PATH_50" d="M286.1,606.4h-1.1c-1.4,0-2.5-0.2-3.2-0.9c0,0.2,0.2,0.7,0.2,1.1c0,2.3-0.7,3.6-2.3,3.6c-1.4,0-2.3-0.7-3.2-2
		c-0.7-1.1-0.9-2.5-0.9-3.9c0-0.2,0-0.7,0-0.9c-0.2,0-0.5,0-0.7,0c-1.6,0-2.5,0.5-3.2,1.1c0.5,3.6,0.7,6.3,0.7,8.2
		c0,0.9-0.2,1.8-0.7,3.2c-0.2,0.5-0.2,0.7-0.5,0.7c0,0-0.2-0.2-0.2-0.9l-1.1-10.4c0-0.5,0.2-1.1,0.7-1.8s0.9-1.1,1.4-1.6
		c0.2-0.2,0.9-0.5,1.8-0.7c0.7-0.2,1.4-0.2,1.8-0.2c0.2,0,0.2,0,0.5,0l0.2-1.4c0-0.2,0.2-0.5,0.2-0.5s0.2,0,0.5,0.2
		c1.8,1.6,3.2,2.7,3.9,3.2c1.4,0.9,2.5,1.4,3.6,1.4h1.4v2.5H286.1z M280.9,606.1c0-0.7-0.5-1.4-1.4-2.3c-0.2-0.2-0.9-0.9-2.5-2.3
		c0,0.5,0,0.9,0,1.4c0,1.1,0.2,2,0.7,2.7c0.5,1.1,1.1,1.6,2,1.6C280.4,607.5,280.9,607,280.9,606.1z" class="area" title=""></path>
	<path id="PATH_51" d="M291.5,601.8c0,2.9-1.6,4.5-4.5,4.5h-1.8v-2.7h1.6c2.3,0,3.4-0.5,3.4-1.1s-0.5-1.6-1.6-2.7l0.9-2.3
		c0-0.2,0.2-0.2,0.2-0.2s0.2,0.2,0.5,0.5C291,598.9,291.5,600.5,291.5,601.8z M289.7,611.3l-1.8,1.8l-1.8-1.8l1.8-1.8L289.7,611.3z
		 M293.5,611.3l-1.8,1.8l-1.8-1.8l1.8-1.8L293.5,611.3z" class="area" title=""></path>
	<path id="PATH_52" d="M307.6,606.4h-0.9c-0.9,0-1.4-0.2-1.8-0.5c0,0.2,0,0.5,0,0.7c0,2-0.7,4.1-2,6.1c-1.1,1.8-2.3,2.5-2.9,2.5
		c-1.8,0-3.2,0-4.5-0.2c-0.5,0-0.7-0.2-0.7-0.2s0.2-0.2,0.7-0.2c1.8-0.5,3.6-1.4,5.4-2.7c1.8-1.6,2.9-3.2,2.9-4.8
		c0-0.9-0.7-2.3-2.3-3.9l1.1-2c0-0.2,0.2-0.2,0.2-0.2l0.2,0.2c0.7,0.9,1.1,1.6,1.6,1.8c0.7,0.5,1.6,0.9,2.5,0.9h0.7v2.5H307.6z" class="area" title=""></path>
	<path id="PATH_53" d="M321.6,585.5c0,0.5-0.5,1.4-0.9,2.5l-5.7,1.8c-2.5,0.9-4.3,1.6-5.2,2c1.8,1.8,2.9,3.2,3.6,3.9
		c1.1,1.6,1.8,2.9,2,4.5c0,1.1,0,2.3-0.5,3.2c-0.7,2-3.2,2.9-7,2.9h-1.1v-2.7h1.4c1.8,0,3.2,0,3.9-0.2c1.6-0.5,2.5-1.1,2.5-2.3
		c0-1.6-1.1-3.4-3.6-5.7l-0.2,0.5c-0.2-0.2-0.7-0.7-1.1-1.4c-0.7-0.7-0.9-1.4-0.9-1.4c0-0.5,0-0.9,0.2-1.8c0.2-0.9,0.5-1.4,0.7-1.6
		s1.8-0.9,4.8-1.8C316.9,586.9,319.6,586,321.6,585.5z" class="area" title=""></path>
	<path id="PATH_54" d="M353.1,600.2c0,2.5-1.6,4.3-4.5,5.2c-2,0.7-5,0.9-9.1,0.9c-1.6,0-2.9,0-3.6-0.2c-1.6-0.5-2.7-1.4-3.4-2.7
		c0-0.2-0.2-0.5-0.2-0.5l0,0c0,0,0.2,0,0.5,0.2c1.1,0.5,2.5,0.7,4.3,0.7c0.7,0,1.1,0,1.4-0.2c0.2-0.2,0.5-0.7,0.2-1.4
		c0-0.9,0-2.7,0-5.2c-0.2-3.9-0.5-7-0.9-10l1.6-1.6c0.2-0.2,0.2-0.2,0.2-0.2s0.2,0.2,0.2,0.5c0.2,0.9,0.5,1.8,0.9,2.7
		c0,0.2,0.2,0.5,0.2,0.5s-0.2,0-0.5,0h-0.7c0.2,4.1,0.2,6.6,0.2,7.2v2.5c0,0.9-0.2,2.3-0.7,3.9c0.2,0,0.7-0.5,1.8-1.4
		c1.1-1.1,2.3-2,3.2-2.7c1.6-0.9,2.9-1.4,4.3-1.4c1.1,0,2,0.2,2.7,0.9C352.7,598.2,353.1,599.1,353.1,600.2z M351.5,601.6
		c0-0.7-0.5-1.4-1.4-1.8c-0.7-0.5-1.6-0.7-2.3-0.7c-1.6,0-4.3,1.4-7.7,4.3c0.9,0,2,0.2,2.9,0.2c1.4,0,2.9-0.2,4.5-0.5
		C350.2,603,351.5,602.3,351.5,601.6z" class="area" title=""></path>
	<path id="PATH_55" d="M362.2,606.4h-1.6c-1.6,0-2.9-0.7-3.4-2c-0.5-0.9-0.7-2.5-0.7-4.3v-4.3c0-2-0.2-5-0.5-8.8l1.4-1.6
		c0.2-0.2,0.5-0.2,0.5,0c0.2,2,0.5,5,0.5,8.8v6.6c0,1.8,0.9,2.7,2.7,2.7h1.1V606.4z" class="area" title=""></path>
	<path id="PATH_56" d="M367.4,601.8c0,2.9-1.6,4.5-4.5,4.5H361v-2.7h1.6c2.3,0,3.4-0.5,3.4-1.1s-0.5-1.6-1.6-2.7l0.9-2.3
		c0-0.2,0.2-0.2,0.2-0.2s0.2,0.2,0.5,0.5C366.9,598.9,367.4,600.5,367.4,601.8z M366.7,611.3l-1.8,1.8l-1.8-1.8l1.8-1.8L366.7,611.3
		z" class="area" title=""></path>
	<path id="PATH_57" d="M378.9,606.6c0,2.3-0.7,4.3-2,6.3c-1.1,1.6-2.3,2.5-2.9,2.5c-1.8,0-3.2,0-4.5-0.2c-0.5,0-0.7-0.2-0.7-0.2
		s0.2-0.2,0.7-0.2c1.8-0.5,3.6-1.4,5.4-2.7c1.8-1.6,2.9-3.2,2.9-4.8c0-0.9-0.7-2.3-2.3-3.9l1.1-2c0-0.2,0.2-0.2,0.2-0.2l0.2,0.2
		c0.5,0.7,1.1,1.6,1.4,2.7C378.7,604.8,378.9,605.7,378.9,606.6z" class="area" title=""></path>
</g>
<g id="G_58" class="area" title="">
	<path id="PATH_59" d="M295.1,668c0.2,0.7,0.2,1.4,0.2,2c0,0.9-0.2,1.6-0.5,2.5c-0.7,1.6-1.8,2.9-4.1,3.9c-1.8,0.7-3.6,1.1-5.7,1.1
		s-3.6-0.5-5-1.4c-1.4-1.1-2-2.5-2-4.5c0-1.1,0.2-2,0.7-3.4c0.5-0.9,0.7-1.6,1.1-2c0.2-0.2,0.5-0.2,0.5-0.2c0.2,0,0.2,0,0.2,0.2
		c0,0,0,0.2,0,0.5c-0.7,1.4-0.9,2.7-0.9,3.9c0,1.1,0.5,2,1.1,2.9c0.9,1.1,2.5,1.6,4.5,1.6c2.3,0,4.3-0.5,5.9-1.1
		c1.4-0.7,2.3-1.4,2.7-2.3c0.2-0.2,0.2-0.7,0.2-0.9c0-0.7-0.2-1.4-0.5-2.3c-0.2-0.7-0.9-1.8-2-3.6l0.9-1.8c0.2-0.2,0.2-0.5,0.2-0.5
		s0.2,0,0.2,0.2C294.2,664.6,294.9,666.2,295.1,668z M288.6,658.2l-1.8,1.8l-1.8-1.8l1.8-1.8L288.6,658.2z" class="area" title=""></path>
	<path id="PATH_60" d="M304.4,668.4h-1.6c-1.6,0-2.9-0.7-3.4-2c-0.5-0.9-0.7-2.5-0.7-4.3v-4.3c0-2-0.2-5-0.5-8.8l1.4-1.6
		c0.2-0.2,0.5-0.2,0.5,0c0.2,2,0.5,5,0.5,8.8v6.6c0,1.8,0.9,2.7,2.7,2.7h1.1V668.4z" class="area" title=""></path>
	<path id="PATH_61" d="M315.5,668.4h-1.8c-2,0-3.4-0.7-4.3-2c-0.7,1.4-2.3,2-4.8,2h-1.1v-2.7h2c2.3,0,3.4-0.9,3.6-2.5
		c0-0.7,0.2-1.1,0.5-1.1c0.2,0,0.5,0.5,0.5,1.1c0.2,1.6,1.4,2.5,3.4,2.5h2L315.5,668.4L315.5,668.4z M307.8,655.3l-1.8,1.8l-1.8-1.8
		l1.8-1.8L307.8,655.3z M311.7,655.3l-1.8,1.8l-1.8-1.8l1.8-1.8L311.7,655.3z" class="area" title=""></path>
	<path id="PATH_62" d="M333.4,663.4c0,1.4-0.2,2.5-0.9,3.4c-0.7,0.9-1.8,1.6-2.9,1.6c-1.6,0-2.5-0.7-3.2-1.8
		c-0.9,1.4-1.8,1.8-3.2,1.8c-1.6,0-2.7-0.7-3.4-1.8c-0.9,1.4-2,1.8-3.6,1.8h-1.6v-2.7h1.8c1.6,0,2.7-0.9,2.9-2.7
		c0-0.5,0.2-0.7,0.5-0.7c0.2,0,0.2,0.2,0.5,0.7c0.2,1.8,1.1,2.7,2.9,2.7c0.9,0,1.8-0.2,2.3-0.7c0.2-0.5,0.5-0.9,0.7-1.8
		c0-0.5,0.2-0.7,0.5-0.7c0.2,0,0.2,0.2,0.5,0.7c0.2,1.8,1.1,2.7,2.7,2.7c1.8,0,2.5-0.5,2.5-1.1s-0.5-1.6-1.4-2.5l1.1-2
		c0.2-0.2,0.2-0.5,0.5-0.5s0.2,0.2,0.5,0.5C332.9,661.4,333.4,662.5,333.4,663.4z" class="area" title=""></path>
	<path id="PATH_63" d="M345,668.6c0,2.3-0.7,4.3-2,6.3c-1.1,1.6-2.3,2.5-2.9,2.5c-1.8,0-3.2,0-4.5-0.2c-0.5,0-0.7-0.2-0.7-0.2
		s0.2-0.2,0.7-0.2c1.8-0.5,3.6-1.4,5.4-2.7c1.8-1.6,2.9-3.2,2.9-4.8c0-0.9-0.7-2.3-2.3-3.9l1.1-2c0-0.2,0.2-0.2,0.2-0.2l0.2,0.2
		c0.5,0.7,1.1,1.6,1.4,2.7C344.7,666.8,345,667.7,345,668.6z" class="area" title=""></path>
	<path id="PATH_64" d="M354,668.4h-1.6c-1.6,0-2.9-0.7-3.4-2c-0.5-0.9-0.7-2.5-0.7-4.3v-4.3c0-2-0.2-5-0.5-8.8l1.4-1.6
		c0.2-0.2,0.5-0.2,0.5,0c0.2,2,0.5,5,0.5,8.8v6.6c0,1.8,0.9,2.7,2.7,2.7h1.1V668.4z" class="area" title=""></path>
	<path id="PATH_65" d="M368.1,668.4h-1.1c-0.9,0-1.8,0.2-2.5,0.5c-1.1,0.5-1.8,1.1-1.8,2.3c0,1.4,0.9,2.5,2.7,3.6l-1.1,2.3
		c-2-0.7-3.9-1.8-5.2-3.2c-1.8-1.6-2.7-3.6-2.7-5.7h-3.2v-2.7h2.9c0-1.8,0.5-3.6,1.4-5.9c0.9-2,1.6-2.9,2-2.9s1.1,0.9,1.8,2.9
		c0.7,1.8,0.9,2.9,0.9,3.6c0,3.2-1.6,4.8-4.8,4.8c0.2,0.9,0.7,1.8,1.4,2.7c0.7,0.9,1.6,1.6,2.5,2c0-0.2,0-0.7,0-0.9
		c0-1.6,0.5-2.9,1.1-4.1c1.1-1.6,2.5-2.5,4.5-2.5h0.9v3.2H368.1z M361,664.8c0-0.5-0.2-1.4-0.7-2.5c-0.5-1.4-0.9-1.8-1.4-1.8
		c-0.2,0-0.7,0.5-1.1,1.6c-0.5,1.1-0.7,2.5-0.7,3.9C359.9,665.7,361,665.5,361,664.8z" class="area" title=""></path>
	<path id="PATH_66" d="M373.5,663.9c0,2.9-1.6,4.5-4.5,4.5h-1.8v-2.7h1.6c2.3,0,3.4-0.5,3.4-1.1s-0.5-1.6-1.6-2.7l0.9-2.3
		c0-0.2,0.2-0.2,0.2-0.2s0.2,0.2,0.5,0.5C372.8,660.9,373.5,662.3,373.5,663.9z M372.6,673.4l-1.8,1.8l-1.8-1.8l1.8-1.8L372.6,673.4
		z" class="area" title=""></path>
</g>
<g id="TEXT_67" class="st6 area" title="">
	<path d="M657.3,705.3c0.1,0.4,0.1,0.7,0.1,0.7c0,0.1-0.2,0-0.6-0.2c-0.7-0.4-1.6-0.6-2.7-0.6c-1.5,0-2.9,0.6-4.1,1.9
		c-1.1,1.1-1.6,1.9-1.6,2.5c0,0.7,1,1.3,3.1,1.7c2.3,0.4,3.6,1,4,1.7c0.1,0.1,0.1,0.4,0.1,0.7c0,1.2-0.4,2.5-1.2,3.8
		c-0.5,0.8-1.7,1.6-3.4,2.3c-2.2,0.9-4.6,1.3-7.4,1.3c-2,0-3.6-0.5-4.9-1.5c-1.4-1.1-2.1-2.6-2.1-4.5c0-2.1,0.7-4.1,2.1-5.9
		c0.2-0.3,0.4-0.4,0.6-0.5c0.2,0,0.3,0,0.3,0.2c0,0.1-0.1,0.3-0.2,0.6c-0.9,1.6-1.3,3.1-1.3,4.5c0,1,0.4,2,1.1,2.8
		c1,1.1,2.6,1.7,4.7,1.7c1.8,0,3.8-0.2,5.8-0.7c2.9-0.7,4.4-1.6,4.4-2.8c0-0.4-1.4-1-4.3-1.5c-1.1-0.2-1.8-0.4-2.2-0.7
		c-0.6-0.3-0.8-0.9-0.8-1.7c0-1.5,0.8-3.2,2.3-5.2c1.7-2.1,3.3-3.2,4.9-3.2C655.9,702.7,656.9,703.6,657.3,705.3z" id="PATH_66" class="area"></path>
	<path d="M668.9,713.8c0,2.2-0.7,4.3-2.1,6.2c-1.2,1.7-2.2,2.5-3,2.5c-1.7,0-3.2-0.1-4.5-0.3c-0.4-0.1-0.6-0.2-0.6-0.3
		s0.2-0.3,0.6-0.3c1.8-0.4,3.6-1.3,5.3-2.8c1.9-1.6,2.9-3.2,2.9-4.7c0-1-0.8-2.3-2.4-3.8l1-2.1c0.1-0.2,0.2-0.3,0.2-0.3
		c0.1,0,0.2,0.1,0.3,0.3c0.5,0.7,1,1.5,1.5,2.6C668.6,712.1,668.9,713.1,668.9,713.8z" id="PATH_67" class="area" title=""></path>
</g>
<g id="G_68" class="area" title="">
	<path id="PATH_69" d="M938.4,825.4h-1.1c-1.1,0-1.8,0-2.3-0.2c0,0.7,0.2,1.1,0.2,1.8c0,1.1-0.2,1.8-0.5,2.5
		c-0.7,1.6-1.8,2.9-4.1,3.9c-1.8,0.7-3.6,1.1-5.7,1.1s-3.6-0.5-5-1.4c-1.4-1.1-2-2.5-2-4.5c0-1.1,0.2-2,0.7-3.4
		c0.5-0.9,0.7-1.6,1.1-2c0.2-0.2,0.5-0.2,0.5-0.2c0.2,0,0.2,0,0.2,0.2c0,0,0,0.2,0,0.5c-0.7,1.4-0.9,2.7-0.9,3.9
		c0,1.1,0.5,2,1.1,2.9c0.9,1.1,2.5,1.6,4.5,1.6c2.3,0,4.3-0.5,5.9-1.1c1.4-0.7,2.3-1.4,2.7-2.3c0.2-0.2,0.2-0.7,0-1.6
		c0-0.7-0.2-1.4-0.2-1.6c-0.2-0.7-1.1-1.8-2.3-3.4l0.9-1.8c0.2-0.2,0.2-0.5,0.2-0.5s0.2,0,0.2,0.2c1.1,1.8,2.3,2.7,3.6,2.7h1.8v2.7
		H938.4z M928.4,815.2l-1.8,1.8l-1.8-1.8l1.8-1.8L928.4,815.2z" class="area" title=""></path>
	<path id="PATH_70" d="M949.5,825.4h-1.8c-2,0-3.4-0.7-4.3-2c-0.7,1.4-2.3,2-4.8,2h-1.4v-2.7h2c2.3,0,3.4-0.9,3.6-2.5
		c0-0.7,0.2-1.1,0.5-1.1s0.5,0.5,0.5,1.1c0.2,1.6,1.4,2.5,3.4,2.5h2v2.7H949.5z M942,830.4l-1.8,1.8l-1.8-1.8l1.8-1.8L942,830.4z
		 M946.1,830.4l-1.8,1.8l-1.8-1.8l1.8-1.8L946.1,830.4z" class="area" title=""></path>
	<path id="PATH_71" d="M960.8,820.9c0,1.1,0,2-0.5,2.9c-0.5,1.1-1.1,1.8-1.8,1.8c-1.1,0-2.9-0.7-5.2-2.3c-0.7,0.9-1.1,1.4-1.4,1.6
		c-0.7,0.5-1.4,0.7-2.3,0.7h-1.1v-2.7h1.6c0.9,0,1.8-0.5,2.7-1.6c0.5-0.5,1.1-1.6,2-2.9c0.7-1.1,1.6-1.6,2.3-1.6
		c1.1,0,2,0.5,2.7,1.6C960.6,819.3,960.8,819.9,960.8,820.9z M959.4,822.4c0-0.7-0.2-1.4-0.7-2.3s-1.1-1.4-1.8-1.4
		c-0.7,0-1.4,0.7-2.3,2c0.5,0.5,1.1,0.9,2,1.4c0.9,0.5,1.8,0.7,2.3,0.7C959.2,823.1,959.4,822.9,959.4,822.4z" class="area" title=""></path>
	<path id="PATH_72" d="M966,822.7c0,0.9-0.2,1.8-0.7,2.5c-0.2,0.5-0.5,0.7-0.5,0.7s-0.2-0.2-0.2-0.9c0-2.7-0.5-9.1-1.4-19.3l1.8-1.8
		c0.2-0.2,0.2-0.2,0.2-0.2s0,0.2,0,0.5C966,807,966,813.2,966,822.7z" class="area" title=""></path>
	<path id="PATH_73" d="M977.6,825.6c0,2.3-0.7,4.3-2,6.3c-1.1,1.6-2.3,2.5-2.9,2.5c-1.8,0-3.2,0-4.5-0.2c-0.5,0-0.7-0.2-0.7-0.2
		s0.2-0.2,0.7-0.2c1.8-0.5,3.6-1.4,5.4-2.7c1.8-1.6,2.9-3.2,2.9-4.8c0-0.9-0.7-2.3-2.3-3.9l1.1-2c0-0.2,0.2-0.2,0.2-0.2l0.2,0.2
		c0.5,0.7,1.1,1.6,1.4,2.7C977.3,823.8,977.6,824.7,977.6,825.6z" class="area" title=""></path>
	<path id="PATH_74" d="M989.3,824.5c0,3.4-1.1,6.3-3.4,8.6c-0.7,0.7-1.1,1.1-1.4,1.1c-1.4,0-2.7-0.2-4.3-0.5c-0.7,0-0.9-0.2-0.9-0.2
		s0.2-0.2,0.9-0.5c1.8-0.5,3.6-1.6,5.2-2.9c0.7-0.7,1.4-1.1,1.8-2c0.7-0.9,1.1-1.8,1.1-2.5v-0.7h-2.9c-2,0-3.2-0.9-3.2-2.5
		c0-1.1,0.2-2.3,0.9-3.6c0.7-1.4,1.6-2.3,2.5-2.3c1.4,0,2.5,0.9,3.2,2.9C989.1,821.1,989.3,822.7,989.3,824.5z M987.5,822.7
		c0-0.7-0.2-1.4-0.7-2c-0.5-0.7-1.1-1.1-1.8-1.1c-0.5,0-0.9,0.2-1.1,0.5s-0.5,0.7-0.5,1.1c0,1.1,0.7,1.6,2.3,1.6
		C985.9,822.9,986.8,822.7,987.5,822.7z" class="area" title=""></path>
</g>
<g id="G_75" class="area" title="">
	<path id="PATH_76" d="M937.7,694.9c0,0.9-0.2,1.8-0.7,2.5c-0.2,0.5-0.5,0.7-0.5,0.7s-0.2-0.2-0.2-0.9c0-2.7-0.5-9.1-1.4-19.3
		l1.8-1.8c0.2-0.2,0.2-0.2,0.2-0.2s0,0.2,0,0.5C937.5,679.5,937.7,685.6,937.7,694.9z" class="area" title=""></path>
	<path id="PATH_77" d="M951.7,697.9h-2.5c-0.2,3.2-1.4,5.7-3.6,7.9c-0.7,0.7-1.1,1.1-1.4,1.1c-1.1,0-2.7-0.2-4.3-0.5
		c-0.5,0-0.9-0.2-0.9-0.2s0.2-0.2,0.9-0.5c1.8-0.5,3.6-1.6,5.2-2.7c0.7-0.7,1.4-1.1,1.8-2c0.7-0.9,1.1-1.8,1.1-2.5v-0.7h-2.9
		c-2.3,0-3.2-0.9-3.2-2.7c0-1.1,0.2-2.3,0.9-3.6c0.7-1.4,1.6-2.3,2.5-2.3c1.1,0,2,0.7,2.7,2.3c0.5,1.1,0.9,2.3,0.9,3.6h2.5v2.7
		H951.7z M947.7,695.1c0-0.7-0.2-1.4-0.7-2c-0.5-0.9-1.1-1.1-1.8-1.1c-0.5,0-0.9,0.2-1.1,0.5c-0.5,0.5-0.5,0.7-0.5,1.4
		c0,1.1,0.9,1.6,2.7,1.6C946.3,695.1,947,695.1,947.7,695.1z" class="area" title=""></path>
	<path id="PATH_78" d="M972.6,697.9h-1.4c-1.6,0-2.5-0.7-3.2-1.8c-0.5,1.4-1.6,1.8-2.9,1.8s-2.3-0.7-2.9-1.8
		c-0.7,1.4-1.6,1.8-2.9,1.8c-1.6,0-2.7-0.7-3.4-1.8c-0.9,1.4-2,1.8-3.6,1.8h-1.6v-2.7h1.8c1.6,0,2.7-0.9,2.9-2.7
		c0-0.5,0.2-0.7,0.5-0.7s0.2,0.2,0.5,0.7c0.2,1.8,1.1,2.7,2.9,2.7c1.6,0,2.7-0.9,2.7-2.7c0-0.5,0.2-0.7,0.5-0.7s0.5,0.2,0.5,0.7
		c0.2,1.8,1.1,2.7,2.3,2.7c1.6,0,2.7-0.9,2.7-2.7c0-0.5,0.2-0.7,0.5-0.7s0.5,0.2,0.5,0.7c0.2,1.8,1.1,2.7,2.7,2.7h1.4v2.7H972.6z
		 M962.2,686.3l-1.6,1.6l-1.6-1.6l1.6-1.6L962.2,686.3z M964,682.9l-1.6,1.6l-1.6-1.6l1.6-1.6L964,682.9z M966,686.3l-1.6,1.6
		l-1.6-1.6l1.6-1.6L966,686.3z" class="area" title=""></path>
	<path id="PATH_79" d="M983.7,697.9h-1.8c-2,0-3.4-0.7-4.3-2c-0.7,1.4-2.3,2-4.8,2h-1.1v-2.7h2c2.3,0,3.4-0.9,3.6-2.5
		c0-0.7,0.2-1.1,0.5-1.1s0.5,0.5,0.5,1.1c0.2,1.6,1.4,2.5,3.4,2.5h2L983.7,697.9L983.7,697.9z M976.2,702.9l-1.8,1.8l-1.8-1.8
		l1.8-1.8L976.2,702.9z M980.3,702.9l-1.8,1.8l-1.8-1.8l1.8-1.8L980.3,702.9z" class="area" title=""></path>
	<path id="PATH_80" d="M989.1,693.3c0,2.9-1.6,4.5-4.5,4.5h-1.8v-2.7h1.6c2.3,0,3.4-0.5,3.4-1.1c0-0.7-0.5-1.6-1.6-2.7l0.9-2.3
		c0-0.2,0.2-0.2,0.2-0.2s0.2,0.2,0.5,0.5C988.7,690.4,989.1,691.8,989.1,693.3z M983.9,702.2l1.6-1.6l1.6,1.6l-1.6,1.6L983.9,702.2z
		 M985.9,705.8l1.6-1.6l1.6,1.6l-1.6,1.6L985.9,705.8z M987.7,702.2l1.6-1.6l1.6,1.6l-1.6,1.6L987.7,702.2z" class="area" title=""></path>
</g>
<g id="G_81" class="area" title="">
	<path id="PATH_82" d="M851.6,650.3H850c-1.1,0-2.3-0.7-3.6-1.8c-0.7-0.7-1.6-1.8-2.7-3.4c0,1.6-0.2,2.7-0.9,3.4
		c-1.1,1.4-3.4,2-6.8,2h-4.5c-5.4,0-8.4-1.6-8.4-4.8c0-1.1,0.5-2.3,1.1-3.4c0.2-0.2,0.5-0.5,0.5-0.5c0.2,0,0.2,0,0.2,0.2
		s0,0.2,0,0.5c-0.2,0.9-0.5,1.4-0.5,2c0,0.9,0.5,1.6,1.1,2c1.1,0.9,2.9,1.4,5.4,1.4h4.5c2.5,0,4.3-0.2,5.2-0.5
		c1.1-0.5,1.6-1.1,1.6-2c0-0.9-0.5-2-1.6-3.4c-0.7-0.7-1.6-1.8-2.9-2.9c-1.1-0.9-1.6-1.6-1.6-1.6c0-1.6,0.2-2.5,0.7-3.2
		c0-0.2,1.6-0.7,4.8-1.8c3.2-1.1,5.9-2,7.9-2.7c0,0.2-0.2,1.1-0.7,2.5c-2.5,0.7-6.1,2-11.1,3.9c2.3,2,4.8,5,7.7,8.8
		c1.1,1.4,2,2.3,2.7,2.7c0.5,0.2,1.4,0.5,2.3,0.5h0.9v2H851.6z" class="area" title=""></path>
	<path id="PATH_83" d="M869.3,643.7l-0.9,1.8c-1.6,0-2.9,0-3.6,0.2c-0.9,0.5-2.3,0.9-4.1,1.8c-1.8,0.9-3.2,1.6-4.1,1.8
		c-1.4,0.5-2.9,0.7-4.3,0.7h-1.6v-2.7h1.8c2,0,3.9-0.5,5.4-1.1l5.2-2.3c-0.9-0.2-2.3-0.7-4.1-1.4c-1.6-0.7-2.5-0.9-2.9-0.9
		c-0.9,0-1.8,0.5-2.7,1.1c-0.2,0.2-0.2,0.2-0.5,0.2s-0.2,0-0.2-0.2v-0.2c0.7-2.3,2-3.2,3.9-3.2c0.7,0,1.6,0.2,2.5,0.7
		c1.8,0.9,3.2,1.4,4.1,1.8c1.6,0.5,3.4,0.9,5.4,0.9c0.5,0,0.7,0,0.7,0.2C869.5,643.3,869.5,643.5,869.3,643.7z M856.8,654.6l1.6-1.6
		l1.6,1.6l-1.6,1.6L856.8,654.6z M858.9,658l1.6-1.6l1.6,1.6l-1.6,1.6L858.9,658z M860.9,654.6l1.6-1.6l1.6,1.6l-1.6,1.6
		L860.9,654.6z" class="area" title=""></path>
	<path id="PATH_84" d="M883.6,650.3h-0.9c-0.9,0-1.4-0.2-1.8-0.5c0,0.2,0,0.5,0,0.7c0,2-0.7,4.1-2,6.1c-1.1,1.8-2.3,2.5-2.9,2.5
		c-1.8,0-3.2,0-4.5-0.2c-0.5,0-0.7-0.2-0.7-0.2s0.2-0.2,0.7-0.2c1.8-0.5,3.6-1.4,5.4-2.7c1.8-1.6,2.9-3.2,2.9-4.8
		c0-0.9-0.7-2.3-2.3-3.9l1.1-2c0-0.2,0.2-0.2,0.2-0.2l0.2,0.2c0.7,0.9,1.1,1.6,1.6,1.8c0.7,0.5,1.6,0.9,2.5,0.9h0.7v2.5H883.6z" class="area" title=""></path>
	<path id="PATH_85" d="M892.4,644c0,2-0.2,3.4-0.7,4.1c-1.1,1.6-2.9,2.3-5.9,2.3h-3.2v-2.7h2.3c3.9,0,5.9-0.7,6.3-1.8
		c0.2-0.5,0-0.9-0.2-1.4c-0.9,0.2-1.8,0.2-2.9,0.2c-2,0-3.2-0.9-3.2-2.7c0-1.1,0.2-2.5,0.9-3.6c0.7-1.4,1.6-2,2.7-2
		c0.9,0,1.8,0.7,2.5,1.8C891.9,639.9,892.4,641.7,892.4,644z M888.1,631.7l-1.8,1.8l-1.8-1.8l1.8-1.8L888.1,631.7z M890.8,641.9
		c0-0.7-0.2-1.4-0.7-2c-0.5-0.7-1.1-0.9-1.8-0.9c-0.5,0-0.9,0.2-1.4,0.5c-0.5,0.2-0.5,0.7-0.5,1.1c0,0.9,0.7,1.4,2.3,1.4
		C889.2,642.1,889.9,642.1,890.8,641.9z M891.9,631.7l-1.8,1.8l-1.8-1.8l1.8-1.8L891.9,631.7z" class="area" title=""></path>
</g>
<g id="G_86" class="area" title="">
	<path id="PATH_87" d="M954,588.2h-0.9c-1.1,0-2-0.2-2.5-0.7c-0.7-0.5-1.1-1.4-1.1-2.3c-2.5,2.3-6.3,3.4-11.6,3.4
		c-5.4,0-8.2-1.6-8.2-5c0-1.1,0.5-2.3,1.4-3.4c0.2-0.2,0.2-0.2,0.5-0.2s0.2,0,0.2,0.2c0,0,0,0.2,0,0.5c-0.2,0.7-0.5,1.4-0.5,2
		c0,2.3,2.5,3.4,7.5,3.4c5.7,0,9.5-1.1,11.3-3.6c0.5-0.5,0.7-0.7,0.9-0.7s0.2,0.2,0.2,0.5c0,0.2,0,0.5-0.2,0.9
		c0,0.5-0.2,0.7-0.2,0.9c0,1.1,0.9,1.8,2.5,1.8h0.9v2.3H954z M940,575.1l-1.8,1.8l-1.8-1.8l1.8-1.8L940,575.1z M943.8,575.1
		l-1.8,1.8l-1.8-1.8l1.8-1.8L943.8,575.1z" class="area" title=""></path>
	<path id="PATH_88" d="M971.9,583.5c0,1.4-0.2,2.5-0.9,3.4c-0.7,0.9-1.8,1.6-2.9,1.6c-1.6,0-2.5-0.7-3.2-1.8
		c-0.9,1.4-1.8,1.8-3.2,1.8c-1.6,0-2.7-0.7-3.4-1.8c-0.9,1.4-2,1.8-3.6,1.8h-1.6v-2.7h1.8c1.6,0,2.7-0.9,2.9-2.7
		c0-0.5,0.2-0.7,0.5-0.7s0.2,0.2,0.5,0.7c0.2,1.8,1.1,2.7,2.9,2.7c0.9,0,1.8-0.2,2.3-0.7c0.2-0.5,0.5-0.9,0.7-1.8
		c0-0.5,0.2-0.7,0.5-0.7s0.2,0.2,0.5,0.7c0.2,1.8,1.1,2.7,2.7,2.7c1.8,0,2.5-0.5,2.5-1.1c0-0.7-0.5-1.6-1.4-2.5l1.1-2
		c0.2-0.2,0.2-0.5,0.5-0.5s0.2,0.2,0.5,0.5C971.4,581.2,971.9,582.6,971.9,583.5z M964.2,575.1l-1.6,1.6l-1.6-1.6l1.6-1.6
		L964.2,575.1z M966.2,571.7l-1.6,1.6l-1.6-1.6l1.6-1.6L966.2,571.7z M968.3,575.3l-1.6,1.6l-1.6-1.6l1.6-1.6L968.3,575.3z" class="area" title=""></path>
	<path id="PATH_89" d="M989.6,588.2h-0.9c-0.9,0-1.6-0.2-2.3-0.9c-0.5-0.5-0.9-0.9-1.4-1.8c-0.5,0.9-1.1,1.6-1.8,2
		c-0.9,0.5-2,0.7-3.9,0.7c-3.2,0-4.8-1.1-4.8-3.4c0-0.7,0.2-1.6,0.7-2.3c0.2-0.2,0.2-0.5,0.5-0.5s0.2,0.2,0.2,0.5c0,0.2,0,0.2,0,0.7
		s0,0.5,0,0.7c0,1.4,1.1,2,3.4,2c3.2,0,4.8-0.7,4.8-1.8c0-0.7-0.9-3.2-2.7-7.5l0.9-1.8c0.2-0.2,0.2-0.5,0.2-0.5s0.2,0.2,0.2,0.5
		c0.7,1.8,1.8,4.5,3.2,8.2c0.7,1.8,1.6,2.7,2.9,2.7h0.7L989.6,588.2L989.6,588.2z" class="area" title=""></path>
	<path id="PATH_90" d="M1003.6,567.4c0,0.5-0.5,1.4-0.9,2.5l-5.7,1.8c-2.5,0.9-4.3,1.6-5.2,2c1.8,1.8,2.9,3.2,3.6,3.9
		c1.1,1.6,1.8,2.9,2,4.5c0,1.1,0,2.3-0.5,3.2c-0.7,2-3.2,2.9-7,2.9h-1.1v-2.7h1.4c1.8,0,3.2,0,3.9-0.2c1.6-0.5,2.5-1.1,2.5-2.3
		c0-1.6-1.1-3.4-3.6-5.7l-0.2,0.5c-0.2-0.2-0.7-0.7-1.1-1.4c-0.7-0.7-0.9-1.4-0.9-1.4c0-0.5,0-0.9,0.2-1.8c0.2-0.9,0.5-1.4,0.7-1.6
		c0.2-0.2,1.8-0.9,4.8-1.8C998.8,568.8,1001.6,567.9,1003.6,567.4z" class="area" title=""></path>
	<path id="PATH_91" d="M1011.5,588.2h-1.6c-1.6,0-2.9-0.7-3.4-2c-0.5-0.9-0.7-2.5-0.7-4.3v-4.3c0-2-0.2-5-0.5-8.8l1.4-1.6
		c0.2-0.2,0.5-0.2,0.5,0c0.2,2,0.5,5,0.5,8.8v6.6c0,1.8,0.9,2.7,2.7,2.7h1.1L1011.5,588.2L1011.5,588.2z" class="area" title=""></path>
	<path id="PATH_92" d="M1017,583.9c0,2.9-1.6,4.5-4.5,4.5h-1.8v-2.7h1.6c2.3,0,3.4-0.5,3.4-1.1s-0.5-1.6-1.6-2.7l0.9-2.3
		c0-0.2,0.2-0.2,0.2-0.2s0.2,0.2,0.5,0.5C1016.5,581,1017,582.4,1017,583.9z M1011.5,592.8l1.6-1.6l1.6,1.6l-1.6,1.6L1011.5,592.8z
		 M1013.6,596.4l1.6-1.6l1.6,1.6l-1.6,1.6L1013.6,596.4z M1015.6,592.8l1.6-1.6l1.6,1.6l-1.6,1.6L1015.6,592.8z" class="area" title=""></path>
</g>
<g id="G_93" class="area" title="">
	<path id="PATH_94" d="M841.9,410.7c0.2,0.7,0.2,1.4,0.2,2c0,0.9-0.2,1.6-0.5,2.5c-0.7,1.6-1.8,2.9-4.1,3.9
		c-1.8,0.7-3.6,1.1-5.7,1.1s-3.6-0.5-5-1.4c-1.4-1.1-2-2.5-2-4.5c0-1.1,0.2-2,0.7-3.4c0.5-0.9,0.7-1.6,1.1-2
		c0.2-0.2,0.5-0.2,0.5-0.2c0.2,0,0.2,0,0.2,0.2c0,0,0,0.2,0,0.5c-0.7,1.4-0.9,2.7-0.9,3.9s0.5,2,1.1,2.9c0.9,1.1,2.5,1.6,4.5,1.6
		c2.3,0,4.3-0.5,5.9-1.1c1.4-0.7,2.3-1.4,2.7-2.3c0.2-0.2,0.2-0.7,0.2-0.9c0-0.7-0.2-1.4-0.5-2.3c-0.2-0.7-0.9-1.8-2-3.6l0.9-1.8
		c0.2-0.2,0.2-0.5,0.2-0.5s0.2,0,0.2,0.2C841,407,841.7,408.9,841.9,410.7z M835.3,400.7l-1.8,1.8l-1.8-1.8l1.8-1.8L835.3,400.7z" class="area" title=""></path>
	<path id="PATH_95" d="M847.3,408.2c0,0.9-0.2,1.8-0.7,2.5c-0.2,0.5-0.5,0.7-0.5,0.7s-0.2-0.2-0.2-0.9c0-2.7-0.5-9.1-1.4-19.3
		l1.8-1.8c0.2-0.2,0.2-0.2,0.2-0.2s0,0.2,0,0.5C847.3,392.6,847.3,398.7,847.3,408.2z" class="area" title=""></path>
	<path id="PATH_96" d="M861.6,410.9h-0.9c-0.9,0-1.4-0.2-1.8-0.5c0,0.2,0,0.5,0,0.7c0,2-0.7,4.1-2,6.1c-1.1,1.8-2.3,2.5-2.9,2.5
		c-1.8,0-3.2,0-4.5-0.2c-0.5,0-0.7-0.2-0.7-0.2s0.2-0.2,0.7-0.2c1.8-0.5,3.6-1.4,5.4-2.7c1.8-1.6,2.9-3.2,2.9-4.8
		c0-0.9-0.7-2.3-2.3-3.9l1.1-2c0-0.2,0.2-0.2,0.2-0.2l0.2,0.2c0.7,0.9,1.1,1.6,1.6,1.8c0.7,0.5,1.6,0.9,2.5,0.9h0.7v2.5H861.6z" class="area" title=""></path>
	<path id="PATH_97" d="M875.6,410.9h-1.1c-0.9,0-1.8,0.2-2.5,0.5c-1.1,0.5-1.8,1.1-1.8,2.3c0,1.4,0.9,2.5,2.7,3.6l-1.1,2.3
		c-2-0.7-3.9-1.8-5.2-3.2c-1.8-1.6-2.7-3.6-2.7-5.7h-3.2V408h2.9c0-1.8,0.5-3.6,1.4-5.9c0.9-2,1.6-2.9,2-2.9c0.5,0,1.1,0.9,1.8,2.9
		c0.7,1.8,0.9,2.9,0.9,3.6c0,3.2-1.6,4.8-4.8,4.8c0.2,0.9,0.7,1.8,1.4,2.7s1.6,1.6,2.5,2c0-0.2,0-0.7,0-0.9c0-1.6,0.5-2.9,1.1-4.1
		c1.1-1.6,2.5-2.5,4.5-2.5h0.9v3.2H875.6z M868.6,407.3c0-0.5-0.2-1.4-0.7-2.5c-0.5-1.4-0.9-1.8-1.4-1.8c-0.2,0-0.7,0.5-1.1,1.6
		s-0.7,2.5-0.7,3.9C867.5,408.2,868.6,408,868.6,407.3z" class="area" title=""></path>
	<path id="PATH_98" d="M881.1,406.4c0,2.9-1.6,4.5-4.5,4.5h-1.8v-2.7h1.6c2.3,0,3.4-0.5,3.4-1.1c0-0.7-0.5-1.6-1.6-2.7l0.9-2.3
		c0-0.2,0.2-0.2,0.2-0.2s0.2,0.2,0.5,0.5C880.6,403.4,881.1,405,881.1,406.4z M879,396.4l-1.8,1.8l-1.8-1.8l1.8-1.8L879,396.4z
		 M882.9,396.4l-1.8,1.8l-1.8-1.8l1.8-1.8L882.9,396.4z" class="area" title=""></path>
</g>
<g id="G_99" class="area" title="">
	<path id="PATH_100" d="M848.5,236.5c0,1.6-0.5,2.9-1.6,3.6c-0.7,0.5-2,0.9-4.1,1.1c-2.3,0.5-4.5,0.7-7,0.7c-5.9,0-9.1-1.6-9.1-5
		c0-1.1,0.5-2.3,1.4-3.4c0.2-0.2,0.2-0.5,0.5-0.5s0.2,0,0.2,0.2c0,0,0,0.2,0,0.5c-0.2,0.7-0.5,1.4-0.5,2c0,2.3,2.9,3.4,8.6,3.4
		c2.7,0,5.2-0.2,7-0.5c2.3-0.5,3.2-0.9,3.2-1.6c0-0.5-0.5-1.4-1.6-2.7l1.1-2c0.2-0.2,0.2-0.2,0.5,0C848,234,848.5,235.1,848.5,236.5
		z M837.1,228.3l-1.8,1.8l-1.8-1.8l1.8-1.8L837.1,228.3z M841,228.3l-1.8,1.8l-1.8-1.8l1.8-1.8L841,228.3z" class="area" title=""></path>
	<path id="PATH_101" d="M857.5,241.5h-1.6c-1.6,0-2.9-0.7-3.4-2c-0.5-0.9-0.7-2.5-0.7-4.3v-4.3c0-2-0.2-5-0.5-8.8l1.4-1.6
		c0.2-0.2,0.5-0.2,0.5,0c0.2,2,0.5,5,0.5,8.8v6.6c0,1.8,0.9,2.7,2.7,2.7h1.1L857.5,241.5L857.5,241.5z" class="area" title=""></path>
	<path id="PATH_102" d="M862.9,236.9c0,2.9-1.6,4.5-4.5,4.5h-1.8v-2.7h1.6c2.3,0,3.4-0.5,3.4-1.1c0-0.7-0.5-1.6-1.6-2.7l0.9-2.3
		c0-0.2,0.2-0.2,0.2-0.2s0.2,0.2,0.5,0.5C862.5,234,862.9,235.6,862.9,236.9z M862.7,226.8l-1.8,1.8l-1.8-1.8l1.8-1.8L862.7,226.8z" class="area" title=""></path>
	<path id="PATH_103" d="M868.2,238.8c0,0.9-0.2,1.8-0.7,2.5c-0.2,0.5-0.5,0.7-0.5,0.7s-0.2-0.2-0.2-0.9c0-2.7-0.5-9.1-1.4-19.3
		l1.8-1.8c0.2-0.2,0.2-0.2,0.2-0.2s0,0.2,0,0.5C868.2,223.1,868.2,229.5,868.2,238.8z" class="area" title=""></path>
	<path id="PATH_104" d="M882.4,241.5h-0.9c-0.9,0-1.4-0.2-1.8-0.5c0,0.2,0,0.5,0,0.7c0,2-0.7,4.1-2,6.1c-1.1,1.8-2.3,2.5-2.9,2.5
		c-1.8,0-3.2,0-4.5-0.2c-0.5,0-0.7-0.2-0.7-0.2s0.2-0.2,0.7-0.2c1.8-0.5,3.6-1.4,5.4-2.7c1.8-1.6,2.9-3.2,2.9-4.8
		c0-0.9-0.7-2.3-2.3-3.9l1.1-2c0-0.2,0.2-0.2,0.2-0.2l0.2,0.2c0.7,0.9,1.1,1.6,1.6,1.8c0.7,0.5,1.6,0.9,2.5,0.9h0.7v2.5H882.4z" class="area" title=""></path>
	<path id="PATH_105" d="M893.5,241.5h-1.8c-2,0-3.4-0.7-4.3-2c-0.7,1.4-2.3,2-4.8,2h-1.4v-2.7h2c2.3,0,3.4-0.9,3.6-2.5
		c0-0.7,0.2-1.1,0.5-1.1s0.5,0.5,0.5,1.1c0.2,1.6,1.4,2.5,3.4,2.5h2v2.7H893.5z M886,246.5l-1.8,1.8l-1.8-1.8l1.8-1.8L886,246.5z
		 M889.9,246.5l-1.8,1.8l-1.8-1.8l1.8-1.8L889.9,246.5z" class="area" title=""></path>
	<path id="PATH_106" d="M909.6,241.5h-1.4c-1.1,0-2.3-0.7-3.2-1.8c-0.7,1.8-1.4,2.7-2,2.7c-0.7,0-1.8-0.5-3.2-1.1
		c-1.1-0.7-2-1.4-2.5-1.8c-1.1,1.4-2.3,2-3.4,2h-1.4v-2.7h1.4c1.1,0,2-0.5,2.9-1.4c0.7-0.7,1.4-1.6,2.3-2.5c0.9-0.9,1.6-1.4,2.3-1.4
		c0.9,0,1.6,0.5,2.3,1.4c0.5,0.5,0.9,1.4,2,2.5c0.7,0.9,1.6,1.4,2.5,1.4h1.4V241.5z M903.5,239.7c0-0.7-0.2-1.4-0.7-2.3
		c-0.5-0.9-1.1-1.4-2-1.4c-0.7,0-1.6,0.7-2.5,1.8c0.2,0.2,0.9,0.7,2,1.4c1.1,0.7,2,0.9,2.7,0.9C903.5,239.9,903.5,239.9,903.5,239.7
		z" class="area" title=""></path>
	<path id="PATH_107" d="M927.5,236.7c0,1.4-0.2,2.5-0.9,3.4c-0.7,0.9-1.8,1.6-2.9,1.6c-1.6,0-2.5-0.7-3.2-1.8
		c-0.9,1.4-1.8,1.8-3.2,1.8c-1.6,0-2.7-0.7-3.4-1.8c-0.9,1.4-2,1.8-3.6,1.8h-1.6V239h1.8c1.6,0,2.7-0.9,2.9-2.7
		c0-0.5,0.2-0.7,0.5-0.7s0.2,0.2,0.5,0.7c0.2,1.8,1.1,2.7,2.9,2.7c0.9,0,1.8-0.2,2.3-0.7c0.2-0.5,0.5-0.9,0.7-1.8
		c0-0.5,0.2-0.7,0.5-0.7s0.2,0.2,0.5,0.7c0.2,1.8,1.1,2.7,2.7,2.7c1.8,0,2.5-0.5,2.5-1.1s-0.5-1.6-1.4-2.5l1.1-2
		c0.2-0.2,0.2-0.5,0.5-0.5s0.2,0.2,0.5,0.5C927.3,234.5,927.5,235.6,927.5,236.7z M919.8,228.3l-1.6,1.6l-1.6-1.6l1.6-1.6
		L919.8,228.3z M921.8,224.9l-1.6,1.6l-1.6-1.6l1.6-1.6L921.8,224.9z M923.9,228.3l-1.6,1.6l-1.6-1.6l1.6-1.6L923.9,228.3z" class="area" title=""></path>
</g>
<g id="G_108" class="area" title="">
	<path id="PATH_109" d="M1160.3,235.8h-1.1c-1.6,0-2.5-0.7-3.2-1.8c-0.5,1.4-1.6,2-2.9,2c-1.4,0-2.3-0.7-2.9-2c-0.7,1.4-1.8,2-3.2,2
		c-0.5,0-1.1,0-1.6-0.2c0,1.4-0.2,2.7-0.2,4.3c-0.7,1.6-1.8,2.9-3.9,3.9c-1.8,0.7-3.6,1.1-5.7,1.1s-3.6-0.5-5-1.4
		c-1.4-1.1-2-2.5-2-4.5c0-1.1,0.2-2,0.7-3.4c0.5-0.9,0.7-1.6,1.1-2c0.2-0.2,0.5-0.2,0.5-0.2c0.2,0,0.2,0,0.2,0.2c0,0,0,0.2,0,0.5
		c-0.7,1.4-0.9,2.7-0.9,3.9s0.5,2,1.1,2.9c0.9,1.1,2.5,1.6,4.5,1.6c2.3,0,4.3-0.5,5.9-1.1c1.4-0.7,2.3-1.4,2.5-2.3
		c0.2-0.2,0.2-0.7,0-1.6c0-0.7-0.2-1.4-0.2-1.6c-0.2-0.7-0.9-1.8-2.3-3.4l0.9-1.8c0.2-0.2,0.2-0.5,0.2-0.5s0.2,0,0.2,0.5
		c0.7,0.9,1.1,1.6,1.4,1.8c0.7,0.7,1.4,0.9,2.3,0.9c0.9,0,1.8-0.2,2.3-0.9c0.2-0.5,0.5-0.9,0.7-2c0-0.5,0.2-0.7,0.5-0.7
		c0.2,0,0.2,0.2,0.5,0.7c0.2,1.8,1.1,2.9,2.5,2.9c1.6,0,2.7-0.9,2.7-2.7c0-0.5,0.2-0.7,0.5-0.7c0.2,0,0.5,0.2,0.5,0.7
		c0.2,1.8,1.1,2.7,2.7,2.7h1.4v2.3H1160.3z" class="area" title=""></path>
	<path id="PATH_110" d="M1165.8,231.3c0,2.9-1.6,4.5-4.5,4.5h-1.8v-2.7h1.6c2.3,0,3.4-0.5,3.4-1.1c0-0.7-0.5-1.6-1.6-2.7l0.9-2.3
		c0-0.2,0.2-0.2,0.2-0.2s0.2,0.2,0.5,0.5C1165.3,228.3,1165.8,229.7,1165.8,231.3z M1164,240.8l-1.8,1.8l-1.8-1.8l1.8-1.8
		L1164,240.8z M1167.8,240.8l-1.8,1.8l-1.8-1.8l1.8-1.8L1167.8,240.8z" class="area" title=""></path>
	<path id="PATH_111" d="M1181.6,231.1c0,3.2-2,4.8-6.3,4.8c-1.6,0-2.7-0.2-3.4-0.7c-0.9-0.5-1.4-1.6-1.4-2.9c0-0.7,0.2-1.4,0.5-2
		c0.2-0.2,0.2-0.5,0.5-0.5c0.2,0,0.2,0.2,0.2,0.7c0,0.2,0,0.5,0,0.7c0,0.9,0.5,1.6,1.4,1.8c0.5,0.2,1.4,0.2,2.5,0.2
		c3.4,0,5-0.5,5-1.6c0-1.6-2-3.9-5.9-6.6l0.7-2.3c0-0.2,0.2-0.2,0.2-0.2s0.2,0,0.5,0.2C1179.8,225.6,1181.6,228.3,1181.6,231.1z" class="area" title=""></path>
	<path id="PATH_112" d="M1195.7,235.8h-0.9c-0.9,0-1.4-0.2-1.8-0.5c0,0.2,0,0.5,0,0.7c0,2-0.7,4.1-2,6.1c-1.1,1.8-2.3,2.5-2.9,2.5
		c-1.8,0-3.2,0-4.5-0.2c-0.5,0-0.7-0.2-0.7-0.2s0.2-0.2,0.7-0.2c1.8-0.5,3.6-1.4,5.4-2.7c1.8-1.6,2.9-3.2,2.9-4.8
		c0-0.9-0.7-2.3-2.3-3.9l1.1-2c0-0.2,0.2-0.2,0.2-0.2l0.2,0.2c0.7,0.9,1.1,1.6,1.6,1.8c0.7,0.5,1.6,0.9,2.5,0.9h0.7v2.5H1195.7z" class="area" title=""></path>
	<path id="PATH_113" d="M1201.1,231.3c0,2.9-1.6,4.5-4.5,4.5h-1.8v-2.7h1.6c2.3,0,3.4-0.5,3.4-1.1c0-0.7-0.5-1.6-1.6-2.7l0.9-2.3
		c0-0.2,0.2-0.2,0.2-0.2s0.2,0.2,0.5,0.5C1200.7,228.3,1201.1,229.7,1201.1,231.3z M1195.9,240.1l1.6-1.6l1.6,1.6l-1.6,1.6
		L1195.9,240.1z M1197.9,243.7l1.6-1.6l1.6,1.6l-1.6,1.6L1197.9,243.7z M1199.7,240.1l1.6-1.6l1.6,1.6l-1.6,1.6L1199.7,240.1z" class="area" title=""></path>
</g>
<g id="G_114" class="area" title="">
	<path id="PATH_115" d="M1207.4,440.3h-0.9c-0.9,0-1.6-0.2-2.3-0.9c-0.5-0.5-0.9-0.9-1.4-1.8c-0.5,0.9-1.1,1.6-1.8,2
		c-0.9,0.5-2,0.7-3.9,0.7c-3.2,0-4.8-1.1-4.8-3.4c0-0.7,0.2-1.6,0.7-2.3c0.2-0.2,0.2-0.5,0.5-0.5c0.2,0,0.2,0.2,0.2,0.5s0,0.2,0,0.7
		c0,0.2,0,0.5,0,0.7c0,1.4,1.1,2,3.4,2c3.2,0,4.8-0.7,4.8-1.8c0-0.7-0.9-3.2-2.7-7.5l0.9-1.8c0.2-0.2,0.2-0.5,0.2-0.5
		s0.2,0.2,0.2,0.5c0.7,1.8,1.8,4.5,3.2,8.2c0.7,1.8,1.6,2.7,2.9,2.7h0.7L1207.4,440.3L1207.4,440.3z" class="area" title=""></path>
	<path id="PATH_116" d="M1212.9,435.8c0,2.9-1.6,4.5-4.5,4.5h-1.8v-2.7h1.6c2.3,0,3.4-0.5,3.4-1.1c0-0.7-0.5-1.6-1.6-2.7l0.9-2.3
		c0-0.2,0.2-0.2,0.2-0.2s0.2,0.2,0.5,0.5C1212.4,432.9,1212.9,434.5,1212.9,435.8z M1212.7,425.6l-1.8,1.8l-1.8-1.8l1.8-1.8
		L1212.7,425.6z" class="area" title=""></path>
	<path id="PATH_117" d="M1224.4,439.4c0,3.4-1.1,6.3-3.4,8.6c-0.7,0.7-1.1,1.1-1.4,1.1c-1.4,0-2.7-0.2-4.3-0.5
		c-0.7,0-0.9-0.2-0.9-0.2s0.2-0.2,0.9-0.5c1.8-0.5,3.6-1.6,5.2-2.9c0.7-0.7,1.4-1.1,1.8-2c0.7-0.9,1.1-1.8,1.1-2.5v-0.7h-2.9
		c-2,0-3.2-0.9-3.2-2.5c0-1.1,0.2-2.3,0.9-3.6c0.7-1.4,1.6-2.3,2.5-2.3c1.4,0,2.5,0.9,3.2,2.9C1224.2,436,1224.4,437.6,1224.4,439.4
		z M1222.8,437.6c0-0.7-0.2-1.4-0.7-2c-0.5-0.7-1.1-1.1-1.8-1.1c-0.5,0-0.9,0.2-1.1,0.5s-0.5,0.7-0.5,1.1c0,1.1,0.7,1.6,2.3,1.6
		C1221.3,437.9,1221.9,437.6,1222.8,437.6z" class="area" title=""></path>
	<path id="PATH_118" d="M1233.5,440.3h-1.6c-1.6,0-2.9-0.7-3.4-2c-0.5-0.9-0.7-2.5-0.7-4.3v-4.3c0-2-0.2-5-0.5-8.8l1.4-1.6
		c0.2-0.2,0.5-0.2,0.5,0c0.2,2,0.5,5,0.5,8.8v6.6c0,1.8,0.9,2.7,2.7,2.7h1.1V440.3z" class="area" title=""></path>
	<path id="PATH_119" d="M1244.8,435.8c0,1.1,0,2-0.5,2.9c-0.5,1.1-1.1,1.8-1.8,1.8c-1.1,0-2.9-0.7-5.2-2.3c-0.7,0.9-1.1,1.4-1.4,1.6
		c-0.7,0.5-1.4,0.7-2.3,0.7h-1.1v-2.7h1.6c0.9,0,1.8-0.5,2.7-1.6c0.5-0.5,1.1-1.6,2-2.9c0.7-1.1,1.6-1.6,2.3-1.6
		c1.1,0,2,0.5,2.7,1.6C1244.4,434.2,1244.6,434.9,1244.8,435.8z M1243.5,437.4c0-0.7-0.2-1.4-0.7-2.3s-1.1-1.4-1.8-1.4
		c-0.7,0-1.4,0.7-2.3,2c0.5,0.5,1.1,0.9,2,1.4c0.9,0.5,1.8,0.7,2.3,0.7C1243.2,438.1,1243.5,437.9,1243.5,437.4z" class="area" title=""></path>
	<path id="PATH_120" d="M1258.6,435.6c0,3.2-2,4.8-6.3,4.8c-1.6,0-2.7-0.2-3.4-0.7c-0.9-0.5-1.4-1.6-1.4-2.9c0-0.7,0.2-1.4,0.5-2
		c0.2-0.2,0.2-0.5,0.5-0.5c0.2,0,0.2,0.2,0.2,0.7c0,0.2,0,0.5,0,0.7c0,0.9,0.5,1.6,1.4,1.8c0.5,0.2,1.4,0.2,2.5,0.2
		c3.4,0,5-0.5,5-1.6c0-1.6-2-3.9-5.9-6.6l0.7-2.3c0-0.2,0.2-0.2,0.2-0.2s0.2,0,0.5,0.2C1256.6,430.1,1258.6,433.1,1258.6,435.6z" class="area" title=""></path>
</g>
<g id="G_121" class="area" title="">
	<path id="PATH_122" d="M1526.1,352.9c0,1.6-0.5,2.7-1.4,3.6c-0.9,0.9-2.3,1.1-3.6,1.1c-0.9,0-1.8-0.2-2.5-0.9
		c-0.7-0.7-1.1-1.4-1.1-2.3c0-1.1,0.5-2.3,1.4-3.9c0.7-1.4,1.6-2.5,2.5-3.4C1524.5,348.8,1526.1,350.6,1526.1,352.9z M1524.8,353.8
		c0-0.7-0.5-1.4-1.6-2.3c-0.9-0.9-1.6-1.4-2.5-1.6c-1.1,1.6-1.8,2.7-1.8,3.6c0,0.5,0.2,0.9,0.9,1.4c0.5,0.2,0.9,0.5,1.6,0.5
		c0.9,0,1.8-0.2,2.5-0.5C1524.5,354.3,1524.8,354,1524.8,353.8z" class="area" title=""></path>
	<path id="PATH_123" d="M1540.2,357.7h-2.5c-0.2,3.2-1.4,5.7-3.6,7.9c-0.7,0.7-1.1,1.1-1.4,1.1c-1.1,0-2.7-0.2-4.3-0.5
		c-0.5,0-0.9-0.2-0.9-0.2s0.2-0.2,0.9-0.5c1.8-0.5,3.6-1.6,5.2-2.7c0.7-0.7,1.4-1.1,1.8-2c0.7-0.9,1.1-1.8,1.1-2.5v-0.7h-2.9
		c-2.3,0-3.2-0.9-3.2-2.7c0-1.1,0.2-2.3,0.9-3.6c0.7-1.4,1.6-2.3,2.5-2.3c1.1,0,2,0.7,2.7,2.3c0.5,1.1,0.9,2.3,0.9,3.6h2.5v2.7
		H1540.2z M1536.1,355c0-0.7-0.2-1.4-0.7-2c-0.5-0.9-1.1-1.1-1.8-1.1c-0.5,0-0.9,0.2-1.1,0.5c-0.2,0.2-0.5,0.7-0.5,1.4
		c0,1.1,0.9,1.6,2.7,1.6C1535,355.2,1535.4,355,1536.1,355z" class="area" title=""></path>
	<path id="PATH_124" d="M1554.2,336.6c0,0.5-0.5,1.4-0.9,2.5l-5.7,1.8c-2.5,0.9-4.3,1.6-5.2,2c1.8,1.8,2.9,3.2,3.6,3.9
		c1.1,1.6,1.8,2.9,2,4.5c0,1.1,0,2.3-0.5,3.2c-0.7,2-3.2,2.9-7,2.9h-1.1v-2.7h1.4c1.8,0,3.2,0,3.9-0.2c1.6-0.5,2.5-1.1,2.5-2.3
		c0-1.6-1.1-3.4-3.6-5.7l-0.2,0.5c-0.2-0.2-0.7-0.7-1.1-1.4c-0.7-0.7-0.9-1.4-0.9-1.4c0-0.5,0-0.9,0.2-1.8c0.2-0.9,0.5-1.4,0.7-1.6
		c0.2-0.2,1.8-0.9,4.8-1.8C1549.5,338.2,1552.2,337.3,1554.2,336.6z" class="area" title=""></path>
	<path id="PATH_125" d="M1564.6,357.9c0,2.3-0.7,4.3-2,6.3c-1.1,1.6-2.3,2.5-2.9,2.5c-1.8,0-3.2,0-4.5-0.2c-0.5,0-0.7-0.2-0.7-0.2
		s0.2-0.2,0.7-0.2c1.8-0.5,3.6-1.4,5.4-2.7c1.8-1.6,2.9-3.2,2.9-4.8c0-0.9-0.7-2.3-2.3-3.9l1.1-2c0-0.2,0.2-0.2,0.2-0.2l0.2,0.2
		c0.5,0.7,1.1,1.6,1.4,2.7C1564.4,356.1,1564.6,357,1564.6,357.9z M1563,345.7l-1.8,1.8l-1.8-1.8l1.8-1.8L1563,345.7z" class="area" title=""></path>
	<path id="PATH_126" d="M1576.4,356.8c0,3.4-1.1,6.3-3.4,8.6c-0.7,0.7-1.1,1.1-1.4,1.1c-1.4,0-2.7-0.2-4.3-0.5
		c-0.7,0-0.9-0.2-0.9-0.2s0.2-0.2,0.9-0.5c1.8-0.5,3.6-1.6,5.2-2.9c0.7-0.7,1.4-1.1,1.8-2c0.7-0.9,1.1-1.8,1.1-2.5v-0.7h-2.9
		c-2,0-3.2-0.9-3.2-2.5c0-1.1,0.2-2.3,0.9-3.6c0.7-1.4,1.6-2.3,2.5-2.3c1.4,0,2.5,0.9,3.2,2.9C1576.2,353.4,1576.4,355,1576.4,356.8
		z M1574.8,355c0-0.7-0.2-1.4-0.7-2s-1.1-1.1-1.8-1.1c-0.5,0-0.9,0.2-1.1,0.5c-0.2,0.2-0.5,0.7-0.5,1.1c0,1.1,0.7,1.6,2.3,1.6
		C1573.2,355.2,1573.9,355,1574.8,355z" class="area" title=""></path>
	<path id="PATH_127" d="M1590.4,357.7h-0.9c-0.9,0-1.4-0.2-1.8-0.5c0,0.2,0,0.5,0,0.7c0,2-0.7,4.1-2,6.1c-1.1,1.8-2.3,2.5-2.9,2.5
		c-1.8,0-3.2,0-4.5-0.2c-0.5,0-0.7-0.2-0.7-0.2s0.2-0.2,0.7-0.2c1.8-0.5,3.6-1.4,5.4-2.7c1.8-1.6,2.9-3.2,2.9-4.8
		c0-0.9-0.7-2.3-2.3-3.9l1.1-2c0-0.2,0.2-0.2,0.2-0.2l0.2,0.2c0.7,0.9,1.1,1.6,1.6,1.8c0.7,0.5,1.6,0.9,2.5,0.9h0.7v2.5H1590.4z" class="area" title=""></path>
	<path id="PATH_128" d="M1601.5,357.7h-1.8c-2,0-3.4-0.7-4.3-2c-0.7,1.4-2.3,2-4.8,2h-1.4V355h2c2.3,0,3.4-0.9,3.6-2.5
		c0-0.7,0.2-1.1,0.5-1.1s0.5,0.5,0.5,1.1c0.2,1.6,1.4,2.5,3.4,2.5h2v2.7H1601.5z M1594.1,362.7l-1.8,1.8l-1.8-1.8l1.8-1.8
		L1594.1,362.7z M1598.2,362.7l-1.8,1.8l-1.8-1.8l1.8-1.8L1598.2,362.7z" class="area" title=""></path>
	<path id="PATH_129" d="M1610.4,351.3v0.9c0,1.6-0.2,2.5-0.7,3.2c-1.1,1.6-2.9,2.3-5.9,2.3h-3.2V355h2.3c3.9,0,5.9-0.7,6.3-1.8
		c0-0.2,0-0.2,0-0.5c0-0.5,0-0.7-0.2-0.9c-0.9,0.2-2,0.2-2.9,0.2c-2,0-3.2-0.9-3.2-2.7c0-1.1,0.2-2.5,0.9-3.6c0.7-1.4,1.6-2,2.7-2
		c0.9,0,1.8,0.7,2.5,1.8C1609.9,347,1610.4,349.1,1610.4,351.3z M1607.9,338.9l-1.8,1.8l-1.8-1.8l1.8-1.8L1607.9,338.9z
		 M1608.8,349.3c0-0.7-0.2-1.4-0.7-2s-1.1-0.9-1.8-0.9c-0.5,0-0.9,0.2-1.4,0.5s-0.5,0.7-0.5,1.1c0,0.9,0.7,1.4,2.3,1.4
		C1607.2,349.5,1607.9,349.5,1608.8,349.3z" class="area" title=""></path>
</g>
<path class="st7 area" d="M1186.8,338.3l-16.3,35.9l-25.8,35.1h-36.5l-8.7-4.1l14.3-31.4c-4.3-10.5-8.6-21-12.9-31.5
	c-0.4-10.5-0.9-21-1.3-31.5l2.4-14.7l16.8,6.6l33.1,10.8l15.1,12.5L1186.8,338.3z" id="_x32_00" title=""></path>
<g id="G_131" class="area" title="">
	<path d="M1119,347.2c0.5,1.1,0.8,1.8,1.2,2.8c0.4,1.3,1.2,1.5,2.6,1.5h0.2v1.9h-0.3c-0.9,0-1.5-0.2-2.1-0.7h0
		c-0.1,1.5-0.5,2.9-0.9,3.4c-1,1.3-3.2,2.4-5,2.4c-2.8,0-4.5-1.8-4.5-4.4c0-1.9,0.6-3.1,1.3-4.3l0.6,0.3c-0.5,0.9-0.8,2.1-0.8,2.7
		c0,1.2,0.4,2,1,2.5c0.6,0.5,1.7,1,2.8,1c1.2,0,2.6-0.6,3.5-1.3c0.6-0.5,1.1-0.9,1.1-1.5c0-0.6-0.1-1.2-0.5-2.4
		c-0.5-1.1-0.8-1.8-1.2-2.4c0.3-0.5,0.6-1.1,1-1.6H1119z M1115.5,342.8c0.6,0.4,1.2,1,1.8,1.6c-0.3,0.5-0.7,1-1.2,1.4
		c-0.6-0.5-1.1-1-1.7-1.5C1114.8,343.7,1115.2,343.2,1115.5,342.8z" id="PATH_132" class="area" title=""></path>
	<path d="M1123.3,351.5c0.7,0,1.7-0.1,2.6-0.4c-0.2-0.6-0.3-1.3-0.3-2c0-0.9,0.3-1.8,0.9-2.7c0.4-0.6,0.9-1,1.4-1.4
		c0-0.5,0.1-1,0.3-1.5h0.1c1.4,1.4,3.5,2.6,5.2,3.9c1.3,1,1.8,1.8,1.8,3.1c0,1.5-0.9,2.7-2.9,2.7c-1.2,0-3.1-0.4-5-1
		c-1.6,0.7-2.9,1-4,1h-0.3c-0.8,0-1-0.6-1-1c0-0.4,0.2-0.9,1-0.9H1123.3z M1130.3,349.1c0-1.2-0.9-2.3-1.5-2.3
		c-1.1,0-2.4,1.6-2.4,2.3c0,0.5,0.5,1.2,1.6,1.7C1128.7,350.5,1130.3,349.9,1130.3,349.1z M1132.8,351.8c0.8,0,1.6-0.3,1.6-0.7
		c0-1-1.3-2-3.1-3.2c-0.1,1.2-0.5,2.3-1.1,3.4C1130.9,351.6,1131.8,351.8,1132.8,351.8z" id="PATH_133" class="area" title=""></path>
	<path d="M1138.4,349.4c0,1.3,0.6,2.3,2.4,2.3c1.1,0,2.1-0.4,3.2-1c0.2-0.1,0.3-0.2,0.3-0.4c0-0.8-0.5-1.8-1.4-2.8
		c-0.8-0.9-1.9-1.7-3-2.2c-0.4-0.2-0.5-0.4-0.5-0.5c0-0.4,0.4-1.1,0.7-1.7l0.1,0c1.2,0.7,2.5,1.8,3.5,3c0.9,1.1,1.5,2.2,1.5,3.5
		c0,0.9-0.2,1.8-0.6,2.6c-1.3,0.8-2.7,1.4-4.1,1.4c-1.7,0-2.8-0.9-2.8-3.1c0-0.2,0-0.6,0.1-1.1H1138.4z" id="PATH_134" class="area" title=""></path>
	<path d="M1152.6,351.9c-1.7,0-3.2-0.8-3.2-2.8c0-1,0.4-1.8,0.9-2.5c0.7-0.7,1.4-1.2,2.1-1.2c0.8,0,1.6,0.6,2.2,1.7
		c0.6,1,0.9,2.4,0.9,4c0,1.4-0.3,2.7-1.1,3.9c-1.3,2-2.5,2.8-3.8,2.8c-1.3,0-2.7-0.4-4.2-1.4l0.2-0.5c0.7,0.4,1.4,0.5,2.1,0.5
		c1.5,0,3-0.7,4.3-2.2c0.7-0.7,1.3-1.6,1.4-2.4C1154,351.8,1153.3,351.9,1152.6,351.9z M1152,347.2c-0.7,0-1.6,0.8-1.6,1.3
		c0,0.9,1.3,1.6,2.5,1.6c0.6,0,1.1-0.1,1.7-0.2C1154.1,348.4,1153.3,347.2,1152,347.2z" id="PATH_135" class="area" title=""></path>
	<path d="M1163,345.9l1,2c0.4,0.7,0.7,1.5,0.7,2.8v1.6c0,1.3-0.7,2.7-1.8,4.1c-0.9,0.9-1.7,1.3-2.4,1.3c-1.1,0-2.3-0.4-3.8-1.1
		l0.2-0.5c0.5,0.1,1,0.3,1.6,0.3c2.1,0,4.2-1.8,5.1-4c0.1-0.2,0.2-0.5,0.2-0.6c0-0.2-0.1-0.5-0.2-0.8c-0.5-1.2-1.1-2.2-1.8-3.2
		C1162.2,347,1162.6,346.4,1163,345.9L1163,345.9z" id="PATH_136" class="area" title=""></path>
</g>
<path class="st8 area" d="M1049.3,398.2l26.6,3.6l23.6,3.4c-2.3,5.7-4.6,11.5-6.9,17.2c1.1,10.2,2.2,20.4,3.3,30.6
	c3.4,7.5,6.9,15,10.3,22.5c-4.9,7.7-9.7,15.3-14.6,23l-11.5,18.3c-0.8,10-1.7,20-2.5,30c-4.2-2.7-8.4-5.3-12.7-8l-20.2-18.4
	l-18.5-12.9l-12.5-21.6l16.5-45.7C1036.6,426.3,1043,412.3,1049.3,398.2z" id="_x33_25" title=""></path>
<g id="G_138" class="area" title="">
	<path d="M1035,467c0.6,1.1,0.9,1.9,1.3,3c0.5,1.4,1.3,1.6,2.8,1.6h0.2v2h-0.3c-0.9,0-1.6-0.2-2.2-0.7h0c-0.1,1.6-0.5,3-1,3.6
		c-1.1,1.4-3.5,2.5-5.3,2.5c-2.9,0-4.8-2-4.8-4.7c0-2,0.6-3.4,1.3-4.5l0.6,0.3c-0.5,1-0.9,2.2-0.9,2.9c0,1.3,0.4,2.2,1,2.7
		c0.6,0.6,1.8,1,3,1c1.2,0,2.8-0.6,3.8-1.4c0.7-0.5,1.1-1,1.1-1.6c0-0.6-0.1-1.2-0.6-2.6c-0.5-1.2-0.9-2-1.2-2.5
		c0.3-0.6,0.7-1.1,1.1-1.7H1035z M1031.2,462.3c0.6,0.5,1.3,1,1.9,1.7c-0.3,0.6-0.8,1.1-1.3,1.5c-0.6-0.6-1.2-1.1-1.8-1.6
		C1030.4,463.3,1030.8,462.8,1031.2,462.3z" id="PATH_139" class="area" title=""></path>
	<path d="M1041,471.6c0.2-1.1,0.5-2.2,0.8-3.3c0.4-1.5,1-2.8,1.8-4l0.1,0c0.1,0.3,0.4,0.6,0.6,0.9c1.2,1.6,2,3.1,2,4.4
		c0,0.7-0.1,1.4-0.3,2.1h3v2h-0.4c-0.3,0-0.9,0-1.3-0.2l-0.1,0c0.4,0.7,0.6,1.5,0.6,2.1c0,0.7-0.2,1.4-0.5,1.9
		c-0.5,0.8-1.4,1.5-2.3,1.5c-0.7,0-1.5-0.2-2.2-0.6c-1.3-0.8-2.1-2.4-2.1-4v-0.8c-0.4,0-0.8,0.1-1.2,0.1h-0.3c-0.9,0-1.1-0.6-1.1-1
		c0-0.4,0.2-1,1.1-1H1041z M1042.7,475.8c0.8,1,2,1.6,3,1.6c0.6,0,0.9-0.3,0.9-0.8s-0.1-1.1-0.6-1.9c-0.5-0.7-1.2-1.2-2.5-1.2
		c-0.6,0-1.2,0-1.8,0.1C1041.8,474.3,1042.2,475.2,1042.7,475.8z M1044.3,471.4c0.8-0.2,1-0.5,1-0.8c0-1-0.9-2.4-1.9-3.8h-0.1
		c-0.5,1.5-1,3.1-1.5,4.8C1042.8,471.6,1043.6,471.6,1044.3,471.4z" id="PATH_140" class="area" title=""></path>
	<path d="M1049.5,471.6c1.2,0,2.1-0.8,2.6-2.8c0.2-0.6,0.6-1.3,1.2-1.9c0.6-0.5,1.2-0.9,2-0.9c1.9,0,3,2.6,3.3,5.4
		c-0.3,1.4-0.9,2-1.7,2c-1.5,0-3.1-0.7-4.6-1.8h-0.1c-0.4,1.4-1.3,2-2.7,2h-0.3c-0.9,0-1.1-0.6-1.1-1c0-0.4,0.2-1,1.1-1H1049.5z
		 M1054.9,471c0.6,0.2,1.2,0.5,1.9,0.5c0.2,0,0.4,0,0.5-0.2c-0.5-2.4-1.5-3.4-2.5-3.4c-0.9,0-1.6,0.5-2.1,1.5
		C1053.2,470.1,1054,470.6,1054.9,471z" id="PATH_141" class="area" title=""></path>
	<path d="M1070.4,471.6v2h-1.3c-0.1,1-0.5,2.2-1.2,3.2c-1.2,1.8-2.9,2.7-3.8,2.7c-1.4,0-3-0.7-4.5-1.6l0.3-0.5
		c0.6,0.3,1.4,0.6,2.3,0.6c1.6,0,3-0.8,4.3-2.2c0.8-0.8,1.3-1.4,1.5-2.2h-0.8c-3.2,0-4.8-1-4.8-3.2c0-1.1,0.3-1.9,0.8-2.5
		c0.6-0.9,1.4-1.5,2.4-1.5c1.4,0,2.9,2,3.4,5.2H1070.4z M1066.9,469.4c-0.5-0.6-1.1-0.9-1.7-0.9c-0.9,0-1.8,0.8-1.8,1.4
		c0,0.8,0.7,1.3,1.7,1.5c0.9,0.2,1.8,0.2,2.8,0.2C1067.8,470.8,1067.4,469.9,1066.9,469.4z" id="PATH_142" class="area" title=""></path>
	<path d="M1070.7,471.6c1.3,0,2.4,0,3.1-0.3c0.5-0.2,0.9-0.4,0.9-0.7c0-0.7-0.8-2.3-1.6-3.9c0.4-0.7,0.8-1.3,1.2-1.8h0.1
		c0.7,1.3,1.6,3.2,1.6,4.8c0,1.2-0.5,2.1-1.1,2.9c-0.7,0.7-1.8,0.9-4.2,0.9h-0.2c-0.9,0-1.1-0.6-1.1-1c0-0.4,0.2-1,1.1-1H1070.7z
		 M1073.7,476.6c0.6,0.5,1.3,1,1.9,1.7c-0.3,0.6-0.8,1.1-1.3,1.5c-0.6-0.6-1.2-1.1-1.8-1.6C1072.8,477.6,1073.2,477.1,1073.7,476.6z
		" id="PATH_143" class="area" title=""></path>
</g>
<path class="st7 area" d="M718.4,477l-16.3,19c-10,3.8-20.1,7.5-30.1,11.3c-1.8,3.2-3.6,6.4-5.4,9.5c-0.5,4.1-0.9,8.2-1.4,12.3
	c2.8,3.1,5.7,6.1,8.5,9.2c6.2-0.6,12.3-1.3,18.5-1.9l16.5-7.1l7.7-8.5l4.7,7.8c3.4,3.5,6.8,7,10.1,10.5c4.8-3.4,9.5-6.8,14.3-10.2
	c1.9-7.4,3.9-14.8,5.8-22.1c1.6-4,3.2-7.9,4.8-11.9c-6.4-4.5-12.7-9.1-19.1-13.6L718.4,477z" id="_x31_88" title=""></path>
<g id="G_145" class="area" title="">
	<path d="M687,510.9c-1.2,0-2-0.4-2-1.3c0-0.3,0.1-0.7,0.4-1.3c0.5-1,1.7-2,3.6-3.1l-0.1-0.8c0.3-0.3,0.6-0.7,0.9-0.9h0.1
		c0,1.7,0,3.5,0.1,5.2c0,0.8,0.1,1.3,0.4,1.6c0.3,0.2,0.7,0.3,1.2,0.3h0.3v1.4h-0.2c-1.1,0-1.9-0.3-2.3-1.6
		C688.6,510.7,687.9,510.9,687,510.9z M689,506.4c-2,1-3,1.9-3,2.5c0,0.4,0.7,0.6,1.4,0.6c0.5,0,1-0.1,1.7-0.3L689,506.4z" id="PATH_146" class="area" title=""></path>
	<path d="M700.4,512h-0.2c-1.4,0-2.1-0.8-2.9-1.8c-0.4-0.5-0.7-0.9-1-1.2h0c0,1.8-1,3.1-4.2,3.1h-0.3c-0.6,0-0.8-0.4-0.8-0.8
		c0-0.3,0.2-0.7,0.8-0.7h0.4c0.9,0,2-0.2,2.7-0.7c0.2-0.1,0.6-0.4,0.6-0.6c0-0.2-0.1-0.5-0.2-0.8c-0.5-1-1.5-1.8-2.7-3
		c-0.3-0.3-0.6-0.6-0.8-0.8c0-0.2-0.1-0.3-0.1-0.5c0-0.3,0.1-0.6,0.3-1c0.1-0.2,0.3-0.3,0.4-0.4c1.2-0.8,3.8-1.6,6.8-2.6l0,0
		c-0.2,0.5-0.5,0.9-0.8,1.3c-0.7,0.2-1.6,0.5-2.6,0.8c-1.3,0.5-2.7,1-3.4,1.4v0c0.6,0.3,1.3,0.6,1.8,0.8l-0.3,0.6
		c1.2,1.1,2.5,2.3,4,4c0.6,0.7,1.3,1.1,2.2,1.1h0.2V512z M692.3,502c0.1-0.2,0.1-0.5,0.3-0.7c1.6-0.8,3.7-1.5,6.2-2.2l0,0l-0.4,0.7
		C695.7,500.5,693.9,501.3,692.3,502L692.3,502z" id="PATH_147" class="area" title=""></path>
	<path d="M700.6,510.5c1,0,1.7,0,2.2-0.2c0.4-0.1,0.6-0.3,0.6-0.5c0-0.5-0.5-1.6-1.1-2.8c0.3-0.5,0.6-0.9,0.8-1.3h0.1
		c0.5,0.9,1.1,2.3,1.1,3.4c0,0.8-0.3,1.5-0.8,2.1c-0.5,0.5-1.3,0.7-3,0.7h-0.1c-0.6,0-0.8-0.4-0.8-0.8c0-0.3,0.2-0.7,0.8-0.7H700.6z
		 M702.2,502.2c0.5,0.3,0.9,0.7,1.3,1.2c-0.2,0.4-0.6,0.8-0.9,1.1c-0.4-0.4-0.9-0.8-1.3-1.2C701.6,502.9,701.9,502.5,702.2,502.2z" id="PATH_148" class="area" title=""></path>
	<path d="M706.8,508.9c0,1,0.4,1.7,1.8,1.7c0.9,0,1.6-0.3,2.4-0.7c0.1-0.1,0.2-0.2,0.2-0.3c0-0.6-0.4-1.4-1.1-2.1
		c-0.6-0.7-1.5-1.3-2.3-1.7c-0.3-0.1-0.4-0.3-0.4-0.4c0-0.3,0.3-0.9,0.6-1.3l0.1,0c0.9,0.6,1.9,1.4,2.7,2.3c0.7,0.9,1.1,1.7,1.1,2.7
		c0,0.7-0.2,1.4-0.5,2c-1,0.6-2.1,1-3.1,1c-1.3,0-2.2-0.7-2.2-2.4c0-0.2,0-0.5,0.1-0.8H706.8z" id="PATH_149" class="area" title=""></path>
	<path d="M717.8,506.2l0.8,1.5c0.3,0.6,0.6,1.2,0.6,2.1v1.2c0,1-0.5,2.1-1.4,3.1c-0.7,0.7-1.3,1-1.9,1c-0.8,0-1.8-0.3-2.9-0.9
		l0.1-0.4c0.3,0.1,0.8,0.2,1.2,0.2c1.6,0,3.2-1.4,3.9-3c0.1-0.2,0.1-0.4,0.1-0.5c0-0.2-0.1-0.4-0.2-0.6c-0.4-0.9-0.9-1.7-1.3-2.5
		C717.2,507.1,717.5,506.6,717.8,506.2L717.8,506.2z" id="PATH_150" class="area" title=""></path>
	<path d="M724.1,512H724c-0.9,0-1.5-0.2-1.9-0.6c-0.7-0.7-0.7-1.5-0.7-3.1c0-2.1-0.1-4.4-0.3-6.7c0.4-0.4,0.7-0.8,1.1-1l0.1,0
		c0.2,2.5,0.2,5.4,0.2,8.1v0.6c0,0.7,0.4,1,0.8,1.2c0.3,0.1,0.6,0.1,0.7,0.1h0.2V512z" id="PATH_151" class="area" title=""></path>
	<path d="M725.4,510.5c0.2-0.8,0.4-1.6,0.6-2.4c0.3-1.1,0.7-2,1.3-2.9l0.1,0c0.1,0.2,0.3,0.4,0.4,0.7c0.8,1.2,1.5,2.2,1.5,3.2
		c0,0.5-0.1,1-0.2,1.5h2.2v1.4h-0.3c-0.2,0-0.7,0-0.9-0.1l-0.1,0c0.3,0.5,0.5,1.1,0.5,1.5c0,0.5-0.1,1-0.4,1.3
		c-0.3,0.6-1,1.1-1.7,1.1c-0.5,0-1.1-0.1-1.6-0.4c-0.9-0.6-1.5-1.8-1.5-2.9v-0.6c-0.3,0-0.6,0.1-0.9,0.1h-0.2
		c-0.6,0-0.8-0.4-0.8-0.8c0-0.3,0.2-0.7,0.8-0.7H725.4z M726.6,513.5c0.6,0.7,1.4,1.1,2.1,1.1c0.4,0,0.7-0.2,0.7-0.6
		s-0.1-0.8-0.4-1.3c-0.3-0.5-0.9-0.9-1.8-0.9c-0.4,0-0.8,0-1.3,0.1C725.9,512.5,726.2,513.1,726.6,513.5z M727.8,510.4
		c0.5-0.1,0.7-0.4,0.7-0.6c0-0.7-0.7-1.7-1.4-2.7h-0.1c-0.4,1.1-0.7,2.3-1.1,3.4C726.7,510.5,727.3,510.5,727.8,510.4z" id="PATH_152" class="area" title=""></path>
	<path d="M731.9,510.5c1.8,0,3.7-0.6,6-2l0,0c-1.3-0.5-2.5-0.8-3.5-0.8c-0.6,0-1.1,0.2-1.4,0.6l0.1,0.6l-0.3,1h-0.1l-0.6-1.5
		c0.1-1.2,1.1-2,2.4-2c0.8,0,1.9,0.3,3.7,1c0.5,0.2,1.2,0.3,1.9,0.4l0.9,0l0,0l-0.6,1.2c-0.9,0-1.6,0.2-1.9,0.4l-1.9,1.2
		c-1.5,1-3.1,1.5-4.9,1.5h-0.6c-0.6,0-0.8-0.4-0.8-0.8c0-0.3,0.2-0.7,0.8-0.7H731.9z M734.9,515.4c-0.5-0.4-0.9-0.8-1.3-1.2
		c0.3-0.4,0.6-0.8,0.9-1.1c0.5,0.4,0.8,0.7,1.3,1.2C735.4,514.8,735.2,515.1,734.9,515.4z M736.4,517.6c-0.5-0.4-0.9-0.8-1.3-1.2
		c0.3-0.4,0.6-0.8,0.9-1.1c0.5,0.4,0.8,0.7,1.3,1.2C737,517,736.8,517.3,736.4,517.6z M737,515.2c-0.5-0.4-0.9-0.8-1.3-1.2
		c0.3-0.4,0.6-0.8,0.9-1.1c0.5,0.4,0.8,0.7,1.3,1.2C737.6,514.7,737.4,515,737,515.2z" id="PATH_153" class="area" title=""></path>
</g>
<polygon class="st9 area" points="838.5,487.7 837.4,503.3 846,522.3 864.1,540 868.6,542.8 873.7,535.1 886.3,534.7 901.2,535.6 
	913,532.5 918.6,521.2 918.6,506 923.9,491.7 927.4,479.6 923.9,476.1 914.7,470.9 901.2,467.7 890.1,464.8 881.1,465.5 
	866.7,472.1 856.8,478.1 850.7,477 840.2,485 " id="_x32_11" title=""></polygon>
<g id="G_155" class="area" title="">
	<path d="M865.9,499.5c-0.5-0.7-1.5-1.8-3.4-3.2c-0.3-0.2-0.4-0.7-0.4-1c0-0.2,0.1-0.5,0.3-0.7c0.1-0.2,0.3-0.4,0.8-0.7
		c1.3-0.7,3.5-1.4,6-2.2l0.1,0.1c-0.2,0.5-0.5,0.9-0.8,1.4c-0.6,0.1-1.2,0.3-1.8,0.5c-1.2,0.4-2.4,0.9-3.7,1.5v0l1.8,0.7l-0.3,0.6
		c1.7,1.4,2.9,2.8,2.9,4.3l0,0.2c-0.1,1-0.4,1.6-0.8,1.9c-1,0.8-3.1,1.1-5.2,1.1c-2.8,0-4.6-1.1-4.6-3.6c0-0.8,0.1-1.3,0.4-2
		l0.4,0.1c-0.1,0.4-0.2,0.8-0.2,1.2c0,1.8,1.4,2.8,4.1,2.8c1.6,0,3.9-0.3,4.9-1.2c0-0.2-0.1-0.6-0.2-0.9
		C866.3,500.1,866.1,499.8,865.9,499.5z" id="PATH_156" class="area" title=""></path>
	<path d="M874.1,499.9c0.6,1.5,1.2,2.4,2.5,2.4h0.2v1.4h-0.2c-0.5,0-0.9-0.1-1.1-0.4h0c0,0.1,0,0.3,0,0.4c0,0.5-0.1,1.2-0.4,1.7
		c-0.9,1.6-1.9,2.2-2.7,2.2c-0.8,0-1.9-0.4-2.8-0.9l0.2-0.4c0.3,0.1,0.7,0.2,1.3,0.2c1.5,0,3.5-1.7,3.7-3.4
		c-0.1-0.1-0.2-0.3-0.3-0.5c-0.4-0.6-0.7-1.1-1-1.7C873.7,500.7,873.9,500.3,874.1,499.9L874.1,499.9z M873.2,496
		c0.5,0.3,0.9,0.7,1.3,1.2c-0.2,0.4-0.6,0.8-0.9,1.1c-0.4-0.4-0.9-0.8-1.3-1.2C872.6,496.8,872.9,496.4,873.2,496z" id="PATH_157" class="area" title=""></path>
	<path d="M877.1,502.4c1,0,1.7,0,2.2-0.2c0.4-0.1,0.6-0.3,0.6-0.5c0-0.5-0.5-1.6-1.1-2.8c0.3-0.5,0.5-0.9,0.8-1.3h0.1
		c0.5,0.9,1.1,2.3,1.1,3.4c0,0.8-0.3,1.5-0.8,2.1c-0.5,0.5-1.3,0.7-3,0.7h-0.1c-0.6,0-0.8-0.4-0.8-0.8c0-0.3,0.2-0.7,0.8-0.7H877.1z
		 M878.2,508.3c-0.5-0.4-0.9-0.8-1.3-1.2c0.3-0.4,0.6-0.8,0.9-1.1c0.5,0.4,0.8,0.7,1.3,1.2C878.7,507.7,878.5,508,878.2,508.3z
		 M880.3,508.1c-0.5-0.4-0.9-0.8-1.3-1.2c0.3-0.4,0.6-0.8,0.9-1.1c0.5,0.4,0.8,0.7,1.3,1.2C880.9,507.6,880.6,507.9,880.3,508.1z" id="PATH_158" class="area" title=""></path>
	<path d="M886.5,499.9c0.6,1.5,1.2,2.4,2.5,2.4h0.2v1.4H889c-0.5,0-0.9-0.1-1.1-0.4h0c0,0.1,0,0.3,0,0.4c0,0.5-0.1,1.2-0.4,1.7
		c-0.9,1.6-1.9,2.2-2.7,2.2c-0.8,0-1.9-0.4-2.8-0.9l0.2-0.4c0.3,0.1,0.7,0.2,1.3,0.2c1.5,0,3.5-1.7,3.7-3.4
		c-0.1-0.1-0.2-0.3-0.3-0.5c-0.4-0.6-0.7-1.1-1-1.7C886,500.7,886.2,500.3,886.5,499.9L886.5,499.9z" id="PATH_159" class="area" title=""></path>
	<path d="M890.4,502.4c0.2-0.8,0.4-1.6,0.6-2.4c0.3-1.1,0.7-2,1.3-2.9l0.1,0c0.1,0.2,0.3,0.4,0.4,0.7c0.8,1.2,1.5,2.2,1.5,3.2
		c0,0.5-0.1,1-0.2,1.5h2.2v1.4H896c-0.2,0-0.7,0-0.9-0.1l-0.1,0c0.3,0.5,0.5,1.1,0.5,1.5c0,0.5-0.1,1-0.4,1.3
		c-0.3,0.5-1,1.1-1.7,1.1c-0.5,0-1.1-0.1-1.6-0.4c-0.9-0.6-1.5-1.8-1.5-2.9v-0.5c-0.3,0-0.6,0.1-0.9,0.1h-0.2
		c-0.6,0-0.8-0.4-0.8-0.8c0-0.3,0.2-0.7,0.8-0.7H890.4z M891.7,505.3c0.6,0.7,1.4,1.1,2.1,1.1c0.4,0,0.7-0.2,0.7-0.5
		s-0.1-0.8-0.4-1.3c-0.3-0.5-0.9-0.9-1.8-0.9c-0.4,0-0.8,0-1.3,0.1C891,504.3,891.3,504.9,891.7,505.3z M892.8,502.2
		c0.5-0.1,0.7-0.4,0.7-0.6c0-0.7-0.7-1.7-1.4-2.7h-0.1c-0.4,1.1-0.7,2.3-1.1,3.4C891.7,502.4,892.3,502.4,892.8,502.2z" id="PATH_160" class="area" title=""></path>
	<path d="M903.3,491.7c-0.2,0.5-0.5,0.9-0.8,1.4c-0.6,0.1-1.2,0.3-1.8,0.5c-1.2,0.4-2.4,0.9-3.7,1.5v0l1.8,0.7l-0.3,0.6
		c1.7,1.4,2.9,2.8,2.9,4c0,1-0.3,1.9-0.7,2.3c-0.7,0.6-1.8,1-3.9,1h-0.4c-0.6,0-0.8-0.4-0.8-0.8c0-0.3,0.2-0.7,0.8-0.7h0.7
		c1.2,0,2.2-0.1,3-0.6c0.4-0.2,0.6-0.5,0.6-0.6c0-0.5-0.3-1.1-0.8-1.7c-0.5-0.7-1.5-1.8-3.4-3.2c-0.3-0.2-0.4-0.7-0.4-1
		c0-0.2,0.1-0.5,0.3-0.7c0.1-0.2,0.3-0.4,0.8-0.7C898.5,493.2,900.6,492.5,903.3,491.7L903.3,491.7z" id="PATH_161" class="area" title=""></path>
</g>
</svg>
