



    


<svg version="1.1" id="Layer_1" xmlns="http://www.w3.org/2000/svg" xmlns:xlink="http://www.w3.org/1999/xlink" x="0px" y="0px" viewBox="0 0 604.7 587" style="enable-background:new 0 0 604.7 587;" xml:space="preserve" width="100%" height="100%">
<style type="text/css">
	.st0{fill:#DBECCB;stroke:#020202;stroke-width:0.2;stroke-miterlimit:10;}
	.st1{fill:#FDFAD6;stroke:#020202;stroke-width:0.2;stroke-miterlimit:10;}
	.st2{fill:#FBD1D1;stroke:#020202;stroke-width:0.2;stroke-miterlimit:10;}
	.st3{fill:#E8D0E5;stroke:#020202;stroke-width:0.2;stroke-miterlimit:10;}
</style>

		<path class="st0 area" d="M440,163.3l-1.9-1.1l0.4-0.8c-3.8,1.3-7.9,1.9-11.7,3.8c-3.4,1.4-4.7,6.1-7.4,8.8c-2.7,1.3-6.8,0-8.1,1.3
			c-6.8,6.1-13.5,12.8-23,10.1c-2-0.7-3.4-2.7-5.4-3.4c-1.2-0.3-2.4-0.6-3.6-0.9c-2.4,1-4.8,0-6.3-1.7c-0.4-0.4-0.7-0.9-0.9-1.4
			c-1.4-2.7,0.7-5.4-2.7-6.8c-2-0.7-4.1,0.7-6.1,0c-4.1-2-8.8-6.1-14.2-3.4c-8.8,4.7-11.5-9.5-18.3-14.9c-2-1.4-5.4-3.4-6.8-1.4
			c-2,1.5-4.8,3-6.6,2.6c1.3,7.2,7.9,14.2,12,19.7c2.7,2.7-1.4,6.1-3.4,7.4c-7.4,6.8-12.2,14.2-14.9,23c-0.7,3.4,3.4,6.1,4.1,7.4
			c1.2,3.1-1.5,6.8-1.4,10.5c2.3,3.3,3.6,7.3,6.8,7.7c8.1,2,16.2-0.7,25,0c2,0,4.1,3.4,6.1,4.7c2,0.7,4.1-1.4,6.1-1.4
			c2.7-0.7,4.7,2.7,6.8,4.1c3.4,1.4,6.1-1.4,9.5-1.4c9.6,0,18.5,3.4,27.5,4.9l-3-1.2l3.9-2.4c0.2-0.1,16.7-10.5,21.9-13.6
			c4.8-2.9,13.8-13.9,14.6-16.4c1.1-3.2,9.5-22.2,11.7-25.5c0.8-1.2,2.1-2.4,3.7-3.9c1.2-1.2,3.4-3.2,4.1-4.4
			C453.7,171.1,440.6,163.6,440,163.3z" id="_x627__x647__x631_" title="اهر"></path>
		<path class="st0 area" d="M71.8,126.6c2-1.4,4.7-1.4,6.8,0c4.1,4.1,0,9.5,0.7,14.2c10.1-2.7,8.1,7.4,12.8,10.8c9.5,6.1,20.3,0.7,31.1-2
			c6.1-1.4,12.8,3.4,18.9,0.7c17.6-6.8,29.1,10.8,41.2,21c0.7,1.4,5.4,1.4,5.4,0c0.7-7.4,2.7-14.2,8.8-17.6c10.8-5.4,23-0.7,35.2-2
			c3.4,0,6.1-5.4,8.1-5.4c5.4-0.7,10.8,8.8,16.9,2.7c2.7-2,0.7-6.1,2-9.5c0.7-1.4,2.7-2,3.4-2.7c1.9-1.9,2.7-4.9,2.5-7.7l-2.9-0.9
			l-19.1-7.8l-2.5-0.3h-2.2l-4.4,1.6h-7.2l-2.2,0.6l-3.7,1.6l-9.4,6.2l-3.1,1.6l-12.2,1.6H195l-10.6-2.2l-12.2-5.3l-38.4-7.2
			l-13.7-5l-16.2-0.3L93.5,111l-5-0.3l-2.2-0.3l-4.1-2.2l-2.5-0.6l-2.5-0.6l-4.1-1.9l-3.7-2.2l-1.4-1.6c-0.1,0.1-0.1,0.2-0.2,0.3
			c-0.1,0.1-8.4,7.4-14.6,12.6c-4.9,4.1-6.2,10.4-7.1,16.8C54.2,133.7,64,131.8,71.8,126.6z" id="_x62C__x644__x641__x627_" title="جلفا"></path>
		<path class="st1 area" d="M292.3,146.2c1.4-0.7,3.4-0.7,4.7-0.7c2-12.8,10.1-27,25.7-23c0.7,0,2-1.4,2-2c1.4-6.1,3.4-11.5,8.8-12.8
			c8.8-2,16.2-5.4,25-5.4c1.4,0,2.7,1.4,4.7,0.7c1.4-0.7,2.7-2,3.4-2.7c4.1-6.1,0.7-14.2,8.1-18.9c0.7-0.7,1.4-2.7,0.7-4.1
			c-2.7-3.4-7.4-6.1-4.7-8.8c6.1-6.8,23-2.7,21.6-16.2c-0.7-3.4,6.1-0.7,10.1-2c-0.7-1.4,0.7-2,0.7-2.7c17.8-3.7,36.7-2.5,51.3-11.4
			c-0.1-5.2-1.2-9.2-5.4-12.5c-5-4-26.6-16.3-26.8-16.5c-0.1-0.1-0.2-0.1-0.2-0.2L414,16l-5.9,5.6l-7.5,4.1l-18.4,6.6l-8.8,5
			l-1.6,1.9l-0.6,1.9l-6.9,9.7l-2.8,8.4l-0.9,1.6l-2.2,1.9l-0.9,0.6l-10.9,5.9l-2.5,0.3l-2.8-0.6l-5-2.2h-2.8l-3.1,1.2l-2.8,2.2
			l-2.5,2.8l-4.7,7.5l-0.9,1.3l-1.6,0.9l-2.8,1.6l-1.6,1.2l-2.2,3.1l-3.1,6.6l-2.8,2.5l-10.6,5l-3.4,2.5l-2.5,3.1l-5,9.7l-2.2,3.1
			l-2.5,2.5l-2.8,2.2l-3.1,1.9l-3.7,1.2l-3.4,0.3l-0.3-0.1c0.2,2.8-0.6,5.8-2.5,7.7c-0.7,0.7-2.7,1.4-3.4,2.7
			c-1.4,3.4,0.7,7.4-2,9.5c0,0,0,0,0,0c4.8,1.2,10.2,0.5,14.2,2.7C279.4,154.3,287.5,151.6,292.3,146.2z" id="_x62E__x62F__x627__x622__x641__x631__x6CC__x646_" title="خداآفرین"></path>
		<path class="st2 area active" d="M298.4,146.2c6.8,1.4,13.5-0.7,17.6,6.8c1.4,2.7,5.4,0.7,8.1-1.4c1.4-2,4.7,0,6.8,1.4
			c6.8,5.4,9.5,19.6,18.3,14.9c5.4-2.7,10.1,1.4,14.2,3.4c2,0.7,4.1-0.7,6.1,0c3.4,1.4,1.4,4.1,2.7,6.8c1.4,2.7,4.7,4.7,8.1,2.7
			c3.4-2,6.1-4.7,8.8-8.1c2-2,2.7-6.1,5.4-8.8c0.7-0.7,0-2.7,0-3.4c-2.7-5.4-8.8-8.8-6.8-16.2c2-7.4,4.1-13.5,8.8-21.6
			c3.4-5.4-5.4-10.8-3.4-15.6c2.7-6.8,11.5-6.8,16.2-13.5c0.7-1.4,4.1-0.7,4.7-1.4c4.7-6.1,9.5-12.2,16.2-11.5
			c9.6,1.1,19.6,4.2,28.3,0.6c-0.4-4-0.8-8.4-1.3-12.8c-1.4-13.6-2.8-27.6-2.8-31c0-0.4,0-0.8,0-1.3c-14.6,8.9-33.5,7.8-51.3,11.4
			c0,0.7-1.3,1.4-0.7,2.7c-4.1,1.4-10.8-1.4-10.1,2c1.4,13.5-15.6,9.5-21.6,16.2c-2.7,2.7,2,5.4,4.7,8.8c0.7,1.4,0,3.4-0.7,4.1
			c-7.4,4.7-4.1,12.8-8.1,18.9c-0.7,0.7-2,2-3.4,2.7c-2,0.7-3.4-0.7-4.7-0.7c-8.8,0-16.2,3.4-25,5.4c-5.4,1.4-7.4,6.8-8.8,12.8
			c0,0.7-1.4,2-2,2c-15.2-4-23.3,9.6-25.6,22.2C297.4,145.4,297.8,145.9,298.4,146.2z" id="_x6A9__x644__x6CC__x628__x631_" title="کلیبر"></path>
		<path class="st3 area" d="M388.3,185.4c9.5,2.7,16.2-4.1,23-10.1c1.4-1.3,5.4,0,8.1-1.3c2.7-2.7,4.1-7.4,7.4-8.8
			c3.8-1.9,7.9-2.5,11.7-3.8l9.5-19.1h1.4c0.1,0,3.5,0,7.9,1.1c3.5,0.9,9.2-1.2,9.7-2.6c1.3-3.9,2-7.7-4-10.7
			c-8-4-5.6-19.5-4.1-29.7c0.4-2.5,0.7-4.7,0.7-5.7c0-1.5-0.5-6.8-1.1-13.4c-8.8,3.6-18.8,0.5-28.3-0.6c-6.8-0.7-11.5,5.4-16.2,11.5
			c-0.7,0.7-4.1,0-4.7,1.4c-4.7,6.8-13.5,6.8-16.2,13.5c-2,4.7,6.8,10.1,3.4,15.6c-4.7,8.1-6.8,14.2-8.8,21.6
			c-2,7.4,4.1,10.8,6.8,16.2c0,0.7,0.7,2.7,0,3.4c-2.7,2.7-3.4,6.8-5.4,8.8c-2.7,3.4-5.4,6.1-8.8,8.1c-0.3,0.2-0.6,0.3-0.9,0.4
			c1.2,0.3,2.4,0.6,3.6,0.9C384.9,182.7,386.3,184.7,388.3,185.4z" id="_x647__x648__x631__x627__x646__x62F_" title="هوراند"></path>
		<path class="st2 area" d="M46.8,222.6c12.8,3.4,25,2,37.9,5.4c7.4,2,12.2,10.1,19.6,12.2c13.5,3.4,26.4,2.7,39.9,4.1c2,0,2,4.7,4.1,6.1
			c1.4,0.7,3.4,0.7,4.7,0c6.1-5.4,11.5-10.1,19.6-10.8c2.7-0.7,3.4-4.1,2.7-8.1c16.2-2,31.1-4.1,41.9-17.6
			c-8.8,1.4-14.2-6.1-18.3-12.2c-3.4-4.1-4.7-10.1-8.1-14.9c-1.4-1.3,0-5.4-1.4-8.1c-2-2.3-3.4-4.6-5-6.7c-0.5-0.2-0.9-0.4-1.1-0.8
			c-12.2-10.1-23.7-27.7-41.2-21c-6.1,2.7-12.8-2-18.9-0.7c-10.8,2.7-21.6,8.1-31.1,2c-4.7-3.4-2.7-13.5-12.8-10.8
			c-0.7-4.7,3.4-10.1-0.7-14.2c-2-1.4-4.7-1.4-6.8,0c-7.8,5.2-17.6,7.1-25.7,4.3c-0.1,0.7-0.2,1.3-0.3,2l-0.1,0.6
			c-1,7.1-1,21.9-1,26.7c0,4.9,0,15,3.8,20.6c0.8,1.3,8.1,12.5,6.5,19.7c-0.4,1.9-1.5,3.5-3.1,4.4c-1.8,1.1-3,2.1-4.4,3.3
			c-2.5,2.1-5.3,4.5-11.5,7.2c-0.1,0.1-0.3,0.1-0.4,0.2C38.7,219.2,42.6,221.5,46.8,222.6z" id="_x645__x631__x646__x62F_" title="مرند"></path>
		<path class="st3 area" d="M240.9,211.1c-0.7-2,2-1.4,2-2.7c5.4,0.7,12.2-2,14.2,3.4c2.7,6.1,2.7,14.9,8.8,16.9c6.1,2,10.8-0.7,16.2-2.7
			s11.5,4.1,14.9,1.4c5.4-4.1,11.5-4.1,16.9-4.1c-0.7-4.1,2.7-8.1,1.4-11.5c-0.7-1.4-4.7-4.1-4.1-7.4c2.7-8.8,7.4-16.2,14.9-23
			c2-1.4,6.1-4.7,3.4-7.4c-4.1-5.5-10.8-12.6-12-19.7c-0.6-0.2-1.1-0.5-1.5-1.2c-4.1-7.4-10.8-5.4-17.6-6.8
			c-0.6-0.3-0.9-0.8-1.2-1.4c0,0.3-0.1,0.5-0.1,0.8c-1.4,0-3.4,0-4.7,0.7c-4.7,5.4-12.8,8.1-20.3,5.4c-4-2.2-9.4-1.5-14.2-2.7
			c-6.1,6.1-11.5-3.4-16.9-2.7c-2,0-4.7,5.4-8.1,5.4c-12.2,1.4-24.3-3.4-35.2,2c-6.1,3.4-8.1,10.1-8.8,17.6c0,1-2.7,1.3-4.3,0.8
			c1.5,2.1,3,4.4,5,6.7c1.4,2.7,0,6.8,1.4,8.1c3.4,4.7,4.7,10.8,8.1,14.9c4.1,6.1,9.5,13.5,18.3,12.2c-0.1,0.2-0.2,0.3-0.4,0.5
			C224,208.3,232.7,211.7,240.9,211.1z" id="_x648__x631__x632__x642__x627__x646_" title="ورزقان"></path>
		<path class="st0 area" d="M418,257.1c-8.1,2.7-14.2,6.8-20.3,12.8c-4.7,4.1-10.1-2-15.6,0c-4.1,2-11.5,4.7-9.5,10.1
			c1.4,2.7,5.4,4.7,3.4,8.8c-3.4,6.1-18.3-1.4-16.2,8.8c1.4,6.8,5.4,14.2,2,19.6c-6.1,10.8-14.9,25.7-0.7,32.5
			c8.8,4.1,17.6,4.1,26.4,9.5c6.8,4.7,16.2-4.7,25-2.7c10.1,3.4,20.3,8.1,31.1,2.7c8.1-3.4,19.6,2,29.7-0.7c3.4-0.7,5.4-6.8,8.1-8.1
			c7.4-2,16.2,4.7,22.3-0.7c8.8-7.5,16.2-16.1,25.3-22c1.2-1.3,2.7-2.6,4.3-3.8c0.2-0.2,0.3-0.3,0.3-0.3c0-1.1-3.4-4.1-5.7-6.1
			c-3.3-2.9-7-6.2-9.7-10.2c-4.7-7.1-4.6-13.2-4.4-19.2c0.1-2.5,0.2-5.2-0.2-7.9c-0.8-7-2.1-17.5-2.8-22.3
			c-4.5,1.3-11.9,3.9-15.1,7.1c-4.7,4.7-15.7,3.9-25.5,3.2c-2.8-0.2-5.4-0.4-7.4-0.4c-5.5,0-19.4-1-29.7-10
			c-2.1-1.8-5.1-3.8-8.5-5.7C423.1,254.5,421,256.5,418,257.1z" id="_x633__x631__x627__x628_" title="سراب"></path>
		<path class="st1 area" d="M245.6,279.4c2,10.1,16.9,6.8,23.7,10.8c10.1,5.4,18.9,1.4,28.4,1.4c1.4,0,4.1,1.4,5.4,0
			c4.7-4.1,10.1-5.4,15.6-2.7c12.8,6.1,25.7,9.5,39.9,4.1c1.5-0.7,3-1,4.4-0.8c4.1-1,11,0.7,13.2-3.2c2-4.1-2-6.1-3.4-8.8
			c-2-5.4,5.4-8.1,9.5-10.1c5.4-2,10.8,4.1,15.6,0c6.1-6.1,12.2-10.1,20.3-12.8c3-0.6,5-2.6,6.9-5c-9.6-5.5-22-10.5-22.1-10.6
			l-1.3-0.5c-9-1.4-17.8-4.9-27.5-4.9c-3.4,0-6.1,2.7-9.5,1.4c-2-1.4-4.1-4.7-6.8-4.1c-2,0-4.1,2-6.1,1.4c-2-1.4-4.1-4.7-6.1-4.7
			c-8.8-0.7-16.9,2-25,0c-3.2-0.5-4.6-4.4-6.8-7.7c0,0.3,0,0.6,0.1,1c-5.4,0-11.5,0-16.9,4.1c-3.4,2.7-9.5-3.4-14.9-1.4
			c-5.4,2-10.1,4.7-16.2,2.7c-1.5-0.5-2.6-1.4-3.5-2.6c-4.2,8.4-1.9,18.9-5.9,27C252.4,261.2,243.6,269.9,245.6,279.4z" id="_x647__x631__x6CC__x633_" title="هریس"></path>
		<path class="st1 area" d="M121.2,311.2c27,0,41.9-27.7,66.3-35.2c11.5-4.1,28.4-1.4,34.5-14.2c2.7-5.4,4.1-11.5,5.4-16.9
			c2-8.1,1.4-16.9,4.1-25c2-4.1,6.8-4.7,10.1-7.4c0.4-0.8,0.3-2,0.2-3c-0.6,0.3-1.2,0.6-0.9,1.6c-8.2,0.6-16.9-2.8-24,3.2
			c-10.8,13.1-25.5,15.1-41.5,17.1c0.7,4.1,0,7.4-2.7,8.1c-8.1,0.7-13.5,5.4-19.6,10.8c-1.4,0.7-3.4,0.7-4.7,0c-2-1.4-2-6.1-4.1-6.1
			c-13.5-1.4-26.4-0.7-39.9-4.1c-7.4-2-12.2-10.1-19.6-12.2c-12.8-3.4-25-2-37.9-5.4c-4.3-1.1-8.1-3.4-11.2-7
			c-7.6,3.4-19.1,8-23.2,9.7v16.1c0,2.7,2.4,10.3,4,14.6l11.5,21L40,308.7C67,305.4,94.3,311.2,121.2,311.2z" id="_x634__x628__x633__x62A__x631_" title="شبستر"></path>
		<path class="st2 area" d="M297,307.1c-5.4,2-13.5-1.4-20.3,0.7c-9.5,2-2,15.6-5.4,18.9c-10.8,11.5-4.7,23-5.4,35.2
			c0,2.7-2.7,6.1-4.1,9.5c-0.7,2-0.7,5.4,0.7,6.1c13.5,8.1,25,15.6,38.5,23.7c8.8,5.4,12.8-6.8,19.6-11.5c8.1-6.1,14.2,3.4,19.6,8.8
			c1.4,0.7,3.4,1.4,4.7,0.7c8.1-5.4,12.8-19.6,22.3-14.2c9.9,4.7,19.5,10.1,29.7,12c-0.8-5.5-0.4-11.4-2.6-16.7
			c-2.1-6-2.9-13.3-1.1-19.7c-2,0.2-3.9-0.1-5.6-1.3c-8.8-5.4-17.6-5.4-26.4-9.5c-14.2-6.8-5.4-21.6,0.7-32.5
			c3.4-5.4-0.7-12.8-2-19.6c-0.7-3.7,0.7-5,3.1-5.6c-1.5-0.1-2.9,0.1-4.4,0.8c-14.2,5.4-27,2-39.9-4.1c-5.4-2.7-10.8-1.4-15.6,2.7
			c-1.4,1.4-4.1,0-5.4,0c-1,0-2,0-2.9,0.1c0.1,0.2,0.1,0.4,0.2,0.6C296.3,297,303.1,305.1,297,307.1z" id="_x628__x633__x62A__x627__x646___x622__x628__x627__x62F_" title="بستان آباد"></path>
		<path class="st3 area" d="M407.9,445.7c2.7-7.4,2.7-16.2-4.1-22.3c-2.7-2,1.4-6.1,4.1-8.1c0.7-1.4,0.7-4.1,0-5.4c-2-2-6.8-2.7-8.1-4.7
			c-1.6-2.6-2.4-5.4-2.8-8.3c-10.2-1.9-19.7-7.3-29.7-12c-9.5-5.4-14.2,8.8-22.3,14.2c-1.4,0.7-3.4,0-4.7-0.7
			c-5.4-5.4-11.5-14.9-19.6-8.8c-6.8,4.7-10.8,16.9-19.6,11.5c-10.8-6.5-20.4-12.6-30.7-18.9c-3.1,2.2-4.9,6.4-4.5,9.4
			c0.7,5.4,3.4,10.8,5.4,16.9c3.4,8.8,14.9,11.5,18.9,20.3c3.4,6.1,5.4,11.5,11.5,16.9c5.4,4.7-8.1,8.8-11.5,13.5
			c-5.4,7.4,10.8,11.5,17.6,13.5c2.7,1.4,1.4,4.1,0.7,5.4c-2,2.4-4.2,4.6-5.6,7.1c2.4,0.5,4.8,1.7,7,0.4
			c7.4-3.4,12.8-10.1,21.6-10.8c-0.7-2.7,0-5.4,2-6.8c6.1-6.8,10.8-13.5,11.5-23c0-2,2.7-4.1,4.1-4.1c8.1,0.7,10.8-1.4,15.6-8.1
			c2.7-3.4,8.1,4.1,10.8,8.1c4.7,8.1,6.1,18.3,16.2,22.3c7.5,3.5,11.6-2.9,16.4-7.4C406.2,453.5,406.8,449,407.9,445.7z" id="_x647__x634__x62A__x631__x648__x62F_" title="هشترود"></path>
		<path class="st3 area" d="M102.9,358.5c1.4-2,6.1-2,6.8-3.4c3.4-5.4,2.7-14.9,9.5-16.2c10.1-1.4,21,0,30.4,5.4c4.1,2,8.1-1.4,11.5-4.1
			c4.1-4.1,11.5-0.7,16.9-5.4c2-2.7,5.4,0.7,6.8,2.7c6.8,7.4,5.4,19.6,14.9,23c6.1,1.4,8.1,6.8,9.5,11.5c1.4-0.7,2.7,0,4.1,0.7
			c1.4,1.3,0,4.7,0.7,4.7c7.4,4.1,15.6-2,21.6-7.4c0.8-0.8,2.3-0.9,4-0.8c0.9-1.8,1.9-3.5,3.3-4.7c-1.7-2.3-2.9-4.8-2.6-7.3
			c1.4-9.5-4.7-14.9-10.8-21.6c-0.7-1.4,0-4.1-1.4-5.4c-3.4-6.1-9.5-10.1-15.6-12.8c-8.1-4.7-17.6,0-24.3,8.1
			c-0.7,0.7-2.7,0.7-4.1,0c-7.4-6.1-12.8-13.5-22.3-16.9c-4.3-1.2-5.8-6.4-8.6-10.4c-9.5,7.1-19.4,13.1-31.9,13.1
			c-26.8,0-54.2-5.8-81.2-2.5l24,62.9c1.4,0.4,2.9,0.8,4.4,1.1C82,375.4,92.8,367.3,102.9,358.5z" id="_x627__x633__x6A9__x648_" title="اسکو"></path>
		<path class="st2 area" d="M118.5,384.9c6.8-2,10.1,4.7,14.2,8.8c2,3.4,7.4,0.7,11.5,2.7c0.7,1.4,2.7,2,3.4,2c5.4,2,12.2,2.7,17.6,0.7
			c6.1-1.4,12.8-2.7,18.3-5.4c4.1-2,8.1-4.7,12.8-6.8c6.3-2.3,12.2-7.1,17.5-11.8c0-0.9,0-1.9-0.6-2.4c-1.4-0.7-2.7-1.4-4.1-0.7
			c-1.3-4.7-3.4-10.1-9.5-11.5c-9.5-3.4-8.1-15.6-14.9-23c-1.4-2-4.7-5.4-6.8-2.7c-5.4,4.7-12.8,1.4-16.9,5.4
			c-3.4,2.7-7.4,6.1-11.5,4.1c-9.5-5.4-20.3-6.8-30.4-5.4c-6.8,1.4-6.1,10.8-9.5,16.2c-0.7,1.4-5.4,1.4-6.8,3.4
			c-10.1,8.8-21,16.9-34.5,14.2c-1.5-0.3-3-0.7-4.4-1.1l7.4,19.5c12.7-0.2,25.5-3.5,38.2-4.1C112.4,386.9,115.8,386.2,118.5,384.9z" id="_x622__x630__x631__x634__x647__x631_" title="آذرشهر"></path>
		<path class="st3 area" d="M207.7,409.2c-14.9,6.8-29.1,15.6-36.5,31.8c-0.7,2.7-3.4,4.7-6.8,6.1c-4.7,0.7-10.1-3.4-12.8,1.4
			c-4.1,7.4-7.4,13.5-16.2,16.2c-1.4,0.7-2.7,2.7-4.7,4.1c-3.5,1.9-7.2,3.2-11,3.8c5.7,6,13.1,12.8,17.8,13.3c5.1,0.6,10.9,2,16,3.2
			c3.7,0.9,7.2,1.8,9.1,1.9c1.3-5.7,3.4-10.8,8.7-12.8c6.1-2,12.8-0.7,18.9-2.7c0.7,0,3.4-0.7,3.4-2c0.7-6.1,1.4-12.2,8.1-9.5
			c3.4,2,8.1,3.4,10.8,1.4c1-0.7,2.2-1,3.4-1.2c0-0.1,0-0.1-0.1-0.2c-2-6.8-2.7-12.8-9.5-16.9c-0.7-0.7,0-2.7,0-4.1
			c0.7-2,3.4-3.4,3.4-5.4c2.7-8.1-6.1-12.9-3.4-20.3c1.1-3.7,3.4-6.3,6.1-8.6C210.9,408.5,209.3,408.4,207.7,409.2z" id="_x628__x646__x627__x628_" title="بناب"></path>
		<path class="st0 area" d="M235.5,370c-6.1,5.4-14.2,11.5-21.6,7.4c-0.4,0-0.1-1.1-0.1-2.3c-5.4,4.7-11.2,9.4-17.5,11.8
			c-4.7,2-8.8,4.7-12.8,6.8c-5.4,2.7-12.2,4.1-18.3,5.4c-5.4,2-12.2,1.3-17.6-0.7c-0.7,0-2.7-0.7-3.4-2c-4.1-2-9.5,0.7-11.5-2.7
			c-4.1-4.1-7.4-10.8-14.2-8.8c-2.7,1.4-6.1,2-8.8,2c-12.7,0.6-25.5,3.9-38.2,4.1l10.5,27.4l31.1,46.6c1.4,1.8,3.8,4.5,6.6,7.5
			c3.8-0.6,7.5-1.9,11-3.8c2-1.4,3.4-3.4,4.7-4.1c8.8-2.7,12.2-8.8,16.2-16.2c2.7-4.7,8.1-0.7,12.8-1.4c3.4-1.4,6.1-3.4,6.8-6.1
			c7.4-16.2,21.6-25,36.5-31.8c1.6-0.8,3.2-0.8,4.8-0.5c3.7-3.2,8-5.7,10.8-9.7c3.4-4.7,3.4-10.1,6.8-14.9c1.4-2,4.1-4.7,5.4-7.4
			c1.7-2,2.7-5,4-7.6C237.8,369.1,236.3,369.2,235.5,370z" id="_x639__x62C__x628___x634__x6CC__x631_" title="عجب شیر"></path>
		<path class="st2 area" d="M251,490.4c-1.4,0-3.4-2-4.1-4.1c-0.7-4.1,3.4-8.8-1.4-10.8c-2-1.4-4.7-0.7-5.4-1.4c-2-4.1-2-8.8-6.1-11.5
			c-6.1-3.4-5.4,4.1-9.5,6.8c-4.6,2-7.9-3.1-8.7-5.3c-1.2,0.2-2.4,0.5-3.4,1.2c-2.7,2-7.4,0.7-10.8-1.4c-6.8-2.7-7.4,3.4-8.1,9.5
			c0,1.4-2.7,2-3.4,2c-6.1,2-12.8,0.7-18.9,2.7c-5.4,2.1-7.5,7.2-8.7,12.8c0.3,0,0.5,0,0.7,0c4.6,0,19.7,6.5,21.1,14.5
			c0.6,3.8,2.1,13.1,2.1,17c0,0.5-0.1,1.1-0.1,1.8c-0.4,3.6-1,9.1,9.2,13.8c9.2,4.2,21.2,7.9,26.4,1.7c1-1.2,2.1-2.7,3.3-4.4
			c5.4-7.3,12.7-17.2,20.9-15.2c4.1,1,9.4,2,14.7,2.5c0.3-5.4,3.3-10.1,5.9-14.9C271.3,497.1,259.8,491.7,251,490.4z" id="_x645__x627__x644__x6A9__x627__x646_" title="مالکان"></path>
		<path class="st0 area" d="M295,292.3c-0.1-0.2-0.2-0.4-0.2-0.6c-8.4,0.6-16.4,3.4-25.5-1.5c-6.8-4.1-21.6-0.7-23.7-10.8
			c-2-9.5,6.8-18.3,10.8-26.4c4-8.1,1.7-18.6,5.9-27c-2.7-3.6-3.2-9.7-5.2-14.3c-2-5.4-8.8-2.7-14.2-3.4c0,0.6-0.6,0.8-1.2,1.1
			c0.1,1,0.2,2.2-0.2,3c-3.4,2.7-8.1,3.4-10.1,7.4c-2.7,8.1-2,16.9-4.1,25c-1.4,5.4-2.7,11.5-5.4,16.9c-6.1,12.8-23,10.1-34.5,14.2
			c-13.1,4-23.4,13.8-34.3,22.1c2.8,4,4.3,9.2,8.6,10.4c9.5,3.4,14.9,10.8,22.3,16.9c1.4,0.7,3.4,0.7,4.1,0
			c6.8-8.1,16.2-12.8,24.3-8.1c6.1,2.7,12.2,6.8,15.6,12.9c1.4,1.4,0.7,4.1,1.4,5.4c6.1,6.8,12.2,12.2,10.8,21.6
			c-0.3,2.6,0.9,5,2.6,7.3c0.6-0.5,1.3-0.9,2.1-1.3c6.5-2.2,13.1,1.3,19.6,2.8c0.8-1.5,1.4-2.9,1.4-4.2c0.7-12.2-5.4-23.7,5.4-35.2
			c3.4-3.4-4.1-16.9,5.4-18.9c6.8-2,14.9,1.4,20.3-0.7C303.1,305.1,296.3,297,295,292.3z" id="_x62A__x628__x631__x6CC__x632_" title="تبریز"></path>
		<path class="st1 area" d="M307.8,472.8c-6.8-2-23-6.1-17.6-13.5c3.4-4.7,16.9-8.8,11.5-13.5c-6.1-5.4-8.1-10.8-11.5-16.9
			c-4.1-8.8-15.6-11.5-18.9-20.3c-2-6.1-4.7-11.5-5.4-16.9c-0.4-3,1.4-7.2,4.5-9.4c-2.6-1.6-5.2-3.2-7.9-4.8
			c-1.4-0.7-1.4-4.1-0.7-6.1c0.7-1.8,1.8-3.6,2.7-5.3c-6.5-1.5-13.1-5-19.6-2.8c-5.4,2-6.1,9.5-9.5,13.5c-1.4,2.7-4.1,5.4-5.4,7.4
			c-3.4,4.7-3.4,10.1-6.8,14.9c-4.7,6.8-14.2,9.5-16.9,18.3c-2.7,7.4,6.1,12.2,3.4,20.3c0,2-2.7,3.4-3.4,5.4c0,1.4-0.7,3.4,0,4.1
			c6.8,4.1,7.4,10.1,9.5,16.9c0.7,2,4.1,7.4,8.8,5.4c4.1-2.7,3.4-10.1,9.5-6.8c4.1,2.7,4.1,7.4,6.1,11.5c0.7,0.7,3.4,0,5.4,1.4
			c4.7,2,0.7,6.8,1.4,10.8c0.7,2,2.7,4.1,4.1,4.1c8.8,1.3,20.3,6.8,15.6,17.6c-2.6,4.7-5.7,9.5-5.9,14.9c8,0.8,16,0.8,20.2-1.3
			c8-4,15.1-10,15.1-10.1l0.9-0.8l2.6,0.6c0.1-1.4-0.1-2.7-0.5-4c-2.7-7.4-7.4-16.9,0-21.6c1.2-0.7,2.5-0.7,3.9-0.4
			c1.4-2.5,3.6-4.7,5.6-7.1C309.2,476.8,310.5,474.1,307.8,472.8z" id="_x645__x631__x627__x63A__x647_" title="مراغه"></path>
		<path class="st0 area" d="M451.8,475.5c-7.4-2.7-14.9,4.1-22.3,0.7c-4.1-2-2.7-8.1-4.1-12.2c-2-6.1-9.5-5.4-15.6-6.8
			c-0.8-0.3-1.4-0.7-1.9-1.3c-4.8,4.5-8.9,10.9-16.4,7.4c-10.1-4.1-11.5-14.2-16.2-22.3c-2.7-4.1-8.1-11.5-10.8-8.1
			c-4.7,6.8-7.4,8.8-15.6,8.1c-1.4,0-4.1,2-4.1,4.1c-0.7,9.5-5.4,16.2-11.5,23c-2,1.4-2.7,4.1-2,6.8c-8.8,0.7-14.2,7.4-21.6,10.8
			c-3.4,2-7.4-2-10.8,0c-7.4,4.7-2.7,14.2,0,21.6c0.4,1.3,0.5,2.6,0.5,4l28.7,6.6l-1.7,2.8c-0.2,0.4-5.2,9.1,1.8,17
			c2,2.3,3.9,4.1,5.5,5.7c4.7,4.7,8.4,8.4,4,14c-2.2,2.7-3.9,6-4.6,8.9c-0.8,3.1-0.4,5.3,1.1,6.6c3.9,3.1,11.5,7.5,14.8,9.3
			c2.1-2.2,5.4-6,6.7-8.5c0.3-0.6,0.6-1.2,0.8-1.8c1.9-4.6,4.4-8.7,14.2-6.7c7.7,1.5,16.1,1.9,19.7,2c2.1-6.3,10.6-27.1,30.8-28.1
			c15.9-0.8,19.6-7,22.7-12c0.9-1.5,1.8-2.9,2.9-4c1.5-1.5,3.2-2.9,5-4.1c-4.2-5.3-6.4-11.4-2.6-17.7c2.7-4.7,8.8-8.1,10.8-12.8
			C463.3,482.3,457.2,476.8,451.8,475.5z" id="_x686__x627__x631__x648__x627__x6CC__x645__x627__x642_" title="چاروایماق"></path>
		<path class="st1 area" d="M590.5,470.2l-8.3-11.4l-8.4-4.3l-9.8-9.8l-0.2-0.6c-0.1-0.5-3.2-11.8-3.2-17.3c0-3.4-3.7-11.3-6-15.5
			c0,0-6.1-10.1-10-14c-1.9-1.9-2.7-4.5-2.2-7.2c0.7-4.3,4.4-8.7,9.1-11.1c4.6-2.3,9.2-4,11.4-4.8c0.5-3.9,1.9-14.8,1.9-18
			c0-2.6-5-7.3-10-9.3l-1.6-0.6c-4.9-2-11.6-4.7-19.9-6.5c-1.5-0.3-6.1-1.3-6.9-5c-0.5-2.3,0.7-4.6,2.7-6.8
			c-9.1,5.9-16.5,14.5-25.3,22c-6.1,5.4-14.9-1.4-22.3,0.7c-2.7,1.4-4.7,7.4-8.1,8.1c-10.1,2.7-21.6-2.7-29.7,0.7
			c-10.8,5.4-21,0.7-31.1-2.7c-6.6-1.5-13.5,3.4-19.4,4c-1.8,6.4-1,13.7,1.1,19.7c3.4,8.1,0.7,17.6,5.4,25c1.4,2,6.1,2.7,8.1,4.7
			c0.7,1.3,0.7,4.1,0,5.4c-2.7,2-6.8,6.1-4.1,8.1c6.8,6.1,6.8,14.9,4.1,22.3c-1.4,4.1-2,10.1,2,11.5c6.1,1.4,13.5,0.7,15.6,6.8
			c1.4,4.1,0,10.1,4.1,12.2c7.4,3.4,14.9-3.4,22.3-0.7c5.4,1.3,11.5,6.8,8.1,12.8c-2,4.7-8.1,8.1-10.8,12.9
			c-3.8,6.3-1.5,12.4,2.6,17.7c3.4-2.4,7.3-4.4,11.6-5.8c6.8-2.3,23.6-10.4,26.2-13c3.1-3.1,17.9-13.9,29-6.5
			c8.7,5.8,17.4,7.9,25.2,5.9c7.2-1.8,14.1-9.2,16.3-12.6c2.5-3.7,8.9-6,13.9-7.2c3.2-0.8,13.5-6.1,17.2-8.1
			c0.4-0.2,0.9-0.3,1.4-0.2L590.5,470.2z" id="_x645__x6CC__x627__x646__x647_" title="میانه"></path>

<g id="G_24" class="area" title="">
	<path d="M328.8,92.7h-0.5c-0.5,0-0.8,0-1-0.1c0,0.3,0.1,0.5,0.1,0.8c0,0.5-0.1,0.8-0.2,1.1c-0.3,0.7-0.8,1.3-1.8,1.7
		c-0.8,0.3-1.6,0.5-2.5,0.5c-0.9,0-1.6-0.2-2.2-0.6c-0.6-0.5-0.9-1.1-0.9-2c0-0.5,0.1-0.9,0.3-1.5c0.2-0.4,0.3-0.7,0.5-0.9
		c0.1-0.1,0.2-0.1,0.2-0.1c0.1,0,0.1,0,0.1,0.1c0,0,0,0.1,0,0.2c-0.3,0.6-0.4,1.2-0.4,1.7c0,0.5,0.2,0.9,0.5,1.3
		c0.4,0.5,1.1,0.7,2,0.7c1,0,1.9-0.2,2.6-0.5c0.6-0.3,1-0.6,1.2-1c0.1-0.1,0.1-0.3,0-0.7c0-0.3-0.1-0.6-0.1-0.7
		c-0.1-0.3-0.5-0.8-1-1.5l0.4-0.8c0.1-0.1,0.1-0.2,0.1-0.2s0.1,0,0.1,0.1c0.5,0.8,1,1.2,1.6,1.2h0.8V92.7z M324.4,88.2l-0.8,0.8
		l-0.8-0.8l0.8-0.8L324.4,88.2z" id="PATH_25" class="area" title=""></path>
	<path d="M331.2,90.7c0,1.3-0.7,2-2,2h-0.8v-1.2h0.7c1,0,1.5-0.2,1.5-0.5c0-0.3-0.2-0.7-0.7-1.2l0.4-1c0-0.1,0.1-0.1,0.1-0.1
		s0.1,0.1,0.2,0.2C331,89.4,331.2,90,331.2,90.7z M330.4,94.9l-0.8,0.8l-0.8-0.8l0.8-0.8L330.4,94.9z M332.1,94.9l-0.8,0.8l-0.8-0.8
		l0.8-0.8L332.1,94.9z" id="PATH_26" class="area" title=""></path>
	<path d="M338.4,92.7H338c-0.4,0-0.6-0.1-0.8-0.2c0,0.1,0,0.2,0,0.3c0,0.9-0.3,1.8-0.9,2.7c-0.5,0.8-1,1.1-1.3,1.1
		c-0.8,0-1.4,0-2-0.1c-0.2,0-0.3-0.1-0.3-0.1s0.1-0.1,0.3-0.1c0.8-0.2,1.6-0.6,2.4-1.2c0.8-0.7,1.3-1.4,1.3-2.1c0-0.4-0.3-1-1-1.7
		l0.5-0.9c0-0.1,0.1-0.1,0.1-0.1c0,0,0.1,0.1,0.1,0.1c0.3,0.4,0.5,0.7,0.7,0.8c0.3,0.2,0.7,0.4,1.1,0.4h0.3V92.7z" id="PATH_27" class="area" title=""></path>
	<path d="M342.3,89.8v0.4c0,0.7-0.1,1.1-0.3,1.4c-0.5,0.7-1.3,1-2.6,1H338v-1.2h1c1.7,0,2.6-0.3,2.8-0.8c0-0.1,0-0.1,0-0.2
		c0-0.2,0-0.3-0.1-0.4c-0.4,0.1-0.9,0.1-1.3,0.1c-0.9,0-1.4-0.4-1.4-1.2c0-0.5,0.1-1.1,0.4-1.6c0.3-0.6,0.7-0.9,1.2-0.9
		c0.4,0,0.8,0.3,1.1,0.8C342.1,88,342.3,88.8,342.3,89.8z M341.1,84.3l-0.8,0.8l-0.8-0.8l0.8-0.8L341.1,84.3z M341.5,89
		c0-0.3-0.1-0.6-0.3-0.9c-0.2-0.3-0.5-0.4-0.8-0.4c-0.2,0-0.4,0.1-0.6,0.2s-0.2,0.3-0.2,0.5c0,0.4,0.3,0.6,1,0.6
		C340.9,89.1,341.2,89.1,341.5,89z" id="PATH_28" class="area" title=""></path>
	<path d="M346.3,82c-0.4,0.4-1,0.5-1.6,0.5c-0.1,0-0.2,0-0.4,0s-0.3,0-0.4,0c-0.1,0-0.2,0.1-0.3,0.2c-0.1,0.1-0.2,0.2-0.2,0.2
		c-0.1,0-0.1-0.1-0.1-0.2c0-0.1,0.1-0.3,0.2-0.5c0.1-0.3,0.2-0.4,0.3-0.4c0.1,0,0.3,0,0.6,0.1c0.3,0,0.5,0.1,0.6,0.1
		c0.6,0,1,0,1.3-0.1c0.2,0,0.3-0.1,0.3-0.1c0,0,0.1,0,0.1,0C346.5,81.8,346.4,81.8,346.3,82z M345.6,91.4c0,0.4-0.1,0.8-0.3,1.1
		c-0.1,0.2-0.2,0.3-0.2,0.3c0,0-0.1-0.1-0.1-0.4c0-1.2-0.2-4-0.6-8.5l0.8-0.8c0.1-0.1,0.1-0.1,0.1-0.1c0,0,0,0.1,0,0.2
		C345.6,84.5,345.6,87.3,345.6,91.4z" id="PATH_29" class="area" title=""></path>
	<path d="M348.6,91.4c0,0.4-0.1,0.8-0.3,1.1c-0.1,0.2-0.2,0.3-0.2,0.3c0,0-0.1-0.1-0.1-0.4c0-1.2-0.2-4-0.6-8.5l0.8-0.8
		c0.1-0.1,0.1-0.1,0.1-0.1c0,0,0,0.1,0,0.2C348.5,84.6,348.6,87.3,348.6,91.4z" id="PATH_30" class="area" title=""></path>
	<path d="M356.4,92.7h-0.4c-0.4,0-0.7-0.1-1-0.4c-0.2-0.2-0.4-0.4-0.6-0.8c-0.2,0.4-0.5,0.7-0.8,0.9c-0.4,0.2-0.9,0.3-1.7,0.3
		c-1.4,0-2.1-0.5-2.1-1.5c0-0.3,0.1-0.7,0.3-1c0.1-0.1,0.1-0.2,0.2-0.2c0.1,0,0.1,0.1,0.1,0.2c0,0.1,0,0.1,0,0.3c0,0.1,0,0.2,0,0.3
		c0,0.6,0.5,0.9,1.5,0.9c1.4,0,2.1-0.3,2.1-0.8c0-0.3-0.4-1.4-1.2-3.3l0.4-0.8c0.1-0.1,0.1-0.2,0.1-0.2c0,0,0.1,0.1,0.1,0.2
		c0.3,0.8,0.8,2,1.4,3.6c0.3,0.8,0.7,1.2,1.3,1.2h0.3V92.7z" id="PATH_31" class="area" title=""></path>
	<path d="M364.2,89.8l-0.4,0.8c-0.7,0-1.3,0-1.6,0.1c-0.4,0.2-1,0.4-1.8,0.8c-0.8,0.4-1.4,0.7-1.8,0.8c-0.6,0.2-1.3,0.3-1.9,0.3H356
		v-1.2h0.8c0.9,0,1.7-0.2,2.4-0.5l2.3-1c-0.4-0.1-1-0.3-1.8-0.6c-0.7-0.3-1.1-0.4-1.3-0.4c-0.4,0-0.8,0.2-1.2,0.5
		c-0.1,0.1-0.1,0.1-0.2,0.1c-0.1,0-0.1,0-0.1-0.1c0,0,0-0.1,0-0.1c0.3-1,0.9-1.4,1.7-1.4c0.3,0,0.7,0.1,1.1,0.3
		c0.8,0.4,1.4,0.6,1.8,0.8c0.7,0.2,1.5,0.4,2.4,0.4c0.2,0,0.3,0,0.3,0.1C364.3,89.6,364.2,89.6,364.2,89.8z M361.3,85.2l-0.8,0.8
		l-0.8-0.8l0.8-0.8L361.3,85.2z" id="PATH_32" class="area" title=""></path>
</g>
<g id="G_33" class="area" title="">
	<path d="M342.7,133.3h-0.4c-0.4,0-0.6-0.1-0.8-0.2c0,0.1,0,0.2,0,0.3c0,0.9-0.3,1.8-0.9,2.7c-0.5,0.8-1,1.1-1.3,1.1
		c-0.8,0-1.4,0-2-0.1c-0.2,0-0.3-0.1-0.3-0.1s0.1-0.1,0.3-0.1c0.8-0.2,1.6-0.6,2.4-1.2c0.8-0.7,1.3-1.4,1.3-2.1c0-0.4-0.3-1-1-1.7
		l0.5-0.9c0-0.1,0.1-0.1,0.1-0.1c0,0,0.1,0.1,0.1,0.1c0.3,0.4,0.5,0.7,0.7,0.8c0.3,0.2,0.7,0.4,1.1,0.4h0.3V133.3z" id="PATH_34" class="area" title=""></path>
	<path d="M347.6,133.3h-0.8c-0.9,0-1.5-0.3-1.9-0.9c-0.3,0.6-1,0.9-2.1,0.9h-0.6v-1.2h0.9c1,0,1.5-0.4,1.6-1.1
		c0-0.3,0.1-0.5,0.2-0.5s0.2,0.2,0.2,0.5c0.1,0.7,0.6,1.1,1.5,1.1h0.9V133.3z M345.4,135.5l-0.8,0.8l-0.8-0.8l0.8-0.8L345.4,135.5z" id="PATH_35" class="area" title=""></path>
	<path d="M352.5,133.3h-0.8c-0.9,0-1.5-0.3-1.9-0.9c-0.3,0.6-1,0.9-2.1,0.9h-0.6v-1.2h0.9c1,0,1.5-0.4,1.6-1.1
		c0-0.3,0.1-0.5,0.2-0.5s0.2,0.2,0.2,0.5c0.1,0.7,0.6,1.1,1.5,1.1h0.9V133.3z M349.2,135.5l-0.8,0.8l-0.8-0.8l0.8-0.8L349.2,135.5z
		 M351,135.5l-0.8,0.8l-0.8-0.8l0.8-0.8L351,135.5z" id="PATH_36" class="area" title=""></path>
	<path d="M356.2,133.3h-0.4c-0.9,0-1.5-0.3-1.8-1c-0.1,0.3-0.3,0.5-0.6,0.7c-0.3,0.2-0.6,0.3-0.9,0.3h-0.4v-1.2h0.4
		c0.8,0,1.2-0.3,1.2-1v-3.5c0-1.3,0-2.3-0.1-3l0.9-0.7v6.7c0,1,0.4,1.5,1.3,1.5h0.4V133.3z" id="PATH_37" class="area" title=""></path>
	<path d="M362.4,124.1c0,0.2-0.2,0.6-0.4,1.1l-2.5,0.8c-1.1,0.4-1.9,0.7-2.3,0.9c0.8,0.8,1.3,1.4,1.6,1.7c0.5,0.7,0.8,1.3,0.9,2
		c0,0.5,0,1-0.2,1.4c-0.3,0.9-1.4,1.3-3.1,1.3h-0.5v-1.2h0.6c0.8,0,1.4,0,1.7-0.1c0.7-0.2,1.1-0.5,1.1-1c0-0.7-0.5-1.5-1.6-2.5
		l-0.1,0.2c-0.1-0.1-0.3-0.3-0.5-0.6c-0.3-0.3-0.4-0.6-0.4-0.6c0-0.2,0-0.4,0.1-0.8c0.1-0.4,0.2-0.6,0.3-0.7
		c0.1-0.1,0.8-0.4,2.1-0.8C360.3,124.7,361.5,124.3,362.4,124.1z" id="PATH_38" class="area" title=""></path>
</g>
<g id="G_39" class="area" title="">
	<path d="M422.5,128.7h-0.4c-0.4,0-0.7-0.1-1-0.4c-0.2-0.2-0.4-0.4-0.6-0.8c-0.2,0.4-0.5,0.7-0.8,0.9c-0.4,0.2-0.9,0.3-1.7,0.3
		c-1.4,0-2.1-0.5-2.1-1.5c0-0.3,0.1-0.7,0.3-1c0.1-0.1,0.1-0.2,0.2-0.2c0.1,0,0.1,0.1,0.1,0.2c0,0.1,0,0.1,0,0.3c0,0.1,0,0.2,0,0.3
		c0,0.6,0.5,0.9,1.5,0.9c1.4,0,2.1-0.3,2.1-0.8c0-0.3-0.4-1.4-1.2-3.3l0.4-0.8c0.1-0.1,0.1-0.2,0.1-0.2c0,0,0.1,0.1,0.1,0.2
		c0.3,0.8,0.8,2,1.4,3.6c0.3,0.8,0.7,1.2,1.3,1.2h0.3V128.7z" id="PATH_40" class="area" title=""></path>
	<path d="M424.9,126.7c0,1.3-0.7,2-2,2h-0.8v-1.2h0.7c1,0,1.5-0.2,1.5-0.5c0-0.3-0.2-0.7-0.7-1.2l0.4-1c0-0.1,0.1-0.1,0.1-0.1
		s0.1,0.1,0.2,0.2C424.7,125.4,424.9,126,424.9,126.7z M424.9,122.1l-0.8,0.8l-0.8-0.8l0.8-0.8L424.9,122.1z" id="PATH_41" class="area" title=""></path>
	<path d="M427.3,127.4c0,0.4-0.1,0.8-0.3,1.1c-0.1,0.2-0.2,0.3-0.2,0.3c0,0-0.1-0.1-0.1-0.4c0-1.2-0.2-4-0.6-8.5l0.8-0.8
		c0.1-0.1,0.1-0.1,0.1-0.1c0,0,0,0.1,0,0.2C427.3,120.6,427.3,123.3,427.3,127.4z" id="PATH_42" class="area" title=""></path>
	<path d="M432.3,128.8c0,1-0.3,1.9-0.9,2.8c-0.5,0.7-1,1.1-1.3,1.1c-0.8,0-1.4,0-2-0.1c-0.2,0-0.3-0.1-0.3-0.1s0.1-0.1,0.3-0.1
		c0.8-0.2,1.6-0.6,2.4-1.2c0.8-0.7,1.3-1.4,1.3-2.1c0-0.4-0.3-1-1-1.7l0.5-0.9c0-0.1,0.1-0.1,0.1-0.1c0,0,0.1,0.1,0.1,0.1
		c0.2,0.3,0.5,0.7,0.6,1.2C432.2,128,432.3,128.4,432.3,128.8z" id="PATH_43" class="area" title=""></path>
	<path d="M438.6,128.7h-1.1c-0.1,1.4-0.6,2.5-1.6,3.5c-0.3,0.3-0.5,0.5-0.6,0.5c-0.5,0-1.2-0.1-1.9-0.2c-0.2,0-0.4-0.1-0.4-0.1
		s0.1-0.1,0.4-0.2c0.8-0.2,1.6-0.7,2.3-1.2c0.3-0.3,0.6-0.5,0.8-0.9c0.3-0.4,0.5-0.8,0.5-1.1v-0.3h-1.3c-1,0-1.4-0.4-1.4-1.2
		c0-0.5,0.1-1,0.4-1.6c0.3-0.6,0.7-1,1.1-1c0.5,0,0.9,0.3,1.2,1c0.2,0.5,0.4,1,0.4,1.6h1.1V128.7z M436.8,127.5
		c0-0.3-0.1-0.6-0.3-0.9c-0.2-0.4-0.5-0.5-0.8-0.5c-0.2,0-0.4,0.1-0.5,0.2s-0.2,0.3-0.2,0.6c0,0.5,0.4,0.7,1.2,0.7
		C436.2,127.5,436.5,127.5,436.8,127.5z" id="PATH_44" class="area" title=""></path>
	<path d="M444.7,126.6c0,0.4-0.1,0.8-0.4,1.2c-0.3,0.5-0.6,0.7-1,0.7c-0.3,0-1-0.2-2.1-0.7c-0.9,0.6-1.7,0.8-2.4,0.8h-0.5v-1.2h0.6
		c0.4,0,0.8,0,1.2-0.1c-0.4-0.3-0.6-0.7-0.6-1.2c0-0.6,0.4-1.3,1.3-2l-0.7-0.3c0.2-0.2,0.5-0.5,0.9-0.9c0.9,0.5,1.7,0.9,2.4,1.5
		C444.2,125.2,444.7,125.9,444.7,126.6z M442,125.8c0-0.3-0.1-0.5-0.2-0.7c-0.1-0.3-0.3-0.4-0.6-0.4c-0.3,0-0.5,0.1-0.8,0.3
		c-0.3,0.2-0.5,0.5-0.5,0.7c0,0.4,0.4,0.8,1.1,1c0.2-0.1,0.4-0.2,0.6-0.3C441.9,126.3,442,126,442,125.8z M444.1,127
		c0-0.3-0.2-0.6-0.6-1c-0.3-0.3-0.6-0.6-0.9-0.7c0,0.8-0.2,1.4-0.7,1.8c0.8,0.3,1.4,0.4,1.6,0.4C443.9,127.5,444.1,127.3,444.1,127z
		" id="PATH_45" class="area" title=""></path>
</g>
<g id="G_46" class="area" title="">
	<path d="M369.4,203.3H369c-0.4,0-0.6-0.1-0.8-0.2c0,0.1,0,0.2,0,0.3c0,0.9-0.3,1.8-0.9,2.7c-0.5,0.8-1,1.1-1.3,1.1
		c-0.8,0-1.4,0-2-0.1c-0.2,0-0.3-0.1-0.3-0.1s0.1-0.1,0.3-0.1c0.8-0.2,1.6-0.6,2.4-1.2c0.8-0.7,1.3-1.4,1.3-2.1c0-0.4-0.3-1-1-1.7
		l0.5-0.9c0-0.1,0.1-0.1,0.1-0.1c0,0,0.1,0.1,0.1,0.1c0.3,0.4,0.5,0.7,0.7,0.8c0.3,0.2,0.7,0.4,1.1,0.4h0.3V203.3z" id="PATH_47" class="area" title=""></path>
	<path d="M375.5,201.3c0,0.4-0.1,0.8-0.4,1.2c-0.3,0.5-0.6,0.7-1,0.7c-0.3,0-1-0.2-2.1-0.7c-0.9,0.6-1.7,0.8-2.4,0.8H369v-1.2h0.6
		c0.4,0,0.8,0,1.2-0.1c-0.4-0.3-0.6-0.7-0.6-1.2c0-0.6,0.4-1.3,1.3-2l-0.7-0.3c0.2-0.2,0.5-0.5,0.9-0.9c0.9,0.5,1.7,0.9,2.4,1.5
		C375,199.9,375.5,200.6,375.5,201.3z M372.8,200.5c0-0.3-0.1-0.5-0.2-0.7c-0.1-0.3-0.3-0.4-0.6-0.4c-0.3,0-0.5,0.1-0.8,0.3
		c-0.3,0.2-0.5,0.5-0.5,0.7c0,0.4,0.4,0.8,1.1,1c0.2-0.1,0.4-0.2,0.6-0.3C372.7,200.9,372.8,200.7,372.8,200.5z M374.9,201.7
		c0-0.3-0.2-0.6-0.6-1c-0.3-0.3-0.6-0.6-0.9-0.7c0,0.8-0.2,1.4-0.7,1.8c0.8,0.3,1.4,0.4,1.6,0.4C374.7,202.2,374.9,202,374.9,201.7z
		" id="PATH_48" class="area" title=""></path>
	<path d="M377.8,202.1c0,0.4-0.1,0.8-0.3,1.1c-0.1,0.2-0.2,0.3-0.2,0.3c0,0-0.1-0.1-0.1-0.4c0-1.2-0.2-4-0.6-8.5l0.8-0.8
		c0.1-0.1,0.1-0.1,0.1-0.1c0,0,0,0.1,0,0.2C377.8,195.3,377.8,198,377.8,202.1z" id="PATH_49" class="area" title=""></path>
</g>
<g id="G_50" class="area" title="">
	<path d="M252.2,183.9c0.1,0.3,0.1,0.6,0.1,0.9c0,0.4-0.1,0.7-0.2,1.1c-0.3,0.7-0.8,1.3-1.8,1.7c-0.8,0.3-1.6,0.5-2.5,0.5
		c-0.9,0-1.6-0.2-2.2-0.6c-0.6-0.5-0.9-1.1-0.9-2c0-0.5,0.1-0.9,0.3-1.5c0.2-0.4,0.3-0.7,0.5-0.9c0.1-0.1,0.2-0.1,0.2-0.1
		c0.1,0,0.1,0,0.1,0.1c0,0,0,0.1,0,0.2c-0.3,0.6-0.4,1.2-0.4,1.7c0,0.5,0.2,0.9,0.5,1.3c0.4,0.5,1.1,0.7,2,0.7c1,0,1.9-0.2,2.6-0.5
		c0.6-0.3,1-0.6,1.2-1c0.1-0.1,0.1-0.3,0.1-0.4c0-0.3-0.1-0.6-0.2-1c-0.1-0.3-0.4-0.8-0.9-1.6l0.4-0.8c0.1-0.1,0.1-0.2,0.1-0.2
		s0.1,0,0.1,0.1C251.7,182.3,252,183.1,252.2,183.9z M249.2,179.5l-0.8,0.8l-0.8-0.8l0.8-0.8L249.2,179.5z" id="PATH_51" class="area" title=""></path>
	<path d="M256.2,184h-0.7c-0.7,0-1.3-0.3-1.5-0.9c-0.2-0.4-0.3-1.1-0.3-1.9v-1.9c0-0.9-0.1-2.2-0.2-3.9l0.6-0.7
		c0.1-0.1,0.2-0.1,0.2,0c0.1,0.9,0.2,2.2,0.2,3.9v2.9c0,0.8,0.4,1.2,1.2,1.2h0.5V184z" id="PATH_52" class="area" title=""></path>
	<path d="M260.1,181.2c0,0.9-0.1,1.5-0.3,1.8c-0.5,0.7-1.3,1-2.6,1h-1.4v-1.2h1c1.7,0,2.6-0.3,2.8-0.8c0.1-0.2,0-0.4-0.1-0.6
		c-0.4,0.1-0.8,0.1-1.3,0.1c-0.9,0-1.4-0.4-1.4-1.2c0-0.5,0.1-1.1,0.4-1.6c0.3-0.6,0.7-0.9,1.2-0.9c0.4,0,0.8,0.3,1.1,0.8
		C259.9,179.4,260.1,180.2,260.1,181.2z M258.1,175.7l-0.8,0.8l-0.8-0.8l0.8-0.8L258.1,175.7z M259.3,180.3c0-0.3-0.1-0.6-0.3-0.9
		c-0.2-0.3-0.5-0.4-0.8-0.4c-0.2,0-0.4,0.1-0.6,0.2c-0.2,0.1-0.2,0.3-0.2,0.5c0,0.4,0.3,0.6,1,0.6
		C258.7,180.4,259,180.4,259.3,180.3z M259.8,175.7l-0.8,0.8l-0.8-0.8l0.8-0.8L259.8,175.7z" id="PATH_53" class="area" title=""></path>
	<path d="M265.1,184.1c0,1-0.3,1.9-0.9,2.8c-0.5,0.7-1,1.1-1.3,1.1c-0.8,0-1.4,0-2-0.1c-0.2,0-0.3-0.1-0.3-0.1s0.1-0.1,0.3-0.1
		c0.8-0.2,1.6-0.6,2.4-1.2c0.8-0.7,1.3-1.4,1.3-2.1c0-0.4-0.3-1-1-1.7l0.5-0.9c0-0.1,0.1-0.1,0.1-0.1c0,0,0.1,0.1,0.1,0.1
		c0.2,0.3,0.5,0.7,0.6,1.2C265,183.3,265.1,183.7,265.1,184.1z M264.4,178.7l-0.8,0.8l-0.8-0.8l0.8-0.8L264.4,178.7z" id="PATH_54" class="area" title=""></path>
	<path d="M270.2,184.1c0,1-0.3,1.9-0.9,2.8c-0.5,0.7-1,1.1-1.3,1.1c-0.8,0-1.4,0-2-0.1c-0.2,0-0.3-0.1-0.3-0.1s0.1-0.1,0.3-0.1
		c0.8-0.2,1.6-0.6,2.4-1.2c0.8-0.7,1.3-1.4,1.3-2.1c0-0.4-0.3-1-1-1.7l0.5-0.9c0-0.1,0.1-0.1,0.1-0.1c0,0,0.1,0.1,0.1,0.1
		c0.2,0.3,0.5,0.7,0.6,1.2C270.1,183.3,270.2,183.7,270.2,184.1z" id="PATH_55" class="area" title=""></path>
	<path d="M275.3,183.6c0,1.5-0.5,2.8-1.5,3.8c-0.3,0.3-0.5,0.5-0.6,0.5c-0.6,0-1.2-0.1-1.9-0.2c-0.3,0-0.4-0.1-0.4-0.1
		c0,0,0.1-0.1,0.4-0.2c0.8-0.2,1.6-0.7,2.3-1.3c0.3-0.3,0.6-0.5,0.8-0.9c0.3-0.4,0.5-0.8,0.5-1.1v-0.3l-1.3,0
		c-0.9,0-1.4-0.4-1.4-1.1c0-0.5,0.1-1,0.4-1.6c0.3-0.6,0.7-1,1.1-1c0.6,0,1.1,0.4,1.4,1.3C275.2,182.1,275.3,182.8,275.3,183.6z
		 M274.6,182.8c0-0.3-0.1-0.6-0.3-0.9c-0.2-0.3-0.5-0.5-0.8-0.5c-0.2,0-0.4,0.1-0.5,0.2c-0.2,0.2-0.2,0.3-0.2,0.5
		c0,0.5,0.3,0.7,1,0.7C273.9,182.9,274.2,182.8,274.6,182.8z" id="PATH_56" class="area" title=""></path>
</g>
<g id="G_57" class="area" title="">
	<path d="M325.3,263.3h-0.5c-0.7,0-1.1-0.3-1.4-0.8c-0.2,0.6-0.7,0.9-1.3,0.9c-0.6,0-1-0.3-1.3-0.9c-0.3,0.6-0.8,0.9-1.4,0.9
		c-0.2,0-0.5,0-0.7-0.1c0,0.6-0.1,1.2-0.1,1.9c-0.3,0.7-0.8,1.3-1.7,1.7c-0.8,0.3-1.6,0.5-2.5,0.5c-0.9,0-1.6-0.2-2.2-0.6
		c-0.6-0.5-0.9-1.1-0.9-2c0-0.5,0.1-0.9,0.3-1.5c0.2-0.4,0.3-0.7,0.5-0.9c0.1-0.1,0.2-0.1,0.2-0.1c0.1,0,0.1,0,0.1,0.1
		c0,0,0,0.1,0,0.2c-0.3,0.6-0.4,1.2-0.4,1.7c0,0.5,0.2,0.9,0.5,1.3c0.4,0.5,1.1,0.7,2,0.7c1,0,1.9-0.2,2.6-0.5c0.6-0.3,1-0.6,1.1-1
		c0.1-0.1,0.1-0.3,0-0.7c0-0.3-0.1-0.6-0.1-0.7c-0.1-0.3-0.4-0.8-1-1.5l0.4-0.8c0.1-0.1,0.1-0.2,0.1-0.2c0,0,0.1,0,0.1,0.2
		c0.3,0.4,0.5,0.7,0.6,0.8c0.3,0.3,0.6,0.4,1,0.4c0.4,0,0.8-0.1,1-0.4c0.1-0.2,0.2-0.4,0.3-0.9c0-0.2,0.1-0.3,0.2-0.3
		c0.1,0,0.1,0.1,0.2,0.3c0.1,0.8,0.5,1.3,1.1,1.3c0.7,0,1.2-0.4,1.2-1.2c0-0.2,0.1-0.3,0.2-0.3c0.1,0,0.2,0.1,0.2,0.3
		c0.1,0.8,0.5,1.2,1.2,1.2h0.6V263.3z" id="PATH_58" class="area" title=""></path>
	<path d="M327.7,261.3c0,1.3-0.7,2-2,2h-0.8v-1.2h0.7c1,0,1.5-0.2,1.5-0.5c0-0.3-0.2-0.7-0.7-1.2l0.4-1c0-0.1,0.1-0.1,0.1-0.1
		c0,0,0.1,0.1,0.2,0.2C327.5,260.1,327.7,260.7,327.7,261.3z M326.9,265.5l-0.8,0.8l-0.8-0.8l0.8-0.8L326.9,265.5z M328.6,265.5
		l-0.8,0.8l-0.8-0.8l0.8-0.8L328.6,265.5z" id="PATH_59" class="area" title=""></path>
	<path d="M334.9,263.3h-0.4c-0.4,0-0.6-0.1-0.8-0.2c0,0.1,0,0.2,0,0.3c0,0.9-0.3,1.8-0.9,2.7c-0.5,0.8-1,1.1-1.3,1.1
		c-0.8,0-1.4,0-2-0.1c-0.2,0-0.3-0.1-0.3-0.1s0.1-0.1,0.3-0.1c0.8-0.2,1.6-0.6,2.4-1.2c0.8-0.7,1.3-1.4,1.3-2.1c0-0.4-0.3-1-1-1.7
		l0.5-0.9c0-0.1,0.1-0.1,0.1-0.1c0,0,0.1,0.1,0.1,0.1c0.3,0.4,0.5,0.7,0.7,0.8c0.3,0.2,0.7,0.4,1.1,0.4h0.3V263.3z" id="PATH_60" class="area" title=""></path>
	<path d="M341,261.3c0,0.4-0.1,0.8-0.4,1.2c-0.3,0.5-0.6,0.7-1,0.7c-0.3,0-1-0.2-2.1-0.7c-0.9,0.6-1.7,0.8-2.4,0.8h-0.5v-1.2h0.6
		c0.4,0,0.8,0,1.2-0.1c-0.4-0.3-0.6-0.7-0.6-1.2c0-0.6,0.4-1.3,1.3-2l-0.7-0.3c0.2-0.2,0.5-0.5,0.9-0.9c0.9,0.5,1.7,0.9,2.4,1.5
		C340.5,259.9,341,260.6,341,261.3z M338.4,260.5c0-0.3-0.1-0.5-0.2-0.7c-0.1-0.3-0.3-0.4-0.6-0.4c-0.3,0-0.5,0.1-0.8,0.3
		c-0.3,0.2-0.5,0.5-0.5,0.7c0,0.4,0.4,0.8,1.1,1c0.2-0.1,0.4-0.2,0.6-0.3C338.3,260.9,338.4,260.7,338.4,260.5z M340.5,261.7
		c0-0.3-0.2-0.6-0.6-1c-0.3-0.3-0.6-0.6-0.9-0.7c0,0.8-0.2,1.4-0.7,1.8c0.8,0.3,1.4,0.4,1.6,0.4C340.3,262.2,340.5,262,340.5,261.7z
		" id="PATH_61" class="area" title=""></path>
</g>
<g id="G_62" class="area" title="">
	<path d="M121.7,136.8H121c-0.7,0-1.3-0.3-1.5-0.9c-0.2-0.4-0.3-1.1-0.3-1.9V132c0-0.9-0.1-2.2-0.2-3.9l0.6-0.7
		c0.1-0.1,0.2-0.1,0.2,0c0.1,0.9,0.2,2.2,0.2,3.9v2.9c0,0.8,0.4,1.2,1.2,1.2h0.5V136.8z" id="PATH_63" class="area" title=""></path>
	<path d="M127.1,136.8h-0.5c-0.3,0-0.7-0.1-1.2-0.2c-0.5-0.1-0.9-0.3-1.1-0.5c-0.2,0.2-0.5,0.3-0.9,0.4c-0.5,0.2-1,0.2-1.5,0.2h-0.7
		v-1.2h0.5c0.8,0,1.3-0.1,1.5-0.2c-0.2-0.1-0.3-0.3-0.4-0.5c-0.1-0.2-0.2-0.4-0.2-0.6c0-0.4,0.2-0.9,0.5-1.5c0.4-0.6,0.8-1,1.3-1
		c0.5,0,0.8,0.3,1.1,0.8c0.2,0.4,0.3,0.9,0.3,1.4c0,0.4-0.1,0.7-0.3,0.9c-0.1,0.2-0.2,0.3-0.4,0.4c0.2,0.1,0.7,0.2,1.4,0.2h0.4
		V136.8z M125.4,134.2c0-0.2-0.1-0.5-0.3-0.7c-0.2-0.3-0.4-0.4-0.7-0.4c-0.2,0-0.5,0.1-0.7,0.3c-0.2,0.2-0.4,0.5-0.4,0.7
		c0,0.2,0.1,0.5,0.4,0.7c0.2,0.2,0.5,0.3,0.7,0.4c0.2,0,0.5-0.1,0.6-0.3C125.3,134.6,125.4,134.4,125.4,134.2z M125.1,129.3
		l-0.8,0.8l-0.8-0.8l0.8-0.8L125.1,129.3z" id="PATH_64" class="area" title=""></path>
	<path d="M130.8,136.8h-0.4c-0.9,0-1.5-0.3-1.8-1c-0.1,0.3-0.3,0.5-0.6,0.7c-0.3,0.2-0.6,0.3-0.9,0.3h-0.4v-1.2h0.4
		c0.8,0,1.2-0.3,1.2-1v-3.5c0-1.3,0-2.3-0.1-3l0.9-0.7v6.7c0,1,0.4,1.5,1.3,1.5h0.4V136.8z" id="PATH_65" class="area" title=""></path>
	<path d="M138.6,133.9l-0.4,0.8c-0.7,0-1.3,0-1.6,0.1c-0.4,0.2-1,0.4-1.8,0.8c-0.8,0.4-1.4,0.7-1.8,0.8c-0.6,0.2-1.3,0.3-1.9,0.3
		h-0.7v-1.2h0.8c0.9,0,1.7-0.2,2.4-0.5l2.3-1c-0.4-0.1-1-0.3-1.8-0.6c-0.7-0.3-1.1-0.4-1.3-0.4c-0.4,0-0.8,0.2-1.2,0.5
		c-0.1,0.1-0.1,0.1-0.2,0.1c-0.1,0-0.1,0-0.1-0.1c0,0,0-0.1,0-0.1c0.3-1,0.9-1.4,1.7-1.4c0.3,0,0.7,0.1,1.1,0.3
		c0.8,0.4,1.4,0.6,1.8,0.8c0.7,0.2,1.5,0.4,2.4,0.4c0.2,0,0.3,0,0.3,0.1C138.7,133.7,138.7,133.7,138.6,133.9z M135.3,138.8
		l-0.8,0.8l-0.8-0.8l0.8-0.8L135.3,138.8z" id="PATH_66" class="area" title=""></path>
</g>
<g id="G_67" class="area" title="">
	<path d="M118.1,191.7h-0.4c-0.4,0-0.7-0.1-1-0.4c-0.2-0.2-0.4-0.4-0.6-0.8c-0.2,0.4-0.5,0.7-0.8,0.9c-0.4,0.2-0.9,0.3-1.7,0.3
		c-1.4,0-2.1-0.5-2.1-1.5c0-0.3,0.1-0.7,0.3-1c0.1-0.1,0.1-0.2,0.2-0.2c0.1,0,0.1,0.1,0.1,0.2c0,0.1,0,0.1,0,0.3c0,0.1,0,0.2,0,0.3
		c0,0.6,0.5,0.9,1.5,0.9c1.4,0,2.1-0.3,2.1-0.8c0-0.3-0.4-1.4-1.2-3.3l0.4-0.8c0.1-0.1,0.1-0.2,0.1-0.2c0,0,0.1,0.1,0.1,0.2
		c0.3,0.8,0.8,2,1.4,3.6c0.3,0.8,0.7,1.2,1.3,1.2h0.3V191.7z" id="PATH_68" class="area" title=""></path>
	<path d="M120.5,189.7c0,1.3-0.7,2-2,2h-0.8v-1.2h0.7c1,0,1.5-0.2,1.5-0.5c0-0.3-0.2-0.7-0.7-1.2l0.4-1c0-0.1,0.1-0.1,0.1-0.1
		c0,0,0.1,0.1,0.2,0.2C120.3,188.4,120.5,189,120.5,189.7z M120.4,185.1l-0.8,0.8l-0.8-0.8l0.8-0.8L120.4,185.1z" id="PATH_69" class="area" title=""></path>
	<path d="M126.7,191.7h-0.4c-0.4,0-0.6-0.1-0.8-0.2c0,0.1,0,0.2,0,0.3c0,0.9-0.3,1.8-0.9,2.7c-0.5,0.8-1,1.1-1.3,1.1
		c-0.8,0-1.4,0-2-0.1c-0.2,0-0.3-0.1-0.3-0.1s0.1-0.1,0.3-0.1c0.8-0.2,1.6-0.6,2.4-1.2c0.8-0.7,1.3-1.4,1.3-2.1c0-0.4-0.3-1-1-1.7
		l0.5-0.9c0-0.1,0.1-0.1,0.1-0.1c0,0,0.1,0.1,0.1,0.1c0.3,0.4,0.5,0.7,0.7,0.8c0.3,0.2,0.7,0.4,1.1,0.4h0.3V191.7z" id="PATH_70" class="area" title=""></path>
	<path d="M131.7,189.7c0,0.5,0,0.9-0.2,1.3c-0.2,0.5-0.5,0.8-0.8,0.8c-0.5,0-1.3-0.3-2.3-1c-0.3,0.4-0.5,0.6-0.6,0.7
		c-0.3,0.2-0.6,0.3-1,0.3h-0.5v-1.2h0.7c0.4,0,0.8-0.2,1.2-0.7c0.2-0.2,0.5-0.7,0.9-1.3c0.3-0.5,0.7-0.7,1-0.7
		c0.5,0,0.9,0.2,1.2,0.7C131.5,188.9,131.6,189.3,131.7,189.7z M131.1,190.4c0-0.3-0.1-0.6-0.3-1c-0.2-0.4-0.5-0.6-0.8-0.6
		c-0.3,0-0.6,0.3-1,0.9c0.2,0.2,0.5,0.4,0.9,0.6c0.4,0.2,0.8,0.3,1,0.3C131,190.7,131.1,190.6,131.1,190.4z" id="PATH_71" class="area" title=""></path>
</g>
<g id="G_72" class="area" title="">
	<path d="M84.7,274h-0.4c-0.4,0-0.6-0.1-0.8-0.2c0,0.1,0,0.2,0,0.3c0,0.9-0.3,1.8-0.9,2.7c-0.5,0.8-1,1.1-1.3,1.1
		c-0.8,0-1.4,0-2-0.1c-0.2,0-0.3-0.1-0.3-0.1s0.1-0.1,0.3-0.1c0.8-0.2,1.6-0.6,2.4-1.2c0.8-0.7,1.3-1.4,1.3-2.1c0-0.4-0.3-1-1-1.7
		l0.5-0.9c0-0.1,0.1-0.1,0.1-0.1c0,0,0.1,0.1,0.1,0.1c0.3,0.4,0.5,0.7,0.7,0.8c0.3,0.2,0.7,0.4,1.1,0.4h0.3V274z" id="PATH_73" class="area" title=""></path>
	<path d="M89.6,274h-0.8c-0.9,0-1.5-0.3-1.9-0.9c-0.3,0.6-1,0.9-2.1,0.9h-0.6v-1.2h0.9c1,0,1.5-0.4,1.6-1.1c0-0.3,0.1-0.5,0.2-0.5
		c0.1,0,0.2,0.2,0.2,0.5c0.1,0.7,0.6,1.1,1.5,1.1h0.9V274z M86.2,268.2l-0.8,0.8l-0.8-0.8l0.8-0.8L86.2,268.2z M87.9,268.2l-0.8,0.8
		l-0.8-0.8l0.8-0.8L87.9,268.2z" id="PATH_74" class="area" title=""></path>
	<path d="M98.8,274h-0.6c-0.7,0-1.1-0.3-1.4-0.8c-0.2,0.6-0.7,0.8-1.3,0.8c-0.6,0-1-0.3-1.3-0.8c-0.3,0.6-0.7,0.8-1.3,0.8
		c-0.7,0-1.2-0.3-1.5-0.8c-0.4,0.6-0.9,0.8-1.6,0.8h-0.7v-1.2H90c0.7,0,1.2-0.4,1.3-1.2c0-0.2,0.1-0.3,0.2-0.3
		c0.1,0,0.1,0.1,0.2,0.3c0.1,0.8,0.5,1.2,1.3,1.2c0.7,0,1.2-0.4,1.2-1.2c0-0.2,0.1-0.3,0.2-0.3c0.1,0,0.2,0.1,0.2,0.3
		c0.1,0.8,0.5,1.2,1,1.2c0.7,0,1.2-0.4,1.2-1.2c0-0.2,0.1-0.3,0.2-0.3c0.1,0,0.2,0.1,0.2,0.3c0.1,0.8,0.5,1.2,1.2,1.2h0.6V274z" id="PATH_75" class="area" title=""></path>
	<path d="M103.7,274H103c-0.9,0-1.5-0.3-1.9-0.9c-0.3,0.6-1,0.9-2.1,0.9h-0.6v-1.2h0.9c1,0,1.5-0.4,1.6-1.1c0-0.3,0.1-0.5,0.2-0.5
		c0.1,0,0.2,0.2,0.2,0.5c0.1,0.7,0.6,1.1,1.5,1.1h0.9V274z M101.6,276.2l-0.8,0.8l-0.8-0.8l0.8-0.8L101.6,276.2z" id="PATH_76" class="area" title=""></path>
	<path d="M111.6,271.9c0,0.6-0.1,1.1-0.4,1.5c-0.3,0.4-0.8,0.7-1.3,0.7c-0.7,0-1.1-0.3-1.4-0.8c-0.4,0.6-0.8,0.8-1.4,0.8
		c-0.7,0-1.2-0.3-1.5-0.8c-0.4,0.6-0.9,0.8-1.6,0.8h-0.7v-1.2h0.8c0.7,0,1.2-0.4,1.3-1.2c0-0.2,0.1-0.3,0.2-0.3
		c0.1,0,0.1,0.1,0.2,0.3c0.1,0.8,0.5,1.2,1.3,1.2c0.4,0,0.8-0.1,1-0.3c0.1-0.2,0.2-0.4,0.3-0.8c0-0.2,0.1-0.3,0.2-0.3
		c0.1,0,0.1,0.1,0.2,0.3c0.1,0.8,0.5,1.2,1.2,1.2c0.8,0,1.1-0.2,1.1-0.5c0-0.3-0.2-0.7-0.6-1.1l0.5-0.9c0.1-0.1,0.1-0.2,0.2-0.2
		s0.1,0.1,0.2,0.2C111.5,270.9,111.6,271.4,111.6,271.9z M108.2,268.2l-0.7,0.7l-0.7-0.7l0.7-0.7L108.2,268.2z M109.1,266.7
		l-0.7,0.7l-0.7-0.7l0.7-0.7L109.1,266.7z M110,268.2l-0.7,0.7l-0.7-0.7l0.7-0.7L110,268.2z" id="PATH_77" class="area" title=""></path>
</g>
<g id="G_78" class="area" title="">
	<path d="M212.3,298.1h-0.4c-0.4,0-0.6-0.1-0.8-0.2c0,0.1,0,0.2,0,0.3c0,0.9-0.3,1.8-0.9,2.7c-0.5,0.8-1,1.1-1.3,1.1
		c-0.8,0-1.4,0-2-0.1c-0.2,0-0.3-0.1-0.3-0.1s0.1-0.1,0.3-0.1c0.8-0.2,1.6-0.6,2.4-1.2c0.8-0.7,1.3-1.4,1.3-2.1c0-0.4-0.3-1-1-1.7
		l0.5-0.9c0-0.1,0.1-0.1,0.1-0.1c0,0,0.1,0.1,0.1,0.1c0.3,0.4,0.5,0.7,0.7,0.8c0.3,0.2,0.7,0.4,1.1,0.4h0.3V298.1z M210.4,292.8
		l-0.8,0.8l-0.8-0.8l0.8-0.8L210.4,292.8z" id="PATH_79" class="area" title=""></path>
	<path d="M214.7,296.1c0,1.3-0.7,2-2,2h-0.8v-1.2h0.7c1,0,1.5-0.2,1.5-0.5c0-0.3-0.2-0.7-0.7-1.2l0.4-1c0-0.1,0.1-0.1,0.1-0.1
		c0,0,0.1,0.1,0.2,0.2C214.5,294.8,214.7,295.4,214.7,296.1z M213.9,300.3l-0.8,0.8l-0.8-0.8l0.8-0.8L213.9,300.3z M215.6,300.3
		l-0.8,0.8l-0.8-0.8l0.8-0.8L215.6,300.3z" id="PATH_80" class="area" title=""></path>
	<path d="M221.9,298.1h-0.4c-0.4,0-0.6-0.1-0.8-0.2c0,0.1,0,0.2,0,0.3c0,0.9-0.3,1.8-0.9,2.7c-0.5,0.8-1,1.1-1.3,1.1
		c-0.8,0-1.4,0-2-0.1c-0.2,0-0.3-0.1-0.3-0.1s0.1-0.1,0.3-0.1c0.8-0.2,1.6-0.6,2.4-1.2c0.8-0.7,1.3-1.4,1.3-2.1c0-0.4-0.3-1-1-1.7
		l0.5-0.9c0-0.1,0.1-0.1,0.1-0.1c0,0,0.1,0.1,0.1,0.1c0.3,0.4,0.5,0.7,0.7,0.8c0.3,0.2,0.7,0.4,1.1,0.4h0.3V298.1z" id="PATH_81" class="area" title=""></path>
	<path d="M226.8,298.1h-0.8c-0.9,0-1.5-0.3-1.9-0.9c-0.3,0.6-1,0.9-2.1,0.9h-0.6v-1.2h0.9c1,0,1.5-0.4,1.6-1.1
		c0-0.3,0.1-0.5,0.2-0.5c0.1,0,0.2,0.2,0.2,0.5c0.1,0.7,0.6,1.1,1.5,1.1h0.9V298.1z M224.7,300.3l-0.8,0.8l-0.8-0.8l0.8-0.8
		L224.7,300.3z" id="PATH_82" class="area" title=""></path>
	<path d="M229.2,296.1c0,1.3-0.7,2-2,2h-0.8v-1.2h0.7c1,0,1.5-0.2,1.5-0.5c0-0.3-0.2-0.7-0.7-1.2l0.4-1c0-0.1,0.1-0.1,0.1-0.1
		c0,0,0.1,0.1,0.2,0.2C229,294.8,229.2,295.4,229.2,296.1z M228.3,291.7l-0.8,0.8l-0.8-0.8l0.8-0.8L228.3,291.7z M230,291.7
		l-0.8,0.8l-0.8-0.8l0.8-0.8L230,291.7z" id="PATH_83" class="area" title=""></path>
</g>
<g id="G_84" class="area" title="">
	<path d="M111.9,329h-1.1c-0.1,1.4-0.6,2.5-1.6,3.5c-0.3,0.3-0.5,0.5-0.6,0.5c-0.5,0-1.2-0.1-1.9-0.2c-0.2,0-0.4-0.1-0.4-0.1
		c0,0,0.1-0.1,0.4-0.2c0.8-0.2,1.6-0.7,2.3-1.2c0.3-0.3,0.6-0.5,0.8-0.9c0.3-0.4,0.5-0.8,0.5-1.1V329H109c-1,0-1.4-0.4-1.4-1.2
		c0-0.5,0.1-1,0.4-1.6c0.3-0.6,0.7-1,1.1-1c0.5,0,0.9,0.3,1.2,1c0.2,0.5,0.4,1,0.4,1.6h1.1V329z M110.1,327.8c0-0.3-0.1-0.6-0.3-0.9
		c-0.2-0.4-0.5-0.5-0.8-0.5c-0.2,0-0.4,0.1-0.5,0.2c-0.2,0.2-0.2,0.3-0.2,0.6c0,0.5,0.4,0.7,1.2,0.7
		C109.5,327.9,109.7,327.8,110.1,327.8z" id="PATH_85" class="area" title=""></path>
	<path d="M118.7,329H118c-0.5,0-1-0.3-1.6-0.8c-0.3-0.3-0.7-0.8-1.2-1.5c0.1,1.6-0.8,2.4-2.7,2.4h-1.1v-1.2h1.3c1.3,0,2-0.4,2-1.1
		c0-0.4-0.2-0.9-0.7-1.5c-0.3-0.4-0.7-0.8-1.3-1.3c-0.5-0.4-0.7-0.7-0.7-0.7c0-0.7,0.1-1.2,0.3-1.5c0-0.1,0.7-0.3,2-0.8
		c1.3-0.5,2.5-0.9,3.6-1.2c0,0.1-0.1,0.5-0.3,1.1c-1.3,0.4-2.9,1-4.9,1.8c0.9,0.8,2.1,2.1,3.4,3.9c0.5,0.6,0.9,1,1.2,1.2
		c0.2,0.1,0.6,0.2,1,0.2h0.4V329z" id="PATH_86" class="area" title=""></path>
	<path d="M126.6,326.9c0,0.6-0.1,1.1-0.4,1.5c-0.3,0.4-0.8,0.7-1.3,0.7c-0.7,0-1.1-0.3-1.4-0.8c-0.4,0.6-0.8,0.8-1.4,0.8
		c-0.7,0-1.2-0.3-1.5-0.8c-0.4,0.6-0.9,0.8-1.6,0.8h-0.7v-1.2h0.8c0.7,0,1.2-0.4,1.3-1.2c0-0.2,0.1-0.3,0.2-0.3
		c0.1,0,0.1,0.1,0.2,0.3c0.1,0.8,0.5,1.2,1.3,1.2c0.4,0,0.8-0.1,1-0.3c0.1-0.2,0.2-0.4,0.3-0.8c0-0.2,0.1-0.3,0.2-0.3
		c0.1,0,0.1,0.1,0.2,0.3c0.1,0.8,0.5,1.2,1.2,1.2c0.8,0,1.1-0.2,1.1-0.5c0-0.3-0.2-0.7-0.6-1.1l0.5-0.9c0.1-0.1,0.1-0.2,0.2-0.2
		s0.1,0.1,0.2,0.2C126.4,325.9,126.6,326.4,126.6,326.9z" id="PATH_87" class="area" title=""></path>
	<path d="M129,327.8c0,0.4-0.1,0.8-0.3,1.1c-0.1,0.2-0.2,0.3-0.2,0.3c0,0-0.1-0.1-0.1-0.4c0-1.2-0.2-4-0.6-8.5l0.8-0.8
		c0.1-0.1,0.1-0.1,0.1-0.1c0,0,0,0.1,0,0.2C128.9,320.9,129,323.6,129,327.8z" id="PATH_88" class="area" title=""></path>
</g>
<g id="G_89" class="area" title="">
	<path d="M127.1,373h-0.4c-0.4,0-0.6-0.1-0.8-0.2c0,0.1,0,0.2,0,0.3c0,0.9-0.3,1.8-0.9,2.7c-0.5,0.8-1,1.1-1.3,1.1
		c-0.8,0-1.4,0-2-0.1c-0.2,0-0.3-0.1-0.3-0.1s0.1-0.1,0.3-0.1c0.8-0.2,1.6-0.6,2.4-1.2c0.8-0.7,1.3-1.4,1.3-2.1c0-0.4-0.3-1-1-1.7
		l0.5-0.9c0-0.1,0.1-0.1,0.1-0.1c0,0,0.1,0.1,0.1,0.1c0.3,0.4,0.5,0.7,0.7,0.8c0.3,0.2,0.7,0.4,1.1,0.4h0.3V373z" id="PATH_90" class="area" title=""></path>
	<path d="M133.3,373h-0.5c-0.4,0-0.8,0.1-1.1,0.2c-0.5,0.2-0.8,0.5-0.8,1c0,0.6,0.4,1.1,1.2,1.6l-0.5,1c-0.9-0.3-1.7-0.8-2.3-1.4
		c-0.8-0.7-1.2-1.6-1.2-2.5h-1.4v-1.2h1.3c0-0.8,0.2-1.6,0.6-2.6c0.4-0.9,0.7-1.3,0.9-1.3c0.2,0,0.5,0.4,0.8,1.3
		c0.3,0.8,0.4,1.3,0.4,1.6c0,1.4-0.7,2.1-2.1,2.1c0.1,0.4,0.3,0.8,0.6,1.2c0.3,0.4,0.7,0.7,1.1,0.9c0-0.1,0-0.3,0-0.4
		c0-0.7,0.2-1.3,0.5-1.8c0.5-0.7,1.1-1.1,2-1.1h0.4V373z M130.2,371.4c0-0.2-0.1-0.6-0.3-1.1c-0.2-0.6-0.4-0.8-0.6-0.8
		c-0.1,0-0.3,0.2-0.5,0.7c-0.2,0.5-0.3,1.1-0.3,1.7C129.7,371.8,130.2,371.7,130.2,371.4z" id="PATH_91" class="area" title=""></path>
	<path d="M141.2,370.9c0,0.6-0.1,1.1-0.4,1.5c-0.3,0.4-0.8,0.7-1.3,0.7c-0.7,0-1.1-0.3-1.4-0.8c-0.4,0.6-0.8,0.8-1.4,0.8
		c-0.7,0-1.2-0.3-1.5-0.8c-0.4,0.6-0.9,0.8-1.6,0.8h-0.7v-1.2h0.8c0.7,0,1.2-0.4,1.3-1.2c0-0.2,0.1-0.3,0.2-0.3
		c0.1,0,0.1,0.1,0.2,0.3c0.1,0.8,0.5,1.2,1.3,1.2c0.4,0,0.8-0.1,1-0.3c0.1-0.2,0.2-0.4,0.3-0.8c0-0.2,0.1-0.3,0.2-0.3
		c0.1,0,0.1,0.1,0.2,0.3c0.1,0.8,0.5,1.2,1.2,1.2c0.8,0,1.1-0.2,1.1-0.5c0-0.3-0.2-0.7-0.6-1.1l0.5-0.9c0.1-0.1,0.1-0.2,0.2-0.2
		s0.1,0.1,0.2,0.2C141,369.9,141.2,370.4,141.2,370.9z M137.8,367.2l-0.7,0.7l-0.7-0.7l0.7-0.7L137.8,367.2z M138.7,365.7l-0.7,0.7
		l-0.7-0.7l0.7-0.7L138.7,365.7z M139.6,367.2l-0.7,0.7l-0.7-0.7l0.7-0.7L139.6,367.2z" id="PATH_92" class="area" title=""></path>
	<path d="M146.3,373.1c0,1-0.3,1.9-0.9,2.8c-0.5,0.7-1,1.1-1.3,1.1c-0.8,0-1.4,0-2-0.1c-0.2,0-0.3-0.1-0.3-0.1s0.1-0.1,0.3-0.1
		c0.8-0.2,1.6-0.6,2.4-1.2c0.8-0.7,1.3-1.4,1.3-2.1c0-0.4-0.3-1-1-1.7l0.5-0.9c0-0.1,0.1-0.1,0.1-0.1c0,0,0.1,0.1,0.1,0.1
		c0.2,0.3,0.5,0.7,0.6,1.2C146.2,372.3,146.3,372.7,146.3,373.1z" id="PATH_93" class="area" title=""></path>
	<path d="M152.4,370.9c0,1.4-0.9,2.1-2.8,2.1c-0.7,0-1.2-0.1-1.5-0.3c-0.4-0.2-0.6-0.7-0.6-1.3c0-0.3,0.1-0.6,0.2-0.9
		c0.1-0.1,0.1-0.2,0.2-0.2c0.1,0,0.1,0.1,0.1,0.3c0,0.1,0,0.2,0,0.3c0,0.4,0.2,0.7,0.6,0.8c0.2,0.1,0.6,0.1,1.1,0.1
		c1.5,0,2.2-0.2,2.2-0.7c0-0.7-0.9-1.7-2.6-2.9l0.3-1c0-0.1,0.1-0.1,0.1-0.1c0,0,0.1,0,0.2,0.1C151.5,368.5,152.4,369.8,152.4,370.9
		z M150.5,364.8l-0.8,0.8l-0.8-0.8l0.8-0.8L150.5,364.8z" id="PATH_94" class="area" title=""></path>
	<path d="M156.4,362.3c-0.4,0.4-1,0.5-1.6,0.5c-0.1,0-0.2,0-0.4,0s-0.3,0-0.4,0c-0.1,0-0.2,0.1-0.3,0.2s-0.2,0.2-0.2,0.2
		c-0.1,0-0.1-0.1-0.1-0.2c0-0.1,0.1-0.3,0.2-0.5c0.1-0.3,0.2-0.4,0.3-0.4c0.1,0,0.3,0,0.6,0.1s0.5,0.1,0.6,0.1c0.6,0,1,0,1.3-0.1
		c0.2,0,0.3-0.1,0.3-0.1c0,0,0.1,0,0.1,0C156.6,362.1,156.5,362.2,156.4,362.3z M155.8,371.8c0,0.4-0.1,0.8-0.3,1.1
		c-0.1,0.2-0.2,0.3-0.2,0.3c0,0-0.1-0.1-0.1-0.4c0-1.2-0.2-4-0.6-8.5l0.8-0.8c0.1-0.1,0.1-0.1,0.1-0.1c0,0,0,0.1,0,0.2
		C155.7,364.9,155.8,367.6,155.8,371.8z" id="PATH_95" class="area" title=""></path>
</g>
<g id="G_96" class="area" title="">
	<path d="M121.1,420.2h-0.4c-0.4,0-0.6-0.1-0.8-0.2c0,0.1,0,0.2,0,0.3c0,0.9-0.3,1.8-0.9,2.7c-0.5,0.8-1,1.1-1.3,1.1
		c-0.8,0-1.4,0-2-0.1c-0.2,0-0.3-0.1-0.3-0.1s0.1-0.1,0.3-0.1c0.8-0.2,1.6-0.6,2.4-1.2c0.8-0.7,1.3-1.4,1.3-2.1c0-0.4-0.3-1-1-1.7
		l0.5-0.9c0-0.1,0.1-0.1,0.1-0.1c0,0,0.1,0.1,0.1,0.1c0.3,0.4,0.5,0.7,0.7,0.8c0.3,0.2,0.7,0.4,1.1,0.4h0.3V420.2z" id="PATH_97" class="area" title=""></path>
	<path d="M126,420.2h-0.8c-0.9,0-1.5-0.3-1.9-0.9c-0.3,0.6-1,0.9-2.1,0.9h-0.6V419h0.9c1,0,1.5-0.4,1.6-1.1c0-0.3,0.1-0.5,0.2-0.5
		c0.1,0,0.2,0.2,0.2,0.5c0.1,0.7,0.6,1.1,1.5,1.1h0.9V420.2z M122.7,422.4l-0.8,0.8l-0.8-0.8l0.8-0.8L122.7,422.4z M124.4,422.4
		l-0.8,0.8l-0.8-0.8l0.8-0.8L124.4,422.4z" id="PATH_98" class="area" title=""></path>
	<path d="M133.9,418c0,0.6-0.1,1.1-0.4,1.5c-0.3,0.4-0.8,0.7-1.3,0.7c-0.7,0-1.1-0.3-1.4-0.8c-0.4,0.6-0.8,0.8-1.4,0.8
		c-0.7,0-1.2-0.3-1.5-0.8c-0.4,0.6-0.9,0.8-1.6,0.8h-0.7V419h0.8c0.7,0,1.2-0.4,1.3-1.2c0-0.2,0.1-0.3,0.2-0.3
		c0.1,0,0.1,0.1,0.2,0.3c0.1,0.8,0.5,1.2,1.3,1.2c0.4,0,0.8-0.1,1-0.3c0.1-0.2,0.2-0.4,0.3-0.8c0-0.2,0.1-0.3,0.2-0.3
		c0.1,0,0.1,0.1,0.2,0.3c0.1,0.8,0.5,1.2,1.2,1.2c0.8,0,1.1-0.2,1.1-0.5c0-0.3-0.2-0.7-0.6-1.1l0.5-0.9c0.1-0.1,0.1-0.2,0.2-0.2
		s0.1,0.1,0.2,0.2C133.7,417.1,133.9,417.6,133.9,418z M130.5,414.4l-0.7,0.7l-0.7-0.7l0.7-0.7L130.5,414.4z M131.4,412.8l-0.7,0.7
		l-0.7-0.7l0.7-0.7L131.4,412.8z M132.3,414.4l-0.7,0.7l-0.7-0.7l0.7-0.7L132.3,414.4z" id="PATH_99" class="area" title=""></path>
	<path d="M149.8,420.2h-0.4c-0.5,0-0.9-0.1-1.1-0.3c-0.3-0.2-0.5-0.6-0.5-1c-1.1,1-2.8,1.5-5.1,1.5c-2.4,0-3.6-0.7-3.6-2.2
		c0-0.5,0.2-1,0.6-1.5c0.1-0.1,0.1-0.1,0.2-0.1c0.1,0,0.1,0,0.1,0.1c0,0,0,0.1,0,0.2c-0.1,0.3-0.2,0.6-0.2,0.9c0,1,1.1,1.5,3.3,1.5
		c2.5,0,4.2-0.5,5-1.6c0.2-0.2,0.3-0.3,0.4-0.3c0.1,0,0.1,0.1,0.1,0.2c0,0.1,0,0.2-0.1,0.4c0,0.2-0.1,0.3-0.1,0.4
		c0,0.5,0.4,0.8,1.1,0.8h0.4V420.2z M144.5,422.4l-0.8,0.8l-0.8-0.8l0.8-0.8L144.5,422.4z" id="PATH_100" class="area" title=""></path>
	<path d="M158.6,420.2h-1c-1.3,0-2-0.7-2-2c0-0.2,0-0.3,0-0.5c-0.5,0.2-1.1,0.6-1.9,1.1c-0.8,0.5-1.3,0.8-1.7,1
		c-0.6,0.3-1.3,0.4-1.9,0.4h-0.7V419h0.8c0.8,0,1.7-0.2,2.5-0.6c0.4-0.2,1.1-0.6,2.2-1.1c-0.2,0-0.8-0.2-1.8-0.4
		c-0.7-0.2-1.1-0.3-1.2-0.3c-0.4,0-0.8,0.2-1.2,0.5c-0.1,0.1-0.1,0.1-0.2,0.1c-0.1,0-0.1,0-0.1-0.1c0,0,0-0.1,0-0.1
		c0.3-1,0.9-1.5,1.7-1.5c0.3,0,0.7,0.1,1.2,0.2c0.7,0.2,1.3,0.4,1.8,0.5c0.7,0.1,1.5,0.2,2.4,0.2c0.2,0,0.2,0,0.3,0c0,0,0,0.1,0,0.2
		l-0.3,0.9c-0.6,0-1,0-1.2,0.1c0,0.5,0.1,0.8,0.2,0.9c0.2,0.3,0.6,0.5,1.3,0.5h1V420.2z M154.8,422.2L154,423l-0.8-0.8l0.8-0.8
		L154.8,422.2z" id="PATH_101" class="area" title=""></path>
	<path d="M163.8,418.2l-0.3,0.9l-2.7,0.7c-0.8,0.2-1.5,0.3-2.1,0.3h-0.5V419h0.8c0.2,0,0.4,0,0.8-0.1c-0.6-0.5-0.9-0.9-0.9-1.4
		c0-0.4,0.2-0.9,0.7-1.5c0.6-0.7,1.2-1.1,1.8-1.1c0.7,0,1.2,0.3,1.6,0.9c0.1,0.2,0.2,0.3,0.2,0.4c0,0,0,0.1-0.1,0.1
		c-0.1,0-0.2,0-0.5-0.1c-0.5-0.1-0.9-0.2-1.3-0.2c-0.3,0-0.6,0.1-1,0.3c-0.4,0.2-0.7,0.4-0.7,0.7c0,0.2,0.2,0.5,0.5,0.8
		c0.4,0.4,0.9,0.6,1.4,0.6c0.2,0,0.9-0.2,2.1-0.5c0.1,0,0.1,0,0.2,0c0,0,0,0,0,0C163.9,418.1,163.9,418.1,163.8,418.2z" id="PATH_102" class="area" title=""></path>
</g>
<g id="G_103" class="area" title="">
	<path d="M177.4,454.4c0,0.7-0.2,1.3-0.7,1.6c-0.3,0.2-0.9,0.4-1.8,0.5c-1,0.2-2,0.3-3.1,0.3c-2.6,0-4-0.7-4-2.2
		c0-0.5,0.2-1,0.6-1.5c0.1-0.1,0.1-0.2,0.2-0.2c0.1,0,0.1,0,0.1,0.1c0,0,0,0.1,0,0.2c-0.1,0.3-0.2,0.6-0.2,0.9c0,1,1.3,1.5,3.8,1.5
		c1.2,0,2.3-0.1,3.1-0.2c1-0.2,1.4-0.4,1.4-0.7c0-0.2-0.2-0.6-0.7-1.2l0.5-0.9c0.1-0.1,0.1-0.1,0.2,0
		C177.2,453.3,177.4,453.9,177.4,454.4z M173.4,458.9l-0.8,0.8l-0.8-0.8l0.8-0.8L173.4,458.9z" id="PATH_104" class="area" title=""></path>
	<path d="M181.4,456.7h-0.7c-0.7,0-1.3-0.3-1.5-0.9c-0.2-0.4-0.3-1.1-0.3-1.9v-1.9c0-0.9-0.1-2.2-0.2-3.9l0.6-0.7
		c0.1-0.1,0.2-0.1,0.2,0c0.1,0.9,0.2,2.2,0.2,3.9v2.9c0,0.8,0.4,1.2,1.2,1.2h0.5V456.7z" id="PATH_105" class="area" title=""></path>
	<path d="M186.3,456.7h-0.8c-0.9,0-1.5-0.3-1.9-0.9c-0.3,0.6-1,0.9-2.1,0.9h-0.6v-1.2h0.9c1,0,1.5-0.4,1.6-1.1
		c0-0.3,0.1-0.5,0.2-0.5c0.1,0,0.2,0.2,0.2,0.5c0.1,0.7,0.6,1.1,1.5,1.1h0.9V456.7z M184.3,451.5l-0.8,0.8l-0.8-0.8l0.8-0.8
		L184.3,451.5z" id="PATH_106" class="area" title=""></path>
	<path d="M188.7,454.7c0,1.3-0.7,2-2,2h-0.8v-1.2h0.7c1,0,1.5-0.2,1.5-0.5c0-0.3-0.2-0.7-0.7-1.2l0.4-1c0-0.1,0.1-0.1,0.1-0.1
		c0,0,0.1,0.1,0.2,0.2C188.5,453.4,188.7,454,188.7,454.7z M188.3,458.9l-0.8,0.8l-0.8-0.8l0.8-0.8L188.3,458.9z" id="PATH_107" class="area" title=""></path>
</g>
<g id="G_108" class="area" title="">
	<path d="M211.4,502.2c0.1,0.3,0.1,0.6,0.1,0.9c0,0.4-0.1,0.7-0.2,1.1c-0.3,0.7-0.8,1.3-1.8,1.7c-0.8,0.3-1.6,0.5-2.5,0.5
		c-0.9,0-1.6-0.2-2.2-0.6c-0.6-0.5-0.9-1.1-0.9-2c0-0.5,0.1-0.9,0.3-1.5c0.2-0.4,0.3-0.7,0.5-0.9c0.1-0.1,0.2-0.1,0.2-0.1
		c0.1,0,0.1,0,0.1,0.1c0,0,0,0.1,0,0.2c-0.3,0.6-0.4,1.2-0.4,1.7c0,0.5,0.2,0.9,0.5,1.3c0.4,0.5,1.1,0.7,2,0.7c1,0,1.9-0.2,2.6-0.5
		c0.6-0.3,1-0.6,1.2-1c0.1-0.1,0.1-0.3,0.1-0.4c0-0.3-0.1-0.6-0.2-1c-0.1-0.3-0.4-0.8-0.9-1.6l0.4-0.8c0.1-0.1,0.1-0.2,0.1-0.2
		s0.1,0,0.1,0.1C211,500.6,211.3,501.4,211.4,502.2z M208.4,497.9l-0.8,0.8l-0.8-0.8l0.8-0.8L208.4,497.9z" id="PATH_109" class="area" title=""></path>
	<path d="M215.4,502.3h-0.7c-0.7,0-1.3-0.3-1.5-0.9c-0.2-0.4-0.3-1.1-0.3-1.9v-1.9c0-0.9-0.1-2.2-0.2-3.9l0.6-0.7
		c0.1-0.1,0.2-0.1,0.2,0c0.1,0.9,0.2,2.2,0.2,3.9v2.9c0,0.8,0.4,1.2,1.2,1.2h0.5V502.3z" id="PATH_110" class="area" title=""></path>
	<path d="M222.3,502.3h-0.7c-0.5,0-1-0.3-1.6-0.8c-0.3-0.3-0.7-0.8-1.2-1.5c0.1,1.6-0.8,2.4-2.7,2.4H215v-1.2h1.3c1.3,0,2-0.4,2-1.1
		c0-0.4-0.2-0.9-0.7-1.5c-0.3-0.4-0.7-0.8-1.3-1.3c-0.5-0.4-0.7-0.7-0.7-0.7c0-0.7,0.1-1.2,0.3-1.5c0-0.1,0.7-0.3,2-0.8
		c1.3-0.5,2.5-0.9,3.6-1.2c0,0.1-0.1,0.5-0.3,1.1c-1.3,0.4-2.9,1-4.9,1.8c0.9,0.8,2.1,2.1,3.4,3.9c0.5,0.6,0.9,1,1.2,1.2
		c0.2,0.1,0.6,0.2,1,0.2h0.4V502.3z" id="PATH_111" class="area" title=""></path>
	<path d="M224.6,494.4c0.1,0.1,0.1,0.2,0.1,0.2c0,0-0.1,0-0.2,0h-0.3c0.1,1.3,0.1,3.2,0.1,5.7c0,0.6-0.1,1.1-0.4,1.4
		c-0.3,0.4-0.8,0.6-1.3,0.6h-0.6v-1.2h0.5c0.8,0,1.2-0.3,1.1-0.9c-0.1-2.1-0.2-4.3-0.3-6.5l0.7-0.6c0.1-0.1,0.2-0.2,0.2-0.2
		c0,0,0,0.1,0.1,0.2C224.3,493.5,224.4,493.9,224.6,494.4z" id="PATH_112" class="area" title=""></path>
	<path d="M228.6,502.3H228c-0.7,0-1.3-0.3-1.5-0.9c-0.2-0.4-0.3-1.1-0.3-1.9v-1.9c0-0.9-0.1-2.2-0.2-3.9l0.6-0.7
		c0.1-0.1,0.2-0.1,0.2,0c0.1,0.9,0.2,2.2,0.2,3.9v2.9c0,0.8,0.4,1.2,1.2,1.2h0.5V502.3z" id="PATH_113" class="area" title=""></path>
	<path d="M233.6,500.3c0,0.5,0,0.9-0.2,1.3c-0.2,0.5-0.5,0.8-0.8,0.8c-0.5,0-1.3-0.3-2.3-1c-0.3,0.4-0.5,0.6-0.6,0.7
		c-0.3,0.2-0.6,0.3-1,0.3h-0.5v-1.2h0.7c0.4,0,0.8-0.2,1.2-0.7c0.2-0.2,0.5-0.7,0.9-1.3c0.3-0.5,0.7-0.7,1-0.7
		c0.5,0,0.9,0.2,1.2,0.7C233.4,499.6,233.6,500,233.6,500.3z M233,501.1c0-0.3-0.1-0.6-0.3-1c-0.2-0.4-0.5-0.6-0.8-0.6
		c-0.3,0-0.6,0.3-1,0.9c0.2,0.2,0.5,0.4,0.9,0.6c0.4,0.2,0.8,0.3,1,0.3C232.9,501.3,233,501.2,233,501.1z" id="PATH_114" class="area" title=""></path>
</g>
<g id="G_115" class="area" title="">
	<path d="M242.5,446h-0.7c-0.9,0-1.4-0.5-1.6-1.6c-0.5,0.5-0.7,0.7-0.8,0.7h-0.9c-0.3,0-0.6,0-0.9-0.1c-0.4-0.1-0.6-0.3-0.6-0.5
		c0-0.8,0.3-1.4,0.8-1.8c0.4-0.3,1-0.6,1.8-1l-0.2-1l0.7-0.8c0,0.1,0.3,1.2,0.7,3.3c0.1,0.6,0.3,1.1,0.4,1.3
		c0.2,0.3,0.4,0.4,0.8,0.4h0.7V446z M240.1,444l-0.3-1.6c-0.3,0.1-0.7,0.3-1.2,0.5c-0.6,0.3-1,0.6-1,0.7c0,0.2,0.2,0.3,0.7,0.4
		c0.3,0.1,0.6,0.1,0.9,0.1C239.5,444,239.8,444,240.1,444z" id="PATH_116" class="area" title=""></path>
	<path d="M247.8,444l-0.3,0.9c-0.8,0.2-1.6,0.4-2.4,0.7c-0.9,0.2-1.8,0.4-2.4,0.4h-0.5v-1.2h0.8c0.4,0,0.6,0,0.8-0.1
		c-0.2-0.1-0.3-0.3-0.4-0.4c-0.3-0.3-0.4-0.6-0.4-1c0-0.3,0.1-0.6,0.4-1.1c0.7-1,1.3-1.5,2.1-1.5c0.7,0,1.2,0.3,1.6,0.9
		c0.1,0.2,0.2,0.3,0.2,0.4c0,0,0,0.1-0.1,0.1c-0.1,0-0.3,0-0.5-0.1c-0.3-0.1-0.5-0.1-0.6-0.1c-0.2,0-0.4,0-0.6-0.1
		c-0.3,0-0.6,0.1-1,0.3c-0.4,0.2-0.7,0.4-0.7,0.7c0,0.2,0.2,0.5,0.5,0.8c0.4,0.4,0.9,0.6,1.4,0.6c0.2,0,0.7-0.1,1.3-0.3l0.8-0.2
		c0,0,0.1,0,0.2,0c0,0,0,0,0,0C247.9,443.9,247.9,443.9,247.8,444z M246,438.1l-0.8,0.8l-0.8-0.8l0.8-0.8L246,438.1z" id="PATH_117" class="area" title=""></path>
	<path d="M250.2,444.8c0,0.4-0.1,0.8-0.3,1.1c-0.1,0.2-0.2,0.3-0.2,0.3c0,0-0.1-0.1-0.1-0.4c0-1.2-0.2-4-0.6-8.5l0.8-0.8
		c0.1-0.1,0.1-0.1,0.1-0.1c0,0,0,0.1,0,0.2C250.2,437.9,250.2,440.6,250.2,444.8z" id="PATH_118" class="area" title=""></path>
	<path d="M256.4,446H256c-0.4,0-0.6-0.1-0.8-0.2c0,0.1,0,0.2,0,0.3c0,0.9-0.3,1.8-0.9,2.7c-0.5,0.8-1,1.1-1.3,1.1
		c-0.8,0-1.4,0-2-0.1c-0.2,0-0.3-0.1-0.3-0.1s0.1-0.1,0.3-0.1c0.8-0.2,1.6-0.6,2.4-1.2c0.8-0.7,1.3-1.4,1.3-2.1c0-0.4-0.3-1-1-1.7
		l0.5-0.9c0-0.1,0.1-0.1,0.1-0.1c0,0,0.1,0.1,0.1,0.1c0.3,0.4,0.5,0.7,0.7,0.8c0.3,0.2,0.7,0.4,1.1,0.4h0.3V446z" id="PATH_119" class="area" title=""></path>
	<path d="M261.4,444c0,0.5,0,0.9-0.2,1.3c-0.2,0.5-0.5,0.8-0.8,0.8c-0.5,0-1.3-0.3-2.3-1c-0.3,0.4-0.5,0.6-0.6,0.7
		c-0.3,0.2-0.6,0.3-1,0.3H256v-1.2h0.7c0.4,0,0.8-0.2,1.2-0.7c0.2-0.2,0.5-0.7,0.9-1.3c0.3-0.5,0.7-0.7,1-0.7c0.5,0,0.9,0.2,1.2,0.7
		C261.2,443.3,261.4,443.6,261.4,444z M260.8,444.7c0-0.3-0.1-0.6-0.3-1c-0.2-0.4-0.5-0.6-0.8-0.6c-0.3,0-0.6,0.3-1,0.9
		c0.2,0.2,0.5,0.4,0.9,0.6c0.4,0.2,0.8,0.3,1,0.3C260.7,445,260.8,444.9,260.8,444.7z" id="PATH_120" class="area" title=""></path>
</g>
<g id="G_121" class="area" title="">
	<path d="M358.1,510c0,0.1,0,0.4,0,0.7c0,0.8-0.1,1.3-0.2,1.7c-0.3,0.7-0.9,1.2-1.8,1.6c-0.7,0.3-1.5,0.5-2.4,0.5
		c-2.3,0-3.4-0.9-3.4-2.6c0-0.4,0.1-0.9,0.3-1.4c0.1-0.4,0.3-0.8,0.5-1c0.1-0.1,0.2-0.2,0.3-0.2c0.1,0,0.1,0,0.1,0.1
		c0,0.1,0,0.2-0.1,0.3c-0.3,0.6-0.4,1.1-0.4,1.6c0,0.7,0.3,1.2,0.9,1.5c0.5,0.3,1.1,0.5,1.8,0.5c0.8,0,1.6-0.1,2.2-0.3
		c0.9-0.3,1.5-0.7,1.7-1.3c0-0.1,0.1-0.2,0.1-0.4c0-0.2,0-0.5-0.1-1c-0.4,0.1-0.8,0.1-1.4,0.1c-1,0-1.4-0.4-1.4-1.2
		c0-0.5,0.1-1,0.4-1.6c0.3-0.6,0.7-0.9,1.2-1c0.4,0,0.8,0.2,1.2,0.8C357.9,508,358.1,508.9,358.1,510z M356,504.4l-0.8,0.8l-0.8-0.8
		l0.8-0.8L356,504.4z M357.3,509c0-0.3-0.1-0.6-0.4-0.8c-0.2-0.2-0.5-0.4-0.8-0.4c-0.2,0-0.4,0.1-0.5,0.2s-0.2,0.3-0.2,0.5
		c0,0.4,0.3,0.6,1,0.6C356.6,509.2,356.9,509.1,357.3,509z M357.7,504.4l-0.8,0.8l-0.8-0.8l0.8-0.8L357.7,504.4z" id="PATH_122" class="area" title=""></path>
	<path d="M362.1,510.3h-0.7c-0.7,0-1.3-0.3-1.5-0.9c-0.2-0.4-0.3-1.1-0.3-1.9v-1.9c0-0.9-0.1-2.2-0.2-3.9l0.6-0.7
		c0.1-0.1,0.2-0.1,0.2,0c0.1,0.9,0.2,2.2,0.2,3.9v2.9c0,0.8,0.4,1.2,1.2,1.2h0.5V510.3z" id="PATH_123" class="area" title=""></path>
	<path d="M369.2,510.3h-0.6c-0.5,0-1-0.3-1.4-0.8c-0.3,0.8-0.6,1.2-0.9,1.2c-0.3,0-0.8-0.2-1.4-0.5c-0.5-0.3-0.9-0.6-1.1-0.8
		c-0.5,0.6-1,0.9-1.5,0.9h-0.6v-1.2h0.6c0.5,0,0.9-0.2,1.3-0.6c0.3-0.3,0.6-0.7,1-1.1c0.4-0.4,0.7-0.6,1-0.6c0.4,0,0.7,0.2,1,0.6
		c0.2,0.2,0.4,0.6,0.9,1.1c0.3,0.4,0.7,0.6,1.1,0.6h0.6V510.3z M366.5,509.5c0-0.3-0.1-0.6-0.3-1c-0.2-0.4-0.5-0.6-0.9-0.6
		c-0.3,0-0.7,0.3-1.1,0.8c0.1,0.1,0.4,0.3,0.9,0.6c0.5,0.3,0.9,0.4,1.2,0.4C366.5,509.7,366.5,509.6,366.5,509.5z" id="PATH_124" class="area" title=""></path>
	<path d="M371.6,508.3c0,1.3-0.7,2-2,2h-0.8v-1.2h0.7c1,0,1.5-0.2,1.5-0.5c0-0.3-0.2-0.7-0.7-1.2l0.4-1c0-0.1,0.1-0.1,0.1-0.1
		s0.1,0.1,0.2,0.2C371.4,507.1,371.6,507.7,371.6,508.3z M370.8,512.5l-0.8,0.8l-0.8-0.8l0.8-0.8L370.8,512.5z M372.5,512.5
		l-0.8,0.8l-0.8-0.8l0.8-0.8L372.5,512.5z" id="PATH_125" class="area" title=""></path>
	<path d="M374.9,509.1c0,0.4-0.1,0.8-0.3,1.1c-0.1,0.2-0.2,0.3-0.2,0.3c0,0-0.1-0.1-0.1-0.4c0-1.2-0.2-4-0.6-8.5l0.8-0.8
		c0.1-0.1,0.1-0.1,0.1-0.1c0,0,0,0.1,0,0.2C374.9,502.3,374.9,505,374.9,509.1z" id="PATH_126" class="area" title=""></path>
	<path d="M380.1,509.9c0,1.5-0.5,2.8-1.5,3.8c-0.3,0.3-0.5,0.5-0.6,0.5c-0.6,0-1.2-0.1-1.9-0.2c-0.3,0-0.4-0.1-0.4-0.1
		c0,0,0.1-0.1,0.4-0.2c0.8-0.2,1.6-0.7,2.3-1.3c0.3-0.3,0.6-0.5,0.8-0.9c0.3-0.4,0.5-0.8,0.5-1.1v-0.3l-1.3,0
		c-0.9,0-1.4-0.4-1.4-1.1c0-0.5,0.1-1,0.4-1.6c0.3-0.6,0.7-1,1.1-1c0.6,0,1.1,0.4,1.4,1.3C380,508.5,380.1,509.2,380.1,509.9z
		 M379.3,509.1c0-0.3-0.1-0.6-0.3-0.9c-0.2-0.3-0.5-0.5-0.8-0.5c-0.2,0-0.4,0.1-0.5,0.2s-0.2,0.3-0.2,0.5c0,0.5,0.3,0.7,1,0.7
		C378.6,509.2,379,509.2,379.3,509.1z" id="PATH_127" class="area" title=""></path>
	<path d="M385.1,510.4c0,1-0.3,1.9-0.9,2.8c-0.5,0.7-1,1.1-1.3,1.1c-0.8,0-1.4,0-2-0.1c-0.2,0-0.3-0.1-0.3-0.1s0.1-0.1,0.3-0.1
		c0.8-0.2,1.6-0.6,2.4-1.2c0.8-0.7,1.3-1.4,1.3-2.1c0-0.4-0.3-1-1-1.7l0.5-0.9c0-0.1,0.1-0.1,0.1-0.1c0,0,0.1,0.1,0.1,0.1
		c0.2,0.3,0.5,0.7,0.6,1.2C385,509.6,385.1,510.1,385.1,510.4z" id="PATH_128" class="area" title=""></path>
	<path d="M389.1,510.3h-0.7c-0.7,0-1.3-0.3-1.5-0.9c-0.2-0.4-0.3-1.1-0.3-1.9v-1.9c0-0.9-0.1-2.2-0.2-3.9l0.6-0.7
		c0.1-0.1,0.2-0.1,0.2,0c0.1,0.9,0.2,2.2,0.2,3.9v2.9c0,0.8,0.4,1.2,1.2,1.2h0.5V510.3z" id="PATH_129" class="area" title=""></path>
	<path d="M396.9,507.4l-0.4,0.8c-0.7,0-1.3,0-1.6,0.1c-0.4,0.2-1,0.4-1.8,0.8c-0.8,0.4-1.4,0.7-1.8,0.8c-0.6,0.2-1.3,0.3-1.9,0.3
		h-0.7v-1.2h0.8c0.9,0,1.7-0.2,2.4-0.5l2.3-1c-0.4-0.1-1-0.3-1.8-0.6c-0.7-0.3-1.1-0.4-1.3-0.4c-0.4,0-0.8,0.2-1.2,0.5
		c-0.1,0.1-0.1,0.1-0.2,0.1c-0.1,0-0.1,0-0.1-0.1c0,0,0-0.1,0-0.1c0.3-1,0.9-1.4,1.7-1.4c0.3,0,0.7,0.1,1.1,0.3
		c0.8,0.4,1.4,0.6,1.8,0.8c0.7,0.2,1.5,0.4,2.4,0.4c0.2,0,0.3,0,0.3,0.1C397,507.2,397,507.3,396.9,507.4z M391.3,512.2l0.7-0.7
		l0.7,0.7l-0.7,0.7L391.3,512.2z M392.2,513.8l0.7-0.7l0.7,0.7l-0.7,0.7L392.2,513.8z M393.1,512.2l0.7-0.7l0.7,0.7l-0.7,0.7
		L393.1,512.2z" id="PATH_130" class="area" title=""></path>
</g>
<g id="G_131" class="area" title="">
	<path d="M326,421.1c0,1.4-0.9,2.1-2.8,2.1c-0.7,0-1.2-0.1-1.5-0.3c-0.4-0.2-0.6-0.7-0.6-1.3c0-0.3,0.1-0.6,0.2-0.9
		c0.1-0.1,0.1-0.2,0.2-0.2c0.1,0,0.1,0.1,0.1,0.3c0,0.1,0,0.2,0,0.3c0,0.4,0.2,0.7,0.6,0.8c0.2,0.1,0.6,0.1,1.1,0.1
		c1.5,0,2.2-0.2,2.2-0.7c0-0.7-0.9-1.7-2.6-2.9l0.3-1c0-0.1,0.1-0.1,0.1-0.1c0,0,0.1,0,0.2,0.1C325.2,418.7,326,420,326,421.1z" id="PATH_132" class="area" title=""></path>
	<path d="M331.2,422.8c0,1.5-0.5,2.8-1.5,3.8c-0.3,0.3-0.5,0.5-0.6,0.5c-0.6,0-1.2-0.1-1.9-0.2c-0.3,0-0.4-0.1-0.4-0.1
		c0,0,0.1-0.1,0.4-0.2c0.8-0.2,1.6-0.7,2.3-1.3c0.3-0.3,0.6-0.5,0.8-0.9c0.3-0.4,0.5-0.8,0.5-1.1v-0.3l-1.3,0
		c-0.9,0-1.4-0.4-1.4-1.1c0-0.5,0.1-1,0.4-1.6c0.3-0.6,0.7-1,1.1-1c0.6,0,1.1,0.4,1.4,1.3C331.1,421.4,331.2,422,331.2,422.8z
		 M330.5,422c0-0.3-0.1-0.6-0.3-0.9c-0.2-0.3-0.5-0.5-0.8-0.5c-0.2,0-0.4,0.1-0.5,0.2s-0.2,0.3-0.2,0.5c0,0.5,0.3,0.7,1,0.7
		C329.8,422.1,330.1,422,330.5,422z" id="PATH_133" class="area" title=""></path>
	<path d="M337.4,423.2H337c-0.4,0-0.6-0.1-0.8-0.2c0,0.1,0,0.2,0,0.3c0,0.9-0.3,1.8-0.9,2.7c-0.5,0.8-1,1.1-1.3,1.1
		c-0.8,0-1.4,0-2-0.1c-0.2,0-0.3-0.1-0.3-0.1s0.1-0.1,0.3-0.1c0.8-0.2,1.6-0.6,2.4-1.2c0.8-0.7,1.3-1.4,1.3-2.1c0-0.4-0.3-1-1-1.7
		l0.5-0.9c0-0.1,0.1-0.1,0.1-0.1c0,0,0.1,0.1,0.1,0.1c0.3,0.4,0.5,0.7,0.7,0.8c0.3,0.2,0.7,0.4,1.1,0.4h0.3V423.2z" id="PATH_134" class="area" title=""></path>
	<path d="M342.3,423.2h-0.8c-0.9,0-1.5-0.3-1.9-0.9c-0.3,0.6-1,0.9-2.1,0.9H337v-1.2h0.9c1,0,1.5-0.4,1.6-1.1c0-0.3,0.1-0.5,0.2-0.5
		s0.2,0.2,0.2,0.5c0.1,0.7,0.6,1.1,1.5,1.1h0.9V423.2z M338.9,417.4l-0.8,0.8l-0.8-0.8l0.8-0.8L338.9,417.4z M340.7,417.4l-0.8,0.8
		l-0.8-0.8l0.8-0.8L340.7,417.4z" id="PATH_135" class="area" title=""></path>
	<path d="M351.6,423.2H351c-0.7,0-1.1-0.3-1.4-0.8c-0.2,0.6-0.7,0.8-1.3,0.8c-0.6,0-1-0.3-1.3-0.8c-0.3,0.6-0.7,0.8-1.3,0.8
		c-0.7,0-1.2-0.3-1.5-0.8c-0.4,0.6-0.9,0.8-1.6,0.8h-0.7v-1.2h0.8c0.7,0,1.2-0.4,1.3-1.2c0-0.2,0.1-0.3,0.2-0.3
		c0.1,0,0.1,0.1,0.2,0.3c0.1,0.8,0.5,1.2,1.3,1.2c0.7,0,1.2-0.4,1.2-1.2c0-0.2,0.1-0.3,0.2-0.3c0.1,0,0.2,0.1,0.2,0.3
		c0.1,0.8,0.5,1.2,1,1.2c0.7,0,1.2-0.4,1.2-1.2c0-0.2,0.1-0.3,0.2-0.3c0.1,0,0.2,0.1,0.2,0.3c0.1,0.8,0.5,1.2,1.2,1.2h0.6V423.2z
		 M346.9,418.2l-0.7,0.7l-0.7-0.7l0.7-0.7L346.9,418.2z M347.8,416.6l-0.7,0.7l-0.7-0.7l0.7-0.7L347.8,416.6z M348.7,418.2l-0.7,0.7
		l-0.7-0.7l0.7-0.7L348.7,418.2z" id="PATH_136" class="area" title=""></path>
	<path d="M357.7,421.2c0,0.4-0.1,0.8-0.4,1.2c-0.3,0.5-0.6,0.7-1,0.7c-0.3,0-1-0.2-2.1-0.7c-0.9,0.6-1.7,0.8-2.4,0.8h-0.5v-1.2h0.6
		c0.4,0,0.8,0,1.2-0.1c-0.4-0.3-0.6-0.7-0.6-1.2c0-0.6,0.4-1.3,1.3-2l-0.7-0.3c0.2-0.2,0.5-0.5,0.9-0.9c0.9,0.5,1.7,0.9,2.4,1.5
		C357.2,419.8,357.7,420.5,357.7,421.2z M355,420.4c0-0.3-0.1-0.5-0.2-0.7c-0.1-0.3-0.3-0.4-0.6-0.4c-0.3,0-0.5,0.1-0.8,0.3
		c-0.3,0.2-0.5,0.5-0.5,0.7c0,0.4,0.4,0.8,1.1,1c0.2-0.1,0.4-0.2,0.6-0.3C354.9,420.8,355,420.6,355,420.4z M357.1,421.6
		c0-0.3-0.2-0.6-0.6-1c-0.3-0.3-0.6-0.6-0.9-0.7c0,0.8-0.2,1.4-0.7,1.8c0.8,0.3,1.4,0.4,1.6,0.4
		C356.9,422.1,357.1,421.9,357.1,421.6z" id="PATH_137" class="area" title=""></path>
</g>
<g id="G_138" class="area" title="">
	<path d="M297.5,355.9c0,1.4-0.9,2.1-2.8,2.1c-0.7,0-1.2-0.1-1.5-0.3c-0.4-0.2-0.6-0.7-0.6-1.3c0-0.3,0.1-0.6,0.2-0.9
		c0.1-0.1,0.1-0.2,0.2-0.2c0.1,0,0.1,0.1,0.1,0.3c0,0.1,0,0.2,0,0.3c0,0.4,0.2,0.7,0.6,0.8c0.2,0.1,0.6,0.1,1.1,0.1
		c1.5,0,2.2-0.2,2.2-0.7c0-0.7-0.9-1.7-2.6-2.9l0.3-1c0-0.1,0.1-0.1,0.1-0.1c0,0,0.1,0,0.2,0.1C296.7,353.5,297.5,354.8,297.5,355.9
		z" id="PATH_139" class="area" title=""></path>
	<path d="M301.5,358h-0.7c-0.7,0-1.3-0.3-1.5-0.9c-0.2-0.4-0.3-1.1-0.3-1.9v-1.9c0-0.9-0.1-2.2-0.2-3.9l0.6-0.7
		c0.1-0.1,0.2-0.1,0.2,0c0.1,0.9,0.2,2.2,0.2,3.9v2.9c0,0.8,0.4,1.2,1.2,1.2h0.5V358z" id="PATH_140" class="area" title=""></path>
	<path d="M303.9,356c0,1.3-0.7,2-2,2h-0.8v-1.2h0.7c1,0,1.5-0.2,1.5-0.5c0-0.3-0.2-0.7-0.7-1.2l0.4-1c0-0.1,0.1-0.1,0.1-0.1
		c0,0,0.1,0.1,0.2,0.2C303.7,354.7,303.9,355.4,303.9,356z M303.6,360.2l-0.8,0.8l-0.8-0.8l0.8-0.8L303.6,360.2z" id="PATH_141" class="area" title=""></path>
	<path d="M307.9,347.3c-0.4,0.4-1,0.5-1.6,0.5c-0.1,0-0.2,0-0.4,0s-0.3,0-0.4,0c-0.1,0-0.2,0.1-0.3,0.2s-0.2,0.2-0.2,0.2
		c-0.1,0-0.1-0.1-0.1-0.2c0-0.1,0.1-0.3,0.2-0.5c0.1-0.3,0.2-0.4,0.3-0.4c0.1,0,0.3,0,0.6,0.1s0.5,0.1,0.6,0.1c0.6,0,1,0,1.3-0.1
		c0.2,0,0.3-0.1,0.3-0.1c0,0,0.1,0,0.1,0C308.1,347.1,308.1,347.2,307.9,347.3z M307.3,356.8c0,0.4-0.1,0.8-0.3,1.1
		c-0.1,0.2-0.2,0.3-0.2,0.3c0,0-0.1-0.1-0.1-0.4c0-1.2-0.2-4-0.6-8.5l0.8-0.8c0.1-0.1,0.1-0.1,0.1-0.1c0,0,0,0.1,0,0.2
		C307.3,349.9,307.3,352.6,307.3,356.8z" id="PATH_142" class="area" title=""></path>
	<path d="M320.4,357.9c0.1,0.3,0.1,0.6,0.1,0.9c0,0.4-0.1,0.7-0.2,1.1c-0.3,0.7-0.8,1.3-1.8,1.7c-0.8,0.3-1.6,0.5-2.5,0.5
		c-0.9,0-1.6-0.2-2.2-0.6c-0.6-0.5-0.9-1.1-0.9-2c0-0.5,0.1-0.9,0.3-1.5c0.2-0.4,0.3-0.7,0.5-0.9c0.1-0.1,0.2-0.1,0.2-0.1
		c0.1,0,0.1,0,0.1,0.1c0,0,0,0.1,0,0.2c-0.3,0.6-0.4,1.2-0.4,1.7c0,0.5,0.2,0.9,0.5,1.3c0.4,0.5,1.1,0.7,2,0.7c1,0,1.9-0.2,2.6-0.5
		c0.6-0.3,1-0.6,1.2-1c0.1-0.1,0.1-0.3,0.1-0.4c0-0.3-0.1-0.6-0.2-1c-0.1-0.3-0.4-0.8-0.9-1.6l0.4-0.8c0.1-0.1,0.1-0.2,0.1-0.2
		s0.1,0,0.1,0.1C320,356.3,320.3,357.1,320.4,357.9z M317.5,353.5l-0.8,0.8l-0.8-0.8l0.8-0.8L317.5,353.5z" id="PATH_143" class="area" title=""></path>
	<path d="M324.5,358h-0.7c-0.7,0-1.3-0.3-1.5-0.9c-0.2-0.4-0.3-1.1-0.3-1.9v-1.9c0-0.9-0.1-2.2-0.2-3.9l0.6-0.7
		c0.1-0.1,0.2-0.1,0.2,0c0.1,0.9,0.2,2.2,0.2,3.9v2.9c0,0.8,0.4,1.2,1.2,1.2h0.5V358z" id="PATH_144" class="area" title=""></path>
	<path d="M329.4,358h-0.8c-0.9,0-1.5-0.3-1.9-0.9c-0.3,0.6-1,0.9-2.1,0.9h-0.6v-1.2h0.9c1,0,1.5-0.4,1.6-1.1c0-0.3,0.1-0.5,0.2-0.5
		c0.1,0,0.2,0.2,0.2,0.5c0.1,0.7,0.6,1.1,1.5,1.1h0.9V358z M326,352.2l-0.8,0.8l-0.8-0.8l0.8-0.8L326,352.2z M327.7,352.2l-0.8,0.8
		l-0.8-0.8l0.8-0.8L327.7,352.2z" id="PATH_145" class="area" title=""></path>
	<path d="M338.6,358h-0.6c-0.7,0-1.1-0.3-1.4-0.8c-0.2,0.6-0.7,0.8-1.3,0.8c-0.6,0-1-0.3-1.3-0.8c-0.3,0.6-0.7,0.8-1.3,0.8
		c-0.7,0-1.2-0.3-1.5-0.8c-0.4,0.6-0.9,0.8-1.6,0.8H329v-1.2h0.8c0.7,0,1.2-0.4,1.3-1.2c0-0.2,0.1-0.3,0.2-0.3
		c0.1,0,0.1,0.1,0.2,0.3c0.1,0.8,0.5,1.2,1.3,1.2c0.7,0,1.2-0.4,1.2-1.2c0-0.2,0.1-0.3,0.2-0.3c0.1,0,0.2,0.1,0.2,0.3
		c0.1,0.8,0.5,1.2,1,1.2c0.7,0,1.2-0.4,1.2-1.2c0-0.2,0.1-0.3,0.2-0.3c0.1,0,0.2,0.1,0.2,0.3c0.1,0.8,0.5,1.2,1.2,1.2h0.6V358z" id="PATH_146" class="area" title=""></path>
	<path d="M341,356c0,1.3-0.7,2-2,2h-0.8v-1.2h0.7c1,0,1.5-0.2,1.5-0.5c0-0.3-0.2-0.7-0.7-1.2l0.4-1c0-0.1,0.1-0.1,0.1-0.1
		s0.1,0.1,0.2,0.2C340.8,354.7,341,355.4,341,356z M340.7,360.2l-0.8,0.8l-0.8-0.8l0.8-0.8L340.7,360.2z" id="PATH_147" class="area" title=""></path>
</g>
<g id="G_148" class="area" title="">
	<path d="M471.4,438.3h-0.7c-0.9,0-1.4-0.5-1.6-1.6c-0.5,0.5-0.7,0.7-0.8,0.7h-0.9c-0.3,0-0.6,0-0.9-0.1c-0.4-0.1-0.6-0.3-0.6-0.5
		c0-0.8,0.3-1.4,0.8-1.8c0.4-0.3,1-0.6,1.8-1l-0.2-1l0.7-0.8c0,0.1,0.3,1.2,0.7,3.3c0.1,0.6,0.3,1.1,0.4,1.3
		c0.2,0.3,0.4,0.4,0.8,0.4h0.7V438.3z M468.9,436.3l-0.3-1.6c-0.3,0.1-0.7,0.3-1.2,0.5c-0.6,0.3-1,0.6-1,0.7c0,0.2,0.2,0.3,0.7,0.4
		c0.3,0.1,0.6,0.1,0.9,0.1C468.4,436.4,468.7,436.3,468.9,436.3z" id="PATH_149" class="area" title=""></path>
	<path d="M473.8,436.3c0,1.3-0.7,2-2,2H471v-1.2h0.7c1,0,1.5-0.2,1.5-0.5c0-0.3-0.2-0.7-0.7-1.2l0.4-1c0-0.1,0.1-0.1,0.1-0.1
		s0.1,0.1,0.2,0.2C473.6,435.1,473.8,435.7,473.8,436.3z M473.7,431.8l-0.8,0.8l-0.8-0.8l0.8-0.8L473.7,431.8z" id="PATH_150" class="area" title=""></path>
	<path d="M477.8,438.3h-0.7c-0.7,0-1.3-0.3-1.5-0.9c-0.2-0.4-0.3-1.1-0.3-1.9v-1.9c0-0.9-0.1-2.2-0.2-3.9l0.6-0.7
		c0.1-0.1,0.2-0.1,0.2,0c0.1,0.9,0.2,2.2,0.2,3.9v2.9c0,0.8,0.4,1.2,1.2,1.2h0.5V438.3z" id="PATH_151" class="area" title=""></path>
	<path d="M482.7,438.3h-0.8c-0.9,0-1.5-0.3-1.9-0.9c-0.3,0.6-1,0.9-2.1,0.9h-0.6v-1.2h0.9c1,0,1.5-0.4,1.6-1.1
		c0-0.3,0.1-0.5,0.2-0.5s0.2,0.2,0.2,0.5c0.1,0.7,0.6,1.1,1.5,1.1h0.9V438.3z M479.4,440.5l-0.8,0.8l-0.8-0.8l0.8-0.8L479.4,440.5z
		 M481.1,440.5l-0.8,0.8l-0.8-0.8l0.8-0.8L481.1,440.5z" id="PATH_152" class="area" title=""></path>
	<path d="M487.7,436.3c0,0.5,0,0.9-0.2,1.3c-0.2,0.5-0.5,0.8-0.8,0.8c-0.5,0-1.3-0.3-2.3-1c-0.3,0.4-0.5,0.6-0.6,0.7
		c-0.3,0.2-0.6,0.3-1,0.3h-0.5v-1.2h0.7c0.4,0,0.8-0.2,1.2-0.7c0.2-0.2,0.5-0.7,0.9-1.3c0.3-0.5,0.7-0.7,1-0.7
		c0.5,0,0.9,0.2,1.2,0.7C487.5,435.6,487.6,436,487.7,436.3z M487.1,437.1c0-0.3-0.1-0.6-0.3-1c-0.2-0.4-0.5-0.6-0.8-0.6
		c-0.3,0-0.6,0.3-1,0.9c0.2,0.2,0.5,0.4,0.9,0.6s0.8,0.3,1,0.3C487,437.3,487.1,437.2,487.1,437.1z" id="PATH_153" class="area" title=""></path>
</g>
<g id="G_154" class="area" title="">
	<path d="M442.2,311.1c0,0.7-0.2,1.3-0.7,1.6c-0.3,0.2-0.9,0.4-1.8,0.5c-1,0.2-2,0.3-3.1,0.3c-2.6,0-4-0.7-4-2.2
		c0-0.5,0.2-1,0.6-1.5c0.1-0.1,0.1-0.2,0.2-0.2s0.1,0,0.1,0.1c0,0,0,0.1,0,0.2c-0.1,0.3-0.2,0.6-0.2,0.9c0,1,1.3,1.5,3.8,1.5
		c1.2,0,2.3-0.1,3.1-0.2c1-0.2,1.4-0.4,1.4-0.7c0-0.2-0.2-0.6-0.7-1.2l0.5-0.9c0.1-0.1,0.1-0.1,0.2,0
		C441.9,310,442.2,310.6,442.2,311.1z M438.2,315.6l-0.8,0.8l-0.8-0.8l0.8-0.8L438.2,315.6z" id="PATH_155" class="area" title=""></path>
	<path d="M444.5,312.1c0,0.4-0.1,0.8-0.3,1.1c-0.1,0.2-0.2,0.3-0.2,0.3c0,0-0.1-0.1-0.1-0.4c0-1.2-0.2-4-0.6-8.5l0.8-0.8
		c0.1-0.1,0.1-0.1,0.1-0.1c0,0,0,0.1,0,0.2C444.5,305.3,444.5,308,444.5,312.1z" id="PATH_156" class="area" title=""></path>
	<path d="M450.7,313.3h-0.4c-0.4,0-0.6-0.1-0.8-0.2c0,0.1,0,0.2,0,0.3c0,0.9-0.3,1.8-0.9,2.7c-0.5,0.8-1,1.1-1.3,1.1
		c-0.8,0-1.4,0-2-0.1c-0.2,0-0.3-0.1-0.3-0.1s0.1-0.1,0.3-0.1c0.8-0.2,1.6-0.6,2.4-1.2c0.8-0.7,1.3-1.4,1.3-2.1c0-0.4-0.3-1-1-1.7
		l0.5-0.9c0-0.1,0.1-0.1,0.1-0.1c0,0,0.1,0.1,0.1,0.1c0.3,0.4,0.5,0.7,0.7,0.8c0.3,0.2,0.7,0.4,1.1,0.4h0.3V313.3z" id="PATH_157" class="area" title=""></path>
	<path d="M458.6,311.2c0,0.6-0.1,1.1-0.4,1.5c-0.3,0.4-0.8,0.7-1.3,0.7c-0.7,0-1.1-0.3-1.4-0.8c-0.4,0.6-0.8,0.8-1.4,0.8
		c-0.7,0-1.2-0.3-1.5-0.8c-0.4,0.6-0.9,0.8-1.6,0.8h-0.7v-1.2h0.8c0.7,0,1.2-0.4,1.3-1.2c0-0.2,0.1-0.3,0.2-0.3
		c0.1,0,0.1,0.1,0.2,0.3c0.1,0.8,0.5,1.2,1.3,1.2c0.4,0,0.8-0.1,1-0.3c0.1-0.2,0.2-0.4,0.3-0.8c0-0.2,0.1-0.3,0.2-0.3
		c0.1,0,0.1,0.1,0.2,0.3c0.1,0.8,0.5,1.2,1.2,1.2c0.8,0,1.1-0.2,1.1-0.5c0-0.3-0.2-0.7-0.6-1.1l0.5-0.9c0.1-0.1,0.1-0.2,0.2-0.2
		s0.1,0.1,0.2,0.2C458.5,310.2,458.6,310.8,458.6,311.2z" id="PATH_158" class="area" title=""></path>
</g>
</svg>

