



    


<svg version="1.1" id="Layer_1" xmlns="http://www.w3.org/2000/svg" xmlns:xlink="http://www.w3.org/1999/xlink" x="0px" y="0px" viewBox="0 0 483.9 642" style="enable-background:new 0 0 483.9 642;" xml:space="preserve" width="100%" height="100%">
<style type="text/css">
	.st0{fill:#FDFAD6;stroke:#020202;stroke-width:0.2;stroke-miterlimit:10;}
	.st1{fill:#E8D0E5;stroke:#020202;stroke-width:0.2;stroke-miterlimit:10;}
	.st2{fill:#DBECCB;stroke:#020202;stroke-width:0.2;stroke-miterlimit:10;}
	.st3{fill:#FBD1D1;stroke:#020202;stroke-width:0.2;stroke-miterlimit:10;}
	.st4{fill:none;stroke:#040404;stroke-width:0.5;stroke-miterlimit:10;}
</style>
		<path class="st0 area" d="M51.4,86.3c-0.9,0.4,0.4,2.2,1.3,3.1c4,2.7,9.8,1.8,11.6,6.7c1.3,3.6-3.6,8.4-0.4,9.8
			c8.9,4.9,19.6,0.4,28.4,8.4c1.8,1.8,7.6,0,6.2-2.7c-1.8-3.1-4-6.2-1.3-9.3c5.8-5.8,17.8-5.8,16.9-16.9c-0.4-2.7,3.6-3.1,6.2-4
			c1.3-0.4,1.3-2.2,1.3-3.6c1.3-5.3-0.9-11.1,1.8-16c0.9-1.8,3.6-4,4-5.8c0.7-6.7,2.2-12.5,6.6-16.6l-2.3-1.5l0.5-0.5l0.5-0.7
			l-3-0.2l-3.1-0.5l-2.6-1.2l-0.2-0.5l-11.3-7.5l-2.6-2.1l-8.2-3.3l-1.9-2.1L96,14.2L93.9,13l-3.3,0.9L75.8,24.7l-0.5,1.9L76,32
			l-0.5,2.3l-0.7,2.1l-4.7,8.5l-0.5,2.1l-0.2,2.8l0.2,2.1l0.5,2.1L69.9,56l-1.2,2.1h-0.2L68,61.6l0.5,3.1l-0.2,3.1l-2.1,3.1
			l-2.8,1.9l-7,2.8l-1.8,0.4c0.1,2.1,1.5,3.9,3.1,5.5C58.9,83.1,53.6,84.9,51.4,86.3z" id="_x645__x627__x6A9__x648_" title="ماکو"></path>
		<path class="st1 area" d="M120.3,86.7c0,0.9,1.8,1.8,2.2,1.8c5.8,0,10.7,2.2,13.3,6.7c1.8,3.1-1.8,7.1-0.4,8.9
			c4.9,4.9,17.8,4,14.7,14.2c-0.9,3.6-4.4,6.2-6.7,9.8c-0.4,0.9-0.4,2.2,0,3.1c4,4.4,7.6,7.1,9.3,12.9c0.4,1.3,2.7,1.3,3.6,0.9
			c1.8-1.8,3.6-4.4,5.3-4c8.4,1.8,17.8,4.9,21.3,14.2c1.4,2.9,3.7,4.3,6.3,4.7l0-0.3c0.8-5.7,1.7-12.1,6.8-16.3
			c4.6-3.9,10.9-9.3,10.9-9.4c0.5-0.4,1.1-0.5,1.7-0.3l0.2-1l0.7-1.4l0.2-1.6l-0.7-0.9l-3.3-1.4l-1.2-0.9l-0.7-1.4l-1.2-3.5
			l-0.5-1.2l-1.4-1.4l-1.2-0.7l-1.2-0.7l-0.9-1.6l1.2-2.4l-0.7-1.9l-1.9-0.9l-1.9-0.5l-1.4-0.5v-1.4l0.2-1.6l-0.2-0.9l-1.4-0.2
			l-1.2,0.5l-0.9,0.7l-0.5,0.2l-14.1-4.2l-3.8,0.9l-0.9-2.3l-1.4-8.2l-0.9-1.6l-1.2-1.6l-3.3-6.8l-1.2-1.6l-1.2-0.5l-1.4-1.6
			l-1.2-1.6l-0.5-1.2l-0.7-0.9l-4.9-3.1l-0.5-0.5l-0.2-0.7l-0.5-0.7l-1.2-0.2h-1.4l-0.7-0.2l-3.5-2.3l-0.7-0.9l1.2-2.1l-2.8-2.3
			l-1.6-3.3l-4.2-15.5l-1.6-3.5l-0.5-0.4c-4.3,4.1-5.9,10-6.6,16.6c-0.4,1.8-3.1,4-4,5.8c-2.7,4.9-0.4,10.7-1.8,16
			c0,1.3,0,3.1-1.3,3.6c-0.3,0.1-0.7,0.2-1,0.3C120.2,83,120.8,84.4,120.3,86.7z" id="_x67E__x644__x62F__x634__x62A_" title="پلدشت"></path>
		<path class="st2 area" d="M115.4,130.3c2.7,1.8,2.7,6.2,0.4,9.3c-1.8,2.2-5.3,6.7-4,7.1c9.8,2.2,20.9-2.2,29.8-9.3
			c1.4-0.9,3.2-1.7,5.2-2.6c-1.1-1.1-2.2-2.3-3.4-3.6c-0.4-0.9-0.4-2.2,0-3.1c2.2-3.6,5.8-6.2,6.7-9.8c3.1-10.2-9.8-9.3-14.7-14.2
			c-1.3-1.8,2.2-5.8,0.4-8.9c-2.7-4.4-7.6-6.7-13.3-6.7c-0.4,0-2.2-0.9-2.2-1.8c0.5-2.3-0.1-3.7-1-5c-2.6,0.7-5.6,1.3-5.2,3.7
			c0.9,11.1-11.1,11.1-16.9,16.9c-2.7,3.1-0.4,6.2,1.3,9.3c0.7,1.3-0.5,2.5-2,3C102.3,120.6,108,125.6,115.4,130.3z" id="_x634__x648__x637_" title="شوط"></path>
		<path class="st3 area" d="M64.7,164.9c1.8-3.6,7.1-4.9,9.8-8c2.2-3.1,6.2-4.4,8-9.3c1.8-4,7.1-7.1,12-4.9c4.4,1.8,7.6,5.3,10.2,10.2
			c0.4,0,1.8,0.4,2.2,0c2.4-2.1,4.8-4.4,7.4-5.8c-0.9-0.1-1.7-0.2-2.6-0.4c-1.3-0.4,2.2-4.9,4-7.1c2.2-3.1,2.2-7.6-0.4-9.3
			c-7.4-4.7-13.1-9.7-18.9-15.7c-1.5,0.5-3.4,0.5-4.2-0.3c-8.9-8-19.6-3.6-28.4-8.4c-3.1-1.3,1.8-6.2,0.4-9.8
			c-1.8-4.9-7.6-4-11.6-6.7c-0.9-0.9-2.2-2.7-1.3-3.1c2.2-1.3,7.6-3.1,6.2-4.9c-1.6-1.6-3-3.4-3.1-5.5l-1.3,0.3l-3.5-0.2l-9.4-4.2
			L37,71.2l-7.5,1.9l-3.3,0.2l-2.8-0.2h-2.3l-1.9,0.7l-2.8,1.6l-1.6,1.9l0.9,2.1l3.5,3.8l0.7,1.6l0.7,3.5l1.6,3.1v1.2L22,93.8v1.4
			l0.5,1.4l1.6,3.3v1.4l-0.9,2.8l0.2,1.4l3.5,2.6l6.1,3.1l5.4,3.3l0.9,4l-2.6,4.9l-0.7,2.6l1.2,6.3l-1.2,2.1l-2.3,1.6l-1.9,3.1
			l0.7,1.2l0.5,0.9l0.5,2.6l0.9,1.2l1.2,0.9l1.2,0.9v1.4v1.4l0.5,1.2l0.5,1.4l1.4,3.5l1.9,2.3l2.1,2.1l7.3,3.3l0.7,4.7l-0.8,2.4
			C55.7,172.7,61.7,170.5,64.7,164.9z" id="_x686__x627__x644__x62F__x631__x627__x646_" title="چالدران"></path>
		<path class="st0 area" d="M103.4,154.7c2.2,1.8,6.2,0,7.6,2.2c2.2,3.6-1.8,5.3-1.8,8.4c0,1.3,2.2,2.2,3.1,2.2c8.4,0,14.2,3.1,20.4,8.4
			c6.2,5.3,15.6,4,23.6,2.2c3.6-0.9,3.6-7.6,9.3-6.7c-0.9-5.3,1.3-7.1,6.2-8.9c0.9-0.4,1.3-2.2,1.8-2.2c4.8-1.8,10.5,0.5,15.5,0.3
			c0-0.3,0.1-0.6,0.1-0.8l0-0.1c-2.7-0.4-5-1.8-6.3-4.7c-3.6-9.3-12.9-12.4-21.3-14.2c-1.8-0.4-3.6,2.2-5.3,4
			c-0.9,0.4-3.1,0.4-3.6-0.9c-1.2-4.1-3.4-6.6-5.9-9.3c-2,0.9-3.8,1.7-5.2,2.6c-8.1,6.5-18.1,10.8-27.2,9.8
			c-2.7,1.4-5.1,3.7-7.4,5.8c-0.4,0.4-1.8,0-2.2,0c-0.2-0.3-0.3-0.6-0.5-0.9C103.4,152.9,102.6,153.6,103.4,154.7z" id="_x686__x627__x6CC__x67E__x627__x631__x647_" title="چایپاره"></path>
		<path class="st2 area" d="M107.8,239.2c3.1-0.9,6.7-0.9,9.8,0.4c3.6,1.3,5.3,6.7,8.4,6.7c8,0.4,15.1,0,22.7,3.6
			c6.8,3,10.3-3.5,15.6-6.9c-0.1-0.5-0.1-0.9-0.1-1.3v-14.5l1.1-0.4c0.1,0,11.8-4.7,18.7-7.8c4.2-1.9,6-3.4,7.8-4.9
			c1.1-0.9,2.2-1.9,3.8-2.8c0.2-0.1,0.5-0.4,0.7-1.1c0.6-2.7-1.8-8.2-4.4-12.1c-3.4-5.1-3.4-13.4-3.4-17.4c0-3.9,0-14,0.7-19.8
			c-5.1,0.1-10.7-2.1-15.5-0.3c-0.4,0-0.9,1.8-1.8,2.2c-4.9,1.8-7.1,3.6-6.2,8.9c-5.8-0.9-5.8,5.8-9.3,6.7c-8,1.8-17.3,3.1-23.6-2.2
			c-6.2-5.3-12-8.4-20.4-8.4c-0.9,0-3.1-0.9-3.1-2.2c0-3.1,4-4.9,1.8-8.4c-1.3-2.2-5.3-0.4-7.6-2.2c-0.8-1.1,0-1.8,0.8-2.7
			c-2.6-4.4-5.6-7.7-9.7-9.3c-4.9-2.2-10.2,0.9-12,4.9c-1.8,4.9-5.8,6.2-8,9.3c-2.7,3.1-8,4.4-9.8,8c-3,5.6-9.1,7.7-14.4,5.7l-3,9.4
			l-0.5,3.3l0.2,1.9l0.7,2.1l0.7,2.8l-0.7,1.2l-1.2,1.2l-0.5,0.9l1.9,0.9l2.3,0.7l1.2,0.7l0.9,0.9l0.9,2.6v3.5l-0.7,6.3l1.4,8.2
			l-0.2,2.8l-1.6,6.6v1.9l0.2,4.2v1.4l-0.5,2.6l0.5,1.4l1.2,0.9l2.1,0.7l6.8,1.2l4.5-2.4l1.9-0.2l2.1,0.7l1.9,1.4l1.6,2.1
			c2.2-1,4.4-2.1,6.6-3C89.6,236.5,98.9,241.4,107.8,239.2z" id="_x62E__x648__x6CC_" title="خوی"></path>
		<path class="st0 area" d="M84.7,312.9c1.3-2.7,6.2-0.4,7.1-1.8c2.7-5.3,6.2-9.3,10.2-14.2c0.9-1.3-1.3-4,0-4.4
			c8.4-1.8,16.4,7.1,23.6-0.9c0.4-0.4,2.2-0.4,2.7,0c2.7,3.1,4.4,8,9.8,7.6c0,0.9,0.9,1.3,1.3,1.8c4.4,3.1,9.3-1.3,9.8-4
			c0.9-7.1,1.3-14.2-4.4-20c-1.8-1.8-0.9-4.4,2.7-4.4c-0.4-7.6,3.6-13.3,11.6-15.6c1.3-0.4,2.2-3.1,4-4c1-1,2.3-1.5,3.6-1.5
			c-0.8-2.4-1.9-6-2.3-8.5c-5.2,3.4-8.8,9.9-15.6,6.9c-7.6-3.6-14.7-3.1-22.7-3.6c-3.1,0-4.9-5.3-8.4-6.7c-3.1-1.3-6.7-1.3-9.8-0.4
			c-8.9,2.2-18.2-2.7-26.7,0.4c-2.2,0.9-4.4,2-6.6,3l0.2,0.3l0.9,2.6v2.6l-3.1,4l-4.9,3.8l-4,4l0.7,7.8l-0.5,3.3l-0.9,3.1l-0.9,2.3
			l-0.9,1.4l-2.3,0.9l-1.2,0.9l-0.2,1.4l1.2,3.1l-0.7,0.9l-2.8,1.2l-1.6,1.4l-1.4,2.1l-1.2,3.3l-1.2,2.6l-3.3,3.5l-1.2,2.1v0.2
			l-1.2,1.9l-0.9,2.1l-0.2,2.1l0.7,2.1v2.1l-1.2,1.9l-1.4,1.6l-0.5,1.6l2.3,3.5l4.7,0.9l8.9-1.2l1.6,0.5l4.9,2.3l1.6,0.9l0.7,1.4
			l0.4,1.5c2.9-1.5,6.1-2.5,9.1-4.1C78.9,320.1,81.6,316.5,84.7,312.9z" id="_x633__x644__x645__x627__x633_" title="سلماس"></path>
		<path class="st1 area" d="M144.7,425.8c0.9-2.2,3.1-4,5.3-5.8c3.1-3.1,8.4-2.7,12.4-1.3c3.6,1.3,3.6,6.2,4.9,9.3c1.8,4,6.7,4,11.1,5.3
			c1.3,0.4,1.3,4,2.2,4.4c4.9,3.1,11.1,0.9,16.9,1.3c0-1.3,1.8-0.9,1.3-2.2c1.3,0,2.2-2.2,4-1.3c4-12,17.8-11.1,27.1-15.6
			c4-1.9,7.4-4.9,10.3-8.4l-23.7-35.5l-40.7-106.3l-8.7-15.8c-0.1-0.3-0.5-1.3-0.9-2.6c-1.3,0.1-2.6,0.5-3.6,1.5
			c-1.8,0.9-2.7,3.6-4,4c-8,2.2-12,8-11.6,15.6c-3.6,0-4.4,2.7-2.7,4.4c5.8,5.8,5.3,12.9,4.4,20c-0.4,2.7-5.3,7.1-9.8,4
			c-0.4-0.4-1.3-0.9-1.3-1.8c-5.3,0.4-7.1-4.4-9.8-7.6c-0.4-0.4-2.2-0.4-2.7,0c-7.1,8-15.1-0.9-23.6,0.9c-1.3,0.4,0.9,3.1,0,4.4
			c-4,4.9-7.6,8.9-10.2,14.2c-0.9,1.3-5.8-0.9-7.1,1.8c-3.1,3.6-5.8,7.1-9.8,9.8c-3,1.6-6.2,2.6-9.1,4.1l0.1,0.3l0.9,2.1l1.4,1.9
			l1.2,0.2l0.9-0.2l0.9-0.2l0.9,0.7v0.9l-0.5,2.6v0.9l0.9,1.9l1.9,0.2l2.1-0.9l1.9-0.9l3.8-0.2l3.8,1.6l3.5,2.8l4.9,5.6l0.5,1.6
			l-1.4,2.1l-4.9,3.5l-0.9,1.4l-0.7,4.9l2.8,2.8l3.1,2.3l0.5,2.8l-1.2,3.3l-0.9,4l-0.2,4l0.7,3.3l0.5,2.8l-1.6,4.7l0.7,2.8l1.9,0.9
			l5.2,0.5l2.1,1.4l1.9,4.7l1.4,1.4l4.9-0.7l1.2,1.4l0.9,2.3l1.2,2.1l7.8,4.7l3.3,3.5l-0.5,5.2l-1.6,2.1l-1.9,0.9l-1.6,1.4l-1.2,2.8
			l0.5,3.3l1.4,2.8l0.9,2.8l-0.9,3.1l-0.2,0.4c4.5,1.1,8.3,4.1,12.6,5.1C140.3,447.6,142.5,434.3,144.7,425.8z" id="_x627__x631__x648__x645__x6CC__x647_" title="ارومیه"></path>
		<path class="st3 area" d="M227,453.9c3.6,1.3,7.1-2.2,11.6-1.3c0.9,0,1.3,0.9,1.8,1.3c2.2,4.9-1.3,12.4,6.2,12.9
			c10.2,0,17.8,5.3,24.9,12c5.3,4.9,12.9,5.3,20.4,7.1c1.8,0,4,1.3,5.8,2.2c5.3,1.3,12.4,3.6,16-1.3c0.4-0.9-1.3-2.7,0.4-3.6
			c3.1-2.2,5.3-4,8.4-5.3c1.3-0.9,3.6-0.9,4.9,0.4c8,6.2,18.7,4.4,26.2-2.7c2.7-3.1,7.1-1.3,9.8,2.2c1.3,1.3,4-0.9,5.8-0.9
			c6.7,0.9,10.7,12,13.3,19.1c0.9,1.3,3.1,4.5,4.9,3.1c4-2.7,11.6-7.1,8.4-11.1c-6.2-9.3-4.9-18.7,2.2-27.1c0.4-0.4,0.7-0.8,1-1.3
			c-0.5-3,0-5.8,0.7-7.8l-17.4-4c-1.7,1.4-6.3,4.9-11.4,7.5c-7.1,3.6-23.1,0.7-28.6-0.6c-3.9-1-8.8,5.7-12,10.1
			c-1,1.3-1.8,2.5-2.6,3.4c-4.3,5.2-12.4,5.1-24-0.3c-10-4.6-9.3-10.9-8.9-14c0-0.4,0.1-0.7,0.1-1c0-1.9-0.6-6.4-1.5-12.2
			c-0.6-3.5-9.8-7.9-12.4-7.9c-1.7,0-4.6-0.7-8.2-1.6c-3.7-0.9-8-1.9-11.6-2.3c-7.6-0.8-19.4-15.4-20.7-17.1l-0.1-0.1
			c-2.9,3.6-6.3,6.5-10.3,8.4c-0.2,0.1-0.4,0.2-0.7,0.3c-0.3,6.4-0.6,12.7-2,19.3C226.5,444.5,220.7,451.2,227,453.9z" id="_x645__x6CC__x627__x646___x62F__x648__x622__x628_" title="میان دوآب"></path>
		<path class="st2 area" d="M171,480.5c4-0.9,8.4-3.6,9.8-8c1.3-3.6-3.1-5.3-4.4-8.4c-0.4-1.3,0.9-2.7,1.3-4c0.4-2.2,3.6-4,3.6-5.8
			c-1.1-5.9-0.4-10.8,0.1-16.1c-0.2-0.1-0.4-0.2-0.6-0.3c-0.9-0.4-0.9-4-2.2-4.4c-4.4-1.3-9.3-1.3-11.1-5.3c-1.3-3.1-1.3-8-4.9-9.3
			c-4-1.3-9.3-1.8-12.4,1.3c-2.2,1.8-4.4,3.6-5.3,5.8c-2.2,8.4-4.4,21.8-14.2,19.1c-4.3-1-8.2-4-12.6-5.1l-1.7,4.3v1.6l1.2,2.8
			l0.7,1.2l0.9,0.2l1.2,0.5l0.9,0.7l0.5,0.9l0.7,2.6l0.7,0.7l1.2,0.2l2.8-0.7l1.2-0.2l1.2,0.7l1.4,1.6l3.1,1.4l0.9,1.4l-0.2,1.9
			l-1.6,1.6l-0.7,4.5l0,0.1c8.8,0.4,17.5,6.8,23.7,13C159,483.6,165.6,481.4,171,480.5z" id="_x627__x634__x646__x648__x6CC__x647_" title="اشنویه"></path>
		<path class="st0 area" d="M188.7,485.9c4,3.1,8.9,0.9,13.3,2.7c5.3,2.2,8,7.6,12.4,11.6c1.8,1.3,4.4,1.8,4.9-0.4
			c0.9-3.6-0.4-7.1,1.3-10.2c2.7-4.9,5.3-9.3,8.4-14.7c1.3-1.8,3.1-3.6,4.4-5.3c0.9-1.3,2.2-3.1,1.3-4.4c-3-3.4-7-6.5-7.3-10.9
			c-0.2,0-0.5-0.1-0.7-0.2c-6.2-2.7-0.4-9.3,0.4-14.2c1.5-6.6,1.7-12.8,2-19.3c-9.3,4.1-22.5,3.5-26.5,15.3c-1.8-0.9-2.7,1.3-4,1.3
			c0.4,1.3-1.3,0.9-1.3,2.2c-5.5-0.4-11.5,1.6-16.3-1c-0.5,5.3-1.2,10.2-0.1,16.1c0,1.8-3.1,3.6-3.6,5.8c-0.4,1.3-1.8,2.7-1.3,4
			c1.3,3.1,5.8,4.9,4.4,8.4c-0.2,0.6-0.4,1.1-0.6,1.6C183.9,477.6,184.8,482.8,188.7,485.9z" id="_x646__x642__x62F__x647_" title="نقده"></path>
		<path class="st0 area" d="M236.3,585c-1.3-5.8,0.4-13.3-4.9-16.4c-5.3-2.7-13.8,1.3-16-5.8c-3.1-9.8-11.6-6.2-18.2-9.8
			c-3.6-1.3-8-5.8-12-3.1c-2.4,1.6-3.9,3.9-4.6,6.6l2.6,2.8l1.4,4.2l0.7,3.8l0.2,7l0.9,2.8l2.6,3l-3.3,2.1l0.7,1.9l2.6,1.9l2.1,1.9
			l0.7,3.1l-0.5,7.5l0.7,3.5l4.2,5.2l1.9,3.3l-0.7,3.3l-1.6,2.6l-1.6,3.3l-0.9,3.5l0.9,2.6l2.6,2.3l2.8,0.5l3.1-0.9l2.8-1.9l2.6-0.7
			l4.5-2.1h3.5l3.3,0.9l5.2,1.9l2.1,1.8c0-0.2-0.1-0.3-0.1-0.5c0-0.1,1.2-12.9,1.2-16.3c0-4.2,3.9-12.3,11.2-12.3
			c4.6,0,5.3,0,5.3-6.5c0-0.2,0-0.3,0-0.5C240.5,590.3,237.2,588.4,236.3,585z" id="_x633__x631__x62F__x634__x62A_" title="سردشت"></path>
		<path class="st1 area" d="M211.8,550.3c0.4-2.2-2.7-5.3,0.9-8.4c1.8-2.2,0.9-5.8-0.9-8c-3.6-3.1-15.1-6.7-8.4-11.6
			c4.9-3.1,11.6-0.9,14.7-7.1c0.9-2.2-2.7-3.1-2.2-4.9c0.5-3.2,1.2-6.3,0.8-9.2c-0.7-0.2-1.5-0.5-2.2-1c-4.4-4-7.1-9.3-12.4-11.6
			c-4.4-1.8-9.3,0.4-13.3-2.7c-3.9-3-4.9-8.2-8.6-11.8c-1.8,3.5-5.6,5.6-9.1,6.4c-5.3,0.9-12,3.1-15.1,0.4
			c-6.1-6.1-14.9-12.5-23.7-13l0.9,2.7l1.2,2.6l0.7,3.8l-0.7,3.8l-1.9,3.1l-4.9,5.6l-1.6,4l1.2,2.8l2.8,1.6l3.5,0.9l4.2-0.2l2.1,0.2
			l1.6,1.4l1.2,1.4l1.4,0.9l1.6,0.5h1.9l2.3,1.2l1.9,2.8l3.3,5.6l1.6,3.5l-0.2,3.1l-2.8,5.9l-1.4,5.6v3.3l-0.5,0.5l-1.9,0.5
			l-0.5,0.5l-0.2,2.6l1.9,2.6l2.8,2.1l1.6,1.9l0.2,2.1l0.7,1.4l1.2,1.2l1.2,1.4l0.7,2.1l0.2,1.6l0.5,1.4l1.6,1.9l3.8,1.6l4-0.5
			l7.5-2.8l3.5,0.2l0,0c0.8-2.6,2.2-4.9,4.6-6.6c4-2.7,8.4,1.8,12,3.1c3.3,1.8,7,1.8,10.4,2.5C209.7,554.3,211.3,552.7,211.8,550.3z
			" id="_x67E__x6CC__x631__x627__x646__x634__x647__x631_" title="پیرانشهر"></path>
		<path class="st2 area" d="M247.4,569.9c0.9-1.8,0.4-4,0.9-5.8c0.4-0.9,1.3-2.2,2.2-1.8c9.3,1.3,14.2-8,11.6-15.6
			c-4-11.1,0.9-22.7,11.6-26.2c3.6-1.3,6.7-2.2,8.9-4.9c4.9-6.7-2.2-11.1-4.4-16.4c-3.3-6.8,2.3-11,8.6-14.4
			c-5.7-1.1-11.2-2.3-15.3-6c-7.1-6.7-14.7-12-24.9-12c-7.6-0.4-4-8-6.2-12.9c-0.4-0.4-0.9-1.3-1.8-1.3c-4.2-0.8-7.5,2.2-10.9,1.5
			c0.3,4.4,4.3,7.5,7.3,10.9c0.9,1.3-0.4,3.1-1.3,4.4c-1.3,1.8-3.1,3.6-4.4,5.3c-3.1,5.3-5.8,9.8-8.4,14.7
			c-1.8,3.1-0.4,6.7-1.3,10.2c-0.3,1.4-1.4,1.7-2.7,1.5c0.4,2.9-0.3,6-0.8,9.2c-0.4,1.8,3.1,2.7,2.2,4.9c-3.1,6.2-9.8,4-14.7,7.1
			c-6.7,4.9,4.9,8.4,8.4,11.6c1.8,2.2,2.7,5.8,0.9,8c-3.6,3.1-0.4,6.2-0.9,8.4c-0.6,2.4-2.2,4-4.3,5.2c3.4,0.8,6.3,2.3,7.9,7.2
			c2.2,7.1,10.7,3.1,16,5.8c4.5,2.6,3.9,8.4,4.5,13.6C239.5,577.7,245,575,247.4,569.9z" id="_x645__x647__x627__x628__x627__x62F_" title="مهاباد"></path>
		<path class="st1 area" d="M345.2,540.1c0.4-1.8,0-4-0.9-5.3c-2.2-1.8-5.3-4.4-5.3-5.8c-0.4-7.1-0.9-14.2-6.2-19.6
			c-3.1-2.7-7.6-3.6-9.8-7.1c-1.3-3.1,2.2-5.8,0.4-8.9c-0.4-0.9-1.8-2.2-2.2-2.2c-2.9-1-5.5-2.5-7.6-4.4c-3.6,4.8-10.6,2.6-16,1.3
			c-1.8-0.9-4-2.2-5.8-2.2c-1.7-0.4-3.4-0.7-5.1-1.1c-6.3,3.4-11.9,7.6-8.6,14.4c2.2,5.3,9.3,9.8,4.4,16.4c-2.2,2.7-5.3,3.6-8.9,4.9
			c-10.7,3.6-15.6,15.1-11.6,26.2c2.7,7.6-2.2,16.9-11.6,15.6c-0.9-0.4-1.8,0.9-2.2,1.8c-0.4,1.8,0,4-0.9,5.8
			c-2.4,5.1-7.9,7.9-11.5,12.3c0.1,1,0.2,1.9,0.4,2.8c0.9,3.4,4.2,5.3,7.8,6.4c0.2-8.5,5.1-14.2,12.3-14.2c6.2,0,20.9,0,24.1-1.1
			c2.2-0.7,3.5-5,3.5-11.2v-20.2l1.3-0.3c0.4-0.1,9.7-2.4,18-2.4c1.9,0,3.8-0.2,5.6-0.4c5.4-0.6,11.4-1.3,12.6,6.6
			c1,6.7,4.1,7.9,12.3,7.9c2,0,6.2-0.5,11.4-1.1c-0.7-1.5-1.3-3.1-1.8-4.6C342.1,546.8,343.9,543.2,345.2,540.1z" id="_x628__x648__x6A9__x627__x646_" title="بوکان"></path>
		<path class="st0 area" d="M403.9,512.5c-6.7-0.4-11.6-4.9-16-9.3c-0.8-1.1-1.3-2.4-1.5-3.7c-1.5-0.1-3.1-2.4-3.8-3.4
			c-2.7-7.1-6.7-18.2-13.3-19.1c-1.8,0-4.4,2.2-5.8,0.9c-2.7-3.6-7.1-5.3-9.8-2.2c-7.6,7.1-18.2,8.9-26.2,2.7
			c-1.3-1.3-3.6-1.3-4.9-0.4c-3.1,1.3-5.3,3.1-8.4,5.3c-1.8,0.9,0,2.7-0.4,3.6c0,0,0,0,0,0c2.1,1.9,4.7,3.4,7.6,4.4
			c0.4,0,1.8,1.3,2.2,2.2c1.8,3.1-1.8,5.8-0.4,8.9c2.2,3.6,6.7,4.4,9.8,7.1c5.3,5.3,5.8,12.4,6.2,19.6c0,1.3,3.1,4,5.3,5.8
			c0.9,1.3,1.3,3.6,0.9,5.3c-1.3,3.1-3.1,6.7-1.8,10.2c0.5,1.6,1.1,3.1,1.8,4.6c6.5-0.9,14.5-2.1,21.6-3.1
			c9.7-1.5,16.4-2.4,19.5-2.7c1.3-1.1,2.7-2.1,4.6-2.8c1.3-0.9,2.2-3.1,2.7-5.3c0.4-4.4,7.6-5.3,7.6-10.2c0-5.3,0-9.8,4-14.2
			C406.5,515.6,405.6,512.5,403.9,512.5z" id="_x634__x627__x647__x6CC__x646___x62F__x698_" title="شاهین دژ"></path>
		<path class="st2 area" d="M469.5,546.5c-1.1-5.7-7-26.7-9.3-32.6c-2-5.1-6.8-19.7-8.3-24c-2.7-0.1-9.3-0.3-15.5-1.6
			c-5.2-1-5.7,0.4-6.8,2.9c-0.2,0.5-0.4,1.1-0.7,1.6c-1.7,3.4-6.4,8.1-6.6,8.3l-0.9,0.9l-1.2-0.6c-0.4-0.2-8.8-4.8-12.8-8
			c-2.3-1.8-3-4.9-2.1-8.6c0.7-2.6,2.2-5.6,4.1-8c1.2-1.5,1.2-1.9-2.7-5.8c-1.2-1.2-2.7-2.6-4.3-4.5c-2-2.3-3-4.7-3.5-7
			c-0.3,0.5-0.7,0.9-1.1,1.3c-7.1,8.4-8.4,17.8-2.2,27.1c3.1,4-4.4,8.4-8.4,11.1c-0.3,0.3-0.7,0.4-1.1,0.3c0.2,1.3,0.7,2.5,1.5,3.7
			c4.4,4.4,9.3,8.9,16,9.3c1.8,0,2.7,3.1,1.3,4c-4,4.4-4,8.9-4,14.2c0,4.9-7.1,5.8-7.6,10.2c-0.4,2.2-1.3,4.4-2.7,5.3
			c-1.9,0.7-3.3,1.8-4.6,2.8c0.6-0.1,1.1-0.1,1.5-0.1c7.2,0,12.5,2.7,15.6,7.9c3.2,5.3,6.2,6.3,12.9,7.4c0.8,0.1,1.5,0.2,2.3,0.4
			c5.8,0.9,10.8,1.7,12.1,8.1c1.2,6.1,10.7,6.8,14.7,6.8c7.6,0,18.7-5.5,22-10.9C470.6,563.4,470.7,552.2,469.5,546.5z" id="_x62A__x6A9__x627__x628_" title="تکاب"></path>

	<line class="st4 area" x1="153.1" y1="453.1" x2="116.2" y2="468" id="LINE_20" title=""></line>
	<line class="st4 area" x1="176.1" y1="512.2" x2="139.2" y2="527.1" id="LINE_21" title=""></line>

<g id="G_22" class="area" title="">
	<path d="M88.4,67.3h-1.1c-0.1,1.4-0.6,2.5-1.6,3.5c-0.3,0.3-0.5,0.5-0.6,0.5c-0.5,0-1.2-0.1-1.9-0.2C83,71,82.8,71,82.8,71
		s0.1-0.1,0.4-0.2c0.8-0.2,1.6-0.7,2.3-1.2c0.3-0.3,0.6-0.5,0.8-0.9c0.3-0.4,0.5-0.8,0.5-1.1v-0.3h-1.3c-1,0-1.4-0.4-1.4-1.2
		c0-0.5,0.1-1,0.4-1.6c0.3-0.6,0.7-1,1.1-1c0.5,0,0.9,0.3,1.2,1c0.2,0.5,0.4,1,0.4,1.6h1.1V67.3z M86.6,66.2c0-0.3-0.1-0.6-0.3-0.9
		c-0.2-0.4-0.5-0.5-0.8-0.5c-0.2,0-0.4,0.1-0.5,0.2c-0.2,0.2-0.2,0.3-0.2,0.6c0,0.5,0.4,0.7,1.2,0.7C86,66.2,86.3,66.2,86.6,66.2z" id="PATH_23" class="area" title=""></path>
	<path d="M94.6,58.1c0,0.2-0.2,0.6-0.4,1.1L91.7,60c-1.1,0.4-1.9,0.7-2.3,0.9c0.8,0.8,1.3,1.4,1.6,1.7c0.5,0.7,0.8,1.3,0.9,2
		c0,0.5,0,1-0.2,1.4c-0.3,0.9-1.4,1.3-3.1,1.3H88v-1.2h0.6c0.8,0,1.4,0,1.7-0.1c0.7-0.2,1.1-0.5,1.1-1c0-0.7-0.5-1.5-1.6-2.5
		l-0.1,0.2c-0.1-0.1-0.3-0.3-0.5-0.6c-0.3-0.3-0.4-0.6-0.4-0.6c0-0.2,0-0.4,0.1-0.8c0.1-0.4,0.2-0.6,0.3-0.7
		c0.1-0.1,0.8-0.4,2.1-0.8C92.5,58.7,93.7,58.3,94.6,58.1z" id="PATH_24" class="area" title=""></path>
	<path d="M98.1,67.3h-0.7c-0.7,0-1.3-0.3-1.5-0.9c-0.2-0.4-0.3-1.1-0.3-1.9v-1.9c0-0.9-0.1-2.2-0.2-3.9L96,58c0.1-0.1,0.2-0.1,0.2,0
		c0.1,0.9,0.2,2.2,0.2,3.9v2.9c0,0.8,0.4,1.2,1.2,1.2h0.5V67.3z" id="PATH_25" class="area" title=""></path>
	<path d="M103.1,65.3c0,0.5,0,0.9-0.2,1.3c-0.2,0.5-0.5,0.8-0.8,0.8c-0.5,0-1.3-0.3-2.3-1c-0.3,0.4-0.5,0.6-0.6,0.7
		c-0.3,0.2-0.6,0.3-1,0.3h-0.5v-1.2h0.7c0.4,0,0.8-0.2,1.2-0.7c0.2-0.2,0.5-0.7,0.9-1.3c0.3-0.5,0.7-0.7,1-0.7
		c0.5,0,0.9,0.2,1.2,0.7C102.9,64.6,103,65,103.1,65.3z M102.5,66.1c0-0.3-0.1-0.6-0.3-1c-0.2-0.4-0.5-0.6-0.8-0.6
		c-0.3,0-0.6,0.3-1,0.9c0.2,0.2,0.5,0.4,0.9,0.6c0.4,0.2,0.8,0.3,1,0.3C102.4,66.3,102.5,66.2,102.5,66.1z" id="PATH_26" class="area" title=""></path>
</g>
<g id="G_27" class="area" title="">
	<path d="M121.8,114.9c0,1.1-0.7,1.9-2,2.3c-0.9,0.3-2.2,0.4-4,0.4c-0.7,0-1.3,0-1.6-0.1c-0.7-0.2-1.2-0.6-1.5-1.2
		c0-0.1-0.1-0.2-0.1-0.2c0,0,0,0,0,0c0,0,0.1,0,0.2,0.1c0.5,0.2,1.1,0.3,1.9,0.3c0.3,0,0.5,0,0.6-0.1c0.1-0.1,0.2-0.3,0.1-0.6
		c0-0.4,0-1.2,0-2.3c-0.1-1.7-0.2-3.1-0.4-4.4l0.7-0.7c0.1-0.1,0.1-0.1,0.1-0.1c0,0,0.1,0.1,0.1,0.2c0.1,0.4,0.2,0.8,0.4,1.2
		c0,0.1,0.1,0.2,0.1,0.2c0,0-0.1,0-0.2,0h-0.3c0.1,1.8,0.1,2.9,0.1,3.2v1.1c0,0.4-0.1,1-0.3,1.7c0.1,0,0.3-0.2,0.8-0.6
		c0.5-0.5,1-0.9,1.4-1.2c0.7-0.4,1.3-0.6,1.9-0.6c0.5,0,0.9,0.1,1.2,0.4C121.7,114.1,121.8,114.5,121.8,114.9z M121.1,115.6
		c0-0.3-0.2-0.6-0.6-0.8c-0.3-0.2-0.7-0.3-1-0.3c-0.7,0-1.9,0.6-3.4,1.9c0.4,0,0.9,0.1,1.3,0.1c0.6,0,1.3-0.1,2-0.2
		C120.6,116.1,121.1,115.9,121.1,115.6z" id="PATH_28" class="area" title=""></path>
	<path d="M128.1,117.7H127c-0.1,1.4-0.6,2.5-1.6,3.5c-0.3,0.3-0.5,0.5-0.6,0.5c-0.5,0-1.2-0.1-1.9-0.2c-0.2,0-0.4-0.1-0.4-0.1
		s0.1-0.1,0.4-0.2c0.8-0.2,1.6-0.7,2.3-1.2c0.3-0.3,0.6-0.5,0.8-0.9c0.3-0.4,0.5-0.8,0.5-1.1v-0.3h-1.3c-1,0-1.4-0.4-1.4-1.2
		c0-0.5,0.1-1,0.4-1.6c0.3-0.6,0.7-1,1.1-1c0.5,0,0.9,0.3,1.2,1c0.2,0.5,0.4,1,0.4,1.6h1.1V117.7z M126.3,116.5
		c0-0.3-0.1-0.6-0.3-0.9c-0.2-0.4-0.5-0.5-0.8-0.5c-0.2,0-0.4,0.1-0.5,0.2c-0.2,0.2-0.2,0.3-0.2,0.6c0,0.5,0.4,0.7,1.2,0.7
		C125.7,116.5,126,116.5,126.3,116.5z" id="PATH_29" class="area" title=""></path>
	<path d="M136,115.5c0,0.6-0.1,1.1-0.4,1.5c-0.3,0.4-0.8,0.7-1.3,0.7c-0.7,0-1.1-0.3-1.4-0.8c-0.4,0.6-0.8,0.8-1.4,0.8
		c-0.7,0-1.2-0.3-1.5-0.8c-0.4,0.6-0.9,0.8-1.6,0.8h-0.7v-1.2h0.8c0.7,0,1.2-0.4,1.3-1.2c0-0.2,0.1-0.3,0.2-0.3
		c0.1,0,0.1,0.1,0.2,0.3c0.1,0.8,0.5,1.2,1.3,1.2c0.4,0,0.8-0.1,1-0.3c0.1-0.2,0.2-0.4,0.3-0.8c0-0.2,0.1-0.3,0.2-0.3
		c0.1,0,0.1,0.1,0.2,0.3c0.1,0.8,0.5,1.2,1.2,1.2c0.8,0,1.1-0.2,1.1-0.5c0-0.3-0.2-0.7-0.6-1.1l0.5-0.9c0.1-0.1,0.1-0.2,0.2-0.2
		s0.1,0.1,0.2,0.2C135.8,114.6,136,115.1,136,115.5z M132.6,111.9l-0.7,0.7l-0.7-0.7l0.7-0.7L132.6,111.9z M133.5,110.3l-0.7,0.7
		l-0.7-0.7l0.7-0.7L133.5,110.3z M134.4,111.9l-0.7,0.7l-0.7-0.7l0.7-0.7L134.4,111.9z" id="PATH_30" class="area" title=""></path>
</g>
<g id="G_31" class="area" title="">
	<path d="M56.5,132.5c0.1,0.3,0.1,0.6,0.1,0.9c0,0.4-0.1,0.7-0.2,1.1c-0.3,0.7-0.8,1.3-1.8,1.7c-0.8,0.3-1.6,0.5-2.5,0.5
		c-0.9,0-1.6-0.2-2.2-0.6c-0.6-0.5-0.9-1.1-0.9-2c0-0.5,0.1-0.9,0.3-1.5c0.2-0.4,0.3-0.7,0.5-0.9c0.1-0.1,0.2-0.1,0.2-0.1
		c0.1,0,0.1,0,0.1,0.1c0,0,0,0.1,0,0.2c-0.3,0.6-0.4,1.2-0.4,1.7c0,0.5,0.2,0.9,0.5,1.3c0.4,0.5,1.1,0.7,2,0.7c1,0,1.9-0.2,2.6-0.5
		c0.6-0.3,1-0.6,1.2-1c0.1-0.1,0.1-0.3,0.1-0.4c0-0.3-0.1-0.6-0.2-1c-0.1-0.3-0.4-0.8-0.9-1.6l0.4-0.8c0.1-0.1,0.1-0.2,0.1-0.2
		s0.1,0,0.1,0.1C56.1,131,56.4,131.7,56.5,132.5z M53.5,128.2l-0.8,0.8l-0.8-0.8l0.8-0.8L53.5,128.2z" id="PATH_32" class="area" title=""></path>
	<path d="M58.9,131.4c0,0.4-0.1,0.8-0.3,1.1c-0.1,0.2-0.2,0.3-0.2,0.3c0,0-0.1-0.1-0.1-0.4c0-1.2-0.2-4-0.6-8.5l0.8-0.8
		c0.1-0.1,0.1-0.1,0.1-0.1c0,0,0,0.1,0,0.2C58.9,124.6,58.9,127.3,58.9,131.4z" id="PATH_33" class="area" title=""></path>
	<path d="M64,132.8c0,1-0.3,1.9-0.9,2.8c-0.5,0.7-1,1.1-1.3,1.1c-0.8,0-1.4,0-2-0.1c-0.2,0-0.3-0.1-0.3-0.1s0.1-0.1,0.3-0.1
		c0.8-0.2,1.6-0.6,2.4-1.2c0.8-0.7,1.3-1.4,1.3-2.1c0-0.4-0.3-1-1-1.7l0.5-0.9c0-0.1,0.1-0.1,0.1-0.1c0,0,0.1,0.1,0.1,0.1
		c0.2,0.3,0.5,0.7,0.6,1.2C63.9,132,64,132.4,64,132.8z" id="PATH_34" class="area" title=""></path>
	<path d="M71.8,132.7h-0.4c-0.4,0-0.7-0.1-1-0.4c-0.2-0.2-0.4-0.4-0.6-0.8c-0.2,0.4-0.5,0.7-0.8,0.9c-0.4,0.2-0.9,0.3-1.7,0.3
		c-1.4,0-2.1-0.5-2.1-1.5c0-0.3,0.1-0.7,0.3-1c0.1-0.1,0.1-0.2,0.2-0.2c0.1,0,0.1,0.1,0.1,0.2c0,0.1,0,0.1,0,0.3c0,0.1,0,0.2,0,0.3
		c0,0.6,0.5,0.9,1.5,0.9c1.4,0,2.1-0.3,2.1-0.8c0-0.3-0.4-1.4-1.2-3.3l0.4-0.8c0.1-0.1,0.1-0.2,0.1-0.2c0,0,0.1,0.1,0.1,0.2
		c0.3,0.8,0.8,2,1.4,3.6c0.3,0.8,0.7,1.2,1.3,1.2h0.3V132.7z" id="PATH_35" class="area" title=""></path>
	<path d="M74.1,124.7c0.1,0.1,0.1,0.2,0.1,0.2c0,0-0.1,0-0.2,0h-0.3c0.1,1.3,0.1,3.2,0.1,5.7c0,0.6-0.1,1.1-0.4,1.4
		c-0.3,0.4-0.8,0.6-1.3,0.6h-0.6v-1.2h0.5c0.8,0,1.2-0.3,1.1-0.9c-0.1-2.1-0.2-4.3-0.3-6.5l0.7-0.6c0.1-0.1,0.2-0.2,0.2-0.2
		c0,0,0,0.1,0.1,0.2C73.7,123.8,73.9,124.2,74.1,124.7z" id="PATH_36" class="area" title=""></path>
	<path d="M78.1,132.7h-0.7c-0.7,0-1.3-0.3-1.5-0.9c-0.2-0.4-0.3-1.1-0.3-1.9v-1.9c0-0.9-0.1-2.2-0.2-3.9l0.6-0.7
		c0.1-0.1,0.2-0.1,0.2,0c0.1,0.9,0.2,2.2,0.2,3.9v2.9c0,0.8,0.4,1.2,1.2,1.2h0.5V132.7z" id="PATH_37" class="area" title=""></path>
	<path d="M85.9,129.8l-0.4,0.8c-0.7,0-1.3,0-1.6,0.1c-0.4,0.2-1,0.4-1.8,0.8c-0.8,0.4-1.4,0.7-1.8,0.8c-0.6,0.2-1.3,0.3-1.9,0.3
		h-0.7v-1.2h0.8c0.9,0,1.7-0.2,2.4-0.5l2.3-1c-0.4-0.1-1-0.3-1.8-0.6c-0.7-0.3-1.1-0.4-1.3-0.4c-0.4,0-0.8,0.2-1.2,0.5
		c-0.1,0.1-0.1,0.1-0.2,0.1c-0.1,0-0.1,0-0.1-0.1c0,0,0-0.1,0-0.1c0.3-1,0.9-1.4,1.7-1.4c0.3,0,0.7,0.1,1.1,0.3
		c0.8,0.4,1.4,0.6,1.8,0.8c0.7,0.2,1.5,0.4,2.4,0.4c0.2,0,0.3,0,0.3,0.1C86,129.6,86,129.6,85.9,129.8z M80.4,134.5l0.7-0.7l0.7,0.7
		l-0.7,0.7L80.4,134.5z M81.3,136.1l0.7-0.7l0.7,0.7l-0.7,0.7L81.3,136.1z M82.2,134.5l0.7-0.7l0.7,0.7l-0.7,0.7L82.2,134.5z" id="PATH_38" class="area" title=""></path>
</g>
<g id="G_39" class="area" title="">
	<path d="M166.5,124h-0.4c-0.5,0-0.9-0.1-1.1-0.3c-0.3-0.2-0.5-0.6-0.5-1c-1.1,1-2.8,1.5-5.1,1.5c-2.4,0-3.6-0.7-3.6-2.2
		c0-0.5,0.2-1,0.6-1.5c0.1-0.1,0.1-0.1,0.2-0.1c0.1,0,0.1,0,0.1,0.1c0,0,0,0.1,0,0.2c-0.1,0.3-0.2,0.6-0.2,0.9c0,1,1.1,1.5,3.3,1.5
		c2.5,0,4.2-0.5,5-1.6c0.2-0.2,0.3-0.3,0.4-0.3c0.1,0,0.1,0.1,0.1,0.2c0,0.1,0,0.2-0.1,0.4c0,0.2-0.1,0.3-0.1,0.4
		c0,0.5,0.4,0.8,1.1,0.8h0.4V124z M160.3,118.2l-0.8,0.8l-0.8-0.8l0.8-0.8L160.3,118.2z M162,118.2l-0.8,0.8l-0.8-0.8l0.8-0.8
		L162,118.2z" id="PATH_40" class="area" title=""></path>
	<path d="M174.4,121.9c0,0.6-0.1,1.1-0.4,1.5c-0.3,0.4-0.8,0.7-1.3,0.7c-0.7,0-1.1-0.3-1.4-0.8c-0.4,0.6-0.8,0.8-1.4,0.8
		c-0.7,0-1.2-0.3-1.5-0.8c-0.4,0.6-0.9,0.8-1.6,0.8h-0.7v-1.2h0.8c0.7,0,1.2-0.4,1.3-1.2c0-0.2,0.1-0.3,0.2-0.3
		c0.1,0,0.1,0.1,0.2,0.3c0.1,0.8,0.5,1.2,1.3,1.2c0.4,0,0.8-0.1,1-0.3c0.1-0.2,0.2-0.4,0.3-0.8c0-0.2,0.1-0.3,0.2-0.3
		c0.1,0,0.1,0.1,0.2,0.3c0.1,0.8,0.5,1.2,1.2,1.2c0.8,0,1.1-0.2,1.1-0.5c0-0.3-0.2-0.7-0.6-1.1l0.5-0.9c0.1-0.1,0.1-0.2,0.2-0.2
		s0.1,0.1,0.2,0.2C174.2,120.9,174.4,121.4,174.4,121.9z M171,118.2l-0.7,0.7l-0.7-0.7l0.7-0.7L171,118.2z M171.9,116.7l-0.7,0.7
		l-0.7-0.7l0.7-0.7L171.9,116.7z M172.8,118.2l-0.7,0.7l-0.7-0.7l0.7-0.7L172.8,118.2z" id="PATH_41" class="area" title=""></path>
	<path d="M182.2,124h-0.4c-0.4,0-0.7-0.1-1-0.4c-0.2-0.2-0.4-0.4-0.6-0.8c-0.2,0.4-0.5,0.7-0.8,0.9c-0.4,0.2-0.9,0.3-1.7,0.3
		c-1.4,0-2.1-0.5-2.1-1.5c0-0.3,0.1-0.7,0.3-1c0.1-0.1,0.1-0.2,0.2-0.2c0.1,0,0.1,0.1,0.1,0.2c0,0.1,0,0.1,0,0.3c0,0.1,0,0.2,0,0.3
		c0,0.6,0.5,0.9,1.5,0.9c1.4,0,2.1-0.3,2.1-0.8c0-0.3-0.4-1.4-1.2-3.3l0.4-0.8c0.1-0.1,0.1-0.2,0.1-0.2c0,0,0.1,0.1,0.1,0.2
		c0.3,0.8,0.8,2,1.4,3.6c0.3,0.8,0.7,1.2,1.3,1.2h0.3V124z" id="PATH_42" class="area" title=""></path>
	<path d="M185.9,124h-0.4c-0.9,0-1.5-0.3-1.8-1c-0.1,0.3-0.3,0.5-0.6,0.7c-0.3,0.2-0.6,0.3-0.9,0.3h-0.4v-1.2h0.4
		c0.8,0,1.2-0.3,1.2-1v-3.5c0-1.3,0-2.3-0.1-3l0.9-0.7v6.7c0,1,0.4,1.5,1.3,1.5h0.4V124z" id="PATH_43" class="area" title=""></path>
	<path d="M188.3,122c0,1.3-0.7,2-2,2h-0.8v-1.2h0.7c1,0,1.5-0.2,1.5-0.5c0-0.3-0.2-0.7-0.7-1.2l0.4-1c0-0.1,0.1-0.1,0.1-0.1
		c0,0,0.1,0.1,0.2,0.2C188.1,120.7,188.3,121.4,188.3,122z M185.9,126l0.7-0.7l0.7,0.7l-0.7,0.7L185.9,126z M186.8,127.5l0.7-0.7
		l0.7,0.7l-0.7,0.7L186.8,127.5z M187.7,126l0.7-0.7l0.7,0.7l-0.7,0.7L187.7,126z" id="PATH_44" class="area" title=""></path>
</g>
<g id="G_45" class="area" title="">
	<path d="M124,158.9c0,0.7-0.2,1.2-0.6,1.6c-0.4,0.4-1,0.5-1.6,0.5c-0.4,0-0.8-0.1-1.1-0.4c-0.3-0.3-0.5-0.6-0.5-1
		c0-0.5,0.2-1,0.6-1.7c0.3-0.6,0.7-1.1,1.1-1.5C123.3,157.1,124,157.9,124,158.9z M123.4,159.3c0-0.3-0.2-0.6-0.7-1
		c-0.4-0.4-0.7-0.6-1.1-0.7c-0.5,0.7-0.8,1.2-0.8,1.6c0,0.2,0.1,0.4,0.4,0.6c0.2,0.1,0.4,0.2,0.7,0.2c0.4,0,0.8-0.1,1.1-0.2
		C123.3,159.5,123.4,159.4,123.4,159.3z" id="PATH_46" class="area" title=""></path>
	<path d="M129,161.1c0,1-0.3,1.9-0.9,2.8c-0.5,0.7-1,1.1-1.3,1.1c-0.8,0-1.4,0-2-0.1c-0.2,0-0.3-0.1-0.3-0.1s0.1-0.1,0.3-0.1
		c0.8-0.2,1.6-0.6,2.4-1.2c0.8-0.7,1.3-1.4,1.3-2.1c0-0.4-0.3-1-1-1.7l0.5-0.9c0-0.1,0.1-0.1,0.1-0.1c0,0,0.1,0.1,0.1,0.1
		c0.2,0.3,0.5,0.7,0.6,1.2C128.9,160.3,129,160.7,129,161.1z" id="PATH_47" class="area" title=""></path>
	<path d="M133,161h-0.7c-0.7,0-1.3-0.3-1.5-0.9c-0.2-0.4-0.3-1.1-0.3-1.9v-1.9c0-0.9-0.1-2.2-0.2-3.9l0.6-0.7c0.1-0.1,0.2-0.1,0.2,0
		c0.1,0.9,0.2,2.2,0.2,3.9v2.9c0,0.8,0.4,1.2,1.2,1.2h0.5V161z" id="PATH_48" class="area" title=""></path>
	<path d="M137.9,161h-0.8c-0.9,0-1.5-0.3-1.9-0.9c-0.3,0.6-1,0.9-2.1,0.9h-0.6v-1.2h0.9c1,0,1.5-0.4,1.6-1.1c0-0.3,0.1-0.5,0.2-0.5
		c0.1,0,0.2,0.2,0.2,0.5c0.1,0.7,0.6,1.1,1.5,1.1h0.9V161z M133.1,163l0.7-0.7l0.7,0.7l-0.7,0.7L133.1,163z M134,164.5l0.7-0.7
		l0.7,0.7l-0.7,0.7L134,164.5z M134.8,163l0.7-0.7l0.7,0.7l-0.7,0.7L134.8,163z" id="PATH_49" class="area" title=""></path>
	<path d="M140.3,159c0,1.3-0.7,2-2,2h-0.8v-1.2h0.7c1,0,1.5-0.2,1.5-0.5c0-0.3-0.2-0.7-0.7-1.2l0.4-1c0-0.1,0.1-0.1,0.1-0.1
		c0,0,0.1,0.1,0.2,0.2C140.1,157.7,140.3,158.4,140.3,159z M139.5,163.2l-0.8,0.8l-0.8-0.8l0.8-0.8L139.5,163.2z M141.2,163.2
		l-0.8,0.8l-0.8-0.8l0.8-0.8L141.2,163.2z" id="PATH_50" class="area" title=""></path>
	<path d="M145.2,161h-0.7c-0.7,0-1.3-0.3-1.5-0.9c-0.2-0.4-0.3-1.1-0.3-1.9v-1.9c0-0.9-0.1-2.2-0.2-3.9l0.6-0.7
		c0.1-0.1,0.2-0.1,0.2,0c0.1,0.9,0.2,2.2,0.2,3.9v2.9c0,0.8,0.4,1.2,1.2,1.2h0.5V161z" id="PATH_51" class="area" title=""></path>
	<path d="M153,158.1l-0.4,0.8c-0.7,0-1.3,0-1.6,0.1c-0.4,0.2-1,0.4-1.8,0.8c-0.8,0.4-1.4,0.7-1.8,0.8c-0.6,0.2-1.3,0.3-1.9,0.3h-0.7
		v-1.2h0.8c0.9,0,1.7-0.2,2.4-0.5l2.3-1c-0.4-0.1-1-0.3-1.8-0.6c-0.7-0.3-1.1-0.4-1.3-0.4c-0.4,0-0.8,0.2-1.2,0.5
		c-0.1,0.1-0.1,0.1-0.2,0.1c-0.1,0-0.1,0-0.1-0.1c0,0,0-0.1,0-0.1c0.3-1,0.9-1.4,1.7-1.4c0.3,0,0.7,0.1,1.1,0.3
		c0.8,0.4,1.4,0.6,1.8,0.8c0.7,0.2,1.5,0.4,2.4,0.4c0.2,0,0.3,0,0.3,0.1C153.1,157.9,153.1,158,153,158.1z M147.5,162.9l0.7-0.7
		l0.7,0.7l-0.7,0.7L147.5,162.9z M148.4,164.4l0.7-0.7l0.7,0.7l-0.7,0.7L148.4,164.4z M149.3,162.9l0.7-0.7l0.7,0.7l-0.7,0.7
		L149.3,162.9z" id="PATH_52" class="area" title=""></path>
</g>
<g id="G_53" class="area" title="">
	<path d="M119.8,201c0,0.2,0,0.3,0,0.3c0,0-0.1,0-0.3-0.1c-0.3-0.2-0.7-0.3-1.2-0.3c-0.7,0-1.3,0.3-1.8,0.8
		c-0.5,0.5-0.7,0.8-0.7,1.1c0,0.3,0.5,0.6,1.4,0.7c1,0.2,1.6,0.4,1.8,0.7c0,0.1,0.1,0.2,0.1,0.3c0,0.5-0.2,1.1-0.5,1.7
		c-0.2,0.4-0.7,0.7-1.5,1c-1,0.4-2,0.6-3.3,0.6c-0.9,0-1.6-0.2-2.2-0.7c-0.6-0.5-0.9-1.2-0.9-2c0-0.9,0.3-1.8,0.9-2.6
		c0.1-0.1,0.2-0.2,0.3-0.2c0.1,0,0.1,0,0.1,0.1c0,0.1,0,0.1-0.1,0.3c-0.4,0.7-0.6,1.4-0.6,2c0,0.5,0.2,0.9,0.5,1.2
		c0.5,0.5,1.2,0.7,2.1,0.7c0.8,0,1.7-0.1,2.6-0.3c1.3-0.3,2-0.7,2-1.2c0-0.2-0.6-0.4-1.9-0.7c-0.5-0.1-0.8-0.2-1-0.3
		c-0.2-0.1-0.4-0.4-0.4-0.7c0-0.7,0.3-1.4,1-2.3c0.7-0.9,1.5-1.4,2.2-1.4C119.1,199.8,119.6,200.2,119.8,201z" id="PATH_54" class="area" title=""></path>
	<path d="M126,204.7H125c-0.1,1.4-0.6,2.5-1.6,3.5c-0.3,0.3-0.5,0.5-0.6,0.5c-0.5,0-1.2-0.1-1.9-0.2c-0.2,0-0.4-0.1-0.4-0.1
		s0.1-0.1,0.4-0.2c0.8-0.2,1.6-0.7,2.3-1.2c0.3-0.3,0.6-0.5,0.8-0.9c0.3-0.4,0.5-0.8,0.5-1.1v-0.3h-1.3c-1,0-1.4-0.4-1.4-1.2
		c0-0.5,0.1-1,0.4-1.6c0.3-0.6,0.7-1,1.1-1c0.5,0,0.9,0.3,1.2,1c0.2,0.5,0.4,1,0.4,1.6h1.1V204.7z M124.3,203.5
		c0-0.3-0.1-0.6-0.3-0.9c-0.2-0.4-0.5-0.5-0.8-0.5c-0.2,0-0.4,0.1-0.5,0.2c-0.2,0.2-0.2,0.3-0.2,0.6c0,0.5,0.4,0.7,1.2,0.7
		C123.7,203.5,123.9,203.5,124.3,203.5z" id="PATH_55" class="area" title=""></path>
	<path d="M133.9,201.8l-0.4,0.8c-0.7,0-1.3,0-1.6,0.1c-0.4,0.2-1,0.4-1.8,0.8c-0.8,0.4-1.4,0.7-1.8,0.8c-0.6,0.2-1.3,0.3-1.9,0.3
		h-0.7v-1.2h0.8c0.9,0,1.7-0.2,2.4-0.5l2.3-1c-0.4-0.1-1-0.3-1.8-0.6c-0.7-0.3-1.1-0.4-1.3-0.4c-0.4,0-0.8,0.2-1.2,0.5
		c-0.1,0.1-0.1,0.1-0.2,0.1c-0.1,0-0.1,0-0.1-0.1c0,0,0-0.1,0-0.1c0.3-1,0.9-1.4,1.7-1.4c0.3,0,0.7,0.1,1.1,0.3
		c0.8,0.4,1.4,0.6,1.8,0.8c0.7,0.2,1.5,0.4,2.4,0.4c0.2,0,0.3,0,0.3,0.1C134,201.6,133.9,201.6,133.9,201.8z M131,197.2l-0.8,0.8
		l-0.8-0.8l0.8-0.8L131,197.2z" id="PATH_56" class="area" title=""></path>
</g>
<g id="G_57" class="area" title="">
	<path d="M98.5,276.6c0,1.4-0.6,2.1-1.8,2.1c-0.7,0-1.1-0.3-1.3-0.9c-0.3,0.6-0.8,0.9-1.4,0.9c-0.2,0-0.5,0-0.7-0.1
		c0,0.6-0.1,1.2-0.1,1.9c-0.3,0.7-0.8,1.3-1.7,1.7c-0.8,0.3-1.6,0.5-2.5,0.5c-0.9,0-1.6-0.2-2.2-0.6c-0.6-0.5-0.9-1.1-0.9-2
		c0-0.5,0.1-0.9,0.3-1.5c0.2-0.4,0.3-0.7,0.5-0.9c0.1-0.1,0.2-0.1,0.2-0.1c0.1,0,0.1,0,0.1,0.1c0,0,0,0.1,0,0.2
		c-0.3,0.6-0.4,1.2-0.4,1.7c0,0.5,0.2,0.9,0.5,1.3c0.4,0.5,1.1,0.7,2,0.7c1,0,1.9-0.2,2.6-0.5c0.6-0.3,1-0.6,1.1-1
		c0.1-0.1,0.1-0.3,0-0.7c0-0.3-0.1-0.6-0.1-0.7c-0.1-0.3-0.4-0.8-1-1.5l0.4-0.8c0.1-0.1,0.1-0.2,0.1-0.2c0,0,0.1,0,0.1,0.1
		c0.3,0.4,0.5,0.7,0.6,0.8c0.3,0.3,0.6,0.4,1,0.4c0.4,0,0.8-0.1,1-0.4c0.1-0.2,0.2-0.4,0.3-0.9c0-0.2,0.1-0.3,0.2-0.3
		c0.1,0,0.1,0.1,0.1,0.3c0.1,0.5,0.2,0.8,0.4,1c0.2,0.2,0.6,0.3,1.1,0.3c0.2,0,0.4-0.1,0.5-0.2c0.2-0.1,0.3-0.3,0.3-0.5
		c0-0.3-0.2-0.6-0.6-1.1l0.5-0.9c0.1-0.1,0.1-0.1,0.1-0.1c0,0,0.1,0.1,0.1,0.1C98.4,275.5,98.5,276,98.5,276.6z" id="PATH_58" class="area" title=""></path>
	<path d="M102.5,278.7h-0.7c-0.7,0-1.3-0.3-1.5-0.9c-0.2-0.4-0.3-1.1-0.3-1.9v-1.9c0-0.9-0.1-2.2-0.2-3.9l0.6-0.7
		c0.1-0.1,0.2-0.1,0.2,0c0.1,0.9,0.2,2.2,0.2,3.9v2.9c0,0.8,0.4,1.2,1.2,1.2h0.5V278.7z" id="PATH_59" class="area" title=""></path>
	<path d="M109.7,278.7H109c-0.5,0-1-0.3-1.4-0.8c-0.3,0.8-0.6,1.2-0.9,1.2c-0.3,0-0.8-0.2-1.4-0.5c-0.5-0.3-0.9-0.6-1.1-0.8
		c-0.5,0.6-1,0.9-1.5,0.9h-0.6v-1.2h0.6c0.5,0,0.9-0.2,1.3-0.6c0.3-0.3,0.6-0.7,1-1.1c0.4-0.4,0.7-0.6,1-0.6c0.4,0,0.7,0.2,1,0.6
		c0.2,0.2,0.4,0.6,0.9,1.1c0.3,0.4,0.7,0.6,1.1,0.6h0.6V278.7z M107,277.8c0-0.3-0.1-0.6-0.3-1c-0.2-0.4-0.5-0.6-0.9-0.6
		c-0.3,0-0.7,0.3-1.1,0.8c0.1,0.1,0.4,0.3,0.9,0.6c0.5,0.3,0.9,0.4,1.2,0.4C106.9,278,107,278,107,277.8z" id="PATH_60" class="area" title=""></path>
	<path d="M113.4,278.7h-0.4c-0.9,0-1.5-0.3-1.8-1c-0.1,0.3-0.3,0.5-0.6,0.7c-0.3,0.2-0.6,0.3-0.9,0.3h-0.4v-1.2h0.4
		c0.8,0,1.2-0.3,1.2-1V273c0-1.3,0-2.3-0.1-3l0.9-0.7v6.7c0,1,0.4,1.5,1.3,1.5h0.4V278.7z" id="PATH_61" class="area" title=""></path>
	<path d="M121.2,276.5c0,0.6-0.1,1.1-0.4,1.5c-0.3,0.4-0.8,0.7-1.3,0.7c-0.7,0-1.1-0.3-1.4-0.8c-0.4,0.6-0.8,0.8-1.4,0.8
		c-0.7,0-1.2-0.3-1.5-0.8c-0.4,0.6-0.9,0.8-1.6,0.8H113v-1.2h0.8c0.7,0,1.2-0.4,1.3-1.2c0-0.2,0.1-0.3,0.2-0.3
		c0.1,0,0.1,0.1,0.2,0.3c0.1,0.8,0.5,1.2,1.3,1.2c0.4,0,0.8-0.1,1-0.3c0.1-0.2,0.2-0.4,0.3-0.8c0-0.2,0.1-0.3,0.2-0.3
		c0.1,0,0.1,0.1,0.2,0.3c0.1,0.8,0.5,1.2,1.2,1.2c0.8,0,1.1-0.2,1.1-0.5c0-0.3-0.2-0.7-0.6-1.1l0.5-0.9c0.1-0.1,0.1-0.2,0.2-0.2
		s0.1,0.1,0.2,0.2C121.1,275.6,121.2,276.1,121.2,276.5z" id="PATH_62" class="area" title=""></path>
</g>
<g id="G_63" class="area" title="">
	<path d="M142.2,362.3h-0.7c-0.9,0-1.4-0.5-1.6-1.6c-0.5,0.5-0.7,0.7-0.8,0.7h-0.9c-0.3,0-0.6,0-0.9-0.1c-0.4-0.1-0.6-0.3-0.6-0.5
		c0-0.8,0.3-1.4,0.8-1.8c0.4-0.3,1-0.6,1.8-1l-0.2-1l0.7-0.8c0,0.1,0.3,1.2,0.7,3.3c0.1,0.6,0.3,1.1,0.4,1.3
		c0.2,0.3,0.4,0.4,0.8,0.4h0.7V362.3z M139.7,360.3l-0.3-1.6c-0.3,0.1-0.7,0.3-1.2,0.5c-0.6,0.3-1,0.6-1,0.7c0,0.2,0.2,0.3,0.7,0.4
		c0.3,0.1,0.6,0.1,0.9,0.1C139.2,360.4,139.5,360.3,139.7,360.3z" id="PATH_64" class="area" title=""></path>
	<path d="M147.1,362.3h-0.8c-0.9,0-1.5-0.3-1.9-0.9c-0.3,0.6-1,0.9-2.1,0.9h-0.6v-1.2h0.9c1,0,1.5-0.4,1.6-1.1
		c0-0.3,0.1-0.5,0.2-0.5c0.1,0,0.2,0.2,0.2,0.5c0.1,0.7,0.6,1.1,1.5,1.1h0.9V362.3z M143.8,364.5l-0.8,0.8l-0.8-0.8l0.8-0.8
		L143.8,364.5z M145.6,364.5l-0.8,0.8l-0.8-0.8l0.8-0.8L145.6,364.5z" id="PATH_65" class="area" title=""></path>
	<path d="M152.1,360.3c0,0.5,0,0.9-0.2,1.3c-0.2,0.5-0.5,0.8-0.8,0.8c-0.5,0-1.3-0.3-2.3-1c-0.3,0.4-0.5,0.6-0.6,0.7
		c-0.3,0.2-0.6,0.3-1,0.3h-0.5v-1.2h0.7c0.4,0,0.8-0.2,1.2-0.7c0.2-0.2,0.5-0.7,0.9-1.3c0.3-0.5,0.7-0.7,1-0.7
		c0.5,0,0.9,0.2,1.2,0.7C152,359.6,152.1,360,152.1,360.3z M151.5,361.1c0-0.3-0.1-0.6-0.3-1c-0.2-0.4-0.5-0.6-0.8-0.6
		c-0.3,0-0.6,0.3-1,0.9c0.2,0.2,0.5,0.4,0.9,0.6c0.4,0.2,0.8,0.3,1,0.3C151.4,361.3,151.5,361.2,151.5,361.1z" id="PATH_66" class="area" title=""></path>
	<path d="M157.3,361.9c0,1.5-0.5,2.8-1.5,3.8c-0.3,0.3-0.5,0.5-0.6,0.5c-0.6,0-1.2-0.1-1.9-0.2c-0.3,0-0.4-0.1-0.4-0.1
		c0,0,0.1-0.1,0.4-0.2c0.8-0.2,1.6-0.7,2.3-1.3c0.3-0.3,0.6-0.5,0.8-0.9c0.3-0.4,0.5-0.8,0.5-1.1v-0.3l-1.3,0
		c-0.9,0-1.4-0.4-1.4-1.1c0-0.5,0.1-1,0.4-1.6c0.3-0.6,0.7-1,1.1-1c0.6,0,1.1,0.4,1.4,1.3C157.1,360.5,157.3,361.2,157.3,361.9z
		 M156.5,361.1c0-0.3-0.1-0.6-0.3-0.9c-0.2-0.3-0.5-0.5-0.8-0.5c-0.2,0-0.4,0.1-0.5,0.2c-0.2,0.2-0.2,0.3-0.2,0.5
		c0,0.5,0.3,0.7,1,0.7C155.8,361.2,156.2,361.2,156.5,361.1z" id="PATH_67" class="area" title=""></path>
	<path d="M162.3,362.4c0,1-0.3,1.9-0.9,2.8c-0.5,0.7-1,1.1-1.3,1.1c-0.8,0-1.4,0-2-0.1c-0.2,0-0.3-0.1-0.3-0.1s0.1-0.1,0.3-0.1
		c0.8-0.2,1.6-0.6,2.4-1.2c0.8-0.7,1.3-1.4,1.3-2.1c0-0.4-0.3-1-1-1.7l0.5-0.9c0-0.1,0.1-0.1,0.1-0.1c0,0,0.1,0.1,0.1,0.1
		c0.2,0.3,0.5,0.7,0.6,1.2C162.2,361.6,162.3,362.1,162.3,362.4z" id="PATH_68" class="area" title=""></path>
	<path d="M164.7,361.1c0,0.4-0.1,0.8-0.3,1.1c-0.1,0.2-0.2,0.3-0.2,0.3c0,0-0.1-0.1-0.1-0.4c0-1.2-0.2-4-0.6-8.5l0.8-0.8
		c0.1-0.1,0.1-0.1,0.1-0.1c0,0,0,0.1,0,0.2C164.6,354.3,164.7,357,164.7,361.1z" id="PATH_69" class="area" title=""></path>
</g>
<g id="G_70" class="area" title="">
	<path d="M83.8,468h-0.7c-0.9,0-1.4-0.5-1.6-1.6c-0.5,0.5-0.7,0.7-0.8,0.7h-0.9c-0.3,0-0.6,0-0.9-0.1c-0.4-0.1-0.6-0.3-0.6-0.5
		c0-0.8,0.3-1.4,0.8-1.8c0.4-0.3,1-0.6,1.8-1l-0.2-1l0.7-0.8c0,0.1,0.3,1.2,0.7,3.3c0.1,0.6,0.3,1.1,0.4,1.3
		c0.2,0.3,0.4,0.4,0.8,0.4h0.7V468z M81.3,465.9l-0.3-1.6c-0.3,0.1-0.7,0.3-1.2,0.5c-0.6,0.3-1,0.6-1,0.7c0,0.2,0.2,0.3,0.7,0.4
		c0.3,0.1,0.6,0.1,0.9,0.1C80.8,466,81.1,466,81.3,465.9z" id="PATH_71" class="area" title=""></path>
	<path d="M86.2,466c0,1.3-0.7,2-2,2h-0.8v-1.2h0.7c1,0,1.5-0.2,1.5-0.5c0-0.3-0.2-0.7-0.7-1.2l0.4-1c0-0.1,0.1-0.1,0.1-0.1
		c0,0,0.1,0.1,0.2,0.2C86,464.7,86.2,465.4,86.2,466z M85.4,470.2l-0.8,0.8l-0.8-0.8l0.8-0.8L85.4,470.2z M87.1,470.2l-0.8,0.8
		l-0.8-0.8l0.8-0.8L87.1,470.2z" id="PATH_72" class="area" title=""></path>
	<path d="M93.4,468h-1.1c-0.1,1.4-0.6,2.5-1.6,3.5c-0.3,0.3-0.5,0.5-0.6,0.5c-0.5,0-1.2-0.1-1.9-0.2c-0.2,0-0.4-0.1-0.4-0.1
		c0,0,0.1-0.1,0.4-0.2c0.8-0.2,1.6-0.7,2.3-1.2c0.3-0.3,0.6-0.5,0.8-0.9c0.3-0.4,0.5-0.8,0.5-1.1V468h-1.3c-1,0-1.4-0.4-1.4-1.2
		c0-0.5,0.1-1,0.4-1.6c0.3-0.6,0.7-1,1.1-1c0.5,0,0.9,0.3,1.2,1c0.2,0.5,0.4,1,0.4,1.6h1.1V468z M91.6,466.8c0-0.3-0.1-0.6-0.3-0.9
		c-0.2-0.4-0.5-0.5-0.8-0.5c-0.2,0-0.4,0.1-0.5,0.2c-0.2,0.2-0.2,0.3-0.2,0.6c0,0.5,0.4,0.7,1.2,0.7C91,466.9,91.3,466.8,91.6,466.8
		z" id="PATH_73" class="area" title=""></path>
	<path d="M98.3,468h-0.8c-0.9,0-1.5-0.3-1.9-0.9c-0.3,0.6-1,0.9-2.1,0.9H93v-1.2h0.9c1,0,1.5-0.4,1.6-1.1c0-0.3,0.1-0.5,0.2-0.5
		c0.1,0,0.2,0.2,0.2,0.5c0.1,0.7,0.6,1.1,1.5,1.1h0.9V468z M96.3,462.8l-0.8,0.8l-0.8-0.8l0.8-0.8L96.3,462.8z" id="PATH_74" class="area" title=""></path>
	<path d="M106.2,465.9c0,0.6-0.1,1.1-0.4,1.5c-0.3,0.4-0.8,0.7-1.3,0.7c-0.7,0-1.1-0.3-1.4-0.8c-0.4,0.6-0.8,0.8-1.4,0.8
		c-0.7,0-1.2-0.3-1.5-0.8c-0.4,0.6-0.9,0.8-1.6,0.8h-0.7v-1.2h0.8c0.7,0,1.2-0.4,1.3-1.2c0-0.2,0.1-0.3,0.2-0.3
		c0.1,0,0.1,0.1,0.2,0.3c0.1,0.8,0.5,1.2,1.3,1.2c0.4,0,0.8-0.1,1-0.3c0.1-0.2,0.2-0.4,0.3-0.8c0-0.2,0.1-0.3,0.2-0.3
		c0.1,0,0.1,0.1,0.2,0.3c0.1,0.8,0.5,1.2,1.2,1.2c0.8,0,1.1-0.2,1.1-0.5c0-0.3-0.2-0.7-0.6-1.1l0.5-0.9c0.1-0.1,0.1-0.2,0.2-0.2
		s0.1,0.1,0.2,0.2C106,464.9,106.2,465.4,106.2,465.9z M102.8,462.2l-0.7,0.7l-0.7-0.7l0.7-0.7L102.8,462.2z M103.7,460.6l-0.7,0.7
		l-0.7-0.7l0.7-0.7L103.7,460.6z M104.6,462.2l-0.7,0.7l-0.7-0.7l0.7-0.7L104.6,462.2z" id="PATH_75" class="area" title=""></path>
	<path d="M108.6,466.8c0,0.4-0.1,0.8-0.3,1.1c-0.1,0.2-0.2,0.3-0.2,0.3c0,0-0.1-0.1-0.1-0.4c0-1.2-0.2-4-0.6-8.5l0.8-0.8
		c0.1-0.1,0.1-0.1,0.1-0.1c0,0,0,0.1,0,0.2C108.5,459.9,108.6,462.6,108.6,466.8z" id="PATH_76" class="area" title=""></path>
</g>
<g id="G_77" class="area" title="">
	<path d="M249.1,448.1c0,0.7-0.2,1.3-0.7,1.6c-0.3,0.2-0.9,0.4-1.8,0.5c-1,0.2-2,0.3-3.1,0.3c-2.6,0-4-0.7-4-2.2
		c0-0.5,0.2-1,0.6-1.5c0.1-0.1,0.1-0.2,0.2-0.2c0.1,0,0.1,0,0.1,0.1c0,0,0,0.1,0,0.2c-0.1,0.3-0.2,0.6-0.2,0.9c0,1,1.3,1.5,3.8,1.5
		c1.2,0,2.3-0.1,3.1-0.2c1-0.2,1.4-0.4,1.4-0.7c0-0.2-0.2-0.6-0.7-1.2l0.5-0.9c0.1-0.1,0.1-0.1,0.2,0
		C248.9,447,249.1,447.6,249.1,448.1z M245.2,452.6l-0.8,0.8l-0.8-0.8l0.8-0.8L245.2,452.6z" id="PATH_78" class="area" title=""></path>
	<path d="M253.2,439.6c-0.4,0.4-1,0.5-1.6,0.5c-0.1,0-0.2,0-0.4,0s-0.3,0-0.4,0c-0.1,0-0.2,0.1-0.3,0.2s-0.2,0.2-0.2,0.2
		c-0.1,0-0.1-0.1-0.1-0.2c0-0.1,0.1-0.3,0.2-0.5c0.1-0.3,0.2-0.4,0.3-0.4c0.1,0,0.3,0,0.6,0.1s0.5,0.1,0.6,0.1c0.6,0,1,0,1.3-0.1
		c0.2,0,0.3-0.1,0.3-0.1c0,0,0.1,0,0.1,0C253.4,439.4,253.3,439.5,253.2,439.6z M252.5,449.1c0,0.4-0.1,0.8-0.3,1.1
		c-0.1,0.2-0.2,0.3-0.2,0.3c0,0-0.1-0.1-0.1-0.4c0-1.2-0.2-4-0.6-8.5l0.8-0.8c0.1-0.1,0.1-0.1,0.1-0.1c0,0,0,0.1,0,0.2
		C252.5,442.2,252.5,444.9,252.5,449.1z" id="PATH_79" class="area" title=""></path>
	<path d="M258.2,449.9c0,1.5-0.5,2.8-1.5,3.8c-0.3,0.3-0.5,0.5-0.6,0.5c-0.6,0-1.2-0.1-1.9-0.2c-0.3,0-0.4-0.1-0.4-0.1
		c0,0,0.1-0.1,0.4-0.2c0.8-0.2,1.6-0.7,2.3-1.3c0.3-0.3,0.6-0.5,0.8-0.9c0.3-0.4,0.5-0.8,0.5-1.1v-0.3l-1.3,0
		c-0.9,0-1.4-0.4-1.4-1.1c0-0.5,0.1-1,0.4-1.6c0.3-0.6,0.7-1,1.1-1c0.6,0,1.1,0.4,1.4,1.3C258.1,448.5,258.2,449.2,258.2,449.9z
		 M257.5,449.1c0-0.3-0.1-0.6-0.3-0.9c-0.2-0.3-0.5-0.5-0.8-0.5c-0.2,0-0.4,0.1-0.5,0.2s-0.2,0.3-0.2,0.5c0,0.5,0.3,0.7,1,0.7
		C256.8,449.2,257.1,449.2,257.5,449.1z" id="PATH_80" class="area" title=""></path>
	<path d="M264.3,448.2c0,1.4-0.9,2.1-2.8,2.1c-0.7,0-1.2-0.1-1.5-0.3c-0.4-0.2-0.6-0.7-0.6-1.3c0-0.3,0.1-0.6,0.2-0.9
		c0.1-0.1,0.1-0.2,0.2-0.2c0.1,0,0.1,0.1,0.1,0.3c0,0.1,0,0.2,0,0.3c0,0.4,0.2,0.7,0.6,0.8c0.2,0.1,0.6,0.1,1.1,0.1
		c1.5,0,2.2-0.2,2.2-0.7c0-0.7-0.9-1.7-2.6-2.9l0.3-1c0-0.1,0.1-0.1,0.1-0.1c0,0,0.1,0,0.2,0.1C263.5,445.9,264.3,447.1,264.3,448.2
		z" id="PATH_81" class="area" title=""></path>
	<path d="M276.9,450.2c0.1,0.3,0.1,0.6,0.1,0.9c0,0.4-0.1,0.7-0.2,1.1c-0.3,0.7-0.8,1.3-1.8,1.7c-0.8,0.3-1.6,0.5-2.5,0.5
		c-0.9,0-1.6-0.2-2.2-0.6c-0.6-0.5-0.9-1.1-0.9-2c0-0.5,0.1-0.9,0.3-1.5c0.2-0.4,0.3-0.7,0.5-0.9c0.1-0.1,0.2-0.1,0.2-0.1
		c0.1,0,0.1,0,0.1,0.1c0,0,0,0.1,0,0.2c-0.3,0.6-0.4,1.2-0.4,1.7c0,0.5,0.2,0.9,0.5,1.3c0.4,0.5,1.1,0.7,2,0.7c1,0,1.9-0.2,2.6-0.5
		c0.6-0.3,1-0.6,1.2-1c0.1-0.1,0.1-0.3,0.1-0.4c0-0.3-0.1-0.6-0.2-1c-0.1-0.3-0.4-0.8-0.9-1.6l0.4-0.8c0.1-0.1,0.1-0.2,0.1-0.2
		s0.1,0,0.1,0.1C276.5,448.6,276.8,449.4,276.9,450.2z M274,445.9l-0.8,0.8l-0.8-0.8l0.8-0.8L274,445.9z" id="PATH_82" class="area" title=""></path>
	<path d="M281,450.3h-0.7c-0.7,0-1.3-0.3-1.5-0.9c-0.2-0.4-0.3-1.1-0.3-1.9v-1.9c0-0.9-0.1-2.2-0.2-3.9l0.6-0.7
		c0.1-0.1,0.2-0.1,0.2,0c0.1,0.9,0.2,2.2,0.2,3.9v2.9c0,0.8,0.4,1.2,1.2,1.2h0.5V450.3z" id="PATH_83" class="area" title=""></path>
	<path d="M285.9,450.3h-0.8c-0.9,0-1.5-0.3-1.9-0.9c-0.3,0.6-1,0.9-2.1,0.9h-0.6v-1.2h0.9c1,0,1.5-0.4,1.6-1.1
		c0-0.3,0.1-0.5,0.2-0.5s0.2,0.2,0.2,0.5c0.1,0.7,0.6,1.1,1.5,1.1h0.9V450.3z M282.6,452.5l-0.8,0.8l-0.8-0.8l0.8-0.8L282.6,452.5z
		 M284.3,452.5l-0.8,0.8l-0.8-0.8l0.8-0.8L284.3,452.5z" id="PATH_84" class="area" title=""></path>
	<path d="M290.8,448.3c0,0.5,0,0.9-0.2,1.3c-0.2,0.5-0.5,0.8-0.8,0.8c-0.5,0-1.3-0.3-2.3-1c-0.3,0.4-0.5,0.6-0.6,0.7
		c-0.3,0.2-0.6,0.3-1,0.3h-0.5v-1.2h0.7c0.4,0,0.8-0.2,1.2-0.7c0.2-0.2,0.5-0.7,0.9-1.3c0.3-0.5,0.7-0.7,1-0.7
		c0.5,0,0.9,0.2,1.2,0.7C290.7,447.6,290.8,448,290.8,448.3z M290.2,449.1c0-0.3-0.1-0.6-0.3-1c-0.2-0.4-0.5-0.6-0.8-0.6
		c-0.3,0-0.6,0.3-1,0.9c0.2,0.2,0.5,0.4,0.9,0.6s0.8,0.3,1,0.3C290.2,449.3,290.2,449.2,290.2,449.1z" id="PATH_85" class="area" title=""></path>
</g>
<g id="G_86" class="area" title="">
	<path d="M194.7,462.9c0,0.7-0.2,1.2-0.6,1.6c-0.4,0.4-1,0.5-1.6,0.5c-0.4,0-0.8-0.1-1.1-0.4c-0.3-0.3-0.5-0.6-0.5-1
		c0-0.5,0.2-1,0.6-1.7c0.3-0.6,0.7-1.1,1.1-1.5C194,461.1,194.7,461.9,194.7,462.9z M194.2,463.3c0-0.3-0.2-0.6-0.7-1
		c-0.4-0.4-0.7-0.6-1.1-0.7c-0.5,0.7-0.8,1.2-0.8,1.6c0,0.2,0.1,0.4,0.4,0.6c0.2,0.1,0.4,0.2,0.7,0.2c0.4,0,0.8-0.1,1.1-0.2
		C194,463.5,194.2,463.4,194.2,463.3z" id="PATH_87" class="area" title=""></path>
	<path d="M202.5,465h-0.4c-0.4,0-0.7-0.1-1-0.4c-0.2-0.2-0.4-0.4-0.6-0.8c-0.2,0.4-0.5,0.7-0.8,0.9c-0.4,0.2-0.9,0.3-1.7,0.3
		c-1.4,0-2.1-0.5-2.1-1.5c0-0.3,0.1-0.7,0.3-1c0.1-0.1,0.1-0.2,0.2-0.2c0.1,0,0.1,0.1,0.1,0.2c0,0.1,0,0.1,0,0.3s0,0.2,0,0.3
		c0,0.6,0.5,0.9,1.5,0.9c1.4,0,2.1-0.3,2.1-0.8c0-0.3-0.4-1.4-1.2-3.3l0.4-0.8c0.1-0.1,0.1-0.2,0.1-0.2c0,0,0.1,0.1,0.1,0.2
		c0.3,0.8,0.8,2,1.4,3.6c0.3,0.8,0.7,1.2,1.3,1.2h0.3V465z" id="PATH_88" class="area" title=""></path>
	<path d="M207.9,465h-0.5c-0.3,0-0.7-0.1-1.2-0.2c-0.5-0.1-0.8-0.3-1.1-0.5c-0.6,0.4-1.4,0.6-2.4,0.6h-0.7v-1.2h0.5
		c0.8,0,1.3-0.1,1.5-0.2c-0.4-0.3-0.6-0.7-0.6-1.1c0-0.4,0.2-0.9,0.5-1.5c0.4-0.6,0.8-1,1.3-1c0.5,0,0.8,0.3,1.1,0.8
		c0.2,0.4,0.3,0.9,0.3,1.4c0,0.6-0.2,1-0.7,1.4c0.3,0.1,0.7,0.2,1.4,0.2h0.4V465z M205,457.6l-0.8,0.8l-0.8-0.8l0.8-0.8L205,457.6z
		 M206.2,462.4c0-0.2-0.1-0.5-0.3-0.8s-0.4-0.4-0.6-0.4c-0.2,0-0.4,0.1-0.7,0.3c-0.3,0.2-0.4,0.5-0.4,0.7c0,0.2,0.1,0.5,0.4,0.7
		c0.2,0.2,0.5,0.3,0.7,0.4c0.2,0,0.4-0.1,0.6-0.3C206.1,462.9,206.2,462.7,206.2,462.4z M206.7,457.6l-0.8,0.8l-0.8-0.8l0.8-0.8
		L206.7,457.6z" id="PATH_89" class="area" title=""></path>
	<path d="M210.3,463c0,1.3-0.7,2-2,2h-0.8v-1.2h0.7c1,0,1.5-0.2,1.5-0.5c0-0.3-0.2-0.7-0.7-1.2l0.4-1c0-0.1,0.1-0.1,0.1-0.1
		c0,0,0.1,0.1,0.2,0.2C210.1,461.7,210.3,462.4,210.3,463z M210.3,458.5l-0.8,0.8l-0.8-0.8l0.8-0.8L210.3,458.5z" id="PATH_90" class="area" title=""></path>
</g>
<g id="G_91" class="area" title="">
	<path d="M236.2,515.2c0,1.4-0.9,2.1-2.8,2.1c-0.7,0-1.2-0.1-1.5-0.3c-0.4-0.2-0.6-0.7-0.6-1.3c0-0.3,0.1-0.6,0.2-0.9
		c0.1-0.1,0.1-0.2,0.2-0.2c0.1,0,0.1,0.1,0.1,0.3c0,0.1,0,0.2,0,0.3c0,0.4,0.2,0.7,0.6,0.8c0.2,0.1,0.6,0.1,1.1,0.1
		c1.5,0,2.2-0.2,2.2-0.7c0-0.7-0.9-1.7-2.6-2.9l0.3-1c0-0.1,0.1-0.1,0.1-0.1c0,0,0.1,0,0.2,0.1C235.3,512.8,236.2,514,236.2,515.2z" id="PATH_92" class="area" title=""></path>
	<path d="M240.1,517.3h-0.7c-0.7,0-1.3-0.3-1.5-0.9c-0.2-0.4-0.3-1.1-0.3-1.9v-1.9c0-0.9-0.1-2.2-0.2-3.9l0.6-0.7
		c0.1-0.1,0.2-0.1,0.2,0c0.1,0.9,0.2,2.2,0.2,3.9v2.9c0,0.8,0.4,1.2,1.2,1.2h0.5V517.3z" id="PATH_93" class="area" title=""></path>
	<path d="M242.5,515.3c0,1.3-0.7,2-2,2h-0.8v-1.2h0.7c1,0,1.5-0.2,1.5-0.5c0-0.3-0.2-0.7-0.7-1.2l0.4-1c0-0.1,0.1-0.1,0.1-0.1
		c0,0,0.1,0.1,0.2,0.2C242.3,514,242.5,514.6,242.5,515.3z M242.2,519.5l-0.8,0.8l-0.8-0.8l0.8-0.8L242.2,519.5z" id="PATH_94" class="area" title=""></path>
	<path d="M246.5,517.3h-0.7c-0.7,0-1.3-0.3-1.5-0.9c-0.2-0.4-0.3-1.1-0.3-1.9v-1.9c0-0.9-0.1-2.2-0.2-3.9l0.6-0.7
		c0.1-0.1,0.2-0.1,0.2,0c0.1,0.9,0.2,2.2,0.2,3.9v2.9c0,0.8,0.4,1.2,1.2,1.2h0.5V517.3z" id="PATH_95" class="area" title=""></path>
	<path d="M252.7,517.3h-0.5c-0.4,0-0.8,0.1-1.1,0.2c-0.5,0.2-0.8,0.5-0.8,1c0,0.6,0.4,1.1,1.2,1.6l-0.5,1c-0.9-0.3-1.7-0.8-2.3-1.4
		c-0.8-0.7-1.2-1.6-1.2-2.5h-1.4v-1.2h1.3c0-0.8,0.2-1.6,0.6-2.6c0.4-0.9,0.7-1.3,0.9-1.3c0.2,0,0.5,0.4,0.8,1.3
		c0.3,0.8,0.4,1.3,0.4,1.6c0,1.4-0.7,2.1-2.1,2.1c0.1,0.4,0.3,0.8,0.6,1.2s0.7,0.7,1.1,0.9c0-0.1,0-0.3,0-0.4c0-0.7,0.2-1.3,0.5-1.8
		c0.5-0.7,1.1-1.1,2-1.1h0.4V517.3z M249.7,515.7c0-0.2-0.1-0.6-0.3-1.1c-0.2-0.6-0.4-0.8-0.6-0.8c-0.1,0-0.3,0.2-0.5,0.7
		c-0.2,0.5-0.3,1.1-0.3,1.7C249.1,516.1,249.7,516,249.7,515.7z" id="PATH_96" class="area" title=""></path>
	<path d="M257.7,515.3c0,0.5,0,0.9-0.2,1.3c-0.2,0.5-0.5,0.8-0.8,0.8c-0.5,0-1.3-0.3-2.3-1c-0.3,0.4-0.5,0.6-0.6,0.7
		c-0.3,0.2-0.6,0.3-1,0.3h-0.5v-1.2h0.7c0.4,0,0.8-0.2,1.2-0.7c0.2-0.2,0.5-0.7,0.9-1.3c0.3-0.5,0.7-0.7,1-0.7
		c0.5,0,0.9,0.2,1.2,0.7C257.5,514.5,257.6,514.9,257.7,515.3z M257.1,516c0-0.3-0.1-0.6-0.3-1c-0.2-0.4-0.5-0.6-0.8-0.6
		c-0.3,0-0.6,0.3-1,0.9c0.2,0.2,0.5,0.4,0.9,0.6s0.8,0.3,1,0.3C257,516.3,257.1,516.2,257.1,516z" id="PATH_97" class="area" title=""></path>
</g>
<g id="G_98" class="area" title="">
	<path d="M296.9,522c0.1,0.3,0.1,0.6,0.1,0.9c0,0.4-0.1,0.7-0.2,1.1c-0.3,0.7-0.8,1.3-1.8,1.7c-0.8,0.3-1.6,0.5-2.5,0.5
		c-0.9,0-1.6-0.2-2.2-0.6c-0.6-0.5-0.9-1.1-0.9-2c0-0.5,0.1-0.9,0.3-1.5c0.2-0.4,0.3-0.7,0.5-0.9c0.1-0.1,0.2-0.1,0.2-0.1
		c0.1,0,0.1,0,0.1,0.1c0,0,0,0.1,0,0.2c-0.3,0.6-0.4,1.2-0.4,1.7c0,0.5,0.2,0.9,0.5,1.3c0.4,0.5,1.1,0.7,2,0.7c1,0,1.9-0.2,2.6-0.5
		c0.6-0.3,1-0.6,1.2-1c0.1-0.1,0.1-0.3,0.1-0.4c0-0.3-0.1-0.6-0.2-1c-0.1-0.3-0.4-0.8-0.9-1.6l0.4-0.8c0.1-0.1,0.1-0.2,0.1-0.2
		s0.1,0,0.1,0.1C296.5,520.5,296.8,521.2,296.9,522z M294,517.7l-0.8,0.8l-0.8-0.8l0.8-0.8L294,517.7z" id="PATH_99" class="area" title=""></path>
	<path d="M301,522.2h-0.7c-0.7,0-1.3-0.3-1.5-0.9c-0.2-0.4-0.3-1.1-0.3-1.9v-1.9c0-0.9-0.1-2.2-0.2-3.9l0.6-0.7
		c0.1-0.1,0.2-0.1,0.2,0c0.1,0.9,0.2,2.2,0.2,3.9v2.9c0,0.8,0.4,1.2,1.2,1.2h0.5V522.2z" id="PATH_100" class="area" title=""></path>
	<path d="M307.2,512.9c0,0.2-0.2,0.6-0.4,1.1l-2.5,0.8c-1.1,0.4-1.9,0.7-2.3,0.9c0.8,0.8,1.3,1.4,1.6,1.7c0.5,0.7,0.8,1.3,0.9,2
		c0,0.5,0,1-0.2,1.4c-0.3,0.9-1.4,1.3-3.1,1.3h-0.5V521h0.6c0.8,0,1.4,0,1.7-0.1c0.7-0.2,1.1-0.5,1.1-1c0-0.7-0.5-1.5-1.6-2.5
		l-0.1,0.2c-0.1-0.1-0.3-0.3-0.5-0.6c-0.3-0.3-0.4-0.6-0.4-0.6c0-0.2,0-0.4,0.1-0.8c0.1-0.4,0.2-0.6,0.3-0.7
		c0.1-0.1,0.8-0.4,2.1-0.8C305.1,513.6,306.3,513.2,307.2,512.9z" id="PATH_101" class="area" title=""></path>
	<path d="M312.9,522.2h-1.1c-0.1,1.4-0.6,2.5-1.6,3.5c-0.3,0.3-0.5,0.5-0.6,0.5c-0.5,0-1.2-0.1-1.9-0.2c-0.2,0-0.4-0.1-0.4-0.1
		c0,0,0.1-0.1,0.4-0.2c0.8-0.2,1.6-0.7,2.3-1.2c0.3-0.3,0.6-0.5,0.8-0.9c0.3-0.4,0.5-0.8,0.5-1.1v-0.3h-1.3c-1,0-1.4-0.4-1.4-1.2
		c0-0.5,0.1-1,0.4-1.6c0.3-0.6,0.7-1,1.1-1c0.5,0,0.9,0.3,1.2,1c0.2,0.5,0.4,1,0.4,1.6h1.1V522.2z M311.2,521c0-0.3-0.1-0.6-0.3-0.9
		c-0.2-0.4-0.5-0.5-0.8-0.5c-0.2,0-0.4,0.1-0.5,0.2s-0.2,0.3-0.2,0.6c0,0.5,0.4,0.7,1.2,0.7C310.6,521,310.8,521,311.2,521z" id="PATH_102" class="area" title=""></path>
	<path d="M315.3,520.2c0,1.3-0.7,2-2,2h-0.8V521h0.7c1,0,1.5-0.2,1.5-0.5c0-0.3-0.2-0.7-0.7-1.2l0.4-1c0-0.1,0.1-0.1,0.1-0.1
		s0.1,0.1,0.2,0.2C315.1,518.9,315.3,519.5,315.3,520.2z M315,524.4l-0.8,0.8l-0.8-0.8l0.8-0.8L315,524.4z" id="PATH_103" class="area" title=""></path>
</g>
<g id="G_104" class="area" title="">
	<path d="M346,517.4c0,1-0.3,1.9-0.9,2.8c-0.5,0.7-1,1.1-1.3,1.1c-0.8,0-1.4,0-2-0.1c-0.2,0-0.3-0.1-0.3-0.1s0.1-0.1,0.3-0.1
		c0.8-0.2,1.6-0.6,2.4-1.2c0.8-0.7,1.3-1.4,1.3-2.1c0-0.4-0.3-1-1-1.7l0.5-0.9c0-0.1,0.1-0.1,0.1-0.1c0,0,0.1,0.1,0.1,0.1
		c0.2,0.3,0.5,0.7,0.6,1.2C345.9,516.6,346,517,346,517.4z M343.9,512.3l-0.7,0.7l-0.7-0.7l0.7-0.7L343.9,512.3z M344.8,510.7
		l-0.7,0.7l-0.7-0.7l0.7-0.7L344.8,510.7z M345.7,512.3L345,513l-0.7-0.7l0.7-0.7L345.7,512.3z" id="PATH_105" class="area" title=""></path>
	<path d="M352.1,515.2c0,1.4-0.9,2.1-2.8,2.1c-0.7,0-1.2-0.1-1.5-0.3c-0.4-0.2-0.6-0.7-0.6-1.3c0-0.3,0.1-0.6,0.2-0.9
		c0.1-0.1,0.1-0.2,0.2-0.2c0.1,0,0.1,0.1,0.1,0.3c0,0.1,0,0.2,0,0.3c0,0.4,0.2,0.7,0.6,0.8c0.2,0.1,0.6,0.1,1.1,0.1
		c1.5,0,2.2-0.2,2.2-0.7c0-0.7-0.9-1.7-2.6-2.9l0.3-1c0-0.1,0.1-0.1,0.1-0.1c0,0,0.1,0,0.2,0.1C351.2,512.8,352.1,514,352.1,515.2z" id="PATH_106" class="area" title=""></path>
	<path d="M366.1,517.3h-0.5c-0.5,0-0.8,0-1-0.1c0,0.3,0.1,0.5,0.1,0.8c0,0.5-0.1,0.8-0.2,1.1c-0.3,0.7-0.8,1.3-1.8,1.7
		c-0.8,0.3-1.6,0.5-2.5,0.5c-0.9,0-1.6-0.2-2.2-0.6c-0.6-0.5-0.9-1.1-0.9-2c0-0.5,0.1-0.9,0.3-1.5c0.2-0.4,0.3-0.7,0.5-0.9
		c0.1-0.1,0.2-0.1,0.2-0.1c0.1,0,0.1,0,0.1,0.1c0,0,0,0.1,0,0.2c-0.3,0.6-0.4,1.2-0.4,1.7c0,0.5,0.2,0.9,0.5,1.3
		c0.4,0.5,1.1,0.7,2,0.7c1,0,1.9-0.2,2.6-0.5c0.6-0.3,1-0.6,1.2-1c0.1-0.1,0.1-0.3,0-0.7c0-0.3-0.1-0.6-0.1-0.7
		c-0.1-0.3-0.5-0.8-1-1.5l0.4-0.8c0.1-0.1,0.1-0.2,0.1-0.2s0.1,0,0.1,0.1c0.5,0.8,1,1.2,1.6,1.2h0.8V517.3z M361.7,512.8l-0.8,0.8
		l-0.8-0.8l0.8-0.8L361.7,512.8z" id="PATH_107" class="area" title=""></path>
	<path d="M371,517.3h-0.8c-0.9,0-1.5-0.3-1.9-0.9c-0.3,0.6-1,0.9-2.1,0.9h-0.6v-1.2h0.9c1,0,1.5-0.4,1.6-1.1c0-0.3,0.1-0.5,0.2-0.5
		s0.2,0.2,0.2,0.5c0.1,0.7,0.6,1.1,1.5,1.1h0.9V517.3z M367.7,519.5l-0.8,0.8l-0.8-0.8l0.8-0.8L367.7,519.5z M369.4,519.5l-0.8,0.8
		l-0.8-0.8l0.8-0.8L369.4,519.5z" id="PATH_108" class="area" title=""></path>
	<path d="M377.1,515.2c0,0.4-0.1,0.8-0.4,1.2c-0.3,0.5-0.6,0.7-1,0.7c-0.3,0-1-0.2-2.1-0.7c-0.9,0.6-1.7,0.8-2.4,0.8h-0.5v-1.2h0.6
		c0.4,0,0.8,0,1.2-0.1c-0.4-0.3-0.6-0.7-0.6-1.2c0-0.6,0.4-1.3,1.3-2l-0.7-0.3c0.2-0.2,0.5-0.5,0.9-0.9c0.9,0.5,1.7,0.9,2.4,1.5
		C376.6,513.8,377.1,514.5,377.1,515.2z M374.5,514.4c0-0.3-0.1-0.5-0.2-0.7c-0.1-0.3-0.3-0.4-0.6-0.4c-0.3,0-0.5,0.1-0.8,0.3
		c-0.3,0.2-0.5,0.5-0.5,0.7c0,0.4,0.4,0.8,1.1,1c0.2-0.1,0.4-0.2,0.6-0.3C374.4,514.9,374.5,514.6,374.5,514.4z M376.6,515.6
		c0-0.3-0.2-0.6-0.6-1c-0.3-0.3-0.6-0.6-0.9-0.7c0,0.8-0.2,1.4-0.7,1.8c0.8,0.3,1.4,0.4,1.6,0.4C376.4,516.1,376.6,516,376.6,515.6z
		" id="PATH_109" class="area" title=""></path>
	<path d="M381.1,517.3h-0.7c-0.7,0-1.3-0.3-1.5-0.9c-0.2-0.4-0.3-1.1-0.3-1.9v-1.9c0-0.9-0.1-2.2-0.2-3.9l0.6-0.7
		c0.1-0.1,0.2-0.1,0.2,0c0.1,0.9,0.2,2.2,0.2,3.9v2.9c0,0.8,0.4,1.2,1.2,1.2h0.5V517.3z" id="PATH_110" class="area" title=""></path>
	<path d="M389,515.1c0,0.6-0.1,1.1-0.4,1.5c-0.3,0.4-0.8,0.7-1.3,0.7c-0.7,0-1.1-0.3-1.4-0.8c-0.4,0.6-0.8,0.8-1.4,0.8
		c-0.7,0-1.2-0.3-1.5-0.8c-0.4,0.6-0.9,0.8-1.6,0.8h-0.7v-1.2h0.8c0.7,0,1.2-0.4,1.3-1.2c0-0.2,0.1-0.3,0.2-0.3
		c0.1,0,0.1,0.1,0.2,0.3c0.1,0.8,0.5,1.2,1.3,1.2c0.4,0,0.8-0.1,1-0.3c0.1-0.2,0.2-0.4,0.3-0.8c0-0.2,0.1-0.3,0.2-0.3
		c0.1,0,0.1,0.1,0.2,0.3c0.1,0.8,0.5,1.2,1.2,1.2c0.8,0,1.1-0.2,1.1-0.5c0-0.3-0.2-0.7-0.6-1.1l0.5-0.9c0.1-0.1,0.1-0.2,0.2-0.2
		s0.1,0.1,0.2,0.2C388.8,514.2,389,514.7,389,515.1z M385.6,511.5l-0.7,0.7l-0.7-0.7l0.7-0.7L385.6,511.5z M386.5,509.9l-0.7,0.7
		l-0.7-0.7l0.7-0.7L386.5,509.9z M387.4,511.5l-0.7,0.7l-0.7-0.7l0.7-0.7L387.4,511.5z" id="PATH_111" class="area" title=""></path>
</g>
<g id="G_112" class="area" title="">
	<path d="M205.5,593h-0.4c-0.5,0-0.9-0.1-1.1-0.3c-0.3-0.2-0.5-0.6-0.5-1c-1.1,1-2.8,1.5-5.1,1.5c-2.4,0-3.6-0.7-3.6-2.2
		c0-0.5,0.2-1,0.6-1.5c0.1-0.1,0.1-0.1,0.2-0.1c0.1,0,0.1,0,0.1,0.1c0,0,0,0.1,0,0.2c-0.1,0.3-0.2,0.6-0.2,0.9c0,1,1.1,1.5,3.3,1.5
		c2.5,0,4.2-0.5,5-1.6c0.2-0.2,0.3-0.3,0.4-0.3c0.1,0,0.1,0.1,0.1,0.2c0,0.1,0,0.2-0.1,0.4c0,0.2-0.1,0.3-0.1,0.4
		c0,0.5,0.4,0.8,1.1,0.8h0.4V593z M199.3,587.2l-0.8,0.8l-0.8-0.8l0.8-0.8L199.3,587.2z M201,587.2l-0.8,0.8l-0.8-0.8l0.8-0.8
		L201,587.2z" id="PATH_113" class="area" title=""></path>
	<path d="M213.4,590.9c0,0.6-0.1,1.1-0.4,1.5c-0.3,0.4-0.8,0.7-1.3,0.7c-0.7,0-1.1-0.3-1.4-0.8c-0.4,0.6-0.8,0.8-1.4,0.8
		c-0.7,0-1.2-0.3-1.5-0.8c-0.4,0.6-0.9,0.8-1.6,0.8h-0.7v-1.2h0.8c0.7,0,1.2-0.4,1.3-1.2c0-0.2,0.1-0.3,0.2-0.3
		c0.1,0,0.1,0.1,0.2,0.3c0.1,0.8,0.5,1.2,1.3,1.2c0.4,0,0.8-0.1,1-0.3c0.1-0.2,0.2-0.4,0.3-0.8c0-0.2,0.1-0.3,0.2-0.3
		c0.1,0,0.1,0.1,0.2,0.3c0.1,0.8,0.5,1.2,1.2,1.2c0.8,0,1.1-0.2,1.1-0.5c0-0.3-0.2-0.7-0.6-1.1l0.5-0.9c0.1-0.1,0.1-0.2,0.2-0.2
		s0.1,0.1,0.2,0.2C213.2,589.9,213.4,590.4,213.4,590.9z M210,587.2l-0.7,0.7l-0.7-0.7l0.7-0.7L210,587.2z M210.9,585.7l-0.7,0.7
		l-0.7-0.7l0.7-0.7L210.9,585.7z M211.8,587.2l-0.7,0.7l-0.7-0.7l0.7-0.7L211.8,587.2z" id="PATH_114" class="area" title=""></path>
	<path d="M219.5,590.9c0,1.4-0.9,2.1-2.8,2.1c-0.7,0-1.2-0.1-1.5-0.3c-0.4-0.2-0.6-0.7-0.6-1.3c0-0.3,0.1-0.6,0.2-0.9
		c0.1-0.1,0.1-0.2,0.2-0.2c0.1,0,0.1,0.1,0.1,0.3c0,0.1,0,0.2,0,0.3c0,0.4,0.2,0.7,0.6,0.8c0.2,0.1,0.6,0.1,1.1,0.1
		c1.5,0,2.2-0.2,2.2-0.7c0-0.7-0.9-1.7-2.6-2.9l0.3-1c0-0.1,0.1-0.1,0.1-0.1c0,0,0.1,0,0.2,0.1C218.7,588.5,219.5,589.8,219.5,590.9
		z" id="PATH_115" class="area" title=""></path>
	<path d="M225.7,593h-0.4c-0.4,0-0.6-0.1-0.8-0.2c0,0.1,0,0.2,0,0.3c0,0.9-0.3,1.8-0.9,2.7c-0.5,0.8-1,1.1-1.3,1.1
		c-0.8,0-1.4,0-2-0.1c-0.2,0-0.3-0.1-0.3-0.1s0.1-0.1,0.3-0.1c0.8-0.2,1.6-0.6,2.4-1.2c0.8-0.7,1.3-1.4,1.3-2.1c0-0.4-0.3-1-1-1.7
		l0.5-0.9c0-0.1,0.1-0.1,0.1-0.1c0,0,0.1,0.1,0.1,0.1c0.3,0.4,0.5,0.7,0.7,0.8c0.3,0.2,0.7,0.4,1.1,0.4h0.3V593z" id="PATH_116" class="area" title=""></path>
	<path d="M233.6,590.9c0,0.6-0.1,1.1-0.4,1.5c-0.3,0.4-0.8,0.7-1.3,0.7c-0.7,0-1.1-0.3-1.4-0.8c-0.4,0.6-0.8,0.8-1.4,0.8
		c-0.7,0-1.2-0.3-1.5-0.8c-0.4,0.6-0.9,0.8-1.6,0.8h-0.7v-1.2h0.8c0.7,0,1.2-0.4,1.3-1.2c0-0.2,0.1-0.3,0.2-0.3
		c0.1,0,0.1,0.1,0.2,0.3c0.1,0.8,0.5,1.2,1.3,1.2c0.4,0,0.8-0.1,1-0.3c0.1-0.2,0.2-0.4,0.3-0.8c0-0.2,0.1-0.3,0.2-0.3
		c0.1,0,0.1,0.1,0.2,0.3c0.1,0.8,0.5,1.2,1.2,1.2c0.8,0,1.1-0.2,1.1-0.5c0-0.3-0.2-0.7-0.6-1.1l0.5-0.9c0.1-0.1,0.1-0.2,0.2-0.2
		s0.1,0.1,0.2,0.2C233.5,589.9,233.6,590.4,233.6,590.9z" id="PATH_117" class="area" title=""></path>
</g>
<g id="G_118" class="area" title="">
	<path d="M98,525.7h-0.4c-0.4,0-0.6-0.1-0.8-0.2c0,0.1,0,0.2,0,0.3c0,0.9-0.3,1.8-0.9,2.7c-0.5,0.8-1,1.1-1.3,1.1
		c-0.8,0-1.4,0-2-0.1c-0.2,0-0.3-0.1-0.3-0.1s0.1-0.1,0.3-0.1c0.8-0.2,1.6-0.6,2.4-1.2c0.8-0.7,1.3-1.4,1.3-2.1c0-0.4-0.3-1-1-1.7
		l0.5-0.9c0-0.1,0.1-0.1,0.1-0.1c0,0,0.1,0.1,0.1,0.1c0.3,0.4,0.5,0.7,0.7,0.8c0.3,0.2,0.7,0.4,1.1,0.4H98V525.7z" id="PATH_119" class="area" title=""></path>
	<path d="M104.2,525.7h-0.5c-0.4,0-0.8,0.1-1.1,0.2c-0.5,0.2-0.8,0.5-0.8,1c0,0.6,0.4,1.1,1.2,1.6l-0.5,1c-0.9-0.3-1.7-0.8-2.3-1.4
		c-0.8-0.7-1.2-1.6-1.2-2.5h-1.4v-1.2h1.3c0-0.8,0.2-1.6,0.6-2.6c0.4-0.9,0.7-1.3,0.9-1.3c0.2,0,0.5,0.4,0.8,1.3
		c0.3,0.8,0.4,1.3,0.4,1.6c0,1.4-0.7,2.1-2.1,2.1c0.1,0.4,0.3,0.8,0.6,1.2c0.3,0.4,0.7,0.7,1.1,0.9c0-0.1,0-0.3,0-0.4
		c0-0.7,0.2-1.3,0.5-1.8c0.5-0.7,1.1-1.1,2-1.1h0.4V525.7z M101.1,524.1c0-0.2-0.1-0.6-0.3-1.1c-0.2-0.6-0.4-0.8-0.6-0.8
		c-0.1,0-0.3,0.2-0.5,0.7c-0.2,0.5-0.3,1.1-0.3,1.7C100.6,524.5,101.1,524.4,101.1,524.1z" id="PATH_120" class="area" title=""></path>
	<path d="M113.4,525.7h-0.6c-0.7,0-1.1-0.3-1.4-0.8c-0.2,0.6-0.7,0.8-1.3,0.8c-0.6,0-1-0.3-1.3-0.8c-0.3,0.6-0.7,0.8-1.3,0.8
		c-0.7,0-1.2-0.3-1.5-0.8c-0.4,0.6-0.9,0.8-1.6,0.8h-0.7v-1.2h0.8c0.7,0,1.2-0.4,1.3-1.2c0-0.2,0.1-0.3,0.2-0.3
		c0.1,0,0.1,0.1,0.2,0.3c0.1,0.8,0.5,1.2,1.3,1.2c0.7,0,1.2-0.4,1.2-1.2c0-0.2,0.1-0.3,0.2-0.3c0.1,0,0.2,0.1,0.2,0.3
		c0.1,0.8,0.5,1.2,1,1.2c0.7,0,1.2-0.4,1.2-1.2c0-0.2,0.1-0.3,0.2-0.3c0.1,0,0.2,0.1,0.2,0.3c0.1,0.8,0.5,1.2,1.2,1.2h0.6V525.7z
		 M108.7,520.6l-0.7,0.7l-0.7-0.7l0.7-0.7L108.7,520.6z M109.6,519.1l-0.7,0.7l-0.7-0.7l0.7-0.7L109.6,519.1z M110.5,520.6l-0.7,0.7
		l-0.7-0.7l0.7-0.7L110.5,520.6z" id="PATH_121" class="area" title=""></path>
	<path d="M115.8,523.7c0,1.3-0.7,2-2,2H113v-1.2h0.7c1,0,1.5-0.2,1.5-0.5c0-0.3-0.2-0.7-0.7-1.2l0.4-1c0-0.1,0.1-0.1,0.1-0.1
		c0,0,0.1,0.1,0.2,0.2C115.6,522.4,115.8,523,115.8,523.7z M115.7,519.1l-0.8,0.8l-0.8-0.8l0.8-0.8L115.7,519.1z" id="PATH_122" class="area" title=""></path>
	<path d="M118.1,524.4c0,0.4-0.1,0.8-0.3,1.1c-0.1,0.2-0.2,0.3-0.2,0.3c0,0-0.1-0.1-0.1-0.4c0-1.2-0.2-4-0.6-8.5l0.8-0.8
		c0.1-0.1,0.1-0.1,0.1-0.1c0,0,0,0.1,0,0.2C118.1,517.6,118.1,520.3,118.1,524.4z" id="PATH_123" class="area" title=""></path>
	<path d="M124.4,525.7h-0.4c-0.4,0-0.6-0.1-0.8-0.2c0,0.1,0,0.2,0,0.3c0,0.9-0.3,1.8-0.9,2.7c-0.5,0.8-1,1.1-1.3,1.1
		c-0.8,0-1.4,0-2-0.1c-0.2,0-0.3-0.1-0.3-0.1s0.1-0.1,0.3-0.1c0.8-0.2,1.6-0.6,2.4-1.2c0.8-0.7,1.3-1.4,1.3-2.1c0-0.4-0.3-1-1-1.7
		l0.5-0.9c0-0.1,0.1-0.1,0.1-0.1c0,0,0.1,0.1,0.1,0.1c0.3,0.4,0.5,0.7,0.7,0.8c0.3,0.2,0.7,0.4,1.1,0.4h0.3V525.7z" id="PATH_124" class="area" title=""></path>
	<path d="M129.3,525.7h-0.8c-0.9,0-1.5-0.3-1.9-0.9c-0.3,0.6-1,0.9-2.1,0.9h-0.6v-1.2h0.9c1,0,1.5-0.4,1.6-1.1
		c0-0.3,0.1-0.5,0.2-0.5c0.1,0,0.2,0.2,0.2,0.5c0.1,0.7,0.6,1.1,1.5,1.1h0.9V525.7z M126,527.9l-0.8,0.8l-0.8-0.8l0.8-0.8L126,527.9
		z M127.7,527.9l-0.8,0.8l-0.8-0.8l0.8-0.8L127.7,527.9z" id="PATH_125" class="area" title=""></path>
	<path d="M131.7,523.7c0,1.3-0.7,2-2,2h-0.8v-1.2h0.7c1,0,1.5-0.2,1.5-0.5c0-0.3-0.2-0.7-0.7-1.2l0.4-1c0-0.1,0.1-0.1,0.1-0.1
		c0,0,0.1,0.1,0.2,0.2C131.5,522.4,131.7,523,131.7,523.7z M129.3,527.6l0.7-0.7l0.7,0.7l-0.7,0.7L129.3,527.6z M130.2,529.2
		l0.7-0.7l0.7,0.7l-0.7,0.7L130.2,529.2z M131.1,527.6l0.7-0.7l0.7,0.7l-0.7,0.7L131.1,527.6z" id="PATH_126" class="area" title=""></path>
</g>
<g id="G_127" class="area" title="">
	<path d="M423.3,541.4c0,0.7-0.2,1.3-0.7,1.6c-0.3,0.2-0.9,0.4-1.8,0.5c-1,0.2-2,0.3-3.1,0.3c-2.6,0-4-0.7-4-2.2
		c0-0.5,0.2-1,0.6-1.5c0.1-0.1,0.1-0.2,0.2-0.2s0.1,0,0.1,0.1c0,0,0,0.1,0,0.2c-0.1,0.3-0.2,0.6-0.2,0.9c0,1,1.3,1.5,3.8,1.5
		c1.2,0,2.3-0.1,3.1-0.2c1-0.2,1.4-0.4,1.4-0.7c0-0.2-0.2-0.6-0.7-1.2l0.5-0.9c0.1-0.1,0.1-0.1,0.2,0
		C423.1,540.3,423.3,540.9,423.3,541.4z M419.4,545.9l-0.8,0.8l-0.8-0.8l0.8-0.8L419.4,545.9z" id="PATH_128" class="area" title=""></path>
	<path d="M427.3,543.7h-0.7c-0.7,0-1.3-0.3-1.5-0.9c-0.2-0.4-0.3-1.1-0.3-1.9v-1.9c0-0.9-0.1-2.2-0.2-3.9l0.6-0.7
		c0.1-0.1,0.2-0.1,0.2,0c0.1,0.9,0.2,2.2,0.2,3.9v2.9c0,0.8,0.4,1.2,1.2,1.2h0.5V543.7z" id="PATH_129" class="area" title=""></path>
	<path d="M434.2,543.7h-0.7c-0.5,0-1-0.3-1.6-0.8c-0.3-0.3-0.7-0.8-1.2-1.5c0.1,1.6-0.8,2.4-2.7,2.4h-1.1v-1.2h1.3
		c1.3,0,2-0.4,2-1.1c0-0.4-0.2-0.9-0.7-1.5c-0.3-0.4-0.7-0.8-1.3-1.3c-0.5-0.4-0.7-0.7-0.7-0.7c0-0.7,0.1-1.2,0.3-1.5
		c0-0.1,0.7-0.3,2-0.8c1.3-0.5,2.5-0.9,3.6-1.2c0,0.1-0.1,0.5-0.3,1.1c-1.3,0.4-2.9,1-4.9,1.8c0.9,0.8,2.1,2.1,3.4,3.9
		c0.5,0.6,0.9,1,1.2,1.2c0.2,0.1,0.6,0.2,1,0.2h0.4V543.7z" id="PATH_130" class="area" title=""></path>
	<path d="M436.6,541.7c0,1.3-0.7,2-2,2h-0.8v-1.2h0.7c1,0,1.5-0.2,1.5-0.5c0-0.3-0.2-0.7-0.7-1.2l0.4-1c0-0.1,0.1-0.1,0.1-0.1
		s0.1,0.1,0.2,0.2C436.3,540.4,436.6,541,436.6,541.7z M435.6,537.3l-0.8,0.8l-0.8-0.8l0.8-0.8L435.6,537.3z M437.3,537.3l-0.8,0.8
		l-0.8-0.8l0.8-0.8L437.3,537.3z" id="PATH_131" class="area" title=""></path>
</g>
</svg>


