



    


    
<svg version="1.1" id="Layer_1" xmlns="http://www.w3.org/2000/svg" xmlns:xlink="http://www.w3.org/1999/xlink" x="0px" y="0px" viewBox="0 0 337.4 615" style="enable-background:new 0 0 337.4 615;" xml:space="preserve" width="100%" height="100%">
<style type="text/css">
	.st0{fill:#FDFAD6;stroke:#020202;stroke-width:0.2;stroke-miterlimit:10;}
	.st1{fill:#FBD1D1;stroke:#020202;stroke-width:0.2;stroke-miterlimit:10;}
	.st2{fill:#DBECCB;stroke:#020202;stroke-width:0.2;stroke-miterlimit:10;}
	.st3{fill:#D3D3D3;stroke:#030303;stroke-width:0.2;stroke-miterlimit:10;}
	.st4{fill:#E8D0E5;stroke:#020202;stroke-width:0.2;stroke-miterlimit:10;}
	.st5{enable-background:new    ;}
	.st6{fill:#040404;}
	.st7{fill:#FBD1D1;}
</style>
		<path class="st0 area" d="M89.2,124.9c6.5-1.2,12.5-3,13.7-9.5c1.2-3.6,0-7.1,2.4-10.7c7.7-11.9,2.4-26.1,10.1-36.8
			c3-4.2,10.7-6.5,16-7.7c12.5-2.4,24.3,7.1,36.2,11.3c0.6,0.6,3,2.4,3.6-0.6c1.2-3.6,3.6-7.1,7.1-7.7c3.9-0.4,9.2-0.2,11.6-2.9
			l-26.3-28.4l-11.5-10.2l-4-2.3l-2.6-0.7l-2.3,3l-2,1.6l-2.3,0.7l-14.8-0.3l-4.6,1.3l-3.6,2.3l-11.2,10.6L77.9,51.2l-10.2,9.6
			L65,62.5l-4.3,0.3l-13.5,4.3l-7.9,4l-3.8,3c4.6,2.7,22.9,13.2,27.8,17.2c6.6,5.3,7.5,12,7.5,18.4c0,1.4,0.3,5.2,0.7,10
			C77.6,120.3,82.4,125.3,89.2,124.9z" id="_x67E__x627__x631__x633___x622__x628__x627__x62F_" title="پارس آباد"></path>
		<path class="st1 area" d="M91.6,133.2c4.7,2.4,7.7-0.6,11.9-2.4c0,2.4-0.6,4.8,0.6,6.5c5.3,7.1,13.7-3.6,18.4,0
			c11.3,8.9,24.9,10.7,37.4,4.8c2.4-1.2,5.3,3,7.7,2.4c5-1.4,9.6-3.6,14.1-5.6l-0.6-0.5l-4.6-5.9l-2.6-6.3l0.3-7.6l3.6-6.6l5.6-4.9
			l6.3-3l12.2-2.3l10.2-6.3l6.9-2l-4.3-8.2l-5.3-6.9l-13.2-11.2l-6.4-6.9c-2.5,2.7-7.7,2.5-11.6,2.9c-3.6,0.6-5.9,4.2-7.1,7.7
			c-0.6,3-3,1.2-3.6,0.6c-11.9-4.2-23.8-13.7-36.2-11.3c-5.3,1.2-13.1,3.6-16,7.7c-7.7,10.7-2.4,24.9-10.1,36.8
			c-2.4,3.6-1.2,7.1-2.4,10.7c-1.2,6.5-7.1,8.3-13.7,9.5c-0.5,0-0.9,0-1.4,0C86.8,128.3,88.5,131.1,91.6,133.2z" id="_x628__x6CC__x644__x647___x633__x648__x627__x631_" title="بیله سوار"></path>
		<path class="st2 area" d="M118.9,200.3c0,3.6-6.5,8.9-2.4,9.5c4.2,0.6,9.5,1.8,14.2,0.6c0.6-0.6,0.6-1.8,1.2-2.4c2.4-1.2,5.3,0,6.5-1.2
			c5.3-4.4,11.9-8.3,18-6.4l7.5-4.4l0.3-1.3v-1.6l0.7-1.6l35.6-5.6l7.9-4.6l2-2.6l1.3-2.6l1-3.3v-3.3l-1-2.6l-5.6-11.5l-3-2.6
			l-11.2-4.3l-10.3-9.4c-4.5,2.1-9.1,4.2-14.1,5.6c-2.4,0.6-5.3-3.6-7.7-2.4c-12.5,5.9-26.1,4.2-37.4-4.7c-4.7-3.6-13.1,7.1-18.4,0
			c-1.2-1.8-0.6-4.2-0.6-6.5c-4.2,1.8-7.1,4.8-11.9,2.4c-3-2-4.8-4.9-3.8-8.3c-6.1-0.2-10.7-4.6-16.3-5.2c0.6,6.3,1.4,14.6,2.2,22.2
			c1.4,13.7,2.6,25.5,2.6,28.2c0,1.4-0.3,3.8-0.8,6.7c-1,6.6-2.9,19.4-0.1,24.5C89.4,203.1,104.8,200.3,118.9,200.3z" id="_x6AF__x631__x645__x6CC_" title="گرمی"></path>
		<path class="st3 area" d="M127.2,336.9c-0.7,0.2-1.3,0.4-1.9,0.7c1.1-0.3,1.7-0.4,1.9-0.5l1.2-0.3C128,336.8,127.6,336.8,127.2,336.9z" id="PATH_6" title=""></path>
		<path class="st4 area" d="M141.5,336.9c2.4-3-1.8-6.5-0.6-9.5c2.4-5.3,9.5-7.1,11.9-11.9c1.8-3.6-2.4-7.7,0-10.1
			c4.2-5.3,10.1-7.1,14.3-13.1c3-4.2,9.5-4.7,13.7-8.3c1.2-1.2,2.4-4.2,1.2-4.8c-4.8-3.6-7.1-10.7-2.4-11.9c5.9-1.2,11.3-2.4,16-4.7
			c3.5-1.8,7,1.1,11.1,0.6l-9-6.5l-0.3-4l1-4.3l-1.6-5.3l-2.3-2l-25.4-11.5l-12.9-9.2l-3.6-6.6l-0.3-9.2l1.6-2.6l2.7-1.6
			c-6.1-2-12.6,2-18,6.4c-1.2,1.2-4.2,0-6.5,1.2c-0.6,0.6-0.6,1.8-1.2,2.4c-4.7,1.2-10.1,0-14.2-0.6c-4.2-0.6,2.4-5.9,2.4-9.5
			c-14.1,0-29.5,2.9-43.5,1.1c0.4,0.8,1,1.4,1.7,1.8c10.7,5.4,7.8,14,6.7,17.3c-1.7,5-11.1,7.3-16.1,6c-2.3-0.6-4.3-0.8-5.6-0.9
			l-7,14c4.3,2.5,14.3,8.1,17.6,9.8c1.9,0.9,2.3,2.4,2.4,3.2c0.5,3.1-2.7,6.1-6,9.2c-1.3,1.2-2.6,2.5-3.2,3.3
			c-2,3-10.7,22.4-11.8,25.8c-1.3,3.8-11.6,16.4-17.6,20c-3.8,2.3-13.5,8.3-19,11.8c7.5,3.3,22.5,10.2,29.3,16.2
			c9.6,8.4,22.8,9.3,28.1,9.3c2.3,0,5.1,0.2,8.2,0.4c7.9,0.6,19.7,1.4,23.1-1.9c4.7-4.7,14.9-7.9,19.1-9c0.6-0.3,1.2-0.5,1.9-0.7
			c0.4,0,0.8-0.1,1.2,0l1.4-0.3l0.1,0.5C133.9,337.7,138.1,340.3,141.5,336.9z" id="_x645__x634__x6AF__x6CC__x646___x634__x647__x631_" title="مشگین شهر"></path>
		<path class="st2 area" d="M154.5,367.7c7.7,2.4,17.8,5.3,26.1,4.7c7.1,0,8.3-11.3,8.9-18.4c0.6-3,5.9-9.5,1.8-11.3
			c-6.5-3-13.7,3.6-20.8-2.4c-6.5-5.9-15.4,2.4-23.2,0c-1.8-0.9-3.7-2.5-6-3.5c-3.4,3.3-7.5,0.8-11.5,0l0.3,2.2
			c0,0.2,2.2,16.6,3.3,26.5c0.1,1.1,0.2,2.1,0.2,3.1C140.5,368.4,147.7,365.7,154.5,367.7z" id="_x633__x631__x639__x6CC__x646_" title="سرعین"></path>
		<path class="st1 area active" d="M215.1,282.2c0.6,1.2,0.6,3,0,4.2c-10.1,9.5-8.9,24.3,4.2,29.1c4.7,1.2,10.1,3,13.1,7.1
			c4.8,5.9,3.6,14.9,10.7,18.4c6.5,3,10.7,7.1,17.8,8.3c1.2,0,4.2-1.2,4.7,0c4.7,5.7,10.7,9.3,17,10.5c0.4-3.6,0.8-6.4,0.9-7.5
			l-8.1-32.5c-0.2-0.7,0-1.5,0.4-2l-3.6-0.3h-1l-6.3-5.6l-5.3-8.2l-7.3-8.6l-3-3.6l-3.3-3.3l-3-4.6l-3.3-2.6l-2.3-3l-1.3-6.3
			l-2.3-4.9h-4.6l-9.6,4.3h-5.9l-1.9-1.5C211,273.5,212.8,278.4,215.1,282.2z" id="_x646__x627__x645__x6CC__x646_" title="نامین"></path>
		<path class="st0 area" d="M199.7,380.2c1.2,0.6,3,0,3.6-0.6c4.7-4.7,8.9-14.2,16-11.3c7.7,3.6,7.1,11.3,1.2,18.4
			c-1.8,2.4,2.4,4.8,4.7,7.1c1.8,2.4-0.6,3.6-1.8,5.9c-0.6,2.4-0.6,5.9,1.2,6.5c5.3,1.8,10.7,2.4,16,5.3c5.3,3,9.5-4.2,14.3-5.3
			c5.2-1.4,10.4,0.5,15,3.2c7.6-7.6,10.4-18.5,10.4-24.4c0-4.4,1.4-16.9,2.4-25.3c-6.3-1.2-12.4-4.8-17-10.5c-0.6-1.2-3.6,0-4.8,0
			c-7.1-1.2-11.3-5.3-17.8-8.3c-7.1-3.6-5.9-12.5-10.7-18.4c-3-4.2-8.3-5.9-13.1-7.1c-13.1-4.8-14.2-19.6-4.2-29.1
			c0.6-1.2,0.6-3,0-4.2c-2.3-3.9-4.1-8.7-3.2-12.8l-1.8-1.4l-3-4.3l-0.6-0.5c-4.1,0.5-7.6-2.4-11.1-0.6c-4.7,2.4-10.1,3.6-16,4.7
			c-4.8,1.2-2.4,8.3,2.4,11.9c1.2,0.6,0,3.6-1.2,4.8c-4.2,3.6-10.7,4.2-13.7,8.3c-4.2,5.9-10.1,7.7-14.3,13.1
			c-2.4,2.4,1.8,6.5,0,10.1c-2.4,4.7-9.5,6.5-11.9,11.9c-1.2,3,3,6.5,0.6,9.5c0,0-0.1,0.1-0.1,0.1c2.4,1,4.2,2.6,6,3.5
			c7.7,2.4,16.6-5.9,23.2,0c7.1,5.9,14.3-0.6,20.8,2.4c4.2,1.8-1.2,8.3-1.8,11.3c-0.4,4.5-1,10.8-3.2,14.7
			C190.6,372.7,194.5,377.5,199.7,380.2z" id="_x627__x631__x62F__x628__x6CC__x644_" title="اردبیل"></path>
		<path class="st4 area" d="M191.3,440.8c1.8,0.6,5.3,3,6.5,1.2c2.4-3.6,4.2-8.3,6.5-8.9c11.9-3.6,15.4-11.9,17.8-23.2
			c0.3-1.6,1.2-2.7,2.4-3.6c0,0,0,0,0,0c-1.8-0.6-1.8-4.2-1.2-6.5c1.2-2.4,3.6-3.6,1.8-5.9c-2.4-2.4-6.5-4.7-4.7-7.1
			c5.9-7.1,6.5-14.8-1.2-18.4c-7.1-3-11.3,6.5-16,11.3c-0.6,0.6-2.4,1.2-3.6,0.6c-5.2-2.7-9.1-7.5-13.3-11.5
			c-1.3,2.2-3.1,3.7-5.7,3.7c-8.3,0.6-18.4-2.4-26.1-4.7c-6.9-2-14,0.6-20.9,1c0.1,2,0,4,0,5.9c-0.2,6-0.3,11.2,3.8,17.4
			c2.4,3.7,6.1,6.9,9.4,9.8c4.3,3.9,7.8,6.9,7.7,10.4c0,1.1-0.4,2.6-2.2,4c-5.8,4.6-5.7,6.1-5.6,6.2c0,0,0.4,0.8,3.5,1.5
			c9.1,2,16.5,5,21.8,7.1l1.7,0.7c3.6,1.4,8.3,4.5,11.1,8.1C187,439.4,189.4,439.8,191.3,440.8z" id="_x646__x6CC__x631_" title="نیر"></path>
		<path class="st1 area" d="M316.6,574.8c0-11.1,0-20.6-4.5-26.6c-1.6-2.2-3.4-4.3-5.3-6.5c-3.7-4.4-7.5-9-9.8-13.7
			c-4.7-9.3-13.6-24.7-19.1-28.8c-7.8-5.9-9.4-17-4-27.8c4.5-8.9,1.4-16.3-3.3-25.8c-0.5-0.9-0.9-1.9-1.4-2.8
			c-2.4-4.6-5.1-10-6.3-15.3c-6.6,0.2-13.8,0.8-16.4,9.1c-0.6,1.2-3,3-5.3,4.2c-1.8,1.2-4.2,4.8-1.8,6.5c5.9,5.3,7.1,12.5,4.8,18.4
			c-3.6,8.9-13.7,7.7-22.6,8.3c-1.2,0-2.4,1.8-2.4,3c0.6,5.3,2.4,9.5-1.2,15.4c-2.4,4.2,1.2,10.7-1.2,14.8c-3,4.2-7.7,5.9-12.5,8.3
			c-7.4,4.3-14.7,1.9-22.3,0.7c0.5,1.7,0.8,3.4,0.8,4.7c0,4,2.1,12.6,3,16.3l9.1,9.1l9,4.5l8.9,12.2l9.3,5.9c5-0.5,11-0.4,12.9,2.2
			c1.2,1.7,2.4,4.1,3.1,5.5l9.6,2.7l0.5,0.7c0.6,0.8,3.8,5.2,3.8,8.6c0,1.6,1.4,5,4.7,5.8c1.1,0.3,2.2,0.7,3.3,1
			c3.3,1.2,4.6,1.5,5.9,0.2c7.5-7.5,13.2-10.4,17.5-8.8c1.5,0.6,4.6,0.8,7.5,1c4.8,0.3,9.7,0.6,12.7,2.6c2.8,1.7,12.9-0.1,16.9-2.3
			C318.5,584.7,316.6,580.3,316.6,574.8z" id="_x62E__x644__x62E__x627__x644_" title="خلخال"></path>
		<path class="st2 area" d="M204.4,515.6c4.7-2.4,9.5-4.2,12.5-8.3c2.4-4.2-1.2-10.7,1.2-14.8c3.6-5.9,1.8-10.1,1.2-15.4
			c0-1.2,1.2-3,2.4-3c8.9-0.6,19,0.6,22.6-8.3c2.4-5.9,1.2-13.1-4.8-18.4c-2.4-1.8,0-5.3,1.8-6.5c2.4-1.2,4.7-3,5.3-4.2
			c2.6-8.3,9.7-8.9,16.4-9.1c-1.2-5.9-0.5-11.7,5-16.2c0.7-0.6,1.3-1.1,1.9-1.8c-4.6-2.7-9.8-4.6-15-3.2c-4.8,1.2-8.9,8.3-14.3,5.3
			c-5.3-3-10.7-3.6-16-5.3c-1.2,0.8-2,2-2.4,3.6c-2.4,11.3-5.9,19.6-17.8,23.2c-2.4,0.6-4.2,5.3-6.5,8.9c-1.2,1.8-4.7-0.6-6.5-1.2
			c-1.9-1-4.3-1.4-6.5-0.9c1.5,2,2.5,4.1,2.5,6.3c0,4.5-2.1,20.5-2.2,21.2l-0.2,1.5l-1.5,0.5c-0.1,0-6.5,2.2-12.9,5.4
			c-3.6,1.8-6.5,5.1-6.9,8.1c-0.2,1.4,0.1,2.5,1,3.3c4.6,4.6,11.1,15.4,11.4,15.9c0.6,1.1,4.4,8.2,6.1,14.2
			C189.7,517.5,197,519.9,204.4,515.6z" id="_x6A9__x648__x647__x633__x631_" title="کوهسر"></path>

	<g class="st5 area" id="G_14" title="">
		<path class="st6 area" d="M180.6,408.3h-1.1" id="PATH_15" title=""></path>
	</g>
	<g class="st5 area" id="G_16" title="">
		<path class="st6 area" d="M177.1,353.6c0,0.2,0.1,0.5,0.1,1" id="PATH_17" title=""></path>
	</g>
	<g class="st5 area" id="G_18" title="">
		<path class="st6 area" d="M226.7,315.6V307h1.2l4.5,6.7V307h1.1v8.6h-1.2l-4.5-6.8v6.8H226.7z" id="PATH_19" title=""></path>
		<path class="st6 area" d="M239.4,314.8c-0.4,0.3-0.8,0.6-1.1,0.7s-0.7,0.2-1.2,0.2c-0.7,0-1.2-0.2-1.6-0.5s-0.6-0.8-0.6-1.3
			c0-0.3,0.1-0.6,0.2-0.8s0.3-0.5,0.5-0.6s0.5-0.3,0.8-0.3c0.2-0.1,0.5-0.1,0.9-0.2c0.9-0.1,1.5-0.2,1.9-0.4c0-0.1,0-0.2,0-0.3
			c0-0.4-0.1-0.7-0.3-0.9c-0.3-0.2-0.7-0.4-1.2-0.4c-0.5,0-0.9,0.1-1.1,0.3s-0.4,0.5-0.5,0.9l-1-0.1c0.1-0.4,0.2-0.8,0.5-1.1
			s0.5-0.5,0.9-0.6s0.9-0.2,1.4-0.2c0.5,0,1,0.1,1.3,0.2s0.6,0.3,0.7,0.5s0.3,0.4,0.3,0.7c0,0.2,0.1,0.5,0.1,1v1.4
			c0,1,0,1.6,0.1,1.9s0.1,0.5,0.3,0.7h-1.1C239.5,315.3,239.4,315.1,239.4,314.8z M239.3,312.4c-0.4,0.2-1,0.3-1.7,0.4
			c-0.4,0.1-0.7,0.1-0.9,0.2s-0.3,0.2-0.4,0.3s-0.1,0.3-0.1,0.5c0,0.3,0.1,0.5,0.3,0.7s0.5,0.3,0.9,0.3c0.4,0,0.8-0.1,1.1-0.3
			s0.5-0.4,0.7-0.7c0.1-0.2,0.2-0.6,0.2-1.1V312.4z" id="PATH_20" title=""></path>
		<path class="st6 area" d="M242,315.6v-6.2h0.9v0.9c0.2-0.3,0.5-0.5,0.8-0.7s0.7-0.3,1.1-0.3c0.5,0,0.8,0.1,1.1,0.3s0.5,0.5,0.6,0.8
			c0.5-0.7,1.1-1.1,1.9-1.1c0.6,0,1.1,0.2,1.4,0.5s0.5,0.9,0.5,1.6v4.3h-1v-3.9c0-0.4,0-0.7-0.1-0.9s-0.2-0.3-0.4-0.4
			s-0.4-0.2-0.6-0.2c-0.4,0-0.8,0.1-1.1,0.4s-0.4,0.8-0.4,1.4v3.6h-1.1v-4c0-0.5-0.1-0.8-0.3-1.1s-0.5-0.4-0.8-0.4
			c-0.3,0-0.6,0.1-0.8,0.2s-0.4,0.4-0.5,0.7s-0.2,0.7-0.2,1.3v3.2H242z" id="PATH_21" title=""></path>
		<path class="st6 area" d="M252,308.2V307h1.1v1.2H252z M252,315.6v-6.2h1.1v6.2H252z" id="PATH_22" title=""></path>
		<path class="st6 area" d="M254.6,315.6v-6.2h0.9v0.9c0.5-0.7,1.1-1,2-1c0.4,0,0.7,0.1,1,0.2s0.6,0.3,0.7,0.5s0.3,0.5,0.3,0.8
			c0,0.2,0.1,0.5,0.1,1v3.8h-1.1v-3.8c0-0.4,0-0.8-0.1-1s-0.2-0.4-0.4-0.5s-0.5-0.2-0.7-0.2c-0.4,0-0.8,0.1-1.2,0.4
			s-0.5,0.8-0.5,1.6v3.4L254.6,315.6L254.6,315.6z" id="PATH_23" title=""></path>
	</g>
	<g class="st5 area" id="G_24" title="">
		<path class="st6 area" d="M234.6,534l-1.4,1.4v3H232v0" id="PATH_25" title=""></path>
		<path class="st6 area" d="M233.2,534" id="PATH_26" title=""></path>
	</g>

<g id="G_27" class="area" title="">
	<path d="M103.1,49.9c0,1.4-0.9,2.1-2.8,2.1c-0.7,0-1.2-0.1-1.5-0.3c-0.4-0.2-0.6-0.7-0.6-1.3c0-0.3,0.1-0.6,0.2-0.9
		c0.1-0.1,0.1-0.2,0.2-0.2c0.1,0,0.1,0.1,0.1,0.3c0,0.1,0,0.2,0,0.3c0,0.4,0.2,0.7,0.6,0.8c0.2,0.1,0.6,0.1,1.1,0.1
		c1.5,0,2.2-0.2,2.2-0.7c0-0.7-0.9-1.7-2.6-2.9l0.3-1c0-0.1,0.1-0.1,0.1-0.1c0,0,0.1,0,0.2,0.1C102.3,47.5,103.1,48.8,103.1,49.9z" id="PATH_28" class="area" title=""></path>
	<path d="M107.1,52h-0.7c-0.7,0-1.3-0.3-1.5-0.9c-0.2-0.4-0.3-1.1-0.3-1.9v-1.9c0-0.9-0.1-2.2-0.2-3.9l0.6-0.7
		c0.1-0.1,0.2-0.1,0.2,0c0.1,0.9,0.2,2.2,0.2,3.9v2.9c0,0.8,0.4,1.2,1.2,1.2h0.5V52z" id="PATH_29" class="area" title=""></path>
	<path d="M109.5,50c0,1.3-0.7,2-2,2h-0.8v-1.2h0.7c1,0,1.5-0.2,1.5-0.5c0-0.3-0.2-0.7-0.7-1.2l0.4-1c0-0.1,0.1-0.1,0.1-0.1
		c0,0,0.1,0.1,0.2,0.2C109.2,48.7,109.5,49.4,109.5,50z M109.1,54.2l-0.8,0.8l-0.8-0.8l0.8-0.8L109.1,54.2z" id="PATH_30" class="area" title=""></path>
	<path d="M113.5,41.3c-0.4,0.4-1,0.5-1.6,0.5c-0.1,0-0.2,0-0.4,0s-0.3,0-0.4,0c-0.1,0-0.2,0.1-0.3,0.2c-0.1,0.1-0.2,0.2-0.2,0.2
		c-0.1,0-0.1-0.1-0.1-0.2c0-0.1,0.1-0.3,0.2-0.5c0.1-0.3,0.2-0.4,0.3-0.4c0.1,0,0.3,0,0.6,0.1c0.3,0,0.5,0.1,0.6,0.1
		c0.6,0,1,0,1.3-0.1c0.2,0,0.3-0.1,0.3-0.1c0,0,0.1,0,0.1,0C113.7,41.1,113.6,41.2,113.5,41.3z M112.8,50.8c0,0.4-0.1,0.8-0.3,1.1
		c-0.1,0.2-0.2,0.3-0.2,0.3c0,0-0.1-0.1-0.1-0.4c0-1.2-0.2-4-0.6-8.5l0.8-0.8c0.1-0.1,0.1-0.1,0.1-0.1c0,0,0,0.1,0,0.2
		C112.8,43.9,112.8,46.6,112.8,50.8z" id="PATH_31" class="area" title=""></path>
	<path d="M131.2,49.9c0,1.4-0.6,2.1-1.8,2.1c-0.7,0-1.1-0.3-1.3-0.9c-0.3,0.6-0.8,0.9-1.4,0.9c-0.2,0-0.5,0-0.7-0.1
		c0,0.6-0.1,1.2-0.1,1.9c-0.3,0.7-0.8,1.3-1.7,1.7c-0.8,0.3-1.6,0.5-2.5,0.5c-0.9,0-1.6-0.2-2.2-0.6c-0.6-0.5-0.9-1.1-0.9-2
		c0-0.5,0.1-0.9,0.3-1.5c0.2-0.4,0.3-0.7,0.5-0.9c0.1-0.1,0.2-0.1,0.2-0.1c0.1,0,0.1,0,0.1,0.1c0,0,0,0.1,0,0.2
		c-0.3,0.6-0.4,1.2-0.4,1.7c0,0.5,0.2,0.9,0.5,1.3c0.4,0.5,1.1,0.7,2,0.7c1,0,1.9-0.2,2.6-0.5c0.6-0.3,1-0.6,1.1-1
		c0.1-0.1,0.1-0.3,0-0.7c0-0.3-0.1-0.6-0.1-0.7c-0.1-0.3-0.4-0.8-1-1.5l0.4-0.8c0.1-0.1,0.1-0.2,0.1-0.2c0,0,0.1,0,0.1,0.1
		c0.3,0.4,0.5,0.7,0.6,0.8c0.3,0.3,0.6,0.4,1,0.4c0.4,0,0.8-0.1,1-0.4c0.1-0.2,0.2-0.4,0.3-0.9c0-0.2,0.1-0.3,0.2-0.3
		c0.1,0,0.1,0.1,0.1,0.3c0.1,0.5,0.2,0.8,0.4,1c0.2,0.2,0.6,0.3,1.1,0.3c0.2,0,0.4-0.1,0.5-0.2c0.2-0.1,0.3-0.3,0.3-0.5
		c0-0.3-0.2-0.6-0.6-1.1l0.5-0.9c0.1-0.1,0.1-0.1,0.1-0.1c0,0,0.1,0.1,0.1,0.1C131,48.8,131.2,49.3,131.2,49.9z" id="PATH_32" class="area" title=""></path>
	<path d="M136.2,52.1c0,1-0.3,1.9-0.9,2.8c-0.5,0.7-1,1.1-1.3,1.1c-0.8,0-1.4,0-2-0.1c-0.2,0-0.3-0.1-0.3-0.1s0.1-0.1,0.3-0.1
		c0.8-0.2,1.6-0.6,2.4-1.2c0.8-0.7,1.3-1.4,1.3-2.1c0-0.4-0.3-1-1-1.7l0.5-0.9c0-0.1,0.1-0.1,0.1-0.1c0,0,0.1,0.1,0.1,0.1
		c0.2,0.3,0.5,0.7,0.6,1.2C136.1,51.3,136.2,51.7,136.2,52.1z" id="PATH_33" class="area" title=""></path>
	<path d="M140.2,52h-0.7c-0.7,0-1.3-0.3-1.5-0.9c-0.2-0.4-0.3-1.1-0.3-1.9v-1.9c0-0.9-0.1-2.2-0.2-3.9l0.6-0.7
		c0.1-0.1,0.2-0.1,0.2,0c0.1,0.9,0.2,2.2,0.2,3.9v2.9c0,0.8,0.4,1.2,1.2,1.2h0.5V52z" id="PATH_34" class="area" title=""></path>
	<path d="M142.6,50c0,1.3-0.7,2-2,2h-0.8v-1.2h0.7c1,0,1.5-0.2,1.5-0.5c0-0.3-0.2-0.7-0.7-1.2l0.4-1c0-0.1,0.1-0.1,0.1-0.1
		c0,0,0.1,0.1,0.2,0.2C142.4,48.7,142.6,49.4,142.6,50z M140.2,54l0.7-0.7l0.7,0.7l-0.7,0.7L140.2,54z M141.1,55.5l0.7-0.7l0.7,0.7
		l-0.7,0.7L141.1,55.5z M142,54l0.7-0.7l0.7,0.7l-0.7,0.7L142,54z" id="PATH_35" class="area" title=""></path>
</g>
<g id="G_36" class="area" title="">
	<path d="M125.3,102.7c0,1-0.3,1.9-0.9,2.8c-0.5,0.7-1,1.1-1.3,1.1c-0.8,0-1.4,0-2-0.1c-0.2,0-0.3-0.1-0.3-0.1s0.1-0.1,0.3-0.1
		c0.8-0.2,1.6-0.6,2.4-1.2c0.8-0.7,1.3-1.4,1.3-2.1c0-0.4-0.3-1-1-1.7l0.5-0.9c0-0.1,0.1-0.1,0.1-0.1c0,0,0.1,0.1,0.1,0.1
		c0.2,0.3,0.5,0.7,0.6,1.2C125.2,102,125.3,102.4,125.3,102.7z" id="PATH_37" class="area" title=""></path>
	<path d="M127.7,101.4c0,0.4-0.1,0.8-0.3,1.1c-0.1,0.2-0.2,0.3-0.2,0.3c0,0-0.1-0.1-0.1-0.4c0-1.2-0.2-4-0.6-8.5l0.8-0.8
		c0.1-0.1,0.1-0.1,0.1-0.1c0,0,0,0.1,0,0.2C127.6,94.6,127.7,97.3,127.7,101.4z" id="PATH_38" class="area" title=""></path>
	<path d="M133.9,102.6h-1.1c-0.1,1.4-0.6,2.5-1.6,3.5c-0.3,0.3-0.5,0.5-0.6,0.5c-0.5,0-1.2-0.1-1.9-0.2c-0.2,0-0.4-0.1-0.4-0.1
		s0.1-0.1,0.4-0.2c0.8-0.2,1.6-0.7,2.3-1.2c0.3-0.3,0.6-0.5,0.8-0.9c0.3-0.4,0.5-0.8,0.5-1.1v-0.3H131c-1,0-1.4-0.4-1.4-1.2
		c0-0.5,0.1-1,0.4-1.6c0.3-0.6,0.7-1,1.1-1c0.5,0,0.9,0.3,1.2,1c0.2,0.5,0.4,1,0.4,1.6h1.1V102.6z M132.1,101.5
		c0-0.3-0.1-0.6-0.3-0.9c-0.2-0.4-0.5-0.5-0.8-0.5c-0.2,0-0.4,0.1-0.5,0.2c-0.2,0.2-0.2,0.3-0.2,0.6c0,0.5,0.4,0.7,1.2,0.7
		C131.6,101.5,131.8,101.5,132.1,101.5z" id="PATH_39" class="area" title=""></path>
	<path d="M141.8,100.5c0,0.6-0.1,1.1-0.4,1.5c-0.3,0.4-0.8,0.7-1.3,0.7c-0.7,0-1.1-0.3-1.4-0.8c-0.4,0.6-0.8,0.8-1.4,0.8
		c-0.7,0-1.2-0.3-1.5-0.8c-0.4,0.6-0.9,0.8-1.6,0.8h-0.7v-1.2h0.8c0.7,0,1.2-0.4,1.3-1.2c0-0.2,0.1-0.3,0.2-0.3
		c0.1,0,0.1,0.1,0.2,0.3c0.1,0.8,0.5,1.2,1.3,1.2c0.4,0,0.8-0.1,1-0.3c0.1-0.2,0.2-0.4,0.3-0.8c0-0.2,0.1-0.3,0.2-0.3
		c0.1,0,0.1,0.1,0.2,0.3c0.1,0.8,0.5,1.2,1.2,1.2c0.8,0,1.1-0.2,1.1-0.5c0-0.3-0.2-0.7-0.6-1.1l0.5-0.9c0.1-0.1,0.1-0.2,0.2-0.2
		s0.1,0.1,0.2,0.2C141.6,99.6,141.8,100.1,141.8,100.5z" id="PATH_40" class="area" title=""></path>
	<path d="M152.6,102.6h-0.7c-0.9,0-1.4-0.5-1.6-1.6c-0.5,0.5-0.7,0.7-0.8,0.7h-0.9c-0.3,0-0.6,0-0.9-0.1c-0.4-0.1-0.6-0.3-0.6-0.5
		c0-0.7,0.3-1.4,0.8-1.8c0.4-0.3,1-0.6,1.8-1l-0.2-1l0.7-0.8c0,0.1,0.3,1.2,0.7,3.3c0.1,0.6,0.3,1.1,0.4,1.3
		c0.2,0.3,0.4,0.4,0.8,0.4h0.7V102.6z M150.1,100.6l-0.3-1.6c-0.3,0.1-0.7,0.3-1.2,0.5c-0.6,0.3-1,0.6-1,0.7c0,0.2,0.2,0.3,0.7,0.4
		c0.3,0.1,0.6,0.1,0.9,0.1C149.6,100.7,149.8,100.7,150.1,100.6z" id="PATH_41" class="area" title=""></path>
	<path d="M156.3,102.6h-0.4c-0.9,0-1.5-0.3-1.8-1c-0.1,0.3-0.3,0.5-0.6,0.7c-0.3,0.2-0.6,0.3-0.9,0.3h-0.4v-1.2h0.4
		c0.8,0,1.2-0.3,1.2-1V97c0-1.3,0-2.3-0.1-3l0.9-0.7v6.7c0,1,0.4,1.5,1.3,1.5h0.4V102.6z" id="PATH_42" class="area" title=""></path>
	<path d="M161.2,102.6h-0.8c-0.9,0-1.5-0.3-1.9-0.9c-0.3,0.6-1,0.9-2.1,0.9h-0.6v-1.2h0.9c1,0,1.5-0.4,1.6-1.1
		c0-0.3,0.1-0.5,0.2-0.5c0.1,0,0.2,0.2,0.2,0.5c0.1,0.7,0.6,1.1,1.5,1.1h0.9V102.6z M157.9,104.8l-0.8,0.8l-0.8-0.8l0.8-0.8
		L157.9,104.8z M159.6,104.8l-0.8,0.8l-0.8-0.8l0.8-0.8L159.6,104.8z" id="PATH_43" class="area" title=""></path>
	<path d="M163.6,100.7c0,1.3-0.7,2-2,2h-0.8v-1.2h0.7c1,0,1.5-0.2,1.5-0.5c0-0.3-0.2-0.7-0.7-1.2l0.4-1c0-0.1,0.1-0.1,0.1-0.1
		c0,0,0.1,0.1,0.2,0.2C163.4,99.4,163.6,100,163.6,100.7z M163.3,104.8l-0.8,0.8l-0.8-0.8l0.8-0.8L163.3,104.8z" id="PATH_44" class="area" title=""></path>
</g>
<g id="G_45" class="area" title="">
	<path d="M125.2,170h-2.3c-0.3,0-0.6,0-0.8,0.1c-0.4,0.1-0.5,0.3-0.5,0.5c0,0.1,0.5,0.2,1.4,0.4c1,0.2,1.4,0.4,1.4,0.6
		c0,0.8-0.2,1.4-0.7,1.8c-0.8,0.7-2.1,1-4,1c-2.3,0-3.5-0.9-3.5-2.6c0-0.4,0.1-0.8,0.3-1.3c0.2-0.5,0.4-0.9,0.6-1.2
		c0.1-0.1,0.2-0.2,0.3-0.2c0.1,0,0.1,0,0.1,0.1c0,0.1,0,0.2-0.1,0.3c-0.3,0.6-0.5,1.2-0.5,1.8c0,0.7,0.3,1.2,1,1.5
		c0.5,0.3,1.1,0.4,1.9,0.4c0.8,0,1.5,0,2.2-0.1c1.2-0.2,1.8-0.4,1.8-0.8c0-0.2-0.3-0.3-0.8-0.4c-0.8-0.1-1.3-0.2-1.5-0.3
		c-0.5-0.1-0.8-0.4-0.8-0.7c0-0.2,0.1-0.5,0.4-0.9c0.2-0.3,0.4-0.5,0.7-0.7c0.5-0.4,1.1-0.6,2-0.6h1.4V170z" id="PATH_46" class="area" title=""></path>
	<path d="M130.2,168c0,0.5,0,0.9-0.2,1.3c-0.2,0.5-0.5,0.8-0.8,0.8c-0.5,0-1.3-0.3-2.3-1c-0.3,0.4-0.5,0.6-0.6,0.7
		c-0.3,0.2-0.6,0.3-1,0.3h-0.5v-1.2h0.7c0.4,0,0.8-0.2,1.2-0.7c0.2-0.2,0.5-0.7,0.9-1.3c0.3-0.5,0.7-0.7,1-0.7
		c0.5,0,0.9,0.2,1.2,0.7C130,167.3,130.1,167.6,130.2,168z M129.6,168.7c0-0.3-0.1-0.6-0.3-1c-0.2-0.4-0.5-0.6-0.8-0.6
		c-0.3,0-0.6,0.3-1,0.9c0.2,0.2,0.5,0.4,0.9,0.6c0.4,0.2,0.8,0.3,1,0.3C129.5,169,129.6,168.9,129.6,168.7z" id="PATH_47" class="area" title=""></path>
	<path d="M136.4,170H136c-0.4,0-0.6-0.1-0.8-0.2c0,0.1,0,0.2,0,0.3c0,0.9-0.3,1.8-0.9,2.7c-0.5,0.8-1,1.1-1.3,1.1
		c-0.8,0-1.4,0-2-0.1c-0.2,0-0.3-0.1-0.3-0.1s0.1-0.1,0.3-0.1c0.8-0.2,1.6-0.6,2.4-1.2c0.8-0.7,1.3-1.4,1.3-2.1c0-0.4-0.3-1-1-1.7
		l0.5-0.9c0-0.1,0.1-0.1,0.1-0.1c0,0,0.1,0.1,0.1,0.1c0.3,0.4,0.5,0.7,0.7,0.8c0.3,0.2,0.7,0.4,1.1,0.4h0.3V170z" id="PATH_48" class="area" title=""></path>
	<path d="M142.4,161.9c0,0.2-0.1,0.5-0.3,1.1c-1.2,0.3-2.7,0.8-4.4,1.3c1.2,1.2,1.9,2.2,2,2.9c0.1,0.5,0,1-0.2,1.5
		c-0.2,0.5-0.6,0.8-1.1,1c-0.4,0.2-1.1,0.2-2,0.2H136v-1.2h0.3c1.9,0,2.9-0.3,2.9-1c0-0.5-0.5-1.3-1.6-2.3l-0.1,0.3
		c-0.1-0.1-0.3-0.3-0.5-0.6c-0.3-0.3-0.4-0.5-0.4-0.6c0-0.3,0.1-0.6,0.4-0.9c0.1-0.1,0.7-0.3,2-0.7
		C140.3,162.5,141.4,162.2,142.4,161.9z M142.2,160.4l-0.2,0.7l-4.9,1.6l0.2-0.7L142.2,160.4z" id="PATH_49" class="area" title=""></path>
</g>
<g id="G_50" class="area" title="">
	<path d="M88.1,290.7h-0.4c-0.4,0-0.6-0.1-0.8-0.2c0,0.1,0,0.2,0,0.3c0,0.9-0.3,1.8-0.9,2.7c-0.5,0.8-1,1.1-1.3,1.1
		c-0.8,0-1.4,0-2-0.1c-0.2,0-0.3-0.1-0.3-0.1s0.1-0.1,0.3-0.1c0.8-0.2,1.6-0.6,2.4-1.2c0.8-0.7,1.3-1.4,1.3-2.1c0-0.4-0.3-1-1-1.7
		l0.5-0.9c0-0.1,0.1-0.1,0.1-0.1c0,0,0.1,0.1,0.1,0.1c0.3,0.4,0.5,0.7,0.7,0.8c0.3,0.2,0.7,0.4,1.1,0.4h0.3V290.7z" id="PATH_51" class="area" title=""></path>
	<path d="M94.4,290.7h-0.5c-0.4,0-0.8,0.1-1.1,0.2c-0.5,0.2-0.8,0.5-0.8,1c0,0.6,0.4,1.1,1.2,1.6l-0.5,1c-0.9-0.3-1.7-0.8-2.3-1.4
		c-0.8-0.7-1.2-1.6-1.2-2.5h-1.4v-1.2h1.3c0-0.8,0.2-1.6,0.6-2.6c0.4-0.9,0.7-1.3,0.9-1.3c0.2,0,0.5,0.4,0.8,1.3
		c0.3,0.8,0.4,1.3,0.4,1.6c0,1.4-0.7,2.1-2.1,2.1c0.1,0.4,0.3,0.8,0.6,1.2c0.3,0.4,0.7,0.7,1.1,0.9c0-0.1,0-0.3,0-0.4
		c0-0.7,0.2-1.3,0.5-1.8c0.5-0.7,1.1-1.1,2-1.1h0.4V290.7z M91.3,289.1c0-0.2-0.1-0.6-0.3-1.1c-0.2-0.6-0.4-0.8-0.6-0.8
		c-0.1,0-0.3,0.2-0.5,0.7c-0.2,0.5-0.3,1.1-0.3,1.7C90.8,289.6,91.3,289.4,91.3,289.1z" id="PATH_52" class="area" title=""></path>
	<path d="M102.2,288.6c0,0.6-0.1,1.1-0.4,1.5c-0.3,0.4-0.8,0.7-1.3,0.7c-0.7,0-1.1-0.3-1.4-0.8c-0.4,0.6-0.8,0.8-1.4,0.8
		c-0.7,0-1.2-0.3-1.5-0.8c-0.4,0.6-0.9,0.8-1.6,0.8H94v-1.2h0.8c0.7,0,1.2-0.4,1.3-1.2c0-0.2,0.1-0.3,0.2-0.3c0.1,0,0.1,0.1,0.2,0.3
		c0.1,0.8,0.5,1.2,1.3,1.2c0.4,0,0.8-0.1,1-0.3c0.1-0.2,0.2-0.4,0.3-0.8c0-0.2,0.1-0.3,0.2-0.3c0.1,0,0.1,0.1,0.2,0.3
		c0.1,0.8,0.5,1.2,1.2,1.2c0.8,0,1.1-0.2,1.1-0.5c0-0.3-0.2-0.7-0.6-1.1l0.5-0.9c0.1-0.1,0.1-0.2,0.2-0.2s0.1,0.1,0.2,0.2
		C102.1,287.6,102.2,288.2,102.2,288.6z M98.9,284.9l-0.7,0.7l-0.7-0.7l0.7-0.7L98.9,284.9z M99.8,283.4l-0.7,0.7l-0.7-0.7l0.7-0.7
		L99.8,283.4z M100.7,284.9l-0.7,0.7l-0.7-0.7l0.7-0.7L100.7,284.9z" id="PATH_53" class="area" title=""></path>
	<path d="M116.3,290.7h-0.5c-0.5,0-0.8,0-1-0.1c0,0.3,0.1,0.5,0.1,0.8c0,0.5-0.1,0.8-0.2,1.1c-0.3,0.7-0.8,1.3-1.8,1.7
		c-0.8,0.3-1.6,0.5-2.5,0.5c-0.9,0-1.6-0.2-2.2-0.6c-0.6-0.5-0.9-1.1-0.9-2c0-0.5,0.1-0.9,0.3-1.5c0.2-0.4,0.3-0.7,0.5-0.9
		c0.1-0.1,0.2-0.1,0.2-0.1c0.1,0,0.1,0,0.1,0.1c0,0,0,0.1,0,0.2c-0.3,0.6-0.4,1.2-0.4,1.7c0,0.5,0.2,0.9,0.5,1.3
		c0.4,0.5,1.1,0.7,2,0.7c1,0,1.9-0.2,2.6-0.5c0.6-0.3,1-0.6,1.2-1c0.1-0.1,0.1-0.3,0-0.7c0-0.3-0.1-0.6-0.1-0.7
		c-0.1-0.3-0.5-0.8-1-1.5l0.4-0.8c0.1-0.1,0.1-0.2,0.1-0.2s0.1,0,0.1,0.1c0.5,0.8,1,1.2,1.6,1.2h0.8V290.7z M111.9,286.3l-0.8,0.8
		l-0.8-0.8l0.8-0.8L111.9,286.3z" id="PATH_54" class="area" title=""></path>
	<path d="M121.2,290.7h-0.8c-0.9,0-1.5-0.3-1.9-0.9c-0.3,0.6-1,0.9-2.1,0.9h-0.6v-1.2h0.9c1,0,1.5-0.4,1.6-1.1
		c0-0.3,0.1-0.5,0.2-0.5c0.1,0,0.2,0.2,0.2,0.5c0.1,0.7,0.6,1.1,1.5,1.1h0.9V290.7z M117.9,292.9l-0.8,0.8l-0.8-0.8l0.8-0.8
		L117.9,292.9z M119.6,292.9l-0.8,0.8l-0.8-0.8l0.8-0.8L119.6,292.9z" id="PATH_55" class="area" title=""></path>
	<path d="M128,290.7h-0.6c-0.5,0-1.1-0.2-1.6-0.7c-0.4-0.3-0.8-0.9-1.3-1.6c-0.1,1.5-1.1,2.3-3.1,2.3h-0.6v-1.2h0.4
		c1.8,0,2.8-0.4,2.8-1.1c0-0.6-0.4-1.3-1.3-2.1c-0.4-0.4-0.8-0.7-1.3-1.1c0-0.4,0.1-0.7,0.3-1c0.1-0.1,1.9-0.7,5.5-1.8
		c0,0.1-0.1,0.5-0.3,1.1c-0.9,0.2-2.4,0.7-4.4,1.3c1,1.1,2,2.1,2.7,3c0.5,0.5,0.8,0.9,1.1,1.1c0.4,0.3,0.9,0.5,1.4,0.5h0.4V290.7z
		 M127,281.1l-0.2,0.7l-4.9,1.6l0.2-0.7L127,281.1z" id="PATH_56" class="area" title=""></path>
	<path d="M137.2,290.7h-0.6c-0.7,0-1.1-0.3-1.4-0.8c-0.2,0.6-0.7,0.8-1.3,0.8c-0.6,0-1-0.3-1.3-0.8c-0.3,0.6-0.7,0.8-1.3,0.8
		c-0.7,0-1.2-0.3-1.5-0.8c-0.4,0.6-0.9,0.8-1.6,0.8h-0.7v-1.2h0.8c0.7,0,1.2-0.4,1.3-1.2c0-0.2,0.1-0.3,0.2-0.3
		c0.1,0,0.1,0.1,0.2,0.3c0.1,0.8,0.5,1.2,1.3,1.2c0.7,0,1.2-0.4,1.2-1.2c0-0.2,0.1-0.3,0.2-0.3c0.1,0,0.2,0.1,0.2,0.3
		c0.1,0.8,0.5,1.2,1,1.2c0.7,0,1.2-0.4,1.2-1.2c0-0.2,0.1-0.3,0.2-0.3c0.1,0,0.2,0.1,0.2,0.3c0.1,0.8,0.5,1.2,1.2,1.2h0.6V290.7z
		 M132.5,285.7l-0.7,0.7l-0.7-0.7l0.7-0.7L132.5,285.7z M133.4,284.1l-0.7,0.7l-0.7-0.7l0.7-0.7L133.4,284.1z M134.3,285.7l-0.7,0.7
		l-0.7-0.7l0.7-0.7L134.3,285.7z" id="PATH_57" class="area" title=""></path>
	<path d="M142.2,288.7c0,0.5,0,0.9-0.2,1.3c-0.2,0.5-0.5,0.8-0.8,0.8c-0.5,0-1.3-0.3-2.3-1c-0.3,0.4-0.5,0.6-0.6,0.7
		c-0.3,0.2-0.6,0.3-1,0.3h-0.5v-1.2h0.7c0.4,0,0.8-0.2,1.2-0.7c0.2-0.2,0.5-0.7,0.9-1.3c0.3-0.5,0.7-0.7,1-0.7
		c0.5,0,0.9,0.2,1.2,0.7C142,288,142.1,288.4,142.2,288.7z M141.6,289.5c0-0.3-0.1-0.6-0.3-1c-0.2-0.4-0.5-0.6-0.8-0.6
		c-0.3,0-0.6,0.3-1,0.9c0.2,0.2,0.5,0.4,0.9,0.6c0.4,0.2,0.8,0.3,1,0.3C141.5,289.7,141.6,289.6,141.6,289.5z" id="PATH_58" class="area" title=""></path>
</g>
<rect x="224.2" y="304" class="st7 area" width="36.5" height="13.6" id="RECT_59" title=""></rect>
<g id="G_60" class="area" title="">
	<path d="M238.8,310h-0.5c-0.5,0-0.8,0-1-0.1c0,0.3,0.1,0.5,0.1,0.8c0,0.5-0.1,0.8-0.2,1.1c-0.3,0.7-0.8,1.3-1.8,1.7
		c-0.8,0.3-1.6,0.5-2.5,0.5c-0.9,0-1.6-0.2-2.2-0.6c-0.6-0.5-0.9-1.1-0.9-2c0-0.5,0.1-0.9,0.3-1.5c0.2-0.4,0.3-0.7,0.5-0.9
		c0.1-0.1,0.2-0.1,0.2-0.1c0.1,0,0.1,0,0.1,0.1c0,0,0,0.1,0,0.2c-0.3,0.6-0.4,1.2-0.4,1.7c0,0.5,0.2,0.9,0.5,1.3
		c0.4,0.5,1.1,0.7,2,0.7c1,0,1.9-0.2,2.6-0.5c0.6-0.3,1-0.6,1.2-1c0.1-0.1,0.1-0.3,0-0.7c0-0.3-0.1-0.6-0.1-0.7
		c-0.1-0.3-0.5-0.8-1-1.5l0.4-0.8c0.1-0.1,0.1-0.2,0.1-0.2s0.1,0,0.1,0.1c0.5,0.8,1,1.2,1.6,1.2h0.8V310z M234.4,305.5l-0.8,0.8
		l-0.8-0.8l0.8-0.8L234.4,305.5z" id="PATH_61" class="area" title=""></path>
	<path d="M243.7,310h-0.8c-0.9,0-1.5-0.3-1.9-0.9c-0.3,0.6-1,0.9-2.1,0.9h-0.6v-1.2h0.9c1,0,1.5-0.4,1.6-1.1c0-0.3,0.1-0.5,0.2-0.5
		s0.2,0.2,0.2,0.5c0.1,0.7,0.6,1.1,1.5,1.1h0.9V310z M240.4,312.2l-0.8,0.8l-0.8-0.8l0.8-0.8L240.4,312.2z M242.1,312.2l-0.8,0.8
		l-0.8-0.8l0.8-0.8L242.1,312.2z" id="PATH_62" class="area" title=""></path>
	<path d="M248.6,308c0,0.5,0,0.9-0.2,1.3c-0.2,0.5-0.5,0.8-0.8,0.8c-0.5,0-1.3-0.3-2.3-1c-0.3,0.4-0.5,0.6-0.6,0.7
		c-0.3,0.2-0.6,0.3-1,0.3h-0.5v-1.2h0.7c0.4,0,0.8-0.2,1.2-0.7c0.2-0.2,0.5-0.7,0.9-1.3c0.3-0.5,0.7-0.7,1-0.7
		c0.5,0,0.9,0.2,1.2,0.7C248.5,307.3,248.6,307.6,248.6,308z M248.1,308.7c0-0.3-0.1-0.6-0.3-1c-0.2-0.4-0.5-0.6-0.8-0.6
		c-0.3,0-0.6,0.3-1,0.9c0.2,0.2,0.5,0.4,0.9,0.6c0.4,0.2,0.8,0.3,1,0.3C248,309,248.1,308.9,248.1,308.7z" id="PATH_63" class="area" title=""></path>
	<path d="M252.6,310h-0.7c-0.7,0-1.3-0.3-1.5-0.9c-0.2-0.4-0.3-1.1-0.3-1.9v-1.9c0-0.9-0.1-2.2-0.2-3.9l0.6-0.7
		c0.1-0.1,0.2-0.1,0.2,0c0.1,0.9,0.2,2.2,0.2,3.9v2.9c0,0.8,0.4,1.2,1.2,1.2h0.5V310z" id="PATH_64" class="area" title=""></path>
	<path d="M255,308c0,1.3-0.7,2-2,2h-0.8v-1.2h0.7c1,0,1.5-0.2,1.5-0.5c0-0.3-0.2-0.7-0.7-1.2l0.4-1c0-0.1,0.1-0.1,0.1-0.1
		s0.1,0.1,0.2,0.2C254.8,306.7,255,307.4,255,308z M254.9,303.5l-0.8,0.8l-0.8-0.8l0.8-0.8L254.9,303.5z" id="PATH_65" class="area" title=""></path>
</g>
<g id="G_66" class="area" title="">
	<path d="M212,348.6h-0.5c-0.5,0-0.9-0.2-1.1-0.5c0,0.6-0.1,1.3-0.2,2.2c-0.3,0.7-0.8,1.3-1.6,1.6c-0.7,0.3-1.4,0.5-2.3,0.5
		s-1.5-0.2-2-0.5c-0.6-0.4-0.9-1-0.9-1.9c0-0.8,0.2-1.6,0.7-2.2c0.1-0.1,0.1-0.1,0.2-0.1c0.1,0,0.1,0,0.1,0.1c0,0,0,0.1,0,0.1
		c-0.2,0.5-0.3,1-0.3,1.4c0,0.6,0.2,1.1,0.7,1.5c0.4,0.3,0.9,0.5,1.6,0.5c0.6,0,1.3-0.1,2-0.4c1-0.3,1.4-0.7,1.4-1.2l-0.1-4.8
		c-0.1-2.3-0.1-3.9-0.2-5l0.8-0.7c0,0.3,0.1,1.4,0.2,3.4l0.1,3.9c0,0.6,0.4,1,1.2,1h0.3V348.6z" id="PATH_67" class="area" title=""></path>
	<path d="M216.9,348.6h-0.8c-0.9,0-1.5-0.3-1.9-0.9c-0.3,0.6-1,0.9-2.1,0.9h-0.6v-1.2h0.9c1,0,1.5-0.4,1.6-1.1
		c0-0.3,0.1-0.5,0.2-0.5s0.2,0.2,0.2,0.5c0.1,0.7,0.6,1.1,1.5,1.1h0.9V348.6z M213.6,350.8l-0.8,0.8l-0.8-0.8l0.8-0.8L213.6,350.8z
		 M215.3,350.8l-0.8,0.8l-0.8-0.8l0.8-0.8L215.3,350.8z" id="PATH_68" class="area" title=""></path>
	<path d="M219.3,346.6c0,1.3-0.7,2-2,2h-0.8v-1.2h0.7c1,0,1.5-0.2,1.5-0.5c0-0.3-0.2-0.7-0.7-1.2l0.4-1c0-0.1,0.1-0.1,0.1-0.1
		s0.1,0.1,0.2,0.2C219.1,345.4,219.3,346,219.3,346.6z M219,350.8l-0.8,0.8l-0.8-0.8l0.8-0.8L219,350.8z" id="PATH_69" class="area" title=""></path>
	<path d="M225.4,346.5c0,1.4-0.9,2.1-2.8,2.1c-0.7,0-1.2-0.1-1.5-0.3c-0.4-0.2-0.6-0.7-0.6-1.3c0-0.3,0.1-0.6,0.2-0.9
		c0.1-0.1,0.1-0.2,0.2-0.2c0.1,0,0.1,0.1,0.1,0.3c0,0.1,0,0.2,0,0.3c0,0.4,0.2,0.7,0.6,0.8c0.2,0.1,0.6,0.1,1.1,0.1
		c1.5,0,2.2-0.2,2.2-0.7c0-0.7-0.9-1.7-2.6-2.9l0.3-1c0-0.1,0.1-0.1,0.1-0.1c0,0,0.1,0,0.2,0.1C224.6,344.2,225.4,345.4,225.4,346.5
		z" id="PATH_70" class="area" title=""></path>
	<path d="M230.5,348.7c0,1-0.3,1.9-0.9,2.8c-0.5,0.7-1,1.1-1.3,1.1c-0.8,0-1.4,0-2-0.1c-0.2,0-0.3-0.1-0.3-0.1s0.1-0.1,0.3-0.1
		c0.8-0.2,1.6-0.6,2.4-1.2c0.8-0.7,1.3-1.4,1.3-2.1c0-0.4-0.3-1-1-1.7l0.5-0.9c0-0.1,0.1-0.1,0.1-0.1c0,0,0.1,0.1,0.1,0.1
		c0.2,0.3,0.5,0.7,0.6,1.2C230.4,347.9,230.5,348.4,230.5,348.7z" id="PATH_71" class="area" title=""></path>
	<path d="M232.8,347.4c0,0.4-0.1,0.8-0.3,1.1c-0.1,0.2-0.2,0.3-0.2,0.3c0,0-0.1-0.1-0.1-0.4c0-1.2-0.2-4-0.6-8.5l0.8-0.8
		c0.1-0.1,0.1-0.1,0.1-0.1c0,0,0,0.1,0,0.2C232.8,340.6,232.8,343.3,232.8,347.4z" id="PATH_72" class="area" title=""></path>
</g>
<g id="G_73" class="area" title="">
	<path d="M144.3,354.1h-0.5c-0.5,0-0.8,0-1-0.1c0,0.3,0.1,0.5,0.1,0.8c0,0.5-0.1,0.8-0.2,1.1c-0.3,0.7-0.8,1.3-1.8,1.7
		c-0.8,0.3-1.6,0.5-2.5,0.5c-0.9,0-1.6-0.2-2.2-0.6c-0.6-0.5-0.9-1.1-0.9-2c0-0.5,0.1-0.9,0.3-1.5c0.2-0.4,0.3-0.7,0.5-0.9
		c0.1-0.1,0.2-0.1,0.2-0.1c0.1,0,0.1,0,0.1,0.1c0,0,0,0.1,0,0.2c-0.3,0.6-0.4,1.2-0.4,1.7c0,0.5,0.2,0.9,0.5,1.3
		c0.4,0.5,1.1,0.7,2,0.7c1,0,1.9-0.2,2.6-0.5c0.6-0.3,1-0.6,1.2-1c0.1-0.1,0.1-0.3,0-0.7c0-0.3-0.1-0.6-0.1-0.7
		c-0.1-0.3-0.5-0.8-1-1.5l0.4-0.8c0.1-0.1,0.1-0.2,0.1-0.2s0.1,0,0.1,0.1c0.5,0.8,1,1.2,1.6,1.2h0.8V354.1z M139.9,349.6l-0.8,0.8
		l-0.8-0.8l0.8-0.8L139.9,349.6z" id="PATH_74" class="area" title=""></path>
	<path d="M149.2,354.1h-0.8c-0.9,0-1.5-0.3-1.9-0.9c-0.3,0.6-1,0.9-2.1,0.9h-0.6V353h0.9c1,0,1.5-0.4,1.6-1.1c0-0.3,0.1-0.5,0.2-0.5
		c0.1,0,0.2,0.2,0.2,0.5c0.1,0.7,0.6,1.1,1.5,1.1h0.9V354.1z M145.9,356.3l-0.8,0.8l-0.8-0.8l0.8-0.8L145.9,356.3z M147.6,356.3
		l-0.8,0.8l-0.8-0.8l0.8-0.8L147.6,356.3z" id="PATH_75" class="area" title=""></path>
	<path d="M154.5,352.2l-0.3,0.9l-2.7,0.7c-0.8,0.2-1.5,0.3-2.1,0.3h-0.5V353h0.8c0.2,0,0.4,0,0.8-0.1c-0.6-0.5-0.9-0.9-0.9-1.4
		c0-0.4,0.2-0.9,0.7-1.5c0.6-0.7,1.2-1.1,1.8-1.1c0.7,0,1.2,0.3,1.6,0.9c0.1,0.2,0.2,0.3,0.2,0.4c0,0,0,0.1-0.1,0.1
		c-0.1,0-0.2,0-0.5-0.1c-0.5-0.1-0.9-0.2-1.3-0.2c-0.3,0-0.6,0.1-1,0.3c-0.4,0.2-0.7,0.4-0.7,0.7c0,0.2,0.2,0.5,0.5,0.8
		c0.4,0.4,0.9,0.6,1.4,0.6c0.2,0,0.9-0.2,2.1-0.5c0.1,0,0.1,0,0.2,0c0,0,0,0,0,0C154.6,352,154.5,352.1,154.5,352.2z" id="PATH_76" class="area" title=""></path>
	<path d="M160.8,354.1h-0.4c-0.4,0-0.6-0.1-0.8-0.2c0,0.1,0,0.2,0,0.3c0,0.9-0.3,1.8-0.9,2.7c-0.5,0.8-1,1.1-1.3,1.1
		c-0.8,0-1.4,0-2-0.1c-0.2,0-0.3-0.1-0.3-0.1s0.1-0.1,0.3-0.1c0.8-0.2,1.6-0.6,2.4-1.2c0.8-0.7,1.3-1.4,1.3-2.1c0-0.4-0.3-1-1-1.7
		l0.5-0.9c0-0.1,0.1-0.1,0.1-0.1c0,0,0.1,0.1,0.1,0.1c0.3,0.4,0.5,0.7,0.7,0.8c0.3,0.2,0.7,0.4,1.1,0.4h0.3V354.1z" id="PATH_77" class="area" title=""></path>
	<path d="M168.6,352c0,0.6-0.1,1.1-0.4,1.5c-0.3,0.4-0.8,0.7-1.3,0.7c-0.7,0-1.1-0.3-1.4-0.8c-0.4,0.6-0.8,0.8-1.4,0.8
		c-0.7,0-1.2-0.3-1.5-0.8c-0.4,0.6-0.9,0.8-1.6,0.8h-0.7V353h0.8c0.7,0,1.2-0.4,1.3-1.2c0-0.2,0.1-0.3,0.2-0.3
		c0.1,0,0.1,0.1,0.2,0.3c0.1,0.8,0.5,1.2,1.3,1.2c0.4,0,0.8-0.1,1-0.3c0.1-0.2,0.2-0.4,0.3-0.8c0-0.2,0.1-0.3,0.2-0.3
		c0.1,0,0.1,0.1,0.2,0.3c0.1,0.8,0.5,1.2,1.2,1.2c0.8,0,1.1-0.2,1.1-0.5c0-0.3-0.2-0.7-0.6-1.1l0.5-0.9c0.1-0.1,0.1-0.2,0.2-0.2
		s0.1,0.1,0.2,0.2C168.5,351,168.6,351.5,168.6,352z" id="PATH_78" class="area" title=""></path>
</g>
<g id="G_79" class="area" title="">
	<path d="M182.6,404.8h-0.4c-0.4,0-0.6-0.1-0.8-0.2c0,0.1,0,0.2,0,0.3c0,0.9-0.3,1.8-0.9,2.7c-0.5,0.8-1,1.1-1.3,1.1
		c-0.8,0-1.4,0-2-0.1c-0.2,0-0.3-0.1-0.3-0.1s0.1-0.1,0.3-0.1c0.8-0.2,1.6-0.6,2.4-1.2c0.8-0.7,1.3-1.4,1.3-2.1c0-0.4-0.3-1-1-1.7
		l0.5-0.9c0-0.1,0.1-0.1,0.1-0.1c0,0,0.1,0.1,0.1,0.1c0.3,0.4,0.5,0.7,0.7,0.8c0.3,0.2,0.7,0.4,1.1,0.4h0.3V404.8z" id="PATH_80" class="area" title=""></path>
	<path d="M187.5,404.8h-0.8c-0.9,0-1.5-0.3-1.9-0.9c-0.3,0.6-1,0.9-2.1,0.9h-0.6v-1.2h0.9c1,0,1.5-0.4,1.6-1.1
		c0-0.3,0.1-0.5,0.2-0.5s0.2,0.2,0.2,0.5c0.1,0.7,0.6,1.1,1.5,1.1h0.9V404.8z M184.2,407l-0.8,0.8l-0.8-0.8l0.8-0.8L184.2,407z
		 M185.9,407l-0.8,0.8l-0.8-0.8l0.8-0.8L185.9,407z" id="PATH_81" class="area" title=""></path>
	<path d="M189.9,402.8c0,1.3-0.7,2-2,2h-0.8v-1.2h0.7c1,0,1.5-0.2,1.5-0.5c0-0.3-0.2-0.7-0.7-1.2l0.4-1c0-0.1,0.1-0.1,0.1-0.1
		s0.1,0.1,0.2,0.2C189.7,401.5,189.9,402.2,189.9,402.8z M189.8,398.2l-0.8,0.8l-0.8-0.8l0.8-0.8L189.8,398.2z" id="PATH_82" class="area" title=""></path>
</g>
<g id="G_83" class="area" title="">
	<path d="M198.5,462h-0.4c-0.4,0-0.6-0.1-0.8-0.2c0,0.1,0,0.2,0,0.3c0,0.9-0.3,1.8-0.9,2.7c-0.5,0.8-1,1.1-1.3,1.1
		c-0.8,0-1.4,0-2-0.1c-0.2,0-0.3-0.1-0.3-0.1s0.1-0.1,0.3-0.1c0.8-0.2,1.6-0.6,2.4-1.2c0.8-0.7,1.3-1.4,1.3-2.1c0-0.4-0.3-1-1-1.7
		l0.5-0.9c0-0.1,0.1-0.1,0.1-0.1c0,0,0.1,0.1,0.1,0.1c0.3,0.4,0.5,0.7,0.7,0.8c0.3,0.2,0.7,0.4,1.1,0.4h0.3V462z" id="PATH_84" class="area" title=""></path>
	<path d="M207.8,462h-0.6c-0.7,0-1.1-0.3-1.4-0.8c-0.2,0.6-0.7,0.8-1.3,0.8c-0.6,0-1-0.3-1.3-0.8c-0.3,0.6-0.7,0.8-1.3,0.8
		c-0.7,0-1.2-0.3-1.5-0.8c-0.4,0.6-0.9,0.8-1.6,0.8h-0.7v-1.2h0.8c0.7,0,1.2-0.4,1.3-1.2c0-0.2,0.1-0.3,0.2-0.3
		c0.1,0,0.1,0.1,0.2,0.3c0.1,0.8,0.5,1.2,1.3,1.2c0.7,0,1.2-0.4,1.2-1.2c0-0.2,0.1-0.3,0.2-0.3c0.1,0,0.2,0.1,0.2,0.3
		c0.1,0.8,0.5,1.2,1,1.2c0.7,0,1.2-0.4,1.2-1.2c0-0.2,0.1-0.3,0.2-0.3c0.1,0,0.2,0.1,0.2,0.3c0.1,0.8,0.5,1.2,1.2,1.2h0.6V462z" id="PATH_85" class="area" title=""></path>
	<path d="M213.9,459.9c0,0.4-0.1,0.8-0.4,1.2c-0.3,0.5-0.6,0.7-1,0.7c-0.3,0-1-0.2-2.1-0.7c-0.9,0.6-1.7,0.8-2.4,0.8h-0.5v-1.2h0.6
		c0.4,0,0.8,0,1.2-0.1c-0.4-0.3-0.6-0.7-0.6-1.2c0-0.6,0.4-1.3,1.3-2l-0.7-0.3c0.2-0.2,0.5-0.5,0.9-0.9c0.9,0.5,1.7,0.9,2.4,1.5
		C213.4,458.5,213.9,459.2,213.9,459.9z M211.2,459.1c0-0.3-0.1-0.5-0.2-0.7c-0.1-0.3-0.3-0.4-0.6-0.4c-0.3,0-0.5,0.1-0.8,0.3
		c-0.3,0.2-0.5,0.5-0.5,0.7c0,0.4,0.4,0.8,1.1,1c0.2-0.1,0.4-0.2,0.6-0.3C211.1,459.5,211.2,459.3,211.2,459.1z M213.3,460.3
		c0-0.3-0.2-0.6-0.6-1c-0.3-0.3-0.6-0.6-0.9-0.7c0,0.8-0.2,1.4-0.7,1.8c0.8,0.3,1.4,0.4,1.6,0.4
		C213.1,460.8,213.3,460.6,213.3,460.3z" id="PATH_86" class="area" title=""></path>
	<path d="M220.1,462H219c-0.1,1.4-0.6,2.5-1.6,3.5c-0.3,0.3-0.5,0.5-0.6,0.5c-0.5,0-1.2-0.1-1.9-0.2c-0.2,0-0.4-0.1-0.4-0.1
		c0,0,0.1-0.1,0.4-0.2c0.8-0.2,1.6-0.7,2.3-1.2c0.3-0.3,0.6-0.5,0.8-0.9c0.3-0.4,0.5-0.8,0.5-1.1V462h-1.3c-1,0-1.4-0.4-1.4-1.2
		c0-0.5,0.1-1,0.4-1.6c0.3-0.6,0.7-1,1.1-1c0.5,0,0.9,0.3,1.2,1c0.2,0.5,0.4,1,0.4,1.6h1.1V462z M218.3,460.8c0-0.3-0.1-0.6-0.3-0.9
		c-0.2-0.4-0.5-0.5-0.8-0.5c-0.2,0-0.4,0.1-0.5,0.2c-0.2,0.2-0.2,0.3-0.2,0.6c0,0.5,0.4,0.7,1.2,0.7
		C217.7,460.8,218,460.8,218.3,460.8z" id="PATH_87" class="area" title=""></path>
	<path d="M226.3,452.7c0,0.2-0.2,0.6-0.4,1.1l-2.5,0.8c-1.1,0.4-1.9,0.7-2.3,0.9c0.8,0.8,1.3,1.4,1.6,1.7c0.5,0.7,0.8,1.3,0.9,2
		c0,0.5,0,1-0.2,1.4c-0.3,0.9-1.4,1.3-3.1,1.3h-0.5v-1.2h0.6c0.8,0,1.4,0,1.7-0.1c0.7-0.2,1.1-0.5,1.1-1c0-0.7-0.5-1.5-1.6-2.5
		l-0.1,0.2c-0.1-0.1-0.3-0.3-0.5-0.6c-0.3-0.3-0.4-0.6-0.4-0.6c0-0.2,0-0.4,0.1-0.8c0.1-0.4,0.2-0.6,0.3-0.7
		c0.1-0.1,0.8-0.4,2.1-0.8C224.2,453.3,225.4,452.9,226.3,452.7z" id="PATH_88" class="area" title=""></path>
</g>
<g id="G_89" class="area" title="">
	<path d="M258.3,528.3c0,0.1,0.1,0.2,0,0.2c0,0-0.1,0-0.2,0h-0.3c0.2,3.8,0.3,6.5,0.2,8c-0.1,2.4-1.5,3.5-4.1,3.5
		c-0.9,0-1.5-0.2-2-0.5c-0.6-0.4-0.9-1-0.9-1.9c0-0.8,0.2-1.6,0.7-2.2c0.1-0.1,0.1-0.1,0.2-0.1c0.1,0,0.1,0,0.1,0.1c0,0,0,0.1,0,0.1
		c-0.2,0.5-0.3,1-0.3,1.4c0,0.6,0.2,1.1,0.7,1.5c0.4,0.3,0.9,0.5,1.6,0.5c1,0,1.8-0.2,2.5-0.5c0.6-0.3,0.9-0.6,0.9-1
		c0-4.3-0.1-7.6-0.4-9.8l0.7-0.6c0.1-0.1,0.1-0.1,0.2-0.1c0,0,0.1,0.1,0.1,0.2C257.9,527.3,258,527.7,258.3,528.3z" id="PATH_90" class="area" title=""></path>
	<path d="M262.3,536.1h-0.7c-0.7,0-1.3-0.3-1.5-0.9c-0.2-0.4-0.3-1.1-0.3-1.9v-1.9c0-0.9-0.1-2.2-0.2-3.9l0.6-0.7
		c0.1-0.1,0.2-0.1,0.2,0c0.1,0.9,0.2,2.2,0.2,3.9v2.9c0,0.8,0.4,1.2,1.2,1.2h0.5V536.1z" id="PATH_91" class="area" title=""></path>
	<path d="M271.1,536.1h-1c-1.3,0-2-0.7-2-2c0-0.2,0-0.3,0-0.5c-0.5,0.2-1.1,0.6-1.9,1.1c-0.8,0.5-1.3,0.8-1.7,1
		c-0.6,0.3-1.3,0.4-1.9,0.4h-0.7V535h0.8c0.8,0,1.7-0.2,2.5-0.6c0.4-0.2,1.1-0.6,2.2-1.1c-0.2,0-0.8-0.2-1.8-0.4
		c-0.7-0.2-1.1-0.3-1.2-0.3c-0.4,0-0.8,0.2-1.2,0.5c-0.1,0.1-0.1,0.1-0.2,0.1c-0.1,0-0.1,0-0.1-0.1c0,0,0-0.1,0-0.1
		c0.3-1,0.9-1.5,1.7-1.5c0.3,0,0.7,0.1,1.2,0.2c0.7,0.2,1.3,0.4,1.8,0.5c0.7,0.1,1.5,0.2,2.4,0.2c0.2,0,0.2,0,0.3,0s0,0.1,0,0.2
		l-0.3,0.9c-0.6,0-1,0-1.2,0.1c0,0.5,0.1,0.8,0.2,0.9c0.2,0.3,0.6,0.5,1.3,0.5h1V536.1z M267.2,528.7l-0.8,0.8l-0.8-0.8l0.8-0.8
		L267.2,528.7z" id="PATH_92" class="area" title=""></path>
	<path d="M274.7,536.1h-0.4c-0.9,0-1.5-0.3-1.8-1c-0.1,0.3-0.3,0.5-0.6,0.7c-0.3,0.2-0.6,0.3-0.9,0.3h-0.4V535h0.4
		c0.8,0,1.2-0.3,1.2-1v-3.5c0-1.3,0-2.3-0.1-3l0.9-0.7v6.7c0,1,0.4,1.5,1.3,1.5h0.4V536.1z" id="PATH_93" class="area" title=""></path>
	<path d="M282.5,533.2l-0.4,0.8c-0.7,0-1.3,0-1.6,0.1c-0.4,0.2-1,0.4-1.8,0.8c-0.8,0.4-1.4,0.7-1.8,0.8c-0.6,0.2-1.3,0.3-1.9,0.3
		h-0.7V535h0.8c0.9,0,1.7-0.2,2.4-0.5l2.3-1c-0.4-0.1-1-0.3-1.8-0.6c-0.7-0.3-1.1-0.4-1.3-0.4c-0.4,0-0.8,0.2-1.2,0.5
		c-0.1,0.1-0.1,0.1-0.2,0.1c-0.1,0-0.1,0-0.1-0.1c0,0,0-0.1,0-0.1c0.3-1,0.9-1.4,1.7-1.4c0.3,0,0.7,0.1,1.1,0.3
		c0.8,0.4,1.4,0.6,1.8,0.8c0.7,0.2,1.5,0.4,2.4,0.4c0.2,0,0.3,0,0.3,0.1C282.6,533,282.6,533.1,282.5,533.2z M279.7,528.7l-0.8,0.8
		l-0.8-0.8l0.8-0.8L279.7,528.7z" id="PATH_94" class="area" title=""></path>
</g>
</svg>

