



    


<svg version="1.1" id="Layer_1" xmlns="http://www.w3.org/2000/svg" xmlns:xlink="http://www.w3.org/1999/xlink" x="0px" y="0px" viewBox="0 0 698 457" style="enable-background:new 0 0 698 457;" xml:space="preserve" width="100%" height="100%">
<style type="text/css">
	.st0{fill:#DBECCB;stroke:#010101;stroke-width:0.2;stroke-miterlimit:10;}
	.st1{fill:#FDFAD4;stroke:#010101;stroke-width:0.2;stroke-miterlimit:10;}
	.st2{fill:#FBD0D1;stroke:#010101;stroke-width:0.2;stroke-miterlimit:10;}
	.st3{fill:#E8D0E5;stroke:#010101;stroke-width:0.2;stroke-miterlimit:10;}
	.st4{fill:none;stroke:#020202;stroke-width:0.5;stroke-miterlimit:10;}
</style>

	<path class="st0 area" d="M601.7,150.9c-2.7-7.1,3.3-15.8-2.2-21.2c-6.5-7.1-7.1-15.8-11.4-23.4c-6-10.3-18.5-14.2-29.4-21.2
		c-6.5-4.4-8.7-12-11.4-19.1c-3.8-9.3,4.9-17.4,8.2-25.1c0.5-1,0.7-2.3,0.7-3.7l-133.3,1.6c0.8,7.5,2.8,14.6,5.2,21.7
		c1.1,2.7,1.6,6,1.6,8.7c0.5,2.7,2.2,4.9,3.3,7.6c3.3,7.6-2.2,15.8,0,24c0.5,1.1,1.1,2.2,1.1,3.3c1.6,19.1-1.1,37.6-6,55.5
		c-4.4,15.8-33.8,23.4-27.8,40.8c3.8,10.4,21.8,12.5,20.7,28.3c-0.4,6,7.6,6.6,14.5,8.5c-0.6-2-1.3-3.9-1.7-5l-0.4-1l0.9-0.5
		c0,0,23.4-14.2,27.6-16.8c4.5-2.7,13-2.7,19.9-2.7c3.6,0,12-0.2,20.2-0.5c6.9-0.2,13.4-0.4,15.8-0.4c4.4,0,8.8-4.4,8.8-8.8
		c0-5.4,5.3-6.8,10.4-8.1c0.7-0.2,1.5-0.4,2.2-0.6c1.8-0.5,3.1-0.9,4.2-1.3c2.4-0.8,4.2-1.5,9.5-2.1c7.1-0.8,11.4-7.1,11.4-11.3
		c0-6,4.9-13,11.3-13h28.5c1.5,0,2.6-0.4,3.9-1.1C605.2,160.1,603.1,155.6,601.7,150.9z" id="_x646__x627__x6CC__x6CC__x646_" title="نایین"></path>
	<path class="st1 area" d="M308.2,254.9c-1.1,0-3.8,0-3.3,1.6c0,2.7,1.1,6.5,1.1,8.7c1.1,9.8,17.4,14.7,13.1,27.8
		c-1.1,2.7-4.9,3.8-3.8,7.1c2.2,7.6,4.4,17.4-2.7,22.9c-4.3,2.7-9.9,1.8-13.9,3.7c3.1,2.3,6.4,4.5,10.1,6.1c1.6,1.1,3.3,2.7,3.3,3.8
		c-3.4,11.1-0.8,25.6,10.1,28.8c-0.3-2.1-0.6-3.5-0.6-3.6l-0.1-0.4l0.1-0.3c0.3-0.7,6.9-16.2,11.2-20.5c2.8-2.8,11.7-8.9,19.8-8.5
		c2.2,0.1,4.1,0.7,5.8,1.7c-0.5-2.5-1.1-4.9-1.7-7.6c-2.7-9.3-13.1-9.3-21.2-14.7c-4.9-3.3-9.3-9.3-6-14.2
		c8.7-12.5,8.2-27.8,1.6-40.3c-2-3.3-5.3-5.3-8.6-6.6C317.8,252.3,313.9,255.3,308.2,254.9z" id="_x634__x647__x631__x631__x636__x627_" title="شهررضا"></path>
	<path class="st0 area" d="M285.3,248.9c-8,10.2-15.1,20.6-26,26.1c4.1,1.6,9.3,5.9,11,9.3c0.6,1.2,1.1,3.3,1.6,5.5
		c13.4-3.2,21.3-14.2,32.5-22.9c0.3-0.5,0.9-1,1.7-1.3c0-0.1,0-0.2-0.1-0.3c0-2.2-1.1-6-1.1-8.7c-0.5-1.6,2.2-1.6,3.3-1.6
		c5.7,0.4,9.6-2.6,14.2-4.4c-1.1-0.4-2.3-0.8-3.4-1.1c-5.4-1.4-10.9-2.3-15.4-4.8c-1.3,1.2-2.6,2.6-4.2,3.2
		C294.6,248.9,287,246.7,285.3,248.9z" id="_x645__x628__x627__x631__x6A9__x647_" title="مبارکه"></path>
	<path class="st1 area" d="M296.2,232c-3.3,2.2-6.5-0.5-9.3-2.2c-2.2-1.6-8.2-0.5-7.6,3.8c0.5,1.1,2.2,2.2,2.2,2.7
		c0.4,4.5,1.1,9,4.2,12.1c2.3-1.5,9.2,0.3,13.7-0.7c1.7-0.6,2.9-2,4.2-3.2c-0.9-0.5-1.8-1.1-2.6-1.7c-4.4-2.7,2.7-7.1,0.5-9.8
		c-1-0.9-1.9-1.9-2.6-3c-0.6,0.1-1.2,0.1-1.8,0.3C296.8,230.9,296.2,232,296.2,232z" id="_x641__x644__x627__x648__x631__x62C__x627__x646_" title="فلاورجان"></path>
	<path class="st0 area" d="M280.4,209.7c-1.1-0.5-1.6,1.6-1.1,2.7c5.5,5,5.6,11.2,7.7,17.5c2.7,1.6,5.9,4.3,9.2,2.1c0,0,0.5-1.1,1.1-1.6
		c0.6-0.1,1.2-0.2,1.8-0.3c-2.6-3.9-3.2-8.6-4.5-13.4c-0.4-2.1-2.1-3.1-3.5-4.2C287.3,212.7,284.4,210.1,280.4,209.7z" id="_x62E__x645__x6CC__x646__x6CC___x634__x647__x631_" title="خمینی شهر"></path>
	<path class="st2 area" d="M168.2,226.6c2.2-0.5,2.2-3.3,1.6-3.8c-6-5.4-0.5-10.9,1.6-15.8c2.7-5.4-1.6-9.3-5.4-14.7
		c-1.6-3.3-2.7-7.6-5.4-10.3c-3.3-3.8-7.1,1.1-9.8,2.7c-5,2.5-9.9-2-14.7-6.2c-1.6,1.6-3.8,3.2-9.3,3.2c-4.8,0-12.1-0.4-14.1-0.5
		c-0.7,0.7-2,2.1-2,3.2c0,1.2-0.1,3.3-0.3,5.7c-0.1,2.2-0.3,4.4-0.3,5.5c0,1.6,1.1,4.6,1.6,5.6l0.1,0.2v0.3c0,2,0.6,7.6,3.4,9.6
		c2,1.4,6.2,4,9.8,6.3c3.5,2.2,6.4,4,7.5,4.9c0.3,0.2,0.6,0.5,1,0.8c2.1,1.8,4.6,3.8,8.2,1.4c5.3-3.5,11-3.2,15,0.7
		c0.3,0.3,0.7,0.6,1,1C161.1,226.1,165,227.2,168.2,226.6z" id="_x641__x631__x6CC__x62F__x648__x646___x634__x647__x631_" title="فریدون شهر"></path>
	<path class="st0 area" d="M222.2,209.1c-2.2-4.4-7.6-5.4-10.3-9.8c-2.2-3.3-3.8-6.5-7.1-7.6c-7.1-1.6-16.3-3.3-20.7,4.4
		c8.2,4.4-1.6,7.1,0.5,13.6c0,0.5,1.1,1.6,2.2,2.2c-1.1,1.6-2.7,2.2-4.9,2.2c-3.9-0.9-7.5-3.7-11.3-5.3c-2.4,4.4-6,9.2-0.7,14
		c0.5,0.5,0.5,3.3-1.6,3.8c-3.3,0.7-7.2-0.5-10.5-0.3c3.6,3.4,9.6,8.5,11.5,9.4c1.2,0.6,7.3-2.9,9.6-6.3c0.4-0.6,0.8-1.3,1.2-2.1
		c1.8-3.3,4.3-7.9,10.5-7.4c4.6,0.4,10.4-1.2,14.6-2.3c1.6-0.4,3-0.8,4-1c0.7-0.1,1.6-0.5,2.5-0.8c2.5-1,6-2.3,9,0.7
		C222.6,214.4,223.5,211.8,222.2,209.1z" id="_x686__x627__x62F__x6AF__x627__x646_" title="چادگان"></path>
	<path class="st3 area" d="M270.1,238c-7.1-2.7-12.5,4.4-19.1,2.7c-3.8-1.1-8.7-5.4-12-1.6c-3.3,3.8-4.2,8-8.2,10.8
		c0.1,1.2,0.4,2.5,0.9,3.6c1.1,2.4,2.9,3.8,5.4,4.4c7.6,1.6,13,2.8,14.3,8.2c1.1,4.4,3.8,7.7,6.9,8.6c0.3,0.1,0.6,0.2,0.9,0.3
		c10.9-5.5,18-15.9,26-26.1c0.1-0.2,0.3-0.3,0.4-0.4c-1.7-1.7-2.7-3.8-3.3-6.1c-1.2,0.6-2.4,1.1-3.7,1.1
		C275.5,243.5,273.3,239.6,270.1,238z" id="_x644__x646__x62C__x627__x646_" title="لنجان"></path>
	<path class="st1 area" d="M255.9,229.3c0-0.5-1.1-2.2-0.5-3.3c1.1-1.1,2.2-2.2,2.7-3.3c0.5-2.7-1.6-5.4-0.5-7.6c1.6-2.7,4.9-5.4,3.8-8.7
		c-1.6-7.1-7.6-7.6-14.7-8.2c-1.6-0.5-3.3-5.4-5.4-5.4c-9.8,0.5-17.4-3.8-25.1-9.8c-1.6-1.6-4.9-2.7-8.2-1.6c-2.2,0.5-3.3-4.4-6-4.9
		c-1.6-0.5-3.3,1.1-3.8,2.7c0,1.1,0.5,2.7,0,3.3c-2.2,2.2-2.9,5-3.2,7.9c3.3,0,6.7,0.7,9.7,1.4c3.3,1.1,4.9,4.4,7.1,7.6
		c2.7,4.4,8.2,5.4,10.3,9.8c1.3,2.6,0.4,5.3-1.4,7.3c0.3,0.3,0.7,0.7,1,1.2c1.7,2.5,2.9,5.3,4.1,8.1c1.2,2.7,2.3,5.3,3.6,6.9
		c2.5,3.1,5.1,7.2,2.4,12c-0.7,1.2-1.1,3.2-0.9,5.2c4.1-2.8,4.9-7,8.2-10.8c3.3-3.8,8.2,0.5,12,1.6c2.9,0.7,5.6-0.3,8.3-1.3
		C260.4,235.7,259.8,231.9,255.9,229.3z" id="_x62A__x6CC__x631__x627__x646_" title="تیران"></path>
	<path class="st1 area" d="M175.1,166.8c-0.1-0.1-0.2-0.1-0.4-0.2c-4.9-2.2-7.6-8.2-12.5-10.4c-7.6-2.9-15.6-6.9-17.2-14.8
		c-1,0.5-2,1.1-3,1.6c0.5,2.5,0.8,5.5-0.1,8.1c-1.5,4.4-3.1,5.4-5.6,7c-0.6,0.4-1.4,0.9-2.2,1.4c-0.9,0.7-1.9,1.2-2.9,1.7
		c-1.5,0.8-3.2,1.8-3.3,2.6c0,0.3,0.1,1.1,1.8,2.6c5.1,4.6,7.5,7,7.6,9.2c0,0.8-0.3,1.5-0.9,2.1c-0.2,0.2-0.4,0.3-0.5,0.5
		c4.7,4.2,9.7,8.6,14.7,6.2c2.7-1.6,6.5-6.5,9.8-2.7c0.5,0.5,0.9,1,1.3,1.6C170.8,184.8,170.8,172.9,175.1,166.8z" id="_x628__x648__x6CC__x646___x648___x645__x6CC__x646__x648___x62F__x634__x62A_" title="بوین و مینو دشت"></path>
	<path class="st3 area" d="M196,167.2c-6.9-1.6-14.9,2.5-20.9-0.4c-4.3,6.1-4.4,17.9-13.2,16.7c1.8,2.6,2.8,6,4.1,8.7
		c3.8,5.4,8.2,9.3,5.4,14.7c-0.3,0.6-0.6,1.2-0.9,1.8c3.7,1.6,7.3,4.4,11.3,5.3c2.2,0,3.8-0.5,4.9-2.2c-1.1-0.5-2.2-1.6-2.2-2.2
		c-2.2-6.5,7.6-9.3-0.5-13.6c2.5-4.4,6.6-5.7,11-5.7c0.2-2.9,0.9-5.7,3.2-7.9c0.5-0.5,0-2.2,0-3.3c0.5-1.6,2.2-3.3,3.8-2.7
		c0.2,0,0.4,0.1,0.5,0.2C202.1,172.4,200.7,168.7,196,167.2z" id="_x641__x631__x6CC__x62F__x646_" title="فریدن"></path>
	<path class="st0 area" d="M204.2,162.3c0.6-1.1,1-2.4,1.3-3.6c-2.7,0-6.1-1.2-8.9-1.8c-5.4-0.5-6-7.1-9.8-9.8c-3.3-2.2-7.1-5.5-10.9-6
		c-5.4,0-10.9,3.3-16.9-0.5c-5-3.6-9.4-1.5-13.9,1c1.6,7.9,9.6,12,17.2,14.8c4.9,2.2,7.6,8.2,12.5,10.4c6,3.3,14.2-1.1,21.2,0.5
		c1.4,0.4,2.4,1,3.3,1.8C201.3,167.2,203,165,204.2,162.3z" id="_x62E__x648__x627__x646__x633__x627__x631_" title="خوانسار"></path>
	<path class="st2 area" d="M279.6,212.7c-5.5-0.9-11-1.1-11.7-6.3c-1.1-8.2-5.4-15.8-11.4-21.2c-0.5-0.5,0-2.2,0-2.7
		c1.6-2.7,4.9-3.8,7.1-6c2.2-3.3,1.1-4.9-2.2-6c-5.4-1.1-7.6,6-13.1,2.2c-5.4-3.3-11.4-6.5-13.6-13.1c-0.5-2.2-3.8-2.7-5.4-3.8
		c-4.5-3.2-10-4.8-14.8-6.6c-2,2-3.7,4.2-4.8,7.2c-0.7,1.8-2.2,2.4-4.1,2.4c-0.4,1.2-0.7,2.4-1.3,3.6c-1.2,2.7-2.9,4.9-4.9,6.7
		c2.1,1.9,2.9,4.6,3.2,7.6c2.4,1,3.4,5.2,5.5,4.7c3.3-1.1,6.5,0,8.2,1.6c7.6,6,15.3,10.3,25.1,9.8c2.2,0,3.8,4.9,5.4,5.4
		c7.1,0.5,13.1,1.1,14.7,8.2c1.1,3.3-2.2,6-3.8,8.7c-1.1,2.2,1.1,4.9,0.5,7.6c-0.5,1.1-1.6,2.2-2.7,3.3c-0.5,1.1,0.5,2.7,0.5,3.3
		c3.8,2.6,4.5,6.4,3.4,10.1c3.4-1.4,6.8-2.9,10.8-1.4c3.3,1.6,5.4,5.4,8.7,5.4c1.3,0,2.5-0.5,3.7-1.1c-0.5-1.9-0.8-3.9-0.9-6
		c0-0.5-1.6-1.6-2.2-2.7c-0.5-4.4,5.4-5.5,7.6-3.8c0,0,0.1,0,0.1,0.1C285,223.7,284.8,217.6,279.6,212.7z" id="_x646__x62C__x641___x622__x628__x627__x62F_" title="نجف آباد"></path>
	<path class="st3 area" d="M159,140.5c6,3.8,11.4,0.5,16.9,0.5c3.8,0.5,7.6,3.8,10.9,6c3.8,2.7,4.4,9.3,9.8,9.8
		c4.9,1.1,11.4,3.8,13.1-0.5c1.1-2.9,2.8-5.2,4.8-7.2c-5-1.9-9.4-3.9-11.3-8.1c-3.4-7.9-4.2-17.9-7.1-27c-2.5,0.6-5.2,0.9-8,0.9
		c-1.3,0-2.5,0-3.8,0c-6-0.1-11.1-0.2-15.7,2.4c-1.6,0.9-3.2,2-4.8,3.1c-4.2,2.9-8.6,5.8-14.8,7.1c-6.6,1.3-8,9.5-8.2,11.1
		c0.3,0.7,0.9,2.4,1.4,4.5C147.8,140.2,152.9,136.1,159,140.5z" id="_x6AF__x644__x67E__x627__x6CC__x6AF__x627__x646_" title="گلپایگان"></path>
	<path class="st1 area" d="M304.4,198.8c-2.2-0.5-5.4,0.5-5.4-1.6c-1.1-6-3.3-10.4-6.5-14.7c-3.8-4.9-4.4-13.1-3.8-19.6
		c0-2.2,6.5,1.6,8.7-2.2c0.5-1.1,1.6-2.2,2.2-2.7c3.2-2,6.5-2.8,9.3-4.5c-1.3-0.8-2.2-2.4-2.2-3.7c-1.1-6.5-3.8-13.6-10.4-15.2
		c0-0.5,0-1.6,0-2.2c3.8-1.1,4.9-5.4,1.1-7.6c-5.4-3.4-12.4-4-17.5-6.8c-0.1,0.5-0.2,0.9-0.5,1.4c-0.5,0-1.6,0.5-2.7,0.5
		c-4.4,2.2-4.4,11.4-9.8,8.2c-6-3.3-11.4-3.3-16.9-6.5c-6.8-3.6-12.9-8.8-16.8-15.4c-3.9,1.4-8.5,1.9-12.1,0.5
		c-6.2-2.3-12.3-0.7-14.5,2.1c-1.8,2.4-5.8,4.4-10.6,5.5c2.9,9.1,3.7,19.1,7.1,27c3.8,8.2,16.9,8.2,26.1,14.7
		c1.6,1.1,4.9,1.6,5.4,3.8c2.2,6.5,8.2,9.8,13.6,13.1c5.4,3.8,7.6-3.3,13.1-2.2c3.3,1.1,4.4,2.7,2.2,6c-2.2,2.2-5.4,3.3-7.1,6
		c0,0.5-0.5,2.2,0,2.7c6,5.4,10.4,13.1,11.4,21.2c0.7,5.2,6.2,5.3,11.7,6.3c-0.1-0.1-0.2-0.2-0.3-0.3c-0.5-1.1,0-3.3,1.1-2.7
		c3.9,0.4,6.8,3,10.6,2.8c-0.8-0.6-1.5-1.3-1.9-2.3c-1.1-3.3,2.7-7.1,6-5.4c2.5,0.7,4.8,2.6,7.1,4.3c1.1-2.5,2.9-5,4.3-7.5
		C305.5,201,305.5,199.3,304.4,198.8z" id="_x634__x627__x647__x6CC__x646___x634__x647__x631___x648___x645__x6CC__x645__x647_" title="شاهین شهر و میمه"></path>
	<path class="st2 area" d="M339.2,188.5c0.3-0.2,0.7-0.3,1.1-0.4c-5.1-5.4-9-12.2-10.9-19.8c-1.1-5.4-9.8-8.2-9.3-15.2
		c0.9,0.1,1.9,0.2,2.9,0.4c-3-2.6-7.8-1.2-11.1,0.2c-1.2,0.7-2.3,0.5-3.3-0.1c-2.8,1.6-6,2.5-9.3,4.5c-0.5,0.5-1.6,1.6-2.2,2.7
		c-2.2,3.8-8.7,0-8.7,2.2c-0.5,6.5,0,14.7,3.8,19.6c3.3,4.4,5.4,8.7,6.5,14.7c0,2.2,3.3,1.1,5.4,1.6c1.1,0.5,1.1,2.2,2.2,2.7
		c-1.4,2.5-3.3,5.1-4.3,7.5c2.8,1.9,5.7,3.5,9.2,2.3c4.4-1.6,7.1-6.5,11.4-7.1c5.4-1.1,9.8,6.5,14.2,4.4c1.6-1.1-1.1-4.4-2.2-6.5
		C332.7,197.2,334.3,190.6,339.2,188.5z" id="_x628__x631__x62E__x648__x627__x631_" title="برخوار"></path>
	<path class="st0 area" d="M361,73.5c-8.7,1.6-12.5,9.3-19.1,14.2c-7.5,6-15.3,6.4-23.1,3.9c0.2,4.3,0.8,8.5-1.9,9.7
		c-5.4,2.7-13.6,4.9-18.5,9.8c-4.4,3.8-10.4-0.5-16.3,0.5c-3.2,0.9-1.8,3.7-2.2,6.2c5.1,2.8,12,3.4,17.5,6.8
		c3.8,2.2,2.7,6.5-1.1,7.6c0,0.5,0,1.6,0,2.2c6.5,1.6,9.3,8.7,10.4,15.2c0,2.2,2.7,5.4,5.4,3.8c3.2-1.4,8-2.8,11.1-0.2
		c10.3,1.5,22.2,4.8,28.2-3.6c3.3-3.8-3.8-10.9-4.9-17.4c-2.2-14.7,7.6-24.5,15.8-36.5c2.7-4.4,2.7-9.3,3.3-14.7
		c0-2.6,1.5-3.9,3.4-4.7C367,74.3,363.6,73.2,361,73.5z" id="_x646__x637__x646__x632_" title="نطنز"></path>
	<path class="st3 area" d="M249.9,121.5c5.4,3.3,10.9,3.3,16.9,6.5c5.4,3.3,5.4-6,9.8-8.2c1.1,0,2.2-0.5,2.7-0.5c1.6-2.7-1.1-6.5,2.7-7.6
		c6-1.1,12,3.3,16.3-0.5c4.9-4.9,13.1-7.1,18.5-9.8c2.7-1.2,2.1-5.4,1.9-9.7c-12.7-4.1-25.2-16-35.7-24c-2.7-2.2-6.5,1.6-7.6,0
		c-7.6-9.3-6.5-22.9,0.5-33.2c2.2-2.7-2.2-4.4-2.2-6.5c-0.3-2.2-0.5-4.5-0.6-6.7c-1.6,0-3,0.1-4.1,0.1c-5.8,0-10.5,0.9-12.7,2.3
		c-2.3,1.5-11.3,5.5-13.8,6.5c-0.2,1.4-0.7,4.8-0.7,9.2c0,1.4,0.1,2.6,0.2,3.7c0.3,3.3,0.5,6-3.3,8.2c-2.8,1.7-5.6,3-7.2,3.7
		c2.3,3.4,7.8,8.8,10.7,11c3.1,2.3,1.9,9,1,13.8c-0.2,1.3-0.5,2.6-0.5,3.1c0,8.5-0.6,14.3-1.8,17.2c-1,2.4-4.1,4.7-7.9,6.1
		C237,112.6,243.1,117.9,249.9,121.5z" id="_x6A9__x627__x634__x627__x646_" title="کاشان"></path>
	<path class="st2 area" d="M379.5,37.1c0-5.5-1.9-11-3.2-16.5c-3.5,0.4-7.5,1.1-11.4,2.3c-9,2.7-23.5,0.8-28.7-2.7l-12.1-8
		c-2.7,0.9-12.5,4.1-14.9,4.1c-1.7,0-12.8,2.5-19.8,4.2l-0.2,0c-0.5,0-9.5,0.6-16.1,0.8c0.1,2.2,0.3,4.4,0.6,6.7
		c0,2.2,4.4,3.8,2.2,6.5c-7.1,10.3-8.2,24-0.5,33.2c1.1,1.6,4.9-2.2,7.6,0c16.9,13.1,39.2,35.9,58.8,20.1
		c6.5-4.9,10.3-12.5,19.1-14.2c2.6-0.4,5.9,0.8,7.8,2.9c2.5-1.1,5.7-1.6,6.9-3.4C383.4,63.2,379.5,49,379.5,37.1z" id="_x622__x631__x627__x646___x648___x628__x6CC__x62F__x6AF__x644_" title="آران و بیدگل"></path>
	<path class="st1 area" d="M434,104c0-1.1-0.5-2.2-1.1-3.3c-2.2-8.2,3.3-16.3,0-24c-1.1-2.7-2.7-4.9-3.3-7.6c0-2.7-0.5-6-1.6-8.7
		c-2.4-7.1-4.3-14.2-5.2-21.7l-0.8,0l-0.3-0.2c-0.1-0.1-10.8-7.5-14.8-9.1c-1.5-0.6-4.1-1.6-7.2-2.7c-5.8-2.2-12.4-4.6-14.7-5.7
		c-1.5-0.8-4.8-0.9-8.7-0.5c1.3,5.5,3.2,11,3.2,16.5c0,12,3.8,26.1-3.8,35.9c-2.2,3.3-10.3,2.2-10.3,8.2c-0.5,5.4-0.5,10.3-3.3,14.7
		c-8.2,12-18,21.8-15.8,36.5c1.1,6.5,8.2,13.6,4.9,17.4c-6.5,9.3-20.1,4.4-31,3.3c-0.5,7.1,8.2,9.8,9.3,15.2
		c1.9,7.6,5.8,14.4,10.9,19.8c3.2-0.7,7.3,1.2,8.7-0.7c7.6-8.2,23.4-9.8,26.1-0.5c3.8,12.5,14.2,10.9,24,10.4
		c0.1-0.1,0.2-0.1,0.4-0.1c-1.5-15.1,24.4-22.8,28.5-37.5C432.9,141.6,435.6,123.1,434,104z" id="_x627__x631__x62F__x633__x62A__x627__x646_" title="اردستان"></path>
	<path class="st2 area" d="M304.4,266.9c-11.2,8.7-19.1,19.7-32.5,22.9c0.8,3.9,1.2,8.3,1.3,9.3c0.6,1.4,3.6,9.3-0.5,13.9
		c3.5-0.6,7-0.5,10.5,1.9c5.7,3.7,10.4,8,15.5,11.8c4.1-1.8,9.7-0.9,13.9-3.6c7.1-5.5,4.9-15.3,2.7-22.9c-1.1-3.3,2.7-4.4,3.8-7.1
		c4.3-12.9-11.6-17.9-13-27.4C305.3,265.9,304.6,266.4,304.4,266.9z" id="_x62F__x647__x642__x627__x646_" title="دهقان"></path>
	<path class="st0 area" d="M312,336.6c0-1.1-1.6-2.7-3.3-3.8c-9.8-4.4-16.3-12-25.6-18c-3.5-2.4-6.9-2.5-10.5-1.9c-0.5,0.5-1,1-1.7,1.4
		c-4.7,3-6.8,6.8-5.6,10.3c0.8,2.4-0.3,11.7-1.8,23.6c-0.5,3.9-0.9,7.3-0.9,8.1c0,1,1,7.8,2.1,14.9c0.9,5.9,1.9,12.6,2.7,18.3
		c0.2,0.3,0.3,0.6,0.3,1c0,0.1-0.1,0.2-0.1,0.2c0.7,5.4,1.2,9.8,1.2,11.8c0,7.9,2.3,14,6.8,18c4.6,4.1,25.9,20.7,32.9,26.1
		c-0.3-4.5-0.5-13,1.5-16.3c1.2-1.9,2.2-6.1,3.2-10.1c1.1-4.4,2.1-8.6,3.5-10.8c2.7-4.5,9-20.8,8.2-26c-0.6-4.1-2-13.1-2.8-18.2
		C311.2,362.2,308.6,347.7,312,336.6z" id="_x633__x645__x6CC__x631__x645_" title="سمیرم"></path>
	<path class="st3 area" d="M433.7,311.7l0.1-0.5c0-0.2,2.5-23.4,2.5-26.7c0-1.7,0.2-10.6,0.4-20.1c0.2-9,0.4-18.4,0.4-20.1
		c0-1.5-0.8-4.4-1.6-7.1c-6.9-1.9-15-2.4-14.5-8.5c1.1-15.8-16.9-18-20.7-28.3c-0.4-1.1-0.6-2.3-0.7-3.3c-0.1-0.1-0.3,0-0.4,0.1
		c-9.8,0.5-20.2,2.2-24-10.4c-2.7-9.3-18.5-7.6-26.1,0.5c-1.6,2.2-6.5-0.5-9.8,1.1c-4.9,2.2-6.5,8.7-4.4,13.6
		c1.1,2.2,3.8,5.4,2.2,6.5c-4.4,2.2-8.7-5.4-14.2-4.4c-4.4,0.5-7.1,5.4-11.4,7.1c-6.5,2.2-10.9-4.9-16.3-6.5c-3.3-1.6-7.1,2.2-6,5.4
		c1.1,2.7,4.9,3.3,5.4,6.5c1.6,6,2.2,12,7.1,16.3c2.2,2.7-4.9,7.1-0.5,9.8c4.9,3.8,11.4,4.9,18,6.5c4.4,1.1,9.3,3.3,12,7.6
		c6.5,12.5,7.1,27.8-1.6,40.3c-3.3,4.9,1.1,10.9,6,14.2c8.2,5.4,18.5,5.4,21.2,14.7c0.6,2.6,1.2,5.1,1.7,7.6
		c1.1,0.7,2.2,1.6,3.1,2.7c7.4,9.1,14.6,10.4,18.3,10.4c4.2,0,19.5,0.8,20.2,0.8l0.3,0c0.1,0,13.9,4,21.7,0.1
		c7.5-3.7,16.7-3,19.3-2.7l10.6-12.1L433.7,311.7z" id="_x627__x635__x641__x647__x627__x646_" title="اصفهان"></path>
	<path class="st2 area" d="M685,35.1l-96.2,1.7l-32.6,0.4c-0.1,1.4-0.2,2.7-0.7,3.7c-3.3,7.6-12,15.8-8.2,25.1
		c2.7,7.1,4.9,14.7,11.4,19.1c10.9,7.1,23.4,10.9,29.4,21.2c4.4,7.6,4.9,16.3,11.4,23.4c5.4,5.4-0.5,14.2,2.2,21.2
		c1.4,4.7,3.5,9.2,6.3,13.2c0.7-0.4,1.4-0.8,2.2-1.3c0.7-0.5,1.5-1,2.5-1.5c1.4-0.8,2.6-2,3.8-3.1c2.3-2.2,4.7-4.4,8-3.8
		c3.1,0.6,9.9-0.6,12.5-1.2c2.1-1.6,12.9-9.8,15.9-11c2-0.8,6.3-6.5,8.6-9.9l0.4-0.6h11c1.8,0,4-0.3,6.3-3.7
		c2.1-3.2,6.1-8.6,7.1-10.1L685,35.1z" id="_x62E__x648__x631___x648___x628__x6CC__x627__x628__x627__x646__x6A9_" title="خور و بیابانک"></path>

<line class="st4 area" x1="175.3" y1="129.9" x2="146" y2="114.4" id="LINE_26" title=""></line>
<line class="st4 area" x1="231.8" y1="174.6" x2="167.6" y2="93.1" id="LINE_27" title=""></line>
<line class="st4 area" x1="160.7" y1="149.2" x2="131.4" y2="133.8" id="LINE_28" title=""></line>
<line class="st4 area" x1="138.8" y1="191.6" x2="110.9" y2="173.7" id="LINE_29" title=""></line>
<line class="st4 area" x1="147.9" y1="167.7" x2="119.1" y2="153.8" id="LINE_30" title=""></line>
<line class="st4 area" x1="163.3" y1="261.9" x2="193.8" y2="211.1" id="LINE_31" title=""></line>
<line class="st4 area" x1="177.5" y1="279.7" x2="234.5" y2="207.5" id="LINE_32" title=""></line>
<line class="st4 area" x1="227.5" y1="312.6" x2="284.5" y2="262.7" id="LINE_33" title=""></line>
<line class="st4 area" x1="221.6" y1="287.6" x2="260.3" y2="250" id="LINE_34" title=""></line>
<line class="st4 area" x1="233.1" y1="341.6" x2="290.1" y2="291.6" id="LINE_35" title=""></line>
<line class="st4 area" x1="358.3" y1="356.4" x2="324.9" y2="326.4" id="LINE_36" title=""></line>
<line class="st4 area" x1="467.5" y1="275" x2="289.6" y2="219.5" id="LINE_37" title=""></line>
<line class="st4 area" x1="467.5" y1="293.3" x2="289.6" y2="237.8" id="LINE_38" title=""></line>
<line class="st4 area" x1="180.4" y1="187.8" x2="123.1" y2="240.9" id="LINE_39" title=""></line>
<g id="G_40" class="area" title="">
	<path d="M140.3,79.2c0,1.4-0.9,2.1-2.8,2.1c-0.7,0-1.2-0.1-1.5-0.3c-0.4-0.2-0.6-0.7-0.6-1.3c0-0.3,0.1-0.6,0.2-0.9
		c0.1-0.1,0.1-0.2,0.2-0.2c0.1,0,0.1,0.1,0.1,0.3c0,0.1,0,0.2,0,0.3c0,0.4,0.2,0.7,0.6,0.8c0.2,0.1,0.6,0.1,1.1,0.1
		c1.5,0,2.2-0.2,2.2-0.7c0-0.7-0.9-1.7-2.6-2.9l0.3-1c0-0.1,0.1-0.1,0.1-0.1c0,0,0.1,0,0.2,0.1C139.5,76.9,140.3,78.1,140.3,79.2z" id="PATH_41" class="area" title=""></path>
	<path d="M144.3,81.3h-0.7c-0.7,0-1.3-0.3-1.5-0.9c-0.2-0.4-0.3-1.1-0.3-1.9v-1.9c0-0.9-0.1-2.2-0.2-3.9l0.6-0.7
		c0.1-0.1,0.2-0.1,0.2,0c0.1,0.9,0.2,2.2,0.2,3.9v2.9c0,0.8,0.4,1.2,1.2,1.2h0.5V81.3z" id="PATH_42" class="area" title=""></path>
	<path d="M146.7,79.3c0,1.3-0.7,2-2,2h-0.8v-1.2h0.7c1,0,1.5-0.2,1.5-0.5c0-0.3-0.2-0.7-0.7-1.2l0.4-1c0-0.1,0.1-0.1,0.1-0.1
		c0,0,0.1,0.1,0.2,0.2C146.5,78.1,146.7,78.7,146.7,79.3z M146.4,83.5l-0.8,0.8l-0.8-0.8l0.8-0.8L146.4,83.5z" id="PATH_43" class="area" title=""></path>
	<path d="M150.7,70.6c-0.4,0.4-1,0.5-1.6,0.5c-0.1,0-0.2,0-0.4,0s-0.3,0-0.4,0c-0.1,0-0.2,0.1-0.3,0.2c-0.1,0.1-0.2,0.2-0.2,0.2
		c-0.1,0-0.1-0.1-0.1-0.2c0-0.1,0.1-0.3,0.2-0.5c0.1-0.3,0.2-0.4,0.3-0.4c0.1,0,0.3,0,0.6,0.1c0.3,0,0.5,0.1,0.6,0.1
		c0.6,0,1,0,1.3-0.1c0.2,0,0.3-0.1,0.3-0.1c0,0,0.1,0,0.1,0C150.9,70.4,150.9,70.5,150.7,70.6z M150.1,80.1c0,0.4-0.1,0.8-0.3,1.1
		c-0.1,0.2-0.2,0.3-0.2,0.3c0,0-0.1-0.1-0.1-0.4c0-1.2-0.2-4-0.6-8.5l0.8-0.8c0.1-0.1,0.1-0.1,0.1-0.1c0,0,0,0.1,0,0.2
		C150,73.2,150.1,75.9,150.1,80.1z" id="PATH_44" class="area" title=""></path>
	<path d="M166.4,81.3h-0.6c-0.6,0-1.3-0.2-2-0.6c-0.3,0.1-0.6,0.2-0.8,0.3c-1,0.3-2.2,0.5-3.7,0.5c-1,0-1.8-0.1-2.3-0.3
		c-0.8-0.3-1.2-0.9-1.2-1.7c0-0.7,0.2-1.3,0.5-1.8c0.1-0.1,0.1-0.2,0.2-0.2c0.1,0,0.1,0,0.1,0.1c0,0,0,0.1,0,0.2
		c-0.2,0.4-0.2,0.7-0.2,1c0,0.7,0.4,1.2,1.3,1.4c0.4,0.1,1.2,0.2,2.2,0.2c0.8,0,1.5,0,1.9-0.1c0.3,0,0.6-0.1,0.9-0.2
		c-0.3-0.3-0.5-0.7-0.5-1.3c0-0.5,0.2-1,0.5-1.5c0.4-0.6,0.8-0.8,1.2-0.9c0.5,0,0.8,0.2,1.1,0.7c0.2,0.4,0.3,0.8,0.3,1.4
		c0,0.6-0.2,1.1-0.6,1.4c0.2,0.1,0.7,0.2,1.3,0.2h0.4V81.3z M164.2,73.8l-0.8,0.8l-0.8-0.8l0.8-0.8L164.2,73.8z M164.8,78.8
		c0-0.2-0.1-0.5-0.3-0.7c-0.2-0.3-0.4-0.4-0.6-0.4s-0.4,0.1-0.7,0.4c-0.3,0.3-0.4,0.5-0.4,0.7c0,0.4,0.4,0.8,1.1,1.1
		C164.5,79.5,164.8,79.1,164.8,78.8z" id="PATH_45" class="area" title=""></path>
	<path d="M175.2,81.3h-1c-1.3,0-2-0.7-2-2c0-0.2,0-0.3,0-0.5c-0.5,0.2-1.1,0.6-1.9,1.1c-0.8,0.5-1.3,0.8-1.7,1
		c-0.6,0.3-1.3,0.4-1.9,0.4H166v-1.2h0.8c0.8,0,1.7-0.2,2.5-0.6c0.4-0.2,1.1-0.6,2.2-1.1c-0.2,0-0.8-0.2-1.8-0.4
		c-0.7-0.2-1.1-0.3-1.2-0.3c-0.4,0-0.8,0.2-1.2,0.5c-0.1,0.1-0.1,0.1-0.2,0.1c-0.1,0-0.1,0-0.1-0.1c0,0,0-0.1,0-0.1
		c0.3-1,0.9-1.5,1.7-1.5c0.3,0,0.7,0.1,1.2,0.2c0.7,0.2,1.3,0.4,1.8,0.5c0.7,0.1,1.5,0.2,2.4,0.2c0.2,0,0.2,0,0.3,0c0,0,0,0.1,0,0.2
		l-0.3,0.9c-0.6,0-1,0-1.2,0.1c0,0.5,0.1,0.8,0.2,0.9c0.2,0.3,0.6,0.5,1.3,0.5h1V81.3z M171.4,83.4l-0.8,0.8l-0.8-0.8l0.8-0.8
		L171.4,83.4z" id="PATH_46" class="area" title=""></path>
	<path d="M177.5,79.3c0,1.3-0.7,2-2,2h-0.8v-1.2h0.7c1,0,1.5-0.2,1.5-0.5c0-0.3-0.2-0.7-0.7-1.2l0.4-1c0-0.1,0.1-0.1,0.1-0.1
		c0,0,0.1,0.1,0.2,0.2C177.3,78.1,177.5,78.7,177.5,79.3z M177.5,74.8l-0.8,0.8l-0.8-0.8l0.8-0.8L177.5,74.8z" id="PATH_47" class="area" title=""></path>
</g>
<g id="G_48" class="area" title="">
	<path d="M115.4,105.2c0.1,0.3,0.1,0.6,0.1,0.9c0,0.4-0.1,0.7-0.2,1.1c-0.3,0.7-0.8,1.3-1.8,1.7c-0.8,0.3-1.6,0.5-2.5,0.5
		c-0.9,0-1.6-0.2-2.2-0.6c-0.6-0.5-0.9-1.1-0.9-2c0-0.5,0.1-0.9,0.3-1.5c0.2-0.4,0.3-0.7,0.5-0.9c0.1-0.1,0.2-0.1,0.2-0.1
		c0.1,0,0.1,0,0.1,0.1c0,0,0,0.1,0,0.2c-0.3,0.6-0.4,1.2-0.4,1.7c0,0.5,0.2,0.9,0.5,1.3c0.4,0.5,1.1,0.7,2,0.7c1,0,1.9-0.2,2.6-0.5
		c0.6-0.3,1-0.6,1.2-1c0.1-0.1,0.1-0.3,0.1-0.4c0-0.3-0.1-0.6-0.2-1c-0.1-0.3-0.4-0.8-0.9-1.6l0.4-0.8c0.1-0.1,0.1-0.2,0.1-0.2
		s0.1,0,0.1,0.1C115,103.7,115.3,104.4,115.4,105.2z M112.5,100.9l-0.8,0.8l-0.8-0.8l0.8-0.8L112.5,100.9z" id="PATH_49" class="area" title=""></path>
	<path d="M119.5,105.4h-0.7c-0.7,0-1.3-0.3-1.5-0.9c-0.2-0.4-0.3-1.1-0.3-1.9v-1.9c0-0.9-0.1-2.2-0.2-3.9l0.6-0.7
		c0.1-0.1,0.2-0.1,0.2,0c0.1,0.9,0.2,2.2,0.2,3.9v2.9c0,0.8,0.4,1.2,1.2,1.2h0.5V105.4z" id="PATH_50" class="area" title=""></path>
	<path d="M126.2,105.4h-0.6c-0.5,0-1.1-0.2-1.6-0.7c-0.4-0.3-0.8-0.9-1.3-1.6c-0.1,1.5-1.1,2.3-3.1,2.3h-0.6v-1.2h0.4
		c1.8,0,2.8-0.4,2.8-1.1c0-0.6-0.4-1.3-1.3-2.1c-0.4-0.4-0.8-0.7-1.3-1.1c0-0.4,0.1-0.7,0.3-1c0.1-0.1,1.9-0.7,5.5-1.8
		c0,0.1-0.1,0.5-0.3,1.1c-0.9,0.2-2.4,0.7-4.4,1.3c1,1.1,2,2.1,2.7,3c0.5,0.5,0.8,0.9,1.1,1.1c0.4,0.3,0.9,0.5,1.4,0.5h0.4V105.4z
		 M125.2,95.8l-0.2,0.7l-4.9,1.6l0.2-0.7L125.2,95.8z" id="PATH_51" class="area" title=""></path>
	<path d="M128.6,103.4c0,1.3-0.7,2-2,2h-0.8v-1.2h0.7c1,0,1.5-0.2,1.5-0.5c0-0.3-0.2-0.7-0.7-1.2l0.4-1c0-0.1,0.1-0.1,0.1-0.1
		c0,0,0.1,0.1,0.2,0.2C128.4,102.1,128.6,102.8,128.6,103.4z M127.8,107.6l-0.8,0.8l-0.8-0.8l0.8-0.8L127.8,107.6z M129.6,107.6
		l-0.8,0.8l-0.8-0.8l0.8-0.8L129.6,107.6z" id="PATH_52" class="area" title=""></path>
	<path d="M133.5,105.4h-0.7c-0.7,0-1.3-0.3-1.5-0.9c-0.2-0.4-0.3-1.1-0.3-1.9v-1.9c0-0.9-0.1-2.2-0.2-3.9l0.6-0.7
		c0.1-0.1,0.2-0.1,0.2,0c0.1,0.9,0.2,2.2,0.2,3.9v2.9c0,0.8,0.4,1.2,1.2,1.2h0.5V105.4z" id="PATH_53" class="area" title=""></path>
	<path d="M138.5,105.4h-0.8c-0.9,0-1.5-0.3-1.9-0.9c-0.3,0.6-1,0.9-2.1,0.9h-0.6v-1.2h0.9c1,0,1.5-0.4,1.6-1.1
		c0-0.3,0.1-0.5,0.2-0.5c0.1,0,0.2,0.2,0.2,0.5c0.1,0.7,0.6,1.1,1.5,1.1h0.9V105.4z M133.6,107.4l0.7-0.7l0.7,0.7l-0.7,0.7
		L133.6,107.4z M134.5,108.9l0.7-0.7l0.7,0.7l-0.7,0.7L134.5,108.9z M135.4,107.4l0.7-0.7l0.7,0.7l-0.7,0.7L135.4,107.4z" id="PATH_54" class="area" title=""></path>
	<path d="M142.2,105.4h-0.4c-0.9,0-1.5-0.3-1.8-1c-0.1,0.3-0.3,0.5-0.6,0.7c-0.3,0.2-0.6,0.3-0.9,0.3h-0.4v-1.2h0.4
		c0.8,0,1.2-0.3,1.2-1v-3.5c0-1.3,0-2.3-0.1-3l0.9-0.7v6.7c0,1,0.4,1.5,1.3,1.5h0.4V105.4z" id="PATH_55" class="area" title=""></path>
	<path d="M148.2,97.3c0,0.2-0.1,0.5-0.3,1.1c-1.2,0.3-2.7,0.8-4.4,1.3c1.2,1.2,1.9,2.2,2,2.9c0.1,0.5,0,1-0.2,1.5
		c-0.2,0.5-0.6,0.8-1.1,1c-0.4,0.2-1.1,0.2-2,0.2h-0.4v-1.2h0.3c1.9,0,2.9-0.3,2.9-1c0-0.5-0.5-1.3-1.6-2.3l-0.1,0.3
		c-0.1-0.1-0.3-0.3-0.5-0.6c-0.3-0.3-0.4-0.5-0.4-0.6c0-0.3,0.1-0.6,0.4-0.9c0.1-0.1,0.7-0.3,2-0.7C146,97.9,147.2,97.5,148.2,97.3z
		 M148,95.8l-0.2,0.7l-4.9,1.6l0.2-0.7L148,95.8z" id="PATH_56" class="area" title=""></path>
</g>
<g id="G_57" class="area" title="">
	<path d="M97.2,128.4c0,1-0.3,1.9-0.9,2.8c-0.5,0.7-1,1.1-1.3,1.1c-0.8,0-1.4,0-2-0.1c-0.2,0-0.3-0.1-0.3-0.1s0.1-0.1,0.3-0.1
		c0.8-0.2,1.6-0.6,2.4-1.2c0.8-0.7,1.3-1.4,1.3-2.1c0-0.4-0.3-1-1-1.7L96,126c0-0.1,0.1-0.1,0.1-0.1c0,0,0.1,0.1,0.1,0.1
		c0.2,0.3,0.5,0.7,0.6,1.2C97.1,127.6,97.2,128.1,97.2,128.4z" id="PATH_58" class="area" title=""></path>
	<path d="M101.2,128.3h-0.7c-0.7,0-1.3-0.3-1.5-0.9c-0.2-0.4-0.3-1.1-0.3-1.9v-1.9c0-0.9-0.1-2.2-0.2-3.9L99,119
		c0.1-0.1,0.2-0.1,0.2,0c0.1,0.9,0.2,2.2,0.2,3.9v2.9c0,0.8,0.4,1.2,1.2,1.2h0.5V128.3z" id="PATH_59" class="area" title=""></path>
	<path d="M110.4,128.3h-0.6c-0.7,0-1.1-0.3-1.4-0.8c-0.2,0.6-0.7,0.8-1.3,0.8c-0.6,0-1-0.3-1.3-0.8c-0.3,0.6-0.7,0.8-1.3,0.8
		c-0.7,0-1.2-0.3-1.5-0.8c-0.4,0.6-0.9,0.8-1.6,0.8h-0.7v-1.2h0.8c0.7,0,1.2-0.4,1.3-1.2c0-0.2,0.1-0.3,0.2-0.3
		c0.1,0,0.1,0.1,0.2,0.3c0.1,0.8,0.5,1.2,1.3,1.2c0.7,0,1.2-0.4,1.2-1.2c0-0.2,0.1-0.3,0.2-0.3c0.1,0,0.2,0.1,0.2,0.3
		c0.1,0.8,0.5,1.2,1,1.2c0.7,0,1.2-0.4,1.2-1.2c0-0.2,0.1-0.3,0.2-0.3c0.1,0,0.2,0.1,0.2,0.3c0.1,0.8,0.5,1.2,1.2,1.2h0.6V128.3z" id="PATH_60" class="area" title=""></path>
	<path d="M112.8,126.3c0,1.3-0.7,2-2,2H110v-1.2h0.7c1,0,1.5-0.2,1.5-0.5c0-0.3-0.2-0.7-0.7-1.2l0.4-1c0-0.1,0.1-0.1,0.1-0.1
		c0,0,0.1,0.1,0.2,0.2C112.6,125.1,112.8,125.7,112.8,126.3z M112.7,121.8l-0.8,0.8l-0.8-0.8l0.8-0.8L112.7,121.8z" id="PATH_61" class="area" title=""></path>
	<path d="M115.1,127.1c0,0.4-0.1,0.8-0.3,1.1c-0.1,0.2-0.2,0.3-0.2,0.3c0,0-0.1-0.1-0.1-0.4c0-1.2-0.2-4-0.6-8.5l0.8-0.8
		c0.1-0.1,0.1-0.1,0.1-0.1c0,0,0,0.1,0,0.2C115.1,120.3,115.1,123,115.1,127.1z" id="PATH_62" class="area" title=""></path>
	<path d="M121.3,128.3h-1.1c-0.1,1.4-0.6,2.5-1.6,3.5c-0.3,0.3-0.5,0.5-0.6,0.5c-0.5,0-1.2-0.1-1.9-0.2c-0.2,0-0.4-0.1-0.4-0.1
		s0.1-0.1,0.4-0.2c0.8-0.2,1.6-0.7,2.3-1.2c0.3-0.3,0.6-0.5,0.8-0.9c0.3-0.4,0.5-0.8,0.5-1.1v-0.3h-1.3c-1,0-1.4-0.4-1.4-1.2
		c0-0.5,0.1-1,0.4-1.6c0.3-0.6,0.7-1,1.1-1c0.5,0,0.9,0.3,1.2,1c0.2,0.5,0.4,1,0.4,1.6h1.1V128.3z M119.5,127.2
		c0-0.3-0.1-0.6-0.3-0.9c-0.2-0.4-0.5-0.5-0.8-0.5c-0.2,0-0.4,0.1-0.5,0.2c-0.2,0.2-0.2,0.3-0.2,0.6c0,0.5,0.4,0.7,1.2,0.7
		C119,127.2,119.2,127.2,119.5,127.2z" id="PATH_63" class="area" title=""></path>
	<path d="M129.1,125.4l-0.4,0.8c-0.7,0-1.3,0-1.6,0.1c-0.4,0.2-1,0.4-1.8,0.8c-0.8,0.4-1.4,0.7-1.8,0.8c-0.6,0.2-1.3,0.3-1.9,0.3
		h-0.7v-1.2h0.8c0.9,0,1.7-0.2,2.4-0.5l2.3-1c-0.4-0.1-1-0.3-1.8-0.6c-0.7-0.3-1.1-0.4-1.3-0.4c-0.4,0-0.8,0.2-1.2,0.5
		c-0.1,0.1-0.1,0.1-0.2,0.1c-0.1,0-0.1,0-0.1-0.1c0,0,0-0.1,0-0.1c0.3-1,0.9-1.4,1.7-1.4c0.3,0,0.7,0.1,1.1,0.3
		c0.8,0.4,1.4,0.6,1.8,0.8c0.7,0.2,1.5,0.4,2.4,0.4c0.2,0,0.3,0,0.3,0.1C129.2,125.2,129.2,125.3,129.1,125.4z M126.3,120.9
		l-0.8,0.8l-0.8-0.8l0.8-0.8L126.3,120.9z" id="PATH_64" class="area" title=""></path>
</g>
<g id="G_65" class="area" title="">
	<path d="M45.1,146.7h-0.4c-0.5,0-0.9-0.1-1.1-0.3c-0.3-0.2-0.5-0.6-0.5-1c-1.1,1-2.8,1.5-5.1,1.5c-2.4,0-3.6-0.7-3.6-2.2
		c0-0.5,0.2-1,0.6-1.5c0.1-0.1,0.1-0.1,0.2-0.1c0.1,0,0.1,0,0.1,0.1c0,0,0,0.1,0,0.2c-0.1,0.3-0.2,0.6-0.2,0.9c0,1,1.1,1.5,3.3,1.5
		c2.5,0,4.2-0.5,5-1.6c0.2-0.2,0.3-0.3,0.4-0.3c0.1,0,0.1,0.1,0.1,0.2c0,0.1,0,0.2-0.1,0.4c0,0.2-0.1,0.3-0.1,0.4
		c0,0.5,0.4,0.8,1.1,0.8h0.4V146.7z M38.9,140.9l-0.8,0.8l-0.8-0.8l0.8-0.8L38.9,140.9z M40.6,140.9l-0.8,0.8l-0.8-0.8l0.8-0.8
		L40.6,140.9z" id="PATH_66" class="area" title=""></path>
	<path d="M53,144.5c0,0.6-0.1,1.1-0.4,1.5c-0.3,0.4-0.8,0.7-1.3,0.7c-0.7,0-1.1-0.3-1.4-0.8c-0.4,0.6-0.8,0.8-1.4,0.8
		c-0.7,0-1.2-0.3-1.5-0.8c-0.4,0.6-0.9,0.8-1.6,0.8h-0.7v-1.2h0.8c0.7,0,1.2-0.4,1.3-1.2c0-0.2,0.1-0.3,0.2-0.3
		c0.1,0,0.1,0.1,0.2,0.3c0.1,0.8,0.5,1.2,1.3,1.2c0.4,0,0.8-0.1,1-0.3c0.1-0.2,0.2-0.4,0.3-0.8c0-0.2,0.1-0.3,0.2-0.3
		c0.1,0,0.1,0.1,0.2,0.3c0.1,0.8,0.5,1.2,1.2,1.2c0.8,0,1.1-0.2,1.1-0.5c0-0.3-0.2-0.7-0.6-1.1l0.5-0.9c0.1-0.1,0.1-0.2,0.2-0.2
		s0.1,0.1,0.2,0.2C52.8,143.6,53,144.1,53,144.5z M49.6,140.9l-0.7,0.7l-0.7-0.7l0.7-0.7L49.6,140.9z M50.5,139.3l-0.7,0.7l-0.7-0.7
		l0.7-0.7L50.5,139.3z M51.4,140.9l-0.7,0.7l-0.7-0.7l0.7-0.7L51.4,140.9z" id="PATH_67" class="area" title=""></path>
	<path d="M59.1,144.6c0,1.4-0.9,2.1-2.8,2.1c-0.7,0-1.2-0.1-1.5-0.3c-0.4-0.2-0.6-0.7-0.6-1.3c0-0.3,0.1-0.6,0.2-0.9
		c0.1-0.1,0.1-0.2,0.2-0.2c0.1,0,0.1,0.1,0.1,0.3c0,0.1,0,0.2,0,0.3c0,0.4,0.2,0.7,0.6,0.8c0.2,0.1,0.6,0.1,1.1,0.1
		c1.5,0,2.2-0.2,2.2-0.7c0-0.7-0.9-1.7-2.6-2.9l0.3-1c0-0.1,0.1-0.1,0.1-0.1c0,0,0.1,0,0.2,0.1C58.3,142.2,59.1,143.4,59.1,144.6z" id="PATH_68" class="area" title=""></path>
	<path d="M69.3,146.7h-1.1c-0.1,1.4-0.6,2.5-1.6,3.5c-0.3,0.3-0.5,0.5-0.6,0.5c-0.5,0-1.2-0.1-1.9-0.2c-0.2,0-0.4-0.1-0.4-0.1
		s0.1-0.1,0.4-0.2c0.8-0.2,1.6-0.7,2.3-1.2c0.3-0.3,0.6-0.5,0.8-0.9c0.3-0.4,0.5-0.8,0.5-1.1v-0.3h-1.3c-1,0-1.4-0.4-1.4-1.2
		c0-0.5,0.1-1,0.4-1.6c0.3-0.6,0.7-1,1.1-1c0.5,0,0.9,0.3,1.2,1c0.2,0.5,0.4,1,0.4,1.6h1.1V146.7z M67.5,145.5
		c0-0.3-0.1-0.6-0.3-0.9c-0.2-0.4-0.5-0.5-0.8-0.5c-0.2,0-0.4,0.1-0.5,0.2c-0.2,0.2-0.2,0.3-0.2,0.6c0,0.5,0.4,0.7,1.2,0.7
		C66.9,145.5,67.2,145.5,67.5,145.5z" id="PATH_69" class="area" title=""></path>
	<path d="M74.2,146.7h-0.8c-0.9,0-1.5-0.3-1.9-0.9c-0.3,0.6-1,0.9-2.1,0.9h-0.6v-1.2h0.9c1,0,1.5-0.4,1.6-1.1c0-0.3,0.1-0.5,0.2-0.5
		c0.1,0,0.2,0.2,0.2,0.5c0.1,0.7,0.6,1.1,1.5,1.1h0.9V146.7z M72.2,141.5l-0.8,0.8l-0.8-0.8l0.8-0.8L72.2,141.5z" id="PATH_70" class="area" title=""></path>
	<path d="M79.1,146.7h-0.8c-0.9,0-1.5-0.3-1.9-0.9c-0.3,0.6-1,0.9-2.1,0.9h-0.6v-1.2h0.9c1,0,1.5-0.4,1.6-1.1c0-0.3,0.1-0.5,0.2-0.5
		c0.1,0,0.2,0.2,0.2,0.5c0.1,0.7,0.6,1.1,1.5,1.1h0.9V146.7z M75.8,148.9l-0.8,0.8l-0.8-0.8l0.8-0.8L75.8,148.9z M77.5,148.9
		l-0.8,0.8l-0.8-0.8l0.8-0.8L77.5,148.9z" id="PATH_71" class="area" title=""></path>
	<path d="M84.1,144.7c0,0.5,0,0.9-0.2,1.3c-0.2,0.5-0.5,0.8-0.8,0.8c-0.5,0-1.3-0.3-2.3-1c-0.3,0.4-0.5,0.6-0.6,0.7
		c-0.3,0.2-0.6,0.3-1,0.3h-0.5v-1.2h0.7c0.4,0,0.8-0.2,1.2-0.7c0.2-0.2,0.5-0.7,0.9-1.3c0.3-0.5,0.7-0.7,1-0.7
		c0.5,0,0.9,0.2,1.2,0.7C83.9,143.9,84,144.3,84.1,144.7z M83.5,145.4c0-0.3-0.1-0.6-0.3-1c-0.2-0.4-0.5-0.6-0.8-0.6
		c-0.3,0-0.6,0.3-1,0.9c0.2,0.2,0.5,0.4,0.9,0.6c0.4,0.2,0.8,0.3,1,0.3C83.4,145.7,83.5,145.6,83.5,145.4z" id="PATH_72" class="area" title=""></path>
	<path d="M93.1,146.3c0,1.5-0.5,2.8-1.5,3.8c-0.3,0.3-0.5,0.5-0.6,0.5c-0.6,0-1.2-0.1-1.9-0.2c-0.3,0-0.4-0.1-0.4-0.1
		c0,0,0.1-0.1,0.4-0.2c0.8-0.2,1.6-0.7,2.3-1.3c0.3-0.3,0.6-0.5,0.8-0.9c0.3-0.4,0.5-0.8,0.5-1.1v-0.3l-1.3,0
		c-0.9,0-1.4-0.4-1.4-1.1c0-0.5,0.1-1,0.4-1.6c0.3-0.6,0.7-1,1.1-1c0.6,0,1.1,0.4,1.4,1.3C93,144.8,93.1,145.5,93.1,146.3z
		 M92.4,145.4c0-0.3-0.1-0.6-0.3-0.9c-0.2-0.3-0.5-0.5-0.8-0.5c-0.2,0-0.4,0.1-0.5,0.2c-0.2,0.2-0.2,0.3-0.2,0.5
		c0,0.5,0.3,0.7,1,0.7C91.7,145.5,92,145.5,92.4,145.4z" id="PATH_73" class="area" title=""></path>
	<path d="M107.1,146.7h-0.5c-0.5,0-0.8,0-1-0.1c0,0.3,0.1,0.5,0.1,0.8c0,0.5-0.1,0.8-0.2,1.1c-0.3,0.7-0.8,1.3-1.8,1.7
		c-0.8,0.3-1.6,0.5-2.5,0.5c-0.9,0-1.6-0.2-2.2-0.6c-0.6-0.5-0.9-1.1-0.9-2c0-0.5,0.1-0.9,0.3-1.5c0.2-0.4,0.3-0.7,0.5-0.9
		c0.1-0.1,0.2-0.1,0.2-0.1c0.1,0,0.1,0,0.1,0.1c0,0,0,0.1,0,0.2c-0.3,0.6-0.4,1.2-0.4,1.7c0,0.5,0.2,0.9,0.5,1.3
		c0.4,0.5,1.1,0.7,2,0.7c1,0,1.9-0.2,2.6-0.5c0.6-0.3,1-0.6,1.2-1c0.1-0.1,0.1-0.3,0-0.7c0-0.3-0.1-0.6-0.1-0.7
		c-0.1-0.3-0.5-0.8-1-1.5l0.4-0.8c0.1-0.1,0.1-0.2,0.1-0.2s0.1,0,0.1,0.1c0.5,0.8,1,1.2,1.6,1.2h0.8V146.7z M102.7,142.2l-0.8,0.8
		l-0.8-0.8l0.8-0.8L102.7,142.2z" id="PATH_74" class="area" title=""></path>
	<path d="M109.5,144.7c0,1.3-0.7,2-2,2h-0.8v-1.2h0.7c1,0,1.5-0.2,1.5-0.5c0-0.3-0.2-0.7-0.7-1.2l0.4-1c0-0.1,0.1-0.1,0.1-0.1
		c0,0,0.1,0.1,0.2,0.2C109.3,143.4,109.5,144,109.5,144.7z M108.7,148.9l-0.8,0.8l-0.8-0.8l0.8-0.8L108.7,148.9z M110.4,148.9
		l-0.8,0.8l-0.8-0.8l0.8-0.8L110.4,148.9z" id="PATH_75" class="area" title=""></path>
	<path d="M116.7,146.7h-1.1c-0.1,1.4-0.6,2.5-1.6,3.5c-0.3,0.3-0.5,0.5-0.6,0.5c-0.5,0-1.2-0.1-1.9-0.2c-0.2,0-0.4-0.1-0.4-0.1
		s0.1-0.1,0.4-0.2c0.8-0.2,1.6-0.7,2.3-1.2c0.3-0.3,0.6-0.5,0.8-0.9c0.3-0.4,0.5-0.8,0.5-1.1v-0.3h-1.3c-1,0-1.4-0.4-1.4-1.2
		c0-0.5,0.1-1,0.4-1.6c0.3-0.6,0.7-1,1.1-1c0.5,0,0.9,0.3,1.2,1c0.2,0.5,0.4,1,0.4,1.6h1.1V146.7z M114.9,145.5
		c0-0.3-0.1-0.6-0.3-0.9c-0.2-0.4-0.5-0.5-0.8-0.5c-0.2,0-0.4,0.1-0.5,0.2c-0.2,0.2-0.2,0.3-0.2,0.6c0,0.5,0.4,0.7,1.2,0.7
		C114.3,145.5,114.6,145.5,114.9,145.5z" id="PATH_76" class="area" title=""></path>
	<path d="M119.1,144.7c0,1.3-0.7,2-2,2h-0.8v-1.2h0.7c1,0,1.5-0.2,1.5-0.5c0-0.3-0.2-0.7-0.7-1.2l0.4-1c0-0.1,0.1-0.1,0.1-0.1
		c0,0,0.1,0.1,0.2,0.2C118.9,143.4,119.1,144,119.1,144.7z M118.8,148.9l-0.8,0.8l-0.8-0.8l0.8-0.8L118.8,148.9z" id="PATH_77" class="area" title=""></path>
</g>
<g id="G_78" class="area" title="">
	<path d="M54.7,170.3h-0.4c-0.4,0-0.6-0.1-0.8-0.2c0,0.1,0,0.2,0,0.3c0,0.9-0.3,1.8-0.9,2.7c-0.5,0.8-1,1.1-1.3,1.1
		c-0.8,0-1.4,0-2-0.1c-0.2,0-0.3-0.1-0.3-0.1s0.1-0.1,0.3-0.1c0.8-0.2,1.6-0.6,2.4-1.2c0.8-0.7,1.3-1.4,1.3-2.1c0-0.4-0.3-1-1-1.7
		l0.5-0.9c0-0.1,0.1-0.1,0.1-0.1c0,0,0.1,0.1,0.1,0.1c0.3,0.4,0.5,0.7,0.7,0.8c0.3,0.2,0.7,0.4,1.1,0.4h0.3V170.3z" id="PATH_79" class="area" title=""></path>
	<path d="M60.9,170.3h-0.5c-0.4,0-0.8,0.1-1.1,0.2c-0.5,0.2-0.8,0.5-0.8,1c0,0.6,0.4,1.1,1.2,1.6l-0.5,1c-0.9-0.3-1.7-0.8-2.3-1.4
		c-0.8-0.7-1.2-1.6-1.2-2.5h-1.4v-1.2h1.3c0-0.8,0.2-1.6,0.6-2.6c0.4-0.9,0.7-1.3,0.9-1.3c0.2,0,0.5,0.4,0.8,1.3
		c0.3,0.8,0.4,1.3,0.4,1.6c0,1.4-0.7,2.1-2.1,2.1c0.1,0.4,0.3,0.8,0.6,1.2c0.3,0.4,0.7,0.7,1.1,0.9c0-0.1,0-0.3,0-0.4
		c0-0.7,0.2-1.3,0.5-1.8c0.5-0.7,1.1-1.1,2-1.1h0.4V170.3z M57.8,168.7c0-0.2-0.1-0.6-0.3-1.1c-0.2-0.6-0.4-0.8-0.6-0.8
		c-0.1,0-0.3,0.2-0.5,0.7c-0.2,0.5-0.3,1.1-0.3,1.7C57.3,169.2,57.8,169,57.8,168.7z" id="PATH_80" class="area" title=""></path>
	<path d="M68.8,168.2c0,0.6-0.1,1.1-0.4,1.5c-0.3,0.4-0.8,0.7-1.3,0.7c-0.7,0-1.1-0.3-1.4-0.8c-0.4,0.6-0.8,0.8-1.4,0.8
		c-0.7,0-1.2-0.3-1.5-0.8c-0.4,0.6-0.9,0.8-1.6,0.8h-0.7v-1.2h0.8c0.7,0,1.2-0.4,1.3-1.2c0-0.2,0.1-0.3,0.2-0.3
		c0.1,0,0.1,0.1,0.2,0.3c0.1,0.8,0.5,1.2,1.3,1.2c0.4,0,0.8-0.1,1-0.3c0.1-0.2,0.2-0.4,0.3-0.8c0-0.2,0.1-0.3,0.2-0.3
		c0.1,0,0.1,0.1,0.2,0.3c0.1,0.8,0.5,1.2,1.2,1.2c0.8,0,1.1-0.2,1.1-0.5c0-0.3-0.2-0.7-0.6-1.1l0.5-0.9c0.1-0.1,0.1-0.2,0.2-0.2
		s0.1,0.1,0.2,0.2C68.6,167.2,68.8,167.8,68.8,168.2z M65.4,164.5l-0.7,0.7l-0.7-0.7l0.7-0.7L65.4,164.5z M66.3,163l-0.7,0.7
		l-0.7-0.7l0.7-0.7L66.3,163z M67.2,164.5l-0.7,0.7l-0.7-0.7l0.7-0.7L67.2,164.5z" id="PATH_81" class="area" title=""></path>
	<path d="M81.3,170.2c0.1,0.3,0.1,0.6,0.1,0.9c0,0.4-0.1,0.7-0.2,1.1c-0.3,0.7-0.8,1.3-1.8,1.7c-0.8,0.3-1.6,0.5-2.5,0.5
		c-0.9,0-1.6-0.2-2.2-0.6c-0.6-0.5-0.9-1.1-0.9-2c0-0.5,0.1-0.9,0.3-1.5c0.2-0.4,0.3-0.7,0.5-0.9c0.1-0.1,0.2-0.1,0.2-0.1
		c0.1,0,0.1,0,0.1,0.1c0,0,0,0.1,0,0.2c-0.3,0.6-0.4,1.2-0.4,1.7c0,0.5,0.2,0.9,0.5,1.3c0.4,0.5,1.1,0.7,2,0.7c1,0,1.9-0.2,2.6-0.5
		c0.6-0.3,1-0.6,1.2-1c0.1-0.1,0.1-0.3,0.1-0.4c0-0.3-0.1-0.6-0.2-1c-0.1-0.3-0.4-0.8-0.9-1.6l0.4-0.8c0.1-0.1,0.1-0.2,0.1-0.2
		s0.1,0,0.1,0.1C80.9,168.6,81.2,169.4,81.3,170.2z M78.4,165.9l-0.8,0.8l-0.8-0.8l0.8-0.8L78.4,165.9z" id="PATH_82" class="area" title=""></path>
	<path d="M86.6,169.9c0,1.5-0.5,2.8-1.5,3.8c-0.3,0.3-0.5,0.5-0.6,0.5c-0.6,0-1.2-0.1-1.9-0.2c-0.3,0-0.4-0.1-0.4-0.1
		c0,0,0.1-0.1,0.4-0.2c0.8-0.2,1.6-0.7,2.3-1.3c0.3-0.3,0.6-0.5,0.8-0.9c0.3-0.4,0.5-0.8,0.5-1.1v-0.3l-1.3,0
		c-0.9,0-1.4-0.4-1.4-1.1c0-0.5,0.1-1,0.4-1.6c0.3-0.6,0.7-1,1.1-1c0.6,0,1.1,0.4,1.4,1.3C86.5,168.5,86.6,169.2,86.6,169.9z
		 M85.9,169.1c0-0.3-0.1-0.6-0.3-0.9c-0.2-0.3-0.5-0.5-0.8-0.5c-0.2,0-0.4,0.1-0.5,0.2c-0.2,0.2-0.2,0.3-0.2,0.5
		c0,0.5,0.3,0.7,1,0.7C85.2,169.2,85.5,169.2,85.9,169.1z" id="PATH_83" class="area" title=""></path>
	<path d="M94.4,170.3h-0.4c-0.4,0-0.7-0.1-1-0.4c-0.2-0.2-0.4-0.4-0.6-0.8c-0.2,0.4-0.5,0.7-0.8,0.9c-0.4,0.2-0.9,0.3-1.7,0.3
		c-1.4,0-2.1-0.5-2.1-1.5c0-0.3,0.1-0.7,0.3-1c0.1-0.1,0.1-0.2,0.2-0.2c0.1,0,0.1,0.1,0.1,0.2c0,0.1,0,0.1,0,0.3c0,0.1,0,0.2,0,0.3
		c0,0.6,0.5,0.9,1.5,0.9c1.4,0,2.1-0.3,2.1-0.8c0-0.3-0.4-1.4-1.2-3.3l0.4-0.8c0.1-0.1,0.1-0.2,0.1-0.2c0,0,0.1,0.1,0.1,0.2
		c0.3,0.8,0.8,2,1.4,3.6c0.3,0.8,0.7,1.2,1.3,1.2h0.3V170.3z" id="PATH_84" class="area" title=""></path>
	<path d="M96.8,168.3c0,1.3-0.7,2-2,2H94v-1.2h0.7c1,0,1.5-0.2,1.5-0.5c0-0.3-0.2-0.7-0.7-1.2l0.4-1c0-0.1,0.1-0.1,0.1-0.1
		c0,0,0.1,0.1,0.2,0.2C96.6,167.1,96.8,167.7,96.8,168.3z M96,172.5l-0.8,0.8l-0.8-0.8l0.8-0.8L96,172.5z M97.7,172.5l-0.8,0.8
		l-0.8-0.8l0.8-0.8L97.7,172.5z" id="PATH_85" class="area" title=""></path>
	<path d="M104,170.3h-0.4c-0.4,0-0.6-0.1-0.8-0.2c0,0.1,0,0.2,0,0.3c0,0.9-0.3,1.8-0.9,2.7c-0.5,0.8-1,1.1-1.3,1.1
		c-0.8,0-1.4,0-2-0.1c-0.2,0-0.3-0.1-0.3-0.1s0.1-0.1,0.3-0.1c0.8-0.2,1.6-0.6,2.4-1.2c0.8-0.7,1.3-1.4,1.3-2.1c0-0.4-0.3-1-1-1.7
		l0.5-0.9c0-0.1,0.1-0.1,0.1-0.1c0,0,0.1,0.1,0.1,0.1c0.3,0.4,0.5,0.7,0.7,0.8c0.3,0.2,0.7,0.4,1.1,0.4h0.3V170.3z" id="PATH_86" class="area" title=""></path>
	<path d="M107.8,167.5v0.4c0,0.7-0.1,1.1-0.3,1.4c-0.5,0.7-1.3,1-2.6,1h-1.4v-1.2h1c1.7,0,2.6-0.3,2.8-0.8c0-0.1,0-0.1,0-0.2
		c0-0.2,0-0.3-0.1-0.4c-0.4,0.1-0.9,0.1-1.3,0.1c-0.9,0-1.4-0.4-1.4-1.2c0-0.5,0.1-1.1,0.4-1.6c0.3-0.6,0.7-0.9,1.2-0.9
		c0.4,0,0.8,0.3,1.1,0.8C107.7,165.7,107.8,166.5,107.8,167.5z M106.7,162l-0.8,0.8l-0.8-0.8l0.8-0.8L106.7,162z M107.1,166.6
		c0-0.3-0.1-0.6-0.3-0.9c-0.2-0.3-0.5-0.4-0.8-0.4c-0.2,0-0.4,0.1-0.6,0.2c-0.1,0.1-0.2,0.3-0.2,0.5c0,0.4,0.3,0.6,1,0.6
		C106.4,166.8,106.7,166.7,107.1,166.6z" id="PATH_87" class="area" title=""></path>
</g>
<g id="G_88" class="area" title="">
	<path d="M95.3,244.2c0.1,0.3,0.1,0.6,0.1,0.9c0,0.4-0.1,0.7-0.2,1.1c-0.3,0.7-0.8,1.3-1.8,1.7c-0.8,0.3-1.6,0.5-2.5,0.5
		c-0.9,0-1.6-0.2-2.2-0.6c-0.6-0.5-0.9-1.1-0.9-2c0-0.5,0.1-0.9,0.3-1.5c0.2-0.4,0.3-0.7,0.5-0.9c0.1-0.1,0.2-0.1,0.2-0.1
		c0.1,0,0.1,0,0.1,0.1c0,0,0,0.1,0,0.2c-0.3,0.6-0.4,1.2-0.4,1.7c0,0.5,0.2,0.9,0.5,1.3c0.4,0.5,1.1,0.7,2,0.7c1,0,1.9-0.2,2.6-0.5
		c0.6-0.3,1-0.6,1.2-1c0.1-0.1,0.1-0.3,0.1-0.4c0-0.3-0.1-0.6-0.2-1c-0.1-0.3-0.4-0.8-0.9-1.6l0.4-0.8c0.1-0.1,0.1-0.2,0.1-0.2
		s0.1,0,0.1,0.1C94.9,242.6,95.2,243.4,95.3,244.2z M92.4,239.9l-0.8,0.8l-0.8-0.8l0.8-0.8L92.4,239.9z" id="PATH_89" class="area" title=""></path>
	<path d="M103.2,244.3h-0.4c-0.4,0-0.7-0.1-1-0.4c-0.2-0.2-0.4-0.4-0.6-0.8c-0.2,0.4-0.5,0.7-0.8,0.9c-0.4,0.2-0.9,0.3-1.7,0.3
		c-1.4,0-2.1-0.5-2.1-1.5c0-0.3,0.1-0.7,0.3-1c0.1-0.1,0.1-0.2,0.2-0.2c0.1,0,0.1,0.1,0.1,0.2c0,0.1,0,0.1,0,0.3s0,0.2,0,0.3
		c0,0.6,0.5,0.9,1.5,0.9c1.4,0,2.1-0.3,2.1-0.8c0-0.3-0.4-1.4-1.2-3.3l0.4-0.8c0.1-0.1,0.1-0.2,0.1-0.2c0,0,0.1,0.1,0.1,0.2
		c0.3,0.8,0.8,2,1.4,3.6c0.3,0.8,0.7,1.2,1.3,1.2h0.3V244.3z" id="PATH_90" class="area" title=""></path>
	<path d="M105.6,242.3c0,1.3-0.7,2-2,2h-0.8v-1.2h0.7c1,0,1.5-0.2,1.5-0.5c0-0.3-0.2-0.7-0.7-1.2l0.4-1c0-0.1,0.1-0.1,0.1-0.1
		c0,0,0.1,0.1,0.2,0.2C105.4,241.1,105.6,241.7,105.6,242.3z M104.8,246.5l-0.8,0.8l-0.8-0.8l0.8-0.8L104.8,246.5z M106.5,246.5
		l-0.8,0.8l-0.8-0.8l0.8-0.8L106.5,246.5z" id="PATH_91" class="area" title=""></path>
	<path d="M112.8,244.3h-0.4c-0.4,0-0.6-0.1-0.8-0.2c0,0.1,0,0.2,0,0.3c0,0.9-0.3,1.8-0.9,2.7c-0.5,0.8-1,1.1-1.3,1.1
		c-0.8,0-1.4,0-2-0.1c-0.2,0-0.3-0.1-0.3-0.1s0.1-0.1,0.3-0.1c0.8-0.2,1.6-0.6,2.4-1.2c0.8-0.7,1.3-1.4,1.3-2.1c0-0.4-0.3-1-1-1.7
		l0.5-0.9c0-0.1,0.1-0.1,0.1-0.1c0,0,0.1,0.1,0.1,0.1c0.3,0.4,0.5,0.7,0.7,0.8c0.3,0.2,0.7,0.4,1.1,0.4h0.3V244.3z" id="PATH_92" class="area" title=""></path>
	<path d="M116.7,241.5v0.4c0,0.7-0.1,1.1-0.3,1.4c-0.5,0.7-1.3,1-2.6,1h-1.4v-1.2h1c1.7,0,2.6-0.3,2.8-0.8c0-0.1,0-0.1,0-0.2
		c0-0.2,0-0.3-0.1-0.4c-0.4,0.1-0.9,0.1-1.3,0.1c-0.9,0-1.4-0.4-1.4-1.2c0-0.5,0.1-1.1,0.4-1.6c0.3-0.6,0.7-0.9,1.2-0.9
		c0.4,0,0.8,0.3,1.1,0.8C116.5,239.7,116.7,240.5,116.7,241.5z M115.5,236l-0.8,0.8l-0.8-0.8l0.8-0.8L115.5,236z M115.9,240.6
		c0-0.3-0.1-0.6-0.3-0.9c-0.2-0.3-0.5-0.4-0.8-0.4c-0.2,0-0.4,0.1-0.6,0.2c-0.1,0.1-0.2,0.3-0.2,0.5c0,0.4,0.3,0.6,1,0.6
		C115.3,240.8,115.6,240.7,115.9,240.6z" id="PATH_93" class="area" title=""></path>
</g>
<g id="G_94" class="area" title="">
	<path d="M128.7,259.2c0.1,0.3,0.1,0.6,0.1,0.9c0,0.4-0.1,0.7-0.2,1.1c-0.3,0.7-0.8,1.3-1.8,1.7c-0.8,0.3-1.6,0.5-2.5,0.5
		c-0.9,0-1.6-0.2-2.2-0.6c-0.6-0.5-0.9-1.1-0.9-2c0-0.5,0.1-0.9,0.3-1.5c0.2-0.4,0.3-0.7,0.5-0.9c0.1-0.1,0.2-0.1,0.2-0.1
		c0.1,0,0.1,0,0.1,0.1c0,0,0,0.1,0,0.2c-0.3,0.6-0.4,1.2-0.4,1.7c0,0.5,0.2,0.9,0.5,1.3c0.4,0.5,1.1,0.7,2,0.7c1,0,1.9-0.2,2.6-0.5
		c0.6-0.3,1-0.6,1.2-1c0.1-0.1,0.1-0.3,0.1-0.4c0-0.3-0.1-0.6-0.2-1c-0.1-0.3-0.4-0.8-0.9-1.6l0.4-0.8c0.1-0.1,0.1-0.2,0.1-0.2
		s0.1,0,0.1,0.1C128.3,257.6,128.6,258.4,128.7,259.2z M125.8,254.9l-0.8,0.8l-0.8-0.8l0.8-0.8L125.8,254.9z" id="PATH_95" class="area" title=""></path>
	<path d="M132.8,259.3h-0.7c-0.7,0-1.3-0.3-1.5-0.9c-0.2-0.4-0.3-1.1-0.3-1.9v-1.9c0-0.9-0.1-2.2-0.2-3.9l0.6-0.7
		c0.1-0.1,0.2-0.1,0.2,0c0.1,0.9,0.2,2.2,0.2,3.9v2.9c0,0.8,0.4,1.2,1.2,1.2h0.5V259.3z" id="PATH_96" class="area" title=""></path>
	<path d="M138.8,251.2c0,0.2-0.1,0.5-0.3,1.1c-1.2,0.3-2.7,0.8-4.4,1.3c1.2,1.2,1.9,2.2,2,2.9c0.1,0.5,0,1-0.2,1.5
		c-0.2,0.5-0.6,0.8-1.1,1c-0.4,0.2-1.1,0.2-2,0.2h-0.4v-1.2h0.3c1.9,0,2.9-0.3,2.9-1c0-0.5-0.5-1.3-1.6-2.3l-0.1,0.3
		c-0.1-0.1-0.3-0.3-0.5-0.6c-0.3-0.3-0.4-0.5-0.4-0.6c0-0.3,0.1-0.6,0.4-0.9c0.1-0.1,0.7-0.3,2-0.7
		C136.6,251.8,137.8,251.5,138.8,251.2z M138.6,249.7l-0.2,0.7l-4.9,1.6l0.2-0.7L138.6,249.7z" id="PATH_97" class="area" title=""></path>
	<path d="M144.6,257.2c0,1.4-0.9,2.1-2.8,2.1c-0.7,0-1.2-0.1-1.5-0.3c-0.4-0.2-0.6-0.7-0.6-1.3c0-0.3,0.1-0.6,0.2-0.9
		c0.1-0.1,0.1-0.2,0.2-0.2c0.1,0,0.1,0.1,0.1,0.3c0,0.1,0,0.2,0,0.3c0,0.4,0.2,0.7,0.6,0.8c0.2,0.1,0.6,0.1,1.1,0.1
		c1.5,0,2.2-0.2,2.2-0.7c0-0.7-0.9-1.7-2.6-2.9l0.3-1c0-0.1,0.1-0.1,0.1-0.1c0,0,0.1,0,0.2,0.1C143.8,254.9,144.6,256.1,144.6,257.2
		z" id="PATH_98" class="area" title=""></path>
	<path d="M148.6,259.3h-0.7c-0.7,0-1.3-0.3-1.5-0.9c-0.2-0.4-0.3-1.1-0.3-1.9v-1.9c0-0.9-0.1-2.2-0.2-3.9l0.6-0.7
		c0.1-0.1,0.2-0.1,0.2,0c0.1,0.9,0.2,2.2,0.2,3.9v2.9c0,0.8,0.4,1.2,1.2,1.2h0.5V259.3z" id="PATH_99" class="area" title=""></path>
	<path d="M156.4,256.4l-0.4,0.8c-0.7,0-1.3,0-1.6,0.1c-0.4,0.2-1,0.4-1.8,0.8c-0.8,0.4-1.4,0.7-1.8,0.8c-0.6,0.2-1.3,0.3-1.9,0.3
		h-0.7v-1.2h0.8c0.9,0,1.7-0.2,2.4-0.5l2.3-1c-0.4-0.1-1-0.3-1.8-0.6c-0.7-0.3-1.1-0.4-1.3-0.4c-0.4,0-0.8,0.2-1.2,0.5
		c-0.1,0.1-0.1,0.1-0.2,0.1c-0.1,0-0.1,0-0.1-0.1c0,0,0-0.1,0-0.1c0.3-1,0.9-1.4,1.7-1.4c0.3,0,0.7,0.1,1.1,0.3
		c0.8,0.4,1.4,0.6,1.8,0.8c0.7,0.2,1.5,0.4,2.4,0.4c0.2,0,0.3,0,0.3,0.1C156.5,256.2,156.5,256.3,156.4,256.4z M150.9,261.2l0.7-0.7
		l0.7,0.7l-0.7,0.7L150.9,261.2z M151.8,262.8l0.7-0.7l0.7,0.7l-0.7,0.7L151.8,262.8z M152.7,261.2l0.7-0.7l0.7,0.7l-0.7,0.7
		L152.7,261.2z" id="PATH_100" class="area" title=""></path>
</g>
<g id="G_101" class="area" title="">
	<path d="M156.8,281.2c0.1,0.3,0.1,0.6,0.1,0.9c0,0.4-0.1,0.7-0.2,1.1c-0.3,0.7-0.8,1.3-1.8,1.7c-0.8,0.3-1.6,0.5-2.5,0.5
		c-0.9,0-1.6-0.2-2.2-0.6c-0.6-0.5-0.9-1.1-0.9-2c0-0.5,0.1-0.9,0.3-1.5c0.2-0.4,0.3-0.7,0.5-0.9c0.1-0.1,0.2-0.1,0.2-0.1
		c0.1,0,0.1,0,0.1,0.1c0,0,0,0.1,0,0.2c-0.3,0.6-0.4,1.2-0.4,1.7c0,0.5,0.2,0.9,0.5,1.3c0.4,0.5,1.1,0.7,2,0.7c1,0,1.9-0.2,2.6-0.5
		c0.6-0.3,1-0.6,1.2-1c0.1-0.1,0.1-0.3,0.1-0.4c0-0.3-0.1-0.6-0.2-1c-0.1-0.3-0.4-0.8-0.9-1.6l0.4-0.8c0.1-0.1,0.1-0.2,0.1-0.2
		s0.1,0,0.1,0.1C156.4,279.6,156.7,280.4,156.8,281.2z M153.9,276.9l-0.8,0.8l-0.8-0.8l0.8-0.8L153.9,276.9z" id="PATH_102" class="area" title=""></path>
	<path d="M159.3,280.1c0,0.4-0.1,0.8-0.3,1.1c-0.1,0.2-0.2,0.3-0.2,0.3c0,0-0.1-0.1-0.1-0.4c0-1.2-0.2-4-0.6-8.5l0.8-0.8
		c0.1-0.1,0.1-0.1,0.1-0.1c0,0,0,0.1,0,0.2C159.2,273.3,159.3,276,159.3,280.1z" id="PATH_103" class="area" title=""></path>
	<path d="M165.5,281.3h-0.4c-0.4,0-0.6-0.1-0.8-0.2c0,0.1,0,0.2,0,0.3c0,0.9-0.3,1.8-0.9,2.7c-0.5,0.8-1,1.1-1.3,1.1
		c-0.8,0-1.4,0-2-0.1c-0.2,0-0.3-0.1-0.3-0.1s0.1-0.1,0.3-0.1c0.8-0.2,1.6-0.6,2.4-1.2c0.8-0.7,1.3-1.4,1.3-2.1c0-0.4-0.3-1-1-1.7
		l0.5-0.9c0-0.1,0.1-0.1,0.1-0.1c0,0,0.1,0.1,0.1,0.1c0.3,0.4,0.5,0.7,0.7,0.8c0.3,0.2,0.7,0.4,1.1,0.4h0.3V281.3z" id="PATH_104" class="area" title=""></path>
	<path d="M170.4,281.3h-0.8c-0.9,0-1.5-0.3-1.9-0.9c-0.3,0.6-1,0.9-2.1,0.9h-0.6v-1.2h0.9c1,0,1.5-0.4,1.6-1.1
		c0-0.3,0.1-0.5,0.2-0.5c0.1,0,0.2,0.2,0.2,0.5c0.1,0.7,0.6,1.1,1.5,1.1h0.9V281.3z M167.1,283.5l-0.8,0.8l-0.8-0.8l0.8-0.8
		L167.1,283.5z M168.8,283.5l-0.8,0.8l-0.8-0.8l0.8-0.8L168.8,283.5z" id="PATH_105" class="area" title=""></path>
	<path d="M172.8,279.3c0,1.3-0.7,2-2,2H170v-1.2h0.7c1,0,1.5-0.2,1.5-0.5c0-0.3-0.2-0.7-0.7-1.2l0.4-1c0-0.1,0.1-0.1,0.1-0.1
		c0,0,0.1,0.1,0.2,0.2C172.6,278.1,172.8,278.7,172.8,279.3z M171.9,275l-0.8,0.8l-0.8-0.8l0.8-0.8L171.9,275z M173.6,275l-0.8,0.8
		L172,275l0.8-0.8L173.6,275z" id="PATH_106" class="area" title=""></path>
</g>
<g id="G_107" class="area" title="">
	<path d="M194.4,288.9c0.1,0.3,0.1,0.6,0.1,0.9c0,0.4-0.1,0.7-0.2,1.1c-0.3,0.7-0.8,1.3-1.8,1.7c-0.8,0.3-1.6,0.5-2.5,0.5
		c-0.9,0-1.6-0.2-2.2-0.6c-0.6-0.5-0.9-1.1-0.9-2c0-0.5,0.1-0.9,0.3-1.5c0.2-0.4,0.3-0.7,0.5-0.9c0.1-0.1,0.2-0.1,0.2-0.1
		c0.1,0,0.1,0,0.1,0.1c0,0,0,0.1,0,0.2c-0.3,0.6-0.4,1.2-0.4,1.7c0,0.5,0.2,0.9,0.5,1.3c0.4,0.5,1.1,0.7,2,0.7c1,0,1.9-0.2,2.6-0.5
		c0.6-0.3,1-0.6,1.2-1c0.1-0.1,0.1-0.3,0.1-0.4c0-0.3-0.1-0.6-0.2-1c-0.1-0.3-0.4-0.8-0.9-1.6l0.4-0.8c0.1-0.1,0.1-0.2,0.1-0.2
		s0.1,0,0.1,0.1C194,287.3,194.3,288.1,194.4,288.9z M191.5,284.6l-0.8,0.8l-0.8-0.8l0.8-0.8L191.5,284.6z" id="PATH_108" class="area" title=""></path>
	<path d="M198.5,289h-0.7c-0.7,0-1.3-0.3-1.5-0.9c-0.2-0.4-0.3-1.1-0.3-1.9v-1.9c0-0.9-0.1-2.2-0.2-3.9l0.6-0.7
		c0.1-0.1,0.2-0.1,0.2,0c0.1,0.9,0.2,2.2,0.2,3.9v2.9c0,0.8,0.4,1.2,1.2,1.2h0.5V289z" id="PATH_109" class="area" title=""></path>
	<path d="M207.3,289h-1c-1.3,0-2-0.7-2-2c0-0.2,0-0.3,0-0.5c-0.5,0.2-1.1,0.6-1.9,1.1c-0.8,0.5-1.3,0.8-1.7,1
		c-0.6,0.3-1.3,0.4-1.9,0.4h-0.7v-1.2h0.8c0.8,0,1.7-0.2,2.5-0.6c0.4-0.2,1.1-0.6,2.2-1.1c-0.2,0-0.8-0.2-1.8-0.4
		c-0.7-0.2-1.1-0.3-1.2-0.3c-0.4,0-0.8,0.2-1.2,0.5c-0.1,0.1-0.1,0.1-0.2,0.1c-0.1,0-0.1,0-0.1-0.1c0,0,0-0.1,0-0.1
		c0.3-1,0.9-1.5,1.7-1.5c0.3,0,0.7,0.1,1.2,0.2c0.7,0.2,1.3,0.4,1.8,0.5c0.7,0.1,1.5,0.2,2.4,0.2c0.2,0,0.2,0,0.3,0c0,0,0,0.1,0,0.2
		l-0.3,0.9c-0.6,0-1,0-1.2,0.1c0,0.5,0.1,0.8,0.2,0.9c0.2,0.3,0.6,0.5,1.3,0.5h1V289z M203.5,291.1l-0.8,0.8l-0.8-0.8l0.8-0.8
		L203.5,291.1z" id="PATH_110" class="area" title=""></path>
	<path d="M212.2,289h-0.8c-0.9,0-1.5-0.3-1.9-0.9c-0.3,0.6-1,0.9-2.1,0.9h-0.6v-1.2h0.9c1,0,1.5-0.4,1.6-1.1c0-0.3,0.1-0.5,0.2-0.5
		c0.1,0,0.2,0.2,0.2,0.5c0.1,0.7,0.6,1.1,1.5,1.1h0.9V289z M210.2,283.9l-0.8,0.8l-0.8-0.8l0.8-0.8L210.2,283.9z" id="PATH_111" class="area" title=""></path>
	<path d="M214.5,281.1c0.1,0.1,0.1,0.2,0.1,0.2c0,0-0.1,0-0.2,0H214c0.1,1.3,0.1,3.2,0.1,5.7c0,0.6-0.1,1.1-0.4,1.4
		c-0.3,0.4-0.8,0.6-1.3,0.6h-0.6v-1.2h0.5c0.8,0,1.2-0.3,1.1-0.9c-0.1-2.1-0.2-4.3-0.3-6.5l0.7-0.6c0.1-0.1,0.2-0.2,0.2-0.2
		c0,0,0,0.1,0.1,0.2C214.1,280.2,214.2,280.6,214.5,281.1z" id="PATH_112" class="area" title=""></path>
</g>
<g id="G_113" class="area" title="">
	<path d="M197.4,312.6h-0.7c-0.9,0-1.4-0.5-1.6-1.6c-0.5,0.5-0.7,0.7-0.8,0.7h-0.9c-0.3,0-0.6,0-0.9-0.1c-0.4-0.1-0.6-0.3-0.6-0.5
		c0-0.8,0.3-1.4,0.8-1.8c0.4-0.3,1-0.6,1.8-1l-0.2-1l0.7-0.8c0,0.1,0.3,1.2,0.7,3.3c0.1,0.6,0.3,1.1,0.4,1.3
		c0.2,0.3,0.4,0.4,0.8,0.4h0.7V312.6z M194.9,310.5l-0.3-1.6c-0.3,0.1-0.7,0.3-1.2,0.5c-0.6,0.3-1,0.6-1,0.7c0,0.2,0.2,0.3,0.7,0.4
		c0.3,0.1,0.6,0.1,0.9,0.1C194.3,310.6,194.6,310.6,194.9,310.5z" id="PATH_114" class="area" title=""></path>
	<path d="M203.5,303.3c0,0.2-0.2,0.6-0.4,1.1l-2.5,0.8c-1.1,0.4-1.9,0.7-2.3,0.9c0.8,0.8,1.3,1.4,1.6,1.7c0.5,0.7,0.8,1.3,0.9,2
		c0,0.5,0,1-0.2,1.4c-0.3,0.9-1.4,1.3-3.1,1.3h-0.5v-1.2h0.6c0.8,0,1.4,0,1.7-0.1c0.7-0.2,1.1-0.5,1.1-1c0-0.7-0.5-1.5-1.6-2.5
		l-0.1,0.2c-0.1-0.1-0.3-0.3-0.5-0.6c-0.3-0.3-0.4-0.6-0.4-0.6c0-0.2,0-0.4,0.1-0.8c0.1-0.4,0.2-0.6,0.3-0.7
		c0.1-0.1,0.8-0.4,2.1-0.8C201.5,304,202.6,303.6,203.5,303.3z" id="PATH_115" class="area" title=""></path>
	<path d="M208.2,312.7c0,1-0.3,1.9-0.9,2.8c-0.5,0.7-1,1.1-1.3,1.1c-0.8,0-1.4,0-2-0.1c-0.2,0-0.3-0.1-0.3-0.1s0.1-0.1,0.3-0.1
		c0.8-0.2,1.6-0.6,2.4-1.2c0.8-0.7,1.3-1.4,1.3-2.1c0-0.4-0.3-1-1-1.7l0.5-0.9c0-0.1,0.1-0.1,0.1-0.1c0,0,0.1,0.1,0.1,0.1
		c0.2,0.3,0.5,0.7,0.6,1.2C208.1,311.9,208.2,312.3,208.2,312.7z" id="PATH_116" class="area" title=""></path>
	<path d="M212.1,312.6h-0.7c-0.7,0-1.3-0.3-1.5-0.9c-0.2-0.4-0.3-1.1-0.3-1.9v-1.9c0-0.9-0.1-2.2-0.2-3.9l0.6-0.7
		c0.1-0.1,0.2-0.1,0.2,0c0.1,0.9,0.2,2.2,0.2,3.9v2.9c0,0.8,0.4,1.2,1.2,1.2h0.5V312.6z" id="PATH_117" class="area" title=""></path>
	<path d="M217.1,312.6h-0.8c-0.9,0-1.5-0.3-1.9-0.9c-0.3,0.6-1,0.9-2.1,0.9h-0.6v-1.2h0.9c1,0,1.5-0.4,1.6-1.1
		c0-0.3,0.1-0.5,0.2-0.5c0.1,0,0.2,0.2,0.2,0.5c0.1,0.7,0.6,1.1,1.5,1.1h0.9V312.6z M214.9,314.8l-0.8,0.8l-0.8-0.8l0.8-0.8
		L214.9,314.8z" id="PATH_118" class="area" title=""></path>
	<path d="M222,310.6c0,0.5,0,0.9-0.2,1.3c-0.2,0.5-0.5,0.8-0.8,0.8c-0.5,0-1.3-0.3-2.3-1c-0.3,0.4-0.5,0.6-0.6,0.7
		c-0.3,0.2-0.6,0.3-1,0.3h-0.5v-1.2h0.7c0.4,0,0.8-0.2,1.2-0.7c0.2-0.2,0.5-0.7,0.9-1.3c0.3-0.5,0.7-0.7,1-0.7
		c0.5,0,0.9,0.2,1.2,0.7C221.9,309.9,222,310.2,222,310.6z M221.4,311.3c0-0.3-0.1-0.6-0.3-1c-0.2-0.4-0.5-0.6-0.8-0.6
		c-0.3,0-0.6,0.3-1,0.9c0.2,0.2,0.5,0.4,0.9,0.6c0.4,0.2,0.8,0.3,1,0.3C221.4,311.6,221.4,311.5,221.4,311.3z" id="PATH_119" class="area" title=""></path>
</g>
<g id="G_120" class="area" title="">
	<path d="M205.8,338.2c0.1,0.3,0.1,0.6,0.1,0.9c0,0.4-0.1,0.7-0.2,1.1c-0.3,0.7-0.8,1.3-1.8,1.7c-0.8,0.3-1.6,0.5-2.5,0.5
		c-0.9,0-1.6-0.2-2.2-0.6c-0.6-0.5-0.9-1.1-0.9-2c0-0.5,0.1-0.9,0.3-1.5c0.2-0.4,0.3-0.7,0.5-0.9c0.1-0.1,0.2-0.1,0.2-0.1
		c0.1,0,0.1,0,0.1,0.1c0,0,0,0.1,0,0.2c-0.3,0.6-0.4,1.2-0.4,1.7c0,0.5,0.2,0.9,0.5,1.3c0.4,0.5,1.1,0.7,2,0.7c1,0,1.9-0.2,2.6-0.5
		c0.6-0.3,1-0.6,1.2-1c0.1-0.1,0.1-0.3,0.1-0.4c0-0.3-0.1-0.6-0.2-1c-0.1-0.3-0.4-0.8-0.9-1.6l0.4-0.8c0.1-0.1,0.1-0.2,0.1-0.2
		s0.1,0,0.1,0.1C205.4,336.6,205.7,337.4,205.8,338.2z M202.9,333.9l-0.8,0.8l-0.8-0.8l0.8-0.8L202.9,333.9z" id="PATH_121" class="area" title=""></path>
	<path d="M209.9,338.3h-0.7c-0.7,0-1.3-0.3-1.5-0.9c-0.2-0.4-0.3-1.1-0.3-1.9v-1.9c0-0.9-0.1-2.2-0.2-3.9l0.6-0.7
		c0.1-0.1,0.2-0.1,0.2,0c0.1,0.9,0.2,2.2,0.2,3.9v2.9c0,0.8,0.4,1.2,1.2,1.2h0.5V338.3z" id="PATH_122" class="area" title=""></path>
	<path d="M215.3,338.3h-0.5c-0.3,0-0.7-0.1-1.2-0.2c-0.5-0.1-0.8-0.3-1.1-0.5c-0.6,0.4-1.4,0.6-2.4,0.6h-0.7v-1.2h0.5
		c0.8,0,1.3-0.1,1.5-0.2c-0.4-0.3-0.6-0.7-0.6-1.1c0-0.4,0.2-0.9,0.5-1.5c0.4-0.6,0.8-1,1.3-1c0.5,0,0.8,0.3,1.1,0.8
		c0.2,0.4,0.3,0.9,0.3,1.4c0,0.6-0.2,1-0.7,1.4c0.3,0.1,0.7,0.2,1.4,0.2h0.4V338.3z M212.4,330.9l-0.8,0.8l-0.8-0.8l0.8-0.8
		L212.4,330.9z M213.6,335.8c0-0.2-0.1-0.5-0.3-0.8s-0.4-0.4-0.6-0.4c-0.2,0-0.4,0.1-0.7,0.3c-0.3,0.2-0.4,0.5-0.4,0.7
		c0,0.2,0.1,0.5,0.4,0.7c0.2,0.2,0.5,0.3,0.7,0.4c0.2,0,0.4-0.1,0.6-0.3C213.5,336.2,213.6,336,213.6,335.8z M214.1,330.9l-0.8,0.8
		l-0.8-0.8l0.8-0.8L214.1,330.9z" id="PATH_123" class="area" title=""></path>
	<path d="M221.4,336.3c0,0.4-0.1,0.8-0.4,1.2c-0.3,0.5-0.6,0.7-1,0.7c-0.3,0-1-0.2-2.1-0.7c-0.9,0.6-1.7,0.8-2.4,0.8h-0.5v-1.2h0.6
		c0.4,0,0.8,0,1.2-0.1c-0.4-0.3-0.6-0.7-0.6-1.2c0-0.6,0.4-1.3,1.3-2l-0.7-0.3c0.2-0.2,0.5-0.5,0.9-0.9c0.9,0.5,1.7,0.9,2.4,1.5
		C220.9,334.9,221.4,335.6,221.4,336.3z M218.8,335.5c0-0.3-0.1-0.5-0.2-0.7c-0.1-0.3-0.3-0.4-0.6-0.4c-0.3,0-0.5,0.1-0.8,0.3
		c-0.3,0.2-0.5,0.5-0.5,0.7c0,0.4,0.4,0.8,1.1,1c0.2-0.1,0.4-0.2,0.6-0.3C218.7,335.9,218.8,335.7,218.8,335.5z M220.9,336.7
		c0-0.3-0.2-0.6-0.6-1c-0.3-0.3-0.6-0.6-0.9-0.7c0,0.8-0.2,1.4-0.7,1.8c0.8,0.3,1.4,0.4,1.6,0.4C220.7,337.2,220.9,337,220.9,336.7z
		" id="PATH_124" class="area" title=""></path>
	<path d="M227.5,336.2c0,1.4-0.9,2.1-2.8,2.1c-0.7,0-1.2-0.1-1.5-0.3c-0.4-0.2-0.6-0.7-0.6-1.3c0-0.3,0.1-0.6,0.2-0.9
		c0.1-0.1,0.1-0.2,0.2-0.2c0.1,0,0.1,0.1,0.1,0.3c0,0.1,0,0.2,0,0.3c0,0.4,0.2,0.7,0.6,0.8c0.2,0.1,0.6,0.1,1.1,0.1
		c1.5,0,2.2-0.2,2.2-0.7c0-0.7-0.9-1.7-2.6-2.9l0.3-1c0-0.1,0.1-0.1,0.1-0.1c0,0,0.1,0,0.2,0.1C226.7,333.9,227.5,335.1,227.5,336.2
		z" id="PATH_125" class="area" title=""></path>
</g>
<g id="G_126" class="area" title="">
	<path d="M282.8,375c0,0.2-0.1,0.4-0.3,0.8c-0.2,0.4-0.4,0.6-0.5,0.6c-0.3,0-0.7-0.1-1.2-0.2c-0.5-0.1-0.9-0.2-1.2-0.2
		c-0.5,0-0.9,0.1-1.1,0.2c0.2,1.7,0.3,3,0.3,3.8c0,0.4-0.1,0.8-0.4,1.3c-0.1,0.1-0.1,0.2-0.1,0.2c0,0,0,0,0-0.1
		c-0.1-1.6-0.2-3.2-0.4-4.8c0-0.2,0.1-0.4,0.3-0.7c0.2-0.2,0.3-0.4,0.5-0.5c0.2-0.2,0.5-0.2,0.8-0.2c-0.1-0.3-0.1-0.5-0.1-0.7
		c0-0.3,0.1-0.7,0.4-1.1c0.3-0.4,0.6-0.6,1-0.6c0.5,0,1,0.3,1.5,0.8S282.8,374.6,282.8,375z M282,375.4c-0.1-0.3-0.4-0.7-0.7-1
		c-0.4-0.4-0.7-0.5-1.1-0.5c-0.5,0-0.7,0.2-0.7,0.5c0,0.2,0.1,0.4,0.2,0.8C280.3,375.1,281.1,375.2,282,375.4z" id="PATH_127" class="area" title=""></path>
	<path d="M289,377h-0.4c-0.4,0-0.6-0.1-0.8-0.2c0,0.1,0,0.2,0,0.3c0,0.9-0.3,1.8-0.9,2.7c-0.5,0.8-1,1.1-1.3,1.1c-0.8,0-1.4,0-2-0.1
		c-0.2,0-0.3-0.1-0.3-0.1s0.1-0.1,0.3-0.1c0.8-0.2,1.6-0.6,2.4-1.2c0.8-0.7,1.3-1.4,1.3-2.1c0-0.4-0.3-1-1-1.7l0.5-0.9
		c0-0.1,0.1-0.1,0.1-0.1c0,0,0.1,0.1,0.1,0.1c0.3,0.4,0.5,0.7,0.7,0.8c0.3,0.2,0.7,0.4,1.1,0.4h0.3V377z" id="PATH_128" class="area" title=""></path>
	<path d="M293.9,377h-0.8c-0.9,0-1.5-0.3-1.9-0.9c-0.3,0.6-1,0.9-2.1,0.9h-0.6v-1.2h0.9c1,0,1.5-0.4,1.6-1.1c0-0.3,0.1-0.5,0.2-0.5
		c0.1,0,0.2,0.2,0.2,0.5c0.1,0.7,0.6,1.1,1.5,1.1h0.9V377z M290.6,379.2l-0.8,0.8l-0.8-0.8l0.8-0.8L290.6,379.2z M292.3,379.2
		l-0.8,0.8l-0.8-0.8l0.8-0.8L292.3,379.2z" id="PATH_129" class="area" title=""></path>
	<path d="M301.1,377h-0.6c-0.5,0-1-0.3-1.4-0.8c-0.3,0.8-0.6,1.2-0.9,1.2c-0.3,0-0.8-0.2-1.4-0.5c-0.5-0.3-0.9-0.6-1.1-0.8
		c-0.5,0.6-1,0.9-1.5,0.9h-0.6v-1.2h0.6c0.5,0,0.9-0.2,1.3-0.6c0.3-0.3,0.6-0.7,1-1.1c0.4-0.4,0.7-0.6,1-0.6c0.4,0,0.7,0.2,1,0.6
		c0.2,0.2,0.4,0.6,0.9,1.1c0.3,0.4,0.7,0.6,1.1,0.6h0.6V377z M298.4,376.2c0-0.3-0.1-0.6-0.3-1c-0.2-0.4-0.5-0.6-0.9-0.6
		c-0.3,0-0.7,0.3-1.1,0.8c0.1,0.1,0.4,0.3,0.9,0.6c0.5,0.3,0.9,0.4,1.2,0.4C298.3,376.3,298.4,376.3,298.4,376.2z" id="PATH_130" class="area" title=""></path>
	<path d="M309,374.9c0,0.6-0.1,1.1-0.4,1.5c-0.3,0.4-0.8,0.7-1.3,0.7c-0.7,0-1.1-0.3-1.4-0.8c-0.4,0.6-0.8,0.8-1.4,0.8
		c-0.7,0-1.2-0.3-1.5-0.8c-0.4,0.6-0.9,0.8-1.6,0.8h-0.7v-1.2h0.8c0.7,0,1.2-0.4,1.3-1.2c0-0.2,0.1-0.3,0.2-0.3
		c0.1,0,0.1,0.1,0.2,0.3c0.1,0.8,0.5,1.2,1.3,1.2c0.4,0,0.8-0.1,1-0.3c0.1-0.2,0.2-0.4,0.3-0.8c0-0.2,0.1-0.3,0.2-0.3
		c0.1,0,0.1,0.1,0.2,0.3c0.1,0.8,0.5,1.2,1.2,1.2c0.8,0,1.1-0.2,1.1-0.5c0-0.3-0.2-0.7-0.6-1.1l0.5-0.9c0.1-0.1,0.1-0.2,0.2-0.2
		s0.1,0.1,0.2,0.2C308.8,373.9,309,374.4,309,374.9z" id="PATH_131" class="area" title=""></path>
</g>
<g id="G_132" class="area" title="">
	<path d="M365.4,368h-0.7c-0.7,0-1.3-0.3-1.5-0.9c-0.2-0.4-0.3-1.1-0.3-1.9v-1.9c0-0.9-0.1-2.2-0.2-3.9l0.6-0.7
		c0.1-0.1,0.2-0.1,0.2,0c0.1,0.9,0.2,2.2,0.2,3.9v2.9c0,0.8,0.4,1.2,1.2,1.2h0.5V368z" id="PATH_133" class="area" title=""></path>
	<path d="M374.1,365.3c0,1-0.6,1.7-1.8,2.2c-0.8,0.3-1.8,0.5-3,0.5c-0.7,0-1.2,0-1.5-0.1c-0.5-0.1-0.8-0.4-1-0.8
		c-0.4,0.6-0.9,0.9-1.5,0.9H365v-1.2h0.4c0.8,0,1.2-0.4,1.3-1.1c0-0.2,0.1-0.3,0.2-0.3s0.2,0.1,0.2,0.3c0.1,0.7,0.4,1.1,1,1.1
		c1.9-2,3.3-3,4.4-3c0.5,0,0.9,0.1,1.2,0.4C373.9,364.5,374.1,364.9,374.1,365.3z M373.4,365.9c0-0.3-0.2-0.5-0.5-0.8
		c-0.3-0.2-0.6-0.3-0.9-0.3c-0.9,0-2,0.6-3.2,1.9c0.3,0,0.6,0,0.9,0c0.7,0,1.4-0.1,2.1-0.2C372.8,366.5,373.4,366.3,373.4,365.9z
		 M371.8,361l-0.8,0.8l-0.8-0.8l0.8-0.8L371.8,361z" id="PATH_134" class="area" title=""></path>
	<path d="M379.1,368.1c0,1-0.3,1.9-0.9,2.8c-0.5,0.7-1,1.1-1.3,1.1c-0.8,0-1.4,0-2-0.1c-0.2,0-0.3-0.1-0.3-0.1s0.1-0.1,0.3-0.1
		c0.8-0.2,1.6-0.6,2.4-1.2c0.8-0.7,1.3-1.4,1.3-2.1c0-0.4-0.3-1-1-1.7l0.5-0.9c0-0.1,0.1-0.1,0.1-0.1c0,0,0.1,0.1,0.1,0.1
		c0.2,0.3,0.5,0.7,0.6,1.2C379,367.3,379.1,367.7,379.1,368.1z" id="PATH_135" class="area" title=""></path>
	<path d="M385.4,368H385c-0.4,0-0.6-0.1-0.8-0.2c0,0.1,0,0.2,0,0.3c0,0.9-0.3,1.8-0.9,2.7c-0.5,0.8-1,1.1-1.3,1.1
		c-0.8,0-1.4,0-2-0.1c-0.2,0-0.3-0.1-0.3-0.1s0.1-0.1,0.3-0.1c0.8-0.2,1.6-0.6,2.4-1.2c0.8-0.7,1.3-1.4,1.3-2.1c0-0.4-0.3-1-1-1.7
		l0.5-0.9c0-0.1,0.1-0.1,0.1-0.1c0,0,0.1,0.1,0.1,0.1c0.3,0.4,0.5,0.7,0.7,0.8c0.3,0.2,0.7,0.4,1.1,0.4h0.3V368z" id="PATH_136" class="area" title=""></path>
	<path d="M391.6,368h-0.5c-0.4,0-0.8,0.1-1.1,0.2c-0.5,0.2-0.8,0.5-0.8,1c0,0.6,0.4,1.1,1.2,1.6l-0.5,1c-0.9-0.3-1.7-0.8-2.3-1.4
		c-0.8-0.7-1.2-1.6-1.2-2.5H385v-1.2h1.3c0-0.8,0.2-1.6,0.6-2.6c0.4-0.9,0.7-1.3,0.9-1.3c0.2,0,0.5,0.4,0.8,1.3
		c0.3,0.8,0.4,1.3,0.4,1.6c0,1.4-0.7,2.1-2.1,2.1c0.1,0.4,0.3,0.8,0.6,1.2s0.7,0.7,1.1,0.9c0-0.1,0-0.3,0-0.4c0-0.7,0.2-1.3,0.5-1.8
		c0.5-0.7,1.1-1.1,2-1.1h0.4V368z M388.6,366.4c0-0.2-0.1-0.6-0.3-1.1c-0.2-0.6-0.4-0.8-0.6-0.8c-0.1,0-0.3,0.2-0.5,0.7
		c-0.2,0.5-0.3,1.1-0.3,1.7C388,366.8,388.6,366.7,388.6,366.4z" id="PATH_137" class="area" title=""></path>
	<path d="M399.5,365.9c0,0.6-0.1,1.1-0.4,1.5c-0.3,0.4-0.8,0.7-1.3,0.7c-0.7,0-1.1-0.3-1.4-0.8c-0.4,0.6-0.8,0.8-1.4,0.8
		c-0.7,0-1.2-0.3-1.5-0.8c-0.4,0.6-0.9,0.8-1.6,0.8h-0.7v-1.2h0.8c0.7,0,1.2-0.4,1.3-1.2c0-0.2,0.1-0.3,0.2-0.3
		c0.1,0,0.1,0.1,0.2,0.3c0.1,0.8,0.5,1.2,1.3,1.2c0.4,0,0.8-0.1,1-0.3c0.1-0.2,0.2-0.4,0.3-0.8c0-0.2,0.1-0.3,0.2-0.3
		c0.1,0,0.1,0.1,0.2,0.3c0.1,0.8,0.5,1.2,1.2,1.2c0.8,0,1.1-0.2,1.1-0.5c0-0.3-0.2-0.7-0.6-1.1l0.5-0.9c0.1-0.1,0.1-0.2,0.2-0.2
		s0.1,0.1,0.2,0.2C399.3,364.9,399.5,365.4,399.5,365.9z M396.1,362.2l-0.7,0.7l-0.7-0.7l0.7-0.7L396.1,362.2z M397,360.7l-0.7,0.7
		l-0.7-0.7l0.7-0.7L397,360.7z M397.9,362.2l-0.7,0.7l-0.7-0.7l0.7-0.7L397.9,362.2z" id="PATH_138" class="area" title=""></path>
</g>
<g id="G_139" class="area" title="">
	<path d="M375.3,293.1c0.1,0.3,0.1,0.6,0.1,0.9c0,0.4-0.1,0.7-0.2,1.1c-0.3,0.7-0.8,1.3-1.8,1.7c-0.8,0.3-1.6,0.5-2.5,0.5
		c-0.9,0-1.6-0.2-2.2-0.6c-0.6-0.5-0.9-1.1-0.9-2c0-0.5,0.1-0.9,0.3-1.5c0.2-0.4,0.3-0.7,0.5-0.9c0.1-0.1,0.2-0.1,0.2-0.1
		c0.1,0,0.1,0,0.1,0.1c0,0,0,0.1,0,0.2c-0.3,0.6-0.4,1.2-0.4,1.7c0,0.5,0.2,0.9,0.5,1.3c0.4,0.5,1.1,0.7,2,0.7c1,0,1.9-0.2,2.6-0.5
		c0.6-0.3,1-0.6,1.2-1c0.1-0.1,0.1-0.3,0.1-0.4c0-0.3-0.1-0.6-0.2-1c-0.1-0.3-0.4-0.8-0.9-1.6l0.4-0.8c0.1-0.1,0.1-0.2,0.1-0.2
		s0.1,0,0.1,0.1C374.8,291.6,375.1,292.3,375.3,293.1z M372.3,288.8l-0.8,0.8l-0.8-0.8l0.8-0.8L372.3,288.8z" id="PATH_140" class="area" title=""></path>
	<path d="M379.3,293.3h-0.7c-0.7,0-1.3-0.3-1.5-0.9c-0.2-0.4-0.3-1.1-0.3-1.9v-1.9c0-0.9-0.1-2.2-0.2-3.9l0.6-0.7
		c0.1-0.1,0.2-0.1,0.2,0c0.1,0.9,0.2,2.2,0.2,3.9v2.9c0,0.8,0.4,1.2,1.2,1.2h0.5V293.3z" id="PATH_141" class="area" title=""></path>
	<path d="M385.5,293.3H385c-0.4,0-0.8,0.1-1.1,0.2c-0.5,0.2-0.8,0.5-0.8,1c0,0.6,0.4,1.1,1.2,1.6l-0.5,1c-0.9-0.3-1.7-0.8-2.3-1.4
		c-0.8-0.7-1.2-1.6-1.2-2.5h-1.4v-1.2h1.3c0-0.8,0.2-1.6,0.6-2.6c0.4-0.9,0.7-1.3,0.9-1.3c0.2,0,0.5,0.4,0.8,1.3
		c0.3,0.8,0.4,1.3,0.4,1.6c0,1.4-0.7,2.1-2.1,2.1c0.1,0.4,0.3,0.8,0.6,1.2c0.3,0.4,0.7,0.7,1.1,0.9c0-0.1,0-0.3,0-0.4
		c0-0.7,0.2-1.3,0.5-1.8c0.5-0.7,1.1-1.1,2-1.1h0.4V293.3z M382.5,291.7c0-0.2-0.1-0.6-0.3-1.1c-0.2-0.6-0.4-0.8-0.6-0.8
		c-0.1,0-0.3,0.2-0.5,0.7c-0.2,0.5-0.3,1.1-0.3,1.7C381.9,292.1,382.5,292,382.5,291.7z" id="PATH_142" class="area" title=""></path>
	<path d="M390.9,293.3h-0.5c-0.3,0-0.7-0.1-1.2-0.2c-0.5-0.1-0.9-0.3-1.1-0.5c-0.2,0.2-0.5,0.3-0.9,0.4c-0.5,0.2-1,0.2-1.5,0.2h-0.7
		v-1.2h0.5c0.8,0,1.3-0.1,1.5-0.2c-0.2-0.1-0.3-0.3-0.4-0.5c-0.1-0.2-0.2-0.4-0.2-0.6c0-0.4,0.2-0.9,0.5-1.5c0.4-0.6,0.8-1,1.3-1
		c0.5,0,0.8,0.3,1.1,0.8c0.2,0.4,0.3,0.9,0.3,1.4c0,0.3-0.1,0.7-0.3,0.9c-0.1,0.2-0.2,0.3-0.4,0.4c0.2,0.1,0.7,0.2,1.4,0.2h0.4
		V293.3z M389.2,290.7c0-0.2-0.1-0.5-0.3-0.7c-0.2-0.3-0.4-0.4-0.7-0.4c-0.2,0-0.5,0.1-0.7,0.3s-0.4,0.5-0.4,0.7
		c0,0.2,0.1,0.5,0.4,0.7c0.2,0.2,0.5,0.3,0.7,0.4c0.2,0,0.5-0.1,0.6-0.3C389.1,291.1,389.2,290.9,389.2,290.7z M388.9,285.8
		l-0.8,0.8l-0.8-0.8l0.8-0.8L388.9,285.8z" id="PATH_143" class="area" title=""></path>
	<path d="M399.6,290.6c0,1-0.6,1.7-1.8,2.2c-0.8,0.3-1.8,0.5-3,0.5c-0.7,0-1.2,0-1.5-0.1c-0.5-0.1-0.8-0.4-1-0.8
		c-0.4,0.6-0.9,0.9-1.5,0.9h-0.4v-1.2h0.4c0.8,0,1.2-0.4,1.3-1.1c0-0.2,0.1-0.3,0.2-0.3s0.2,0.1,0.2,0.3c0.1,0.7,0.4,1.1,1,1.1
		c1.9-2,3.3-3,4.4-3c0.5,0,0.9,0.1,1.2,0.4C399.5,289.8,399.6,290.2,399.6,290.6z M398.9,291.2c0-0.3-0.2-0.5-0.5-0.8
		c-0.3-0.2-0.6-0.3-0.9-0.3c-0.9,0-2,0.6-3.2,1.9c0.3,0,0.6,0,0.9,0c0.7,0,1.4-0.1,2.1-0.2C398.4,291.8,398.9,291.5,398.9,291.2z" id="PATH_144" class="area" title=""></path>
	<path d="M402,292.1c0,0.4-0.1,0.8-0.3,1.1c-0.1,0.2-0.2,0.3-0.2,0.3c0,0-0.1-0.1-0.1-0.4c0-1.2-0.2-4-0.6-8.5l0.8-0.8
		c0.1-0.1,0.1-0.1,0.1-0.1c0,0,0,0.1,0,0.2C402,285.2,402,287.9,402,292.1z" id="PATH_145" class="area" title=""></path>
</g>
<g id="G_146" class="area" title="">
	<path d="M473.2,301.5c0.1,0.3,0.1,0.6,0.1,0.9c0,0.4-0.1,0.7-0.2,1.1c-0.3,0.7-0.8,1.3-1.8,1.7c-0.8,0.3-1.6,0.5-2.5,0.5
		c-0.9,0-1.6-0.2-2.2-0.6c-0.6-0.5-0.9-1.1-0.9-2c0-0.5,0.1-0.9,0.3-1.5c0.2-0.4,0.3-0.7,0.5-0.9c0.1-0.1,0.2-0.1,0.2-0.1
		c0.1,0,0.1,0,0.1,0.1c0,0,0,0.1,0,0.2c-0.3,0.6-0.4,1.2-0.4,1.7c0,0.5,0.2,0.9,0.5,1.3c0.4,0.5,1.1,0.7,2,0.7c1,0,1.9-0.2,2.6-0.5
		c0.6-0.3,1-0.6,1.2-1c0.1-0.1,0.1-0.3,0.1-0.4c0-0.3-0.1-0.6-0.2-1c-0.1-0.3-0.4-0.8-0.9-1.6l0.4-0.8c0.1-0.1,0.1-0.2,0.1-0.2
		s0.1,0,0.1,0.1C472.7,300,473,300.7,473.2,301.5z M470.2,297.2l-0.8,0.8l-0.8-0.8l0.8-0.8L470.2,297.2z" id="PATH_147" class="area" title=""></path>
	<path d="M477.2,301.7h-0.7c-0.7,0-1.3-0.3-1.5-0.9c-0.2-0.4-0.3-1.1-0.3-1.9v-1.9c0-0.9-0.1-2.2-0.2-3.9l0.6-0.7
		c0.1-0.1,0.2-0.1,0.2,0c0.1,0.9,0.2,2.2,0.2,3.9v2.9c0,0.8,0.4,1.2,1.2,1.2h0.5V301.7z" id="PATH_148" class="area" title=""></path>
	<path d="M485,298.8l-0.4,0.8c-0.7,0-1.3,0-1.6,0.1c-0.4,0.2-1,0.4-1.8,0.8c-0.8,0.4-1.4,0.7-1.8,0.8c-0.6,0.2-1.3,0.3-1.9,0.3h-0.7
		v-1.2h0.8c0.9,0,1.7-0.2,2.4-0.5l2.3-1c-0.4-0.1-1-0.3-1.8-0.6c-0.7-0.3-1.1-0.4-1.3-0.4c-0.4,0-0.8,0.2-1.2,0.5
		c-0.1,0.1-0.1,0.1-0.2,0.1c-0.1,0-0.1,0-0.1-0.1c0,0,0-0.1,0-0.1c0.3-1,0.9-1.4,1.7-1.4c0.3,0,0.7,0.1,1.1,0.3
		c0.8,0.4,1.4,0.6,1.8,0.8c0.7,0.2,1.5,0.4,2.4,0.4c0.2,0,0.3,0,0.3,0.1C485.1,298.6,485.1,298.6,485,298.8z M481.7,303.7l-0.8,0.8
		l-0.8-0.8l0.8-0.8L481.7,303.7z" id="PATH_149" class="area" title=""></path>
	<path d="M490.2,301.8c0,1-0.3,1.9-0.9,2.8c-0.5,0.7-1,1.1-1.3,1.1c-0.8,0-1.4,0-2-0.1c-0.2,0-0.3-0.1-0.3-0.1s0.1-0.1,0.3-0.1
		c0.8-0.2,1.6-0.6,2.4-1.2c0.8-0.7,1.3-1.4,1.3-2.1c0-0.4-0.3-1-1-1.7l0.5-0.9c0-0.1,0.1-0.1,0.1-0.1c0,0,0.1,0.1,0.1,0.1
		c0.2,0.3,0.5,0.7,0.6,1.2C490.1,301,490.2,301.4,490.2,301.8z" id="PATH_150" class="area" title=""></path>
	<path d="M495.3,301.3c0,1.5-0.5,2.8-1.5,3.8c-0.3,0.3-0.5,0.5-0.6,0.5c-0.6,0-1.2-0.1-1.9-0.2c-0.3,0-0.4-0.1-0.4-0.1
		c0,0,0.1-0.1,0.4-0.2c0.8-0.2,1.6-0.7,2.3-1.3c0.3-0.3,0.6-0.5,0.8-0.9c0.3-0.4,0.5-0.8,0.5-1.1v-0.3l-1.3,0
		c-0.9,0-1.4-0.4-1.4-1.1c0-0.5,0.1-1,0.4-1.6c0.3-0.6,0.7-1,1.1-1c0.6,0,1.1,0.4,1.4,1.3C495.2,299.8,495.3,300.5,495.3,301.3z
		 M494.6,300.4c0-0.3-0.1-0.6-0.3-0.9c-0.2-0.3-0.5-0.5-0.8-0.5c-0.2,0-0.4,0.1-0.5,0.2s-0.2,0.3-0.2,0.5c0,0.5,0.3,0.7,1,0.7
		C493.9,300.5,494.2,300.5,494.6,300.4z" id="PATH_151" class="area" title=""></path>
	<path d="M504.7,301.7h-0.6c-1.2,0-1.9-0.9-1.9-2.7c0-0.2,0-0.5,0-0.9c-0.8,1.9-1.7,3.3-2.9,4.1c-0.7,0.2-1.6,0.3-2.6,0.3
		c-0.2,0-0.3,0-0.3,0c0,0,0.3-0.2,0.9-0.5c0.4-0.2,0.8-0.4,1.2-0.6c0.7-0.3,1.4-0.8,2-1.5c-0.3-1-0.7-1.9-1.3-2.7
		c-0.4-0.5-1-1.1-1.9-1.8l-0.1,0.4c-0.3-0.2-0.5-0.4-0.7-0.6c-0.3-0.3-0.5-0.5-0.5-0.7c0-0.2,0-0.5,0.1-1c0-0.1,0-0.2,0.1-0.2
		s0.1,0,0.2,0.1c1.3,0.9,2.3,1.8,2.9,2.6c0.8,1,1.3,2.1,1.6,3.4c0.4-0.5,0.7-1,0.9-1.6c0.3-0.7,0.4-1.3,0.4-1.8c0-0.9-0.1-1.9-0.2-3
		l0.8-0.7c0.1,0.5,0.1,2.8,0.2,6.9c0,0.9,0.4,1.4,1.2,1.4h0.5V301.7z" id="PATH_152" class="area" title=""></path>
	<path d="M508.6,298.8v0.4c0,0.7-0.1,1.1-0.3,1.4c-0.5,0.7-1.3,1-2.6,1h-1.4v-1.2h1c1.7,0,2.6-0.3,2.8-0.8c0-0.1,0-0.1,0-0.2
		c0-0.2,0-0.3-0.1-0.4c-0.4,0.1-0.9,0.1-1.3,0.1c-0.9,0-1.4-0.4-1.4-1.2c0-0.5,0.1-1.1,0.4-1.6c0.3-0.6,0.7-0.9,1.2-0.9
		c0.4,0,0.8,0.3,1.1,0.8C508.4,297,508.6,297.8,508.6,298.8z M507.4,293.3l-0.8,0.8l-0.8-0.8l0.8-0.8L507.4,293.3z M507.8,298
		c0-0.3-0.1-0.6-0.3-0.9s-0.5-0.4-0.8-0.4c-0.2,0-0.4,0.1-0.6,0.2s-0.2,0.3-0.2,0.5c0,0.4,0.3,0.6,1,0.6
		C507.1,298.1,507.5,298.1,507.8,298z" id="PATH_153" class="area" title=""></path>
</g>
<g id="G_154" class="area" title="">
	<path d="M479.9,275h-0.4c-0.4,0-0.6-0.1-0.8-0.2c0,0.1,0,0.2,0,0.3c0,0.9-0.3,1.8-0.9,2.7c-0.5,0.8-1,1.1-1.3,1.1
		c-0.8,0-1.4,0-2-0.1c-0.2,0-0.3-0.1-0.3-0.1s0.1-0.1,0.3-0.1c0.8-0.2,1.6-0.6,2.4-1.2c0.8-0.7,1.3-1.4,1.3-2.1c0-0.4-0.3-1-1-1.7
		l0.5-0.9c0-0.1,0.1-0.1,0.1-0.1c0,0,0.1,0.1,0.1,0.1c0.3,0.4,0.5,0.7,0.7,0.8c0.3,0.2,0.7,0.4,1.1,0.4h0.3V275z" id="PATH_155" class="area" title=""></path>
	<path d="M486.1,275h-0.5c-0.4,0-0.8,0.1-1.1,0.2c-0.5,0.2-0.8,0.5-0.8,1c0,0.6,0.4,1.1,1.2,1.6l-0.5,1c-0.9-0.3-1.7-0.8-2.3-1.4
		c-0.8-0.7-1.2-1.6-1.2-2.5h-1.4v-1.2h1.3c0-0.8,0.2-1.6,0.6-2.6c0.4-0.9,0.7-1.3,0.9-1.3c0.2,0,0.5,0.4,0.8,1.3
		c0.3,0.8,0.4,1.3,0.4,1.6c0,1.4-0.7,2.1-2.1,2.1c0.1,0.4,0.3,0.8,0.6,1.2s0.7,0.7,1.1,0.9c0-0.1,0-0.3,0-0.4c0-0.7,0.2-1.3,0.5-1.8
		c0.5-0.7,1.1-1.1,2-1.1h0.4V275z M483,273.4c0-0.2-0.1-0.6-0.3-1.1c-0.2-0.6-0.4-0.8-0.6-0.8c-0.1,0-0.3,0.2-0.5,0.7
		c-0.2,0.5-0.3,1.1-0.3,1.7C482.5,273.8,483,273.7,483,273.4z" id="PATH_156" class="area" title=""></path>
	<path d="M494,272.9c0,0.6-0.1,1.1-0.4,1.5c-0.3,0.4-0.8,0.7-1.3,0.7c-0.7,0-1.1-0.3-1.4-0.8c-0.4,0.6-0.8,0.8-1.4,0.8
		c-0.7,0-1.2-0.3-1.5-0.8c-0.4,0.6-0.9,0.8-1.6,0.8h-0.7v-1.2h0.8c0.7,0,1.2-0.4,1.3-1.2c0-0.2,0.1-0.3,0.2-0.3
		c0.1,0,0.1,0.1,0.2,0.3c0.1,0.8,0.5,1.2,1.3,1.2c0.4,0,0.8-0.1,1-0.3c0.1-0.2,0.2-0.4,0.3-0.8c0-0.2,0.1-0.3,0.2-0.3
		c0.1,0,0.1,0.1,0.2,0.3c0.1,0.8,0.5,1.2,1.2,1.2c0.8,0,1.1-0.2,1.1-0.5c0-0.3-0.2-0.7-0.6-1.1l0.5-0.9c0.1-0.1,0.1-0.2,0.2-0.2
		s0.1,0.1,0.2,0.2C493.8,271.9,494,272.4,494,272.9z M490.6,269.2l-0.7,0.7l-0.7-0.7l0.7-0.7L490.6,269.2z M491.5,267.6l-0.7,0.7
		l-0.7-0.7l0.7-0.7L491.5,267.6z M492.4,269.2l-0.7,0.7l-0.7-0.7l0.7-0.7L492.4,269.2z" id="PATH_157" class="area" title=""></path>
	<path d="M508.1,275h-2.3c-0.3,0-0.6,0-0.8,0.1c-0.4,0.1-0.5,0.3-0.5,0.5c0,0.1,0.5,0.2,1.4,0.4s1.4,0.4,1.4,0.6
		c0,0.8-0.2,1.4-0.7,1.8c-0.8,0.7-2.1,1-4,1c-2.3,0-3.5-0.9-3.5-2.6c0-0.4,0.1-0.8,0.3-1.3s0.4-0.9,0.6-1.2c0.1-0.1,0.2-0.2,0.3-0.2
		s0.1,0,0.1,0.1c0,0.1,0,0.2-0.1,0.3c-0.3,0.6-0.5,1.2-0.5,1.8c0,0.7,0.3,1.2,1,1.5c0.5,0.3,1.1,0.4,1.9,0.4c0.8,0,1.5,0,2.2-0.1
		c1.2-0.2,1.8-0.4,1.8-0.8c0-0.2-0.3-0.3-0.8-0.4c-0.8-0.1-1.3-0.2-1.5-0.3c-0.5-0.1-0.8-0.4-0.8-0.7c0-0.2,0.1-0.5,0.4-0.9
		c0.2-0.3,0.4-0.5,0.7-0.7c0.5-0.4,1.1-0.6,2-0.6h1.4V275z" id="PATH_158" class="area" title=""></path>
	<path d="M513,275h-0.8c-0.9,0-1.5-0.3-1.9-0.9c-0.3,0.6-1,0.9-2.1,0.9h-0.6v-1.2h0.9c1,0,1.5-0.4,1.6-1.1c0-0.3,0.1-0.5,0.2-0.5
		s0.2,0.2,0.2,0.5c0.1,0.7,0.6,1.1,1.5,1.1h0.9V275z M511,269.8l-0.8,0.8l-0.8-0.8l0.8-0.8L511,269.8z" id="PATH_159" class="area" title=""></path>
	<path d="M517.9,275h-0.8c-0.9,0-1.5-0.3-1.9-0.9c-0.3,0.6-1,0.9-2.1,0.9h-0.6v-1.2h0.9c1,0,1.5-0.4,1.6-1.1c0-0.3,0.1-0.5,0.2-0.5
		s0.2,0.2,0.2,0.5c0.1,0.7,0.6,1.1,1.5,1.1h0.9V275z M514.6,277.2l-0.8,0.8l-0.8-0.8l0.8-0.8L514.6,277.2z M516.4,277.2l-0.8,0.8
		l-0.8-0.8l0.8-0.8L516.4,277.2z" id="PATH_160" class="area" title=""></path>
	<path d="M525.1,275h-0.6c-0.5,0-1-0.3-1.4-0.8c-0.3,0.8-0.6,1.2-0.9,1.2c-0.3,0-0.8-0.2-1.4-0.5c-0.5-0.3-0.9-0.6-1.1-0.8
		c-0.5,0.6-1,0.9-1.5,0.9h-0.6v-1.2h0.6c0.5,0,0.9-0.2,1.3-0.6c0.3-0.3,0.6-0.7,1-1.1c0.4-0.4,0.7-0.6,1-0.6c0.4,0,0.7,0.2,1,0.6
		c0.2,0.2,0.4,0.6,0.9,1.1c0.3,0.4,0.7,0.6,1.1,0.6h0.6V275z M522.4,274.2c0-0.3-0.1-0.6-0.3-1c-0.2-0.4-0.5-0.6-0.9-0.6
		c-0.3,0-0.7,0.3-1.1,0.8c0.1,0.1,0.4,0.3,0.9,0.6c0.5,0.3,0.9,0.4,1.2,0.4C522.3,274.3,522.4,274.3,522.4,274.2z" id="PATH_161" class="area" title=""></path>
	<path d="M532.9,272.1l-0.4,0.8c-0.7,0-1.3,0-1.6,0.1c-0.4,0.2-1,0.4-1.8,0.8c-0.8,0.4-1.4,0.7-1.8,0.8c-0.6,0.2-1.3,0.3-1.9,0.3
		h-0.7v-1.2h0.8c0.9,0,1.7-0.2,2.4-0.5l2.3-1c-0.4-0.1-1-0.3-1.8-0.6c-0.7-0.3-1.1-0.4-1.3-0.4c-0.4,0-0.8,0.2-1.2,0.5
		c-0.1,0.1-0.1,0.1-0.2,0.1c-0.1,0-0.1,0-0.1-0.1c0,0,0-0.1,0-0.1c0.3-1,0.9-1.4,1.7-1.4c0.3,0,0.7,0.1,1.1,0.3
		c0.8,0.4,1.4,0.6,1.8,0.8c0.7,0.2,1.5,0.4,2.4,0.4c0.2,0,0.3,0,0.3,0.1C533,271.9,533,272,532.9,272.1z M530.1,267.5l-0.8,0.8
		l-0.8-0.8l0.8-0.8L530.1,267.5z" id="PATH_162" class="area" title=""></path>
</g>
<g id="G_163" class="area" title="">
	<path d="M500,125.7h-0.5c-0.5,0-0.8,0-1-0.1c0,0.3,0.1,0.5,0.1,0.8c0,0.5-0.1,0.8-0.2,1.1c-0.3,0.7-0.8,1.3-1.8,1.7
		c-0.8,0.3-1.6,0.5-2.5,0.5c-0.9,0-1.6-0.2-2.2-0.6c-0.6-0.5-0.9-1.1-0.9-2c0-0.5,0.1-0.9,0.3-1.5c0.2-0.4,0.3-0.7,0.5-0.9
		c0.1-0.1,0.2-0.1,0.2-0.1c0.1,0,0.1,0,0.1,0.1c0,0,0,0.1,0,0.2c-0.3,0.6-0.4,1.2-0.4,1.7c0,0.5,0.2,0.9,0.5,1.3
		c0.4,0.5,1.1,0.7,2,0.7c1,0,1.9-0.2,2.6-0.5c0.6-0.3,1-0.6,1.2-1c0.1-0.1,0.1-0.3,0-0.7c0-0.3-0.1-0.6-0.1-0.7
		c-0.1-0.3-0.5-0.8-1-1.5l0.4-0.8c0.1-0.1,0.1-0.2,0.1-0.2s0.1,0,0.1,0.1c0.5,0.8,1,1.2,1.6,1.2h0.8V125.7z M495.6,121.2l-0.8,0.8
		l-0.8-0.8l0.8-0.8L495.6,121.2z" id="PATH_164" class="area" title=""></path>
	<path d="M505,125.7h-0.8c-0.9,0-1.5-0.3-1.9-0.9c-0.3,0.6-1,0.9-2.1,0.9h-0.6v-1.2h0.9c1,0,1.5-0.4,1.6-1.1c0-0.3,0.1-0.5,0.2-0.5
		s0.2,0.2,0.2,0.5c0.1,0.7,0.6,1.1,1.5,1.1h0.9V125.7z M501.7,127.9l-0.8,0.8l-0.8-0.8l0.8-0.8L501.7,127.9z M503.4,127.9l-0.8,0.8
		l-0.8-0.8l0.8-0.8L503.4,127.9z" id="PATH_165" class="area" title=""></path>
	<path d="M507.4,123.7c0,1.3-0.7,2-2,2h-0.8v-1.2h0.7c1,0,1.5-0.2,1.5-0.5c0-0.3-0.2-0.7-0.7-1.2l0.4-1c0-0.1,0.1-0.1,0.1-0.1
		s0.1,0.1,0.2,0.2C507.2,122.4,507.4,123,507.4,123.7z M506.6,127.9l-0.8,0.8l-0.8-0.8l0.8-0.8L506.6,127.9z M508.3,127.9l-0.8,0.8
		l-0.8-0.8l0.8-0.8L508.3,127.9z" id="PATH_166" class="area" title=""></path>
	<path d="M512.3,125.7h-0.7c-0.7,0-1.3-0.3-1.5-0.9c-0.2-0.4-0.3-1.1-0.3-1.9v-1.9c0-0.9-0.1-2.2-0.2-3.9l0.6-0.7
		c0.1-0.1,0.2-0.1,0.2,0c0.1,0.9,0.2,2.2,0.2,3.9v2.9c0,0.8,0.4,1.2,1.2,1.2h0.5V125.7z" id="PATH_167" class="area" title=""></path>
	<path d="M514.7,123.7c0,1.3-0.7,2-2,2h-0.8v-1.2h0.7c1,0,1.5-0.2,1.5-0.5c0-0.3-0.2-0.7-0.7-1.2l0.4-1c0-0.1,0.1-0.1,0.1-0.1
		s0.1,0.1,0.2,0.2C514.5,122.4,514.7,123,514.7,123.7z M514.6,119.1l-0.8,0.8l-0.8-0.8l0.8-0.8L514.6,119.1z" id="PATH_168" class="area" title=""></path>
</g>
<g id="G_169" class="area" title="">
	<path d="M601.5,81.3h-0.7c-0.5,0-1-0.3-1.6-0.8c-0.3-0.3-0.7-0.8-1.2-1.5c0,0.7-0.1,1.2-0.4,1.5c-0.5,0.6-1.5,0.9-3,0.9h-2
		c-2.4,0-3.7-0.7-3.7-2.1c0-0.5,0.2-1,0.5-1.5c0.1-0.1,0.2-0.2,0.2-0.2c0.1,0,0.1,0,0.1,0.1c0,0.1,0,0.1,0,0.2
		c-0.1,0.4-0.2,0.6-0.2,0.9c0,0.4,0.2,0.7,0.5,0.9c0.5,0.4,1.3,0.6,2.4,0.6h2c1.1,0,1.9-0.1,2.3-0.2c0.5-0.2,0.7-0.5,0.7-0.9
		c0-0.4-0.2-0.9-0.7-1.5c-0.3-0.3-0.7-0.8-1.3-1.3c-0.5-0.4-0.7-0.7-0.7-0.7c0-0.7,0.1-1.1,0.3-1.4c0-0.1,0.7-0.3,2.1-0.8
		c1.4-0.5,2.6-0.9,3.5-1.2c0,0.1-0.1,0.5-0.3,1.1c-1.1,0.3-2.7,0.9-4.9,1.7c1,0.9,2.1,2.2,3.4,3.9c0.5,0.6,0.9,1,1.2,1.2
		c0.2,0.1,0.6,0.2,1,0.2h0.4V81.3z" id="PATH_170" class="area" title=""></path>
	<path d="M603.9,79.3c0,1.3-0.7,2-2,2h-0.8v-1.2h0.7c1,0,1.5-0.2,1.5-0.5c0-0.3-0.2-0.7-0.7-1.2l0.4-1c0-0.1,0.1-0.1,0.1-0.1
		s0.1,0.1,0.2,0.2C603.7,78.1,603.9,78.7,603.9,79.3z M603.8,74.8l-0.8,0.8l-0.8-0.8L603,74L603.8,74.8z" id="PATH_171" class="area" title=""></path>
	<path d="M607.9,81.3h-0.7c-0.7,0-1.3-0.3-1.5-0.9c-0.2-0.4-0.3-1.1-0.3-1.9v-1.9c0-0.9-0.1-2.2-0.2-3.9l0.6-0.7
		c0.1-0.1,0.2-0.1,0.2,0c0.1,0.9,0.2,2.2,0.2,3.9v2.9c0,0.8,0.4,1.2,1.2,1.2h0.5V81.3z" id="PATH_172" class="area" title=""></path>
	<path d="M610.3,79.3c0,1.3-0.7,2-2,2h-0.8v-1.2h0.7c1,0,1.5-0.2,1.5-0.5c0-0.3-0.2-0.7-0.7-1.2l0.4-1c0-0.1,0.1-0.1,0.1-0.1
		s0.1,0.1,0.2,0.2C610.1,78.1,610.3,78.7,610.3,79.3z M609.9,83.5l-0.8,0.8l-0.8-0.8l0.8-0.8L609.9,83.5z" id="PATH_173" class="area" title=""></path>
	<path d="M614.2,81.3h-0.7c-0.7,0-1.3-0.3-1.5-0.9c-0.2-0.4-0.3-1.1-0.3-1.9v-1.9c0-0.9-0.1-2.2-0.2-3.9l0.6-0.7
		c0.1-0.1,0.2-0.1,0.2,0c0.1,0.9,0.2,2.2,0.2,3.9v2.9c0,0.8,0.4,1.2,1.2,1.2h0.5V81.3z" id="PATH_174" class="area" title=""></path>
	<path d="M619.1,81.3h-0.8c-0.9,0-1.5-0.3-1.9-0.9c-0.3,0.6-1,0.9-2.1,0.9h-0.6v-1.2h0.9c1,0,1.5-0.4,1.6-1.1c0-0.3,0.1-0.5,0.2-0.5
		s0.2,0.2,0.2,0.5c0.1,0.7,0.6,1.1,1.5,1.1h0.9V81.3z M615.8,83.5l-0.8,0.8l-0.8-0.8l0.8-0.8L615.8,83.5z M617.6,83.5l-0.8,0.8
		l-0.8-0.8l0.8-0.8L617.6,83.5z" id="PATH_175" class="area" title=""></path>
	<path d="M621.5,79.3c0,1.3-0.7,2-2,2h-0.8v-1.2h0.7c1,0,1.5-0.2,1.5-0.5c0-0.3-0.2-0.7-0.7-1.2l0.4-1c0-0.1,0.1-0.1,0.1-0.1
		s0.1,0.1,0.2,0.2C621.3,78.1,621.5,78.7,621.5,79.3z M621.2,83.5l-0.8,0.8l-0.8-0.8l0.8-0.8L621.2,83.5z" id="PATH_176" class="area" title=""></path>
	<path d="M630.6,80.9c0,1.5-0.5,2.8-1.5,3.8c-0.3,0.3-0.5,0.5-0.6,0.5c-0.6,0-1.2-0.1-1.9-0.2c-0.3,0-0.4-0.1-0.4-0.1
		c0,0,0.1-0.1,0.4-0.2c0.8-0.2,1.6-0.7,2.3-1.3c0.3-0.3,0.6-0.5,0.8-0.9c0.3-0.4,0.5-0.8,0.5-1.1v-0.3l-1.3,0
		c-0.9,0-1.4-0.4-1.4-1.1c0-0.5,0.1-1,0.4-1.6c0.3-0.6,0.7-1,1.1-1c0.6,0,1.1,0.4,1.4,1.3C630.5,79.5,630.6,80.2,630.6,80.9z
		 M629.9,80.1c0-0.3-0.1-0.6-0.3-0.9c-0.2-0.3-0.5-0.5-0.8-0.5c-0.2,0-0.4,0.1-0.5,0.2s-0.2,0.3-0.2,0.5c0,0.5,0.3,0.7,1,0.7
		C629.2,80.2,629.5,80.2,629.9,80.1z" id="PATH_177" class="area" title=""></path>
	<path d="M639.5,81.4c0,1-0.3,1.9-0.9,2.8c-0.5,0.7-1,1.1-1.3,1.1c-0.8,0-1.4,0-2-0.1c-0.2,0-0.3-0.1-0.3-0.1s0.1-0.1,0.3-0.1
		c0.8-0.2,1.6-0.6,2.4-1.2c0.8-0.7,1.3-1.4,1.3-2.1c0-0.4-0.3-1-1-1.7l0.5-0.9c0-0.1,0.1-0.1,0.1-0.1c0,0,0.1,0.1,0.1,0.1
		c0.2,0.3,0.5,0.7,0.6,1.2C639.4,80.6,639.5,81.1,639.5,81.4z" id="PATH_178" class="area" title=""></path>
	<path d="M645.8,81.3h-1.1c-0.1,1.4-0.6,2.5-1.6,3.5c-0.3,0.3-0.5,0.5-0.6,0.5c-0.5,0-1.2-0.1-1.9-0.2c-0.2,0-0.4-0.1-0.4-0.1
		s0.1-0.1,0.4-0.2c0.8-0.2,1.6-0.7,2.3-1.2c0.3-0.3,0.6-0.5,0.8-0.9c0.3-0.4,0.5-0.8,0.5-1.1v-0.3h-1.3c-1,0-1.4-0.4-1.4-1.2
		c0-0.5,0.1-1,0.4-1.6c0.3-0.6,0.7-1,1.1-1c0.5,0,0.9,0.3,1.2,1c0.2,0.5,0.4,1,0.4,1.6h1.1V81.3z M644,80.2c0-0.3-0.1-0.6-0.3-0.9
		c-0.2-0.4-0.5-0.5-0.8-0.5c-0.2,0-0.4,0.1-0.5,0.2s-0.2,0.3-0.2,0.6c0,0.5,0.4,0.7,1.2,0.7C643.4,80.2,643.7,80.2,644,80.2z" id="PATH_179" class="area" title=""></path>
	<path d="M653.6,78.4l-0.4,0.8c-0.7,0-1.3,0-1.6,0.1c-0.4,0.2-1,0.4-1.8,0.8c-0.8,0.4-1.4,0.7-1.8,0.8c-0.6,0.2-1.3,0.3-1.9,0.3
		h-0.7v-1.2h0.8c0.9,0,1.7-0.2,2.4-0.5l2.3-1c-0.4-0.1-1-0.3-1.8-0.6c-0.7-0.3-1.1-0.4-1.3-0.4c-0.4,0-0.8,0.2-1.2,0.5
		c-0.1,0.1-0.1,0.1-0.2,0.1c-0.1,0-0.1,0-0.1-0.1c0,0,0-0.1,0-0.1c0.3-1,0.9-1.4,1.7-1.4c0.3,0,0.7,0.1,1.1,0.3
		c0.8,0.4,1.4,0.6,1.8,0.8c0.7,0.2,1.5,0.4,2.4,0.4c0.2,0,0.3,0,0.3,0.1C653.7,78.2,653.6,78.3,653.6,78.4z M650.7,73.9l-0.8,0.8
		l-0.8-0.8l0.8-0.8L650.7,73.9z" id="PATH_180" class="area" title=""></path>
</g>
<g id="G_181" class="area" title="">
	<path d="M304.7,52.6h-0.5c-0.5,0-0.9-0.2-1.1-0.5c0,0.6-0.1,1.3-0.2,2.2c-0.3,0.7-0.8,1.3-1.6,1.6c-0.7,0.3-1.4,0.5-2.3,0.5
		c-0.9,0-1.5-0.2-2-0.5c-0.6-0.4-0.9-1-0.9-1.9c0-0.8,0.2-1.6,0.7-2.2c0.1-0.1,0.1-0.1,0.2-0.1c0.1,0,0.1,0,0.1,0.1c0,0,0,0.1,0,0.1
		c-0.2,0.5-0.3,1-0.3,1.4c0,0.6,0.2,1.1,0.7,1.5c0.4,0.3,0.9,0.5,1.6,0.5c0.6,0,1.3-0.1,2-0.4c1-0.3,1.4-0.7,1.4-1.2l-0.1-4.8
		c-0.1-2.3-0.1-3.9-0.2-5l0.8-0.7c0,0.3,0.1,1.4,0.2,3.4l0.1,3.9c0,0.6,0.4,1,1.2,1h0.3V52.6z" id="PATH_182" class="area" title=""></path>
	<path d="M310.7,44.5c0,0.2-0.1,0.5-0.3,1.1c-1.2,0.3-2.7,0.8-4.4,1.3c1.2,1.2,1.9,2.2,2,2.9c0.1,0.5,0,1-0.2,1.5
		c-0.2,0.5-0.6,0.8-1.1,1c-0.4,0.2-1.1,0.2-2,0.2h-0.4v-1.2h0.3c1.9,0,2.9-0.3,2.9-1c0-0.5-0.5-1.3-1.6-2.3l-0.1,0.3
		c-0.1-0.1-0.3-0.3-0.5-0.6c-0.3-0.3-0.4-0.5-0.4-0.6c0-0.3,0.1-0.6,0.4-0.9c0.1-0.1,0.7-0.3,2-0.7
		C308.6,45.1,309.8,44.7,310.7,44.5z M310.5,43l-0.2,0.7l-4.9,1.6l0.2-0.7L310.5,43z" id="PATH_183" class="area" title=""></path>
	<path d="M318.3,52.6h-0.4c-0.4,0-0.7-0.1-1-0.4c-0.2-0.2-0.4-0.4-0.6-0.8c-0.2,0.4-0.5,0.7-0.8,0.9c-0.4,0.2-0.9,0.3-1.7,0.3
		c-1.4,0-2.1-0.5-2.1-1.5c0-0.3,0.1-0.7,0.3-1c0.1-0.1,0.1-0.2,0.2-0.2c0.1,0,0.1,0.1,0.1,0.2c0,0.1,0,0.1,0,0.3c0,0.1,0,0.2,0,0.3
		c0,0.6,0.5,0.9,1.5,0.9c1.4,0,2.1-0.3,2.1-0.8c0-0.3-0.4-1.4-1.2-3.3l0.4-0.8c0.1-0.1,0.1-0.2,0.1-0.2c0,0,0.1,0.1,0.1,0.2
		c0.3,0.8,0.8,2,1.4,3.6c0.3,0.8,0.7,1.2,1.3,1.2h0.3V52.6z" id="PATH_184" class="area" title=""></path>
	<path d="M323.2,52.6h-0.8c-0.9,0-1.5-0.3-1.9-0.9c-0.3,0.6-1,0.9-2.1,0.9h-0.6v-1.2h0.9c1,0,1.5-0.4,1.6-1.1c0-0.3,0.1-0.5,0.2-0.5
		c0.1,0,0.2,0.2,0.2,0.5c0.1,0.7,0.6,1.1,1.5,1.1h0.9V52.6z M319.9,54.8l-0.8,0.8l-0.8-0.8l0.8-0.8L319.9,54.8z M321.6,54.8
		l-0.8,0.8l-0.8-0.8l0.8-0.8L321.6,54.8z" id="PATH_185" class="area" title=""></path>
	<path d="M325.6,50.6c0,1.3-0.7,2-2,2h-0.8v-1.2h0.7c1,0,1.5-0.2,1.5-0.5c0-0.3-0.2-0.7-0.7-1.2l0.4-1c0-0.1,0.1-0.1,0.1-0.1
		c0,0,0.1,0.1,0.2,0.2C325.4,49.3,325.6,49.9,325.6,50.6z M325.3,54.8l-0.8,0.8l-0.8-0.8l0.8-0.8L325.3,54.8z" id="PATH_186" class="area" title=""></path>
	<path d="M334.7,52.2c0,1.5-0.5,2.8-1.5,3.8c-0.3,0.3-0.5,0.5-0.6,0.5c-0.6,0-1.2-0.1-1.9-0.2c-0.3,0-0.4-0.1-0.4-0.1
		c0,0,0.1-0.1,0.4-0.2c0.8-0.2,1.6-0.7,2.3-1.3c0.3-0.3,0.6-0.5,0.8-0.9c0.3-0.4,0.5-0.8,0.5-1.1v-0.3l-1.3,0
		c-0.9,0-1.4-0.4-1.4-1.1c0-0.5,0.1-1,0.4-1.6c0.3-0.6,0.7-1,1.1-1c0.6,0,1.1,0.4,1.4,1.3C334.6,50.7,334.7,51.4,334.7,52.2z
		 M333.9,51.4c0-0.3-0.1-0.6-0.3-0.9c-0.2-0.3-0.5-0.5-0.8-0.5c-0.2,0-0.4,0.1-0.5,0.2c-0.2,0.2-0.2,0.3-0.2,0.5
		c0,0.5,0.3,0.7,1,0.7C333.2,51.4,333.6,51.4,333.9,51.4z" id="PATH_187" class="area" title=""></path>
	<path d="M347.2,52.4c0.1,0.3,0.1,0.6,0.1,0.9c0,0.4-0.1,0.7-0.2,1.1c-0.3,0.7-0.8,1.3-1.8,1.7c-0.8,0.3-1.6,0.5-2.5,0.5
		c-0.9,0-1.6-0.2-2.2-0.6c-0.6-0.5-0.9-1.1-0.9-2c0-0.5,0.1-0.9,0.3-1.5c0.2-0.4,0.3-0.7,0.5-0.9c0.1-0.1,0.2-0.1,0.2-0.1
		c0.1,0,0.1,0,0.1,0.1c0,0,0,0.1,0,0.2c-0.3,0.6-0.4,1.2-0.4,1.7c0,0.5,0.2,0.9,0.5,1.3c0.4,0.5,1.1,0.7,2,0.7c1,0,1.9-0.2,2.6-0.5
		c0.6-0.3,1-0.6,1.2-1c0.1-0.1,0.1-0.3,0.1-0.4c0-0.3-0.1-0.6-0.2-1c-0.1-0.3-0.4-0.8-0.9-1.6l0.4-0.8c0.1-0.1,0.1-0.2,0.1-0.2
		s0.1,0,0.1,0.1C346.8,50.9,347.1,51.6,347.2,52.4z M344.3,48.1l-0.8,0.8l-0.8-0.8l0.8-0.8L344.3,48.1z" id="PATH_188" class="area" title=""></path>
	<path d="M349.6,51.3c0,0.4-0.1,0.8-0.3,1.1c-0.1,0.2-0.2,0.3-0.2,0.3c0,0-0.1-0.1-0.1-0.4c0-1.2-0.2-4-0.6-8.5l0.8-0.8
		c0.1-0.1,0.1-0.1,0.1-0.1c0,0,0,0.1,0,0.2C349.6,44.5,349.6,47.2,349.6,51.3z" id="PATH_189" class="area" title=""></path>
	<path d="M354.7,52.7c0,1-0.3,1.9-0.9,2.8c-0.5,0.7-1,1.1-1.3,1.1c-0.8,0-1.4,0-2-0.1c-0.2,0-0.3-0.1-0.3-0.1s0.1-0.1,0.3-0.1
		c0.8-0.2,1.6-0.6,2.4-1.2c0.8-0.7,1.3-1.4,1.3-2.1c0-0.4-0.3-1-1-1.7l0.5-0.9c0-0.1,0.1-0.1,0.1-0.1c0,0,0.1,0.1,0.1,0.1
		c0.2,0.3,0.5,0.7,0.6,1.2C354.6,51.9,354.7,52.3,354.7,52.7z" id="PATH_190" class="area" title=""></path>
	<path d="M358.7,41.9c-0.4,0.4-1,0.5-1.6,0.5c-0.1,0-0.2,0-0.4,0s-0.3,0-0.4,0c-0.1,0-0.2,0.1-0.3,0.2c-0.1,0.1-0.2,0.2-0.2,0.2
		c-0.1,0-0.1-0.1-0.1-0.2c0-0.1,0.1-0.3,0.2-0.5c0.1-0.3,0.2-0.4,0.3-0.4c0.1,0,0.3,0,0.6,0.1c0.3,0,0.5,0.1,0.6,0.1
		c0.6,0,1,0,1.3-0.1c0.2,0,0.3-0.1,0.3-0.1c0,0,0.1,0,0.1,0C358.9,41.7,358.9,41.8,358.7,41.9z M358.1,51.3c0,0.4-0.1,0.8-0.3,1.1
		c-0.1,0.2-0.2,0.3-0.2,0.3c0,0-0.1-0.1-0.1-0.4c0-1.2-0.2-4-0.6-8.5l0.8-0.8c0.1-0.1,0.1-0.1,0.1-0.1c0,0,0,0.1,0,0.2
		C358.1,44.5,358.1,47.2,358.1,51.3z" id="PATH_191" class="area" title=""></path>
</g>
<g id="G_192" class="area" title="">
	<path d="M263.7,89.2c0.1,0.3,0.1,0.6,0.1,0.9c0,0.4-0.1,0.7-0.2,1.1c-0.3,0.7-0.8,1.3-1.8,1.7c-0.8,0.3-1.6,0.5-2.5,0.5
		c-0.9,0-1.6-0.2-2.2-0.6c-0.6-0.5-0.9-1.1-0.9-2c0-0.5,0.1-0.9,0.3-1.5c0.2-0.4,0.3-0.7,0.5-0.9c0.1-0.1,0.2-0.1,0.2-0.1
		c0.1,0,0.1,0,0.1,0.1c0,0,0,0.1,0,0.2c-0.3,0.6-0.4,1.2-0.4,1.7c0,0.5,0.2,0.9,0.5,1.3c0.4,0.5,1.1,0.7,2,0.7c1,0,1.9-0.2,2.6-0.5
		c0.6-0.3,1-0.6,1.2-1c0.1-0.1,0.1-0.3,0.1-0.4c0-0.3-0.1-0.6-0.2-1c-0.1-0.3-0.4-0.8-0.9-1.6l0.4-0.8c0.1-0.1,0.1-0.2,0.1-0.2
		s0.1,0,0.1,0.1C263.3,87.6,263.6,88.4,263.7,89.2z M260.8,84.9l-0.8,0.8l-0.8-0.8L260,84L260.8,84.9z" id="PATH_193" class="area" title=""></path>
	<path d="M267.8,89.3h-0.7c-0.7,0-1.3-0.3-1.5-0.9c-0.2-0.4-0.3-1.1-0.3-1.9v-1.9c0-0.9-0.1-2.2-0.2-3.9l0.6-0.7
		c0.1-0.1,0.2-0.1,0.2,0c0.1,0.9,0.2,2.2,0.2,3.9v2.9c0,0.8,0.4,1.2,1.2,1.2h0.5V89.3z" id="PATH_194" class="area" title=""></path>
	<path d="M275.7,87.2c0,0.6-0.1,1.1-0.4,1.5c-0.3,0.4-0.8,0.7-1.3,0.7c-0.7,0-1.1-0.3-1.4-0.8c-0.4,0.6-0.8,0.8-1.4,0.8
		c-0.7,0-1.2-0.3-1.5-0.8c-0.4,0.6-0.9,0.8-1.6,0.8h-0.7v-1.2h0.8c0.7,0,1.2-0.4,1.3-1.2c0-0.2,0.1-0.3,0.2-0.3
		c0.1,0,0.1,0.1,0.2,0.3c0.1,0.8,0.5,1.2,1.3,1.2c0.4,0,0.8-0.1,1-0.3c0.1-0.2,0.2-0.4,0.3-0.8c0-0.2,0.1-0.3,0.2-0.3
		c0.1,0,0.1,0.1,0.2,0.3c0.1,0.8,0.5,1.2,1.2,1.2c0.8,0,1.1-0.2,1.1-0.5c0-0.3-0.2-0.7-0.6-1.1l0.5-0.9c0.1-0.1,0.1-0.2,0.2-0.2
		s0.1,0.1,0.2,0.2C275.5,86.2,275.7,86.8,275.7,87.2z M272.3,83.5l-0.7,0.7l-0.7-0.7l0.7-0.7L272.3,83.5z M273.2,82l-0.7,0.7
		l-0.7-0.7l0.7-0.7L273.2,82z M274.1,83.5l-0.7,0.7l-0.7-0.7l0.7-0.7L274.1,83.5z" id="PATH_195" class="area" title=""></path>
	<path d="M279.7,89.3H279c-0.7,0-1.3-0.3-1.5-0.9c-0.2-0.4-0.3-1.1-0.3-1.9v-1.9c0-0.9-0.1-2.2-0.2-3.9l0.6-0.7
		c0.1-0.1,0.2-0.1,0.2,0c0.1,0.9,0.2,2.2,0.2,3.9v2.9c0,0.8,0.4,1.2,1.2,1.2h0.5V89.3z" id="PATH_196" class="area" title=""></path>
	<path d="M285.9,80.1c0,0.2-0.2,0.6-0.4,1.1L283,82c-1.1,0.4-1.9,0.7-2.3,0.9c0.8,0.8,1.3,1.4,1.6,1.7c0.5,0.7,0.8,1.3,0.9,2
		c0,0.5,0,1-0.2,1.4c-0.3,0.9-1.4,1.3-3.1,1.3h-0.5v-1.2h0.6c0.8,0,1.4,0,1.7-0.1c0.7-0.2,1.1-0.5,1.1-1c0-0.7-0.5-1.5-1.6-2.5
		l-0.1,0.2c-0.1-0.1-0.3-0.3-0.5-0.6c-0.3-0.3-0.4-0.6-0.4-0.6c0-0.2,0-0.4,0.1-0.8c0.1-0.4,0.2-0.6,0.3-0.7
		c0.1-0.1,0.8-0.4,2.1-0.8C283.8,80.7,285,80.3,285.9,80.1z" id="PATH_197" class="area" title=""></path>
</g>
<g id="G_198" class="area" title="">
	<path d="M315.1,127h-0.4c-0.4,0-0.6-0.1-0.8-0.2c0,0.1,0,0.2,0,0.3c0,0.9-0.3,1.8-0.9,2.7c-0.5,0.8-1,1.1-1.3,1.1
		c-0.8,0-1.4,0-2-0.1c-0.2,0-0.3-0.1-0.3-0.1s0.1-0.1,0.3-0.1c0.8-0.2,1.6-0.6,2.4-1.2c0.8-0.7,1.3-1.4,1.3-2.1c0-0.4-0.3-1-1-1.7
		l0.5-0.9c0-0.1,0.1-0.1,0.1-0.1c0,0,0.1,0.1,0.1,0.1c0.3,0.4,0.5,0.7,0.7,0.8c0.3,0.2,0.7,0.4,1.1,0.4h0.3V127z M313.2,121.7
		l-0.8,0.8l-0.8-0.8l0.8-0.8L313.2,121.7z" id="PATH_199" class="area" title=""></path>
	<path d="M320,127h-0.8c-0.9,0-1.5-0.3-1.9-0.9c-0.3,0.6-1,0.9-2.1,0.9h-0.6v-1.2h0.9c1,0,1.5-0.4,1.6-1.1c0-0.3,0.1-0.5,0.2-0.5
		c0.1,0,0.2,0.2,0.2,0.5c0.1,0.7,0.6,1.1,1.5,1.1h0.9V127z M318,121.8l-0.8,0.8l-0.8-0.8l0.8-0.8L318,121.8z" id="PATH_200" class="area" title=""></path>
	<path d="M328.5,127H328c-0.9,0-1.8-0.1-2.5-0.3c-0.9,0.2-2.2,0.3-3.9,0.3h-2v-1.2h1c0.3,0,0.5-0.1,0.6-0.2c0.1-0.1,0.1-0.3,0.1-0.6
		c0-0.4,0-1.2,0-2.2c-0.1-1.6-0.2-3.1-0.4-4.4l0.7-0.7c0.1-0.1,0.1-0.1,0.1-0.1c0,0,0.1,0.1,0.1,0.2c0.1,0.4,0.2,0.8,0.4,1.2
		c0,0.1,0.1,0.2,0.1,0.2c0,0-0.1,0-0.2,0h-0.3c0.1,1.8,0.1,2.9,0.1,3.2v1.1c0,0.4-0.1,1-0.3,1.7c0.1,0,0.3-0.2,0.8-0.6
		c0.5-0.5,1-0.9,1.4-1.2c0.7-0.4,1.3-0.6,1.9-0.6c0.5,0,0.9,0.1,1.2,0.4c0.4,0.3,0.5,0.6,0.5,1.1c0,0.7-0.2,1.2-0.7,1.6
		c0.1,0,0.3,0,0.6,0c0.3,0,0.4,0,0.6,0h0.4V127z M326.9,124.9c0-0.3-0.2-0.6-0.6-0.8c-0.3-0.2-0.7-0.3-1-0.3c-0.7,0-1.9,0.6-3.4,1.9
		c0.4,0,0.9,0.1,1.3,0.1c0.6,0,1.3-0.1,2-0.2C326.4,125.5,326.9,125.2,326.9,124.9z" id="PATH_201" class="area" title=""></path>
	<path d="M330.9,125c0,1.3-0.7,2-2,2h-0.8v-1.2h0.7c1,0,1.5-0.2,1.5-0.5c0-0.3-0.2-0.7-0.7-1.2l0.4-1c0-0.1,0.1-0.1,0.1-0.1
		c0,0,0.1,0.1,0.2,0.2C330.6,123.7,330.9,124.4,330.9,125z M330.8,120.5l-0.8,0.8l-0.8-0.8l0.8-0.8L330.8,120.5z" id="PATH_202" class="area" title=""></path>
</g>
<g id="G_203" class="area" title="">
	<path d="M372.6,125.5c0.1,0.3,0.1,0.6,0.1,0.9c0,0.4-0.1,0.7-0.2,1.1c-0.3,0.7-0.8,1.3-1.8,1.7c-0.8,0.3-1.6,0.5-2.5,0.5
		c-0.9,0-1.6-0.2-2.2-0.6c-0.6-0.5-0.9-1.1-0.9-2c0-0.5,0.1-0.9,0.3-1.5c0.2-0.4,0.3-0.7,0.5-0.9c0.1-0.1,0.2-0.1,0.2-0.1
		c0.1,0,0.1,0,0.1,0.1c0,0,0,0.1,0,0.2c-0.3,0.6-0.4,1.2-0.4,1.7c0,0.5,0.2,0.9,0.5,1.3c0.4,0.5,1.1,0.7,2,0.7c1,0,1.9-0.2,2.6-0.5
		c0.6-0.3,1-0.6,1.2-1c0.1-0.1,0.1-0.3,0.1-0.4c0-0.3-0.1-0.6-0.2-1c-0.1-0.3-0.4-0.8-0.9-1.6l0.4-0.8c0.1-0.1,0.1-0.2,0.1-0.2
		s0.1,0,0.1,0.1C372.2,124,372.4,124.7,372.6,125.5z M369.6,121.2l-0.8,0.8l-0.8-0.8l0.8-0.8L369.6,121.2z" id="PATH_204" class="area" title=""></path>
	<path d="M376.6,125.7H376c-0.7,0-1.3-0.3-1.5-0.9c-0.2-0.4-0.3-1.1-0.3-1.9v-1.9c0-0.9-0.1-2.2-0.2-3.9l0.6-0.7
		c0.1-0.1,0.2-0.1,0.2,0c0.1,0.9,0.2,2.2,0.2,3.9v2.9c0,0.8,0.4,1.2,1.2,1.2h0.5V125.7z" id="PATH_205" class="area" title=""></path>
	<path d="M381.6,125.7h-0.8c-0.9,0-1.5-0.3-1.9-0.9c-0.3,0.6-1,0.9-2.1,0.9h-0.6v-1.2h0.9c1,0,1.5-0.4,1.6-1.1
		c0-0.3,0.1-0.5,0.2-0.5s0.2,0.2,0.2,0.5c0.1,0.7,0.6,1.1,1.5,1.1h0.9V125.7z M378.2,119.9l-0.8,0.8l-0.8-0.8l0.8-0.8L378.2,119.9z
		 M379.9,119.9l-0.8,0.8l-0.8-0.8l0.8-0.8L379.9,119.9z" id="PATH_206" class="area" title=""></path>
	<path d="M389.4,123.5c0,0.6-0.1,1.1-0.4,1.5c-0.3,0.4-0.8,0.7-1.3,0.7c-0.7,0-1.1-0.3-1.4-0.8c-0.4,0.6-0.8,0.8-1.4,0.8
		c-0.7,0-1.2-0.3-1.5-0.8c-0.4,0.6-0.9,0.8-1.6,0.8h-0.7v-1.2h0.8c0.7,0,1.2-0.4,1.3-1.2c0-0.2,0.1-0.3,0.2-0.3
		c0.1,0,0.1,0.1,0.2,0.3c0.1,0.8,0.5,1.2,1.3,1.2c0.4,0,0.8-0.1,1-0.3c0.1-0.2,0.2-0.4,0.3-0.8c0-0.2,0.1-0.3,0.2-0.3
		c0.1,0,0.1,0.1,0.2,0.3c0.1,0.8,0.5,1.2,1.2,1.2c0.8,0,1.1-0.2,1.1-0.5c0-0.3-0.2-0.7-0.6-1.1l0.5-0.9c0.1-0.1,0.1-0.2,0.2-0.2
		s0.1,0.1,0.2,0.2C389.3,122.6,389.4,123.1,389.4,123.5z" id="PATH_207" class="area" title=""></path>
	<path d="M395.6,123.6c0,1.4-0.9,2.1-2.8,2.1c-0.7,0-1.2-0.1-1.5-0.3c-0.4-0.2-0.6-0.7-0.6-1.3c0-0.3,0.1-0.6,0.2-0.9
		c0.1-0.1,0.1-0.2,0.2-0.2c0.1,0,0.1,0.1,0.1,0.3c0,0.1,0,0.2,0,0.3c0,0.4,0.2,0.7,0.6,0.8c0.2,0.1,0.6,0.1,1.1,0.1
		c1.5,0,2.2-0.2,2.2-0.7c0-0.7-0.9-1.7-2.6-2.9l0.3-1c0-0.1,0.1-0.1,0.1-0.1c0,0,0.1,0,0.2,0.1C394.7,121.2,395.6,122.4,395.6,123.6
		z" id="PATH_208" class="area" title=""></path>
	<path d="M400.6,125.8c0,1-0.3,1.9-0.9,2.8c-0.5,0.7-1,1.1-1.3,1.1c-0.8,0-1.4,0-2-0.1c-0.2,0-0.3-0.1-0.3-0.1s0.1-0.1,0.3-0.1
		c0.8-0.2,1.6-0.6,2.4-1.2c0.8-0.7,1.3-1.4,1.3-2.1c0-0.4-0.3-1-1-1.7l0.5-0.9c0-0.1,0.1-0.1,0.1-0.1c0,0,0.1,0.1,0.1,0.1
		c0.2,0.3,0.5,0.7,0.6,1.2C400.5,125,400.6,125.4,400.6,125.8z" id="PATH_209" class="area" title=""></path>
	<path d="M403,124.4c0,0.4-0.1,0.8-0.3,1.1c-0.1,0.2-0.2,0.3-0.2,0.3c0,0-0.1-0.1-0.1-0.4c0-1.2-0.2-4-0.6-8.5l0.8-0.8
		c0.1-0.1,0.1-0.1,0.1-0.1c0,0,0,0.1,0,0.2C403,117.6,403,120.3,403,124.4z" id="PATH_210" class="area" title=""></path>
</g>
<g id="G_211" class="area" title="">
	<path d="M222.3,119l-0.5-0.5c-0.6-0.6-0.6-1.4,0-2.3c-0.7,0-1,0-1.1-0.1l-0.6-0.6c-0.2-0.2-0.4-0.5-0.5-0.8
		c-0.2-0.4-0.2-0.7-0.1-0.8c0.5-0.5,1.2-0.8,1.9-0.7c0.5,0,1.1,0.3,2,0.6l0.6-0.8l1,0c0,0.1-0.7,1-1.9,2.8c-0.4,0.5-0.6,0.9-0.7,1.1
		c-0.1,0.3,0,0.6,0.2,0.9l0.5,0.5L222.3,119z M222,115.8l0.9-1.3c-0.3-0.2-0.7-0.4-1.2-0.5c-0.7-0.2-1.1-0.3-1.2-0.2
		c-0.1,0.1,0,0.4,0.3,0.8c0.2,0.3,0.4,0.5,0.6,0.7C221.6,115.5,221.8,115.7,222,115.8z" id="PATH_212" class="area" title=""></path>
	<path d="M227.2,124.2l-0.5-0.5c-0.3-0.3-0.5-0.9-0.4-1.6c-0.8,0.4-1.3,0.4-1.5,0.2c-0.2-0.2-0.4-0.7-0.6-1.3
		c-0.1-0.6-0.2-1-0.2-1.3c-0.7,0.1-1.3-0.1-1.7-0.5l-0.4-0.4l0.8-0.8l0.4,0.5c0.3,0.3,0.8,0.5,1.3,0.6c0.4,0,0.9,0,1.4,0
		c0.5,0,0.9,0.1,1.1,0.3c0.3,0.3,0.4,0.7,0.3,1.2c0,0.3-0.1,0.7-0.2,1.4c-0.1,0.5,0.1,0.9,0.3,1.2l0.5,0.5L227.2,124.2z M226,121.7
		c0.2-0.2,0.4-0.5,0.5-0.9c0.1-0.4,0.1-0.8-0.2-1c-0.2-0.2-0.7-0.3-1.3-0.3c0,0.2,0,0.5,0.2,1c0.2,0.5,0.3,0.9,0.5,1.1
		C225.8,121.8,225.9,121.8,226,121.7z" id="PATH_213" class="area" title=""></path>
	<path d="M226.8,126.9l-1.1,0l0-1.1l1.1,0L226.8,126.9z M228,128.1l-1.1,0l0-1.1l1.1,0L228,128.1z M230.6,127.7l-0.5-0.6
		c-0.6-0.7-0.8-1.3-0.6-2c-0.7,0.2-1.4-0.1-2.1-0.8l-0.5-0.5l0.8-0.8l0.6,0.6c0.7,0.7,1.3,0.8,1.9,0.4c0.2-0.2,0.4-0.2,0.5-0.2
		c0.1,0.1,0,0.2-0.2,0.5c-0.5,0.6-0.4,1.2,0.2,1.9l0.6,0.6L230.6,127.7z" id="PATH_214" class="area" title=""></path>
	<path d="M235.5,129.9c-0.3,0.4-0.7,0.6-1,0.7c-0.5,0.2-0.9,0.2-1.1,0c-0.4-0.4-0.6-1.2-0.8-2.3c-0.5,0-0.8,0-0.9,0
		c-0.3,0-0.6-0.2-0.9-0.5l-0.4-0.4l0.8-0.8l0.5,0.5c0.3,0.3,0.7,0.4,1.3,0.4c0.3,0,0.8-0.1,1.5-0.2c0.6-0.1,1,0,1.2,0.2
		c0.3,0.3,0.4,0.8,0.3,1.4C235.9,129.3,235.8,129.6,235.5,129.9z M234.6,130c0.2-0.2,0.4-0.5,0.5-0.9c0.1-0.4,0.1-0.8-0.1-1
		c-0.2-0.2-0.7-0.3-1.4-0.1c0,0.2,0.1,0.6,0.2,1.1c0.2,0.5,0.3,0.8,0.5,1C234.3,130.1,234.5,130.1,234.6,130z" id="PATH_215" class="area" title=""></path>
	<path d="M240.7,137.5c-1.1,1-2.3,1.5-3.8,1.5c-0.5,0-0.7,0-0.8-0.1c-0.4-0.4-0.8-0.9-1.2-1.5c-0.1-0.2-0.2-0.3-0.2-0.4
		c0,0,0.2,0,0.4,0.2c0.7,0.4,1.6,0.7,2.5,0.8c0.4,0,0.8,0,1.2,0c0.5-0.1,0.9-0.2,1.1-0.4l0.2-0.2l-0.9-0.9c-0.7-0.6-0.7-1.2-0.1-1.8
		c0.4-0.3,0.8-0.6,1.4-0.8c0.7-0.2,1.2-0.2,1.5,0.1c0.4,0.4,0.4,1.1,0,1.9C241.6,136.5,241.2,137,240.7,137.5z M240.8,136.4
		c0.2-0.2,0.4-0.5,0.4-0.9c0.1-0.4,0-0.7-0.2-0.9c-0.1-0.1-0.3-0.2-0.5-0.2c-0.2,0-0.4,0.1-0.6,0.2c-0.3,0.3-0.3,0.7,0.2,1.2
		C240.2,136,240.5,136.2,240.8,136.4z" id="PATH_216" class="area" title=""></path>
	<path d="M247.4,145.1l-0.3-0.3c-0.3-0.3-0.4-0.5-0.4-0.7c-0.1,0.1-0.1,0.1-0.2,0.2c-0.7,0.7-1.5,1.1-2.6,1.2
		c-0.9,0.1-1.5,0.1-1.7-0.1c-0.5-0.5-1-1-1.3-1.5c-0.1-0.1-0.1-0.2-0.1-0.3s0.1,0,0.3,0.1c0.7,0.4,1.5,0.7,2.5,0.8
		c1.1,0.1,1.9-0.1,2.4-0.5c0.3-0.3,0.5-0.9,0.5-1.9l1-0.3c0.1,0,0.1,0,0.2,0c0,0,0,0.1,0,0.2c-0.1,0.5-0.1,0.9-0.1,1.1
		c0,0.4,0.2,0.7,0.5,1.1l0.2,0.2L247.4,145.1z" id="PATH_217" class="area" title=""></path>
	<path d="M251.7,149.6l-0.4-0.4c-0.3-0.3-0.6-0.5-0.9-0.7c-0.5-0.2-1-0.2-1.3,0.1c-0.4,0.4-0.5,1.1-0.3,2l-1.1,0.4
		c-0.4-0.9-0.6-1.8-0.6-2.6c0-1,0.3-1.9,0.9-2.6l-1-1l0.8-0.8l0.9,1c0.5-0.5,1.3-1,2.3-1.3c0.9-0.3,1.4-0.4,1.6-0.3
		c0.2,0.2,0,0.7-0.3,1.5c-0.4,0.7-0.6,1.2-0.9,1.4c-1,1-2,1-3,0c-0.3,0.4-0.4,0.8-0.5,1.3c-0.1,0.5,0,1,0.1,1.4
		c0.1-0.1,0.2-0.2,0.3-0.3c0.5-0.5,1.1-0.8,1.6-0.9c0.8-0.1,1.6,0.1,2.1,0.7l0.3,0.3L251.7,149.6z M250.8,146.3
		c0.1-0.1,0.3-0.5,0.6-1c0.2-0.6,0.3-0.9,0.2-1c-0.1-0.1-0.4,0-0.9,0.2c-0.5,0.2-1,0.5-1.4,0.9C250,146.2,250.5,146.5,250.8,146.3z" id="PATH_218" class="area" title=""></path>
	<path d="M258.7,153.8c-0.4,0.4-0.9,0.7-1.3,0.7c-0.5,0.1-1-0.1-1.4-0.5c-0.5-0.5-0.6-1-0.4-1.6c-0.7,0.1-1.2,0-1.6-0.4
		c-0.5-0.5-0.6-1.1-0.4-1.6c-0.7,0.1-1.2-0.1-1.7-0.5l-0.5-0.5l0.8-0.8l0.6,0.6c0.5,0.5,1.1,0.6,1.7,0.1c0.2-0.1,0.3-0.1,0.3-0.1
		c0.1,0.1,0,0.2-0.1,0.3c-0.5,0.6-0.5,1.2,0,1.7c0.3,0.3,0.6,0.5,0.9,0.4c0.2,0,0.5-0.1,0.8-0.4c0.2-0.1,0.3-0.1,0.3-0.1
		c0.1,0.1,0,0.2-0.1,0.3c-0.5,0.6-0.5,1.2,0,1.7c0.5,0.5,0.9,0.7,1.2,0.4c0.2-0.2,0.4-0.6,0.4-1.2l0.9-0.3c0.1,0,0.2-0.1,0.3,0
		c0,0,0,0.1,0,0.3C259.3,153,259.1,153.5,258.7,153.8z M259,148.8l-1,0l0-1l1,0L259,148.8z M260.3,150.1l-1,0l0-1l1,0L260.3,150.1z
		 M260.8,148.4l-1,0l0-1l1,0L260.8,148.4z" id="PATH_219" class="area" title=""></path>
	<path d="M267,165.4l-0.3-0.4c-0.3-0.4-0.5-0.6-0.6-0.8c-0.2,0.2-0.4,0.4-0.6,0.6c-0.3,0.3-0.6,0.5-0.9,0.7
		c-0.7,0.3-1.5,0.3-2.5-0.1c-0.8-0.3-1.5-0.8-2.1-1.4c-0.6-0.6-1-1.3-1-2c-0.1-0.8,0.2-1.5,0.8-2.1c0.3-0.3,0.8-0.6,1.3-0.8
		c0.4-0.1,0.7-0.2,1-0.2c0.1,0,0.2,0,0.3,0.1c0,0,0,0.1,0,0.1c0,0-0.1,0.1-0.2,0.1c-0.6,0.2-1.1,0.5-1.5,0.8
		c-0.4,0.3-0.5,0.8-0.6,1.2c0,0.6,0.2,1.3,0.8,1.9c0.7,0.7,1.4,1.2,2.2,1.5c0.6,0.2,1.1,0.3,1.5,0.2c0.1,0,0.3-0.2,0.5-0.4
		c0.2-0.2,0.4-0.5,0.4-0.6c0.1-0.3,0.3-0.9,0.4-1.7l0.9-0.3c0.1,0,0.2,0,0.2,0c0,0,0,0.1,0,0.2c-0.2,0.9-0.1,1.6,0.2,2l0.5,0.6
		L267,165.4z M267.1,159.1l-1.1,0l0-1.2l1.1,0L267.1,159.1z" id="PATH_220" class="area" title=""></path>
	<path d="M266.5,168.1l-1.1,0l0-1.1l1.1,0L266.5,168.1z M267.7,169.3l-1.1,0l0-1.1l1.1,0L267.7,169.3z M270.4,168.9l-0.5-0.6
		c-0.6-0.7-0.8-1.3-0.6-2c-0.7,0.2-1.4-0.1-2.1-0.8l-0.5-0.5l0.8-0.8l0.6,0.6c0.7,0.7,1.3,0.8,1.9,0.4c0.2-0.2,0.4-0.2,0.5-0.2
		c0.1,0.1,0,0.2-0.2,0.5c-0.5,0.6-0.4,1.2,0.2,1.9l0.6,0.6L270.4,168.9z" id="PATH_221" class="area" title=""></path>
	<path d="M276.1,171.9c-0.3,0.3-0.6,0.4-1.1,0.5c-0.6,0.1-1,0-1.3-0.2c-0.2-0.2-0.5-0.9-1-2c-1-0.2-1.8-0.6-2.3-1.1l-0.4-0.4
		l0.8-0.8l0.4,0.4c0.3,0.3,0.6,0.6,0.9,0.8c-0.1-0.5,0.1-0.9,0.4-1.3c0.5-0.4,1.2-0.6,2.3-0.4l-0.2-0.7c0.3,0,0.7,0,1.2,0
		c0.3,1,0.5,1.9,0.6,2.7C276.7,170.6,276.6,171.4,276.1,171.9z M274.8,169.4c0.2-0.2,0.3-0.4,0.4-0.6c0.1-0.3,0.1-0.5-0.1-0.7
		c-0.2-0.2-0.5-0.3-0.8-0.4c-0.4-0.1-0.7,0-0.8,0.2c-0.3,0.3-0.3,0.8,0.1,1.5c0.2,0.1,0.4,0.2,0.7,0.2
		C274.4,169.7,274.7,169.6,274.8,169.4z M275.4,171.8c0.2-0.2,0.3-0.6,0.3-1.1c0-0.5,0-0.8-0.1-1.1c-0.6,0.6-1.2,0.8-1.8,0.7
		c0.4,0.8,0.6,1.3,0.8,1.4C274.9,172,275.2,172,275.4,171.8z" id="PATH_222" class="area" title=""></path>
	<path d="M277.4,176.1l-0.5-0.5c-0.5-0.5-0.7-1.1-0.4-1.7c0.2-0.4,0.6-1,1.2-1.5l1.4-1.3c0.7-0.6,1.5-1.6,2.6-2.9l0.9,0
		c0.2,0,0.2,0.1,0.1,0.2c-0.5,0.7-1.4,1.7-2.7,2.9l-2.1,2c-0.6,0.6-0.6,1.2-0.1,1.7l0.4,0.4L277.4,176.1z" id="PATH_223" class="area" title=""></path>
	<path d="M284.4,180.3c-0.4,0.4-0.9,0.7-1.3,0.7c-0.5,0.1-1-0.1-1.4-0.5c-0.5-0.5-0.6-1-0.4-1.6c-0.7,0.1-1.2,0-1.6-0.4
		c-0.5-0.5-0.6-1.1-0.4-1.6c-0.7,0.1-1.2-0.1-1.7-0.5l-0.5-0.5l0.8-0.8l0.6,0.6c0.5,0.5,1.1,0.6,1.7,0.1c0.2-0.1,0.3-0.1,0.3-0.1
		c0.1,0.1,0,0.2-0.1,0.3c-0.5,0.6-0.5,1.2,0,1.7c0.3,0.3,0.6,0.5,0.9,0.4c0.2,0,0.5-0.1,0.8-0.4c0.2-0.1,0.3-0.1,0.3-0.1
		c0.1,0.1,0,0.2-0.1,0.3c-0.5,0.6-0.5,1.2,0,1.7c0.5,0.5,0.9,0.7,1.2,0.4c0.2-0.2,0.4-0.6,0.4-1.2l0.9-0.3c0.1,0,0.2-0.1,0.3,0
		c0,0,0,0.1,0,0.3C284.9,179.6,284.7,180,284.4,180.3z M284.7,175.4l-1,0l0-1l1,0L284.7,175.4z M285.9,176.7l-1,0l0-1l1,0
		L285.9,176.7z M286.4,174.9l-1,0l0-1l1,0L286.4,174.9z" id="PATH_224" class="area" title=""></path>
</g>
<g id="G_225" class="area" title="">
	<path d="M300.3,180.6c0,1-0.3,1.9-0.9,2.8c-0.5,0.7-1,1.1-1.3,1.1c-0.8,0-1.4,0-2-0.1c-0.2,0-0.3-0.1-0.3-0.1s0.1-0.1,0.3-0.1
		c0.8-0.2,1.6-0.6,2.4-1.2c0.8-0.7,1.3-1.4,1.3-2.1c0-0.4-0.3-1-1-1.7l0.5-0.9c0-0.1,0.1-0.1,0.1-0.1c0,0,0.1,0.1,0.1,0.1
		c0.2,0.3,0.5,0.7,0.6,1.2C300.2,179.8,300.3,180.3,300.3,180.6z" id="PATH_226" class="area" title=""></path>
	<path d="M302.6,179.3c0,0.4-0.1,0.8-0.3,1.1c-0.1,0.2-0.2,0.3-0.2,0.3c0,0-0.1-0.1-0.1-0.4c0-1.2-0.2-4-0.6-8.5l0.8-0.8
		c0.1-0.1,0.1-0.1,0.1-0.1c0,0,0,0.1,0,0.2C302.6,172.5,302.6,175.2,302.6,179.3z" id="PATH_227" class="area" title=""></path>
	<path d="M308.9,180.5h-1.1c-0.1,1.4-0.6,2.5-1.6,3.5c-0.3,0.3-0.5,0.5-0.6,0.5c-0.5,0-1.2-0.1-1.9-0.2c-0.2,0-0.4-0.1-0.4-0.1
		s0.1-0.1,0.4-0.2c0.8-0.2,1.6-0.7,2.3-1.2c0.3-0.3,0.6-0.5,0.8-0.9c0.3-0.4,0.5-0.8,0.5-1.1v-0.3H306c-1,0-1.4-0.4-1.4-1.2
		c0-0.5,0.1-1,0.4-1.6c0.3-0.6,0.7-1,1.1-1c0.5,0,0.9,0.3,1.2,1c0.2,0.5,0.4,1,0.4,1.6h1.1V180.5z M307.1,179.4
		c0-0.3-0.1-0.6-0.3-0.9c-0.2-0.4-0.5-0.5-0.8-0.5c-0.2,0-0.4,0.1-0.5,0.2c-0.2,0.2-0.2,0.3-0.2,0.6c0,0.5,0.4,0.7,1.2,0.7
		C306.5,179.4,306.8,179.4,307.1,179.4z" id="PATH_228" class="area" title=""></path>
	<path d="M316.7,177.6l-0.4,0.8c-0.7,0-1.3,0-1.6,0.1c-0.4,0.2-1,0.4-1.8,0.8c-0.8,0.4-1.4,0.7-1.8,0.8c-0.6,0.2-1.3,0.3-1.9,0.3
		h-0.7v-1.2h0.8c0.9,0,1.7-0.2,2.4-0.5l2.3-1c-0.4-0.1-1-0.3-1.8-0.6c-0.7-0.3-1.1-0.4-1.3-0.4c-0.4,0-0.8,0.2-1.2,0.5
		c-0.1,0.1-0.1,0.1-0.2,0.1c-0.1,0-0.1,0-0.1-0.1c0,0,0-0.1,0-0.1c0.3-1,0.9-1.4,1.7-1.4c0.3,0,0.7,0.1,1.1,0.3
		c0.8,0.4,1.4,0.6,1.8,0.8c0.7,0.2,1.5,0.4,2.4,0.4c0.2,0,0.3,0,0.3,0.1C316.8,177.4,316.7,177.5,316.7,177.6z M313.8,173.1
		l-0.8,0.8l-0.8-0.8l0.8-0.8L313.8,173.1z" id="PATH_229" class="area" title=""></path>
	<path d="M323,180.5h-0.4c-0.4,0-0.6-0.1-0.8-0.2c0,0.1,0,0.2,0,0.3c0,0.9-0.3,1.8-0.9,2.7c-0.5,0.8-1,1.1-1.3,1.1
		c-0.8,0-1.4,0-2-0.1c-0.2,0-0.3-0.1-0.3-0.1s0.1-0.1,0.3-0.1c0.8-0.2,1.6-0.6,2.4-1.2c0.8-0.7,1.3-1.4,1.3-2.1c0-0.4-0.3-1-1-1.7
		l0.5-0.9c0-0.1,0.1-0.1,0.1-0.1c0,0,0.1,0.1,0.1,0.1c0.3,0.4,0.5,0.7,0.7,0.8c0.3,0.2,0.7,0.4,1.1,0.4h0.3V180.5z" id="PATH_230" class="area" title=""></path>
	<path d="M325.4,178.5c0,1.3-0.7,2-2,2h-0.8v-1.2h0.7c1,0,1.5-0.2,1.5-0.5c0-0.3-0.2-0.7-0.7-1.2l0.4-1c0-0.1,0.1-0.1,0.1-0.1
		c0,0,0.1,0.1,0.2,0.2C325.2,177.3,325.4,177.9,325.4,178.5z M325.1,182.7l-0.8,0.8l-0.8-0.8l0.8-0.8L325.1,182.7z" id="PATH_231" class="area" title=""></path>
</g>
</svg>


