



    


<svg version="1.1" id="Layer_1" xmlns="http://www.w3.org/2000/svg" xmlns:xlink="http://www.w3.org/1999/xlink" x="0px" y="0px" viewBox="0 0 502.5 545" style="enable-background:new 0 0 502.5 545;" xml:space="preserve" width="100%" height="100%">
<style type="text/css">
	.st0{fill:#FDFAD6;stroke:#020202;stroke-width:0.2;stroke-miterlimit:10;}
	.st1{fill:#FBD1D1;stroke:#020202;stroke-width:0.2;stroke-miterlimit:10;}
	.st2{fill:#E8D0E5;stroke:#020202;stroke-width:0.2;stroke-miterlimit:10;}
	.st3{fill:#DBECCB;stroke:#020202;stroke-width:0.2;stroke-miterlimit:10;}
	.st4{enable-background:new    ;}
	.st5{fill:#040404;}
	.st6{font-family:'AdobeArabic-Regular';}
	.st7{font-size:16px;}
</style>
		<path class="st0 area" d="M105.6,104.2c4-7.9,8.5-15.3,16.4-16.3c-1-0.9-1.9-1.5-2.3-1.8c-1.4-0.5-7.8-2.8-10.3-5.3
			c-1.5-1.5-2.4-4-3.5-7.2c-1-2.9-2.2-6.1-4.1-9.5C99,59,97.7,49,97.1,43l-13-4.9c-0.3-0.1-6.1-2.6-12-7.7c-2.5-2.1-4.8-3.9-6.9-5.6
			c-2.8-2.2-5.1-4-7.1-5.9c-1.2,0.9-3.4,6.5-4.2,12.8c-0.8,6.2-6,8.5-8.8,8.9l1.3,2.3l2.2,2.9l2.2,1.7L50,52l3.4,9.5l-1.7,5.9l2,1
			l1,1.2l-0.7,1l-2.2,0.3l0.5,1.7l0.2,3.2l0.5,2l0.5,0.7l5.4,5.9l6.1,3.7l2.7,2.4l3.4,5.1l6.4,12.2l3.9,5.9l0.8,0.9
			c5-3.2,9.7-7.9,15-9.6C100.2,104.2,104.1,107.3,105.6,104.2z" id="_x62F__x6CC__x644__x645_" title="دیلم"></path>
		<path class="st1 area" d="M159.7,193.8c-7.7-3.9-13.9-8.5-13.1-17c0-2.3,6.2-3.9,7-6.2c1.5-3.1-5.4-4.6-3.1-7c7-7,6.2-14.7,4.6-23.2
			c-1.5-3.9-6.2-7-3.9-9.3c2.3-3.9,3.9-6.2,6.2-10c2.7-4.1,10.8-7.5,9.6-13.6c-2.9,0.1-6.1,0.4-9.3,0.6c-5.8,0.4-11.8,0.9-17.5,0.9
			c-7,0-10.2-0.7-11.9-2.5c-1.4-1.6-1.2-3.6-1-5.5c0.2-1.3,0.3-2.9,0-4.5c-0.6-3.9-3.3-6.9-5.3-8.7c-8,1-12.5,8.4-16.4,16.3
			c-1.5,3.1-5.4,0-8.5,0.8c-5.3,1.7-10,6.4-15,9.6l3.1,3.4l2,3.2l1,3.4l1.2,1.7l8.6,3.4l4.6,4.9l2.2,3.2l1,2.9l1.2,2.2l7.6,6.4
			l4.2,6.4l0.7,2v-5.1l2.2,1.2l2.9,3.9l1.7,3.4l1.2,4.6l0.7,6.6v6.6l-1,4.2l1.7,3.2l1,1l1.2,0.5l-0.3,1.2l-0.7,6.9l-2-2.4l-1.5,1.2
			l-1,2.9l-1,2.2l-1.2,2.2l-0.5,2l0.5,4.1l1.2,4.6l3.2,2.9l0,0c1.1-0.2,2.1-0.5,3.1-0.9C142.7,210,146.6,196.1,159.7,193.8z" id="_x6AF__x646__x627__x648__x647_" title="گناوه"></path>
		<path class="st2 area" d="M184.4,247.9c1.6-0.8,3.1,0.8,3.9,0.8c1.5,2.3-3.1,5.4-2.3,6.2c12.4,4.6,16.2-10,22.4-17
			c2.3-3.9-7-8.5-5.4-14.7c-1.5,0-1.5-3.1-3.1-3.1c-5.4,0.8-10.8-0.8-13.1-5.4c-0.8-3.1,4.6-7,2.3-8.5c-5.4-4.6-3.9-10.8-9.3-13.9
			c-3.1-2.3-2.3,5.4-5.4,6.2c-5.9,1.8-10.8-2.7-16.2-4.3c-11.9,3.1-15.9,16.1-27,20.5c-1,0.4-2.1,0.7-3.1,0.9l3.9,0.5l3.7-2.4
			l2.7-0.5l11.2-0.5l3.4,0.5l0.5,1l0.2,1.2l0.2,2.9l0.5,0.7l1.2-0.3l1.2-0.7l1-0.3l1.7,1.5l1,1.7l1.2,4.9l2.7-0.7l1.2,2.4l0.5,3.9
			l-0.5,3.7l-1,2l-2.9,2.7l-1,1.2l-0.3,1.7l0.5,1.5l0.2,1.2l-1.5,1.5l-1.5-2.9l-2.2-2.9l-2.9-2.4l-2.7-1.2l-2.9,2l-0.5,4.2l0.7,4.6
			l1.2,3.2l6.6,8.8l1.2,3.4l1.2,1.7l2.7,0.7l5.9,0.5l6.1,1.5l0.2,0.1C176.9,262.3,177.9,252.9,184.4,247.9z" id="_x628__x648__x634__x647__x631_" title="بوشهر"></path>
		<path class="st2 area" d="M393.8,425.1c0-2.3-5.4-8.5-9.4-13c-3.1-3.5-6-6.8-7.5-9.3c-1.9-3.2-8.5-6.4-14.8-9.5
			c-4.5-2.2-9.3-4.5-12.8-7.1c-5-3.6-9.9-12.1-13.5-20c-1.2,0.5-2.3,1.3-3.1,2.2c-6.2,3.1-10,7.7-17.8,6.2c-0.8,2.3-1.5,3.9-3.1,5.4
			c-3.1,1.5-5.4-2.3-6.2-1.5c-6.2,9.3,2.3,20.1,12.4,23.9c1.5,0.8-3.1,3.9-2.3,6.2c3.9,5.4,13.1,0,14.7,8.5c0.8,1.6,7-0.8,8.5,1.6
			c1.5,2.3,1.5,6.2,3.1,9.3c2.3,3.9,8.5,3.1,10.8,10c0.8,2.3,5.4,2.3,6.2,4.6c3.1,3.1,3.9,7.7,8.5,9.3c6.2,2.3,13.1,3.1,19.3,6.2
			c4.9,2.5,12.7,6,19.6,6.4c-3.3-3.5-6.2-6.8-7.5-9C394.8,448.4,393.8,428.5,393.8,425.1z" id="_x645__x62C_" title="مج"></path>
		<path class="st0 area" d="M254,283.4c-1.5-3.1,2.3-7,0-9.3c-3.1-2.3-7-3.1-8.5-7c-0.8-3.9,0-8.5-2.3-10c-6.2-7-7.7-13.9-8.5-22.4
			c-3.9,2.3-9.3-0.8-9.3-2.3c0-15.9-12.4-10.2-22.7-9.3c0.1,0,0.2,0.1,0.3,0.1c-1.5,6.2,7.7,10.8,5.4,14.7c-6.2,7-10,21.6-22.4,17
			c-0.8-0.8,3.9-3.9,2.3-6.2c-0.8,0-2.3-1.5-3.9-0.8c-6.6,5.1-7.5,14.5-11.5,20.1l4.5,2.8l3.7,4.4l3.2,6.1l1.7,7.3l0.2,21.5l1.2,5.4
			l8.6,22.5l1.2,1.7l4.6,5.1l5.1,8.3l1.7,2.2l3.6,3.4c2.5-1.8,4.3-4,4.6-6.6c0-5.4-4.6-10.8-7-15.4c-7-10.8-10-21.6-8.5-34.8
			c0.8-6.2,4.6-11.6,9.3-13.1c6.2-2.3,11.6-6.2,17.8-7c11.6-2.3,14.7,10.8,24.7,13.9c5.2,1.3,10.5-2.4,15.7-2.6
			C263.6,290.3,256.2,288.7,254,283.4z" id="_x62A__x646__x6AF__x633__x62A__x627__x646_" title="تنگستان"></path>
		<path class="st3 area" d="M310.7,279.6c0-0.4,0-0.8,0-1.3c0.1-4.7,0.4-15.9-6.8-23.1c-4.8-4.8-12.6-21.1-20.1-36.7
			c-5.7-11.9-11.6-24.3-14.2-26.8c-6.4-6.4-13.9-17.8-17.4-23.6c-3.3-5.6-18.7-15.1-28-16.2c-10.5-1.3-16.3-9.1-16.3-14
			c0-2.7-2.3-15.5-3.4-21.6c-4.9-0.9-20.6-4-25.2-7.4c-1.7-1.3-6.6-1.4-12.5-1.1c1.2,6-6.9,9.5-9.6,13.6c-2.3,3.9-3.9,6.2-6.2,10
			c-2.3,2.3,2.3,5.4,3.9,9.3c1.5,8.5,2.3,16.2-4.6,23.2c-2.3,2.3,4.6,3.9,3.1,7c-0.8,2.3-7,3.9-7,6.2c-0.8,8.5,5.4,13.1,13.1,17
			c-0.6,0.1-1.1,0.2-1.6,0.4c5.4,1.6,10.4,6,16.3,4.3c3.1-0.8,2.3-8.5,5.4-6.2c5.4,3.1,3.9,9.3,9.3,13.9c2.3,1.5-3.1,5.4-2.3,8.5
			c2.3,4.6,7.7,6.2,13.1,5.4c1.4,0,1.5,2.7,2.8,3c10.4-0.8,22.7-6.6,22.7,9.3c0,1.5,5.4,4.6,9.3,2.3c0.8,8.5,2.3,15.4,8.5,22.4
			c2.3,1.5,1.5,6.2,2.3,10c1.5,3.9,5.4,4.6,8.5,7c2.3,2.3-1.5,6.2,0,9.3c2.3,5.3,9.6,6.9,15,9.8c0.9,0,1.9,0,2.8,0.3
			c3.9,1.5,6.2,3.9,10,4.6c11.2,0.8,21.6-2.1,32-5.8C311.8,285.2,310.7,280.7,310.7,279.6z" id="_x62F__x634__x62A__x633__x62A__x627__x646_" title="دشتستان"></path>
		<path class="st1 area" d="M330.3,350.9c-0.5-2.5-4-14.9-7.8-28c-3.6-12.7-6.6-23.1-8.7-30.6c-10.4,3.7-20.9,6.5-32,5.8
			c-3.9-0.8-6.2-3.1-10-4.6c-6.2-1.5-12.4,3.9-18.5,2.3c-10-3.1-13.1-16.2-24.7-13.9c-6.2,0.8-11.6,4.6-17.8,7
			c-4.6,1.5-8.5,7-9.3,13.1c-1.5,13.1,1.5,24,8.5,34.8c2.3,4.6,7,10,7,15.4c-0.4,2.6-2.2,4.8-4.6,6.6l1.3,1.2l2.9,4.9l0.2,4.6
			l-3.2,9l0.1,1.2c2-0.8,4.2-1.1,6.4-0.6c1.5,0.8,3.1,2.3,3.9,4.6c5.4-3.1,7.7-2.3,11.6,3.1c0.8,2.3,0.8-5.4,5.4-3.9
			c1.5,0.8,0.8,3.9,3.1,4.6c0.8-2.3,1.6-4.6,3.1-4.6c2.3-0.8,5.4,3.1,7,0.8c4.6-4.6,8.5-11.6,16.2-10c0-3.9,4.6-8.5,7-6.2
			c5.4,4.6,6.2,13.1,13.9,15.5c5.4,1.5,6.2-4.6,10-6.2c1.7,0,3.3,0.4,4.7,1.5c0.8-0.5,3.1,3.1,6.1,1.6c1.5-1.5,2.3-3.1,3.1-5.4
			c7.7,1.6,11.6-3.1,17.8-6.2c0.8-0.9,1.9-1.7,3.1-2.2C332.9,359.8,330.9,353.7,330.3,350.9z" id="_x62F__x634__x62A__x6CC_" title="دشتی"></path>
		<path class="st3 area" d="M338.9,418.6c-1.5-2.3-7.7,0-8.5-1.6c-1.6-8.5-10.8-3.1-14.7-8.5c-0.8-2.3,3.9-5.4,2.3-6.2
			c-10-3.9-18.5-14.7-12.4-23.9c0,0,0.1,0,0.1,0c-1.4-1.1-3-1.5-4.7-1.5c-3.9,1.5-4.6,7.7-10,6.2c-7.7-2.3-8.5-10.8-13.9-15.5
			c-2.3-2.3-7,2.3-7,6.2c-7.7-1.6-11.6,5.4-16.2,10c-1.5,2.3-4.6-1.5-7-0.8c-1.6,0-2.3,2.3-3.1,4.6c-2.3-0.8-1.5-3.9-3.1-4.6
			c-4.6-1.6-4.6,6.2-5.4,3.9c-3.9-5.4-6.2-6.2-11.6-3.1c-0.8-2.3-2.3-3.9-3.9-4.6c-2.2-0.4-4.3-0.1-6.4,0.6l0.2,3.2l0.5,2.4l1.2,1.7
			l10,10l2.9,2.2l6.6,2l3.7,1.7l1.5,2.7l0.5,4.2l1.5,3.2l1.7,2.4l6.6,7.1l2.9,2.4l3.9,1.2l0.7,1l0.5,1.2l0.2,1.5l0.7,1.2l1.7,0.5
			l15.6,1.2l2.9-0.2l8.3-2h7.1l3.4,1l2.7,2l2.4,0.7l9.8-1.5l6.8,1l2.4,1.1c3.7-3.9,7.9-6.3,13.9-6.3c1.5,0,2.3-2.3,3.9-3.1
			c0.2,0,0.5,0,0.7,0C340.4,423,340.1,420.4,338.9,418.6z" id="_x62F__x6CC__x631_" title="دیر"></path>
		<path class="st0 area" d="M406.5,464.4c-6.9-0.3-14.7-3.9-19.6-6.4c-6.2-3.1-13.1-3.9-19.3-6.2c-4.6-1.5-5.4-6.2-8.5-9.3
			c-0.8-2.3-5.4-2.3-6.2-4.6c-2.3-7-8.5-6.2-10.8-10c-0.4-0.7-0.6-1.5-0.9-2.3c-0.2,0-0.5,0-0.7,0c-1.5,0.8-2.3,3.1-3.9,3.1
			c-6,0-10.1,2.3-13.9,6.3l3.5,1.6l5.4,3.7l16.9,16.4l5.4,2.9l25.4,5.9l5.4,2.4l4.6,3.9l10.7,11.5l0.7,1.2c2.1-0.2,4.1-0.8,5.4-2.5
			c1.9-3.8,1.7-10.2,5-12.8C409.6,467.6,408,466,406.5,464.4z" id="_x6A9__x646__x6AF__x627__x646_" title="کنگان"></path>
		<path class="st1 area" d="M452.5,509.2c-1.6-2.3-3.2-4.5-4.3-5.3c-2.7-2.1-4.3-4.5-5.9-7.2c-1.1-1.7-2.1-3.5-3.7-5.4
			c-3.8-4.8-11.7-9.8-17.8-12.8l-0.4-0.3c-0.4-0.3-4.6-4.3-9.3-9c-3.3,2.6-3.1,9-5,12.8c-1.3,1.7-3.3,2.3-5.4,2.5l0.3,0.5l2.2,5.6
			l1.2,2l2.2,2l5.9,2.2l2.2,2.2l1.2,3.9l-1.7,1.7l-3.2,0.2h-2.7l-2.9,0.3l-2.4,1l-1.2,2.2l0.2,3.4l2.9,3.4l11,5.1l7.6,3.4l4.5,3.2
			c0.1-0.7,0.5-1.3,1.2-1.5l28.1-9.7C455.6,513.6,454,511.3,452.5,509.2z" id="_x639__x633__x644__x648__x6CC__x647_" title="عسلویه"></path>

	<g class="st4 area" id="G_13" title="">
		<path class="st5 area" d="M133.9,227.3l-0.4,1" id="PATH_14" title=""></path>
	</g>

<g id="G_15" class="area" title="">
	<path d="M76.8,70h-0.5c-0.6,0-1.1-0.1-1.4-0.4c0,0.1,0.1,0.3,0.1,0.5c0,1-0.3,1.6-1,1.6c-0.6,0-1-0.3-1.4-0.9
		c-0.3-0.5-0.4-1.1-0.4-1.7c0-0.1,0-0.3,0-0.4c-0.1,0-0.2,0-0.3,0c-0.7,0-1.1,0.2-1.4,0.5c0.2,1.6,0.3,2.8,0.3,3.6
		c0,0.4-0.1,0.8-0.3,1.4c-0.1,0.2-0.1,0.3-0.2,0.3c0,0-0.1-0.1-0.1-0.4l-0.5-4.6c0-0.2,0.1-0.5,0.3-0.8c0.2-0.3,0.4-0.5,0.6-0.7
		c0.1-0.1,0.4-0.2,0.8-0.3c0.3-0.1,0.6-0.1,0.8-0.1c0.1,0,0.1,0,0.2,0l0.1-0.6c0-0.1,0.1-0.2,0.1-0.2c0,0,0.1,0,0.2,0.1
		c0.8,0.7,1.4,1.2,1.7,1.4c0.6,0.4,1.1,0.6,1.6,0.6h0.6V70z M74.5,69.9c0-0.3-0.2-0.6-0.6-1c-0.1-0.1-0.4-0.4-1.1-1
		c0,0.2,0,0.4,0,0.6c0,0.5,0.1,0.9,0.3,1.2c0.2,0.5,0.5,0.7,0.9,0.7C74.3,70.5,74.5,70.3,74.5,69.9z" id="PATH_16" class="area" title=""></path>
	<path d="M80.5,70h-0.4c-0.9,0-1.5-0.3-1.8-1c-0.1,0.3-0.3,0.5-0.6,0.7c-0.3,0.2-0.6,0.3-0.9,0.3h-0.4v-1.2h0.4c0.8,0,1.2-0.3,1.2-1
		v-3.5c0-1.3,0-2.3-0.1-3l0.9-0.7v6.7c0,1,0.4,1.5,1.3,1.5h0.4V70z" id="PATH_17" class="area" title=""></path>
	<path d="M82.9,68c0,1.3-0.7,2-2,2h-0.8v-1.2h0.7c1,0,1.5-0.2,1.5-0.5c0-0.3-0.2-0.7-0.7-1.2l0.4-1c0-0.1,0.1-0.1,0.1-0.1
		c0,0,0.1,0.1,0.2,0.2C82.7,66.7,82.9,67.4,82.9,68z M82.1,72.2L81.3,73l-0.8-0.8l0.8-0.8L82.1,72.2z M83.8,72.2L83,73l-0.8-0.8
		l0.8-0.8L83.8,72.2z" id="PATH_18" class="area" title=""></path>
	<path d="M89.9,67.9c0,1.4-0.9,2.1-2.8,2.1c-0.7,0-1.2-0.1-1.5-0.3C85.2,69.5,85,69,85,68.4c0-0.3,0.1-0.6,0.2-0.9
		c0.1-0.1,0.1-0.2,0.2-0.2c0.1,0,0.1,0.1,0.1,0.3c0,0.1,0,0.2,0,0.3c0,0.4,0.2,0.7,0.6,0.8c0.2,0.1,0.6,0.1,1.1,0.1
		c1.5,0,2.2-0.2,2.2-0.7c0-0.7-0.9-1.7-2.6-2.9l0.3-1c0-0.1,0.1-0.1,0.1-0.1c0,0,0.1,0,0.2,0.1C89.1,65.5,89.9,66.8,89.9,67.9z" id="PATH_19" class="area" title=""></path>
</g>
<g id="G_20" class="area" title="">
	<path d="M123.7,135.4c0,0.7-0.2,1.2-0.6,1.6c-0.4,0.4-1,0.5-1.6,0.5c-0.4,0-0.8-0.1-1.1-0.4c-0.3-0.3-0.5-0.6-0.5-1
		c0-0.5,0.2-1,0.6-1.7c0.3-0.6,0.7-1.1,1.1-1.5C123,133.6,123.7,134.4,123.7,135.4z M123.1,135.8c0-0.3-0.2-0.6-0.7-1
		c-0.4-0.4-0.7-0.6-1.1-0.7c-0.5,0.7-0.8,1.2-0.8,1.6c0,0.2,0.1,0.4,0.4,0.6c0.2,0.1,0.4,0.2,0.7,0.2c0.4,0,0.8-0.1,1.1-0.2
		C123,136,123.1,135.9,123.1,135.8z" id="PATH_21" class="area" title=""></path>
	<path d="M128.8,137.1c0,1.5-0.5,2.8-1.5,3.8c-0.3,0.3-0.5,0.5-0.6,0.5c-0.6,0-1.2-0.1-1.9-0.2c-0.3,0-0.4-0.1-0.4-0.1
		c0,0,0.1-0.1,0.4-0.2c0.8-0.2,1.6-0.7,2.3-1.3c0.3-0.3,0.6-0.5,0.8-0.9c0.3-0.4,0.5-0.8,0.5-1.1v-0.3l-1.3,0
		c-0.9,0-1.4-0.4-1.4-1.1c0-0.5,0.1-1,0.4-1.6c0.3-0.6,0.7-1,1.1-1c0.6,0,1.1,0.4,1.4,1.3C128.7,135.6,128.8,136.3,128.8,137.1z
		 M128.1,136.3c0-0.3-0.1-0.6-0.3-0.9c-0.2-0.3-0.5-0.5-0.8-0.5c-0.2,0-0.4,0.1-0.5,0.2c-0.2,0.2-0.2,0.3-0.2,0.5
		c0,0.5,0.3,0.7,1,0.7C127.4,136.4,127.7,136.3,128.1,136.3z" id="PATH_22" class="area" title=""></path>
	<path d="M132.8,137.5h-0.7c-0.7,0-1.3-0.3-1.5-0.9c-0.2-0.4-0.3-1.1-0.3-1.9v-1.9c0-0.9-0.1-2.2-0.2-3.9l0.6-0.7
		c0.1-0.1,0.2-0.1,0.2,0c0.1,0.9,0.2,2.2,0.2,3.9v2.9c0,0.8,0.4,1.2,1.2,1.2h0.5V137.5z" id="PATH_23" class="area" title=""></path>
	<path d="M137.7,137.5H137c-0.9,0-1.5-0.3-1.9-0.9c-0.3,0.6-1,0.9-2.1,0.9h-0.6v-1.2h0.9c1,0,1.5-0.4,1.6-1.1c0-0.3,0.1-0.5,0.2-0.5
		c0.1,0,0.2,0.2,0.2,0.5c0.1,0.7,0.6,1.1,1.5,1.1h0.9V137.5z M135.7,132.3l-0.8,0.8l-0.8-0.8l0.8-0.8L135.7,132.3z" id="PATH_24" class="area" title=""></path>
	<path d="M143.7,129.4c0,0.2-0.1,0.5-0.3,1.1c-1.2,0.3-2.7,0.8-4.4,1.3c1.2,1.2,1.9,2.2,2,2.9c0.1,0.5,0,1-0.2,1.5
		c-0.2,0.5-0.6,0.8-1.1,1c-0.4,0.2-1.1,0.2-2,0.2h-0.4v-1.2h0.3c1.9,0,2.9-0.3,2.9-1c0-0.5-0.5-1.3-1.6-2.3l-0.1,0.3
		c-0.1-0.1-0.3-0.3-0.5-0.6c-0.3-0.3-0.4-0.5-0.4-0.6c0-0.3,0.1-0.6,0.4-0.9c0.1-0.1,0.7-0.3,2-0.7
		C141.6,130,142.8,129.7,143.7,129.4z M143.5,127.9l-0.2,0.7l-4.9,1.6l0.2-0.7L143.5,127.9z" id="PATH_25" class="area" title=""></path>
</g>
<g id="G_26" class="area" title="">
	<path d="M197.3,185.9c0.1,0.3,0.1,0.6,0.1,0.9c0,0.4-0.1,0.7-0.2,1.1c-0.3,0.7-0.8,1.3-1.8,1.7c-0.8,0.3-1.6,0.5-2.5,0.5
		c-0.9,0-1.6-0.2-2.2-0.6c-0.6-0.5-0.9-1.1-0.9-2c0-0.5,0.1-0.9,0.3-1.5c0.2-0.4,0.3-0.7,0.5-0.9c0.1-0.1,0.2-0.1,0.2-0.1
		c0.1,0,0.1,0,0.1,0.1c0,0,0,0.1,0,0.2c-0.3,0.6-0.4,1.2-0.4,1.7c0,0.5,0.2,0.9,0.5,1.3c0.4,0.5,1.1,0.7,2,0.7c1,0,1.9-0.2,2.6-0.5
		c0.6-0.3,1-0.6,1.2-1c0.1-0.1,0.1-0.3,0.1-0.4c0-0.3-0.1-0.6-0.2-1c-0.1-0.3-0.4-0.8-0.9-1.6l0.4-0.8c0.1-0.1,0.1-0.2,0.1-0.2
		s0.1,0,0.1,0.1C196.9,184.3,197.2,185.1,197.3,185.9z M194.4,181.5l-0.8,0.8l-0.8-0.8l0.8-0.8L194.4,181.5z" id="PATH_27" class="area" title=""></path>
	<path d="M201.4,186h-0.7c-0.7,0-1.3-0.3-1.5-0.9c-0.2-0.4-0.3-1.1-0.3-1.9v-1.9c0-0.9-0.1-2.2-0.2-3.9l0.6-0.7
		c0.1-0.1,0.2-0.1,0.2,0c0.1,0.9,0.2,2.2,0.2,3.9v2.9c0,0.8,0.4,1.2,1.2,1.2h0.5V186z" id="PATH_28" class="area" title=""></path>
	<path d="M206.3,186h-0.8c-0.9,0-1.5-0.3-1.9-0.9c-0.3,0.6-1,0.9-2.1,0.9H201v-1.2h0.9c1,0,1.5-0.4,1.6-1.1c0-0.3,0.1-0.5,0.2-0.5
		c0.1,0,0.2,0.2,0.2,0.5c0.1,0.7,0.6,1.1,1.5,1.1h0.9V186z M202.9,180.2l-0.8,0.8l-0.8-0.8l0.8-0.8L202.9,180.2z M204.6,180.2
		l-0.8,0.8l-0.8-0.8l0.8-0.8L204.6,180.2z" id="PATH_29" class="area" title=""></path>
	<path d="M215.5,186H215c-0.7,0-1.1-0.3-1.4-0.8c-0.2,0.6-0.7,0.8-1.3,0.8c-0.6,0-1-0.3-1.3-0.8c-0.3,0.6-0.7,0.8-1.3,0.8
		c-0.7,0-1.2-0.3-1.5-0.8c-0.4,0.6-0.9,0.8-1.6,0.8h-0.7v-1.2h0.8c0.7,0,1.2-0.4,1.3-1.2c0-0.2,0.1-0.3,0.2-0.3
		c0.1,0,0.1,0.1,0.2,0.3c0.1,0.8,0.5,1.2,1.3,1.2c0.7,0,1.2-0.4,1.2-1.2c0-0.2,0.1-0.3,0.2-0.3c0.1,0,0.2,0.1,0.2,0.3
		c0.1,0.8,0.5,1.2,1,1.2c0.7,0,1.2-0.4,1.2-1.2c0-0.2,0.1-0.3,0.2-0.3c0.1,0,0.2,0.1,0.2,0.3c0.1,0.8,0.5,1.2,1.2,1.2h0.6V186z" id="PATH_30" class="area" title=""></path>
	<path d="M220.5,186h-0.8c-0.9,0-1.5-0.3-1.9-0.9c-0.3,0.6-1,0.9-2.1,0.9h-0.6v-1.2h0.9c1,0,1.5-0.4,1.6-1.1c0-0.3,0.1-0.5,0.2-0.5
		c0.1,0,0.2,0.2,0.2,0.5c0.1,0.7,0.6,1.1,1.5,1.1h0.9V186z M217.1,180.2l-0.8,0.8l-0.8-0.8l0.8-0.8L217.1,180.2z M218.8,180.2
		L218,181l-0.8-0.8l0.8-0.8L218.8,180.2z" id="PATH_31" class="area" title=""></path>
	<path d="M228.4,183.9c0,0.6-0.1,1.1-0.4,1.5c-0.3,0.4-0.8,0.7-1.3,0.7c-0.7,0-1.1-0.3-1.4-0.8c-0.4,0.6-0.8,0.8-1.4,0.8
		c-0.7,0-1.2-0.3-1.5-0.8c-0.4,0.6-0.9,0.8-1.6,0.8h-0.7v-1.2h0.8c0.7,0,1.2-0.4,1.3-1.2c0-0.2,0.1-0.3,0.2-0.3
		c0.1,0,0.1,0.1,0.2,0.3c0.1,0.8,0.5,1.2,1.3,1.2c0.4,0,0.8-0.1,1-0.3c0.1-0.2,0.2-0.4,0.3-0.8c0-0.2,0.1-0.3,0.2-0.3
		c0.1,0,0.1,0.1,0.2,0.3c0.1,0.8,0.5,1.2,1.2,1.2c0.8,0,1.1-0.2,1.1-0.5c0-0.3-0.2-0.7-0.6-1.1l0.5-0.9c0.1-0.1,0.1-0.2,0.2-0.2
		s0.1,0.1,0.2,0.2C228.2,182.9,228.4,183.4,228.4,183.9z M225,180.2l-0.7,0.7l-0.7-0.7l0.7-0.7L225,180.2z M225.9,178.7l-0.7,0.7
		l-0.7-0.7l0.7-0.7L225.9,178.7z M226.8,180.2l-0.7,0.7l-0.7-0.7l0.7-0.7L226.8,180.2z" id="PATH_32" class="area" title=""></path>
	<path d="M234.5,183.9c0,1.4-0.9,2.1-2.8,2.1c-0.7,0-1.2-0.1-1.5-0.3c-0.4-0.2-0.6-0.7-0.6-1.3c0-0.3,0.1-0.6,0.2-0.9
		c0.1-0.1,0.1-0.2,0.2-0.2c0.1,0,0.1,0.1,0.1,0.3c0,0.1,0,0.2,0,0.3c0,0.4,0.2,0.7,0.6,0.8c0.2,0.1,0.6,0.1,1.1,0.1
		c1.5,0,2.2-0.2,2.2-0.7c0-0.7-0.9-1.7-2.6-2.9l0.3-1c0-0.1,0.1-0.1,0.1-0.1c0,0,0.1,0,0.2,0.1C233.7,181.5,234.5,182.8,234.5,183.9
		z" id="PATH_33" class="area" title=""></path>
</g>
<g id="G_34" class="area" title="">
	<path d="M174.3,229.9h-0.4c-0.4,0-0.6-0.1-0.8-0.2c0,0.1,0,0.2,0,0.3c0,0.9-0.3,1.8-0.9,2.7c-0.5,0.8-1,1.1-1.3,1.1
		c-0.8,0-1.4,0-2-0.1c-0.2,0-0.3-0.1-0.3-0.1s0.1-0.1,0.3-0.1c0.8-0.2,1.6-0.6,2.4-1.2c0.8-0.7,1.3-1.4,1.3-2.1c0-0.4-0.3-1-1-1.7
		l0.5-0.9c0-0.1,0.1-0.1,0.1-0.1c0,0,0.1,0.1,0.1,0.1c0.3,0.4,0.5,0.7,0.7,0.8c0.3,0.2,0.7,0.4,1.1,0.4h0.3V229.9z" id="PATH_35" class="area" title=""></path>
	<path d="M180.5,229.9H180c-0.4,0-0.8,0.1-1.1,0.2c-0.5,0.2-0.8,0.5-0.8,1c0,0.6,0.4,1.1,1.2,1.6l-0.5,1c-0.9-0.3-1.7-0.8-2.3-1.4
		c-0.8-0.7-1.2-1.6-1.2-2.5h-1.4v-1.2h1.3c0-0.8,0.2-1.6,0.6-2.6c0.4-0.9,0.7-1.3,0.9-1.3c0.2,0,0.5,0.4,0.8,1.3
		c0.3,0.8,0.4,1.3,0.4,1.6c0,1.4-0.7,2.1-2.1,2.1c0.1,0.4,0.3,0.8,0.6,1.2c0.3,0.4,0.7,0.7,1.1,0.9c0-0.1,0-0.3,0-0.4
		c0-0.7,0.2-1.3,0.5-1.8c0.5-0.7,1.1-1.1,2-1.1h0.4V229.9z M177.5,228.3c0-0.2-0.1-0.6-0.3-1.1c-0.2-0.6-0.4-0.8-0.6-0.8
		c-0.1,0-0.3,0.2-0.5,0.7c-0.2,0.5-0.3,1.1-0.3,1.7C176.9,228.7,177.5,228.6,177.5,228.3z" id="PATH_36" class="area" title=""></path>
	<path d="M188.4,227.8c0,0.6-0.1,1.1-0.4,1.5c-0.3,0.4-0.8,0.7-1.3,0.7c-0.7,0-1.1-0.3-1.4-0.8c-0.4,0.6-0.8,0.8-1.4,0.8
		c-0.7,0-1.2-0.3-1.5-0.8c-0.4,0.6-0.9,0.8-1.6,0.8h-0.7v-1.2h0.8c0.7,0,1.2-0.4,1.3-1.2c0-0.2,0.1-0.3,0.2-0.3
		c0.1,0,0.1,0.1,0.2,0.3c0.1,0.8,0.5,1.2,1.3,1.2c0.4,0,0.8-0.1,1-0.3c0.1-0.2,0.2-0.4,0.3-0.8c0-0.2,0.1-0.3,0.2-0.3
		c0.1,0,0.1,0.1,0.2,0.3c0.1,0.8,0.5,1.2,1.2,1.2c0.8,0,1.1-0.2,1.1-0.5c0-0.3-0.2-0.7-0.6-1.1l0.5-0.9c0.1-0.1,0.1-0.2,0.2-0.2
		s0.1,0.1,0.2,0.2C188.2,226.8,188.4,227.3,188.4,227.8z M185,224.1l-0.7,0.7l-0.7-0.7l0.7-0.7L185,224.1z M185.9,222.5l-0.7,0.7
		l-0.7-0.7l0.7-0.7L185.9,222.5z M186.8,224.1l-0.7,0.7l-0.7-0.7l0.7-0.7L186.8,224.1z" id="PATH_37" class="area" title=""></path>
	<path d="M194.7,229.9h-1.1c-0.1,1.4-0.6,2.5-1.6,3.5c-0.3,0.3-0.5,0.5-0.6,0.5c-0.5,0-1.2-0.1-1.9-0.2c-0.2,0-0.4-0.1-0.4-0.1
		s0.1-0.1,0.4-0.2c0.8-0.2,1.6-0.7,2.3-1.2c0.3-0.3,0.6-0.5,0.8-0.9c0.3-0.4,0.5-0.8,0.5-1.1v-0.3h-1.3c-1,0-1.4-0.4-1.4-1.2
		c0-0.5,0.1-1,0.4-1.6c0.3-0.6,0.7-1,1.1-1c0.5,0,0.9,0.3,1.2,1c0.2,0.5,0.4,1,0.4,1.6h1.1V229.9z M192.9,228.7
		c0-0.3-0.1-0.6-0.3-0.9c-0.2-0.4-0.5-0.5-0.8-0.5c-0.2,0-0.4,0.1-0.5,0.2s-0.2,0.3-0.2,0.6c0,0.5,0.4,0.7,1.2,0.7
		C192.3,228.7,192.6,228.7,192.9,228.7z" id="PATH_38" class="area" title=""></path>
	<path d="M197,227.9c0,1.3-0.7,2-2,2h-0.8v-1.2h0.7c1,0,1.5-0.2,1.5-0.5c0-0.3-0.2-0.7-0.7-1.2l0.4-1c0-0.1,0.1-0.1,0.1-0.1
		s0.1,0.1,0.2,0.2C196.8,226.6,197,227.2,197,227.9z M196.7,232.1l-0.8,0.8l-0.8-0.8l0.8-0.8L196.7,232.1z" id="PATH_39" class="area" title=""></path>
</g>
<g id="G_40" class="area" title="">
	<path d="M197.1,272.4c0.1,0.3,0.1,0.6,0.1,0.9c0,0.4-0.1,0.7-0.2,1.1c-0.3,0.7-0.8,1.3-1.8,1.7c-0.8,0.3-1.6,0.5-2.5,0.5
		c-0.9,0-1.6-0.2-2.2-0.6c-0.6-0.5-0.9-1.1-0.9-2c0-0.5,0.1-0.9,0.3-1.5c0.2-0.4,0.3-0.7,0.5-0.9c0.1-0.1,0.2-0.1,0.2-0.1
		c0.1,0,0.1,0,0.1,0.1c0,0,0,0.1,0,0.2c-0.3,0.6-0.4,1.2-0.4,1.7c0,0.5,0.2,0.9,0.5,1.3c0.4,0.5,1.1,0.7,2,0.7c1,0,1.9-0.2,2.6-0.5
		c0.6-0.3,1-0.6,1.2-1c0.1-0.1,0.1-0.3,0.1-0.4c0-0.3-0.1-0.6-0.2-1c-0.1-0.3-0.4-0.8-0.9-1.6l0.4-0.8c0.1-0.1,0.1-0.2,0.1-0.2
		s0.1,0,0.1,0.1C196.7,270.8,197,271.6,197.1,272.4z M194.1,268l-0.8,0.8l-0.8-0.8l0.8-0.8L194.1,268z" id="PATH_41" class="area" title=""></path>
	<path d="M201.2,272.5h-0.7c-0.7,0-1.3-0.3-1.5-0.9c-0.2-0.4-0.3-1.1-0.3-1.9v-1.9c0-0.9-0.1-2.2-0.2-3.9l0.6-0.7
		c0.1-0.1,0.2-0.1,0.2,0c0.1,0.9,0.2,2.2,0.2,3.9v2.9c0,0.8,0.4,1.2,1.2,1.2h0.5V272.5z" id="PATH_42" class="area" title=""></path>
	<path d="M206.1,272.5h-0.8c-0.9,0-1.5-0.3-1.9-0.9c-0.3,0.6-1,0.9-2.1,0.9h-0.6v-1.2h0.9c1,0,1.5-0.4,1.6-1.1
		c0-0.3,0.1-0.5,0.2-0.5c0.1,0,0.2,0.2,0.2,0.5c0.1,0.7,0.6,1.1,1.5,1.1h0.9V272.5z M202.7,266.7l-0.8,0.8l-0.8-0.8l0.8-0.8
		L202.7,266.7z M204.4,266.7l-0.8,0.8l-0.8-0.8l0.8-0.8L204.4,266.7z" id="PATH_43" class="area" title=""></path>
	<path d="M215.3,272.5h-0.6c-0.7,0-1.1-0.3-1.4-0.8c-0.2,0.6-0.7,0.8-1.3,0.8c-0.6,0-1-0.3-1.3-0.8c-0.3,0.6-0.7,0.8-1.3,0.8
		c-0.7,0-1.2-0.3-1.5-0.8c-0.4,0.6-0.9,0.8-1.6,0.8h-0.7v-1.2h0.8c0.7,0,1.2-0.4,1.3-1.2c0-0.2,0.1-0.3,0.2-0.3
		c0.1,0,0.1,0.1,0.2,0.3c0.1,0.8,0.5,1.2,1.3,1.2c0.7,0,1.2-0.4,1.2-1.2c0-0.2,0.1-0.3,0.2-0.3c0.1,0,0.2,0.1,0.2,0.3
		c0.1,0.8,0.5,1.2,1,1.2c0.7,0,1.2-0.4,1.2-1.2c0-0.2,0.1-0.3,0.2-0.3c0.1,0,0.2,0.1,0.2,0.3c0.1,0.8,0.5,1.2,1.2,1.2h0.6V272.5z" id="PATH_44" class="area" title=""></path>
	<path d="M222.1,272.5h-0.6c-0.5,0-1.1-0.2-1.6-0.7c-0.4-0.3-0.8-0.9-1.3-1.6c-0.1,1.5-1.1,2.3-3.1,2.3h-0.6v-1.2h0.4
		c1.8,0,2.8-0.4,2.8-1.1c0-0.6-0.4-1.3-1.3-2.1c-0.4-0.4-0.8-0.7-1.3-1.1c0-0.4,0.1-0.7,0.3-1c0.1-0.1,1.9-0.7,5.5-1.8
		c0,0.1-0.1,0.5-0.3,1.1c-0.9,0.2-2.4,0.7-4.4,1.3c1,1.1,2,2.1,2.7,3c0.5,0.5,0.8,0.9,1.1,1.1c0.4,0.3,0.9,0.5,1.4,0.5h0.4V272.5z
		 M221,262.9l-0.2,0.7l-4.9,1.6l0.2-0.7L221,262.9z" id="PATH_45" class="area" title=""></path>
	<path d="M227,272.5h-0.8c-0.9,0-1.5-0.3-1.9-0.9c-0.3,0.6-1,0.9-2.1,0.9h-0.6v-1.2h0.9c1,0,1.5-0.4,1.6-1.1c0-0.3,0.1-0.5,0.2-0.5
		c0.1,0,0.2,0.2,0.2,0.5c0.1,0.7,0.6,1.1,1.5,1.1h0.9V272.5z M225,267.3l-0.8,0.8l-0.8-0.8l0.8-0.8L225,267.3z" id="PATH_46" class="area" title=""></path>
	<path d="M229.4,270.5c0,1.3-0.7,2-2,2h-0.8v-1.2h0.7c1,0,1.5-0.2,1.5-0.5c0-0.3-0.2-0.7-0.7-1.2l0.4-1c0-0.1,0.1-0.1,0.1-0.1
		c0,0,0.1,0.1,0.2,0.2C229.2,269.2,229.4,269.9,229.4,270.5z M228.4,266.1l-0.8,0.8l-0.8-0.8l0.8-0.8L228.4,266.1z M230.2,266.1
		l-0.8,0.8l-0.8-0.8l0.8-0.8L230.2,266.1z" id="PATH_47" class="area" title=""></path>
</g>
<g id="G_48" class="area" title="">
	<path d="M242.4,321.1h-2.3c-0.3,0-0.6,0-0.8,0.1c-0.4,0.1-0.5,0.3-0.5,0.5c0,0.1,0.5,0.2,1.4,0.4s1.4,0.4,1.4,0.6
		c0,0.8-0.2,1.4-0.7,1.8c-0.8,0.7-2.1,1-4,1c-2.3,0-3.5-0.9-3.5-2.6c0-0.4,0.1-0.8,0.3-1.3c0.2-0.5,0.4-0.9,0.6-1.2
		c0.1-0.1,0.2-0.2,0.3-0.2s0.1,0,0.1,0.1c0,0.1,0,0.2-0.1,0.3c-0.3,0.6-0.5,1.2-0.5,1.8c0,0.7,0.3,1.2,1,1.5
		c0.5,0.3,1.1,0.4,1.9,0.4c0.8,0,1.5,0,2.2-0.1c1.2-0.2,1.8-0.4,1.8-0.8c0-0.2-0.3-0.3-0.8-0.4c-0.8-0.1-1.3-0.2-1.5-0.3
		c-0.5-0.1-0.8-0.4-0.8-0.7c0-0.2,0.1-0.5,0.4-0.9c0.2-0.3,0.4-0.5,0.7-0.7c0.5-0.4,1.1-0.6,2-0.6h1.4V321.1z" id="PATH_49" class="area" title=""></path>
	<path d="M247.3,321.1h-0.8c-0.9,0-1.5-0.3-1.9-0.9c-0.3,0.6-1,0.9-2.1,0.9H242v-1.2h0.9c1,0,1.5-0.4,1.6-1.1c0-0.3,0.1-0.5,0.2-0.5
		c0.1,0,0.2,0.2,0.2,0.5c0.1,0.7,0.6,1.1,1.5,1.1h0.9V321.1z M243.9,315.3l-0.8,0.8l-0.8-0.8l0.8-0.8L243.9,315.3z M245.6,315.3
		l-0.8,0.8l-0.8-0.8l0.8-0.8L245.6,315.3z" id="PATH_50" class="area" title=""></path>
	<path d="M255.2,319c0,0.6-0.1,1.1-0.4,1.5c-0.3,0.4-0.8,0.7-1.3,0.7c-0.7,0-1.1-0.3-1.4-0.8c-0.4,0.6-0.8,0.8-1.4,0.8
		c-0.7,0-1.2-0.3-1.5-0.8c-0.4,0.6-0.9,0.8-1.6,0.8h-0.7v-1.2h0.8c0.7,0,1.2-0.4,1.3-1.2c0-0.2,0.1-0.3,0.2-0.3
		c0.1,0,0.1,0.1,0.2,0.3c0.1,0.8,0.5,1.2,1.3,1.2c0.4,0,0.8-0.1,1-0.3c0.1-0.2,0.2-0.4,0.3-0.8c0-0.2,0.1-0.3,0.2-0.3
		c0.1,0,0.1,0.1,0.2,0.3c0.1,0.8,0.5,1.2,1.2,1.2c0.8,0,1.1-0.2,1.1-0.5c0-0.3-0.2-0.7-0.6-1.1l0.5-0.9c0.1-0.1,0.1-0.2,0.2-0.2
		s0.1,0.1,0.2,0.2C255.1,318,255.2,318.5,255.2,319z M251.8,315.3l-0.7,0.7l-0.7-0.7l0.7-0.7L251.8,315.3z M252.7,313.7l-0.7,0.7
		l-0.7-0.7l0.7-0.7L252.7,313.7z M253.6,315.3l-0.7,0.7l-0.7-0.7l0.7-0.7L253.6,315.3z" id="PATH_51" class="area" title=""></path>
	<path d="M261.3,319c0,1.4-0.9,2.1-2.8,2.1c-0.7,0-1.2-0.1-1.5-0.3c-0.4-0.2-0.6-0.7-0.6-1.3c0-0.3,0.1-0.6,0.2-0.9
		c0.1-0.1,0.1-0.2,0.2-0.2c0.1,0,0.1,0.1,0.1,0.3c0,0.1,0,0.2,0,0.3c0,0.4,0.2,0.7,0.6,0.8c0.2,0.1,0.6,0.1,1.1,0.1
		c1.5,0,2.2-0.2,2.2-0.7c0-0.7-0.9-1.7-2.6-2.9l0.3-1c0-0.1,0.1-0.1,0.1-0.1c0,0,0.1,0,0.2,0.1C260.5,316.6,261.3,317.9,261.3,319z" id="PATH_52" class="area" title=""></path>
</g>
<g id="G_53" class="area" title="">
	<path d="M262.8,398.4h-0.4c-0.4,0-0.6-0.1-0.8-0.2c0,0.1,0,0.2,0,0.3c0,0.9-0.3,1.8-0.9,2.7c-0.5,0.8-1,1.1-1.3,1.1
		c-0.8,0-1.4,0-2-0.1c-0.2,0-0.3-0.1-0.3-0.1s0.1-0.1,0.3-0.1c0.8-0.2,1.6-0.6,2.4-1.2c0.8-0.7,1.3-1.4,1.3-2.1c0-0.4-0.3-1-1-1.7
		l0.5-0.9c0-0.1,0.1-0.1,0.1-0.1c0,0,0.1,0.1,0.1,0.1c0.3,0.4,0.5,0.7,0.7,0.8c0.3,0.2,0.7,0.4,1.1,0.4h0.3V398.4z" id="PATH_54" class="area" title=""></path>
	<path d="M265.2,396.4c0,1.3-0.7,2-2,2h-0.8v-1.2h0.7c1,0,1.5-0.2,1.5-0.5c0-0.3-0.2-0.7-0.7-1.2l0.4-1c0-0.1,0.1-0.1,0.1-0.1
		s0.1,0.1,0.2,0.2C265,395.1,265.2,395.7,265.2,396.4z M264.4,400.6l-0.8,0.8l-0.8-0.8l0.8-0.8L264.4,400.6z M266.1,400.6l-0.8,0.8
		l-0.8-0.8l0.8-0.8L266.1,400.6z" id="PATH_55" class="area" title=""></path>
	<path d="M272.3,396.3c0,1.4-0.9,2.1-2.8,2.1c-0.7,0-1.2-0.1-1.5-0.3c-0.4-0.2-0.6-0.7-0.6-1.3c0-0.3,0.1-0.6,0.2-0.9
		c0.1-0.1,0.1-0.2,0.2-0.2c0.1,0,0.1,0.1,0.1,0.3c0,0.1,0,0.2,0,0.3c0,0.4,0.2,0.7,0.6,0.8c0.2,0.1,0.6,0.1,1.1,0.1
		c1.5,0,2.2-0.2,2.2-0.7c0-0.7-0.9-1.7-2.6-2.9l0.3-1c0-0.1,0.1-0.1,0.1-0.1c0,0,0.1,0,0.2,0.1C271.4,393.9,272.3,395.1,272.3,396.3
		z" id="PATH_56" class="area" title=""></path>
</g>
<text transform="matrix(1 0 0 1 351.03 415.2795)" class="st6 st7 area" id="TEXT_57" title="">مج</text>
<g id="G_58" class="area" title="">
	<path d="M350.4,446.3c-0.1,1.2-0.4,2.1-1.1,3.1c-0.4,0.7-1.1,1.2-1.6,1.3c-1,0.2-2.1,0.1-2.8-0.5c-1.2-0.8-1.5-2.1-0.7-3.3
		c0.6-0.8,1.2-1.2,1.8-1.5l0.2,0.3c-0.5,0.3-1,0.7-1.2,1c-0.4,0.6-0.4,1-0.3,1.4c0.1,0.4,0.4,0.9,0.9,1.3c0.5,0.3,1.3,0.5,1.9,0.5
		c0.4,0,0.7-0.1,0.8-0.2c0.3-0.4,0.4-0.9,0.6-1.3c0.2-0.6,0.3-1.2,0.3-1.6C349.7,446.6,350,446.4,350.4,446.3L350.4,446.3z
		 M350.1,443c0.1,0.4,0.2,0.8,0.3,1.2c-0.3,0.1-0.6,0.2-1,0.3c-0.1-0.4-0.2-0.8-0.3-1.2C349.4,443.2,349.8,443.1,350.1,443z" id="PATH_59" class="area" title=""></path>
	<path d="M351.5,452.4L351.5,452.4c-0.6-0.4-0.8-0.7-0.9-1.2c-0.1-0.7,0.2-1.1,0.8-2.1c0.8-1.2,1.6-2.6,2.4-4c0.4-0.1,0.7-0.2,1-0.2
		l0,0.1c-0.8,1.5-2,3.2-3,4.8l-0.2,0.4c-0.3,0.4-0.2,0.8,0,1c0.1,0.2,0.3,0.3,0.4,0.3l0.1,0.1L351.5,452.4z" id="PATH_60" class="area" title=""></path>
	<path d="M356.5,455.8l-0.1-0.1c-0.8-0.5-0.9-1.3-1-2.2c0-0.4-0.1-0.8-0.1-1.1l0,0c-0.7,1-1.8,1.4-3.6,0.2l-0.2-0.1
		c-0.4-0.2-0.3-0.6-0.2-0.7c0.1-0.2,0.4-0.3,0.7-0.1l0.3,0.2c0.5,0.4,1.2,0.7,1.8,0.7c0.2,0,0.5,0,0.5-0.1c0.1-0.1,0.1-0.3,0.2-0.5
		c0.1-0.8-0.1-1.6-0.4-2.8c-0.1-0.3-0.1-0.6-0.1-0.7c0.1-0.1,0.1-0.2,0.2-0.3c0.1-0.2,0.3-0.3,0.5-0.4c0.1-0.1,0.2,0,0.4-0.1
		c1,0,2.8,0.5,5,1.1l0,0c-0.3,0.2-0.6,0.3-1,0.5c-0.5-0.2-1.1-0.3-1.8-0.5c-1-0.2-1.9-0.4-2.5-0.5l0,0c0.2,0.4,0.5,0.9,0.8,1.2
		l-0.4,0.2c0.3,1.1,0.6,2.3,0.8,3.9c0.1,0.7,0.3,1.2,0.8,1.5l0.1,0.1L356.5,455.8z M355.7,446.9c0.1-0.1,0.3-0.2,0.4-0.3
		c1.2,0.2,2.7,0.6,4.4,1.1l0,0l-0.5,0.2C358.2,447.3,356.9,447,355.7,446.9L355.7,446.9z" id="PATH_61" class="area" title=""></path>
	<path d="M357.2,455c0.5,0.3,1.2,0.5,1.5,0.2l0.7-0.6l0.7,0l0,0.1c-0.3,0.3-0.6,0.5-0.6,0.7c-0.2,0.2-0.2,0.5-0.1,0.7
		c0.1,0.3,0.3,0.6,0.6,0.8l0.1,0.1l-0.6,0.8l-0.1-0.1c-0.6-0.4-1-0.9-0.9-1.6l0,0c-0.5,0.3-1.2,0.2-1.7-0.2l-0.1-0.1
		c-0.4-0.2-0.3-0.6-0.2-0.7c0.1-0.2,0.4-0.3,0.7-0.1L357.2,455z M361,451.9c0.1,0.4,0.2,0.8,0.3,1.2c-0.3,0.1-0.6,0.2-1,0.3
		c-0.1-0.4-0.2-0.8-0.3-1.2C360.3,452.1,360.6,452,361,451.9z" id="PATH_62" class="area" title=""></path>
	<path d="M368.2,453.4c-0.3,0.2-0.7,0.3-1,0.5c-0.4-0.1-0.8-0.3-1.3-0.4c-0.8-0.2-1.7-0.4-2.7-0.6l0,0l0.8,1.1l-0.4,0.2
		c0.5,1.5,0.6,2.8,0.1,3.4c-0.4,0.6-0.9,1-1.3,1.1c-0.7,0.1-1.5-0.1-2.7-0.9l-0.3-0.2c-0.4-0.2-0.3-0.6-0.2-0.7
		c0.1-0.2,0.4-0.3,0.7-0.1l0.4,0.3c0.7,0.4,1.3,0.8,2,0.8c0.3,0,0.5,0,0.6-0.1c0.2-0.3,0.2-0.8,0.2-1.3c0-0.6-0.2-1.6-0.7-3.1
		c-0.1-0.3,0-0.5,0.2-0.8c0.1-0.1,0.3-0.2,0.4-0.3c0.2-0.1,0.4-0.1,0.8-0.1C364.8,452.4,366.3,452.8,368.2,453.4L368.2,453.4z" id="PATH_63" class="area" title=""></path>
</g>
<g id="G_64" class="area" title="">
	<path d="M419,512h-0.7c-0.9,0-1.4-0.5-1.6-1.6c-0.5,0.5-0.7,0.7-0.8,0.7H415c-0.3,0-0.6,0-0.9-0.1c-0.4-0.1-0.6-0.3-0.6-0.5
		c0-0.8,0.3-1.4,0.8-1.8c0.4-0.3,1-0.6,1.8-1l-0.2-1l0.7-0.8c0,0.1,0.3,1.2,0.7,3.3c0.1,0.6,0.3,1.1,0.4,1.3
		c0.2,0.3,0.4,0.4,0.8,0.4h0.7V512z M416.5,510l-0.3-1.6c-0.3,0.1-0.7,0.3-1.2,0.5c-0.6,0.3-1,0.6-1,0.7c0,0.2,0.2,0.3,0.7,0.4
		c0.3,0.1,0.6,0.1,0.9,0.1C416,510,416.3,510,416.5,510z" id="PATH_65" class="area" title=""></path>
	<path d="M421.4,510c0,1.3-0.7,2-2,2h-0.8v-1.2h0.7c1,0,1.5-0.2,1.5-0.5c0-0.3-0.2-0.7-0.7-1.2l0.4-1c0-0.1,0.1-0.1,0.1-0.1
		s0.1,0.1,0.2,0.2C421.2,508.7,421.4,509.4,421.4,510z M420.6,514.2l-0.8,0.8l-0.8-0.8l0.8-0.8L420.6,514.2z M422.4,514.2l-0.8,0.8
		l-0.8-0.8l0.8-0.8L422.4,514.2z" id="PATH_66" class="area" title=""></path>
	<path d="M428.6,512h-1.1c-0.1,1.4-0.6,2.5-1.6,3.5c-0.3,0.3-0.5,0.5-0.6,0.5c-0.5,0-1.2-0.1-1.9-0.2c-0.2,0-0.4-0.1-0.4-0.1
		c0,0,0.1-0.1,0.4-0.2c0.8-0.2,1.6-0.7,2.3-1.2c0.3-0.3,0.6-0.5,0.8-0.9c0.3-0.4,0.5-0.8,0.5-1.1V512h-1.3c-1,0-1.4-0.4-1.4-1.2
		c0-0.5,0.1-1,0.4-1.6c0.3-0.6,0.7-1,1.1-1c0.5,0,0.9,0.3,1.2,1c0.2,0.5,0.4,1,0.4,1.6h1.1V512z M426.8,510.8c0-0.3-0.1-0.6-0.3-0.9
		c-0.2-0.4-0.5-0.5-0.8-0.5c-0.2,0-0.4,0.1-0.5,0.2s-0.2,0.3-0.2,0.6c0,0.5,0.4,0.7,1.2,0.7C426.2,510.9,426.5,510.8,426.8,510.8z" id="PATH_67" class="area" title=""></path>
	<path d="M432.3,512h-0.4c-0.9,0-1.5-0.3-1.8-1c-0.1,0.3-0.3,0.5-0.6,0.7c-0.3,0.2-0.6,0.3-0.9,0.3h-0.4v-1.2h0.4
		c0.8,0,1.2-0.3,1.2-1v-3.5c0-1.3,0-2.3-0.1-3l0.9-0.7v6.7c0,1,0.4,1.5,1.3,1.5h0.4V512z" id="PATH_68" class="area" title=""></path>
	<path d="M441.5,512H441c-0.7,0-1.1-0.3-1.4-0.8c-0.2,0.6-0.7,0.8-1.3,0.8c-0.6,0-1-0.3-1.3-0.8c-0.3,0.6-0.7,0.8-1.3,0.8
		c-0.7,0-1.2-0.3-1.5-0.8c-0.4,0.6-0.9,0.8-1.6,0.8h-0.7v-1.2h0.8c0.7,0,1.2-0.4,1.3-1.2c0-0.2,0.1-0.3,0.2-0.3
		c0.1,0,0.1,0.1,0.2,0.3c0.1,0.8,0.5,1.2,1.3,1.2c0.7,0,1.2-0.4,1.2-1.2c0-0.2,0.1-0.3,0.2-0.3c0.1,0,0.2,0.1,0.2,0.3
		c0.1,0.8,0.5,1.2,1,1.2c0.7,0,1.2-0.4,1.2-1.2c0-0.2,0.1-0.3,0.2-0.3c0.1,0,0.2,0.1,0.2,0.3c0.1,0.8,0.5,1.2,1.2,1.2h0.6V512z" id="PATH_69" class="area" title=""></path>
	<path d="M446.8,510l-0.3,0.9l-2.7,0.7c-0.8,0.2-1.5,0.3-2.1,0.3h-0.5v-1.2h0.8c0.2,0,0.4,0,0.8-0.1c-0.6-0.5-0.9-0.9-0.9-1.4
		c0-0.4,0.2-0.9,0.7-1.5c0.6-0.7,1.2-1.1,1.8-1.1c0.7,0,1.2,0.3,1.6,0.9c0.1,0.2,0.2,0.3,0.2,0.4c0,0,0,0.1-0.1,0.1
		c-0.1,0-0.2,0-0.5-0.1c-0.5-0.1-0.9-0.2-1.3-0.2c-0.3,0-0.6,0.1-1,0.3c-0.4,0.2-0.7,0.4-0.7,0.7c0,0.2,0.2,0.5,0.5,0.8
		c0.4,0.4,0.9,0.6,1.4,0.6c0.2,0,0.9-0.2,2.1-0.5c0.1,0,0.1,0,0.2,0c0,0,0,0,0,0C446.8,509.9,446.8,509.9,446.8,510z" id="PATH_70" class="area" title=""></path>
</g>
</svg>

