



    


<svg version="1.1" id="Layer_1" xmlns="http://www.w3.org/2000/svg" xmlns:xlink="http://www.w3.org/1999/xlink" x="0px" y="0px" viewBox="0 0 438.5 417" style="enable-background:new 0 0 438.5 417;" xml:space="preserve" width="100%" height="100%">
<style type="text/css">
	.st0{fill:#FDFAD4;stroke:#010101;stroke-width:0.2;stroke-miterlimit:10;}
	.st1{fill:#E8D0E5;stroke:#010101;stroke-width:0.2;stroke-miterlimit:10;}
	.st2{fill:#FBD0D1;stroke:#010101;stroke-width:0.2;stroke-miterlimit:10;}
	.st3{fill:#DBECCB;stroke:#010101;stroke-width:0.2;stroke-miterlimit:10;}
	.st4{fill:none;stroke:#020202;stroke-width:0.5;stroke-miterlimit:10;}
</style>

		<path class="st0 area" d="M223.3,221.7c-5.1-16.6-25.6-21.7-33.3-37.1c-6.4-14.1,5.1-29.4,0-43.5c-5.1-10.2-15.4-3.8-23-1.3
			c-19.2,3.8-19.2-19.2-15.4-34.5c-6.4,0-15.3-7.7-12.8-11.5c6.4-12.8,11.5-25.6,15.4-38.4c2.9-6.8,13.1-9.2,21.8-13.2
			c0.4-2.6,2.5-5.2,3.9-6.9l0.4-0.5c1.3-1.6,4.8-3.3,8-4.7c1.7-0.8,3.2-1.5,3.9-2c0.1-0.1,0.2-0.2,0.2-0.5c0.1-1.3-1.5-3.9-3.6-6
			c-2.3-2.3-7-5.5-9.5-6.8c-0.8-0.4-1.7-0.7-2.6-1c-2.4-0.9-5.2-1.8-7-4.4c-1.3-1.8-8.2-2.2-20.6-1l-0.4,0c-3.6,0.3-10.7,4-14.9,6.2
			c-1.6,0.8-2.8,1.4-3.4,1.7c-2.1,0.8-6.5,5.7-6.9,7.7c-0.6,2.9-9.2,10.7-12,12.7c-2.9,2-8.8,6.3-17,5.3C87.8,41,79.5,41,78,41
			c-1.5,1.9-2.7,3.3-3.3,3.9C73.5,46.1,61.9,67.1,54.9,80l-0.3,0.5l-33.1,0.6l0.9,63.9l-0.2,0.3c0,0.1-3.7,5.1-5.6,7.9
			c-0.4,0.6-0.8,1.1-1.2,1.5l13.8,19.7c0.6,1,4.8,9.2,5.3,12c0.3,1.8,6.4,11.6,10.4,17.5c2.5,0.7,18.1,5,21.4,5.5
			c4.2,0.5,11.4,7.5,13.2,10.2c0.4,0.7,1.2,2,2.3,3.8c3.5,5.9,10,17,13.8,20.2c5.2,4.3,13.3,18.5,13.6,19.2l0.4,0.7l-0.7,0.5
			c0,0-1.9,1.4-2.3,4.2c-0.3,1.8-0.4,5-0.5,7.4c3.9-0.2,9.6-0.8,10.9-1.5c2.6-1.3,10.7,0.1,13.6,1l1.4,0.5
			c30.6,10.1,46.8,15.8,48.2,16.8c1.1,0.8,9.7,3.8,16.1,6c0.3,0.1,0.6,0.2,0.9,0.3c0.6-0.5,1.1-1,1.7-1.6
			C216.9,278,231,249.8,223.3,221.7z" id="_x637__x628__x633_" title="طبس"></path>
		<path class="st1 area" d="M192.6,133.4c3.8-7.7-6.4-12.8-10.2-17.9c-2.6-5.1,5.1-11.5,2.6-16.6c-2.6-2.6-5.1-5.1-5.1-6.4
			c-5.1-10.2,6.4-12.8,12.8-17.9c0.9-0.9,0.5-3.1,0.2-5.2c-0.2,0-0.5-0.1-0.7-0.1l-0.6-0.1l-0.2-0.6c0,0-0.9-3.2-2.7-5.8l-1-1.6
			c-2.6-4-8.2-12.3-10.5-15.1c-1.1-1.3-1.3-2.6-1.1-4c-8.7,4.1-18.9,6.5-21.8,13.2c-3.8,12.8-9,25.6-15.4,38.4
			c-2.6,3.8,6.4,11.5,12.8,11.5c-3.8,15.4-3.8,38.4,15.4,34.5c7.2-2.4,16.6-8.2,22-0.4C190.8,137.7,191.9,135.6,192.6,133.4z" id="_x628__x634__x631__x648__x6CC__x647_" title="بشرویه"></path>
		<path class="st2 area" d="M213.1,150.1c1.3-2.6,1.3-7.7,2.6-11.5c0-1.3,5.1-2.6,5.1-3.8c5.1-7.7,1.3-20.5,6.4-25.6
			c3.8-3.8,14.1-1.3,19.2-9c-3.8,0-10.2,6.4-10.2,0c0-3.3,6.5-4.7,9.2-9.8c-1.2-1-2.1-1.8-2.5-2.3c-1.9-1.9-7.6-10-9.1-13.8
			c-0.2-0.5-0.5-0.8-1-1c-1.4-0.5-3.8,0.4-4.9,0.9c-0.7,1.1-3.4,4.9-9.6,4.4c-6.7-0.5-7.9-1-10.5-4.6c-1.5-2-9.6-3.9-14.9-4.6
			c0.3,2.1,0.7,4.3-0.2,5.2c-6.4,5.1-17.9,7.7-12.8,17.9c0,1.3,2.6,3.8,5.1,6.4c2.6,5.1-5.1,11.5-2.6,16.6
			c3.8,5.1,14.1,10.2,10.2,17.9c-0.7,2.1-1.8,4.3-3.6,5.9c0.4,0.5,0.7,1.1,1,1.7c1.8,4.9,1.6,9.9,0.8,14.9
			C198.1,158.3,206.9,155.4,213.1,150.1z" id="_x641__x631__x62F__x648__x633_" title="فردوس"></path>
		<path class="st3 area" d="M234.8,182c1.3-2.6,3.8-5.1,5.1-6.4c10.2-3.8,23-2.6,29.4-10.2c12.8-11.5-15.4-17.9-11.5-32
			c0-1.3,5.1-3.8,7.7-6.4c2.6-6.4-7.7-7.7-7.7-10.2c0-6.9,2.3-13.7-0.7-19.5c-0.1,0.5-0.2,0.8-0.2,0.9l-0.1,1.8l-1.4-1.2
			c-0.3-0.3-6.4-5.3-10.1-8.5c-2.7,5.1-9.2,6.5-9.2,9.8c0,6.4,6.4,0,10.2,0c-5.1,7.7-15.3,5.1-19.2,9c-5.1,5.1-1.3,17.9-6.4,25.6
			c0,1.3-5.1,2.6-5.1,3.8c-1.3,3.8-1.3,9-2.6,11.5c-6.2,5.3-14.9,8.2-22.3,6c-1.5,9.6-5,19.3-0.8,28.5c7.3,14.5,25.9,19.9,32.3,34.5
			C235,211.6,227.6,194,234.8,182z" id="_x633__x631__x627__x6CC__x627__x646_" title="سرایان"></path>
		<path class="st1 area" d="M277,175.6c7.7,2.6,6.4-7.7,11.5-10.2c5.1-1.3,10.2,5.1,15.4,2.6c6.4-5.1,12.8-12.8,15.4-19.2
			c1.3-7.7-9-12.8-5.1-20.5c2.6-2.6,7.7-5.1,9-2.6c7.7,9,15.4,17.9,25.6,12.8c14.1-6.4-5.1-16.6-7.7-26.9c2.6,1.3,6.4-1.3,7.7-1.3
			c1.7-2.5,3.4-6.2,2.5-9.1c-6.8-0.3-22.8-0.3-23-0.3h-0.6l-0.3-0.5c0,0-2.8-5-6.3-8.1c-2.4-2.1-2.6-2-3.9-1.8
			c-0.6,0.1-1.4,0.2-2.5,0.2c-1.9,0-8.7,0.2-15.2,0.5c-6.2,0.2-12.1,0.4-13.6,0.4c-1.3,0-4.1,0.2-7.3,0.3c-4.8,0.3-10.8,0.6-15,0.6
			c-4.6,0-5.9,3.2-6.3,4.7c3,5.7,0.7,12.6,0.7,19.5c0,2.6,10.2,3.8,7.7,10.2c-2.6,2.6-7.7,5.1-7.7,6.4c-3.8,14.1,24.3,20.5,11.5,32
			c-0.7,0.9-1.5,1.6-2.4,2.2C270,170.9,273.2,173.7,277,175.6z" id="_x642__x627__x626__x646_" title="قائن"></path>
		<path class="st2 area" d="M277,324c0-2.6-1.3-6.4,1.3-9c2.6-1.3,5.1,1.3,7.7,0c0-1.3,0-3.8,0-5.1c5.1-6.4,11.5-5.1,9-14.1
			c1.3,0,3.8-1.3,5.1-1.3c3.8-3.8-3.8-10.2,0-12.8c3.8-3.8,0-7.7,2.6-11.5c5.1,3.8,11.5,2.6,9-3.8c-2.6-11.5-14.1-20.5-7.7-30.7
			c2.6-5.1,6.4-11.5,5.1-16.6c-3.8-7.7-12.8-5.1-20.5-7.7c-5.1-2.6-1.3-9,2.6-11.5c0-1.3-3.8-2.6-5.1-2.6
			c-2.6-3.8-1.3-10.2-6.4-11.5c-2.6-1.3-5.1,2.6-7.7,1.3c-6.2-3.9-9.6-11-14.4-15.5c-5.6,1.3-12,1.9-17.6,4
			c-1.3,1.3-3.8,3.8-5.1,6.4c-7.2,12,0.2,29.6-12.5,37c0.4,0.9,0.7,1.7,1,2.6c7.7,28.1-6.4,56.3-24.3,75.5c-0.5,0.5-1.1,1.1-1.7,1.6
			c6.1,2.1,9.6,3.4,10.3,3.8c0.4,0.2,1.8,1.1,3.7,2.3c8.7,5.2,18.1,10.9,20.1,12.9c0.6,0.6,2.1,2.1,4.2,4.1c4.5,4.3,11,10.7,16.3,16
			c0.7-0.3,1.4-0.6,2.1-1C261.7,331.7,266.8,322.7,277,324z" id="_x62E__x648__x633__x641_" title="خوسف"></path>
		<path class="st0 area" d="M316.7,216.6c7.7-7.7,2.6-17.9,15.4-20.5c-2.6-2.6-2.6-3.8-2.6-7.7s-9-3.8-10.2-10.2c1.3,0,2.6,0,3.8,0
			c-1.3-2.6-2.6-5.1-1.3-7.7c2.6-3.8,7.7-2.6,11.5-5.1c1.2-0.4,1.6-1.1,1.7-1.9c-5.5-5.1-8.3-13.2-14.5-17.3
			c-0.4-0.3-0.9-0.6-1.4-0.9c0.3,1.1,0.4,2.2,0.1,3.4c-2.6,6.4-9,14.1-15.4,19.2c-5.1,2.6-10.2-3.8-15.4-2.6
			c-5.1,2.6-3.8,12.8-11.5,10.2c-3.8-1.9-7-4.8-10.1-8c-2.6,2-5.9,3.1-9.5,4c4.8,4.5,8.2,11.6,14.4,15.5c2.6,1.3,5.1-2.6,7.7-1.3
			c5.1,1.3,3.8,7.7,6.4,11.5c1.3,0,5.1,1.3,5.1,2.6c-3.8,2.6-7.7,9-2.6,11.5c7.7,2.6,16.6,0,20.5,7.7c0.2,0.6,0.2,1.3,0.3,1.9
			C312.3,220.5,314.9,218.9,316.7,216.6z" id="_x628__x6CC__x631__x62C__x646__x62F_" title="بیرجند"></path>
		<path class="st2 area" d="M348.7,215.3c5.1,2.6,10.2,0,15.4,2.6c3.8,2.6,2.6,10.2,6.4,10.2c13.8,3.2,24.1-8.6,36-9l-5.9-19.6l-1-5.6
			l-0.1-7l0.4-1.2l1.1-1.5c-4.4-0.3-9.1-2.9-13.8-2.1c-2.6,0-5.1,2.6-7.7,1.3c-2.6-2.6-2.6-7.7,1.3-10.2
			c-7.7-10.2-19.2-10.2-30.7-6.4c-2.6,0-7.7,1.3-10.2,0c-1.8-0.8-3.4-1.9-4.7-3.2c0,0.8-0.5,1.5-1.7,1.9c-3.8,2.6-9,1.3-11.5,5.1
			c-1.3,2.6,0,5.1,1.3,7.7c-1.3,0-2.6,0-3.8,0c1.3,6.4,10.2,6.4,10.2,10.2c0,2.5,0,3.9,0.7,5.2C337.3,199.8,340.7,210.3,348.7,215.3
			z" id="_x62F__x631__x645__x6CC__x627__x646_" title="درمیان"></path>
		<path class="st1 area" d="M306.5,249.8c14.1,5.1,23,2.6,37.1,1.3c6.4,0,11.5,6.4,17.9,11.5c2.6,3.8,6.4-2.6,10.2-3.8
			c9-3.8,7.7,10.2,10.2,12.8c11.1,6.6,26-3.9,37.2,2.2l0.2-1.3l0.1-7.2l-5.8-21.7l-7.3-24.5c-11.9,0.4-22.2,12.2-36,9
			c-3.8,0-2.6-7.7-6.4-10.2c-5.1-2.6-10.2,0-15.4-2.6c-8-5-11.3-15.4-18.5-21.6c0.4,0.8,1,1.5,1.9,2.4c-12.8,2.6-7.7,12.8-15.4,20.5
			c-1.8,2.4-4.4,3.9-7.4,4.5c0.1,4.7-3.1,10.2-5.4,14.7c-3,4.8-2.1,9.3,0,13.9C304.8,249.5,305.7,249.6,306.5,249.8z" id="_x633__x631__x628__x6CC__x634__x647_" title="سربیشه"></path>
		<path class="st3 area" d="M417.9,281.1l0.4-1.5l0.8-5.8c-11.3-6.1-26.2,4.4-37.2-2.2c-2.6-2.6-1.3-16.6-10.2-12.8
			c-3.8,1.3-7.7,7.7-10.2,3.8c-6.4-5.1-11.5-11.5-17.9-11.5c-14.1,1.3-23,3.8-37.1-1.3c-0.8-0.3-1.6-0.3-2.5-0.2
			c2.4,5.3,6.3,10.7,7.6,16.8c2.6,6.4-3.8,7.7-9,3.8c-2.6,3.8,1.3,7.7-2.6,11.5c-3.8,2.6,3.8,9,0,12.8c-1.3,0-3.8,1.3-5.1,1.3
			c2.6,9-3.8,7.7-9,14.1c0,1.3,0,3.8,0,5.1c-2.6,1.3-5.1-1.3-7.7,0c-2.6,2.6-1.3,6.4-1.3,9c-10.2-1.3-15.4,7.7-23,12.8
			c-0.7,0.3-1.4,0.7-2.1,1c4.3,4.3,7.8,7.9,8.6,9.1c2.2,3.2,9,10.5,15.1,12.5c6,2,8.1,5.4,9.2,7.3c0.1,0.2,0.3,0.4,0.4,0.6
			c0.5,0.7,1,1.8,1.5,3.1c0.8,1.8,1.8,4,2.6,4.8c0.7,0.7,3.5,4.7,8.1,11.2c4.5,6.5,10.7,15.3,11.6,16.1c1.5,1,6.6,6.5,8.3,8.2
			l34.3-14c0.2-1.8,1-7.8,1-9.5l0-0.5c0-1.3-0.1-3.1,1.2-4.3c1-1,2.5-1.5,4.6-1.5c5.7,0,13.2-1.2,14.5-2c2.2-1.5,5.8-4.7,5-7.5
			c-0.4-1.4-2.3-8.8,0.1-12.8c0.8-1.3,1.9-2.1,3.4-2.4c2.3-0.5,6.5-1.7,10.5-2.9c6.6-1.9,10.7-3.1,12.2-3.1c2.3,0,6.9-1.9,9.5-4.5
			c2.5-2.5,7.7-12.3,7.9-12.6l0,0l-2.6-1l-0.9-8.3l-1-4.2l-0.3-2.1l1-6.6l-1-8.1l-0.3-4.3l0.6-5.5l-0.1-1.9l-0.4-0.9l-0.4-0.9
			l-0.1-0.9l0.6-1.9l-0.4-0.5l-0.6-0.4l-0.3-0.5l0.5-1.4L417.9,281.1z" id="_x646__x647__x628__x646__x62F__x627__x646_" title="نهبندان"></path>
		<path class="st3 area" d="M425.6,152.3l-1.3-1.2l-1.2-0.6l-2.4-0.6l-3-0.3l-5.5,0.4l-5.9-0.5l-6-2.4l-4.7-4.5l-1.9-6.4l0.6-2.9l2.3-5.1
			l0.1-3.4l-2.1-13.6l-0.8-7.1c-0.2,0.2-0.4,0.3-0.7,0.3h-13c-0.7,0.1-3.5,3.2-5.7,7c-1.6,2.8-3.8,4.3-6.3,4.3
			c-0.9,0-1.9-0.2-2.9-0.6c-3-1.3-3.4-5.4-3.6-7.9c-0.1-0.6-0.1-1.3-0.2-1.5c-0.3-0.9-4.5-3.6-8.1-4c-0.5-0.1-1.4-0.1-2.4-0.2
			c0.9,2.9-0.8,6.6-2.5,9.1c-1.3,0-5.1,2.6-7.7,1.3c2.6,10.2,21.7,20.5,7.7,26.9c-10.2,5.1-17.9-3.8-25.6-12.8c-1.3-2.6-6.4,0-9,2.6
			c-3.2,6.5,3.5,11.1,5,17c0.5,0.3,1,0.6,1.4,0.9c7.7,5.1,10.2,16.6,19.2,20.5c2.6,1.3,7.7,0,10.2,0c11.5-3.8,23-3.8,30.7,6.4
			c-3.8,2.6-3.8,7.7-1.3,10.2c2.6,1.3,5.1-1.3,7.7-1.3c4.7-0.8,9.4,1.8,13.8,2.1l13.1-17.6l2.2-1.9l2.6-1.5l0.8-1l0.4-1.7l-0.1-1.5
			l-0.2-1.5l0.1-1.3l1.4-0.8l3.6-0.3l1-0.4l0.6-1.1L425.6,152.3z" id="_x632__x6CC__x631__x6A9__x648__x647_" title="زیرکوه"></path>

	<line class="st4 area" x1="166" y1="74.7" x2="193.5" y2="53" id="LINE_14" title=""></line>

<g id="G_15" class="area" title="">
	<path d="M115.5,176.7h-0.5c-0.7,0-1.1-0.3-1.4-0.8c-0.2,0.6-0.7,0.9-1.3,0.9c-0.6,0-1-0.3-1.3-0.9c-0.3,0.6-0.8,0.9-1.4,0.9
		c-0.2,0-0.5,0-0.7-0.1c0,0.6-0.1,1.2-0.1,1.9c-0.3,0.7-0.8,1.3-1.7,1.7c-0.8,0.3-1.6,0.5-2.5,0.5c-0.9,0-1.6-0.2-2.2-0.6
		c-0.6-0.5-0.9-1.1-0.9-2c0-0.5,0.1-0.9,0.3-1.5c0.2-0.4,0.3-0.7,0.5-0.9c0.1-0.1,0.2-0.1,0.2-0.1c0.1,0,0.1,0,0.1,0.1
		c0,0,0,0.1,0,0.2c-0.3,0.6-0.4,1.2-0.4,1.7c0,0.5,0.2,0.9,0.5,1.3c0.4,0.5,1.1,0.7,2,0.7c1,0,1.9-0.2,2.6-0.5c0.6-0.3,1-0.6,1.1-1
		c0.1-0.1,0.1-0.3,0-0.7c0-0.3-0.1-0.6-0.1-0.7c-0.1-0.3-0.4-0.8-1-1.5l0.4-0.8c0.1-0.1,0.1-0.2,0.1-0.2c0,0,0.1,0,0.1,0.2
		c0.3,0.4,0.5,0.7,0.6,0.8c0.3,0.3,0.6,0.4,1,0.4c0.4,0,0.8-0.1,1-0.4c0.1-0.2,0.2-0.4,0.3-0.9c0-0.2,0.1-0.3,0.2-0.3
		c0.1,0,0.1,0.1,0.2,0.3c0.1,0.8,0.5,1.3,1.1,1.3c0.7,0,1.2-0.4,1.2-1.2c0-0.2,0.1-0.3,0.2-0.3c0.1,0,0.2,0.1,0.2,0.3
		c0.1,0.8,0.5,1.2,1.2,1.2h0.6V176.7z" id="PATH_16" class="area" title=""></path>
	<path d="M120.4,176.7h-0.8c-0.9,0-1.5-0.3-1.9-0.9c-0.3,0.6-1,0.9-2.1,0.9H115v-1.2h0.9c1,0,1.5-0.4,1.6-1.1c0-0.3,0.1-0.5,0.2-0.5
		c0.1,0,0.2,0.2,0.2,0.5c0.1,0.7,0.6,1.1,1.5,1.1h0.9V176.7z M118.2,178.9l-0.8,0.8l-0.8-0.8l0.8-0.8L118.2,178.9z" id="PATH_17" class="area" title=""></path>
	<path d="M128,174c0,1.1-0.6,1.9-1.8,2.3c-0.9,0.3-2.3,0.4-4.2,0.4h-2v-1.2h1c0.3,0,0.5-0.1,0.6-0.2c0.1-0.1,0.1-0.3,0.1-0.6
		c0-0.4,0-1.2,0-2.2c-0.1-1.6-0.2-3.1-0.4-4.4l0.7-0.7c0.1-0.1,0.1-0.1,0.1-0.1c0,0,0.1,0.1,0.1,0.2c0.1,0.4,0.2,0.8,0.4,1.2
		c0,0.1,0.1,0.2,0.1,0.2c0,0-0.1,0-0.2,0h-0.3c0.1,1.8,0.1,2.9,0.1,3.2v1.1c0,0.4-0.1,1-0.3,1.7c0.1,0,0.3-0.2,0.8-0.6
		c0.5-0.5,1-0.9,1.4-1.2c0.7-0.4,1.3-0.6,1.9-0.6c0.5,0,0.9,0.1,1.2,0.4C127.8,173.1,128,173.5,128,174z M127.3,174.6
		c0-0.3-0.2-0.6-0.6-0.8c-0.3-0.2-0.7-0.3-1-0.3c-0.7,0-1.9,0.7-3.4,2c0.4,0,0.9,0.1,1.3,0.1c0.6,0,1.3-0.1,2-0.2
		C126.8,175.2,127.3,174.9,127.3,174.6z" id="PATH_18" class="area" title=""></path>
</g>
<g id="G_19" class="area" title="">
	<path d="M247.3,261h-0.6c-0.6,0-1.3-0.2-2-0.6c-0.3,0.1-0.6,0.2-0.8,0.3c-1,0.3-2.2,0.5-3.7,0.5c-1,0-1.8-0.1-2.3-0.3
		c-0.8-0.3-1.2-0.9-1.2-1.7c0-0.7,0.2-1.3,0.5-1.8c0.1-0.1,0.1-0.2,0.2-0.2c0.1,0,0.1,0,0.1,0.1c0,0,0,0.1,0,0.2
		c-0.2,0.4-0.2,0.7-0.2,1c0,0.7,0.4,1.2,1.3,1.4c0.4,0.1,1.2,0.2,2.2,0.2c0.8,0,1.5,0,1.9-0.1c0.3,0,0.6-0.1,0.9-0.2
		c-0.3-0.3-0.5-0.7-0.5-1.3c0-0.5,0.2-1,0.5-1.5c0.4-0.6,0.8-0.8,1.2-0.9c0.5,0,0.8,0.2,1.1,0.7c0.2,0.4,0.3,0.8,0.3,1.4
		c0,0.6-0.2,1.1-0.6,1.4c0.2,0.1,0.7,0.2,1.3,0.2h0.4V261z M245.1,253.5l-0.8,0.8l-0.8-0.8l0.8-0.8L245.1,253.5z M245.7,258.4
		c0-0.2-0.1-0.5-0.3-0.7s-0.4-0.4-0.6-0.4s-0.4,0.1-0.7,0.4s-0.4,0.5-0.4,0.7c0,0.4,0.4,0.8,1.1,1.1
		C245.4,259.1,245.7,258.8,245.7,258.4z" id="PATH_20" class="area" title=""></path>
	<path d="M255.2,258.9c0,0.6-0.1,1.1-0.4,1.5c-0.3,0.4-0.8,0.7-1.3,0.7c-0.7,0-1.1-0.3-1.4-0.8c-0.4,0.6-0.8,0.8-1.4,0.8
		c-0.7,0-1.2-0.3-1.5-0.8c-0.4,0.6-0.9,0.8-1.6,0.8h-0.7v-1.2h0.8c0.7,0,1.2-0.4,1.3-1.2c0-0.2,0.1-0.3,0.2-0.3
		c0.1,0,0.1,0.1,0.2,0.3c0.1,0.8,0.5,1.2,1.3,1.2c0.4,0,0.8-0.1,1-0.3c0.1-0.2,0.2-0.4,0.3-0.8c0-0.2,0.1-0.3,0.2-0.3
		c0.1,0,0.1,0.1,0.2,0.3c0.1,0.8,0.5,1.2,1.2,1.2c0.8,0,1.1-0.2,1.1-0.5c0-0.3-0.2-0.7-0.6-1.1l0.5-0.9c0.1-0.1,0.1-0.2,0.2-0.2
		s0.1,0.1,0.2,0.2C255,257.9,255.2,258.4,255.2,258.9z" id="PATH_21" class="area" title=""></path>
	<path d="M261.4,261h-1.1c-0.1,1.4-0.6,2.5-1.6,3.5c-0.3,0.3-0.5,0.5-0.6,0.5c-0.5,0-1.2-0.1-1.9-0.2c-0.2,0-0.4-0.1-0.4-0.1
		c0,0,0.1-0.1,0.4-0.2c0.8-0.2,1.6-0.7,2.3-1.2c0.3-0.3,0.6-0.5,0.8-0.9c0.3-0.4,0.5-0.8,0.5-1.1V261h-1.3c-1,0-1.4-0.4-1.4-1.2
		c0-0.5,0.1-1,0.4-1.6c0.3-0.6,0.7-1,1.1-1c0.5,0,0.9,0.3,1.2,1c0.2,0.5,0.4,1,0.4,1.6h1.1V261z M259.6,259.8c0-0.3-0.1-0.6-0.3-0.9
		c-0.2-0.4-0.5-0.5-0.8-0.5c-0.2,0-0.4,0.1-0.5,0.2s-0.2,0.3-0.2,0.6c0,0.5,0.4,0.7,1.2,0.7C259.1,259.9,259.3,259.8,259.6,259.8z" id="PATH_22" class="area" title=""></path>
	<path d="M269.2,258.1l-0.4,0.8c-0.7,0-1.3,0-1.6,0.1c-0.4,0.2-1,0.4-1.8,0.8c-0.8,0.4-1.4,0.7-1.8,0.8c-0.6,0.2-1.3,0.3-1.9,0.3
		H261v-1.2h0.8c0.9,0,1.7-0.2,2.4-0.5l2.3-1c-0.4-0.1-1-0.3-1.8-0.6c-0.7-0.3-1.1-0.4-1.3-0.4c-0.4,0-0.8,0.2-1.2,0.5
		c-0.1,0.1-0.1,0.1-0.2,0.1c-0.1,0-0.1,0-0.1-0.1c0,0,0-0.1,0-0.1c0.3-1,0.9-1.4,1.7-1.4c0.3,0,0.7,0.1,1.1,0.3
		c0.8,0.4,1.4,0.6,1.8,0.8c0.7,0.2,1.5,0.4,2.4,0.4c0.2,0,0.3,0,0.3,0.1C269.3,257.9,269.3,258,269.2,258.1z M266.4,253.5l-0.8,0.8
		l-0.8-0.8l0.8-0.8L266.4,253.5z" id="PATH_23" class="area" title=""></path>
</g>
<g id="G_24" class="area" title="">
	<path d="M323.3,334.2c0.1,0.3,0.1,0.6,0.1,0.9c0,0.4-0.1,0.7-0.2,1.1c-0.3,0.7-0.8,1.3-1.8,1.7c-0.8,0.3-1.6,0.5-2.5,0.5
		c-0.9,0-1.6-0.2-2.2-0.6c-0.6-0.5-0.9-1.1-0.9-2c0-0.5,0.1-0.9,0.3-1.5c0.2-0.4,0.3-0.7,0.5-0.9c0.1-0.1,0.2-0.1,0.2-0.1
		c0.1,0,0.1,0,0.1,0.1c0,0,0,0.1,0,0.2c-0.3,0.6-0.4,1.2-0.4,1.7c0,0.5,0.2,0.9,0.5,1.3c0.4,0.5,1.1,0.7,2,0.7c1,0,1.9-0.2,2.6-0.5
		c0.6-0.3,1-0.6,1.2-1c0.1-0.1,0.1-0.3,0.1-0.4c0-0.3-0.1-0.6-0.2-1c-0.1-0.3-0.4-0.8-0.9-1.6l0.4-0.8c0.1-0.1,0.1-0.2,0.1-0.2
		s0.1,0,0.1,0.1C322.9,332.6,323.2,333.4,323.3,334.2z M320.4,329.9l-0.8,0.8l-0.8-0.8l0.8-0.8L320.4,329.9z" id="PATH_25" class="area" title=""></path>
	<path d="M325.7,333.1c0,0.4-0.1,0.8-0.3,1.1c-0.1,0.2-0.2,0.3-0.2,0.3c0,0-0.1-0.1-0.1-0.4c0-1.2-0.2-4-0.6-8.5l0.8-0.8
		c0.1-0.1,0.1-0.1,0.1-0.1c0,0,0,0.1,0,0.2C325.7,326.3,325.7,329,325.7,333.1z" id="PATH_26" class="area" title=""></path>
	<path d="M333.5,334.3h-0.4c-0.4,0-0.7-0.1-1-0.4c-0.2-0.2-0.4-0.4-0.6-0.8c-0.2,0.4-0.5,0.7-0.8,0.9c-0.4,0.2-0.9,0.3-1.7,0.3
		c-1.4,0-2.1-0.5-2.1-1.5c0-0.3,0.1-0.7,0.3-1c0.1-0.1,0.1-0.2,0.2-0.2c0.1,0,0.1,0.1,0.1,0.2c0,0.1,0,0.1,0,0.3s0,0.2,0,0.3
		c0,0.6,0.5,0.9,1.5,0.9c1.4,0,2.1-0.3,2.1-0.8c0-0.3-0.4-1.4-1.2-3.3l0.4-0.8c0.1-0.1,0.1-0.2,0.1-0.2c0,0,0.1,0.1,0.1,0.2
		c0.3,0.8,0.8,2,1.4,3.6c0.3,0.8,0.7,1.2,1.3,1.2h0.3V334.3z" id="PATH_27" class="area" title=""></path>
	<path d="M338.5,334.3h-0.8c-0.9,0-1.5-0.3-1.9-0.9c-0.3,0.6-1,0.9-2.1,0.9h-0.6v-1.2h0.9c1,0,1.5-0.4,1.6-1.1
		c0-0.3,0.1-0.5,0.2-0.5s0.2,0.2,0.2,0.5c0.1,0.7,0.6,1.1,1.5,1.1h0.9V334.3z M336.5,329.2l-0.8,0.8l-0.8-0.8l0.8-0.8L336.5,329.2z" id="PATH_28" class="area" title=""></path>
	<path d="M343.4,334.3h-0.8c-0.9,0-1.5-0.3-1.9-0.9c-0.3,0.6-1,0.9-2.1,0.9h-0.6v-1.2h0.9c1,0,1.5-0.4,1.6-1.1
		c0-0.3,0.1-0.5,0.2-0.5s0.2,0.2,0.2,0.5c0.1,0.7,0.6,1.1,1.5,1.1h0.9V334.3z M341.2,336.5l-0.8,0.8l-0.8-0.8l0.8-0.8L341.2,336.5z" id="PATH_29" class="area" title=""></path>
	<path d="M349.6,334.3h-0.5c-0.4,0-0.8,0.1-1.1,0.2c-0.5,0.2-0.8,0.5-0.8,1c0,0.6,0.4,1.1,1.2,1.6l-0.5,1c-0.9-0.3-1.7-0.8-2.3-1.4
		c-0.8-0.7-1.2-1.6-1.2-2.5H343v-1.2h1.3c0-0.8,0.2-1.6,0.6-2.6c0.4-0.9,0.7-1.3,0.9-1.3c0.2,0,0.5,0.4,0.8,1.3
		c0.3,0.8,0.4,1.3,0.4,1.6c0,1.4-0.7,2.1-2.1,2.1c0.1,0.4,0.3,0.8,0.6,1.2s0.7,0.7,1.1,0.9c0-0.1,0-0.3,0-0.4c0-0.7,0.2-1.3,0.5-1.8
		c0.5-0.7,1.1-1.1,2-1.1h0.4V334.3z M346.6,332.7c0-0.2-0.1-0.6-0.3-1.1c-0.2-0.6-0.4-0.8-0.6-0.8c-0.1,0-0.3,0.2-0.5,0.7
		c-0.2,0.5-0.3,1.1-0.3,1.7C346,333.2,346.6,333,346.6,332.7z" id="PATH_30" class="area" title=""></path>
	<path d="M352,332.3c0,1.3-0.7,2-2,2h-0.8v-1.2h0.7c1,0,1.5-0.2,1.5-0.5c0-0.3-0.2-0.7-0.7-1.2l0.4-1c0-0.1,0.1-0.1,0.1-0.1
		s0.1,0.1,0.2,0.2C351.8,331.1,352,331.7,352,332.3z M351.9,327.8l-0.8,0.8l-0.8-0.8l0.8-0.8L351.9,327.8z" id="PATH_31" class="area" title=""></path>
</g>
<g id="G_32" class="area" title="">
	<path d="M352.6,241.3h-0.7c-0.9,0-1.4-0.5-1.6-1.6c-0.5,0.5-0.7,0.7-0.8,0.7h-0.9c-0.3,0-0.6,0-0.9-0.1c-0.4-0.1-0.6-0.3-0.6-0.5
		c0-0.8,0.3-1.4,0.8-1.8c0.4-0.3,1-0.6,1.8-1l-0.2-1l0.7-0.8c0,0.1,0.3,1.2,0.7,3.3c0.1,0.6,0.3,1.1,0.4,1.3
		c0.2,0.3,0.4,0.4,0.8,0.4h0.7V241.3z M350.1,239.3l-0.3-1.6c-0.3,0.1-0.7,0.3-1.2,0.5c-0.6,0.3-1,0.6-1,0.7c0,0.2,0.2,0.3,0.7,0.4
		c0.3,0.1,0.6,0.1,0.9,0.1C349.6,239.4,349.9,239.3,350.1,239.3z" id="PATH_33" class="area" title=""></path>
	<path d="M361.8,241.3h-0.6c-0.7,0-1.1-0.3-1.4-0.8c-0.2,0.6-0.7,0.8-1.3,0.8c-0.6,0-1-0.3-1.3-0.8c-0.3,0.6-0.7,0.8-1.3,0.8
		c-0.7,0-1.2-0.3-1.5-0.8c-0.4,0.6-0.9,0.8-1.6,0.8h-0.7v-1.2h0.8c0.7,0,1.2-0.4,1.3-1.2c0-0.2,0.1-0.3,0.2-0.3
		c0.1,0,0.1,0.1,0.2,0.3c0.1,0.8,0.5,1.2,1.3,1.2c0.7,0,1.2-0.4,1.2-1.2c0-0.2,0.1-0.3,0.2-0.3c0.1,0,0.2,0.1,0.2,0.3
		c0.1,0.8,0.5,1.2,1,1.2c0.7,0,1.2-0.4,1.2-1.2c0-0.2,0.1-0.3,0.2-0.3c0.1,0,0.2,0.1,0.2,0.3c0.1,0.8,0.5,1.2,1.2,1.2h0.6V241.3z
		 M357.2,236.3l-0.7,0.7l-0.7-0.7l0.7-0.7L357.2,236.3z M358.1,234.7l-0.7,0.7l-0.7-0.7l0.7-0.7L358.1,234.7z M359,236.3l-0.7,0.7
		l-0.7-0.7l0.7-0.7L359,236.3z" id="PATH_34" class="area" title=""></path>
	<path d="M366.8,241.3H366c-0.9,0-1.5-0.3-1.9-0.9c-0.3,0.6-1,0.9-2.1,0.9h-0.6v-1.2h0.9c1,0,1.5-0.4,1.6-1.1c0-0.3,0.1-0.5,0.2-0.5
		s0.2,0.2,0.2,0.5c0.1,0.7,0.6,1.1,1.5,1.1h0.9V241.3z M363.5,243.5l-0.8,0.8l-0.8-0.8l0.8-0.8L363.5,243.5z M365.2,243.5l-0.8,0.8
		l-0.8-0.8l0.8-0.8L365.2,243.5z" id="PATH_35" class="area" title=""></path>
	<path d="M369.2,239.3c0,1.3-0.7,2-2,2h-0.8v-1.2h0.7c1,0,1.5-0.2,1.5-0.5c0-0.3-0.2-0.7-0.7-1.2l0.4-1c0-0.1,0.1-0.1,0.1-0.1
		s0.1,0.1,0.2,0.2C368.9,238.1,369.2,238.7,369.2,239.3z M368.8,243.5l-0.8,0.8l-0.8-0.8l0.8-0.8L368.8,243.5z" id="PATH_36" class="area" title=""></path>
	<path d="M375.4,241.3H375c-0.4,0-0.6-0.1-0.8-0.2c0,0.1,0,0.2,0,0.3c0,0.9-0.3,1.8-0.9,2.7c-0.5,0.8-1,1.1-1.3,1.1
		c-0.8,0-1.4,0-2-0.1c-0.2,0-0.3-0.1-0.3-0.1s0.1-0.1,0.3-0.1c0.8-0.2,1.6-0.6,2.4-1.2c0.8-0.7,1.3-1.4,1.3-2.1c0-0.4-0.3-1-1-1.7
		l0.5-0.9c0-0.1,0.1-0.1,0.1-0.1c0,0,0.1,0.1,0.1,0.1c0.3,0.4,0.5,0.7,0.7,0.8c0.3,0.2,0.7,0.4,1.1,0.4h0.3V241.3z" id="PATH_37" class="area" title=""></path>
	<path d="M383.3,239.2c0,0.6-0.1,1.1-0.4,1.5c-0.3,0.4-0.8,0.7-1.3,0.7c-0.7,0-1.1-0.3-1.4-0.8c-0.4,0.6-0.8,0.8-1.4,0.8
		c-0.7,0-1.2-0.3-1.5-0.8c-0.4,0.6-0.9,0.8-1.6,0.8H375v-1.2h0.8c0.7,0,1.2-0.4,1.3-1.2c0-0.2,0.1-0.3,0.2-0.3
		c0.1,0,0.1,0.1,0.2,0.3c0.1,0.8,0.5,1.2,1.3,1.2c0.4,0,0.8-0.1,1-0.3c0.1-0.2,0.2-0.4,0.3-0.8c0-0.2,0.1-0.3,0.2-0.3
		c0.1,0,0.1,0.1,0.2,0.3c0.1,0.8,0.5,1.2,1.2,1.2c0.8,0,1.1-0.2,1.1-0.5c0-0.3-0.2-0.7-0.6-1.1l0.5-0.9c0.1-0.1,0.1-0.2,0.2-0.2
		s0.1,0.1,0.2,0.2C383.1,238.2,383.3,238.8,383.3,239.2z" id="PATH_38" class="area" title=""></path>
</g>
<g id="G_39" class="area" title="">
	<path d="M354.2,196.1c0.1,0.3,0.1,0.6,0.1,0.9c0,0.4-0.1,0.7-0.2,1.1c-0.3,0.7-0.8,1.3-1.8,1.7c-0.8,0.3-1.6,0.5-2.5,0.5
		c-0.9,0-1.6-0.2-2.2-0.6c-0.6-0.5-0.9-1.1-0.9-2c0-0.5,0.1-0.9,0.3-1.5c0.2-0.4,0.3-0.7,0.5-0.9c0.1-0.1,0.2-0.1,0.2-0.1
		c0.1,0,0.1,0,0.1,0.1c0,0,0,0.1,0,0.2c-0.3,0.6-0.4,1.2-0.4,1.7c0,0.5,0.2,0.9,0.5,1.3c0.4,0.5,1.1,0.7,2,0.7c1,0,1.9-0.2,2.6-0.5
		c0.6-0.3,1-0.6,1.2-1c0.1-0.1,0.1-0.3,0.1-0.4c0-0.3-0.1-0.6-0.2-1c-0.1-0.3-0.4-0.8-0.9-1.6l0.4-0.8c0.1-0.1,0.1-0.2,0.1-0.2
		s0.1,0,0.1,0.1C353.7,194.5,354,195.3,354.2,196.1z M351.2,191.7l-0.8,0.8l-0.8-0.8l0.8-0.8L351.2,191.7z" id="PATH_40" class="area" title=""></path>
	<path d="M358.2,196.2h-0.7c-0.7,0-1.3-0.3-1.5-0.9c-0.2-0.4-0.3-1.1-0.3-1.9v-1.9c0-0.9-0.1-2.2-0.2-3.9l0.6-0.7
		c0.1-0.1,0.2-0.1,0.2,0c0.1,0.9,0.2,2.2,0.2,3.9v2.9c0,0.8,0.4,1.2,1.2,1.2h0.5V196.2z" id="PATH_41" class="area" title=""></path>
	<path d="M363.1,196.2h-0.8c-0.9,0-1.5-0.3-1.9-0.9c-0.3,0.6-1,0.9-2.1,0.9h-0.6v-1.2h0.9c1,0,1.5-0.4,1.6-1.1
		c0-0.3,0.1-0.5,0.2-0.5s0.2,0.2,0.2,0.5c0.1,0.7,0.6,1.1,1.5,1.1h0.9V196.2z M359.8,198.4l-0.8,0.8l-0.8-0.8l0.8-0.8L359.8,198.4z
		 M361.6,198.4l-0.8,0.8l-0.8-0.8l0.8-0.8L361.6,198.4z" id="PATH_42" class="area" title=""></path>
	<path d="M368.1,194.2c0,0.5,0,0.9-0.2,1.3c-0.2,0.5-0.5,0.8-0.8,0.8c-0.5,0-1.3-0.3-2.3-1c-0.3,0.4-0.5,0.6-0.6,0.7
		c-0.3,0.2-0.6,0.3-1,0.3h-0.5v-1.2h0.7c0.4,0,0.8-0.2,1.2-0.7c0.2-0.2,0.5-0.7,0.9-1.3c0.3-0.5,0.7-0.7,1-0.7
		c0.5,0,0.9,0.2,1.2,0.7C367.9,193.5,368.1,193.9,368.1,194.2z M367.5,195c0-0.3-0.1-0.6-0.3-1c-0.2-0.4-0.5-0.6-0.8-0.6
		c-0.3,0-0.6,0.3-1,0.9c0.2,0.2,0.5,0.4,0.9,0.6c0.4,0.2,0.8,0.3,1,0.3C367.4,195.2,367.5,195.1,367.5,195z" id="PATH_43" class="area" title=""></path>
	<path d="M373.1,196.3c0,1-0.3,1.9-0.9,2.8c-0.5,0.7-1,1.1-1.3,1.1c-0.8,0-1.4,0-2-0.1c-0.2,0-0.3-0.1-0.3-0.1s0.1-0.1,0.3-0.1
		c0.8-0.2,1.6-0.6,2.4-1.2c0.8-0.7,1.3-1.4,1.3-2.1c0-0.4-0.3-1-1-1.7l0.5-0.9c0-0.1,0.1-0.1,0.1-0.1c0,0,0.1,0.1,0.1,0.1
		c0.2,0.3,0.5,0.7,0.6,1.2C373,195.5,373.1,196,373.1,196.3z" id="PATH_44" class="area" title=""></path>
	<path d="M379.3,194.1c0,1.4-0.9,2.1-2.8,2.1c-0.7,0-1.2-0.1-1.5-0.3c-0.4-0.2-0.6-0.7-0.6-1.3c0-0.3,0.1-0.6,0.2-0.9
		c0.1-0.1,0.1-0.2,0.2-0.2c0.1,0,0.1,0.1,0.1,0.3c0,0.1,0,0.2,0,0.3c0,0.4,0.2,0.7,0.6,0.8c0.2,0.1,0.6,0.1,1.1,0.1
		c1.5,0,2.2-0.2,2.2-0.7c0-0.7-0.9-1.7-2.6-2.9l0.3-1c0-0.1,0.1-0.1,0.1-0.1c0,0,0.1,0,0.2,0.1C378.4,191.7,379.3,193,379.3,194.1z" id="PATH_45" class="area" title=""></path>
</g>
<g id="G_46" class="area" title="">
	<path d="M292.9,190.7h-0.4c-0.4,0-0.7-0.1-1-0.4c-0.2-0.2-0.4-0.4-0.6-0.8c-0.2,0.4-0.5,0.7-0.8,0.9c-0.4,0.2-0.9,0.3-1.7,0.3
		c-1.4,0-2.1-0.5-2.1-1.5c0-0.3,0.1-0.7,0.3-1c0.1-0.1,0.1-0.2,0.2-0.2c0.1,0,0.1,0.1,0.1,0.2c0,0.1,0,0.1,0,0.3c0,0.1,0,0.2,0,0.3
		c0,0.6,0.5,0.9,1.5,0.9c1.4,0,2.1-0.3,2.1-0.8c0-0.3-0.4-1.4-1.2-3.3l0.4-0.8c0.1-0.1,0.1-0.2,0.1-0.2c0,0,0.1,0.1,0.1,0.2
		c0.3,0.8,0.8,2,1.4,3.6c0.3,0.8,0.7,1.2,1.3,1.2h0.3V190.7z" id="PATH_47" class="area" title=""></path>
	<path d="M297.8,190.7H297c-0.9,0-1.5-0.3-1.9-0.9c-0.3,0.6-1,0.9-2.1,0.9h-0.6v-1.2h0.9c1,0,1.5-0.4,1.6-1.1c0-0.3,0.1-0.5,0.2-0.5
		s0.2,0.2,0.2,0.5c0.1,0.7,0.6,1.1,1.5,1.1h0.9V190.7z M295.8,185.5l-0.8,0.8l-0.8-0.8l0.8-0.8L295.8,185.5z" id="PATH_48" class="area" title=""></path>
	<path d="M305.6,187.8l-0.4,0.8c-0.7,0-1.3,0-1.6,0.1c-0.4,0.2-1,0.4-1.8,0.8c-0.8,0.4-1.4,0.7-1.8,0.8c-0.6,0.2-1.3,0.3-1.9,0.3
		h-0.7v-1.2h0.8c0.9,0,1.7-0.2,2.4-0.5l2.3-1c-0.4-0.1-1-0.3-1.8-0.6c-0.7-0.3-1.1-0.4-1.3-0.4c-0.4,0-0.8,0.2-1.2,0.5
		c-0.1,0.1-0.1,0.1-0.2,0.1c-0.1,0-0.1,0-0.1-0.1c0,0,0-0.1,0-0.1c0.3-1,0.9-1.4,1.7-1.4c0.3,0,0.7,0.1,1.1,0.3
		c0.8,0.4,1.4,0.6,1.8,0.8c0.7,0.2,1.5,0.4,2.4,0.4c0.2,0,0.3,0,0.3,0.1C305.7,187.6,305.7,187.6,305.6,187.8z M302.3,192.7
		l-0.8,0.8l-0.8-0.8l0.8-0.8L302.3,192.7z" id="PATH_49" class="area" title=""></path>
	<path d="M311.9,190.7h-0.4c-0.4,0-0.6-0.1-0.8-0.2c0,0.1,0,0.2,0,0.3c0,0.9-0.3,1.8-0.9,2.7c-0.5,0.8-1,1.1-1.3,1.1
		c-0.8,0-1.4,0-2-0.1c-0.2,0-0.3-0.1-0.3-0.1s0.1-0.1,0.3-0.1c0.8-0.2,1.6-0.6,2.4-1.2c0.8-0.7,1.3-1.4,1.3-2.1c0-0.4-0.3-1-1-1.7
		l0.5-0.9c0-0.1,0.1-0.1,0.1-0.1c0,0,0.1,0.1,0.1,0.1c0.3,0.4,0.5,0.7,0.7,0.8c0.3,0.2,0.7,0.4,1.1,0.4h0.3V190.7z" id="PATH_50" class="area" title=""></path>
	<path d="M316.9,190.7h-0.8c-0.9,0-1.5-0.3-1.9-0.9c-0.3,0.6-1,0.9-2.1,0.9h-0.6v-1.2h0.9c1,0,1.5-0.4,1.6-1.1
		c0-0.3,0.1-0.5,0.2-0.5s0.2,0.2,0.2,0.5c0.1,0.7,0.6,1.1,1.5,1.1h0.9V190.7z M313.6,192.9l-0.8,0.8l-0.8-0.8l0.8-0.8L313.6,192.9z
		 M315.3,192.9l-0.8,0.8l-0.8-0.8l0.8-0.8L315.3,192.9z" id="PATH_51" class="area" title=""></path>
	<path d="M319.3,188.7c0,1.3-0.7,2-2,2h-0.8v-1.2h0.7c1,0,1.5-0.2,1.5-0.5c0-0.3-0.2-0.7-0.7-1.2l0.4-1c0-0.1,0.1-0.1,0.1-0.1
		s0.1,0.1,0.2,0.2C319,187.4,319.3,188,319.3,188.7z M318.9,192.9l-0.8,0.8l-0.8-0.8l0.8-0.8L318.9,192.9z" id="PATH_52" class="area" title=""></path>
</g>
<g id="G_53" class="area" title="">
	<path d="M358.4,148.6c0,0.7-0.2,1.2-0.6,1.6c-0.4,0.4-1,0.5-1.6,0.5c-0.4,0-0.8-0.1-1.1-0.4c-0.3-0.3-0.5-0.6-0.5-1
		c0-0.5,0.2-1,0.6-1.7c0.3-0.6,0.7-1.1,1.1-1.5C357.7,146.8,358.4,147.6,358.4,148.6z M357.8,149c0-0.3-0.2-0.6-0.7-1
		c-0.4-0.4-0.7-0.6-1.1-0.7c-0.5,0.7-0.8,1.2-0.8,1.6c0,0.2,0.1,0.4,0.4,0.6c0.2,0.1,0.4,0.2,0.7,0.2c0.4,0,0.8-0.1,1.1-0.2
		C357.7,149.2,357.8,149.1,357.8,149z" id="PATH_54" class="area" title=""></path>
	<path d="M364.6,150.7h-1.1c-0.1,1.4-0.6,2.5-1.6,3.5c-0.3,0.3-0.5,0.5-0.6,0.5c-0.5,0-1.2-0.1-1.9-0.2c-0.2,0-0.4-0.1-0.4-0.1
		s0.1-0.1,0.4-0.2c0.8-0.2,1.6-0.7,2.3-1.2c0.3-0.3,0.6-0.5,0.8-0.9c0.3-0.4,0.5-0.8,0.5-1.1v-0.3h-1.3c-1,0-1.4-0.4-1.4-1.2
		c0-0.5,0.1-1,0.4-1.6c0.3-0.6,0.7-1,1.1-1c0.5,0,0.9,0.3,1.2,1c0.2,0.5,0.4,1,0.4,1.6h1.1V150.7z M362.8,149.5
		c0-0.3-0.1-0.6-0.3-0.9c-0.2-0.4-0.5-0.5-0.8-0.5c-0.2,0-0.4,0.1-0.5,0.2s-0.2,0.3-0.2,0.6c0,0.5,0.4,0.7,1.2,0.7
		C362.3,149.5,362.5,149.5,362.8,149.5z" id="PATH_55" class="area" title=""></path>
	<path d="M370.8,141.4c0,0.2-0.2,0.6-0.4,1.1l-2.5,0.8c-1.1,0.4-1.9,0.7-2.3,0.9c0.8,0.8,1.3,1.4,1.6,1.7c0.5,0.7,0.8,1.3,0.9,2
		c0,0.5,0,1-0.2,1.4c-0.3,0.9-1.4,1.3-3.1,1.3h-0.5v-1.2h0.6c0.8,0,1.4,0,1.7-0.1c0.7-0.2,1.1-0.5,1.1-1c0-0.7-0.5-1.5-1.6-2.5
		l-0.1,0.2c-0.1-0.1-0.3-0.3-0.5-0.6c-0.3-0.3-0.4-0.6-0.4-0.6c0-0.2,0-0.4,0.1-0.8c0.1-0.4,0.2-0.6,0.3-0.7
		c0.1-0.1,0.8-0.4,2.1-0.8C368.7,142.1,369.9,141.7,370.8,141.4z" id="PATH_56" class="area" title=""></path>
	<path d="M376.6,150.7h-0.4c-0.4,0-0.6-0.1-0.8-0.2c0,0.1,0,0.2,0,0.3c0,0.9-0.3,1.8-0.9,2.7c-0.5,0.8-1,1.1-1.3,1.1
		c-0.8,0-1.4,0-2-0.1c-0.2,0-0.3-0.1-0.3-0.1s0.1-0.1,0.3-0.1c0.8-0.2,1.6-0.6,2.4-1.2c0.8-0.7,1.3-1.4,1.3-2.1c0-0.4-0.3-1-1-1.7
		l0.5-0.9c0-0.1,0.1-0.1,0.1-0.1c0,0,0.1,0.1,0.1,0.1c0.3,0.4,0.5,0.7,0.7,0.8c0.3,0.2,0.7,0.4,1.1,0.4h0.3V150.7z" id="PATH_57" class="area" title=""></path>
	<path d="M379,148.7c0,1.3-0.7,2-2,2h-0.8v-1.2h0.7c1,0,1.5-0.2,1.5-0.5c0-0.3-0.2-0.7-0.7-1.2l0.4-1c0-0.1,0.1-0.1,0.1-0.1
		s0.1,0.1,0.2,0.2C378.8,147.4,379,148,379,148.7z M378.2,152.9l-0.8,0.8l-0.8-0.8l0.8-0.8L378.2,152.9z M379.9,152.9l-0.8,0.8
		l-0.8-0.8l0.8-0.8L379.9,152.9z" id="PATH_58" class="area" title=""></path>
	<path d="M385,150.8c0,1-0.3,1.9-0.9,2.8c-0.5,0.7-1,1.1-1.3,1.1c-0.8,0-1.4,0-2-0.1c-0.2,0-0.3-0.1-0.3-0.1s0.1-0.1,0.3-0.1
		c0.8-0.2,1.6-0.6,2.4-1.2c0.8-0.7,1.3-1.4,1.3-2.1c0-0.4-0.3-1-1-1.7l0.5-0.9c0-0.1,0.1-0.1,0.1-0.1c0,0,0.1,0.1,0.1,0.1
		c0.2,0.3,0.5,0.7,0.6,1.2C384.9,150,385,150.4,385,150.8z M384.3,145.4l-0.8,0.8l-0.8-0.8l0.8-0.8L384.3,145.4z" id="PATH_59" class="area" title=""></path>
</g>
<g id="G_60" class="area" title="">
	<path d="M284.5,121.7H284c-0.5,0-0.8,0-1-0.1c0,0.3,0.1,0.5,0.1,0.8c0,0.5-0.1,0.8-0.2,1.1c-0.3,0.7-0.8,1.3-1.8,1.7
		c-0.8,0.3-1.6,0.5-2.5,0.5c-0.9,0-1.6-0.2-2.2-0.6c-0.6-0.5-0.9-1.1-0.9-2c0-0.5,0.1-0.9,0.3-1.5c0.2-0.4,0.3-0.7,0.5-0.9
		c0.1-0.1,0.2-0.1,0.2-0.1c0.1,0,0.1,0,0.1,0.1c0,0,0,0.1,0,0.2c-0.3,0.6-0.4,1.2-0.4,1.7c0,0.5,0.2,0.9,0.5,1.3
		c0.4,0.5,1.1,0.7,2,0.7c1,0,1.9-0.2,2.6-0.5c0.6-0.3,1-0.6,1.2-1c0.1-0.1,0.1-0.3,0-0.7c0-0.3-0.1-0.6-0.1-0.7
		c-0.1-0.3-0.5-0.8-1-1.5l0.4-0.8c0.1-0.1,0.1-0.2,0.1-0.2s0.1,0,0.1,0.1c0.5,0.8,1,1.2,1.6,1.2h0.8V121.7z M280,117.2l-0.8,0.8
		l-0.8-0.8l0.8-0.8L280,117.2z" id="PATH_61" class="area" title=""></path>
	<path d="M286.8,119.7c0,1.3-0.7,2-2,2H284v-1.2h0.7c1,0,1.5-0.2,1.5-0.5c0-0.3-0.2-0.7-0.7-1.2l0.4-1c0-0.1,0.1-0.1,0.1-0.1
		s0.1,0.1,0.2,0.2C286.6,118.4,286.8,119,286.8,119.7z M286.8,115.6l-0.1,0.5c-0.7,0.1-1.5,0.3-2.2,0.6v-0.4
		c0.1-0.1,0.3-0.2,0.6-0.4c-0.4-0.3-0.6-0.5-0.6-0.7c0-0.2,0.1-0.5,0.4-0.8c0.3-0.4,0.6-0.5,0.9-0.5c0.4,0,0.6,0.2,0.8,0.5
		c0,0.1,0.1,0.2,0,0.2s-0.1,0-0.2,0c-0.2-0.1-0.4-0.1-0.6-0.1c-0.1,0-0.2,0-0.4,0.1c-0.2,0.1-0.2,0.2-0.2,0.3c0,0.2,0.1,0.4,0.4,0.5
		c0.2,0.1,0.4,0.2,0.6,0.2c0.2,0,0.3,0,0.5-0.1l0,0c0.1,0,0.2,0,0.2,0C286.8,115.5,286.8,115.5,286.8,115.6z" id="PATH_62" class="area" title=""></path>
	<path d="M290.8,121.7h-0.7c-0.7,0-1.3-0.3-1.5-0.9c-0.2-0.4-0.3-1.1-0.3-1.9v-1.9c0-0.9-0.1-2.2-0.2-3.9l0.6-0.7
		c0.1-0.1,0.2-0.1,0.2,0c0.1,0.9,0.2,2.2,0.2,3.9v2.9c0,0.8,0.4,1.2,1.2,1.2h0.5V121.7z" id="PATH_63" class="area" title=""></path>
	<path d="M294.7,118.8c0,0.9-0.1,1.5-0.3,1.8c-0.5,0.7-1.3,1-2.6,1h-1.4v-1.2h1c1.7,0,2.6-0.3,2.8-0.8c0.1-0.2,0-0.4-0.1-0.6
		c-0.4,0.1-0.8,0.1-1.3,0.1c-0.9,0-1.4-0.4-1.4-1.2c0-0.5,0.1-1.1,0.4-1.6c0.3-0.6,0.7-0.9,1.2-0.9c0.4,0,0.8,0.3,1.1,0.8
		C294.5,117,294.7,117.8,294.7,118.8z M292.7,113.4l-0.8,0.8l-0.8-0.8l0.8-0.8L292.7,113.4z M293.9,118c0-0.3-0.1-0.6-0.3-0.9
		c-0.2-0.3-0.5-0.4-0.8-0.4c-0.2,0-0.4,0.1-0.6,0.2s-0.2,0.3-0.2,0.5c0,0.4,0.3,0.6,1,0.6C293.2,118.1,293.6,118.1,293.9,118z
		 M294.4,113.4l-0.8,0.8l-0.8-0.8l0.8-0.8L294.4,113.4z" id="PATH_64" class="area" title=""></path>
</g>
<g id="G_65" class="area" title="">
	<path d="M199.3,50.3h-0.7c-0.9,0-1.4-0.5-1.6-1.6c-0.5,0.5-0.7,0.7-0.8,0.7h-0.9c-0.3,0-0.6,0-0.9-0.1c-0.4-0.1-0.6-0.3-0.6-0.5
		c0-0.7,0.3-1.4,0.8-1.8c0.4-0.3,1-0.6,1.8-1l-0.2-1l0.7-0.8c0,0.1,0.3,1.2,0.7,3.3c0.1,0.6,0.3,1.1,0.4,1.3
		c0.2,0.3,0.4,0.4,0.8,0.4h0.7V50.3z M196.8,48.3l-0.3-1.6c-0.3,0.1-0.7,0.3-1.2,0.5c-0.6,0.3-1,0.6-1,0.7c0,0.2,0.2,0.3,0.7,0.4
		c0.3,0.1,0.6,0.1,0.9,0.1C196.3,48.4,196.6,48.3,196.8,48.3z" id="PATH_66" class="area" title=""></path>
	<path d="M201.7,48.3c0,1.3-0.7,2-2,2h-0.8v-1.2h0.7c1,0,1.5-0.2,1.5-0.5c0-0.3-0.2-0.7-0.7-1.2l0.4-1c0-0.1,0.1-0.1,0.1-0.1
		c0,0,0.1,0.1,0.2,0.2C201.5,47.1,201.7,47.7,201.7,48.3z M200.9,52.5l-0.8,0.8l-0.8-0.8l0.8-0.8L200.9,52.5z M202.7,52.5l-0.8,0.8
		l-0.8-0.8l0.8-0.8L202.7,52.5z" id="PATH_67" class="area" title=""></path>
	<path d="M207.8,49.9c0,1.5-0.5,2.8-1.5,3.8c-0.3,0.3-0.5,0.5-0.6,0.5c-0.6,0-1.2-0.1-1.9-0.2c-0.3,0-0.4-0.1-0.4-0.1
		c0,0,0.1-0.1,0.4-0.2c0.8-0.2,1.6-0.7,2.3-1.3c0.3-0.3,0.6-0.5,0.8-0.9c0.3-0.4,0.5-0.8,0.5-1.1v-0.3l-1.3,0
		c-0.9,0-1.4-0.4-1.4-1.1c0-0.5,0.1-1,0.4-1.6c0.3-0.6,0.7-1,1.1-1c0.6,0,1.1,0.4,1.4,1.3C207.7,48.5,207.8,49.2,207.8,49.9z
		 M207.1,49.1c0-0.3-0.1-0.6-0.3-0.9c-0.2-0.3-0.5-0.5-0.8-0.5c-0.2,0-0.4,0.1-0.5,0.2c-0.2,0.2-0.2,0.3-0.2,0.5
		c0,0.5,0.3,0.7,1,0.7C206.4,49.2,206.7,49.2,207.1,49.1z" id="PATH_68" class="area" title=""></path>
	<path d="M214,50.3h-0.4c-0.4,0-0.6-0.1-0.8-0.2c0,0.1,0,0.2,0,0.3c0,0.9-0.3,1.8-0.9,2.7c-0.5,0.8-1,1.1-1.3,1.1
		c-0.8,0-1.4,0-2-0.1c-0.2,0-0.3-0.1-0.3-0.1s0.1-0.1,0.3-0.1c0.8-0.2,1.6-0.6,2.4-1.2c0.8-0.7,1.3-1.4,1.3-2.1c0-0.4-0.3-1-1-1.7
		l0.5-0.9c0-0.1,0.1-0.1,0.1-0.1c0,0,0.1,0.1,0.1,0.1c0.3,0.4,0.5,0.7,0.7,0.8c0.3,0.2,0.7,0.4,1.1,0.4h0.3V50.3z" id="PATH_69" class="area" title=""></path>
	<path d="M223.3,50.3h-0.6c-0.7,0-1.1-0.3-1.4-0.8c-0.2,0.6-0.7,0.8-1.3,0.8c-0.6,0-1-0.3-1.3-0.8c-0.3,0.6-0.7,0.8-1.3,0.8
		c-0.7,0-1.2-0.3-1.5-0.8c-0.4,0.6-0.9,0.8-1.6,0.8h-0.7v-1.2h0.8c0.7,0,1.2-0.4,1.3-1.2c0-0.2,0.1-0.3,0.2-0.3
		c0.1,0,0.1,0.1,0.2,0.3c0.1,0.8,0.5,1.2,1.3,1.2c0.7,0,1.2-0.4,1.2-1.2c0-0.2,0.1-0.3,0.2-0.3c0.1,0,0.2,0.1,0.2,0.3
		c0.1,0.8,0.5,1.2,1,1.2c0.7,0,1.2-0.4,1.2-1.2c0-0.2,0.1-0.3,0.2-0.3c0.1,0,0.2,0.1,0.2,0.3c0.1,0.8,0.5,1.2,1.2,1.2h0.6V50.3z
		 M218.6,45.3l-0.7,0.7l-0.7-0.7l0.7-0.7L218.6,45.3z M219.5,43.7l-0.7,0.7l-0.7-0.7l0.7-0.7L219.5,43.7z M220.4,45.3l-0.7,0.7
		l-0.7-0.7l0.7-0.7L220.4,45.3z" id="PATH_70" class="area" title=""></path>
	<path d="M225.7,48.3c0,1.3-0.7,2-2,2h-0.8v-1.2h0.7c1,0,1.5-0.2,1.5-0.5c0-0.3-0.2-0.7-0.7-1.2l0.4-1c0-0.1,0.1-0.1,0.1-0.1
		s0.1,0.1,0.2,0.2C225.5,47.1,225.7,47.7,225.7,48.3z M225.3,52.5l-0.8,0.8l-0.8-0.8l0.8-0.8L225.3,52.5z" id="PATH_71" class="area" title=""></path>
</g>
<g id="G_72" class="area" title="">
	<path d="M202.8,104.9c0,1.4-0.6,2.1-1.8,2.1c-0.7,0-1.1-0.3-1.3-0.9c-0.3,0.6-0.8,0.9-1.4,0.9c-0.2,0-0.5,0-0.7-0.1
		c0,0.6-0.1,1.2-0.1,1.9c-0.3,0.7-0.8,1.3-1.7,1.7c-0.8,0.3-1.6,0.5-2.5,0.5c-0.9,0-1.6-0.2-2.2-0.6c-0.6-0.5-0.9-1.1-0.9-2
		c0-0.5,0.1-0.9,0.3-1.5c0.2-0.4,0.3-0.7,0.5-0.9c0.1-0.1,0.2-0.1,0.2-0.1c0.1,0,0.1,0,0.1,0.1c0,0,0,0.1,0,0.2
		c-0.3,0.6-0.4,1.2-0.4,1.7c0,0.5,0.2,0.9,0.5,1.3c0.4,0.5,1.1,0.7,2,0.7c1,0,1.9-0.2,2.6-0.5c0.6-0.3,1-0.6,1.1-1
		c0.1-0.1,0.1-0.3,0-0.7c0-0.3-0.1-0.6-0.1-0.7c-0.1-0.3-0.4-0.8-1-1.5l0.4-0.8c0.1-0.1,0.1-0.2,0.1-0.2c0,0,0.1,0,0.1,0.1
		c0.3,0.4,0.5,0.7,0.6,0.8c0.3,0.3,0.6,0.4,1,0.4c0.4,0,0.8-0.1,1-0.4c0.1-0.2,0.2-0.4,0.3-0.9c0-0.2,0.1-0.3,0.2-0.3
		c0.1,0,0.1,0.1,0.1,0.3c0.1,0.5,0.2,0.8,0.4,1c0.2,0.2,0.6,0.3,1.1,0.3c0.2,0,0.4-0.1,0.5-0.2c0.2-0.1,0.3-0.3,0.3-0.5
		c0-0.3-0.2-0.6-0.6-1.1l0.5-0.9c0.1-0.1,0.1-0.1,0.1-0.1c0,0,0.1,0.1,0.1,0.1C202.6,103.8,202.8,104.3,202.8,104.9z" id="PATH_73" class="area" title=""></path>
	<path d="M207.9,106.6c0,1.5-0.5,2.8-1.5,3.8c-0.3,0.3-0.5,0.5-0.6,0.5c-0.6,0-1.2-0.1-1.9-0.2c-0.3,0-0.4-0.1-0.4-0.1
		c0,0,0.1-0.1,0.4-0.2c0.8-0.2,1.6-0.7,2.3-1.3c0.3-0.3,0.6-0.5,0.8-0.9c0.3-0.4,0.5-0.8,0.5-1.1v-0.3l-1.3,0
		c-0.9,0-1.4-0.4-1.4-1.1c0-0.5,0.1-1,0.4-1.6c0.3-0.6,0.7-1,1.1-1c0.6,0,1.1,0.4,1.4,1.3C207.8,105.1,207.9,105.8,207.9,106.6z
		 M207.2,105.8c0-0.3-0.1-0.6-0.3-0.9c-0.2-0.3-0.5-0.5-0.8-0.5c-0.2,0-0.4,0.1-0.5,0.2c-0.2,0.2-0.2,0.3-0.2,0.5
		c0,0.5,0.3,0.7,1,0.7C206.5,105.9,206.8,105.8,207.2,105.8z" id="PATH_74" class="area" title=""></path>
	<path d="M214,104.9c0,1.4-0.9,2.1-2.8,2.1c-0.7,0-1.2-0.1-1.5-0.3c-0.4-0.2-0.6-0.7-0.6-1.3c0-0.3,0.1-0.6,0.2-0.9
		c0.1-0.1,0.1-0.2,0.2-0.2c0.1,0,0.1,0.1,0.1,0.3c0,0.1,0,0.2,0,0.3c0,0.4,0.2,0.7,0.6,0.8c0.2,0.1,0.6,0.1,1.1,0.1
		c1.5,0,2.2-0.2,2.2-0.7c0-0.7-0.9-1.7-2.6-2.9l0.3-1c0-0.1,0.1-0.1,0.1-0.1c0,0,0.1,0,0.2,0.1C213.2,102.5,214,103.8,214,104.9z" id="PATH_75" class="area" title=""></path>
	<path d="M220.2,107h-0.4c-0.4,0-0.6-0.1-0.8-0.2c0,0.1,0,0.2,0,0.3c0,0.9-0.3,1.8-0.9,2.7c-0.5,0.8-1,1.1-1.3,1.1
		c-0.8,0-1.4,0-2-0.1c-0.2,0-0.3-0.1-0.3-0.1s0.1-0.1,0.3-0.1c0.8-0.2,1.6-0.6,2.4-1.2c0.8-0.7,1.3-1.4,1.3-2.1c0-0.4-0.3-1-1-1.7
		l0.5-0.9c0-0.1,0.1-0.1,0.1-0.1c0,0,0.1,0.1,0.1,0.1c0.3,0.4,0.5,0.7,0.7,0.8c0.3,0.2,0.7,0.4,1.1,0.4h0.3V107z" id="PATH_76" class="area" title=""></path>
	<path d="M224.1,104.2v0.4c0,0.7-0.1,1.1-0.3,1.4c-0.5,0.7-1.3,1-2.6,1h-1.4v-1.2h1c1.7,0,2.6-0.3,2.8-0.8c0-0.1,0-0.1,0-0.2
		c0-0.2,0-0.3-0.1-0.4c-0.4,0.1-0.9,0.1-1.3,0.1c-0.9,0-1.4-0.4-1.4-1.2c0-0.5,0.1-1.1,0.4-1.6c0.3-0.6,0.7-0.9,1.2-0.9
		c0.4,0,0.8,0.3,1.1,0.8C223.9,102.3,224.1,103.2,224.1,104.2z M223,98.7l-0.8,0.8l-0.8-0.8l0.8-0.8L223,98.7z M223.4,103.3
		c0-0.3-0.1-0.6-0.3-0.9c-0.2-0.3-0.5-0.4-0.8-0.4c-0.2,0-0.4,0.1-0.6,0.2s-0.2,0.3-0.2,0.5c0,0.4,0.3,0.6,1,0.6
		C222.7,103.4,223,103.4,223.4,103.3z" id="PATH_77" class="area" title=""></path>
</g>
<g id="G_78" class="area" title="">
	<path d="M224.1,159.2c0.1,0.3,0.1,0.6,0.1,0.9c0,0.4-0.1,0.7-0.2,1.1c-0.3,0.7-0.8,1.3-1.8,1.7c-0.8,0.3-1.6,0.5-2.5,0.5
		c-0.9,0-1.6-0.2-2.2-0.6c-0.6-0.5-0.9-1.1-0.9-2c0-0.5,0.1-0.9,0.3-1.5c0.2-0.4,0.3-0.7,0.5-0.9c0.1-0.1,0.2-0.1,0.2-0.1
		c0.1,0,0.1,0,0.1,0.1c0,0,0,0.1,0,0.2c-0.3,0.6-0.4,1.2-0.4,1.7c0,0.5,0.2,0.9,0.5,1.3c0.4,0.5,1.1,0.7,2,0.7c1,0,1.9-0.2,2.6-0.5
		c0.6-0.3,1-0.6,1.2-1c0.1-0.1,0.1-0.3,0.1-0.4c0-0.3-0.1-0.6-0.2-1c-0.1-0.3-0.4-0.8-0.9-1.6l0.4-0.8c0.1-0.1,0.1-0.2,0.1-0.2
		s0.1,0,0.1,0.1C223.7,157.6,224,158.4,224.1,159.2z M221.2,154.9l-0.8,0.8l-0.8-0.8l0.8-0.8L221.2,154.9z" id="PATH_79" class="area" title=""></path>
	<path d="M228.2,159.3h-0.7c-0.7,0-1.3-0.3-1.5-0.9c-0.2-0.4-0.3-1.1-0.3-1.9v-1.9c0-0.9-0.1-2.2-0.2-3.9l0.6-0.7
		c0.1-0.1,0.2-0.1,0.2,0c0.1,0.9,0.2,2.2,0.2,3.9v2.9c0,0.8,0.4,1.2,1.2,1.2h0.5V159.3z" id="PATH_80" class="area" title=""></path>
	<path d="M230.5,157.3c0,1.3-0.7,2-2,2h-0.8v-1.2h0.7c1,0,1.5-0.2,1.5-0.5c0-0.3-0.2-0.7-0.7-1.2l0.4-1c0-0.1,0.1-0.1,0.1-0.1
		c0,0,0.1,0.1,0.2,0.2C230.3,156.1,230.5,156.7,230.5,157.3z M229.8,161.5l-0.8,0.8l-0.8-0.8l0.8-0.8L229.8,161.5z M231.5,161.5
		l-0.8,0.8l-0.8-0.8l0.8-0.8L231.5,161.5z" id="PATH_81" class="area" title=""></path>
	<path d="M233.8,158.1c0,0.4-0.1,0.8-0.3,1.1c-0.1,0.2-0.2,0.3-0.2,0.3c0,0-0.1-0.1-0.1-0.4c0-1.2-0.2-4-0.6-8.5l0.8-0.8
		c0.1-0.1,0.1-0.1,0.1-0.1c0,0,0,0.1,0,0.2C233.8,151.3,233.8,154,233.8,158.1z" id="PATH_82" class="area" title=""></path>
	<path d="M240.1,159.3h-0.4c-0.4,0-0.6-0.1-0.8-0.2c0,0.1,0,0.2,0,0.3c0,0.9-0.3,1.8-0.9,2.7c-0.5,0.8-1,1.1-1.3,1.1
		c-0.8,0-1.4,0-2-0.1c-0.2,0-0.3-0.1-0.3-0.1s0.1-0.1,0.3-0.1c0.8-0.2,1.6-0.6,2.4-1.2c0.8-0.7,1.3-1.4,1.3-2.1c0-0.4-0.3-1-1-1.7
		l0.5-0.9c0-0.1,0.1-0.1,0.1-0.1c0,0,0.1,0.1,0.1,0.1c0.3,0.4,0.5,0.7,0.7,0.8c0.3,0.2,0.7,0.4,1.1,0.4h0.3V159.3z" id="PATH_83" class="area" title=""></path>
	<path d="M248,157.2c0,0.6-0.1,1.1-0.4,1.5c-0.3,0.4-0.8,0.7-1.3,0.7c-0.7,0-1.1-0.3-1.4-0.8c-0.4,0.6-0.8,0.8-1.4,0.8
		c-0.7,0-1.2-0.3-1.5-0.8c-0.4,0.6-0.9,0.8-1.6,0.8h-0.7v-1.2h0.8c0.7,0,1.2-0.4,1.3-1.2c0-0.2,0.1-0.3,0.2-0.3
		c0.1,0,0.1,0.1,0.2,0.3c0.1,0.8,0.5,1.2,1.3,1.2c0.4,0,0.8-0.1,1-0.3c0.1-0.2,0.2-0.4,0.3-0.8c0-0.2,0.1-0.3,0.2-0.3
		c0.1,0,0.1,0.1,0.2,0.3c0.1,0.8,0.5,1.2,1.2,1.2c0.8,0,1.1-0.2,1.1-0.5c0-0.3-0.2-0.7-0.6-1.1l0.5-0.9c0.1-0.1,0.1-0.2,0.2-0.2
		s0.1,0.1,0.2,0.2C247.8,156.2,248,156.8,248,157.2z" id="PATH_84" class="area" title=""></path>
</g>
</svg>


