



    



<svg version="1.1" id="Layer_1" xmlns="http://www.w3.org/2000/svg" xmlns:xlink="http://www.w3.org/1999/xlink" x="0px" y="0px" viewBox="0 0 564.2 467" style="enable-background:new 0 0 564.2 467;" xml:space="preserve" width="100%" height="100%">
<style type="text/css">
	.st0{fill:#FBD0D1;stroke:#010101;stroke-width:0.2;stroke-miterlimit:10;}
	.st1{fill:#DBECCB;stroke:#010101;stroke-width:0.2;stroke-miterlimit:10;}
	.st2{fill:#E8D0E5;stroke:#010101;stroke-width:0.2;stroke-miterlimit:10;}
	.st3{fill:#FDFAD4;stroke:#010101;stroke-width:0.2;stroke-miterlimit:10;}
	.st4{fill:#D3D3D3;stroke:#010101;stroke-width:0.2;stroke-miterlimit:10;}
	.st5{fill:none;stroke:#020202;stroke-width:0.5;stroke-miterlimit:10;}
</style>

		<path class="st0 area" d="M255.9,62.5c3.1,1.6-2.3,8.6,1.6,10.2c15.6,6.3,27.4,16.4,40.7,24.2c2.3,1.6,8.6,1.6,7.8-2.3
			c0-7.8,3.9-11.7,10.2-15.6c4.7-2.3-5.5-10.2-1.6-14.9c1.2-1.2,3.8-1.5,6-2.6l-1.8-7l-0.2-2.4l0.3-1.1l0.5-1.1l0.5-1l-0.3-1
			l-0.5-1.3l0.2-2.4l-0.3-1.4l-1.9-2.4l-1.8-1.6l-2.2-0.6l-5.3,2.4l-1.9-0.3l-12.5-8.4l-3.1-3.1l-1.1-0.5l-2.7-0.5l-1.3-0.3l-1.3-1
			l-3.7-1.6l-7.2-1.4l-5.8-3.1l-0.5,0.8l-0.2,1.6l-1.3,1.4l-1,0.3l-1,0.2l-2.1-0.3h-1l-0.6,0.5l-0.6,0.6l-0.8,0.5l-2.1,0.2l-2.3-0.3
			l-4-1.4l-4.7-4l-1.6-0.8l-1.8,0.2l-1.4,1l-1.1,1.6l-1,1.9l-1.3,1.8l-1.6,0.8l-1.3,0.1c0,0.1,0,0.3,0,0.4
			C230.1,45.3,242.6,53.9,255.9,62.5z" id="_x62F__x631__x6AF__x632_" title="درگز"></path>
		<path class="st1 area" d="M119.8,136.1c-3.1-4.7,3.9-8.6,6.3-13.3c0.1-0.5,0.2-1.1,0.1-1.6c-0.9-0.2-1.9-0.5-2.8-0.7
			c-3.4-0.9-6.6-1.7-9.4-2.3c-6.9-1.4-12.5-4.4-14.3-5.4c-3.2,1.5-19,9-27.6,12.6c-7.7,3.2-11.7,9.7-12.7,11.7
			c3.2,0,4.9-0.6,7.7-1.5l1-0.3c2.1-0.7,2.8-1.4,3.3-1.9c0.8-0.8,1.5-1.4,3.5-1.4c1,0,1.8,0.3,2.5,1c1.4,1.5,1.3,4.1,1.2,6.2
			c0,0.4,0,0.9,0,1.2c0,0.7,1.7,2.1,2.8,2.9c1.6,1.3,3.1,2.4,3.6,3.9c0.8,2.5,0.9,11.4,0.9,12.4v0.6l-1.1,0.9
			c4.2-1.2,8.4-3.5,11.7-5.4c10.2-5.5,18.8,3.1,26.6,8.6c0.7,0.7,3.6,2.9,4.6-0.3c-0.1-0.6-0.1-1.2-0.1-1.9c0,0.7,0.1,1.3,0.1,1.9
			c0-0.2,0.1-0.3,0.1-0.5C130,153.3,126.1,144.7,119.8,136.1z" id="_x62C__x641__x62A__x627__x6CC_" title="جفتای"></path>
		<path class="st2 area" d="M129,192.6c4.8-1.6,14.5-4.8,9.6-12.9c-4.4-4.4-10.2-8.9-11.1-15.8c-0.9,3.2-3.8,1.1-4.6,0.3
			c-7.8-5.5-16.4-14.1-26.6-8.6c-3.3,1.9-7.5,4.2-11.7,5.4l-12.9,10l11.7,15.7l-0.6,1.6C95.4,198.2,112.2,195.4,129,192.6z" id="_x62F__x627__x648__x631__x632__x646_" title="داورزن"></path>
		<path class="st3 area" d="M227,222.9c-2.4-0.8-7,1.6-6.3-1.6c0-1.6,1.6-4.7,0-6.3c-1.6-2.3-5.5-3.9-6.3-7c-1.6-5.5,0.8-10.2,4.7-15.6
			c2.3-2.3,0.8-8.6-3.1-11c-2.3,0-5.5,1.6-6.3,0.8c-1.6-1.6-3.9-2.3-4.7-2.3c-7-2.3-14.9-0.8-20.3-3.9c-7.8-4.7-14.1-4.7-21.9-6.3
			c1.6-2.3,3.1-7,2.3-7c-11.2-0.7-28,8-37.6,0.9c0,0.1-0.1,0.2-0.1,0.4c0.9,6.9,6.7,11.4,11.1,15.8c4.8,8-4.8,11.2-9.6,12.9
			c-16.8,2.8-33.5,5.6-46.1-4.3L75,208.2l0.6,15c3.2,2.7,23.3,19.9,26,23.2c3.3,4,6.9,12,3,17.8c-0.5,0.8-0.9,1.9-1.1,3
			c3.5,1.7,6.9,3.6,10.8,5.8c4.7,3.1,9.4-4.7,14.9-6.3c3.1,0,6.3-0.8,9.4-2.3c1.6-0.8,3.9-3.1,6.3-3.1c12.5-2.3,25,1.6,36-7
			c1.6-0.8,3.9-0.8,4.7,0c3.9,3.9,2.3,16.4,8.6,11c6.3-4.7,13.3-3.9,19.6-4.7c-0.8-1.6,3.1-1.6,1.6-3.1c-3.1-1.6-10.2-1.6-7-6.3
			c1.6-3.1,7-1.6,10.2-3.1c6.3-3.1-2.3-8.6-3.9-12.5C212.1,227.6,223.1,227.6,227,222.9z" id="_x633__x628__x632__x648__x627__x631_" title="سبزوار"></path>
		<path class="st4 area" d="M209.7,255.5c-0.7-1.1-1.4-2.2-2.1-3.3C207,253.9,208.1,254.9,209.7,255.5z" id="PATH_7" title=""></path>
		<path class="st1 area" d="M237.2,124.3c3.1,7,12.5,21.9,21.1,10.9c2.3-3.1-3.9-7-0.8-7.8c6.3-1.6,12.5-2.3,14.9-7
			c3.9-7.8-10.9-8.6-15.6-14.9c0-0.8,0-2.3,0-3.1c4.7-5.5,13.3,0.8,16.4-6.3c1.2-4.6,1-9.6,2.1-14.1c-5.5-3.5-11.3-6.7-17.8-9.3
			c-3.9-1.6,1.6-8.6-1.6-10.2c-13.3-8.6-25.8-17.2-21.9-35.2c0-0.1,0-0.3,0-0.4l-7.3,0.7l-1.3-0.3l-2.3-1.7v27.1
			c0,0.2-0.8,14.5-0.8,17.7c0,3.6-4.2,6.8-11.1,10.7c-1.5,0.8-2.2,2-2.2,3.5c-0.1,2.6,1.8,5.6,3.1,6.5c0.8,0.5,1.8,0.9,3,1.4
			c2.4,1,4.8,2,5.5,4c0.9,2.7-0.6,7.4-0.8,8c2.6,1.5,5.6,2.6,8.7,3.4C236.4,109.5,234.8,118.9,237.2,124.3z" id="_x642__x648__x686__x627__x646_" title="قوچان"></path>
		<path class="st0 area" d="M185.5,147.6c-4.4-0.8-9.1-3.1-11.2-6.7c-1.1-1.8-5.7-3.1-9.7-4.2c-3.8-1-7.3-2-9.3-3.6c-1-0.8-2-1.7-3.1-2.8
			c-3.3-3.1-7-6.6-11.4-6.6c-3.7,0-9.1-1.3-14.6-2.7c0,0.5,0,1.1-0.1,1.6c-2.3,4.7-9.4,8.6-6.3,13.3c6.3,8.6,10.2,17.2,7.8,27.4
			c0,0,0,0.1,0,0.1c6.7,4.9,16.9,2.2,26.2,0.4c2.2-4.9,4.9-10.1,8.2-11.4c7-2.3,16.4,5.5,22.7-0.8
			C185.8,150.7,185.9,149.2,185.5,147.6z" id="_x62C__x648__x6CC__x646_" title="جوین"></path>
		<path class="st2 area" d="M210.6,177.5c-2.3-3.1,1.6-8.6-0.8-10.2c-3.1-3.9-6.3-8.6-2.3-11c4-2,6.8-6.2,9-10.3
			c-1.2-0.7-2.3-1.5-3.5-2.2c-1.6-1.6-0.8-7.8,3.1-11c3.9-3.9-2.3-9.4-6.3-14.1c-1.4-1.4-0.3-4.5-1.1-7.4c-0.8,0.3-1.5,0.7-2.4,1
			c-7,2.8-5.7,10.4-5.7,10.7c0.2,3.6,1.2,13.4,3.1,16.5c0.6,1.1,0.7,2.2,0.1,3.3c-2,3.6-11.3,5-14.8,5c-1.1,0-2.3-0.1-3.5-0.3
			c0.4,1.6,0.3,3.1-0.8,4.2c-6.3,6.3-15.6-1.6-22.7,0.8c-3.3,1.3-6,6.5-8.2,11.4c4.1-0.8,8-1.5,11.3-1.2c0.8,0-0.8,4.7-2.3,7
			c7.8,1.6,14.1,1.6,21.9,6.3c5.5,3.1,13.3,1.6,20.3,3.9c0.8,0,3.1,0.8,4.7,2.3c0.7,0.7,3.3-0.5,5.5-0.7c0-0.5,0-1.1,0-1.6
			C213.7,179.1,212.1,178.3,210.6,177.5z" id="_x62E__x648__x634__x627__x628_" title="خوشاب"></path>
		<path class="st1 area" d="M252,163.5c-3.1-7-14.1-6.3-21.1-9.4c-5.1-1.9-9.6-4.8-14.5-7.9c-2.2,4.1-5.1,8.3-9,10.3
			c-3.9,2.3-0.8,7,2.3,10.9c2.4,1.6-1.6,7,0.8,10.2c1.6,0.8,3.1,1.6,4.7,2.3c0,0.5,0,1.1,0,1.6c0.3,0,0.5-0.1,0.8-0.1
			c3.9,2.3,5.5,8.6,3.1,10.9c0,0,0,0,0,0c8.7,0.1,17.2,0.4,22.7,7c0.8,0.8,3.9,0,3.9,0C249.7,187.7,255.9,175.2,252,163.5z" id="_x641__x6CC__x631__x648__x632__x627__x646_" title="فیروزان"></path>
		<path class="st0 area" d="M237.9,222.9c3.1,0.8,7,3.9,3.9,6.3c-2.3,3.1-5.5,7-3.1,10.2c6.3,6.3,21.9-1.6,18.8,11.7
			c7.8-1.6,11-10.2,14.9-15.6c2.3-4.7,8.6,3.1,11,0c3.1-4.7,5.5-12.5,11.7-16.4c0.8-0.8-2.3-3.1-1.6-4.7c5.5-9.4,21.1-16.4,17.2-25
			c-4.7-9.4-17.2-16.4-27.4-21.9c-8.6-4.7-2.3-17.2-15.6-21.9c-3.7-1.4-6-6.3-9.2-10.4c0,0.1-0.1,0.2-0.2,0.2
			c-8.6,11-18-3.9-21.1-10.9c-2.3-5.5-0.8-14.9-8.6-16.4c-3.1-0.8-6.1-2-8.7-3.4c0,0,0,0,0,0l-0.1,0.3l-0.3,0.2
			c-0.2,0.2-4.1,3.4-10.8,6.4c0.8,2.9-0.3,6,1.1,7.4c3.9,4.7,10.2,10.2,6.3,14.1c-3.9,3.1-4.7,9.4-3.1,10.9
			c6.3,3.9,11.7,7.8,18,10.2c7,3.1,18,2.3,21.1,9.4c3.9,11.7-2.3,24.2-6.3,36c0,0-3.1,0.8-3.9,0c-5.5-6.6-14-6.9-22.7-7
			c-3.9,5.5-6.2,10.1-4.7,15.6c0.8,3.1,4.7,4.7,6.3,7c1.6,1.6,0,4.7,0,6.3c-0.7,2.9,3.1,1.2,5.6,1.4
			C230.1,221.8,233.9,221.4,237.9,222.9z" id="_x646__x6CC__x634__x627__x628__x648__x631_" title="نیشابور"></path>
		<path class="st2 area" d="M231.7,278.4c-1.6,5.5,0.8,11.7,0.8,17.2c0.8,6.3-3.1,14.9,5.5,18.8c3.1,0.8,4.7-2.3,4.7-3.1
			c1.6-3.1,3.1-6.3,5.5-6.3c7.8-1.6,18-1.6,20.3-9.4c1.6-3.9-1.6-7.8,0.8-11.7c2.3-2.3,3.1-4.7,1.6-7c-0.8-1.6-2.3-3.9-4.7-4.7
			c3.9-5.5,3.9-12.5,0.8-18c-0.8-2.3-6.3,2.3-9.4-1.6c-0.5-1-0.3-2.1,0.3-3.1c1.6-11.1-13.1-4.2-19.1-10.2c-2.3-3.1,0.8-7,3.1-10.2
			c3.1-2.3-0.8-5.5-3.9-6.3c-4.1-1.5-7.8-1.1-11.6-0.1c0.2,0,0.5,0.1,0.7,0.1c-3.9,4.7-14.9,4.7-12.5,12.5
			c1.6,3.9,10.2,9.4,3.9,12.5c-3.1,1.6-8.6,0-10.2,3.1c-0.3,0.4-0.5,0.8-0.6,1.1c-0.9,2.1,0.7,2.6,2.1,3.3c1.7,0.7,4.1,1.1,5.5,1.8
			c1.6,1.6-2.3,1.6-1.6,3.1c0,0,0,0,0,0c2.6,3,5.3,5.7,7.9,8.6c0.7,1.1,0.4,2.2-0.2,3.2c2.1,0.8,4.3,1.5,6.4,2.2
			C228.6,274.5,232.5,276.9,231.7,278.4z" id="_x6A9__x627__x634__x645__x631_" title="کاشمر"></path>
		<path class="st0 area" d="M216.8,324.6c1.6-1.6,0-4.7,1.6-6.3c6.7-3.6,15.7,0.2,18.7-4.4c-7.4-4.1-3.8-12.3-4.6-18.3
			c0-5.5-2.3-11.7-0.8-17.2c0.8-1.6-3.1-3.9-3.9-3.9c-2.2-0.7-4.3-1.4-6.4-2.2c-0.7,1.1-1.7,2.2-2.2,3c-3.9,5.5-1.6,13.3-10.2,14.1
			c-2.3,0-7,3.1-4.7,7c1.6,1.6,3.9,2.3,3.9,3.9c0,7-5.5,11.7-10.2,17.2c-1.4,2.9,1.8,6.5-0.8,9.4
			C203.2,328.8,210.3,327.4,216.8,324.6z" id="_x62E__x644__x6CC__x644___x622__x628__x627__x62F_" title="خلیل آباد"></path>
		<path class="st3 area" d="M235.6,376.2c2.3-11.7,11.7-18,14.9-27.4c7-18-16.4-14.1-27.4-21.9c-1.6-1.6-3.1-2.3-4.7-3.9
			c-0.3-0.1-0.5-0.2-0.8-0.3c-0.1,0.7-0.3,1.3-0.7,1.8c-6.5,2.8-13.6,4.2-19.6,2.4c-0.2,0.2-0.5,0.5-0.8,0.7
			c-4.7,4.7-10.2,10.2-16.4,7c-2.5-1-3.8-4-5.6-6.6c-0.2,0.2-0.4,0.4-0.6,0.6c-1,0.7-3,1.7-5.3,2.7c-3.3,1.5-7.8,3.6-9.1,5.2
			l-0.5,0.7c-3,3.7-6,7.9-3.6,10.7c3.1,3.6,10.1,14.1,13.4,19.2l1.3,2c1.8,2.7,3,5.8,3.4,7.2c3.7,0.5,17.6,2.8,20.5,6.8
			c2.6,3.7,3.4,4.2,11.4,4.8c7.3,0.5,9.9-4.5,9.9-4.6l0.2-0.3l0.3-0.2c0.5-0.3,5.1-2.7,8.4-1.5c0.9,0.4,1.7,1,2.2,1.9
			C231.2,382.2,235.1,380.2,235.6,376.2z" id="_x628__x62D__x633__x62A__x627__x646_" title="بحستان"></path>
		<path class="st1 area" d="M306,323.8c0-3.1-6.3-0.8-6.3-2.3c-0.8-5.5,7.8-2.3,9.4-7c-4.7-0.8-10.2-2.3-12.5-7
			c-3.1-5.5,3.9-7.8,3.1-11.7c-2.3-4.7-5.5-10.2-9.4-14.9c-3.9-4.7-9.4-1.6-14.9-0.8c-0.9,0-2.4-0.8-3.9-1.2
			c0.2,1.7-0.6,3.4-2.3,5.1c-2.3,3.9,0.8,7.8-0.8,11.7c-2.3,7.8-12.5,7.8-20.3,9.4c-2.3,0-3.9,3.1-5.5,6.3c0,0.8-1.6,3.9-4.7,3.1
			c-0.3-0.1-0.6-0.3-0.9-0.5c-3,4.6-12,0.7-18.7,4.4c-1.1,1.1-0.7,2.9-0.8,4.4c0.3,0.1,0.6,0.1,0.8,0.3c1.6,1.6,3.1,2.3,4.7,3.9
			c9.3,6.6,27.6,4.8,28.6,15.1c2.8,3,5.8,5.6,10.5,4.4c2.3,0,3.9-3.1,6.3-3.1c6.3-0.8,12.5-1.6,18.8-3.1c3.8-1.5,9-1.6,10.1,0.5
			C303.1,337.5,306.5,330.7,306,323.8z" id="_x645__x647___x648__x644__x627__x62A_" title="مه ولات"></path>
		<path class="st2 area" d="M316.2,100.1c3.1-0.8,7-1.6,10.2,0c4.7,2.3,7.8,9.4,12.5,11c9.4,2.3,14.1,7.8,19.6,14.9
			c1.6,2.3,6.3,3.1,7.8,5.5c7,8.6,12.5,25.8,24.2,21.1c7-2.3,14.9,0,19.6-5.5c2.2-1.4,0.4-6.2,1.9-9.3l-2.9-1.6l-1.9-3.2l-2.7-6.7
			l-1.9-3.1l-10-11.4l-4.3-6.4l-3.5-7.1l-2.9-3.5l-3.4-1.4l-7.9-1.3L367,90l-6.1-4.8L347.3,81l-1-0.2l-0.8,0.5l-1.1,1.6l-0.6,0.6
			l-1,0.2l-1.3-0.8l-0.6-1.9l-0.5-2.1l-0.6-1.8l-1.6-1.6l-1.3-0.2l-3,1.1H333l-0.8-0.5l-0.6-0.5l-0.6-0.6l-1.6-0.3l-0.2-0.8l0.2-1
			l0.2-0.8l0.2-0.3l0.3-0.3l0.2-0.5l-0.6-0.8l-1.8-1.8l-5.8-4.7l-1.1-1.6l-0.1-0.5c-2.2,1.1-4.8,1.4-6,2.6
			c-3.9,4.7,6.3,12.5,1.6,14.9c-5.9,3.7-9.7,7.4-10.1,14.5C308.7,97.2,312,100.7,316.2,100.1z" id="_x6A9__x644__x627__x62A_" title="کلات"></path>
		<path class="st3 area" d="M395.2,154.9c4.7,4.7,14.9,7.8,14.1,15.6c0,2.3-5.5,2.3-6.3,4.7c-2.3,3.9,2.3,7,1.6,11.7
			c-0.8,1.6,1.6,1.6,3.1,2.3c3.1,0.8,7.8-2.3,9.4,0c8.6,11,17.2,15.6,30.5,11c1.6,0,4.7,3.9,7,2.3c3.1-3.1,7.8-8.6,10.2-5.5
			c4.7,6.3,9.4,8.6,14.9,2.3c1.6-0.8,3.9,0,4.7,0.8c1.4,2.7,3.5,5.7,6,7.3l0.1-0.7l-0.3-2.3l0.2-1.3l0.6-0.6l1-0.3l0.8-0.5l0.3-1.3
			v-1l0.2-1.1l0.3-1l0.5-0.8l1-1.1l0.2-0.8l-0.2-0.5l-0.2-3.4l-1.4-6.9l-1.4-2.1l-0.3-1.1v-2.6l-0.2-1.1l-0.3-1.3l-0.5-0.6l-0.5-0.6
			l-0.8-0.5l-0.8-0.5l0.2-0.8l0.2-0.2l0.3-0.5l-1.4-3.2l0.6-5.5l1.9-8.8l-0.5-1.8l-0.2-1.3l0.5-1.1l0.5-1l0.5-1l0.5-1.3v-1.4v-1.3
			l-0.5-1.1l-0.8-1.6l-0.6-3.9l-3.9-0.5l-4.7-0.8l-68.9,1.3l-0.3-0.2c-1.5,3.2,0.3,7.9-1.9,9.3c-4.1,4.8-10.5,3.6-16.7,4.8
			C393.7,153.3,394.3,154.4,395.2,154.9z" id="_x633__x631__x62E__x633_" title="سرخس"></path>
		<path class="st1 area" d="M379.5,256.5c-8.6,7.8-17.2,1.6-25,0c-10.2-2.3-20.3,0-30.5,2.3c-3.9,0.8-10.2,6.3-6.3,11
			c1.6,3.1,6.3,7,3.9,10.2c-1.6,2.3-4.7,5.5-3.1,6.3c6.3,2.3,9.4,7,14.1,11c4.7,3.9,7-3.9,9.4-6.3c3.9,9.4,10.2,1.6,17.2,1.6
			c3.1,0.8,3.1,4.7,4.7,7c2.2,4.3,7.7,6,11.2,9.5c0.2-0.1,0.4-0.1,0.6-0.2c3.3-0.7,6.4-0.2,9.3,0.9c-0.8-6-2.2-11.3,0.1-17.3
			c3.2-5.8,3.3-16.3,8-22.5c-2.7-0.8-5.3-1.9-7.2-4.1c-2.2-3-6.6-7.4-2.9-9.8C381.5,255.8,380.3,255.8,379.5,256.5z" id="_x632__x627__x648__x647_" title="زاوه"></path>
		<path class="st0 area" d="M312.3,292.5c-2.3,3.9,8.6,7,3.9,14.1c-2.5,3.3-5.6,5.8-9.1,7.4c0.7,0.1,1.4,0.3,2.1,0.4
			c-1.6,4.7-10.2,1.6-9.4,7c0,1.6,6.3-0.8,6.3,2.3c0.5,6.9-2.9,13.7-8.7,17c0,0.1,0.1,0.2,0.1,0.2c7,13.3,16.4,25.8,32.9,23.5
			c0.4,0,0.7-0.1,1,0c3.8-2.2,7.9-3.6,10.7-5.4c11.7-7.8,7-21.9-5.5-30.5c-0.8-1.6,1.6-3.1,2.3-3.9c11-3.9,17.2,12.5,25,8.6
			c7.7-3.9-1.3-20.6,11.2-24.1c-3.5-3.5-9-5.2-11.2-9.5c-1.6-2.3-1.6-6.3-4.7-7c-7,0-13.3,7.8-17.2-1.6c-2.3,2.3-4.7,10.2-9.4,6.3
			c-4.7-3.9-7.8-8.6-14.1-11c0,0,0,0,0,0C315.5,287.6,313.1,290.3,312.3,292.5z" id="_x631__x634__x62A__x62E__x648__x627__x631_" title="رشتخوار"></path>
		<path class="st3 area" d="M332.6,236.2c-5.5-4.7-14.9,0.8-19.6-3.1c-6.5-5.4-12.2-10.4-19.2-13.2c-5.4,4.1-7.6,11.2-10.5,15.6
			c-2.3,3.1-8.6-4.7-11,0c-3.9,5.5-7,14.1-14.9,15.6c0.1-0.6,0.2-1.1,0.3-1.5c-0.6,1-0.8,2.1-0.3,3.1c3.1,3.9,8.6-0.8,9.4,1.6
			c3.1,5.5,3.1,12.5-0.8,18c2.3,0.8,3.9,3.1,4.7,4.7c0.4,0.7,0.7,1.3,0.8,2c1.5,0.3,3,1.2,3.9,1.2c5.5-0.8,10.9-3.9,14.9,0.8
			c3.9,4.7,7,10.2,9.4,14.9c0.8,3.9-6.3,6.3-3.1,11.7c2,4,6.3,5.7,10.5,6.6c3.5-1.7,6.6-4.1,9.1-7.4c4.7-7-6.3-10.2-3.9-14.1
			c0.9-2.2,3.2-4.9,6.2-6.3c-1.5-0.8,1.6-3.9,3.1-6.2c2.3-3.1-2.3-7-3.9-10.2c-3.9-4.7,2.3-10.2,6.3-10.9c4-0.9,8.1-1.9,12.1-2.5
			c-1.6-2.2-3.7-4.2-5.1-6.9C328.7,244.8,337.3,240.1,332.6,236.2z" id="_x62A__x631__x628__x62A___x62D__x6CC__x62F__x631__x6CC__x647_" title="تربت حیدریه"></path>
		<path class="st2 area" d="M307.6,154.9c0.8-1.6,0.8-3.9,0-5.5c-1.6-1.6-4.7-2.3-3.1-4.7c7-6.3,15.6-16.4,11.7-21.9
			c-4.7-6.3-3.1-10.9-7.8-16.4c-0.8-1.6-4.7-0.8-7-2.3c2.6-1.6,1-3.8,0.2-6.1c-1.3-0.1-2.5-0.4-3.3-1c-7.8-4.6-15.1-10-22.9-14.9
			c-1.1,4.5-1,9.5-2.1,14.1c-3.1,7-11.7,0.8-16.4,6.3c0,0.8,0,2.3,0,3.1c4.7,6.3,19.6,7,15.6,14.9c-2.3,4.7-8.6,5.5-14.9,7
			c-3,0.8,2.8,4.5,0.9,7.6c3.2,4.1,5.5,9,9.2,10.4c13.3,4.7,7,17.2,15.6,21.9c1.3,0.7,2.6,1.4,3.9,2.1
			C289.2,160.8,302.2,161.6,307.6,154.9z" id="_x686__x646__x627__x631__x627__x646_" title="چناران"></path>
		<path class="st3 area" d="M331.8,183c0.8-0.8,3.9,0.8,5.5,0c7.8-8.6-8.6-11-9.4-17.2c0-1.6,2.3-3.9,1.6-4.7
			c-8.3-6.4-13.9-13.2-22.5-12.2c0.2,0.2,0.4,0.3,0.6,0.5c0.8,1.6,0.8,3.9,0,5.5c-5.4,6.8-18.4,5.9-20.3,14.7
			c9.3,5.1,19.3,11.6,23.5,19.8c0.5,1.1,0.7,2.1,0.6,3.1C318.6,193,326,189.8,331.8,183z" id="_x628__x6CC__x646__x627__x644__x648__x62F_" title="بینالود"></path>
		<path class="st1 area" d="M426.5,208.8c-2.6-4-3.3-8.4-2.8-12.5c-2.2-1.9-4.4-4.3-6.6-7c-1.6-2.3-6.3,0.8-9.4,0
			c-1.6-0.8-3.9-0.8-3.1-2.3c0.8-4.7-3.9-7.8-1.6-11.7c0.8-2.3,6.3-2.3,6.3-4.7c0.8-7.8-9.4-11-14.1-15.6c-0.9-0.4-1.5-1.6-1.9-3.1
			c-0.9,0.2-1.9,0.4-2.8,0.7c-11.7,4.7-17.2-12.5-24.2-21.1c-1.6-2.3-6.3-3.1-7.8-5.5c-5.5-7-10.2-12.5-19.6-14.9
			c-4.7-1.6-7.8-8.6-12.5-11c-3.1-1.6-7-0.8-10.2,0c-4.2,0.6-7.4-2.9-10.1-6.7c0,0.4,0,0.8,0,1.2c0.5,2.6-2,3.5-4.5,3.3
			c0.9,2.3,2.4,4.5-0.2,6.1c2.3,1.6,6.3,0.8,7,2.3c4.7,5.5,3.1,10.2,7.8,16.4c3.9,5.5-4.7,15.6-11.7,21.9c-1.4,2.1,0.9,2.9,2.6,4.2
			c8.5-1,14.2,5.9,22.5,12.2c0.8,0.8-1.6,3.1-1.6,4.7c0.8,6.3,17.2,8.6,9.4,17.2c-1.6,0.8-4.7-0.8-5.5,0c-5.8,6.8-13.2,10-20.5,9.4
			c-0.4,7.3-13,13.7-17.8,21.9c-0.8,1.6,2.3,3.9,1.6,4.7c-0.4,0.3-0.8,0.5-1.2,0.8c7,2.9,12.7,7.9,19.2,13.2
			c4.3,3.6,12.4-0.6,18,2.1c0-0.2,0-0.3,0-0.5c0.8-15.6,7-28.2,19.6-37.5c3.9-3.1,12.5-0.8,13.3,2.3c1.6,8.6,3.9,17.2,11.7,20.3
			c7,3.1,13.3-1.6,19.6-5.5c2.3-0.8,4.7-0.8,7,0c2.3,1.6,3.9,3.9,6.3,5.5c6.3,2.9,13.9,1.5,20,4
			C430.1,218.4,429.1,212.8,426.5,208.8z" id="_x645__x634__x647__x62F_" title="مشهد"></path>
		<path class="st2 area" d="M402.2,214.3c-2.3-0.8-4.7-0.8-7,0c-6.3,3.9-12.5,8.6-19.6,5.5c-7.8-3.1-10.2-11.7-11.7-20.3
			c-0.8-3.1-9.4-5.5-13.3-2.3c-12.5,9.4-18.8,21.9-19.6,37.5c0,0.2,0,0.3,0,0.5c0.6,0.3,1.1,0.6,1.6,1.1c4.7,3.9-3.9,8.6-1.6,13.3
			c1.4,2.7,3.5,4.7,5.1,6.9c6.1-1,12.3-1.3,18.4,0.2c7.8,1.6,16.4,7.8,25,0c0.7-0.7,2-0.8,3.3-0.5c0.2-0.1,0.4-0.2,0.6-0.3
			c6.3-3.1,9.4-7,10.2-13.3c0-1.6,5.5,0.8,6.3-0.8c1.6-2.3,0-7.8,3.1-7.8c9.4,0,18.8,2.3,24.3-7c0.5-1,0.9-2,1.2-3
			c-6.1-2.5-13.6-1.1-20-4C406.1,218.2,404.6,215.9,402.2,214.3z" id="_x641__x631__x6CC__x645__x627__x646_" title="فریمان"></path>
		<path class="st2 area" d="M439,302.7c-7.8,3.9-15.6,0-19.6-6.3c-5.5-7.8-8.6-16.4-15.6-21.9c-2.8-2.8-6.9-3.4-10.8-4.5
			c-4.7,6.2-4.7,16.7-8,22.5c-2.3,6-0.9,11.3-0.1,17.3c3.9,1.4,7.5,3.9,11,6.2c3,1.6,6,3.3,9.1,4.9c5.5-5.3,13.7,0.4,19-3.4
			c5.5-3.1,10.2-8.6,16.4-7c0-3,1.4-5.9,2.2-8.9C441.6,301.6,440.3,301.9,439,302.7z" id="_x628__x627__x62E__x631__x632_" title="باخرز"></path>
		<path class="st3 area" d="M463.8,395.1l-1.1-2.1l-7.1-8.8l-1.4-2.9l-0.8-1.3l-1.3-1l-2.3-1.1l-0.8-0.8l-0.8-2.6l-0.6-0.8l-0.8-0.5h-1
			l1.3-2.4l2.4-1.1l5.1-0.6l2.4-0.6l1.8-1.3l0.7-0.8c-7.8,0.3-15.3,0.1-22.1-5c-7.8-5.5-12.5-11.7-19.6-18
			c-4.7-3.9-7-12.5-13.3-17.2c-0.8-0.8-0.8-3.9,0-4.7c0.2-0.2,0.3-0.4,0.5-0.5c-3.1-1.6-6.2-3.4-9.1-4.9c-6.3-3.9-12.5-8.6-20.3-7
			c-13.3,3.1-3.9,20.3-11.7,24.3c-7.8,3.9-14.1-12.5-25-8.6c-0.8,0.8-3.1,2.3-2.3,3.9c12.5,8.6,17.2,22.7,5.5,30.5
			c-2.8,1.9-7,3.2-10.7,5.4c5.5,0.1,0.6,8.1,1.4,12.6c0,0.8,2.3,1.6,3.1,3.1c0.6,7.4,1.9,17.6-3,23.3c0.8,0.5,1.8,1.2,3.1,2.4
			c4,3.5,7.1,8.5,8.1,10.2c4.4,0,27.3,0.1,31.6,0.6c4.7,0.6,11.3,4.2,12.1,6.7c0.2,0.6,0.3,1.4,0.4,2.5c0.2,2.6,0.6,6.9,3.1,7.9
			c4.2,1.8,6.9-0.9,8.4-3.6c0-0.1,5.8-10,9.2-10h16.4c0.3,0,0.5,0.1,0.7,0.2l0-0.3l0.6-5l2.6-5.1l3.1-3.9l3.2-3.4l4.5-2.2l1.4-1.6
			l-0.6-2.4L463.8,395.1z" id="_x62E__x648__x627__x641_" title="خواف"></path>
		<path class="st1 area" d="M472.6,309.7c-5.5-2.3-5.5-8.6-10.2-11.7c-3.9-3.1-8.6,3.1-10.2,7.8c-0.8,0-2.4,0-3.1,0
			c-2.1-2.6-4.1-4.1-6.4-4.2c-0.8,3-2.2,5.9-2.2,8.9c-6.3-1.6-10.9,3.9-16.4,7c-5.5,3.9-14.1-2.3-19.6,3.9c-0.8,0.8-0.8,3.9,0,4.7
			c6.3,4.7,8.6,13.3,13.3,17.2c7,6.3,11.7,12.5,19.6,18c6.7,5.1,14.3,5.3,22.1,5l3.6-4l0.5-0.8l0.5-0.8l1.3-0.6l1.3-0.2h1.3l1.1-0.2
			l1-1.3l0.3-2.7l-0.3-2.9l0.2-2.6l1.8-1.9l2.9-2.3l1.9-3.2l0.5-1.9l2.9-1l0.8-3.5l0.3-4v-1l-0.5-2.1v-1.1l0.2-1.3l1.4-2.1l0.3-1.1
			l0.2-2.1l1.4-4.2l0.5-4.7l0.1-0.3C480.9,311.7,476.7,311.1,472.6,309.7z" id="_x62A__x627__x6CC__x628__x627__x62F_" title="تایباد"></path>
		<path class="st0 area" d="M501,256.4l-1-4.5l-0.8-1.1l-2.2-3.4l-1.3-2.6l-0.2-2.9l0.3-0.6l1.3-1.3l0.3-0.8l-0.2-1.9l0.2-0.6l0.6-2.6
			V233l-0.6-0.8l0.6-2.4l-0.2-1.9l-0.3-1.6l-0.5-4l-0.5-1.9l-0.8-1.8l-1.1-1.6l-1.4-1.8l-1.6-1.4l-1.9-1l-2.3-0.3l-1.3-0.6l1-1.3
			l1.9-1.4l1.1-1.3l0-0.3c-2.5-1.6-4.6-4.5-6-7.3c-0.8-0.8-3.1-1.6-4.7-0.8c-5.5,6.3-10.2,3.9-14.9-2.3c-2.3-3.1-7,2.3-10.2,5.5
			c-2.3,1.6-5.5-2.3-7-2.3c-9.9,3.5-17.3,1.8-23.9-3.9c-0.5,4.1,0.2,8.6,2.8,12.5c3.1,4.7,3.9,11.7,0.8,18c-5.5,9.4-14.9,7-24.3,7
			c-3.1,0-1.6,5.5-3.1,7.8c-0.8,1.6-6.3-0.8-6.3,0.8c-0.8,6.3-3.9,10.2-10.2,13.3c-4.7,2.3,0,7,2.3,10.2c4.7,5.5,13.3,3.9,18,8.6
			c7,5.5,10.2,14.1,15.6,21.9c3.9,6.3,11.7,10.2,19.6,6.3c3.9-2.3,7-0.8,10.2,3.1c0.8,0,2.3,0,3.1,0c1.6-4.7,6.3-11,10.2-7.8
			c4.7,3.1,4.7,9.4,10.2,11.7c4.1,1.4,8.3,2,12.3,2.8l0.7-1.3l2.3-3.1l-1-1l-0.2-1l0.2-1l0.2-1.3l-0.2-0.5l-3.4-4.3L483,298l0.6-0.5
			l0.8-0.5l0.2-1.1l-0.5-1l-0.5-0.5l-0.2-1.1l0.2-2.4l0.5-2.3l1.3-1.1h2.1l2.3-0.5l1.8-1l0.8-1.9l-0.5-5.8l0.5-2.3l0.5-1.3l1.9-2.6
			l0.6-1.1l0.8-3.4l1-2.2l2.3-2.6l1.3-2.1l0.5-2.2L501,256.4z" id="_x62A__x631__x628__x62A___x62C__x627__x645_" title="تربت جام"></path>
		<path class="st2 area" d="M335.7,380.1c-0.8-1.6-3.1-2.3-3.1-3.1c-0.8-4.7,4.7-13.3-2.3-12.5c-16.4,2.3-25.8-10.2-32.9-23.5
			c-0.8-2.3-6.3-2.3-10.2-0.8c-6.3,1.6-12.5,2.3-18.8,3.1c-2.3,0-3.9,3.1-6.3,3.1c-4.7,1.2-7.6-1.4-10.5-4.4
			c0.2,1.8-0.2,4.1-1.2,6.8c-3.1,9.4-12.5,15.6-14.9,27.4c-0.5,3.9-4.4,6-9.1,7c0.2,0.3,0.3,0.5,0.4,0.8c1.7,4.4,8.6,14.3,10.8,16.5
			c1.8,1.8,10.5,9.1,14.1,12.1c1-3.2,3.8-7.2,10.1-7.2c5.2,0,12.7-0.4,18.7-0.7c4.1-0.2,7.7-0.4,9.4-0.4c2,0,9.3-0.3,17.1-0.6
			c8.2-0.3,16.7-0.6,19.2-0.6c1.2,0,2-0.1,2.7-0.2c1.5-0.2,2.4-0.2,3.7,0.5C337.7,397.7,336.3,387.5,335.7,380.1z" id="_x6AF__x646__x627__x628__x627__x62F_" title="گناباد"></path>
		<path class="st1 area" d="M180.1,334.8c6.3,3.1,11.7-2.3,16.4-7c3.9-3.1,0-7,1.6-10.2c4.7-5.5,10.2-10.2,10.2-17.2
			c0-1.6-2.3-2.3-3.9-3.9c-2.3-3.9,2.3-7,4.7-7c8.6-0.8,6.3-8.6,10.2-14.1c0.8-1.6,3.9-3.9,2.3-6.3c-2.5-2.9-5.3-5.6-7.9-8.6
			c-6.3,0.8-13.3,0-19.5,4.7c-6.3,5.5-4.7-7-8.6-11c-0.8-0.8-3.1-0.8-4.7,0c-10.9,8.6-23.5,4.7-36,7c-2.3,0-4.7,2.4-6.3,3.1
			c-3.1,1.6-6.3,2.3-9.4,2.3c-5.5,1.6-10.2,9.4-14.9,6.3c-3.9-2.2-7.3-4.1-10.8-5.8c-0.5,3.5,0.4,8.2,1.1,11.9
			c0.4,2.2,0.8,4.1,0.8,5.4c0,5.2-6.9,7-12.9,7c-5.8,0-9.9,2.4-10.7,3.6l-0.3,0.5c-1.6,2.6-6.6,10.6-17,11.2
			c-6.8,0.4-11.7,3.2-14.2,8.1c-0.4,0.9-4.3,8.5-8.4,12.6c-1.9,1.9-6.1,7.2-9.9,11.9c-0.3,0.4-0.7,0.9-1,1.3
			c3.9,0.1,12.1,0.3,19,1.2c9.3,1.2,16.3-3.8,19.6-6.2c4.3-3.1,13.7-12.2,14.1-14.5c0.7-3.5,6.9-10.1,10.1-11.4c0.7-0.3,2.2-1,4.1-2
			c5.8-3,14.6-7.5,19.6-8l0.4,0c12.3-1.1,25.2-1.7,28.1,2.3c1.8,2.6,4.8,3.6,7.7,4.6c1.3,0.4,2.5,0.9,3.6,1.4
			c3.8,1.9,9.7,6.1,12.6,9c2,2,5.4,6.3,5.2,9.4c0,0.7-0.3,1.3-0.6,1.8C176.3,330.8,177.5,333.8,180.1,334.8z" id="_x628__x631__x62F__x633__x6A9__x646_" title="بردسکن"></path>

	<line class="st5 area" x1="57.2" y1="150.2" x2="104" y2="147.4" id="LINE_32" title=""></line>
	<line class="st5 area" x1="195.2" y1="164.3" x2="185.6" y2="118.4" id="LINE_33" title=""></line>
	<line class="st5 area" x1="287.6" y1="126.6" x2="324.4" y2="22.4" id="LINE_34" title=""></line>
	<line class="st5 area" x1="311.7" y1="177.1" x2="377.5" y2="45.9" id="LINE_35" title=""></line>
	<line class="st5 area" x1="126.5" y1="371" x2="216.8" y2="307.3" id="LINE_36" title=""></line>
	<line class="st5 area" x1="406" y1="301" x2="509" y2="323" id="LINE_37" title=""></line>
	<line class="st5 area" x1="320.6" y1="426.9" x2="299" y2="255.5" id="LINE_38" title=""></line>

<g id="G_39" class="area" title="">
	<path d="M316.4,13.9c0.1,0.3,0.1,0.6,0.1,0.9c0,0.4-0.1,0.7-0.2,1.1c-0.3,0.7-0.8,1.3-1.8,1.7c-0.8,0.3-1.6,0.5-2.5,0.5
		c-0.9,0-1.6-0.2-2.2-0.6c-0.6-0.5-0.9-1.1-0.9-2c0-0.5,0.1-0.9,0.3-1.5c0.2-0.4,0.3-0.7,0.5-0.9c0.1-0.1,0.2-0.1,0.2-0.1
		c0.1,0,0.1,0,0.1,0.1c0,0,0,0.1,0,0.2c-0.3,0.6-0.4,1.2-0.4,1.7c0,0.5,0.2,0.9,0.5,1.3c0.4,0.5,1.1,0.7,2,0.7c1,0,1.9-0.2,2.6-0.5
		c0.6-0.3,1-0.6,1.2-1c0.1-0.1,0.1-0.3,0.1-0.4c0-0.3-0.1-0.6-0.2-1c-0.1-0.3-0.4-0.8-0.9-1.6l0.4-0.8c0.1-0.1,0.1-0.2,0.1-0.2
		s0.1,0,0.1,0.1C316,12.3,316.3,13.1,316.4,13.9z M313.5,9.5l-0.8,0.8l-0.8-0.8l0.8-0.8L313.5,9.5z" id="PATH_40" class="area active" title=""></path>
	<path d="M318.9,12.8c0,0.4-0.1,0.8-0.3,1.1c-0.1,0.2-0.2,0.3-0.2,0.3c0,0-0.1-0.1-0.1-0.4c0-1.2-0.2-4-0.6-8.5l0.8-0.8
		c0.1-0.1,0.1-0.1,0.1-0.1c0,0,0,0.1,0,0.2C318.8,5.9,318.9,8.6,318.9,12.8z" id="PATH_41" class="area" title=""></path>
	<path d="M323.9,14.1c0,1-0.3,1.9-0.9,2.8c-0.5,0.7-1,1.1-1.3,1.1c-0.8,0-1.4,0-2-0.1c-0.2,0-0.3-0.1-0.3-0.1s0.1-0.1,0.3-0.1
		c0.8-0.2,1.6-0.6,2.4-1.2c0.8-0.7,1.3-1.4,1.3-2.1c0-0.4-0.3-1-1-1.7l0.5-0.9c0-0.1,0.1-0.1,0.1-0.1c0,0,0.1,0.1,0.1,0.1
		c0.2,0.3,0.5,0.7,0.6,1.2C323.8,13.3,323.9,13.7,323.9,14.1z" id="PATH_42" class="area" title=""></path>
	<path d="M327.9,14h-0.7c-0.7,0-1.3-0.3-1.5-0.9c-0.2-0.4-0.3-1.1-0.3-1.9V9.3c0-0.9-0.1-2.2-0.2-3.9l0.6-0.7c0.1-0.1,0.2-0.1,0.2,0
		c0.1,0.9,0.2,2.2,0.2,3.9v2.9c0,0.8,0.4,1.2,1.2,1.2h0.5V14z" id="PATH_43" class="area" title=""></path>
	<path d="M332.8,14H332c-0.9,0-1.5-0.3-1.9-0.9c-0.3,0.6-1,0.9-2.1,0.9h-0.6v-1.2h0.9c1,0,1.5-0.4,1.6-1.1c0-0.3,0.1-0.5,0.2-0.5
		s0.2,0.2,0.2,0.5c0.1,0.7,0.6,1.1,1.5,1.1h0.9V14z M330.8,8.8L330,9.6l-0.8-0.8L330,8L330.8,8.8z" id="PATH_44" class="area" title=""></path>
	<path d="M340.6,11.1l-0.4,0.8c-0.7,0-1.3,0-1.6,0.1c-0.4,0.2-1,0.4-1.8,0.8c-0.8,0.4-1.4,0.7-1.8,0.8c-0.6,0.2-1.3,0.3-1.9,0.3
		h-0.7v-1.2h0.8c0.9,0,1.7-0.2,2.4-0.5l2.3-1c-0.4-0.1-1-0.3-1.8-0.6c-0.7-0.3-1.1-0.4-1.3-0.4c-0.4,0-0.8,0.2-1.2,0.5
		c-0.1,0.1-0.1,0.1-0.2,0.1c-0.1,0-0.1,0-0.1-0.1c0,0,0-0.1,0-0.1c0.3-1,0.9-1.4,1.7-1.4c0.3,0,0.7,0.1,1.1,0.3
		c0.8,0.4,1.4,0.6,1.8,0.8c0.7,0.2,1.5,0.4,2.4,0.4c0.2,0,0.3,0,0.3,0.1C340.7,10.9,340.7,11,340.6,11.1z M335.1,15.9l0.7-0.7
		l0.7,0.7l-0.7,0.7L335.1,15.9z M336,17.4l0.7-0.7l0.7,0.7l-0.7,0.7L336,17.4z M336.9,15.9l0.7-0.7l0.7,0.7l-0.7,0.7L336.9,15.9z" id="PATH_45" class="area" title=""></path>
</g>
<g id="G_46" class="area" title="">
	<path d="M264.7,53.3h-0.4c-0.4,0-0.6-0.1-0.8-0.2c0,0.1,0,0.2,0,0.3c0,0.9-0.3,1.8-0.9,2.7c-0.5,0.8-1,1.1-1.3,1.1
		c-0.8,0-1.4,0-2-0.1c-0.2,0-0.3-0.1-0.3-0.1s0.1-0.1,0.3-0.1c0.8-0.2,1.6-0.6,2.4-1.2c0.8-0.7,1.3-1.4,1.3-2.1c0-0.4-0.3-1-1-1.7
		l0.5-0.9c0-0.1,0.1-0.1,0.1-0.1c0,0,0.1,0.1,0.1,0.1c0.3,0.4,0.5,0.7,0.7,0.8c0.3,0.2,0.7,0.4,1.1,0.4h0.3V53.3z M262.8,48.1
		l-0.8,0.8l-0.8-0.8l0.8-0.8L262.8,48.1z" id="PATH_47" class="area" title=""></path>
	<path d="M270.7,45.2c0,0.2-0.1,0.5-0.3,1.1c-1.2,0.3-2.7,0.8-4.4,1.3c1.2,1.2,1.9,2.2,2,2.9c0.1,0.5,0,1-0.2,1.5
		c-0.2,0.5-0.6,0.8-1.1,1c-0.4,0.2-1.1,0.2-2,0.2h-0.4v-1.2h0.3c1.9,0,2.9-0.3,2.9-1c0-0.5-0.5-1.3-1.6-2.3l-0.1,0.3
		c-0.1-0.1-0.3-0.3-0.5-0.6c-0.3-0.3-0.4-0.5-0.4-0.6c0-0.3,0.1-0.6,0.4-0.9c0.1-0.1,0.7-0.3,2-0.7
		C268.6,45.8,269.8,45.5,270.7,45.2z M270.5,43.7l-0.2,0.7l-4.9,1.6l0.2-0.7L270.5,43.7z" id="PATH_48" class="area" title=""></path>
	<path d="M275.5,53.4c0,1-0.3,1.9-0.9,2.8c-0.5,0.7-1,1.1-1.3,1.1c-0.8,0-1.4,0-2-0.1c-0.2,0-0.3-0.1-0.3-0.1s0.1-0.1,0.3-0.1
		c0.8-0.2,1.6-0.6,2.4-1.2c0.8-0.7,1.3-1.4,1.3-2.1c0-0.4-0.3-1-1-1.7l0.5-0.9c0-0.1,0.1-0.1,0.1-0.1c0,0,0.1,0.1,0.1,0.1
		c0.2,0.3,0.5,0.7,0.6,1.2C275.4,52.6,275.5,53.1,275.5,53.4z" id="PATH_49" class="area" title=""></path>
	<path d="M281.7,51.2c0,1.4-0.9,2.1-2.8,2.1c-0.7,0-1.2-0.1-1.5-0.3c-0.4-0.2-0.6-0.7-0.6-1.3c0-0.3,0.1-0.6,0.2-0.9
		c0.1-0.1,0.1-0.2,0.2-0.2c0.1,0,0.1,0.1,0.1,0.3c0,0.1,0,0.2,0,0.3c0,0.4,0.2,0.7,0.6,0.8c0.2,0.1,0.6,0.1,1.1,0.1
		c1.5,0,2.2-0.2,2.2-0.7c0-0.7-0.9-1.7-2.6-2.9l0.3-1c0-0.1,0.1-0.1,0.1-0.1c0,0,0.1,0,0.2,0.1C280.8,48.9,281.7,50.1,281.7,51.2z" id="PATH_50" class="area" title=""></path>
</g>
<g id="G_51" class="area" title="">
	<path d="M238.9,90.2c0.1,0.3,0.1,0.6,0.1,0.9c0,0.4-0.1,0.7-0.2,1.1c-0.3,0.7-0.8,1.3-1.8,1.7c-0.8,0.3-1.6,0.5-2.5,0.5
		c-0.9,0-1.6-0.2-2.2-0.6c-0.6-0.5-0.9-1.1-0.9-2c0-0.5,0.1-0.9,0.3-1.5c0.2-0.4,0.3-0.7,0.5-0.9c0.1-0.1,0.2-0.1,0.2-0.1
		c0.1,0,0.1,0,0.1,0.1c0,0,0,0.1,0,0.2c-0.3,0.6-0.4,1.2-0.4,1.7c0,0.5,0.2,0.9,0.5,1.3c0.4,0.5,1.1,0.7,2,0.7c1,0,1.9-0.2,2.6-0.5
		c0.6-0.3,1-0.6,1.2-1c0.1-0.1,0.1-0.3,0.1-0.4c0-0.3-0.1-0.6-0.2-1c-0.1-0.3-0.4-0.8-0.9-1.6l0.4-0.8c0.1-0.1,0.1-0.2,0.1-0.2
		s0.1,0,0.1,0.1C238.5,88.6,238.8,89.4,238.9,90.2z M236,85.9l-0.8,0.8l-0.8-0.8l0.8-0.8L236,85.9z" id="PATH_52" class="area" title=""></path>
	<path d="M243,90.3h-0.7c-0.7,0-1.3-0.3-1.5-0.9c-0.2-0.4-0.3-1.1-0.3-1.9v-1.9c0-0.9-0.1-2.2-0.2-3.9l0.6-0.7
		c0.1-0.1,0.2-0.1,0.2,0c0.1,0.9,0.2,2.2,0.2,3.9v2.9c0,0.8,0.4,1.2,1.2,1.2h0.5V90.3z" id="PATH_53" class="area" title=""></path>
	<path d="M250.8,87.4l-0.4,0.8c-0.7,0-1.3,0-1.6,0.1c-0.4,0.2-1,0.4-1.8,0.8c-0.8,0.4-1.4,0.7-1.8,0.8c-0.6,0.2-1.3,0.3-1.9,0.3
		h-0.7v-1.2h0.8c0.9,0,1.7-0.2,2.4-0.5l2.3-1c-0.4-0.1-1-0.3-1.8-0.6c-0.7-0.3-1.1-0.4-1.3-0.4c-0.4,0-0.8,0.2-1.2,0.5
		c-0.1,0.1-0.1,0.1-0.2,0.1c-0.1,0-0.1,0-0.1-0.1c0,0,0-0.1,0-0.1c0.3-1,0.9-1.4,1.7-1.4c0.3,0,0.7,0.1,1.1,0.3
		c0.8,0.4,1.4,0.6,1.8,0.8c0.7,0.2,1.5,0.4,2.4,0.4c0.2,0,0.3,0,0.3,0.1C250.9,87.2,250.8,87.3,250.8,87.4z M245.2,92.2l0.7-0.7
		l0.7,0.7l-0.7,0.7L245.2,92.2z M246.1,93.8l0.7-0.7l0.7,0.7l-0.7,0.7L246.1,93.8z M247,92.2l0.7-0.7l0.7,0.7l-0.7,0.7L247,92.2z" id="PATH_54" class="area" title=""></path>
	<path d="M257.1,90.3H256c-0.1,1.4-0.6,2.5-1.6,3.5c-0.3,0.3-0.5,0.5-0.6,0.5c-0.5,0-1.2-0.1-1.9-0.2c-0.2,0-0.4-0.1-0.4-0.1
		s0.1-0.1,0.4-0.2c0.8-0.2,1.6-0.7,2.3-1.2c0.3-0.3,0.6-0.5,0.8-0.9c0.3-0.4,0.5-0.8,0.5-1.1v-0.3h-1.3c-1,0-1.4-0.4-1.4-1.2
		c0-0.5,0.1-1,0.4-1.6c0.3-0.6,0.7-1,1.1-1c0.5,0,0.9,0.3,1.2,1c0.2,0.5,0.4,1,0.4,1.6h1.1V90.3z M255.3,89.2c0-0.3-0.1-0.6-0.3-0.9
		c-0.2-0.4-0.5-0.5-0.8-0.5c-0.2,0-0.4,0.1-0.5,0.2c-0.2,0.2-0.2,0.3-0.2,0.6c0,0.5,0.4,0.7,1.2,0.7C254.7,89.2,255,89.2,255.3,89.2
		z" id="PATH_55" class="area" title=""></path>
	<path d="M261,87.5c0,0.9-0.1,1.5-0.3,1.8c-0.5,0.7-1.3,1-2.6,1h-1.4v-1.2h1c1.7,0,2.6-0.3,2.8-0.8c0.1-0.2,0-0.4-0.1-0.6
		c-0.4,0.1-0.8,0.1-1.3,0.1c-0.9,0-1.4-0.4-1.4-1.2c0-0.5,0.1-1.1,0.4-1.6c0.3-0.6,0.7-0.9,1.2-0.9c0.4,0,0.8,0.3,1.1,0.8
		C260.8,85.7,261,86.5,261,87.5z M259,82.1l-0.8,0.8l-0.8-0.8l0.8-0.8L259,82.1z M260.2,86.6c0-0.3-0.1-0.6-0.3-0.9
		c-0.2-0.3-0.5-0.4-0.8-0.4c-0.2,0-0.4,0.1-0.6,0.2c-0.2,0.1-0.2,0.3-0.2,0.5c0,0.4,0.3,0.6,1,0.6C259.5,86.8,259.8,86.7,260.2,86.6
		z M260.7,82.1l-0.8,0.8l-0.8-0.8l0.8-0.8L260.7,82.1z" id="PATH_56" class="area" title=""></path>
</g>
<g id="G_57" class="area" title="">
	<path d="M369.9,34.2c0,1.4-0.9,2.1-2.8,2.1c-0.7,0-1.2-0.1-1.5-0.3c-0.4-0.2-0.6-0.7-0.6-1.3c0-0.3,0.1-0.6,0.2-0.9
		c0.1-0.1,0.1-0.2,0.2-0.2c0.1,0,0.1,0.1,0.1,0.3c0,0.1,0,0.2,0,0.3c0,0.4,0.2,0.7,0.6,0.8c0.2,0.1,0.6,0.1,1.1,0.1
		c1.5,0,2.2-0.2,2.2-0.7c0-0.7-0.9-1.7-2.6-2.9l0.3-1c0-0.1,0.1-0.1,0.1-0.1c0,0,0.1,0,0.2,0.1C369.1,31.9,369.9,33.1,369.9,34.2z" id="PATH_58" class="area" title=""></path>
	<path d="M376.1,36.3H375c-0.1,1.4-0.6,2.5-1.6,3.5c-0.3,0.3-0.5,0.5-0.6,0.5c-0.5,0-1.2-0.1-1.9-0.2c-0.2,0-0.4-0.1-0.4-0.1
		s0.1-0.1,0.4-0.2c0.8-0.2,1.6-0.7,2.3-1.2c0.3-0.3,0.6-0.5,0.8-0.9c0.3-0.4,0.5-0.8,0.5-1.1v-0.3h-1.3c-1,0-1.4-0.4-1.4-1.2
		c0-0.5,0.1-1,0.4-1.6c0.3-0.6,0.7-1,1.1-1c0.5,0,0.9,0.3,1.2,1c0.2,0.5,0.4,1,0.4,1.6h1.1V36.3z M374.3,35.2c0-0.3-0.1-0.6-0.3-0.9
		c-0.2-0.4-0.5-0.5-0.8-0.5c-0.2,0-0.4,0.1-0.5,0.2s-0.2,0.3-0.2,0.6c0,0.5,0.4,0.7,1.2,0.7C373.8,35.2,374,35.2,374.3,35.2z" id="PATH_59" class="area" title=""></path>
	<path d="M378.4,28.4c0.1,0.1,0.1,0.2,0.1,0.2c0,0-0.1,0-0.2,0H378c0.1,1.3,0.1,3.2,0.1,5.7c0,0.6-0.1,1.1-0.4,1.4
		c-0.3,0.4-0.8,0.6-1.3,0.6h-0.6v-1.2h0.5c0.8,0,1.2-0.3,1.1-0.9c-0.1-2.1-0.2-4.3-0.3-6.5l0.7-0.6c0.1-0.1,0.2-0.2,0.2-0.2
		c0,0,0,0.1,0.1,0.2C378.1,27.5,378.2,27.9,378.4,28.4z" id="PATH_60" class="area" title=""></path>
	<path d="M382.4,36.3h-0.7c-0.7,0-1.3-0.3-1.5-0.9c-0.2-0.4-0.3-1.1-0.3-1.9v-1.9c0-0.9-0.1-2.2-0.2-3.9l0.6-0.7
		c0.1-0.1,0.2-0.1,0.2,0c0.1,0.9,0.2,2.2,0.2,3.9v2.9c0,0.8,0.4,1.2,1.2,1.2h0.5V36.3z" id="PATH_61" class="area" title=""></path>
	<path d="M387.3,36.3h-0.8c-0.9,0-1.5-0.3-1.9-0.9c-0.3,0.6-1,0.9-2.1,0.9H382v-1.2h0.9c1,0,1.5-0.4,1.6-1.1c0-0.3,0.1-0.5,0.2-0.5
		s0.2,0.2,0.2,0.5c0.1,0.7,0.6,1.1,1.5,1.1h0.9V36.3z M385.4,31.2l-0.8,0.8l-0.8-0.8l0.8-0.8L385.4,31.2z" id="PATH_62" class="area" title=""></path>
	<path d="M392.3,36.3h-0.8c-0.9,0-1.5-0.3-1.9-0.9c-0.3,0.6-1,0.9-2.1,0.9h-0.6v-1.2h0.9c1,0,1.5-0.4,1.6-1.1c0-0.3,0.1-0.5,0.2-0.5
		s0.2,0.2,0.2,0.5c0.1,0.7,0.6,1.1,1.5,1.1h0.9V36.3z M389,38.5l-0.8,0.8l-0.8-0.8l0.8-0.8L389,38.5z M390.7,38.5l-0.8,0.8l-0.8-0.8
		l0.8-0.8L390.7,38.5z" id="PATH_63" class="area" title=""></path>
	<path d="M394.7,34.3c0,1.3-0.7,2-2,2h-0.8v-1.2h0.7c1,0,1.5-0.2,1.5-0.5c0-0.3-0.2-0.7-0.7-1.2l0.4-1c0-0.1,0.1-0.1,0.1-0.1
		s0.1,0.1,0.2,0.2C394.5,33.1,394.7,33.7,394.7,34.3z M394.3,38.5l-0.8,0.8l-0.8-0.8l0.8-0.8L394.3,38.5z" id="PATH_64" class="area" title=""></path>
</g>
<g id="G_65" class="area" title="">
	<path d="M364.7,114.1c0,0.7-0.2,1.3-0.7,1.6c-0.3,0.2-0.9,0.4-1.8,0.5c-1,0.2-2,0.3-3.1,0.3c-2.6,0-4-0.7-4-2.2
		c0-0.5,0.2-1,0.6-1.5c0.1-0.1,0.1-0.2,0.2-0.2s0.1,0,0.1,0.1c0,0,0,0.1,0,0.2c-0.1,0.3-0.2,0.6-0.2,0.9c0,1,1.3,1.5,3.8,1.5
		c1.2,0,2.3-0.1,3.1-0.2c1-0.2,1.4-0.4,1.4-0.7c0-0.2-0.2-0.6-0.7-1.2l0.5-0.9c0.1-0.1,0.1-0.1,0.2,0
		C364.5,113,364.7,113.6,364.7,114.1z M359.6,110.5l-0.8,0.8l-0.8-0.8l0.8-0.8L359.6,110.5z M361.3,110.5l-0.8,0.8l-0.8-0.8l0.8-0.8
		L361.3,110.5z" id="PATH_66" class="area" title=""></path>
	<path d="M374,116.3h-0.6c-1.2,0-1.9-0.9-1.9-2.7c0-0.2,0-0.5,0-0.9c-0.8,1.9-1.7,3.3-2.9,4.1c-0.7,0.2-1.6,0.3-2.6,0.3
		c-0.2,0-0.3,0-0.3,0c0,0,0.3-0.2,0.9-0.5c0.4-0.2,0.8-0.4,1.2-0.6c0.7-0.3,1.4-0.8,2-1.5c-0.3-1-0.7-1.9-1.3-2.7
		c-0.4-0.5-1-1.1-1.9-1.8l-0.1,0.4c-0.3-0.2-0.5-0.4-0.7-0.6c-0.3-0.3-0.5-0.5-0.5-0.7c0-0.2,0-0.5,0.1-1c0-0.1,0-0.2,0.1-0.2
		s0.1,0,0.2,0.1c1.3,0.9,2.3,1.8,2.9,2.6c0.8,1,1.3,2.1,1.6,3.4c0.4-0.5,0.7-1,0.9-1.6c0.3-0.7,0.4-1.3,0.4-1.8c0-0.9-0.1-1.9-0.2-3
		l0.8-0.7c0.1,0.5,0.1,2.8,0.2,6.9c0,0.9,0.4,1.4,1.2,1.4h0.5V116.3z" id="PATH_67" class="area" title=""></path>
	<path d="M380.2,107.1c0,0.2-0.2,0.6-0.4,1.1l-2.5,0.8c-1.1,0.4-1.9,0.7-2.3,0.9c0.8,0.8,1.3,1.4,1.6,1.7c0.5,0.7,0.8,1.3,0.9,2
		c0,0.5,0,1-0.2,1.4c-0.3,0.9-1.4,1.3-3.1,1.3h-0.5v-1.2h0.6c0.8,0,1.4,0,1.7-0.1c0.7-0.2,1.1-0.5,1.1-1c0-0.7-0.5-1.5-1.6-2.5
		l-0.1,0.2c-0.1-0.1-0.3-0.3-0.5-0.6c-0.3-0.3-0.4-0.6-0.4-0.6c0-0.2,0-0.4,0.1-0.8c0.1-0.4,0.2-0.6,0.3-0.7
		c0.1-0.1,0.8-0.4,2.1-0.8C378.1,107.7,379.3,107.3,380.2,107.1z" id="PATH_68" class="area" title=""></path>
</g>
<g id="G_69" class="area" title="">
	<path d="M441.6,166.5h-0.5c-0.7,0-1.1-0.3-1.4-0.8c-0.2,0.6-0.7,0.9-1.3,0.9c-0.6,0-1-0.3-1.3-0.9c-0.3,0.6-0.8,0.9-1.4,0.9
		c-0.2,0-0.5,0-0.7-0.1c0,0.6-0.1,1.2-0.1,1.9c-0.3,0.7-0.8,1.3-1.7,1.7c-0.8,0.3-1.6,0.5-2.5,0.5c-0.9,0-1.6-0.2-2.2-0.6
		c-0.6-0.5-0.9-1.1-0.9-2c0-0.5,0.1-0.9,0.3-1.5c0.2-0.4,0.3-0.7,0.5-0.9c0.1-0.1,0.2-0.1,0.2-0.1c0.1,0,0.1,0,0.1,0.1
		c0,0,0,0.1,0,0.2c-0.3,0.6-0.4,1.2-0.4,1.7c0,0.5,0.2,0.9,0.5,1.3c0.4,0.5,1.1,0.7,2,0.7c1,0,1.9-0.2,2.6-0.5c0.6-0.3,1-0.6,1.1-1
		c0.1-0.1,0.1-0.3,0-0.7c0-0.3-0.1-0.6-0.1-0.7c-0.1-0.3-0.4-0.8-1-1.5l0.4-0.8c0.1-0.1,0.1-0.2,0.1-0.2c0,0,0.1,0,0.1,0.2
		c0.3,0.4,0.5,0.7,0.6,0.8c0.3,0.3,0.6,0.4,1,0.4c0.4,0,0.8-0.1,1-0.4c0.1-0.2,0.2-0.4,0.3-0.9c0-0.2,0.1-0.3,0.2-0.3
		s0.1,0.1,0.2,0.3c0.1,0.8,0.5,1.3,1.1,1.3c0.7,0,1.2-0.4,1.2-1.2c0-0.2,0.1-0.3,0.2-0.3c0.1,0,0.2,0.1,0.2,0.3
		c0.1,0.8,0.5,1.2,1.2,1.2h0.6V166.5z" id="PATH_70" class="area" title=""></path>
	<path d="M449.4,163.6l-0.4,0.8c-0.7,0-1.3,0-1.6,0.1c-0.4,0.2-1,0.4-1.8,0.8c-0.8,0.4-1.4,0.7-1.8,0.8c-0.6,0.2-1.3,0.3-1.9,0.3
		h-0.7v-1.2h0.8c0.9,0,1.7-0.2,2.4-0.5l2.3-1c-0.4-0.1-1-0.3-1.8-0.6c-0.7-0.3-1.1-0.4-1.3-0.4c-0.4,0-0.8,0.2-1.2,0.5
		c-0.1,0.1-0.1,0.1-0.2,0.1c-0.1,0-0.1,0-0.1-0.1c0,0,0-0.1,0-0.1c0.3-1,0.9-1.4,1.7-1.4c0.3,0,0.7,0.1,1.1,0.3
		c0.8,0.4,1.4,0.6,1.8,0.8c0.7,0.2,1.5,0.4,2.4,0.4c0.2,0,0.3,0,0.3,0.1C449.5,163.4,449.5,163.5,449.4,163.6z M446.6,159.1
		l-0.8,0.8l-0.8-0.8l0.8-0.8L446.6,159.1z" id="PATH_71" class="area" title=""></path>
	<path d="M455.7,166.5h-0.4c-0.4,0-0.6-0.1-0.8-0.2c0,0.1,0,0.2,0,0.3c0,0.9-0.3,1.8-0.9,2.7c-0.5,0.8-1,1.1-1.3,1.1
		c-0.8,0-1.4,0-2-0.1c-0.2,0-0.3-0.1-0.3-0.1s0.1-0.1,0.3-0.1c0.8-0.2,1.6-0.6,2.4-1.2c0.8-0.7,1.3-1.4,1.3-2.1c0-0.4-0.3-1-1-1.7
		l0.5-0.9c0-0.1,0.1-0.1,0.1-0.1c0,0,0.1,0.1,0.1,0.1c0.3,0.4,0.5,0.7,0.7,0.8c0.3,0.2,0.7,0.4,1.1,0.4h0.3V166.5z" id="PATH_72" class="area" title=""></path>
	<path d="M463.6,164.4c0,0.6-0.1,1.1-0.4,1.5c-0.3,0.4-0.8,0.7-1.3,0.7c-0.7,0-1.1-0.3-1.4-0.8c-0.4,0.6-0.8,0.8-1.4,0.8
		c-0.7,0-1.2-0.3-1.5-0.8c-0.4,0.6-0.9,0.8-1.6,0.8h-0.7v-1.2h0.8c0.7,0,1.2-0.4,1.3-1.2c0-0.2,0.1-0.3,0.2-0.3
		c0.1,0,0.1,0.1,0.2,0.3c0.1,0.8,0.5,1.2,1.3,1.2c0.4,0,0.8-0.1,1-0.3c0.1-0.2,0.2-0.4,0.3-0.8c0-0.2,0.1-0.3,0.2-0.3
		c0.1,0,0.1,0.1,0.2,0.3c0.1,0.8,0.5,1.2,1.2,1.2c0.8,0,1.1-0.2,1.1-0.5c0-0.3-0.2-0.7-0.6-1.1l0.5-0.9c0.1-0.1,0.1-0.2,0.2-0.2
		s0.1,0.1,0.2,0.2C463.5,163.4,463.6,163.9,463.6,164.4z" id="PATH_73" class="area" title=""></path>
</g>
<g id="G_74" class="area" title="">
	<path d="M361,172.5h-0.4c-0.4,0-0.7-0.1-1-0.4c-0.2-0.2-0.4-0.4-0.6-0.8c-0.2,0.4-0.5,0.7-0.8,0.9c-0.4,0.2-0.9,0.3-1.7,0.3
		c-1.4,0-2.1-0.5-2.1-1.5c0-0.3,0.1-0.7,0.3-1c0.1-0.1,0.1-0.2,0.2-0.2c0.1,0,0.1,0.1,0.1,0.2c0,0.1,0,0.1,0,0.3c0,0.1,0,0.2,0,0.3
		c0,0.6,0.5,0.9,1.5,0.9c1.4,0,2.1-0.3,2.1-0.8c0-0.3-0.4-1.4-1.2-3.3l0.4-0.8c0.1-0.1,0.1-0.2,0.1-0.2c0,0,0.1,0.1,0.1,0.2
		c0.3,0.8,0.8,2,1.4,3.6c0.3,0.8,0.7,1.2,1.3,1.2h0.3V172.5z" id="PATH_75" class="area" title=""></path>
	<path d="M367.2,172.5h-0.5c-0.4,0-0.8,0.1-1.1,0.2c-0.5,0.2-0.8,0.5-0.8,1c0,0.6,0.4,1.1,1.2,1.6l-0.5,1c-0.9-0.3-1.7-0.8-2.3-1.4
		c-0.8-0.7-1.2-1.6-1.2-2.5h-1.4v-1.2h1.3c0-0.8,0.2-1.6,0.6-2.6c0.4-0.9,0.7-1.3,0.9-1.3c0.2,0,0.5,0.4,0.8,1.3
		c0.3,0.8,0.4,1.3,0.4,1.6c0,1.4-0.7,2.1-2.1,2.1c0.1,0.4,0.3,0.8,0.6,1.2c0.3,0.4,0.7,0.7,1.1,0.9c0-0.1,0-0.3,0-0.4
		c0-0.7,0.2-1.3,0.5-1.8c0.5-0.7,1.1-1.1,2-1.1h0.4V172.5z M364.2,170.9c0-0.2-0.1-0.6-0.3-1.1c-0.2-0.6-0.4-0.8-0.6-0.8
		c-0.1,0-0.3,0.2-0.5,0.7c-0.2,0.5-0.3,1.1-0.3,1.7C363.6,171.4,364.2,171.2,364.2,170.9z" id="PATH_76" class="area" title=""></path>
	<path d="M376.5,172.5h-0.6c-0.7,0-1.1-0.3-1.4-0.8c-0.2,0.6-0.7,0.8-1.3,0.8c-0.6,0-1-0.3-1.3-0.8c-0.3,0.6-0.7,0.8-1.3,0.8
		c-0.7,0-1.2-0.3-1.5-0.8c-0.4,0.6-0.9,0.8-1.6,0.8h-0.7v-1.2h0.8c0.7,0,1.2-0.4,1.3-1.2c0-0.2,0.1-0.3,0.2-0.3
		c0.1,0,0.1,0.1,0.2,0.3c0.1,0.8,0.5,1.2,1.3,1.2c0.7,0,1.2-0.4,1.2-1.2c0-0.2,0.1-0.3,0.2-0.3c0.1,0,0.2,0.1,0.2,0.3
		c0.1,0.8,0.5,1.2,1,1.2c0.7,0,1.2-0.4,1.2-1.2c0-0.2,0.1-0.3,0.2-0.3c0.1,0,0.2,0.1,0.2,0.3c0.1,0.8,0.5,1.2,1.2,1.2h0.6V172.5z
		 M371.8,167.5l-0.7,0.7l-0.7-0.7l0.7-0.7L371.8,167.5z M372.7,165.9l-0.7,0.7l-0.7-0.7l0.7-0.7L372.7,165.9z M373.6,167.5l-0.7,0.7
		l-0.7-0.7l0.7-0.7L373.6,167.5z" id="PATH_77" class="area" title=""></path>
	<path d="M381.4,170.5c0,0.5,0,0.9-0.2,1.3c-0.2,0.5-0.5,0.8-0.8,0.8c-0.5,0-1.3-0.3-2.3-1c-0.3,0.4-0.5,0.6-0.6,0.7
		c-0.3,0.2-0.6,0.3-1,0.3h-0.5v-1.2h0.7c0.4,0,0.8-0.2,1.2-0.7c0.2-0.2,0.5-0.7,0.9-1.3c0.3-0.5,0.7-0.7,1-0.7
		c0.5,0,0.9,0.2,1.2,0.7C381.3,169.8,381.4,170.2,381.4,170.5z M380.8,171.3c0-0.3-0.1-0.6-0.3-1c-0.2-0.4-0.5-0.6-0.8-0.6
		c-0.3,0-0.6,0.3-1,0.9c0.2,0.2,0.5,0.4,0.9,0.6c0.4,0.2,0.8,0.3,1,0.3C380.7,171.5,380.8,171.4,380.8,171.3z" id="PATH_78" class="area" title=""></path>
</g>
<g id="G_79" class="area" title="">
	<path d="M431.7,255c0,0.2-0.1,0.4-0.3,0.8c-0.2,0.4-0.4,0.6-0.5,0.6c-0.3,0-0.7-0.1-1.2-0.2s-0.9-0.2-1.2-0.2
		c-0.5,0-0.9,0.1-1.1,0.2c0.2,1.7,0.3,3,0.3,3.8c0,0.4-0.1,0.8-0.4,1.3c-0.1,0.1-0.1,0.2-0.1,0.2c0,0,0,0,0-0.1
		c-0.1-1.6-0.2-3.2-0.4-4.8c0-0.2,0.1-0.4,0.3-0.7c0.2-0.2,0.3-0.4,0.5-0.5c0.2-0.2,0.5-0.2,0.8-0.2c-0.1-0.3-0.1-0.5-0.1-0.7
		c0-0.3,0.1-0.7,0.4-1.1c0.3-0.4,0.6-0.6,1-0.6c0.5,0,1,0.3,1.5,0.8S431.7,254.5,431.7,255z M431,255.3c-0.1-0.3-0.4-0.7-0.7-1
		c-0.4-0.4-0.7-0.5-1.1-0.5c-0.5,0-0.7,0.2-0.7,0.5c0,0.2,0.1,0.4,0.2,0.8C429.3,255,430.1,255.1,431,255.3z" id="PATH_80" class="area" title=""></path>
	<path d="M435.7,256.9H435c-0.7,0-1.3-0.3-1.5-0.9c-0.2-0.4-0.3-1.1-0.3-1.9v-1.9c0-0.9-0.1-2.2-0.2-3.9l0.6-0.7
		c0.1-0.1,0.2-0.1,0.2,0c0.1,0.9,0.2,2.2,0.2,3.9v2.9c0,0.8,0.4,1.2,1.2,1.2h0.5V256.9z" id="PATH_81" class="area" title=""></path>
	<path d="M443.5,254l-0.4,0.8c-0.7,0-1.3,0-1.6,0.1c-0.4,0.2-1,0.4-1.8,0.8c-0.8,0.4-1.4,0.7-1.8,0.8c-0.6,0.2-1.3,0.3-1.9,0.3h-0.7
		v-1.2h0.8c0.9,0,1.7-0.2,2.4-0.5l2.3-1c-0.4-0.1-1-0.3-1.8-0.6c-0.7-0.3-1.1-0.4-1.3-0.4c-0.4,0-0.8,0.2-1.2,0.5
		c-0.1,0.1-0.1,0.1-0.2,0.1c-0.1,0-0.1,0-0.1-0.1c0,0,0-0.1,0-0.1c0.3-1,0.9-1.4,1.7-1.4c0.3,0,0.7,0.1,1.1,0.3
		c0.8,0.4,1.4,0.6,1.8,0.8c0.7,0.2,1.5,0.4,2.4,0.4c0.2,0,0.3,0,0.3,0.1C443.6,253.8,443.6,253.9,443.5,254z M440.2,259l-0.8,0.8
		l-0.8-0.8l0.8-0.8L440.2,259z" id="PATH_82" class="area" title=""></path>
	<path d="M459.5,256.9h-0.4c-0.5,0-0.9-0.1-1.1-0.3c-0.3-0.2-0.5-0.6-0.5-1c-1.1,1-2.8,1.5-5.1,1.5c-2.4,0-3.6-0.7-3.6-2.2
		c0-0.5,0.2-1,0.6-1.5c0.1-0.1,0.1-0.1,0.2-0.1c0.1,0,0.1,0,0.1,0.1c0,0,0,0.1,0,0.2c-0.1,0.3-0.2,0.6-0.2,0.9c0,1,1.1,1.5,3.3,1.5
		c2.5,0,4.2-0.5,5-1.6c0.2-0.2,0.3-0.3,0.4-0.3c0.1,0,0.1,0.1,0.1,0.2c0,0.1,0,0.2-0.1,0.4c0,0.2-0.1,0.3-0.1,0.4
		c0,0.5,0.4,0.8,1.1,0.8h0.4V256.9z M453.3,251.1l-0.8,0.8l-0.8-0.8l0.8-0.8L453.3,251.1z M455,251.1l-0.8,0.8l-0.8-0.8l0.8-0.8
		L455,251.1z" id="PATH_83" class="area" title=""></path>
	<path d="M461.9,255c0,1.3-0.7,2-2,2h-0.8v-1.2h0.7c1,0,1.5-0.2,1.5-0.5c0-0.3-0.2-0.7-0.7-1.2l0.4-1c0-0.1,0.1-0.1,0.1-0.1
		s0.1,0.1,0.2,0.2C461.7,253.7,461.9,254.3,461.9,255z M461.6,259.1l-0.8,0.8l-0.8-0.8l0.8-0.8L461.6,259.1z" id="PATH_84" class="area" title=""></path>
	<path d="M468.2,256.9h-0.4c-0.4,0-0.6-0.1-0.8-0.2c0,0.1,0,0.2,0,0.3c0,0.9-0.3,1.8-0.9,2.7c-0.5,0.8-1,1.1-1.3,1.1
		c-0.8,0-1.4,0-2-0.1c-0.2,0-0.3-0.1-0.3-0.1s0.1-0.1,0.3-0.1c0.8-0.2,1.6-0.6,2.4-1.2c0.8-0.7,1.3-1.4,1.3-2.1c0-0.4-0.3-1-1-1.7
		l0.5-0.9c0-0.1,0.1-0.1,0.1-0.1c0,0,0.1,0.1,0.1,0.1c0.3,0.4,0.5,0.7,0.7,0.8c0.3,0.2,0.7,0.4,1.1,0.4h0.3V256.9z" id="PATH_85" class="area" title=""></path>
	<path d="M470.6,255c0,1.3-0.7,2-2,2h-0.8v-1.2h0.7c1,0,1.5-0.2,1.5-0.5c0-0.3-0.2-0.7-0.7-1.2l0.4-1c0-0.1,0.1-0.1,0.1-0.1
		s0.1,0.1,0.2,0.2C470.3,253.7,470.6,254.3,470.6,255z M469.6,250.6l-0.8,0.8l-0.8-0.8l0.8-0.8L469.6,250.6z M471.3,250.6l-0.8,0.8
		l-0.8-0.8l0.8-0.8L471.3,250.6z" id="PATH_86" class="area" title=""></path>
</g>
<g id="G_87" class="area" title="">
	<path d="M356.8,236.5c0.1,0.3,0.1,0.6,0.1,0.9c0,0.4-0.1,0.7-0.2,1.1c-0.3,0.7-0.8,1.3-1.8,1.7c-0.8,0.3-1.6,0.5-2.5,0.5
		c-0.9,0-1.6-0.2-2.2-0.6c-0.6-0.5-0.9-1.1-0.9-2c0-0.5,0.1-0.9,0.3-1.5c0.2-0.4,0.3-0.7,0.5-0.9c0.1-0.1,0.2-0.1,0.2-0.1
		c0.1,0,0.1,0,0.1,0.1c0,0,0,0.1,0,0.2c-0.3,0.6-0.4,1.2-0.4,1.7c0,0.5,0.2,0.9,0.5,1.3c0.4,0.5,1.1,0.7,2,0.7c1,0,1.9-0.2,2.6-0.5
		c0.6-0.3,1-0.6,1.2-1c0.1-0.1,0.1-0.3,0.1-0.4c0-0.3-0.1-0.6-0.2-1c-0.1-0.3-0.4-0.8-0.9-1.6l0.4-0.8c0.1-0.1,0.1-0.2,0.1-0.2
		s0.1,0,0.1,0.1C356.3,235,356.6,235.7,356.8,236.5z M353.8,232.2L353,233l-0.8-0.8l0.8-0.8L353.8,232.2z" id="PATH_88" class="area" title=""></path>
	<path d="M360.8,236.7h-0.7c-0.7,0-1.3-0.3-1.5-0.9c-0.2-0.4-0.3-1.1-0.3-1.9v-1.9c0-0.9-0.1-2.2-0.2-3.9l0.6-0.7
		c0.1-0.1,0.2-0.1,0.2,0c0.1,0.9,0.2,2.2,0.2,3.9v2.9c0,0.8,0.4,1.2,1.2,1.2h0.5V236.7z" id="PATH_89" class="area" title=""></path>
	<path d="M368,236.7h-0.6c-0.5,0-1-0.3-1.4-0.8c-0.3,0.8-0.6,1.2-0.9,1.2c-0.3,0-0.8-0.2-1.4-0.5c-0.5-0.3-0.9-0.6-1.1-0.8
		c-0.5,0.6-1,0.9-1.5,0.9h-0.6v-1.2h0.6c0.5,0,0.9-0.2,1.3-0.6c0.3-0.3,0.6-0.7,1-1.1c0.4-0.4,0.7-0.6,1-0.6c0.4,0,0.7,0.2,1,0.6
		c0.2,0.2,0.4,0.6,0.9,1.1c0.3,0.4,0.7,0.6,1.1,0.6h0.6V236.7z M365.3,235.8c0-0.3-0.1-0.6-0.3-1c-0.2-0.4-0.5-0.6-0.9-0.6
		c-0.3,0-0.7,0.3-1.1,0.8c0.1,0.1,0.4,0.3,0.9,0.6c0.5,0.3,0.9,0.4,1.2,0.4C365.2,236,365.3,236,365.3,235.8z" id="PATH_90" class="area" title=""></path>
	<path d="M370.4,234.7c0,1.3-0.7,2-2,2h-0.8v-1.2h0.7c1,0,1.5-0.2,1.5-0.5c0-0.3-0.2-0.7-0.7-1.2l0.4-1c0-0.1,0.1-0.1,0.1-0.1
		s0.1,0.1,0.2,0.2C370.2,233.4,370.4,234,370.4,234.7z M369.6,238.9l-0.8,0.8l-0.8-0.8l0.8-0.8L369.6,238.9z M371.3,238.9l-0.8,0.8
		l-0.8-0.8l0.8-0.8L371.3,238.9z" id="PATH_91" class="area" title=""></path>
	<path d="M377.6,236.7h-0.4c-0.4,0-0.6-0.1-0.8-0.2c0,0.1,0,0.2,0,0.3c0,0.9-0.3,1.8-0.9,2.7c-0.5,0.8-1,1.1-1.3,1.1
		c-0.8,0-1.4,0-2-0.1c-0.2,0-0.3-0.1-0.3-0.1s0.1-0.1,0.3-0.1c0.8-0.2,1.6-0.6,2.4-1.2c0.8-0.7,1.3-1.4,1.3-2.1c0-0.4-0.3-1-1-1.7
		l0.5-0.9c0-0.1,0.1-0.1,0.1-0.1c0,0,0.1,0.1,0.1,0.1c0.3,0.4,0.5,0.7,0.7,0.8c0.3,0.2,0.7,0.4,1.1,0.4h0.3V236.7z" id="PATH_92" class="area" title=""></path>
	<path d="M381.4,233.8v0.4c0,0.7-0.1,1.1-0.3,1.4c-0.5,0.7-1.3,1-2.6,1h-1.4v-1.2h1c1.7,0,2.6-0.3,2.8-0.8c0-0.1,0-0.1,0-0.2
		c0-0.2,0-0.3-0.1-0.4c-0.4,0.1-0.9,0.1-1.3,0.1c-0.9,0-1.4-0.4-1.4-1.2c0-0.5,0.1-1.1,0.4-1.6c0.3-0.6,0.7-0.9,1.2-0.9
		c0.4,0,0.8,0.3,1.1,0.8C381.2,232,381.4,232.8,381.4,233.8z M380.3,228.3l-0.8,0.8l-0.8-0.8l0.8-0.8L380.3,228.3z M380.7,233
		c0-0.3-0.1-0.6-0.3-0.9c-0.2-0.3-0.5-0.4-0.8-0.4c-0.2,0-0.4,0.1-0.6,0.2s-0.2,0.3-0.2,0.5c0,0.4,0.3,0.6,1,0.6
		C380,233.1,380.3,233.1,380.7,233z" id="PATH_93" class="area" title=""></path>
</g>
<g id="G_94" class="area" title="">
	<path d="M439.6,335.2c0,1.4-0.9,2.1-2.8,2.1c-0.7,0-1.2-0.1-1.5-0.3c-0.4-0.2-0.6-0.7-0.6-1.3c0-0.3,0.1-0.6,0.2-0.9
		c0.1-0.1,0.1-0.2,0.2-0.2c0.1,0,0.1,0.1,0.1,0.3c0,0.1,0,0.2,0,0.3c0,0.4,0.2,0.7,0.6,0.8c0.2,0.1,0.6,0.1,1.1,0.1
		c1.5,0,2.2-0.2,2.2-0.7c0-0.7-0.9-1.7-2.6-2.9l0.3-1c0-0.1,0.1-0.1,0.1-0.1c0,0,0.1,0,0.2,0.1C438.8,332.9,439.6,334.1,439.6,335.2
		z" id="PATH_95" class="area" title=""></path>
	<path d="M443.6,337.3h-0.7c-0.7,0-1.3-0.3-1.5-0.9c-0.2-0.4-0.3-1.1-0.3-1.9v-1.9c0-0.9-0.1-2.2-0.2-3.9l0.6-0.7
		c0.1-0.1,0.2-0.1,0.2,0c0.1,0.9,0.2,2.2,0.2,3.9v2.9c0,0.8,0.4,1.2,1.2,1.2h0.5V337.3z" id="PATH_96" class="area" title=""></path>
	<path d="M448.5,337.3h-0.8c-0.9,0-1.5-0.3-1.9-0.9c-0.3,0.6-1,0.9-2.1,0.9h-0.6v-1.2h0.9c1,0,1.5-0.4,1.6-1.1
		c0-0.3,0.1-0.5,0.2-0.5s0.2,0.2,0.2,0.5c0.1,0.7,0.6,1.1,1.5,1.1h0.9V337.3z M446.4,339.5l-0.8,0.8l-0.8-0.8l0.8-0.8L446.4,339.5z" id="PATH_97" class="area" title=""></path>
	<path d="M450.9,335.3c0,1.3-0.7,2-2,2h-0.8v-1.2h0.7c1,0,1.5-0.2,1.5-0.5c0-0.3-0.2-0.7-0.7-1.2l0.4-1c0-0.1,0.1-0.1,0.1-0.1
		s0.1,0.1,0.2,0.2C450.7,334.1,450.9,334.7,450.9,335.3z M450.1,339.5l-0.8,0.8l-0.8-0.8l0.8-0.8L450.1,339.5z M451.8,339.5
		l-0.8,0.8l-0.8-0.8l0.8-0.8L451.8,339.5z" id="PATH_98" class="area" title=""></path>
	<path d="M455.8,337.3h-0.7c-0.7,0-1.3-0.3-1.5-0.9c-0.2-0.4-0.3-1.1-0.3-1.9v-1.9c0-0.9-0.1-2.2-0.2-3.9l0.6-0.7
		c0.1-0.1,0.2-0.1,0.2,0c0.1,0.9,0.2,2.2,0.2,3.9v2.9c0,0.8,0.4,1.2,1.2,1.2h0.5V337.3z" id="PATH_99" class="area" title=""></path>
	<path d="M458.2,335.3c0,1.3-0.7,2-2,2h-0.8v-1.2h0.7c1,0,1.5-0.2,1.5-0.5c0-0.3-0.2-0.7-0.7-1.2l0.4-1c0-0.1,0.1-0.1,0.1-0.1
		s0.1,0.1,0.2,0.2C458,334.1,458.2,334.7,458.2,335.3z M457.3,331l-0.8,0.8l-0.8-0.8l0.8-0.8L457.3,331z M459,331l-0.8,0.8l-0.8-0.8
		l0.8-0.8L459,331z" id="PATH_100" class="area" title=""></path>
</g>
<g id="G_101" class="area" title="">
	<path d="M516.5,326.8c0,1-0.3,1.9-0.9,2.8c-0.5,0.7-1,1.1-1.3,1.1c-0.8,0-1.4,0-2-0.1c-0.2,0-0.3-0.1-0.3-0.1s0.1-0.1,0.3-0.1
		c0.8-0.2,1.6-0.6,2.4-1.2c0.8-0.7,1.3-1.4,1.3-2.1c0-0.4-0.3-1-1-1.7l0.5-0.9c0-0.1,0.1-0.1,0.1-0.1c0,0,0.1,0.1,0.1,0.1
		c0.2,0.3,0.5,0.7,0.6,1.2C516.4,326,516.5,326.4,516.5,326.8z M515.8,321.4l-0.8,0.8l-0.8-0.8l0.8-0.8L515.8,321.4z" id="PATH_102" class="area" title=""></path>
	<path d="M522.7,326.7h-0.4c-0.4,0-0.6-0.1-0.8-0.2c0,0.1,0,0.2,0,0.3c0,0.9-0.3,1.8-0.9,2.7c-0.5,0.8-1,1.1-1.3,1.1
		c-0.8,0-1.4,0-2-0.1c-0.2,0-0.3-0.1-0.3-0.1s0.1-0.1,0.3-0.1c0.8-0.2,1.6-0.6,2.4-1.2c0.8-0.7,1.3-1.4,1.3-2.1c0-0.4-0.3-1-1-1.7
		l0.5-0.9c0-0.1,0.1-0.1,0.1-0.1c0,0,0.1,0.1,0.1,0.1c0.3,0.4,0.5,0.7,0.7,0.8c0.3,0.2,0.7,0.4,1.1,0.4h0.3V326.7z" id="PATH_103" class="area" title=""></path>
	<path d="M530.6,323.8l-0.4,0.8c-0.7,0-1.3,0-1.6,0.1c-0.4,0.2-1,0.4-1.8,0.8c-0.8,0.4-1.4,0.7-1.8,0.8c-0.6,0.2-1.3,0.3-1.9,0.3
		h-0.7v-1.2h0.8c0.9,0,1.7-0.2,2.4-0.5l2.3-1c-0.4-0.1-1-0.3-1.8-0.6c-0.7-0.3-1.1-0.4-1.3-0.4c-0.4,0-0.8,0.2-1.2,0.5
		c-0.1,0.1-0.1,0.1-0.2,0.1c-0.1,0-0.1,0-0.1-0.1c0,0,0-0.1,0-0.1c0.3-1,0.9-1.4,1.7-1.4c0.3,0,0.7,0.1,1.1,0.3
		c0.8,0.4,1.4,0.6,1.8,0.8c0.7,0.2,1.5,0.4,2.4,0.4c0.2,0,0.3,0,0.3,0.1C530.7,323.6,530.6,323.6,530.6,323.8z M527.7,319.2
		l-0.8,0.8l-0.8-0.8l0.8-0.8L527.7,319.2z" id="PATH_104" class="area" title=""></path>
	<path d="M534.6,326.7h-0.7c-0.7,0-1.3-0.3-1.5-0.9c-0.2-0.4-0.3-1.1-0.3-1.9v-1.9c0-0.9-0.1-2.2-0.2-3.9l0.6-0.7
		c0.1-0.1,0.2-0.1,0.2,0c0.1,0.9,0.2,2.2,0.2,3.9v2.9c0,0.8,0.4,1.2,1.2,1.2h0.5V326.7z" id="PATH_105" class="area" title=""></path>
	<path d="M537,324.7c0,1.3-0.7,2-2,2h-0.8v-1.2h0.7c1,0,1.5-0.2,1.5-0.5c0-0.3-0.2-0.7-0.7-1.2l0.4-1c0-0.1,0.1-0.1,0.1-0.1
		s0.1,0.1,0.2,0.2C536.8,323.4,537,324,537,324.7z M536.7,328.9l-0.8,0.8l-0.8-0.8l0.8-0.8L536.7,328.9z" id="PATH_106" class="area" title=""></path>
</g>
<g id="G_107" class="area" title="">
	<path d="M383.9,374v0.2c0,0.7-0.1,1.2-0.3,1.6c-0.5,0.8-2.4,1.2-5.6,1.2c-2.4,0-3.7-0.7-3.7-2c0-0.7,0.2-1.3,0.5-1.8
		c0.1-0.1,0.2-0.2,0.2-0.2c0.1,0,0.1,0,0.1,0.1c0,0.1-0.1,0.3-0.2,0.7c0,0.2-0.1,0.3-0.1,0.5c0,0.7,0.5,1.1,1.4,1.4
		c0.5,0.1,1.2,0.2,2.2,0.2c2.9,0,4.5-0.3,4.8-0.9c0-0.1,0.1-0.2,0.1-0.4c0-0.1,0-0.2,0-0.3c-0.5,0.1-1,0.1-1.4,0.1
		c-0.9,0-1.4-0.4-1.4-1.2c0-0.5,0.1-1.1,0.4-1.6c0.3-0.6,0.7-0.9,1.2-0.9c0.4,0,0.8,0.3,1.2,0.8C383.7,372.2,383.9,373,383.9,374z
		 M382.6,368.5l-0.8,0.8l-0.8-0.8l0.8-0.8L382.6,368.5z M383.1,373.1c0-0.3-0.1-0.6-0.3-0.9s-0.5-0.4-0.8-0.4
		c-0.5,0-0.8,0.3-0.8,0.8c0,0.4,0.3,0.6,1,0.6C382.4,373.3,382.7,373.2,383.1,373.1z" id="PATH_108" class="area" title=""></path>
	<path d="M386.2,375.6c0,0.4-0.1,0.8-0.3,1.1c-0.1,0.2-0.2,0.3-0.2,0.3c0,0-0.1-0.1-0.1-0.4c0-1.2-0.2-4-0.6-8.5l0.8-0.8
		c0.1-0.1,0.1-0.1,0.1-0.1c0,0,0,0.1,0,0.2C386.2,368.8,386.2,371.5,386.2,375.6z" id="PATH_109" class="area" title=""></path>
	<path d="M392.4,376.8h-1.1c-0.1,1.4-0.6,2.5-1.6,3.5c-0.3,0.3-0.5,0.5-0.6,0.5c-0.5,0-1.2-0.1-1.9-0.2c-0.2,0-0.4-0.1-0.4-0.1
		c0,0,0.1-0.1,0.4-0.2c0.8-0.2,1.6-0.7,2.3-1.2c0.3-0.3,0.6-0.5,0.8-0.9c0.3-0.4,0.5-0.8,0.5-1.1v-0.3h-1.3c-1,0-1.4-0.4-1.4-1.2
		c0-0.5,0.1-1,0.4-1.6c0.3-0.6,0.7-1,1.1-1c0.5,0,0.9,0.3,1.2,1c0.2,0.5,0.4,1,0.4,1.6h1.1V376.8z M390.6,375.6
		c0-0.3-0.1-0.6-0.3-0.9c-0.2-0.4-0.5-0.5-0.8-0.5c-0.2,0-0.4,0.1-0.5,0.2s-0.2,0.3-0.2,0.6c0,0.5,0.4,0.7,1.2,0.7
		C390.1,375.7,390.3,375.7,390.6,375.6z" id="PATH_110" class="area" title=""></path>
	<path d="M400.2,373.9l-0.4,0.8c-0.7,0-1.3,0-1.6,0.1c-0.4,0.2-1,0.4-1.8,0.8c-0.8,0.4-1.4,0.7-1.8,0.8c-0.6,0.2-1.3,0.3-1.9,0.3
		H392v-1.2h0.8c0.9,0,1.7-0.2,2.4-0.5l2.3-1c-0.4-0.1-1-0.3-1.8-0.6c-0.7-0.3-1.1-0.4-1.3-0.4c-0.4,0-0.8,0.2-1.2,0.5
		c-0.1,0.1-0.1,0.1-0.2,0.1c-0.1,0-0.1,0-0.1-0.1c0,0,0-0.1,0-0.1c0.3-1,0.9-1.4,1.7-1.4c0.3,0,0.7,0.1,1.1,0.3
		c0.8,0.4,1.4,0.6,1.8,0.8c0.7,0.2,1.5,0.4,2.4,0.4c0.2,0,0.3,0,0.3,0.1C400.3,373.7,400.3,373.8,400.2,373.9z M397.4,369.4
		l-0.8,0.8l-0.8-0.8l0.8-0.8L397.4,369.4z" id="PATH_111" class="area" title=""></path>
</g>
<g id="G_112" class="area" title="">
	<path d="M350.2,276.2c0,0.7-0.2,1.2-0.6,1.6c-0.4,0.4-1,0.5-1.6,0.5c-0.4,0-0.8-0.1-1.1-0.4c-0.3-0.3-0.5-0.6-0.5-1
		c0-0.5,0.2-1,0.6-1.7c0.3-0.6,0.7-1.1,1.1-1.5C349.5,274.4,350.2,275.2,350.2,276.2z M349.7,276.6c0-0.3-0.2-0.6-0.7-1
		c-0.4-0.4-0.7-0.6-1.1-0.7c-0.5,0.7-0.8,1.2-0.8,1.6c0,0.2,0.1,0.4,0.4,0.6c0.2,0.1,0.4,0.2,0.7,0.2c0.4,0,0.8-0.1,1.1-0.2
		C349.5,276.8,349.7,276.7,349.7,276.6z" id="PATH_113" class="area" title=""></path>
	<path d="M355.4,277.9c0,1.5-0.5,2.8-1.5,3.8c-0.3,0.3-0.5,0.5-0.6,0.5c-0.6,0-1.2-0.1-1.9-0.2c-0.3,0-0.4-0.1-0.4-0.1
		c0,0,0.1-0.1,0.4-0.2c0.8-0.2,1.6-0.7,2.3-1.3c0.3-0.3,0.6-0.5,0.8-0.9c0.3-0.4,0.5-0.8,0.5-1.1v-0.3l-1.3,0
		c-0.9,0-1.4-0.4-1.4-1.1c0-0.5,0.1-1,0.4-1.6c0.3-0.6,0.7-1,1.1-1c0.6,0,1.1,0.4,1.4,1.3C355.3,276.4,355.4,277.1,355.4,277.9z
		 M354.7,277c0-0.3-0.1-0.6-0.3-0.9c-0.2-0.3-0.5-0.5-0.8-0.5c-0.2,0-0.4,0.1-0.5,0.2s-0.2,0.3-0.2,0.5c0,0.5,0.3,0.7,1,0.7
		C354,277.1,354.3,277.1,354.7,277z" id="PATH_114" class="area" title=""></path>
	<path d="M357.7,277c0,0.4-0.1,0.8-0.3,1.1c-0.1,0.2-0.2,0.3-0.2,0.3c0,0-0.1-0.1-0.1-0.4c0-1.2-0.2-4-0.6-8.5l0.8-0.8
		c0.1-0.1,0.1-0.1,0.1-0.1c0,0,0,0.1,0,0.2C357.7,270.2,357.7,272.9,357.7,277z" id="PATH_115" class="area" title=""></path>
	<path d="M362.8,278.4c0,1-0.3,1.9-0.9,2.8c-0.5,0.7-1,1.1-1.3,1.1c-0.8,0-1.4,0-2-0.1c-0.2,0-0.3-0.1-0.3-0.1s0.1-0.1,0.3-0.1
		c0.8-0.2,1.6-0.6,2.4-1.2c0.8-0.7,1.3-1.4,1.3-2.1c0-0.4-0.3-1-1-1.7l0.5-0.9c0-0.1,0.1-0.1,0.1-0.1c0,0,0.1,0.1,0.1,0.1
		c0.2,0.3,0.5,0.7,0.6,1.2C362.7,277.6,362.8,278,362.8,278.4z M362,273l-0.8,0.8l-0.8-0.8l0.8-0.8L362,273z" id="PATH_116" class="area" title=""></path>
</g>
<g id="G_117" class="area" title="">
	<path d="M319.5,317.1c0,1-0.3,1.9-0.9,2.8c-0.5,0.7-1,1.1-1.3,1.1c-0.8,0-1.4,0-2-0.1c-0.2,0-0.3-0.1-0.3-0.1s0.1-0.1,0.3-0.1
		c0.8-0.2,1.6-0.6,2.4-1.2c0.8-0.7,1.3-1.4,1.3-2.1c0-0.4-0.3-1-1-1.7l0.5-0.9c0-0.1,0.1-0.1,0.1-0.1c0,0,0.1,0.1,0.1,0.1
		c0.2,0.3,0.5,0.7,0.6,1.2C319.4,316.3,319.5,316.7,319.5,317.1z" id="PATH_118" class="area" title=""></path>
	<path d="M321.9,315.8c0,0.4-0.1,0.8-0.3,1.1c-0.1,0.2-0.2,0.3-0.2,0.3c0,0-0.1-0.1-0.1-0.4c0-1.2-0.2-4-0.6-8.5l0.8-0.8
		c0.1-0.1,0.1-0.1,0.1-0.1c0,0,0,0.1,0,0.2C321.8,308.9,321.9,311.6,321.9,315.8z" id="PATH_119" class="area" title=""></path>
	<path d="M328.1,317H327c-0.1,1.4-0.6,2.5-1.6,3.5c-0.3,0.3-0.5,0.5-0.6,0.5c-0.5,0-1.2-0.1-1.9-0.2c-0.2,0-0.4-0.1-0.4-0.1
		c0,0,0.1-0.1,0.4-0.2c0.8-0.2,1.6-0.7,2.3-1.2c0.3-0.3,0.6-0.5,0.8-0.9c0.3-0.4,0.5-0.8,0.5-1.1V317h-1.3c-1,0-1.4-0.4-1.4-1.2
		c0-0.5,0.1-1,0.4-1.6c0.3-0.6,0.7-1,1.1-1c0.5,0,0.9,0.3,1.2,1c0.2,0.5,0.4,1,0.4,1.6h1.1V317z M326.3,315.8c0-0.3-0.1-0.6-0.3-0.9
		c-0.2-0.4-0.5-0.5-0.8-0.5c-0.2,0-0.4,0.1-0.5,0.2s-0.2,0.3-0.2,0.6c0,0.5,0.4,0.7,1.2,0.7C325.7,315.9,326,315.8,326.3,315.8z" id="PATH_120" class="area" title=""></path>
	<path d="M336.9,317h-1c-1.3,0-2-0.7-2-2c0-0.2,0-0.3,0-0.5c-0.5,0.2-1.1,0.6-1.9,1.1c-0.8,0.5-1.3,0.8-1.7,1
		c-0.6,0.3-1.3,0.4-1.9,0.4h-0.7v-1.2h0.8c0.8,0,1.7-0.2,2.5-0.6c0.4-0.2,1.1-0.6,2.2-1.1c-0.2,0-0.8-0.2-1.8-0.4
		c-0.7-0.2-1.1-0.3-1.2-0.3c-0.4,0-0.8,0.2-1.2,0.5c-0.1,0.1-0.1,0.1-0.2,0.1c-0.1,0-0.1,0-0.1-0.1c0,0,0-0.1,0-0.1
		c0.3-1,0.9-1.5,1.7-1.5c0.3,0,0.7,0.1,1.2,0.2c0.7,0.2,1.3,0.4,1.8,0.5c0.7,0.1,1.5,0.2,2.4,0.2c0.2,0,0.2,0,0.3,0s0,0.1,0,0.2
		l-0.3,0.9c-0.6,0-1,0-1.2,0.1c0,0.5,0.1,0.8,0.2,0.9c0.2,0.3,0.6,0.5,1.3,0.5h1V317z M333.1,309.5l-0.8,0.8l-0.8-0.8l0.8-0.8
		L333.1,309.5z" id="PATH_121" class="area" title=""></path>
	<path d="M341.8,317H341c-0.9,0-1.5-0.3-1.9-0.9c-0.3,0.6-1,0.9-2.1,0.9h-0.6v-1.2h0.9c1,0,1.5-0.4,1.6-1.1c0-0.3,0.1-0.5,0.2-0.5
		s0.2,0.2,0.2,0.5c0.1,0.7,0.6,1.1,1.5,1.1h0.9V317z M338.4,311.2l-0.8,0.8l-0.8-0.8l0.8-0.8L338.4,311.2z M340.1,311.2l-0.8,0.8
		l-0.8-0.8l0.8-0.8L340.1,311.2z" id="PATH_122" class="area" title=""></path>
	<path d="M349.6,314.9c0,0.6-0.1,1.1-0.4,1.5c-0.3,0.4-0.8,0.7-1.3,0.7c-0.7,0-1.1-0.3-1.4-0.8c-0.4,0.6-0.8,0.8-1.4,0.8
		c-0.7,0-1.2-0.3-1.5-0.8c-0.4,0.6-0.9,0.8-1.6,0.8h-0.7v-1.2h0.8c0.7,0,1.2-0.4,1.3-1.2c0-0.2,0.1-0.3,0.2-0.3
		c0.1,0,0.1,0.1,0.2,0.3c0.1,0.8,0.5,1.2,1.3,1.2c0.4,0,0.8-0.1,1-0.3c0.1-0.2,0.2-0.4,0.3-0.8c0-0.2,0.1-0.3,0.2-0.3
		c0.1,0,0.1,0.1,0.2,0.3c0.1,0.8,0.5,1.2,1.2,1.2c0.8,0,1.1-0.2,1.1-0.5c0-0.3-0.2-0.7-0.6-1.1l0.5-0.9c0.1-0.1,0.1-0.2,0.2-0.2
		s0.1,0.1,0.2,0.2C349.5,313.9,349.6,314.4,349.6,314.9z M346.3,311.2l-0.7,0.7l-0.7-0.7l0.7-0.7L346.3,311.2z M347.1,309.7
		l-0.7,0.7l-0.7-0.7l0.7-0.7L347.1,309.7z M348,311.2l-0.7,0.7l-0.7-0.7l0.7-0.7L348,311.2z" id="PATH_123" class="area" title=""></path>
	<path d="M354.7,317.1c0,1-0.3,1.9-0.9,2.8c-0.5,0.7-1,1.1-1.3,1.1c-0.8,0-1.4,0-2-0.1c-0.2,0-0.3-0.1-0.3-0.1s0.1-0.1,0.3-0.1
		c0.8-0.2,1.6-0.6,2.4-1.2c0.8-0.7,1.3-1.4,1.3-2.1c0-0.4-0.3-1-1-1.7l0.5-0.9c0-0.1,0.1-0.1,0.1-0.1c0,0,0.1,0.1,0.1,0.1
		c0.2,0.3,0.5,0.7,0.6,1.2C354.6,316.3,354.7,316.7,354.7,317.1z" id="PATH_124" class="area" title=""></path>
</g>
<g id="G_125" class="area" title="">
	<path d="M260.3,318.7c0,0.7-0.2,1.3-0.7,1.6c-0.3,0.2-0.9,0.4-1.8,0.5c-1,0.2-2,0.3-3.1,0.3c-2.6,0-4-0.7-4-2.2
		c0-0.5,0.2-1,0.6-1.5c0.1-0.1,0.1-0.2,0.2-0.2c0.1,0,0.1,0,0.1,0.1c0,0,0,0.1,0,0.2c-0.1,0.3-0.2,0.6-0.2,0.9c0,1,1.3,1.5,3.8,1.5
		c1.2,0,2.3-0.1,3.1-0.2c1-0.2,1.4-0.4,1.4-0.7c0-0.2-0.2-0.6-0.7-1.2l0.5-0.9c0.1-0.1,0.1-0.1,0.2,0
		C260,317.6,260.3,318.2,260.3,318.7z M255.2,315.1l-0.8,0.8l-0.8-0.8l0.8-0.8L255.2,315.1z M256.9,315.1l-0.8,0.8l-0.8-0.8l0.8-0.8
		L256.9,315.1z" id="PATH_126" class="area" title=""></path>
	<path d="M267.9,313c0,0.1,0,0.1,0.1,0.3c0,0-0.1,0-0.2,0h-0.3c0,0.8-0.1,1.7-0.3,2.5c-0.2,1.1-0.6,2-1,2.6c0.2,0.4,0.3,0.9,0.3,1.3
		c0,0.2-0.1,0.5-0.2,0.8c-0.1,0.3-0.3,0.5-0.5,0.6c-0.9,0.2-1.8,0.3-2.9,0.2l0.3-1.1c1-0.5,1.7-1,2.1-1.6c-1-1.3-2.1-2.6-3.4-3.9
		l-0.2,0.3c-0.7-0.8-1-1.2-1-1.4c0-0.2,0.1-0.5,0.2-1c0-0.1,0.1-0.2,0.1-0.2c0,0,0.1,0.1,0.3,0.2c1.9,1.8,3.4,3.6,4.4,5.4
		c0.4-0.6,0.6-1.5,0.7-2.6c0.1-0.9,0.1-1.9,0-3l0.8-0.8C267.6,312.2,267.8,312.7,267.9,313z M266,319.9c0,0,0-0.1,0-0.1
		c0-0.3-0.1-0.6-0.3-0.8c-0.3,0.4-0.7,0.8-1.2,1.2c0.1,0,0.2,0,0.4,0C265.3,320.1,265.7,320.1,266,319.9z" id="PATH_127" class="area" title=""></path>
	<path d="M273.1,320.5c0,1.5-0.5,2.8-1.5,3.8c-0.3,0.3-0.5,0.5-0.6,0.5c-0.6,0-1.2-0.1-1.9-0.2c-0.3,0-0.4-0.1-0.4-0.1
		c0,0,0.1-0.1,0.4-0.2c0.8-0.2,1.6-0.7,2.3-1.3c0.3-0.3,0.6-0.5,0.8-0.9c0.3-0.4,0.5-0.8,0.5-1.1v-0.3l-1.3,0
		c-0.9,0-1.4-0.4-1.4-1.1c0-0.5,0.1-1,0.4-1.6c0.3-0.6,0.7-1,1.1-1c0.6,0,1.1,0.4,1.4,1.3C273,319.1,273.1,319.8,273.1,320.5z
		 M272.4,319.7c0-0.3-0.1-0.6-0.3-0.9c-0.2-0.3-0.5-0.5-0.8-0.5c-0.2,0-0.4,0.1-0.5,0.2c-0.2,0.2-0.2,0.3-0.2,0.5
		c0,0.5,0.3,0.7,1,0.7C271.7,319.8,272,319.8,272.4,319.7z" id="PATH_128" class="area" title=""></path>
	<path d="M283.9,320.9h-0.7c-0.9,0-1.4-0.5-1.6-1.6c-0.5,0.5-0.7,0.7-0.8,0.7h-0.9c-0.3,0-0.6,0-0.9-0.1c-0.4-0.1-0.6-0.3-0.6-0.5
		c0-0.8,0.3-1.4,0.8-1.8c0.4-0.3,1-0.6,1.8-1l-0.2-1l0.7-0.8c0,0.1,0.3,1.2,0.7,3.3c0.1,0.6,0.3,1.1,0.4,1.3
		c0.2,0.3,0.4,0.4,0.8,0.4h0.7V320.9z M281.4,318.9l-0.3-1.6c-0.3,0.1-0.7,0.3-1.2,0.5c-0.6,0.3-1,0.6-1,0.7c0,0.2,0.2,0.3,0.7,0.4
		c0.3,0.1,0.6,0.1,0.9,0.1C280.9,319,281.1,318.9,281.4,318.9z" id="PATH_129" class="area" title=""></path>
	<path d="M288.8,318.9c0,0.5,0,0.9-0.2,1.3c-0.2,0.5-0.5,0.8-0.8,0.8c-0.5,0-1.3-0.3-2.3-1c-0.3,0.4-0.5,0.6-0.6,0.7
		c-0.3,0.2-0.6,0.3-1,0.3h-0.5v-1.2h0.7c0.4,0,0.8-0.2,1.2-0.7c0.2-0.2,0.5-0.7,0.9-1.3c0.3-0.5,0.7-0.7,1-0.7
		c0.5,0,0.9,0.2,1.2,0.7C288.7,318.2,288.8,318.6,288.8,318.9z M288.3,319.7c0-0.3-0.1-0.6-0.3-1c-0.2-0.4-0.5-0.6-0.8-0.6
		c-0.3,0-0.6,0.3-1,0.9c0.2,0.2,0.5,0.4,0.9,0.6s0.8,0.3,1,0.3C288.2,319.9,288.3,319.8,288.3,319.7z" id="PATH_130" class="area" title=""></path>
</g>
<g id="G_131" class="area" title="">
	<path d="M267.8,373.8c0,1.4-0.9,2.1-2.8,2.1c-0.7,0-1.2-0.1-1.5-0.3c-0.4-0.2-0.6-0.7-0.6-1.3c0-0.3,0.1-0.6,0.2-0.9
		c0.1-0.1,0.1-0.2,0.2-0.2c0.1,0,0.1,0.1,0.1,0.3c0,0.1,0,0.2,0,0.3c0,0.4,0.2,0.7,0.6,0.8c0.2,0.1,0.6,0.1,1.1,0.1
		c1.5,0,2.2-0.2,2.2-0.7c0-0.7-0.9-1.7-2.6-2.9l0.3-1c0-0.1,0.1-0.1,0.1-0.1c0,0,0.1,0,0.2,0.1C267,371.4,267.8,372.7,267.8,373.8z" id="PATH_132" class="area" title=""></path>
	<path d="M271.8,375.9h-0.7c-0.7,0-1.3-0.3-1.5-0.9c-0.2-0.4-0.3-1.1-0.3-1.9v-1.9c0-0.9-0.1-2.2-0.2-3.9l0.6-0.7
		c0.1-0.1,0.2-0.1,0.2,0c0.1,0.9,0.2,2.2,0.2,3.9v2.9c0,0.8,0.4,1.2,1.2,1.2h0.5V375.9z" id="PATH_133" class="area" title=""></path>
	<path d="M274.2,373.9c0,1.3-0.7,2-2,2h-0.8v-1.2h0.7c1,0,1.5-0.2,1.5-0.5c0-0.3-0.2-0.7-0.7-1.2l0.4-1c0-0.1,0.1-0.1,0.1-0.1
		c0,0,0.1,0.1,0.2,0.2C274,372.6,274.2,373.3,274.2,373.9z M273.9,378.1l-0.8,0.8l-0.8-0.8l0.8-0.8L273.9,378.1z" id="PATH_134" class="area" title=""></path>
	<path d="M278.2,375.9h-0.7c-0.7,0-1.3-0.3-1.5-0.9c-0.2-0.4-0.3-1.1-0.3-1.9v-1.9c0-0.9-0.1-2.2-0.2-3.9l0.6-0.7
		c0.1-0.1,0.2-0.1,0.2,0c0.1,0.9,0.2,2.2,0.2,3.9v2.9c0,0.8,0.4,1.2,1.2,1.2h0.5V375.9z" id="PATH_135" class="area" title=""></path>
	<path d="M283.1,375.9h-0.8c-0.9,0-1.5-0.3-1.9-0.9c-0.3,0.6-1,0.9-2.1,0.9h-0.6v-1.2h0.9c1,0,1.5-0.4,1.6-1.1
		c0-0.3,0.1-0.5,0.2-0.5c0.1,0,0.2,0.2,0.2,0.5c0.1,0.7,0.6,1.1,1.5,1.1h0.9V375.9z M281.1,370.7l-0.8,0.8l-0.8-0.8l0.8-0.8
		L281.1,370.7z" id="PATH_136" class="area" title=""></path>
	<path d="M289.1,367.8c0,0.2-0.1,0.5-0.3,1.1c-1.2,0.3-2.7,0.8-4.4,1.3c1.2,1.2,1.9,2.2,2,2.9c0.1,0.5,0,1-0.2,1.5
		c-0.2,0.5-0.6,0.8-1.1,1c-0.4,0.2-1.1,0.2-2,0.2h-0.4v-1.2h0.3c1.9,0,2.9-0.3,2.9-1c0-0.5-0.5-1.3-1.6-2.3l-0.1,0.3
		c-0.1-0.1-0.3-0.3-0.5-0.6c-0.3-0.3-0.4-0.5-0.4-0.6c0-0.3,0.1-0.6,0.4-0.9c0.1-0.1,0.7-0.3,2-0.7
		C286.9,368.4,288.1,368.1,289.1,367.8z M288.9,366.3l-0.2,0.7l-4.9,1.6l0.2-0.7L288.9,366.3z" id="PATH_137" class="area" title=""></path>
</g>
<g id="G_138" class="area" title="">
	<path d="M285.6,438h-0.7c-0.9,0-1.4-0.5-1.6-1.6c-0.5,0.5-0.7,0.7-0.8,0.7h-0.9c-0.3,0-0.6,0-0.9-0.1c-0.4-0.1-0.6-0.3-0.6-0.5
		c0-0.8,0.3-1.4,0.8-1.8c0.4-0.3,1-0.6,1.8-1l-0.2-1l0.7-0.8c0,0.1,0.3,1.2,0.7,3.3c0.1,0.6,0.3,1.1,0.4,1.3
		c0.2,0.3,0.4,0.4,0.8,0.4h0.7V438z M283.1,436l-0.3-1.6c-0.3,0.1-0.7,0.3-1.2,0.5c-0.6,0.3-1,0.6-1,0.7c0,0.2,0.2,0.3,0.7,0.4
		c0.3,0.1,0.6,0.1,0.9,0.1C282.6,436,282.9,436,283.1,436z" id="PATH_139" class="area" title=""></path>
	<path d="M288,436c0,1.3-0.7,2-2,2h-0.8v-1.2h0.7c1,0,1.5-0.2,1.5-0.5c0-0.3-0.2-0.7-0.7-1.2l0.4-1c0-0.1,0.1-0.1,0.1-0.1
		c0,0,0.1,0.1,0.2,0.2C287.8,434.7,288,435.4,288,436z M287.2,440.2l-0.8,0.8l-0.8-0.8l0.8-0.8L287.2,440.2z M288.9,440.2l-0.8,0.8
		l-0.8-0.8l0.8-0.8L288.9,440.2z" id="PATH_140" class="area" title=""></path>
	<path d="M294,438.1c0,1-0.3,1.9-0.9,2.8c-0.5,0.7-1,1.1-1.3,1.1c-0.8,0-1.4,0-2-0.1c-0.2,0-0.3-0.1-0.3-0.1s0.1-0.1,0.3-0.1
		c0.8-0.2,1.6-0.6,2.4-1.2c0.8-0.7,1.3-1.4,1.3-2.1c0-0.4-0.3-1-1-1.7l0.5-0.9c0-0.1,0.1-0.1,0.1-0.1c0,0,0.1,0.1,0.1,0.1
		c0.2,0.3,0.5,0.7,0.6,1.2C293.9,437.3,294,437.7,294,438.1z" id="PATH_141" class="area" title=""></path>
	<path d="M301.8,438h-0.4c-0.4,0-0.7-0.1-1-0.4c-0.2-0.2-0.4-0.4-0.6-0.8c-0.2,0.4-0.5,0.7-0.8,0.9c-0.4,0.2-0.9,0.3-1.7,0.3
		c-1.4,0-2.1-0.5-2.1-1.5c0-0.3,0.1-0.7,0.3-1c0.1-0.1,0.1-0.2,0.2-0.2c0.1,0,0.1,0.1,0.1,0.2c0,0.1,0,0.1,0,0.3s0,0.2,0,0.3
		c0,0.6,0.5,0.9,1.5,0.9c1.4,0,2.1-0.3,2.1-0.8c0-0.3-0.4-1.4-1.2-3.3l0.4-0.8c0.1-0.1,0.1-0.2,0.1-0.2c0,0,0.1,0.1,0.1,0.2
		c0.3,0.8,0.8,2,1.4,3.6c0.3,0.8,0.7,1.2,1.3,1.2h0.3V438z" id="PATH_142" class="area" title=""></path>
	<path d="M306.7,438H306c-0.9,0-1.5-0.3-1.9-0.9c-0.3,0.6-1,0.9-2.1,0.9h-0.6v-1.2h0.9c1,0,1.5-0.4,1.6-1.1c0-0.3,0.1-0.5,0.2-0.5
		s0.2,0.2,0.2,0.5c0.1,0.7,0.6,1.1,1.5,1.1h0.9V438z M303.4,440.2l-0.8,0.8l-0.8-0.8l0.8-0.8L303.4,440.2z M305.1,440.2l-0.8,0.8
		l-0.8-0.8l0.8-0.8L305.1,440.2z" id="PATH_143" class="area" title=""></path>
	<path d="M314.5,435.1l-0.4,0.8c-0.7,0-1.3,0-1.6,0.1c-0.4,0.2-1,0.4-1.8,0.8c-0.8,0.4-1.4,0.7-1.8,0.8c-0.6,0.2-1.3,0.3-1.9,0.3
		h-0.7v-1.2h0.8c0.9,0,1.7-0.2,2.4-0.5l2.3-1c-0.4-0.1-1-0.3-1.8-0.6c-0.7-0.3-1.1-0.4-1.3-0.4c-0.4,0-0.8,0.2-1.2,0.5
		c-0.1,0.1-0.1,0.1-0.2,0.1c-0.1,0-0.1,0-0.1-0.1c0,0,0-0.1,0-0.1c0.3-1,0.9-1.4,1.7-1.4c0.3,0,0.7,0.1,1.1,0.3
		c0.8,0.4,1.4,0.6,1.8,0.8c0.7,0.2,1.5,0.4,2.4,0.4c0.2,0,0.3,0,0.3,0.1C314.6,434.9,314.6,435,314.5,435.1z" id="PATH_144" class="area" title=""></path>
	<path d="M330.5,438h-0.4c-0.5,0-0.9-0.1-1.1-0.3c-0.3-0.2-0.5-0.6-0.5-1c-1.1,1-2.8,1.5-5.1,1.5c-2.4,0-3.6-0.7-3.6-2.2
		c0-0.5,0.2-1,0.6-1.5c0.1-0.1,0.1-0.1,0.2-0.1c0.1,0,0.1,0,0.1,0.1c0,0,0,0.1,0,0.2c-0.1,0.3-0.2,0.6-0.2,0.9c0,1,1.1,1.5,3.3,1.5
		c2.5,0,4.2-0.5,5-1.6c0.2-0.2,0.3-0.3,0.4-0.3c0.1,0,0.1,0.1,0.1,0.2c0,0.1,0,0.2-0.1,0.4c0,0.2-0.1,0.3-0.1,0.4
		c0,0.5,0.4,0.8,1.1,0.8h0.4V438z M324.3,432.2l-0.8,0.8l-0.8-0.8l0.8-0.8L324.3,432.2z M326,432.2l-0.8,0.8l-0.8-0.8l0.8-0.8
		L326,432.2z" id="PATH_145" class="area" title=""></path>
	<path d="M332.9,436c0,1.3-0.7,2-2,2h-0.8v-1.2h0.7c1,0,1.5-0.2,1.5-0.5c0-0.3-0.2-0.7-0.7-1.2l0.4-1c0-0.1,0.1-0.1,0.1-0.1
		s0.1,0.1,0.2,0.2C332.7,434.7,332.9,435.4,332.9,436z M332.6,440.2l-0.8,0.8l-0.8-0.8l0.8-0.8L332.6,440.2z" id="PATH_146" class="area" title=""></path>
	<path d="M339.2,438h-0.4c-0.4,0-0.6-0.1-0.8-0.2c0,0.1,0,0.2,0,0.3c0,0.9-0.3,1.8-0.9,2.7c-0.5,0.8-1,1.1-1.3,1.1
		c-0.8,0-1.4,0-2-0.1c-0.2,0-0.3-0.1-0.3-0.1s0.1-0.1,0.3-0.1c0.8-0.2,1.6-0.6,2.4-1.2c0.8-0.7,1.3-1.4,1.3-2.1c0-0.4-0.3-1-1-1.7
		l0.5-0.9c0-0.1,0.1-0.1,0.1-0.1c0,0,0.1,0.1,0.1,0.1c0.3,0.4,0.5,0.7,0.7,0.8c0.3,0.2,0.7,0.4,1.1,0.4h0.3V438z" id="PATH_147" class="area" title=""></path>
	<path d="M341.6,436c0,1.3-0.7,2-2,2h-0.8v-1.2h0.7c1,0,1.5-0.2,1.5-0.5c0-0.3-0.2-0.7-0.7-1.2l0.4-1c0-0.1,0.1-0.1,0.1-0.1
		s0.1,0.1,0.2,0.2C341.3,434.7,341.6,435.4,341.6,436z M340.6,431.6l-0.8,0.8l-0.8-0.8l0.8-0.8L340.6,431.6z M342.3,431.6l-0.8,0.8
		l-0.8-0.8l0.8-0.8L342.3,431.6z" id="PATH_148" class="area" title=""></path>
</g>
<g id="G_149" class="area" title="">
	<path d="M189.1,353.9c0.1,0.3,0.1,0.6,0.1,0.9c0,0.4-0.1,0.7-0.2,1.1c-0.3,0.7-0.8,1.3-1.8,1.7c-0.8,0.3-1.6,0.5-2.5,0.5
		c-0.9,0-1.6-0.2-2.2-0.6c-0.6-0.5-0.9-1.1-0.9-2c0-0.5,0.1-0.9,0.3-1.5c0.2-0.4,0.3-0.7,0.5-0.9c0.1-0.1,0.2-0.1,0.2-0.1
		c0.1,0,0.1,0,0.1,0.1c0,0,0,0.1,0,0.2c-0.3,0.6-0.4,1.2-0.4,1.7c0,0.5,0.2,0.9,0.5,1.3c0.4,0.5,1.1,0.7,2,0.7c1,0,1.9-0.2,2.6-0.5
		c0.6-0.3,1-0.6,1.2-1c0.1-0.1,0.1-0.3,0.1-0.4c0-0.3-0.1-0.6-0.2-1c-0.1-0.3-0.4-0.8-0.9-1.6l0.4-0.8c0.1-0.1,0.1-0.2,0.1-0.2
		s0.1,0,0.1,0.1C188.7,352.3,189,353.1,189.1,353.9z M186.2,349.5l-0.8,0.8l-0.8-0.8l0.8-0.8L186.2,349.5z" id="PATH_150" class="area" title=""></path>
	<path d="M193.2,354h-0.7c-0.7,0-1.3-0.3-1.5-0.9c-0.2-0.4-0.3-1.1-0.3-1.9v-1.9c0-0.9-0.1-2.2-0.2-3.9l0.6-0.7
		c0.1-0.1,0.2-0.1,0.2,0c0.1,0.9,0.2,2.2,0.2,3.9v2.9c0,0.8,0.4,1.2,1.2,1.2h0.5V354z" id="PATH_151" class="area" title=""></path>
	<path d="M198.1,354h-0.8c-0.9,0-1.5-0.3-1.9-0.9c-0.3,0.6-1,0.9-2.1,0.9h-0.6v-1.2h0.9c1,0,1.5-0.4,1.6-1.1c0-0.3,0.1-0.5,0.2-0.5
		c0.1,0,0.2,0.2,0.2,0.5c0.1,0.7,0.6,1.1,1.5,1.1h0.9V354z M194.7,348.2l-0.8,0.8l-0.8-0.8l0.8-0.8L194.7,348.2z M196.4,348.2
		l-0.8,0.8l-0.8-0.8l0.8-0.8L196.4,348.2z" id="PATH_152" class="area" title=""></path>
	<path d="M207.3,354h-0.6c-0.7,0-1.1-0.3-1.4-0.8c-0.2,0.6-0.7,0.8-1.3,0.8c-0.6,0-1-0.3-1.3-0.8c-0.3,0.6-0.7,0.8-1.3,0.8
		c-0.7,0-1.2-0.3-1.5-0.8c-0.4,0.6-0.9,0.8-1.6,0.8h-0.7v-1.2h0.8c0.7,0,1.2-0.4,1.3-1.2c0-0.2,0.1-0.3,0.2-0.3
		c0.1,0,0.1,0.1,0.2,0.3c0.1,0.8,0.5,1.2,1.3,1.2c0.7,0,1.2-0.4,1.2-1.2c0-0.2,0.1-0.3,0.2-0.3c0.1,0,0.2,0.1,0.2,0.3
		c0.1,0.8,0.5,1.2,1,1.2c0.7,0,1.2-0.4,1.2-1.2c0-0.2,0.1-0.3,0.2-0.3c0.1,0,0.2,0.1,0.2,0.3c0.1,0.8,0.5,1.2,1.2,1.2h0.6V354z" id="PATH_153" class="area" title=""></path>
	<path d="M216.1,354h-1c-1.3,0-2-0.7-2-2c0-0.2,0-0.3,0-0.5c-0.5,0.2-1.1,0.6-1.9,1.1c-0.8,0.5-1.3,0.8-1.7,1
		c-0.6,0.3-1.3,0.4-1.9,0.4h-0.7v-1.2h0.8c0.8,0,1.7-0.2,2.5-0.6c0.4-0.2,1.1-0.6,2.2-1.1c-0.2,0-0.8-0.2-1.8-0.4
		c-0.7-0.2-1.1-0.3-1.2-0.3c-0.4,0-0.8,0.2-1.2,0.5c-0.1,0.1-0.1,0.1-0.2,0.1c-0.1,0-0.1,0-0.1-0.1c0,0,0-0.1,0-0.1
		c0.3-1,0.9-1.5,1.7-1.5c0.3,0,0.7,0.1,1.2,0.2c0.7,0.2,1.3,0.4,1.8,0.5c0.7,0.1,1.5,0.2,2.4,0.2c0.2,0,0.2,0,0.3,0c0,0,0,0.1,0,0.2
		l-0.3,0.9c-0.6,0-1,0-1.2,0.1c0,0.5,0.1,0.8,0.2,0.9c0.2,0.3,0.6,0.5,1.3,0.5h1V354z" id="PATH_154" class="area" title=""></path>
	<path d="M218.4,352c0,1.3-0.7,2-2,2h-0.8v-1.2h0.7c1,0,1.5-0.2,1.5-0.5c0-0.3-0.2-0.7-0.7-1.2l0.4-1c0-0.1,0.1-0.1,0.1-0.1
		c0,0,0.1,0.1,0.2,0.2C218.2,350.7,218.4,351.4,218.4,352z M218.1,356.2l-0.8,0.8l-0.8-0.8l0.8-0.8L218.1,356.2z" id="PATH_155" class="area" title=""></path>
</g>
<g id="G_156" class="area" title="">
	<path d="M81.1,371.2c0,1.4-0.9,2.1-2.8,2.1c-0.7,0-1.2-0.1-1.5-0.3c-0.4-0.2-0.6-0.7-0.6-1.3c0-0.3,0.1-0.6,0.2-0.9
		c0.1-0.1,0.1-0.2,0.2-0.2c0.1,0,0.1,0.1,0.1,0.3c0,0.1,0,0.2,0,0.3c0,0.4,0.2,0.7,0.6,0.8c0.2,0.1,0.6,0.1,1.1,0.1
		c1.5,0,2.2-0.2,2.2-0.7c0-0.7-0.9-1.7-2.6-2.9l0.3-1c0-0.1,0.1-0.1,0.1-0.1c0,0,0.1,0,0.2,0.1C80.3,368.9,81.1,370.1,81.1,371.2z" id="PATH_157" class="area" title=""></path>
	<path d="M85.1,373.3h-0.7c-0.7,0-1.3-0.3-1.5-0.9c-0.2-0.4-0.3-1.1-0.3-1.9v-1.9c0-0.9-0.1-2.2-0.2-3.9l0.6-0.7
		c0.1-0.1,0.2-0.1,0.2,0c0.1,0.9,0.2,2.2,0.2,3.9v2.9c0,0.8,0.4,1.2,1.2,1.2h0.5V373.3z" id="PATH_158" class="area" title=""></path>
	<path d="M87.5,371.3c0,1.3-0.7,2-2,2h-0.8v-1.2h0.7c1,0,1.5-0.2,1.5-0.5c0-0.3-0.2-0.7-0.7-1.2l0.4-1c0-0.1,0.1-0.1,0.1-0.1
		c0,0,0.1,0.1,0.2,0.2C87.2,370.1,87.5,370.7,87.5,371.3z M87.1,375.5l-0.8,0.8l-0.8-0.8l0.8-0.8L87.1,375.5z" id="PATH_159" class="area" title=""></path>
	<path d="M91.5,362.6c-0.4,0.4-1,0.5-1.6,0.5c-0.1,0-0.2,0-0.4,0s-0.3,0-0.4,0c-0.1,0-0.2,0.1-0.3,0.2s-0.2,0.2-0.2,0.2
		c-0.1,0-0.1-0.1-0.1-0.2c0-0.1,0.1-0.3,0.2-0.5c0.1-0.3,0.2-0.4,0.3-0.4c0.1,0,0.3,0,0.6,0.1s0.5,0.1,0.6,0.1c0.6,0,1,0,1.3-0.1
		c0.2,0,0.3-0.1,0.3-0.1c0,0,0.1,0,0.1,0C91.7,362.4,91.6,362.5,91.5,362.6z M90.8,372.1c0,0.4-0.1,0.8-0.3,1.1
		c-0.1,0.2-0.2,0.3-0.2,0.3c0,0-0.1-0.1-0.1-0.4c0-1.2-0.2-4-0.6-8.5l0.8-0.8c0.1-0.1,0.1-0.1,0.1-0.1c0,0,0,0.1,0,0.2
		C90.8,365.2,90.8,367.9,90.8,372.1z" id="PATH_160" class="area" title=""></path>
	<path d="M105.1,373.3h-0.5c-0.5,0-0.9-0.2-1.1-0.5c0,0.6-0.1,1.3-0.2,2.2c-0.3,0.7-0.8,1.3-1.6,1.6c-0.7,0.3-1.4,0.5-2.3,0.5
		c-0.9,0-1.5-0.2-2-0.5c-0.6-0.4-0.9-1-0.9-1.9c0-0.8,0.2-1.6,0.7-2.2c0.1-0.1,0.1-0.1,0.2-0.1c0.1,0,0.1,0,0.1,0.1c0,0,0,0.1,0,0.1
		c-0.2,0.5-0.3,1-0.3,1.4c0,0.6,0.2,1.1,0.7,1.5c0.4,0.3,0.9,0.5,1.6,0.5c0.6,0,1.3-0.1,2-0.4c1-0.3,1.4-0.7,1.4-1.2l-0.1-4.8
		c-0.1-2.3-0.1-3.9-0.2-5l0.8-0.7c0,0.3,0.1,1.4,0.2,3.4l0.1,3.9c0,0.6,0.4,1,1.2,1h0.3V373.3z" id="PATH_161" class="area" title=""></path>
	<path d="M110,373.3h-0.8c-0.9,0-1.5-0.3-1.9-0.9c-0.3,0.6-1,0.9-2.1,0.9h-0.6v-1.2h0.9c1,0,1.5-0.4,1.6-1.1c0-0.3,0.1-0.5,0.2-0.5
		c0.1,0,0.2,0.2,0.2,0.5c0.1,0.7,0.6,1.1,1.5,1.1h0.9V373.3z M106.7,375.5l-0.8,0.8l-0.8-0.8l0.8-0.8L106.7,375.5z M108.5,375.5
		l-0.8,0.8l-0.8-0.8l0.8-0.8L108.5,375.5z" id="PATH_162" class="area" title=""></path>
	<path d="M113.7,373.3h-0.4c-0.9,0-1.5-0.3-1.8-1c-0.1,0.3-0.3,0.5-0.6,0.7c-0.3,0.2-0.6,0.3-0.9,0.3h-0.4v-1.2h0.4
		c0.8,0,1.2-0.3,1.2-1v-3.5c0-1.3,0-2.3-0.1-3l0.9-0.7v6.7c0,1,0.4,1.5,1.3,1.5h0.4V373.3z" id="PATH_163" class="area" title=""></path>
	<path d="M121.5,370.4l-0.4,0.8c-0.7,0-1.3,0-1.6,0.1c-0.4,0.2-1,0.4-1.8,0.8c-0.8,0.4-1.4,0.7-1.8,0.8c-0.6,0.2-1.3,0.3-1.9,0.3
		h-0.7v-1.2h0.8c0.9,0,1.7-0.2,2.4-0.5l2.3-1c-0.4-0.1-1-0.3-1.8-0.6c-0.7-0.3-1.1-0.4-1.3-0.4c-0.4,0-0.8,0.2-1.2,0.5
		c-0.1,0.1-0.1,0.1-0.2,0.1c-0.1,0-0.1,0-0.1-0.1c0,0,0-0.1,0-0.1c0.3-1,0.9-1.4,1.7-1.4c0.3,0,0.7,0.1,1.1,0.3
		c0.8,0.4,1.4,0.6,1.8,0.8c0.7,0.2,1.5,0.4,2.4,0.4c0.2,0,0.3,0,0.3,0.1C121.6,370.2,121.6,370.3,121.5,370.4z M118.7,365.9
		l-0.8,0.8l-0.8-0.8l0.8-0.8L118.7,365.9z" id="PATH_164" class="area" title=""></path>
</g>
<g id="G_165" class="area" title="">
	<path d="M147.8,290h-0.5c-0.5,0-0.8,0-1-0.1c0,0.3,0.1,0.5,0.1,0.8c0,0.5-0.1,0.8-0.2,1.1c-0.3,0.7-0.8,1.3-1.8,1.7
		c-0.8,0.3-1.6,0.5-2.5,0.5c-0.9,0-1.6-0.2-2.2-0.6c-0.6-0.5-0.9-1.1-0.9-2c0-0.5,0.1-0.9,0.3-1.5c0.2-0.4,0.3-0.7,0.5-0.9
		c0.1-0.1,0.2-0.1,0.2-0.1c0.1,0,0.1,0,0.1,0.1c0,0,0,0.1,0,0.2c-0.3,0.6-0.4,1.2-0.4,1.7c0,0.5,0.2,0.9,0.5,1.3
		c0.4,0.5,1.1,0.7,2,0.7c1,0,1.9-0.2,2.6-0.5c0.6-0.3,1-0.6,1.2-1c0.1-0.1,0.1-0.3,0-0.7c0-0.3-0.1-0.6-0.1-0.7
		c-0.1-0.3-0.5-0.8-1-1.5l0.4-0.8c0.1-0.1,0.1-0.2,0.1-0.2s0.1,0,0.1,0.1c0.5,0.8,1,1.2,1.6,1.2h0.8V290z M143.4,285.5l-0.8,0.8
		l-0.8-0.8l0.8-0.8L143.4,285.5z" id="PATH_166" class="area" title=""></path>
	<path d="M154.7,290H154c-0.5,0-1-0.3-1.6-0.8c-0.3-0.3-0.7-0.8-1.2-1.5c0.1,1.6-0.8,2.4-2.7,2.4h-1.1v-1.2h1.3c1.3,0,2-0.4,2-1.1
		c0-0.4-0.2-0.9-0.7-1.5c-0.3-0.4-0.7-0.8-1.3-1.3c-0.5-0.4-0.7-0.7-0.7-0.7c0-0.7,0.1-1.2,0.3-1.5c0-0.1,0.7-0.3,2-0.8
		c1.3-0.5,2.5-0.9,3.6-1.2c0,0.1-0.1,0.5-0.3,1.1c-1.3,0.4-2.9,1-4.9,1.8c0.9,0.8,2.1,2.1,3.4,3.9c0.5,0.6,0.9,1,1.2,1.2
		c0.2,0.1,0.6,0.2,1,0.2h0.4V290z" id="PATH_167" class="area" title=""></path>
	<path d="M162.6,287.9c0,0.6-0.1,1.1-0.4,1.5c-0.3,0.4-0.8,0.7-1.3,0.7c-0.7,0-1.1-0.3-1.4-0.8c-0.4,0.6-0.8,0.8-1.4,0.8
		c-0.7,0-1.2-0.3-1.5-0.8c-0.4,0.6-0.9,0.8-1.6,0.8h-0.7v-1.2h0.8c0.7,0,1.2-0.4,1.3-1.2c0-0.2,0.1-0.3,0.2-0.3
		c0.1,0,0.1,0.1,0.2,0.3c0.1,0.8,0.5,1.2,1.3,1.2c0.4,0,0.8-0.1,1-0.3c0.1-0.2,0.2-0.4,0.3-0.8c0-0.2,0.1-0.3,0.2-0.3
		c0.1,0,0.1,0.1,0.2,0.3c0.1,0.8,0.5,1.2,1.2,1.2c0.8,0,1.1-0.2,1.1-0.5c0-0.3-0.2-0.7-0.6-1.1l0.5-0.9c0.1-0.1,0.1-0.2,0.2-0.2
		s0.1,0.1,0.2,0.2C162.4,286.9,162.6,287.4,162.6,287.9z" id="PATH_168" class="area" title=""></path>
	<path d="M168.7,287.9c0,1.4-0.9,2.1-2.8,2.1c-0.7,0-1.2-0.1-1.5-0.3c-0.4-0.2-0.6-0.7-0.6-1.3c0-0.3,0.1-0.6,0.2-0.9
		c0.1-0.1,0.1-0.2,0.2-0.2c0.1,0,0.1,0.1,0.1,0.3c0,0.1,0,0.2,0,0.3c0,0.4,0.2,0.7,0.6,0.8c0.2,0.1,0.6,0.1,1.1,0.1
		c1.5,0,2.2-0.2,2.2-0.7c0-0.7-0.9-1.7-2.6-2.9l0.3-1c0-0.1,0.1-0.1,0.1-0.1c0,0,0.1,0,0.2,0.1C167.9,285.5,168.7,286.8,168.7,287.9
		z" id="PATH_169" class="area" title=""></path>
	<path d="M175,290h-0.4c-0.4,0-0.6-0.1-0.8-0.2c0,0.1,0,0.2,0,0.3c0,0.9-0.3,1.8-0.9,2.7c-0.5,0.8-1,1.1-1.3,1.1c-0.8,0-1.4,0-2-0.1
		c-0.2,0-0.3-0.1-0.3-0.1s0.1-0.1,0.3-0.1c0.8-0.2,1.6-0.6,2.4-1.2c0.8-0.7,1.3-1.4,1.3-2.1c0-0.4-0.3-1-1-1.7l0.5-0.9
		c0-0.1,0.1-0.1,0.1-0.1c0,0,0.1,0.1,0.1,0.1c0.3,0.4,0.5,0.7,0.7,0.8c0.3,0.2,0.7,0.4,1.1,0.4h0.3V290z" id="PATH_170" class="area" title=""></path>
	<path d="M177.3,288c0,1.3-0.7,2-2,2h-0.8v-1.2h0.7c1,0,1.5-0.2,1.5-0.5c0-0.3-0.2-0.7-0.7-1.2l0.4-1c0-0.1,0.1-0.1,0.1-0.1
		c0,0,0.1,0.1,0.2,0.2C177.1,286.7,177.3,287.4,177.3,288z M177,292.2l-0.8,0.8l-0.8-0.8l0.8-0.8L177,292.2z" id="PATH_171" class="area" title=""></path>
</g>
<g id="G_172" class="area" title="">
	<path d="M232.7,266.3h-0.4c-0.4,0-0.6-0.1-0.8-0.2c0,0.1,0,0.2,0,0.3c0,0.9-0.3,1.8-0.9,2.7c-0.5,0.8-1,1.1-1.3,1.1
		c-0.8,0-1.4,0-2-0.1c-0.2,0-0.3-0.1-0.3-0.1s0.1-0.1,0.3-0.1c0.8-0.2,1.6-0.6,2.4-1.2c0.8-0.7,1.3-1.4,1.3-2.1c0-0.4-0.3-1-1-1.7
		l0.5-0.9c0-0.1,0.1-0.1,0.1-0.1c0,0,0.1,0.1,0.1,0.1c0.3,0.4,0.5,0.7,0.7,0.8c0.3,0.2,0.7,0.4,1.1,0.4h0.3V266.3z" id="PATH_173" class="area" title=""></path>
	<path d="M239.9,266.3h-0.6c-0.5,0-1-0.3-1.4-0.8c-0.3,0.8-0.6,1.2-0.9,1.2c-0.3,0-0.8-0.2-1.4-0.5c-0.5-0.3-0.9-0.6-1.1-0.8
		c-0.5,0.6-1,0.9-1.5,0.9h-0.6v-1.2h0.6c0.5,0,0.9-0.2,1.3-0.6c0.3-0.3,0.6-0.7,1-1.1c0.4-0.4,0.7-0.6,1-0.6c0.4,0,0.7,0.2,1,0.6
		c0.2,0.2,0.4,0.6,0.9,1.1c0.3,0.4,0.7,0.6,1.1,0.6h0.6V266.3z M237.2,265.5c0-0.3-0.1-0.6-0.3-1c-0.2-0.4-0.5-0.6-0.9-0.6
		c-0.3,0-0.7,0.3-1.1,0.8c0.1,0.1,0.4,0.3,0.9,0.6c0.5,0.3,0.9,0.4,1.2,0.4C237.1,265.7,237.2,265.6,237.2,265.5z" id="PATH_174" class="area" title=""></path>
	<path d="M247.8,264.2c0,0.6-0.1,1.1-0.4,1.5c-0.3,0.4-0.8,0.7-1.3,0.7c-0.7,0-1.1-0.3-1.4-0.8c-0.4,0.6-0.8,0.8-1.4,0.8
		c-0.7,0-1.2-0.3-1.5-0.8c-0.4,0.6-0.9,0.8-1.6,0.8h-0.7v-1.2h0.8c0.7,0,1.2-0.4,1.3-1.2c0-0.2,0.1-0.3,0.2-0.3
		c0.1,0,0.1,0.1,0.2,0.3c0.1,0.8,0.5,1.2,1.3,1.2c0.4,0,0.8-0.1,1-0.3c0.1-0.2,0.2-0.4,0.3-0.8c0-0.2,0.1-0.3,0.2-0.3
		c0.1,0,0.1,0.1,0.2,0.3c0.1,0.8,0.5,1.2,1.2,1.2c0.8,0,1.1-0.2,1.1-0.5c0-0.3-0.2-0.7-0.6-1.1l0.5-0.9c0.1-0.1,0.1-0.2,0.2-0.2
		s0.1,0.1,0.2,0.2C247.6,263.2,247.8,263.8,247.8,264.2z M244.4,260.5l-0.7,0.7l-0.7-0.7l0.7-0.7L244.4,260.5z M245.3,259l-0.7,0.7
		l-0.7-0.7l0.7-0.7L245.3,259z M246.2,260.5l-0.7,0.7l-0.7-0.7l0.7-0.7L246.2,260.5z" id="PATH_175" class="area" title=""></path>
	<path d="M251.8,266.3h-0.7c-0.7,0-1.3-0.3-1.5-0.9c-0.2-0.4-0.3-1.1-0.3-1.9v-1.9c0-0.9-0.1-2.2-0.2-3.9l0.6-0.7
		c0.1-0.1,0.2-0.1,0.2,0c0.1,0.9,0.2,2.2,0.2,3.9v2.9c0,0.8,0.4,1.2,1.2,1.2h0.5V266.3z" id="PATH_176" class="area" title=""></path>
	<path d="M258,257.1c0,0.2-0.2,0.6-0.4,1.1l-2.5,0.8c-1.1,0.4-1.9,0.7-2.3,0.9c0.8,0.8,1.3,1.4,1.6,1.7c0.5,0.7,0.8,1.3,0.9,2
		c0,0.5,0,1-0.2,1.4c-0.3,0.9-1.4,1.3-3.1,1.3h-0.5v-1.2h0.6c0.8,0,1.4,0,1.7-0.1c0.7-0.2,1.1-0.5,1.1-1c0-0.7-0.5-1.5-1.6-2.5
		l-0.1,0.2c-0.1-0.1-0.3-0.3-0.5-0.6c-0.3-0.3-0.4-0.6-0.4-0.6c0-0.2,0-0.4,0.1-0.8c0.1-0.4,0.2-0.6,0.3-0.7
		c0.1-0.1,0.8-0.4,2.1-0.8C255.9,257.7,257.1,257.3,258,257.1z" id="PATH_177" class="area" title=""></path>
</g>
<g id="G_178" class="area" title="">
	<path d="M138.5,225.8c0,1-0.3,1.9-0.9,2.8c-0.5,0.7-1,1.1-1.3,1.1c-0.8,0-1.4,0-2-0.1c-0.2,0-0.3-0.1-0.3-0.1s0.1-0.1,0.3-0.1
		c0.8-0.2,1.6-0.6,2.4-1.2c0.8-0.7,1.3-1.4,1.3-2.1c0-0.4-0.3-1-1-1.7l0.5-0.9c0-0.1,0.1-0.1,0.1-0.1c0,0,0.1,0.1,0.1,0.1
		c0.2,0.3,0.5,0.7,0.6,1.2C138.4,225,138.5,225.4,138.5,225.8z" id="PATH_179" class="area" title=""></path>
	<path d="M140.9,224.4c0,0.4-0.1,0.8-0.3,1.1c-0.1,0.2-0.2,0.3-0.2,0.3c0,0-0.1-0.1-0.1-0.4c0-1.2-0.2-4-0.6-8.5l0.8-0.8
		c0.1-0.1,0.1-0.1,0.1-0.1c0,0,0,0.1,0,0.2C140.8,217.6,140.9,220.3,140.9,224.4z" id="PATH_180" class="area" title=""></path>
	<path d="M146,225.3c0,1.5-0.5,2.8-1.5,3.8c-0.3,0.3-0.5,0.5-0.6,0.5c-0.6,0-1.2-0.1-1.9-0.2c-0.3,0-0.4-0.1-0.4-0.1
		c0,0,0.1-0.1,0.4-0.2c0.8-0.2,1.6-0.7,2.3-1.3c0.3-0.3,0.6-0.5,0.8-0.9c0.3-0.4,0.5-0.8,0.5-1.1v-0.3l-1.3,0
		c-0.9,0-1.4-0.4-1.4-1.1c0-0.5,0.1-1,0.4-1.6c0.3-0.6,0.7-1,1.1-1c0.6,0,1.1,0.4,1.4,1.3C145.9,223.8,146,224.5,146,225.3z
		 M145.3,224.4c0-0.3-0.1-0.6-0.3-0.9c-0.2-0.3-0.5-0.5-0.8-0.5c-0.2,0-0.4,0.1-0.5,0.2c-0.2,0.2-0.2,0.3-0.2,0.5
		c0,0.5,0.3,0.7,1,0.7C144.6,224.5,144.9,224.5,145.3,224.4z" id="PATH_181" class="area" title=""></path>
	<path d="M152.2,225.7h-0.4c-0.4,0-0.6-0.1-0.8-0.2c0,0.1,0,0.2,0,0.3c0,0.9-0.3,1.8-0.9,2.7c-0.5,0.8-1,1.1-1.3,1.1
		c-0.8,0-1.4,0-2-0.1c-0.2,0-0.3-0.1-0.3-0.1s0.1-0.1,0.3-0.1c0.8-0.2,1.6-0.6,2.4-1.2c0.8-0.7,1.3-1.4,1.3-2.1c0-0.4-0.3-1-1-1.7
		l0.5-0.9c0-0.1,0.1-0.1,0.1-0.1c0,0,0.1,0.1,0.1,0.1c0.3,0.4,0.5,0.7,0.7,0.8c0.3,0.2,0.7,0.4,1.1,0.4h0.3V225.7z M150.3,220.4
		l-0.8,0.8l-0.8-0.8l0.8-0.8L150.3,220.4z" id="PATH_182" class="area" title=""></path>
	<path d="M157.2,225.7h-0.8c-0.9,0-1.5-0.3-1.9-0.9c-0.3,0.6-1,0.9-2.1,0.9h-0.6v-1.2h0.9c1,0,1.5-0.4,1.6-1.1
		c0-0.3,0.1-0.5,0.2-0.5c0.1,0,0.2,0.2,0.2,0.5c0.1,0.7,0.6,1.1,1.5,1.1h0.9V225.7z M155,227.9l-0.8,0.8l-0.8-0.8l0.8-0.8L155,227.9
		z" id="PATH_183" class="area" title=""></path>
	<path d="M165,223.5c0,0.6-0.1,1.1-0.4,1.5c-0.3,0.4-0.8,0.7-1.3,0.7c-0.7,0-1.1-0.3-1.4-0.8c-0.4,0.6-0.8,0.8-1.4,0.8
		c-0.7,0-1.2-0.3-1.5-0.8c-0.4,0.6-0.9,0.8-1.6,0.8h-0.7v-1.2h0.8c0.7,0,1.2-0.4,1.3-1.2c0-0.2,0.1-0.3,0.2-0.3
		c0.1,0,0.1,0.1,0.2,0.3c0.1,0.8,0.5,1.2,1.3,1.2c0.4,0,0.8-0.1,1-0.3c0.1-0.2,0.2-0.4,0.3-0.8c0-0.2,0.1-0.3,0.2-0.3
		c0.1,0,0.1,0.1,0.2,0.3c0.1,0.8,0.5,1.2,1.2,1.2c0.8,0,1.1-0.2,1.1-0.5c0-0.3-0.2-0.7-0.6-1.1l0.5-0.9c0.1-0.1,0.1-0.2,0.2-0.2
		s0.1,0.1,0.2,0.2C164.9,222.6,165,223.1,165,223.5z" id="PATH_184" class="area" title=""></path>
</g>
<g id="G_185" class="area" title="">
	<path d="M100.2,177.1c0.1,0.3,0.1,0.6,0.1,0.9c0,0.4-0.1,0.7-0.2,1.1c-0.3,0.7-0.8,1.3-1.8,1.7c-0.8,0.3-1.6,0.5-2.5,0.5
		c-0.9,0-1.6-0.2-2.2-0.6c-0.6-0.5-0.9-1.1-0.9-2c0-0.5,0.1-0.9,0.3-1.5c0.2-0.4,0.3-0.7,0.5-0.9c0.1-0.1,0.2-0.1,0.2-0.1
		c0.1,0,0.1,0,0.1,0.1c0,0,0,0.1,0,0.2c-0.3,0.6-0.4,1.2-0.4,1.7c0,0.5,0.2,0.9,0.5,1.3c0.4,0.5,1.1,0.7,2,0.7c1,0,1.9-0.2,2.6-0.5
		c0.6-0.3,1-0.6,1.2-1c0.1-0.1,0.1-0.3,0.1-0.4c0-0.3-0.1-0.6-0.2-1c-0.1-0.3-0.4-0.8-0.9-1.6l0.4-0.8c0.1-0.1,0.1-0.2,0.1-0.2
		s0.1,0,0.1,0.1C99.8,175.6,100,176.3,100.2,177.1z M97.2,172.8l-0.8,0.8l-0.8-0.8l0.8-0.8L97.2,172.8z" id="PATH_186" class="area" title=""></path>
	<path d="M105.3,177.3c0,1-0.3,1.9-0.9,2.8c-0.5,0.7-1,1.1-1.3,1.1c-0.8,0-1.4,0-2-0.1c-0.2,0-0.3-0.1-0.3-0.1s0.1-0.1,0.3-0.1
		c0.8-0.2,1.6-0.6,2.4-1.2c0.8-0.7,1.3-1.4,1.3-2.1c0-0.4-0.3-1-1-1.7l0.5-0.9c0-0.1,0.1-0.1,0.1-0.1c0,0,0.1,0.1,0.1,0.1
		c0.2,0.3,0.5,0.7,0.6,1.2C105.2,176.6,105.3,177,105.3,177.3z M104.6,172l-0.8,0.8L103,172l0.8-0.8L104.6,172z" id="PATH_187" class="area" title=""></path>
	<path d="M110.4,177.3c0,1-0.3,1.9-0.9,2.8c-0.5,0.7-1,1.1-1.3,1.1c-0.8,0-1.4,0-2-0.1c-0.2,0-0.3-0.1-0.3-0.1s0.1-0.1,0.3-0.1
		c0.8-0.2,1.6-0.6,2.4-1.2c0.8-0.7,1.3-1.4,1.3-2.1c0-0.4-0.3-1-1-1.7l0.5-0.9c0-0.1,0.1-0.1,0.1-0.1c0,0,0.1,0.1,0.1,0.1
		c0.2,0.3,0.5,0.7,0.6,1.2C110.3,176.6,110.4,177,110.4,177.3z" id="PATH_188" class="area" title=""></path>
	<path d="M115.5,176.9c0,1.5-0.5,2.8-1.5,3.8c-0.3,0.3-0.5,0.5-0.6,0.5c-0.6,0-1.2-0.1-1.9-0.2c-0.3,0-0.4-0.1-0.4-0.1
		c0,0,0.1-0.1,0.4-0.2c0.8-0.2,1.6-0.7,2.3-1.3c0.3-0.3,0.6-0.5,0.8-0.9c0.3-0.4,0.5-0.8,0.5-1.1v-0.3l-1.3,0
		c-0.9,0-1.4-0.4-1.4-1.1c0-0.5,0.1-1,0.4-1.6c0.3-0.6,0.7-1,1.1-1c0.6,0,1.1,0.4,1.4,1.3C115.4,175.4,115.5,176.1,115.5,176.9z
		 M114.8,176c0-0.3-0.1-0.6-0.3-0.9c-0.2-0.3-0.5-0.5-0.8-0.5c-0.2,0-0.4,0.1-0.5,0.2c-0.2,0.2-0.2,0.3-0.2,0.5c0,0.5,0.3,0.7,1,0.7
		C114.1,176.1,114.4,176.1,114.8,176z" id="PATH_189" class="area" title=""></path>
	<path d="M117.9,176c0,0.4-0.1,0.8-0.3,1.1c-0.1,0.2-0.2,0.3-0.2,0.3c0,0-0.1-0.1-0.1-0.4c0-1.2-0.2-4-0.6-8.5l0.8-0.8
		c0.1-0.1,0.1-0.1,0.1-0.1c0,0,0,0.1,0,0.2C117.8,169.2,117.9,171.9,117.9,176z" id="PATH_190" class="area" title=""></path>
	<path d="M124,175.2c0,1.4-0.9,2.1-2.8,2.1c-0.7,0-1.2-0.1-1.5-0.3c-0.4-0.2-0.6-0.7-0.6-1.3c0-0.3,0.1-0.6,0.2-0.9
		c0.1-0.1,0.1-0.2,0.2-0.2c0.1,0,0.1,0.1,0.1,0.3c0,0.1,0,0.2,0,0.3c0,0.4,0.2,0.7,0.6,0.8c0.2,0.1,0.6,0.1,1.1,0.1
		c1.5,0,2.2-0.2,2.2-0.7c0-0.7-0.9-1.7-2.6-2.9l0.3-1c0-0.1,0.1-0.1,0.1-0.1c0,0,0.1,0,0.2,0.1C123.2,172.8,124,174,124,175.2z" id="PATH_191" class="area" title=""></path>
</g>
<g id="G_192" class="area" title="">
	<path d="M26.9,148.7c0,0.2,0,0.3,0,0.3c0,0-0.1,0-0.3-0.1c-0.3-0.2-0.7-0.3-1.2-0.3c-0.7,0-1.3,0.3-1.8,0.8
		c-0.5,0.5-0.7,0.8-0.7,1.1c0,0.3,0.5,0.6,1.4,0.7c1,0.2,1.6,0.4,1.8,0.7c0,0.1,0.1,0.2,0.1,0.3c0,0.5-0.2,1.1-0.5,1.7
		c-0.2,0.4-0.7,0.7-1.5,1c-1,0.4-2,0.6-3.3,0.6c-0.9,0-1.6-0.2-2.2-0.7c-0.6-0.5-0.9-1.2-0.9-2c0-0.9,0.3-1.8,0.9-2.6
		c0.1-0.1,0.2-0.2,0.3-0.2c0.1,0,0.1,0,0.1,0.1c0,0.1,0,0.1-0.1,0.3c-0.4,0.7-0.6,1.4-0.6,2c0,0.5,0.2,0.9,0.5,1.2
		c0.5,0.5,1.2,0.7,2.1,0.7c0.8,0,1.7-0.1,2.6-0.3c1.3-0.3,2-0.7,2-1.2c0-0.2-0.6-0.4-1.9-0.7c-0.5-0.1-0.8-0.2-1-0.3
		c-0.2-0.1-0.4-0.4-0.4-0.7c0-0.7,0.3-1.4,1-2.3c0.7-0.9,1.5-1.4,2.2-1.4C26.2,147.5,26.7,147.9,26.9,148.7z" id="PATH_193" class="area" title=""></path>
	<path d="M30.9,152.3h-0.7c-0.7,0-1.3-0.3-1.5-0.9c-0.2-0.4-0.3-1.1-0.3-1.9v-1.9c0-0.9-0.1-2.2-0.2-3.9l0.6-0.7
		c0.1-0.1,0.2-0.1,0.2,0c0.1,0.9,0.2,2.2,0.2,3.9v2.9c0,0.8,0.4,1.2,1.2,1.2h0.5V152.3z" id="PATH_194" class="area" title=""></path>
	<path d="M35.8,152.3H35c-0.9,0-1.5-0.3-1.9-0.9c-0.3,0.6-1,0.9-2.1,0.9h-0.6v-1.2h0.9c1,0,1.5-0.4,1.6-1.1c0-0.3,0.1-0.5,0.2-0.5
		c0.1,0,0.2,0.2,0.2,0.5c0.1,0.7,0.6,1.1,1.5,1.1h0.9V152.3z M32.4,146.5l-0.8,0.8l-0.8-0.8l0.8-0.8L32.4,146.5z M34.1,146.5
		l-0.8,0.8l-0.8-0.8l0.8-0.8L34.1,146.5z" id="PATH_195" class="area" title=""></path>
	<path d="M41.4,152.3h-0.6c-0.8,0-1.5-0.2-2-0.7c0-0.1-0.1-0.1-0.2-0.3l-0.3,0.3c-0.6,0.5-1.3,0.7-2.1,0.7h-0.8v-1.2h1
		c0.7,0,1.2-0.1,1.5-0.4c-0.1-0.2-0.2-0.4-0.4-0.6c-0.2-0.2-0.4-0.4-0.5-0.4c-0.2-0.1-0.3-0.1-0.3-0.2c0,0,0-0.1,0.1-0.2
		c0.3-0.6,0.8-0.9,1.7-0.9c1.1,0,1.7,0.3,1.7,1c0,0.3-0.3,0.7-0.9,1.3c0.1,0.1,0.4,0.3,0.7,0.4c0.3,0.1,0.5,0.1,0.8,0.1h0.8V152.3z
		 M39.2,145.3l-0.8,0.8l-0.8-0.8l0.8-0.8L39.2,145.3z" id="PATH_196" class="area" title=""></path>
	<path d="M49.2,149.4l-0.4,0.8c-0.7,0-1.3,0-1.6,0.1c-0.4,0.2-1,0.4-1.8,0.8c-0.8,0.4-1.4,0.7-1.8,0.8c-0.6,0.2-1.3,0.3-1.9,0.3H41
		v-1.2h0.8c0.9,0,1.7-0.2,2.4-0.5l2.3-1c-0.4-0.1-1-0.3-1.8-0.6c-0.7-0.3-1.1-0.4-1.3-0.4c-0.4,0-0.8,0.2-1.2,0.5
		c-0.1,0.1-0.1,0.1-0.2,0.1c-0.1,0-0.1,0-0.1-0.1c0,0,0-0.1,0-0.1c0.3-1,0.9-1.4,1.7-1.4c0.3,0,0.7,0.1,1.1,0.3
		c0.8,0.4,1.4,0.6,1.8,0.8c0.7,0.2,1.5,0.4,2.4,0.4c0.2,0,0.3,0,0.3,0.1C49.3,149.2,49.3,149.3,49.2,149.4z M45.9,154.4l-0.8,0.8
		l-0.8-0.8l0.8-0.8L45.9,154.4z" id="PATH_197" class="area" title=""></path>
</g>
<g id="G_198" class="area" title="">
	<path d="M138.4,147h-0.5c-0.5,0-0.8,0-1-0.1c0,0.3,0.1,0.5,0.1,0.8c0,0.5-0.1,0.8-0.2,1.1c-0.3,0.7-0.8,1.3-1.8,1.7
		c-0.8,0.3-1.6,0.5-2.5,0.5c-0.9,0-1.6-0.2-2.2-0.6c-0.6-0.5-0.9-1.1-0.9-2c0-0.5,0.1-0.9,0.3-1.5c0.2-0.4,0.3-0.7,0.5-0.9
		c0.1-0.1,0.2-0.1,0.2-0.1c0.1,0,0.1,0,0.1,0.1c0,0,0,0.1,0,0.2c-0.3,0.6-0.4,1.2-0.4,1.7c0,0.5,0.2,0.9,0.5,1.3
		c0.4,0.5,1.1,0.7,2,0.7c1,0,1.9-0.2,2.6-0.5c0.6-0.3,1-0.6,1.2-1c0.1-0.1,0.1-0.3,0-0.7c0-0.3-0.1-0.6-0.1-0.7
		c-0.1-0.3-0.5-0.8-1-1.5l0.4-0.8c0.1-0.1,0.1-0.2,0.1-0.2s0.1,0,0.1,0.1c0.5,0.8,1,1.2,1.6,1.2h0.8V147z M134,142.5l-0.8,0.8
		l-0.8-0.8l0.8-0.8L134,142.5z" id="PATH_199" class="area" title=""></path>
	<path d="M140.8,145c0,1.3-0.7,2-2,2H138v-1.2h0.7c1,0,1.5-0.2,1.5-0.5c0-0.3-0.2-0.7-0.7-1.2l0.4-1c0-0.1,0.1-0.1,0.1-0.1
		c0,0,0.1,0.1,0.2,0.2C140.6,143.7,140.8,144.3,140.8,145z M140,149.2l-0.8,0.8l-0.8-0.8l0.8-0.8L140,149.2z M141.7,149.2l-0.8,0.8
		l-0.8-0.8l0.8-0.8L141.7,149.2z" id="PATH_200" class="area" title=""></path>
	<path d="M148,147h-1.1c-0.1,1.4-0.6,2.5-1.6,3.5c-0.3,0.3-0.5,0.5-0.6,0.5c-0.5,0-1.2-0.1-1.9-0.2c-0.2,0-0.4-0.1-0.4-0.1
		s0.1-0.1,0.4-0.2c0.8-0.2,1.6-0.7,2.3-1.2c0.3-0.3,0.6-0.5,0.8-0.9c0.3-0.4,0.5-0.8,0.5-1.1V147h-1.3c-1,0-1.4-0.4-1.4-1.2
		c0-0.5,0.1-1,0.4-1.6c0.3-0.6,0.7-1,1.1-1c0.5,0,0.9,0.3,1.2,1c0.2,0.5,0.4,1,0.4,1.6h1.1V147z M146.2,145.8c0-0.3-0.1-0.6-0.3-0.9
		c-0.2-0.4-0.5-0.5-0.8-0.5c-0.2,0-0.4,0.1-0.5,0.2c-0.2,0.2-0.2,0.3-0.2,0.6c0,0.5,0.4,0.7,1.2,0.7
		C145.6,145.8,145.9,145.8,146.2,145.8z" id="PATH_201" class="area" title=""></path>
	<path d="M155.8,144.1l-0.4,0.8c-0.7,0-1.3,0-1.6,0.1c-0.4,0.2-1,0.4-1.8,0.8c-0.8,0.4-1.4,0.7-1.8,0.8c-0.6,0.2-1.3,0.3-1.9,0.3
		h-0.7v-1.2h0.8c0.9,0,1.7-0.2,2.4-0.5l2.3-1c-0.4-0.1-1-0.3-1.8-0.6c-0.7-0.3-1.1-0.4-1.3-0.4c-0.4,0-0.8,0.2-1.2,0.5
		c-0.1,0.1-0.1,0.1-0.2,0.1c-0.1,0-0.1,0-0.1-0.1c0,0,0-0.1,0-0.1c0.3-1,0.9-1.4,1.7-1.4c0.3,0,0.7,0.1,1.1,0.3
		c0.8,0.4,1.4,0.6,1.8,0.8c0.7,0.2,1.5,0.4,2.4,0.4c0.2,0,0.3,0,0.3,0.1C155.9,143.9,155.9,143.9,155.8,144.1z M152.5,149l-0.8,0.8
		l-0.8-0.8l0.8-0.8L152.5,149z" id="PATH_202" class="area" title=""></path>
</g>
<g id="G_203" class="area" title="">
	<path d="M167.7,105.1c0,0.7-0.2,1.3-0.7,1.6c-0.3,0.2-0.9,0.4-1.8,0.5c-1,0.2-2,0.3-3.1,0.3c-2.6,0-4-0.7-4-2.2
		c0-0.5,0.2-1,0.6-1.5c0.1-0.1,0.1-0.2,0.2-0.2c0.1,0,0.1,0,0.1,0.1c0,0,0,0.1,0,0.2c-0.1,0.3-0.2,0.6-0.2,0.9c0,1,1.3,1.5,3.8,1.5
		c1.2,0,2.3-0.1,3.1-0.2c1-0.2,1.4-0.4,1.4-0.7c0-0.2-0.2-0.6-0.7-1.2l0.5-0.9c0.1-0.1,0.1-0.1,0.2,0
		C167.5,104,167.7,104.6,167.7,105.1z M163.7,109.6l-0.8,0.8l-0.8-0.8l0.8-0.8L163.7,109.6z" id="PATH_204" class="area" title=""></path>
	<path d="M171.6,107.3H171c-0.7,0-1.3-0.3-1.5-0.9c-0.2-0.4-0.3-1.1-0.3-1.9v-1.9c0-0.9-0.1-2.2-0.2-3.9l0.6-0.7
		c0.1-0.1,0.2-0.1,0.2,0c0.1,0.9,0.2,2.2,0.2,3.9v2.9c0,0.8,0.4,1.2,1.2,1.2h0.5V107.3z" id="PATH_205" class="area" title=""></path>
	<path d="M179.5,105.2c0,0.6-0.1,1.1-0.4,1.5c-0.3,0.4-0.8,0.7-1.3,0.7c-0.7,0-1.1-0.3-1.4-0.8c-0.4,0.6-0.8,0.8-1.4,0.8
		c-0.7,0-1.2-0.3-1.5-0.8c-0.4,0.6-0.9,0.8-1.6,0.8h-0.7v-1.2h0.8c0.7,0,1.2-0.4,1.3-1.2c0-0.2,0.1-0.3,0.2-0.3
		c0.1,0,0.1,0.1,0.2,0.3c0.1,0.8,0.5,1.2,1.3,1.2c0.4,0,0.8-0.1,1-0.3c0.1-0.2,0.2-0.4,0.3-0.8c0-0.2,0.1-0.3,0.2-0.3
		c0.1,0,0.1,0.1,0.2,0.3c0.1,0.8,0.5,1.2,1.2,1.2c0.8,0,1.1-0.2,1.1-0.5c0-0.3-0.2-0.7-0.6-1.1l0.5-0.9c0.1-0.1,0.1-0.2,0.2-0.2
		s0.1,0.1,0.2,0.2C179.4,104.2,179.5,104.8,179.5,105.2z M176.1,101.5l-0.7,0.7l-0.7-0.7l0.7-0.7L176.1,101.5z M177,100l-0.7,0.7
		l-0.7-0.7l0.7-0.7L177,100z M177.9,101.5l-0.7,0.7l-0.7-0.7l0.7-0.7L177.9,101.5z" id="PATH_206" class="area" title=""></path>
	<path d="M185.8,107.3h-1.1c-0.1,1.4-0.6,2.5-1.6,3.5c-0.3,0.3-0.5,0.5-0.6,0.5c-0.5,0-1.2-0.1-1.9-0.2c-0.2,0-0.4-0.1-0.4-0.1
		s0.1-0.1,0.4-0.2c0.8-0.2,1.6-0.7,2.3-1.2c0.3-0.3,0.6-0.5,0.8-0.9c0.3-0.4,0.5-0.8,0.5-1.1v-0.3h-1.3c-1,0-1.4-0.4-1.4-1.2
		c0-0.5,0.1-1,0.4-1.6c0.3-0.6,0.7-1,1.1-1c0.5,0,0.9,0.3,1.2,1c0.2,0.5,0.4,1,0.4,1.6h1.1V107.3z M184,106.2c0-0.3-0.1-0.6-0.3-0.9
		c-0.2-0.4-0.5-0.5-0.8-0.5c-0.2,0-0.4,0.1-0.5,0.2c-0.2,0.2-0.2,0.3-0.2,0.6c0,0.5,0.4,0.7,1.2,0.7
		C183.4,106.2,183.7,106.2,184,106.2z" id="PATH_207" class="area" title=""></path>
	<path d="M193.6,104.4l-0.4,0.8c-0.7,0-1.3,0-1.6,0.1c-0.4,0.2-1,0.4-1.8,0.8c-0.8,0.4-1.4,0.7-1.8,0.8c-0.6,0.2-1.3,0.3-1.9,0.3
		h-0.7v-1.2h0.8c0.9,0,1.7-0.2,2.4-0.5l2.3-1c-0.4-0.1-1-0.3-1.8-0.6c-0.7-0.3-1.1-0.4-1.3-0.4c-0.4,0-0.8,0.2-1.2,0.5
		c-0.1,0.1-0.1,0.1-0.2,0.1c-0.1,0-0.1,0-0.1-0.1c0,0,0-0.1,0-0.1c0.3-1,0.9-1.4,1.7-1.4c0.3,0,0.7,0.1,1.1,0.3
		c0.8,0.4,1.4,0.6,1.8,0.8c0.7,0.2,1.5,0.4,2.4,0.4c0.2,0,0.3,0,0.3,0.1C193.7,104.2,193.6,104.3,193.6,104.4z M190.7,99.9l-0.8,0.8
		l-0.8-0.8l0.8-0.8L190.7,99.9z" id="PATH_208" class="area" title=""></path>
</g>
<g id="G_209" class="area" title="">
	<path d="M219.3,170.5c0.1,0.3,0.1,0.6,0.1,0.9c0,0.4-0.1,0.7-0.2,1.1c-0.3,0.7-0.8,1.3-1.8,1.7c-0.8,0.3-1.6,0.5-2.5,0.5
		c-0.9,0-1.6-0.2-2.2-0.6c-0.6-0.5-0.9-1.1-0.9-2c0-0.5,0.1-0.9,0.3-1.5c0.2-0.4,0.3-0.7,0.5-0.9c0.1-0.1,0.2-0.1,0.2-0.1
		c0.1,0,0.1,0,0.1,0.1c0,0,0,0.1,0,0.2c-0.3,0.6-0.4,1.2-0.4,1.7c0,0.5,0.2,0.9,0.5,1.3c0.4,0.5,1.1,0.7,2,0.7c1,0,1.9-0.2,2.6-0.5
		c0.6-0.3,1-0.6,1.2-1c0.1-0.1,0.1-0.3,0.1-0.4c0-0.3-0.1-0.6-0.2-1c-0.1-0.3-0.4-0.8-0.9-1.6l0.4-0.8c0.1-0.1,0.1-0.2,0.1-0.2
		s0.1,0,0.1,0.1C218.9,168.9,219.2,169.7,219.3,170.5z M216.4,166.1l-0.8,0.8l-0.8-0.8l0.8-0.8L216.4,166.1z" id="PATH_210" class="area" title=""></path>
	<path d="M221.8,169.4c0,0.4-0.1,0.8-0.3,1.1c-0.1,0.2-0.2,0.3-0.2,0.3c0,0-0.1-0.1-0.1-0.4c0-1.2-0.2-4-0.6-8.5l0.8-0.8
		c0.1-0.1,0.1-0.1,0.1-0.1c0,0,0,0.1,0,0.2C221.7,162.6,221.8,165.3,221.8,169.4z" id="PATH_211" class="area" title=""></path>
	<path d="M226.8,170.7c0,1-0.3,1.9-0.9,2.8c-0.5,0.7-1,1.1-1.3,1.1c-0.8,0-1.4,0-2-0.1c-0.2,0-0.3-0.1-0.3-0.1s0.1-0.1,0.3-0.1
		c0.8-0.2,1.6-0.6,2.4-1.2c0.8-0.7,1.3-1.4,1.3-2.1c0-0.4-0.3-1-1-1.7l0.5-0.9c0-0.1,0.1-0.1,0.1-0.1c0,0,0.1,0.1,0.1,0.1
		c0.2,0.3,0.5,0.7,0.6,1.2C226.7,169.9,226.8,170.4,226.8,170.7z M226.1,165.3l-0.8,0.8l-0.8-0.8l0.8-0.8L226.1,165.3z" id="PATH_212" class="area" title=""></path>
	<path d="M232,170.2c0,1.5-0.5,2.8-1.5,3.8c-0.3,0.3-0.5,0.5-0.6,0.5c-0.6,0-1.2-0.1-1.9-0.2c-0.3,0-0.4-0.1-0.4-0.1
		c0,0,0.1-0.1,0.4-0.2c0.8-0.2,1.6-0.7,2.3-1.3c0.3-0.3,0.6-0.5,0.8-0.9c0.3-0.4,0.5-0.8,0.5-1.1v-0.3l-1.3,0
		c-0.9,0-1.4-0.4-1.4-1.1c0-0.5,0.1-1,0.4-1.6c0.3-0.6,0.7-1,1.1-1c0.6,0,1.1,0.4,1.4,1.3C231.9,168.8,232,169.4,232,170.2z
		 M231.3,169.4c0-0.3-0.1-0.6-0.3-0.9c-0.2-0.3-0.5-0.5-0.8-0.5c-0.2,0-0.4,0.1-0.5,0.2c-0.2,0.2-0.2,0.3-0.2,0.5
		c0,0.5,0.3,0.7,1,0.7C230.6,169.5,230.9,169.4,231.3,169.4z" id="PATH_213" class="area" title=""></path>
	<path d="M238.2,170.6h-0.4c-0.4,0-0.6-0.1-0.8-0.2c0,0.1,0,0.2,0,0.3c0,0.9-0.3,1.8-0.9,2.7c-0.5,0.8-1,1.1-1.3,1.1
		c-0.8,0-1.4,0-2-0.1c-0.2,0-0.3-0.1-0.3-0.1s0.1-0.1,0.3-0.1c0.8-0.2,1.6-0.6,2.4-1.2c0.8-0.7,1.3-1.4,1.3-2.1c0-0.4-0.3-1-1-1.7
		l0.5-0.9c0-0.1,0.1-0.1,0.1-0.1c0,0,0.1,0.1,0.1,0.1c0.3,0.4,0.5,0.7,0.7,0.8c0.3,0.2,0.7,0.4,1.1,0.4h0.3V170.6z" id="PATH_214" class="area" title=""></path>
	<path d="M243.1,170.6h-0.8c-0.9,0-1.5-0.3-1.9-0.9c-0.3,0.6-1,0.9-2.1,0.9h-0.6v-1.2h0.9c1,0,1.5-0.4,1.6-1.1
		c0-0.3,0.1-0.5,0.2-0.5c0.1,0,0.2,0.2,0.2,0.5c0.1,0.7,0.6,1.1,1.5,1.1h0.9V170.6z M239.8,172.8l-0.8,0.8l-0.8-0.8l0.8-0.8
		L239.8,172.8z M241.6,172.8l-0.8,0.8l-0.8-0.8l0.8-0.8L241.6,172.8z" id="PATH_215" class="area" title=""></path>
	<path d="M247,167.8v0.4c0,0.7-0.1,1.1-0.3,1.4c-0.5,0.7-1.3,1-2.6,1h-1.4v-1.2h1c1.7,0,2.6-0.3,2.8-0.8c0-0.1,0-0.1,0-0.2
		c0-0.2,0-0.3-0.1-0.4c-0.4,0.1-0.9,0.1-1.3,0.1c-0.9,0-1.4-0.4-1.4-1.2c0-0.5,0.1-1.1,0.4-1.6c0.3-0.6,0.7-0.9,1.2-0.9
		c0.4,0,0.8,0.3,1.1,0.8C246.8,166,247,166.8,247,167.8z M245.9,162.3l-0.8,0.8l-0.8-0.8l0.8-0.8L245.9,162.3z M246.3,166.9
		c0-0.3-0.1-0.6-0.3-0.9c-0.2-0.3-0.5-0.4-0.8-0.4c-0.2,0-0.4,0.1-0.6,0.2c-0.1,0.1-0.2,0.3-0.2,0.5c0,0.4,0.3,0.6,1,0.6
		C245.6,167.1,245.9,167,246.3,166.9z" id="PATH_216" class="area" title=""></path>
</g>
<g id="G_217" class="area" title="">
	<path d="M259.7,195.3c0,1-0.3,1.9-0.9,2.8c-0.5,0.7-1,1.1-1.3,1.1c-0.8,0-1.4,0-2-0.1c-0.2,0-0.3-0.1-0.3-0.1s0.1-0.1,0.3-0.1
		c0.8-0.2,1.6-0.6,2.4-1.2c0.8-0.7,1.3-1.4,1.3-2.1c0-0.4-0.3-1-1-1.7l0.5-0.9c0-0.1,0.1-0.1,0.1-0.1c0,0,0.1,0.1,0.1,0.1
		c0.2,0.3,0.5,0.7,0.6,1.2C259.6,194.5,259.7,194.9,259.7,195.3z" id="PATH_218" class="area" title=""></path>
	<path d="M266,195.2h-1.1c-0.1,1.4-0.6,2.5-1.6,3.5c-0.3,0.3-0.5,0.5-0.6,0.5c-0.5,0-1.2-0.1-1.9-0.2c-0.2,0-0.4-0.1-0.4-0.1
		s0.1-0.1,0.4-0.2c0.8-0.2,1.6-0.7,2.3-1.2c0.3-0.3,0.6-0.5,0.8-0.9c0.3-0.4,0.5-0.8,0.5-1.1v-0.3h-1.3c-1,0-1.4-0.4-1.4-1.2
		c0-0.5,0.1-1,0.4-1.6c0.3-0.6,0.7-1,1.1-1c0.5,0,0.9,0.3,1.2,1c0.2,0.5,0.4,1,0.4,1.6h1.1V195.2z M264.2,194c0-0.3-0.1-0.6-0.3-0.9
		c-0.2-0.4-0.5-0.5-0.8-0.5c-0.2,0-0.4,0.1-0.5,0.2c-0.2,0.2-0.2,0.3-0.2,0.6c0,0.5,0.4,0.7,1.2,0.7
		C263.6,194.1,263.9,194,264.2,194z" id="PATH_219" class="area" title=""></path>
	<path d="M268.4,193.2c0,1.3-0.7,2-2,2h-0.8V194h0.7c1,0,1.5-0.2,1.5-0.5c0-0.3-0.2-0.7-0.7-1.2l0.4-1c0-0.1,0.1-0.1,0.1-0.1
		c0,0,0.1,0.1,0.2,0.2C268.1,191.9,268.4,192.6,268.4,193.2z M268,197.4l-0.8,0.8l-0.8-0.8l0.8-0.8L268,197.4z" id="PATH_220" class="area" title=""></path>
	<path d="M272.3,195.2h-0.7c-0.7,0-1.3-0.3-1.5-0.9c-0.2-0.4-0.3-1.1-0.3-1.9v-1.9c0-0.9-0.1-2.2-0.2-3.9l0.6-0.7
		c0.1-0.1,0.2-0.1,0.2,0c0.1,0.9,0.2,2.2,0.2,3.9v2.9c0,0.8,0.4,1.2,1.2,1.2h0.5V195.2z" id="PATH_221" class="area" title=""></path>
	<path d="M281.5,195.2H281c-0.7,0-1.1-0.3-1.4-0.8c-0.2,0.6-0.7,0.8-1.3,0.8c-0.6,0-1-0.3-1.3-0.8c-0.3,0.6-0.7,0.8-1.3,0.8
		c-0.7,0-1.2-0.3-1.5-0.8c-0.4,0.6-0.9,0.8-1.6,0.8h-0.7V194h0.8c0.7,0,1.2-0.4,1.3-1.2c0-0.2,0.1-0.3,0.2-0.3
		c0.1,0,0.1,0.1,0.2,0.3c0.1,0.8,0.5,1.2,1.3,1.2c0.7,0,1.2-0.4,1.2-1.2c0-0.2,0.1-0.3,0.2-0.3c0.1,0,0.2,0.1,0.2,0.3
		c0.1,0.8,0.5,1.2,1,1.2c0.7,0,1.2-0.4,1.2-1.2c0-0.2,0.1-0.3,0.2-0.3c0.1,0,0.2,0.1,0.2,0.3c0.1,0.8,0.5,1.2,1.2,1.2h0.6V195.2z
		 M276.9,190.2l-0.7,0.7l-0.7-0.7l0.7-0.7L276.9,190.2z M277.8,188.6l-0.7,0.7l-0.7-0.7l0.7-0.7L277.8,188.6z M278.7,190.2l-0.7,0.7
		l-0.7-0.7l0.7-0.7L278.7,190.2z" id="PATH_222" class="area" title=""></path>
	<path d="M286.4,195.2h-0.8c-0.9,0-1.5-0.3-1.9-0.9c-0.3,0.6-1,0.9-2.1,0.9h-0.6V194h0.9c1,0,1.5-0.4,1.6-1.1c0-0.3,0.1-0.5,0.2-0.5
		s0.2,0.2,0.2,0.5c0.1,0.7,0.6,1.1,1.5,1.1h0.9V195.2z M283.2,197.4l-0.8,0.8l-0.8-0.8l0.8-0.8L283.2,197.4z M284.9,197.4l-0.8,0.8
		l-0.8-0.8l0.8-0.8L284.9,197.4z" id="PATH_223" class="area" title=""></path>
	<path d="M288.8,193.2c0,1.3-0.7,2-2,2h-0.8V194h0.7c1,0,1.5-0.2,1.5-0.5c0-0.3-0.2-0.7-0.7-1.2l0.4-1c0-0.1,0.1-0.1,0.1-0.1
		s0.1,0.1,0.2,0.2C288.6,191.9,288.8,192.6,288.8,193.2z M288.8,188.6l-0.8,0.8l-0.8-0.8l0.8-0.8L288.8,188.6z" id="PATH_224" class="area" title=""></path>
</g>
</svg>


