



    


<svg version="1.1" id="Layer_1" xmlns="http://www.w3.org/2000/svg" xmlns:xlink="http://www.w3.org/1999/xlink" x="0px" y="0px" viewBox="0 0 574.5 590" style="enable-background:new 0 0 574.5 590;" xml:space="preserve" width="100%" height="100%">
<style type="text/css">
	.st0{fill:#FBD1D1;stroke:#020202;stroke-width:0.2;stroke-miterlimit:10;}
	.st1{fill:#FDFAD6;stroke:#020202;stroke-width:0.2;stroke-miterlimit:10;}
	.st2{fill:#E8D0E5;stroke:#020202;stroke-width:0.2;stroke-miterlimit:10;}
	.st3{fill:#DBECCB;stroke:#020202;stroke-width:0.2;stroke-miterlimit:10;}
	.st4{fill:none;stroke:#040404;stroke-width:0.5;stroke-miterlimit:10;}
</style>

		<path class="st0 area" d="M236.3,174.3c6.3,5.8,10.5,12.6,17.9,17.3c1.1,1.1,3.7,1.6,4.2,0.5c4.7-7.9-4.2-12.1-6.8-18.9
			c-0.5-2.1-0.5-4.7,0.5-6.3c5.3-6.8,4.7-17.3,10.5-20c7.4-3.7,16.3-6.3,22.6-13.2c9.5-11,27.9-14.7,32.6-28.4
			c3.7-11,10.5-30.5,24.2-23.7c12.6,5.8,24.7,13.2,38.9,9.5c0.5-0.5,0.5-4.7-0.5-5.3c-4.7-3.7-7.4-6.3-6.8-11.6
			c0.5-1.6,4.7-1.1,6.8,0.5c1.6,0.5,2.1,2.6,3.7,3.7c3.7,2.1,5.8,6.3,9.5,7.4c5.8,1.9,10.7-0.7,14.8-4.4c-0.6-0.5-1.1-0.9-1.6-1.3
			c-6.3-4.7-13.9-19-19.8-31l-0.7-1.4c-2.4-4.8-5.6-8.2-11-11.9c-4.1-2.7-13.2-2.5-18.1-2.4c-0.9,0-1.7,0-2.4,0
			c-4.8,0-14.8,0-22.4-2.8c-6.9-2.6-16.7-5.3-21-5.3c-0.2,0-17.2-0.1-27.5-3.9c-0.3,2.7-0.5,5.5,0.4,8c2.6,5.3,10,13.7,2.6,17.9
			c-2.1,1.6-4.7,1.6-6.3,2.6c-3.7,3.2-4.7,8.9-10,10c-5.3,0.5-10.5-0.5-15.8,1.6C245.7,65,237.3,76,241.5,86
			c2.1,4.7,5.8,8.9,3.7,14.2c-2.6,5.8-7.4,12.6-14.7,8.9c0,1.6-0.5,4.2-1.6,4.2c-8.9,1.6-10.5,12.6-11,20c0,2.2-0.9,4.4-2.4,5.8
			c2.1,4.6,4.2,9.2,6.6,13.7C226.3,160.7,230,168.6,236.3,174.3z" id="_x62F__x632__x641__x648__x644_" title="دزفول"></path>
		<path class="st1 area" d="M132.2,197.5c2.6-6.8,8.9-11,15.8-13.7c4.2-2.1,8.4,2.1,11,5.3c7.9,10.5,14.2,21,23.1,30.5
			c6.3,7.4,18.4,6.3,22.6,14.7c2.1,3.7,0.5,8.9,3.2,12.6c3.2,3.7,7.9,6.8,13.1,4.7c5.8-2.1,11.6-7.9,17.3-6.3
			c2.6,1.1,5.3,4.7,7.9,2.6c5.3-3.7,10-5.8,15.3-7.9c7.4-3.2,6.8-14.2,3.2-20c-2.1-2.6-5.8-4.7-7.9-7.4c-5.3-6.8-0.5-13.2,5.3-17.9
			c1.1-1.1-0.5-3.1-1.6-4.2c-0.4-0.3-0.7-0.6-1-0.9c-0.2,0.8-0.6,1.6-1.1,2.5c-0.5,1.1-3.2,0.5-4.2-0.5
			c-7.4-4.7-11.6-11.6-17.9-17.3c-6.3-5.8-10-13.7-14.2-21.6c-2.3-4.5-4.5-9-6.6-13.7c-1.7,1.6-4.1,2.2-6.6,0.5
			c-5.3-3.1-10-7.4-13.1-12.6c-3.2-5.8-0.5-13.2-2.6-20c-3.7-11-14.3-8.7-24.1-9.4l0.3,2.9l0,18.6l-3.5,9.8c0,0.1-5.4,17.6-6.7,22.2
			c-1.4,4.8-6.8,16.5-9.7,20.9c-2,3.1-6.5,6.2-10.5,9.1c-1.8,1.3-3.6,2.5-4.8,3.6c-2.4,2-5.4,12.4-6.8,19.2c-0.2,1-1,1.6-2,1.6
			c-0.1,0-0.3,0-0.4-0.1c-0.1,0-0.3-0.1-0.4-0.2l2.1,3.7C130.2,207.1,130.5,200.8,132.2,197.5z" id="_x634__x648__x634_" title="شوش"></path>
		<path class="st2 area" d="M297.3,181.7c4.7,1.1,9.5,1.1,13.7-0.5c5.3-1.6,10,0,15.3,0c2.6,0,2.6-3.7,1.6-5.8
			c-3.2-7.4-13.7-13.1-9.5-21.6c1.6-4.2,4.9-7.8,7.6-11.6c-0.3-0.3-0.5-0.7-0.7-1c-4.5-9.1-9.1-17.8-15.9-24.7
			c-7.5,5.9-17.8,10-24.1,17.3c-6.3,6.8-15.2,9.5-22.6,13.2c-5.8,2.6-5.3,13.1-10.5,20c-1.1,1.6-1.1,4.2-0.5,6.3
			c0.1,0.3,0.2,0.6,0.4,0.9c3-0.2,6-1.3,8.6-1.9C273.6,169.1,284.7,178,297.3,181.7z" id="_x6AF__x62A__x648__x646__x62F_" title="گتوند"></path>
		<path class="st3 area" d="M276.8,256.9c3.2,7.4,13.1,10,20.5,6.8c4.7-2.1,7.9-7.9,12.6-10c4.2-2.1,10,1.1,15.2,2.1
			c12.1,2.6,20-4.7,25.2-14.2c1.6-3.2-0.5-6.8-2.1-9.5c-3.7-6.8,3.7-14.2,0.5-20c-6.3-11-17.9-17.4-18.9-31c0-0.8-0.6-1.6-1.5-2.3
			c-0.2,1.3-0.8,2.3-2.2,2.3c-5.3,0-10-1.6-15.3,0c-4.2,1.6-8.9,1.6-13.7,0.5c-12.6-3.7-23.7-12.6-36.8-9.5
			c-2.6,0.6-5.6,1.7-8.6,1.9c2.7,5.6,9.2,9.5,7.6,15.6c0.3,0.3,0.7,0.6,1,0.9c1.1,1.1,2.6,3.2,1.6,4.2c-5.8,4.7-10.5,11-5.3,17.9
			c2.1,2.6,5.8,4.7,7.9,7.4c2.8,4.4,3.8,12,0.8,16.7C271.5,241.4,273.5,249.5,276.8,256.9z" id="_x634__x648__x634__x62A__x631_" title="شوشتر"></path>
		<path class="st3 area" d="M427.7,242.7c2.1,6.3,10.5,14.2,18.9,14.2c4.2,0,7.9-3.7,12.1-4.7c3.7-0.5,6.3,4.2,11,1.6
			c4.7-2.6,7.9,5.3,8.9,10c1.1,4.2-0.5,8.4,1.1,11.6c2.6,4.7,6.8,8.4,11.6,10c4.2,1.6,7.9,4.2,10,7.4c4.2,6.8,7.9,12.6,13.7,16.8
			c0.8,0.6,1.7,0.7,2.6,0.6c2.2-5.8,3.8-14.5,4.4-18.1c0.2-1,0.3-1.8,0.4-2.3c0.9-4.5,16.3-23.6,21.2-29.6c-1.6-2.7-4.6-7.3-6.9-9
			c-3.7-2.8-10-9.1-13.8-12.8c-3.8-3.8-1.8-18.3-0.7-24.2c-3.7-3.3-18.7-16.8-23.3-19.8c-5.9-3.9-21.6-20.7-25.7-25.7
			c-4.7-5.6-10.6-20.6-9.5-26.1c0.2-0.8,0.4-1.7,0.6-2.5c0.8-2.8,1.3-4.7-0.9-7.4c-5,4.7-9.9,9.7-14.2,16c-5.8,7.4-14.7,7.4-22.1,11
			c-1.6,1.1-2.6,2.6-3.7,4.2c-6.3,11-4.2,26.8-16.8,31c-0.3,0.1-0.6,0.2-0.9,0.3c2.9,8.8,3.8,18.2,6.2,27.6
			C414,232.2,424.5,234.3,427.7,242.7z" id="_x627__x6CC__x632__x647_" title="ایزه"></path>
		<path class="st0 area" d="M399.8,265.8c1.6,6.8,9,9.5,14.7,13.7c5.8,4.7,10.5,11,10,18.9c0,1,1.6,2.1,2.1,2.6
			c6.8,4.7,15.2,7.4,17.4,14.7c2.1,7.4,0.5,15.8,8.4,21.6c4.8,3.4,10.2,4.3,15.7,4.4c-0.9-1.3-1.3-2.8-1.4-4.6
			c-0.1-3,1.2-6.6,3.8-7.5c2.1-0.7,6-0.6,11.7-0.3c1.9,0.1,3.8,0.2,5.2,0.2c13.9,0,16-1.9,16.2-2.5c2.4-4.7,5.6-8.3,10.6-11.6
			c1.2-0.8,2.3-2.9,3.3-5.4c-0.9,0.1-1.8,0-2.6-0.6c-5.8-4.2-9.5-10-13.7-16.8c-2.1-3.1-5.8-5.8-10-7.4c-4.7-1.6-8.9-5.3-11.6-10
			c-1.6-3.2,0-7.4-1.1-11.6c-1.1-4.7-4.2-12.6-8.9-10c-4.7,2.6-7.4-2.1-11-1.6c-4.2,1.1-7.9,4.7-12.1,4.7c-5.9,0-11.8-3.9-15.6-8.4
			c-7.9,6.1-21,6.9-29.1,4.7c-1-0.2-2.1-0.5-3.1-0.7C398.7,256.9,399.2,261.4,399.8,265.8z" id="_x628__x627__x63A___x645__x644__x6A9_" title="باغ ملک"></path>
		<path class="st3 area" d="M168.5,327.3c-1.1-2.6,0.5-6.3,2.1-6.8c12.6-0.5,25.2,0,36.8-7.4c7.4-4.2,10-18.9,1.6-21.6
			c-8.4-2.6-21.6-2.1-24.2-11.6c-2.6-7.4-9.5-8.9-14.7-12.1c-10-6.7-17.4-16.8-28.8-17.5l-20.3,55.9l-1.1,77.2h52.3l1.6,1.1l0.3,1.5
			C178.9,366.6,176.8,345.9,168.5,327.3z" id="_x647__x648__x6CC__x632__x647_" title="هویزه"></path>
		<path class="st1 area" d="M344.6,252.7c1.6,4.7,6.3,9.4,3.7,12.6c-5.8,6.8-7.4,15.8-3.2,22.6c6.8,11.6,13.7,28.9,28.9,25.8
			c6.8-1.6,9.5-10.5,16.3-12.6c11.6-3.2,19.5,8.4,26.3,16.3c2.6,2.6,10,3.2,12.6-0.5c2.6-3.5,3.7-7.6,3.9-11.8
			c-2.2-1.2-4.4-2.5-6.5-3.9c-0.5-0.5-2.1-1.6-2.1-2.6c0.5-7.9-4.2-14.2-10-18.9c-5.8-4.2-13.2-6.8-14.7-13.7
			c-0.6-4.4-1.1-8.9-1-13.4c-12.6-3.1-24.8-6.7-37.4-1.4c-5.6,2.2-9.4-1.9-13.5-5.5c-1,1.5-2.1,2.9-3.4,4.1
			C344.3,250.7,344.3,251.6,344.6,252.7z" id="_x647__x641__x62A__x6AF__x644_" title="هفتگل"></path>
		<path class="st0 area" d="M224.7,323.7c5.8-1.6,8.4-8.9,14.2-8.4c4.2,0.5,8.9,3.2,13.1,1.6c4.7-2.1,10.5-6.3,7.9-12.1
			c-4.7-9.5-12.1-19.5-10.5-28.9c1.1-6.8,8.4-12.6,6.3-21c-0.7-3.5-2.3-6.9-4.5-10c-1.6,0.9-3.3,1.9-5,3.1c-2.6,2.1-5.3-1.6-7.9-2.6
			c-5.8-1.6-11.6,4.2-17.3,6.3c-0.3,0.1-0.6,0.2-0.8,0.3c0.6,10.5,3.1,20.2,12.4,27c-1.7,8.6-9.7,16.8-18.6,19.3
			c0.8,5.4-2,12.3-6.7,14.9c-0.6,0.4-1.3,0.8-1.9,1.1C211.4,318.9,216.2,325.8,224.7,323.7z" id="_x62D__x645__x6CC__x62F__x6CC__x647_" title="حمیدیه"></path>
		<path class="st0 area" d="M220,469.3c4.7-4.7-1.6-12.6-5.8-18.4c-3.2-4.2-1-8.9,1.6-11.6c6.8-8.4,16.3-13.7,21-23.1
			c3.7-7.4-3.2-14.2-8.4-19.5c-2.1-2.1-3.2-6.8-5.8-8.4c-14.2-7.4-29.4-1.1-44.2-1.1c-1.4,0.1-2.8,0-4.2-0.4l0,0.2l-0.5,90.2
			l0.3,5.7l16.8,2.4l1.6,0.5l1.6,1.1l2.7,3l2.1,3.4c0.3-0.9,0.5-1.8,0.6-2.6C200.5,477.7,213.2,476.7,220,469.3z" id="_x62E__x631__x645__x634__x647__x631_" title="خرمشهر"></path>
		<path class="st1 area" d="M267.3,396.2c3.7-2.6,6.3-9.5,11.6-5.8c6.9,5.6,17.6,11.2,24.8,6.7c-8-5.7-12.4-19-15.3-28.8
			c-2.6-10.5-0.5-21.6-7.4-31c-4.2-6.3-11-12.1-18.9-8.9c-6.3,3.2-9.5,10-12.1,16.8c-0.5,1.6-3.7,3.2-5.8,1.6
			c-3.7-2.1-8.9-2.6-12.1,0.5c-0.5,1.1-1.1,3.2-2.1,4.7c-2.6,4.2-8.9,7.4-5.8,13.1c1.6,2.6,4.7,3.2,6.8,5.3c0.5,1.1,0.5,3.2,0,3.7
			c-1.6,1.1-4.2,0.5-6.3,0.5c-2.6,0.5-2.6,3.7-2.1,5.3c0.7,1.2,1.7,2.2,2.4,3.2c13.4,0.6,25.7,4.3,37.6,12.6
			C264.1,396.7,265.7,396.7,267.3,396.2z" id="_x6A9__x627__x631__x648__x646_" title="کارون"></path>
		<path class="st3 area" d="M381.9,331.5c6.8,4.2,6.8,11.6,8.4,18.9c0,2.1,2.6,4.7,4.2,4.7c15.2-1.1,22.1,12.1,31,22.1
			c4.2,4.2,10.5,6.8,14.7,11.6c0.5,0.5,2.6,0.5,3.2,0c3.2-3.7,6.3-8.4,10-9.5c4.2-2.1,4.7,6.3,5.8,10.5c1.3,3.6,5.5,5.4,9.7,5.2
			c-0.7-0.9-1.3-1.7-2.1-2.6c-1.9-2.3-2.7-4.6-2.4-6.9c0.5-4.4,4.7-8.1,9.1-11.4c4.7-3.5,5-9.9,5.2-14.5c0.1-1.7,0.1-3.1,0.4-4.2
			c0.7-2.7,0.1-8.7-5.7-10.2c-2.3-0.6-4.1-1.8-5.2-3.6c-5.5-0.1-10.9-1.1-15.7-4.4c-7.9-5.8-6.3-14.2-8.4-21.6
			c-1.5-5.1-6-7.9-10.9-10.8c-0.2,4.2-1.3,8.4-3.9,11.8c-2.6,3.7-10,3.2-12.6,0.5c-6.8-7.9-14.7-19.5-26.3-16.3
			c-6.8,2.1-9.5,11-16.3,12.6c-2.6,0.5-4.9,0.5-7.1,0c-1.2,2.2-4,2.8-5,4.2c-2.6,4.2,3.7,7.4,6.3,11.6c0.5,1.1,0,2.1,0,3.2
			c0,0.1-0.1,0.1-0.1,0.1c0.7-0.5,1.4-1.1,2.2-1.7C374,328.9,378.8,328.9,381.9,331.5z" id="_x631__x627__x645__x647__x631__x645__x632_" title="رامهرمز"></path>
		<path class="st3 area active" d="M448.7,413.6c-2.1,9.4-4.7,16.3-11,24.2c-2.1,2.1,0,5.8,2.6,6.3c8.4,1.1,14.2,7.4,21,11
			c2.1,0.5,4.7,0,6.8-0.5c0.3-0.2,0.7-0.4,1-0.7c-0.4-0.5-0.7-0.9-1-1.5c-2.6-5.2,3.7-10.5,1.6-14.2c-4.5-10.4,6.1-17.7,12.2-25.2
			c-2-1.2-3.5-2.8-4.5-4.7c-0.6-1.2-1.2-2.3-1.9-3.5c-0.5,0.3-1,0.6-1.6,0.8C464.5,407.8,450.8,403.6,448.7,413.6z" id="_x622__x63A__x627__x62C__x627__x631__x6CC_" title="آغاجاری"></path>
		<path class="st2 area" d="M288.3,511.4c-1.1,1-3.7,1-5.8,0c-7.4-5.8-10-16.3-19.5-17.4c-2.6-0.5-3.7,5.3-5.8,3.7
			c-4.7-2.6-8.9-10-13.7-6.8c-7.9,4.7-17.3,4.7-21-3.7c-2.4-5.3-2.3-11.4-4-16.5c-7,6.2-18.1,7.9-19.1,20.2
			c-0.1,0.9-0.3,1.7-0.6,2.6l0.1,0.1l1.4,4.1l1.4,8.4l0.5,1.6l1.4,1.4l1.9,0.8l1.6,0.3h1.9l6-0.8h1.9l1.9,0.5l1.6,1.4l3.2,5.4l5.1,6
			l6,6l1.1,1.4l0.8,1.9l0.3,2.2l-0.3,1.9l-1.4,1.6l-1.4,1.4l-1.4,1.6l-0.3,2.2l0.3,1.4l1.9,4.3l3.3,3.5l0.8,1.9l0.5,0.3l3,9.5
			l0.3,2.4l1.4,3.5l0.8,1.4l1.1,1.1l2.2,1.6l2.2,1.6l6.2,1.9l-0.3-0.3h0.3l0.3-0.3l0.8-1.1v1.4l11.7,1.1l3.5-1.1l1.4-1.1l1.4-1.1
			l1.4-1.6l0.3-1.9l-0.3-2.7l-2.2-3.5l-0.8-2.2l0.5-3.2l2.4,0.5l6.8,3.8h11.1l3,1.4l3-1.1l10.6,1.1l3.3-0.8l3-2.4l2.2-3.3l0.8-3.8
			v-1.9l-0.8-3.8l-0.3-1.9l0.5-2.2l1.4-3.8l0.3-2.4l-0.8-8.4l-1.1-4.1l-1.4-3.5l-2.4-2.7l-3.3-2.7l-2.7-2.7l-1.4-4.1l0.5-1.1
			l1.1-1.4l0.8-1.4l-1.9-1.6l0.5-1.4C302.3,501.5,294.9,505.6,288.3,511.4z" id="_x622__x628__x627__x62F__x627__x646_" title="آبادان"></path>
		<path class="st3 area" d="M335.3,485.5l-4.1-2.4l-4.9-1.1l-4.3-1.9l1-3.6c-1-0.9-1.7-2-2.1-3.4c-2.6-10-9.5-14.7-16.3-21.6
			c-0.5-1.1-0.5-3.2,0-4.2c1.6-2.6,5.8-4.7,5.8-6.3c0-12.1,4.2-22.6,10-33.1c1.3-2.4,0.8-5.5-0.8-8.1c-2.8,0.2-5.5,0.3-8.1,0.2
			c-2.9-0.1-5.5-1.1-7.8-2.8c-7.1,4.5-17.9-1.1-24.8-6.7c-5.3-3.7-7.9,3.2-11.6,5.8c-1.6,0.5-3.2,0.5-4.7-0.5
			c-11.9-8.3-24.2-11.9-37.6-12.6c0.8,1.2,1.4,2.5,0.8,4.2c-0.4,1-1,1.8-1.7,2.4c1.7,2.1,2.7,5.4,4.3,7.1
			c5.3,5.3,12.1,12.1,8.4,19.5c-4.7,9.5-14.2,14.7-21,23.1c-2.6,2.6-4.7,7.4-1.6,11.6c4.2,5.8,10.5,13.7,5.8,18.4
			c-0.4,0.5-0.9,0.9-1.4,1.3c1.7,5.1,1.6,11.3,4,16.5c3.7,8.4,13.1,8.4,21,3.7c4.7-3.2,8.9,4.2,13.7,6.8c2.1,1.6,3.2-4.2,5.8-3.7
			c9.5,1.1,12.1,11.6,19.5,17.4c2.1,1,4.7,1,5.8,0c6.6-5.8,14-9.9,20.8-7.5l0.4-1.1l1.4-2.2l0.5-0.8l8.7-8.4l1.9-0.5l8.7,1.4h2.7
			l3-3.2L335.3,485.5z" id="_x634__x627__x62F__x6AF__x627__x646_" title="شادگان"></path>
		<path class="st0 area" d="M347.2,400.4c0,1.6,2.6,2.6,3.2,2.6c6.8-1.1,16.8,1.1,13.7,9c-3.2,7.9-10.5,16.3-5.8,24.7
			c3.2,5.8,9.5,10.5,17.3,7.9c5.3-1.6,7.9-6.3,12.1-8.9c3.2-2.1,7.4-1.1,8.4-3.7c3.7-10.5,6.8-20.5,17.3-26.3
			c2.6-1.6,1.6-4.7,0.5-5.8c-9.5-13.7-23.1-25.2-21.6-41.5c0.2-1.2,0.3-2.5,0.6-3.7c-1.3-0.9-2.7-2.6-2.7-4.1
			c-1.6-7.4-1.6-14.7-8.4-18.9c-3.2-2.6-7.9-2.6-11.6-0.5c-0.8,0.6-1.5,1.2-2.2,1.7c-2.2,4.1-9.4,6.2-7.8,10.9
			c0.5,1.1,1.6,2.1,1.1,3.7c-1.6,2.6-5.8,3.7-4.2,6.8c2.6,5.3,10.5,8.4,8.9,14.7c-1.6,6.3-10.5,5.8-13.1,11
			c-2.5,4.9-5.9,8.7-9.9,11.6C346,393.3,347.9,396.4,347.2,400.4z" id="_x631__x627__x645__x634__x6CC__x631_" title="رامشیر"></path>
		<path class="st1 area" d="M373.5,458.3c-1.2-3.6,0.6-8.5-0.1-13.1c-6.9,1.2-12.3-3.2-15.2-8.4c-4.7-8.4,2.6-16.8,5.8-24.7
			c3.2-7.9-6.8-10-13.7-9c-0.5,0-3.2-1.1-3.2-2.6c0.7-4-1.2-7.1-4.1-8.9c-6.9,5.1-15.4,7.5-23.5,8.2c1.6,2.6,2.2,5.7,0.8,8.1
			c-5.8,10.5-10,21-10,33.1c0,1.6-4.2,3.7-5.8,6.3c-0.5,1.1-0.5,3.2,0,4.2c6.8,6.8,13.7,11.6,16.3,21.6c0.4,1.4,1.1,2.5,2.1,3.4
			l0.1-0.2l4.6-3l5.7,0.8l2.7-1.4h2.7l2.7,0.8l3.3,0.5h0.8l1.4-1.1h1.1l1.1,0.5l1.6,2.4l1.1,0.8l2.2-0.5l1.6-1.4l1.4-0.3l1.4,2.2
			l-0.5,0.8l-0.3,0.5l-0.3,2.4l2.4-1.9l2.4-2.7l1.9-0.8l1.4,6.8l1.4,2.7l2.4,1.6l3.2-0.5l-0.3,3.3l-0.8,1.9l-4.6,6l-3,5.7l-1.1,2.4
			l-1.9-3l-2.2-1.9l-2.7-1.1l-3.5-0.5l-2.2-0.8l-6.5-3.5l-3.3-0.8l-3,0.5l-5.1,1.9h-3.5l-6.5-1.1l-2.4,0.8l-1.9,3l5.1,1.4l4.1,2.2
			l3,3.8l1.1,6.2l2.2,1.9l10.3,6.3l3.8,1.4l2.7,0.3l1.6,1.9l1.4,2.4l3,1.9l2.7-0.5l2.2-2.2l1.9-3l0.8-3.3l1.9,1.4v1.1l-0.5,1.1
			l-0.3,1.6v2.7v1.1l0.5,1.1l2.4,1.6l0.3,0.5l-0.3,7.6l1.6,1.6l4.1,0.3l3.3-0.5l6-2.7l3.3-0.5l1.4,0.5l2.3,1.5
			c0.6-8.5-2-17.9-1.3-26.1c0.5-5.8,7.4-7.9,8.9-13.2c1.6-5.8-3.2-8.9-6.3-13.1c-1.6-1.6-2.6-5.3,0.5-7.4c5.3-3.1,3.7-8.4,6.8-13.1
			c0.2-0.2,0.4-0.4,0.5-0.6C389.5,465,377.5,468.2,373.5,458.3z" id="_x645__x627__x647__x634__x647__x631_" title="ماهشهر"></path>
		<path class="st2 area" d="M482.9,465.1c-3.8-5.3-10.3-6.6-13.8-11.2c-0.3,0.2-0.6,0.4-1,0.7c-2.1,0.5-4.7,1.1-6.8,0.5
			c-6.8-3.7-12.6-10-21-11c-2.6-0.5-4.7-4.2-2.6-6.3c6.3-7.9,8.9-14.7,11-24.2c2.1-10,15.8-5.8,25.2-7.9c0.6-0.2,1.1-0.5,1.6-0.8
			c-1.9-3.3-4.1-6.5-6.6-9.8c-4.1,0.2-8.4-1.5-9.7-5.2c-1.1-4.2-1.6-12.6-5.8-10.5c-3.7,1.1-6.8,5.8-10,9.5c-0.5,0.5-2.6,0.5-3.2,0
			c-4.2-4.7-10.5-7.4-14.7-11.6c-8.9-10-15.8-23.1-31-22.1c-0.5,0-1-0.2-1.5-0.6c-0.2,1.3-0.4,2.5-0.6,3.7
			c-1.6,16.3,12.1,27.9,21.6,41.5c1.1,1.1,2.1,4.2-0.5,5.8c-10.5,5.8-13.7,15.8-17.3,26.3c-1.1,2.6-5.3,1.6-8.4,3.7
			c-4.2,2.6-6.8,7.4-12.1,8.9c-0.7,0.3-1.4,0.4-2.1,0.5c0.7,4.7-1.2,9.5,0,13.1c4,9.9,15.9,6.7,25.2,7.2c9.7-11.9,28.6-9.7,40-1.4
			c7.2,5.4,11,13.2,17.6,18.9c3.1-3.7,9.5-5,14-3.7C475.5,480.3,487.6,471.4,482.9,465.1z" id="_x627__x645__x6CC__x62F__x6CC__x647_" title="امیدیه"></path>
		<path class="st0 area" d="M498.1,510.8c-13.7-5.3-27.9-8.4-40.5-16.8c-2.6-1.6-3.7-5.8-2.6-8.9c0.3-0.8,0.7-1.5,1.3-2.1
			c-6.6-5.7-10.3-13.5-17.6-18.9c-11.6-8.4-31-10.5-40.5,2.1c-3.2,4.7-1.6,10-6.8,13.2c-3.2,2.1-2.1,5.8-0.5,7.4
			c3.2,4.2,7.9,7.4,6.3,13.1c-1.6,5.3-8.4,7.4-8.9,13.2c-0.7,8.2,2,17.6,1.3,26.1l0.1,0.1l1.6,0.5l1.9-0.3l3.5-0.8l1.6-0.3l3.5,0.3
			l1.4,0.3l1.6,0.8l1.6,1.1l0.8,0.8l0.3,0.8l1.1,1.6l1.4,3.3v8.7l0.5,3l4.3,6.8l5.1,1.1l5.7-2.4l49.8-32.8l5.7-1.9l6-1.1l5.7,0.8
			l4.1,1.6l1.4,0.5l2.4,1.6l0.8,1.9l0.2,0.7c0.2-0.1,0.4-0.2,0.6-0.2c0.2,0,5.7-0.8,6.4-6.4c0-0.1,0.6-4.3,1.9-8.6
			C507,516.5,503,512.9,498.1,510.8z" id="_x647__x646__x62F__x6CC__x62C__x627__x646_" title="هندیجان"></path>
		<path class="st1 area" d="M560.3,536.7c0-1.2-0.9-28.1-0.9-30.8c0-2.6,0-10.7-7.2-15.5c-8.7-5.8-12.6-13.7-12.6-18.9
			c0-6,5.1-8.3,12.9-11.8c1.9-0.8,2.7-2.1,2.4-4c-0.4-3.5-3.8-7.1-5.6-7.5c-4.5-0.9-7.9-5.2-10.6-13.1c-1-3-1.7-3.2-7.6-4.1
			c-1.5-0.2-3.2-0.5-5.3-0.9c-3.6-0.6-6.5-2.6-8.2-5.6c-2.8-4.8-2.2-11.2-1.5-13.3c0.7-2.2-0.2-8.5-2.2-10.6c-0.8-0.8-2-1.1-3.3-0.9
			c-1.5,0.2-4.3,1.4-7,6.7l-1.1,2.2c-3,6-3.5,7.2-7.7,7l-1.1,0c-4.8,0-8.8-0.9-11.8-2.7c-6.1,7.5-16.7,14.8-12.2,25.2
			c2.1,3.7-4.2,9-1.6,14.2c3.2,5.8,10.5,6.8,14.7,12.6c4.7,6.3-7.4,15.2-12.6,14.2c-5.3-1.6-13.2,0.5-15.2,5.8
			c-1.1,3.2,0,7.4,2.6,8.9c12.6,8.4,26.8,11.6,40.5,16.8c4.9,2,8.9,5.7,12.6,9.7c1.2-4,3.1-8.1,5.7-9c1.4-0.5,2.9-0.1,4,1.1
			c1.9,1.9,4.5,3.9,7.5,6.2c2.3,1.8,5,3.9,7.8,6.3c6,5.1,12.1,7.8,12.1,7.8l12.6,4.7C560.3,537.2,560.3,536.8,560.3,536.7z" id="_x628__x647__x628__x647__x627__x646_" title="بهبهان"></path>
		<path class="st2 area" d="M225.8,387.3c1-3.2-1.6-4.7-3.2-7.4c-0.5-1.6-0.5-4.7,2.1-5.3c2.1,0,4.7,0.5,6.3-0.5c0.5-0.5,0.5-2.6,0-3.7
			c-2.1-2.1-5.3-2.6-6.8-5.3c-3.2-5.8,3.2-8.9,5.8-13.1c1-1.6,1.6-3.7,2.1-4.7c3.2-3.2,8.4-2.6,12.1-0.5c2.1,1.6,5.3,0,5.8-1.6
			c2.6-6.8,5.8-13.7,12.1-16.8c7.9-3.2,14.7,2.6,18.9,9c6.8,9.5,4.7,20.5,7.4,31c3.7,12.6,10,31,23.1,31.6
			c14.7,0.5,33.1-3.7,41.5-20c2.6-5.3,11.6-4.7,13.1-11c1.6-6.3-6.3-9.5-8.9-14.7c-1.6-3.2,2.6-4.2,4.2-6.8c0.5-1.6-0.5-2.6-1.1-3.7
			c-1.6-4.7,5.8-6.8,7.9-11c0-1.1,0.5-2.1,0-3.2c-2.6-4.2-8.9-7.4-6.3-11.6c1-1.5,3.8-2,5-4.2c-3.6-0.9-6.5-3-9.2-5.8
			c-7.6,5-17.4,6.9-25.8,3.7c-10-3.7-20,2.6-30,2.6c-7.9-0.5-21.6-2.1-20.5-13.2c0-4.7,4.7-8.9,5.3-13.1c0-4.7-6.8-5.3-10.5-7.9
			c-4.7-3.7-6.8-10.5-2.1-14.7c2.1-1.6,4.2-3.1,6.3-3.7c-1.6-1.3-2.8-2.8-3.7-4.7c-3.3-7.4-5.3-15.5-11.3-20.1
			c-0.9,1.4-2.2,2.6-3.9,3.3c-3.6,1.4-6.9,2.8-10.3,4.8c2.2,3,3.8,6.5,4.5,10c2.1,8.4-5.3,14.2-6.3,21c-1.6,9.5,5.8,19.5,10.5,28.9
			c2.6,5.8-3.2,10-7.9,12.1c-4.2,1.6-8.9-1-13.1-1.6c-5.8-0.5-8.4,6.8-14.2,8.4c-8.5,2.1-13.3-4.8-19.3-9.4c-11,6.2-23,5.7-34.9,6.2
			c-1.6,0.5-3.2,4.2-2.1,6.8c8.4,18.5,10.5,39.3,5.6,58.9l0.1,0.7c1.4,0.4,2.8,0.5,4.2,0.4c14.7,0,30-6.3,44.2,1.1
			c0.5,0.3,1,0.8,1.4,1.3C224.7,389,225.3,388.3,225.8,387.3z" id="_x627__x647__x648__x627__x632_" title="اهواز"></path>
		<path class="st0 area" d="M276.2,280c3.7,2.6,10.5,3.2,10.5,7.9c-0.5,4.2-5.3,8.4-5.3,13.1c-1,11,12.6,12.6,20.5,13.1
			c10,0,20-6.3,30-2.6c8.4,3.2,18.2,1.3,25.8-3.7c-5.1-5.5-8.9-13.6-12.7-19.9c-4.2-6.8-2.6-15.8,3.2-22.6c2.6-3.2-2.1-7.9-3.7-12.6
			c-0.3-1.1-0.3-2-0.1-2.9c-4.8,5-11.1,7.8-19.4,6.1c-5.3-1.1-11-4.2-15.2-2.1c-4.7,2.1-7.9,7.9-12.6,10c-5.5,2.3-12.4,1.5-16.9-2.1
			c-2.1,0.5-4.2,2.1-6.3,3.7C269.4,269.5,271.5,276.3,276.2,280z" id="_x628__x627__x648__x6CC_" title="باوی"></path>
		<path class="st2 area" d="M232.6,279c-9.3-6.9-11.8-16.5-12.4-27c-4.9,1.5-9.3-1.5-12.3-5c-2.6-3.7-1.1-8.9-3.2-12.6
			c-4.2-8.4-16.3-7.4-22.6-14.7c-8.9-9.5-15.2-20-23.1-30.5c-2.6-3.2-6.8-7.4-11-5.3c-6.8,2.6-13.1,6.8-15.8,13.7
			c-1.7,3.3-2,9.6-5.5,11.6l0.5,0.8l1.1,1.6l3,1.9l1.1,1.1l0.8,1.6l0.8,3.2l0.5,1.6l2.7,2.7l6.2,4.9l2.2,3.2l0.5,4.1L145,240
			l-3.8,10.5c11.4,0.7,18.8,10.8,28.8,17.5c5.3,3.2,12.1,4.7,14.7,12.1c2.6,9.5,15.8,8.9,24.2,11.6c3.1,1,4.7,3.5,5.1,6.6
			C222.9,295.7,230.9,287.5,232.6,279z" id="_x62F__x634__x62A___x622__x632__x627__x62F__x6AF__x627__x646_" title="دشت آزادگان"></path>
		<path class="st0 area" d="M361.4,251.1c13.7-5.8,26.8-1.1,40.5,2.1c8.1,2.1,21.2,1.4,29.1-4.7c-1.6-1.9-2.7-3.9-3.4-5.8
			c-3.2-8.4-13.7-10.5-15.8-20c-2.4-9.4-3.2-18.8-6.2-27.6c-8.2,2.1-17.2-1.5-24.3-5.5c-7.4-4.2-8.4-13.7-11.6-21.6
			c-1.1-1.6-2.6-2.6-4.2-3.2c-2.6-1.6-5.3-2.6-8.4-4.2c-9.5-3.7-16.3-11.6-26.8-14.7c-1.7-0.8-3.4-2.4-4.5-3.7
			c-2.7,3.8-6,7.5-7.6,11.6c-4.2,8.4,6.3,14.2,9.5,21.6c0.5,1,0.8,2.4,0.6,3.5c0.9,0.6,1.5,1.4,1.5,2.3c1,13.7,12.6,20,18.9,31
			c3.2,5.8-4.2,13.1-0.5,20c1.6,2.6,3.7,6.3,2.1,9.5c-0.8,1.4-1.6,2.7-2.5,4C352,249.2,355.8,253.3,361.4,251.1z" id="_x645__x633__x62C__x62F___x633__x644__x6CC__x645__x627__x646_" title="مسجد سلیمان"></path>
		<path class="st1 area" d="M375.1,141.2c1.1-0.5,3.7-2.1,3.2-3.7c-4.7-13.7,3.7-21.6,10.5-32.1c2.9-4.9-2.2-10.4-7.8-14.4
			c0,0.1-0.1,0.1-0.1,0.2c-14.2,3.7-26.3-3.7-38.9-9.5c-13.7-6.8-20.5,12.6-24.2,23.7c-1.6,4.6-4.7,8-8.5,11
			c6.8,6.9,11.4,15.6,15.9,24.7c1.1,1.6,3.2,3.7,5.3,4.7c8.5,2.6,14.7,8.3,21.7,12.3c0.2-1.6,0.6-3,1.4-4.4
			C358.3,146.5,367.7,146.5,375.1,141.2z" id="_x644__x627__x644__x6CC_" title="لالی"></path>
		<path class="st2 area" d="M461.6,130.8c-3.2-2.8-8.9-8.4-14.3-13.9c-5.2-5.2-10.5-10.5-12.7-12.3c-1.8-1.5-5.4-4.7-9.6-8.5
			c-5.5-5-12.3-11.1-16.8-14.6c-4.1,3.8-9,6.4-14.8,4.5c-3.7-1.1-5.8-5.3-9.5-7.4c-1.6-1.1-2.1-3.2-3.7-3.7
			c-2.1-1.6-6.3-2.1-6.8-0.5c-0.5,5.3,2.1,7.9,6.8,11.6c1,0.5,1,4.1,0.6,5.1c5.6,4,10.6,9.5,7.8,14.4c-6.8,10.5-15.2,18.4-10.5,32.1
			c0.5,1.6-2.1,3.2-3.2,3.7c-7.4,5.3-16.8,5.3-21.6,12.6c-0.8,1.3-1.2,2.8-1.4,4.4c1.6,0.9,3.3,1.8,5.1,2.5c3.2,1.6,5.8,2.6,8.4,4.2
			c1.6,0.5,3.2,1.6,4.2,3.2c3.2,7.9,4.2,17.4,11.6,21.6c7.4,4.2,16.8,7.9,25.2,5.3c12.6-4.2,10.5-20,16.8-31
			c1.1-1.6,2.1-3.2,3.7-4.2c7.4-3.7,16.3-3.7,22.1-11c4.2-6.3,9.1-11.3,14.2-16C462.9,132,462.4,131.4,461.6,130.8z" id="_x627__x646__x62F__x6CC__x6A9__x627_" title="اندیکا"></path>
		<path class="st3 area" d="M193.2,107c2.1,6.8-0.5,14.2,2.6,20c3.2,5.3,7.9,9.5,13.1,12.6c4.7,3.2,8.9-1.6,8.9-6.3
			c0.5-7.4,2.1-18.4,11-20c1.1,0,1.6-2.6,1.6-4.2c7.4,3.7,12.1-3.2,14.7-8.9c2.1-5.3-1.6-9.5-3.7-14.2c-4.2-10,4.2-21,13.1-24.2
			c5.3-2.1,10.5-1.1,15.8-1.6c5.3-1.1,6.3-6.8,10-10c1.6-1.1,4.2-1.1,6.3-2.6c7.3-4.2,0-12.6-2.6-17.9c-1-2.6-0.8-5.3-0.4-8
			c-2.2-0.8-4.1-1.8-5.4-2.9c-5.1-4.4-10.5-5.9-17.4-5c-6.5,0.9-30,1-39.3,0c-8.4-0.8-23.2,0.9-28,7.3c-4.4,5.8-11.4,12.3-14.3,14.9
			l3.1,4.6l2.8,5.6c0.5,1.1,1.6,3.6,1.6,5c0.1,0.4,0.8,1.7,1.2,2.4c0.3,0.5,0.6,1,0.8,1.5c0.6,1.3,1.9,5.3-0.4,7.1
			c-0.4,0.4-2,3.3-3.3,5.6l-0.3,0.6l-0.6,0.3c-1.7,0.8-10.2,4.6-11.8,5.1c-0.3,0.1-0.8,1-0.7,1.4c1.7,2,1.5,5.8-0.5,8.2
			c-1.4,1.7-4.2,2-6.1,1.9l-1.2,2l2,2.5l2.7,4l0.4,3.9C178.8,98.3,189.5,96,193.2,107z" id="_x627__x646__x62F__x6CC__x645__x634__x6A9_" title="اندیمشک"></path>

	<line class="st4 area" x1="115.2" y1="225.5" x2="179.6" y2="244.3" id="LINE_30" title=""></line>
	<line class="st4 area" x1="115.2" y1="265" x2="238" y2="297.6" id="LINE_31" title=""></line>
	<line class="st4 area" x1="458.2" y1="429.1" x2="491.6" y2="388" id="LINE_32" title=""></line>
	<line class="st4 area" x1="152.8" y1="437.7" x2="199.2" y2="439.5" id="LINE_33" title=""></line>

<g id="G_34" class="area" title="">
	<path d="M215.2,53h-0.7c-0.5,0-1-0.3-1.6-0.8c-0.3-0.3-0.7-0.8-1.2-1.5c0,0.7-0.1,1.2-0.4,1.5c-0.5,0.6-1.5,0.9-3,0.9h-2
		c-2.4,0-3.7-0.7-3.7-2.1c0-0.5,0.2-1,0.5-1.5c0.1-0.1,0.2-0.2,0.2-0.2c0.1,0,0.1,0,0.1,0.1c0,0.1,0,0.1,0,0.2
		c-0.1,0.4-0.2,0.6-0.2,0.9c0,0.4,0.2,0.7,0.5,0.9c0.5,0.4,1.3,0.6,2.4,0.6h2c1.1,0,1.9-0.1,2.3-0.2c0.5-0.2,0.7-0.5,0.7-0.9
		c0-0.4-0.2-0.9-0.7-1.5c-0.3-0.3-0.7-0.8-1.3-1.3c-0.5-0.4-0.7-0.7-0.7-0.7c0-0.7,0.1-1.1,0.3-1.4c0-0.1,0.7-0.3,2.1-0.8
		c1.4-0.5,2.6-0.9,3.5-1.2c0,0.1-0.1,0.5-0.3,1.1c-1.1,0.3-2.7,0.9-4.9,1.7c1,0.9,2.1,2.2,3.4,3.9c0.5,0.6,0.9,1,1.2,1.2
		c0.2,0.1,0.6,0.2,1,0.2h0.4V53z" id="PATH_35" class="area" title=""></path>
	<path d="M224.5,53h-0.6c-0.7,0-1.1-0.3-1.4-0.8c-0.2,0.6-0.7,0.8-1.3,0.8c-0.6,0-1-0.3-1.3-0.8c-0.3,0.6-0.7,0.8-1.3,0.8
		c-0.7,0-1.2-0.3-1.5-0.8c-0.4,0.6-0.9,0.8-1.6,0.8h-0.7v-1.2h0.8c0.7,0,1.2-0.4,1.3-1.2c0-0.2,0.1-0.3,0.2-0.3
		c0.1,0,0.1,0.1,0.2,0.3c0.1,0.8,0.5,1.2,1.3,1.2c0.7,0,1.2-0.4,1.2-1.2c0-0.2,0.1-0.3,0.2-0.3c0.1,0,0.2,0.1,0.2,0.3
		c0.1,0.8,0.5,1.2,1,1.2c0.7,0,1.2-0.4,1.2-1.2c0-0.2,0.1-0.3,0.2-0.3c0.1,0,0.2,0.1,0.2,0.3c0.1,0.8,0.5,1.2,1.2,1.2h0.6V53z
		 M219.8,48l-0.7,0.7l-0.7-0.7l0.7-0.7L219.8,48z M220.7,46.4l-0.7,0.7l-0.7-0.7l0.7-0.7L220.7,46.4z M221.6,48l-0.7,0.7l-0.7-0.7
		l0.7-0.7L221.6,48z" id="PATH_36" class="area" title=""></path>
	<path d="M231.6,53H231c-0.5,0-1-0.3-1.4-0.8c-0.3,0.8-0.6,1.2-0.9,1.2c-0.3,0-0.8-0.2-1.4-0.5c-0.5-0.3-0.9-0.6-1.1-0.8
		c-0.5,0.6-1,0.9-1.5,0.9H224v-1.2h0.6c0.5,0,0.9-0.2,1.3-0.6c0.3-0.3,0.6-0.7,1-1.1c0.4-0.4,0.7-0.6,1-0.6c0.4,0,0.7,0.2,1,0.6
		c0.2,0.2,0.4,0.6,0.9,1.1c0.3,0.4,0.7,0.6,1.1,0.6h0.6V53z M228.9,52.2c0-0.3-0.1-0.6-0.3-1c-0.2-0.4-0.5-0.6-0.9-0.6
		c-0.3,0-0.7,0.3-1.1,0.8c0.1,0.1,0.4,0.3,0.9,0.6c0.5,0.3,0.9,0.4,1.2,0.4C228.9,52.3,228.9,52.3,228.9,52.2z" id="PATH_37" class="area" title=""></path>
	<path d="M234,51c0,1.3-0.7,2-2,2h-0.8v-1.2h0.7c1,0,1.5-0.2,1.5-0.5c0-0.3-0.2-0.7-0.7-1.2l0.4-1c0-0.1,0.1-0.1,0.1-0.1
		c0,0,0.1,0.1,0.2,0.2C233.8,49.7,234,50.4,234,51z M233.2,55.2l-0.8,0.8l-0.8-0.8l0.8-0.8L233.2,55.2z M234.9,55.2l-0.8,0.8
		l-0.8-0.8l0.8-0.8L234.9,55.2z" id="PATH_38" class="area" title=""></path>
	<path d="M242.8,53h-0.4c-0.4,0-0.7-0.1-1-0.4c-0.2-0.2-0.4-0.4-0.6-0.8c-0.2,0.4-0.5,0.7-0.8,0.9c-0.4,0.2-0.9,0.3-1.7,0.3
		c-1.4,0-2.1-0.5-2.1-1.5c0-0.3,0.1-0.7,0.3-1c0.1-0.1,0.1-0.2,0.2-0.2c0.1,0,0.1,0.1,0.1,0.2c0,0.1,0,0.1,0,0.3c0,0.1,0,0.2,0,0.3
		c0,0.6,0.5,0.9,1.5,0.9c1.4,0,2.1-0.3,2.1-0.8c0-0.3-0.4-1.4-1.2-3.3l0.4-0.8c0.1-0.1,0.1-0.2,0.1-0.2c0,0,0.1,0.1,0.1,0.2
		c0.3,0.8,0.8,2,1.4,3.6c0.3,0.8,0.7,1.2,1.3,1.2h0.3V53z" id="PATH_39" class="area" title=""></path>
	<path d="M245.1,51c0,1.3-0.7,2-2,2h-0.8v-1.2h0.7c1,0,1.5-0.2,1.5-0.5c0-0.3-0.2-0.7-0.7-1.2l0.4-1c0-0.1,0.1-0.1,0.1-0.1
		c0,0,0.1,0.1,0.2,0.2C244.9,49.7,245.1,50.4,245.1,51z M245.1,46.5l-0.8,0.8l-0.8-0.8l0.8-0.8L245.1,46.5z" id="PATH_40" class="area" title=""></path>
	<path d="M247.5,51.8c0,0.4-0.1,0.8-0.3,1.1c-0.1,0.2-0.2,0.3-0.2,0.3c0,0-0.1-0.1-0.1-0.4c0-1.2-0.2-4-0.6-8.5l0.8-0.8
		c0.1-0.1,0.1-0.1,0.1-0.1c0,0,0,0.1,0,0.2C247.5,44.9,247.5,47.6,247.5,51.8z" id="PATH_41" class="area" title=""></path>
</g>
<g id="G_42" class="area" title="">
	<path d="M275.1,81.1c0,0.1,0.1,0.2,0,0.2c0,0-0.1,0-0.2,0h-0.3c0.2,3.8,0.3,6.5,0.2,8c-0.1,2.4-1.5,3.5-4.1,3.5
		c-0.9,0-1.5-0.2-2-0.5c-0.6-0.4-0.9-1-0.9-1.9c0-0.8,0.2-1.6,0.7-2.2c0.1-0.1,0.1-0.1,0.2-0.1c0.1,0,0.1,0,0.1,0.1c0,0,0,0.1,0,0.1
		c-0.2,0.5-0.3,1-0.3,1.4c0,0.6,0.2,1.1,0.7,1.5c0.4,0.3,0.9,0.5,1.6,0.5c1,0,1.8-0.2,2.5-0.5c0.6-0.3,0.9-0.6,0.9-1
		c0-4.3-0.1-7.6-0.4-9.8l0.7-0.6c0.1-0.1,0.1-0.1,0.2-0.1c0,0,0.1,0.1,0.1,0.2C274.7,80.2,274.9,80.6,275.1,81.1z" id="PATH_43" class="area" title=""></path>
	<path d="M281.4,89h-1.1c-0.1,1.4-0.6,2.5-1.6,3.5c-0.3,0.3-0.5,0.5-0.6,0.5c-0.5,0-1.2-0.1-1.9-0.2c-0.2,0-0.4-0.1-0.4-0.1
		s0.1-0.1,0.4-0.2c0.8-0.2,1.6-0.7,2.3-1.2c0.3-0.3,0.6-0.5,0.8-0.9c0.3-0.4,0.5-0.8,0.5-1.1V89h-1.3c-1,0-1.4-0.4-1.4-1.2
		c0-0.5,0.1-1,0.4-1.6c0.3-0.6,0.7-1,1.1-1c0.5,0,0.9,0.3,1.2,1c0.2,0.5,0.4,1,0.4,1.6h1.1V89z M279.6,87.8c0-0.3-0.1-0.6-0.3-0.9
		c-0.2-0.4-0.5-0.5-0.8-0.5c-0.2,0-0.4,0.1-0.5,0.2c-0.2,0.2-0.2,0.3-0.2,0.6c0,0.5,0.4,0.7,1.2,0.7C279,87.9,279.3,87.8,279.6,87.8
		z" id="PATH_44" class="area" title=""></path>
	<path d="M285.3,86.2v0.4c0,0.7-0.1,1.1-0.3,1.4c-0.5,0.7-1.3,1-2.6,1H281v-1.2h1c1.7,0,2.6-0.3,2.8-0.8c0-0.1,0-0.1,0-0.2
		c0-0.2,0-0.3-0.1-0.4c-0.4,0.1-0.9,0.1-1.3,0.1c-0.9,0-1.4-0.4-1.4-1.2c0-0.5,0.1-1.1,0.4-1.6c0.3-0.6,0.7-0.9,1.2-0.9
		c0.4,0,0.8,0.3,1.1,0.8C285.1,84.3,285.3,85.2,285.3,86.2z M284.1,80.7l-0.8,0.8l-0.8-0.8l0.8-0.8L284.1,80.7z M284.5,85.3
		c0-0.3-0.1-0.6-0.3-0.9c-0.2-0.3-0.5-0.4-0.8-0.4c-0.2,0-0.4,0.1-0.6,0.2c-0.1,0.1-0.2,0.3-0.2,0.5c0,0.4,0.3,0.6,1,0.6
		C283.8,85.4,284.1,85.4,284.5,85.3z" id="PATH_45" class="area" title=""></path>
	<path d="M290.3,89.1c0,1-0.3,1.9-0.9,2.8c-0.5,0.7-1,1.1-1.3,1.1c-0.8,0-1.4,0-2-0.1c-0.2,0-0.3-0.1-0.3-0.1s0.1-0.1,0.3-0.1
		c0.8-0.2,1.6-0.6,2.4-1.2c0.8-0.7,1.3-1.4,1.3-2.1c0-0.4-0.3-1-1-1.7l0.5-0.9c0-0.1,0.1-0.1,0.1-0.1c0,0,0.1,0.1,0.1,0.1
		c0.2,0.3,0.5,0.7,0.6,1.2C290.2,88.3,290.3,88.7,290.3,89.1z M289.5,83.7l-0.8,0.8l-0.8-0.8l0.8-0.8L289.5,83.7z" id="PATH_46" class="area" title=""></path>
	<path d="M296.4,86.9c0,1.4-0.9,2.1-2.8,2.1c-0.7,0-1.2-0.1-1.5-0.3c-0.4-0.2-0.6-0.7-0.6-1.3c0-0.3,0.1-0.6,0.2-0.9
		c0.1-0.1,0.1-0.2,0.2-0.2c0.1,0,0.1,0.1,0.1,0.3c0,0.1,0,0.2,0,0.3c0,0.4,0.2,0.7,0.6,0.8c0.2,0.1,0.6,0.1,1.1,0.1
		c1.5,0,2.2-0.2,2.2-0.7c0-0.7-0.9-1.7-2.6-2.9l0.3-1c0-0.1,0.1-0.1,0.1-0.1c0,0,0.1,0,0.2,0.1C295.6,84.5,296.4,85.8,296.4,86.9z" id="PATH_47" class="area" title=""></path>
</g>
<g id="G_48" class="area" title="">
	<path d="M347.7,117.5h-2.3c-0.3,0-0.6,0-0.8,0.1c-0.4,0.1-0.5,0.3-0.5,0.5c0,0.1,0.5,0.2,1.4,0.4c1,0.2,1.4,0.4,1.4,0.6
		c0,0.8-0.2,1.4-0.7,1.8c-0.8,0.7-2.1,1-4,1c-2.3,0-3.5-0.9-3.5-2.6c0-0.4,0.1-0.8,0.3-1.3s0.4-0.9,0.6-1.2c0.1-0.1,0.2-0.2,0.3-0.2
		c0.1,0,0.1,0,0.1,0.1c0,0.1,0,0.2-0.1,0.3c-0.3,0.6-0.5,1.2-0.5,1.8c0,0.7,0.3,1.2,1,1.5c0.5,0.3,1.1,0.4,1.9,0.4
		c0.8,0,1.5,0,2.2-0.1c1.2-0.2,1.8-0.4,1.8-0.8c0-0.2-0.3-0.3-0.8-0.4c-0.8-0.1-1.3-0.2-1.5-0.3c-0.5-0.1-0.8-0.4-0.8-0.7
		c0-0.2,0.1-0.5,0.4-0.9c0.2-0.3,0.4-0.5,0.7-0.7c0.5-0.4,1.1-0.6,2-0.6h1.4V117.5z" id="PATH_49" class="area" title=""></path>
	<path d="M350,109.6c0.1,0.1,0.1,0.2,0.1,0.2c0,0-0.1,0-0.2,0h-0.3c0.1,1.3,0.1,3.2,0.1,5.7c0,0.6-0.1,1.1-0.4,1.4
		c-0.3,0.4-0.8,0.6-1.3,0.6h-0.6v-1.2h0.5c0.8,0,1.2-0.3,1.1-0.9c-0.1-2.1-0.2-4.3-0.3-6.5l0.7-0.6c0.1-0.1,0.2-0.2,0.2-0.2
		c0,0,0,0.1,0.1,0.2C349.6,108.6,349.8,109,350,109.6z" id="PATH_50" class="area" title=""></path>
	<path d="M357.7,109.6c0,0.1,0,0.1,0.1,0.3c0,0-0.1,0-0.2,0h-0.3c0,0.8-0.1,1.7-0.3,2.5c-0.2,1.1-0.6,2-1,2.6
		c0.2,0.4,0.3,0.9,0.3,1.3c0,0.2-0.1,0.5-0.2,0.8c-0.1,0.3-0.3,0.5-0.5,0.6c-0.9,0.2-1.8,0.3-2.9,0.2l0.3-1.1c1-0.5,1.7-1,2.1-1.6
		c-1-1.3-2.1-2.6-3.4-3.9l-0.2,0.3c-0.7-0.8-1-1.2-1-1.4c0-0.2,0.1-0.5,0.2-1c0-0.1,0.1-0.2,0.1-0.2s0.1,0.1,0.3,0.2
		c1.9,1.8,3.4,3.6,4.4,5.4c0.4-0.6,0.6-1.5,0.7-2.6c0.1-0.9,0.1-1.9,0-3l0.8-0.8C357.4,108.8,357.6,109.2,357.7,109.6z M355.8,116.5
		c0,0,0-0.1,0-0.1c0-0.3-0.1-0.6-0.3-0.8c-0.3,0.4-0.7,0.8-1.2,1.2c0.1,0,0.2,0,0.4,0C355.1,116.7,355.5,116.6,355.8,116.5z" id="PATH_51" class="area" title=""></path>
</g>
<g id="G_52" class="area" title="">
	<path d="M397.5,142.2h-0.7c-0.7,0-1.3-0.3-1.5-0.9c-0.2-0.4-0.3-1.1-0.3-1.9v-1.9c0-0.9-0.1-2.2-0.2-3.9l0.6-0.7
		c0.1-0.1,0.2-0.1,0.2,0c0.1,0.9,0.2,2.2,0.2,3.9v2.9c0,0.8,0.4,1.2,1.2,1.2h0.5V142.2z" id="PATH_53" class="area" title=""></path>
	<path d="M404.4,142.2h-0.7c-0.5,0-1-0.3-1.6-0.8c-0.3-0.3-0.7-0.8-1.2-1.5c0.1,1.6-0.8,2.4-2.7,2.4h-1.1V141h1.3c1.3,0,2-0.4,2-1.1
		c0-0.4-0.2-0.9-0.7-1.5c-0.3-0.4-0.7-0.8-1.3-1.3c-0.5-0.4-0.7-0.7-0.7-0.7c0-0.7,0.1-1.2,0.3-1.5c0-0.1,0.7-0.3,2-0.8
		c1.3-0.5,2.5-0.9,3.6-1.2c0,0.1-0.1,0.5-0.3,1.1c-1.3,0.4-2.9,1-4.9,1.8c0.9,0.8,2.1,2.1,3.4,3.9c0.5,0.6,0.9,1,1.2,1.2
		c0.2,0.1,0.6,0.2,1,0.2h0.4V142.2z" id="PATH_54" class="area" title=""></path>
	<path d="M406.8,140.2c0,1.3-0.7,2-2,2H404V141h0.7c1,0,1.5-0.2,1.5-0.5c0-0.3-0.2-0.7-0.7-1.2l0.4-1c0-0.1,0.1-0.1,0.1-0.1
		s0.1,0.1,0.2,0.2C406.6,138.9,406.8,139.5,406.8,140.2z M406,144.4l-0.8,0.8l-0.8-0.8l0.8-0.8L406,144.4z M407.7,144.4l-0.8,0.8
		l-0.8-0.8l0.8-0.8L407.7,144.4z" id="PATH_55" class="area" title=""></path>
	<path d="M415.5,142.2h-0.4c-0.4,0-0.7-0.1-1-0.4c-0.2-0.2-0.4-0.4-0.6-0.8c-0.2,0.4-0.5,0.7-0.8,0.9c-0.4,0.2-0.9,0.3-1.7,0.3
		c-1.4,0-2.1-0.5-2.1-1.5c0-0.3,0.1-0.7,0.3-1c0.1-0.1,0.1-0.2,0.2-0.2c0.1,0,0.1,0.1,0.1,0.2c0,0.1,0,0.1,0,0.3c0,0.1,0,0.2,0,0.3
		c0,0.6,0.5,0.9,1.5,0.9c1.4,0,2.1-0.3,2.1-0.8c0-0.3-0.4-1.4-1.2-3.3l0.4-0.8c0.1-0.1,0.1-0.2,0.1-0.2c0,0,0.1,0.1,0.1,0.2
		c0.3,0.8,0.8,2,1.4,3.6c0.3,0.8,0.7,1.2,1.3,1.2h0.3V142.2z" id="PATH_56" class="area" title=""></path>
	<path d="M417.9,140.2c0,1.3-0.7,2-2,2h-0.8V141h0.7c1,0,1.5-0.2,1.5-0.5c0-0.3-0.2-0.7-0.7-1.2l0.4-1c0-0.1,0.1-0.1,0.1-0.1
		s0.1,0.1,0.2,0.2C417.7,138.9,417.9,139.5,417.9,140.2z M417.9,135.6l-0.8,0.8l-0.8-0.8l0.8-0.8L417.9,135.6z" id="PATH_57" class="area" title=""></path>
	<path d="M420.3,140.9c0,0.4-0.1,0.8-0.3,1.1c-0.1,0.2-0.2,0.3-0.2,0.3c0,0-0.1-0.1-0.1-0.4c0-1.2-0.2-4-0.6-8.5l0.8-0.8
		c0.1-0.1,0.1-0.1,0.1-0.1c0,0,0,0.1,0,0.2C420.2,134.1,420.3,136.8,420.3,140.9z" id="PATH_58" class="area" title=""></path>
</g>
<g id="G_59" class="area" title="">
	<path d="M284,158.2h-0.4c-0.4,0-0.7-0.1-1-0.4c-0.2-0.2-0.4-0.4-0.6-0.8c-0.2,0.4-0.5,0.7-0.8,0.9c-0.4,0.2-0.9,0.3-1.7,0.3
		c-1.4,0-2.1-0.5-2.1-1.5c0-0.3,0.1-0.7,0.3-1c0.1-0.1,0.1-0.2,0.2-0.2c0.1,0,0.1,0.1,0.1,0.2c0,0.1,0,0.1,0,0.3c0,0.1,0,0.2,0,0.3
		c0,0.6,0.5,0.9,1.5,0.9c1.4,0,2.1-0.3,2.1-0.8c0-0.3-0.4-1.4-1.2-3.3l0.4-0.8c0.1-0.1,0.1-0.2,0.1-0.2c0,0,0.1,0.1,0.1,0.2
		c0.3,0.8,0.8,2,1.4,3.6c0.3,0.8,0.7,1.2,1.3,1.2h0.3V158.2z" id="PATH_60" class="area" title=""></path>
	<path d="M286.4,156.2c0,1.3-0.7,2-2,2h-0.8v-1.2h0.7c1,0,1.5-0.2,1.5-0.5c0-0.3-0.2-0.7-0.7-1.2l0.4-1c0-0.1,0.1-0.1,0.1-0.1
		c0,0,0.1,0.1,0.2,0.2C286.2,154.9,286.4,155.6,286.4,156.2z M286.3,151.7l-0.8,0.8l-0.8-0.8l0.8-0.8L286.3,151.7z" id="PATH_61" class="area" title=""></path>
	<path d="M292.6,158.2h-1.1c-0.1,1.4-0.6,2.5-1.6,3.5c-0.3,0.3-0.5,0.5-0.6,0.5c-0.5,0-1.2-0.1-1.9-0.2c-0.2,0-0.4-0.1-0.4-0.1
		s0.1-0.1,0.4-0.2c0.8-0.2,1.6-0.7,2.3-1.2c0.3-0.3,0.6-0.5,0.8-0.9c0.3-0.4,0.5-0.8,0.5-1.1v-0.3h-1.3c-1,0-1.4-0.4-1.4-1.2
		c0-0.5,0.1-1,0.4-1.6c0.3-0.6,0.7-1,1.1-1c0.5,0,0.9,0.3,1.2,1c0.2,0.5,0.4,1,0.4,1.6h1.1V158.2z M290.8,157c0-0.3-0.1-0.6-0.3-0.9
		c-0.2-0.4-0.5-0.5-0.8-0.5c-0.2,0-0.4,0.1-0.5,0.2c-0.2,0.2-0.2,0.3-0.2,0.6c0,0.5,0.4,0.7,1.2,0.7
		C290.2,157.1,290.5,157.1,290.8,157z" id="PATH_62" class="area" title=""></path>
	<path d="M297.5,158.2h-0.8c-0.9,0-1.5-0.3-1.9-0.9c-0.3,0.6-1,0.9-2.1,0.9h-0.6v-1.2h0.9c1,0,1.5-0.4,1.6-1.1
		c0-0.3,0.1-0.5,0.2-0.5c0.1,0,0.2,0.2,0.2,0.5c0.1,0.7,0.6,1.1,1.5,1.1h0.9V158.2z M294.1,152.4l-0.8,0.8l-0.8-0.8l0.8-0.8
		L294.1,152.4z M295.8,152.4l-0.8,0.8l-0.8-0.8l0.8-0.8L295.8,152.4z" id="PATH_63" class="area" title=""></path>
	<path d="M303.5,150.1c0,0.2-0.1,0.5-0.3,1.1c-1.2,0.3-2.7,0.8-4.4,1.3c1.2,1.2,1.9,2.2,2,2.9c0.1,0.5,0,1-0.2,1.5
		c-0.2,0.5-0.6,0.8-1.1,1c-0.4,0.2-1.1,0.2-2,0.2h-0.4v-1.2h0.3c1.9,0,2.9-0.3,2.9-1c0-0.5-0.5-1.3-1.6-2.3l-0.1,0.3
		c-0.1-0.1-0.3-0.3-0.5-0.6c-0.3-0.3-0.4-0.5-0.4-0.6c0-0.3,0.1-0.6,0.4-0.9c0.1-0.1,0.7-0.3,2-0.7
		C301.4,150.7,302.5,150.4,303.5,150.1z M303.3,148.6l-0.2,0.7l-4.9,1.6l0.2-0.7L303.3,148.6z" id="PATH_64" class="area" title=""></path>
</g>
<g id="G_65" class="area" title="">
	<path d="M200,185.4c0,1.4-0.6,2.1-1.8,2.1c-0.7,0-1.1-0.3-1.3-0.9c-0.3,0.6-0.8,0.9-1.4,0.9c-0.2,0-0.5,0-0.7-0.1
		c0,0.6-0.1,1.2-0.1,1.9c-0.3,0.7-0.8,1.3-1.7,1.7c-0.8,0.3-1.6,0.5-2.5,0.5c-0.9,0-1.6-0.2-2.2-0.6c-0.6-0.5-0.9-1.1-0.9-2
		c0-0.5,0.1-0.9,0.3-1.5c0.2-0.4,0.3-0.7,0.5-0.9c0.1-0.1,0.2-0.1,0.2-0.1c0.1,0,0.1,0,0.1,0.1c0,0,0,0.1,0,0.2
		c-0.3,0.6-0.4,1.2-0.4,1.7c0,0.5,0.2,0.9,0.5,1.3c0.4,0.5,1.1,0.7,2,0.7c1,0,1.9-0.2,2.6-0.5c0.6-0.3,1-0.6,1.1-1
		c0.1-0.1,0.1-0.3,0-0.7c0-0.3-0.1-0.6-0.1-0.7c-0.1-0.3-0.4-0.8-1-1.5l0.4-0.8c0.1-0.1,0.1-0.2,0.1-0.2c0,0,0.1,0,0.1,0.1
		c0.3,0.4,0.5,0.7,0.6,0.8c0.3,0.3,0.6,0.4,1,0.4c0.4,0,0.8-0.1,1-0.4c0.1-0.2,0.2-0.4,0.3-0.9c0-0.2,0.1-0.3,0.2-0.3
		c0.1,0,0.1,0.1,0.1,0.3c0.1,0.5,0.2,0.8,0.4,1c0.2,0.2,0.6,0.3,1.1,0.3c0.2,0,0.4-0.1,0.5-0.2c0.2-0.1,0.3-0.3,0.3-0.5
		c0-0.3-0.2-0.6-0.6-1.1l0.5-0.9c0.1-0.1,0.1-0.1,0.1-0.1c0,0,0.1,0.1,0.1,0.1C199.9,184.3,200,184.8,200,185.4z M196.7,181.7
		l-0.7,0.7l-0.7-0.7l0.7-0.7L196.7,181.7z M197.6,180.1l-0.7,0.7l-0.7-0.7l0.7-0.7L197.6,180.1z M198.5,181.7l-0.7,0.7l-0.7-0.7
		l0.7-0.7L198.5,181.7z" id="PATH_66" class="area" title=""></path>
	<path d="M206.3,187.5h-1.1c-0.1,1.4-0.6,2.5-1.6,3.5c-0.3,0.3-0.5,0.5-0.6,0.5c-0.5,0-1.2-0.1-1.9-0.2c-0.2,0-0.4-0.1-0.4-0.1
		s0.1-0.1,0.4-0.2c0.8-0.2,1.6-0.7,2.3-1.2c0.3-0.3,0.6-0.5,0.8-0.9c0.3-0.4,0.5-0.8,0.5-1.1v-0.3h-1.3c-1,0-1.4-0.4-1.4-1.2
		c0-0.5,0.1-1,0.4-1.6c0.3-0.6,0.7-1,1.1-1c0.5,0,0.9,0.3,1.2,1c0.2,0.5,0.4,1,0.4,1.6h1.1V187.5z M204.5,186.3
		c0-0.3-0.1-0.6-0.3-0.9c-0.2-0.4-0.5-0.5-0.8-0.5c-0.2,0-0.4,0.1-0.5,0.2c-0.2,0.2-0.2,0.3-0.2,0.6c0,0.5,0.4,0.7,1.2,0.7
		C203.9,186.4,204.1,186.3,204.5,186.3z" id="PATH_67" class="area" title=""></path>
	<path d="M214.1,185.4c0,0.6-0.1,1.1-0.4,1.5c-0.3,0.4-0.8,0.7-1.3,0.7c-0.7,0-1.1-0.3-1.4-0.8c-0.4,0.6-0.8,0.8-1.4,0.8
		c-0.7,0-1.2-0.3-1.5-0.8c-0.4,0.6-0.9,0.8-1.6,0.8h-0.7v-1.2h0.8c0.7,0,1.2-0.4,1.3-1.2c0-0.2,0.1-0.3,0.2-0.3
		c0.1,0,0.1,0.1,0.2,0.3c0.1,0.8,0.5,1.2,1.3,1.2c0.4,0,0.8-0.1,1-0.3c0.1-0.2,0.2-0.4,0.3-0.8c0-0.2,0.1-0.3,0.2-0.3
		c0.1,0,0.1,0.1,0.2,0.3c0.1,0.8,0.5,1.2,1.2,1.2c0.8,0,1.1-0.2,1.1-0.5c0-0.3-0.2-0.7-0.6-1.1l0.5-0.9c0.1-0.1,0.1-0.2,0.2-0.2
		s0.1,0.1,0.2,0.2C214,184.4,214.1,184.9,214.1,185.4z M210.8,181.7l-0.7,0.7l-0.7-0.7l0.7-0.7L210.8,181.7z M211.6,180.2l-0.7,0.7
		l-0.7-0.7l0.7-0.7L211.6,180.2z M212.5,181.7l-0.7,0.7l-0.7-0.7l0.7-0.7L212.5,181.7z" id="PATH_68" class="area" title=""></path>
</g>
<g id="G_69" class="area" title="">
	<path d="M287.6,215.2h-0.4c-0.4,0-0.6-0.1-0.8-0.2c0,0.1,0,0.2,0,0.3c0,0.9-0.3,1.8-0.9,2.7c-0.5,0.8-1,1.1-1.3,1.1
		c-0.8,0-1.4,0-2-0.1c-0.2,0-0.3-0.1-0.3-0.1s0.1-0.1,0.3-0.1c0.8-0.2,1.6-0.6,2.4-1.2c0.8-0.7,1.3-1.4,1.3-2.1c0-0.4-0.3-1-1-1.7
		l0.5-0.9c0-0.1,0.1-0.1,0.1-0.1c0,0,0.1,0.1,0.1,0.1c0.3,0.4,0.5,0.7,0.7,0.8c0.3,0.2,0.7,0.4,1.1,0.4h0.3V215.2z" id="PATH_70" class="area" title=""></path>
	<path d="M292.6,215.2h-0.8c-0.9,0-1.5-0.3-1.9-0.9c-0.3,0.6-1,0.9-2.1,0.9h-0.6V214h0.9c1,0,1.5-0.4,1.6-1.1c0-0.3,0.1-0.5,0.2-0.5
		s0.2,0.2,0.2,0.5c0.1,0.7,0.6,1.1,1.5,1.1h0.9V215.2z M289.2,209.4l-0.8,0.8l-0.8-0.8l0.8-0.8L289.2,209.4z M290.9,209.4l-0.8,0.8
		l-0.8-0.8l0.8-0.8L290.9,209.4z" id="PATH_71" class="area" title=""></path>
	<path d="M300.5,213.1c0,0.6-0.1,1.1-0.4,1.5c-0.3,0.4-0.8,0.7-1.3,0.7c-0.7,0-1.1-0.3-1.4-0.8c-0.4,0.6-0.8,0.8-1.4,0.8
		c-0.7,0-1.2-0.3-1.5-0.8c-0.4,0.6-0.9,0.8-1.6,0.8h-0.7V214h0.8c0.7,0,1.2-0.4,1.3-1.2c0-0.2,0.1-0.3,0.2-0.3
		c0.1,0,0.1,0.1,0.2,0.3c0.1,0.8,0.5,1.2,1.3,1.2c0.4,0,0.8-0.1,1-0.3c0.1-0.2,0.2-0.4,0.3-0.8c0-0.2,0.1-0.3,0.2-0.3
		c0.1,0,0.1,0.1,0.2,0.3c0.1,0.8,0.5,1.2,1.2,1.2c0.8,0,1.1-0.2,1.1-0.5c0-0.3-0.2-0.7-0.6-1.1l0.5-0.9c0.1-0.1,0.1-0.2,0.2-0.2
		s0.1,0.1,0.2,0.2C300.3,212.1,300.5,212.6,300.5,213.1z M297.1,209.4l-0.7,0.7l-0.7-0.7l0.7-0.7L297.1,209.4z M298,207.9l-0.7,0.7
		l-0.7-0.7l0.7-0.7L298,207.9z M298.9,209.4l-0.7,0.7l-0.7-0.7l0.7-0.7L298.9,209.4z" id="PATH_72" class="area" title=""></path>
	<path d="M306.7,215.2h-1.1c-0.1,1.4-0.6,2.5-1.6,3.5c-0.3,0.3-0.5,0.5-0.6,0.5c-0.5,0-1.2-0.1-1.9-0.2c-0.2,0-0.4-0.1-0.4-0.1
		s0.1-0.1,0.4-0.2c0.8-0.2,1.6-0.7,2.3-1.2c0.3-0.3,0.6-0.5,0.8-0.9c0.3-0.4,0.5-0.8,0.5-1.1v-0.3h-1.3c-1,0-1.4-0.4-1.4-1.2
		c0-0.5,0.1-1,0.4-1.6c0.3-0.6,0.7-1,1.1-1c0.5,0,0.9,0.3,1.2,1c0.2,0.5,0.4,1,0.4,1.6h1.1V215.2z M304.9,214c0-0.3-0.1-0.6-0.3-0.9
		c-0.2-0.4-0.5-0.5-0.8-0.5c-0.2,0-0.4,0.1-0.5,0.2s-0.2,0.3-0.2,0.6c0,0.5,0.4,0.7,1.2,0.7C304.3,214.1,304.6,214,304.9,214z" id="PATH_73" class="area" title=""></path>
	<path d="M314.6,213.1c0,0.6-0.1,1.1-0.4,1.5c-0.3,0.4-0.8,0.7-1.3,0.7c-0.7,0-1.1-0.3-1.4-0.8c-0.4,0.6-0.8,0.8-1.4,0.8
		c-0.7,0-1.2-0.3-1.5-0.8c-0.4,0.6-0.9,0.8-1.6,0.8h-0.7V214h0.8c0.7,0,1.2-0.4,1.3-1.2c0-0.2,0.1-0.3,0.2-0.3
		c0.1,0,0.1,0.1,0.2,0.3c0.1,0.8,0.5,1.2,1.3,1.2c0.4,0,0.8-0.1,1-0.3c0.1-0.2,0.2-0.4,0.3-0.8c0-0.2,0.1-0.3,0.2-0.3
		c0.1,0,0.1,0.1,0.2,0.3c0.1,0.8,0.5,1.2,1.2,1.2c0.8,0,1.1-0.2,1.1-0.5c0-0.3-0.2-0.7-0.6-1.1l0.5-0.9c0.1-0.1,0.1-0.2,0.2-0.2
		s0.1,0.1,0.2,0.2C314.4,212.1,314.6,212.6,314.6,213.1z M311.2,209.4l-0.7,0.7l-0.7-0.7l0.7-0.7L311.2,209.4z M312.1,207.9
		l-0.7,0.7l-0.7-0.7l0.7-0.7L312.1,207.9z M313,209.4l-0.7,0.7l-0.7-0.7l0.7-0.7L313,209.4z" id="PATH_74" class="area" title=""></path>
</g>
<g id="G_75" class="area" title="">
	<path d="M351.8,192.2c-0.2,0.3-0.4,0.5-0.6,0.7c-0.3,0.3-0.6,0.5-0.9,0.6c-0.7,0.3-1.5,0.3-2.5-0.1c-0.8-0.3-1.5-0.8-2.1-1.5
		c-0.6-0.6-0.9-1.3-1-2c-0.1-0.8,0.2-1.5,0.8-2c0.3-0.3,0.8-0.6,1.3-0.7c0.4-0.1,0.7-0.2,1-0.2c0.1,0,0.2,0,0.3,0.1c0,0,0,0.1,0,0.1
		c0,0-0.1,0.1-0.2,0.1c-0.6,0.2-1.2,0.5-1.5,0.8c-0.4,0.3-0.6,0.7-0.6,1.2c-0.1,0.6,0.2,1.3,0.8,1.9c0.7,0.7,1.4,1.3,2.2,1.6
		c0.6,0.3,1.1,0.3,1.5,0.2c0.1,0,0.2-0.1,0.4-0.2c0.2-0.2,0.4-0.5,0.6-0.8c0.2-0.3,0.3-0.9,0.5-1.8l0.9-0.3c0.1,0,0.2,0,0.2,0
		s0,0.1,0,0.2C352.6,190.8,352.3,191.5,351.8,192.2z M353,187.1l-1.1,0l0-1.2l1.1,0L353,187.1z" id="PATH_76" class="area" title=""></path>
	<path d="M354.4,195.2l-0.5-0.5c-0.5-0.5-0.6-1.1-0.4-1.8c0.2-0.4,0.6-0.9,1.2-1.5l1.4-1.3c0.7-0.6,1.6-1.6,2.7-2.8l0.9,0
		c0.2,0,0.2,0.1,0.1,0.2c-0.5,0.7-1.5,1.6-2.8,2.8l-2.1,2c-0.6,0.6-0.6,1.1-0.1,1.7l0.4,0.4L354.4,195.2z" id="PATH_77" class="area" title=""></path>
	<path d="M359.3,200.5l-0.4-0.5c-0.3-0.3-0.4-0.9-0.4-1.6c-0.8,0.4-1.3,0.4-1.5,0.1c-0.2-0.2-0.4-0.7-0.6-1.3
		c-0.1-0.6-0.2-1-0.2-1.3c-0.8,0.1-1.3-0.1-1.7-0.5l-0.4-0.4l0.9-0.8l0.4,0.5c0.3,0.3,0.8,0.5,1.3,0.6c0.4,0,0.9,0,1.4,0
		c0.5,0,0.9,0.1,1.1,0.3c0.3,0.3,0.3,0.7,0.3,1.2c0,0.2-0.1,0.7-0.2,1.4c-0.1,0.5,0,0.9,0.3,1.2l0.4,0.5L359.3,200.5z M358.1,198
		c0.2-0.2,0.4-0.5,0.5-0.9c0.1-0.4,0.1-0.8-0.1-1c-0.2-0.3-0.7-0.4-1.3-0.3c0,0.2,0,0.5,0.2,1c0.1,0.5,0.3,0.9,0.5,1.2
		C357.9,198,358,198,358.1,198z" id="PATH_78" class="area" title=""></path>
	<path d="M358.8,203.2l-1.1,0l0-1.1l1.1,0L358.8,203.2z M359.9,204.5l-1.1,0l0-1.1l1.1,0L359.9,204.5z M362.6,204.1l-0.5-0.6
		c-0.6-0.7-0.8-1.3-0.6-2c-0.7,0.2-1.4-0.1-2.1-0.9l-0.4-0.5l0.8-0.8l0.6,0.7c0.7,0.7,1.3,0.9,1.9,0.4c0.2-0.2,0.4-0.2,0.5-0.1
		c0.1,0.1,0,0.2-0.2,0.5c-0.5,0.6-0.4,1.2,0.2,1.9l0.6,0.7L362.6,204.1z" id="PATH_79" class="area" title=""></path>
	<path d="M365.1,206.8l-0.3-0.3c-0.6-0.6-0.8-1.3-0.5-2c-0.3,0.1-0.6,0.1-0.9,0c-0.3-0.1-0.6-0.3-0.8-0.5l-0.3-0.3l0.9-0.8l0.3,0.3
		c0.6,0.6,1.1,0.7,1.6,0.2l2.5-2.3c1-0.9,1.7-1.6,2.2-2.1l1.1,0.1l-5,4.6c-0.7,0.7-0.8,1.4-0.2,2l0.3,0.3L365.1,206.8z" id="PATH_80" class="area" title=""></path>
	<path d="M372,211.2c-0.4,0.4-0.9,0.6-1.4,0.7c-0.5,0.1-1-0.1-1.4-0.5c-0.5-0.5-0.6-1-0.4-1.6c-0.7,0.1-1.2-0.1-1.6-0.5
		c-0.5-0.5-0.6-1.1-0.4-1.6c-0.7,0.1-1.2-0.1-1.7-0.6l-0.5-0.5l0.9-0.8l0.5,0.6c0.5,0.5,1.1,0.6,1.7,0.1c0.2-0.1,0.3-0.1,0.3-0.1
		c0.1,0.1,0,0.2-0.1,0.3c-0.5,0.6-0.5,1.2,0,1.7c0.3,0.3,0.6,0.5,0.9,0.5c0.2,0,0.5-0.1,0.8-0.4c0.2-0.1,0.3-0.1,0.3-0.1
		c0.1,0.1,0,0.2-0.1,0.3c-0.5,0.6-0.5,1.2-0.1,1.7c0.5,0.6,0.9,0.7,1.2,0.5c0.2-0.2,0.4-0.6,0.5-1.2l0.9-0.2c0.1,0,0.2,0,0.3,0
		s0,0.1-0.1,0.3C372.6,210.4,372.3,210.9,372,211.2z" id="PATH_81" class="area" title=""></path>
	<path d="M378.4,221.3l-0.3-0.3c-0.3-0.3-0.4-0.6-0.4-0.9c0-0.2,0.1-0.5,0.2-1c-0.5,0.1-0.9,0.1-1.2,0c-0.4-0.1-0.9-0.5-1.4-1
		c-0.9-1-1.1-1.9-0.3-2.6c0.2-0.2,0.6-0.4,1-0.5c0.1,0,0.2,0,0.3,0c0,0,0,0.1-0.1,0.2c0,0-0.1,0.1-0.2,0.2c-0.1,0.1-0.2,0.1-0.2,0.2
		c-0.4,0.4-0.3,1,0.4,1.7c1,1.1,1.7,1.4,2.1,1c0.2-0.2,0.7-1.2,1.6-3.1l0.9-0.2c0.1,0,0.2,0,0.2,0c0,0,0,0.1-0.1,0.2
		c-0.4,0.8-0.9,1.9-1.7,3.4c-0.4,0.8-0.4,1.4,0,1.8l0.2,0.2L378.4,221.3z" id="PATH_82" class="area" title=""></path>
	<path d="M384.4,227.8l-0.7-0.7c-0.9-1-0.9-1.9,0.1-2.8c0.1-0.1,0.2-0.2,0.4-0.3c-0.5-0.2-1.2-0.4-2.1-0.7c-0.9-0.2-1.5-0.4-1.9-0.6
		c-0.6-0.3-1.2-0.7-1.6-1.1l-0.5-0.5l0.8-0.8l0.5,0.6c0.6,0.6,1.3,1.1,2.1,1.4c0.4,0.2,1.2,0.4,2.3,0.8c-0.1-0.2-0.4-0.7-0.9-1.6
		c-0.3-0.6-0.5-1-0.6-1.1c-0.2-0.3-0.6-0.4-1.2-0.5c-0.1,0-0.2,0-0.2-0.1c0,0,0-0.1,0-0.2c0,0,0.1,0,0.1-0.1c1-0.4,1.7-0.3,2.2,0.2
		c0.2,0.2,0.4,0.6,0.6,1c0.3,0.7,0.6,1.3,0.8,1.7c0.3,0.6,0.8,1.2,1.5,1.9c0.1,0.1,0.2,0.2,0.2,0.2c0,0-0.1,0.1-0.2,0.1l-0.9,0.3
		c-0.4-0.5-0.7-0.7-0.9-0.8c-0.3,0.3-0.5,0.6-0.6,0.7c-0.1,0.4,0.1,0.8,0.5,1.3l0.7,0.7L384.4,227.8z M380.3,226.3l-1.1,0l0-1.2
		l1.1,0L380.3,226.3z" id="PATH_83" class="area" title=""></path>
	<path d="M390.6,234.5l-0.4-0.4c-0.5-0.5-0.6-1-0.3-1.6c-0.6,0.2-1.1,0.1-1.5-0.4c-0.4-0.4-0.5-0.9-0.3-1.5c-0.6,0.2-1.1,0-1.5-0.4
		c-0.5-0.5-0.6-1.1-0.4-1.6c-0.7,0.1-1.2-0.1-1.7-0.6l-0.5-0.5l0.9-0.8l0.5,0.6c0.5,0.5,1.1,0.6,1.7,0.1c0.2-0.1,0.3-0.1,0.3-0.1
		c0.1,0.1,0,0.2-0.1,0.3c-0.5,0.6-0.5,1.2,0,1.7c0.5,0.5,1.1,0.6,1.7,0.1c0.2-0.1,0.3-0.1,0.3-0.1c0.1,0.1,0,0.2-0.1,0.3
		c-0.5,0.6-0.6,1.1-0.2,1.6c0.5,0.5,1.1,0.6,1.7,0.1c0.2-0.1,0.3-0.1,0.3-0.1c0.1,0.1,0,0.2-0.1,0.3c-0.5,0.6-0.5,1.2-0.1,1.7
		l0.4,0.4L390.6,234.5z" id="PATH_84" class="area" title=""></path>
	<path d="M395.4,236.8c-0.3,0.4-0.7,0.6-1,0.7c-0.5,0.2-0.9,0.2-1.1-0.1c-0.4-0.4-0.6-1.2-0.8-2.4c-0.5,0-0.8,0-0.9,0
		c-0.3-0.1-0.6-0.2-0.9-0.5l-0.4-0.4l0.9-0.8l0.5,0.5c0.3,0.3,0.7,0.5,1.3,0.4c0.3,0,0.8-0.1,1.5-0.2c0.6-0.1,1,0,1.2,0.3
		c0.3,0.4,0.4,0.8,0.3,1.4C395.8,236.2,395.6,236.5,395.4,236.8z M394.4,236.9c0.2-0.2,0.4-0.5,0.5-0.9c0.1-0.4,0.1-0.8-0.1-1
		c-0.2-0.2-0.7-0.3-1.4-0.2c0,0.2,0,0.6,0.2,1.1s0.3,0.8,0.5,1C394.2,237,394.3,237,394.4,236.9z" id="PATH_85" class="area" title=""></path>
</g>
<g id="G_86" class="area" title="">
	<path d="M462,216.2c0,0.7-0.2,1.2-0.6,1.6c-0.4,0.4-1,0.5-1.6,0.5c-0.4,0-0.8-0.1-1.1-0.4c-0.3-0.3-0.5-0.6-0.5-1
		c0-0.5,0.2-1,0.6-1.7c0.3-0.6,0.7-1.1,1.1-1.5C461.3,214.4,462,215.2,462,216.2z M461.4,216.6c0-0.3-0.2-0.6-0.7-1
		c-0.4-0.4-0.7-0.6-1.1-0.7c-0.5,0.7-0.8,1.2-0.8,1.6c0,0.2,0.1,0.4,0.4,0.6c0.2,0.1,0.4,0.2,0.7,0.2c0.4,0,0.8-0.1,1.1-0.2
		C461.3,216.8,461.4,216.7,461.4,216.6z" id="PATH_87" class="area" title=""></path>
	<path d="M468.2,218.3h-0.4c-0.4,0-0.6-0.1-0.8-0.2c0,0.1,0,0.2,0,0.3c0,0.9-0.3,1.8-0.9,2.7c-0.5,0.8-1,1.1-1.3,1.1
		c-0.8,0-1.4,0-2-0.1c-0.2,0-0.3-0.1-0.3-0.1s0.1-0.1,0.3-0.1c0.8-0.2,1.6-0.6,2.4-1.2c0.8-0.7,1.3-1.4,1.3-2.1c0-0.4-0.3-1-1-1.7
		l0.5-0.9c0-0.1,0.1-0.1,0.1-0.1c0,0,0.1,0.1,0.1,0.1c0.3,0.4,0.5,0.7,0.7,0.8c0.3,0.2,0.7,0.4,1.1,0.4h0.3V218.3z M466.3,213
		l-0.8,0.8l-0.8-0.8l0.8-0.8L466.3,213z" id="PATH_88" class="area" title=""></path>
	<path d="M470.6,216.3c0,1.3-0.7,2-2,2h-0.8v-1.2h0.7c1,0,1.5-0.2,1.5-0.5c0-0.3-0.2-0.7-0.7-1.2l0.4-1c0-0.1,0.1-0.1,0.1-0.1
		s0.1,0.1,0.2,0.2C470.4,215,470.6,215.7,470.6,216.3z M469.8,220.5l-0.8,0.8l-0.8-0.8l0.8-0.8L469.8,220.5z M471.5,220.5l-0.8,0.8
		l-0.8-0.8l0.8-0.8L471.5,220.5z" id="PATH_89" class="area" title=""></path>
	<path d="M473.9,217.1c0,0.4-0.1,0.8-0.3,1.1c-0.1,0.2-0.2,0.3-0.2,0.3c0,0-0.1-0.1-0.1-0.4c0-1.2-0.2-4-0.6-8.5l0.8-0.8
		c0.1-0.1,0.1-0.1,0.1-0.1c0,0,0,0.1,0,0.2C473.9,210.2,473.9,212.9,473.9,217.1z" id="PATH_90" class="area" title=""></path>
</g>
<g id="G_91" class="area" title="">
	<path d="M50.9,218.1c0.1,0.3,0.1,0.6,0.1,0.9c0,0.4-0.1,0.7-0.2,1.1c-0.3,0.7-0.8,1.3-1.8,1.7c-0.8,0.3-1.6,0.5-2.5,0.5
		c-0.9,0-1.6-0.2-2.2-0.6c-0.6-0.5-0.9-1.1-0.9-2c0-0.5,0.1-0.9,0.3-1.5c0.2-0.4,0.3-0.7,0.5-0.9c0.1-0.1,0.2-0.1,0.2-0.1
		c0.1,0,0.1,0,0.1,0.1c0,0,0,0.1,0,0.2c-0.3,0.6-0.4,1.2-0.4,1.7c0,0.5,0.2,0.9,0.5,1.3c0.4,0.5,1.1,0.7,2,0.7c1,0,1.9-0.2,2.6-0.5
		c0.6-0.3,1-0.6,1.2-1c0.1-0.1,0.1-0.3,0.1-0.4c0-0.3-0.1-0.6-0.2-1c-0.1-0.3-0.4-0.8-0.9-1.6l0.4-0.8c0.1-0.1,0.1-0.2,0.1-0.2
		s0.1,0,0.1,0.1C50.5,216.6,50.8,217.4,50.9,218.1z M48,213.8l-0.8,0.8l-0.8-0.8l0.8-0.8L48,213.8z" id="PATH_92" class="area" title=""></path>
	<path d="M55,218.3h-0.7c-0.7,0-1.3-0.3-1.5-0.9c-0.2-0.4-0.3-1.1-0.3-1.9v-1.9c0-0.9-0.1-2.2-0.2-3.9l0.6-0.7
		c0.1-0.1,0.2-0.1,0.2,0c0.1,0.9,0.2,2.2,0.2,3.9v2.9c0,0.8,0.4,1.2,1.2,1.2H55V218.3z" id="PATH_93" class="area" title=""></path>
	<path d="M61,210.2c0,0.2-0.1,0.5-0.3,1.1c-1.2,0.3-2.7,0.8-4.4,1.3c1.2,1.2,1.9,2.2,2,2.9c0.1,0.5,0,1-0.2,1.5
		c-0.2,0.5-0.6,0.8-1.1,1c-0.4,0.2-1.1,0.2-2,0.2h-0.4v-1.2h0.3c1.9,0,2.9-0.3,2.9-1c0-0.5-0.5-1.3-1.6-2.3l-0.1,0.3
		c-0.1-0.1-0.3-0.3-0.5-0.6c-0.3-0.3-0.4-0.5-0.4-0.6c0-0.3,0.1-0.6,0.4-0.9c0.1-0.1,0.7-0.3,2-0.7C58.8,210.8,60,210.5,61,210.2z
		 M60.8,208.7l-0.2,0.7l-4.9,1.6l0.2-0.7L60.8,208.7z" id="PATH_94" class="area" title=""></path>
	<path d="M66.8,216.2c0,1.4-0.9,2.1-2.8,2.1c-0.7,0-1.2-0.1-1.5-0.3c-0.4-0.2-0.6-0.7-0.6-1.3c0-0.3,0.1-0.6,0.2-0.9
		c0.1-0.1,0.1-0.2,0.2-0.2c0.1,0,0.1,0.1,0.1,0.3c0,0.1,0,0.2,0,0.3c0,0.4,0.2,0.7,0.6,0.8c0.2,0.1,0.6,0.1,1.1,0.1
		c1.5,0,2.2-0.2,2.2-0.7c0-0.7-0.9-1.7-2.6-2.9l0.3-1c0-0.1,0.1-0.1,0.1-0.1c0,0,0.1,0,0.2,0.1C66,213.8,66.8,215.1,66.8,216.2z" id="PATH_95" class="area" title=""></path>
	<path d="M69.2,217.1c0,0.4-0.1,0.8-0.3,1.1c-0.1,0.2-0.2,0.3-0.2,0.3c0,0-0.1-0.1-0.1-0.4c0-1.2-0.2-4-0.6-8.5l0.8-0.8
		c0.1-0.1,0.1-0.1,0.1-0.1c0,0,0,0.1,0,0.2C69.2,210.2,69.2,212.9,69.2,217.1z" id="PATH_96" class="area" title=""></path>
	<path d="M74.3,218.4c0,1-0.3,1.9-0.9,2.8c-0.5,0.7-1,1.1-1.3,1.1c-0.8,0-1.4,0-2-0.1c-0.2,0-0.3-0.1-0.3-0.1s0.1-0.1,0.3-0.1
		c0.8-0.2,1.6-0.6,2.4-1.2c0.8-0.7,1.3-1.4,1.3-2.1c0-0.4-0.3-1-1-1.7l0.5-0.9c0-0.1,0.1-0.1,0.1-0.1c0,0,0.1,0.1,0.1,0.1
		c0.2,0.3,0.5,0.7,0.6,1.2C74.1,217.6,74.3,218,74.3,218.4z M73.5,213l-0.8,0.8l-0.8-0.8l0.8-0.8L73.5,213z" id="PATH_97" class="area" title=""></path>
	<path d="M78.3,207.6c-0.4,0.4-1,0.5-1.6,0.5c-0.1,0-0.2,0-0.4,0s-0.3,0-0.4,0c-0.1,0-0.2,0.1-0.3,0.2c-0.1,0.1-0.2,0.2-0.2,0.2
		c-0.1,0-0.1-0.1-0.1-0.2c0-0.1,0.1-0.3,0.2-0.5c0.1-0.3,0.2-0.4,0.3-0.4c0.1,0,0.3,0,0.6,0.1c0.3,0,0.5,0.1,0.6,0.1
		c0.6,0,1,0,1.3-0.1c0.2,0,0.3-0.1,0.3-0.1c0,0,0.1,0,0.1,0C78.5,207.4,78.4,207.5,78.3,207.6z M77.6,217.1c0,0.4-0.1,0.8-0.3,1.1
		c-0.1,0.2-0.2,0.3-0.2,0.3c0,0-0.1-0.1-0.1-0.4c0-1.2-0.2-4-0.6-8.5l0.8-0.8c0.1-0.1,0.1-0.1,0.1-0.1c0,0,0,0.1,0,0.2
		C77.6,210.2,77.6,212.9,77.6,217.1z" id="PATH_98" class="area" title=""></path>
	<path d="M94.1,218.3h-0.4c-0.5,0-0.9-0.1-1.1-0.3c-0.3-0.2-0.5-0.6-0.5-1c-1.1,1-2.8,1.5-5.1,1.5c-2.4,0-3.6-0.7-3.6-2.2
		c0-0.5,0.2-1,0.6-1.5c0.1-0.1,0.1-0.1,0.2-0.1c0.1,0,0.1,0,0.1,0.1c0,0,0,0.1,0,0.2c-0.1,0.3-0.2,0.6-0.2,0.9c0,1,1.1,1.5,3.3,1.5
		c2.5,0,4.2-0.5,5-1.6c0.2-0.2,0.3-0.3,0.4-0.3c0.1,0,0.1,0.1,0.1,0.2c0,0.1,0,0.2-0.1,0.4c0,0.2-0.1,0.3-0.1,0.4
		c0,0.5,0.4,0.8,1.1,0.8h0.4V218.3z M87.9,212.5l-0.8,0.8l-0.8-0.8l0.8-0.8L87.9,212.5z M89.6,212.5l-0.8,0.8l-0.8-0.8l0.8-0.8
		L89.6,212.5z" id="PATH_99" class="area" title=""></path>
	<path d="M102,216.2c0,0.6-0.1,1.1-0.4,1.5c-0.3,0.4-0.8,0.7-1.3,0.7c-0.7,0-1.1-0.3-1.4-0.8c-0.4,0.6-0.8,0.8-1.4,0.8
		c-0.7,0-1.2-0.3-1.5-0.8c-0.4,0.6-0.9,0.8-1.6,0.8h-0.7v-1.2h0.8c0.7,0,1.2-0.4,1.3-1.2c0-0.2,0.1-0.3,0.2-0.3
		c0.1,0,0.1,0.1,0.2,0.3c0.1,0.8,0.5,1.2,1.3,1.2c0.4,0,0.8-0.1,1-0.3c0.1-0.2,0.2-0.4,0.3-0.8c0-0.2,0.1-0.3,0.2-0.3
		c0.1,0,0.1,0.1,0.2,0.3c0.1,0.8,0.5,1.2,1.2,1.2c0.8,0,1.1-0.2,1.1-0.5c0-0.3-0.2-0.7-0.6-1.1l0.5-0.9c0.1-0.1,0.1-0.2,0.2-0.2
		s0.1,0.1,0.2,0.2C101.9,215.2,102,215.7,102,216.2z M98.6,212.5l-0.7,0.7l-0.7-0.7l0.7-0.7L98.6,212.5z M99.5,211l-0.7,0.7
		l-0.7-0.7l0.7-0.7L99.5,211z M100.4,212.5l-0.7,0.7l-0.7-0.7l0.7-0.7L100.4,212.5z" id="PATH_100" class="area" title=""></path>
	<path d="M108.2,216.2c0,1.4-0.9,2.1-2.8,2.1c-0.7,0-1.2-0.1-1.5-0.3c-0.4-0.2-0.6-0.7-0.6-1.3c0-0.3,0.1-0.6,0.2-0.9
		c0.1-0.1,0.1-0.2,0.2-0.2c0.1,0,0.1,0.1,0.1,0.3c0,0.1,0,0.2,0,0.3c0,0.4,0.2,0.7,0.6,0.8c0.2,0.1,0.6,0.1,1.1,0.1
		c1.5,0,2.2-0.2,2.2-0.7c0-0.7-0.9-1.7-2.6-2.9l0.3-1c0-0.1,0.1-0.1,0.1-0.1c0,0,0.1,0,0.2,0.1C107.3,213.8,108.2,215.1,108.2,216.2
		z" id="PATH_101" class="area" title=""></path>
</g>
<g id="G_102" class="area" title="">
	<path d="M80.9,260.5h-0.7c-0.9,0-1.4-0.5-1.6-1.6c-0.5,0.5-0.7,0.7-0.8,0.7h-0.9c-0.3,0-0.6,0-0.9-0.1c-0.4-0.1-0.6-0.3-0.6-0.5
		c0-0.7,0.3-1.4,0.8-1.8c0.4-0.3,1-0.6,1.8-1l-0.2-1l0.7-0.8c0,0.1,0.3,1.2,0.7,3.3c0.1,0.6,0.3,1.1,0.4,1.3
		c0.2,0.3,0.4,0.4,0.8,0.4h0.7V260.5z M78.4,258.5l-0.3-1.6c-0.3,0.1-0.7,0.3-1.2,0.5c-0.6,0.3-1,0.6-1,0.7c0,0.2,0.2,0.3,0.7,0.4
		c0.3,0.1,0.6,0.1,0.9,0.1C77.9,258.5,78.1,258.5,78.4,258.5z" id="PATH_103" class="area" title=""></path>
	<path d="M83.3,258.5c0,1.3-0.7,2-2,2h-0.8v-1.2h0.7c1,0,1.5-0.2,1.5-0.5c0-0.3-0.2-0.7-0.7-1.2l0.4-1c0-0.1,0.1-0.1,0.1-0.1
		c0,0,0.1,0.1,0.2,0.2C83.1,257.2,83.3,257.9,83.3,258.5z M82.5,262.7l-0.8,0.8l-0.8-0.8l0.8-0.8L82.5,262.7z M84.2,262.7l-0.8,0.8
		l-0.8-0.8l0.8-0.8L84.2,262.7z" id="PATH_104" class="area" title=""></path>
	<path d="M92,260.5h-0.4c-0.4,0-0.7-0.1-1-0.4c-0.2-0.2-0.4-0.4-0.6-0.8c-0.2,0.4-0.5,0.7-0.8,0.9c-0.4,0.2-0.9,0.3-1.7,0.3
		c-1.4,0-2.1-0.5-2.1-1.5c0-0.3,0.1-0.7,0.3-1c0.1-0.1,0.1-0.2,0.2-0.2c0.1,0,0.1,0.1,0.1,0.2c0,0.1,0,0.1,0,0.3c0,0.1,0,0.2,0,0.3
		c0,0.6,0.5,0.9,1.5,0.9c1.4,0,2.1-0.3,2.1-0.8c0-0.3-0.4-1.4-1.2-3.3l0.4-0.8c0.1-0.1,0.1-0.2,0.1-0.2c0,0,0.1,0.1,0.1,0.2
		c0.3,0.8,0.8,2,1.4,3.6c0.3,0.8,0.7,1.2,1.3,1.2H92V260.5z" id="PATH_105" class="area" title=""></path>
	<path d="M96.9,260.5h-0.8c-0.9,0-1.5-0.3-1.9-0.9c-0.3,0.6-1,0.9-2.1,0.9h-0.6v-1.2h0.9c1,0,1.5-0.4,1.6-1.1c0-0.3,0.1-0.5,0.2-0.5
		c0.1,0,0.2,0.2,0.2,0.5c0.1,0.7,0.6,1.1,1.5,1.1h0.9V260.5z M93.6,262.7l-0.8,0.8l-0.8-0.8l0.8-0.8L93.6,262.7z M95.4,262.7
		l-0.8,0.8l-0.8-0.8l0.8-0.8L95.4,262.7z" id="PATH_106" class="area" title=""></path>
	<path d="M104.1,260.5h-0.6c-0.5,0-1-0.3-1.4-0.8c-0.3,0.8-0.6,1.2-0.9,1.2c-0.3,0-0.8-0.2-1.4-0.5c-0.5-0.3-0.9-0.6-1.1-0.8
		c-0.5,0.6-1,0.9-1.5,0.9h-0.6v-1.2h0.6c0.5,0,0.9-0.2,1.3-0.6c0.3-0.3,0.6-0.7,1-1.1c0.4-0.4,0.7-0.6,1-0.6c0.4,0,0.7,0.2,1,0.6
		c0.2,0.2,0.4,0.6,0.9,1.1c0.3,0.4,0.7,0.6,1.1,0.6h0.6V260.5z M101.4,259.7c0-0.3-0.1-0.6-0.3-1c-0.2-0.4-0.5-0.6-0.9-0.6
		c-0.3,0-0.7,0.3-1.1,0.8c0.1,0.1,0.4,0.3,0.9,0.6c0.5,0.3,0.9,0.4,1.2,0.4C101.3,259.8,101.4,259.8,101.4,259.7z" id="PATH_107" class="area" title=""></path>
	<path d="M111.9,257.6l-0.4,0.8c-0.7,0-1.3,0-1.6,0.1c-0.4,0.2-1,0.4-1.8,0.8c-0.8,0.4-1.4,0.7-1.8,0.8c-0.6,0.2-1.3,0.3-1.9,0.3
		h-0.7v-1.2h0.8c0.9,0,1.7-0.2,2.4-0.5l2.3-1c-0.4-0.1-1-0.3-1.8-0.6c-0.7-0.3-1.1-0.4-1.3-0.4c-0.4,0-0.8,0.2-1.2,0.5
		c-0.1,0.1-0.1,0.1-0.2,0.1c-0.1,0-0.1,0-0.1-0.1c0,0,0-0.1,0-0.1c0.3-1,0.9-1.4,1.7-1.4c0.3,0,0.7,0.1,1.1,0.3
		c0.8,0.4,1.4,0.6,1.8,0.8c0.7,0.2,1.5,0.4,2.4,0.4c0.2,0,0.3,0,0.3,0.1C112,257.4,112,257.5,111.9,257.6z" id="PATH_108" class="area" title=""></path>
</g>
<g id="G_109" class="area" title="">
	<path d="M146.2,311.4c0,0.7-0.2,1.2-0.6,1.6c-0.4,0.4-1,0.5-1.6,0.5c-0.4,0-0.8-0.1-1.1-0.4c-0.3-0.3-0.5-0.6-0.5-1
		c0-0.5,0.2-1,0.6-1.7c0.3-0.6,0.7-1.1,1.1-1.5C145.5,309.6,146.2,310.4,146.2,311.4z M145.7,311.8c0-0.3-0.2-0.6-0.7-1
		c-0.4-0.4-0.7-0.6-1.1-0.7c-0.5,0.7-0.8,1.2-0.8,1.6c0,0.2,0.1,0.4,0.4,0.6c0.2,0.1,0.4,0.2,0.7,0.2c0.4,0,0.8-0.1,1.1-0.2
		C145.5,312,145.7,311.9,145.7,311.8z" id="PATH_110" class="area" title=""></path>
	<path d="M152.5,313.5H152c-0.4,0-0.6-0.1-0.8-0.2c0,0.1,0,0.2,0,0.3c0,0.9-0.3,1.8-0.9,2.7c-0.5,0.8-1,1.1-1.3,1.1
		c-0.8,0-1.4,0-2-0.1c-0.2,0-0.3-0.1-0.3-0.1s0.1-0.1,0.3-0.1c0.8-0.2,1.6-0.6,2.4-1.2c0.8-0.7,1.3-1.4,1.3-2.1c0-0.4-0.3-1-1-1.7
		l0.5-0.9c0-0.1,0.1-0.1,0.1-0.1c0,0,0.1,0.1,0.1,0.1c0.3,0.4,0.5,0.7,0.7,0.8c0.3,0.2,0.7,0.4,1.1,0.4h0.3V313.5z M150.5,308.2
		l-0.8,0.8l-0.8-0.8l0.8-0.8L150.5,308.2z" id="PATH_111" class="area" title=""></path>
	<path d="M154.9,311.5c0,1.3-0.7,2-2,2h-0.8v-1.2h0.7c1,0,1.5-0.2,1.5-0.5c0-0.3-0.2-0.7-0.7-1.2l0.4-1c0-0.1,0.1-0.1,0.1-0.1
		c0,0,0.1,0.1,0.2,0.2C154.6,310.2,154.9,310.9,154.9,311.5z M154.1,315.7l-0.8,0.8l-0.8-0.8l0.8-0.8L154.1,315.7z M155.8,315.7
		l-0.8,0.8l-0.8-0.8l0.8-0.8L155.8,315.7z" id="PATH_112" class="area" title=""></path>
	<path d="M162,313.5h-1.1c-0.1,1.4-0.6,2.5-1.6,3.5c-0.3,0.3-0.5,0.5-0.6,0.5c-0.5,0-1.2-0.1-1.9-0.2c-0.2,0-0.4-0.1-0.4-0.1
		c0,0,0.1-0.1,0.4-0.2c0.8-0.2,1.6-0.7,2.3-1.2c0.3-0.3,0.6-0.5,0.8-0.9c0.3-0.4,0.5-0.8,0.5-1.1v-0.3h-1.3c-1,0-1.4-0.4-1.4-1.2
		c0-0.5,0.1-1,0.4-1.6c0.3-0.6,0.7-1,1.1-1c0.5,0,0.9,0.3,1.2,1c0.2,0.5,0.4,1,0.4,1.6h1.1V313.5z M160.2,312.3
		c0-0.3-0.1-0.6-0.3-0.9c-0.2-0.4-0.5-0.5-0.8-0.5c-0.2,0-0.4,0.1-0.5,0.2c-0.2,0.2-0.2,0.3-0.2,0.6c0,0.5,0.4,0.7,1.2,0.7
		C159.7,312.4,159.9,312.3,160.2,312.3z" id="PATH_113" class="area" title=""></path>
	<path d="M168.1,311.5c0,0.4-0.1,0.8-0.4,1.2c-0.3,0.5-0.6,0.7-1,0.7c-0.3,0-1-0.2-2.1-0.7c-0.9,0.6-1.7,0.8-2.4,0.8h-0.5v-1.2h0.6
		c0.4,0,0.8,0,1.2-0.1c-0.4-0.3-0.6-0.7-0.6-1.2c0-0.6,0.4-1.3,1.3-2l-0.7-0.3c0.2-0.2,0.5-0.5,0.9-0.9c0.9,0.5,1.7,0.9,2.4,1.5
		C167.6,310.1,168.1,310.8,168.1,311.5z M165.5,310.7c0-0.3-0.1-0.5-0.2-0.7c-0.1-0.3-0.3-0.4-0.6-0.4c-0.3,0-0.5,0.1-0.8,0.3
		c-0.3,0.2-0.5,0.5-0.5,0.7c0,0.4,0.4,0.8,1.1,1c0.2-0.1,0.4-0.2,0.6-0.3C165.4,311.1,165.5,310.9,165.5,310.7z M167.6,311.9
		c0-0.3-0.2-0.6-0.6-1c-0.3-0.3-0.6-0.6-0.9-0.7c0,0.8-0.2,1.4-0.7,1.8c0.8,0.3,1.4,0.4,1.6,0.4
		C167.4,312.3,167.6,312.2,167.6,311.9z" id="PATH_114" class="area" title=""></path>
</g>
<g id="G_115" class="area" title="">
	<path d="M319.3,347.9c0,1-0.3,1.9-0.9,2.8c-0.5,0.7-1,1.1-1.3,1.1c-0.8,0-1.4,0-2-0.1c-0.2,0-0.3-0.1-0.3-0.1s0.1-0.1,0.3-0.1
		c0.8-0.2,1.6-0.6,2.4-1.2c0.8-0.7,1.3-1.4,1.3-2.1c0-0.4-0.3-1-1-1.7l0.5-0.9c0-0.1,0.1-0.1,0.1-0.1c0,0,0.1,0.1,0.1,0.1
		c0.2,0.3,0.5,0.7,0.6,1.2C319.2,347.1,319.3,347.5,319.3,347.9z M318.6,342.5l-0.8,0.8l-0.8-0.8l0.8-0.8L318.6,342.5z" id="PATH_116" class="area" title=""></path>
	<path d="M321.7,346.5c0,0.4-0.1,0.8-0.3,1.1c-0.1,0.2-0.2,0.3-0.2,0.3c0,0-0.1-0.1-0.1-0.4c0-1.2-0.2-4-0.6-8.5l0.8-0.8
		c0.1-0.1,0.1-0.1,0.1-0.1c0,0,0,0.1,0,0.2C321.6,339.7,321.7,342.4,321.7,346.5z" id="PATH_117" class="area" title=""></path>
	<path d="M327.9,347.8h-1.1c-0.1,1.4-0.6,2.5-1.6,3.5c-0.3,0.3-0.5,0.5-0.6,0.5c-0.5,0-1.2-0.1-1.9-0.2c-0.2,0-0.4-0.1-0.4-0.1
		c0,0,0.1-0.1,0.4-0.2c0.8-0.2,1.6-0.7,2.3-1.2c0.3-0.3,0.6-0.5,0.8-0.9c0.3-0.4,0.5-0.8,0.5-1.1v-0.3H325c-1,0-1.4-0.4-1.4-1.2
		c0-0.5,0.1-1,0.4-1.6c0.3-0.6,0.7-1,1.1-1c0.5,0,0.9,0.3,1.2,1c0.2,0.5,0.4,1,0.4,1.6h1.1V347.8z M326.1,346.6
		c0-0.3-0.1-0.6-0.3-0.9c-0.2-0.4-0.5-0.5-0.8-0.5c-0.2,0-0.4,0.1-0.5,0.2s-0.2,0.3-0.2,0.6c0,0.5,0.4,0.7,1.2,0.7
		C325.5,346.6,325.8,346.6,326.1,346.6z" id="PATH_118" class="area" title=""></path>
	<path d="M334,345.8c0,0.4-0.1,0.8-0.4,1.2c-0.3,0.5-0.6,0.7-1,0.7c-0.3,0-1-0.2-2.1-0.7c-0.9,0.6-1.7,0.8-2.4,0.8h-0.5v-1.2h0.6
		c0.4,0,0.8,0,1.2-0.1c-0.4-0.3-0.6-0.7-0.6-1.2c0-0.6,0.4-1.3,1.3-2l-0.7-0.3c0.2-0.2,0.5-0.5,0.9-0.9c0.9,0.5,1.7,0.9,2.4,1.5
		C333.5,344.3,334,345.1,334,345.8z M331.4,344.9c0-0.3-0.1-0.5-0.2-0.7c-0.1-0.3-0.3-0.4-0.6-0.4c-0.3,0-0.5,0.1-0.8,0.3
		c-0.3,0.2-0.5,0.5-0.5,0.7c0,0.4,0.4,0.8,1.1,1c0.2-0.1,0.4-0.2,0.6-0.3C331.3,345.4,331.4,345.2,331.4,344.9z M333.5,346.1
		c0-0.3-0.2-0.6-0.6-1c-0.3-0.3-0.6-0.6-0.9-0.7c0,0.8-0.2,1.4-0.7,1.8c0.8,0.3,1.4,0.4,1.6,0.4
		C333.3,346.6,333.5,346.5,333.5,346.1z" id="PATH_119" class="area" title=""></path>
	<path d="M336.3,346.5c0,0.4-0.1,0.8-0.3,1.1c-0.1,0.2-0.2,0.3-0.2,0.3c0,0-0.1-0.1-0.1-0.4c0-1.2-0.2-4-0.6-8.5l0.8-0.8
		c0.1-0.1,0.1-0.1,0.1-0.1c0,0,0,0.1,0,0.2C336.3,339.7,336.3,342.4,336.3,346.5z" id="PATH_120" class="area" title=""></path>
</g>
<g id="G_121" class="area" title="">
	<path d="M254.4,366.4c0.1,0.3,0.1,0.6,0.1,0.9c0,0.4-0.1,0.7-0.2,1.1c-0.3,0.7-0.8,1.3-1.8,1.7c-0.8,0.3-1.6,0.5-2.5,0.5
		c-0.9,0-1.6-0.2-2.2-0.6c-0.6-0.5-0.9-1.1-0.9-2c0-0.5,0.1-0.9,0.3-1.5c0.2-0.4,0.3-0.7,0.5-0.9c0.1-0.1,0.2-0.1,0.2-0.1
		c0.1,0,0.1,0,0.1,0.1c0,0,0,0.1,0,0.2c-0.3,0.6-0.4,1.2-0.4,1.7c0,0.5,0.2,0.9,0.5,1.3c0.4,0.5,1.1,0.7,2,0.7c1,0,1.9-0.2,2.6-0.5
		c0.6-0.3,1-0.6,1.2-1c0.1-0.1,0.1-0.3,0.1-0.4c0-0.3-0.1-0.6-0.2-1c-0.1-0.3-0.4-0.8-0.9-1.6l0.4-0.8c0.1-0.1,0.1-0.2,0.1-0.2
		s0.1,0,0.1,0.1C254,364.8,254.3,365.6,254.4,366.4z M251.5,362l-0.8,0.8l-0.8-0.8l0.8-0.8L251.5,362z" id="PATH_122" class="area" title=""></path>
	<path d="M259.7,366.1c0,1.5-0.5,2.8-1.5,3.8c-0.3,0.3-0.5,0.5-0.6,0.5c-0.6,0-1.2-0.1-1.9-0.2c-0.3,0-0.4-0.1-0.4-0.1
		c0,0,0.1-0.1,0.4-0.2c0.8-0.2,1.6-0.7,2.3-1.3c0.3-0.3,0.6-0.5,0.8-0.9c0.3-0.4,0.5-0.8,0.5-1.1v-0.3l-1.3,0
		c-0.9,0-1.4-0.4-1.4-1.1c0-0.5,0.1-1,0.4-1.6c0.3-0.6,0.7-1,1.1-1c0.6,0,1.1,0.4,1.4,1.3C259.6,364.6,259.7,365.3,259.7,366.1z
		 M259,365.3c0-0.3-0.1-0.6-0.3-0.9c-0.2-0.3-0.5-0.5-0.8-0.5c-0.2,0-0.4,0.1-0.5,0.2c-0.2,0.2-0.2,0.3-0.2,0.5c0,0.5,0.3,0.7,1,0.7
		C258.3,365.4,258.6,365.3,259,365.3z" id="PATH_123" class="area" title=""></path>
	<path d="M264.7,366.6c0,1-0.3,1.9-0.9,2.8c-0.5,0.7-1,1.1-1.3,1.1c-0.8,0-1.4,0-2-0.1c-0.2,0-0.3-0.1-0.3-0.1s0.1-0.1,0.3-0.1
		c0.8-0.2,1.6-0.6,2.4-1.2c0.8-0.7,1.3-1.4,1.3-2.1c0-0.4-0.3-1-1-1.7l0.5-0.9c0-0.1,0.1-0.1,0.1-0.1c0,0,0.1,0.1,0.1,0.1
		c0.2,0.3,0.5,0.7,0.6,1.2C264.6,365.8,264.7,366.2,264.7,366.6z" id="PATH_124" class="area" title=""></path>
	<path d="M268.7,366.5H268c-0.7,0-1.3-0.3-1.5-0.9c-0.2-0.4-0.3-1.1-0.3-1.9v-1.9c0-0.9-0.1-2.2-0.2-3.9l0.6-0.7
		c0.1-0.1,0.2-0.1,0.2,0c0.1,0.9,0.2,2.2,0.2,3.9v2.9c0,0.8,0.4,1.2,1.2,1.2h0.5V366.5z" id="PATH_125" class="area" title=""></path>
	<path d="M274.9,357.2c0,0.2-0.2,0.6-0.4,1.1l-2.5,0.8c-1.1,0.4-1.9,0.7-2.3,0.9c0.8,0.8,1.3,1.4,1.6,1.7c0.5,0.7,0.8,1.3,0.9,2
		c0,0.5,0,1-0.2,1.4c-0.3,0.9-1.4,1.3-3.1,1.3h-0.5v-1.2h0.6c0.8,0,1.4,0,1.7-0.1c0.7-0.2,1.1-0.5,1.1-1c0-0.7-0.5-1.5-1.6-2.5
		l-0.1,0.2c-0.1-0.1-0.3-0.3-0.5-0.6c-0.3-0.3-0.4-0.6-0.4-0.6c0-0.2,0-0.4,0.1-0.8c0.1-0.4,0.2-0.6,0.3-0.7
		c0.1-0.1,0.8-0.4,2.1-0.8C272.8,357.9,274,357.5,274.9,357.2z" id="PATH_126" class="area" title=""></path>
</g>
<g id="G_127" class="area" title="">
	<path d="M112.5,435h-0.4c-0.4,0-0.6-0.1-0.8-0.2c0,0.1,0,0.2,0,0.3c0,0.9-0.3,1.8-0.9,2.7c-0.5,0.8-1,1.1-1.3,1.1
		c-0.8,0-1.4,0-2-0.1c-0.2,0-0.3-0.1-0.3-0.1s0.1-0.1,0.3-0.1c0.8-0.2,1.6-0.6,2.4-1.2c0.8-0.7,1.3-1.4,1.3-2.1c0-0.4-0.3-1-1-1.7
		l0.5-0.9c0-0.1,0.1-0.1,0.1-0.1c0,0,0.1,0.1,0.1,0.1c0.3,0.4,0.5,0.7,0.7,0.8c0.3,0.2,0.7,0.4,1.1,0.4h0.3V435z" id="PATH_128" class="area" title=""></path>
	<path d="M118.7,435h-0.5c-0.4,0-0.8,0.1-1.1,0.2c-0.5,0.2-0.8,0.5-0.8,1c0,0.6,0.4,1.1,1.2,1.6l-0.5,1c-0.9-0.3-1.7-0.8-2.3-1.4
		c-0.8-0.7-1.2-1.6-1.2-2.5h-1.4v-1.2h1.3c0-0.8,0.2-1.6,0.6-2.6c0.4-0.9,0.7-1.3,0.9-1.3c0.2,0,0.5,0.4,0.8,1.3
		c0.3,0.8,0.4,1.3,0.4,1.6c0,1.4-0.7,2.1-2.1,2.1c0.1,0.4,0.3,0.8,0.6,1.2c0.3,0.4,0.7,0.7,1.1,0.9c0-0.1,0-0.3,0-0.4
		c0-0.7,0.2-1.3,0.5-1.8c0.5-0.7,1.1-1.1,2-1.1h0.4V435z M115.6,433.4c0-0.2-0.1-0.6-0.3-1.1c-0.2-0.6-0.4-0.8-0.6-0.8
		c-0.1,0-0.3,0.2-0.5,0.7c-0.2,0.5-0.3,1.1-0.3,1.7C115.1,433.8,115.6,433.7,115.6,433.4z" id="PATH_129" class="area" title=""></path>
	<path d="M127.9,435h-0.6c-0.7,0-1.1-0.3-1.4-0.8c-0.2,0.6-0.7,0.8-1.3,0.8c-0.6,0-1-0.3-1.3-0.8c-0.3,0.6-0.7,0.8-1.3,0.8
		c-0.7,0-1.2-0.3-1.5-0.8c-0.4,0.6-0.9,0.8-1.6,0.8h-0.7v-1.2h0.8c0.7,0,1.2-0.4,1.3-1.2c0-0.2,0.1-0.3,0.2-0.3
		c0.1,0,0.1,0.1,0.2,0.3c0.1,0.8,0.5,1.2,1.3,1.2c0.7,0,1.2-0.4,1.2-1.2c0-0.2,0.1-0.3,0.2-0.3c0.1,0,0.2,0.1,0.2,0.3
		c0.1,0.8,0.5,1.2,1,1.2c0.7,0,1.2-0.4,1.2-1.2c0-0.2,0.1-0.3,0.2-0.3c0.1,0,0.2,0.1,0.2,0.3c0.1,0.8,0.5,1.2,1.2,1.2h0.6V435z
		 M123.3,430l-0.7,0.7l-0.7-0.7l0.7-0.7L123.3,430z M124.1,428.4l-0.7,0.7l-0.7-0.7l0.7-0.7L124.1,428.4z M125,430l-0.7,0.7
		l-0.7-0.7l0.7-0.7L125,430z" id="PATH_130" class="area" title=""></path>
	<path d="M132.9,433c0,0.5,0,0.9-0.2,1.3c-0.2,0.5-0.5,0.8-0.8,0.8c-0.5,0-1.3-0.3-2.3-1c-0.3,0.4-0.5,0.6-0.6,0.7
		c-0.3,0.2-0.6,0.3-1,0.3h-0.5v-1.2h0.7c0.4,0,0.8-0.2,1.2-0.7c0.2-0.2,0.5-0.7,0.9-1.3c0.3-0.5,0.7-0.7,1-0.7
		c0.5,0,0.9,0.2,1.2,0.7C132.7,432.3,132.8,432.6,132.9,433z M132.3,433.7c0-0.3-0.1-0.6-0.3-1c-0.2-0.4-0.5-0.6-0.8-0.6
		c-0.3,0-0.6,0.3-1,0.9c0.2,0.2,0.5,0.4,0.9,0.6c0.4,0.2,0.8,0.3,1,0.3C132.2,434,132.3,433.9,132.3,433.7z" id="PATH_131" class="area" title=""></path>
	<path d="M139.1,435h-0.4c-0.4,0-0.6-0.1-0.8-0.2c0,0.1,0,0.2,0,0.3c0,0.9-0.3,1.8-0.9,2.7c-0.5,0.8-1,1.1-1.3,1.1
		c-0.8,0-1.4,0-2-0.1c-0.2,0-0.3-0.1-0.3-0.1s0.1-0.1,0.3-0.1c0.8-0.2,1.6-0.6,2.4-1.2c0.8-0.7,1.3-1.4,1.3-2.1c0-0.4-0.3-1-1-1.7
		l0.5-0.9c0-0.1,0.1-0.1,0.1-0.1c0,0,0.1,0.1,0.1,0.1c0.3,0.4,0.5,0.7,0.7,0.8c0.3,0.2,0.7,0.4,1.1,0.4h0.3V435z" id="PATH_132" class="area" title=""></path>
	<path d="M146.9,432.1l-0.4,0.8c-0.7,0-1.3,0-1.6,0.1c-0.4,0.2-1,0.4-1.8,0.8c-0.8,0.4-1.4,0.7-1.8,0.8c-0.6,0.2-1.3,0.3-1.9,0.3
		h-0.7v-1.2h0.8c0.9,0,1.7-0.2,2.4-0.5l2.3-1c-0.4-0.1-1-0.3-1.8-0.6c-0.7-0.3-1.1-0.4-1.3-0.4c-0.4,0-0.8,0.2-1.2,0.5
		c-0.1,0.1-0.1,0.1-0.2,0.1c-0.1,0-0.1,0-0.1-0.1c0,0,0-0.1,0-0.1c0.3-1,0.9-1.4,1.7-1.4c0.3,0,0.7,0.1,1.1,0.3
		c0.8,0.4,1.4,0.6,1.8,0.8c0.7,0.2,1.5,0.4,2.4,0.4c0.2,0,0.3,0,0.3,0.1C147,431.9,147,432,146.9,432.1z M144.1,427.5l-0.8,0.8
		l-0.8-0.8l0.8-0.8L144.1,427.5z" id="PATH_133" class="area" title=""></path>
</g>
<g id="G_134" class="area" title="">
	<path d="M251.2,451.2c0.1,0.3,0.1,0.6,0.1,0.9c0,0.4-0.1,0.7-0.2,1.1c-0.3,0.7-0.8,1.3-1.8,1.7c-0.8,0.3-1.6,0.5-2.5,0.5
		c-0.9,0-1.6-0.2-2.2-0.6c-0.6-0.5-0.9-1.1-0.9-2c0-0.5,0.1-0.9,0.3-1.5c0.2-0.4,0.3-0.7,0.5-0.9c0.1-0.1,0.2-0.1,0.2-0.1
		c0.1,0,0.1,0,0.1,0.1c0,0,0,0.1,0,0.2c-0.3,0.6-0.4,1.2-0.4,1.7c0,0.5,0.2,0.9,0.5,1.3c0.4,0.5,1.1,0.7,2,0.7c1,0,1.9-0.2,2.6-0.5
		c0.6-0.3,1-0.6,1.2-1c0.1-0.1,0.1-0.3,0.1-0.4c0-0.3-0.1-0.6-0.2-1c-0.1-0.3-0.4-0.8-0.9-1.6l0.4-0.8c0.1-0.1,0.1-0.2,0.1-0.2
		s0.1,0,0.1,0.1C250.8,449.6,251.1,450.4,251.2,451.2z M248.3,446.8l-0.8,0.8l-0.8-0.8l0.8-0.8L248.3,446.8z" id="PATH_135" class="area" title=""></path>
	<path d="M255.3,451.3h-0.7c-0.7,0-1.3-0.3-1.5-0.9c-0.2-0.4-0.3-1.1-0.3-1.9v-1.9c0-0.9-0.1-2.2-0.2-3.9l0.6-0.7
		c0.1-0.1,0.2-0.1,0.2,0c0.1,0.9,0.2,2.2,0.2,3.9v2.9c0,0.8,0.4,1.2,1.2,1.2h0.5V451.3z" id="PATH_136" class="area" title=""></path>
	<path d="M261.3,443.2c0,0.2-0.1,0.5-0.3,1.1c-1.2,0.3-2.7,0.8-4.4,1.3c1.2,1.2,1.9,2.2,2,2.9c0.1,0.5,0,1-0.2,1.5
		c-0.2,0.5-0.6,0.8-1.1,1c-0.4,0.2-1.1,0.2-2,0.2h-0.4v-1.2h0.3c1.9,0,2.9-0.3,2.9-1c0-0.5-0.5-1.3-1.6-2.3l-0.1,0.3
		c-0.1-0.1-0.3-0.3-0.5-0.6c-0.3-0.3-0.4-0.5-0.4-0.6c0-0.3,0.1-0.6,0.4-0.9c0.1-0.1,0.7-0.3,2-0.7
		C259.1,443.8,260.3,443.5,261.3,443.2z M261.1,441.7l-0.2,0.7L256,444l0.2-0.7L261.1,441.7z" id="PATH_137" class="area" title=""></path>
	<path d="M267.1,449.2c0,1.4-0.9,2.1-2.8,2.1c-0.7,0-1.2-0.1-1.5-0.3c-0.4-0.2-0.6-0.7-0.6-1.3c0-0.3,0.1-0.6,0.2-0.9
		c0.1-0.1,0.1-0.2,0.2-0.2c0.1,0,0.1,0.1,0.1,0.3c0,0.1,0,0.2,0,0.3c0,0.4,0.2,0.7,0.6,0.8c0.2,0.1,0.6,0.1,1.1,0.1
		c1.5,0,2.2-0.2,2.2-0.7c0-0.7-0.9-1.7-2.6-2.9l0.3-1c0-0.1,0.1-0.1,0.1-0.1c0,0,0.1,0,0.2,0.1C266.3,446.8,267.1,448.1,267.1,449.2
		z" id="PATH_138" class="area" title=""></path>
	<path d="M271.1,451.3h-0.7c-0.7,0-1.3-0.3-1.5-0.9c-0.2-0.4-0.3-1.1-0.3-1.9v-1.9c0-0.9-0.1-2.2-0.2-3.9l0.6-0.7
		c0.1-0.1,0.2-0.1,0.2,0c0.1,0.9,0.2,2.2,0.2,3.9v2.9c0,0.8,0.4,1.2,1.2,1.2h0.5V451.3z" id="PATH_139" class="area" title=""></path>
	<path d="M279,449.2c0,0.6-0.1,1.1-0.4,1.5c-0.3,0.4-0.8,0.7-1.3,0.7c-0.7,0-1.1-0.3-1.4-0.8c-0.4,0.6-0.8,0.8-1.4,0.8
		c-0.7,0-1.2-0.3-1.5-0.8c-0.4,0.6-0.9,0.8-1.6,0.8h-0.7v-1.2h0.8c0.7,0,1.2-0.4,1.3-1.2c0-0.2,0.1-0.3,0.2-0.3
		c0.1,0,0.1,0.1,0.2,0.3c0.1,0.8,0.5,1.2,1.3,1.2c0.4,0,0.8-0.1,1-0.3c0.1-0.2,0.2-0.4,0.3-0.8c0-0.2,0.1-0.3,0.2-0.3
		c0.1,0,0.1,0.1,0.2,0.3c0.1,0.8,0.5,1.2,1.2,1.2c0.8,0,1.1-0.2,1.1-0.5c0-0.3-0.2-0.7-0.6-1.1l0.5-0.9c0.1-0.1,0.1-0.2,0.2-0.2
		s0.1,0.1,0.2,0.2C278.8,448.2,279,448.7,279,449.2z M275.6,445.5l-0.7,0.7l-0.7-0.7l0.7-0.7L275.6,445.5z M276.5,444l-0.7,0.7
		L275,444l0.7-0.7L276.5,444z M277.4,445.5l-0.7,0.7l-0.7-0.7l0.7-0.7L277.4,445.5z" id="PATH_140" class="area" title=""></path>
</g>
<g id="G_141" class="area" title="">
	<path d="M257.1,533.9c0.1,0.3,0.1,0.6,0.1,0.9c0,0.4-0.1,0.7-0.2,1.1c-0.3,0.7-0.8,1.3-1.8,1.7c-0.8,0.3-1.6,0.5-2.5,0.5
		c-0.9,0-1.6-0.2-2.2-0.6c-0.6-0.5-0.9-1.1-0.9-2c0-0.5,0.1-0.9,0.3-1.5c0.2-0.4,0.3-0.7,0.5-0.9c0.1-0.1,0.2-0.1,0.2-0.1
		c0.1,0,0.1,0,0.1,0.1c0,0,0,0.1,0,0.2c-0.3,0.6-0.4,1.2-0.4,1.7c0,0.5,0.2,0.9,0.5,1.3c0.4,0.5,1.1,0.7,2,0.7c1,0,1.9-0.2,2.6-0.5
		c0.6-0.3,1-0.6,1.2-1c0.1-0.1,0.1-0.3,0.1-0.4c0-0.3-0.1-0.6-0.2-1c-0.1-0.3-0.4-0.8-0.9-1.6l0.4-0.8c0.1-0.1,0.1-0.2,0.1-0.2
		s0.1,0,0.1,0.1C256.7,532.3,257,533.1,257.1,533.9z M254.2,529.5l-0.8,0.8l-0.8-0.8l0.8-0.8L254.2,529.5z" id="PATH_142" class="area" title=""></path>
	<path d="M259.6,532.8c0,0.4-0.1,0.8-0.3,1.1c-0.1,0.2-0.2,0.3-0.2,0.3c0,0-0.1-0.1-0.1-0.4c0-1.2-0.2-4-0.6-8.5l0.8-0.8
		c0.1-0.1,0.1-0.1,0.1-0.1c0,0,0,0.1,0,0.2C259.5,525.9,259.6,528.6,259.6,532.8z" id="PATH_143" class="area" title=""></path>
	<path d="M265.7,531.9c0,1.4-0.9,2.1-2.8,2.1c-0.7,0-1.2-0.1-1.5-0.3c-0.4-0.2-0.6-0.7-0.6-1.3c0-0.3,0.1-0.6,0.2-0.9
		c0.1-0.1,0.1-0.2,0.2-0.2c0.1,0,0.1,0.1,0.1,0.3c0,0.1,0,0.2,0,0.3c0,0.4,0.2,0.7,0.6,0.8c0.2,0.1,0.6,0.1,1.1,0.1
		c1.5,0,2.2-0.2,2.2-0.7c0-0.7-0.9-1.7-2.6-2.9l0.3-1c0-0.1,0.1-0.1,0.1-0.1c0,0,0.1,0,0.2,0.1C264.8,529.5,265.7,530.8,265.7,531.9
		z" id="PATH_144" class="area" title=""></path>
	<path d="M269.7,534H269c-0.7,0-1.3-0.3-1.5-0.9c-0.2-0.4-0.3-1.1-0.3-1.9v-1.9c0-0.9-0.1-2.2-0.2-3.9l0.6-0.7
		c0.1-0.1,0.2-0.1,0.2,0c0.1,0.9,0.2,2.2,0.2,3.9v2.9c0,0.8,0.4,1.2,1.2,1.2h0.5V534z" id="PATH_145" class="area" title=""></path>
	<path d="M272,532c0,1.3-0.7,2-2,2h-0.8v-1.2h0.7c1,0,1.5-0.2,1.5-0.5c0-0.3-0.2-0.7-0.7-1.2l0.4-1c0-0.1,0.1-0.1,0.1-0.1
		c0,0,0.1,0.1,0.2,0.2C271.8,530.7,272,531.4,272,532z M271.7,536.2l-0.8,0.8l-0.8-0.8l0.8-0.8L271.7,536.2z" id="PATH_146" class="area" title=""></path>
	<path d="M276.1,523.3c-0.4,0.4-1,0.5-1.6,0.5c-0.1,0-0.2,0-0.4,0s-0.3,0-0.4,0c-0.1,0-0.2,0.1-0.3,0.2s-0.2,0.2-0.2,0.2
		c-0.1,0-0.1-0.1-0.1-0.2c0-0.1,0.1-0.3,0.2-0.5c0.1-0.3,0.2-0.4,0.3-0.4c0.1,0,0.3,0,0.6,0.1s0.5,0.1,0.6,0.1c0.6,0,1,0,1.3-0.1
		c0.2,0,0.3-0.1,0.3-0.1c0,0,0.1,0,0.1,0C276.3,523.1,276.2,523.2,276.1,523.3z M275.4,532.8c0,0.4-0.1,0.8-0.3,1.1
		c-0.1,0.2-0.2,0.3-0.2,0.3c0,0-0.1-0.1-0.1-0.4c0-1.2-0.2-4-0.6-8.5l0.8-0.8c0.1-0.1,0.1-0.1,0.1-0.1c0,0,0,0.1,0,0.2
		C275.4,525.9,275.4,528.6,275.4,532.8z" id="PATH_147" class="area" title=""></path>
</g>
<g id="G_148" class="area" title="">
	<path d="M327.3,453.3h-0.4c-0.4,0-0.6-0.1-0.8-0.2c0,0.1,0,0.2,0,0.3c0,0.9-0.3,1.8-0.9,2.7c-0.5,0.8-1,1.1-1.3,1.1
		c-0.8,0-1.4,0-2-0.1c-0.2,0-0.3-0.1-0.3-0.1s0.1-0.1,0.3-0.1c0.8-0.2,1.6-0.6,2.4-1.2c0.8-0.7,1.3-1.4,1.3-2.1c0-0.4-0.3-1-1-1.7
		l0.5-0.9c0-0.1,0.1-0.1,0.1-0.1c0,0,0.1,0.1,0.1,0.1c0.3,0.4,0.5,0.7,0.7,0.8c0.3,0.2,0.7,0.4,1.1,0.4h0.3V453.3z" id="PATH_149" class="area" title=""></path>
	<path d="M333.5,453.3H333c-0.4,0-0.8,0.1-1.1,0.2c-0.5,0.2-0.8,0.5-0.8,1c0,0.6,0.4,1.1,1.2,1.6l-0.5,1c-0.9-0.3-1.7-0.8-2.3-1.4
		c-0.8-0.7-1.2-1.6-1.2-2.5h-1.4v-1.2h1.3c0-0.8,0.2-1.6,0.6-2.6c0.4-0.9,0.7-1.3,0.9-1.3c0.2,0,0.5,0.4,0.8,1.3
		c0.3,0.8,0.4,1.3,0.4,1.6c0,1.4-0.7,2.1-2.1,2.1c0.1,0.4,0.3,0.8,0.6,1.2s0.7,0.7,1.1,0.9c0-0.1,0-0.3,0-0.4c0-0.7,0.2-1.3,0.5-1.8
		c0.5-0.7,1.1-1.1,2-1.1h0.4V453.3z M330.5,451.7c0-0.2-0.1-0.6-0.3-1.1c-0.2-0.6-0.4-0.8-0.6-0.8c-0.1,0-0.3,0.2-0.5,0.7
		c-0.2,0.5-0.3,1.1-0.3,1.7C329.9,452.1,330.5,452,330.5,451.7z" id="PATH_150" class="area" title=""></path>
	<path d="M342.8,453.3h-0.6c-0.7,0-1.1-0.3-1.4-0.8c-0.2,0.6-0.7,0.8-1.3,0.8c-0.6,0-1-0.3-1.3-0.8c-0.3,0.6-0.7,0.8-1.3,0.8
		c-0.7,0-1.2-0.3-1.5-0.8c-0.4,0.6-0.9,0.8-1.6,0.8h-0.7v-1.2h0.8c0.7,0,1.2-0.4,1.3-1.2c0-0.2,0.1-0.3,0.2-0.3
		c0.1,0,0.1,0.1,0.2,0.3c0.1,0.8,0.5,1.2,1.3,1.2c0.7,0,1.2-0.4,1.2-1.2c0-0.2,0.1-0.3,0.2-0.3c0.1,0,0.2,0.1,0.2,0.3
		c0.1,0.8,0.5,1.2,1,1.2c0.7,0,1.2-0.4,1.2-1.2c0-0.2,0.1-0.3,0.2-0.3c0.1,0,0.2,0.1,0.2,0.3c0.1,0.8,0.5,1.2,1.2,1.2h0.6V453.3z
		 M338.1,448.2l-0.7,0.7l-0.7-0.7l0.7-0.7L338.1,448.2z M339,446.7l-0.7,0.7l-0.7-0.7l0.7-0.7L339,446.7z M339.9,448.2l-0.7,0.7
		l-0.7-0.7l0.7-0.7L339.9,448.2z" id="PATH_151" class="area" title=""></path>
	<path d="M348.9,451.2c0,0.4-0.1,0.8-0.4,1.2c-0.3,0.5-0.6,0.7-1,0.7c-0.3,0-1-0.2-2.1-0.7c-0.9,0.6-1.7,0.8-2.4,0.8h-0.5v-1.2h0.6
		c0.4,0,0.8,0,1.2-0.1c-0.4-0.3-0.6-0.7-0.6-1.2c0-0.6,0.4-1.3,1.3-2l-0.7-0.3c0.2-0.2,0.5-0.5,0.9-0.9c0.9,0.5,1.7,0.9,2.4,1.5
		C348.4,449.8,348.9,450.6,348.9,451.2z M346.2,450.4c0-0.3-0.1-0.5-0.2-0.7c-0.1-0.3-0.3-0.4-0.6-0.4c-0.3,0-0.5,0.1-0.8,0.3
		c-0.3,0.2-0.5,0.5-0.5,0.7c0,0.4,0.4,0.8,1.1,1c0.2-0.1,0.4-0.2,0.6-0.3C346.1,450.9,346.2,450.7,346.2,450.4z M348.3,451.6
		c0-0.3-0.2-0.6-0.6-1c-0.3-0.3-0.6-0.6-0.9-0.7c0,0.8-0.2,1.4-0.7,1.8c0.8,0.3,1.4,0.4,1.6,0.4C348.1,452.1,348.3,452,348.3,451.6z
		" id="PATH_152" class="area" title=""></path>
	<path d="M352.8,453.3h-0.7c-0.7,0-1.3-0.3-1.5-0.9c-0.2-0.4-0.3-1.1-0.3-1.9v-1.9c0-0.9-0.1-2.2-0.2-3.9l0.6-0.7
		c0.1-0.1,0.2-0.1,0.2,0c0.1,0.9,0.2,2.2,0.2,3.9v2.9c0,0.8,0.4,1.2,1.2,1.2h0.5V453.3z" id="PATH_153" class="area" title=""></path>
	<path d="M357.8,451.3c0,0.5,0,0.9-0.2,1.3c-0.2,0.5-0.5,0.8-0.8,0.8c-0.5,0-1.3-0.3-2.3-1c-0.3,0.4-0.5,0.6-0.6,0.7
		c-0.3,0.2-0.6,0.3-1,0.3h-0.5v-1.2h0.7c0.4,0,0.8-0.2,1.2-0.7c0.2-0.2,0.5-0.7,0.9-1.3c0.3-0.5,0.7-0.7,1-0.7
		c0.5,0,0.9,0.2,1.2,0.7C357.6,450.6,357.7,450.9,357.8,451.3z M357.2,452c0-0.3-0.1-0.6-0.3-1c-0.2-0.4-0.5-0.6-0.8-0.6
		c-0.3,0-0.6,0.3-1,0.9c0.2,0.2,0.5,0.4,0.9,0.6s0.8,0.3,1,0.3C357.1,452.3,357.2,452.2,357.2,452z" id="PATH_154" class="area" title=""></path>
</g>
<g id="G_155" class="area" title="">
	<path d="M417.4,516.4c0.1,0.3,0.1,0.6,0.1,0.9c0,0.4-0.1,0.7-0.2,1.1c-0.3,0.7-0.8,1.3-1.8,1.7c-0.8,0.3-1.6,0.5-2.5,0.5
		c-0.9,0-1.6-0.2-2.2-0.6c-0.6-0.5-0.9-1.1-0.9-2c0-0.5,0.1-0.9,0.3-1.5c0.2-0.4,0.3-0.7,0.5-0.9c0.1-0.1,0.2-0.1,0.2-0.1
		c0.1,0,0.1,0,0.1,0.1c0,0,0,0.1,0,0.2c-0.3,0.6-0.4,1.2-0.4,1.7c0,0.5,0.2,0.9,0.5,1.3c0.4,0.5,1.1,0.7,2,0.7c1,0,1.9-0.2,2.6-0.5
		c0.6-0.3,1-0.6,1.2-1c0.1-0.1,0.1-0.3,0.1-0.4c0-0.3-0.1-0.6-0.2-1c-0.1-0.3-0.4-0.8-0.9-1.6l0.4-0.8c0.1-0.1,0.1-0.2,0.1-0.2
		s0.1,0,0.1,0.1C417,514.8,417.3,515.6,417.4,516.4z M414.5,512l-0.8,0.8l-0.8-0.8l0.8-0.8L414.5,512z" id="PATH_156" class="area" title=""></path>
	<path d="M421.5,516.5h-0.7c-0.7,0-1.3-0.3-1.5-0.9c-0.2-0.4-0.3-1.1-0.3-1.9v-1.9c0-0.9-0.1-2.2-0.2-3.9l0.6-0.7
		c0.1-0.1,0.2-0.1,0.2,0c0.1,0.9,0.2,2.2,0.2,3.9v2.9c0,0.8,0.4,1.2,1.2,1.2h0.5V516.5z" id="PATH_157" class="area" title=""></path>
	<path d="M430.3,516.5h-1c-1.3,0-2-0.7-2-2c0-0.2,0-0.3,0-0.5c-0.5,0.2-1.1,0.6-1.9,1.1c-0.8,0.5-1.3,0.8-1.7,1
		c-0.6,0.3-1.3,0.4-1.9,0.4H421v-1.2h0.8c0.8,0,1.7-0.2,2.5-0.6c0.4-0.2,1.1-0.6,2.2-1.1c-0.2,0-0.8-0.2-1.8-0.4
		c-0.7-0.2-1.1-0.3-1.2-0.3c-0.4,0-0.8,0.2-1.2,0.5c-0.1,0.1-0.1,0.1-0.2,0.1c-0.1,0-0.1,0-0.1-0.1c0,0,0-0.1,0-0.1
		c0.3-1,0.9-1.5,1.7-1.5c0.3,0,0.7,0.1,1.2,0.2c0.7,0.2,1.3,0.4,1.8,0.5c0.7,0.1,1.5,0.2,2.4,0.2c0.2,0,0.2,0,0.3,0s0,0.1,0,0.2
		l-0.3,0.9c-0.6,0-1,0-1.2,0.1c0,0.5,0.1,0.8,0.2,0.9c0.2,0.3,0.6,0.5,1.3,0.5h1V516.5z M426.4,518.5l-0.8,0.8l-0.8-0.8l0.8-0.8
		L426.4,518.5z" id="PATH_158" class="area" title=""></path>
	<path d="M432.6,514.5c0,1.3-0.7,2-2,2h-0.8v-1.2h0.7c1,0,1.5-0.2,1.5-0.5c0-0.3-0.2-0.7-0.7-1.2l0.4-1c0-0.1,0.1-0.1,0.1-0.1
		s0.1,0.1,0.2,0.2C432.4,513.2,432.6,513.9,432.6,514.5z M431.8,518.7l-0.8,0.8l-0.8-0.8l0.8-0.8L431.8,518.7z M433.5,518.7
		l-0.8,0.8l-0.8-0.8l0.8-0.8L433.5,518.7z" id="PATH_159" class="area" title=""></path>
	<path d="M441.3,516.5h-0.4c-0.4,0-0.7-0.1-1-0.4c-0.2-0.2-0.4-0.4-0.6-0.8c-0.2,0.4-0.5,0.7-0.8,0.9c-0.4,0.2-0.9,0.3-1.7,0.3
		c-1.4,0-2.1-0.5-2.1-1.5c0-0.3,0.1-0.7,0.3-1c0.1-0.1,0.1-0.2,0.2-0.2c0.1,0,0.1,0.1,0.1,0.2c0,0.1,0,0.1,0,0.3s0,0.2,0,0.3
		c0,0.6,0.5,0.9,1.5,0.9c1.4,0,2.1-0.3,2.1-0.8c0-0.3-0.4-1.4-1.2-3.3l0.4-0.8c0.1-0.1,0.1-0.2,0.1-0.2c0,0,0.1,0.1,0.1,0.2
		c0.3,0.8,0.8,2,1.4,3.6c0.3,0.8,0.7,1.2,1.3,1.2h0.3V516.5z" id="PATH_160" class="area" title=""></path>
	<path d="M446.3,516.5h-0.8c-0.9,0-1.5-0.3-1.9-0.9c-0.3,0.6-1,0.9-2.1,0.9h-0.6v-1.2h0.9c1,0,1.5-0.4,1.6-1.1
		c0-0.3,0.1-0.5,0.2-0.5s0.2,0.2,0.2,0.5c0.1,0.7,0.6,1.1,1.5,1.1h0.9V516.5z M444.3,511.3l-0.8,0.8l-0.8-0.8l0.8-0.8L444.3,511.3z" id="PATH_161" class="area" title=""></path>
	<path d="M452.4,514.5c0,0.4-0.1,0.8-0.4,1.2c-0.3,0.5-0.6,0.7-1,0.7c-0.3,0-1-0.2-2.1-0.7c-0.9,0.6-1.7,0.8-2.4,0.8h-0.5v-1.2h0.6
		c0.4,0,0.8,0,1.2-0.1c-0.4-0.3-0.6-0.7-0.6-1.2c0-0.6,0.4-1.3,1.3-2l-0.7-0.3c0.2-0.2,0.5-0.5,0.9-0.9c0.9,0.5,1.7,0.9,2.4,1.5
		C451.9,513.1,452.4,513.8,452.4,514.5z M449.7,513.7c0-0.3-0.1-0.5-0.2-0.7c-0.1-0.3-0.3-0.4-0.6-0.4c-0.3,0-0.5,0.1-0.8,0.3
		c-0.3,0.2-0.5,0.5-0.5,0.7c0,0.4,0.4,0.8,1.1,1c0.2-0.1,0.4-0.2,0.6-0.3C449.6,514.1,449.7,513.9,449.7,513.7z M451.8,514.9
		c0-0.3-0.2-0.6-0.6-1c-0.3-0.3-0.6-0.6-0.9-0.7c0,0.8-0.2,1.4-0.7,1.8c0.8,0.3,1.4,0.4,1.6,0.4
		C451.6,515.3,451.8,515.2,451.8,514.9z" id="PATH_162" class="area" title=""></path>
</g>
<g id="G_163" class="area" title="">
	<path d="M505.4,476.9c0.1,0.3,0.1,0.6,0.1,0.9c0,0.4-0.1,0.7-0.2,1.1c-0.3,0.7-0.8,1.3-1.8,1.7c-0.8,0.3-1.6,0.5-2.5,0.5
		c-0.9,0-1.6-0.2-2.2-0.6c-0.6-0.5-0.9-1.1-0.9-2c0-0.5,0.1-0.9,0.3-1.5c0.2-0.4,0.3-0.7,0.5-0.9c0.1-0.1,0.2-0.1,0.2-0.1
		c0.1,0,0.1,0,0.1,0.1c0,0,0,0.1,0,0.2c-0.3,0.6-0.4,1.2-0.4,1.7c0,0.5,0.2,0.9,0.5,1.3c0.4,0.5,1.1,0.7,2,0.7c1,0,1.9-0.2,2.6-0.5
		c0.6-0.3,1-0.6,1.2-1c0.1-0.1,0.1-0.3,0.1-0.4c0-0.3-0.1-0.6-0.2-1c-0.1-0.3-0.4-0.8-0.9-1.6l0.4-0.8c0.1-0.1,0.1-0.2,0.1-0.2
		s0.1,0,0.1,0.1C505,475.3,505.3,476.1,505.4,476.9z M502.5,472.5l-0.8,0.8l-0.8-0.8l0.8-0.8L502.5,472.5z" id="PATH_164" class="area" title=""></path>
	<path d="M509.5,477h-0.7c-0.7,0-1.3-0.3-1.5-0.9c-0.2-0.4-0.3-1.1-0.3-1.9v-1.9c0-0.9-0.1-2.2-0.2-3.9l0.6-0.7
		c0.1-0.1,0.2-0.1,0.2,0c0.1,0.9,0.2,2.2,0.2,3.9v2.9c0,0.8,0.4,1.2,1.2,1.2h0.5V477z" id="PATH_165" class="area" title=""></path>
	<path d="M515.7,477h-0.5c-0.4,0-0.8,0.1-1.1,0.2c-0.5,0.2-0.8,0.5-0.8,1c0,0.6,0.4,1.1,1.2,1.6l-0.5,1c-0.9-0.3-1.7-0.8-2.3-1.4
		c-0.8-0.7-1.2-1.6-1.2-2.5h-1.4v-1.2h1.3c0-0.8,0.2-1.6,0.6-2.6c0.4-0.9,0.7-1.3,0.9-1.3c0.2,0,0.5,0.4,0.8,1.3
		c0.3,0.8,0.4,1.3,0.4,1.6c0,1.4-0.7,2.1-2.1,2.1c0.1,0.4,0.3,0.8,0.6,1.2s0.7,0.7,1.1,0.9c0-0.1,0-0.3,0-0.4c0-0.7,0.2-1.3,0.5-1.8
		c0.5-0.7,1.1-1.1,2-1.1h0.4V477z M512.7,475.4c0-0.2-0.1-0.6-0.3-1.1c-0.2-0.6-0.4-0.8-0.6-0.8c-0.1,0-0.3,0.2-0.5,0.7
		c-0.2,0.5-0.3,1.1-0.3,1.7C512.1,475.8,512.7,475.7,512.7,475.4z" id="PATH_166" class="area" title=""></path>
	<path d="M520.6,477h-0.8c-0.9,0-1.5-0.3-1.9-0.9c-0.3,0.6-1,0.9-2.1,0.9h-0.6v-1.2h0.9c1,0,1.5-0.4,1.6-1.1c0-0.3,0.1-0.5,0.2-0.5
		s0.2,0.2,0.2,0.5c0.1,0.7,0.6,1.1,1.5,1.1h0.9V477z M518.4,479.2l-0.8,0.8l-0.8-0.8l0.8-0.8L518.4,479.2z" id="PATH_167" class="area" title=""></path>
	<path d="M526.8,477h-0.5c-0.4,0-0.8,0.1-1.1,0.2c-0.5,0.2-0.8,0.5-0.8,1c0,0.6,0.4,1.1,1.2,1.6l-0.5,1c-0.9-0.3-1.7-0.8-2.3-1.4
		c-0.8-0.7-1.2-1.6-1.2-2.5h-1.4v-1.2h1.3c0-0.8,0.2-1.6,0.6-2.6c0.4-0.9,0.7-1.3,0.9-1.3c0.2,0,0.5,0.4,0.8,1.3
		c0.3,0.8,0.4,1.3,0.4,1.6c0,1.4-0.7,2.1-2.1,2.1c0.1,0.4,0.3,0.8,0.6,1.2s0.7,0.7,1.1,0.9c0-0.1,0-0.3,0-0.4c0-0.7,0.2-1.3,0.5-1.8
		c0.5-0.7,1.1-1.1,2-1.1h0.4V477z M523.8,475.4c0-0.2-0.1-0.6-0.3-1.1c-0.2-0.6-0.4-0.8-0.6-0.8c-0.1,0-0.3,0.2-0.5,0.7
		c-0.2,0.5-0.3,1.1-0.3,1.7C523.2,475.8,523.8,475.7,523.8,475.4z" id="PATH_168" class="area" title=""></path>
	<path d="M529.2,475c0,1.3-0.7,2-2,2h-0.8v-1.2h0.7c1,0,1.5-0.2,1.5-0.5c0-0.3-0.2-0.7-0.7-1.2l0.4-1c0-0.1,0.1-0.1,0.1-0.1
		s0.1,0.1,0.2,0.2C529,473.7,529.2,474.4,529.2,475z M528.9,479.2l-0.8,0.8l-0.8-0.8l0.8-0.8L528.9,479.2z" id="PATH_169" class="area" title=""></path>
</g>
<g id="G_170" class="area" title="">
	<path d="M407.1,441.5h-0.7c-0.9,0-1.4-0.5-1.6-1.6c-0.5,0.5-0.7,0.7-0.8,0.7h-0.9c-0.3,0-0.6,0-0.9-0.1c-0.4-0.1-0.6-0.3-0.6-0.5
		c0-0.8,0.3-1.4,0.8-1.8c0.4-0.3,1-0.6,1.8-1l-0.2-1l0.7-0.8c0,0.1,0.3,1.2,0.7,3.3c0.1,0.6,0.3,1.1,0.4,1.3
		c0.2,0.3,0.4,0.4,0.8,0.4h0.7V441.5z M404.6,439.5l-0.3-1.6c-0.3,0.1-0.7,0.3-1.2,0.5c-0.6,0.3-1,0.6-1,0.7c0,0.2,0.2,0.3,0.7,0.4
		c0.3,0.1,0.6,0.1,0.9,0.1C404.1,439.5,404.4,439.5,404.6,439.5z" id="PATH_171" class="area" title=""></path>
	<path d="M409.5,439.5c0,1.3-0.7,2-2,2h-0.8v-1.2h0.7c1,0,1.5-0.2,1.5-0.5c0-0.3-0.2-0.7-0.7-1.2l0.4-1c0-0.1,0.1-0.1,0.1-0.1
		s0.1,0.1,0.2,0.2C409.3,438.2,409.5,438.9,409.5,439.5z M408.7,443.7l-0.8,0.8l-0.8-0.8l0.8-0.8L408.7,443.7z M410.4,443.7
		l-0.8,0.8l-0.8-0.8l0.8-0.8L410.4,443.7z" id="PATH_172" class="area" title=""></path>
	<path d="M418.3,441.5h-0.4c-0.4,0-0.7-0.1-1-0.4c-0.2-0.2-0.4-0.4-0.6-0.8c-0.2,0.4-0.5,0.7-0.8,0.9c-0.4,0.2-0.9,0.3-1.7,0.3
		c-1.4,0-2.1-0.5-2.1-1.5c0-0.3,0.1-0.7,0.3-1c0.1-0.1,0.1-0.2,0.2-0.2c0.1,0,0.1,0.1,0.1,0.2c0,0.1,0,0.1,0,0.3s0,0.2,0,0.3
		c0,0.6,0.5,0.9,1.5,0.9c1.4,0,2.1-0.3,2.1-0.8c0-0.3-0.4-1.4-1.2-3.3l0.4-0.8c0.1-0.1,0.1-0.2,0.1-0.2c0,0,0.1,0.1,0.1,0.2
		c0.3,0.8,0.8,2,1.4,3.6c0.3,0.8,0.7,1.2,1.3,1.2h0.3V441.5z" id="PATH_173" class="area" title=""></path>
	<path d="M423.2,441.5h-0.8c-0.9,0-1.5-0.3-1.9-0.9c-0.3,0.6-1,0.9-2.1,0.9h-0.6v-1.2h0.9c1,0,1.5-0.4,1.6-1.1
		c0-0.3,0.1-0.5,0.2-0.5s0.2,0.2,0.2,0.5c0.1,0.7,0.6,1.1,1.5,1.1h0.9V441.5z M419.9,443.7l-0.8,0.8l-0.8-0.8l0.8-0.8L419.9,443.7z
		 M421.6,443.7l-0.8,0.8l-0.8-0.8l0.8-0.8L421.6,443.7z" id="PATH_174" class="area" title=""></path>
	<path d="M428.2,439.5c0,0.5,0,0.9-0.2,1.3c-0.2,0.5-0.5,0.8-0.8,0.8c-0.5,0-1.3-0.3-2.3-1c-0.3,0.4-0.5,0.6-0.6,0.7
		c-0.3,0.2-0.6,0.3-1,0.3h-0.5v-1.2h0.7c0.4,0,0.8-0.2,1.2-0.7c0.2-0.2,0.5-0.7,0.9-1.3c0.3-0.5,0.7-0.7,1-0.7
		c0.5,0,0.9,0.2,1.2,0.7C428,438.8,428.1,439.1,428.2,439.5z M427.6,440.2c0-0.3-0.1-0.6-0.3-1c-0.2-0.4-0.5-0.6-0.8-0.6
		c-0.3,0-0.6,0.3-1,0.9c0.2,0.2,0.5,0.4,0.9,0.6s0.8,0.3,1,0.3C427.5,440.5,427.6,440.4,427.6,440.2z" id="PATH_175" class="area" title=""></path>
	<path d="M430.5,440.3c0,0.4-0.1,0.8-0.3,1.1c-0.1,0.2-0.2,0.3-0.2,0.3c0,0-0.1-0.1-0.1-0.4c0-1.2-0.2-4-0.6-8.5l0.8-0.8
		c0.1-0.1,0.1-0.1,0.1-0.1c0,0,0,0.1,0,0.2C430.5,433.4,430.5,436.1,430.5,440.3z" id="PATH_176" class="area" title=""></path>
</g>
<g id="G_177" class="area" title="">
	<path d="M371,395.1h-0.4c-0.4,0-0.6-0.1-0.8-0.2c0,0.1,0,0.2,0,0.3c0,0.9-0.3,1.8-0.9,2.7c-0.5,0.8-1,1.1-1.3,1.1
		c-0.8,0-1.4,0-2-0.1c-0.2,0-0.3-0.1-0.3-0.1s0.1-0.1,0.3-0.1c0.8-0.2,1.6-0.6,2.4-1.2c0.8-0.7,1.3-1.4,1.3-2.1c0-0.4-0.3-1-1-1.7
		l0.5-0.9c0-0.1,0.1-0.1,0.1-0.1c0,0,0.1,0.1,0.1,0.1c0.3,0.4,0.5,0.7,0.7,0.8c0.3,0.2,0.7,0.4,1.1,0.4h0.3V395.1z" id="PATH_178" class="area" title=""></path>
	<path d="M375.9,395.1h-0.8c-0.9,0-1.5-0.3-1.9-0.9c-0.3,0.6-1,0.9-2.1,0.9h-0.6v-1.2h0.9c1,0,1.5-0.4,1.6-1.1
		c0-0.3,0.1-0.5,0.2-0.5s0.2,0.2,0.2,0.5c0.1,0.7,0.6,1.1,1.5,1.1h0.9V395.1z M372.6,397.3l-0.8,0.8l-0.8-0.8l0.8-0.8L372.6,397.3z
		 M374.3,397.3l-0.8,0.8l-0.8-0.8l0.8-0.8L374.3,397.3z" id="PATH_179" class="area" title=""></path>
	<path d="M385.1,395.1h-0.6c-0.7,0-1.1-0.3-1.4-0.8c-0.2,0.6-0.7,0.8-1.3,0.8c-0.6,0-1-0.3-1.3-0.8c-0.3,0.6-0.7,0.8-1.3,0.8
		c-0.7,0-1.2-0.3-1.5-0.8c-0.4,0.6-0.9,0.8-1.6,0.8h-0.7v-1.2h0.8c0.7,0,1.2-0.4,1.3-1.2c0-0.2,0.1-0.3,0.2-0.3
		c0.1,0,0.1,0.1,0.2,0.3c0.1,0.8,0.5,1.2,1.3,1.2c0.7,0,1.2-0.4,1.2-1.2c0-0.2,0.1-0.3,0.2-0.3c0.1,0,0.2,0.1,0.2,0.3
		c0.1,0.8,0.5,1.2,1,1.2c0.7,0,1.2-0.4,1.2-1.2c0-0.2,0.1-0.3,0.2-0.3c0.1,0,0.2,0.1,0.2,0.3c0.1,0.8,0.5,1.2,1.2,1.2h0.6V395.1z
		 M380.5,390.1l-0.7,0.7L379,390l0.7-0.7L380.5,390.1z M381.3,388.5l-0.7,0.7l-0.7-0.7l0.7-0.7L381.3,388.5z M382.2,390l-0.7,0.7
		l-0.7-0.7l0.7-0.7L382.2,390z" id="PATH_180" class="area" title=""></path>
	<path d="M390.1,393.1c0,0.5,0,0.9-0.2,1.3c-0.2,0.5-0.5,0.8-0.8,0.8c-0.5,0-1.3-0.3-2.3-1c-0.3,0.4-0.5,0.6-0.6,0.7
		c-0.3,0.2-0.6,0.3-1,0.3h-0.5v-1.2h0.7c0.4,0,0.8-0.2,1.2-0.7c0.2-0.2,0.5-0.7,0.9-1.3c0.3-0.5,0.7-0.7,1-0.7
		c0.5,0,0.9,0.2,1.2,0.7C389.9,392.4,390,392.7,390.1,393.1z M389.5,393.8c0-0.3-0.1-0.6-0.3-1c-0.2-0.4-0.5-0.6-0.8-0.6
		c-0.3,0-0.6,0.3-1,0.9c0.2,0.2,0.5,0.4,0.9,0.6s0.8,0.3,1,0.3C389.4,394.1,389.5,394,389.5,393.8z" id="PATH_181" class="area" title=""></path>
	<path d="M392.4,393.8c0,0.4-0.1,0.8-0.3,1.1c-0.1,0.2-0.2,0.3-0.2,0.3c0,0-0.1-0.1-0.1-0.4c0-1.2-0.2-4-0.6-8.5l0.8-0.8
		c0.1-0.1,0.1-0.1,0.1-0.1c0,0,0,0.1,0,0.2C392.4,387,392.4,389.7,392.4,393.8z" id="PATH_182" class="area" title=""></path>
	<path d="M397.5,395.2c0,1-0.3,1.9-0.9,2.8c-0.5,0.7-1,1.1-1.3,1.1c-0.8,0-1.4,0-2-0.1c-0.2,0-0.3-0.1-0.3-0.1s0.1-0.1,0.3-0.1
		c0.8-0.2,1.6-0.6,2.4-1.2c0.8-0.7,1.3-1.4,1.3-2.1c0-0.4-0.3-1-1-1.7l0.5-0.9c0-0.1,0.1-0.1,0.1-0.1c0,0,0.1,0.1,0.1,0.1
		c0.2,0.3,0.5,0.7,0.6,1.2C397.4,394.4,397.5,394.8,397.5,395.2z" id="PATH_183" class="area" title=""></path>
</g>
<g id="G_184" class="area" title="">
	<path d="M412.5,347.8H412c-0.4,0-0.6-0.1-0.8-0.2c0,0.1,0,0.2,0,0.3c0,0.9-0.3,1.8-0.9,2.7c-0.5,0.8-1,1.1-1.3,1.1
		c-0.8,0-1.4,0-2-0.1c-0.2,0-0.3-0.1-0.3-0.1s0.1-0.1,0.3-0.1c0.8-0.2,1.6-0.6,2.4-1.2c0.8-0.7,1.3-1.4,1.3-2.1c0-0.4-0.3-1-1-1.7
		l0.5-0.9c0-0.1,0.1-0.1,0.1-0.1c0,0,0.1,0.1,0.1,0.1c0.3,0.4,0.5,0.7,0.7,0.8c0.3,0.2,0.7,0.4,1.1,0.4h0.3V347.8z M410.5,342.5
		l-0.8,0.8l-0.8-0.8l0.8-0.8L410.5,342.5z" id="PATH_185" class="area" title=""></path>
	<path d="M417.4,345.8c0,0.5,0,0.9-0.2,1.3c-0.2,0.5-0.5,0.8-0.8,0.8c-0.5,0-1.3-0.3-2.3-1c-0.3,0.4-0.5,0.6-0.6,0.7
		c-0.3,0.2-0.6,0.3-1,0.3h-0.5v-1.2h0.7c0.4,0,0.8-0.2,1.2-0.7c0.2-0.2,0.5-0.7,0.9-1.3c0.3-0.5,0.7-0.7,1-0.7
		c0.5,0,0.9,0.2,1.2,0.7C417.3,345.1,417.4,345.4,417.4,345.8z M416.8,346.5c0-0.3-0.1-0.6-0.3-1c-0.2-0.4-0.5-0.6-0.8-0.6
		c-0.3,0-0.6,0.3-1,0.9c0.2,0.2,0.5,0.4,0.9,0.6s0.8,0.3,1,0.3C416.7,346.8,416.8,346.7,416.8,346.5z" id="PATH_186" class="area" title=""></path>
	<path d="M423.6,347.8h-0.4c-0.4,0-0.6-0.1-0.8-0.2c0,0.1,0,0.2,0,0.3c0,0.9-0.3,1.8-0.9,2.7c-0.5,0.8-1,1.1-1.3,1.1
		c-0.8,0-1.4,0-2-0.1c-0.2,0-0.3-0.1-0.3-0.1s0.1-0.1,0.3-0.1c0.8-0.2,1.6-0.6,2.4-1.2c0.8-0.7,1.3-1.4,1.3-2.1c0-0.4-0.3-1-1-1.7
		l0.5-0.9c0-0.1,0.1-0.1,0.1-0.1c0,0,0.1,0.1,0.1,0.1c0.3,0.4,0.5,0.7,0.7,0.8c0.3,0.2,0.7,0.4,1.1,0.4h0.3V347.8z" id="PATH_187" class="area" title=""></path>
	<path d="M429.9,347.8h-0.5c-0.4,0-0.8,0.1-1.1,0.2c-0.5,0.2-0.8,0.5-0.8,1c0,0.6,0.4,1.1,1.2,1.6l-0.5,1c-0.9-0.3-1.7-0.8-2.3-1.4
		c-0.8-0.7-1.2-1.6-1.2-2.5h-1.4v-1.2h1.3c0-0.8,0.2-1.6,0.6-2.6c0.4-0.9,0.7-1.3,0.9-1.3c0.2,0,0.5,0.4,0.8,1.3
		c0.3,0.8,0.4,1.3,0.4,1.6c0,1.4-0.7,2.1-2.1,2.1c0.1,0.4,0.3,0.8,0.6,1.2s0.7,0.7,1.1,0.9c0-0.1,0-0.3,0-0.4c0-0.7,0.2-1.3,0.5-1.8
		c0.5-0.7,1.1-1.1,2-1.1h0.4V347.8z M426.8,346.2c0-0.2-0.1-0.6-0.3-1.1c-0.2-0.6-0.4-0.8-0.6-0.8c-0.1,0-0.3,0.2-0.5,0.7
		c-0.2,0.5-0.3,1.1-0.3,1.7C426.2,346.6,426.8,346.5,426.8,346.2z" id="PATH_188" class="area" title=""></path>
	<path d="M434.8,345.8c0,0.5,0,0.9-0.2,1.3c-0.2,0.5-0.5,0.8-0.8,0.8c-0.5,0-1.3-0.3-2.3-1c-0.3,0.4-0.5,0.6-0.6,0.7
		c-0.3,0.2-0.6,0.3-1,0.3h-0.5v-1.2h0.7c0.4,0,0.8-0.2,1.2-0.7c0.2-0.2,0.5-0.7,0.9-1.3c0.3-0.5,0.7-0.7,1-0.7
		c0.5,0,0.9,0.2,1.2,0.7C434.7,345.1,434.8,345.4,434.8,345.8z M434.2,346.5c0-0.3-0.1-0.6-0.3-1c-0.2-0.4-0.5-0.6-0.8-0.6
		c-0.3,0-0.6,0.3-1,0.9c0.2,0.2,0.5,0.4,0.9,0.6s0.8,0.3,1,0.3C434.1,346.8,434.2,346.7,434.2,346.5z" id="PATH_189" class="area" title=""></path>
	<path d="M437.2,346.5c0,0.4-0.1,0.8-0.3,1.1c-0.1,0.2-0.2,0.3-0.2,0.3c0,0-0.1-0.1-0.1-0.4c0-1.2-0.2-4-0.6-8.5l0.8-0.8
		c0.1-0.1,0.1-0.1,0.1-0.1c0,0,0,0.1,0,0.2C437.1,339.7,437.2,342.4,437.2,346.5z" id="PATH_190" class="area" title=""></path>
	<path d="M442.2,347.9c0,1-0.3,1.9-0.9,2.8c-0.5,0.7-1,1.1-1.3,1.1c-0.8,0-1.4,0-2-0.1c-0.2,0-0.3-0.1-0.3-0.1s0.1-0.1,0.3-0.1
		c0.8-0.2,1.6-0.6,2.4-1.2c0.8-0.7,1.3-1.4,1.3-2.1c0-0.4-0.3-1-1-1.7l0.5-0.9c0-0.1,0.1-0.1,0.1-0.1c0,0,0.1,0.1,0.1,0.1
		c0.2,0.3,0.5,0.7,0.6,1.2C442.1,347.1,442.2,347.5,442.2,347.9z" id="PATH_191" class="area" title=""></path>
</g>
<g id="G_192" class="area" title="">
	<path d="M312.9,284.7c0,0.2,0,0.3,0,0.3c0,0-0.1,0-0.3-0.1c-0.3-0.2-0.7-0.3-1.2-0.3c-0.7,0-1.3,0.3-1.8,0.8
		c-0.5,0.5-0.7,0.8-0.7,1.1c0,0.3,0.5,0.6,1.4,0.7c1,0.2,1.6,0.4,1.8,0.7c0,0.1,0.1,0.2,0.1,0.3c0,0.5-0.2,1.1-0.5,1.7
		c-0.2,0.4-0.7,0.7-1.5,1c-1,0.4-2,0.6-3.3,0.6c-0.9,0-1.6-0.2-2.2-0.7c-0.6-0.5-0.9-1.2-0.9-2c0-0.9,0.3-1.8,0.9-2.6
		c0.1-0.1,0.2-0.2,0.3-0.2c0.1,0,0.1,0,0.1,0.1c0,0.1,0,0.1-0.1,0.3c-0.4,0.7-0.6,1.4-0.6,2c0,0.5,0.2,0.9,0.5,1.2
		c0.5,0.5,1.2,0.7,2.1,0.7c0.8,0,1.7-0.1,2.6-0.3c1.3-0.3,2-0.7,2-1.2c0-0.2-0.6-0.4-1.9-0.7c-0.5-0.1-0.8-0.2-1-0.3
		c-0.2-0.1-0.4-0.4-0.4-0.7c0-0.7,0.3-1.4,1-2.3c0.7-0.9,1.5-1.4,2.2-1.4C312.3,283.5,312.8,283.9,312.9,284.7z" id="PATH_193" class="area" title=""></path>
	<path d="M318.1,287.9c0,1.5-0.5,2.8-1.5,3.8c-0.3,0.3-0.5,0.5-0.6,0.5c-0.6,0-1.2-0.1-1.9-0.2c-0.3,0-0.4-0.1-0.4-0.1
		c0,0,0.1-0.1,0.4-0.2c0.8-0.2,1.6-0.7,2.3-1.3c0.3-0.3,0.6-0.5,0.8-0.9c0.3-0.4,0.5-0.8,0.5-1.1v-0.3l-1.3,0
		c-0.9,0-1.4-0.4-1.4-1.1c0-0.5,0.1-1,0.4-1.6c0.3-0.6,0.7-1,1.1-1c0.6,0,1.1,0.4,1.4,1.3C318,286.5,318.1,287.1,318.1,287.9z
		 M317.4,287.1c0-0.3-0.1-0.6-0.3-0.9c-0.2-0.3-0.5-0.5-0.8-0.5c-0.2,0-0.4,0.1-0.5,0.2s-0.2,0.3-0.2,0.5c0,0.5,0.3,0.7,1,0.7
		C316.7,287.2,317,287.1,317.4,287.1z" id="PATH_194" class="area" title=""></path>
	<path d="M322.1,288.3h-0.7c-0.7,0-1.3-0.3-1.5-0.9c-0.2-0.4-0.3-1.1-0.3-1.9v-1.9c0-0.9-0.1-2.2-0.2-3.9l0.6-0.7
		c0.1-0.1,0.2-0.1,0.2,0c0.1,0.9,0.2,2.2,0.2,3.9v2.9c0,0.8,0.4,1.2,1.2,1.2h0.5V288.3z" id="PATH_195" class="area" title=""></path>
	<path d="M324.5,286.3c0,1.3-0.7,2-2,2h-0.8v-1.2h0.7c1,0,1.5-0.2,1.5-0.5c0-0.3-0.2-0.7-0.7-1.2l0.4-1c0-0.1,0.1-0.1,0.1-0.1
		s0.1,0.1,0.2,0.2C324.3,285,324.5,285.7,324.5,286.3z M324.2,290.5l-0.8,0.8l-0.8-0.8l0.8-0.8L324.2,290.5z" id="PATH_196" class="area" title=""></path>
</g>
<g id="G_197" class="area" title="">
	<path d="M374.3,285h-0.5c-0.5,0-0.9-0.2-1.1-0.5c0,0.6-0.1,1.3-0.2,2.2c-0.3,0.7-0.8,1.3-1.6,1.6c-0.7,0.3-1.4,0.5-2.3,0.5
		s-1.5-0.2-2-0.5c-0.6-0.4-0.9-1-0.9-1.9c0-0.8,0.2-1.6,0.7-2.2c0.1-0.1,0.1-0.1,0.2-0.1c0.1,0,0.1,0,0.1,0.1c0,0,0,0.1,0,0.1
		c-0.2,0.5-0.3,1-0.3,1.4c0,0.6,0.2,1.1,0.7,1.5c0.4,0.3,0.9,0.5,1.6,0.5c0.6,0,1.3-0.1,2-0.4c1-0.3,1.4-0.7,1.4-1.2l-0.1-4.8
		c-0.1-2.3-0.1-3.9-0.2-5l0.8-0.7c0,0.3,0.1,1.4,0.2,3.4l0.1,3.9c0,0.6,0.4,1,1.2,1h0.3V285z" id="PATH_198" class="area" title=""></path>
	<path d="M381,285h-0.6c-0.5,0-1.1-0.2-1.6-0.7c-0.4-0.3-0.8-0.9-1.3-1.6c-0.1,1.5-1.1,2.3-3.1,2.3h-0.6v-1.2h0.4
		c1.8,0,2.8-0.4,2.8-1.1c0-0.6-0.4-1.3-1.3-2.1c-0.4-0.4-0.8-0.7-1.3-1.1c0-0.4,0.1-0.7,0.3-1c0.1-0.1,1.9-0.7,5.5-1.8
		c0,0.1-0.1,0.5-0.3,1.1c-0.9,0.2-2.4,0.7-4.4,1.3c1,1.1,2,2.1,2.7,3c0.5,0.5,0.8,0.9,1.1,1.1c0.4,0.3,0.9,0.5,1.4,0.5h0.4V285z
		 M380,275.4l-0.2,0.7l-4.9,1.6l0.2-0.7L380,275.4z" id="PATH_199" class="area" title=""></path>
	<path d="M386,285h-0.8c-0.9,0-1.5-0.3-1.9-0.9c-0.3,0.6-1,0.9-2.1,0.9h-0.6v-1.2h0.9c1,0,1.5-0.4,1.6-1.1c0-0.3,0.1-0.5,0.2-0.5
		s0.2,0.2,0.2,0.5c0.1,0.7,0.6,1.1,1.5,1.1h0.9V285z M382.6,279.2l-0.8,0.8l-0.8-0.8l0.8-0.8L382.6,279.2z M384.3,279.2l-0.8,0.8
		l-0.8-0.8l0.8-0.8L384.3,279.2z" id="PATH_200" class="area" title=""></path>
	<path d="M391.4,285h-0.5c-0.3,0-0.7-0.1-1.2-0.2c-0.5-0.1-0.9-0.3-1.1-0.5c-0.2,0.2-0.5,0.3-0.9,0.4c-0.5,0.2-1,0.2-1.5,0.2h-0.7
		v-1.2h0.5c0.8,0,1.3-0.1,1.5-0.2c-0.2-0.1-0.3-0.3-0.4-0.5c-0.1-0.2-0.2-0.4-0.2-0.6c0-0.4,0.2-0.9,0.5-1.5c0.4-0.6,0.8-1,1.3-1
		c0.5,0,0.8,0.3,1.1,0.8c0.2,0.4,0.3,0.9,0.3,1.4c0,0.4-0.1,0.7-0.3,0.9c-0.1,0.2-0.2,0.3-0.4,0.4c0.2,0.1,0.7,0.2,1.4,0.2h0.4V285z
		 M389.7,282.4c0-0.2-0.1-0.5-0.3-0.7c-0.2-0.3-0.4-0.4-0.7-0.4c-0.2,0-0.5,0.1-0.7,0.3c-0.2,0.2-0.4,0.5-0.4,0.7
		c0,0.2,0.1,0.5,0.4,0.7c0.2,0.2,0.5,0.3,0.7,0.4c0.2,0,0.5-0.1,0.6-0.3C389.6,282.8,389.7,282.6,389.7,282.4z M389.4,277.5
		l-0.8,0.8l-0.8-0.8l0.8-0.8L389.4,277.5z" id="PATH_201" class="area" title=""></path>
	<path d="M397.5,283c0,0.4-0.1,0.8-0.4,1.2c-0.3,0.5-0.6,0.7-1,0.7c-0.3,0-1-0.2-2.1-0.7c-0.9,0.6-1.7,0.8-2.4,0.8H391v-1.2h0.6
		c0.4,0,0.8,0,1.2-0.1c-0.4-0.3-0.6-0.7-0.6-1.2c0-0.6,0.4-1.3,1.3-2l-0.7-0.3c0.2-0.2,0.5-0.5,0.9-0.9c0.9,0.5,1.7,0.9,2.4,1.5
		C397,281.6,397.5,282.3,397.5,283z M394.8,282.2c0-0.3-0.1-0.5-0.2-0.7c-0.1-0.3-0.3-0.4-0.6-0.4c-0.3,0-0.5,0.1-0.8,0.3
		c-0.3,0.2-0.5,0.5-0.5,0.7c0,0.4,0.4,0.8,1.1,1c0.2-0.1,0.4-0.2,0.6-0.3C394.7,282.6,394.8,282.4,394.8,282.2z M397,283.4
		c0-0.3-0.2-0.6-0.6-1c-0.3-0.3-0.6-0.6-0.9-0.7c0,0.8-0.2,1.4-0.7,1.8c0.8,0.3,1.4,0.4,1.6,0.4C396.7,283.8,397,283.7,397,283.4z" id="PATH_202" class="area" title=""></path>
</g>
<g id="G_203" class="area" title="">
	<path d="M453.2,297.6h-0.7c-0.5,0-1-0.3-1.6-0.8c-0.3-0.3-0.7-0.8-1.2-1.5c0,0.7-0.1,1.2-0.4,1.5c-0.5,0.6-1.5,0.9-3,0.9h-2
		c-2.4,0-3.7-0.7-3.7-2.1c0-0.5,0.2-1,0.5-1.5c0.1-0.1,0.2-0.2,0.2-0.2c0.1,0,0.1,0,0.1,0.1c0,0.1,0,0.1,0,0.2
		c-0.1,0.4-0.2,0.6-0.2,0.9c0,0.4,0.2,0.7,0.5,0.9c0.5,0.4,1.3,0.6,2.4,0.6h2c1.1,0,1.9-0.1,2.3-0.2c0.5-0.2,0.7-0.5,0.7-0.9
		c0-0.4-0.2-0.9-0.7-1.5c-0.3-0.3-0.7-0.8-1.3-1.3c-0.5-0.4-0.7-0.7-0.7-0.7c0-0.7,0.1-1.1,0.3-1.4c0-0.1,0.7-0.3,2.1-0.8
		c1.4-0.5,2.6-0.9,3.5-1.2c0,0.1-0.1,0.5-0.3,1.1c-1.1,0.3-2.7,0.9-4.9,1.7c1,0.9,2.1,2.2,3.4,3.9c0.5,0.6,0.9,1,1.2,1.2
		c0.2,0.1,0.6,0.2,1,0.2h0.4V297.6z" id="PATH_204" class="area" title=""></path>
	<path d="M456.9,297.6h-0.4c-0.9,0-1.5-0.3-1.8-1c-0.1,0.3-0.3,0.5-0.6,0.7c-0.3,0.2-0.6,0.3-0.9,0.3h-0.4v-1.2h0.4
		c0.8,0,1.2-0.3,1.2-1v-3.5c0-1.3,0-2.3-0.1-3l0.9-0.7v6.7c0,1,0.4,1.5,1.3,1.5h0.4V297.6z" id="PATH_205" class="area" title=""></path>
	<path d="M461.8,295.6c0,0.5,0,0.9-0.2,1.3c-0.2,0.5-0.5,0.8-0.8,0.8c-0.5,0-1.3-0.3-2.3-1c-0.3,0.4-0.5,0.6-0.6,0.7
		c-0.3,0.2-0.6,0.3-1,0.3h-0.5v-1.2h0.7c0.4,0,0.8-0.2,1.2-0.7c0.2-0.2,0.5-0.7,0.9-1.3c0.3-0.5,0.7-0.7,1-0.7
		c0.5,0,0.9,0.2,1.2,0.7C461.7,294.8,461.8,295.2,461.8,295.6z M461.2,296.3c0-0.3-0.1-0.6-0.3-1c-0.2-0.4-0.5-0.6-0.8-0.6
		c-0.3,0-0.6,0.3-1,0.9c0.2,0.2,0.5,0.4,0.9,0.6s0.8,0.3,1,0.3C461.2,296.6,461.2,296.5,461.2,296.3z" id="PATH_206" class="area" title=""></path>
	<path d="M473.7,301c-0.7,0.7-1.7,1-3.2,1c-1,0-1.8-0.2-2.5-0.7c-0.7-0.5-1.1-1.3-1.1-2.2c0-1.4,0.8-2.6,2.3-3.5
		c-0.8-0.4-1.2-0.9-1.2-1.5c0-0.5,0.2-1.1,0.7-1.6c0.5-0.6,1.1-0.9,1.6-0.9c0.6,0,1.1,0.3,1.5,0.9c0.1,0.1,0.1,0.2,0.1,0.3
		c0,0,0,0.1-0.1,0.1c-0.1,0-0.1,0-0.3-0.1c-0.2-0.1-0.7-0.1-1.2-0.1c-0.3,0-0.6,0.1-1,0.3c-0.5,0.2-0.7,0.4-0.7,0.7
		c0,0.3,0.2,0.6,0.7,0.9c0.4,0.3,0.8,0.4,1.1,0.4c0.2,0,1-0.2,2.1-0.6c0.2,0,0.2-0.1,0.3-0.1c0,0,0,0,0,0c0,0,0,0.1-0.1,0.2
		l-0.3,0.9c-3.3,0.7-4.9,1.8-4.9,3.2c0,0.9,0.4,1.5,1.3,1.9c0.6,0.3,1.5,0.4,2.4,0.4c0.9,0,1.6-0.1,2.2-0.2c0.2-0.1,0.3-0.1,0.4-0.1
		c0,0,0.1,0,0.1,0C474,300.6,473.9,300.8,473.7,301z M471,289.1l-0.8,0.8l-0.8-0.8l0.8-0.8L471,289.1z" id="PATH_207" class="area" title=""></path>
	<path d="M476.9,297.6h-0.7c-0.7,0-1.3-0.3-1.5-0.9c-0.2-0.4-0.3-1.1-0.3-1.9v-1.9c0-0.9-0.1-2.2-0.2-3.9l0.6-0.7
		c0.1-0.1,0.2-0.1,0.2,0c0.1,0.9,0.2,2.2,0.2,3.9v2.9c0,0.8,0.4,1.2,1.2,1.2h0.5V297.6z" id="PATH_208" class="area" title=""></path>
	<path d="M479.3,295.6c0,1.3-0.7,2-2,2h-0.8v-1.2h0.7c1,0,1.5-0.2,1.5-0.5c0-0.3-0.2-0.7-0.7-1.2l0.4-1c0-0.1,0.1-0.1,0.1-0.1
		s0.1,0.1,0.2,0.2C479.1,294.3,479.3,294.9,479.3,295.6z M479,299.8l-0.8,0.8l-0.8-0.8l0.8-0.8L479,299.8z" id="PATH_209" class="area" title=""></path>
</g>
<g id="G_210" class="area" title="">
	<path d="M494.8,371.3c0,0.2,0,0.3,0,0.3c0,0-0.1,0-0.3-0.1c-0.3-0.2-0.7-0.3-1.2-0.3c-0.7,0-1.3,0.3-1.8,0.8
		c-0.5,0.5-0.7,0.8-0.7,1.1c0,0.3,0.5,0.6,1.4,0.7c1,0.2,1.6,0.4,1.8,0.7c0,0.1,0.1,0.2,0.1,0.3c0,0.5-0.2,1.1-0.5,1.7
		c-0.2,0.4-0.7,0.7-1.5,1c-1,0.4-2,0.6-3.3,0.6c-0.9,0-1.6-0.2-2.2-0.7c-0.6-0.5-0.9-1.2-0.9-2c0-0.9,0.3-1.8,0.9-2.6
		c0.1-0.1,0.2-0.2,0.3-0.2c0.1,0,0.1,0,0.1,0.1c0,0.1,0,0.1-0.1,0.3c-0.4,0.7-0.6,1.4-0.6,2c0,0.5,0.2,0.9,0.5,1.2
		c0.5,0.5,1.2,0.7,2.1,0.7c0.8,0,1.7-0.1,2.6-0.3c1.3-0.3,2-0.7,2-1.2c0-0.2-0.6-0.4-1.9-0.7c-0.5-0.1-0.8-0.2-1-0.3
		c-0.2-0.1-0.4-0.4-0.4-0.7c0-0.7,0.3-1.4,1-2.3c0.7-0.9,1.5-1.4,2.2-1.4C494.2,370.2,494.6,370.6,494.8,371.3z" id="PATH_211" class="area" title=""></path>
	<path d="M499.9,375.1c0,1-0.3,1.9-0.9,2.8c-0.5,0.7-1,1.1-1.3,1.1c-0.8,0-1.4,0-2-0.1c-0.2,0-0.3-0.1-0.3-0.1s0.1-0.1,0.3-0.1
		c0.8-0.2,1.6-0.6,2.4-1.2c0.8-0.7,1.3-1.4,1.3-2.1c0-0.4-0.3-1-1-1.7l0.5-0.9c0-0.1,0.1-0.1,0.1-0.1c0,0,0.1,0.1,0.1,0.1
		c0.2,0.3,0.5,0.7,0.6,1.2C499.8,374.3,499.9,374.7,499.9,375.1z" id="PATH_212" class="area" title=""></path>
	<path d="M503.9,375h-0.7c-0.7,0-1.3-0.3-1.5-0.9c-0.2-0.4-0.3-1.1-0.3-1.9v-1.9c0-0.9-0.1-2.2-0.2-3.9l0.6-0.7
		c0.1-0.1,0.2-0.1,0.2,0c0.1,0.9,0.2,2.2,0.2,3.9v2.9c0,0.8,0.4,1.2,1.2,1.2h0.5V375z" id="PATH_213" class="area" title=""></path>
	<path d="M511.7,372.1l-0.4,0.8c-0.7,0-1.3,0-1.6,0.1c-0.4,0.2-1,0.4-1.8,0.8c-0.8,0.4-1.4,0.7-1.8,0.8c-0.6,0.2-1.3,0.3-1.9,0.3
		h-0.7v-1.2h0.8c0.9,0,1.7-0.2,2.4-0.5l2.3-1c-0.4-0.1-1-0.3-1.8-0.6c-0.7-0.3-1.1-0.4-1.3-0.4c-0.4,0-0.8,0.2-1.2,0.5
		c-0.1,0.1-0.1,0.1-0.2,0.1c-0.1,0-0.1,0-0.1-0.1c0,0,0-0.1,0-0.1c0.3-1,0.9-1.4,1.7-1.4c0.3,0,0.7,0.1,1.1,0.3
		c0.8,0.4,1.4,0.6,1.8,0.8c0.7,0.2,1.5,0.4,2.4,0.4c0.2,0,0.3,0,0.3,0.1C511.8,371.9,511.8,372,511.7,372.1z M508.4,377l-0.8,0.8
		l-0.8-0.8l0.8-0.8L508.4,377z" id="PATH_214" class="area" title=""></path>
	<path d="M515.7,375h-0.7c-0.7,0-1.3-0.3-1.5-0.9c-0.2-0.4-0.3-1.1-0.3-1.9v-1.9c0-0.9-0.1-2.2-0.2-3.9l0.6-0.7
		c0.1-0.1,0.2-0.1,0.2,0c0.1,0.9,0.2,2.2,0.2,3.9v2.9c0,0.8,0.4,1.2,1.2,1.2h0.5V375z" id="PATH_215" class="area" title=""></path>
	<path d="M521,373l-0.3,0.9c-0.8,0.2-1.6,0.4-2.4,0.7c-0.9,0.2-1.8,0.4-2.4,0.4h-0.5v-1.2h0.8c0.4,0,0.6,0,0.8-0.1
		c-0.2-0.1-0.3-0.3-0.4-0.4c-0.3-0.3-0.4-0.6-0.4-1c0-0.3,0.1-0.6,0.4-1.1c0.7-1,1.3-1.5,2.1-1.5c0.7,0,1.2,0.3,1.6,0.9
		c0.1,0.2,0.2,0.3,0.2,0.4c0,0,0,0.1-0.1,0.1c-0.1,0-0.3,0-0.5-0.1c-0.3-0.1-0.5-0.1-0.6-0.1c-0.2,0-0.4,0-0.6-0.1
		c-0.3,0-0.6,0.1-1,0.3c-0.4,0.2-0.7,0.4-0.7,0.7c0,0.2,0.2,0.5,0.5,0.8c0.4,0.4,0.9,0.6,1.4,0.6c0.2,0,0.7-0.1,1.3-0.3l0.8-0.2
		c0,0,0.1,0,0.2,0c0,0,0,0,0,0C521.1,372.9,521.1,372.9,521,373z M519.2,367.1l-0.8,0.8l-0.8-0.8l0.8-0.8L519.2,367.1z" id="PATH_216" class="area" title=""></path>
	<path d="M525.1,364.3c-0.4,0.4-1,0.5-1.6,0.5c-0.1,0-0.2,0-0.4,0s-0.3,0-0.4,0c-0.1,0-0.2,0.1-0.3,0.2s-0.2,0.2-0.2,0.2
		c-0.1,0-0.1-0.1-0.1-0.2c0-0.1,0.1-0.3,0.2-0.5c0.1-0.3,0.2-0.4,0.3-0.4c0.1,0,0.3,0,0.6,0.1s0.5,0.1,0.6,0.1c0.6,0,1,0,1.3-0.1
		c0.2,0,0.3-0.1,0.3-0.1c0,0,0.1,0,0.1,0C525.3,364.1,525.2,364.2,525.1,364.3z M524.4,373.8c0,0.4-0.1,0.8-0.3,1.1
		c-0.1,0.2-0.2,0.3-0.2,0.3c0,0-0.1-0.1-0.1-0.4c0-1.2-0.2-4-0.6-8.5l0.8-0.8c0.1-0.1,0.1-0.1,0.1-0.1c0,0,0,0.1,0,0.2
		C524.4,366.9,524.4,369.6,524.4,373.8z" id="PATH_217" class="area" title=""></path>
</g>
</svg>

