



    


<svg version="1.1" id="Layer_1" xmlns="http://www.w3.org/2000/svg" xmlns:xlink="http://www.w3.org/1999/xlink" x="0px" y="0px" viewBox="0 0 342.9 482" style="enable-background:new 0 0 342.9 482;" xml:space="preserve" width="100%" height="100%">
<style type="text/css">
	.st0{fill:#E8D0E5;stroke:#000000;stroke-width:0.2;stroke-miterlimit:10;}
	.st1{fill:#DBECCB;stroke:#000000;stroke-width:0.2;stroke-miterlimit:10;}
	.st2{fill:#FBCFD0;stroke:#000000;stroke-width:0.2;stroke-miterlimit:10;}
	.st3{fill:#FDF9D2;stroke:#000000;stroke-width:0.2;stroke-miterlimit:10;}
	.st4{fill:none;stroke:#010101;stroke-width:0.5;stroke-miterlimit:10;}
</style>
<path class="st0 area" d="M177.7,67.6c0,1.6,1.8,3.7,4.5,4.1c1.4-3.9,4.3-6.7,9.7-5.6c0.6-5.7-2.8-8.7-6.6-12.1
	C180,55.7,177.7,63.2,177.7,67.6z" id="_x632__x627__x628__x644_" title="زابل"></path>
<path class="st1 area" d="M124.7,107.6c2-9,12-7,18-13c1-1-1-4,0-5c2-2,5-3,6-6c0-10-2-20,7-21c5.6-0.8,14.9,5.3,22,4.4
	c0.2-4.4,2.5-11.3,7.6-13c-2-1.8-4-3.8-5.6-6.4c-2.2-3.3-3.2-6.8-3.5-10.4l-18.8-2.8L143,32.3c0,0.2,0,0.3-0.1,0.5
	c-0.2,0.3-4.3,8.1-6.4,10.2c-2.1,2.1-6.1,4-8.5,4c-1.1,0-5.3,1.2-9.1,2.3c-3.2,0.9-6.5,1.9-8.4,2.3c-0.7,0.1-1.3,0.5-1.6,1.1
	c-1.3,2.1-0.5,6.5,0.1,8.8c1,3.6-3.6,6.9-4.5,7.5c-1.6,1-8.4,1.8-12.2,1.8c-1.2,0-2.1,0.2-2.5,0.7c-0.5,0.5-0.5,1.4-0.5,2.3l0,0.4
	c0,1.2-0.4,4.7-0.7,6.7C104.2,83.5,122.8,90.7,124.7,107.6z" id="_x646__x6CC__x645__x631__x648__x632_" title="نیمروز"></path>
<path class="st2 area" d="M141.7,124.6c1,2,7-3,9,0c1.2,1.2,2.5,2.3,3.8,3.2l22.5-27.5l7.5-9.3c-2.6-1.9-3.9-4.6-3.9-8.5
	c0-3.1,0.2-7.4,1.5-10.9c-2.7-0.4-4.5-2.6-4.5-4.1c0-0.2,0-0.4,0-0.6c-7.1,0.9-16.5-5.2-22-4.4c-9,1-7,11-7,21c-1,3-4,4-6,6
	c-1,1,1,4,0,5c-6,6-16,4-18,13c-0.1-1.1-0.3-2.2-0.6-3.3C122.9,114.1,135.2,117.2,141.7,124.6z" id="_x647__x627__x645__x648__x646_" title="هامون"></path>
<path class="st0 area" d="M141.7,218.6c2,0,2,3,4,2c-3,9,6,4,10,5c-1,2,2,2,1,4c5,1,7-5,12-2c3-5,10-10,13-7c5.4,6.1,12.2,12.2,20,13.9
	l-1.3-1.6l-3.7-3.6l-2.5-3.3l-6-5.7l-1.7-2.1l-1.7-3.8l-1.7-2l-0.3-1l-0.1-1.2l-0.4-1.3L180,203l-0.5-0.7l-0.7-0.6l-0.8-0.3
	l-0.4-0.4l-0.1-0.4l0.1-0.4l0.4-0.5l0.6-0.5l0.2-0.7l-0.2-0.6l-0.6-0.4l-1-0.5l-0.4-1l-0.3-1.2l-0.6-1l-0.7-0.3l-0.5-0.1l-0.5-0.2
	l-0.6-0.7l-0.3-0.8l-0.2-1.7l-0.2-0.8l-0.7-1.2l-1.9-2.1l-0.6-1.4v-1.3l0.7-2.5l0.1-1.3l-0.5-1.8l-1-0.7l-1.2-0.5l-0.9-0.7
	c-2.3,1.5-5,2.9-7,4.9c-3,4,2,10-1,13c-6,5-12-7-15-3c-4,6-4,7-10,12c2.9,2.1,2.6,4.8,1.9,7.3C139.3,212,143.4,213.5,141.7,218.6z" id="_x645__x6CC__x631__x62C__x627__x648__x647_" title="میرجاوه"></path>
<path class="st2 area" d="M65.7,250.6c5,4-6,8-4,14c1,6,11,2,14,8c-1,0-3,0-3,0c-1,2,0,4,0,6c1-1,3,1,3,1c2,11-15,15-10,22
	c8,11,25,5,38,11c-5,5-17,4-11,14c-6-1-9,4-11,7c-3,6,4,9,8,9c11-1,21-5,32,1c9,5,21-8,34-6c4,1,4-7,10-7c-2-4,0-5,2-8c-2-1-3-1-5-2
	c-5-4-6-11-10-13c-5-2-13-2-19-6s-7-8-10-14c-1-1-4-1-4-2c-2-9-12-15-8-24c-10-4-13-15-7-23c1,0,3,0,4,0c0.6-0.6,0.5-1.6,0.1-2.5
	c0,0.2,0,0.3-0.1,0.5c-12-11.1-27.4-4.3-41.5-7.9c0.2,0.7,0.2,1.2-0.1,1.8c-0.7,1.3-2.6,1.5-3.6,1.5c-2,0-16.8-1.1-19.1-1.2
	c-0.8,0.5-3.2,2.2-5.8,3.3c-0.7,0.3-1.2,0.7-1.3,1c-0.1,0.3,0.2,0.7,0.2,0.7l4.4,5.3v10.8c0,0.2,0,0.4,0,0.6
	C48.9,253.9,58.3,244.8,65.7,250.6z" id="_x627__x6CC__x631__x627__x646__x634__x647__x631_" title="ایرانشهر"></path>
<path class="st0 area" d="M73.7,344.6c0-2,3-3,2-5c1.7-0.4,3.7-0.8,5.6-1.6c-0.5-1.2-0.5-2.7,0.4-4.4c2-3,5-8,11-7c-6-10,6-9,11-14
	c-13-6-30,0-38-11c-5-7,12-11,10-22c0,0-2-2-3-1c0-2-1-4,0-6c0,0,2,0,3,0c-3-6-13-2-14-8c-2-6,9-10,4-14c-7.4-5.8-16.8,3.3-23.8,1.8
	c-0.4,2.6-3.2,3.1-7.4,3.1c-3.8,0-5.3,5.5-5.8,7.5c-0.1,0.3-0.2,0.6-0.2,0.8c-0.3,1-0.9,14.8-1.2,23.3l-3.4,30.7
	c0,0.1-0.8,5-0.8,6.6c0,0.9,1.3,3.3,2.2,5.1c0.6,1.2,1.2,2.2,1.5,3c0.9,2.3,1.8,5,0.4,7.7c-1.3,2.6-1.5,3.2-1.2,4.5
	c0.4,1.5,3.1,5.4,5.7,5.7c2.3,0.3,3.1,2.8,3.4,5.1c0.6-0.2,1.1-0.5,1.7-0.9C47.7,344.6,59.7,345.6,73.7,344.6z" id="_x62F__x627__x644__x6AF__x627__x646_" title="دالگان"></path>
<path class="st1 area" d="M55.7,369.6c8-2,15,9,27,6c2-1,0-3,0-4c1,0,2,0,3,0c2-3,1-8,6-9c5-2-2-5-2-7c0-4.7,1.2-9.3,4.1-13.5
	c-1.3,0.2-2.7,0.4-4.1,0.5c-2.8,0-7.2-1.5-8.4-4.6c-1.9,0.7-3.9,1.1-5.6,1.6c1,2-2,3-2,5c-14,1-26,0-37,10c-0.5,0.4-1.1,0.7-1.7,0.9
	c0.2,1.3,0.2,2.5,0.2,3.2c0,1.5,0.7,8.4,0.8,9.4C42,371.2,48.8,371.9,55.7,369.6z" id="_x641__x627__x646__x648__x62C_" title="فانوج"></path>
<path class="st3 area" d="M91.7,424.6c1,1,3,1,3,3c10-4,20,0,30-2c-1-2,0-4-1-6c-4-5-13-6-13-9c-1-8,4-17,9-25c2-3,9,1,12-3c1-3-1-6-2-9
	c7,2,11-5,15-9c2-4-3-5-4-8c3,0,9-1,7-3c-3.1-4.7-4.4-9.4-7.3-13.2c-7,2.8-13.4,6.1-18.7,3.2c-9.6-5.3-18.5-2.8-27.9-1.5
	c-2.9,4.2-4.1,8.8-4.1,13.5c0,2,7,5,2,7c-5,1-4,6-6,9c-1,0-2,0-3,0c0,1,2,3,0,4c-12,3-19-8-27-6c-6.9,2.3-13.7,1.7-19.7-1.4
	c0,0.1,0,0.1,0,0.1l0.1,0.7l-0.7,0.1c-0.1,0-3.4,0.4-5.1,0.4c-0.6,0-1.3,0.5-2.1,1.1c-0.5,0.4-1.1,0.8-1.8,1.1
	c0.2,1.3,1.7,9.6,2.8,11.8c0.5,1,1.7,3.9,3.1,7.2c1.9,4.6,4.3,10.4,5.3,12.1c1.6,2.7,1.1,4.1-0.5,5.4c15,2.1,29,5.6,40.6,16.3
	C79.7,427.6,86.7,423.6,91.7,424.6z" id="_x646__x6CC__x6A9___x634__x647__x631_" title="نیک شهر"></path>
<path class="st1 area" d="M137.7,433.6c-3,1-6-1-9-2c-1.9-1.3-2.6-4.1-4.1-6.3c0,0.1,0.1,0.2,0.1,0.3c-10,2-20-2-30,2c0-2-2-2-3-3
	c-5-1-12,3-14,0c-11.6-10.7-25.6-14.3-40.6-16.3c-0.4,0.3-0.9,0.7-1.4,1c-0.5,0.3-0.6,0.6-0.6,0.8c0,0.9,1.2,2.4,3.1,3.8
	c1.8,1.3,6,7.3,6.9,9.1l0.3,0.6c0.8,1.6,1.9,3.7,1.9,6.5c0,2.9-0.8,19.5-0.8,20.2c0,0,0,0,0,0l1.1-0.2l1.7-0.2l8.3-3.1l2.7-0.1
	l2.5,0.9l3.5,3.7l2.4,1.1h2.3l10.4-1.1l1,0.5l0.4,1.2l0.2,0.4l2.3,2.2l0.4-0.1l0.3-0.5l0.4-0.3l4.8-1.4l2.5-0.1l2.3,0.6h0.3l0.6-0.1
	l0.3,0.1v0.3l-0.1,0.8l0.1,0.3l0.6,0.9l0.5,0.3l2,0.3l0.6,0.3l1.2,0.8l0.4-0.4l0.3-1.3l0.1-0.5l-0.2-0.3v-0.4l0.6-0.6l0.3-0.2
	l1.6-0.3l2.1-0.1l1.1,0.1l0.8,0.5l-0.2,0.2l-0.6,1.1l1.3,1l3,0.5l1.2,0.7l3.4,3.3l0.7,0.2h0.9l-0.3-1l-1.3-2.3v-0.1v-0.3v-0.3
	l-0.2-0.5l-0.3-0.1h-0.5l-0.6-0.4h-0.4l-0.3-0.2l-0.2-1.4l-0.2-0.4v-0.5l0.5-0.8l0.9-1.1l0.5-1l1-0.6l4.1-1.3l1-0.1l1,0.1l0.9,0.6
	l0.3,0.4C127.8,442.9,128.8,436.2,137.7,433.6z" id="_x6A9__x646__x627__x631__x6A9_" title="کنارک"></path>
<path class="st2 area" d="M161.7,401.6c-2,1,2,6,0,10c-1,1-5,1-4,4c2,4,13,10,6,9c-13.1,0-24.6-0.8-33.3,7.6c2.4,1,4.9,2.2,7.3,1.4
	c-8.9,2.7-9.9,9.3-12.8,16.3l1.9,1.9l0.2,0.6v3.8l0.2,1l1.4,2.2l-0.9,0.8l0.9,0.6l5.6,0.7l8.1,2.1l9.6,1.7l9.8,3.1l0.2,0.3l0.4,1.6
	l0.2,0.4l2.2,0.9l11.6,2.9l-0.7-0.8l-0.9-0.6l3.2-1l0.8-0.5l0.5-0.5l0.1-0.2v-0.4l0.2-0.7l1-1.3l0.3-0.7l-0.5-0.6l-0.6-0.3l-1.4-0.5
	l1.3-1h1l0.9,0.4l1.3,0.2l-0.4-0.4l-0.5-0.7l-0.4-0.3l0.2-0.4l0.1-1.2l0.2-0.3l0.5-0.4l0.3,0.2l0.2,0.4l1,0.8l0.2,1.1l0.3,1l1.9-5.7
	l1.3-22.7l0.2-1l0.4-0.6l0.8-0.9l0.4-0.6l0.2-2.4l-0.7-2.7l-0.3-2.5l1.2-1.9l1.3-0.3h1.1l1-0.2l0.9-1.2l0.4-1.2l1.2-9.5
	C184.7,405.3,175.9,395,161.7,401.6z" id="_x686__x627__x628__x647__x627__x631_" title="چابهار"></path>
<path class="st0 area" d="M161.7,395.6c-14.4-1.8-16.7-15-23.5-24.1c-2.3,1.9-5,3.1-8.5,2.1c1,3,3,6,2,9c-3,4-10,0-12,3c-5,8-10,17-9,25
	c0,3,9,4,13,9c0.9,1.9,0.1,3.8,0.9,5.7c1.5,2.2,2.2,5.1,4.1,6.3c0.6,0.2,1.1,0.4,1.7,0.6c8.7-8.4,20.3-7.6,33.3-7.6c7,1-4-5-6-9
	c-1-3,3-3,4-4c2-4-2-9,0-10c1.6-0.8,3.2-1.3,4.7-1.6C165.4,397.5,163.1,395.6,161.7,395.6z" id="_x642__x635__x631___x642__x646__x62F_" title="قصر قند"></path>
<path class="st2 area" d="M165.7,274.6c-3-4-5,4-3,7c6,8,11,16,14,25c0,1,3,2,4,4s1,4,1,5c4,4,7-6,11-4c5,2,3,10,8,13c3,1,1,5,5,7
	c-3,7-13,12-10,20c1,1,7,1,11,3c2,0,5,3,7,4c7.9,3.5,18.2,5.5,23.3,12.8l5.3-0.6c-4.4-6.6-13-10-14.6-17.2c-2-6,11-5,14-12
	c-1,0-2,0-3,0c-1-2,0-4,0-6c-4,1-7-2-10-2c1-7-2-11-8-15c-2-2-1-8-2-13c-4,3-7,1-9-2c-6-9-11-19-21-24c-2.2-1.1-2.9-3.3-2.7-5.8
	c-0.5-0.1-1-0.2-1.3-0.2C177.7,272.6,173.7,280.6,165.7,274.6z" id="_x633__x6CC__x628___x648___x633__x648__x631__x627__x646_" title="سیب و سوران"></path>
<path class="st3 area" d="M171.7,302.6c-4.7,4.7-10.1,6.4-16.1,7.8c2,3,3.6,7.3,7.1,10.2c2,1,3,1,5,2c-2,3-4,4-2,8c-5.9,0-6,7.7-9.8,7
	c2.1,3,3.3,7.3,7.8,8c0-4,6-5,8-3c4,5,10,11,17,8c0,6-1,12,0,18c0,2,3,3,6,2c0,1,0,2,0,3c3,2,6,4,9,2c6-6,16-8,25-6
	c1.9,0,2.9,1.4,3.7,3l0.1-0.3l0.5-0.3l0.6-0.2l3.3-0.4c-5.1-7.3-15.3-9.3-23.3-12.8c-2-1-5-4-7-4c-4-2-10-2-11-3c-3-8,7-13,10-20
	c-4-2-2-6-5-7c-5-3-3-11-8-13c-4-2-7,8-11,4c0-1,0-3-1-5s-4-3-4-4c-0.5-1.4-1-2.8-1.6-4.2C173.9,302.2,172.3,302.6,171.7,302.6z" id="_x645__x647__x631__x633__x62A__x627__x646_" title="مهرستان"></path>
<path class="st1 area" d="M253.2,255.6l-1.3-0.8l-9.6,2l-1.2-0.7l-3.7-4.2l-0.8-1.5l-0.4-1.2l-0.4-0.7l-0.6-0.4l-1-0.3l-1-0.6l-0.6-0.8
	l-0.5-1l-0.6-0.8l-1.7-0.9l-7.7-1.6l-4.9-2.3l-1.8-0.4l-3.9-0.3l-1.8-0.6l-2.8-1.7l-3.5-1l-1.1-0.6l-0.5-0.6
	c-7.8-1.8-14.6-7.8-20-13.9c-3-3-10,2-13,7c-5-3-7,3-12,2c1-2-2-2-1-4c-4-1-13,4-10-5c-2,1-2-2-4-2c1.7-5.1-2.4-6.6-6.1-8.7
	c-0.3,1-0.6,1.9-0.9,2.7c-2,3-7-1-9,1c-1,3,1,8-1,9c-5.9,4.9-14.7,4-15.9,13.5c0.4,0.9,0.5,1.9-0.1,2.5c-1,0-3,0-4,0c-6,8-3,19,7,23
	c-4,9,6,15,8,24c0,1,3,1,4,2c3,6,4,10,10,14s14,4,19,6c1.2,0.6,2.1,1.6,2.9,2.8c6-1.5,11.4-3.1,16.1-7.8c0.7,0,2.2-0.4,3.4-0.2
	c-3-7.3-7.4-14.1-12.4-20.8c-2-3,0-11,3-7c8,6,12-2,19-1c0.3,0,0.8,0.1,1.3,0.2c0.4-4.2,3.5-9,6.7-10.2c14-7,27,5,41,3
	c6-1,13-3,17-9c0.5-0.5,1.5-0.5,2.7-0.4L253.2,255.6z" id="_x62E__x627__x634_" title="خاش"></path>
<path class="st0 area" d="M283.9,328.9l-0.9-1.3l-0.6-0.7l-0.5-0.4l-1.5-0.5l-0.6-0.5l-1.6-1.4l-0.7-0.3h-0.6l-3.2,1l-0.7,0.1l-1-0.1
	h-1.6l-3,1l-1.6,0.3l-3.4,0.7l-1.6,0.1l-1.8-0.4l-1.4-0.8l-0.5-0.2l-0.4,0.1l-0.8,0.5h-0.4l-0.9-0.5l-2.5-2.4h0.9l0.6-0.5l0.3-0.8
	l0.3-1l0.1-1.1l-0.3-0.7l-1.1-1.5l3-7.3l0.4-2.9l-2-23.1l-2.6-11.4l1.8-14.9l-0.1-0.8c-1.1-0.1-2.2-0.1-2.7,0.4c-4,6-11,8-17,9
	c-14,2-27-10-41-3c-5,2-10,13-4,16c10,5,15,15,21,24c2,3,5,5,9,2c1,5,0,11,2,13c6,4,9,8,8,15c3,0,6,3,10,2c0,2-1,4,0,6c1,0,2,0,3,0
	c-3,7-16,6-14,12c1.6,7.2,10.2,10.5,14.6,17.2l1.1-0.1l1.3-0.4l0.4-0.4l0.5-0.6l0.5-0.3l0.6,0.1l0.7,0.4h0.5l1.8-0.4l0.5-0.2
	l0.4-0.3l0.4-0.3l0.6-1.2l0.5-0.6l0.6-0.2l13.9,0.4l2.3,0.4h2.3l1.7-0.4l0.5,0.1l0.5,0.2l0.5,0.3l0.4,0.3h0.6l1.3-1.3l0.6-2.8
	l0.5-10l0.4-1.1l1-0.6l2.4-0.4l0.9-0.8l0.1-1.3l-0.5-1.1l-0.7-1.1l-0.5-1.3l-0.3-7.8l0.1-0.8l0.2-0.7l0.7-0.9l0.2-0.7l0.6-1.1
	l1.2-0.6h1.2l1.1,0.4L283.9,328.9z" id="_x633__x631__x627__x648__x627__x646_" title="سراوان"></path>
<path class="st1 area" d="M228.7,369.6c-9-2-19,0-25,6c-3,2-6,0-9-2c0-1,0-2,0-3c-3,1-6,0-6-2c-1-6,0-12,0-18c-7,3-13-3-17-8
	c-2-2-8-1-8,3c-4.5-0.6-5.7-4.9-7.8-8c-0.1,0-0.1,0-0.2,0c-5.3-0.8-10.5,0.9-15.3,2.8c2.8,3.7,4.1,8.5,7.3,13.2c2,2-4,3-7,3
	c1,3,6,4,4,8c-2,2-4.1,4.9-6.5,6.9c6.9,9.2,9.1,22.3,23.5,24.1c1.4,0,3.7,1.9,4.7,4.4c11.6-2.6,19.6,6.2,29.4,12.5l1.7-13.3l0.5-2.1
	l0.8-1.9l1.4-1.1l7.1-2.2l2.1-1.4l1.1-0.6l1.2-0.4l2.4-0.4l0.5-0.7l0.3-1.7l0.9-1.7l2.3,0.3l2.6,1l2.1,0.3l1.3-0.7v-1l-0.6-1.3
	l-0.3-1.6l0.4-0.8l1.8-1.9l0.6-1.2v-0.5l-0.2-0.3l-0.2-0.5l0.1-0.6l0.4-0.5l0.5-0.4l1.1-0.5l0.5-0.2l0.7-0.6l0.5-0.3h0.6h1.2
	l0.6-0.1l0.4-0.3l0.3-0.7C231.6,370.9,230.6,369.6,228.7,369.6z" id="_x633__x631__x628__x627__x632_" title="سرباز"></path>
<path class="st3 area" d="M108.7,236.6c1-10,10-9,16-14c2-1,0-6,1-9c2-2,7,2,9-1c1-3,3-7-1-10c6-5,6-6,10-12c3-4,9,8,15,3c3-3-2-9,1-13
	c2-2,4.7-3.4,7-4.9l-0.3-0.3l-17.6-21.7l-7.8-9.5l7.8-9.4l5.8-7c-1.3-0.9-2.6-2-3.8-3.2c-2-3-8,2-9,0c-6.4-7.4-18.8-10.5-17.6-20.3
	c-3.8-14.6-21-21-35.4-23.3c-0.1,0.8-0.2,1.3-0.2,1.4l-0.1,0.4L88,83L60.7,94.2c-0.2,2.1-0.9,8.3-1.8,9.5
	c-0.6,1.1-1.1,12.5-1.1,15.1c0,0.8,0.7,11.5,1.3,21.8c0.8,12.2,1.6,24.9,1.6,26c0,1.9,1.3,12,2.5,14.8c2.5,5.9,3,9.4,1.5,10.9
	c-1.7,1.7-2.8,4.1-2.1,4.8c1.3,1.3,2.4,8.4,2.7,10.5l0,0.1l0,0.1c-0.2,6.7,0,18,1.1,19.7c0.3,0.4,0.5,0.9,0.6,1.2
	C81.3,232.3,96.7,225.5,108.7,236.6z" id="_x632__x627__x647__x62F__x627__x646_" title="زاهدان"></path>
<path class="st3 area" d="M180.7,82.6c0,3.9,1.3,6.6,3.9,8.5l11.4-14l1-1.1l-0.1-0.4h-0.1l0.1-1.3l0.1-0.5l0.4-0.2l-0.2-4.7l0-0.1
	c-1.8,0.4-3.6-1.2-5.4-1.2c0.1-0.5,0.2-1,0.2-1.5C181.6,63.9,180.7,75.9,180.7,82.6z" id="_x632__x647__x6A9_" title="زهک"></path>
<path class="st2 area active" d="M191.7,67.6c1.8,0,3.6,1.6,5.4,1.2l-0.3-0.7l1.1-2.2l0.4-1.5V63l-0.2-1.4l-0.8-2.3l-1-2.2l-0.1-0.7l-0.1-2
	l-0.5-1.6l-1.6-2.6l-0.6-1.4v-1.4l0.4-2.9l-0.4-1.3l-2.1-2.7l-1.1-0.9l-1.5-0.6l-12.6-1.9c0.3,3.6,1.3,7.1,3.5,10.4
	C184.7,55.6,193.7,57.6,191.7,67.6z" id="_x647__x6CC__x631__x645__x646__x62F_" title="هیرمند"></path>
<line class="st4 area" x1="184.6" y1="62.8" x2="223.8" y2="37.2" id="LINE_20" title=""></line>
<line class="st4 area" x1="184.6" y1="45.1" x2="204.2" y2="18.4" id="LINE_21" title=""></line>
<line class="st4 area" x1="187.3" y1="79.6" x2="227.8" y2="76.1" id="LINE_22" title=""></line>
<line class="st4 area" x1="158.1" y1="210.2" x2="187.3" y2="196.6" id="LINE_23" title=""></line>
<line class="st4 area" x1="213.9" y1="331.4" x2="256.3" y2="376.4" id="LINE_24" title=""></line>
<line class="st4 area" x1="182.3" y1="337.4" x2="228.1" y2="393" id="LINE_25" title=""></line>
<line class="st4 area" x1="140.8" y1="408.3" x2="206.1" y2="420.6" id="LINE_26" title=""></line>
<line class="st4 area" x1="157.1" y1="96.8" x2="182.3" y2="110.3" id="LINE_27" title=""></line>
<g id="G_28" class="area" title="">
	<path d="M207.4,13.3h-0.4c-0.4,0-0.7-0.1-1-0.4c-0.2-0.2-0.4-0.4-0.6-0.8c-0.2,0.4-0.5,0.7-0.8,0.9c-0.4,0.2-0.9,0.3-1.7,0.3
		c-1.4,0-2.1-0.5-2.1-1.5c0-0.3,0.1-0.7,0.3-1c0.1-0.1,0.1-0.2,0.2-0.2c0.1,0,0.1,0.1,0.1,0.2c0,0.1,0,0.1,0,0.3c0,0.1,0,0.2,0,0.3
		c0,0.6,0.5,0.9,1.5,0.9c1.4,0,2.1-0.3,2.1-0.8c0-0.3-0.4-1.4-1.2-3.3l0.4-0.8c0.1-0.1,0.1-0.2,0.1-0.2c0,0,0.1,0.1,0.1,0.2
		c0.3,0.8,0.8,2,1.4,3.6c0.3,0.8,0.7,1.2,1.3,1.2h0.3V13.3z" id="PATH_29" class="area" title=""></path>
	<path d="M212.3,13.3h-0.8c-0.9,0-1.5-0.3-1.9-0.9c-0.3,0.6-1,0.9-2.1,0.9H207v-1.2h0.9c1,0,1.5-0.4,1.6-1.1c0-0.3,0.1-0.5,0.2-0.5
		s0.2,0.2,0.2,0.5c0.1,0.7,0.6,1.1,1.5,1.1h0.9V13.3z M210.3,8.2L209.5,9l-0.8-0.8l0.8-0.8L210.3,8.2z" id="PATH_30" class="area" title=""></path>
	<path d="M217.3,11.3c0,0.5,0,0.9-0.2,1.3c-0.2,0.5-0.5,0.8-0.8,0.8c-0.5,0-1.3-0.3-2.3-1c-0.3,0.4-0.5,0.6-0.6,0.7
		c-0.3,0.2-0.6,0.3-1,0.3h-0.5v-1.2h0.7c0.4,0,0.8-0.2,1.2-0.7c0.2-0.2,0.5-0.7,0.9-1.3c0.3-0.5,0.7-0.7,1-0.7
		c0.5,0,0.9,0.2,1.2,0.7C217.1,10.6,217.2,11,217.3,11.3z M216.7,12.1c0-0.3-0.1-0.6-0.3-1c-0.2-0.4-0.5-0.6-0.8-0.6
		c-0.3,0-0.6,0.3-1,0.9c0.2,0.2,0.5,0.4,0.9,0.6c0.4,0.2,0.8,0.3,1,0.3C216.6,12.3,216.7,12.2,216.7,12.1z" id="PATH_31" class="area" title=""></path>
	<path d="M223.5,13.3h-0.4c-0.4,0-0.6-0.1-0.8-0.2c0,0.1,0,0.2,0,0.3c0,0.9-0.3,1.8-0.9,2.7c-0.5,0.8-1,1.1-1.3,1.1
		c-0.8,0-1.4,0-2-0.1c-0.2,0-0.3-0.1-0.3-0.1s0.1-0.1,0.3-0.1c0.8-0.2,1.6-0.6,2.4-1.2c0.8-0.7,1.3-1.4,1.3-2.1c0-0.4-0.3-1-1-1.7
		l0.5-0.9c0-0.1,0.1-0.1,0.1-0.1c0,0,0.1,0.1,0.1,0.1c0.3,0.4,0.5,0.7,0.7,0.8c0.3,0.2,0.7,0.4,1.1,0.4h0.3V13.3z" id="PATH_32" class="area" title=""></path>
	<path d="M228.4,13.3h-0.8c-0.9,0-1.5-0.3-1.9-0.9c-0.3,0.6-1,0.9-2.1,0.9h-0.6v-1.2h0.9c1,0,1.5-0.4,1.6-1.1c0-0.3,0.1-0.5,0.2-0.5
		s0.2,0.2,0.2,0.5c0.1,0.7,0.6,1.1,1.5,1.1h0.9V13.3z M225.1,15.5l-0.8,0.8l-0.8-0.8l0.8-0.8L225.1,15.5z M226.8,15.5l-0.8,0.8
		l-0.8-0.8l0.8-0.8L226.8,15.5z" id="PATH_33" class="area" title=""></path>
	<path d="M234.5,11.3c0,0.4-0.1,0.8-0.4,1.2c-0.3,0.5-0.6,0.7-1,0.7c-0.3,0-1-0.2-2.1-0.7c-0.9,0.6-1.7,0.8-2.4,0.8H228v-1.2h0.6
		c0.4,0,0.8,0,1.2-0.1c-0.4-0.3-0.6-0.7-0.6-1.2c0-0.6,0.4-1.3,1.3-2l-0.7-0.3c0.2-0.2,0.5-0.5,0.9-0.9c0.9,0.5,1.7,0.9,2.4,1.5
		C234,9.9,234.5,10.6,234.5,11.3z M231.9,10.5c0-0.3-0.1-0.5-0.2-0.7c-0.1-0.3-0.3-0.4-0.6-0.4c-0.3,0-0.5,0.1-0.8,0.3
		c-0.3,0.2-0.5,0.5-0.5,0.7c0,0.4,0.4,0.8,1.1,1c0.2-0.1,0.4-0.2,0.6-0.3C231.8,10.9,231.9,10.7,231.9,10.5z M234,11.7
		c0-0.3-0.2-0.6-0.6-1c-0.3-0.3-0.6-0.6-0.9-0.7c0,0.8-0.2,1.4-0.7,1.8c0.8,0.3,1.4,0.4,1.6,0.4C233.8,12.2,234,12,234,11.7z" id="PATH_34" class="area" title=""></path>
</g>
<g id="G_35" class="area" title="">
	<path d="M235.9,35h-0.5c-0.5,0-0.9-0.2-1.1-0.5c0,0.6-0.1,1.3-0.2,2.2c-0.3,0.7-0.8,1.3-1.6,1.6c-0.7,0.3-1.4,0.5-2.3,0.5
		s-1.5-0.2-2-0.5c-0.6-0.4-0.9-1-0.9-1.9c0-0.8,0.2-1.6,0.7-2.2c0.1-0.1,0.1-0.1,0.2-0.1c0.1,0,0.1,0,0.1,0.1c0,0,0,0.1,0,0.1
		c-0.2,0.5-0.3,1-0.3,1.4c0,0.6,0.2,1.1,0.7,1.5c0.4,0.3,0.9,0.5,1.6,0.5c0.6,0,1.3-0.1,2-0.4c1-0.3,1.4-0.7,1.4-1.2l-0.1-4.8
		c-0.1-2.3-0.1-3.9-0.2-5l0.8-0.7c0,0.3,0.1,1.4,0.2,3.4l0.1,3.9c0,0.6,0.4,1,1.2,1h0.3V35z" id="PATH_36" class="area" title=""></path>
	<path d="M238.3,33c0,1.3-0.7,2-2,2h-0.8v-1.2h0.7c1,0,1.5-0.2,1.5-0.5c0-0.3-0.2-0.7-0.7-1.2l0.4-1c0-0.1,0.1-0.1,0.1-0.1
		s0.1,0.1,0.2,0.2C238.1,31.7,238.3,32.4,238.3,33z M237.9,37.2l-0.8,0.8l-0.8-0.8l0.8-0.8L237.9,37.2z" id="PATH_37" class="area" title=""></path>
	<path d="M240.6,33.8c0,0.4-0.1,0.8-0.3,1.1c-0.1,0.2-0.2,0.3-0.2,0.3c0,0-0.1-0.1-0.1-0.4c0-1.2-0.2-4-0.6-8.5l0.8-0.8
		c0.1-0.1,0.1-0.1,0.1-0.1c0,0,0,0.1,0,0.2C240.6,26.9,240.6,29.6,240.6,33.8z" id="PATH_38" class="area" title=""></path>
	<path d="M245.7,35.1c0,1-0.3,1.9-0.9,2.8c-0.5,0.7-1,1.1-1.3,1.1c-0.8,0-1.4,0-2-0.1c-0.2,0-0.3-0.1-0.3-0.1s0.1-0.1,0.3-0.1
		c0.8-0.2,1.6-0.6,2.4-1.2c0.8-0.7,1.3-1.4,1.3-2.1c0-0.4-0.3-1-1-1.7l0.5-0.9c0-0.1,0.1-0.1,0.1-0.1c0,0,0.1,0.1,0.1,0.1
		c0.2,0.3,0.5,0.7,0.6,1.2C245.6,34.3,245.7,34.7,245.7,35.1z M244.9,29.7l-0.8,0.8l-0.8-0.8l0.8-0.8L244.9,29.7z" id="PATH_39" class="area" title=""></path>
</g>
<g id="G_40" class="area" title="">
	<path d="M117.1,68.8c0,1-0.3,1.9-0.9,2.8c-0.5,0.7-1,1.1-1.3,1.1c-0.8,0-1.4,0-2-0.1c-0.2,0-0.3-0.1-0.3-0.1s0.1-0.1,0.3-0.1
		c0.8-0.2,1.6-0.6,2.4-1.2c0.8-0.7,1.3-1.4,1.3-2.1c0-0.4-0.3-1-1-1.7l0.5-0.9c0-0.1,0.1-0.1,0.1-0.1c0,0,0.1,0.1,0.1,0.1
		c0.2,0.3,0.5,0.7,0.6,1.2C117,68,117.1,68.4,117.1,68.8z M116.4,63.4l-0.8,0.8l-0.8-0.8l0.8-0.8L116.4,63.4z" id="PATH_41" class="area" title=""></path>
	<path d="M122.3,68.3c0,1.5-0.5,2.8-1.5,3.8c-0.3,0.3-0.5,0.5-0.6,0.5c-0.6,0-1.2-0.1-1.9-0.2c-0.3,0-0.4-0.1-0.4-0.1
		c0,0,0.1-0.1,0.4-0.2c0.8-0.2,1.6-0.7,2.3-1.3c0.3-0.3,0.6-0.5,0.8-0.9c0.3-0.4,0.5-0.8,0.5-1.1v-0.3l-1.3,0
		c-0.9,0-1.4-0.4-1.4-1.1c0-0.5,0.1-1,0.4-1.6c0.3-0.6,0.7-1,1.1-1c0.6,0,1.1,0.4,1.4,1.3C122.2,66.8,122.3,67.5,122.3,68.3z
		 M121.6,67.4c0-0.3-0.1-0.6-0.3-0.9c-0.2-0.3-0.5-0.5-0.8-0.5c-0.2,0-0.4,0.1-0.5,0.2c-0.2,0.2-0.2,0.3-0.2,0.5
		c0,0.5,0.3,0.7,1,0.7C120.9,67.5,121.2,67.5,121.6,67.4z" id="PATH_42" class="area" title=""></path>
	<path d="M128.5,68.7h-0.4c-0.4,0-0.6-0.1-0.8-0.2c0,0.1,0,0.2,0,0.3c0,0.9-0.3,1.8-0.9,2.7c-0.5,0.8-1,1.1-1.3,1.1
		c-0.8,0-1.4,0-2-0.1c-0.2,0-0.3-0.1-0.3-0.1s0.1-0.1,0.3-0.1c0.8-0.2,1.6-0.6,2.4-1.2c0.8-0.7,1.3-1.4,1.3-2.1c0-0.4-0.3-1-1-1.7
		l0.5-0.9c0-0.1,0.1-0.1,0.1-0.1c0,0,0.1,0.1,0.1,0.1c0.3,0.4,0.5,0.7,0.7,0.8c0.3,0.2,0.7,0.4,1.1,0.4h0.3V68.7z" id="PATH_43" class="area" title=""></path>
	<path d="M135.7,68.7H135c-0.5,0-1-0.3-1.4-0.8c-0.3,0.8-0.6,1.2-0.9,1.2c-0.3,0-0.8-0.2-1.4-0.5c-0.5-0.3-0.9-0.6-1.1-0.8
		c-0.5,0.6-1,0.9-1.5,0.9h-0.6v-1.2h0.6c0.5,0,0.9-0.2,1.3-0.6c0.3-0.3,0.6-0.7,1-1.1c0.4-0.4,0.7-0.6,1-0.6c0.4,0,0.7,0.2,1,0.6
		c0.2,0.2,0.4,0.6,0.9,1.1c0.3,0.4,0.7,0.6,1.1,0.6h0.6V68.7z M133,67.8c0-0.3-0.1-0.6-0.3-1c-0.2-0.4-0.5-0.6-0.9-0.6
		c-0.3,0-0.7,0.3-1.1,0.8c0.1,0.1,0.4,0.3,0.9,0.6c0.5,0.3,0.9,0.4,1.2,0.4C132.9,68,133,68,133,67.8z" id="PATH_44" class="area" title=""></path>
	<path d="M140.6,68.7h-0.8c-0.9,0-1.5-0.3-1.9-0.9c-0.3,0.6-1,0.9-2.1,0.9h-0.6v-1.2h0.9c1,0,1.5-0.4,1.6-1.1c0-0.3,0.1-0.5,0.2-0.5
		c0.1,0,0.2,0.2,0.2,0.5c0.1,0.7,0.6,1.1,1.5,1.1h0.9V68.7z M137.3,70.9l-0.8,0.8l-0.8-0.8l0.8-0.8L137.3,70.9z M139,70.9l-0.8,0.8
		l-0.8-0.8l0.8-0.8L139,70.9z" id="PATH_45" class="area" title=""></path>
	<path d="M143,66.7c0,1.3-0.7,2-2,2h-0.8v-1.2h0.7c1,0,1.5-0.2,1.5-0.5c0-0.3-0.2-0.7-0.7-1.2l0.4-1c0-0.1,0.1-0.1,0.1-0.1
		c0,0,0.1,0.1,0.2,0.2C142.8,65.4,143,66,143,66.7z M142.9,62.1l-0.8,0.8l-0.8-0.8l0.8-0.8L142.9,62.1z" id="PATH_46" class="area" title=""></path>
</g>
<g id="G_47" class="area" title="">
	<path d="M243.8,77.9h-0.7c-0.5,0-1-0.3-1.6-0.8c-0.3-0.3-0.7-0.8-1.2-1.5c0,0.7-0.1,1.2-0.4,1.5c-0.5,0.6-1.5,0.9-3,0.9h-2
		c-2.4,0-3.7-0.7-3.7-2.1c0-0.5,0.2-1,0.5-1.5c0.1-0.1,0.2-0.2,0.2-0.2c0.1,0,0.1,0,0.1,0.1c0,0.1,0,0.1,0,0.2
		c-0.1,0.4-0.2,0.6-0.2,0.9c0,0.4,0.2,0.7,0.5,0.9c0.5,0.4,1.3,0.6,2.4,0.6h2c1.1,0,1.9-0.1,2.3-0.2c0.5-0.2,0.7-0.5,0.7-0.9
		c0-0.4-0.2-0.9-0.7-1.5c-0.3-0.3-0.7-0.8-1.3-1.3c-0.5-0.4-0.7-0.7-0.7-0.7c0-0.7,0.1-1.1,0.3-1.4c0-0.1,0.7-0.3,2.1-0.8
		c1.4-0.5,2.6-0.9,3.5-1.2c0,0.1-0.1,0.5-0.3,1.1c-1.1,0.3-2.7,0.9-4.9,1.7c1,0.9,2.1,2.2,3.4,3.9c0.5,0.6,0.9,1,1.2,1.2
		c0.2,0.1,0.6,0.2,1,0.2h0.4V77.9z" id="PATH_48" class="area" title=""></path>
	<path d="M249.9,75.8c0,0.4-0.1,0.8-0.4,1.2c-0.3,0.5-0.6,0.7-1,0.7c-0.3,0-1-0.2-2.1-0.7c-0.9,0.6-1.7,0.8-2.4,0.8h-0.5v-1.2h0.6
		c0.4,0,0.8,0,1.2-0.1c-0.4-0.3-0.6-0.7-0.6-1.2c0-0.6,0.4-1.3,1.3-2l-0.7-0.3c0.2-0.2,0.5-0.5,0.9-0.9c0.9,0.5,1.7,0.9,2.4,1.5
		C249.5,74.4,249.9,75.1,249.9,75.8z M247.3,75c0-0.3-0.1-0.5-0.2-0.7c-0.1-0.3-0.3-0.4-0.6-0.4c-0.3,0-0.5,0.1-0.8,0.3
		c-0.3,0.2-0.5,0.5-0.5,0.7c0,0.4,0.4,0.8,1.1,1c0.2-0.1,0.4-0.2,0.6-0.3C247.2,75.4,247.3,75.2,247.3,75z M249.4,76.2
		c0-0.3-0.2-0.6-0.6-1c-0.3-0.3-0.6-0.6-0.9-0.7c0,0.8-0.2,1.4-0.7,1.8c0.8,0.3,1.4,0.4,1.6,0.4C249.2,76.7,249.4,76.5,249.4,76.2z" id="PATH_49" class="area" title=""></path>
	<path d="M255,77.9c0,1-0.3,1.9-0.9,2.8c-0.5,0.7-1,1.1-1.3,1.1c-0.8,0-1.4,0-2-0.1c-0.2,0-0.3-0.1-0.3-0.1s0.1-0.1,0.3-0.1
		c0.8-0.2,1.6-0.6,2.4-1.2c0.8-0.7,1.3-1.4,1.3-2.1c0-0.4-0.3-1-1-1.7l0.5-0.9c0-0.1,0.1-0.1,0.1-0.1c0,0,0.1,0.1,0.1,0.1
		c0.2,0.3,0.5,0.7,0.6,1.2C254.9,77.2,255,77.6,255,77.9z M254.3,72.6l-0.8,0.8l-0.8-0.8l0.8-0.8L254.3,72.6z" id="PATH_50" class="area" title=""></path>
</g>
<g id="G_51" class="area" title="">
	<path d="M198,111.2c0.1,0.3,0.1,0.6,0.1,0.9c0,0.4-0.1,0.7-0.2,1.1c-0.3,0.7-0.8,1.3-1.8,1.7c-0.8,0.3-1.6,0.5-2.5,0.5
		c-0.9,0-1.6-0.2-2.2-0.6c-0.6-0.5-0.9-1.1-0.9-2c0-0.5,0.1-0.9,0.3-1.5c0.2-0.4,0.3-0.7,0.5-0.9c0.1-0.1,0.2-0.1,0.2-0.1
		c0.1,0,0.1,0,0.1,0.1c0,0,0,0.1,0,0.2c-0.3,0.6-0.4,1.2-0.4,1.7c0,0.5,0.2,0.9,0.5,1.3c0.4,0.5,1.1,0.7,2,0.7c1,0,1.9-0.2,2.6-0.5
		c0.6-0.3,1-0.6,1.2-1c0.1-0.1,0.1-0.3,0.1-0.4c0-0.3-0.1-0.6-0.2-1c-0.1-0.3-0.4-0.8-0.9-1.6l0.4-0.8c0.1-0.1,0.1-0.2,0.1-0.2
		s0.1,0,0.1,0.1C197.6,109.6,197.9,110.4,198,111.2z M195.1,106.9l-0.8,0.8l-0.8-0.8l0.8-0.8L195.1,106.9z" id="PATH_52" class="area" title=""></path>
	<path d="M204.3,111.3h-1.1c-0.1,1.4-0.6,2.5-1.6,3.5c-0.3,0.3-0.5,0.5-0.6,0.5c-0.5,0-1.2-0.1-1.9-0.2c-0.2,0-0.4-0.1-0.4-0.1
		s0.1-0.1,0.4-0.2c0.8-0.2,1.6-0.7,2.3-1.2c0.3-0.3,0.6-0.5,0.8-0.9c0.3-0.4,0.5-0.8,0.5-1.1v-0.3h-1.3c-1,0-1.4-0.4-1.4-1.2
		c0-0.5,0.1-1,0.4-1.6c0.3-0.6,0.7-1,1.1-1c0.5,0,0.9,0.3,1.2,1c0.2,0.5,0.4,1,0.4,1.6h1.1V111.3z M202.5,110.2
		c0-0.3-0.1-0.6-0.3-0.9c-0.2-0.4-0.5-0.5-0.8-0.5c-0.2,0-0.4,0.1-0.5,0.2s-0.2,0.3-0.2,0.6c0,0.5,0.4,0.7,1.2,0.7
		C202,110.2,202.2,110.2,202.5,110.2z" id="PATH_53" class="area" title=""></path>
	<path d="M209.3,109.3c0,0.5,0,0.9-0.2,1.3c-0.2,0.5-0.5,0.8-0.8,0.8c-0.5,0-1.3-0.3-2.3-1c-0.3,0.4-0.5,0.6-0.6,0.7
		c-0.3,0.2-0.6,0.3-1,0.3h-0.5v-1.2h0.7c0.4,0,0.8-0.2,1.2-0.7c0.2-0.2,0.5-0.7,0.9-1.3c0.3-0.5,0.7-0.7,1-0.7
		c0.5,0,0.9,0.2,1.2,0.7C209.1,108.6,209.2,109,209.3,109.3z M208.7,110.1c0-0.3-0.1-0.6-0.3-1c-0.2-0.4-0.5-0.6-0.8-0.6
		c-0.3,0-0.6,0.3-1,0.9c0.2,0.2,0.5,0.4,0.9,0.6c0.4,0.2,0.8,0.3,1,0.3C208.6,110.3,208.7,110.2,208.7,110.1z" id="PATH_54" class="area" title=""></path>
	<path d="M213.2,111.3h-0.7c-0.7,0-1.3-0.3-1.5-0.9c-0.2-0.4-0.3-1.1-0.3-1.9v-1.9c0-0.9-0.1-2.2-0.2-3.9l0.6-0.7
		c0.1-0.1,0.2-0.1,0.2,0c0.1,0.9,0.2,2.2,0.2,3.9v2.9c0,0.8,0.4,1.2,1.2,1.2h0.5V111.3z" id="PATH_55" class="area" title=""></path>
	<path d="M219.3,109.3c0,0.4-0.1,0.8-0.4,1.2c-0.3,0.5-0.6,0.7-1,0.7c-0.3,0-1-0.2-2.1-0.7c-0.9,0.6-1.7,0.8-2.4,0.8h-0.5v-1.2h0.6
		c0.4,0,0.8,0,1.2-0.1c-0.4-0.3-0.6-0.7-0.6-1.2c0-0.6,0.4-1.3,1.3-2l-0.7-0.3c0.2-0.2,0.5-0.5,0.9-0.9c0.9,0.5,1.7,0.9,2.4,1.5
		C218.8,107.9,219.3,108.6,219.3,109.3z M216.7,108.5c0-0.3-0.1-0.5-0.2-0.7c-0.1-0.3-0.3-0.4-0.6-0.4c-0.3,0-0.5,0.1-0.8,0.3
		c-0.3,0.2-0.5,0.5-0.5,0.7c0,0.4,0.4,0.8,1.1,1c0.2-0.1,0.4-0.2,0.6-0.3C216.6,108.9,216.7,108.7,216.7,108.5z M218.8,109.7
		c0-0.3-0.2-0.6-0.6-1c-0.3-0.3-0.6-0.6-0.9-0.7c0,0.8-0.2,1.4-0.7,1.8c0.8,0.3,1.4,0.4,1.6,0.4C218.6,110.2,218.8,110,218.8,109.7z
		" id="PATH_56" class="area" title=""></path>
</g>
<g id="G_57" class="area" title="">
	<path d="M89.9,154.2c0.1,0.3,0.1,0.6,0.1,0.9c0,0.4-0.1,0.7-0.2,1.1c-0.3,0.7-0.8,1.3-1.8,1.7c-0.8,0.3-1.6,0.5-2.5,0.5
		c-0.9,0-1.6-0.2-2.2-0.6c-0.6-0.5-0.9-1.1-0.9-2c0-0.5,0.1-0.9,0.3-1.5c0.2-0.4,0.3-0.7,0.5-0.9c0.1-0.1,0.2-0.1,0.2-0.1
		c0.1,0,0.1,0,0.1,0.1c0,0,0,0.1,0,0.2c-0.3,0.6-0.4,1.2-0.4,1.7c0,0.5,0.2,0.9,0.5,1.3c0.4,0.5,1.1,0.7,2,0.7c1,0,1.9-0.2,2.6-0.5
		c0.6-0.3,1-0.6,1.2-1c0.1-0.1,0.1-0.3,0.1-0.4c0-0.3-0.1-0.6-0.2-1c-0.1-0.3-0.4-0.8-0.9-1.6l0.4-0.8c0.1-0.1,0.1-0.2,0.1-0.2
		s0.1,0,0.1,0.1C89.5,152.6,89.8,153.4,89.9,154.2z M87,149.9l-0.8,0.8l-0.8-0.8l0.8-0.8L87,149.9z" id="PATH_58" class="area" title=""></path>
	<path d="M92.3,153.1c0,0.4-0.1,0.8-0.3,1.1c-0.1,0.2-0.2,0.3-0.2,0.3c0,0-0.1-0.1-0.1-0.4c0-1.2-0.2-4-0.6-8.5l0.8-0.8
		c0.1-0.1,0.1-0.1,0.1-0.1c0,0,0,0.1,0,0.2C92.3,146.3,92.3,149,92.3,153.1z" id="PATH_59" class="area" title=""></path>
	<path d="M100.2,154.3h-0.4c-0.4,0-0.7-0.1-1-0.4c-0.2-0.2-0.4-0.4-0.6-0.8c-0.2,0.4-0.5,0.7-0.8,0.9c-0.4,0.2-0.9,0.3-1.7,0.3
		c-1.4,0-2.1-0.5-2.1-1.5c0-0.3,0.1-0.7,0.3-1c0.1-0.1,0.1-0.2,0.2-0.2c0.1,0,0.1,0.1,0.1,0.2c0,0.1,0,0.1,0,0.3c0,0.1,0,0.2,0,0.3
		c0,0.6,0.5,0.9,1.5,0.9c1.4,0,2.1-0.3,2.1-0.8c0-0.3-0.4-1.4-1.2-3.3l0.4-0.8c0.1-0.1,0.1-0.2,0.1-0.2c0,0,0.1,0.1,0.1,0.2
		c0.3,0.8,0.8,2,1.4,3.6c0.3,0.8,0.7,1.2,1.3,1.2h0.3V154.3z" id="PATH_60" class="area" title=""></path>
	<path d="M106.3,152.3c0,0.4-0.1,0.8-0.4,1.2c-0.3,0.5-0.6,0.7-1,0.7c-0.3,0-1-0.2-2.1-0.7c-0.9,0.6-1.7,0.8-2.4,0.8h-0.5v-1.2h0.6
		c0.4,0,0.8,0,1.2-0.1c-0.4-0.3-0.6-0.7-0.6-1.2c0-0.6,0.4-1.3,1.3-2l-0.7-0.3c0.2-0.2,0.5-0.5,0.9-0.9c0.9,0.5,1.7,0.9,2.4,1.5
		C105.8,150.9,106.3,151.6,106.3,152.3z M103.6,151.5c0-0.3-0.1-0.5-0.2-0.7c-0.1-0.3-0.3-0.4-0.6-0.4c-0.3,0-0.5,0.1-0.8,0.3
		c-0.3,0.2-0.5,0.5-0.5,0.7c0,0.4,0.4,0.8,1.1,1c0.2-0.1,0.4-0.2,0.6-0.3C103.5,151.9,103.6,151.7,103.6,151.5z M105.7,152.7
		c0-0.3-0.2-0.6-0.6-1c-0.3-0.3-0.6-0.6-0.9-0.7c0,0.8-0.2,1.4-0.7,1.8c0.8,0.3,1.4,0.4,1.6,0.4C105.5,153.2,105.7,153,105.7,152.7z
		" id="PATH_61" class="area" title=""></path>
	<path d="M108.6,153.1c0,0.4-0.1,0.8-0.3,1.1c-0.1,0.2-0.2,0.3-0.2,0.3c0,0-0.1-0.1-0.1-0.4c0-1.2-0.2-4-0.6-8.5l0.8-0.8
		c0.1-0.1,0.1-0.1,0.1-0.1c0,0,0,0.1,0,0.2C108.6,146.3,108.6,149,108.6,153.1z" id="PATH_62" class="area" title=""></path>
	<path d="M113.7,154.4c0,1-0.3,1.9-0.9,2.8c-0.5,0.7-1,1.1-1.3,1.1c-0.8,0-1.4,0-2-0.1c-0.2,0-0.3-0.1-0.3-0.1s0.1-0.1,0.3-0.1
		c0.8-0.2,1.6-0.6,2.4-1.2c0.8-0.7,1.3-1.4,1.3-2.1c0-0.4-0.3-1-1-1.7l0.5-0.9c0-0.1,0.1-0.1,0.1-0.1c0,0,0.1,0.1,0.1,0.1
		c0.2,0.3,0.5,0.7,0.6,1.2C113.5,153.6,113.7,154.1,113.7,154.4z M112.9,149.1l-0.8,0.8l-0.8-0.8l0.8-0.8L112.9,149.1z" id="PATH_63" class="area" title=""></path>
</g>
<g id="G_64" class="area" title="">
	<path d="M193.2,194.5c0,0.7-0.2,1.2-0.6,1.6c-0.4,0.4-1,0.5-1.6,0.5c-0.4,0-0.8-0.1-1.1-0.4c-0.3-0.3-0.5-0.6-0.5-1
		c0-0.5,0.2-1,0.6-1.7c0.3-0.6,0.7-1.1,1.1-1.5C192.5,192.7,193.2,193.5,193.2,194.5z M192.6,194.9c0-0.3-0.2-0.6-0.7-1
		c-0.4-0.4-0.7-0.6-1.1-0.7c-0.5,0.7-0.8,1.2-0.8,1.6c0,0.2,0.1,0.4,0.4,0.6c0.2,0.1,0.4,0.2,0.7,0.2c0.4,0,0.8-0.1,1.1-0.2
		C192.5,195.1,192.6,195,192.6,194.9z" id="PATH_65" class="area" title=""></path>
	<path d="M198.3,196.2c0,1.5-0.5,2.8-1.5,3.8c-0.3,0.3-0.5,0.5-0.6,0.5c-0.6,0-1.2-0.1-1.9-0.2c-0.3,0-0.4-0.1-0.4-0.1
		c0,0,0.1-0.1,0.4-0.2c0.8-0.2,1.6-0.7,2.3-1.3c0.3-0.3,0.6-0.5,0.8-0.9c0.3-0.4,0.5-0.8,0.5-1.1v-0.3l-1.3,0
		c-0.9,0-1.4-0.4-1.4-1.1c0-0.5,0.1-1,0.4-1.6c0.3-0.6,0.7-1,1.1-1c0.6,0,1.1,0.4,1.4,1.3C198.2,194.7,198.3,195.4,198.3,196.2z
		 M197.6,195.3c0-0.3-0.1-0.6-0.3-0.9c-0.2-0.3-0.5-0.5-0.8-0.5c-0.2,0-0.4,0.1-0.5,0.2s-0.2,0.3-0.2,0.5c0,0.5,0.3,0.7,1,0.7
		C196.9,195.4,197.2,195.4,197.6,195.3z" id="PATH_66" class="area" title=""></path>
	<path d="M202.3,196.6h-0.7c-0.7,0-1.3-0.3-1.5-0.9c-0.2-0.4-0.3-1.1-0.3-1.9v-1.9c0-0.9-0.1-2.2-0.2-3.9l0.6-0.7
		c0.1-0.1,0.2-0.1,0.2,0c0.1,0.9,0.2,2.2,0.2,3.9v2.9c0,0.8,0.4,1.2,1.2,1.2h0.5V196.6z" id="PATH_67" class="area" title=""></path>
	<path d="M210.1,193.7l-0.4,0.8c-0.7,0-1.3,0-1.6,0.1c-0.4,0.2-1,0.4-1.8,0.8c-0.8,0.4-1.4,0.7-1.8,0.8c-0.6,0.2-1.3,0.3-1.9,0.3
		h-0.7v-1.2h0.8c0.9,0,1.7-0.2,2.4-0.5l2.3-1c-0.4-0.1-1-0.3-1.8-0.6c-0.7-0.3-1.1-0.4-1.3-0.4c-0.4,0-0.8,0.2-1.2,0.5
		c-0.1,0.1-0.1,0.1-0.2,0.1c-0.1,0-0.1,0-0.1-0.1c0,0,0-0.1,0-0.1c0.3-1,0.9-1.4,1.7-1.4c0.3,0,0.7,0.1,1.1,0.3
		c0.8,0.4,1.4,0.6,1.8,0.8c0.7,0.2,1.5,0.4,2.4,0.4c0.2,0,0.3,0,0.3,0.1C210.2,193.5,210.2,193.6,210.1,193.7z M206.8,198.6
		l-0.8,0.8l-0.8-0.8l0.8-0.8L206.8,198.6z" id="PATH_68" class="area" title=""></path>
	<path d="M216.4,196.6H216c-0.4,0-0.6-0.1-0.8-0.2c0,0.1,0,0.2,0,0.3c0,0.9-0.3,1.8-0.9,2.7c-0.5,0.8-1,1.1-1.3,1.1
		c-0.8,0-1.4,0-2-0.1c-0.2,0-0.3-0.1-0.3-0.1s0.1-0.1,0.3-0.1c0.8-0.2,1.6-0.6,2.4-1.2c0.8-0.7,1.3-1.4,1.3-2.1c0-0.4-0.3-1-1-1.7
		l0.5-0.9c0-0.1,0.1-0.1,0.1-0.1c0,0,0.1,0.1,0.1,0.1c0.3,0.4,0.5,0.7,0.7,0.8c0.3,0.2,0.7,0.4,1.1,0.4h0.3V196.6z" id="PATH_69" class="area" title=""></path>
	<path d="M221.4,196.6h-0.8c-0.9,0-1.5-0.3-1.9-0.9c-0.3,0.6-1,0.9-2.1,0.9H216v-1.2h0.9c1,0,1.5-0.4,1.6-1.1c0-0.3,0.1-0.5,0.2-0.5
		s0.2,0.2,0.2,0.5c0.1,0.7,0.6,1.1,1.5,1.1h0.9V196.6z M218.1,198.8l-0.8,0.8l-0.8-0.8l0.8-0.8L218.1,198.8z M219.8,198.8l-0.8,0.8
		l-0.8-0.8l0.8-0.8L219.8,198.8z" id="PATH_70" class="area" title=""></path>
	<path d="M226.3,194.6c0,0.5,0,0.9-0.2,1.3c-0.2,0.5-0.5,0.8-0.8,0.8c-0.5,0-1.3-0.3-2.3-1c-0.3,0.4-0.5,0.6-0.6,0.7
		c-0.3,0.2-0.6,0.3-1,0.3H221v-1.2h0.7c0.4,0,0.8-0.2,1.2-0.7c0.2-0.2,0.5-0.7,0.9-1.3c0.3-0.5,0.7-0.7,1-0.7c0.5,0,0.9,0.2,1.2,0.7
		C226.2,193.9,226.3,194.2,226.3,194.6z M225.7,195.3c0-0.3-0.1-0.6-0.3-1c-0.2-0.4-0.5-0.6-0.8-0.6c-0.3,0-0.6,0.3-1,0.9
		c0.2,0.2,0.5,0.4,0.9,0.6c0.4,0.2,0.8,0.3,1,0.3C225.7,195.6,225.7,195.5,225.7,195.3z" id="PATH_71" class="area" title=""></path>
</g>
<g id="G_72" class="area" title="">
	<path d="M151.1,253.2c0,1.4-0.6,2.1-1.8,2.1c-0.7,0-1.1-0.3-1.3-0.9c-0.3,0.6-0.8,0.9-1.4,0.9c-0.2,0-0.5,0-0.7-0.1
		c0,0.6-0.1,1.2-0.1,1.9c-0.3,0.7-0.8,1.3-1.7,1.7c-0.8,0.3-1.6,0.5-2.5,0.5c-0.9,0-1.6-0.2-2.2-0.6c-0.6-0.5-0.9-1.1-0.9-2
		c0-0.5,0.1-0.9,0.3-1.5c0.2-0.4,0.3-0.7,0.5-0.9c0.1-0.1,0.2-0.1,0.2-0.1c0.1,0,0.1,0,0.1,0.1c0,0,0,0.1,0,0.2
		c-0.3,0.6-0.4,1.2-0.4,1.7c0,0.5,0.2,0.9,0.5,1.3c0.4,0.5,1.1,0.7,2,0.7c1,0,1.9-0.2,2.6-0.5c0.6-0.3,1-0.6,1.1-1
		c0.1-0.1,0.1-0.3,0-0.7c0-0.3-0.1-0.6-0.1-0.7c-0.1-0.3-0.4-0.8-1-1.5l0.4-0.8c0.1-0.1,0.1-0.2,0.1-0.2c0,0,0.1,0,0.1,0.1
		c0.3,0.4,0.5,0.7,0.6,0.8c0.3,0.3,0.6,0.4,1,0.4c0.4,0,0.8-0.1,1-0.4c0.1-0.2,0.2-0.4,0.3-0.9c0-0.2,0.1-0.3,0.2-0.3
		c0.1,0,0.1,0.1,0.1,0.3c0.1,0.5,0.2,0.8,0.4,1c0.2,0.2,0.6,0.3,1.1,0.3c0.2,0,0.4-0.1,0.5-0.2c0.2-0.1,0.3-0.3,0.3-0.5
		c0-0.3-0.2-0.6-0.6-1.1l0.5-0.9c0.1-0.1,0.1-0.1,0.1-0.1c0,0,0.1,0.1,0.1,0.1C151,252.1,151.1,252.7,151.1,253.2z M147.8,249.5
		l-0.7,0.7l-0.7-0.7l0.7-0.7L147.8,249.5z M148.7,248l-0.7,0.7l-0.7-0.7l0.7-0.7L148.7,248z M149.6,249.5l-0.7,0.7l-0.7-0.7l0.7-0.7
		L149.6,249.5z" id="PATH_73" class="area" title=""></path>
	<path d="M155.1,255.3h-0.7c-0.7,0-1.3-0.3-1.5-0.9c-0.2-0.4-0.3-1.1-0.3-1.9v-1.9c0-0.9-0.1-2.2-0.2-3.9l0.6-0.7
		c0.1-0.1,0.2-0.1,0.2,0c0.1,0.9,0.2,2.2,0.2,3.9v2.9c0,0.8,0.4,1.2,1.2,1.2h0.5V255.3z" id="PATH_74" class="area" title=""></path>
	<path d="M162.9,252.4l-0.4,0.8c-0.7,0-1.3,0-1.6,0.1c-0.4,0.2-1,0.4-1.8,0.8c-0.8,0.4-1.4,0.7-1.8,0.8c-0.6,0.2-1.3,0.3-1.9,0.3
		h-0.7v-1.2h0.8c0.9,0,1.7-0.2,2.4-0.5l2.3-1c-0.4-0.1-1-0.3-1.8-0.6c-0.7-0.3-1.1-0.4-1.3-0.4c-0.4,0-0.8,0.2-1.2,0.5
		c-0.1,0.1-0.1,0.1-0.2,0.1c-0.1,0-0.1,0-0.1-0.1c0,0,0-0.1,0-0.1c0.3-1,0.9-1.4,1.7-1.4c0.3,0,0.7,0.1,1.1,0.3
		c0.8,0.4,1.4,0.6,1.8,0.8c0.7,0.2,1.5,0.4,2.4,0.4c0.2,0,0.3,0,0.3,0.1C163,252.2,163,252.3,162.9,252.4z M160.1,247.9l-0.8,0.8
		l-0.8-0.8l0.8-0.8L160.1,247.9z" id="PATH_75" class="area" title=""></path>
</g>
<g id="G_76" class="area" title="">
	<path d="M226.8,295c0.1,0.3,0.1,0.6,0.1,0.9c0,0.4-0.1,0.7-0.2,1.1c-0.3,0.7-0.8,1.3-1.8,1.7c-0.8,0.3-1.6,0.5-2.5,0.5
		c-0.9,0-1.6-0.2-2.2-0.6c-0.6-0.5-0.9-1.1-0.9-2c0-0.5,0.1-0.9,0.3-1.5c0.2-0.4,0.3-0.7,0.5-0.9c0.1-0.1,0.2-0.1,0.2-0.1
		c0.1,0,0.1,0,0.1,0.1c0,0,0,0.1,0,0.2c-0.3,0.6-0.4,1.2-0.4,1.7c0,0.5,0.2,0.9,0.5,1.3c0.4,0.5,1.1,0.7,2,0.7c1,0,1.9-0.2,2.6-0.5
		c0.6-0.3,1-0.6,1.2-1c0.1-0.1,0.1-0.3,0.1-0.4c0-0.3-0.1-0.6-0.2-1c-0.1-0.3-0.4-0.8-0.9-1.6l0.4-0.8c0.1-0.1,0.1-0.2,0.1-0.2
		s0.1,0,0.1,0.1C226.3,293.5,226.6,294.2,226.8,295z M223.8,290.7l-0.8,0.8l-0.8-0.8l0.8-0.8L223.8,290.7z" id="PATH_77" class="area" title=""></path>
	<path d="M229.2,293.9c0,0.4-0.1,0.8-0.3,1.1c-0.1,0.2-0.2,0.3-0.2,0.3c0,0-0.1-0.1-0.1-0.4c0-1.2-0.2-4-0.6-8.5l0.8-0.8
		c0.1-0.1,0.1-0.1,0.1-0.1c0,0,0,0.1,0,0.2C229.2,287.1,229.2,289.8,229.2,293.9z" id="PATH_78" class="area" title=""></path>
	<path d="M234.4,294.8c0,1.5-0.5,2.8-1.5,3.8c-0.3,0.3-0.5,0.5-0.6,0.5c-0.6,0-1.2-0.1-1.9-0.2c-0.3,0-0.4-0.1-0.4-0.1
		c0,0,0.1-0.1,0.4-0.2c0.8-0.2,1.6-0.7,2.3-1.3c0.3-0.3,0.6-0.5,0.8-0.9c0.3-0.4,0.5-0.8,0.5-1.1v-0.3l-1.3,0
		c-0.9,0-1.4-0.4-1.4-1.1c0-0.5,0.1-1,0.4-1.6c0.3-0.6,0.7-1,1.1-1c0.6,0,1.1,0.4,1.4,1.3C234.3,293.3,234.4,294,234.4,294.8z
		 M233.6,293.9c0-0.3-0.1-0.6-0.3-0.9c-0.2-0.3-0.5-0.5-0.8-0.5c-0.2,0-0.4,0.1-0.5,0.2s-0.2,0.3-0.2,0.5c0,0.5,0.3,0.7,1,0.7
		C233,294,233.3,294,233.6,293.9z" id="PATH_79" class="area" title=""></path>
	<path d="M236.7,293.9c0,0.4-0.1,0.8-0.3,1.1c-0.1,0.2-0.2,0.3-0.2,0.3c0,0-0.1-0.1-0.1-0.4c0-1.2-0.2-4-0.6-8.5l0.8-0.8
		c0.1-0.1,0.1-0.1,0.1-0.1c0,0,0,0.1,0,0.2C236.7,287.1,236.7,289.8,236.7,293.9z" id="PATH_80" class="area" title=""></path>
	<path d="M242.9,295.2h-0.4c-0.4,0-0.6-0.1-0.8-0.2c0,0.1,0,0.2,0,0.3c0,0.9-0.3,1.8-0.9,2.7c-0.5,0.8-1,1.1-1.3,1.1
		c-0.8,0-1.4,0-2-0.1c-0.2,0-0.3-0.1-0.3-0.1s0.1-0.1,0.3-0.1c0.8-0.2,1.6-0.6,2.4-1.2c0.8-0.7,1.3-1.4,1.3-2.1c0-0.4-0.3-1-1-1.7
		l0.5-0.9c0-0.1,0.1-0.1,0.1-0.1c0,0,0.1,0.1,0.1,0.1c0.3,0.4,0.5,0.7,0.7,0.8c0.3,0.2,0.7,0.4,1.1,0.4h0.3V295.2z" id="PATH_81" class="area" title=""></path>
	<path d="M250.8,293c0,0.6-0.1,1.1-0.4,1.5c-0.3,0.4-0.8,0.7-1.3,0.7c-0.7,0-1.1-0.3-1.4-0.8c-0.4,0.6-0.8,0.8-1.4,0.8
		c-0.7,0-1.2-0.3-1.5-0.8c-0.4,0.6-0.9,0.8-1.6,0.8h-0.7V294h0.8c0.7,0,1.2-0.4,1.3-1.2c0-0.2,0.1-0.3,0.2-0.3
		c0.1,0,0.1,0.1,0.2,0.3c0.1,0.8,0.5,1.2,1.3,1.2c0.4,0,0.8-0.1,1-0.3c0.1-0.2,0.2-0.4,0.3-0.8c0-0.2,0.1-0.3,0.2-0.3
		c0.1,0,0.1,0.1,0.2,0.3c0.1,0.8,0.5,1.2,1.2,1.2c0.8,0,1.1-0.2,1.1-0.5c0-0.3-0.2-0.7-0.6-1.1l0.5-0.9c0.1-0.1,0.1-0.2,0.2-0.2
		s0.1,0.1,0.2,0.2C250.7,292.1,250.8,292.6,250.8,293z" id="PATH_82" class="area" title=""></path>
</g>
<g id="G_83" class="area" title="">
	<path d="M267.2,379.4c0.1,0.3,0.1,0.6,0.1,0.9c0,0.4-0.1,0.7-0.2,1.1c-0.3,0.7-0.8,1.3-1.8,1.7c-0.8,0.3-1.6,0.5-2.5,0.5
		c-0.9,0-1.6-0.2-2.2-0.6c-0.6-0.5-0.9-1.1-0.9-2c0-0.5,0.1-0.9,0.3-1.5c0.2-0.4,0.3-0.7,0.5-0.9c0.1-0.1,0.2-0.1,0.2-0.1
		c0.1,0,0.1,0,0.1,0.1c0,0,0,0.1,0,0.2c-0.3,0.6-0.4,1.2-0.4,1.7c0,0.5,0.2,0.9,0.5,1.3c0.4,0.5,1.1,0.7,2,0.7c1,0,1.9-0.2,2.6-0.5
		c0.6-0.3,1-0.6,1.2-1c0.1-0.1,0.1-0.3,0.1-0.4c0-0.3-0.1-0.6-0.2-1c-0.1-0.3-0.4-0.8-0.9-1.6l0.4-0.8c0.1-0.1,0.1-0.2,0.1-0.2
		s0.1,0,0.1,0.1C266.8,377.8,267.1,378.6,267.2,379.4z M264.3,375.1l-0.8,0.8l-0.8-0.8l0.8-0.8L264.3,375.1z" id="PATH_84" class="area" title=""></path>
	<path d="M269.6,378.3c0,0.4-0.1,0.8-0.3,1.1c-0.1,0.2-0.2,0.3-0.2,0.3c0,0-0.1-0.1-0.1-0.4c0-1.2-0.2-4-0.6-8.5l0.8-0.8
		c0.1-0.1,0.1-0.1,0.1-0.1c0,0,0,0.1,0,0.2C269.6,371.5,269.6,374.2,269.6,378.3z" id="PATH_85" class="area" title=""></path>
	<path d="M274.7,379.6c0,1-0.3,1.9-0.9,2.8c-0.5,0.7-1,1.1-1.3,1.1c-0.8,0-1.4,0-2-0.1c-0.2,0-0.3-0.1-0.3-0.1s0.1-0.1,0.3-0.1
		c0.8-0.2,1.6-0.6,2.4-1.2c0.8-0.7,1.3-1.4,1.3-2.1c0-0.4-0.3-1-1-1.7l0.5-0.9c0-0.1,0.1-0.1,0.1-0.1c0,0,0.1,0.1,0.1,0.1
		c0.2,0.3,0.5,0.7,0.6,1.2C274.6,378.9,274.7,379.3,274.7,379.6z" id="PATH_86" class="area" title=""></path>
	<path d="M280.9,379.5h-1.1c-0.1,1.4-0.6,2.5-1.6,3.5c-0.3,0.3-0.5,0.5-0.6,0.5c-0.5,0-1.2-0.1-1.9-0.2c-0.2,0-0.4-0.1-0.4-0.1
		c0,0,0.1-0.1,0.4-0.2c0.8-0.2,1.6-0.7,2.3-1.2c0.3-0.3,0.6-0.5,0.8-0.9c0.3-0.4,0.5-0.8,0.5-1.1v-0.3H278c-1,0-1.4-0.4-1.4-1.2
		c0-0.5,0.1-1,0.4-1.6c0.3-0.6,0.7-1,1.1-1c0.5,0,0.9,0.3,1.2,1c0.2,0.5,0.4,1,0.4,1.6h1.1V379.5z M279.1,378.4
		c0-0.3-0.1-0.6-0.3-0.9c-0.2-0.4-0.5-0.5-0.8-0.5c-0.2,0-0.4,0.1-0.5,0.2s-0.2,0.3-0.2,0.6c0,0.5,0.4,0.7,1.2,0.7
		C278.6,378.4,278.8,378.4,279.1,378.4z" id="PATH_87" class="area" title=""></path>
	<path d="M288.8,377.4c0,0.6-0.1,1.1-0.4,1.5c-0.3,0.4-0.8,0.7-1.3,0.7c-0.7,0-1.1-0.3-1.4-0.8c-0.4,0.6-0.8,0.8-1.4,0.8
		c-0.7,0-1.2-0.3-1.5-0.8c-0.4,0.6-0.9,0.8-1.6,0.8h-0.7v-1.2h0.8c0.7,0,1.2-0.4,1.3-1.2c0-0.2,0.1-0.3,0.2-0.3
		c0.1,0,0.1,0.1,0.2,0.3c0.1,0.8,0.5,1.2,1.3,1.2c0.4,0,0.8-0.1,1-0.3c0.1-0.2,0.2-0.4,0.3-0.8c0-0.2,0.1-0.3,0.2-0.3
		c0.1,0,0.1,0.1,0.2,0.3c0.1,0.8,0.5,1.2,1.2,1.2c0.8,0,1.1-0.2,1.1-0.5c0-0.3-0.2-0.7-0.6-1.1l0.5-0.9c0.1-0.1,0.1-0.2,0.2-0.2
		s0.1,0.1,0.2,0.2C288.6,376.5,288.8,377,288.8,377.4z" id="PATH_88" class="area" title=""></path>
	<path d="M297.9,379.1c0,1.5-0.5,2.8-1.5,3.8c-0.3,0.3-0.5,0.5-0.6,0.5c-0.6,0-1.2-0.1-1.9-0.2c-0.3,0-0.4-0.1-0.4-0.1
		c0,0,0.1-0.1,0.4-0.2c0.8-0.2,1.6-0.7,2.3-1.3c0.3-0.3,0.6-0.5,0.8-0.9c0.3-0.4,0.5-0.8,0.5-1.1v-0.3l-1.3,0
		c-0.9,0-1.4-0.4-1.4-1.1c0-0.5,0.1-1,0.4-1.6c0.3-0.6,0.7-1,1.1-1c0.6,0,1.1,0.4,1.4,1.3C297.8,377.7,297.9,378.4,297.9,379.1z
		 M297.2,378.3c0-0.3-0.1-0.6-0.3-0.9c-0.2-0.3-0.5-0.5-0.8-0.5c-0.2,0-0.4,0.1-0.5,0.2s-0.2,0.3-0.2,0.5c0,0.5,0.3,0.7,1,0.7
		C296.5,378.4,296.8,378.4,297.2,378.3z" id="PATH_89" class="area" title=""></path>
	<path d="M313.8,379.5h-0.4c-0.5,0-0.9-0.1-1.1-0.3c-0.3-0.2-0.5-0.6-0.5-1c-1.1,1-2.8,1.5-5.1,1.5c-2.4,0-3.6-0.7-3.6-2.2
		c0-0.5,0.2-1,0.6-1.5c0.1-0.1,0.1-0.1,0.2-0.1c0.1,0,0.1,0,0.1,0.1c0,0,0,0.1,0,0.2c-0.1,0.3-0.2,0.6-0.2,0.9c0,1,1.1,1.5,3.3,1.5
		c2.5,0,4.2-0.5,5-1.6c0.2-0.2,0.3-0.3,0.4-0.3c0.1,0,0.1,0.1,0.1,0.2c0,0.1,0,0.2-0.1,0.4c0,0.2-0.1,0.3-0.1,0.4
		c0,0.5,0.4,0.8,1.1,0.8h0.4V379.5z M308.5,381.8l-0.8,0.8l-0.8-0.8l0.8-0.8L308.5,381.8z" id="PATH_90" class="area" title=""></path>
	<path d="M318.7,379.5H318c-0.9,0-1.5-0.3-1.9-0.9c-0.3,0.6-1,0.9-2.1,0.9h-0.6v-1.2h0.9c1,0,1.5-0.4,1.6-1.1c0-0.3,0.1-0.5,0.2-0.5
		s0.2,0.2,0.2,0.5c0.1,0.7,0.6,1.1,1.5,1.1h0.9V379.5z M315.4,381.7l-0.8,0.8l-0.8-0.8l0.8-0.8L315.4,381.7z M317.2,381.7l-0.8,0.8
		l-0.8-0.8l0.8-0.8L317.2,381.7z" id="PATH_91" class="area" title=""></path>
	<path d="M326.6,377.4c0,0.6-0.1,1.1-0.4,1.5c-0.3,0.4-0.8,0.7-1.3,0.7c-0.7,0-1.1-0.3-1.4-0.8c-0.4,0.6-0.8,0.8-1.4,0.8
		c-0.7,0-1.2-0.3-1.5-0.8c-0.4,0.6-0.9,0.8-1.6,0.8h-0.7v-1.2h0.8c0.7,0,1.2-0.4,1.3-1.2c0-0.2,0.1-0.3,0.2-0.3
		c0.1,0,0.1,0.1,0.2,0.3c0.1,0.8,0.5,1.2,1.3,1.2c0.4,0,0.8-0.1,1-0.3c0.1-0.2,0.2-0.4,0.3-0.8c0-0.2,0.1-0.3,0.2-0.3
		c0.1,0,0.1,0.1,0.2,0.3c0.1,0.8,0.5,1.2,1.2,1.2c0.8,0,1.1-0.2,1.1-0.5c0-0.3-0.2-0.7-0.6-1.1l0.5-0.9c0.1-0.1,0.1-0.2,0.2-0.2
		s0.1,0.1,0.2,0.2C326.5,376.5,326.6,377,326.6,377.4z" id="PATH_92" class="area" title=""></path>
</g>
<g id="G_93" class="area" title="">
	<path d="M237.6,396.4c0.1,0.3,0.1,0.6,0.1,0.9c0,0.4-0.1,0.7-0.2,1.1c-0.3,0.7-0.8,1.3-1.8,1.7c-0.8,0.3-1.6,0.5-2.5,0.5
		c-0.9,0-1.6-0.2-2.2-0.6c-0.6-0.5-0.9-1.1-0.9-2c0-0.5,0.1-0.9,0.3-1.5c0.2-0.4,0.3-0.7,0.5-0.9c0.1-0.1,0.2-0.1,0.2-0.1
		c0.1,0,0.1,0,0.1,0.1c0,0,0,0.1,0,0.2c-0.3,0.6-0.4,1.2-0.4,1.7c0,0.5,0.2,0.9,0.5,1.3c0.4,0.5,1.1,0.7,2,0.7c1,0,1.9-0.2,2.6-0.5
		c0.6-0.3,1-0.6,1.2-1c0.1-0.1,0.1-0.3,0.1-0.4c0-0.3-0.1-0.6-0.2-1c-0.1-0.3-0.4-0.8-0.9-1.6l0.4-0.8c0.1-0.1,0.1-0.2,0.1-0.2
		s0.1,0,0.1,0.1C237.2,394.8,237.5,395.6,237.6,396.4z M234.7,392.1l-0.8,0.8l-0.8-0.8l0.8-0.8L234.7,392.1z" id="PATH_94" class="area" title=""></path>
	<path d="M241.7,396.5H241c-0.7,0-1.3-0.3-1.5-0.9c-0.2-0.4-0.3-1.1-0.3-1.9v-1.9c0-0.9-0.1-2.2-0.2-3.9l0.6-0.7
		c0.1-0.1,0.2-0.1,0.2,0c0.1,0.9,0.2,2.2,0.2,3.9v2.9c0,0.8,0.4,1.2,1.2,1.2h0.5V396.5z" id="PATH_95" class="area" title=""></path>
	<path d="M246.6,396.5h-0.8c-0.9,0-1.5-0.3-1.9-0.9c-0.3,0.6-1,0.9-2.1,0.9h-0.6v-1.2h0.9c1,0,1.5-0.4,1.6-1.1
		c0-0.3,0.1-0.5,0.2-0.5s0.2,0.2,0.2,0.5c0.1,0.7,0.6,1.1,1.5,1.1h0.9V396.5z M243.2,390.7l-0.8,0.8l-0.8-0.8l0.8-0.8L243.2,390.7z
		 M244.9,390.7l-0.8,0.8l-0.8-0.8l0.8-0.8L244.9,390.7z" id="PATH_96" class="area" title=""></path>
	<path d="M254.5,394.4c0,0.6-0.1,1.1-0.4,1.5c-0.3,0.4-0.8,0.7-1.3,0.7c-0.7,0-1.1-0.3-1.4-0.8c-0.4,0.6-0.8,0.8-1.4,0.8
		c-0.7,0-1.2-0.3-1.5-0.8c-0.4,0.6-0.9,0.8-1.6,0.8h-0.7v-1.2h0.8c0.7,0,1.2-0.4,1.3-1.2c0-0.2,0.1-0.3,0.2-0.3
		c0.1,0,0.1,0.1,0.2,0.3c0.1,0.8,0.5,1.2,1.3,1.2c0.4,0,0.8-0.1,1-0.3c0.1-0.2,0.2-0.4,0.3-0.8c0-0.2,0.1-0.3,0.2-0.3
		c0.1,0,0.1,0.1,0.2,0.3c0.1,0.8,0.5,1.2,1.2,1.2c0.8,0,1.1-0.2,1.1-0.5c0-0.3-0.2-0.7-0.6-1.1l0.5-0.9c0.1-0.1,0.1-0.2,0.2-0.2
		s0.1,0.1,0.2,0.2C254.3,393.5,254.5,394,254.5,394.4z" id="PATH_97" class="area" title=""></path>
	<path d="M260.7,396.5h-0.4c-0.4,0-0.6-0.1-0.8-0.2c0,0.1,0,0.2,0,0.3c0,0.9-0.3,1.8-0.9,2.7c-0.5,0.8-1,1.1-1.3,1.1
		c-0.8,0-1.4,0-2-0.1c-0.2,0-0.3-0.1-0.3-0.1s0.1-0.1,0.3-0.1c0.8-0.2,1.6-0.6,2.4-1.2c0.8-0.7,1.3-1.4,1.3-2.1c0-0.4-0.3-1-1-1.7
		l0.5-0.9c0-0.1,0.1-0.1,0.1-0.1c0,0,0.1,0.1,0.1,0.1c0.3,0.4,0.5,0.7,0.7,0.8c0.3,0.2,0.7,0.4,1.1,0.4h0.3V396.5z" id="PATH_98" class="area" title=""></path>
	<path d="M267,396.5h-0.5c-0.4,0-0.8,0.1-1.1,0.2c-0.5,0.2-0.8,0.5-0.8,1c0,0.6,0.4,1.1,1.2,1.6l-0.5,1c-0.9-0.3-1.7-0.8-2.3-1.4
		c-0.8-0.7-1.2-1.6-1.2-2.5h-1.4v-1.2h1.3c0-0.8,0.2-1.6,0.6-2.6c0.4-0.9,0.7-1.3,0.9-1.3c0.2,0,0.5,0.4,0.8,1.3
		c0.3,0.8,0.4,1.3,0.4,1.6c0,1.4-0.7,2.1-2.1,2.1c0.1,0.4,0.3,0.8,0.6,1.2s0.7,0.7,1.1,0.9c0-0.1,0-0.3,0-0.4c0-0.7,0.2-1.3,0.5-1.8
		c0.5-0.7,1.1-1.1,2-1.1h0.4V396.5z M263.9,394.9c0-0.2-0.1-0.6-0.3-1.1c-0.2-0.6-0.4-0.8-0.6-0.8c-0.1,0-0.3,0.2-0.5,0.7
		c-0.2,0.5-0.3,1.1-0.3,1.7C263.4,395.4,263.9,395.2,263.9,394.9z" id="PATH_99" class="area" title=""></path>
	<path d="M271.9,394.6c0,0.5,0,0.9-0.2,1.3c-0.2,0.5-0.5,0.8-0.8,0.8c-0.5,0-1.3-0.3-2.3-1c-0.3,0.4-0.5,0.6-0.6,0.7
		c-0.3,0.2-0.6,0.3-1,0.3h-0.5v-1.2h0.7c0.4,0,0.8-0.2,1.2-0.7c0.2-0.2,0.5-0.7,0.9-1.3c0.3-0.5,0.7-0.7,1-0.7
		c0.5,0,0.9,0.2,1.2,0.7C271.8,393.8,271.9,394.2,271.9,394.6z M271.3,395.3c0-0.3-0.1-0.6-0.3-1c-0.2-0.4-0.5-0.6-0.8-0.6
		c-0.3,0-0.6,0.3-1,0.9c0.2,0.2,0.5,0.4,0.9,0.6s0.8,0.3,1,0.3C271.3,395.5,271.3,395.5,271.3,395.3z" id="PATH_100" class="area" title=""></path>
</g>
<g id="G_101" class="area" title="">
	<path d="M218.5,427.6h-0.4c-0.4,0-0.7-0.1-1-0.4c-0.2-0.2-0.4-0.4-0.6-0.8c-0.2,0.4-0.5,0.7-0.8,0.9c-0.4,0.2-0.9,0.3-1.7,0.3
		c-1.4,0-2.1-0.5-2.1-1.5c0-0.3,0.1-0.7,0.3-1c0.1-0.1,0.1-0.2,0.2-0.2c0.1,0,0.1,0.1,0.1,0.2c0,0.1,0,0.1,0,0.3s0,0.2,0,0.3
		c0,0.6,0.5,0.9,1.5,0.9c1.4,0,2.1-0.3,2.1-0.8c0-0.3-0.4-1.4-1.2-3.3l0.4-0.8c0.1-0.1,0.1-0.2,0.1-0.2c0,0,0.1,0.1,0.1,0.2
		c0.3,0.8,0.8,2,1.4,3.6c0.3,0.8,0.7,1.2,1.3,1.2h0.3V427.6z" id="PATH_102" class="area" title=""></path>
	<path d="M223.4,427.6h-0.8c-0.9,0-1.5-0.3-1.9-0.9c-0.3,0.6-1,0.9-2.1,0.9h-0.6v-1.2h0.9c1,0,1.5-0.4,1.6-1.1
		c0-0.3,0.1-0.5,0.2-0.5s0.2,0.2,0.2,0.5c0.1,0.7,0.6,1.1,1.5,1.1h0.9V427.6z M221.5,422.4l-0.8,0.8l-0.8-0.8l0.8-0.8L221.5,422.4z" id="PATH_103" class="area" title=""></path>
	<path d="M227.3,424.8c0,0.9-0.1,1.5-0.3,1.8c-0.5,0.7-1.3,1-2.6,1h-1.4v-1.2h1c1.7,0,2.6-0.3,2.8-0.8c0.1-0.2,0-0.4-0.1-0.6
		c-0.4,0.1-0.8,0.1-1.3,0.1c-0.9,0-1.4-0.4-1.4-1.2c0-0.5,0.1-1.1,0.4-1.6c0.3-0.6,0.7-0.9,1.2-0.9c0.4,0,0.8,0.3,1.1,0.8
		C227.1,422.9,227.3,423.8,227.3,424.8z M225.4,419.3l-0.8,0.8l-0.8-0.8l0.8-0.8L225.4,419.3z M226.6,423.9c0-0.3-0.1-0.6-0.3-0.9
		s-0.5-0.4-0.8-0.4c-0.2,0-0.4,0.1-0.6,0.2s-0.2,0.3-0.2,0.5c0,0.4,0.3,0.6,1,0.6C225.9,424,226.2,424,226.6,423.9z M227.1,419.3
		l-0.8,0.8l-0.8-0.8l0.8-0.8L227.1,419.3z" id="PATH_104" class="area" title=""></path>
	<path d="M237.4,427.6H237c-0.4,0-0.6-0.1-0.8-0.2c0,0.1,0,0.2,0,0.3c0,0.9-0.3,1.8-0.9,2.7c-0.5,0.8-1,1.1-1.3,1.1
		c-0.8,0-1.4,0-2-0.1c-0.2,0-0.3-0.1-0.3-0.1s0.1-0.1,0.3-0.1c0.8-0.2,1.6-0.6,2.4-1.2c0.8-0.7,1.3-1.4,1.3-2.1c0-0.4-0.3-1-1-1.7
		l0.5-0.9c0-0.1,0.1-0.1,0.1-0.1c0,0,0.1,0.1,0.1,0.1c0.3,0.4,0.5,0.7,0.7,0.8c0.3,0.2,0.7,0.4,1.1,0.4h0.3V427.6z" id="PATH_105" class="area" title=""></path>
	<path d="M247,427.6h-0.8c-0.7,0-1.4-0.1-2.2-0.3c-0.7,0.2-1.6,0.3-2.6,0.3c-0.7,0-1.2,0-1.5-0.1c-0.5-0.1-0.8-0.4-1-0.8
		c-0.4,0.6-0.9,0.9-1.5,0.9H237v-1.2h0.4c0.8,0,1.2-0.4,1.3-1.2c0-0.2,0.1-0.3,0.2-0.3s0.2,0.1,0.2,0.3c0.1,0.7,0.4,1.1,1,1.1
		c1.9-2,3.3-3,4.4-3c0.5,0,0.9,0.1,1.2,0.4c0.3,0.3,0.5,0.7,0.5,1.1c0,0.6-0.2,1.1-0.7,1.6c0.1,0,0.3,0,0.5,0s0.4,0,0.5,0h0.4V427.6
		z M245.4,425.5c0-0.3-0.2-0.6-0.5-0.8c-0.3-0.2-0.6-0.3-0.9-0.3c-0.9,0-2,0.6-3.2,1.9c0.3,0,0.6,0,0.9,0c0.7,0,1.4-0.1,2.1-0.2
		C244.9,426.1,245.4,425.8,245.4,425.5z" id="PATH_106" class="area" title=""></path>
	<path d="M250.9,424.8c0,0.9-0.1,1.5-0.3,1.8c-0.5,0.7-1.3,1-2.6,1h-1.4v-1.2h1c1.7,0,2.6-0.3,2.8-0.8c0.1-0.2,0-0.4-0.1-0.6
		c-0.4,0.1-0.8,0.1-1.3,0.1c-0.9,0-1.4-0.4-1.4-1.2c0-0.5,0.1-1.1,0.4-1.6c0.3-0.6,0.7-0.9,1.2-0.9c0.4,0,0.8,0.3,1.1,0.8
		C250.7,422.9,250.9,423.8,250.9,424.8z M248.9,419.3l-0.8,0.8l-0.8-0.8l0.8-0.8L248.9,419.3z M250.1,423.9c0-0.3-0.1-0.6-0.3-0.9
		s-0.5-0.4-0.8-0.4c-0.2,0-0.4,0.1-0.6,0.2s-0.2,0.3-0.2,0.5c0,0.4,0.3,0.6,1,0.6C249.5,424,249.8,424,250.1,423.9z M250.6,419.3
		l-0.8,0.8l-0.8-0.8l0.8-0.8L250.6,419.3z" id="PATH_107" class="area" title=""></path>
</g>
<g id="G_108" class="area" title="">
	<path d="M151.6,443.8c0,1-0.3,1.9-0.9,2.8c-0.5,0.7-1,1.1-1.3,1.1c-0.8,0-1.4,0-2-0.1c-0.2,0-0.3-0.1-0.3-0.1s0.1-0.1,0.3-0.1
		c0.8-0.2,1.6-0.6,2.4-1.2c0.8-0.7,1.3-1.4,1.3-2.1c0-0.4-0.3-1-1-1.7l0.5-0.9c0-0.1,0.1-0.1,0.1-0.1c0,0,0.1,0.1,0.1,0.1
		c0.2,0.3,0.5,0.7,0.6,1.2C151.5,443,151.6,443.4,151.6,443.8z" id="PATH_109" class="area" title=""></path>
	<path d="M155.5,443.7h-0.7c-0.7,0-1.3-0.3-1.5-0.9c-0.2-0.4-0.3-1.1-0.3-1.9v-1.9c0-0.9-0.1-2.2-0.2-3.9l0.6-0.7
		c0.1-0.1,0.2-0.1,0.2,0c0.1,0.9,0.2,2.2,0.2,3.9v2.9c0,0.8,0.4,1.2,1.2,1.2h0.5V443.7z" id="PATH_110" class="area" title=""></path>
	<path d="M161.7,443.7h-0.5c-0.4,0-0.8,0.1-1.1,0.2c-0.5,0.2-0.8,0.5-0.8,1c0,0.6,0.4,1.1,1.2,1.6l-0.5,1c-0.9-0.3-1.7-0.8-2.3-1.4
		c-0.8-0.7-1.2-1.6-1.2-2.5h-1.4v-1.2h1.3c0-0.8,0.2-1.6,0.6-2.6c0.4-0.9,0.7-1.3,0.9-1.3c0.2,0,0.5,0.4,0.8,1.3
		c0.3,0.8,0.4,1.3,0.4,1.6c0,1.4-0.7,2.1-2.1,2.1c0.1,0.4,0.3,0.8,0.6,1.2c0.3,0.4,0.7,0.7,1.1,0.9c0-0.1,0-0.3,0-0.4
		c0-0.7,0.2-1.3,0.5-1.8c0.5-0.7,1.1-1.1,2-1.1h0.4V443.7z M158.7,442.1c0-0.2-0.1-0.6-0.3-1.1c-0.2-0.6-0.4-0.8-0.6-0.8
		c-0.1,0-0.3,0.2-0.5,0.7c-0.2,0.5-0.3,1.1-0.3,1.7C158.1,442.5,158.7,442.4,158.7,442.1z" id="PATH_111" class="area" title=""></path>
	<path d="M164.1,441.7c0,1.3-0.7,2-2,2h-0.8v-1.2h0.7c1,0,1.5-0.2,1.5-0.5c0-0.3-0.2-0.7-0.7-1.2l0.4-1c0-0.1,0.1-0.1,0.1-0.1
		c0,0,0.1,0.1,0.2,0.2C163.9,440.4,164.1,441,164.1,441.7z M163.8,445.9l-0.8,0.8l-0.8-0.8l0.8-0.8L163.8,445.9z" id="PATH_112" class="area" title=""></path>
	<path d="M168.1,443.7h-0.7c-0.7,0-1.3-0.3-1.5-0.9c-0.2-0.4-0.3-1.1-0.3-1.9v-1.9c0-0.9-0.1-2.2-0.2-3.9l0.6-0.7
		c0.1-0.1,0.2-0.1,0.2,0c0.1,0.9,0.2,2.2,0.2,3.9v2.9c0,0.8,0.4,1.2,1.2,1.2h0.5V443.7z" id="PATH_113" class="area" title=""></path>
	<path d="M175.9,440.8l-0.4,0.8c-0.7,0-1.3,0-1.6,0.1c-0.4,0.2-1,0.4-1.8,0.8c-0.8,0.4-1.4,0.7-1.8,0.8c-0.6,0.2-1.3,0.3-1.9,0.3
		h-0.7v-1.2h0.8c0.9,0,1.7-0.2,2.4-0.5l2.3-1c-0.4-0.1-1-0.3-1.8-0.6c-0.7-0.3-1.1-0.4-1.3-0.4c-0.4,0-0.8,0.2-1.2,0.5
		c-0.1,0.1-0.1,0.1-0.2,0.1c-0.1,0-0.1,0-0.1-0.1c0,0,0-0.1,0-0.1c0.3-1,0.9-1.4,1.7-1.4c0.3,0,0.7,0.1,1.1,0.3
		c0.8,0.4,1.4,0.6,1.8,0.8c0.7,0.2,1.5,0.4,2.4,0.4c0.2,0,0.3,0,0.3,0.1C176,440.6,176,440.6,175.9,440.8z M170.4,445.5l0.7-0.7
		l0.7,0.7l-0.7,0.7L170.4,445.5z M171.3,447.1l0.7-0.7l0.7,0.7l-0.7,0.7L171.3,447.1z M172.1,445.5l0.7-0.7l0.7,0.7l-0.7,0.7
		L172.1,445.5z" id="PATH_114" class="area" title=""></path>
</g>
<g id="G_115" class="area" title="">
	<path d="M161.8,378.4c0,1-0.3,1.9-0.9,2.8c-0.5,0.7-1,1.1-1.3,1.1c-0.8,0-1.4,0-2-0.1c-0.2,0-0.3-0.1-0.3-0.1s0.1-0.1,0.3-0.1
		c0.8-0.2,1.6-0.6,2.4-1.2c0.8-0.7,1.3-1.4,1.3-2.1c0-0.4-0.3-1-1-1.7l0.5-0.9c0-0.1,0.1-0.1,0.1-0.1c0,0,0.1,0.1,0.1,0.1
		c0.2,0.3,0.5,0.7,0.6,1.2C161.7,377.6,161.8,378.1,161.8,378.4z M161,373.1l-0.8,0.8l-0.8-0.8l0.8-0.8L161,373.1z" id="PATH_116" class="area" title=""></path>
	<path d="M165.7,378.3h-0.7c-0.7,0-1.3-0.3-1.5-0.9c-0.2-0.4-0.3-1.1-0.3-1.9v-1.9c0-0.9-0.1-2.2-0.2-3.9l0.6-0.7
		c0.1-0.1,0.2-0.1,0.2,0c0.1,0.9,0.2,2.2,0.2,3.9v2.9c0,0.8,0.4,1.2,1.2,1.2h0.5V378.3z" id="PATH_117" class="area" title=""></path>
	<path d="M168.1,376.3c0,1.3-0.7,2-2,2h-0.8v-1.2h0.7c1,0,1.5-0.2,1.5-0.5c0-0.3-0.2-0.7-0.7-1.2l0.4-1c0-0.1,0.1-0.1,0.1-0.1
		c0,0,0.1,0.1,0.2,0.2C167.9,375.1,168.1,375.7,168.1,376.3z M167.8,380.5l-0.8,0.8l-0.8-0.8l0.8-0.8L167.8,380.5z" id="PATH_118" class="area" title=""></path>
	<path d="M174.3,378.3h-0.4c-0.4,0-0.6-0.1-0.8-0.2c0,0.1,0,0.2,0,0.3c0,0.9-0.3,1.8-0.9,2.7c-0.5,0.8-1,1.1-1.3,1.1
		c-0.8,0-1.4,0-2-0.1c-0.2,0-0.3-0.1-0.3-0.1s0.1-0.1,0.3-0.1c0.8-0.2,1.6-0.6,2.4-1.2c0.8-0.7,1.3-1.4,1.3-2.1c0-0.4-0.3-1-1-1.7
		l0.5-0.9c0-0.1,0.1-0.1,0.1-0.1c0,0,0.1,0.1,0.1,0.1c0.3,0.4,0.5,0.7,0.7,0.8c0.3,0.2,0.7,0.4,1.1,0.4h0.3V378.3z" id="PATH_119" class="area" title=""></path>
	<path d="M182.2,376.2c0,0.6-0.1,1.1-0.4,1.5c-0.3,0.4-0.8,0.7-1.3,0.7c-0.7,0-1.1-0.3-1.4-0.8c-0.4,0.6-0.8,0.8-1.4,0.8
		c-0.7,0-1.2-0.3-1.5-0.8c-0.4,0.6-0.9,0.8-1.6,0.8H174v-1.2h0.8c0.7,0,1.2-0.4,1.3-1.2c0-0.2,0.1-0.3,0.2-0.3
		c0.1,0,0.1,0.1,0.2,0.3c0.1,0.8,0.5,1.2,1.3,1.2c0.4,0,0.8-0.1,1-0.3c0.1-0.2,0.2-0.4,0.3-0.8c0-0.2,0.1-0.3,0.2-0.3
		c0.1,0,0.1,0.1,0.2,0.3c0.1,0.8,0.5,1.2,1.2,1.2c0.8,0,1.1-0.2,1.1-0.5c0-0.3-0.2-0.7-0.6-1.1l0.5-0.9c0.1-0.1,0.1-0.2,0.2-0.2
		s0.1,0.1,0.2,0.2C182.1,375.2,182.2,375.8,182.2,376.2z" id="PATH_120" class="area" title=""></path>
</g>
<g id="G_121" class="area" title="">
	<path d="M78,432.7c0,0.2-0.2,0.6-0.4,1.1c-0.6,0.2-1.4,0.4-2.5,0.8c-1.1,0.4-1.9,0.7-2.3,0.9c0.8,0.8,1.3,1.4,1.6,1.7
		c0.5,0.7,0.8,1.3,0.9,2c0,0.5,0,1-0.2,1.4c-0.4,0.9-1.4,1.3-3.1,1.3h-2.1c-2.4,0-3.7-0.7-3.7-2.1c0-0.5,0.2-1,0.5-1.5
		c0.1-0.1,0.2-0.2,0.2-0.2c0.1,0,0.1,0,0.1,0.1c0,0.1,0,0.1,0,0.2c-0.1,0.4-0.2,0.6-0.2,0.9c0,0.4,0.2,0.7,0.5,0.9
		c0.5,0.4,1.3,0.6,2.4,0.6H72c0.8,0,1.4,0,1.7-0.1c0.7-0.1,1.1-0.5,1.1-0.9c0-0.7-0.5-1.6-1.6-2.6l-0.1,0.2
		c-0.1-0.1-0.3-0.3-0.5-0.6c-0.3-0.4-0.4-0.6-0.4-0.6c0-0.2,0-0.4,0.1-0.8c0.1-0.4,0.2-0.6,0.3-0.7c0.1-0.1,0.8-0.4,2.1-0.8
		C75.9,433.4,77.1,433,78,432.7z" id="PATH_122" class="area" title=""></path>
	<path d="M82.7,442.1c0,1-0.3,1.9-0.9,2.8c-0.5,0.7-1,1.1-1.3,1.1c-0.8,0-1.4,0-2-0.1c-0.2,0-0.3-0.1-0.3-0.1s0.1-0.1,0.3-0.1
		c0.8-0.2,1.6-0.6,2.4-1.2c0.8-0.7,1.3-1.4,1.3-2.1c0-0.4-0.3-1-1-1.7l0.5-0.9c0-0.1,0.1-0.1,0.1-0.1c0,0,0.1,0.1,0.1,0.1
		c0.2,0.3,0.5,0.7,0.6,1.2C82.6,441.3,82.7,441.7,82.7,442.1z" id="PATH_123" class="area" title=""></path>
	<path d="M86.7,442H86c-0.7,0-1.3-0.3-1.5-0.9c-0.2-0.4-0.3-1.1-0.3-1.9v-1.9c0-0.9-0.1-2.2-0.2-3.9l0.6-0.7c0.1-0.1,0.2-0.1,0.2,0
		c0.1,0.9,0.2,2.2,0.2,3.9v2.9c0,0.8,0.4,1.2,1.2,1.2h0.5V442z" id="PATH_124" class="area" title=""></path>
	<path d="M91.6,442h-0.8c-0.9,0-1.5-0.3-1.9-0.9c-0.3,0.6-1,0.9-2.1,0.9h-0.6v-1.2h0.9c1,0,1.5-0.4,1.6-1.1c0-0.3,0.1-0.5,0.2-0.5
		c0.1,0,0.2,0.2,0.2,0.5c0.1,0.7,0.6,1.1,1.5,1.1h0.9V442z M89.6,436.8l-0.8,0.8l-0.8-0.8l0.8-0.8L89.6,436.8z" id="PATH_125" class="area" title=""></path>
	<path d="M97.8,432.7c0,0.2-0.2,0.6-0.4,1.1l-2.5,0.8c-1.1,0.4-1.9,0.7-2.3,0.9c0.8,0.8,1.3,1.4,1.6,1.7c0.5,0.7,0.8,1.3,0.9,2
		c0,0.5,0,1-0.2,1.4c-0.3,0.9-1.4,1.3-3.1,1.3h-0.5v-1.2h0.6c0.8,0,1.4,0,1.7-0.1c0.7-0.2,1.1-0.5,1.1-1c0-0.7-0.5-1.5-1.6-2.5
		l-0.1,0.2c-0.1-0.1-0.3-0.3-0.5-0.6c-0.3-0.3-0.4-0.6-0.4-0.6c0-0.2,0-0.4,0.1-0.8c0.1-0.4,0.2-0.6,0.3-0.7
		c0.1-0.1,0.8-0.4,2.1-0.8C95.7,433.4,96.9,433,97.8,432.7z" id="PATH_126" class="area" title=""></path>
</g>
<g id="G_127" class="area" title="">
	<path d="M61,396.7h-0.4c-0.4,0-0.6-0.1-0.8-0.2c0,0.1,0,0.2,0,0.3c0,0.9-0.3,1.8-0.9,2.7c-0.5,0.8-1,1.1-1.3,1.1
		c-0.8,0-1.4,0-2-0.1c-0.2,0-0.3-0.1-0.3-0.1s0.1-0.1,0.3-0.1c0.8-0.2,1.6-0.6,2.4-1.2c0.8-0.7,1.3-1.4,1.3-2.1c0-0.4-0.3-1-1-1.7
		l0.5-0.9c0-0.1,0.1-0.1,0.1-0.1c0,0,0.1,0.1,0.1,0.1c0.3,0.4,0.5,0.7,0.7,0.8c0.3,0.2,0.7,0.4,1.1,0.4H61V396.7z" id="PATH_128" class="area" title=""></path>
	<path d="M67.2,396.7h-0.5c-0.4,0-0.8,0.1-1.1,0.2c-0.5,0.2-0.8,0.5-0.8,1c0,0.6,0.4,1.1,1.2,1.6l-0.5,1c-0.9-0.3-1.7-0.8-2.3-1.4
		c-0.8-0.7-1.2-1.6-1.2-2.5h-1.4v-1.2h1.3c0-0.8,0.2-1.6,0.6-2.6c0.4-0.9,0.7-1.3,0.9-1.3c0.2,0,0.5,0.4,0.8,1.3
		c0.3,0.8,0.4,1.3,0.4,1.6c0,1.4-0.7,2.1-2.1,2.1c0.1,0.4,0.3,0.8,0.6,1.2c0.3,0.4,0.7,0.7,1.1,0.9c0-0.1,0-0.3,0-0.4
		c0-0.7,0.2-1.3,0.5-1.8c0.5-0.7,1.1-1.1,2-1.1h0.4V396.7z M64.1,395.1c0-0.2-0.1-0.6-0.3-1.1c-0.2-0.6-0.4-0.8-0.6-0.8
		c-0.1,0-0.3,0.2-0.5,0.7c-0.2,0.5-0.3,1.1-0.3,1.7C63.6,395.5,64.1,395.4,64.1,395.1z" id="PATH_129" class="area" title=""></path>
	<path d="M75.1,394.5c0,0.6-0.1,1.1-0.4,1.5c-0.3,0.4-0.8,0.7-1.3,0.7c-0.7,0-1.1-0.3-1.4-0.8c-0.4,0.6-0.8,0.8-1.4,0.8
		c-0.7,0-1.2-0.3-1.5-0.8c-0.4,0.6-0.9,0.8-1.6,0.8h-0.7v-1.2h0.8c0.7,0,1.2-0.4,1.3-1.2c0-0.2,0.1-0.3,0.2-0.3
		c0.1,0,0.1,0.1,0.2,0.3c0.1,0.8,0.5,1.2,1.3,1.2c0.4,0,0.8-0.1,1-0.3c0.1-0.2,0.2-0.4,0.3-0.8c0-0.2,0.1-0.3,0.2-0.3
		c0.1,0,0.1,0.1,0.2,0.3c0.1,0.8,0.5,1.2,1.2,1.2c0.8,0,1.1-0.2,1.1-0.5c0-0.3-0.2-0.7-0.6-1.1l0.5-0.9c0.1-0.1,0.1-0.2,0.2-0.2
		s0.1,0.1,0.2,0.2C74.9,393.6,75.1,394.1,75.1,394.5z M71.7,390.9l-0.7,0.7l-0.7-0.7l0.7-0.7L71.7,390.9z M72.6,389.3l-0.7,0.7
		l-0.7-0.7l0.7-0.7L72.6,389.3z M73.5,390.9l-0.7,0.7l-0.7-0.7l0.7-0.7L73.5,390.9z" id="PATH_130" class="area" title=""></path>
	<path d="M92.8,396.7H92c-0.5,0-1-0.3-1.6-0.8c-0.3-0.3-0.7-0.8-1.2-1.5c0,0.7-0.1,1.2-0.4,1.5c-0.5,0.6-1.5,0.9-3,0.9h-2
		c-2.4,0-3.7-0.7-3.7-2.1c0-0.5,0.2-1,0.5-1.5c0.1-0.1,0.2-0.2,0.2-0.2c0.1,0,0.1,0,0.1,0.1c0,0.1,0,0.1,0,0.2
		c-0.1,0.4-0.2,0.6-0.2,0.9c0,0.4,0.2,0.7,0.5,0.9c0.5,0.4,1.3,0.6,2.4,0.6h2c1.1,0,1.9-0.1,2.3-0.2c0.5-0.2,0.7-0.5,0.7-0.9
		c0-0.4-0.2-0.9-0.7-1.5c-0.3-0.3-0.7-0.8-1.3-1.3c-0.5-0.4-0.7-0.7-0.7-0.7c0-0.7,0.1-1.1,0.3-1.4c0-0.1,0.7-0.3,2.1-0.8
		c1.4-0.5,2.6-0.9,3.5-1.2c0,0.1-0.1,0.5-0.3,1.1c-1.1,0.3-2.7,0.9-4.9,1.7c1,0.9,2.1,2.2,3.4,3.9c0.5,0.6,0.9,1,1.2,1.2
		c0.2,0.1,0.6,0.2,1,0.2h0.4V396.7z" id="PATH_131" class="area" title=""></path>
	<path d="M97.7,396.7h-0.8c-0.9,0-1.5-0.3-1.9-0.9c-0.3,0.6-1,0.9-2.1,0.9h-0.6v-1.2h0.9c1,0,1.5-0.4,1.6-1.1c0-0.3,0.1-0.5,0.2-0.5
		c0.1,0,0.2,0.2,0.2,0.5c0.1,0.7,0.6,1.1,1.5,1.1h0.9V396.7z M94.4,398.9l-0.8,0.8l-0.8-0.8l0.8-0.8L94.4,398.9z M96.1,398.9
		l-0.8,0.8l-0.8-0.8l0.8-0.8L96.1,398.9z" id="PATH_132" class="area" title=""></path>
	<path d="M100.1,394.7c0,1.3-0.7,2-2,2h-0.8v-1.2H98c1,0,1.5-0.2,1.5-0.5c0-0.3-0.2-0.7-0.7-1.2l0.4-1c0-0.1,0.1-0.1,0.1-0.1
		c0,0,0.1,0.1,0.2,0.2C99.9,393.4,100.1,394,100.1,394.7z M100,390.1l-0.8,0.8l-0.8-0.8l0.8-0.8L100,390.1z" id="PATH_133" class="area" title=""></path>
</g>
<g id="G_134" class="area" title="">
	<path d="M57.6,363.6c-0.5,0.5-1,0.8-1.6,0.9c-0.5,0.1-1.1,0.2-1.8,0.2c-1.4,0-2.5-0.3-3.2-1c-0.5-0.5-0.8-1.2-0.8-2
		c0-1.9,1.3-3.4,3.8-4.4c-1.1-0.2-1.8-0.3-2.3-0.3c-0.2,0-0.5,0.1-0.9,0.4c-0.4,0.3-0.6,0.4-0.5,0.4c-0.1,0-0.1-0.1-0.1-0.3
		c0-0.3,0.2-0.6,0.4-0.9c0.3-0.5,0.8-0.8,1.4-0.8c0.5,0,1.2,0.1,2.1,0.3c0.9,0.2,1.7,0.3,2.2,0.3H57c0.2,0,0.3,0,0.3,0.1
		c0,0,0,0.1-0.1,0.2l-0.3,0.8c-0.5,0-1,0.1-1.7,0.2c-1,0.2-2,0.6-2.8,1.1c-1.1,0.7-1.6,1.5-1.6,2.4c0,0.9,0.4,1.5,1.3,2
		c0.7,0.3,1.5,0.5,2.5,0.5c1,0,1.9-0.1,2.7-0.3c0.1,0,0.1,0,0.2,0c0.1,0,0.1,0,0.1,0.1C57.7,363.5,57.7,363.5,57.6,363.6z M55,361
		l-0.8,0.8l-0.8-0.8l0.8-0.8L55,361z" id="PATH_135" class="area" title=""></path>
	<path d="M63.5,360.3h-1.1c-0.1,1.4-0.6,2.5-1.6,3.5c-0.3,0.3-0.5,0.5-0.6,0.5c-0.5,0-1.2-0.1-1.9-0.2c-0.2,0-0.4-0.1-0.4-0.1
		c0,0,0.1-0.1,0.4-0.2c0.8-0.2,1.6-0.7,2.3-1.2c0.3-0.3,0.6-0.5,0.8-0.9c0.3-0.4,0.5-0.8,0.5-1.1v-0.3h-1.3c-1,0-1.4-0.4-1.4-1.2
		c0-0.5,0.1-1,0.4-1.6c0.3-0.6,0.7-1,1.1-1c0.5,0,0.9,0.3,1.2,1c0.2,0.5,0.4,1,0.4,1.6h1.1V360.3z M61.7,359.2
		c0-0.3-0.1-0.6-0.3-0.9c-0.2-0.4-0.5-0.5-0.8-0.5c-0.2,0-0.4,0.1-0.5,0.2c-0.2,0.2-0.2,0.3-0.2,0.6c0,0.5,0.4,0.7,1.2,0.7
		C61.2,359.2,61.4,359.2,61.7,359.2z" id="PATH_136" class="area" title=""></path>
	<path d="M65.9,358.3c0,1.3-0.7,2-2,2h-0.8v-1.2h0.7c1,0,1.5-0.2,1.5-0.5c0-0.3-0.2-0.7-0.7-1.2l0.4-1c0-0.1,0.1-0.1,0.1-0.1
		c0,0,0.1,0.1,0.2,0.2C65.7,357.1,65.9,357.7,65.9,358.3z M65.8,353.8l-0.8,0.8l-0.8-0.8L65,353L65.8,353.8z" id="PATH_137" class="area" title=""></path>
	<path d="M69.9,360.3h-0.7c-0.7,0-1.3-0.3-1.5-0.9c-0.2-0.4-0.3-1.1-0.3-1.9v-1.9c0-0.9-0.1-2.2-0.2-3.9l0.6-0.7
		c0.1-0.1,0.2-0.1,0.2,0c0.1,0.9,0.2,2.2,0.2,3.9v2.9c0,0.8,0.4,1.2,1.2,1.2h0.5V360.3z" id="PATH_138" class="area" title=""></path>
	<path d="M73.7,357.5v0.4c0,0.7-0.1,1.1-0.3,1.4c-0.5,0.7-1.3,1-2.6,1h-1.4v-1.2h1c1.7,0,2.6-0.3,2.8-0.8c0-0.1,0-0.1,0-0.2
		c0-0.2,0-0.3-0.1-0.4c-0.4,0.1-0.9,0.1-1.3,0.1c-0.9,0-1.4-0.4-1.4-1.2c0-0.5,0.1-1.1,0.4-1.6c0.3-0.6,0.7-0.9,1.2-0.9
		c0.4,0,0.8,0.3,1.1,0.8C73.6,355.7,73.7,356.5,73.7,357.5z M72.6,352l-0.8,0.8L71,352l0.8-0.8L72.6,352z M73,356.6
		c0-0.3-0.1-0.6-0.3-0.9c-0.2-0.3-0.5-0.4-0.8-0.4c-0.2,0-0.4,0.1-0.6,0.2c-0.1,0.1-0.2,0.3-0.2,0.5c0,0.4,0.3,0.6,1,0.6
		C72.3,356.8,72.6,356.7,73,356.6z" id="PATH_139" class="area" title=""></path>
</g>
<g id="G_140" class="area" title="">
	<path d="M50,322.3c0.1,0.3,0.1,0.6,0.1,0.9c0,0.4-0.1,0.7-0.2,1.1c-0.3,0.7-0.8,1.3-1.8,1.7c-0.8,0.3-1.6,0.5-2.5,0.5
		c-0.9,0-1.6-0.2-2.2-0.6c-0.6-0.5-0.9-1.1-0.9-2c0-0.5,0.1-0.9,0.3-1.5c0.2-0.4,0.3-0.7,0.5-0.9c0.1-0.1,0.2-0.1,0.2-0.1
		c0.1,0,0.1,0,0.1,0.1c0,0,0,0.1,0,0.2c-0.3,0.6-0.4,1.2-0.4,1.7c0,0.5,0.2,0.9,0.5,1.3c0.4,0.5,1.1,0.7,2,0.7c1,0,1.9-0.2,2.6-0.5
		c0.6-0.3,1-0.6,1.2-1c0.1-0.1,0.1-0.3,0.1-0.4c0-0.3-0.1-0.6-0.2-1c-0.1-0.3-0.4-0.8-0.9-1.6l0.4-0.8c0.1-0.1,0.1-0.2,0.1-0.2
		s0.1,0,0.1,0.1C49.6,320.7,49.9,321.5,50,322.3z M47.1,318l-0.8,0.8l-0.8-0.8l0.8-0.8L47.1,318z" id="PATH_141" class="area" title=""></path>
	<path d="M54.1,322.4h-0.7c-0.7,0-1.3-0.3-1.5-0.9c-0.2-0.4-0.3-1.1-0.3-1.9v-1.9c0-0.9-0.1-2.2-0.2-3.9l0.6-0.7
		c0.1-0.1,0.2-0.1,0.2,0c0.1,0.9,0.2,2.2,0.2,3.9v2.9c0,0.8,0.4,1.2,1.2,1.2h0.5V322.4z" id="PATH_142" class="area" title=""></path>
	<path d="M60.8,322.4h-0.6c-0.5,0-1.1-0.2-1.6-0.7c-0.4-0.3-0.8-0.9-1.3-1.6c-0.1,1.5-1.1,2.3-3.1,2.3h-0.6v-1.2h0.4
		c1.8,0,2.8-0.4,2.8-1.1c0-0.6-0.4-1.3-1.3-2.1c-0.4-0.4-0.8-0.7-1.3-1.1c0-0.4,0.1-0.7,0.3-1c0.1-0.1,1.9-0.7,5.5-1.8
		c0,0.1-0.1,0.5-0.3,1.1c-0.9,0.2-2.4,0.7-4.4,1.3c1,1.1,2,2.1,2.7,3c0.5,0.5,0.8,0.9,1.1,1.1c0.4,0.3,0.9,0.5,1.4,0.5h0.4V322.4z
		 M59.8,312.8l-0.2,0.7l-4.9,1.6l0.2-0.7L59.8,312.8z" id="PATH_143" class="area" title=""></path>
	<path d="M63.2,314.5c0.1,0.1,0.1,0.2,0.1,0.2c0,0-0.1,0-0.2,0h-0.3c0.1,1.3,0.1,3.2,0.1,5.7c0,0.6-0.1,1.1-0.4,1.4
		c-0.3,0.4-0.8,0.6-1.3,0.6h-0.6v-1.2H61c0.8,0,1.2-0.3,1.1-0.9c-0.1-2.1-0.2-4.3-0.3-6.5l0.7-0.6c0.1-0.1,0.2-0.2,0.2-0.2
		c0,0,0,0.1,0.1,0.2C62.8,313.6,62.9,314,63.2,314.5z" id="PATH_144" class="area" title=""></path>
	<path d="M65.5,321.2c0,0.4-0.1,0.8-0.3,1.1c-0.1,0.2-0.2,0.3-0.2,0.3c0,0-0.1-0.1-0.1-0.4c0-1.2-0.2-4-0.6-8.5l0.8-0.8
		c0.1-0.1,0.1-0.1,0.1-0.1c0,0,0,0.1,0,0.2C65.5,314.4,65.5,317.1,65.5,321.2z" id="PATH_145" class="area" title=""></path>
	<path d="M71.7,320.3c0,1.4-0.9,2.1-2.8,2.1c-0.7,0-1.2-0.1-1.5-0.3c-0.4-0.2-0.6-0.7-0.6-1.3c0-0.3,0.1-0.6,0.2-0.9
		c0.1-0.1,0.1-0.2,0.2-0.2c0.1,0,0.1,0.1,0.1,0.3c0,0.1,0,0.2,0,0.3c0,0.4,0.2,0.7,0.6,0.8c0.2,0.1,0.6,0.1,1.1,0.1
		c1.5,0,2.2-0.2,2.2-0.7c0-0.7-0.9-1.7-2.6-2.9l0.3-1c0-0.1,0.1-0.1,0.1-0.1c0,0,0.1,0,0.2,0.1C70.8,318,71.7,319.2,71.7,320.3z" id="PATH_146" class="area" title=""></path>
</g>
<g id="G_147" class="area" title="">
	<path d="M90.9,300h-0.4c-0.4,0-0.6-0.1-0.8-0.2c0,0.1,0,0.2,0,0.3c0,0.9-0.3,1.8-0.9,2.7c-0.5,0.8-1,1.1-1.3,1.1
		c-0.8,0-1.4,0-2-0.1c-0.2,0-0.3-0.1-0.3-0.1s0.1-0.1,0.3-0.1c0.8-0.2,1.6-0.6,2.4-1.2c0.8-0.7,1.3-1.4,1.3-2.1c0-0.4-0.3-1-1-1.7
		l0.5-0.9c0-0.1,0.1-0.1,0.1-0.1c0,0,0.1,0.1,0.1,0.1c0.3,0.4,0.5,0.7,0.7,0.8c0.3,0.2,0.7,0.4,1.1,0.4h0.3V300z" id="PATH_148" class="area" title=""></path>
	<path d="M97.1,300h-0.5c-0.4,0-0.8,0.1-1.1,0.2c-0.5,0.2-0.8,0.5-0.8,1c0,0.6,0.4,1.1,1.2,1.6l-0.5,1c-0.9-0.3-1.7-0.8-2.3-1.4
		c-0.8-0.7-1.2-1.6-1.2-2.5h-1.4v-1.2h1.3c0-0.8,0.2-1.6,0.6-2.6c0.4-0.9,0.7-1.3,0.9-1.3c0.2,0,0.5,0.4,0.8,1.3
		c0.3,0.8,0.4,1.3,0.4,1.6c0,1.4-0.7,2.1-2.1,2.1c0.1,0.4,0.3,0.8,0.6,1.2c0.3,0.4,0.7,0.7,1.1,0.9c0-0.1,0-0.3,0-0.4
		c0-0.7,0.2-1.3,0.5-1.8c0.5-0.7,1.1-1.1,2-1.1h0.4V300z M94.1,298.4c0-0.2-0.1-0.6-0.3-1.1c-0.2-0.6-0.4-0.8-0.6-0.8
		c-0.1,0-0.3,0.2-0.5,0.7c-0.2,0.5-0.3,1.1-0.3,1.7C93.5,298.8,94.1,298.7,94.1,298.4z" id="PATH_149" class="area" title=""></path>
	<path d="M106.3,300h-0.6c-0.7,0-1.1-0.3-1.4-0.8c-0.2,0.6-0.7,0.8-1.3,0.8c-0.6,0-1-0.3-1.3-0.8c-0.3,0.6-0.7,0.8-1.3,0.8
		c-0.7,0-1.2-0.3-1.5-0.8c-0.4,0.6-0.9,0.8-1.6,0.8h-0.7v-1.2h0.8c0.7,0,1.2-0.4,1.3-1.2c0-0.2,0.1-0.3,0.2-0.3
		c0.1,0,0.1,0.1,0.2,0.3c0.1,0.8,0.5,1.2,1.3,1.2c0.7,0,1.2-0.4,1.2-1.2c0-0.2,0.1-0.3,0.2-0.3c0.1,0,0.2,0.1,0.2,0.3
		c0.1,0.8,0.5,1.2,1,1.2c0.7,0,1.2-0.4,1.2-1.2c0-0.2,0.1-0.3,0.2-0.3c0.1,0,0.2,0.1,0.2,0.3c0.1,0.8,0.5,1.2,1.2,1.2h0.6V300z
		 M101.7,295l-0.7,0.7l-0.7-0.7l0.7-0.7L101.7,295z M102.6,293.4l-0.7,0.7l-0.7-0.7l0.7-0.7L102.6,293.4z M103.5,295l-0.7,0.7
		L102,295l0.7-0.7L103.5,295z" id="PATH_150" class="area" title=""></path>
	<path d="M108.7,298c0,1.3-0.7,2-2,2h-0.8v-1.2h0.7c1,0,1.5-0.2,1.5-0.5c0-0.3-0.2-0.7-0.7-1.2l0.4-1c0-0.1,0.1-0.1,0.1-0.1
		c0,0,0.1,0.1,0.2,0.2C108.5,296.7,108.7,297.4,108.7,298z M108.6,293.5l-0.8,0.8l-0.8-0.8l0.8-0.8L108.6,293.5z" id="PATH_151" class="area" title=""></path>
	<path d="M111.1,298.8c0,0.4-0.1,0.8-0.3,1.1c-0.1,0.2-0.2,0.3-0.2,0.3c0,0-0.1-0.1-0.1-0.4c0-1.2-0.2-4-0.6-8.5l0.8-0.8
		c0.1-0.1,0.1-0.1,0.1-0.1c0,0,0,0.1,0,0.2C111,291.9,111.1,294.6,111.1,298.8z" id="PATH_152" class="area" title=""></path>
	<path d="M117.3,300h-0.4c-0.4,0-0.6-0.1-0.8-0.2c0,0.1,0,0.2,0,0.3c0,0.9-0.3,1.8-0.9,2.7c-0.5,0.8-1,1.1-1.3,1.1
		c-0.8,0-1.4,0-2-0.1c-0.2,0-0.3-0.1-0.3-0.1s0.1-0.1,0.3-0.1c0.8-0.2,1.6-0.6,2.4-1.2c0.8-0.7,1.3-1.4,1.3-2.1c0-0.4-0.3-1-1-1.7
		l0.5-0.9c0-0.1,0.1-0.1,0.1-0.1c0,0,0.1,0.1,0.1,0.1c0.3,0.4,0.5,0.7,0.7,0.8c0.3,0.2,0.7,0.4,1.1,0.4h0.3V300z" id="PATH_153" class="area" title=""></path>
	<path d="M119.7,298c0,1.3-0.7,2-2,2h-0.8v-1.2h0.7c1,0,1.5-0.2,1.5-0.5c0-0.3-0.2-0.7-0.7-1.2l0.4-1c0-0.1,0.1-0.1,0.1-0.1
		c0,0,0.1,0.1,0.2,0.2C119.5,296.7,119.7,297.4,119.7,298z M118.9,302.2l-0.8,0.8l-0.8-0.8l0.8-0.8L118.9,302.2z M120.6,302.2
		l-0.8,0.8l-0.8-0.8l0.8-0.8L120.6,302.2z" id="PATH_154" class="area" title=""></path>
	<path d="M123,298.8c0,0.4-0.1,0.8-0.3,1.1c-0.1,0.2-0.2,0.3-0.2,0.3c0,0-0.1-0.1-0.1-0.4c0-1.2-0.2-4-0.6-8.5l0.8-0.8
		c0.1-0.1,0.1-0.1,0.1-0.1c0,0,0,0.1,0,0.2C123,291.9,123,294.6,123,298.8z" id="PATH_155" class="area" title=""></path>
</g>
</svg>


