



    


<svg version="1.1" id="Layer_1" xmlns="http://www.w3.org/2000/svg" xmlns:xlink="http://www.w3.org/1999/xlink" x="0px" y="0px" viewBox="0 0 498.4 540" style="enable-background:new 0 0 498.4 540;" xml:space="preserve" width="100%" height="100%">
<style type="text/css">
	.st0{fill:#FBD1D1;stroke:#020202;stroke-width:0.2;stroke-miterlimit:10;}
	.st1{fill:#DBECCB;stroke:#020202;stroke-width:0.2;stroke-miterlimit:10;}
	.st2{fill:#E8D0E5;stroke:#020202;stroke-width:0.2;stroke-miterlimit:10;}
	.st3{fill:#FDFAD6;stroke:#020202;stroke-width:0.2;stroke-miterlimit:10;}
</style>

		<path class="st0 area" d="M133.4,106.5c5.8,2.3,13.9,2.9,18-1.7c5.8-7,1.7-19.7,9.3-21.5c5.8-1.7,13.9,2.3,21.5,3.5
			c8.7,0.6,16.8-4.6,26.1-2.3c7,2.3,8.1,9.3,10.4,15.1c3.5,10.4,25.5,19.1,30.2,4.1c1.4-4,2.5-8.8,4.5-12.4
			c-11.2-6-24.9-13.6-25.8-14.1l-0.2-0.1l-15.4-18.9l0.7-0.8c0.3-0.3,7.5-8.4,11.8-10.1c1.8-0.7,3-2.3,3.3-4
			c0.3-2.1-0.7-4.2-2.9-6.1c-4.9-4.2-9.1-10-10.4-11.8c-7.1,0.7-14.7-1.3-15.8-1.7c-1.6-0.1-15.5-0.8-19.3-0.8
			c-4,0-11.8-1.4-19.6-11c-1.7-2.1-4-3.2-6.9-3.4c-6.6-0.3-14.5,4.7-17.3,7.5c-3.5,3.5-9.2,16.6-10.2,18.8
			c0.4,2.3,2.5,15.6,3.2,20.8c0.9,6.1-5.9,22.9-8.3,26.8c-1.1,1.9-2.1,5.9-3.1,9.8c-0.5,2.1-1,4.2-1.6,6c3.4,2,7.7,2.8,11.4,3.2
			C129.9,101.3,131,105.4,133.4,106.5z" id="_x622__x628__x627__x62F__x647_" title="آباده"></path>
		<path class="st1 area" d="M77.7,173.8c4.6-2.9,9.3-5.8,11-10.4c1.7-4.8-3-11.5-1.9-16.5c-0.4,0-0.7,0.1-1.1,0.1
			c-1.3,0.1-2.7,0.2-3.9,0.2c-5.3,0-12.3-5.9-14.9-11.2c-2.5-5-4.7-6.6-8.7-6.6c-0.8,0-1,0.3-1.1,0.4c-1,1.5,0.6,6.1,1.2,7.9l0.7,2
			c1.3,4,4.7,14.5,6.8,17.9c1.8,3-0.7,8.9-3,13.1C67.6,173.7,72.2,177.8,77.7,173.8z" id="_x631__x633__x62A__x645_" title="رستم"></path>
		<path class="st0 area active" d="M78.8,227.2c6.4-4.1,8.1-12.2,15.1-15.1c1.2-0.6,2.9,0,4.6,0c6.4,1.7,12.2,9.9,18,4.1
			c2.3-1.7,4.6-2.3,6.4-1.2c3.5,2.3,7,5.8,11,3.5c5.8-3.5,15.1-5.2,14.5-12.2c0-4.1-8.1-5.2-9.3-11.6c-0.6-2.3-7,0-9.3-1.7
			c-7-4.6-4.6-13.3-8.7-19.7c-4.1-7-12.2-9.3-16.8-15.7c-0.8-1.3-1.4-2.7-1.6-4.3c-3.4-0.3-6.3-2.6-8.1-5c-1.3-1.7-4.5-1.7-7.8-1.4
			c-1.1,5,3.6,11.7,1.9,16.5c-1.7,4.6-6.4,7.5-11,10.4c-5.5,4-10.1-0.1-14.9-3.2c-1.1,2.1-2.2,3.7-2.7,4.4l-0.2,0.3l-0.3,0.1
			c-1.1,0.5-10.9,5-15.1,5c-2.1,0-4.4,5.2-5.3,8.8c0,0-1.6,10.4-1.6,14.3c0,1.5-0.6,2.8-1.9,3.9c-2.7,2.4-8.1,3.6-14.1,2.9
			c-2.2-0.2-3.8,0.2-4.7,1.2c-1.5,1.5-1.2,4-1.2,4c0,0.3-0.1,0.6-0.2,0.8c1.5,1.5,3,3.7,3.5,6.4c0.2,1.5,0.1,2.7,0,3.7
			c-0.1,0.8-0.2,1.5,0,1.8c0.3,0.4,1.7,0.8,6.1,0.8c3.7,0,7.6-0.3,11.5-0.6c8.4-0.6,13.7-0.9,16.1,0.8c2,1.5,9.3,3.2,13.9,4.2
			c2.3-1.8,4.2-3.9,6.6-5.3C74.8,227.2,77.1,228.3,78.8,227.2z" id="_x645__x645__x633__x646__x6CC_" title="ممسنی"></path>
		<path class="st1 area" d="M214.6,175.6c6.4,5.2,14.5,1.2,21.5,2.9c2.9,1.2,5.2,3.5,7.5,5.2c2.9,2.3,6.4,4.6,8.7,2.3
			c3.5-3.5,9.3-1.7,11-4.6c2.3-4.6-5.2-9.3-2.9-15.1c1.2-3.5,6.4-2.3,8.7-5.2c4.6-7.5,0.6-15.7-1.2-23.2c-0.6-2.9-9.3-7-7.5-9.9
			c5.2-6.9,14.4-12.2,17.3-20.1c-2.9-3.7-7.3-8.7-10.1-9.6c-1.8-0.6-7.6-3.6-14.2-7.1c-2,3.6-3,8.4-4.5,12.4
			c-4.6,15.1-26.7,6.4-30.2-4.1c-0.1-0.3-0.2-0.6-0.3-0.9c-1.2,1.2-1.6,2.7-0.2,4.4c4.1,6.4,7,14.5,0.6,20.9
			c-1.2,0.6-1.7,2.3-1.2,4.1c2.3,4.1,9.9,7,5.8,11c-2.3,3.5-5.2,6.4-8.7,9.3c-0.6,0.6-0.6,2.3,0,2.9c2.9,4.6,10.4,7,8.1,12.8
			c-1.5,3.6-4.5,9-9.2,7.8C213.1,173.2,213.4,174.7,214.6,175.6z" id="_x62E__x631__x645___x628__x6CC__x62F_" title="خرم بید"></path>
		<path class="st1 area" d="M145.5,294.5c7.5-1.7-1.7-11-1.2-16.2c1.7-11.6-2.9-20.3-12.8-26.7c-4.6-2.9-1.7-9.3-2.9-14.5
			c-0.6-1.7-2.3-3.5-3.5-4.6c-3.7-5.6-5.2-11.5-8.6-16.3c0,0-0.1,0-0.1,0.1c-5.8,5.8-11.6-2.3-18-4.1c-1.7,0-3.5-0.6-4.6,0
			c-7,2.9-8.7,11-15.1,15.1c-1.7,1.2-4.1,0-5.8,1.2c-2.4,1.4-4.3,3.5-6.6,5.3c1,0.2,1.9,0.4,2.6,0.5l0.8,0.1l0.2,0.8
			c0.2,1.3,2.5,13.2,2.5,15.7c0,1.7,2.6,6.1,8.7,6.9c7.1,0.9,17.8,7.7,20.4,12c2.2,3.7,7.1,11.1,11.2,15.2c2,2,5.7,9.6,9.9,18.5
			c0.1,0.3,0.3,0.6,0.4,0.8C128.5,297.5,137,296,145.5,294.5z" id="_x6A9__x627__x632__x631__x648__x646_" title="کازرون"></path>
		<path class="st2 area" d="M182.1,391.9c0.6-7,7-11.6,8.1-18.6c0.6-4.6,0.6-9.3-1.7-12.2c-10.4-15.1-18.6-29.6-24.4-47
			c-2.7-8.3-10.2-15.4-18.4-19.8c-0.1,0-0.1,0-0.2,0c-8.5,1.5-17,3-22.5,9.7c4.6,9.5,9.6,20.1,12.5,22.9c5.5,5.5,5.3,13.6,5.2,17.1
			c0,0.3,0,0.6,0,0.8c0.1,1.5,4.5,16.9,7.7,28.1c2.6,9.1,4.9,17,5.2,18.8c0.8,3.8,6.3,18.1,11.7,22c2.2,1.6,5.2,3.1,8.2,4.5
			c1.8,0.9,3.5,1.7,5,2.5c0.8-0.9,1.5-1.8,1.8-2.9C182.6,409.3,181.5,400.6,182.1,391.9z" id="_x641__x631__x627__x634__x628__x646__x62F_" title="فراشبند"></path>
		<path class="st0 area" d="M268.5,456c1.1-0.6,2.3,1.1,3.4,0.6c2.9-1.7,2.9-4.6,3.4-7.4c2.1,0.6,4.2,1,6.3,1.2c-1-1.3-0.1-3.9,0.7-5.6
			c3.5-5.2,8.7-8.1,12.2-13.3c0.6-1.2,1.2-2.9,0.6-4.1c-1.7-1.7-5.8-1.7-6.4-3.5c-4.6-8.7-12.2-8.7-20.3-10.4
			c-2.9,0-2.9-2.9-4.1-5.8c-1.7-4.6-10.4-7-10.4-9.9c0-1.9,0.4-3.4,1.1-4.6c-2.9,0.1-5.9,2.5-8.6,4c-4.1,2.9-4.6,7-4.1,12.2
			c0,4.1-3.5,9.9-7,9.3c-18.6-2.3-35.1-15.9-53.6-18.9c0,6.1,0.1,12.2-1.5,18.4c-0.2,1.2-0.9,2-1.8,2.9c2.6,1.5,4.8,3,5.8,4.7
			c0.9,1.5,2.7,3.6,4.7,5.8c0.1,0.1,0.1,0.1,0.2,0.2c6.4,3.8,12.4,3.9,18.9,6.1c0.7,0.3,1.6,1.1,2.4,2c1.3-0.5,2.7-0.6,4-0.3
			c15.1,6.4,29.6,13.9,45.3,19.7c1.5,0.5,2.8,1.5,3.8,2.8C265.3,460.3,266.7,457.5,268.5,456z" id="_x62E__x646__x62C_" title="خنج"></path>
		<path class="st2 area" d="M283.6,451.1c-0.9,0-1.5-0.3-1.9-0.8c-2.1-0.1-4.2-0.6-6.3-1.2c-0.6,2.9-0.6,5.7-3.4,7.4
			c-1.1,0.6-2.3-1.1-3.4-0.6c-1.9,1.6-3.2,4.3-4.9,6c2.6,3.1,4.3,7.7,7.2,10.5c2.3,2.9,6.4,4.1,11,4.6c1.6,0,2.9,0.8,4.4,1.9
			c0.2-0.3,0.5-0.6,0.9-0.8c11-4.6,24.4,6.4,32.5-3.5c5.2-7,12.8-9.9,18.6-15.1C321.8,448.8,302.1,451.7,283.6,451.1z" id="_x6AF__x631__x627__x634_" title="گراش"></path>
		<path class="st0 area" d="M221.5,220.8c8.1,5.2,16.2,13.9,26.1,11.6c2.3-0.6-1.7-4.1-0.6-6.4c2.3-4.1,10.4-4.6,7.5-8.7
			c-2.3-2.9-4.1-4.6-5.8-7.5c-7.7-13-26.5-19.6-31.8-32.7c-0.8-0.4-1.7-0.9-2.5-1.5c-1.1-0.8-1.4-2.4-1.1-3.8
			c-0.6-0.2-1.2-0.4-1.9-0.8c-5.8-2.9-12.8-7-18,0c-0.6,0.6-2.9,0-4.1-0.6c-2.9-2.3-5.2-5.2-8.1-8.1c-3.5-3.5-8.1-1.2-12.2-2.9
			c-5.2-2.3-9.9-6.4-14.5-11c-5.2-5.8-5.8-17.4-15.1-15.7c-2.8,0.6-4.5,5.4-7.2,5.3c1.2,2.3,2.2,4.4,3.8,6.3
			c3.5,5.8,9.3,8.1,13.9,13.3c1.2,1.2,0.6,2.3,0.6,3.5c-1.2,3.5-5.8,5.8-3.5,9.3c5.4,9.6,18.7,11.3,26.7,10.4
			c5.8-1.2,12.2,4.6,13.9,10.4c1.7,3.5-9.3,4.1-5.2,9.3c3.8,6,11.7,9.9,11.7,16.2C203.8,216.9,213,215.6,221.5,220.8z" id="_x645__x631__x648__x62F__x634__x62A__x62A_" title="مرودشتت"></path>
		<path class="st3 area" d="M256.3,197c1.2-0.6,2.9-0.6,4.1,0c4.1,2.9,7,7,12.2,8.1c7.8,1.1,15.6-2.6,17.2-10.6c-4.2-0.4-8.7,0.5-12-1.6
			c-5.5-3.3-9.4-8.5-14.2-12.3c-0.1,0.2-0.2,0.5-0.3,0.7c-1.7,2.9-7.5,1.2-11,4.6c-2.3,2.3-5.8,0-8.7-2.3c-2.3-1.7-4.6-4.1-7.5-5.2
			c-6.1-1.5-13.1,1.4-19-1.4c4.9,12.2,21.5,18.7,30,30C249.8,203.4,252.4,198.9,256.3,197z" id="_x67E__x627__x633__x627__x631__x6AF__x627__x62F_" title="پاسارگاد"></path>
		<path class="st3 area" d="M319,355.4c-4.1-7-9.3-13.3-18-13.9c-1.2,0-3.5-1.7-4.1-3.5c-0.6-11.6-7-23.8-16.8-26.7
			c-13.3-5.2-28.4-0.6-41.2-11.6c-1.7-1.7-6.4-1.7-9.3,0c-4.6,3.5-9.9,5.8-13.3,9.9c-3.5,4.6,1.7,10.4,7.5,14.5
			c2.9,1.7,2.3,5.8,0,8.1c-3.5,3.5-11.6,6.4-9.3,11c3.1,8.5,13.2,7,20.8,10.4c0.7,0.2,1.3,0.4,1.8,0.6c9.3,5.8,13.9,16.2,24.4,18.6
			c7.5,1.7,15.1,1.7,22,4.1c8.9,2.9,6.4,9.2,2.7,15.3c4.8,0.9,9.5,1,13.6-1.4c5.8-4.1,11.6-9.9,18.6-7c5.8,2.9,12.2,0.6,18-1.2
			c0.7-0.1,1.3-0.2,1.9-0.3c0-5.3-0.3-11.2,0.6-16.2C331.4,363.4,322.8,362.6,319,355.4z" id="_x62C__x647__x631__x645_" title="جهرم"></path>
		<path class="st3 area" d="M169.9,290.4c2.9,1.7,7,1.2,8.7-2.3c2.3-5.2-0.6-12.8,4.6-15.1c9.9-3.5,20.9-1.7,28.4-11
			c4.1-4.6,15.1,2.3,22-2.9c1.7-1.2-1.7-4.1,0-6.4c2.9-4.1,11-1.2,12.2-7c1-4.4-2.6-8.4-2.7-13c-7.9-0.6-14.8-7.5-21.7-11.9
			c-8.5-5.2-17.8-3.9-27.2-4.1c0,0.4,0,0.8-0.1,1.2c0,2.3-5.8,3.5-8.1,1.7c-12.2-8.1-23.2-9.3-37.1-12.8c-0.2,0-0.4-0.1-0.6-0.1
			c0.1,6.6-8.9,8.3-14.5,11.7c-4.1,2.3-7.5-1.2-11-3.5c-1.7-1.1-4-0.6-6.3,1.1c3.4,4.8,4.9,10.7,8.6,16.3c1.2,1.2,2.9,2.9,3.5,4.6
			c1.2,5.2-1.7,11.6,2.9,14.5c9.9,6.4,14.5,15.1,12.8,26.7c-0.3,2.9,2.5,7.2,3.6,10.6c1.8-0.6,3.7-2,5.7-3.1
			C159.4,281.7,164.7,288.1,169.9,290.4z" id="_x634__x6CC__x631__x627__x632_" title="شیراز"></path>
		<path class="st0 area" d="M190.8,288.1c-4.5-2.8-8.5,2.1-13,1.2c-2,2.4-5.4,2.6-7.9,1.1c-5.2-2.3-10.4-8.7-16.2-4.6
			c-1.9,1.1-3.8,2.4-5.7,3.1c0.9,2.6,0.8,4.8-2.3,5.6c8.2,4.4,15.6,11.5,18.4,19.8c5.8,17.4,13.9,31.9,24.4,47
			c2.3,2.9,2.3,7.5,1.7,12.2c-0.1,0.7-0.3,1.3-0.5,1.9c5.7-0.2,11.8,0.2,17.3-1.4c5.8-1.2,4.6-8.1,4.6-13.3
			c4.6,0.6,7.5,5.8,12.8,3.5c4.1-2.3,4.1-8.1,8.1-10.4c0.7-0.3,1.8-0.3,2.8,0c-7.6-3.4-17.7-1.9-20.8-10.4c-2.3-4.6,5.8-7.5,9.3-11
			c2.3-2.3,2.9-6.4,0-8.1c-5.8-4.1-11-9.9-7.5-14.5c0.4-0.5,0.9-1,1.4-1.4c-4.8-3.7-11-5.9-16.5-9
			C197.1,296.8,194.8,291.6,190.8,288.1z" id="_x641__x6CC__x631__x648__x632__x622__x628__x627__x62F_" title="فیروزآباد"></path>
		<path class="st1 area" d="M211.1,276.5c-1.1-4-0.4-8.9-1.2-12.6c-7.4,7.1-17.5,5.9-26.6,9.1c-5.2,2.3-2.3,9.9-4.6,15.1
			c-0.2,0.5-0.5,0.9-0.8,1.2c4.5,0.8,8.5-4.1,13-1.2c4.1,3.5,6.4,8.7,10.4,11c5.4,3.1,11.7,5.3,16.5,9c3.4-3.2,7.9-5.4,11.9-8.4
			c2.9-1.7,7.5-1.7,9.3,0c0.5,0.4,1,0.9,1.5,1.2c0.2-1.5,1-2.9,1.9-4.1C231.9,290.4,214,289.8,211.1,276.5z" id="_x6A9__x648__x627__x631_" title="کوار"></path>
		<path class="st2 area" d="M370,326.9c1.2-1.7,0.6-4.6,2.3-4.6c4.4-1.1,7-4.1,9.7-6.9c-2.8-2.7-5.3-6.2-7.4-10
			c-2.3-4.6-9.3-4.6-15.1-5.8c-3.5-0.6-6.4-2.9-7.5-7c-2.9-7-15.7-8.1-14.5-18c-15.7,1.2-30.7-5.8-40-18.6c-1.2-1.5-0.8-2.7,0.1-3.6
			c-2.7-1.1-5.5-1.6-7,0.7c-1.7,1.7-1.2,5.2-0.6,6.4c4.1,5.2,15.1,8.7,9.9,15.7c-3.5,4.6-7.5,11.6-1.7,15.7
			c10.4,6.4,24.9,2.3,31.9,13.3c2.3,4.1,11,0,15.1,2.3c2.9,1.7,1.7,8.1,3.5,10.4c2.3,3.5,5.4,6.1,9,8.1
			C360.8,322.9,365.9,323.6,370,326.9z" id="_x627__x635__x637__x647__x628__x627__x646_" title="اصطهبان"></path>
		<path class="st2 area" d="M264.4,268.4c-9.9-2.9-22-1.7-29.6-11c-0.4-0.6-0.9-1.2-1.4-1.7c0.5,1.4,1.3,2.7,0.2,3.4
			c-7,5.2-18-1.7-22,2.9c-0.6,0.7-1.2,1.4-1.8,1.9c0.9,3.7,0.1,8.6,1.2,12.6c2.9,13.3,20.9,13.9,31.3,20.3c-0.9,1.2-1.7,2.7-1.9,4.1
			c11.9,9,25.7,5.7,38.1,9.8c-0.2-4.3,0.8-8.6-1.9-12.2c-4.6-7-13.9-12.2-9.9-20.3c1-2.2,2.3-4,3.9-5.6
			C268.9,270.6,266.9,269,264.4,268.4z" id="_x633__x631__x648__x633__x62A__x627__x646_" title="سروستان"></path>
		<path class="st0 area" d="M274.9,239.9c-11.2,0-22.3,0-30.4-7.2c-0.4,0-0.8,0-1.2,0c0.1,4.6,3.7,8.6,2.7,13c-1.2,5.8-9.3,2.9-12.2,7
			c-0.7,0.9-0.6,2-0.2,2.9c0.5,0.5,0.9,1.1,1.4,1.7c7.5,9.3,19.7,8.1,29.6,11c2.5,0.6,4.5,2.2,6.2,4.2c5.4-5.5,13.5-7.7,21.6-9.5
			c0.3-0.1,0.7-0.2,1-0.3c-1.3-1-2.5-2-3.3-3.1c-0.6-1.2-1.2-4.6,0.6-6.4c0.3-0.4,0.6-0.8,1-1c-2.1-1.1-4.3-2-6.8-2.5
			C279.5,248.1,279.5,239.4,274.9,239.9z" id="_x62E__x631__x627__x645__x647_" title="خرامه"></path>
		<path class="st1 area" d="M336.4,220.8c-10.4-3.5-18.6-12.2-29.6-15.7c-4.6-1.2-7.5-6.4-12.2-9.3c-1.5-0.8-3.1-1.2-4.8-1.3
			c-1.6,8-9.4,11.7-17.2,10.6c-5.2-1.2-8.1-5.2-12.2-8.1c-1.2-0.6-2.9-0.6-4.1,0c-4,1.8-6.5,6.4-9.3,10.1c0.6,0.8,1.2,1.7,1.8,2.6
			c1.7,2.9,3.5,4.6,5.8,7.5c2.9,4.1-5.2,4.6-7.6,8.7c-1.2,2.3,2.9,5.8,0.6,6.4c-1.1,0.3-2.1,0.4-3.2,0.4c8.1,7.2,19.3,7.2,30.4,7.2
			c4.6-0.6,4.6,8.1,9.9,9.9c2.4,0.5,4.7,1.4,6.8,2.5c1.6-1.1,3.8-0.6,6.1,0.3c0.8-0.8,2-1.3,2.8-1.6c3.5-1.2,7-2.3,9.9-4.1
			c4.1-2.3,7-8.1,11-9.9c8.9-2.6,19.3-6.7,19.4-16C339.3,221.3,337.9,221.2,336.4,220.8z" id="_x627__x631__x633__x646__x62C__x627__x646_" title="ارسنجان"></path>
		<path class="st1 area" d="M348.5,317.1c-1.7-2.3-0.6-8.7-3.5-10.4c-4.1-2.3-12.8,1.7-15.1-2.3c-7-11-21.5-7-31.9-13.3
			c-5.8-4.1-1.7-11,1.7-15.7c4.1-5.5-1.8-8.8-6.5-12.5c-0.3,0.1-0.7,0.2-1,0.3c-10.4,2.3-20.9,5.2-25.5,15.1
			c-4.1,8.1,5.2,13.3,9.9,20.3c2.8,3.6,1.8,8,1.9,12.2c0.5,0.2,1,0.4,1.5,0.6c9.9,2.9,16.2,15.1,16.8,26.7c0.6,1.7,2.9,3.5,4.1,3.5
			c8.7,0.6,13.9,7,18,13.9c3.8,7.2,12.5,8,19.9,10.8c0.7-4.3,2.3-8,5.5-10.2c-0.5-0.1-0.5-1.8,0.1-2.9c5.2-6.4,9.3-12.8,9.9-21.5
			c0.2-3.1,1.4-5.2,3.2-6.4C353.9,323.2,350.9,320.6,348.5,317.1z" id="_x641__x633__x627_" title="فسا"></path>
		<path class="st1 area" d="M283.6,376.8c-7-2.3-14.5-2.3-22-4.1c-10.4-2.3-15.1-12.8-24.4-18.6c-1.2-0.6-3.5-1.2-4.6-0.6
			c-4.1,2.3-4.1,8.1-8.1,10.4c-5.2,2.3-8.1-2.9-12.8-3.5c0,5.2,1.2,12.2-4.6,13.3c-5.5,1.6-11.6,1.1-17.3,1.4
			c-1.9,5.9-7.1,10.3-7.7,16.6c-0.2,2.6-0.2,5.2-0.2,7.7c18.5,3.1,35,16.7,53.6,18.9c3.5,0.6,7-5.2,7-9.3c-0.6-5.2,0-9.3,4.1-12.2
			c2.7-1.6,5.7-3.9,8.7-4c3.9-6.7,17.1-4.3,25-2.3c2.1,0.5,4.1,1,6.2,1.4C290,386.1,292.4,379.8,283.6,376.8z" id="_x642__x6CC__x631___x648___x6A9__x627__x631__x632__x6CC__x646_" title="قیر و کارزین"></path>
		<path class="st2 area" d="M422.8,384.9c-0.6-2.9-2.9-7.5-5.2-8.7c-11.6-4.1-20.9-9.9-31.9-15.7c-5.2-3.5-13.3-0.6-15.7,7
			c-8.7-2.9-16.8-7.5-25.5-11.6c0,0,0,0-0.1,0c-7.1,4.9-6.1,16.7-6.1,26.4c9.2-0.4,14.7,11.1,20.1,17.7c2.3,2.9,0,7,1.7,9.9
			c0.6,1.7,1.7,4.1,4.1,4.1c12.8,0.6,23.2,8.7,34.8,12.2c9.3,2.3,20.9-3.5,24.9-12.8c0.2-0.5,0.5-0.9,0.8-1.2
			C421.7,404.2,424.4,394.4,422.8,384.9z" id="_x632__x631__x6CC__x646___x62F__x634__x62A_" title="زرین دشت"></path>
		<path class="st0 area" d="M474.7,355.3c-0.4-2.6-3.1-5.5-4.8-6.4c-2.7-1.4-10.5-11.2-12.5-13.7c-6.8,2.5-13.7,3.1-21.2,1
			c-8.7-2.9-10.4-12.2-16.2-18.6c-5.8-5.2-13.9-1.2-20.3,1.7c-6.6,2.9-12.6,0.7-17.5-4c-2.8,2.8-5.3,5.8-9.7,6.9
			c-1.7,0-1.2,2.9-2.3,4.6c-6.4-5.2-15.1-4.1-15.7,4.6c-0.6,8.7-4.6,15.1-9.9,21.4c-0.6,1.2-0.6,2.9,0,2.9
			c8.7,4.1,16.8,8.7,25.5,11.6c2.3-7.5,10.4-10.4,15.7-7c11,5.8,20.3,11.6,31.9,15.7c2.3,1.2,4.6,5.8,5.2,8.7
			c1.6,9.5-1.1,19.3,2,27.2c2.9-2.7,9.6,3.3,14.3,1.2c4.6-2.3,8.7-5.8,14.5-7c4.9-0.8,9.1,0.4,13.3,1.9c0.2-4.1,0.4-9.4,0.7-14.8
			c0.5-10.5,1-21.4,1-22.4c0-0.8,0.1-7.5,5.1-12.4C474.5,357.7,474.9,356.6,474.7,355.3z" id="_x62F__x627__x631__x627__x628_" title="داراب"></path>
		<path class="st3 area" d="M321.3,237c-4.1,1.7-7,7.5-11,9.9c-2.9,1.7-6.4,2.9-9.9,4.1c-1.7,0.6-5.2,2.3-2.9,5.2
			c9.3,12.8,24.4,19.7,40,18.6c-1.2,9.9,11.6,11,14.5,18c1.2,4.1,4.1,6.4,7.5,7c5.8,1.2,12.8,1.2,15.1,5.8
			c5.8,10.4,14.5,18.6,24.9,13.9c6.4-2.9,14.5-7,20.3-1.7c5.8,6.4,7.5,15.7,16.2,18.6c7.5,2.1,14.5,1.5,21.2-1
			c-0.1-0.1-0.1-0.2-0.2-0.2l-0.1-0.2l-0.1-0.2c-0.1-0.3-0.4-1.3-0.7-2.6c-0.4-0.2-0.6-0.5-0.7-0.9c-0.1-0.4,0.1-0.7,0.3-1
			c-0.9-4.1-1.8-9.8-0.9-12.6c1.3-4,3.9-24-0.5-30.3c-2.5-3.6-11.5-14.7-19.5-24.5c-7.5-9.2-14-17.2-15.3-19.2
			c-2.3-3.4-5-8.2-5.9-9.8c-3.1-0.4-16.8-2.1-19.9-2.7c-3.4-0.7-13.4-1.3-15.8-0.7c-2.8,0.7-19.9,2.7-20.6,2.8l-0.8,0.1l-9.2-15.6
			c-0.1-0.1-0.3-0.3-0.5-0.6c-1.8,2.2-3.8,3.5-6.2,3.9C340.6,230.4,330.2,234.4,321.3,237z" id="_x646__x6CC___x631__x6CC__x632_" title="نی ریز"></path>
		<path class="st2 area" d="M208.2,437.7c-6.5-2.2-12.5-2.3-18.9-6.1c4,4.6,6.6,7.8,6.6,10c0,3.9,0.9,15.3,3.1,18.9
			c2.2,3.6,12.4,13.3,13.7,14.5c2.3,1.1,9.1,4.8,12.5,9.1c1.1,1.4,1.9,2.7,2.6,3.9c1,1.7,1.8,3,3.3,4.1c1,0.7,1.9,2.1,3.1,3.6
			c0.2-7.6,7.9-13.2,16.3-15.1c2.3-0.6,2.9-5.2,0.6-7c-12.8-9.3-29-8.7-38.3-23.8c-1.2-1.7-4.6-2.3-5.8-4.1
			c-1.6-2.4,0.7-5.1,3.6-6.1C209.7,438.8,208.9,438.1,208.2,437.7z" id="_x645__x647__x631_" title="مهر"></path>
		<path class="st3 area" d="M270.8,472.5c-4.1-4.1-5.8-11.6-11-13.3c-15.7-5.8-30.2-13.3-45.2-19.7c-4.1-1.2-9.9,2.9-7.5,6.4
			c1.2,1.7,4.6,2.3,5.8,4.1c9.3,15.1,25.5,14.5,38.3,23.8c2.3,1.7,1.7,6.4-0.6,7c-8.4,1.9-16.1,7.5-16.3,15.1
			c0.1,0.1,0.2,0.3,0.3,0.4c2.3,3.2,5.1,7.3,8.2,7.3c5.9,0,21.8,6.4,25.9,9.1c1.3,0.8,2.5,1.6,3.7,2.3c2.8,1.7,5.4,3.3,7.4,5.3
			c2.6,2.6,5.1,5.1,9.4,5.1c1.1,0,2.3-0.1,3.6-0.2c3.9-0.3,8-0.6,11.4,1.7c3.4,2.2,8.7,5,10.3,5.8c3.9-1.6,10-4.5,11.2-6.2
			c2.1-2.7,11.3-12.6,11.7-13c0,0,2.1-2.7-0.1-6c-1.1-1.6-2.1-3.1-3-4.3c-4.8-1.4-9.7-2.3-14.6-3.3c-13.3-2.3-30.2,7.5-37.7-4.1
			c-2.3-2.9,4.6-7.5,3.5-14.5c0-0.4,0.3-1.4,0.9-2.1c-1.4-1.1-2.8-1.9-4.4-1.9C277.2,476.6,273.1,475.4,270.8,472.5z" id="_x644__x627__x645__x631__x62F_" title="لامرد"></path>
		<path class="st1 area" d="M482.4,439.3c-1.1-1.4-2.2-3.5-3.4-5.7c-1.6-3.1-3.4-6.6-5.2-7.6c-3.6-2.2-7.4-7.3-7.4-9.9
			c0-0.5,0.1-3.5,0.3-7.7c-4.1-1.6-8.4-2.7-13.3-1.9c-5.8,1.2-9.9,4.6-14.5,7c-5.2,2.3-12.8-5.2-15.1,0
			c-4.1,9.3-15.7,15.1-24.9,12.8c-11.6-3.5-22-11.6-34.8-12.2c-2.3,0-3.5-2.3-4.1-4.1c-1.7-2.9,0.6-7-1.7-9.9
			c-5.8-6.9-11.6-19.7-22-17.4c-5.8,1.7-12.2,4.1-18,1.2c-7-2.9-12.8,2.9-18.6,7c-5.8,3.5-12.8,1.7-19.7,0c-9.3-2.3-26.1-5.2-26.1,7
			c0,2.9,8.7,5.2,10.4,9.9c1.2,2.9,1.2,5.8,4.1,5.8c8.1,1.7,15.7,1.7,20.3,10.4c0.6,1.7,4.6,1.7,6.4,3.5c0.6,1.2,0,2.9-0.6,4.1
			c-3.5,5.2-8.7,8.1-12.2,13.3c-1.2,2.3-2.3,6.4,1.2,6.4c18.6,0.6,38.3-2.3,54.5,8.7c-5.8,5.2-13.3,8.1-18.6,15.1
			c-8.1,9.9-21.5-1.2-32.5,3.5c-1.2,0.6-1.7,2.3-1.7,2.9c1.2,7-5.8,11.6-3.5,14.5c7.5,11.6,24.4,1.7,37.7,4.1
			c4.9,1,9.8,1.9,14.6,3.3c-1.4-1.9-2.4-3.1-2.4-3.1l-0.9-1.1l1.2-0.7c0.7-0.4,16.7-10.4,25-11.8c2.6-0.4,5-0.9,7.3-1.4
			c4.9-1,9.5-2,14.7-2c6.7,0,25.5,1.6,35.6,2.5l3.3,0.3c8.1,0.7,21.1,1.4,23.8,1.4c2.3,0,9.5-3.9,12.1-6.5
			c2.6-2.6,21.1-25.2,24.4-29.8C481.5,446.3,484.5,442,482.4,439.3z" id="_x644__x627__x631__x633__x62A__x627__x646_" title="لارستان"></path>
		<path class="st2 area" d="M294.6,195.9c4.6,2.9,7.5,8.1,12.2,9.3c11,3.5,19.1,12.2,29.6,15.7c4.1,1,7.8-0.2,10.5-3.7
			c-1.5-1.9-5.2-7.2-5.2-11c0-3.9-2-12.5-4.5-15.6c-2.6-3.2-10.6-9.3-10.7-9.3l-0.3-0.3c-2.4-3.7-7.6-12.6-4.8-15.4
			c1.5-1.5,2.6-8.3,2.9-12.2c0-0.6-0.8-17.8-0.8-22.6c0-4.6-0.7-8.3-4.4-11.2c-1.1-0.9-2.1-1.8-3-2.6c-2.4-2.1-4.1-3.6-6-3.6
			c-3.3,0-28.3-1.6-29.3-1.6l-0.6,0l-0.3-0.5c-0.5-0.7-1.3-1.8-2.3-3c-2.8,7.9-12.1,13.2-17.3,20.1c-1.7,2.9,7,7,7.5,9.9
			c1.7,7.5,5.8,15.7,1.2,23.2c-2.3,2.9-7.6,1.7-8.7,5.2c-2.2,5.5,4.5,10,3.2,14.4c4.8,3.8,8.7,9,14.2,12.3
			C282.4,195.9,289.4,193,294.6,195.9z" id="_x628__x648__x627__x646__x627__x62A_" title="بوانات"></path>
		<path class="st2 area" d="M186.1,219.6c2.3,1.7,8.1,0.6,8.1-1.7c1.2-7-7.5-11-11.6-17.4c-4.1-5.2,7-5.8,5.2-9.3
			c-1.7-5.8-8.1-11.6-13.9-10.4c-7.9,0.9-21.3-0.9-26.7-10.4c-2.3-3.5,2.3-5.8,3.5-9.3c0-1.2,0.6-2.3-0.6-3.5
			c-4.6-5.2-10.4-7.5-13.9-13.3c-1.5-1.9-2.6-4.1-3.8-6.3c-0.1,0-0.2,0-0.3,0c-5.8-2.2-11.3-5.2-17.5-5.8v10.7
			c0,3.8-3.6,8.3-8.1,10.1c-1.3,0.5-2.6,0.7-3.9,0.6c0.2,1.5,0.8,3,1.6,4.3c4.6,6.4,12.8,8.7,16.8,15.7c4.1,6.4,1.7,15.1,8.7,19.7
			c2.3,1.7,8.7-0.6,9.3,1.7c1.2,6.4,9.3,7.5,9.3,11.6c0,0.2,0,0.3,0,0.5c0.2,0,0.4,0.1,0.6,0.1C162.9,210.4,173.9,211.5,186.1,219.6
			z" id="_x633__x67E__x6CC__x62F__x627__x646_" title="سپیدان"></path>
		<path class="st3 area" d="M139.7,132.6c9.3-1.7,9.9,9.9,15.1,15.7c4.6,4.6,9.3,8.7,14.5,11c4.1,1.7,8.7-0.6,12.2,2.9
			c2.9,2.9,5.2,5.8,8.1,8.1c1.2,0.6,3.5,1.2,4.1,0.6c5.2-7,12.2-2.9,18,0c5.8,3.5,9.3-2.9,11-7c2.3-5.8-5.2-8.1-8.1-12.8
			c-0.6-0.6-0.6-2.3,0-2.9c3.5-2.9,6.4-5.8,8.7-9.3c4.1-4.1-3.5-7-5.8-11c-0.6-1.7,0-3.5,1.2-4.1c6.4-6.4,3.5-14.5-0.6-20.9
			c-1.4-1.7-0.9-3.2,0.2-4.4c-2.1-5.6-3.5-12-10.1-14.2c-9.3-2.3-17.4,2.9-26.1,2.3c-7.5-1.2-15.7-5.2-21.5-3.5
			c-7.5,1.7-3.5,14.5-9.3,21.5c-4.1,4.6-12.2,4.1-18,1.7c-2.3-1.2-3.5-5.2-6.4-5.2c-3.7-0.4-8-1.1-11.4-3.2
			c-0.6,1.8-1.1,3.4-1.8,4.5c-1.8,3-1.3,13.4-0.9,17.1l1.9,10.7v1.5c6.2,0.7,11.7,3.6,17.5,5.8C135.1,138.4,136.8,133.2,139.7,132.6
			z" id="_x627__x642__x644__x6CC__x62F_" title="اقلید"></path>

<g id="G_32" class="area" title="">
	<path d="M163.6,58.9c0,0.7-0.2,1.2-0.6,1.6c-0.4,0.4-1,0.5-1.6,0.5c-0.4,0-0.8-0.1-1.1-0.4c-0.3-0.3-0.5-0.6-0.5-1
		c0-0.5,0.2-1,0.6-1.7c0.3-0.6,0.7-1.1,1.1-1.5C162.9,57.1,163.6,57.9,163.6,58.9z M163,59.3c0-0.3-0.2-0.6-0.7-1
		c-0.4-0.4-0.7-0.6-1.1-0.7c-0.5,0.7-0.8,1.2-0.8,1.6c0,0.2,0.1,0.4,0.4,0.6c0.2,0.1,0.4,0.2,0.7,0.2c0.4,0,0.8-0.1,1.1-0.2
		C162.9,59.5,163,59.4,163,59.3z" id="PATH_33" class="area" title=""></path>
	<path d="M169.7,58.9c0,1.4-0.9,2.1-2.8,2.1c-0.7,0-1.2-0.1-1.5-0.3c-0.4-0.2-0.6-0.7-0.6-1.3c0-0.3,0.1-0.6,0.2-0.9
		c0.1-0.1,0.1-0.2,0.2-0.2c0.1,0,0.1,0.1,0.1,0.3c0,0.1,0,0.2,0,0.3c0,0.4,0.2,0.7,0.6,0.8c0.2,0.1,0.6,0.1,1.1,0.1
		c1.5,0,2.2-0.2,2.2-0.7c0-0.7-0.9-1.7-2.6-2.9l0.3-1c0-0.1,0.1-0.1,0.1-0.1c0,0,0.1,0,0.2,0.1C168.8,56.5,169.7,57.8,169.7,58.9z" id="PATH_34" class="area" title=""></path>
	<path d="M173.7,61H173c-0.7,0-1.3-0.3-1.5-0.9c-0.2-0.4-0.3-1.1-0.3-1.9v-1.9c0-0.9-0.1-2.2-0.2-3.9l0.6-0.7c0.1-0.1,0.2-0.1,0.2,0
		c0.1,0.9,0.2,2.2,0.2,3.9v2.9c0,0.8,0.4,1.2,1.2,1.2h0.5V61z" id="PATH_35" class="area" title=""></path>
	<path d="M176,59c0,1.3-0.7,2-2,2h-0.8v-1.2h0.7c1,0,1.5-0.2,1.5-0.5c0-0.3-0.2-0.7-0.7-1.2l0.4-1c0-0.1,0.1-0.1,0.1-0.1
		c0,0,0.1,0.1,0.2,0.2C175.8,57.7,176,58.4,176,59z M175.7,63.2l-0.8,0.8l-0.8-0.8l0.8-0.8L175.7,63.2z" id="PATH_36" class="area" title=""></path>
	<path d="M180.1,50.3c-0.4,0.4-1,0.5-1.6,0.5c-0.1,0-0.2,0-0.4,0s-0.3,0-0.4,0c-0.1,0-0.2,0.1-0.3,0.2c-0.1,0.1-0.2,0.2-0.2,0.2
		c-0.1,0-0.1-0.1-0.1-0.2c0-0.1,0.1-0.3,0.2-0.5c0.1-0.3,0.2-0.4,0.3-0.4c0.1,0,0.3,0,0.6,0.1c0.3,0,0.5,0.1,0.6,0.1
		c0.6,0,1,0,1.3-0.1c0.2,0,0.3-0.1,0.3-0.1c0,0,0.1,0,0.1,0C180.3,50.1,180.2,50.2,180.1,50.3z M179.4,59.8c0,0.4-0.1,0.8-0.3,1.1
		c-0.1,0.2-0.2,0.3-0.2,0.3c0,0-0.1-0.1-0.1-0.4c0-1.2-0.2-4-0.6-8.5l0.8-0.8c0.1-0.1,0.1-0.1,0.1-0.1c0,0,0,0.1,0,0.2
		C179.4,52.9,179.4,55.6,179.4,59.8z" id="PATH_37" class="area" title=""></path>
</g>
<g id="G_38" class="area" title="">
	<path d="M174.2,129h-0.4c-0.4,0-0.7-0.1-1-0.4c-0.2-0.2-0.4-0.4-0.6-0.8c-0.2,0.4-0.5,0.7-0.8,0.9c-0.4,0.2-0.9,0.3-1.7,0.3
		c-1.4,0-2.1-0.5-2.1-1.5c0-0.3,0.1-0.7,0.3-1c0.1-0.1,0.1-0.2,0.2-0.2c0.1,0,0.1,0.1,0.1,0.2c0,0.1,0,0.1,0,0.3c0,0.1,0,0.2,0,0.3
		c0,0.6,0.5,0.9,1.5,0.9c1.4,0,2.1-0.3,2.1-0.8c0-0.3-0.4-1.4-1.2-3.3l0.4-0.8c0.1-0.1,0.1-0.2,0.1-0.2c0,0,0.1,0.1,0.1,0.2
		c0.3,0.8,0.8,2,1.4,3.6c0.3,0.8,0.7,1.2,1.3,1.2h0.3V129z" id="PATH_39" class="area" title=""></path>
	<path d="M179.1,129h-0.8c-0.9,0-1.5-0.3-1.9-0.9c-0.3,0.6-1,0.9-2.1,0.9h-0.6v-1.2h0.9c1,0,1.5-0.4,1.6-1.1c0-0.3,0.1-0.5,0.2-0.5
		c0.1,0,0.2,0.2,0.2,0.5c0.1,0.7,0.6,1.1,1.5,1.1h0.9V129z M175.8,131.2L175,132l-0.8-0.8l0.8-0.8L175.8,131.2z M177.5,131.2
		l-0.8,0.8l-0.8-0.8l0.8-0.8L177.5,131.2z" id="PATH_40" class="area" title=""></path>
	<path d="M182.8,129h-0.4c-0.9,0-1.5-0.3-1.8-1c-0.1,0.3-0.3,0.5-0.6,0.7c-0.3,0.2-0.6,0.3-0.9,0.3h-0.4v-1.2h0.4
		c0.8,0,1.2-0.3,1.2-1v-3.5c0-1.3,0-2.3-0.1-3l0.9-0.7v6.7c0,1,0.4,1.5,1.3,1.5h0.4V129z" id="PATH_41" class="area" title=""></path>
	<path d="M186.7,126.2c0,0.9-0.1,1.5-0.3,1.8c-0.5,0.7-1.3,1-2.6,1h-1.4v-1.2h1c1.7,0,2.6-0.3,2.8-0.8c0.1-0.2,0-0.4-0.1-0.6
		c-0.4,0.1-0.8,0.1-1.3,0.1c-0.9,0-1.4-0.4-1.4-1.2c0-0.5,0.1-1.1,0.4-1.6c0.3-0.6,0.7-0.9,1.2-0.9c0.4,0,0.8,0.3,1.1,0.8
		C186.5,124.4,186.7,125.2,186.7,126.2z M184.7,120.7l-0.8,0.8l-0.8-0.8l0.8-0.8L184.7,120.7z M185.9,125.3c0-0.3-0.1-0.6-0.3-0.9
		c-0.2-0.3-0.5-0.4-0.8-0.4c-0.2,0-0.4,0.1-0.6,0.2c-0.2,0.1-0.2,0.3-0.2,0.5c0,0.4,0.3,0.6,1,0.6
		C185.2,125.4,185.5,125.4,185.9,125.3z M186.4,120.7l-0.8,0.8l-0.8-0.8l0.8-0.8L186.4,120.7z" id="PATH_42" class="area" title=""></path>
	<path d="M189,127.8c0,0.4-0.1,0.8-0.3,1.1c-0.1,0.2-0.2,0.3-0.2,0.3c0,0-0.1-0.1-0.1-0.4c0-1.2-0.2-4-0.6-8.5l0.8-0.8
		c0.1-0.1,0.1-0.1,0.1-0.1c0,0,0,0.1,0,0.2C189,120.9,189,123.6,189,127.8z" id="PATH_43" class="area" title=""></path>
</g>
<g id="G_44" class="area" title="">
	<path d="M230,146.7h-0.4c-0.4,0-0.7-0.1-1-0.4c-0.2-0.2-0.4-0.4-0.6-0.8c-0.2,0.4-0.5,0.7-0.8,0.9c-0.4,0.2-0.9,0.3-1.7,0.3
		c-1.4,0-2.1-0.5-2.1-1.5c0-0.3,0.1-0.7,0.3-1c0.1-0.1,0.1-0.2,0.2-0.2c0.1,0,0.1,0.1,0.1,0.2c0,0.1,0,0.1,0,0.3c0,0.1,0,0.2,0,0.3
		c0,0.6,0.5,0.9,1.5,0.9c1.4,0,2.1-0.3,2.1-0.8c0-0.3-0.4-1.4-1.2-3.3l0.4-0.8c0.1-0.1,0.1-0.2,0.1-0.2c0,0,0.1,0.1,0.1,0.2
		c0.3,0.8,0.8,2,1.4,3.6c0.3,0.8,0.7,1.2,1.3,1.2h0.3V146.7z" id="PATH_45" class="area" title=""></path>
	<path d="M234.9,146.7h-0.8c-0.9,0-1.5-0.3-1.9-0.9c-0.3,0.6-1,0.9-2.1,0.9h-0.6v-1.2h0.9c1,0,1.5-0.4,1.6-1.1
		c0-0.3,0.1-0.5,0.2-0.5s0.2,0.2,0.2,0.5c0.1,0.7,0.6,1.1,1.5,1.1h0.9V146.7z M231.6,148.9l-0.8,0.8l-0.8-0.8l0.8-0.8L231.6,148.9z
		 M233.4,148.9l-0.8,0.8l-0.8-0.8l0.8-0.8L233.4,148.9z" id="PATH_46" class="area" title=""></path>
	<path d="M237.3,144.7c0,1.3-0.7,2-2,2h-0.8v-1.2h0.7c1,0,1.5-0.2,1.5-0.5c0-0.3-0.2-0.7-0.7-1.2l0.4-1c0-0.1,0.1-0.1,0.1-0.1
		s0.1,0.1,0.2,0.2C237.1,143.5,237.3,144.1,237.3,144.7z M237,148.9l-0.8,0.8l-0.8-0.8l0.8-0.8L237,148.9z" id="PATH_47" class="area" title=""></path>
	<path d="M247.6,144.8c0,0.2-0.1,0.4-0.3,0.8c-0.2,0.4-0.4,0.6-0.5,0.6c-0.3,0-0.7-0.1-1.2-0.2s-0.9-0.2-1.2-0.2
		c-0.5,0-0.9,0.1-1.1,0.2c0.2,1.7,0.3,3,0.3,3.8c0,0.4-0.1,0.8-0.4,1.3c-0.1,0.1-0.1,0.2-0.1,0.2c0,0,0,0,0-0.1
		c-0.1-1.6-0.2-3.2-0.4-4.8c0-0.2,0.1-0.4,0.3-0.7c0.2-0.2,0.3-0.4,0.5-0.5c0.2-0.2,0.5-0.2,0.8-0.2c-0.1-0.3-0.1-0.5-0.1-0.7
		c0-0.3,0.1-0.7,0.4-1.1c0.3-0.4,0.6-0.6,1-0.6c0.5,0,1,0.3,1.5,0.8C247.4,143.8,247.6,144.3,247.6,144.8z M246.8,145.1
		c-0.1-0.3-0.4-0.7-0.7-1c-0.4-0.4-0.7-0.5-1.1-0.5c-0.5,0-0.7,0.2-0.7,0.5c0,0.2,0.1,0.4,0.2,0.8
		C245.2,144.8,246,144.9,246.8,145.1z" id="PATH_48" class="area" title=""></path>
	<path d="M253.9,146.7h-0.4c-0.4,0-0.6-0.1-0.8-0.2c0,0.1,0,0.2,0,0.3c0,0.9-0.3,1.8-0.9,2.7c-0.5,0.8-1,1.1-1.3,1.1
		c-0.8,0-1.4,0-2-0.1c-0.2,0-0.3-0.1-0.3-0.1s0.1-0.1,0.3-0.1c0.8-0.2,1.6-0.6,2.4-1.2c0.8-0.7,1.3-1.4,1.3-2.1c0-0.4-0.3-1-1-1.7
		l0.5-0.9c0-0.1,0.1-0.1,0.1-0.1c0,0,0.1,0.1,0.1,0.1c0.3,0.4,0.5,0.7,0.7,0.8c0.3,0.2,0.7,0.4,1.1,0.4h0.3V146.7z" id="PATH_49" class="area" title=""></path>
	<path d="M261.7,143.8l-0.4,0.8c-0.7,0-1.3,0-1.6,0.1c-0.4,0.2-1,0.4-1.8,0.8c-0.8,0.4-1.4,0.7-1.8,0.8c-0.6,0.2-1.3,0.3-1.9,0.3
		h-0.7v-1.2h0.8c0.9,0,1.7-0.2,2.4-0.5l2.3-1c-0.4-0.1-1-0.3-1.8-0.6c-0.7-0.3-1.1-0.4-1.3-0.4c-0.4,0-0.8,0.2-1.2,0.5
		c-0.1,0.1-0.1,0.1-0.2,0.1c-0.1,0-0.1,0-0.1-0.1c0,0,0-0.1,0-0.1c0.3-1,0.9-1.4,1.7-1.4c0.3,0,0.7,0.1,1.1,0.3
		c0.8,0.4,1.4,0.6,1.8,0.8c0.7,0.2,1.5,0.4,2.4,0.4c0.2,0,0.3,0,0.3,0.1C261.8,143.6,261.8,143.7,261.7,143.8z M258.8,139.3
		l-0.8,0.8l-0.8-0.8l0.8-0.8L258.8,139.3z" id="PATH_50" class="area" title=""></path>
</g>
<g id="G_51" class="area" title="">
	<path d="M291.7,163.8c0,0.7-0.2,1.3-0.7,1.6c-0.3,0.2-0.9,0.4-1.8,0.5c-1,0.2-2,0.3-3.1,0.3c-2.6,0-4-0.7-4-2.2
		c0-0.5,0.2-1,0.6-1.5c0.1-0.1,0.1-0.2,0.2-0.2s0.1,0,0.1,0.1c0,0,0,0.1,0,0.2c-0.1,0.3-0.2,0.6-0.2,0.9c0,1,1.3,1.5,3.8,1.5
		c1.2,0,2.3-0.1,3.1-0.2c1-0.2,1.4-0.4,1.4-0.7c0-0.2-0.2-0.6-0.7-1.2l0.5-0.9c0.1-0.1,0.1-0.1,0.2,0
		C291.5,162.6,291.7,163.2,291.7,163.8z M286.7,160.2l-0.8,0.8l-0.8-0.8l0.8-0.8L286.7,160.2z M288.4,160.2l-0.8,0.8l-0.8-0.8
		l0.8-0.8L288.4,160.2z" id="PATH_52" class="area" title=""></path>
	<path d="M295.7,166H295c-0.7,0-1.3-0.3-1.5-0.9c-0.2-0.4-0.3-1.1-0.3-1.9v-1.9c0-0.9-0.1-2.2-0.2-3.9l0.6-0.7
		c0.1-0.1,0.2-0.1,0.2,0c0.1,0.9,0.2,2.2,0.2,3.9v2.9c0,0.8,0.4,1.2,1.2,1.2h0.5V166z" id="PATH_53" class="area" title=""></path>
	<path d="M298,164c0,1.3-0.7,2-2,2h-0.8v-1.2h0.7c1,0,1.5-0.2,1.5-0.5c0-0.3-0.2-0.7-0.7-1.2l0.4-1c0-0.1,0.1-0.1,0.1-0.1
		s0.1,0.1,0.2,0.2C297.8,162.7,298,163.4,298,164z M298,159.5l-0.8,0.8l-0.8-0.8l0.8-0.8L298,159.5z" id="PATH_54" class="area" title=""></path>
	<path d="M300.4,164.8c0,0.4-0.1,0.8-0.3,1.1c-0.1,0.2-0.2,0.3-0.2,0.3c0,0-0.1-0.1-0.1-0.4c0-1.2-0.2-4-0.6-8.5l0.8-0.8
		c0.1-0.1,0.1-0.1,0.1-0.1c0,0,0,0.1,0,0.2C300.3,157.9,300.4,160.6,300.4,164.8z" id="PATH_55" class="area" title=""></path>
	<path d="M306.6,166h-1.1c-0.1,1.4-0.6,2.5-1.6,3.5c-0.3,0.3-0.5,0.5-0.6,0.5c-0.5,0-1.2-0.1-1.9-0.2c-0.2,0-0.4-0.1-0.4-0.1
		s0.1-0.1,0.4-0.2c0.8-0.2,1.6-0.7,2.3-1.2c0.3-0.3,0.6-0.5,0.8-0.9c0.3-0.4,0.5-0.8,0.5-1.1V166h-1.3c-1,0-1.4-0.4-1.4-1.2
		c0-0.5,0.1-1,0.4-1.6c0.3-0.6,0.7-1,1.1-1c0.5,0,0.9,0.3,1.2,1c0.2,0.5,0.4,1,0.4,1.6h1.1V166z M304.8,164.8c0-0.3-0.1-0.6-0.3-0.9
		c-0.2-0.4-0.5-0.5-0.8-0.5c-0.2,0-0.4,0.1-0.5,0.2s-0.2,0.3-0.2,0.6c0,0.5,0.4,0.7,1.2,0.7C304.3,164.9,304.5,164.8,304.8,164.8z" id="PATH_56" class="area" title=""></path>
	<path d="M309,164c0,1.3-0.7,2-2,2h-0.8v-1.2h0.7c1,0,1.5-0.2,1.5-0.5c0-0.3-0.2-0.7-0.7-1.2l0.4-1c0-0.1,0.1-0.1,0.1-0.1
		s0.1,0.1,0.2,0.2C308.8,162.7,309,163.4,309,164z M308.7,168.2l-0.8,0.8l-0.8-0.8l0.8-0.8L308.7,168.2z" id="PATH_57" class="area" title=""></path>
</g>
<g id="G_58" class="area" title="">
	<path d="M132.8,175.8c-0.1,0.3-0.2,0.6-0.3,0.8c-0.2,0.3-0.4,0.6-0.7,0.9c-0.6,0.6-1.3,0.8-2.3,0.8c-0.8,0-1.7-0.2-2.5-0.6
		c-0.8-0.4-1.3-0.9-1.6-1.5c-0.3-0.7-0.3-1.4,0.1-2.2c0.2-0.4,0.5-0.8,0.9-1.2c0.3-0.3,0.6-0.4,0.8-0.6c0.1-0.1,0.2-0.1,0.3,0
		c0.1,0,0.1,0.1,0,0.1c0,0-0.1,0.1-0.1,0.1c-0.5,0.4-0.9,0.8-1.1,1.3c-0.2,0.4-0.3,0.9-0.1,1.4c0.2,0.6,0.7,1.1,1.4,1.5
		c0.9,0.4,1.7,0.7,2.6,0.7c0.7,0,1.2-0.1,1.5-0.3c0.1-0.1,0.2-0.2,0.3-0.3c0.1-0.2,0.2-0.6,0.3-1c0-0.3,0-0.9-0.1-1.8l0.7-0.5
		c0.1-0.1,0.2-0.1,0.2-0.1s0,0.1,0.1,0.2C133.1,174.3,133,175.1,132.8,175.8z M132.1,170.7L131,171l-0.4-1.1l1.1-0.4L132.1,170.7z" id="PATH_59" class="area" title=""></path>
	<path d="M135.4,175.9c-0.2,0.4-0.4,0.7-0.7,0.9c-0.2,0.1-0.3,0.2-0.3,0.2c0,0,0-0.1,0.1-0.4c0.5-1,1.6-3.7,3.2-7.9l1.1-0.3
		c0.1,0,0.2,0,0.2,0c0,0,0,0.1,0,0.2C138.4,169.8,137.3,172.3,135.4,175.9z" id="PATH_60" class="area" title=""></path>
	<path d="M141.9,180.5l-0.4-0.2c-0.3-0.2-0.6-0.4-0.7-0.7c-0.1-0.2-0.1-0.5-0.2-1c-0.4,0.3-0.8,0.4-1.1,0.4c-0.4,0-1-0.1-1.6-0.4
		c-1.3-0.6-1.7-1.4-1.2-2.3c0.1-0.3,0.4-0.6,0.7-0.8c0.1-0.1,0.2-0.1,0.3-0.1c0.1,0,0.1,0.1,0,0.2c0,0.1-0.1,0.1-0.1,0.2
		c-0.1,0.1-0.1,0.2-0.1,0.2c-0.3,0.5,0.1,1,1,1.5c1.3,0.6,2,0.7,2.3,0.2c0.1-0.3,0.2-1.4,0.3-3.5l0.7-0.5c0.1-0.1,0.2-0.1,0.2-0.1
		c0,0,0,0.1,0,0.2c-0.1,0.9-0.2,2.1-0.4,3.8c-0.1,0.9,0.1,1.4,0.6,1.7l0.3,0.1L141.9,180.5z" id="PATH_61" class="area" title=""></path>
	<path d="M142.4,183.2l-1,0.4l-0.4-1l1-0.4L142.4,183.2z M146.3,182.7l-0.7-0.3c-0.8-0.4-1.2-1-1.3-1.6c-0.6,0.4-1.3,0.4-2.3-0.1
		l-0.6-0.3l0.5-1l0.8,0.4c0.9,0.4,1.5,0.3,1.9-0.3c0.2-0.3,0.3-0.4,0.4-0.3s0.1,0.2,0,0.5c-0.3,0.7,0,1.3,0.9,1.7l0.8,0.4
		L146.3,182.7z M143.9,184l-1,0.4l-0.4-1l1-0.4L143.9,184z" id="PATH_62" class="area" title=""></path>
	<path d="M145.5,184.5l1-0.3l0.3,1l-1,0.3L145.5,184.5z M145.6,186.3l1-0.3l0.3,1l-1,0.3L145.6,186.3z M150.7,184.9l-0.7-0.3
		c-0.8-0.4-1.2-1-1.3-1.6c-0.6,0.4-1.3,0.4-2.3-0.1l-0.6-0.3l0.5-1l0.8,0.4c0.9,0.4,1.5,0.3,1.9-0.3c0.2-0.3,0.3-0.4,0.4-0.3
		c0.1,0.1,0.1,0.2,0,0.5c-0.3,0.7,0,1.3,0.9,1.7l0.8,0.4L150.7,184.9z M147.1,185.3l1-0.3l0.3,1l-1,0.3L147.1,185.3z" id="PATH_63" class="area" title=""></path>
	<path d="M158.7,186.5c-0.3,0.5-0.6,0.9-1,1.1c-0.5,0.3-1,0.3-1.5,0c-0.6-0.3-0.9-0.8-0.9-1.4c-0.6,0.3-1.1,0.4-1.6,0.1
		c-0.7-0.3-1-0.8-0.9-1.4c-0.6,0.3-1.2,0.3-1.8,0.1l-0.6-0.3l0.5-1l0.7,0.4c0.6,0.3,1.2,0.2,1.7-0.5c0.1-0.2,0.2-0.2,0.3-0.2
		c0.1,0,0.1,0.2,0,0.3c-0.3,0.7-0.1,1.3,0.6,1.6c0.4,0.2,0.7,0.2,1,0.1c0.2-0.1,0.4-0.3,0.6-0.6c0.1-0.2,0.2-0.2,0.3-0.2
		c0.1,0,0.1,0.1,0,0.3c-0.3,0.8-0.1,1.3,0.5,1.6c0.7,0.3,1.1,0.3,1.3,0c0.1-0.3,0.1-0.7,0-1.3l0.8-0.6c0.1-0.1,0.2-0.1,0.2-0.1
		s0,0.1,0.1,0.3C159,185.6,158.9,186.1,158.7,186.5z" id="PATH_64" class="area" title=""></path>
</g>
<g id="G_65" class="area" title="">
	<path d="M189.1,183l-0.3-0.2c-0.4-0.3-0.6-0.6-0.8-0.9c-0.1-0.4-0.1-0.8,0.2-1.1c-1.5,0.2-3.2-0.3-5.1-1.6c-2-1.3-2.6-2.6-1.7-3.8
		c0.3-0.4,0.7-0.7,1.3-0.9c0.1,0,0.2,0,0.3,0c0.1,0,0.1,0.1,0,0.2c0,0-0.1,0.1-0.1,0.1c-0.3,0.2-0.5,0.4-0.7,0.6
		c-0.6,0.8,0.1,1.8,1.8,3.1c2.1,1.4,3.8,1.9,5.1,1.5c0.3-0.1,0.4-0.1,0.5-0.1c0.1,0,0,0.1,0,0.2c0,0.1-0.1,0.2-0.3,0.3
		c-0.1,0.1-0.2,0.2-0.3,0.3c-0.3,0.4-0.2,0.9,0.5,1.3l0.3,0.2L189.1,183z M187.2,174.7l-1.1,0.2l-0.2-1.1l1.1-0.2L187.2,174.7z
		 M188.7,175.6l-1.1,0.2l-0.2-1.1l1.1-0.2L188.7,175.6z" id="PATH_66" class="area" title=""></path>
	<path d="M193.2,185.8l-0.6-0.4c-0.8-0.5-1.1-1.1-1-1.8c-0.6,0.3-1.4,0.2-2.2-0.4l-0.5-0.4l0.6-1l0.7,0.5c0.8,0.5,1.5,0.5,2,0
		c0.2-0.2,0.3-0.3,0.4-0.2c0.1,0.1,0.1,0.2-0.1,0.5c-0.4,0.7-0.2,1.3,0.6,1.8l0.7,0.5L193.2,185.8z M193.6,179l-1.1,0.2l-0.2-1.1
		l1.1-0.2L193.6,179z M195.1,180l-1.1,0.2l-0.2-1.1l1.1-0.2L195.1,180z" id="PATH_67" class="area" title=""></path>
	<path d="M200.9,188.4c-0.3,0.5-0.7,0.8-1.2,1c-0.5,0.2-1,0.1-1.5-0.2c-0.6-0.4-0.8-0.9-0.7-1.5c-0.6,0.3-1.2,0.2-1.6-0.1
		c-0.6-0.4-0.9-0.9-0.7-1.5c-0.6,0.2-1.2,0.2-1.8-0.2l-0.6-0.4l0.6-1l0.7,0.4c0.6,0.4,1.2,0.3,1.7-0.3c0.1-0.1,0.2-0.2,0.3-0.1
		c0.1,0,0.1,0.2,0,0.3c-0.4,0.7-0.2,1.2,0.4,1.7c0.4,0.3,0.7,0.3,1,0.2c0.2-0.1,0.4-0.2,0.7-0.5c0.1-0.1,0.2-0.2,0.3-0.1
		c0.1,0.1,0.1,0.2,0,0.3c-0.4,0.7-0.3,1.3,0.3,1.7c0.6,0.4,1,0.5,1.2,0.2c0.2-0.2,0.2-0.7,0.2-1.3l0.9-0.5c0.1-0.1,0.2-0.1,0.2-0.1
		s0,0.1,0,0.3C201.3,187.5,201.2,188.1,200.9,188.4z M200.2,183.5l-1,0.2l-0.2-1l1-0.2L200.2,183.5z M201.6,184.5l-1,0.2l-0.2-1
		l1-0.2L201.6,184.5z M201.8,182.7l-1,0.2l-0.2-1l1-0.2L201.8,182.7z" id="PATH_68" class="area" title=""></path>
	<path d="M206,191.9c-0.8,1.2-1.9,1.2-3.5,0.2c-0.6-0.4-0.9-0.7-1.1-1.1c-0.2-0.4-0.1-0.9,0.2-1.4c0.2-0.2,0.4-0.5,0.7-0.6
		c0.1-0.1,0.2-0.1,0.3-0.1c0.1,0,0,0.1-0.1,0.3c-0.1,0.1-0.1,0.2-0.2,0.2c-0.2,0.3-0.2,0.7,0,1c0.1,0.2,0.4,0.4,0.8,0.7
		c1.2,0.8,1.9,1,2.2,0.7c0.4-0.6,0.2-1.9-0.5-3.9l0.8-0.7c0.1-0.1,0.1-0.1,0.2-0.1c0,0,0.1,0.1,0.1,0.2
		C206.6,189.5,206.6,191,206,191.9z" id="PATH_69" class="area" title=""></path>
	<path d="M209.3,196.2c-0.8,1.2-2,2-3.4,2.3c-0.5,0.1-0.7,0.1-0.8,0.1c-0.5-0.3-1-0.7-1.5-1.2c-0.2-0.2-0.3-0.3-0.3-0.3
		c0,0,0.2,0,0.4,0.1c0.8,0.3,1.7,0.3,2.6,0.2c0.4,0,0.8-0.1,1.2-0.3c0.5-0.2,0.8-0.4,1-0.6l0.2-0.3l-1.1-0.7
		c-0.8-0.5-0.9-1.1-0.5-1.7c0.3-0.4,0.7-0.8,1.3-1.1c0.6-0.3,1.1-0.4,1.5-0.2c0.5,0.4,0.7,1,0.4,1.8
		C210,194.9,209.7,195.6,209.3,196.2z M209.1,195.1c0.2-0.3,0.3-0.6,0.2-0.9c0-0.4-0.2-0.7-0.4-0.8c-0.2-0.1-0.4-0.2-0.6-0.1
		c-0.2,0-0.4,0.2-0.5,0.3c-0.3,0.4-0.1,0.8,0.4,1.1C208.5,194.8,208.8,194.9,209.1,195.1z" id="PATH_70" class="area" title=""></path>
	<path d="M214.2,200l-0.3-0.2c-0.3-0.2-0.5-0.4-0.6-0.6c-0.1,0.1-0.1,0.2-0.2,0.3c-0.5,0.8-1.3,1.4-2.3,1.7
		c-0.9,0.3-1.4,0.4-1.7,0.2c-0.6-0.4-1.1-0.8-1.6-1.2c-0.1-0.1-0.2-0.2-0.2-0.3c0-0.1,0.1,0,0.3,0c0.7,0.3,1.6,0.4,2.6,0.3
		c1.1-0.1,1.8-0.4,2.2-1c0.2-0.4,0.3-1,0.1-2l0.9-0.5c0.1,0,0.1-0.1,0.1-0.1c0,0,0,0.1,0,0.2c0,0.5,0.1,0.9,0.1,1.1
		c0.1,0.4,0.4,0.7,0.7,0.9l0.3,0.2L214.2,200z" id="PATH_71" class="area" title=""></path>
	<path d="M219.4,201.2c-0.2,0.4-0.5,0.7-0.8,0.9c-0.5,0.3-0.9,0.4-1.1,0.2c-0.4-0.3-0.9-1-1.3-2.1c-0.5,0.1-0.8,0.2-0.9,0.2
		c-0.3,0-0.7-0.1-1-0.3l-0.4-0.3l0.6-1l0.6,0.4c0.4,0.3,0.8,0.3,1.4,0.1c0.3-0.1,0.8-0.3,1.5-0.6c0.5-0.2,0.9-0.2,1.2,0
		c0.4,0.3,0.6,0.7,0.6,1.3C219.7,200.5,219.6,200.9,219.4,201.2z M218.5,201.5c0.2-0.2,0.3-0.6,0.3-1c0-0.5-0.1-0.8-0.3-0.9
		c-0.2-0.2-0.7-0.1-1.4,0.2c0,0.2,0.2,0.6,0.4,1c0.3,0.4,0.5,0.7,0.7,0.8C218.3,201.6,218.4,201.6,218.5,201.5z" id="PATH_72" class="area" title=""></path>
</g>
<g id="G_73" class="area" title="">
	<path d="M73.5,194.5h-2.3c-0.3,0-0.6,0-0.8,0.1c-0.4,0.1-0.5,0.3-0.5,0.5c0,0.1,0.5,0.2,1.4,0.4c1,0.2,1.4,0.4,1.4,0.6
		c0,0.8-0.2,1.4-0.7,1.8c-0.8,0.7-2.1,1-4,1c-2.3,0-3.5-0.9-3.5-2.6c0-0.4,0.1-0.8,0.3-1.3c0.2-0.5,0.4-0.9,0.6-1.2
		c0.1-0.1,0.2-0.2,0.3-0.2c0.1,0,0.1,0,0.1,0.1c0,0.1,0,0.2-0.1,0.3c-0.3,0.6-0.5,1.2-0.5,1.8c0,0.7,0.3,1.2,1,1.5
		c0.5,0.3,1.1,0.4,1.9,0.4c0.8,0,1.5,0,2.2-0.1c1.2-0.2,1.8-0.4,1.8-0.8c0-0.2-0.3-0.3-0.8-0.4c-0.8-0.1-1.3-0.2-1.5-0.3
		c-0.5-0.1-0.8-0.4-0.8-0.7c0-0.2,0.1-0.5,0.4-0.9c0.2-0.3,0.4-0.5,0.7-0.7c0.5-0.4,1.1-0.6,2-0.6h1.4V194.5z" id="PATH_74" class="area" title=""></path>
	<path d="M78.4,194.5h-0.8c-0.9,0-1.5-0.3-1.9-0.9c-0.3,0.6-1,0.9-2.1,0.9H73v-1.2h0.9c1,0,1.5-0.4,1.6-1.1c0-0.3,0.1-0.5,0.2-0.5
		c0.1,0,0.2,0.2,0.2,0.5c0.1,0.7,0.6,1.1,1.5,1.1h0.9V194.5z M76.4,189.4l-0.8,0.8l-0.8-0.8l0.8-0.8L76.4,189.4z" id="PATH_75" class="area" title=""></path>
	<path d="M87.6,194.5H87c-0.7,0-1.1-0.3-1.4-0.8c-0.2,0.6-0.7,0.8-1.3,0.8c-0.6,0-1-0.3-1.3-0.8c-0.3,0.6-0.7,0.8-1.3,0.8
		c-0.7,0-1.2-0.3-1.5-0.8c-0.4,0.6-0.9,0.8-1.6,0.8H78v-1.2h0.8c0.7,0,1.2-0.4,1.3-1.2c0-0.2,0.1-0.3,0.2-0.3c0.1,0,0.1,0.1,0.2,0.3
		c0.1,0.8,0.5,1.2,1.3,1.2c0.7,0,1.2-0.4,1.2-1.2c0-0.2,0.1-0.3,0.2-0.3c0.1,0,0.2,0.1,0.2,0.3c0.1,0.8,0.5,1.2,1,1.2
		c0.7,0,1.2-0.4,1.2-1.2c0-0.2,0.1-0.3,0.2-0.3c0.1,0,0.2,0.1,0.2,0.3c0.1,0.8,0.5,1.2,1.2,1.2h0.6V194.5z" id="PATH_76" class="area" title=""></path>
	<path d="M94.8,194.5h-0.6c-0.5,0-1-0.3-1.4-0.8c-0.3,0.8-0.6,1.2-0.9,1.2c-0.3,0-0.8-0.2-1.4-0.5c-0.5-0.3-0.9-0.6-1.1-0.8
		c-0.5,0.6-1,0.9-1.5,0.9h-0.6v-1.2h0.6c0.5,0,0.9-0.2,1.3-0.6c0.3-0.3,0.6-0.7,1-1.1c0.4-0.4,0.7-0.6,1-0.6c0.4,0,0.7,0.2,1,0.6
		c0.2,0.2,0.4,0.6,0.9,1.1c0.3,0.4,0.7,0.6,1.1,0.6h0.6V194.5z M92.1,193.7c0-0.3-0.1-0.6-0.3-1c-0.2-0.4-0.5-0.6-0.9-0.6
		c-0.3,0-0.7,0.3-1.1,0.8c0.1,0.1,0.4,0.3,0.9,0.6c0.5,0.3,0.9,0.4,1.2,0.4C92,193.9,92,193.8,92.1,193.7z" id="PATH_77" class="area" title=""></path>
	<path d="M99.7,192.5c0,0.5,0,0.9-0.2,1.3c-0.2,0.5-0.5,0.8-0.8,0.8c-0.5,0-1.3-0.3-2.3-1c-0.3,0.4-0.5,0.6-0.6,0.7
		c-0.3,0.2-0.6,0.3-1,0.3h-0.5v-1.2h0.7c0.4,0,0.8-0.2,1.2-0.7c0.2-0.2,0.5-0.7,0.9-1.3c0.3-0.5,0.7-0.7,1-0.7
		c0.5,0,0.9,0.2,1.2,0.7C99.6,191.8,99.7,192.2,99.7,192.5z M99.1,193.3c0-0.3-0.1-0.6-0.3-1c-0.2-0.4-0.5-0.6-0.8-0.6
		c-0.3,0-0.6,0.3-1,0.9c0.2,0.2,0.5,0.4,0.9,0.6c0.4,0.2,0.8,0.3,1,0.3C99,193.5,99.1,193.4,99.1,193.3z" id="PATH_78" class="area" title=""></path>
</g>
<g id="G_79" class="area" title="">
	<path d="M161.3,246.5c0,1-0.3,1.9-0.9,2.8c-0.5,0.7-1,1.1-1.3,1.1c-0.8,0-1.4,0-2-0.1c-0.2,0-0.3-0.1-0.3-0.1s0.1-0.1,0.3-0.1
		c0.8-0.2,1.6-0.6,2.4-1.2c0.8-0.7,1.3-1.4,1.3-2.1c0-0.4-0.3-1-1-1.7l0.5-0.9c0-0.1,0.1-0.1,0.1-0.1c0,0,0.1,0.1,0.1,0.1
		c0.2,0.3,0.5,0.7,0.6,1.2C161.2,245.7,161.3,246.2,161.3,246.5z M160.6,241.2l-0.8,0.8l-0.8-0.8l0.8-0.8L160.6,241.2z" id="PATH_80" class="area" title=""></path>
	<path d="M163.7,245.2c0,0.4-0.1,0.8-0.3,1.1c-0.1,0.2-0.2,0.3-0.2,0.3c0,0-0.1-0.1-0.1-0.4c0-1.2-0.2-4-0.6-8.5l0.8-0.8
		c0.1-0.1,0.1-0.1,0.1-0.1c0,0,0,0.1,0,0.2C163.6,238.4,163.7,241.1,163.7,245.2z" id="PATH_81" class="area" title=""></path>
	<path d="M169.9,246.4h-0.4c-0.4,0-0.6-0.1-0.8-0.2c0,0.1,0,0.2,0,0.3c0,0.9-0.3,1.8-0.9,2.7c-0.5,0.8-1,1.1-1.3,1.1
		c-0.8,0-1.4,0-2-0.1c-0.2,0-0.3-0.1-0.3-0.1s0.1-0.1,0.3-0.1c0.8-0.2,1.6-0.6,2.4-1.2c0.8-0.7,1.3-1.4,1.3-2.1c0-0.4-0.3-1-1-1.7
		l0.5-0.9c0-0.1,0.1-0.1,0.1-0.1c0,0,0.1,0.1,0.1,0.1c0.3,0.4,0.5,0.7,0.7,0.8c0.3,0.2,0.7,0.4,1.1,0.4h0.3V246.4z" id="PATH_82" class="area" title=""></path>
	<path d="M174.8,246.4h-0.8c-0.9,0-1.5-0.3-1.9-0.9c-0.3,0.6-1,0.9-2.1,0.9h-0.6v-1.2h0.9c1,0,1.5-0.4,1.6-1.1
		c0-0.3,0.1-0.5,0.2-0.5c0.1,0,0.2,0.2,0.2,0.5c0.1,0.7,0.6,1.1,1.5,1.1h0.9V246.4z M171.5,248.6l-0.8,0.8l-0.8-0.8l0.8-0.8
		L171.5,248.6z M173.3,248.6l-0.8,0.8l-0.8-0.8l0.8-0.8L173.3,248.6z" id="PATH_83" class="area" title=""></path>
	<path d="M182.7,244.3c0,0.6-0.1,1.1-0.4,1.5c-0.3,0.4-0.8,0.7-1.3,0.7c-0.7,0-1.1-0.3-1.4-0.8c-0.4,0.6-0.8,0.8-1.4,0.8
		c-0.7,0-1.2-0.3-1.5-0.8c-0.4,0.6-0.9,0.8-1.6,0.8h-0.7v-1.2h0.8c0.7,0,1.2-0.4,1.3-1.2c0-0.2,0.1-0.3,0.2-0.3
		c0.1,0,0.1,0.1,0.2,0.3c0.1,0.8,0.5,1.2,1.3,1.2c0.4,0,0.8-0.1,1-0.3c0.1-0.2,0.2-0.4,0.3-0.8c0-0.2,0.1-0.3,0.2-0.3
		c0.1,0,0.1,0.1,0.2,0.3c0.1,0.8,0.5,1.2,1.2,1.2c0.8,0,1.1-0.2,1.1-0.5c0-0.3-0.2-0.7-0.6-1.1l0.5-0.9c0.1-0.1,0.1-0.2,0.2-0.2
		s0.1,0.1,0.2,0.2C182.6,243.3,182.7,243.9,182.7,244.3z M179.3,240.6l-0.7,0.7l-0.7-0.7l0.7-0.7L179.3,240.6z M180.2,239.1
		l-0.7,0.7l-0.7-0.7l0.7-0.7L180.2,239.1z M181.1,240.7l-0.7,0.7l-0.7-0.7l0.7-0.7L181.1,240.7z" id="PATH_84" class="area" title=""></path>
</g>
<g id="G_85" class="area" title="">
	<path d="M104.3,261.2c0.1,0.3,0.1,0.6,0.1,0.9c0,0.4-0.1,0.7-0.2,1.1c-0.3,0.7-0.8,1.3-1.8,1.7c-0.8,0.3-1.6,0.5-2.5,0.5
		c-0.9,0-1.6-0.2-2.2-0.6c-0.6-0.5-0.9-1.1-0.9-2c0-0.5,0.1-0.9,0.3-1.5c0.2-0.4,0.3-0.7,0.5-0.9c0.1-0.1,0.2-0.1,0.2-0.1
		c0.1,0,0.1,0,0.1,0.1c0,0,0,0.1,0,0.2c-0.3,0.6-0.4,1.2-0.4,1.7c0,0.5,0.2,0.9,0.5,1.3c0.4,0.5,1.1,0.7,2,0.7c1,0,1.9-0.2,2.6-0.5
		c0.6-0.3,1-0.6,1.2-1c0.1-0.1,0.1-0.3,0.1-0.4c0-0.3-0.1-0.6-0.2-1c-0.1-0.3-0.4-0.8-0.9-1.6l0.4-0.8c0.1-0.1,0.1-0.2,0.1-0.2
		s0.1,0,0.1,0.1C103.9,259.7,104.2,260.4,104.3,261.2z M101.4,256.9l-0.8,0.8l-0.8-0.8l0.8-0.8L101.4,256.9z" id="PATH_86" class="area" title=""></path>
	<path d="M109.6,260.9c0,1.5-0.5,2.8-1.5,3.8c-0.3,0.3-0.5,0.5-0.6,0.5c-0.6,0-1.2-0.1-1.9-0.2c-0.3,0-0.4-0.1-0.4-0.1
		c0,0,0.1-0.1,0.4-0.2c0.8-0.2,1.6-0.7,2.3-1.3c0.3-0.3,0.6-0.5,0.8-0.9c0.3-0.4,0.5-0.8,0.5-1.1v-0.3l-1.3,0
		c-0.9,0-1.4-0.4-1.4-1.1c0-0.5,0.1-1,0.4-1.6c0.3-0.6,0.7-1,1.1-1c0.6,0,1.1,0.4,1.4,1.3C109.4,259.5,109.6,260.2,109.6,260.9z
		 M108.8,260.1c0-0.3-0.1-0.6-0.3-0.9c-0.2-0.3-0.5-0.5-0.8-0.5c-0.2,0-0.4,0.1-0.5,0.2c-0.2,0.2-0.2,0.3-0.2,0.5
		c0,0.5,0.3,0.7,1,0.7C108.1,260.2,108.5,260.2,108.8,260.1z" id="PATH_87" class="area" title=""></path>
	<path d="M114.6,261.4c0,1-0.3,1.9-0.9,2.8c-0.5,0.7-1,1.1-1.3,1.1c-0.8,0-1.4,0-2-0.1c-0.2,0-0.3-0.1-0.3-0.1s0.1-0.1,0.3-0.1
		c0.8-0.2,1.6-0.6,2.4-1.2c0.8-0.7,1.3-1.4,1.3-2.1c0-0.4-0.3-1-1-1.7l0.5-0.9c0-0.1,0.1-0.1,0.1-0.1c0,0,0.1,0.1,0.1,0.1
		c0.2,0.3,0.5,0.7,0.6,1.2C114.5,260.7,114.6,261.1,114.6,261.4z" id="PATH_88" class="area" title=""></path>
	<path d="M119.7,261.4c0,1-0.3,1.9-0.9,2.8c-0.5,0.7-1,1.1-1.3,1.1c-0.8,0-1.4,0-2-0.1c-0.2,0-0.3-0.1-0.3-0.1s0.1-0.1,0.3-0.1
		c0.8-0.2,1.6-0.6,2.4-1.2c0.8-0.7,1.3-1.4,1.3-2.1c0-0.4-0.3-1-1-1.7l0.5-0.9c0-0.1,0.1-0.1,0.1-0.1c0,0,0.1,0.1,0.1,0.1
		c0.2,0.3,0.5,0.7,0.6,1.2C119.5,260.7,119.7,261.1,119.7,261.4z M118.9,256.1l-0.8,0.8l-0.8-0.8l0.8-0.8L118.9,256.1z" id="PATH_89" class="area" title=""></path>
	<path d="M123.6,261.4H123c-0.7,0-1.3-0.3-1.5-0.9c-0.2-0.4-0.3-1.1-0.3-1.9v-1.9c0-0.9-0.1-2.2-0.2-3.9l0.6-0.7
		c0.1-0.1,0.2-0.1,0.2,0c0.1,0.9,0.2,2.2,0.2,3.9v2.9c0,0.8,0.4,1.2,1.2,1.2h0.5V261.4z" id="PATH_90" class="area" title=""></path>
	<path d="M129.8,252.1c0,0.2-0.2,0.6-0.4,1.1l-2.5,0.8c-1.1,0.4-1.9,0.7-2.3,0.9c0.8,0.8,1.3,1.4,1.6,1.7c0.5,0.7,0.8,1.3,0.9,2
		c0,0.5,0,1-0.2,1.4c-0.3,0.9-1.4,1.3-3.1,1.3h-0.5v-1.2h0.6c0.8,0,1.4,0,1.7-0.1c0.7-0.2,1.1-0.5,1.1-1c0-0.7-0.5-1.5-1.6-2.5
		l-0.1,0.2c-0.1-0.1-0.3-0.3-0.5-0.6c-0.3-0.3-0.4-0.6-0.4-0.6c0-0.2,0-0.4,0.1-0.8c0.1-0.4,0.2-0.6,0.3-0.7
		c0.1-0.1,0.8-0.4,2.1-0.8C127.7,252.7,128.9,252.3,129.8,252.1z" id="PATH_91" class="area" title=""></path>
</g>
<g id="G_92" class="area" title="">
	<path d="M273.1,225.3c0.1,0.3,0.1,0.6,0.1,0.9c0,0.4-0.1,0.7-0.2,1.1c-0.3,0.7-0.8,1.3-1.8,1.7c-0.8,0.3-1.6,0.5-2.5,0.5
		c-0.9,0-1.6-0.2-2.2-0.6c-0.6-0.5-0.9-1.1-0.9-2c0-0.5,0.1-0.9,0.3-1.5c0.2-0.4,0.3-0.7,0.5-0.9c0.1-0.1,0.2-0.1,0.2-0.1
		c0.1,0,0.1,0,0.1,0.1c0,0,0,0.1,0,0.2c-0.3,0.6-0.4,1.2-0.4,1.7c0,0.5,0.2,0.9,0.5,1.3c0.4,0.5,1.1,0.7,2,0.7c1,0,1.9-0.2,2.6-0.5
		c0.6-0.3,1-0.6,1.2-1c0.1-0.1,0.1-0.3,0.1-0.4c0-0.3-0.1-0.6-0.2-1c-0.1-0.3-0.4-0.8-0.9-1.6l0.4-0.8c0.1-0.1,0.1-0.2,0.1-0.2
		s0.1,0,0.1,0.1C272.7,223.7,273,224.5,273.1,225.3z M270.2,220.9l-0.8,0.8l-0.8-0.8l0.8-0.8L270.2,220.9z" id="PATH_93" class="area" title=""></path>
	<path d="M277.2,225.4h-0.7c-0.7,0-1.3-0.3-1.5-0.9c-0.2-0.4-0.3-1.1-0.3-1.9v-1.9c0-0.9-0.1-2.2-0.2-3.9l0.6-0.7
		c0.1-0.1,0.2-0.1,0.2,0c0.1,0.9,0.2,2.2,0.2,3.9v2.9c0,0.8,0.4,1.2,1.2,1.2h0.5V225.4z" id="PATH_94" class="area" title=""></path>
	<path d="M286,225.4h-1c-1.3,0-2-0.7-2-2c0-0.2,0-0.3,0-0.5c-0.5,0.2-1.1,0.6-1.9,1.1c-0.8,0.5-1.3,0.8-1.7,1
		c-0.6,0.3-1.3,0.4-1.9,0.4h-0.7v-1.2h0.8c0.8,0,1.7-0.2,2.5-0.6c0.4-0.2,1.1-0.6,2.2-1.1c-0.2,0-0.8-0.2-1.8-0.4
		c-0.7-0.2-1.1-0.3-1.2-0.3c-0.4,0-0.8,0.2-1.2,0.5c-0.1,0.1-0.1,0.1-0.2,0.1c-0.1,0-0.1,0-0.1-0.1c0,0,0-0.1,0-0.1
		c0.3-1,0.9-1.5,1.7-1.5c0.3,0,0.7,0.1,1.2,0.2c0.7,0.2,1.3,0.4,1.8,0.5c0.7,0.1,1.5,0.2,2.4,0.2c0.2,0,0.2,0,0.3,0c0,0,0,0.1,0,0.2
		l-0.3,0.9c-0.6,0-1,0-1.2,0.1c0,0.5,0.1,0.8,0.2,0.9c0.2,0.3,0.6,0.5,1.3,0.5h1V225.4z M282.2,227.5l-0.8,0.8l-0.8-0.8l0.8-0.8
		L282.2,227.5z" id="PATH_95" class="area" title=""></path>
	<path d="M290.8,225.4h-0.8c-0.9,0-1.5-0.3-1.9-0.9c-0.3,0.6-1,0.9-2.1,0.9h-0.6v-1.2h0.9c1,0,1.5-0.4,1.6-1.1
		c0-0.3,0.1-0.5,0.2-0.5s0.2,0.2,0.2,0.5c0.1,0.7,0.6,1.1,1.5,1.1h0.9V225.4z M288.9,220.3l-0.8,0.8l-0.8-0.8l0.8-0.8L288.9,220.3z" id="PATH_96" class="area" title=""></path>
	<path d="M298.7,223.3c0,0.6-0.1,1.1-0.4,1.5c-0.3,0.4-0.8,0.7-1.3,0.7c-0.7,0-1.1-0.3-1.4-0.8c-0.4,0.6-0.8,0.8-1.4,0.8
		c-0.7,0-1.2-0.3-1.5-0.8c-0.4,0.6-0.9,0.8-1.6,0.8h-0.7v-1.2h0.8c0.7,0,1.2-0.4,1.3-1.2c0-0.2,0.1-0.3,0.2-0.3
		c0.1,0,0.1,0.1,0.2,0.3c0.1,0.8,0.5,1.2,1.3,1.2c0.4,0,0.8-0.1,1-0.3c0.1-0.2,0.2-0.4,0.3-0.8c0-0.2,0.1-0.3,0.2-0.3
		c0.1,0,0.1,0.1,0.2,0.3c0.1,0.8,0.5,1.2,1.2,1.2c0.8,0,1.1-0.2,1.1-0.5c0-0.3-0.2-0.7-0.6-1.1l0.5-0.9c0.1-0.1,0.1-0.2,0.2-0.2
		s0.1,0.1,0.2,0.2C298.6,222.3,298.7,222.8,298.7,223.3z" id="PATH_97" class="area" title=""></path>
	<path d="M303.8,225.5c0,1-0.3,1.9-0.9,2.8c-0.5,0.7-1,1.1-1.3,1.1c-0.8,0-1.4,0-2-0.1c-0.2,0-0.3-0.1-0.3-0.1s0.1-0.1,0.3-0.1
		c0.8-0.2,1.6-0.6,2.4-1.2c0.8-0.7,1.3-1.4,1.3-2.1c0-0.4-0.3-1-1-1.7l0.5-0.9c0-0.1,0.1-0.1,0.1-0.1c0,0,0.1,0.1,0.1,0.1
		c0.2,0.3,0.5,0.7,0.6,1.2C303.7,224.7,303.8,225.2,303.8,225.5z" id="PATH_98" class="area" title=""></path>
	<path d="M306.2,224.2c0,0.4-0.1,0.8-0.3,1.1c-0.1,0.2-0.2,0.3-0.2,0.3c0,0-0.1-0.1-0.1-0.4c0-1.2-0.2-4-0.6-8.5l0.8-0.8
		c0.1-0.1,0.1-0.1,0.1-0.1c0,0,0,0.1,0,0.2C306.1,217.4,306.2,220.1,306.2,224.2z" id="PATH_99" class="area" title=""></path>
</g>
<g id="G_100" class="area" title="">
	<path d="M240.9,192.7c0,1.2-0.8,1.8-2.4,1.8c-0.6,0-1-0.1-1.3-0.2c-0.4-0.2-0.5-0.6-0.5-1.1c0-0.3,0.1-0.5,0.2-0.8
		c0.1-0.1,0.1-0.2,0.2-0.2c0.1,0,0.1,0.1,0.1,0.2c0,0.1,0,0.2,0,0.3c0,0.4,0.2,0.6,0.5,0.7c0.2,0.1,0.5,0.1,1,0.1
		c1.3,0,1.9-0.2,1.9-0.6c0-0.6-0.7-1.5-2.2-2.6l0.3-0.9c0-0.1,0.1-0.1,0.1-0.1c0,0,0.1,0,0.2,0.1
		C240.2,190.6,240.9,191.7,240.9,192.7z" id="PATH_101" class="area" title=""></path>
	<path d="M244.4,194.5h-0.6c-0.7,0-1.1-0.3-1.4-0.8c-0.2-0.4-0.3-0.9-0.3-1.7v-1.7c0-0.8-0.1-1.9-0.2-3.4l0.5-0.6
		c0.1-0.1,0.2-0.1,0.2,0c0.1,0.8,0.2,1.9,0.2,3.5v2.6c0,0.7,0.3,1.1,1,1.1h0.5V194.5z" id="PATH_102" class="area" title=""></path>
	<path d="M249.6,187.4c0,0.1-0.1,0.5-0.3,1c-1.1,0.3-2.3,0.7-3.9,1.2c1.1,1,1.7,1.9,1.8,2.6c0.1,0.5,0,0.9-0.2,1.3
		c-0.2,0.4-0.5,0.7-0.9,0.9c-0.4,0.1-1,0.2-1.8,0.2H244v-1h0.3c1.7,0,2.5-0.3,2.5-0.9c0-0.5-0.5-1.1-1.4-2l-0.1,0.2
		c-0.1-0.1-0.3-0.2-0.5-0.5c-0.2-0.3-0.4-0.5-0.4-0.5c0-0.3,0.1-0.6,0.3-0.8c0-0.1,0.6-0.3,1.7-0.6
		C247.7,188,248.8,187.7,249.6,187.4z M249.4,186.1l-0.2,0.6l-4.3,1.4l0.2-0.6L249.4,186.1z" id="PATH_103" class="area" title=""></path>
	<path d="M253.8,194.6c0,0.9-0.3,1.7-0.8,2.4c-0.5,0.6-0.9,1-1.2,1c-0.7,0-1.2,0-1.7-0.1c-0.2,0-0.2-0.1-0.2-0.1s0.1-0.1,0.2-0.1
		c0.7-0.1,1.4-0.5,2.1-1.1c0.7-0.6,1.1-1.2,1.1-1.8c0-0.4-0.3-0.9-0.9-1.5l0.4-0.8c0-0.1,0.1-0.1,0.1-0.1c0,0,0.1,0,0.1,0.1
		c0.2,0.3,0.4,0.6,0.6,1C253.7,193.9,253.8,194.3,253.8,194.6z" id="PATH_104" class="area" title=""></path>
	<path d="M257.3,194.5h-0.6c-0.7,0-1.1-0.3-1.4-0.8c-0.2-0.4-0.3-0.9-0.3-1.7v-1.7c0-0.8-0.1-1.9-0.2-3.4l0.5-0.6
		c0.1-0.1,0.2-0.1,0.2,0c0.1,0.8,0.2,1.9,0.2,3.5v2.6c0,0.7,0.3,1.1,1,1.1h0.5V194.5z" id="PATH_105" class="area" title=""></path>
	<path d="M264.2,192.7c0,0.5-0.1,1-0.4,1.3c-0.3,0.4-0.7,0.6-1.2,0.6c-0.6,0-1-0.2-1.3-0.7c-0.3,0.5-0.7,0.7-1.2,0.7
		c-0.6,0-1.1-0.2-1.3-0.7c-0.3,0.5-0.8,0.7-1.4,0.7H257v-1h0.7c0.6,0,1-0.3,1.1-1c0-0.2,0.1-0.3,0.2-0.3c0.1,0,0.1,0.1,0.1,0.3
		c0.1,0.7,0.4,1,1.1,1c0.4,0,0.7-0.1,0.8-0.3c0.1-0.1,0.2-0.4,0.2-0.7c0-0.2,0.1-0.3,0.1-0.3c0.1,0,0.1,0.1,0.2,0.2
		c0.1,0.7,0.4,1,1.1,1c0.7,0,1-0.2,1-0.5c0-0.3-0.2-0.6-0.5-1l0.4-0.7c0.1-0.1,0.1-0.2,0.1-0.2s0.1,0.1,0.2,0.2
		C264.1,191.8,264.2,192.3,264.2,192.7z" id="PATH_106" class="area" title=""></path>
	<path d="M267.7,194.5h-0.6c-0.7,0-1.1-0.3-1.4-0.8c-0.2-0.4-0.3-0.9-0.3-1.7v-1.7c0-0.8-0.1-1.9-0.2-3.4l0.5-0.6
		c0.1-0.1,0.2-0.1,0.2,0c0.1,0.8,0.2,1.9,0.2,3.5v2.6c0,0.7,0.3,1.1,1,1.1h0.5V194.5z" id="PATH_107" class="area" title=""></path>
	<path d="M269.8,192.8c0,1.2-0.6,1.7-1.7,1.7h-0.7v-1h0.6c0.9,0,1.3-0.2,1.3-0.5c0-0.2-0.2-0.6-0.6-1.1l0.4-0.9
		c0-0.1,0.1-0.1,0.1-0.1s0.1,0.1,0.1,0.2C269.6,191.7,269.8,192.2,269.8,192.8z M267.7,196.2l0.7-0.6l0.6,0.6l-0.6,0.6L267.7,196.2z
		 M268.5,197.6l0.6-0.6l0.6,0.6l-0.6,0.6L268.5,197.6z M269.3,196.2l0.6-0.6l0.7,0.6l-0.6,0.6L269.3,196.2z" id="PATH_108" class="area" title=""></path>
</g>
<g id="G_109" class="area" title="">
	<path d="M69.2,151.5l-0.2-0.4c-0.3-0.5-0.4-1-0.4-1.4c-0.1,0.1-0.2,0.2-0.4,0.3c-0.9,0.5-1.5,0.5-1.9-0.1c-0.3-0.5-0.2-1,0.1-1.6
		c0.3-0.5,0.7-0.9,1.3-1.2c0.1-0.1,0.2-0.1,0.3-0.2c0-0.1-0.1-0.2-0.1-0.3c-0.3-0.6-0.7-0.9-1.2-1c-1.3,1-2.3,1.7-3,2.1
		c-0.3,0.2-0.8,0.3-1.4,0.4c-0.2,0-0.3,0-0.3,0s0.1-0.1,0.3-0.3l3.8-2.8c0.2-0.1,0.5-0.2,0.9-0.1c0.4,0,0.7,0.1,0.9,0.2
		c0.2,0.1,0.4,0.2,0.6,0.5c0.2,0.2,0.4,0.5,0.5,0.6c0,0,0.1,0.1,0.1,0.1l0.6-0.2c0.1,0,0.2,0,0.2,0c0,0,0,0.1,0,0.2
		c-0.2,1.1-0.3,1.8-0.4,2.2c0,0.7,0.1,1.3,0.3,1.7l0.3,0.5L69.2,151.5z M68.1,149.5c0.2-0.1,0.4-0.5,0.5-1c0-0.1,0.1-0.6,0.3-1.5
		c-0.2,0.1-0.4,0.2-0.5,0.3c-0.4,0.2-0.7,0.5-0.9,0.8c-0.3,0.4-0.3,0.8-0.1,1.2C67.5,149.6,67.8,149.7,68.1,149.5z" id="PATH_110" class="area" title=""></path>
	<path d="M71.7,155.7l-0.4-0.7c-0.5-0.8-0.5-1.5-0.2-2.1c-0.7,0-1.3-0.4-1.8-1.3l-0.3-0.6l1-0.6l0.5,0.8c0.5,0.8,1.1,1.1,1.8,0.8
		c0.3-0.1,0.4-0.1,0.5,0s0,0.2-0.3,0.4c-0.6,0.4-0.7,1.1-0.2,1.9l0.4,0.8L71.7,155.7z M75,149.8l-1.1-0.3l0.3-1.1l1.1,0.3L75,149.8z
		 M75.8,151.3l-1.1-0.3L75,150l1.1,0.3L75.8,151.3z" id="PATH_111" class="area" title=""></path>
	<path d="M77.5,161.4c-0.5,0.3-1,0.4-1.5,0.4c-0.5,0-1-0.3-1.2-0.8c-0.3-0.6-0.3-1.1,0-1.7c-0.7,0-1.1-0.3-1.4-0.8
		c-0.4-0.6-0.4-1.2,0-1.7c-0.7,0-1.2-0.4-1.5-0.9l-0.4-0.6l1-0.6l0.4,0.7c0.4,0.6,0.9,0.8,1.7,0.5c0.2-0.1,0.3-0.1,0.3,0
		c0,0.1,0,0.2-0.2,0.3c-0.6,0.5-0.8,1-0.4,1.7c0.2,0.4,0.5,0.6,0.8,0.6c0.2,0,0.5,0,0.9-0.2c0.2-0.1,0.3-0.1,0.3,0
		c0,0.1,0,0.2-0.2,0.3c-0.6,0.5-0.8,1-0.4,1.6c0.4,0.7,0.7,0.9,1,0.7c0.2-0.1,0.5-0.5,0.7-1.1l1,0c0.2,0,0.2,0,0.3,0
		c0,0,0,0.1-0.1,0.3C78.3,160.8,77.9,161.2,77.5,161.4z" id="PATH_112" class="area" title=""></path>
	<path d="M78.2,166.9c-0.8,0.5-1.8,0.7-2.8,0.6c-0.9-0.1-1.5-0.3-1.6-0.6c-0.4-0.7-0.7-1.2-0.9-1.8c-0.1-0.2-0.1-0.3,0-0.3
		c0.1,0,0.1,0,0.3,0.2c0.5,0.6,1.3,1.1,2.3,1.4c1,0.4,1.8,0.4,2.4,0c0.4-0.2,0.7-0.8,0.9-1.8l1-0.1c0.1,0,0.1,0,0.2,0
		c0,0,0,0.1,0,0.2c-0.1,0.4-0.4,0.7-0.7,1.1C78.8,166.5,78.5,166.8,78.2,166.9z" id="PATH_113" class="area" title=""></path>
</g>
<g id="G_114" class="area" title="">
	<path d="M250.2,255.6h-0.7c-0.9,0-1.4-0.5-1.6-1.6c-0.5,0.5-0.7,0.7-0.8,0.7h-0.9c-0.3,0-0.6,0-0.9-0.1c-0.4-0.1-0.6-0.3-0.6-0.5
		c0-0.7,0.3-1.4,0.8-1.8c0.4-0.3,1-0.6,1.8-1l-0.2-1l0.7-0.8c0,0.1,0.3,1.2,0.7,3.3c0.1,0.6,0.3,1.1,0.4,1.3
		c0.2,0.3,0.4,0.4,0.8,0.4h0.7V255.6z M247.7,253.6l-0.3-1.6c-0.3,0.1-0.7,0.3-1.2,0.5c-0.6,0.3-1,0.6-1,0.7c0,0.2,0.2,0.3,0.7,0.4
		c0.3,0.1,0.6,0.1,0.9,0.1C247.2,253.7,247.5,253.7,247.7,253.6z" id="PATH_115" class="area" title=""></path>
	<path d="M255.2,253.7c0,0.5,0,0.9-0.2,1.3c-0.2,0.5-0.5,0.8-0.8,0.8c-0.5,0-1.3-0.3-2.3-1c-0.3,0.4-0.5,0.6-0.6,0.7
		c-0.3,0.2-0.6,0.3-1,0.3h-0.5v-1.2h0.7c0.4,0,0.8-0.2,1.2-0.7c0.2-0.2,0.5-0.7,0.9-1.3c0.3-0.5,0.7-0.7,1-0.7
		c0.5,0,0.9,0.2,1.2,0.7C255,252.9,255.2,253.3,255.2,253.7z M254.6,254.4c0-0.3-0.1-0.6-0.3-1c-0.2-0.4-0.5-0.6-0.8-0.6
		c-0.3,0-0.6,0.3-1,0.9c0.2,0.2,0.5,0.4,0.9,0.6c0.4,0.2,0.8,0.3,1,0.3C254.5,254.6,254.6,254.6,254.6,254.4z" id="PATH_116" class="area" title=""></path>
	<path d="M257.5,254.4c0,0.4-0.1,0.8-0.3,1.1c-0.1,0.2-0.2,0.3-0.2,0.3c0,0-0.1-0.1-0.1-0.4c0-1.2-0.2-4-0.6-8.5l0.8-0.8
		c0.1-0.1,0.1-0.1,0.1-0.1c0,0,0,0.1,0,0.2C257.5,247.6,257.5,250.3,257.5,254.4z" id="PATH_117" class="area" title=""></path>
	<path d="M263.8,255.6h-0.4c-0.4,0-0.6-0.1-0.8-0.2c0,0.1,0,0.2,0,0.3c0,0.9-0.3,1.8-0.9,2.7c-0.5,0.8-1,1.1-1.3,1.1
		c-0.8,0-1.4,0-2-0.1c-0.2,0-0.3-0.1-0.3-0.1s0.1-0.1,0.3-0.1c0.8-0.2,1.6-0.6,2.4-1.2c0.8-0.7,1.3-1.4,1.3-2.1c0-0.4-0.3-1-1-1.7
		l0.5-0.9c0-0.1,0.1-0.1,0.1-0.1c0,0,0.1,0.1,0.1,0.1c0.3,0.4,0.5,0.7,0.7,0.8c0.3,0.2,0.7,0.4,1.1,0.4h0.3V255.6z" id="PATH_118" class="area" title=""></path>
	<path d="M271.6,252.7l-0.4,0.8c-0.7,0-1.3,0-1.6,0.1c-0.4,0.2-1,0.4-1.8,0.8c-0.8,0.4-1.4,0.7-1.8,0.8c-0.6,0.2-1.3,0.3-1.9,0.3
		h-0.7v-1.2h0.8c0.9,0,1.7-0.2,2.4-0.5l2.3-1c-0.4-0.1-1-0.3-1.8-0.6c-0.7-0.3-1.1-0.4-1.3-0.4c-0.4,0-0.8,0.2-1.2,0.5
		c-0.1,0.1-0.1,0.1-0.2,0.1c-0.1,0-0.1,0-0.1-0.1c0,0,0-0.1,0-0.1c0.3-1,0.9-1.4,1.7-1.4c0.3,0,0.7,0.1,1.1,0.3
		c0.8,0.4,1.4,0.6,1.8,0.8c0.7,0.2,1.5,0.4,2.4,0.4c0.2,0,0.3,0,0.3,0.1C271.7,252.5,271.6,252.6,271.6,252.7z M268.7,248.2
		l-0.8,0.8l-0.8-0.8l0.8-0.8L268.7,248.2z" id="PATH_119" class="area" title=""></path>
</g>
<g id="G_120" class="area" title="">
	<path d="M225.7,278.1c0.1,0.3,0.1,0.6,0.1,0.9c0,0.4-0.1,0.7-0.2,1.1c-0.3,0.7-0.8,1.3-1.8,1.7c-0.8,0.3-1.6,0.5-2.5,0.5
		c-0.9,0-1.6-0.2-2.2-0.6c-0.6-0.5-0.9-1.1-0.9-2c0-0.5,0.1-0.9,0.3-1.5c0.2-0.4,0.3-0.7,0.5-0.9c0.1-0.1,0.2-0.1,0.2-0.1
		c0.1,0,0.1,0,0.1,0.1c0,0,0,0.1,0,0.2c-0.3,0.6-0.4,1.2-0.4,1.7c0,0.5,0.2,0.9,0.5,1.3c0.4,0.5,1.1,0.7,2,0.7c1,0,1.9-0.2,2.6-0.5
		c0.6-0.3,1-0.6,1.2-1c0.1-0.1,0.1-0.3,0.1-0.4c0-0.3-0.1-0.6-0.2-1c-0.1-0.3-0.4-0.8-0.9-1.6l0.4-0.8c0.1-0.1,0.1-0.2,0.1-0.2
		s0.1,0,0.1,0.1C225.2,276.6,225.5,277.3,225.7,278.1z M222.7,273.8l-0.8,0.8l-0.8-0.8l0.8-0.8L222.7,273.8z" id="PATH_121" class="area" title=""></path>
	<path d="M229.7,278.3h-0.7c-0.7,0-1.3-0.3-1.5-0.9c-0.2-0.4-0.3-1.1-0.3-1.9v-1.9c0-0.9-0.1-2.2-0.2-3.9l0.6-0.7
		c0.1-0.1,0.2-0.1,0.2,0c0.1,0.9,0.2,2.2,0.2,3.9v2.9c0,0.8,0.4,1.2,1.2,1.2h0.5V278.3z" id="PATH_122" class="area" title=""></path>
	<path d="M234.6,278.3h-0.8c-0.9,0-1.5-0.3-1.9-0.9c-0.3,0.6-1,0.9-2.1,0.9h-0.6v-1.2h0.9c1,0,1.5-0.4,1.6-1.1
		c0-0.3,0.1-0.5,0.2-0.5c0.1,0,0.2,0.2,0.2,0.5c0.1,0.7,0.6,1.1,1.5,1.1h0.9V278.3z M231.3,272.5l-0.8,0.8l-0.8-0.8l0.8-0.8
		L231.3,272.5z M233,272.5l-0.8,0.8l-0.8-0.8l0.8-0.8L233,272.5z" id="PATH_123" class="area" title=""></path>
	<path d="M242.5,276.2c0,0.6-0.1,1.1-0.4,1.5c-0.3,0.4-0.8,0.7-1.3,0.7c-0.7,0-1.1-0.3-1.4-0.8c-0.4,0.6-0.8,0.8-1.4,0.8
		c-0.7,0-1.2-0.3-1.5-0.8c-0.4,0.6-0.9,0.8-1.6,0.8h-0.7v-1.2h0.8c0.7,0,1.2-0.4,1.3-1.2c0-0.2,0.1-0.3,0.2-0.3
		c0.1,0,0.1,0.1,0.2,0.3c0.1,0.8,0.5,1.2,1.3,1.2c0.4,0,0.8-0.1,1-0.3c0.1-0.2,0.2-0.4,0.3-0.8c0-0.2,0.1-0.3,0.2-0.3
		c0.1,0,0.1,0.1,0.2,0.3c0.1,0.8,0.5,1.2,1.2,1.2c0.8,0,1.1-0.2,1.1-0.5c0-0.3-0.2-0.7-0.6-1.1l0.5-0.9c0.1-0.1,0.1-0.2,0.2-0.2
		s0.1,0.1,0.2,0.2C242.4,275.2,242.5,275.7,242.5,276.2z" id="PATH_124" class="area" title=""></path>
	<path d="M247.7,277.9c0,1.5-0.5,2.8-1.5,3.8c-0.3,0.3-0.5,0.5-0.6,0.5c-0.6,0-1.2-0.1-1.9-0.2c-0.3,0-0.4-0.1-0.4-0.1
		c0,0,0.1-0.1,0.4-0.2c0.8-0.2,1.6-0.7,2.3-1.3c0.3-0.3,0.6-0.5,0.8-0.9c0.3-0.4,0.5-0.8,0.5-1.1v-0.3l-1.3,0
		c-0.9,0-1.4-0.4-1.4-1.1c0-0.5,0.1-1,0.4-1.6c0.3-0.6,0.7-1,1.1-1c0.6,0,1.1,0.4,1.4,1.3C247.6,276.4,247.7,277.1,247.7,277.9z
		 M247,277.1c0-0.3-0.1-0.6-0.3-0.9c-0.2-0.3-0.5-0.5-0.8-0.5c-0.2,0-0.4,0.1-0.5,0.2c-0.2,0.2-0.2,0.3-0.2,0.5c0,0.5,0.3,0.7,1,0.7
		C246.3,277.1,246.6,277.1,247,277.1z" id="PATH_125" class="area" title=""></path>
	<path d="M253.9,278.3h-0.4c-0.4,0-0.6-0.1-0.8-0.2c0,0.1,0,0.2,0,0.3c0,0.9-0.3,1.8-0.9,2.7c-0.5,0.8-1,1.1-1.3,1.1
		c-0.8,0-1.4,0-2-0.1c-0.2,0-0.3-0.1-0.3-0.1s0.1-0.1,0.3-0.1c0.8-0.2,1.6-0.6,2.4-1.2c0.8-0.7,1.3-1.4,1.3-2.1c0-0.4-0.3-1-1-1.7
		l0.5-0.9c0-0.1,0.1-0.1,0.1-0.1c0,0,0.1,0.1,0.1,0.1c0.3,0.4,0.5,0.7,0.7,0.8c0.3,0.2,0.7,0.4,1.1,0.4h0.3V278.3z" id="PATH_126" class="area" title=""></path>
	<path d="M261.8,276.2c0,0.6-0.1,1.1-0.4,1.5c-0.3,0.4-0.8,0.7-1.3,0.7c-0.7,0-1.1-0.3-1.4-0.8c-0.4,0.6-0.8,0.8-1.4,0.8
		c-0.7,0-1.2-0.3-1.5-0.8c-0.4,0.6-0.9,0.8-1.6,0.8h-0.7v-1.2h0.8c0.7,0,1.2-0.4,1.3-1.2c0-0.2,0.1-0.3,0.2-0.3
		c0.1,0,0.1,0.1,0.2,0.3c0.1,0.8,0.5,1.2,1.3,1.2c0.4,0,0.8-0.1,1-0.3c0.1-0.2,0.2-0.4,0.3-0.8c0-0.2,0.1-0.3,0.2-0.3
		c0.1,0,0.1,0.1,0.2,0.3c0.1,0.8,0.5,1.2,1.2,1.2c0.8,0,1.1-0.2,1.1-0.5c0-0.3-0.2-0.7-0.6-1.1l0.5-0.9c0.1-0.1,0.1-0.2,0.2-0.2
		s0.1,0.1,0.2,0.2C261.7,275.2,261.8,275.7,261.8,276.2z" id="PATH_127" class="area" title=""></path>
</g>
<g id="G_128" class="area" title="">
	<path d="M203.1,290.4c-0.6,0.8-1.3,1.4-2.3,1.7c-0.9,0.3-1.4,0.4-1.7,0.2c-0.6-0.4-1.1-0.8-1.6-1.2c-0.1-0.1-0.2-0.2-0.1-0.3
		s0.1,0,0.3,0c0.7,0.3,1.6,0.4,2.6,0.3c1.1-0.1,1.8-0.4,2.2-1c0.2-0.4,0.3-1,0.1-2l0.9-0.5c0.1,0,0.1-0.1,0.2-0.1c0,0,0,0.1,0,0.2
		c0,0.4,0,0.8-0.1,1.3C203.5,289.7,203.3,290.2,203.1,290.4z" id="PATH_129" class="area" title=""></path>
	<path d="M205.8,290.7c-0.2,0.3-0.5,0.6-0.8,0.8c-0.2,0.1-0.3,0.2-0.3,0.1c0,0,0-0.1,0.2-0.3c0.7-1,2.1-3.4,4.3-7.3l1.1-0.2
		c0.1,0,0.2,0,0.2,0c0,0,0,0.1-0.1,0.2C209.7,285.1,208.1,287.3,205.8,290.7z" id="PATH_130" class="area" title=""></path>
	<path d="M210.2,295.3l-0.9-0.6c-0.8,1.1-1.9,1.7-3.3,2c-0.4,0.1-0.7,0.1-0.7,0c-0.4-0.3-1-0.7-1.5-1.2c-0.2-0.2-0.3-0.3-0.2-0.3
		c0,0,0.2,0,0.4,0.1c0.8,0.3,1.7,0.4,2.6,0.3c0.4,0,0.8-0.1,1.2-0.3c0.5-0.2,0.8-0.4,1-0.6l0.2-0.2l-1-0.7c-0.8-0.5-1-1.1-0.5-1.8
		c0.3-0.4,0.7-0.8,1.3-1.1c0.6-0.3,1.1-0.4,1.5-0.2c0.4,0.3,0.6,0.8,0.5,1.5c-0.1,0.5-0.3,1-0.6,1.6l0.9,0.6L210.2,295.3z
		 M209.4,293.3c0.2-0.3,0.3-0.6,0.3-0.9c0-0.4-0.1-0.7-0.4-0.9c-0.2-0.1-0.4-0.2-0.6-0.1c-0.2,0-0.4,0.1-0.5,0.3
		c-0.3,0.4-0.1,0.8,0.6,1.2C208.9,293,209.2,293.1,209.4,293.3z" id="PATH_131" class="area" title=""></path>
	<path d="M220.6,291.2c-0.1,0.1-0.4,0.4-1,0.7l-2.5-0.8c-1.1-0.3-1.9-0.5-2.4-0.6c0.2,1.1,0.3,1.9,0.3,2.3c0,0.9-0.1,1.6-0.4,2.1
		c-0.2,0.4-0.6,0.8-1,1.1c-0.8,0.5-1.9,0.3-3.3-0.7l-0.4-0.3l0.7-1l0.5,0.3c0.6,0.4,1.1,0.7,1.5,0.9c0.7,0.3,1.2,0.2,1.4-0.2
		c0.4-0.5,0.4-1.5,0.1-3l-0.2,0.1c0-0.1-0.1-0.4-0.1-0.8c0-0.4,0-0.7,0-0.8c0.1-0.2,0.3-0.3,0.5-0.6c0.3-0.2,0.5-0.4,0.6-0.4
		c0.1,0,0.8,0.1,2.2,0.5C218.5,290.5,219.7,290.8,220.6,291.2z" id="PATH_132" class="area" title=""></path>
</g>
<g id="G_133" class="area" title="">
	<path d="M151.3,338.3l-0.2-0.4c-0.1-0.3-0.2-0.7,0-1c0.1-0.2,0.2-0.5,0.5-0.8c-0.5-0.1-0.9-0.2-1.1-0.4c-0.3-0.3-0.7-0.7-0.9-1.4
		c-0.5-1.3-0.3-2.1,0.6-2.5c0.3-0.1,0.7-0.2,1.1-0.1c0.1,0,0.2,0.1,0.2,0.1c0,0.1,0,0.1-0.1,0.1c-0.1,0-0.1,0-0.2,0.1
		s-0.2,0.1-0.2,0.1c-0.6,0.2-0.6,0.8-0.2,1.8c0.6,1.3,1.1,1.9,1.6,1.7c0.3-0.1,1.1-0.9,2.5-2.4l0.9,0.1c0.1,0,0.2,0,0.2,0
		c0,0-0.1,0.1-0.1,0.2c-0.6,0.6-1.5,1.5-2.8,2.6c-0.6,0.6-0.8,1.1-0.6,1.6l0.1,0.3L151.3,338.3z" id="PATH_134" class="area" title=""></path>
	<path d="M153.2,342.8l-0.3-0.7c-0.4-0.8-0.3-1.5,0.1-2.1c-0.7-0.1-1.2-0.6-1.6-1.5l-0.3-0.6l1.1-0.4l0.3,0.8c0.4,0.9,0.9,1.2,1.7,1
		c0.3-0.1,0.5-0.1,0.5,0s-0.1,0.2-0.3,0.4c-0.7,0.4-0.8,1-0.4,1.8l0.3,0.8L153.2,342.8z M157.2,339l-1.1-0.4l0.4-1.1l1.1,0.4
		L157.2,339z" id="PATH_135" class="area" title=""></path>
	<path d="M152.3,346.2l-1.1-0.4l0.4-1.1l1.1,0.4L152.3,346.2z M155.1,347.3l-0.3-0.7c-0.4-0.8-0.3-1.5,0.1-2.1
		c-0.7-0.1-1.2-0.6-1.6-1.5l-0.3-0.6l1.1-0.4l0.3,0.8c0.4,0.9,0.9,1.2,1.7,1c0.3-0.1,0.5-0.1,0.5,0s-0.1,0.2-0.3,0.4
		c-0.7,0.4-0.8,1-0.4,1.8l0.3,0.8L155.1,347.3z" id="PATH_136" class="area" title=""></path>
	<path d="M160.1,353.8c-0.5,0.2-1.1,0.3-1.5,0.2c-0.5-0.1-0.9-0.4-1.1-1c-0.3-0.6-0.2-1.2,0.2-1.6c-0.7-0.1-1.1-0.5-1.3-1
		c-0.3-0.7-0.2-1.2,0.2-1.7c-0.7-0.1-1.1-0.5-1.4-1.1L155,347l1.1-0.4l0.3,0.7c0.3,0.7,0.8,0.9,1.6,0.7c0.2,0,0.3,0,0.3,0.1
		c0,0.1,0,0.2-0.2,0.3c-0.7,0.4-0.9,0.9-0.6,1.6c0.2,0.4,0.4,0.7,0.7,0.7c0.2,0.1,0.5,0,0.9-0.1c0.2-0.1,0.3,0,0.3,0
		c0,0.1,0,0.2-0.2,0.3c-0.7,0.4-0.9,0.9-0.6,1.6c0.3,0.7,0.6,1,0.9,0.8c0.3-0.1,0.5-0.4,0.8-1l1,0.1c0.2,0,0.2,0,0.2,0.1
		c0,0,0,0.1-0.1,0.2C161,353.3,160.5,353.6,160.1,353.8z M162.2,349.3l-1-0.4l0.4-1l1,0.4L162.2,349.3z M162.9,350.9l-1-0.4l0.4-1
		l1,0.4L162.9,350.9z M164,349.5l-1-0.4l0.4-1l1,0.4L164,349.5z" id="PATH_137" class="area" title=""></path>
	<path d="M160.2,356.3c-0.4,0.2-0.8,0.2-1.1,0.2c-0.2,0-0.3,0-0.4-0.1c0,0,0.1-0.1,0.3-0.2c1.1-0.4,3.6-1.7,7.6-3.8l1,0.5
		c0.1,0,0.1,0.1,0.2,0.1c0,0,0,0.1-0.1,0.1C166.5,353.7,164,354.7,160.2,356.3z" id="PATH_138" class="area" title=""></path>
	<path d="M161.5,362.6l-0.2-0.4c-0.1-0.3-0.2-0.6-0.1-0.8c-0.1,0-0.2,0.1-0.3,0.1c-0.9,0.4-1.8,0.4-2.9,0.2
		c-0.9-0.2-1.4-0.4-1.5-0.8c-0.3-0.7-0.5-1.3-0.7-1.9c0-0.2,0-0.3,0-0.3c0.1,0,0.1,0,0.2,0.2c0.5,0.7,1.1,1.2,2.1,1.7
		c1,0.5,1.8,0.6,2.4,0.4c0.4-0.2,0.8-0.7,1.1-1.6l1,0.1c0.1,0,0.1,0,0.2,0c0,0,0,0.1-0.1,0.2c-0.3,0.4-0.4,0.8-0.5,1
		c-0.1,0.4-0.1,0.8,0.1,1.2l0.1,0.3L161.5,362.6z" id="PATH_139" class="area" title=""></path>
	<path d="M165.6,365l-0.4,0.2c-0.6,0.3-1.1,0.3-1.4,0.3c-0.8-0.2-1.4-0.8-1.9-2l-0.5-1.3l1.1-0.4l0.4,0.9c0.7,1.6,1.3,2.3,1.9,2.2
		c0.1,0,0.1,0,0.2-0.1c0.1-0.1,0.3-0.1,0.3-0.2c-0.2-0.4-0.5-0.8-0.6-1.2c-0.4-0.9-0.2-1.4,0.5-1.7c0.5-0.2,1-0.3,1.6-0.3
		c0.7,0,1.1,0.3,1.3,0.8c0.2,0.4,0.1,0.9-0.3,1.4C167.2,364.2,166.5,364.7,165.6,365z M166.1,364c0.3-0.1,0.5-0.3,0.7-0.6
		s0.2-0.6,0.1-0.9c-0.1-0.2-0.2-0.4-0.4-0.4c-0.2-0.1-0.4-0.1-0.6,0c-0.4,0.2-0.5,0.5-0.2,1.1C165.7,363.4,165.9,363.7,166.1,364z
		 M170.2,361.8l-1.1-0.4l0.4-1.1l1.1,0.4L170.2,361.8z" id="PATH_140" class="area" title=""></path>
</g>
<g id="G_141" class="area" title="">
	<path d="M177.4,324.9c0,1.4-0.9,2.1-2.8,2.1c-0.7,0-1.2-0.1-1.5-0.3c-0.4-0.2-0.6-0.7-0.6-1.3c0-0.3,0.1-0.6,0.2-0.9
		c0.1-0.1,0.1-0.2,0.2-0.2c0.1,0,0.1,0.1,0.1,0.3c0,0.1,0,0.2,0,0.3c0,0.4,0.2,0.7,0.6,0.8c0.2,0.1,0.6,0.1,1.1,0.1
		c1.5,0,2.2-0.2,2.2-0.7c0-0.7-0.9-1.7-2.6-2.9l0.3-1c0-0.1,0.1-0.1,0.1-0.1c0,0,0.1,0,0.2,0.1C176.6,322.5,177.4,323.7,177.4,324.9
		z" id="PATH_142" class="area" title=""></path>
	<path d="M181.4,326.9h-0.7c-0.7,0-1.3-0.3-1.5-0.9c-0.2-0.4-0.3-1.1-0.3-1.9v-1.9c0-0.9-0.1-2.2-0.2-3.9l0.6-0.7
		c0.1-0.1,0.2-0.1,0.2,0c0.1,0.9,0.2,2.2,0.2,3.9v2.9c0,0.8,0.4,1.2,1.2,1.2h0.5V326.9z" id="PATH_143" class="area" title=""></path>
	<path d="M183.8,325c0,1.3-0.7,2-2,2H181v-1.2h0.7c1,0,1.5-0.2,1.5-0.5c0-0.3-0.2-0.7-0.7-1.2l0.4-1c0-0.1,0.1-0.1,0.1-0.1
		c0,0,0.1,0.1,0.2,0.2C183.6,323.7,183.8,324.3,183.8,325z M183.5,329.1l-0.8,0.8l-0.8-0.8l0.8-0.8L183.5,329.1z" id="PATH_144" class="area" title=""></path>
	<path d="M187.8,316.2c-0.4,0.4-1,0.5-1.6,0.5c-0.1,0-0.2,0-0.4,0s-0.3,0-0.4,0c-0.1,0-0.2,0.1-0.3,0.2s-0.2,0.2-0.2,0.2
		c-0.1,0-0.1-0.1-0.1-0.2c0-0.1,0.1-0.3,0.2-0.5c0.1-0.3,0.2-0.4,0.3-0.4c0.1,0,0.3,0,0.6,0.1s0.5,0.1,0.6,0.1c0.6,0,1,0,1.3-0.1
		c0.2,0,0.3-0.1,0.3-0.1c0,0,0.1,0,0.1,0C188,316,187.9,316.1,187.8,316.2z M187.2,325.7c0,0.4-0.1,0.8-0.3,1.1
		c-0.1,0.2-0.2,0.3-0.2,0.3c0,0-0.1-0.1-0.1-0.4c0-1.2-0.2-4-0.6-8.5l0.8-0.8c0.1-0.1,0.1-0.1,0.1-0.1c0,0,0,0.1,0,0.2
		C187.1,318.8,187.2,321.5,187.2,325.7z" id="PATH_145" class="area" title=""></path>
	<path d="M192.8,327c0,1-0.3,1.9-0.9,2.8c-0.5,0.7-1,1.1-1.3,1.1c-0.8,0-1.4,0-2-0.1c-0.2,0-0.3-0.1-0.3-0.1s0.1-0.1,0.3-0.1
		c0.8-0.2,1.6-0.6,2.4-1.2c0.8-0.7,1.3-1.4,1.3-2.1c0-0.4-0.3-1-1-1.7l0.5-0.9c0-0.1,0.1-0.1,0.1-0.1c0,0,0.1,0.1,0.1,0.1
		c0.2,0.3,0.5,0.7,0.6,1.2C192.7,326.3,192.8,326.7,192.8,327z M192,321.7l-0.8,0.8l-0.8-0.8l0.8-0.8L192,321.7z" id="PATH_146" class="area" title=""></path>
	<path d="M197.9,326.5c0,1.5-0.5,2.8-1.5,3.8c-0.3,0.3-0.5,0.5-0.6,0.5c-0.6,0-1.2-0.1-1.9-0.2c-0.3,0-0.4-0.1-0.4-0.1
		c0,0,0.1-0.1,0.4-0.2c0.8-0.2,1.6-0.7,2.3-1.3c0.3-0.3,0.6-0.5,0.8-0.9c0.3-0.4,0.5-0.8,0.5-1.1v-0.3l-1.3,0
		c-0.9,0-1.4-0.4-1.4-1.1c0-0.5,0.1-1,0.4-1.6c0.3-0.6,0.7-1,1.1-1c0.6,0,1.1,0.4,1.4,1.3C197.8,325.1,197.9,325.8,197.9,326.5z
		 M197.2,325.7c0-0.3-0.1-0.6-0.3-0.9c-0.2-0.3-0.5-0.5-0.8-0.5c-0.2,0-0.4,0.1-0.5,0.2c-0.2,0.2-0.2,0.3-0.2,0.5
		c0,0.5,0.3,0.7,1,0.7C196.5,325.8,196.8,325.8,197.2,325.7z" id="PATH_147" class="area" title=""></path>
	<path d="M204.2,326.9h-0.4c-0.4,0-0.6-0.1-0.8-0.2c0,0.1,0,0.2,0,0.3c0,0.9-0.3,1.8-0.9,2.7c-0.5,0.8-1,1.1-1.3,1.1
		c-0.8,0-1.4,0-2-0.1c-0.2,0-0.3-0.1-0.3-0.1s0.1-0.1,0.3-0.1c0.8-0.2,1.6-0.6,2.4-1.2c0.8-0.7,1.3-1.4,1.3-2.1c0-0.4-0.3-1-1-1.7
		l0.5-0.9c0-0.1,0.1-0.1,0.1-0.1c0,0,0.1,0.1,0.1,0.1c0.3,0.4,0.5,0.7,0.7,0.8c0.3,0.2,0.7,0.4,1.1,0.4h0.3V326.9z" id="PATH_148" class="area" title=""></path>
	<path d="M209.1,326.9h-0.8c-0.9,0-1.5-0.3-1.9-0.9c-0.3,0.6-1,0.9-2.1,0.9h-0.6v-1.2h0.9c1,0,1.5-0.4,1.6-1.1
		c0-0.3,0.1-0.5,0.2-0.5c0.1,0,0.2,0.2,0.2,0.5c0.1,0.7,0.6,1.1,1.5,1.1h0.9V326.9z M205.8,329.1l-0.8,0.8l-0.8-0.8l0.8-0.8
		L205.8,329.1z M207.5,329.1l-0.8,0.8l-0.8-0.8l0.8-0.8L207.5,329.1z" id="PATH_149" class="area" title=""></path>
	<path d="M213,324.1v0.4c0,0.7-0.1,1.1-0.3,1.4c-0.5,0.7-1.3,1-2.6,1h-1.4v-1.2h1c1.7,0,2.6-0.3,2.8-0.8c0-0.1,0-0.1,0-0.2
		c0-0.2,0-0.3-0.1-0.4c-0.4,0.1-0.9,0.1-1.3,0.1c-0.9,0-1.4-0.4-1.4-1.2c0-0.5,0.1-1.1,0.4-1.6c0.3-0.6,0.7-0.9,1.2-0.9
		c0.4,0,0.8,0.3,1.1,0.8C212.8,322.3,213,323.1,213,324.1z M211.8,318.6l-0.8,0.8l-0.8-0.8l0.8-0.8L211.8,318.6z M212.2,323.2
		c0-0.3-0.1-0.6-0.3-0.9c-0.2-0.3-0.5-0.4-0.8-0.4c-0.2,0-0.4,0.1-0.6,0.2c-0.1,0.1-0.2,0.3-0.2,0.5c0,0.4,0.3,0.6,1,0.6
		C211.5,323.4,211.8,323.3,212.2,323.2z" id="PATH_150" class="area" title=""></path>
</g>
<g id="G_151" class="area" title="">
	<path d="M320.5,286.4c-0.1,0.3-0.3,0.6-0.4,0.8c-0.2,0.3-0.5,0.6-0.8,0.8c-0.6,0.5-1.4,0.6-2.4,0.5c-0.8-0.1-1.6-0.4-2.4-0.9
		c-0.7-0.5-1.2-1.1-1.4-1.7c-0.2-0.7-0.1-1.5,0.3-2.2c0.3-0.4,0.6-0.7,1.1-1c0.3-0.2,0.6-0.4,0.9-0.4c0.1,0,0.2,0,0.3,0
		c0.1,0,0.1,0.1,0,0.1c0,0-0.1,0.1-0.1,0.1c-0.6,0.3-1,0.7-1.3,1.1c-0.3,0.4-0.4,0.9-0.3,1.3c0.1,0.6,0.5,1.2,1.2,1.7
		c0.8,0.5,1.7,0.9,2.5,1c0.7,0.1,1.2,0.1,1.5-0.1c0.1-0.1,0.2-0.2,0.3-0.3c0.1-0.2,0.3-0.5,0.4-0.9c0.1-0.3,0.1-0.9,0.1-1.8l0.8-0.5
		c0.1-0.1,0.2-0.1,0.2-0.1s0,0.1,0,0.2C321,284.9,320.9,285.7,320.5,286.4z M320.5,281.2l-1.1,0.2l-0.2-1.1l1.1-0.2L320.5,281.2z" id="PATH_152" class="area" title=""></path>
	<path d="M323.8,288.8l-0.6-0.4c-0.6-0.4-0.9-1-0.8-1.6c0.1-0.5,0.3-1.1,0.8-1.8l1.1-1.6c0.5-0.8,1.2-1.9,2-3.4l0.9-0.2
		c0.2,0,0.2,0,0.2,0.1c-0.4,0.8-1,1.9-2,3.4l-1.6,2.4c-0.5,0.7-0.4,1.3,0.3,1.7l0.4,0.3L323.8,288.8z" id="PATH_153" class="area" title=""></path>
	<path d="M327.9,291.5l-0.6-0.4c-0.8-0.5-1.1-1.1-1-1.8c-0.6,0.3-1.4,0.2-2.2-0.4l-0.5-0.4l0.6-1l0.7,0.5c0.8,0.5,1.5,0.5,2-0.1
		c0.2-0.2,0.3-0.3,0.4-0.3c0.1,0.1,0.1,0.2-0.1,0.5c-0.4,0.7-0.1,1.3,0.6,1.8l0.7,0.5L327.9,291.5z M324.9,292.1l-1.1,0.2l-0.2-1.1
		l1.1-0.2L324.9,292.1z" id="PATH_154" class="area" title=""></path>
	<path d="M333.1,294.9l-0.4-0.3c-0.3-0.2-0.7-0.4-1-0.5c-0.6-0.1-1,0-1.2,0.4c-0.3,0.5-0.3,1.2,0.1,2l-1,0.6c-0.6-0.8-1-1.6-1.2-2.4
		c-0.2-1-0.1-1.9,0.4-2.7l-1.1-0.8l0.6-1l1.1,0.7c0.4-0.6,1.1-1.2,1.9-1.8c0.8-0.5,1.3-0.7,1.5-0.6c0.2,0.1,0.2,0.6,0,1.5
		c-0.2,0.8-0.4,1.3-0.5,1.6c-0.8,1.2-1.7,1.4-2.9,0.7c-0.2,0.4-0.2,0.9-0.2,1.4c0,0.5,0.2,0.9,0.4,1.3c0.1-0.1,0.1-0.2,0.2-0.4
		c0.4-0.6,0.9-1,1.4-1.2c0.8-0.3,1.5-0.2,2.2,0.2l0.4,0.2L333.1,294.9z M331.5,291.9c0.1-0.2,0.2-0.5,0.3-1.1c0.1-0.6,0.1-0.9,0-1
		c-0.1-0.1-0.4,0-0.8,0.4c-0.5,0.3-0.9,0.8-1.2,1.2C330.8,292,331.3,292.1,331.5,291.9z" id="PATH_155" class="area" title=""></path>
	<path d="M340.2,299.6l-0.3-0.2c-0.8-0.5-1.4-1.1-1.9-1.7c-0.8-0.3-2-0.9-3.5-1.9l-1.7-1.1l0.6-1l0.9,0.6c0.3,0.2,0.5,0.2,0.6,0.2
		c0.1,0,0.3-0.2,0.4-0.4c0.2-0.3,0.6-1,1.2-1.9c0.9-1.4,1.6-2.7,2.1-3.9l1-0.2c0.1,0,0.2,0,0.2,0c0,0,0,0.1,0,0.2
		c-0.1,0.4-0.2,0.8-0.3,1.3c0,0.1,0,0.2-0.1,0.2c0,0-0.1,0-0.1-0.1l-0.3-0.2c-0.9,1.6-1.5,2.5-1.6,2.7l-0.6,0.9
		c-0.2,0.3-0.6,0.8-1.2,1.3c0.1,0,0.4,0,1-0.1c0.7-0.1,1.4-0.2,1.8-0.2c0.8,0,1.4,0.2,1.9,0.5c0.4,0.3,0.7,0.6,0.8,1
		c0.1,0.4,0.1,0.8-0.2,1.2c-0.4,0.6-0.9,0.9-1.5,1c0.1,0.1,0.3,0.2,0.5,0.3c0.2,0.1,0.4,0.2,0.5,0.3l0.3,0.2L340.2,299.6z M340,297
		c0.2-0.3,0.2-0.6,0-1c-0.2-0.3-0.4-0.6-0.7-0.8c-0.6-0.4-1.9-0.5-3.9-0.3c0.3,0.3,0.7,0.5,1.1,0.8c0.5,0.3,1.1,0.6,1.8,1
		C339.3,297.2,339.9,297.3,340,297z" id="PATH_156" class="area" title=""></path>
	<path d="M348.9,302.2c-0.6,0.8-1.4,1.1-2.7,0.8c-0.9-0.2-1.8-0.6-2.8-1.3c-0.6-0.4-1-0.7-1.2-0.9c-0.3-0.4-0.5-0.8-0.4-1.2
		c-0.6,0.3-1.2,0.3-1.7-0.1l-0.3-0.2l0.6-1l0.3,0.2c0.6,0.4,1.2,0.3,1.7-0.2c0.1-0.1,0.2-0.2,0.3-0.1c0.1,0.1,0.1,0.2,0,0.3
		c-0.3,0.6-0.3,1.1,0.2,1.4c2.6-0.6,4.4-0.7,5.3-0.1c0.4,0.3,0.6,0.6,0.7,1C349.2,301.4,349.2,301.8,348.9,302.2z M348,302.3
		c0.2-0.2,0.2-0.6,0-0.9c-0.1-0.3-0.3-0.6-0.6-0.7c-0.8-0.5-2-0.6-3.7-0.2c0.2,0.2,0.5,0.3,0.7,0.5c0.6,0.4,1.2,0.7,1.8,1
		C347.2,302.4,347.8,302.5,348,302.3z" id="PATH_157" class="area" title=""></path>
	<path d="M350.1,304.6c-0.2,0.3-0.5,0.6-0.8,0.8c-0.2,0.1-0.3,0.2-0.3,0.1c0,0,0-0.1,0.2-0.4c0.6-1,2-3.4,4.2-7.4l1.1-0.2
		c0.1,0,0.2,0,0.2,0c0,0,0,0.1-0.1,0.2C353.8,298.9,352.4,301.2,350.1,304.6z" id="PATH_158" class="area" title=""></path>
</g>
<g id="G_159" class="area" title="">
	<path d="M374.1,267h-0.4c-0.4,0-0.6-0.1-0.8-0.2c0,0.1,0,0.2,0,0.3c0,0.9-0.3,1.8-0.9,2.7c-0.5,0.8-1,1.1-1.3,1.1
		c-0.8,0-1.4,0-2-0.1c-0.2,0-0.3-0.1-0.3-0.1s0.1-0.1,0.3-0.1c0.8-0.2,1.6-0.6,2.4-1.2c0.8-0.7,1.3-1.4,1.3-2.1c0-0.4-0.3-1-1-1.7
		l0.5-0.9c0-0.1,0.1-0.1,0.1-0.1c0,0,0.1,0.1,0.1,0.1c0.3,0.4,0.5,0.7,0.7,0.8c0.3,0.2,0.7,0.4,1.1,0.4h0.3V267z M372.2,261.7
		l-0.8,0.8l-0.8-0.8l0.8-0.8L372.2,261.7z" id="PATH_160" class="area" title=""></path>
	<path d="M376.5,265c0,1.3-0.7,2-2,2h-0.8v-1.2h0.7c1,0,1.5-0.2,1.5-0.5c0-0.3-0.2-0.7-0.7-1.2l0.4-1c0-0.1,0.1-0.1,0.1-0.1
		s0.1,0.1,0.2,0.2C376.3,263.7,376.5,264.4,376.5,265z M375.7,269.2l-0.8,0.8l-0.8-0.8l0.8-0.8L375.7,269.2z M377.4,269.2l-0.8,0.8
		l-0.8-0.8l0.8-0.8L377.4,269.2z" id="PATH_161" class="area" title=""></path>
	<path d="M382.5,267.1c0,1-0.3,1.9-0.9,2.8c-0.5,0.7-1,1.1-1.3,1.1c-0.8,0-1.4,0-2-0.1c-0.2,0-0.3-0.1-0.3-0.1s0.1-0.1,0.3-0.1
		c0.8-0.2,1.6-0.6,2.4-1.2c0.8-0.7,1.3-1.4,1.3-2.1c0-0.4-0.3-1-1-1.7l0.5-0.9c0-0.1,0.1-0.1,0.1-0.1c0,0,0.1,0.1,0.1,0.1
		c0.2,0.3,0.5,0.7,0.6,1.2C382.4,266.3,382.5,266.7,382.5,267.1z" id="PATH_162" class="area" title=""></path>
	<path d="M396.6,267h-2.3c-0.3,0-0.6,0-0.8,0.1c-0.4,0.1-0.5,0.3-0.5,0.5c0,0.1,0.5,0.2,1.4,0.4c1,0.2,1.4,0.4,1.4,0.6
		c0,0.8-0.2,1.4-0.7,1.8c-0.8,0.7-2.1,1-4,1c-2.3,0-3.5-0.9-3.5-2.6c0-0.4,0.1-0.8,0.3-1.3s0.4-0.9,0.6-1.2c0.1-0.1,0.2-0.2,0.3-0.2
		c0.1,0,0.1,0,0.1,0.1c0,0.1,0,0.2-0.1,0.3c-0.3,0.6-0.5,1.2-0.5,1.8c0,0.7,0.3,1.2,1,1.5c0.5,0.3,1.1,0.4,1.9,0.4
		c0.8,0,1.5,0,2.2-0.1c1.2-0.2,1.8-0.4,1.8-0.8c0-0.2-0.3-0.3-0.8-0.4c-0.8-0.1-1.3-0.2-1.5-0.3c-0.5-0.1-0.8-0.4-0.8-0.7
		c0-0.2,0.1-0.5,0.4-0.9c0.2-0.3,0.4-0.5,0.7-0.7c0.5-0.4,1.1-0.6,2-0.6h1.4V267z" id="PATH_163" class="area" title=""></path>
	<path d="M399,265c0,1.3-0.7,2-2,2h-0.8v-1.2h0.7c1,0,1.5-0.2,1.5-0.5c0-0.3-0.2-0.7-0.7-1.2l0.4-1c0-0.1,0.1-0.1,0.1-0.1
		s0.1,0.1,0.2,0.2C398.8,263.7,399,264.4,399,265z M398.9,260.5l-0.8,0.8l-0.8-0.8l0.8-0.8L398.9,260.5z" id="PATH_164" class="area" title=""></path>
</g>
<g id="G_165" class="area" title="">
	<path d="M302.9,315h-0.7c-0.7,0-1.3-0.3-1.5-0.9c-0.2-0.4-0.3-1.1-0.3-1.9v-1.9c0-0.9-0.1-2.2-0.2-3.9l0.6-0.7
		c0.1-0.1,0.2-0.1,0.2,0c0.1,0.9,0.2,2.2,0.2,3.9v2.9c0,0.8,0.4,1.2,1.2,1.2h0.5V315z" id="PATH_166" class="area" title=""></path>
	<path d="M312.1,315h-0.6c-0.7,0-1.1-0.3-1.4-0.8c-0.2,0.6-0.7,0.8-1.3,0.8c-0.6,0-1-0.3-1.3-0.8c-0.3,0.6-0.7,0.8-1.3,0.8
		c-0.7,0-1.2-0.3-1.5-0.8c-0.4,0.6-0.9,0.8-1.6,0.8h-0.7v-1.2h0.8c0.7,0,1.2-0.4,1.3-1.2c0-0.2,0.1-0.3,0.2-0.3
		c0.1,0,0.1,0.1,0.2,0.3c0.1,0.8,0.5,1.2,1.3,1.2c0.7,0,1.2-0.4,1.2-1.2c0-0.2,0.1-0.3,0.2-0.3c0.1,0,0.2,0.1,0.2,0.3
		c0.1,0.8,0.5,1.2,1,1.2c0.7,0,1.2-0.4,1.2-1.2c0-0.2,0.1-0.3,0.2-0.3c0.1,0,0.2,0.1,0.2,0.3c0.1,0.8,0.5,1.2,1.2,1.2h0.6V315z" id="PATH_167" class="area" title=""></path>
	<path d="M316,312.2v0.4c0,0.7-0.1,1.1-0.3,1.4c-0.5,0.7-1.3,1-2.6,1h-1.4v-1.2h1c1.7,0,2.6-0.3,2.8-0.8c0-0.1,0-0.1,0-0.2
		c0-0.2,0-0.3-0.1-0.4c-0.4,0.1-0.9,0.1-1.3,0.1c-0.9,0-1.4-0.4-1.4-1.2c0-0.5,0.1-1.1,0.4-1.6c0.3-0.6,0.7-0.9,1.2-0.9
		c0.4,0,0.8,0.3,1.1,0.8C315.8,310.3,316,311.2,316,312.2z M314.9,306.7l-0.8,0.8l-0.8-0.8l0.8-0.8L314.9,306.7z M315.3,311.3
		c0-0.3-0.1-0.6-0.3-0.9s-0.5-0.4-0.8-0.4c-0.2,0-0.4,0.1-0.6,0.2s-0.2,0.3-0.2,0.5c0,0.4,0.3,0.6,1,0.6
		C314.6,311.4,314.9,311.4,315.3,311.3z" id="PATH_168" class="area" title=""></path>
</g>
<g id="G_169" class="area" title="">
	<path d="M258.2,348.2c0,0.2-0.1,0.4-0.3,0.8c-0.2,0.4-0.4,0.6-0.5,0.6c-0.3,0-0.7-0.1-1.2-0.2s-0.9-0.2-1.2-0.2
		c-0.5,0-0.9,0.1-1.1,0.2c0.2,1.7,0.3,3,0.3,3.8c0,0.4-0.1,0.8-0.4,1.3c-0.1,0.1-0.1,0.2-0.1,0.2c0,0,0,0,0-0.1
		c-0.1-1.6-0.2-3.2-0.4-4.8c0-0.2,0.1-0.4,0.3-0.7c0.2-0.2,0.3-0.4,0.5-0.5c0.2-0.2,0.5-0.2,0.8-0.2c-0.1-0.3-0.1-0.5-0.1-0.7
		c0-0.3,0.1-0.7,0.4-1.1c0.3-0.4,0.6-0.6,1-0.6c0.5,0,1,0.3,1.5,0.8S258.2,347.7,258.2,348.2z M257.4,348.5c-0.1-0.3-0.4-0.7-0.7-1
		c-0.4-0.4-0.7-0.5-1.1-0.5c-0.5,0-0.7,0.2-0.7,0.5c0,0.2,0.1,0.4,0.2,0.8C255.8,348.3,256.6,348.3,257.4,348.5z" id="PATH_170" class="area" title=""></path>
	<path d="M264.5,350.2h-0.4c-0.4,0-0.6-0.1-0.8-0.2c0,0.1,0,0.2,0,0.3c0,0.9-0.3,1.8-0.9,2.7c-0.5,0.8-1,1.1-1.3,1.1
		c-0.8,0-1.4,0-2-0.1c-0.2,0-0.3-0.1-0.3-0.1s0.1-0.1,0.3-0.1c0.8-0.2,1.6-0.6,2.4-1.2c0.8-0.7,1.3-1.4,1.3-2.1c0-0.4-0.3-1-1-1.7
		l0.5-0.9c0-0.1,0.1-0.1,0.1-0.1c0,0,0.1,0.1,0.1,0.1c0.3,0.4,0.5,0.7,0.7,0.8c0.3,0.2,0.7,0.4,1.1,0.4h0.3V350.2z" id="PATH_171" class="area" title=""></path>
	<path d="M270.7,350.2h-0.5c-0.4,0-0.8,0.1-1.1,0.2c-0.5,0.2-0.8,0.5-0.8,1c0,0.6,0.4,1.1,1.2,1.6l-0.5,1c-0.9-0.3-1.7-0.8-2.3-1.4
		c-0.8-0.7-1.2-1.6-1.2-2.5h-1.4V349h1.3c0-0.8,0.2-1.6,0.6-2.6c0.4-0.9,0.7-1.3,0.9-1.3c0.2,0,0.5,0.4,0.8,1.3
		c0.3,0.8,0.4,1.3,0.4,1.6c0,1.4-0.7,2.1-2.1,2.1c0.1,0.4,0.3,0.8,0.6,1.2s0.7,0.7,1.1,0.9c0-0.1,0-0.3,0-0.4c0-0.7,0.2-1.3,0.5-1.8
		c0.5-0.7,1.1-1.1,2-1.1h0.4V350.2z M267.7,348.6c0-0.2-0.1-0.6-0.3-1.1c-0.2-0.6-0.4-0.8-0.6-0.8c-0.1,0-0.3,0.2-0.5,0.7
		c-0.2,0.5-0.3,1.1-0.3,1.7C267.1,349,267.7,348.9,267.7,348.6z" id="PATH_172" class="area" title=""></path>
	<path d="M278.5,347.3l-0.4,0.8c-0.7,0-1.3,0-1.6,0.1c-0.4,0.2-1,0.4-1.8,0.8c-0.8,0.4-1.4,0.7-1.8,0.8c-0.6,0.2-1.3,0.3-1.9,0.3
		h-0.7V349h0.8c0.9,0,1.7-0.2,2.4-0.5l2.3-1c-0.4-0.1-1-0.3-1.8-0.6c-0.7-0.3-1.1-0.4-1.3-0.4c-0.4,0-0.8,0.2-1.2,0.5
		c-0.1,0.1-0.1,0.1-0.2,0.1c-0.1,0-0.1,0-0.1-0.1c0,0,0-0.1,0-0.1c0.3-1,0.9-1.4,1.7-1.4c0.3,0,0.7,0.1,1.1,0.3
		c0.8,0.4,1.4,0.6,1.8,0.8c0.7,0.2,1.5,0.4,2.4,0.4c0.2,0,0.3,0,0.3,0.1C278.6,347.1,278.6,347.2,278.5,347.3z M275.2,352.2
		l-0.8,0.8l-0.8-0.8l0.8-0.8L275.2,352.2z" id="PATH_173" class="area" title=""></path>
</g>
<g id="G_174" class="area" title="">
	<path d="M393.1,340.3c0,0.7-0.2,1.3-0.7,1.6c-0.3,0.2-0.9,0.4-1.8,0.5c-1,0.2-2,0.3-3.1,0.3c-2.6,0-4-0.7-4-2.2
		c0-0.5,0.2-1,0.6-1.5c0.1-0.1,0.1-0.2,0.2-0.2s0.1,0,0.1,0.1c0,0,0,0.1,0,0.2c-0.1,0.3-0.2,0.6-0.2,0.9c0,1,1.3,1.5,3.8,1.5
		c1.2,0,2.3-0.1,3.1-0.2c1-0.2,1.4-0.4,1.4-0.7c0-0.2-0.2-0.6-0.7-1.2l0.5-0.9c0.1-0.1,0.1-0.1,0.2,0
		C392.9,339.1,393.1,339.7,393.1,340.3z M389.2,344.8l-0.8,0.8l-0.8-0.8l0.8-0.8L389.2,344.8z" id="PATH_175" class="area" title=""></path>
	<path d="M395.5,341.3c0,0.4-0.1,0.8-0.3,1.1c-0.1,0.2-0.2,0.3-0.2,0.3c0,0-0.1-0.1-0.1-0.4c0-1.2-0.2-4-0.6-8.5l0.8-0.8
		c0.1-0.1,0.1-0.1,0.1-0.1c0,0,0,0.1,0,0.2C395.4,334.4,395.5,337.1,395.5,341.3z" id="PATH_176" class="area" title=""></path>
	<path d="M400.5,342.6c0,1-0.3,1.9-0.9,2.8c-0.5,0.7-1,1.1-1.3,1.1c-0.8,0-1.4,0-2-0.1c-0.2,0-0.3-0.1-0.3-0.1s0.1-0.1,0.3-0.1
		c0.8-0.2,1.6-0.6,2.4-1.2c0.8-0.7,1.3-1.4,1.3-2.1c0-0.4-0.3-1-1-1.7l0.5-0.9c0-0.1,0.1-0.1,0.1-0.1c0,0,0.1,0.1,0.1,0.1
		c0.2,0.3,0.5,0.7,0.6,1.2C400.4,341.8,400.5,342.2,400.5,342.6z" id="PATH_177" class="area" title=""></path>
	<path d="M402.9,341.3c0,0.4-0.1,0.8-0.3,1.1c-0.1,0.2-0.2,0.3-0.2,0.3c0,0-0.1-0.1-0.1-0.4c0-1.2-0.2-4-0.6-8.5l0.8-0.8
		c0.1-0.1,0.1-0.1,0.1-0.1c0,0,0,0.1,0,0.2C402.8,334.4,402.9,337.1,402.9,341.3z" id="PATH_178" class="area" title=""></path>
	<path d="M409,340.4c0,1.4-0.9,2.1-2.8,2.1c-0.7,0-1.2-0.1-1.5-0.3c-0.4-0.2-0.6-0.7-0.6-1.3c0-0.3,0.1-0.6,0.2-0.9
		c0.1-0.1,0.1-0.2,0.2-0.2c0.1,0,0.1,0.1,0.1,0.3c0,0.1,0,0.2,0,0.3c0,0.4,0.2,0.7,0.6,0.8c0.2,0.1,0.6,0.1,1.1,0.1
		c1.5,0,2.2-0.2,2.2-0.7c0-0.7-0.9-1.7-2.6-2.9l0.3-1c0-0.1,0.1-0.1,0.1-0.1c0,0,0.1,0,0.2,0.1C408.2,338,409,339.3,409,340.4z" id="PATH_179" class="area" title=""></path>
</g>
<g id="G_180" class="area" title="">
	<path d="M367.2,388.7h-0.4c-0.5,0-0.9-0.1-1.1-0.3c-0.3-0.2-0.5-0.6-0.5-1c-1.1,1-2.8,1.5-5.1,1.5c-2.4,0-3.6-0.7-3.6-2.2
		c0-0.5,0.2-1,0.6-1.5c0.1-0.1,0.1-0.1,0.2-0.1c0.1,0,0.1,0,0.1,0.1c0,0,0,0.1,0,0.2c-0.1,0.3-0.2,0.6-0.2,0.9c0,1,1.1,1.5,3.3,1.5
		c2.5,0,4.2-0.5,5-1.6c0.2-0.2,0.3-0.3,0.4-0.3c0.1,0,0.1,0.1,0.1,0.2c0,0.1,0,0.2-0.1,0.4c0,0.2-0.1,0.3-0.1,0.4
		c0,0.5,0.4,0.8,1.1,0.8h0.4V388.7z M361,382.9l-0.8,0.8l-0.8-0.8l0.8-0.8L361,382.9z M362.7,382.9l-0.8,0.8l-0.8-0.8l0.8-0.8
		L362.7,382.9z" id="PATH_181" class="area" title=""></path>
	<path d="M375.1,386.5c0,0.6-0.1,1.1-0.4,1.5c-0.3,0.4-0.8,0.7-1.3,0.7c-0.7,0-1.1-0.3-1.4-0.8c-0.4,0.6-0.8,0.8-1.4,0.8
		c-0.7,0-1.2-0.3-1.5-0.8c-0.4,0.6-0.9,0.8-1.6,0.8h-0.7v-1.2h0.8c0.7,0,1.2-0.4,1.3-1.2c0-0.2,0.1-0.3,0.2-0.3
		c0.1,0,0.1,0.1,0.2,0.3c0.1,0.8,0.5,1.2,1.3,1.2c0.4,0,0.8-0.1,1-0.3c0.1-0.2,0.2-0.4,0.3-0.8c0-0.2,0.1-0.3,0.2-0.3
		c0.1,0,0.1,0.1,0.2,0.3c0.1,0.8,0.5,1.2,1.2,1.2c0.8,0,1.1-0.2,1.1-0.5c0-0.3-0.2-0.7-0.6-1.1l0.5-0.9c0.1-0.1,0.1-0.2,0.2-0.2
		s0.1,0.1,0.2,0.2C375,385.6,375.1,386.1,375.1,386.5z M371.8,382.9l-0.7,0.7l-0.7-0.7l0.7-0.7L371.8,382.9z M372.6,381.3l-0.7,0.7
		l-0.7-0.7l0.7-0.7L372.6,381.3z M373.5,382.9l-0.7,0.7l-0.7-0.7l0.7-0.7L373.5,382.9z" id="PATH_182" class="area" title=""></path>
	<path d="M381.3,386.6c0,1.4-0.9,2.1-2.8,2.1c-0.7,0-1.2-0.1-1.5-0.3c-0.4-0.2-0.6-0.7-0.6-1.3c0-0.3,0.1-0.6,0.2-0.9
		c0.1-0.1,0.1-0.2,0.2-0.2c0.1,0,0.1,0.1,0.1,0.3c0,0.1,0,0.2,0,0.3c0,0.4,0.2,0.7,0.6,0.8c0.2,0.1,0.6,0.1,1.1,0.1
		c1.5,0,2.2-0.2,2.2-0.7c0-0.7-0.9-1.7-2.6-2.9l0.3-1c0-0.1,0.1-0.1,0.1-0.1c0,0,0.1,0,0.2,0.1C380.4,384.2,381.3,385.4,381.3,386.6
		z" id="PATH_183" class="area" title=""></path>
	<path d="M395.3,388.7h-0.5c-0.5,0-0.8,0-1-0.1c0,0.3,0.1,0.5,0.1,0.8c0,0.5-0.1,0.8-0.2,1.1c-0.3,0.7-0.8,1.3-1.8,1.7
		c-0.8,0.3-1.6,0.5-2.5,0.5c-0.9,0-1.6-0.2-2.2-0.6c-0.6-0.5-0.9-1.1-0.9-2c0-0.5,0.1-0.9,0.3-1.5c0.2-0.4,0.3-0.7,0.5-0.9
		c0.1-0.1,0.2-0.1,0.2-0.1c0.1,0,0.1,0,0.1,0.1c0,0,0,0.1,0,0.2c-0.3,0.6-0.4,1.2-0.4,1.7c0,0.5,0.2,0.9,0.5,1.3
		c0.4,0.5,1.1,0.7,2,0.7c1,0,1.9-0.2,2.6-0.5c0.6-0.3,1-0.6,1.2-1c0.1-0.1,0.1-0.3,0-0.7c0-0.3-0.1-0.6-0.1-0.7
		c-0.1-0.3-0.5-0.8-1-1.5l0.4-0.8c0.1-0.1,0.1-0.2,0.1-0.2s0.1,0,0.1,0.1c0.5,0.8,1,1.2,1.6,1.2h0.8V388.7z M390.9,384.2l-0.8,0.8
		l-0.8-0.8l0.8-0.8L390.9,384.2z" id="PATH_184" class="area" title=""></path>
	<path d="M397.7,386.7c0,1.3-0.7,2-2,2h-0.8v-1.2h0.7c1,0,1.5-0.2,1.5-0.5c0-0.3-0.2-0.7-0.7-1.2l0.4-1c0-0.1,0.1-0.1,0.1-0.1
		s0.1,0.1,0.2,0.2C397.5,385.4,397.7,386,397.7,386.7z M396.9,390.9l-0.8,0.8l-0.8-0.8l0.8-0.8L396.9,390.9z M398.6,390.9l-0.8,0.8
		l-0.8-0.8l0.8-0.8L398.6,390.9z" id="PATH_185" class="area" title=""></path>
	<path d="M403.7,388.8c0,1-0.3,1.9-0.9,2.8c-0.5,0.7-1,1.1-1.3,1.1c-0.8,0-1.4,0-2-0.1c-0.2,0-0.3-0.1-0.3-0.1s0.1-0.1,0.3-0.1
		c0.8-0.2,1.6-0.6,2.4-1.2c0.8-0.7,1.3-1.4,1.3-2.1c0-0.4-0.3-1-1-1.7l0.5-0.9c0-0.1,0.1-0.1,0.1-0.1c0,0,0.1,0.1,0.1,0.1
		c0.2,0.3,0.5,0.7,0.6,1.2C403.6,388,403.7,388.4,403.7,388.8z" id="PATH_186" class="area" title=""></path>
	<path d="M408.7,388.8c0,1-0.3,1.9-0.9,2.8c-0.5,0.7-1,1.1-1.3,1.1c-0.8,0-1.4,0-2-0.1c-0.2,0-0.3-0.1-0.3-0.1s0.1-0.1,0.3-0.1
		c0.8-0.2,1.6-0.6,2.4-1.2c0.8-0.7,1.3-1.4,1.3-2.1c0-0.4-0.3-1-1-1.7l0.5-0.9c0-0.1,0.1-0.1,0.1-0.1c0,0,0.1,0.1,0.1,0.1
		c0.2,0.3,0.5,0.7,0.6,1.2C408.6,388,408.7,388.4,408.7,388.8z M408,383.4l-0.8,0.8l-0.8-0.8l0.8-0.8L408,383.4z" id="PATH_187" class="area" title=""></path>
</g>
<g id="G_188" class="area" title="">
	<path d="M199.3,384h-0.5c-0.5,0-0.8,0-1-0.1c0,0.3,0.1,0.5,0.1,0.8c0,0.5-0.1,0.8-0.2,1.1c-0.3,0.7-0.8,1.3-1.8,1.7
		c-0.8,0.3-1.6,0.5-2.5,0.5c-0.9,0-1.6-0.2-2.2-0.6c-0.6-0.5-0.9-1.1-0.9-2c0-0.5,0.1-0.9,0.3-1.5c0.2-0.4,0.3-0.7,0.5-0.9
		c0.1-0.1,0.2-0.1,0.2-0.1c0.1,0,0.1,0,0.1,0.1c0,0,0,0.1,0,0.2c-0.3,0.6-0.4,1.2-0.4,1.7c0,0.5,0.2,0.9,0.5,1.3
		c0.4,0.5,1.1,0.7,2,0.7c1,0,1.9-0.2,2.6-0.5c0.6-0.3,1-0.6,1.2-1c0.1-0.1,0.1-0.3,0-0.7c0-0.3-0.1-0.6-0.1-0.7
		c-0.1-0.3-0.5-0.8-1-1.5l0.4-0.8c0.1-0.1,0.1-0.2,0.1-0.2s0.1,0,0.1,0.1c0.5,0.8,1,1.2,1.6,1.2h0.8V384z M194.9,379.5l-0.8,0.8
		l-0.8-0.8l0.8-0.8L194.9,379.5z" id="PATH_189" class="area" title=""></path>
	<path d="M201.7,382c0,1.3-0.7,2-2,2h-0.8v-1.2h0.7c1,0,1.5-0.2,1.5-0.5c0-0.3-0.2-0.7-0.7-1.2l0.4-1c0-0.1,0.1-0.1,0.1-0.1
		c0,0,0.1,0.1,0.2,0.2C201.5,380.7,201.7,381.4,201.7,382z M200.9,386.2l-0.8,0.8l-0.8-0.8l0.8-0.8L200.9,386.2z M202.6,386.2
		l-0.8,0.8l-0.8-0.8l0.8-0.8L202.6,386.2z" id="PATH_190" class="area" title=""></path>
	<path d="M207.7,384.1c0,1-0.3,1.9-0.9,2.8c-0.5,0.7-1,1.1-1.3,1.1c-0.8,0-1.4,0-2-0.1c-0.2,0-0.3-0.1-0.3-0.1s0.1-0.1,0.3-0.1
		c0.8-0.2,1.6-0.6,2.4-1.2c0.8-0.7,1.3-1.4,1.3-2.1c0-0.4-0.3-1-1-1.7l0.5-0.9c0-0.1,0.1-0.1,0.1-0.1c0,0,0.1,0.1,0.1,0.1
		c0.2,0.3,0.5,0.7,0.6,1.2C207.6,383.3,207.7,383.7,207.7,384.1z M206.9,378.7l-0.8,0.8l-0.8-0.8l0.8-0.8L206.9,378.7z" id="PATH_191" class="area" title=""></path>
	<path d="M212.7,384.1c0,1-0.3,1.9-0.9,2.8c-0.5,0.7-1,1.1-1.3,1.1c-0.8,0-1.4,0-2-0.1c-0.2,0-0.3-0.1-0.3-0.1s0.1-0.1,0.3-0.1
		c0.8-0.2,1.6-0.6,2.4-1.2c0.8-0.7,1.3-1.4,1.3-2.1c0-0.4-0.3-1-1-1.7l0.5-0.9c0-0.1,0.1-0.1,0.1-0.1c0,0,0.1,0.1,0.1,0.1
		c0.2,0.3,0.5,0.7,0.6,1.2C212.6,383.3,212.7,383.7,212.7,384.1z" id="PATH_192" class="area" title=""></path>
	<path d="M216.7,384H216c-0.7,0-1.3-0.3-1.5-0.9c-0.2-0.4-0.3-1.1-0.3-1.9v-1.9c0-0.9-0.1-2.2-0.2-3.9l0.6-0.7
		c0.1-0.1,0.2-0.1,0.2,0c0.1,0.9,0.2,2.2,0.2,3.9v2.9c0,0.8,0.4,1.2,1.2,1.2h0.5V384z" id="PATH_193" class="area" title=""></path>
	<path d="M222.9,374.7c0,0.2-0.2,0.6-0.4,1.1l-2.5,0.8c-1.1,0.4-1.9,0.7-2.3,0.9c0.8,0.8,1.3,1.4,1.6,1.7c0.5,0.7,0.8,1.3,0.9,2
		c0,0.5,0,1-0.2,1.4c-0.3,0.9-1.4,1.3-3.1,1.3h-0.5v-1.2h0.6c0.8,0,1.4,0,1.7-0.1c0.7-0.2,1.1-0.5,1.1-1c0-0.7-0.5-1.5-1.6-2.5
		l-0.1,0.2c-0.1-0.1-0.3-0.3-0.5-0.6c-0.3-0.3-0.4-0.6-0.4-0.6c0-0.2,0-0.4,0.1-0.8c0.1-0.4,0.2-0.6,0.3-0.7
		c0.1-0.1,0.8-0.4,2.1-0.8C220.8,375.4,222,375,222.9,374.7z" id="PATH_194" class="area" title=""></path>
	<path d="M231.5,383.6c0,1.5-0.5,2.8-1.5,3.8c-0.3,0.3-0.5,0.5-0.6,0.5c-0.6,0-1.2-0.1-1.9-0.2c-0.3,0-0.4-0.1-0.4-0.1
		c0,0,0.1-0.1,0.4-0.2c0.8-0.2,1.6-0.7,2.3-1.3c0.3-0.3,0.6-0.5,0.8-0.9c0.3-0.4,0.5-0.8,0.5-1.1v-0.3l-1.3,0
		c-0.9,0-1.4-0.4-1.4-1.1c0-0.5,0.1-1,0.4-1.6c0.3-0.6,0.7-1,1.1-1c0.6,0,1.1,0.4,1.4,1.3C231.4,382.1,231.5,382.8,231.5,383.6z
		 M230.8,382.8c0-0.3-0.1-0.6-0.3-0.9c-0.2-0.3-0.5-0.5-0.8-0.5c-0.2,0-0.4,0.1-0.5,0.2c-0.2,0.2-0.2,0.3-0.2,0.5
		c0,0.5,0.3,0.7,1,0.7C230.1,382.9,230.4,382.8,230.8,382.8z" id="PATH_195" class="area" title=""></path>
	<path d="M241.7,384h-0.4c-0.4,0-0.6-0.1-0.8-0.2c0,0.1,0,0.2,0,0.3c0,0.9-0.3,1.8-0.9,2.7c-0.5,0.8-1,1.1-1.3,1.1
		c-0.8,0-1.4,0-2-0.1c-0.2,0-0.3-0.1-0.3-0.1s0.1-0.1,0.3-0.1c0.8-0.2,1.6-0.6,2.4-1.2c0.8-0.7,1.3-1.4,1.3-2.1c0-0.4-0.3-1-1-1.7
		l0.5-0.9c0-0.1,0.1-0.1,0.1-0.1c0,0,0.1,0.1,0.1,0.1c0.3,0.4,0.5,0.7,0.7,0.8c0.3,0.2,0.7,0.4,1.1,0.4h0.3V384z" id="PATH_196" class="area" title=""></path>
	<path d="M246.6,384h-0.8c-0.9,0-1.5-0.3-1.9-0.9c-0.3,0.6-1,0.9-2.1,0.9h-0.6v-1.2h0.9c1,0,1.5-0.4,1.6-1.1c0-0.3,0.1-0.5,0.2-0.5
		c0.1,0,0.2,0.2,0.2,0.5c0.1,0.7,0.6,1.1,1.5,1.1h0.9V384z M243.3,386.2l-0.8,0.8l-0.8-0.8l0.8-0.8L243.3,386.2z M245,386.2
		l-0.8,0.8l-0.8-0.8l0.8-0.8L245,386.2z" id="PATH_197" class="area" title=""></path>
	<path d="M250.5,381.2c0,0.9-0.1,1.5-0.3,1.8c-0.5,0.7-1.3,1-2.6,1h-1.4v-1.2h1c1.7,0,2.6-0.3,2.8-0.8c0.1-0.2,0-0.4-0.1-0.6
		c-0.4,0.1-0.8,0.1-1.3,0.1c-0.9,0-1.4-0.4-1.4-1.2c0-0.5,0.1-1.1,0.4-1.6c0.3-0.6,0.7-0.9,1.2-0.9c0.4,0,0.8,0.3,1.1,0.8
		C250.3,379.4,250.5,380.2,250.5,381.2z M248.5,375.7l-0.8,0.8l-0.8-0.8l0.8-0.8L248.5,375.7z M249.7,380.3c0-0.3-0.1-0.6-0.3-0.9
		c-0.2-0.3-0.5-0.4-0.8-0.4c-0.2,0-0.4,0.1-0.6,0.2c-0.2,0.1-0.2,0.3-0.2,0.5c0,0.4,0.3,0.6,1,0.6
		C249,380.4,249.3,380.4,249.7,380.3z M250.2,375.7l-0.8,0.8l-0.8-0.8l0.8-0.8L250.2,375.7z" id="PATH_198" class="area" title=""></path>
</g>
<g id="G_199" class="area" title="">
	<path d="M236.4,433h-1c-1.3,0-2-0.6-2-1.8c0-0.3,0-0.5,0.1-0.8c-1.1,0.2-2,0.6-2.8,1.1c-1.1,0.7-1.6,1.5-1.6,2.4
		c0,0.9,0.4,1.5,1.3,2c0.7,0.3,1.5,0.5,2.5,0.5c1,0,1.9-0.1,2.7-0.3c0.1,0,0.1,0,0.2,0c0.1,0,0.1,0,0.1,0.1c0,0.1-0.1,0.1-0.2,0.2
		c-0.5,0.5-1,0.8-1.6,0.9c-0.5,0.1-1.1,0.2-1.8,0.2c-1.4,0-2.5-0.3-3.2-1c-0.5-0.5-0.8-1.2-0.8-2c0-1.9,1.3-3.4,3.8-4.4
		c-1.1-0.2-1.8-0.3-2.3-0.3c-0.2,0-0.5,0.1-0.9,0.4c-0.4,0.3-0.6,0.4-0.5,0.4c-0.1,0-0.1-0.1-0.1-0.3c0-0.3,0.2-0.6,0.4-0.9
		c0.3-0.5,0.8-0.8,1.4-0.8c0.5,0,1.2,0.1,2.1,0.3c0.9,0.2,1.7,0.3,2.2,0.3h0.7c0.2,0,0.3,0,0.3,0.1c0,0,0,0.1-0.1,0.2l-0.3,0.8
		c-0.3,0-0.7,0.1-1.3,0.1c0,0.2,0,0.3,0,0.4c0,0.8,0.5,1.1,1.6,1.1h0.9V433z M232.6,433.7l-0.8,0.8l-0.8-0.8l0.8-0.8L232.6,433.7z" id="PATH_200" class="area" title=""></path>
	<path d="M241.3,433h-0.8c-0.9,0-1.5-0.3-1.9-0.9c-0.3,0.6-1,0.9-2.1,0.9H236v-1.2h0.9c1,0,1.5-0.4,1.6-1.1c0-0.3,0.1-0.5,0.2-0.5
		c0.1,0,0.2,0.2,0.2,0.5c0.1,0.7,0.6,1.1,1.5,1.1h0.9V433z M239.3,427.8l-0.8,0.8l-0.8-0.8l0.8-0.8L239.3,427.8z" id="PATH_201" class="area" title=""></path>
	<path d="M249.1,430.1l-0.4,0.8c-0.7,0-1.3,0-1.6,0.1c-0.4,0.2-1,0.4-1.8,0.8c-0.8,0.4-1.4,0.7-1.8,0.8c-0.6,0.2-1.3,0.3-1.9,0.3
		h-0.7v-1.2h0.8c0.9,0,1.7-0.2,2.4-0.5l2.3-1c-0.4-0.1-1-0.3-1.8-0.6c-0.7-0.3-1.1-0.4-1.3-0.4c-0.4,0-0.8,0.2-1.2,0.5
		c-0.1,0.1-0.1,0.1-0.2,0.1c-0.1,0-0.1,0-0.1-0.1c0,0,0-0.1,0-0.1c0.3-1,0.9-1.4,1.7-1.4c0.3,0,0.7,0.1,1.1,0.3
		c0.8,0.4,1.4,0.6,1.8,0.8c0.7,0.2,1.5,0.4,2.4,0.4c0.2,0,0.3,0,0.3,0.1C249.2,429.9,249.2,430,249.1,430.1z M246.3,425.5l-0.8,0.8
		l-0.8-0.8l0.8-0.8L246.3,425.5z" id="PATH_202" class="area" title=""></path>
</g>
<g id="G_203" class="area" title="">
	<path d="M213.8,464.4l-0.3-0.3c-0.3-0.3-0.4-0.5-0.4-0.7c-0.1,0.1-0.1,0.1-0.2,0.2c-0.7,0.7-1.5,1.1-2.6,1.3
		c-0.9,0.2-1.5,0.1-1.7-0.1c-0.5-0.5-1-1-1.3-1.5c-0.1-0.1-0.1-0.2-0.1-0.3c0,0,0.1,0,0.3,0.1c0.7,0.4,1.5,0.7,2.5,0.8
		c1.1,0.1,1.9-0.1,2.3-0.6c0.3-0.3,0.5-1,0.4-1.9l1-0.3c0.1,0,0.1,0,0.2,0c0,0,0,0.1,0,0.2c-0.1,0.5-0.1,0.9-0.1,1.1
		c0,0.4,0.2,0.7,0.5,1l0.2,0.2L213.8,464.4z" id="PATH_204" class="area" title=""></path>
	<path d="M218.2,468.8l-0.4-0.4c-0.3-0.3-0.6-0.5-0.9-0.7c-0.5-0.2-1-0.2-1.3,0.2c-0.4,0.4-0.5,1.1-0.3,2l-1.1,0.4
		c-0.4-0.9-0.6-1.8-0.7-2.6c0-1,0.3-1.9,0.9-2.6l-1-1l0.8-0.8l0.9,0.9c0.5-0.5,1.3-1,2.3-1.4c0.9-0.4,1.4-0.5,1.6-0.3
		c0.2,0.2,0.1,0.7-0.3,1.5c-0.3,0.7-0.6,1.2-0.8,1.4c-1,1-2,1-3,0.1c-0.2,0.4-0.4,0.8-0.5,1.3c-0.1,0.5,0,1,0.1,1.4
		c0.1-0.1,0.2-0.2,0.3-0.3c0.5-0.5,1-0.8,1.6-0.9c0.8-0.2,1.6,0.1,2.1,0.7l0.3,0.3L218.2,468.8z M217.2,465.5c0.1-0.1,0.3-0.5,0.5-1
		c0.2-0.6,0.3-0.9,0.2-1c-0.1-0.1-0.4,0-0.9,0.2c-0.5,0.2-1,0.6-1.4,1C216.5,465.4,217,465.7,217.2,465.5z" id="PATH_205" class="area" title=""></path>
	<path d="M223.1,470.9c-0.3,0.4-0.7,0.6-1,0.8c-0.5,0.2-0.9,0.2-1.1,0c-0.4-0.4-0.7-1.1-0.9-2.3c-0.5,0-0.8,0.1-0.9,0
		c-0.3,0-0.6-0.2-0.9-0.5l-0.4-0.4l0.8-0.8l0.5,0.5c0.3,0.3,0.8,0.4,1.3,0.3c0.3-0.1,0.8-0.1,1.5-0.3c0.6-0.1,1,0,1.2,0.2
		c0.3,0.3,0.5,0.8,0.3,1.4C223.5,470.2,223.4,470.6,223.1,470.9z M222.2,471c0.2-0.2,0.4-0.5,0.4-0.9c0.1-0.4,0-0.8-0.2-1
		c-0.2-0.2-0.7-0.2-1.4-0.1c0,0.2,0.1,0.6,0.2,1.1c0.2,0.5,0.3,0.8,0.5,0.9C221.9,471.1,222.1,471.1,222.2,471z" id="PATH_206" class="area" title=""></path>
</g>
<g id="G_207" class="area" title="">
	<path d="M291.8,463.9c0,1.4-0.6,2.1-1.8,2.1c-0.7,0-1.1-0.3-1.3-0.9c-0.3,0.6-0.8,0.9-1.4,0.9c-0.2,0-0.5,0-0.7-0.1
		c0,0.6-0.1,1.2-0.1,1.9c-0.3,0.7-0.8,1.3-1.7,1.7c-0.8,0.3-1.6,0.5-2.5,0.5c-0.9,0-1.6-0.2-2.2-0.6c-0.6-0.5-0.9-1.1-0.9-2
		c0-0.5,0.1-0.9,0.3-1.5c0.2-0.4,0.3-0.7,0.5-0.9c0.1-0.1,0.2-0.1,0.2-0.1c0.1,0,0.1,0,0.1,0.1c0,0,0,0.1,0,0.2
		c-0.3,0.6-0.4,1.2-0.4,1.7c0,0.5,0.2,0.9,0.5,1.3c0.4,0.5,1.1,0.7,2,0.7c1,0,1.9-0.2,2.6-0.5c0.6-0.3,1-0.6,1.1-1
		c0.1-0.1,0.1-0.3,0-0.7c0-0.3-0.1-0.6-0.1-0.7c-0.1-0.3-0.4-0.8-1-1.5l0.4-0.8c0.1-0.1,0.1-0.2,0.1-0.2c0,0,0.1,0,0.1,0.1
		c0.3,0.4,0.5,0.7,0.6,0.8c0.3,0.3,0.6,0.4,1,0.4c0.4,0,0.8-0.1,1-0.4c0.1-0.2,0.2-0.4,0.3-0.9c0-0.2,0.1-0.3,0.2-0.3
		c0.1,0,0.1,0.1,0.1,0.3c0.1,0.5,0.2,0.8,0.4,1s0.6,0.3,1.1,0.3c0.2,0,0.4-0.1,0.5-0.2c0.2-0.1,0.3-0.3,0.3-0.5
		c0-0.3-0.2-0.6-0.6-1.1l0.5-0.9c0.1-0.1,0.1-0.1,0.1-0.1c0,0,0.1,0.1,0.1,0.1C291.7,462.8,291.8,463.3,291.8,463.9z M288.5,460.2
		l-0.7,0.7l-0.7-0.7l0.7-0.7L288.5,460.2z M289.4,458.6l-0.7,0.7l-0.7-0.7l0.7-0.7L289.4,458.6z M290.3,460.2l-0.7,0.7l-0.7-0.7
		l0.7-0.7L290.3,460.2z" id="PATH_208" class="area" title=""></path>
	<path d="M294.2,464.8c0,0.4-0.1,0.8-0.3,1.1c-0.1,0.2-0.2,0.3-0.2,0.3c0,0-0.1-0.1-0.1-0.4c0-1.2-0.2-4-0.6-8.5l0.8-0.8
		c0.1-0.1,0.1-0.1,0.1-0.1c0,0,0,0.1,0,0.2C294.1,457.9,294.2,460.6,294.2,464.8z" id="PATH_209" class="area" title=""></path>
	<path d="M300.4,466H300c-0.4,0-0.6-0.1-0.8-0.2c0,0.1,0,0.2,0,0.3c0,0.9-0.3,1.8-0.9,2.7c-0.5,0.8-1,1.1-1.3,1.1
		c-0.8,0-1.4,0-2-0.1c-0.2,0-0.3-0.1-0.3-0.1s0.1-0.1,0.3-0.1c0.8-0.2,1.6-0.6,2.4-1.2c0.8-0.7,1.3-1.4,1.3-2.1c0-0.4-0.3-1-1-1.7
		l0.5-0.9c0-0.1,0.1-0.1,0.1-0.1c0,0,0.1,0.1,0.1,0.1c0.3,0.4,0.5,0.7,0.7,0.8c0.3,0.2,0.7,0.4,1.1,0.4h0.3V466z" id="PATH_210" class="area" title=""></path>
	<path d="M306.4,457.9c0,0.2-0.1,0.5-0.3,1.1c-1.2,0.3-2.7,0.8-4.4,1.3c1.2,1.2,1.9,2.2,2,2.9c0.1,0.5,0,1-0.2,1.5
		c-0.2,0.5-0.6,0.8-1.1,1c-0.4,0.2-1.1,0.2-2,0.2H300v-1.2h0.3c1.9,0,2.9-0.3,2.9-1c0-0.5-0.5-1.3-1.6-2.3l-0.1,0.3
		c-0.1-0.1-0.3-0.3-0.5-0.6c-0.3-0.3-0.4-0.5-0.4-0.6c0-0.3,0.1-0.6,0.4-0.9c0.1-0.1,0.7-0.3,2-0.7
		C304.3,458.5,305.4,458.2,306.4,457.9z M306.2,456.4l-0.2,0.7l-4.9,1.6l0.2-0.7L306.2,456.4z" id="PATH_211" class="area" title=""></path>
</g>
<g id="G_212" class="area" title="">
	<path d="M255.4,493.6c0,1.4-0.9,2.1-2.8,2.1c-0.7,0-1.2-0.1-1.5-0.3c-0.4-0.2-0.6-0.7-0.6-1.3c0-0.3,0.1-0.6,0.2-0.9
		c0.1-0.1,0.1-0.2,0.2-0.2c0.1,0,0.1,0.1,0.1,0.3c0,0.1,0,0.2,0,0.3c0,0.4,0.2,0.7,0.6,0.8c0.2,0.1,0.6,0.1,1.1,0.1
		c1.5,0,2.2-0.2,2.2-0.7c0-0.7-0.9-1.7-2.6-2.9l0.3-1c0-0.1,0.1-0.1,0.1-0.1c0,0,0.1,0,0.2,0.1C254.6,491.3,255.4,492.5,255.4,493.6
		z" id="PATH_213" class="area" title=""></path>
	<path d="M261.6,495.7h-0.4c-0.4,0-0.6-0.1-0.8-0.2c0,0.1,0,0.2,0,0.3c0,0.9-0.3,1.8-0.9,2.7c-0.5,0.8-1,1.1-1.3,1.1
		c-0.8,0-1.4,0-2-0.1c-0.2,0-0.3-0.1-0.3-0.1s0.1-0.1,0.3-0.1c0.8-0.2,1.6-0.6,2.4-1.2c0.8-0.7,1.3-1.4,1.3-2.1c0-0.4-0.3-1-1-1.7
		l0.5-0.9c0-0.1,0.1-0.1,0.1-0.1c0,0,0.1,0.1,0.1,0.1c0.3,0.4,0.5,0.7,0.7,0.8c0.3,0.2,0.7,0.4,1.1,0.4h0.3V495.7z" id="PATH_214" class="area" title=""></path>
	<path d="M266.6,493.7c0,0.5,0,0.9-0.2,1.3c-0.2,0.5-0.5,0.8-0.8,0.8c-0.5,0-1.3-0.3-2.3-1c-0.3,0.4-0.5,0.6-0.6,0.7
		c-0.3,0.2-0.6,0.3-1,0.3h-0.5v-1.2h0.7c0.4,0,0.8-0.2,1.2-0.7c0.2-0.2,0.5-0.7,0.9-1.3c0.3-0.5,0.7-0.7,1-0.7
		c0.5,0,0.9,0.2,1.2,0.7C266.5,493,266.6,493.4,266.6,493.7z M266,494.5c0-0.3-0.1-0.6-0.3-1c-0.2-0.4-0.5-0.6-0.8-0.6
		c-0.3,0-0.6,0.3-1,0.9c0.2,0.2,0.5,0.4,0.9,0.6s0.8,0.3,1,0.3C265.9,494.7,266,494.6,266,494.5z" id="PATH_215" class="area" title=""></path>
	<path d="M274.2,487.8c0,0.1,0,0.1,0.1,0.3c0,0-0.1,0-0.2,0h-0.3c0,0.8-0.1,1.7-0.3,2.5c-0.2,1.1-0.6,2-1,2.6
		c0.2,0.4,0.3,0.9,0.3,1.3c0,0.2-0.1,0.5-0.2,0.8c-0.1,0.3-0.3,0.5-0.5,0.6c-0.9,0.2-1.8,0.3-2.9,0.2l0.3-1.1c1-0.5,1.7-1,2.1-1.6
		c-1-1.3-2.1-2.6-3.4-3.9l-0.2,0.3c-0.7-0.8-1-1.2-1-1.4c0-0.2,0.1-0.5,0.2-1c0-0.1,0.1-0.2,0.1-0.2s0.1,0.1,0.3,0.2
		c1.9,1.8,3.4,3.6,4.4,5.4c0.4-0.6,0.6-1.5,0.7-2.6c0.1-0.9,0.1-1.9,0-3l0.8-0.8C274,487,274.1,487.5,274.2,487.8z M272.4,494.7
		c0,0,0-0.1,0-0.1c0-0.3-0.1-0.6-0.3-0.8c-0.3,0.4-0.7,0.8-1.2,1.2c0.1,0,0.2,0,0.4,0C271.7,494.9,272.1,494.9,272.4,494.7z" id="PATH_216" class="area" title=""></path>
</g>
<g id="G_217" class="area" title="">
	<path d="M356.3,447.2c0.1,0.3,0.1,0.6,0.1,0.9c0,0.4-0.1,0.7-0.2,1.1c-0.3,0.7-0.8,1.3-1.8,1.7c-0.8,0.3-1.6,0.5-2.5,0.5
		c-0.9,0-1.6-0.2-2.2-0.6c-0.6-0.5-0.9-1.1-0.9-2c0-0.5,0.1-0.9,0.3-1.5c0.2-0.4,0.3-0.7,0.5-0.9c0.1-0.1,0.2-0.1,0.2-0.1
		c0.1,0,0.1,0,0.1,0.1c0,0,0,0.1,0,0.2c-0.3,0.6-0.4,1.2-0.4,1.7c0,0.5,0.2,0.9,0.5,1.3c0.4,0.5,1.1,0.7,2,0.7c1,0,1.9-0.2,2.6-0.5
		c0.6-0.3,1-0.6,1.2-1c0.1-0.1,0.1-0.3,0.1-0.4c0-0.3-0.1-0.6-0.2-1c-0.1-0.3-0.4-0.8-0.9-1.6l0.4-0.8c0.1-0.1,0.1-0.2,0.1-0.2
		s0.1,0,0.1,0.1C355.9,445.6,356.2,446.4,356.3,447.2z M353.4,442.9l-0.8,0.8l-0.8-0.8l0.8-0.8L353.4,442.9z" id="PATH_218" class="area" title=""></path>
	<path d="M360.4,447.3h-0.7c-0.7,0-1.3-0.3-1.5-0.9c-0.2-0.4-0.3-1.1-0.3-1.9v-1.9c0-0.9-0.1-2.2-0.2-3.9l0.6-0.7
		c0.1-0.1,0.2-0.1,0.2,0c0.1,0.9,0.2,2.2,0.2,3.9v2.9c0,0.8,0.4,1.2,1.2,1.2h0.5V447.3z" id="PATH_219" class="area" title=""></path>
	<path d="M365.3,447.3h-0.8c-0.9,0-1.5-0.3-1.9-0.9c-0.3,0.6-1,0.9-2.1,0.9H360v-1.2h0.9c1,0,1.5-0.4,1.6-1.1c0-0.3,0.1-0.5,0.2-0.5
		s0.2,0.2,0.2,0.5c0.1,0.7,0.6,1.1,1.5,1.1h0.9V447.3z M361.9,441.5l-0.8,0.8l-0.8-0.8l0.8-0.8L361.9,441.5z M363.6,441.5l-0.8,0.8
		l-0.8-0.8l0.8-0.8L363.6,441.5z" id="PATH_220" class="area" title=""></path>
	<path d="M373.2,445.2c0,0.6-0.1,1.1-0.4,1.5c-0.3,0.4-0.8,0.7-1.3,0.7c-0.7,0-1.1-0.3-1.4-0.8c-0.4,0.6-0.8,0.8-1.4,0.8
		c-0.7,0-1.2-0.3-1.5-0.8c-0.4,0.6-0.9,0.8-1.6,0.8h-0.7v-1.2h0.8c0.7,0,1.2-0.4,1.3-1.2c0-0.2,0.1-0.3,0.2-0.3
		c0.1,0,0.1,0.1,0.2,0.3c0.1,0.8,0.5,1.2,1.3,1.2c0.4,0,0.8-0.1,1-0.3c0.1-0.2,0.2-0.4,0.3-0.8c0-0.2,0.1-0.3,0.2-0.3
		c0.1,0,0.1,0.1,0.2,0.3c0.1,0.8,0.5,1.2,1.2,1.2c0.8,0,1.1-0.2,1.1-0.5c0-0.3-0.2-0.7-0.6-1.1l0.5-0.9c0.1-0.1,0.1-0.2,0.2-0.2
		s0.1,0.1,0.2,0.2C373,444.2,373.2,444.8,373.2,445.2z" id="PATH_221" class="area" title=""></path>
	<path d="M378.3,447.4c0,1-0.3,1.9-0.9,2.8c-0.5,0.7-1,1.1-1.3,1.1c-0.8,0-1.4,0-2-0.1c-0.2,0-0.3-0.1-0.3-0.1s0.1-0.1,0.3-0.1
		c0.8-0.2,1.6-0.6,2.4-1.2c0.8-0.7,1.3-1.4,1.3-2.1c0-0.4-0.3-1-1-1.7l0.5-0.9c0-0.1,0.1-0.1,0.1-0.1c0,0,0.1,0.1,0.1,0.1
		c0.2,0.3,0.5,0.7,0.6,1.2C378.2,446.6,378.3,447.1,378.3,447.4z" id="PATH_222" class="area" title=""></path>
	<path d="M385.9,439.4c0,0.1,0,0.1,0.1,0.3c0,0-0.1,0-0.2,0h-0.3c0,0.8-0.1,1.7-0.3,2.5c-0.2,1.1-0.6,2-1,2.6
		c0.2,0.4,0.3,0.9,0.3,1.3c0,0.2-0.1,0.5-0.2,0.8c-0.1,0.3-0.3,0.5-0.5,0.6c-0.9,0.2-1.8,0.3-2.9,0.2l0.3-1.1c1-0.5,1.7-1,2.1-1.6
		c-1-1.3-2.1-2.6-3.4-3.9l-0.2,0.3c-0.7-0.8-1-1.2-1-1.4c0-0.2,0.1-0.5,0.2-1c0-0.1,0.1-0.2,0.1-0.2s0.1,0.1,0.3,0.2
		c1.9,1.8,3.4,3.6,4.4,5.4c0.4-0.6,0.6-1.5,0.7-2.6c0.1-0.9,0.1-1.9,0-3l0.8-0.8C385.6,438.6,385.8,439.1,385.9,439.4z M384,446.3
		c0,0,0-0.1,0-0.1c0-0.3-0.1-0.6-0.3-0.8c-0.3,0.4-0.7,0.8-1.2,1.2c0.1,0,0.2,0,0.4,0C383.4,446.5,383.7,446.5,384,446.3z" id="PATH_223" class="area" title=""></path>
</g>
</svg>


