



    


<svg version="1.1" id="Layer_1" xmlns="http://www.w3.org/2000/svg" xmlns:xlink="http://www.w3.org/1999/xlink" x="0px" y="0px" viewBox="0 0 662.2 421" style="enable-background:new 0 0 662.2 421;" xml:space="preserve" width="100%" height="100%">
<style type="text/css">
	.st0{fill:#FBD1D1;stroke:#020202;stroke-width:0.2;stroke-miterlimit:10;}
	.st1{fill:#E8D0E5;stroke:#020202;stroke-width:0.2;stroke-miterlimit:10;}
	.st2{fill:#FDFAD6;stroke:#020202;stroke-width:0.2;stroke-miterlimit:10;}
	.st3{fill:#DBECCB;stroke:#020202;stroke-width:0.2;stroke-miterlimit:10;}
</style>

		<path class="st0 area" d="M193.5,294c1.5-0.7,0.7-2.2,0.7-3c-3-5.1-8.1-8.9-5.9-14.8c1.5-2.2,4.4-0.7,5.2-1.5c5.2-5.9,0-15.5,7.4-18.4
			c8.9-3.7,17.7,2.2,27.3,0.8c1.5-0.8,3.7-1.5,3.7-3c0-8.1-9.6-13.3-12.5-19.9c-2.9-5.1,4.4-5.1,8.1-6.6c3-2.2,3.7-6.6,1.5-8.1
			c-5.9-6.6-19.9-3-22.9-11.8c-3-8.1,4.4-17.7-0.7-25.8c-5.9-9.6-19.2-12.5-23.6-22.9c-4.7-10.9-10.8-24.8-23.7-21.8
			c0.3,2.2,0.1,5-1.9,8c-2,2.9-5.3,5-7.7,6.6c-0.7,0.5-1.7,1.1-2,1.4c-0.1,0.2-0.6,0.9-1.4,1.9c-1.5,2.1-6.1,8.2-6.7,9.8
			c-0.4,2.9-5.4,6.3-15.1,9.9c-7.2,2.7-18.3,2.7-21.6,0c-0.6-0.5-1.7-0.8-6.5,2.3c-3.9,2.5-7.9,1.4-10.6-0.1
			c-1.6,1.6-4.3,3.8-7.4,4.7c-3.2,0.9-8.9,0.7-12.5,0.4c0,1.9-0.5,4.2-2.5,5.4c-1,0.6-3.9,3.8-6.4,6.7c0.4,1.7,0.9,3.8,1.3,4.6
			c1.2,2.5-0.3,6.5-1.3,8.7l-0.8,1.8l-7.4-1.1c-1.8,0-7.1-0.2-9.7-2.3c-1.1-0.8-2-1.7-2.9-2.5c-0.9-0.8-1.8-1.6-2.7-2.2
			c-1-0.5-6.1-0.4-9.5,0.4c-0.5,0.1-0.7,0.3-1.3,2.3c-0.3,1.2-0.7,2.6-1.6,4c-0.6,0.9-0.5,1.8,1.8,5c2,2.8,5.5,6.3,5.5,6.3l7.2,6.8
			c5.7,3.3,14.3,8.2,16.2,8.7c2.5,0.7,4.8,2.9,5.8,5.6c0.9,2.4,0.7,4.9-0.6,7c-1.3,2-1.2,2.5,0.9,4.6c1.2,1.2,8.1,3.1,13.8,4
			c4.3,1.1,6.8,2.3,7.8,3.7c0.9,1.1,8,6.7,10.2,8c2.2,1.3,4.6,2.8,6.7,6.4c0.3,0.5,0.5,1,0.8,1.5c1.4,2.7,2.1,3.7,3.9,3.9
			c2.9,0.3,12.8,4.5,24.5,9.6c3.3,1.4,5.9,2.6,6.9,3c3.4,1.3,6.8,5.4,8.1,7.2c2,0.7,6.4,2.3,8,3.6c0.6,0.4,1.3,1.3,2.2,2.3
			c3.9-2.4,7.5-5.2,10.6-8.2C169.2,288.9,181.7,296.2,193.5,294z" id="_x6A9__x648__x647__x62F__x634__x62A_" title="کوهدشت"></path>
		<path class="st1 area" d="M326.3,288.9c-6.6-8.9-19.2-6.6-29.5-9.6c-0.7-0.7-2.2-1.5-2.2-3c0.7-6.6,5.2-13.3,2.2-19.9
			c-2.2-3.7-7.4-7.4-12.5-5.1c-5.9,3-17.7,10.3-20.6,0.7c-2.2-8.1-8.1-12.5-14-17c-6.6-4.4-14.8,0-21.4-2.2
			c-2.2-0.7-4.2-2.1-5.9-3.7c-2.7,0.8-4.7,2-2.9,5.2c2.9,6.6,12.5,11.8,12.5,19.9c0,1.5-2.2,2.2-3.7,3c-9.6,1.5-18.4-4.4-27.3-0.7
			c-7.4,3-2.2,12.5-7.4,18.4c-0.7,0.7-3.7-0.7-5.2,1.5c-2.2,5.9,2.9,9.6,5.9,14.7c0,0.7,0.7,2.2-0.7,3c-11.8,2.2-24.3-5.2-33.2,3
			c-3.1,3-6.7,5.8-10.6,8.2c2.3,2.9,5.2,7.4,6,9.7c0.5,1.6,2.3,3.1,3.8,3.8c0.3,0.2,0.7,0.3,1.1,0.5c2.3,1.1,5.6,2.5,7,5
			c0.7,1.1,4.8,4.1,6.7,5.5c1,0.7,1.9,1.4,2.5,1.9c1.3,0.9,10.5,4.5,18.4,7.3l8.7,1c1.4,0.6,8.5,3.6,10.9,6c1.3,1.3,2.4,2.8,3.4,4.1
			c0.8,1.1,1.6,2.1,2.3,2.8c0.7,0.6,3,1.8,5,2.8c2,1,4.3,2.2,6.4,3.4c0.1,0.1,12.8,8,15.7,14.6c1,2.3,5.7,3.7,8.7,4.3
			c2.9-2.6,12.7-11.5,18.4-19c7.9-10.5,29-12.6,40.5-11.4c4.7,0.5,12.5,0.7,20.6,0.8c-0.9-2.9-1.5-5.8-1.5-8.5
			C333.7,322,338.8,305.1,326.3,288.9z" id="_x67E__x644___x62F__x62E__x62A__x631_" title="پل دختر"></path>
		<path class="st2 area" d="M332.9,165c-7.4,7.4-18.4,3-28.8,4.4c-1.5,0-3,1.5-3.7,2.9c-3,5.9-1.5,14-7.4,17.7c-6.6,3.7-14,2.2-20.6,6.6
			c-5.9,4.4-3.7,11.8-6.6,16.2c-3,5.9-12.5,5.9-15.5,11.1c-1.4,3-2.6,6.3-4.1,9.5c1.1,0.3,2.3,0.8,3.3,1.5c5.9,4.4,11.8,8.9,14,17
			c3,9.6,14.8,2.2,20.6-0.7c5.2-2.2,10.3,1.5,12.5,5.1c3,6.6-1.5,13.3-2.2,19.9c0,1.5,1.5,2.2,2.2,3c10.3,2.9,22.9,0.7,29.5,9.6
			c12.5,16.2,7.4,33.2,8.1,50.9c0,2.7,0.5,5.6,1.5,8.5c11.6,0.1,23.8-0.2,28.4-0.8c10.3-1.5,18.6,0.9,26.3,7.5
			c3.9,3.3,13.6,5.3,22.8,6.4c-0.1-0.6-0.4-1.2-0.8-1.7c-10.3-13.3-14.8-25.8-1.5-38.3c0.7-0.7-3.7-3.7-5.2-5.9c0-0.7,0-3,0-3.7
			c2.2-5.2,12.5-0.7,10.3-8.1c-1.5-2.2-5.9-3.7-3.7-7.4c5.2-8.1,11.8-15.5,5.9-25.8c-1.9-3.3-0.2-6.6,2.4-8.7
			c-3.6-1.9-6.7-4.5-4.7-7.5c3-4.4,10.3,0,13.3-5.2c1.5-5.1,0-11.1,2.2-14.8c5.1-8.8,1.5-18.4-5.2-23.6
			c-9.1-8.4-26.9-12.9-25.4-24.7c-5.3-6.1-6.9-14.7-12.2-21.7C375.7,145,349.1,149.5,332.9,165z" id="_x62E__x631__x645___x622__x628__x627__x62F_" title="خرم آباد"></path>
		<path class="st3 area" d="M268.8,176.8c-4.4-1.5-7.4,1.5-8.9,4.4c-1.5,1.5-0.7,4.4-3,5.1c-5.2,1.5-8.9-5.1-12.5-5.9
			c-8.9-0.8-19.9,2.2-25.1-7.4c-1.5-3.7,0-7.4-0.7-11.1c-0.7-2.2-2.9-5.2-5.2-5.2c-10.3-0.7-16.2-6.6-23.6-13.3
			c-4.8-4.2-11.4-0.6-13.1,5.1c1.9,3.4,3.5,7,4.9,10.4c4.4,10.3,17.7,13.3,23.6,22.9c5.2,8.1-2.2,17.7,0.7,25.8
			c2.9,8.9,17,5.2,22.9,11.8c2.2,1.5,1.5,5.9-1.5,8.1c-1.4,0.6-3.4,0.9-5.2,1.4c1.7,1.7,3.7,3,5.9,3.7c5.6,1.9,12.2-0.9,18,0.7
			c1.4-3.2,2.7-6.5,4.1-9.5c2.9-5.2,12.5-5.2,15.5-11.1c3-4.4,0.7-11.8,6.6-16.2c3.5-2.3,7.2-3,10.9-3.7c-0.6-0.5-1.2-1.1-2-1.5
			C276.1,187.1,274.7,179.7,268.8,176.8z" id="_x62F__x648__x631__x647_" title="دوره"></path>
		<path class="st1 area" d="M332.9,149.5c-3.7-6.6-2.2-16.2-6.6-22.1c-5-5.7-17.6-3.1-17.7-12.4c-5.5,5.3-13.2,8.7-19.9,8.7
			c-17,0-31,1.5-42.8,17c-8.1,11.1-20.6,3.7-31-0.7c-2.2-0.7-5.9-0.7-6.6,0.7c-4,4-7.9,6.9-11.9,8.7c4.9,4,9.9,7,17,7.5
			c2.2,0,4.4,3,5.2,5.2c0.7,3.7-0.7,7.4,0.7,11.1c5.2,9.6,16.2,6.6,25.1,7.4c3.7,0.7,7.4,7.4,12.5,5.9c2.2-0.7,1.5-3.7,3-5.1
			c1.5-3,4.4-5.9,8.9-4.4c5.9,3,7.4,10.3,12.5,14.7c0.8,0.4,1.5,0.9,2,1.5c3.3-0.6,6.6-1.2,9.8-2.9c5.9-3.7,4.4-11.8,7.4-17.7
			c0.7-1.5,2.2-2.9,3.7-2.9c10.3-1.5,21.4,2.9,28.8-4.4c2.9-2.8,6.2-5.2,9.6-7.2C338.6,155.7,335.2,153.3,332.9,149.5z" id="_x633__x644__x633__x644__x647_" title="سلسله"></path>
		<path class="st3 area" d="M437.3,128c-0.3-2.1-0.6-4.4-0.1-7.2c0.7-4.4-1.3-11.5-2.7-15.4c-2.9,1.1-5.4,2.1-7.2,2.7
			c-1.2,0.4-2.7,0.6-4.3,0.6c-7.3,0-17.9-3.6-21.2-8.5c-1.7-2.5-4.7-6.4-7.7-10.2c-3-3.9-6.1-7.9-7.9-10.6
			c-1.6-2.5-9.6-1.7-15.5-1.1c-3,0.3-5.8,0.6-8.4,0.6c-8.9,0-15.1,2-16.5,11.6c-0.4,2.9-1.9,5.2-4.3,6.9c-7.3,5.2-21.8,3.1-25.7,2.4
			c0,5.8-3,11.2-7.3,15.3c0.1,9.2,12.7,6.6,17.7,12.4c4.4,5.9,3,15.5,6.6,22.1c2.2,3.8,5.7,6.3,9.6,8.3c15.7-9.1,35.6-9.3,46.5,6.4
			c5.3,7.1,6.9,15.6,12.2,21.7c0.1-0.6,0.2-1.2,0.4-1.8c2.2-8.1,9.6-14.8,14-22.1c0.9-1.7,2-3.1,3.3-4.1c-0.2-0.3-0.3-0.7-0.4-1.1
			c-1.3-4.9,4.5-9.5,10.5-14.3c2.1-1.7,4.1-3.3,5.5-4.6C438.1,134.2,437.8,131.7,437.3,128z" id="_x628__x631__x648__x62C__x631__x62F_" title="بروجرد"></path>
		<path class="st2 area" d="M214.9,139.9c10.3,4.4,22.9,11.8,31,0.7c11.8-15.5,25.8-17,42.8-17c12,0,27.1-10.7,27.2-24
			c-0.4-0.1-0.6-0.1-0.8-0.2l-0.4-0.1c-0.9-0.4-22.9-8.8-33.4-15.8C270,76,266.3,61.3,264.5,54.3c-0.5-2.1-2.1-8.4-18.3-8.4
			c-13.5,0-17.6-4.3-23-13.4c-2.1-3.5-2.4-7-1.8-10h-21l-4.9-2.9l-5.7,1.3l-10.2-6.2c-1.6,5.3-3.4,11.6-3.7,13.3
			c-0.3,2.1-3.7,17.7-9.2,22c-1.7,1.4-4.4,4.5-6.9,7.5c-3.6,4.3-7.1,8.4-9.8,10c-3,1.8-8.7,8.5-11.3,11.7v6.5c1,3.3,2.2,6.6,2.8,7.3
			c1.2,1.2,5.3,5.7,6.3,7.3c1,1.4,4.9,8.5,6.3,11.7c0.2,0.4,0.3,0.8,0.4,1.2c0.8,0.6,1.2,1.7,0.9,2.7c-0.1,0.3-0.2,0.5-0.4,0.8
			c0.1,2.4-0.1,4.7-0.2,5.8c0.4,1.9,2.1,9.1,2.5,11.4c0.1,0.4,0.1,0.8,0.2,1.2c0.1,0.6,0.3,1.4,0.4,2.3c9-2.1,14.6,4,18.8,11.4
			c1.6-5.8,8.3-9.3,13.1-5.1c2.3,2,4.4,4,6.6,5.8c4-1.8,7.9-4.8,11.9-8.7C209,139.1,212.7,139.1,214.9,139.9z" id="_x62F__x644__x641__x627__x646_" title="دلفان"></path>
		<path class="st0 area" d="M492.3,196.4c-4-0.8-7-2.1-7.4-2.3l-0.7-0.3l-0.4-0.6c-0.9-1.3-8.6-12.4-8.6-20c0-2,0-6.6-11.3-6.6
			c-8.2,0-15.2,0-35.1-3.5c-3.6-0.6-8.4-1.9-10.1-5.2c-1.3,1.1-2.4,2.4-3.3,4.1c-4.4,7.4-11.8,14-14,22.1
			c-3.7,13.3,15.5,17.7,25.1,26.5c6.6,5.2,10.3,14.8,5.2,23.6c-2.2,3.7-0.8,9.6-2.2,14.8c-3,5.2-10.3,0.7-13.3,5.2
			c-2,3,1.1,5.7,4.7,7.5c1.5-1.2,3.3-2.1,4.9-2.4c11.1-3.7,21.4,3.7,31,7.4c6.6,2.2,12.5-5.2,19.2-7.4c0.2,0,0.4-0.1,0.6-0.1
			c2-5.7,5.4-11.6,3.1-16.9c-3.7-8.1,3.7-13.3,7.4-18.4c3.7-4.4-2.9-10.3-0.7-16.2c0.7-1.5,4.4-2.2,3.7-2.9
			C488.6,201.9,490.9,199.3,492.3,196.4z" id="_x62F__x631__x648__x62F_" title="درود"></path>
		<path class="st1 area" d="M565.1,180.4c0.2-1.8,0.3-3.5,0.3-4.9c0-0.5-0.1-0.8-0.4-1c-1.9-1.8-9-1.5-13.7-1.2c-1.9,0.1-3.7,0.2-5.3,0.2
			c-8,0-14.4,0-23-3.7c-0.9-0.4-1.5-0.5-2-0.3c-1.5,0.7-2.9,4.8-4.2,8.8c-1.1,3.4-2.4,7.2-4.3,11c-4.2,8.5-13.6,8.3-20.3,7
			c-1.4,2.9-3.8,5.5-2.3,8.4c0.7,0.7-3,1.5-3.7,3c-2.2,5.9,4.4,11.8,0.8,16.2c-3.7,5.2-11.1,10.3-7.4,18.4
			c2.3,5.3-1.1,11.2-3.1,16.9c3.6-0.6,7.7-0.6,10.5,0.8c10.3,5.9,18.4,18.4,31,14.7c9.6-3,12.5-12.5,18.4-21.4
			c3.7-5.2,8.9-6.6,14.8-7.4c-1.5-7.4-13.3-10.3-10.3-17c2.2-3.7,11.1-0.7,14.8-5.2c3.7-5.2-2.2-10.3-5.9-14.7
			c-0.8-1.5,0-4.4,1.5-5.9c3.7-3,8.8-1.5,13.3,0.7c1.7,0.6,3.5,0.5,5.4,0.2C563.6,197.8,564.5,187.8,565.1,180.4z" id="_x627__x632__x646__x627_" title="ازنا"></path>
		<path class="st3 area" d="M640.9,247.3c-2.7,1.5-7.2,3.8-9.7,4.7c-1.5,0.5-3.3,0.6-5.4,0.6c-1.7,0-3.7-0.1-5.8-0.2
			c-2.5-0.1-5.2-0.3-8.1-0.3c-8.6,0-10.3-9.2-11.2-14.2c-0.2-1.1-0.4-2-0.5-2.6c-1-2.9-2.7-11-3.3-14.1c-4.2-2.2-18.8-9.8-26-16
			c-0.4-0.3-0.8-0.7-1.1-1.1c-1.8,0.3-3.7,0.4-5.4-0.2c-4.4-2.2-9.6-3.7-13.3-0.7c-1.5,1.5-2.2,4.4-1.5,5.9
			c3.7,4.4,9.6,9.6,5.9,14.7c-3.7,4.4-12.5,1.5-14.7,5.2c-2.9,6.6,8.8,9.6,10.3,17c-5.9,0.7-11.1,2.2-14.8,7.4
			c-5.9,8.8-8.9,18.4-18.4,21.4c-12.5,3.7-20.6-8.8-31-14.8c-2.9-1.5-7.4-1.5-11-0.7c-6.6,2.2-12.5,9.6-19.2,7.4
			c-9.6-3.7-19.9-11.1-31-7.4c-4.4,0.7-10.3,5.9-7.4,11.1c5.9,10.3-0.7,17.7-5.9,25.8c-2.2,3.7,2.2,5.2,3.7,7.4
			c2.2,7.4-8.1,3-10.3,8.1c0,0.8,0,3,0,3.7c1.5,2.2,5.9,5.2,5.1,5.9c-13.3,12.5-8.9,25.1,1.5,38.4c0.4,0.5,0.7,1.1,0.8,1.7
			c6.2,0.7,12.2,1.1,16,1.1c6.3,0,19.5,3.7,28.6,7.1c8.8,3.3,21.4,3.3,26.8,3.3c0.8,0,1.8,0,3-0.1c7.3-0.2,19.6-0.5,26.2,4
			c7.8,5.2,12.4,10.2,15.9,17.2l0.9,1.8c1.4,2.7,3.7,7.4,6.5,12.6c0.2-0.2,0.4-0.4,0.7-0.5c0.1-0.1,11.5-5.8,18.2-10.2
			c5.9-4,20.4-11,25.3-13.3c-1.8-5.6-2.1-11.1-2.2-12.9c-0.8-2-3.5-8.7-3.5-13.2c0-2.4,0.3-6.9,0.6-11.7c0.3-4.5,0.6-9.2,0.6-11.4
			c0-5.7,6.1-10.7,6.8-11.3l0.8-0.6l1,0.1c0.2,0,18.5,1.2,29.9,1.2c10.5,0,13.3-2.9,16.6-6.2c0.2-0.2,0.2-0.4,0.2-0.5
			c-0.1-2.8-8.5-10.4-14-15.4c-4.1-3.7-5.8-6.8-5.5-9.9c0.5-4.4,4.9-6.8,9.5-9.3c1.9-1,3.8-2.1,5.4-3.3c1.8-1.2,3.3-2.2,4.7-3.1
			c4.8-3.1,6.9-4.4,9.4-11.8C643.7,259.2,642.3,252.1,640.9,247.3z" id="_x627__x644__x6CC__x6AF__x648__x62F__x631__x632_" title="الیگودرز"></path>

<g id="G_13" class="area" title="">
	<path d="M219,88.4c0.1,0.3,0.1,0.6,0.1,0.9c0,0.4-0.1,0.7-0.2,1.1c-0.3,0.7-0.8,1.3-1.8,1.7c-0.8,0.3-1.6,0.5-2.5,0.5
		c-0.9,0-1.6-0.2-2.2-0.6c-0.6-0.5-0.9-1.1-0.9-2c0-0.5,0.1-0.9,0.3-1.5c0.2-0.4,0.3-0.7,0.5-0.9c0.1-0.1,0.2-0.1,0.2-0.1
		c0.1,0,0.1,0,0.1,0.1c0,0,0,0.1,0,0.2c-0.3,0.6-0.4,1.2-0.4,1.7c0,0.5,0.2,0.9,0.5,1.3c0.4,0.5,1.1,0.7,2,0.7c1,0,1.9-0.2,2.6-0.5
		c0.6-0.3,1-0.6,1.2-1c0.1-0.1,0.1-0.3,0.1-0.4c0-0.3-0.1-0.6-0.2-1c-0.1-0.3-0.4-0.8-0.9-1.6l0.4-0.8c0.1-0.1,0.1-0.2,0.1-0.2
		s0.1,0,0.1,0.1C218.6,86.8,218.9,87.6,219,88.4z M216.1,84l-0.8,0.8l-0.8-0.8l0.8-0.8L216.1,84z" id="PATH_14" class="area" title=""></path>
	<path d="M223.1,88.5h-0.7c-0.7,0-1.3-0.3-1.5-0.9c-0.2-0.4-0.3-1.1-0.3-1.9v-1.9c0-0.9-0.1-2.2-0.2-3.9l0.6-0.7
		c0.1-0.1,0.2-0.1,0.2,0c0.1,0.9,0.2,2.2,0.2,3.9v2.9c0,0.8,0.4,1.2,1.2,1.2h0.5V88.5z" id="PATH_15" class="area" title=""></path>
	<path d="M228.5,88.5H228c-0.3,0-0.7-0.1-1.2-0.2c-0.5-0.1-0.9-0.3-1.1-0.5c-0.2,0.2-0.5,0.3-0.9,0.4c-0.5,0.2-1,0.2-1.5,0.2h-0.7
		v-1.2h0.5c0.8,0,1.3-0.1,1.5-0.2c-0.2-0.1-0.3-0.3-0.4-0.5c-0.1-0.2-0.2-0.4-0.2-0.6c0-0.4,0.2-0.9,0.5-1.5c0.4-0.6,0.8-1,1.3-1
		c0.5,0,0.8,0.3,1.1,0.8c0.2,0.4,0.3,0.9,0.3,1.4c0,0.4-0.1,0.7-0.3,0.9c-0.1,0.2-0.2,0.3-0.4,0.4c0.2,0.1,0.7,0.2,1.4,0.2h0.4V88.5
		z M226.8,85.9c0-0.2-0.1-0.5-0.3-0.7c-0.2-0.3-0.4-0.4-0.7-0.4c-0.2,0-0.5,0.1-0.7,0.3c-0.2,0.2-0.4,0.5-0.4,0.7
		c0,0.2,0.1,0.5,0.4,0.7c0.2,0.2,0.5,0.3,0.7,0.4c0.2,0,0.5-0.1,0.6-0.3C226.7,86.3,226.8,86.1,226.8,85.9z M226.5,81l-0.8,0.8
		l-0.8-0.8l0.8-0.8L226.5,81z" id="PATH_16" class="area" title=""></path>
	<path d="M230.8,80.6c0.1,0.1,0.1,0.2,0.1,0.2c0,0-0.1,0-0.2,0h-0.3c0.1,1.3,0.1,3.2,0.1,5.7c0,0.6-0.1,1.1-0.4,1.4
		c-0.3,0.4-0.8,0.6-1.3,0.6h-0.6v-1.2h0.5c0.8,0,1.2-0.3,1.1-0.9c-0.1-2.1-0.2-4.3-0.3-6.5l0.7-0.6c0.1-0.1,0.2-0.2,0.2-0.2
		c0,0,0,0.1,0.1,0.2C230.4,79.6,230.6,80,230.8,80.6z" id="PATH_17" class="area" title=""></path>
	<path d="M236.9,86.4c0,1.4-0.9,2.1-2.8,2.1c-0.7,0-1.2-0.1-1.5-0.3c-0.4-0.2-0.6-0.7-0.6-1.3c0-0.3,0.1-0.6,0.2-0.9
		c0.1-0.1,0.1-0.2,0.2-0.2c0.1,0,0.1,0.1,0.1,0.3c0,0.1,0,0.2,0,0.3c0,0.4,0.2,0.7,0.6,0.8c0.2,0.1,0.6,0.1,1.1,0.1
		c1.5,0,2.2-0.2,2.2-0.7c0-0.7-0.9-1.7-2.6-2.9l0.3-1c0-0.1,0.1-0.1,0.1-0.1c0,0,0.1,0,0.2,0.1C236.1,84,236.9,85.3,236.9,86.4z" id="PATH_18" class="area" title=""></path>
</g>
<g id="G_19" class="area" title="">
	<path d="M365.6,119.9c0,1.4-0.9,2.1-2.8,2.1c-0.7,0-1.2-0.1-1.5-0.3c-0.4-0.2-0.6-0.7-0.6-1.3c0-0.3,0.1-0.6,0.2-0.9
		c0.1-0.1,0.1-0.2,0.2-0.2c0.1,0,0.1,0.1,0.1,0.3c0,0.1,0,0.2,0,0.3c0,0.4,0.2,0.7,0.6,0.8c0.2,0.1,0.6,0.1,1.1,0.1
		c1.5,0,2.2-0.2,2.2-0.7c0-0.7-0.9-1.7-2.6-2.9l0.3-1c0-0.1,0.1-0.1,0.1-0.1c0,0,0.1,0,0.2,0.1C364.8,117.5,365.6,118.8,365.6,119.9
		z" id="PATH_20" class="area" title=""></path>
	<path d="M371.8,122h-0.4c-0.4,0-0.6-0.1-0.8-0.2c0,0.1,0,0.2,0,0.3c0,0.9-0.3,1.8-0.9,2.7c-0.5,0.8-1,1.1-1.3,1.1
		c-0.8,0-1.4,0-2-0.1c-0.2,0-0.3-0.1-0.3-0.1s0.1-0.1,0.3-0.1c0.8-0.2,1.6-0.6,2.4-1.2c0.8-0.7,1.3-1.4,1.3-2.1c0-0.4-0.3-1-1-1.7
		l0.5-0.9c0-0.1,0.1-0.1,0.1-0.1c0,0,0.1,0.1,0.1,0.1c0.3,0.4,0.5,0.7,0.7,0.8c0.3,0.2,0.7,0.4,1.1,0.4h0.3V122z" id="PATH_21" class="area" title=""></path>
	<path d="M379.6,119.1l-0.4,0.8c-0.7,0-1.3,0-1.6,0.1c-0.4,0.2-1,0.4-1.8,0.8c-0.8,0.4-1.4,0.7-1.8,0.8c-0.6,0.2-1.3,0.3-1.9,0.3
		h-0.7v-1.2h0.8c0.9,0,1.7-0.2,2.4-0.5l2.3-1c-0.4-0.1-1-0.3-1.8-0.6c-0.7-0.3-1.1-0.4-1.3-0.4c-0.4,0-0.8,0.2-1.2,0.5
		c-0.1,0.1-0.1,0.1-0.2,0.1c-0.1,0-0.1,0-0.1-0.1c0,0,0-0.1,0-0.1c0.3-1,0.9-1.4,1.7-1.4c0.3,0,0.7,0.1,1.1,0.3
		c0.8,0.4,1.4,0.6,1.8,0.8c0.7,0.2,1.5,0.4,2.4,0.4c0.2,0,0.3,0,0.3,0.1C379.7,118.9,379.7,119,379.6,119.1z M376.3,124l-0.8,0.8
		l-0.8-0.8l0.8-0.8L376.3,124z" id="PATH_22" class="area" title=""></path>
	<path d="M384.9,121.6c0,1.5-0.5,2.8-1.5,3.8c-0.3,0.3-0.5,0.5-0.6,0.5c-0.6,0-1.2-0.1-1.9-0.2c-0.3,0-0.4-0.1-0.4-0.1
		c0,0,0.1-0.1,0.4-0.2c0.8-0.2,1.6-0.7,2.3-1.3c0.3-0.3,0.6-0.5,0.8-0.9c0.3-0.4,0.5-0.8,0.5-1.1v-0.3l-1.3,0
		c-0.9,0-1.4-0.4-1.4-1.1c0-0.5,0.1-1,0.4-1.6c0.3-0.6,0.7-1,1.1-1c0.6,0,1.1,0.4,1.4,1.3C384.8,120.1,384.9,120.8,384.9,121.6z
		 M384.2,120.8c0-0.3-0.1-0.6-0.3-0.9c-0.2-0.3-0.5-0.5-0.8-0.5c-0.2,0-0.4,0.1-0.5,0.2s-0.2,0.3-0.2,0.5c0,0.5,0.3,0.7,1,0.7
		C383.5,120.9,383.8,120.8,384.2,120.8z" id="PATH_23" class="area" title=""></path>
	<path d="M391.1,122h-0.4c-0.4,0-0.6-0.1-0.8-0.2c0,0.1,0,0.2,0,0.3c0,0.9-0.3,1.8-0.9,2.7c-0.5,0.8-1,1.1-1.3,1.1
		c-0.8,0-1.4,0-2-0.1c-0.2,0-0.3-0.1-0.3-0.1s0.1-0.1,0.3-0.1c0.8-0.2,1.6-0.6,2.4-1.2c0.8-0.7,1.3-1.4,1.3-2.1c0-0.4-0.3-1-1-1.7
		l0.5-0.9c0-0.1,0.1-0.1,0.1-0.1c0,0,0.1,0.1,0.1,0.1c0.3,0.4,0.5,0.7,0.7,0.8c0.3,0.2,0.7,0.4,1.1,0.4h0.3V122z" id="PATH_24" class="area" title=""></path>
	<path d="M393.5,120c0,1.3-0.7,2-2,2h-0.8v-1.2h0.7c1,0,1.5-0.2,1.5-0.5c0-0.3-0.2-0.7-0.7-1.2l0.4-1c0-0.1,0.1-0.1,0.1-0.1
		s0.1,0.1,0.2,0.2C393.3,118.7,393.5,119.4,393.5,120z M393.2,124.2l-0.8,0.8l-0.8-0.8l0.8-0.8L393.2,124.2z" id="PATH_25" class="area" title=""></path>
</g>
<g id="G_26" class="area" title="">
	<path d="M267,157.9h-0.7c-0.9,0-1.4-0.5-1.6-1.6c-0.5,0.5-0.7,0.7-0.8,0.7h-0.9c-0.3,0-0.6,0-0.9-0.1c-0.4-0.1-0.6-0.3-0.6-0.5
		c0-0.7,0.3-1.4,0.8-1.8c0.4-0.3,1-0.6,1.8-1l-0.2-1l0.7-0.8c0,0.1,0.3,1.2,0.7,3.3c0.1,0.6,0.3,1.1,0.4,1.3
		c0.2,0.3,0.4,0.4,0.8,0.4h0.7V157.9z M264.5,155.8l-0.3-1.6c-0.3,0.1-0.7,0.3-1.2,0.5c-0.6,0.3-1,0.6-1,0.7c0,0.2,0.2,0.3,0.7,0.4
		c0.3,0.1,0.6,0.1,0.9,0.1C263.9,155.9,264.2,155.9,264.5,155.8z" id="PATH_27" class="area" title=""></path>
	<path d="M270.7,157.9h-0.4c-0.9,0-1.5-0.3-1.8-1c-0.1,0.3-0.3,0.5-0.6,0.7c-0.3,0.2-0.6,0.3-0.9,0.3h-0.4v-1.2h0.4
		c0.8,0,1.2-0.3,1.2-1v-3.5c0-1.3,0-2.3-0.1-3l0.9-0.7v6.7c0,1,0.4,1.5,1.3,1.5h0.4V157.9z" id="PATH_28" class="area" title=""></path>
	<path d="M279.9,157.9h-0.6c-0.7,0-1.1-0.3-1.4-0.8c-0.2,0.6-0.7,0.8-1.3,0.8c-0.6,0-1-0.3-1.3-0.8c-0.3,0.6-0.7,0.8-1.3,0.8
		c-0.7,0-1.2-0.3-1.5-0.8c-0.4,0.6-0.9,0.8-1.6,0.8h-0.7v-1.2h0.8c0.7,0,1.2-0.4,1.3-1.2c0-0.2,0.1-0.3,0.2-0.3
		c0.1,0,0.1,0.1,0.2,0.3c0.1,0.8,0.5,1.2,1.3,1.2c0.7,0,1.2-0.4,1.2-1.2c0-0.2,0.1-0.3,0.2-0.3c0.1,0,0.2,0.1,0.2,0.3
		c0.1,0.8,0.5,1.2,1,1.2c0.7,0,1.2-0.4,1.2-1.2c0-0.2,0.1-0.3,0.2-0.3c0.1,0,0.2,0.1,0.2,0.3c0.1,0.8,0.5,1.2,1.2,1.2h0.6V157.9z" id="PATH_29" class="area" title=""></path>
	<path d="M283.6,157.9h-0.4c-0.9,0-1.5-0.3-1.8-1c-0.1,0.3-0.3,0.5-0.6,0.7c-0.3,0.2-0.6,0.3-0.9,0.3h-0.4v-1.2h0.4
		c0.8,0,1.2-0.3,1.2-1v-3.5c0-1.3,0-2.3-0.1-3l0.9-0.7v6.7c0,1,0.4,1.5,1.3,1.5h0.4V157.9z" id="PATH_30" class="area" title=""></path>
	<path d="M291.5,155.7c0,0.6-0.1,1.1-0.4,1.5c-0.3,0.4-0.8,0.7-1.3,0.7c-0.7,0-1.1-0.3-1.4-0.8c-0.4,0.6-0.8,0.8-1.4,0.8
		c-0.7,0-1.2-0.3-1.5-0.8c-0.4,0.6-0.9,0.8-1.6,0.8h-0.7v-1.2h0.8c0.7,0,1.2-0.4,1.3-1.2c0-0.2,0.1-0.3,0.2-0.3
		c0.1,0,0.1,0.1,0.2,0.3c0.1,0.8,0.5,1.2,1.3,1.2c0.4,0,0.8-0.1,1-0.3c0.1-0.2,0.2-0.4,0.3-0.8c0-0.2,0.1-0.3,0.2-0.3
		c0.1,0,0.1,0.1,0.2,0.3c0.1,0.8,0.5,1.2,1.2,1.2c0.8,0,1.1-0.2,1.1-0.5c0-0.3-0.2-0.7-0.6-1.1l0.5-0.9c0.1-0.1,0.1-0.2,0.2-0.2
		s0.1,0.1,0.2,0.2C291.3,154.8,291.5,155.3,291.5,155.7z" id="PATH_31" class="area" title=""></path>
</g>
<g id="G_32" class="area" title="">
	<path d="M136.7,229.2h-0.4c-0.5,0-0.9-0.1-1.1-0.3c-0.3-0.2-0.5-0.6-0.5-1c-1.1,1-2.8,1.5-5.1,1.5c-2.4,0-3.6-0.7-3.6-2.2
		c0-0.5,0.2-1,0.6-1.5c0.1-0.1,0.1-0.1,0.2-0.1c0.1,0,0.1,0,0.1,0.1c0,0,0,0.1,0,0.2c-0.1,0.3-0.2,0.6-0.2,0.9c0,1,1.1,1.5,3.3,1.5
		c2.5,0,4.2-0.5,5-1.6c0.2-0.2,0.3-0.3,0.4-0.3c0.1,0,0.1,0.1,0.1,0.2c0,0.1,0,0.2-0.1,0.4c0,0.2-0.1,0.3-0.1,0.4
		c0,0.5,0.4,0.8,1.1,0.8h0.4V229.2z M130.5,223.4l-0.8,0.8l-0.8-0.8l0.8-0.8L130.5,223.4z M132.2,223.4l-0.8,0.8l-0.8-0.8l0.8-0.8
		L132.2,223.4z" id="PATH_33" class="area" title=""></path>
	<path d="M144.6,227.1c0,0.6-0.1,1.1-0.4,1.5c-0.3,0.4-0.8,0.7-1.3,0.7c-0.7,0-1.1-0.3-1.4-0.8c-0.4,0.6-0.8,0.8-1.4,0.8
		c-0.7,0-1.2-0.3-1.5-0.8c-0.4,0.6-0.9,0.8-1.6,0.8h-0.7v-1.2h0.8c0.7,0,1.2-0.4,1.3-1.2c0-0.2,0.1-0.3,0.2-0.3
		c0.1,0,0.1,0.1,0.2,0.3c0.1,0.8,0.5,1.2,1.3,1.2c0.4,0,0.8-0.1,1-0.3c0.1-0.2,0.2-0.4,0.3-0.8c0-0.2,0.1-0.3,0.2-0.3
		c0.1,0,0.1,0.1,0.2,0.3c0.1,0.8,0.5,1.2,1.2,1.2c0.8,0,1.1-0.2,1.1-0.5c0-0.3-0.2-0.7-0.6-1.1l0.5-0.9c0.1-0.1,0.1-0.2,0.2-0.2
		s0.1,0.1,0.2,0.2C144.4,226.1,144.6,226.6,144.6,227.1z M141.2,223.4l-0.7,0.7l-0.7-0.7l0.7-0.7L141.2,223.4z M142.1,221.9
		l-0.7,0.7l-0.7-0.7l0.7-0.7L142.1,221.9z M143,223.4l-0.7,0.7l-0.7-0.7l0.7-0.7L143,223.4z" id="PATH_34" class="area" title=""></path>
	<path d="M152.4,229.2H152c-0.4,0-0.7-0.1-1-0.4c-0.2-0.2-0.4-0.4-0.6-0.8c-0.2,0.4-0.5,0.7-0.8,0.9c-0.4,0.2-0.9,0.3-1.7,0.3
		c-1.4,0-2.1-0.5-2.1-1.5c0-0.3,0.1-0.7,0.3-1c0.1-0.1,0.1-0.2,0.2-0.2c0.1,0,0.1,0.1,0.1,0.2c0,0.1,0,0.1,0,0.3c0,0.1,0,0.2,0,0.3
		c0,0.6,0.5,0.9,1.5,0.9c1.4,0,2.1-0.3,2.1-0.8c0-0.3-0.4-1.4-1.2-3.3l0.4-0.8c0.1-0.1,0.1-0.2,0.1-0.2c0,0,0.1,0.1,0.1,0.2
		c0.3,0.8,0.8,2,1.4,3.6c0.3,0.8,0.7,1.2,1.3,1.2h0.3V229.2z" id="PATH_35" class="area" title=""></path>
	<path d="M158.5,227.2c0,0.4-0.1,0.8-0.4,1.2c-0.3,0.5-0.6,0.7-1,0.7c-0.3,0-1-0.2-2.1-0.7c-0.9,0.6-1.7,0.8-2.4,0.8H152v-1.2h0.6
		c0.4,0,0.8,0,1.2-0.1c-0.4-0.3-0.6-0.7-0.6-1.2c0-0.6,0.4-1.3,1.3-2l-0.7-0.3c0.2-0.2,0.5-0.5,0.9-0.9c0.9,0.5,1.7,0.9,2.4,1.5
		C158,225.8,158.5,226.5,158.5,227.2z M155.9,226.4c0-0.3-0.1-0.5-0.2-0.7c-0.1-0.3-0.3-0.4-0.6-0.4c-0.3,0-0.5,0.1-0.8,0.3
		c-0.3,0.2-0.5,0.5-0.5,0.7c0,0.4,0.4,0.8,1.1,1c0.2-0.1,0.4-0.2,0.6-0.3C155.8,226.8,155.9,226.6,155.9,226.4z M158,227.6
		c0-0.3-0.2-0.6-0.6-1c-0.3-0.3-0.6-0.6-0.9-0.7c0,0.8-0.2,1.4-0.7,1.8c0.8,0.3,1.4,0.4,1.6,0.4C157.8,228.1,158,227.9,158,227.6z" id="PATH_36" class="area" title=""></path>
	<path d="M164.7,229.2h-1.1c-0.1,1.4-0.6,2.5-1.6,3.5c-0.3,0.3-0.5,0.5-0.6,0.5c-0.5,0-1.2-0.1-1.9-0.2c-0.2,0-0.4-0.1-0.4-0.1
		c0,0,0.1-0.1,0.4-0.2c0.8-0.2,1.6-0.7,2.3-1.2c0.3-0.3,0.6-0.5,0.8-0.9c0.3-0.4,0.5-0.8,0.5-1.1v-0.3h-1.3c-1,0-1.4-0.4-1.4-1.2
		c0-0.5,0.1-1,0.4-1.6c0.3-0.6,0.7-1,1.1-1c0.5,0,0.9,0.3,1.2,1c0.2,0.5,0.4,1,0.4,1.6h1.1V229.2z M162.9,228c0-0.3-0.1-0.6-0.3-0.9
		c-0.2-0.4-0.5-0.5-0.8-0.5c-0.2,0-0.4,0.1-0.5,0.2c-0.2,0.2-0.2,0.3-0.2,0.6c0,0.5,0.4,0.7,1.2,0.7
		C162.4,228.1,162.6,228.1,162.9,228z" id="PATH_37" class="area" title=""></path>
	<path d="M170.9,220c0,0.2-0.2,0.6-0.4,1.1l-2.5,0.8c-1.1,0.4-1.9,0.7-2.3,0.9c0.8,0.8,1.3,1.4,1.6,1.7c0.5,0.7,0.8,1.3,0.9,2
		c0,0.5,0,1-0.2,1.4c-0.3,0.9-1.4,1.3-3.1,1.3h-0.5v-1.2h0.6c0.8,0,1.4,0,1.7-0.1c0.7-0.2,1.1-0.5,1.1-1c0-0.7-0.5-1.5-1.6-2.5
		l-0.1,0.2c-0.1-0.1-0.3-0.3-0.5-0.6c-0.3-0.3-0.4-0.6-0.4-0.6c0-0.2,0-0.4,0.1-0.8c0.1-0.4,0.2-0.6,0.3-0.7
		c0.1-0.1,0.8-0.4,2.1-0.8C168.8,220.6,170,220.2,170.9,220z" id="PATH_38" class="area" title=""></path>
</g>
<g id="G_39" class="area" title="">
	<path d="M226.5,198.9c0,0.7-0.2,1.2-0.6,1.6c-0.4,0.4-1,0.5-1.6,0.5c-0.4,0-0.8-0.1-1.1-0.4c-0.3-0.3-0.5-0.6-0.5-1
		c0-0.5,0.2-1,0.6-1.7c0.3-0.6,0.7-1.1,1.1-1.5C225.8,197.1,226.5,197.9,226.5,198.9z M225.9,199.3c0-0.3-0.2-0.6-0.7-1
		c-0.4-0.4-0.7-0.6-1.1-0.7c-0.5,0.7-0.8,1.2-0.8,1.6c0,0.2,0.1,0.4,0.4,0.6c0.2,0.1,0.4,0.2,0.7,0.2c0.4,0,0.8-0.1,1.1-0.2
		C225.8,199.5,225.9,199.4,225.9,199.3z" id="PATH_40" class="area" title=""></path>
	<path d="M231.5,201.1c0,1-0.3,1.9-0.9,2.8c-0.5,0.7-1,1.1-1.3,1.1c-0.8,0-1.4,0-2-0.1c-0.2,0-0.3-0.1-0.3-0.1s0.1-0.1,0.3-0.1
		c0.8-0.2,1.6-0.6,2.4-1.2c0.8-0.7,1.3-1.4,1.3-2.1c0-0.4-0.3-1-1-1.7l0.5-0.9c0-0.1,0.1-0.1,0.1-0.1c0,0,0.1,0.1,0.1,0.1
		c0.2,0.3,0.5,0.7,0.6,1.2C231.4,200.3,231.5,200.7,231.5,201.1z" id="PATH_41" class="area" title=""></path>
	<path d="M236.7,200.6c0,1.5-0.5,2.8-1.5,3.8c-0.3,0.3-0.5,0.5-0.6,0.5c-0.6,0-1.2-0.1-1.9-0.2c-0.3,0-0.4-0.1-0.4-0.1
		c0,0,0.1-0.1,0.4-0.2c0.8-0.2,1.6-0.7,2.3-1.3c0.3-0.3,0.6-0.5,0.8-0.9c0.3-0.4,0.5-0.8,0.5-1.1v-0.3l-1.3,0
		c-0.9,0-1.4-0.4-1.4-1.1c0-0.5,0.1-1,0.4-1.6c0.3-0.6,0.7-1,1.1-1c0.6,0,1.1,0.4,1.4,1.3C236.6,199.1,236.7,199.8,236.7,200.6z
		 M236,199.8c0-0.3-0.1-0.6-0.3-0.9c-0.2-0.3-0.5-0.5-0.8-0.5c-0.2,0-0.4,0.1-0.5,0.2c-0.2,0.2-0.2,0.3-0.2,0.5c0,0.5,0.3,0.7,1,0.7
		C235.3,199.9,235.6,199.8,236,199.8z" id="PATH_42" class="area" title=""></path>
	<path d="M242.8,198.9c0,1.4-0.9,2.1-2.8,2.1c-0.7,0-1.2-0.1-1.5-0.3c-0.4-0.2-0.6-0.7-0.6-1.3c0-0.3,0.1-0.6,0.2-0.9
		c0.1-0.1,0.1-0.2,0.2-0.2c0.1,0,0.1,0.1,0.1,0.3c0,0.1,0,0.2,0,0.3c0,0.4,0.2,0.7,0.6,0.8c0.2,0.1,0.6,0.1,1.1,0.1
		c1.5,0,2.2-0.2,2.2-0.7c0-0.7-0.9-1.7-2.6-2.9l0.3-1c0-0.1,0.1-0.1,0.1-0.1c0,0,0.1,0,0.2,0.1C241.9,196.5,242.8,197.8,242.8,198.9
		z" id="PATH_43" class="area" title=""></path>
</g>
<g id="G_44" class="area" title="">
	<path d="M231,310.5h-0.4c-0.4,0-0.6-0.1-0.8-0.2c0,0.1,0,0.2,0,0.3c0,0.9-0.3,1.8-0.9,2.7c-0.5,0.8-1,1.1-1.3,1.1
		c-0.8,0-1.4,0-2-0.1c-0.2,0-0.3-0.1-0.3-0.1s0.1-0.1,0.3-0.1c0.8-0.2,1.6-0.6,2.4-1.2c0.8-0.7,1.3-1.4,1.3-2.1c0-0.4-0.3-1-1-1.7
		l0.5-0.9c0-0.1,0.1-0.1,0.1-0.1c0,0,0.1,0.1,0.1,0.1c0.3,0.4,0.5,0.7,0.7,0.8c0.3,0.2,0.7,0.4,1.1,0.4h0.3V310.5z" id="PATH_45" class="area" title=""></path>
	<path d="M235.9,310.5h-0.8c-0.9,0-1.5-0.3-1.9-0.9c-0.3,0.6-1,0.9-2.1,0.9h-0.6v-1.2h0.9c1,0,1.5-0.4,1.6-1.1
		c0-0.3,0.1-0.5,0.2-0.5c0.1,0,0.2,0.2,0.2,0.5c0.1,0.7,0.6,1.1,1.5,1.1h0.9V310.5z M232.5,304.6l-0.8,0.8l-0.8-0.8l0.8-0.8
		L232.5,304.6z M234.2,304.6l-0.8,0.8l-0.8-0.8l0.8-0.8L234.2,304.6z" id="PATH_46" class="area" title=""></path>
	<path d="M243.7,307.5l-0.4,0.8c-0.7,0-1.3,0-1.6,0.1c-0.4,0.2-1,0.4-1.8,0.8c-0.8,0.4-1.4,0.7-1.8,0.8c-0.6,0.2-1.3,0.3-1.9,0.3
		h-0.7v-1.2h0.8c0.9,0,1.7-0.2,2.4-0.5l2.3-1c-0.4-0.1-1-0.3-1.8-0.6c-0.7-0.3-1.1-0.4-1.3-0.4c-0.4,0-0.8,0.2-1.2,0.5
		c-0.1,0.1-0.1,0.1-0.2,0.1c-0.1,0-0.1,0-0.1-0.1c0,0,0-0.1,0-0.1c0.3-1,0.9-1.4,1.7-1.4c0.3,0,0.7,0.1,1.1,0.3
		c0.8,0.4,1.4,0.6,1.8,0.8c0.7,0.2,1.5,0.4,2.4,0.4c0.2,0,0.3,0,0.3,0.1C243.8,307.3,243.8,307.4,243.7,307.5z M240.9,303l-0.8,0.8
		l-0.8-0.8l0.8-0.8L240.9,303z" id="PATH_47" class="area" title=""></path>
	<path d="M249.9,308.4c0,1.4-0.9,2.1-2.8,2.1c-0.7,0-1.2-0.1-1.5-0.3c-0.4-0.2-0.6-0.7-0.6-1.3c0-0.3,0.1-0.6,0.2-0.9
		c0.1-0.1,0.1-0.2,0.2-0.2c0.1,0,0.1,0.1,0.1,0.3c0,0.1,0,0.2,0,0.3c0,0.4,0.2,0.7,0.6,0.8c0.2,0.1,0.6,0.1,1.1,0.1
		c1.5,0,2.2-0.2,2.2-0.7c0-0.7-0.9-1.7-2.6-2.9l0.3-1c0-0.1,0.1-0.1,0.1-0.1c0,0,0.1,0,0.2,0.1C249.1,306,249.9,307.2,249.9,308.4z" id="PATH_48" class="area" title=""></path>
	<path d="M263.6,310.5h-0.5c-0.5,0-0.9-0.2-1.1-0.5c0,0.6-0.1,1.3-0.2,2.2c-0.3,0.7-0.8,1.3-1.6,1.6c-0.7,0.3-1.4,0.5-2.3,0.5
		c-0.9,0-1.5-0.2-2-0.5c-0.6-0.4-0.9-1-0.9-1.9c0-0.8,0.2-1.6,0.7-2.2c0.1-0.1,0.1-0.1,0.2-0.1c0.1,0,0.1,0,0.1,0.1c0,0,0,0.1,0,0.1
		c-0.2,0.5-0.3,1-0.3,1.4c0,0.6,0.2,1.1,0.7,1.5c0.4,0.3,0.9,0.5,1.6,0.5c0.6,0,1.3-0.1,2-0.4c1-0.3,1.4-0.7,1.4-1.2l-0.1-4.8
		c-0.1-2.3-0.1-3.9-0.2-5l0.8-0.7c0,0.3,0.1,1.4,0.2,3.4l0.1,3.9c0,0.6,0.4,1,1.2,1h0.3V310.5z" id="PATH_49" class="area" title=""></path>
	<path d="M266,308.5c0,1.3-0.7,2-2,2h-0.8v-1.2h0.7c1,0,1.5-0.2,1.5-0.5c0-0.3-0.2-0.7-0.7-1.2l0.4-1c0-0.1,0.1-0.1,0.1-0.1
		c0,0,0.1,0.1,0.2,0.2C265.8,307.2,266,307.8,266,308.5z M263.6,312.4l0.7-0.7l0.7,0.7l-0.7,0.7L263.6,312.4z M264.5,314l0.7-0.7
		l0.7,0.7l-0.7,0.7L264.5,314z M265.4,312.4l0.7-0.7l0.7,0.7l-0.7,0.7L265.4,312.4z" id="PATH_50" class="area" title=""></path>
</g>
<g id="G_51" class="area" title="">
	<path d="M331.8,234.9c0,1.4-0.9,2.1-2.8,2.1c-0.7,0-1.2-0.1-1.5-0.3c-0.4-0.2-0.6-0.7-0.6-1.3c0-0.3,0.1-0.6,0.2-0.9
		c0.1-0.1,0.1-0.2,0.2-0.2c0.1,0,0.1,0.1,0.1,0.3c0,0.1,0,0.2,0,0.3c0,0.4,0.2,0.7,0.6,0.8c0.2,0.1,0.6,0.1,1.1,0.1
		c1.5,0,2.2-0.2,2.2-0.7c0-0.7-0.9-1.7-2.6-2.9l0.3-1c0-0.1,0.1-0.1,0.1-0.1c0,0,0.1,0,0.2,0.1C330.9,232.5,331.8,233.8,331.8,234.9
		z" id="PATH_52" class="area" title=""></path>
	<path d="M335.7,237H335c-0.7,0-1.3-0.3-1.5-0.9c-0.2-0.4-0.3-1.1-0.3-1.9v-1.9c0-0.9-0.1-2.2-0.2-3.9l0.6-0.7
		c0.1-0.1,0.2-0.1,0.2,0c0.1,0.9,0.2,2.2,0.2,3.9v2.9c0,0.8,0.4,1.2,1.2,1.2h0.5V237z" id="PATH_53" class="area" title=""></path>
	<path d="M338.1,235c0,1.3-0.7,2-2,2h-0.8v-1.2h0.7c1,0,1.5-0.2,1.5-0.5c0-0.3-0.2-0.7-0.7-1.2l0.4-1c0-0.1,0.1-0.1,0.1-0.1
		c0,0,0.1,0.1,0.2,0.2C337.9,233.7,338.1,234.4,338.1,235z M337.8,239.2L337,240l-0.8-0.8l0.8-0.8L337.8,239.2z" id="PATH_54" class="area" title=""></path>
	<path d="M342.1,226.3c-0.4,0.4-1,0.5-1.6,0.5c-0.1,0-0.2,0-0.4,0s-0.3,0-0.4,0c-0.1,0-0.2,0.1-0.3,0.2s-0.2,0.2-0.2,0.2
		c-0.1,0-0.1-0.1-0.1-0.2c0-0.1,0.1-0.3,0.2-0.5c0.1-0.3,0.2-0.4,0.3-0.4c0.1,0,0.3,0,0.6,0.1s0.5,0.1,0.6,0.1c0.6,0,1,0,1.3-0.1
		c0.2,0,0.3-0.1,0.3-0.1c0,0,0.1,0,0.1,0C342.3,226.1,342.3,226.2,342.1,226.3z M341.5,235.8c0,0.4-0.1,0.8-0.3,1.1
		c-0.1,0.2-0.2,0.3-0.2,0.3c0,0-0.1-0.1-0.1-0.4c0-1.2-0.2-4-0.6-8.5l0.8-0.8c0.1-0.1,0.1-0.1,0.1-0.1c0,0,0,0.1,0,0.2
		C341.5,228.9,341.5,231.6,341.5,235.8z" id="PATH_55" class="area" title=""></path>
	<path d="M352.4,235c0,0.2-0.1,0.4-0.3,0.8c-0.2,0.4-0.4,0.6-0.5,0.6c-0.3,0-0.7-0.1-1.2-0.2s-0.9-0.2-1.2-0.2
		c-0.5,0-0.9,0.1-1.1,0.2c0.2,1.7,0.3,3,0.3,3.8c0,0.4-0.1,0.8-0.4,1.3c-0.1,0.1-0.1,0.2-0.1,0.2c0,0,0,0,0-0.1
		c-0.1-1.6-0.2-3.2-0.4-4.8c0-0.2,0.1-0.4,0.3-0.7c0.2-0.2,0.3-0.4,0.5-0.5c0.2-0.2,0.5-0.2,0.8-0.2c-0.1-0.3-0.1-0.5-0.1-0.7
		c0-0.3,0.1-0.7,0.4-1.1c0.3-0.4,0.6-0.6,1-0.6c0.5,0,1,0.3,1.5,0.8S352.4,234.6,352.4,235z M351.6,235.4c-0.1-0.3-0.4-0.7-0.7-1
		c-0.4-0.4-0.7-0.5-1.1-0.5c-0.5,0-0.7,0.2-0.7,0.5c0,0.2,0.1,0.4,0.2,0.8C349.9,235.1,350.7,235.2,351.6,235.4z" id="PATH_56" class="area" title=""></path>
	<path d="M358.6,237h-0.4c-0.4,0-0.6-0.1-0.8-0.2c0,0.1,0,0.2,0,0.3c0,0.9-0.3,1.8-0.9,2.7c-0.5,0.8-1,1.1-1.3,1.1
		c-0.8,0-1.4,0-2-0.1c-0.2,0-0.3-0.1-0.3-0.1s0.1-0.1,0.3-0.1c0.8-0.2,1.6-0.6,2.4-1.2c0.8-0.7,1.3-1.4,1.3-2.1c0-0.4-0.3-1-1-1.7
		l0.5-0.9c0-0.1,0.1-0.1,0.1-0.1c0,0,0.1,0.1,0.1,0.1c0.3,0.4,0.5,0.7,0.7,0.8c0.3,0.2,0.7,0.4,1.1,0.4h0.3V237z" id="PATH_57" class="area" title=""></path>
	<path d="M366.4,234.1l-0.4,0.8c-0.7,0-1.3,0-1.6,0.1c-0.4,0.2-1,0.4-1.8,0.8c-0.8,0.4-1.4,0.7-1.8,0.8c-0.6,0.2-1.3,0.3-1.9,0.3
		h-0.7v-1.2h0.8c0.9,0,1.7-0.2,2.4-0.5l2.3-1c-0.4-0.1-1-0.3-1.8-0.6c-0.7-0.3-1.1-0.4-1.3-0.4c-0.4,0-0.8,0.2-1.2,0.5
		c-0.1,0.1-0.1,0.1-0.2,0.1c-0.1,0-0.1,0-0.1-0.1c0,0,0-0.1,0-0.1c0.3-1,0.9-1.4,1.7-1.4c0.3,0,0.7,0.1,1.1,0.3
		c0.8,0.4,1.4,0.6,1.8,0.8c0.7,0.2,1.5,0.4,2.4,0.4c0.2,0,0.3,0,0.3,0.1C366.5,233.9,366.5,234,366.4,234.1z M363.6,229.5l-0.8,0.8
		l-0.8-0.8l0.8-0.8L363.6,229.5z" id="PATH_58" class="area" title=""></path>
</g>
<g id="G_59" class="area" title="">
	<path d="M497.2,310.5c0,1-0.3,1.9-0.9,2.8c-0.5,0.7-1,1.1-1.3,1.1c-0.8,0-1.4,0-2-0.1c-0.2,0-0.3-0.1-0.3-0.1s0.1-0.1,0.3-0.1
		c0.8-0.2,1.6-0.6,2.4-1.2c0.8-0.7,1.3-1.4,1.3-2.1c0-0.4-0.3-1-1-1.7l0.5-0.9c0-0.1,0.1-0.1,0.1-0.1c0,0,0.1,0.1,0.1,0.1
		c0.2,0.3,0.5,0.7,0.6,1.2C497.1,309.8,497.2,310.2,497.2,310.5z M496.5,305.2l-0.8,0.8l-0.8-0.8l0.8-0.8L496.5,305.2z" id="PATH_60" class="area" title=""></path>
	<path d="M502.3,310.5c0,1-0.3,1.9-0.9,2.8c-0.5,0.7-1,1.1-1.3,1.1c-0.8,0-1.4,0-2-0.1c-0.2,0-0.3-0.1-0.3-0.1s0.1-0.1,0.3-0.1
		c0.8-0.2,1.6-0.6,2.4-1.2c0.8-0.7,1.3-1.4,1.3-2.1c0-0.4-0.3-1-1-1.7l0.5-0.9c0-0.1,0.1-0.1,0.1-0.1c0,0,0.1,0.1,0.1,0.1
		c0.2,0.3,0.5,0.7,0.6,1.2C502.2,309.8,502.3,310.2,502.3,310.5z" id="PATH_61" class="area" title=""></path>
	<path d="M508.4,308.4c0,1.4-0.9,2.1-2.8,2.1c-0.7,0-1.2-0.1-1.5-0.3c-0.4-0.2-0.6-0.7-0.6-1.3c0-0.3,0.1-0.6,0.2-0.9
		c0.1-0.1,0.1-0.2,0.2-0.2c0.1,0,0.1,0.1,0.1,0.3c0,0.1,0,0.2,0,0.3c0,0.4,0.2,0.7,0.6,0.8c0.2,0.1,0.6,0.1,1.1,0.1
		c1.5,0,2.2-0.2,2.2-0.7c0-0.7-0.9-1.7-2.6-2.9l0.3-1c0-0.1,0.1-0.1,0.1-0.1c0,0,0.1,0,0.2,0.1C507.5,306,508.4,307.2,508.4,308.4z" id="PATH_62" class="area" title=""></path>
	<path d="M514.6,310.5h-1.1c-0.1,1.4-0.6,2.5-1.6,3.5c-0.3,0.3-0.5,0.5-0.6,0.5c-0.5,0-1.2-0.1-1.9-0.2c-0.2,0-0.4-0.1-0.4-0.1
		c0,0,0.1-0.1,0.4-0.2c0.8-0.2,1.6-0.7,2.3-1.2c0.3-0.3,0.6-0.5,0.8-0.9c0.3-0.4,0.5-0.8,0.5-1.1v-0.3h-1.3c-1,0-1.4-0.4-1.4-1.2
		c0-0.5,0.1-1,0.4-1.6c0.3-0.6,0.7-1,1.1-1c0.5,0,0.9,0.3,1.2,1c0.2,0.5,0.4,1,0.4,1.6h1.1V310.5z M512.8,309.3
		c0-0.3-0.1-0.6-0.3-0.9c-0.2-0.4-0.5-0.5-0.8-0.5c-0.2,0-0.4,0.1-0.5,0.2s-0.2,0.3-0.2,0.6c0,0.5,0.4,0.7,1.2,0.7
		C512.3,309.3,512.5,309.3,512.8,309.3z" id="PATH_63" class="area" title=""></path>
	<path d="M521.4,310.5h-0.6c-0.5,0-1.1-0.2-1.6-0.7c-0.4-0.3-0.8-0.9-1.3-1.6c-0.1,1.5-1.1,2.3-3.1,2.3h-0.6v-1.2h0.4
		c1.8,0,2.8-0.4,2.8-1.1c0-0.6-0.4-1.3-1.3-2.1c-0.4-0.4-0.8-0.7-1.3-1.1c0-0.4,0.1-0.7,0.3-1c0.1-0.1,1.9-0.7,5.5-1.8
		c0,0.1-0.1,0.5-0.3,1.1c-0.9,0.2-2.4,0.7-4.4,1.3c1,1.1,2,2.1,2.7,3c0.5,0.5,0.8,0.9,1.1,1.1c0.4,0.3,0.9,0.5,1.4,0.5h0.4V310.5z
		 M520.3,300.8l-0.2,0.7l-4.9,1.6l0.2-0.7L520.3,300.8z" id="PATH_64" class="area" title=""></path>
	<path d="M526.3,310.5h-0.8c-0.9,0-1.5-0.3-1.9-0.9c-0.3,0.6-1,0.9-2.1,0.9H521v-1.2h0.9c1,0,1.5-0.4,1.6-1.1c0-0.3,0.1-0.5,0.2-0.5
		s0.2,0.2,0.2,0.5c0.1,0.7,0.6,1.1,1.5,1.1h0.9V310.5z M523,312.7l-0.8,0.8l-0.8-0.8l0.8-0.8L523,312.7z M524.7,312.6l-0.8,0.8
		l-0.8-0.8l0.8-0.8L524.7,312.6z" id="PATH_65" class="area" title=""></path>
	<path d="M528.6,302.5c0.1,0.1,0.1,0.2,0.1,0.2c0,0-0.1,0-0.2,0h-0.3c0.1,1.3,0.1,3.2,0.1,5.7c0,0.6-0.1,1.1-0.4,1.4
		c-0.3,0.4-0.8,0.6-1.3,0.6h-0.6v-1.2h0.5c0.8,0,1.2-0.3,1.1-0.9c-0.1-2.1-0.2-4.3-0.3-6.5l0.7-0.6c0.1-0.1,0.2-0.2,0.2-0.2
		c0,0,0,0.1,0.1,0.2C528.2,301.6,528.4,302,528.6,302.5z" id="PATH_66" class="area" title=""></path>
	<path d="M531,309.2c0,0.4-0.1,0.8-0.3,1.1c-0.1,0.2-0.2,0.3-0.2,0.3c0,0-0.1-0.1-0.1-0.4c0-1.2-0.2-4-0.6-8.5l0.8-0.8
		c0.1-0.1,0.1-0.1,0.1-0.1c0,0,0,0.1,0,0.2C531,302.4,531,305.1,531,309.2z" id="PATH_67" class="area" title=""></path>
</g>
<g id="G_68" class="area" title="">
	<path d="M513.4,229.1h-0.7c-0.7,0-1.3-0.3-1.5-0.9c-0.2-0.4-0.3-1.1-0.3-1.9v-1.9c0-0.9-0.1-2.2-0.2-3.9l0.6-0.7
		c0.1-0.1,0.2-0.1,0.2,0c0.1,0.9,0.2,2.2,0.2,3.9v2.9c0,0.8,0.4,1.2,1.2,1.2h0.5V229.1z" id="PATH_69" class="area" title=""></path>
	<path d="M515.8,227.1c0,1.3-0.7,2-2,2H513v-1.2h0.7c1,0,1.5-0.2,1.5-0.5c0-0.3-0.2-0.7-0.7-1.2l0.4-1c0-0.1,0.1-0.1,0.1-0.1
		s0.1,0.1,0.2,0.2C515.6,225.8,515.8,226.4,515.8,227.1z M515.7,222.5l-0.8,0.8l-0.8-0.8l0.8-0.8L515.7,222.5z" id="PATH_70" class="area" title=""></path>
	<path d="M520.9,229.2c0,1-0.3,1.9-0.9,2.8c-0.5,0.7-1,1.1-1.3,1.1c-0.8,0-1.4,0-2-0.1c-0.2,0-0.3-0.1-0.3-0.1s0.1-0.1,0.3-0.1
		c0.8-0.2,1.6-0.6,2.4-1.2c0.8-0.7,1.3-1.4,1.3-2.1c0-0.4-0.3-1-1-1.7l0.5-0.9c0-0.1,0.1-0.1,0.1-0.1c0,0,0.1,0.1,0.1,0.1
		c0.2,0.3,0.5,0.7,0.6,1.2C520.8,228.4,520.9,228.8,520.9,229.2z M520.1,223.8l-0.8,0.8l-0.8-0.8l0.8-0.8L520.1,223.8z" id="PATH_71" class="area" title=""></path>
	<path d="M523.2,227.8c0,0.4-0.1,0.8-0.3,1.1c-0.1,0.2-0.2,0.3-0.2,0.3c0,0-0.1-0.1-0.1-0.4c0-1.2-0.2-4-0.6-8.5l0.8-0.8
		c0.1-0.1,0.1-0.1,0.1-0.1c0,0,0,0.1,0,0.2C523.2,221,523.2,223.7,523.2,227.8z" id="PATH_72" class="area" title=""></path>
</g>
<g id="G_73" class="area" title="">
	<path d="M445.7,208.4c0,1.4-0.9,2.1-2.8,2.1c-0.7,0-1.2-0.1-1.5-0.3c-0.4-0.2-0.6-0.7-0.6-1.3c0-0.3,0.1-0.6,0.2-0.9
		c0.1-0.1,0.1-0.2,0.2-0.2c0.1,0,0.1,0.1,0.1,0.3c0,0.1,0,0.2,0,0.3c0,0.4,0.2,0.7,0.6,0.8c0.2,0.1,0.6,0.1,1.1,0.1
		c1.5,0,2.2-0.2,2.2-0.7c0-0.7-0.9-1.7-2.6-2.9l0.3-1c0-0.1,0.1-0.1,0.1-0.1c0,0,0.1,0,0.2,0.1C444.8,206,445.7,207.3,445.7,208.4z" id="PATH_74" class="area" title=""></path>
	<path d="M450.8,210.1c0,1.5-0.5,2.8-1.5,3.8c-0.3,0.3-0.5,0.5-0.6,0.5c-0.6,0-1.2-0.1-1.9-0.2c-0.3,0-0.4-0.1-0.4-0.1
		c0,0,0.1-0.1,0.4-0.2c0.8-0.2,1.6-0.7,2.3-1.3c0.3-0.3,0.6-0.5,0.8-0.9c0.3-0.4,0.5-0.8,0.5-1.1v-0.3l-1.3,0
		c-0.9,0-1.4-0.4-1.4-1.1c0-0.5,0.1-1,0.4-1.6c0.3-0.6,0.7-1,1.1-1c0.6,0,1.1,0.4,1.4,1.3C450.7,208.6,450.8,209.3,450.8,210.1z
		 M450.1,209.3c0-0.3-0.1-0.6-0.3-0.9c-0.2-0.3-0.5-0.5-0.8-0.5c-0.2,0-0.4,0.1-0.5,0.2s-0.2,0.3-0.2,0.5c0,0.5,0.3,0.7,1,0.7
		C449.4,209.4,449.7,209.3,450.1,209.3z" id="PATH_75" class="area" title=""></path>
	<path d="M455.9,210.6c0,1-0.3,1.9-0.9,2.8c-0.5,0.7-1,1.1-1.3,1.1c-0.8,0-1.4,0-2-0.1c-0.2,0-0.3-0.1-0.3-0.1s0.1-0.1,0.3-0.1
		c0.8-0.2,1.6-0.6,2.4-1.2c0.8-0.7,1.3-1.4,1.3-2.1c0-0.4-0.3-1-1-1.7l0.5-0.9c0-0.1,0.1-0.1,0.1-0.1c0,0,0.1,0.1,0.1,0.1
		c0.2,0.3,0.5,0.7,0.6,1.2C455.8,209.8,455.9,210.2,455.9,210.6z" id="PATH_76" class="area" title=""></path>
	<path d="M462,208.4c0,1.4-0.9,2.1-2.8,2.1c-0.7,0-1.2-0.1-1.5-0.3c-0.4-0.2-0.6-0.7-0.6-1.3c0-0.3,0.1-0.6,0.2-0.9
		c0.1-0.1,0.1-0.2,0.2-0.2c0.1,0,0.1,0.1,0.1,0.3c0,0.1,0,0.2,0,0.3c0,0.4,0.2,0.7,0.6,0.8c0.2,0.1,0.6,0.1,1.1,0.1
		c1.5,0,2.2-0.2,2.2-0.7c0-0.7-0.9-1.7-2.6-2.9l0.3-1c0-0.1,0.1-0.1,0.1-0.1c0,0,0.1,0,0.2,0.1C461.2,206,462,207.3,462,208.4z" id="PATH_77" class="area" title=""></path>
</g>
</svg>


