



    


<svg version="1.1" id="Layer_1" xmlns="http://www.w3.org/2000/svg" xmlns:xlink="http://www.w3.org/1999/xlink" x="0px" y="0px" viewBox="0 0 654 278" style="enable-background:new 0 0 654 278;" xml:space="preserve" width="100%" height="100%">
<style type="text/css">
	.st0{fill:#E8D0E5;stroke:#020202;stroke-width:0.2;stroke-miterlimit:10;}
	.st1{fill:#DBECCB;stroke:#020202;stroke-width:0.2;stroke-miterlimit:10;}
	.st2{fill:#FBD1D1;stroke:#020202;stroke-width:0.2;stroke-miterlimit:10;}
	.st3{fill:#FDFAD6;stroke:#020202;stroke-width:0.2;stroke-miterlimit:10;}
	.st4{fill:none;stroke:#040404;stroke-width:0.5;stroke-miterlimit:10;}
</style>

			<path class="st0 area active" d="M58.5,64.6c0-1,1.6-3.1,2.1-3.1c9.3-1.4,18.5-6.1,21.9-14.4l-14-7.1l-2.2-2.2l-5-4.8L59,31.9l-3.4-0.6
				l-7.8-5c0,0.1,0,0.2-0.1,0.3l-8.4,19.6c-0.1,0.2-8.5,18.3-11.2,25.2C25.6,77.7,13.8,88.2,9.4,92c3.3,1,6.2,1.8,8.4,1.8
				c3.7,0,10.1,3.1,18.1,8C48,93.2,56.7,79.9,58.5,64.6z" id="_x631__x627__x645__x633__x631_" title="رامسر"></path>
			<path class="st1 area" d="M108,129.7c0-1.6-2.6-2.6-3.7-4.2c-2.6-4.7,5.2-9.9,8.3-7.3c10.4,7.8,20.8-0.5,23.4-7.8
				c1.6-5.2-10.4-7.3-13.5-14c-1.6-3.1-0.5-6.3,3.1-6.8c-1.6-6.6,0.7-11.5,5.6-14.8l-13.1-5.6l-23.5-16l-12.1-6.1
				c-3.4,8.4-12.7,13-21.9,14.4c-0.5,0-2.1,2.1-2.1,3.1C56.7,79.9,48,93.2,35.9,101.7c7.2,4.4,15.8,10.2,24.9,16.6
				c6,4.2,11.3,7.8,14.1,9.4c9.4,5.4,10.7,22.3,10.9,27.2c3,1.5,11.6,5.9,19.5,10.3C111.5,154.6,108.9,141.3,108,129.7z" id="_x62A__x646__x6A9__x627__x628__x646_" title="تنکابن"></path>
			<path class="st2 area" d="M154.3,101.6c10.1-0.9,9.3-11.6,8.9-20.6l-31.3-5.9l-0.7-0.3c-4.9,3.3-7.2,8.2-5.6,14.8
				c-3.6,0.5-4.7,3.6-3.1,6.8c3.1,6.8,15.1,8.8,13.5,14.1c-0.2,0.6-0.5,1.1-0.7,1.7c0.5-0.1,0.9-0.3,1.3-0.6
				C142.3,107.3,147,102.6,154.3,101.6z" id="_x639__x628__x627__x633___x622__x628__x627__x62F_" title="عباس آباد"></path>
			<path class="st1 area" d="M190.2,116.1c5.7-2.1,1.6-11.4-2.1-16.7c-1-2.6,1.6-4.2,2.6-6.2c0.6-2.2,0.1-4.1-0.4-6.1l-12.4-3.3L163.2,81
				c0.3,7.9,1,17.2-5.8,19.9c0.6,2,1.2,4,2,5.9C164.7,117.7,180.3,120.3,190.2,116.1z" id="_x686__x627__x644__x648__x633_" title="چالوس"></path>
			<path class="st0 area" d="M231.3,174.4c4.7,1.6,9.4-3.1,9.9-6.8c1-8.3,8.8-12,11.4-18.7c1.6-4.2-3.1-6.2-5.7-8.8
				c-1-1.6,0.5-2.6,1.6-3.6c5.7-7.3,22.4-6.8,18.7-19.8c-0.5-0.5,1.6-1.6,2.1-2.1c0.9-3.5-0.4-6.6-1.5-9.9l-1.2,0.1l-29.2-7.9
				l-30.3-5.3l-16.8-4.5c0.5,2,1,4,0.4,6.1c-1,2.1-3.7,3.6-2.6,6.2c3.6,5.2,7.8,14.6,2.1,16.7c-5,2.1-11.5,2.5-17.4,0.9
				c-3.2,5.3-4.1,12.1-0.3,17.8c4.7,6.2,0,13-4.2,19.3c-1,1.6-1.6,4.7,0.5,6.3c2.5,1.8,4.5,3.9,5.7,6.2c4,2.3,8.5,3.7,13,4.2
				C202.1,171.8,217.2,168.7,231.3,174.4z" id="_x646__x648__x634__x647__x631_" title="نوشهر"></path>
			<path class="st3 area" d="M329.6,116.7c1.6,1.6,3.6,0.5,5.2-0.5c1.6-2.1,1.6-5.2,3.1-6.2c3.6-2.6,8.3,0.5,11.4-2.1
				c7.5-5.5,7.3-15.3,9.6-23.9l-6.6,1.2l-28.3,6.5L311.5,96c0.2,0.3,0.3,0.5,0.4,0.8c1,3.1,0.5,6.2-1,9.4c-1.6,3.6,3.6,6.2,7.3,7.3
				c0.4,0,0.8,0.2,1.2,0.5C323.1,113.9,326.7,114,329.6,116.7z" id="_x645__x62D__x645__x648__x62F___x622__x628__x627__x62F_" title="محمود آباد"></path>
			<path class="st1 area" d="M356.5,95.9c-1.2,4.7-3,8.9-7,11.9c-3.1,2.6-7.8-0.5-11.4,2.1c-1.6,1-1.6,4.2-3.1,6.2
				c-1.6,1-3.6,2.1-5.2,0.5c-3-2.6-6.6-2.8-10.3-2.6c0.7,0.5,1.3,1.4,0.9,2.1c-2.1,3.1-5.7,6.2-2.6,9.4c3.6,4.7,5.2,9.4,8.3,14.6
				c0.5,1.6,2.6,2.6,3.1,4.2c1.6,3.1,0.5,7.3-2.1,7.8c-5.7,1-12.5-2.1-14.6,5.7c-2.1,10.4,3.1,19.3,12.5,24.5
				c4.2,2.6,8.3,9.9,2.6,13c-3.1,2.1-6.8-3.6-10.9-0.5c-2.1,1.6-4.2,4.7-6.8,3.6c-3.1-1.6-6.8-3.6-9.9-2.1c-7.3,2.6-15.6,0-22.4,4.2
				c-6.2,3.6-7.3,12.5-14.1,16.1c-6.2,3.1-12.5-0.5-18.7-2.1c-2.4-0.7-4.5,0.4-6.8,1.3c3.5,1.8,6.5,3.4,8.2,4.7
				c6.3,4.7,12,13.8,14.8,23.6c1.5,5.1,6.9,7.2,13.2,9.6c4.3,1.6,8.7,3.3,12.6,6.1c7.8,5.6,12.6,5.4,18.2,5.3c1,0,2-0.1,3-0.1
				c6.3,0,17.3-2.6,24.2-6.7c7.3-4.4,19.2-13.9,23-21.6c1-2.1,3.1-3.6,6.2-4.5c1.8-0.5,4-0.8,6.3-1c1-4,2.5-8-1.7-11.4
				c-1.6-1.6,2.1-4.2,4.7-3.6c-4.2-3.1-7.3-8.3-5.2-13c2.6-5.7,3.1-12,1.6-16.7c-2.1-5.7-9.9-8.3-14-13.5c-1-2.1,1.6-2.1,3.1-2.6
				c-3.1-8.8,3.7-13,9.9-18.2c1.6-1,1.6-4.2,1-6.8c-1.6-6.2-9.4-11.4-6.3-17.2c4.2-6.2,10.4-13,6.3-20.8c0.5-0.2,1-0.3,1.6-0.5
				C363.4,104.5,359.4,100.7,356.5,95.9z" id="_x622__x645__x644_" title="آمل"></path>
			<path class="st2 area" d="M373.9,91.2c3.2-3.5,4.9-7.1,5.5-10.9L359,84c-1,3.9-1.6,8.1-2.5,11.9c2.9,4.8,7,8.6,12.2,10.9
				c4.6-1.4,8.6-2.7,6.3-7.9C373.9,96.4,372.3,92.7,373.9,91.2z" id="_x641__x631__x6CC__x62F__x648__x646___x6A9__x646__x627__x631_" title="فریدون کنار"></path>
			<path class="st1 area" d="M389,101.6c3.1-2.6,9.9,0.5,13.5-2.6c3.1-2.6,7.8-0.5,9.4-3.6c1.6-3.1,4.7-4.7,5.7-7.3
				c0.5-2.1,1-5.2-2.1-5.2c0.9-3.7,3-6.9,2.8-10.9l-8.7,2.5l-28.1,5.3l-2.2,0.4c-0.6,3.9-2.4,7.4-5.5,10.9c-1.6,1.6,0,5.2,1,7.8
				c1.2,2.6,0.7,4.3-0.6,5.4c1.4,0.9,2.8,1.8,4.2,2.4C382.7,108.8,386.4,104.7,389,101.6z" id="_x628__x627__x628__x644__x633__x631_" title="بابلسر"></path>
			<path class="st3 area" d="M423.8,107.8c3.6,2.6,8.8,3.1,11.4-0.5c0.5-1.6-2.1-4.7-0.5-5.2c3.6-1.6,8.8-2.1,9.9-5.2
				c0.5-4.2-0.5-6.8,0.5-10.9c1-2.6-4.7-6.2-2.6-8.8c4-4.4,3.4-8.5,1.2-12.5l-6.1,1.8L418.3,72c0.2,3.9-1.9,7.2-2.8,10.9
				c3.1,0,2.6,3.1,2.1,5.2c-1,2.6-4.2,4.2-5.7,7.3c-0.1,0.3-0.3,0.5-0.4,0.7C415.6,99.7,419.2,104.4,423.8,107.8z" id="_x62C__x648__x6CC__x628__x627__x631_" title="جویبار"></path>
			<path class="st2 area" d="M412.4,115.1c3.9,1.7,7.8-3.3,11.6-7.2c-0.1,0-0.1-0.1-0.2-0.1c-4.7-3.4-8.2-8.1-12.4-11.8
				c-1.9,2.1-6.1,0.6-8.9,3c-0.6,0.5-1.2,0.8-1.9,1C405,105,406.4,112.7,412.4,115.1z" id="_x633__x6CC__x645__x631__x63A_" title="سیمرغ"></path>
			<path class="st0 area" d="M403,211.4c2.1-3.6-5.2-5.2-5.7-7.8c-1-4.7,0-9.9-4.2-14.1c-2.1-2.1-1-6.8,1-9.4c3.1-4.2,7.8-6.2,11.4-10.4
				c0.5-1,3.7,0,5.2-0.5c1.6-1,3.6-3.1,3.1-5.7c-0.5-2.1-3.1-4.2-3.1-5.7c0.5-9.4-5.2-15.1-10.9-21.3c-0.5-0.5-0.5-2.6,0-2.6
				c5.7-3.6,9.9-7.8,8.3-14.6c1.6,0,1-2.1,2.6-2.1c0-1,0-1.9-0.1-2.9c-4.7-3-6.2-9.7-10.1-14.3c-3.8,1.3-9-0.6-11.7,1.6
				c-2.6,3.1-6.2,7.3-10.4,5.2c-1.4-0.6-2.8-1.5-4.2-2.4c-1.6,1.4-4.4,2.1-7.2,2.9c4.2,7.8-2.1,14.6-6.3,20.8
				c-3.1,5.7,4.7,10.9,6.3,17.2c0.5,2.6,0.5,5.7-1,6.8c-6.2,5.2-13,9.4-9.9,18.2c-1.6,0.5-4.2,0.5-3.1,2.6c4.1,5.2,12,7.8,14,13.5
				c1.6,4.7,1,10.9-1.6,16.7c-2.1,4.7,1,9.9,5.2,13c-2.6-0.5-6.2,2.1-4.7,3.6c4.2,3.4,2.8,7.5,1.7,11.4c7.5-0.4,16.8,1.1,23.6,3.1
				C388.8,223.2,398.4,219.5,403,211.4z" id="_x628__x627__x628__x644_" title="بابل"></path>
			<path class="st3 area" d="M481.1,228.5c4.7-11.4-7.8-16.1-13.5-24.5c-6.2-8.8-3.6-17.7,1-27.1c2.6-5.2-5.2-11.5-12-12.5
				c-7.3-1.6-13.5,2.1-19.8,4.2c-7.3,2.1-13-3.1-19.3-5.7c-1.3-0.6-2.7-0.8-4.2-0.8c0.3,0.4,0.5,0.9,0.6,1.3
				c0.5,2.6-1.6,4.7-3.1,5.7c-1.6,0.5-4.7-0.5-5.2,0.5c-3.6,4.2-8.3,6.2-11.4,10.4c-2.1,2.6-3.1,7.3-1,9.4c4.2,4.2,3.1,9.4,4.2,14
				c0.5,2.6,7.8,4.2,5.7,7.8c-4.6,8.2-14.2,11.8-11.6,22.8c3.2,0.9,5.9,2,7.5,2.9c4.1,2.5,16.4,5.1,26.3,7.3
				c6.5,1.4,12.1,2.6,15.4,3.7c1,0.3,2,0.7,3.1,1c0.2-0.3,0.4-0.6,0.8-0.8c0.8-0.5,20.2-11.5,30.5-11.5c2.8,0,5.2-1.4,7.3-3.5
				C481.3,231.8,480.3,230.1,481.1,228.5z" id="_x633__x648__x627__x62F__x6A9__x648__x647_" title="سوادکوه"></path>
			<path class="st2 area" d="M456.6,157.2c-5.2-4.2-7.4-8.5-10.4-13.8c-4.5,1.6-9-1.7-14-0.7c-7.9,2.2-14.6,6.6-22.5,7.3
				c0.9,2.3,1.3,4.9,1.1,7.8c0,1.2,1.6,2.8,2.5,4.4c1.5,0,2.9,0.3,4.2,0.8c6.2,2.6,12,7.8,19.2,5.7c6.2-2.1,12.4-5.6,19.6-4.2
				C459,162.4,460.2,160.3,456.6,157.2z" id="_x633__x648__x627__x62F__x6A9__x648__x647_" title="سوادکوه"></path>
			<path class="st0 area" d="M570.6,153.6c-3.6,2.6-8.3-1.6-11.4,0.5c-9.4,6.3-21.9,7.8-29.1,0c-3.6-4-6-9.5-9.6-14
				c-8.8,2.6-21.7,7.2-27.4-2.1c-1.6-2.6,1-5.7,0-7.3c-6.2-9.9-13.5-18.2-23.4-23.9c2.6-4.7-0.5-9.4,1-14.1c0.5-1,1-2.1,1.6-2.6
				c2.6-4.2-3.6-6.2-4.1-9.4c-1-7.6,2.4-15.7-2.7-22.3l-0.5,0.1l-21.1,6.1c2.2,4,2.7,8.1-1.2,12.5c-2.1,2.6,3.6,6.2,2.6,8.8
				c-1,4.2,0,6.8-0.5,10.9c-1,3.1-6.2,3.6-9.9,5.2c-1.6,0.5,1,3.6,0.5,5.2c-0.4,0.6-0.9,1-1.4,1.4c-2.7,10.4,11.2,16.4,16,24.6
				c1.6,3.1,0,8.3-3.1,9.9c-0.2,0.1-0.4,0.1-0.5,0.2c3.1,5.4,5.3,9.6,10.4,13.8c3.6,3,2.3,5.2-0.2,7.2c0.1,0,0.1,0,0.2,0
				c6.8,1,14.6,7.3,12,12.5c-4.7,9.4-7.3,18.2-1,27.1c5.7,8.3,18.2,13,13.5,24.5c-0.8,1.6,0.3,3.2,1.3,4.8c2.1-2,3.9-4.7,5.9-7.5
				c2-2.8,4-5.7,6.3-8.1c7.6-7.6,16.6-11.8,25.3-11.8c7.4,0,27.4-1.1,31.4-1.4c4.6-4.1,35-30.8,41.6-36.1c4.5-3.6,4.8-8.3,1-14
				c-1.7-2.6-1.1-6.3-0.4-8.9C585.3,145.1,577.8,149.4,570.6,153.6z" id="_x633__x627__x631__x6CC_" title="ساری"></path>
			<path class="st0 area" d="M553.4,73.5c0,2.1-3.6,3.1-4.2,5.2c-2.1,10.4,9.4,12,17.2,10.9c1,0,1.6,1.6,1.6,2.1
				c1,9.9,7.8,16.1,17.7,13.5c7.4-2.3,14.3-6.8,21.6-8.5c-5.8-2.3-10.7-4.4-11.1-4.5c-1.1-0.5-9.5-4.9-11-11.2
				c-1.5-5.8-1.5-16.9-1.5-17.3c0-0.8,0.5-1.5,1.2-1.9l-23.2-2.1h-0.5C556.1,62,554.3,67.9,553.4,73.5z" id="_x6AF__x644__x648__x6AF__x627__x647_" title="گلوگاه"></path>
			<path class="st2 area" d="M468.1,80.7c0.5,3.1,6.8,5.2,4.1,9.4c-0.5,0.5-1,1.6-1.6,2.6c-1.6,4.7,1.6,9.4-1,14.1
				c9.9,5.7,17.2,14.1,23.4,23.9c1,1.6-1.6,4.7,0,7.3c5.7,9.4,18.7,4.7,27.6,2.1c-2.6-10.9-9.9-22.9-22.4-23.9
				c-1-0.5-2.6-1.6-2.1-2.6c1-8.8-7.3-11.4-10.9-17.7c-0.5-1.6-1-3.1-0.5-4.7c1.6-2.6,4.2-4.7,3.1-7.8c-1.6-2.6-4.7-4.7-3.6-7.8
				c2.4-6.4-0.4-14.2-4.6-20.1l-14.2,3C470.5,65.1,467.1,73.2,468.1,80.7z" id="_x645__x6CC__x627__x646___x62F__x631__x648__x62F_" title="میان درود"></path>
			<path class="st1 area" d="M449.9,133.3c-4.8-8.2-18.7-14.2-16-24.6c-2.7,2-6.8,1.3-9.9-0.8c-3.9,3.9-7.8,8.9-11.6,7.2
				c-0.6-0.2-1.1-0.5-1.6-0.8c0.1,1,0.1,1.9,0.1,2.9c-1.6,0-1,2.1-2.6,2.1c1.6,6.8-2.6,10.9-8.3,14.6c-0.5,0-0.5,2.1,0,2.6
				c3.9,4.3,7.9,8.4,9.8,13.5c7.8-0.7,14.6-5.1,22.5-7.3c5-1,9.5,2.3,14,0.7c-0.3-0.6,0.4,0.6,0,0c0.4,0.6-0.3-0.6,0,0
				c0.2-0.1,0.4-0.1,0.5-0.2C449.9,141.6,451.4,136.4,449.9,133.3z" id="_x642__x627__x626__x645___x634__x647__x631_" title="قائم شهر"></path>
			<path class="st2 area" d="M244.8,214.5c6.2,1.6,12.5,5.2,18.7,2.1c6.8-3.6,7.8-12.5,14.1-16.1c6.8-4.2,15.1-1.6,22.4-4.2
				c3.1-1.6,6.8,0.5,9.9,2.1c2.6,1,4.7-2.1,6.8-3.6c4.2-3.1,7.8,2.6,10.9,0.5c5.7-3.1,1.6-10.4-2.6-13c-9.4-5.2-14.6-14.1-12.5-24.5
				c2.1-7.8,8.8-4.7,14.6-5.7c2.6-0.5,3.6-4.7,2.1-7.8c-0.5-1.6-2.6-2.6-3.1-4.2c-3.1-5.2-4.7-9.9-8.3-14.6
				c-3.1-3.1,0.5-6.2,2.6-9.4c0.5-1-1-2.6-2.1-2.6c-3.6-1-8.8-3.6-7.3-7.3c1.6-3.1,2.1-6.2,1-9.4c-0.1-0.3-0.2-0.6-0.4-0.8
				l-14.4,5.1l-29.4,3.5c1.1,3.3,2.4,6.5,1.5,9.9c-0.5,0.5-2.6,1.6-2.1,2.1c3.6,13-13,12.5-18.7,19.8c-1,1-2.6,2.1-1.6,3.6
				c2.6,2.6,7.3,4.7,5.7,8.8c-2.6,6.8-10.4,10.4-11.4,18.7c-0.5,3.6-5.2,8.3-9.9,6.8c-14-5.7-29.1-2.6-43.7-3.6
				c-4.5-0.4-9-1.9-13-4.2c2.3,4.4,2,9.5-2,14.6c-1.3,1.7-1.9,4.6-0.8,7.3c5,0.4,9.9,0.7,13,0.7c2.6,0,5.4,0.5,8.3,1.4
				c0.1,0,0.2,0,0.3,0c0.4,0,0.7,0.2,1,0.4c5.6,1.9,11.6,5.4,16.9,9.9c4.7,3.9,13.7,8.4,21.7,12.4c1.8,0.9,3.5,1.7,5.1,2.5
				C240.3,214.9,242.4,213.8,244.8,214.5z" id="_x646__x648__x631_" title="نور"></path>
			<path class="st3 area" d="M172.5,181.2c6.2-7.8,3.6-15.6-3.6-20.8c-2.1-1.6-1.6-4.7-0.5-6.2c4.2-6.2,8.8-13,4.2-19.3
				c-3.8-5.7-2.9-12.5,0.3-17.8c-5.7-1.5-10.8-4.9-13.4-10.3c-0.9-1.9-1.4-3.9-2-5.9c-0.9,0.4-2,0.6-3.2,0.7c-7.3,1-12,5.7-17.7,9.9
				c-0.4,0.3-0.8,0.5-1.2,0.6c-3.5,6.8-13.1,13.3-22.7,6.1c-3.1-2.6-10.9,2.6-8.3,7.3c1,1.6,3.7,2.6,3.7,4.2
				c0.9,11.6,3.5,25-2.7,35.5c6.1,3.4,12,6.8,14.8,9c6.2,5,27.4,10.2,34.3,11.9l1.3,0.3c2.9,0.7,9.5,1.5,15.9,2.1
				C170.6,185.7,171.2,182.9,172.5,181.2z" id="_x6A9__x644__x627__x631__x62F__x634__x62A_" title="کلاردشت"></path>

			<path class="st1 area" d="M579.6,124.5c-1.9-1.6-4.1,1.3-6,1.9c-4.1,1.3-11.3-0.6-11.3-4.1c0.9-12-11-14.8-19.2-18
				c-4.1-1.6-8.8,0.6-12.9,2.5c-1.3,0.6-3.8-0.9-3.8-2.5c0.3-2.5,1.3-5.4-1.6-6.3c-5.7-2.2-14.8,2.2-16.7-5
				c-1.3-5.7,4.7-10.4,0.9-16.1c-4.1-6-10.7-6.9-17-8.5c-0.6-0.3-1.6-0.9-1.9-1.6c-2.2-4.3,1.7-9.8-1.7-13.3l-8.8,1.9
				c4.2,5.9,7,13.8,4.6,20.1c-1,3.1,2.1,5.2,3.6,7.8c1,3.1-1.6,5.2-3.1,7.8c-0.5,1.6,0,3.1,0.5,4.7c3.6,6.2,12,8.8,10.9,17.7
				c-0.5,1,1,2.1,2.1,2.6c12.5,1,19.8,13,22.4,23.9c-0.1,0-0.1,0-0.2,0.1c3.6,4.5,6,10,9.6,14c7.3,7.8,19.8,6.2,29.1,0
				c3.1-2.1,7.8,2.1,11.5-0.5c7.2-4.2,14.8-8.5,22.9-7.9c0.2-0.8,0.5-1.5,0.7-2c1.6-4.2,5.1-9.6,9.4-10.6c3.6-0.9,7.4-2.1,10.8-3.4
				c0.1,0,0.2-0.1,0.3-0.1c-1.2-0.8-2.5-1.4-3.9-1.5C600.7,127.3,589.4,131.8,579.6,124.5z" id="_x646__x6A9__x627_" title="نکا"></path>
			<path class="st3 area" d="M625.4,106c-0.9-2.1-2.1-3.3-3.8-3.9c-3.8-1.3-9.4-3.4-14.3-5.4c-7.3,1.7-14.3,6.2-21.6,8.5
				c-9.9,2.6-16.7-3.6-17.7-13.5c0-0.5-0.5-2.1-1.6-2.1c-7.8,1-19.3-0.5-17.2-10.9c0.5-2.1,4.2-3.1,4.2-5.2
				c0.9-5.5,2.7-11.5,7.7-13.8h-0.3l-6.7-2.8l-3.9-5l1.4-0.3l3.4-0.8l-5.6,0.3l-2.2-0.8l-1.1-2.2h8.4l9.5,1.4l2.5-0.6l4.5-1.7
				l2.5-0.3l4.5,1.1l2.2,0.3l2-0.8l7.6-2.2l11.8-1.4l9.3-3.1l0.3-7.3l-7.9,6.4l-11.8,2.5l-64.8,3.7l-7.3,1.1l-30.9,6.5
				c3.4,3.5-0.5,9,1.7,13.3c0.3,0.6,1.3,1.3,1.9,1.6c6.3,1.6,12.9,2.5,17,8.5c3.8,5.7-2.2,10.4-0.9,16.1c1.9,7.2,11,2.8,16.7,5
				c2.8,0.9,1.9,3.8,1.6,6.3c0,1.6,2.5,3.2,3.8,2.5c4.1-1.9,8.8-4.1,12.9-2.5c8.2,3.2,20.2,6,19.2,18c0,3.5,7.2,5.4,11.3,4.1
				c1.9-0.6,4.1-3.5,6-1.9c9.8,7.2,21.1,2.8,31.2,3.5c1.4,0.2,2.7,0.7,3.9,1.5c4.9-2,8.8-4.3,10-6.5
				C626.4,119.4,627.5,111.2,625.4,106z" id="_x628__x647__x634__x647__x631_" title="بهشهر"></path>
	<line class="st4 area" x1="401.3" y1="92.5" x2="393.8" y2="67.4" id="LINE_27" title=""></line>
	<line class="st4 area" x1="334.1" y1="99.8" x2="326.6" y2="74.7" id="LINE_28" title=""></line>
	<line class="st4 area" x1="432.2" y1="87.2" x2="439.8" y2="51.2" id="LINE_29" title=""></line>
	<line class="st4 area" x1="476.4" y1="83.7" x2="476.4" y2="25.1" id="LINE_30" title=""></line>
	<line class="st4 area" x1="507.1" y1="232.1" x2="433" y2="156.6" id="LINE_31" title=""></line>
	<line class="st4 area" x1="579" y1="82.6" x2="599.4" y2="72" id="LINE_32" title=""></line>
	<line class="st4 area" x1="175.1" y1="100.9" x2="182.9" y2="73.4" id="LINE_33" title=""></line>
	<line class="st4 area" x1="142.6" y1="92.1" x2="150.4" y2="48.4" id="LINE_34" title=""></line>
	<line class="st4 area" x1="54.1" y1="51.7" x2="71.4" y2="29.1" id="LINE_35" title=""></line>
</g>
<g id="G_36" class="area" title="">
	<path d="M73.6,18h-0.4c-0.4,0-0.6-0.1-0.8-0.2c0,0.1,0,0.2,0,0.3c0,0.9-0.3,1.8-0.9,2.7c-0.5,0.8-1,1.1-1.3,1.1c-0.8,0-1.4,0-2-0.1
		c-0.2,0-0.3-0.1-0.3-0.1s0.1-0.1,0.3-0.1c0.8-0.2,1.6-0.6,2.4-1.2c0.8-0.7,1.3-1.4,1.3-2.1c0-0.4-0.3-1-1-1.7l0.5-0.9
		c0-0.1,0.1-0.1,0.1-0.1c0,0,0.1,0.1,0.1,0.1c0.3,0.4,0.5,0.7,0.7,0.8c0.3,0.2,0.7,0.4,1.1,0.4h0.3V18z" id="PATH_37" class="area" title=""></path>
	<path d="M82.9,18h-0.6c-0.7,0-1.1-0.3-1.4-0.8c-0.2,0.6-0.7,0.8-1.3,0.8c-0.6,0-1-0.3-1.3-0.8C78,17.7,77.6,18,77,18
		c-0.7,0-1.2-0.3-1.5-0.8c-0.4,0.6-0.9,0.8-1.6,0.8h-0.7v-1.2H74c0.7,0,1.2-0.4,1.3-1.2c0-0.2,0.1-0.3,0.2-0.3
		c0.1,0,0.1,0.1,0.2,0.3c0.1,0.8,0.5,1.2,1.3,1.2c0.7,0,1.2-0.4,1.2-1.2c0-0.2,0.1-0.3,0.2-0.3c0.1,0,0.2,0.1,0.2,0.3
		c0.1,0.8,0.5,1.2,1,1.2c0.7,0,1.2-0.4,1.2-1.2c0-0.2,0.1-0.3,0.2-0.3c0.1,0,0.2,0.1,0.2,0.3c0.1,0.8,0.5,1.2,1.2,1.2h0.6V18z" id="PATH_38" class="area" title=""></path>
	<path d="M87.8,16c0,0.5,0,0.9-0.2,1.3c-0.2,0.5-0.5,0.8-0.8,0.8c-0.5,0-1.3-0.3-2.3-1c-0.3,0.4-0.5,0.6-0.6,0.7
		c-0.3,0.2-0.6,0.3-1,0.3h-0.5v-1.2h0.7c0.4,0,0.8-0.2,1.2-0.7c0.2-0.2,0.5-0.7,0.9-1.3c0.3-0.5,0.7-0.7,1-0.7
		c0.5,0,0.9,0.2,1.2,0.7C87.7,15.3,87.8,15.6,87.8,16z M87.2,16.7c0-0.3-0.1-0.6-0.3-1c-0.2-0.4-0.5-0.6-0.8-0.6
		c-0.3,0-0.6,0.3-1,0.9c0.2,0.2,0.5,0.4,0.9,0.6c0.4,0.2,0.8,0.3,1,0.3C87.2,17,87.2,16.9,87.2,16.7z" id="PATH_39" class="area" title=""></path>
	<path d="M90.2,16.8c0,0.4-0.1,0.8-0.3,1.1c-0.1,0.2-0.2,0.3-0.2,0.3c0,0-0.1-0.1-0.1-0.4c0-1.2-0.2-4-0.6-8.5l0.8-0.8
		C89.9,8.5,90,8.5,90,8.4c0,0,0,0.1,0,0.2C90.1,9.9,90.2,12.6,90.2,16.8z" id="PATH_40" class="area" title=""></path>
	<path d="M95.2,18.1c0,1-0.3,1.9-0.9,2.8c-0.5,0.7-1,1.1-1.3,1.1c-0.8,0-1.4,0-2-0.1c-0.2,0-0.3-0.1-0.3-0.1s0.1-0.1,0.3-0.1
		c0.8-0.2,1.6-0.6,2.4-1.2c0.8-0.7,1.3-1.4,1.3-2.1c0-0.4-0.3-1-1-1.7l0.5-0.9c0-0.1,0.1-0.1,0.1-0.1c0,0,0.1,0.1,0.1,0.1
		c0.2,0.3,0.5,0.7,0.6,1.2C95.1,17.3,95.2,17.7,95.2,18.1z" id="PATH_41" class="area" title=""></path>
</g>
<g id="G_42" class="area" title="">
	<path d="M132.8,34.9c0,1.4-0.9,2.1-2.8,2.1c-0.7,0-1.2-0.1-1.5-0.3c-0.4-0.2-0.6-0.7-0.6-1.3c0-0.3,0.1-0.6,0.2-0.9
		c0.1-0.1,0.1-0.2,0.2-0.2c0.1,0,0.1,0.1,0.1,0.3c0,0.1,0,0.2,0,0.3c0,0.4,0.2,0.7,0.6,0.8c0.2,0.1,0.6,0.1,1.1,0.1
		c1.5,0,2.2-0.2,2.2-0.7c0-0.7-0.9-1.7-2.6-2.9l0.3-1c0-0.1,0.1-0.1,0.1-0.1c0,0,0.1,0,0.2,0.1C132,32.5,132.8,33.8,132.8,34.9z" id="PATH_43" class="area" title=""></path>
	<path d="M136.8,37h-0.7c-0.7,0-1.3-0.3-1.5-0.9c-0.2-0.4-0.3-1.1-0.3-1.9v-1.9c0-0.9-0.1-2.2-0.2-3.9l0.6-0.7
		c0.1-0.1,0.2-0.1,0.2,0c0.1,0.9,0.2,2.2,0.2,3.9v2.9c0,0.8,0.4,1.2,1.2,1.2h0.5V37z" id="PATH_44" class="area" title=""></path>
	<path d="M139.2,35c0,1.3-0.7,2-2,2h-0.8v-1.2h0.7c1,0,1.5-0.2,1.5-0.5c0-0.3-0.2-0.7-0.7-1.2l0.4-1c0-0.1,0.1-0.1,0.1-0.1
		c0,0,0.1,0.1,0.2,0.2C139,33.7,139.2,34.4,139.2,35z M138.9,39.2l-0.8,0.8l-0.8-0.8l0.8-0.8L138.9,39.2z" id="PATH_45" class="area" title=""></path>
	<path d="M143.2,26.3c-0.4,0.4-1,0.5-1.6,0.5c-0.1,0-0.2,0-0.4,0s-0.3,0-0.4,0c-0.1,0-0.2,0.1-0.3,0.2c-0.1,0.1-0.2,0.2-0.2,0.2
		c-0.1,0-0.1-0.1-0.1-0.2c0-0.1,0.1-0.3,0.2-0.5c0.1-0.3,0.2-0.4,0.3-0.4c0.1,0,0.3,0,0.6,0.1c0.3,0,0.5,0.1,0.6,0.1
		c0.6,0,1,0,1.3-0.1c0.2,0,0.3-0.1,0.3-0.1c0,0,0.1,0,0.1,0C143.4,26.1,143.4,26.2,143.2,26.3z M142.6,35.8c0,0.4-0.1,0.8-0.3,1.1
		c-0.1,0.2-0.2,0.3-0.2,0.3c0,0-0.1-0.1-0.1-0.4c0-1.2-0.2-4-0.6-8.5l0.8-0.8c0.1-0.1,0.1-0.1,0.1-0.1c0,0,0,0.1,0,0.2
		C142.5,28.9,142.6,31.6,142.6,35.8z" id="PATH_46" class="area" title=""></path>
	<path d="M160.9,34.9c0,1.4-0.6,2.1-1.8,2.1c-0.7,0-1.1-0.3-1.3-0.9c-0.3,0.6-0.8,0.9-1.4,0.9c-0.2,0-0.5,0-0.7-0.1
		c0,0.6-0.1,1.2-0.1,1.9c-0.3,0.7-0.8,1.3-1.7,1.7c-0.8,0.3-1.6,0.5-2.5,0.5c-0.9,0-1.6-0.2-2.2-0.6c-0.6-0.5-0.9-1.1-0.9-2
		c0-0.5,0.1-0.9,0.3-1.5c0.2-0.4,0.3-0.7,0.5-0.9c0.1-0.1,0.2-0.1,0.2-0.1c0.1,0,0.1,0,0.1,0.1c0,0,0,0.1,0,0.2
		c-0.3,0.6-0.4,1.2-0.4,1.7c0,0.5,0.2,0.9,0.5,1.3c0.4,0.5,1.1,0.7,2,0.7c1,0,1.9-0.2,2.6-0.5c0.6-0.3,1-0.6,1.1-1
		c0.1-0.1,0.1-0.3,0-0.7c0-0.3-0.1-0.6-0.1-0.7c-0.1-0.3-0.4-0.8-1-1.5l0.4-0.8c0.1-0.1,0.1-0.2,0.1-0.2c0,0,0.1,0,0.1,0.1
		c0.3,0.4,0.5,0.7,0.6,0.8c0.3,0.3,0.6,0.4,1,0.4c0.4,0,0.8-0.1,1-0.4c0.1-0.2,0.2-0.4,0.3-0.9c0-0.2,0.1-0.3,0.2-0.3
		c0.1,0,0.1,0.1,0.1,0.3c0.1,0.5,0.2,0.8,0.4,1c0.2,0.2,0.6,0.3,1.1,0.3c0.2,0,0.4-0.1,0.5-0.2c0.2-0.1,0.3-0.3,0.3-0.5
		c0-0.3-0.2-0.6-0.6-1.1l0.5-0.9c0.1-0.1,0.1-0.1,0.1-0.1c0,0,0.1,0.1,0.1,0.1C160.8,33.8,160.9,34.3,160.9,34.9z" id="PATH_47" class="area" title=""></path>
	<path d="M164.9,37h-0.7c-0.7,0-1.3-0.3-1.5-0.9c-0.2-0.4-0.3-1.1-0.3-1.9v-1.9c0-0.9-0.1-2.2-0.2-3.9l0.6-0.7
		c0.1-0.1,0.2-0.1,0.2,0c0.1,0.9,0.2,2.2,0.2,3.9v2.9c0,0.8,0.4,1.2,1.2,1.2h0.5V37z" id="PATH_48" class="area" title=""></path>
	<path d="M169.8,37H169c-0.9,0-1.5-0.3-1.9-0.9c-0.3,0.6-1,0.9-2.1,0.9h-0.6v-1.2h0.9c1,0,1.5-0.4,1.6-1.1c0-0.3,0.1-0.5,0.2-0.5
		c0.1,0,0.2,0.2,0.2,0.5c0.1,0.7,0.6,1.1,1.5,1.1h0.9V37z M167.6,39.2l-0.8,0.8l-0.8-0.8l0.8-0.8L167.6,39.2z" id="PATH_49" class="area" title=""></path>
	<path d="M175.1,35l-0.3,0.9l-2.7,0.7c-0.8,0.2-1.5,0.3-2.1,0.3h-0.5v-1.2h0.8c0.2,0,0.4,0,0.8-0.1c-0.6-0.5-0.9-0.9-0.9-1.4
		c0-0.4,0.2-0.9,0.7-1.5c0.6-0.7,1.2-1.1,1.8-1.1c0.7,0,1.2,0.3,1.6,0.9c0.1,0.2,0.2,0.3,0.2,0.4c0,0,0,0.1-0.1,0.1
		c-0.1,0-0.2,0-0.5-0.1c-0.5-0.1-0.9-0.2-1.3-0.2c-0.3,0-0.6,0.1-1,0.3c-0.4,0.2-0.7,0.4-0.7,0.7c0,0.2,0.2,0.5,0.5,0.8
		c0.4,0.4,0.9,0.6,1.4,0.6c0.2,0,0.9-0.2,2.1-0.5c0.1,0,0.1,0,0.2,0c0,0,0,0,0,0C175.1,34.9,175.1,34.9,175.1,35z" id="PATH_50" class="area" title=""></path>
</g>
<g id="G_51" class="area" title="">
	<path d="M186,58.2c0,1.4-0.6,2.1-1.8,2.1c-0.7,0-1.1-0.3-1.3-0.9c-0.3,0.6-0.8,0.9-1.4,0.9c-0.2,0-0.5,0-0.7-0.1
		c0,0.6-0.1,1.2-0.1,1.9c-0.3,0.7-0.8,1.3-1.7,1.7c-0.8,0.3-1.6,0.5-2.5,0.5c-0.9,0-1.6-0.2-2.2-0.6c-0.6-0.5-0.9-1.1-0.9-2
		c0-0.5,0.1-0.9,0.3-1.5c0.2-0.4,0.3-0.7,0.5-0.9c0.1-0.1,0.2-0.1,0.2-0.1c0.1,0,0.1,0,0.1,0.1c0,0,0,0.1,0,0.2
		c-0.3,0.6-0.4,1.2-0.4,1.7c0,0.5,0.2,0.9,0.5,1.3c0.4,0.5,1.1,0.7,2,0.7c1,0,1.9-0.2,2.6-0.5c0.6-0.3,1-0.6,1.1-1
		c0.1-0.1,0.1-0.3,0-0.7c0-0.3-0.1-0.6-0.1-0.7c-0.1-0.3-0.4-0.8-1-1.5l0.4-0.8c0.1-0.1,0.1-0.2,0.1-0.2c0,0,0.1,0,0.1,0.1
		c0.3,0.4,0.5,0.7,0.6,0.8c0.3,0.3,0.6,0.4,1,0.4c0.4,0,0.8-0.1,1-0.4c0.1-0.2,0.2-0.4,0.3-0.9c0-0.2,0.1-0.3,0.2-0.3
		c0.1,0,0.1,0.1,0.1,0.3c0.1,0.5,0.2,0.8,0.4,1c0.2,0.2,0.6,0.3,1.1,0.3c0.2,0,0.4-0.1,0.5-0.2c0.2-0.1,0.3-0.3,0.3-0.5
		c0-0.3-0.2-0.6-0.6-1.1l0.5-0.9c0.1-0.1,0.1-0.1,0.1-0.1c0,0,0.1,0.1,0.1,0.1C185.8,57.1,186,57.6,186,58.2z" id="PATH_52" class="area" title=""></path>
	<path d="M192.2,60.3h-1.1c-0.1,1.4-0.6,2.5-1.6,3.5c-0.3,0.3-0.5,0.5-0.6,0.5c-0.5,0-1.2-0.1-1.9-0.2c-0.2,0-0.4-0.1-0.4-0.1
		s0.1-0.1,0.4-0.2c0.8-0.2,1.6-0.7,2.3-1.2c0.3-0.3,0.6-0.5,0.8-0.9c0.3-0.4,0.5-0.8,0.5-1.1v-0.3h-1.3c-1,0-1.4-0.4-1.4-1.2
		c0-0.5,0.1-1,0.4-1.6c0.3-0.6,0.7-1,1.1-1c0.5,0,0.9,0.3,1.2,1c0.2,0.5,0.4,1,0.4,1.6h1.1V60.3z M190.4,59.1c0-0.3-0.1-0.6-0.3-0.9
		c-0.2-0.4-0.5-0.5-0.8-0.5c-0.2,0-0.4,0.1-0.5,0.2c-0.2,0.2-0.2,0.3-0.2,0.6c0,0.5,0.4,0.7,1.2,0.7
		C189.8,59.2,190.1,59.1,190.4,59.1z" id="PATH_53" class="area" title=""></path>
	<path d="M194.5,52.4c0.1,0.1,0.1,0.2,0.1,0.2c0,0-0.1,0-0.2,0h-0.3c0.1,1.3,0.1,3.2,0.1,5.7c0,0.6-0.1,1.1-0.4,1.4
		c-0.3,0.4-0.8,0.6-1.3,0.6h-0.6v-1.2h0.5c0.8,0,1.2-0.3,1.1-0.9c-0.1-2.1-0.2-4.3-0.3-6.5l0.7-0.6c0.1-0.1,0.2-0.2,0.2-0.2
		c0,0,0,0.1,0.1,0.2C194.1,51.4,194.3,51.8,194.5,52.4z" id="PATH_54" class="area" title=""></path>
	<path d="M198.5,60.3h-0.7c-0.7,0-1.3-0.3-1.5-0.9c-0.2-0.4-0.3-1.1-0.3-1.9v-1.9c0-0.9-0.1-2.2-0.2-3.9l0.6-0.7
		c0.1-0.1,0.2-0.1,0.2,0c0.1,0.9,0.2,2.2,0.2,3.9v2.9c0,0.8,0.4,1.2,1.2,1.2h0.5V60.3z" id="PATH_55" class="area" title=""></path>
	<path d="M206.3,57.4l-0.4,0.8c-0.7,0-1.3,0-1.6,0.1c-0.4,0.2-1,0.4-1.8,0.8c-0.8,0.4-1.4,0.7-1.8,0.8c-0.6,0.2-1.3,0.3-1.9,0.3
		h-0.7v-1.2h0.8c0.9,0,1.7-0.2,2.4-0.5l2.3-1c-0.4-0.1-1-0.3-1.8-0.6c-0.7-0.3-1.1-0.4-1.3-0.4c-0.4,0-0.8,0.2-1.2,0.5
		c-0.1,0.1-0.1,0.1-0.2,0.1c-0.1,0-0.1,0-0.1-0.1c0,0,0-0.1,0-0.1c0.3-1,0.9-1.4,1.7-1.4c0.3,0,0.7,0.1,1.1,0.3
		c0.8,0.4,1.4,0.6,1.8,0.8c0.7,0.2,1.5,0.4,2.4,0.4c0.2,0,0.3,0,0.3,0.1C206.4,57.2,206.4,57.3,206.3,57.4z M200.8,62.2l0.7-0.7
		l0.7,0.7l-0.7,0.7L200.8,62.2z M201.7,63.7l0.7-0.7l0.7,0.7l-0.7,0.7L201.7,63.7z M202.6,62.2l0.7-0.7l0.7,0.7l-0.7,0.7L202.6,62.2
		z" id="PATH_56" class="area" title=""></path>
</g>
<g id="G_57" class="area" title="">
	<path d="M298.1,60c0,1.4-0.9,2.1-2.8,2.1c-0.7,0-1.2-0.1-1.5-0.3c-0.4-0.2-0.6-0.7-0.6-1.3c0-0.3,0.1-0.6,0.2-0.9
		c0.1-0.1,0.1-0.2,0.2-0.2c0.1,0,0.1,0.1,0.1,0.3c0,0.1,0,0.2,0,0.3c0,0.4,0.2,0.7,0.6,0.8c0.2,0.1,0.6,0.1,1.1,0.1
		c1.5,0,2.2-0.2,2.2-0.7c0-0.7-0.9-1.7-2.6-2.9l0.3-1c0-0.1,0.1-0.1,0.1-0.1c0,0,0.1,0,0.2,0.1C297.3,57.6,298.1,58.9,298.1,60z" id="PATH_58" class="area" title=""></path>
	<path d="M302.1,62.1h-0.7c-0.7,0-1.3-0.3-1.5-0.9c-0.2-0.4-0.3-1.1-0.3-1.9v-1.9c0-0.9-0.1-2.2-0.2-3.9l0.6-0.7
		c0.1-0.1,0.2-0.1,0.2,0c0.1,0.9,0.2,2.2,0.2,3.9v2.9c0,0.8,0.4,1.2,1.2,1.2h0.5V62.1z" id="PATH_59" class="area" title=""></path>
	<path d="M304.5,60.1c0,1.3-0.7,2-2,2h-0.8v-1.2h0.7c1,0,1.5-0.2,1.5-0.5c0-0.3-0.2-0.7-0.7-1.2l0.4-1c0-0.1,0.1-0.1,0.1-0.1
		c0,0,0.1,0.1,0.2,0.2C304.3,58.8,304.5,59.5,304.5,60.1z M304.1,64.3l-0.8,0.8l-0.8-0.8l0.8-0.8L304.1,64.3z" id="PATH_60" class="area" title=""></path>
	<path d="M308.5,51.4c-0.4,0.4-1,0.5-1.6,0.5c-0.1,0-0.2,0-0.4,0s-0.3,0-0.4,0c-0.1,0-0.2,0.1-0.3,0.2c-0.1,0.1-0.2,0.2-0.2,0.2
		c-0.1,0-0.1-0.1-0.1-0.2c0-0.1,0.1-0.3,0.2-0.5c0.1-0.3,0.2-0.4,0.3-0.4c0.1,0,0.3,0,0.6,0.1c0.3,0,0.5,0.1,0.6,0.1
		c0.6,0,1,0,1.3-0.1c0.2,0,0.3-0.1,0.3-0.1c0,0,0.1,0,0.1,0C308.7,51.2,308.6,51.3,308.5,51.4z M307.8,60.9c0,0.4-0.1,0.8-0.3,1.1
		c-0.1,0.2-0.2,0.3-0.2,0.3c0,0-0.1-0.1-0.1-0.4c0-1.2-0.2-4-0.6-8.5l0.8-0.8c0.1-0.1,0.1-0.1,0.1-0.1c0,0,0,0.1,0,0.2
		C307.8,54,307.8,56.7,307.8,60.9z" id="PATH_61" class="area" title=""></path>
	<path d="M318.4,60c0,1.4-0.9,2.1-2.8,2.1c-0.7,0-1.2-0.1-1.5-0.3c-0.4-0.2-0.6-0.7-0.6-1.3c0-0.3,0.1-0.6,0.2-0.9
		c0.1-0.1,0.1-0.2,0.2-0.2c0.1,0,0.1,0.1,0.1,0.3c0,0.1,0,0.2,0,0.3c0,0.4,0.2,0.7,0.6,0.8c0.2,0.1,0.6,0.1,1.1,0.1
		c1.5,0,2.2-0.2,2.2-0.7c0-0.7-0.9-1.7-2.6-2.9l0.3-1c0-0.1,0.1-0.1,0.1-0.1c0,0,0.1,0,0.2,0.1C317.6,57.6,318.4,58.9,318.4,60z" id="PATH_62" class="area" title=""></path>
	<path d="M324.6,62.1h-1.1c-0.1,1.4-0.6,2.5-1.6,3.5c-0.3,0.3-0.5,0.5-0.6,0.5c-0.5,0-1.2-0.1-1.9-0.2c-0.2,0-0.4-0.1-0.4-0.1
		s0.1-0.1,0.4-0.2c0.8-0.2,1.6-0.7,2.3-1.2c0.3-0.3,0.6-0.5,0.8-0.9c0.3-0.4,0.5-0.8,0.5-1.1v-0.3h-1.3c-1,0-1.4-0.4-1.4-1.2
		c0-0.5,0.1-1,0.4-1.6c0.3-0.6,0.7-1,1.1-1c0.5,0,0.9,0.3,1.2,1c0.2,0.5,0.4,1,0.4,1.6h1.1V62.1z M322.9,60.9c0-0.3-0.1-0.6-0.3-0.9
		c-0.2-0.4-0.5-0.5-0.8-0.5c-0.2,0-0.4,0.1-0.5,0.2c-0.2,0.2-0.2,0.3-0.2,0.6c0,0.5,0.4,0.7,1.2,0.7C322.3,61,322.5,61,322.9,60.9z" id="PATH_63" class="area" title=""></path>
	<path d="M331.8,62.1h-0.6c-0.5,0-1-0.3-1.4-0.8c-0.3,0.8-0.6,1.2-0.9,1.2c-0.3,0-0.8-0.2-1.4-0.5c-0.5-0.3-0.9-0.6-1.1-0.8
		c-0.5,0.6-1,0.9-1.5,0.9h-0.6v-1.2h0.6c0.5,0,0.9-0.2,1.3-0.6c0.3-0.3,0.6-0.7,1-1.1c0.4-0.4,0.7-0.6,1-0.6c0.4,0,0.7,0.2,1,0.6
		c0.2,0.2,0.4,0.6,0.9,1.1c0.3,0.4,0.7,0.6,1.1,0.6h0.6V62.1z M329.1,61.3c0-0.3-0.1-0.6-0.3-1c-0.2-0.4-0.5-0.6-0.9-0.6
		c-0.3,0-0.7,0.3-1.1,0.8c0.1,0.1,0.4,0.3,0.9,0.6c0.5,0.3,0.9,0.4,1.2,0.4C329,61.4,329.1,61.4,329.1,61.3z" id="PATH_64" class="area" title=""></path>
	<path d="M340.6,62.1h-1c-1.3,0-2-0.7-2-2c0-0.2,0-0.3,0-0.5c-0.5,0.2-1.1,0.6-1.9,1.1c-0.8,0.5-1.3,0.8-1.7,1
		c-0.6,0.3-1.3,0.4-1.9,0.4h-0.7v-1.2h0.8c0.8,0,1.7-0.2,2.5-0.6c0.4-0.2,1.1-0.6,2.2-1.1c-0.2,0-0.8-0.2-1.8-0.4
		c-0.7-0.2-1.1-0.3-1.2-0.3c-0.4,0-0.8,0.2-1.2,0.5c-0.1,0.1-0.1,0.1-0.2,0.1c-0.1,0-0.1,0-0.1-0.1c0,0,0-0.1,0-0.1
		c0.3-1,0.9-1.5,1.7-1.5c0.3,0,0.7,0.1,1.2,0.2c0.7,0.2,1.3,0.4,1.8,0.5c0.7,0.1,1.5,0.2,2.4,0.2c0.2,0,0.2,0,0.3,0c0,0,0,0.1,0,0.2
		l-0.3,0.9c-0.6,0-1,0-1.2,0.1c0,0.5,0.1,0.8,0.2,0.9c0.2,0.3,0.6,0.5,1.3,0.5h1V62.1z" id="PATH_65" class="area" title=""></path>
	<path d="M345.5,60.1c0,0.5,0,0.9-0.2,1.3c-0.2,0.5-0.5,0.8-0.8,0.8c-0.5,0-1.3-0.3-2.3-1c-0.3,0.4-0.5,0.6-0.6,0.7
		c-0.3,0.2-0.6,0.3-1,0.3h-0.5v-1.2h0.7c0.4,0,0.8-0.2,1.2-0.7c0.2-0.2,0.5-0.7,0.9-1.3c0.3-0.5,0.7-0.7,1-0.7
		c0.5,0,0.9,0.2,1.2,0.7C345.3,59.4,345.5,59.7,345.5,60.1z M344.9,60.8c0-0.3-0.1-0.6-0.3-1c-0.2-0.4-0.5-0.6-0.8-0.6
		c-0.3,0-0.6,0.3-1,0.9c0.2,0.2,0.5,0.4,0.9,0.6c0.4,0.2,0.8,0.3,1,0.3C344.8,61.1,344.9,61,344.9,60.8z" id="PATH_66" class="area" title=""></path>
</g>
<g id="G_67" class="area" title="">
	<path d="M379.6,54.4h-0.4c-0.4,0-0.6-0.1-0.8-0.2c0,0.1,0,0.2,0,0.3c0,0.9-0.3,1.8-0.9,2.7c-0.5,0.8-1,1.1-1.3,1.1
		c-0.8,0-1.4,0-2-0.1c-0.2,0-0.3-0.1-0.3-0.1s0.1-0.1,0.3-0.1c0.8-0.2,1.6-0.6,2.4-1.2c0.8-0.7,1.3-1.4,1.3-2.1c0-0.4-0.3-1-1-1.7
		l0.5-0.9c0-0.1,0.1-0.1,0.1-0.1c0,0,0.1,0.1,0.1,0.1c0.3,0.4,0.5,0.7,0.7,0.8c0.3,0.2,0.7,0.4,1.1,0.4h0.3V54.4z" id="PATH_68" class="area" title=""></path>
	<path d="M388.9,54.4h-0.6c-0.7,0-1.1-0.3-1.4-0.8c-0.2,0.6-0.7,0.8-1.3,0.8c-0.6,0-1-0.3-1.3-0.8c-0.3,0.6-0.7,0.8-1.3,0.8
		c-0.7,0-1.2-0.3-1.5-0.8c-0.4,0.6-0.9,0.8-1.6,0.8h-0.7v-1.2h0.8c0.7,0,1.2-0.4,1.3-1.2c0-0.2,0.1-0.3,0.2-0.3
		c0.1,0,0.1,0.1,0.2,0.3c0.1,0.8,0.5,1.2,1.3,1.2c0.7,0,1.2-0.4,1.2-1.2c0-0.2,0.1-0.3,0.2-0.3c0.1,0,0.2,0.1,0.2,0.3
		c0.1,0.8,0.5,1.2,1,1.2c0.7,0,1.2-0.4,1.2-1.2c0-0.2,0.1-0.3,0.2-0.3c0.1,0,0.2,0.1,0.2,0.3c0.1,0.8,0.5,1.2,1.2,1.2h0.6V54.4z" id="PATH_69" class="area" title=""></path>
	<path d="M392.6,54.4h-0.4c-0.9,0-1.5-0.3-1.8-1c-0.1,0.3-0.3,0.5-0.6,0.7c-0.3,0.2-0.6,0.3-0.9,0.3h-0.4v-1.2h0.4
		c0.8,0,1.2-0.3,1.2-1v-3.5c0-1.3,0-2.3-0.1-3l0.9-0.7v6.7c0,1,0.4,1.5,1.3,1.5h0.4V54.4z" id="PATH_70" class="area" title=""></path>
	<path d="M395,52.4c0,1.3-0.7,2-2,2h-0.8v-1.2h0.7c1,0,1.5-0.2,1.5-0.5c0-0.3-0.2-0.7-0.7-1.2l0.4-1c0-0.1,0.1-0.1,0.1-0.1
		c0,0,0.1,0.1,0.2,0.2C394.8,51.1,395,51.7,395,52.4z M394.6,56.6l-0.8,0.8l-0.8-0.8l0.8-0.8L394.6,56.6z" id="PATH_71" class="area" title=""></path>
	<path d="M398.9,54.4h-0.7c-0.7,0-1.3-0.3-1.5-0.9c-0.2-0.4-0.3-1.1-0.3-1.9v-1.9c0-0.9-0.1-2.2-0.2-3.9l0.6-0.7
		c0.1-0.1,0.2-0.1,0.2,0c0.1,0.9,0.2,2.2,0.2,3.9V52c0,0.8,0.4,1.2,1.2,1.2h0.5V54.4z" id="PATH_72" class="area" title=""></path>
	<path d="M401.3,52.4c0,1.3-0.7,2-2,2h-0.8v-1.2h0.7c1,0,1.5-0.2,1.5-0.5c0-0.3-0.2-0.7-0.7-1.2l0.4-1c0-0.1,0.1-0.1,0.1-0.1
		c0,0,0.1,0.1,0.2,0.2C401.1,51.1,401.3,51.7,401.3,52.4z M401,56.6l-0.8,0.8l-0.8-0.8l0.8-0.8L401,56.6z" id="PATH_73" class="area" title=""></path>
</g>
<g id="G_74" class="area" title="">
	<path d="M429.2,39.1c0,1-0.3,1.9-0.9,2.8c-0.5,0.7-1,1.1-1.3,1.1c-0.8,0-1.4,0-2-0.1c-0.2,0-0.3-0.1-0.3-0.1s0.1-0.1,0.3-0.1
		c0.8-0.2,1.6-0.6,2.4-1.2c0.8-0.7,1.3-1.4,1.3-2.1c0-0.4-0.3-1-1-1.7l0.5-0.9c0-0.1,0.1-0.1,0.1-0.1c0,0,0.1,0.1,0.1,0.1
		c0.2,0.3,0.5,0.7,0.6,1.2C429.1,38.3,429.2,38.7,429.2,39.1z" id="PATH_75" class="area" title=""></path>
	<path d="M433.1,39h-0.7c-0.7,0-1.3-0.3-1.5-0.9c-0.2-0.4-0.3-1.1-0.3-1.9v-1.9c0-0.9-0.1-2.2-0.2-3.9l0.6-0.7
		c0.1-0.1,0.2-0.1,0.2,0c0.1,0.9,0.2,2.2,0.2,3.9v2.9c0,0.8,0.4,1.2,1.2,1.2h0.5V39z" id="PATH_76" class="area" title=""></path>
	<path d="M438.1,39h-0.8c-0.9,0-1.5-0.3-1.9-0.9c-0.3,0.6-1,0.9-2.1,0.9h-0.6v-1.2h0.9c1,0,1.5-0.4,1.6-1.1c0-0.3,0.1-0.5,0.2-0.5
		s0.2,0.2,0.2,0.5c0.1,0.7,0.6,1.1,1.5,1.1h0.9V39z M435.9,41.2l-0.8,0.8l-0.8-0.8l0.8-0.8L435.9,41.2z" id="PATH_77" class="area" title=""></path>
	<path d="M440.5,37c0,1.3-0.7,2-2,2h-0.8v-1.2h0.7c1,0,1.5-0.2,1.5-0.5c0-0.3-0.2-0.7-0.7-1.2l0.4-1c0-0.1,0.1-0.1,0.1-0.1
		s0.1,0.1,0.2,0.2C440.2,35.7,440.5,36.4,440.5,37z M439.7,41.2l-0.8,0.8l-0.8-0.8l0.8-0.8L439.7,41.2z M441.4,41.2l-0.8,0.8
		l-0.8-0.8l0.8-0.8L441.4,41.2z" id="PATH_78" class="area" title=""></path>
	<path d="M447.6,39h-1.1c-0.1,1.4-0.6,2.5-1.6,3.5c-0.3,0.3-0.5,0.5-0.6,0.5c-0.5,0-1.2-0.1-1.9-0.2c-0.2,0-0.4-0.1-0.4-0.1
		s0.1-0.1,0.4-0.2c0.8-0.2,1.6-0.7,2.3-1.2c0.3-0.3,0.6-0.5,0.8-0.9c0.3-0.4,0.5-0.8,0.5-1.1V39h-1.3c-1,0-1.4-0.4-1.4-1.2
		c0-0.5,0.1-1,0.4-1.6c0.3-0.6,0.7-1,1.1-1c0.5,0,0.9,0.3,1.2,1c0.2,0.5,0.4,1,0.4,1.6h1.1V39z M445.8,37.8c0-0.3-0.1-0.6-0.3-0.9
		c-0.2-0.4-0.5-0.5-0.8-0.5c-0.2,0-0.4,0.1-0.5,0.2s-0.2,0.3-0.2,0.6c0,0.5,0.4,0.7,1.2,0.7C445.3,37.9,445.5,37.8,445.8,37.8z" id="PATH_79" class="area" title=""></path>
	<path d="M455.4,36.1l-0.4,0.8c-0.7,0-1.3,0-1.6,0.1c-0.4,0.2-1,0.4-1.8,0.8c-0.8,0.4-1.4,0.7-1.8,0.8c-0.6,0.2-1.3,0.3-1.9,0.3
		h-0.7v-1.2h0.8c0.9,0,1.7-0.2,2.4-0.5l2.3-1c-0.4-0.1-1-0.3-1.8-0.6c-0.7-0.3-1.1-0.4-1.3-0.4c-0.4,0-0.8,0.2-1.2,0.5
		c-0.1,0.1-0.1,0.1-0.2,0.1c-0.1,0-0.1,0-0.1-0.1c0,0,0-0.1,0-0.1c0.3-1,0.9-1.4,1.7-1.4c0.3,0,0.7,0.1,1.1,0.3
		c0.8,0.4,1.4,0.6,1.8,0.8c0.7,0.2,1.5,0.4,2.4,0.4c0.2,0,0.3,0,0.3,0.1C455.5,35.9,455.5,36,455.4,36.1z M452.1,41l-0.8,0.8
		l-0.8-0.8l0.8-0.8L452.1,41z" id="PATH_80" class="area" title=""></path>
</g>
<g id="G_81" class="area" title="">
	<path d="M459.4,10.9c0,1.4-0.9,2.1-2.8,2.1c-0.7,0-1.2-0.1-1.5-0.3c-0.4-0.2-0.6-0.7-0.6-1.3c0-0.3,0.1-0.6,0.2-0.9
		c0.1-0.1,0.1-0.2,0.2-0.2c0.1,0,0.1,0.1,0.1,0.3c0,0.1,0,0.2,0,0.3c0,0.4,0.2,0.7,0.6,0.8c0.2,0.1,0.6,0.1,1.1,0.1
		c1.5,0,2.2-0.2,2.2-0.7c0-0.7-0.9-1.7-2.6-2.9l0.3-1c0-0.1,0.1-0.1,0.1-0.1c0,0,0.1,0,0.2,0.1C458.5,8.5,459.4,9.8,459.4,10.9z" id="PATH_82" class="area" title=""></path>
	<path d="M464.5,12.6c0,1.5-0.5,2.8-1.5,3.8c-0.3,0.3-0.5,0.5-0.6,0.5c-0.6,0-1.2-0.1-1.9-0.2c-0.3,0-0.4-0.1-0.4-0.1
		c0,0,0.1-0.1,0.4-0.2c0.8-0.2,1.6-0.7,2.3-1.3c0.3-0.3,0.6-0.5,0.8-0.9c0.3-0.4,0.5-0.8,0.5-1.1v-0.3l-1.3,0
		c-0.9,0-1.4-0.4-1.4-1.1c0-0.5,0.1-1,0.4-1.6c0.3-0.6,0.7-1,1.1-1c0.6,0,1.1,0.4,1.4,1.3C464.4,11.1,464.5,11.8,464.5,12.6z
		 M463.8,11.8c0-0.3-0.1-0.6-0.3-0.9c-0.2-0.3-0.5-0.5-0.8-0.5c-0.2,0-0.4,0.1-0.5,0.2s-0.2,0.3-0.2,0.5c0,0.5,0.3,0.7,1,0.7
		C463.1,11.9,463.4,11.8,463.8,11.8z" id="PATH_83" class="area" title=""></path>
	<path d="M469.6,13.1c0,1-0.3,1.9-0.9,2.8c-0.5,0.7-1,1.1-1.3,1.1c-0.8,0-1.4,0-2-0.1c-0.2,0-0.3-0.1-0.3-0.1s0.1-0.1,0.3-0.1
		c0.8-0.2,1.6-0.6,2.4-1.2c0.8-0.7,1.3-1.4,1.3-2.1c0-0.4-0.3-1-1-1.7l0.5-0.9c0-0.1,0.1-0.1,0.1-0.1c0,0,0.1,0.1,0.1,0.1
		c0.2,0.3,0.5,0.7,0.6,1.2C469.5,12.3,469.6,12.7,469.6,13.1z" id="PATH_84" class="area" title=""></path>
	<path d="M475.7,10.9c0,1.4-0.9,2.1-2.8,2.1c-0.7,0-1.2-0.1-1.5-0.3c-0.4-0.2-0.6-0.7-0.6-1.3c0-0.3,0.1-0.6,0.2-0.9
		c0.1-0.1,0.1-0.2,0.2-0.2c0.1,0,0.1,0.1,0.1,0.3c0,0.1,0,0.2,0,0.3c0,0.4,0.2,0.7,0.6,0.8c0.2,0.1,0.6,0.1,1.1,0.1
		c1.5,0,2.2-0.2,2.2-0.7c0-0.7-0.9-1.7-2.6-2.9l0.3-1c0-0.1,0.1-0.1,0.1-0.1c0,0,0.1,0,0.2,0.1C474.9,8.5,475.7,9.8,475.7,10.9z" id="PATH_85" class="area" title=""></path>
	<path d="M488.2,12.9c0.1,0.3,0.1,0.6,0.1,0.9c0,0.4-0.1,0.7-0.2,1.1c-0.3,0.7-0.8,1.3-1.8,1.7c-0.8,0.3-1.6,0.5-2.5,0.5
		c-0.9,0-1.6-0.2-2.2-0.6c-0.6-0.5-0.9-1.1-0.9-2c0-0.5,0.1-0.9,0.3-1.5c0.2-0.4,0.3-0.7,0.5-0.9c0.1-0.1,0.2-0.1,0.2-0.1
		c0.1,0,0.1,0,0.1,0.1c0,0,0,0.1,0,0.2c-0.3,0.6-0.4,1.2-0.4,1.7c0,0.5,0.2,0.9,0.5,1.3c0.4,0.5,1.1,0.7,2,0.7c1,0,1.9-0.2,2.6-0.5
		c0.6-0.3,1-0.6,1.2-1c0.1-0.1,0.1-0.3,0.1-0.4c0-0.3-0.1-0.6-0.2-1c-0.1-0.3-0.4-0.8-0.9-1.6l0.4-0.8c0.1-0.1,0.1-0.2,0.1-0.2
		s0.1,0,0.1,0.1C487.8,11.3,488.1,12.1,488.2,12.9z M485.3,8.5l-0.8,0.8l-0.8-0.8l0.8-0.8L485.3,8.5z" id="PATH_86" class="area" title=""></path>
	<path d="M492.3,13h-0.7c-0.7,0-1.3-0.3-1.5-0.9c-0.2-0.4-0.3-1.1-0.3-1.9V8.3c0-0.9-0.1-2.2-0.2-3.9l0.6-0.7c0.1-0.1,0.2-0.1,0.2,0
		c0.1,0.9,0.2,2.2,0.2,3.9v2.9c0,0.8,0.4,1.2,1.2,1.2h0.5V13z" id="PATH_87" class="area" title=""></path>
	<path d="M497.2,13h-0.8c-0.9,0-1.5-0.3-1.9-0.9c-0.3,0.6-1,0.9-2.1,0.9h-0.6v-1.2h0.9c1,0,1.5-0.4,1.6-1.1c0-0.3,0.1-0.5,0.2-0.5
		s0.2,0.2,0.2,0.5c0.1,0.7,0.6,1.1,1.5,1.1h0.9V13z M493.9,15.2l-0.8,0.8l-0.8-0.8l0.8-0.8L493.9,15.2z M495.6,15.2l-0.8,0.8
		l-0.8-0.8l0.8-0.8L495.6,15.2z" id="PATH_88" class="area" title=""></path>
	<path d="M502.2,11c0,0.5,0,0.9-0.2,1.3c-0.2,0.5-0.5,0.8-0.8,0.8c-0.5,0-1.3-0.3-2.3-1c-0.3,0.4-0.5,0.6-0.6,0.7
		c-0.3,0.2-0.6,0.3-1,0.3h-0.5v-1.2h0.7c0.4,0,0.8-0.2,1.2-0.7c0.2-0.2,0.5-0.7,0.9-1.3c0.3-0.5,0.7-0.7,1-0.7
		c0.5,0,0.9,0.2,1.2,0.7C502,10.3,502.2,10.6,502.2,11z M501.6,11.7c0-0.3-0.1-0.6-0.3-1c-0.2-0.4-0.5-0.6-0.8-0.6
		c-0.3,0-0.6,0.3-1,0.9c0.2,0.2,0.5,0.4,0.9,0.6c0.4,0.2,0.8,0.3,1,0.3C501.5,12,501.6,11.9,501.6,11.7z" id="PATH_89" class="area" title=""></path>
</g>
<g id="G_90" class="area" title="">
	<path d="M519.2,73h-0.4c-0.4,0-0.6-0.1-0.8-0.2c0,0.1,0,0.2,0,0.3c0,0.9-0.3,1.8-0.9,2.7c-0.5,0.8-1,1.1-1.3,1.1
		c-0.8,0-1.4,0-2-0.1c-0.2,0-0.3-0.1-0.3-0.1s0.1-0.1,0.3-0.1c0.8-0.2,1.6-0.6,2.4-1.2c0.8-0.7,1.3-1.4,1.3-2.1c0-0.4-0.3-1-1-1.7
		l0.5-0.9c0-0.1,0.1-0.1,0.1-0.1c0,0,0.1,0.1,0.1,0.1c0.3,0.4,0.5,0.7,0.7,0.8c0.3,0.2,0.7,0.4,1.1,0.4h0.3V73z" id="PATH_91" class="area" title=""></path>
	<path d="M525.4,73h-0.5c-0.4,0-0.8,0.1-1.1,0.2c-0.5,0.2-0.8,0.5-0.8,1c0,0.6,0.4,1.1,1.2,1.6l-0.5,1c-0.9-0.3-1.7-0.8-2.3-1.4
		c-0.8-0.7-1.2-1.6-1.2-2.5h-1.4v-1.2h1.3c0-0.8,0.2-1.6,0.6-2.6c0.4-0.9,0.7-1.3,0.9-1.3c0.2,0,0.5,0.4,0.8,1.3
		c0.3,0.8,0.4,1.3,0.4,1.6c0,1.4-0.7,2.1-2.1,2.1c0.1,0.4,0.3,0.8,0.6,1.2c0.3,0.4,0.7,0.7,1.1,0.9c0-0.1,0-0.3,0-0.4
		c0-0.7,0.2-1.3,0.5-1.8c0.5-0.7,1.1-1.1,2-1.1h0.4V73z M522.4,71.4c0-0.2-0.1-0.6-0.3-1.1c-0.2-0.6-0.4-0.8-0.6-0.8
		c-0.1,0-0.3,0.2-0.5,0.7c-0.2,0.5-0.3,1.1-0.3,1.7C521.8,71.8,522.4,71.7,522.4,71.4z" id="PATH_92" class="area" title=""></path>
	<path d="M534.6,73h-0.6c-0.7,0-1.1-0.3-1.4-0.8c-0.2,0.6-0.7,0.8-1.3,0.8c-0.6,0-1-0.3-1.3-0.8c-0.3,0.6-0.7,0.8-1.3,0.8
		c-0.7,0-1.2-0.3-1.5-0.8c-0.4,0.6-0.9,0.8-1.6,0.8H525v-1.2h0.8c0.7,0,1.2-0.4,1.3-1.2c0-0.2,0.1-0.3,0.2-0.3
		c0.1,0,0.1,0.1,0.2,0.3c0.1,0.8,0.5,1.2,1.3,1.2c0.7,0,1.2-0.4,1.2-1.2c0-0.2,0.1-0.3,0.2-0.3c0.1,0,0.2,0.1,0.2,0.3
		c0.1,0.8,0.5,1.2,1,1.2c0.7,0,1.2-0.4,1.2-1.2c0-0.2,0.1-0.3,0.2-0.3c0.1,0,0.2,0.1,0.2,0.3c0.1,0.8,0.5,1.2,1.2,1.2h0.6V73z
		 M530,68l-0.7,0.7l-0.7-0.7l0.7-0.7L530,68z M530.9,66.4l-0.7,0.7l-0.7-0.7l0.7-0.7L530.9,66.4z M531.8,68l-0.7,0.7l-0.7-0.7
		l0.7-0.7L531.8,68z" id="PATH_93" class="area" title=""></path>
	<path d="M540.8,73h-0.5c-0.4,0-0.8,0.1-1.1,0.2c-0.5,0.2-0.8,0.5-0.8,1c0,0.6,0.4,1.1,1.2,1.6l-0.5,1c-0.9-0.3-1.7-0.8-2.3-1.4
		c-0.8-0.7-1.2-1.6-1.2-2.5h-1.4v-1.2h1.3c0-0.8,0.2-1.6,0.6-2.6c0.4-0.9,0.7-1.3,0.9-1.3c0.2,0,0.5,0.4,0.8,1.3
		c0.3,0.8,0.4,1.3,0.4,1.6c0,1.4-0.7,2.1-2.1,2.1c0.1,0.4,0.3,0.8,0.6,1.2c0.3,0.4,0.7,0.7,1.1,0.9c0-0.1,0-0.3,0-0.4
		c0-0.7,0.2-1.3,0.5-1.8c0.5-0.7,1.1-1.1,2-1.1h0.4V73z M537.8,71.4c0-0.2-0.1-0.6-0.3-1.1c-0.2-0.6-0.4-0.8-0.6-0.8
		c-0.1,0-0.3,0.2-0.5,0.7c-0.2,0.5-0.3,1.1-0.3,1.7C537.2,71.8,537.8,71.7,537.8,71.4z" id="PATH_94" class="area" title=""></path>
	<path d="M543.2,71c0,1.3-0.7,2-2,2h-0.8v-1.2h0.7c1,0,1.5-0.2,1.5-0.5c0-0.3-0.2-0.7-0.7-1.2l0.4-1c0-0.1,0.1-0.1,0.1-0.1
		s0.1,0.1,0.2,0.2C543,69.7,543.2,70.4,543.2,71z M542.9,75.2l-0.8,0.8l-0.8-0.8l0.8-0.8L542.9,75.2z" id="PATH_95" class="area" title=""></path>
</g>
<g id="G_96" class="area" title="">
	<path d="M610.1,70.9c0,0.7-0.2,1.2-0.6,1.6c-0.4,0.4-1,0.5-1.6,0.5c-0.4,0-0.8-0.1-1.1-0.4c-0.3-0.3-0.5-0.6-0.5-1
		c0-0.5,0.2-1,0.6-1.7c0.3-0.6,0.7-1.1,1.1-1.5C609.4,69.1,610.1,69.9,610.1,70.9z M609.5,71.3c0-0.3-0.2-0.6-0.7-1
		c-0.4-0.4-0.7-0.6-1.1-0.7c-0.5,0.7-0.8,1.2-0.8,1.6c0,0.2,0.1,0.4,0.4,0.6c0.2,0.1,0.4,0.2,0.7,0.2c0.4,0,0.8-0.1,1.1-0.2
		C609.4,71.5,609.5,71.4,609.5,71.3z" id="PATH_97" class="area" title=""></path>
	<path d="M614.1,73h-0.7c-0.7,0-1.3-0.3-1.5-0.9c-0.2-0.4-0.3-1.1-0.3-1.9v-1.9c0-0.9-0.1-2.2-0.2-3.9l0.6-0.7
		c0.1-0.1,0.2-0.1,0.2,0c0.1,0.9,0.2,2.2,0.2,3.9v2.9c0,0.8,0.4,1.2,1.2,1.2h0.5V73z" id="PATH_98" class="area" title=""></path>
	<path d="M620.1,64.9c0,0.2-0.1,0.5-0.3,1.1c-1.2,0.3-2.7,0.8-4.4,1.3c1.2,1.2,1.9,2.2,2,2.9c0.1,0.5,0,1-0.2,1.5
		c-0.2,0.5-0.6,0.8-1.1,1c-0.4,0.2-1.1,0.2-2,0.2h-0.4v-1.2h0.3c1.9,0,2.9-0.3,2.9-1c0-0.5-0.5-1.3-1.6-2.3l-0.1,0.3
		c-0.1-0.1-0.3-0.3-0.5-0.6c-0.3-0.3-0.4-0.5-0.4-0.6c0-0.3,0.1-0.6,0.4-0.9c0.1-0.1,0.7-0.3,2-0.7
		C617.9,65.5,619.1,65.2,620.1,64.9z M619.9,63.4l-0.2,0.7l-4.9,1.6L615,65L619.9,63.4z" id="PATH_99" class="area" title=""></path>
	<path d="M626,73H625c-0.1,1.4-0.6,2.5-1.6,3.5c-0.3,0.3-0.5,0.5-0.6,0.5c-0.5,0-1.2-0.1-1.9-0.2c-0.2,0-0.4-0.1-0.4-0.1
		s0.1-0.1,0.4-0.2c0.8-0.2,1.6-0.7,2.3-1.2c0.3-0.3,0.6-0.5,0.8-0.9c0.3-0.4,0.5-0.8,0.5-1.1V73h-1.3c-1,0-1.4-0.4-1.4-1.2
		c0-0.5,0.1-1,0.4-1.6c0.3-0.6,0.7-1,1.1-1c0.5,0,0.9,0.3,1.2,1c0.2,0.5,0.4,1,0.4,1.6h1.1V73z M624.3,71.8c0-0.3-0.1-0.6-0.3-0.9
		c-0.2-0.4-0.5-0.5-0.8-0.5c-0.2,0-0.4,0.1-0.5,0.2s-0.2,0.3-0.2,0.6c0,0.5,0.4,0.7,1.2,0.7C623.7,71.9,623.9,71.8,624.3,71.8z" id="PATH_100" class="area" title=""></path>
	<path d="M629.7,73h-0.4c-0.9,0-1.5-0.3-1.8-1c-0.1,0.3-0.3,0.5-0.6,0.7c-0.3,0.2-0.6,0.3-0.9,0.3h-0.4v-1.2h0.4
		c0.8,0,1.2-0.3,1.2-1v-3.5c0-1.3,0-2.3-0.1-3l0.9-0.7v6.7c0,1,0.4,1.5,1.3,1.5h0.4V73z" id="PATH_101" class="area" title=""></path>
	<path d="M635.7,64.9c0,0.2-0.1,0.5-0.3,1.1c-1.2,0.3-2.7,0.8-4.4,1.3c1.2,1.2,1.9,2.2,2,2.9c0.1,0.5,0,1-0.2,1.5
		c-0.2,0.5-0.6,0.8-1.1,1c-0.4,0.2-1.1,0.2-2,0.2h-0.4v-1.2h0.3c1.9,0,2.9-0.3,2.9-1c0-0.5-0.5-1.3-1.6-2.3l-0.1,0.3
		c-0.1-0.1-0.3-0.3-0.5-0.6c-0.3-0.3-0.4-0.5-0.4-0.6c0-0.3,0.1-0.6,0.4-0.9c0.1-0.1,0.7-0.3,2-0.7
		C633.6,65.5,634.8,65.2,635.7,64.9z M635.5,63.4l-0.2,0.7l-4.9,1.6l0.2-0.7L635.5,63.4z" id="PATH_102" class="area" title=""></path>
</g>
<g id="G_103" class="area" title="">
	<path d="M537.9,137h-0.7c-0.7,0-1.3-0.3-1.5-0.9c-0.2-0.4-0.3-1.1-0.3-1.9v-1.9c0-0.9-0.1-2.2-0.2-3.9l0.6-0.7
		c0.1-0.1,0.2-0.1,0.2,0c0.1,0.9,0.2,2.2,0.2,3.9v2.9c0,0.8,0.4,1.2,1.2,1.2h0.5V137z" id="PATH_104" class="area" title=""></path>
	<path d="M544.7,137H544c-0.5,0-1-0.3-1.6-0.8c-0.3-0.3-0.7-0.8-1.2-1.5c0.1,1.6-0.8,2.4-2.7,2.4h-1.1v-1.2h1.3c1.3,0,2-0.4,2-1.1
		c0-0.4-0.2-0.9-0.7-1.5c-0.3-0.4-0.7-0.8-1.3-1.3c-0.5-0.4-0.7-0.7-0.7-0.7c0-0.7,0.1-1.2,0.3-1.5c0-0.1,0.7-0.3,2-0.8
		c1.3-0.5,2.5-0.9,3.6-1.2c0,0.1-0.1,0.5-0.3,1.1c-1.3,0.4-2.9,1-4.9,1.8c0.9,0.8,2.1,2.1,3.4,3.9c0.5,0.6,0.9,1,1.2,1.2
		c0.2,0.1,0.6,0.2,1,0.2h0.4V137z" id="PATH_105" class="area" title=""></path>
	<path d="M547.1,135.1c0,1.3-0.7,2-2,2h-0.8v-1.2h0.7c1,0,1.5-0.2,1.5-0.5c0-0.3-0.2-0.7-0.7-1.2l0.4-1c0-0.1,0.1-0.1,0.1-0.1
		s0.1,0.1,0.2,0.2C546.9,133.8,547.1,134.4,547.1,135.1z M547,130.5l-0.8,0.8l-0.8-0.8l0.8-0.8L547,130.5z" id="PATH_106" class="area" title=""></path>
</g>
<g id="G_107" class="area" title="">
	<path d="M493.9,162.5c0,0.2,0,0.3,0,0.3c0,0-0.1,0-0.3-0.1c-0.3-0.2-0.7-0.3-1.2-0.3c-0.7,0-1.3,0.3-1.8,0.8
		c-0.5,0.5-0.7,0.8-0.7,1.1c0,0.3,0.5,0.6,1.4,0.7c1,0.2,1.6,0.4,1.8,0.7c0,0.1,0.1,0.2,0.1,0.3c0,0.5-0.2,1.1-0.5,1.7
		c-0.2,0.4-0.7,0.7-1.5,1c-1,0.4-2,0.6-3.3,0.6c-0.9,0-1.6-0.2-2.2-0.7c-0.6-0.5-0.9-1.2-0.9-2c0-0.9,0.3-1.8,0.9-2.6
		c0.1-0.1,0.2-0.2,0.3-0.2c0.1,0,0.1,0,0.1,0.1c0,0.1,0,0.1-0.1,0.3c-0.4,0.7-0.6,1.4-0.6,2c0,0.5,0.2,0.9,0.5,1.2
		c0.5,0.5,1.2,0.7,2.1,0.7c0.8,0,1.7-0.1,2.6-0.3c1.3-0.3,2-0.7,2-1.2c0-0.2-0.6-0.4-1.9-0.7c-0.5-0.1-0.8-0.2-1-0.3
		c-0.2-0.1-0.4-0.4-0.4-0.7c0-0.7,0.3-1.4,1-2.3c0.7-0.9,1.5-1.4,2.2-1.4C493.3,161.3,493.8,161.7,493.9,162.5z" id="PATH_108" class="area" title=""></path>
	<path d="M499,166.2c0,1-0.3,1.9-0.9,2.8c-0.5,0.7-1,1.1-1.3,1.1c-0.8,0-1.4,0-2-0.1c-0.2,0-0.3-0.1-0.3-0.1s0.1-0.1,0.3-0.1
		c0.8-0.2,1.6-0.6,2.4-1.2c0.8-0.7,1.3-1.4,1.3-2.1c0-0.4-0.3-1-1-1.7l0.5-0.9c0-0.1,0.1-0.1,0.1-0.1c0,0,0.1,0.1,0.1,0.1
		c0.2,0.3,0.5,0.7,0.6,1.2C498.9,165.4,499,165.9,499,166.2z" id="PATH_109" class="area" title=""></path>
	<path d="M503,166.1h-0.7c-0.7,0-1.3-0.3-1.5-0.9c-0.2-0.4-0.3-1.1-0.3-1.9v-1.9c0-0.9-0.1-2.2-0.2-3.9l0.6-0.7
		c0.1-0.1,0.2-0.1,0.2,0c0.1,0.9,0.2,2.2,0.2,3.9v2.9c0,0.8,0.4,1.2,1.2,1.2h0.5V166.1z" id="PATH_110" class="area" title=""></path>
	<path d="M510.9,164c0,0.6-0.1,1.1-0.4,1.5c-0.3,0.4-0.8,0.7-1.3,0.7c-0.7,0-1.1-0.3-1.4-0.8c-0.4,0.6-0.8,0.8-1.4,0.8
		c-0.7,0-1.2-0.3-1.5-0.8c-0.4,0.6-0.9,0.8-1.6,0.8h-0.7V165h0.8c0.7,0,1.2-0.4,1.3-1.2c0-0.2,0.1-0.3,0.2-0.3
		c0.1,0,0.1,0.1,0.2,0.3c0.1,0.8,0.5,1.2,1.3,1.2c0.4,0,0.8-0.1,1-0.3c0.1-0.2,0.2-0.4,0.3-0.8c0-0.2,0.1-0.3,0.2-0.3
		c0.1,0,0.1,0.1,0.2,0.3c0.1,0.8,0.5,1.2,1.2,1.2c0.8,0,1.1-0.2,1.1-0.5c0-0.3-0.2-0.7-0.6-1.1l0.5-0.9c0.1-0.1,0.1-0.2,0.2-0.2
		s0.1,0.1,0.2,0.2C510.7,163,510.9,163.5,510.9,164z" id="PATH_111" class="area" title=""></path>
</g>
<g id="G_112" class="area" title="">
	<path d="M510.1,241.5h-2.3c-0.3,0-0.6,0-0.8,0.1c-0.4,0.1-0.5,0.3-0.5,0.5c0,0.1,0.5,0.2,1.4,0.4s1.4,0.4,1.4,0.6
		c0,0.8-0.2,1.4-0.7,1.8c-0.8,0.7-2.1,1-4,1c-2.3,0-3.5-0.9-3.5-2.6c0-0.4,0.1-0.8,0.3-1.3s0.4-0.9,0.6-1.2c0.1-0.1,0.2-0.2,0.3-0.2
		s0.1,0,0.1,0.1c0,0.1,0,0.2-0.1,0.3c-0.3,0.6-0.5,1.2-0.5,1.8c0,0.7,0.3,1.2,1,1.5c0.5,0.3,1.1,0.4,1.9,0.4c0.8,0,1.5,0,2.2-0.1
		c1.2-0.2,1.8-0.4,1.8-0.8c0-0.2-0.3-0.3-0.8-0.4c-0.8-0.1-1.3-0.2-1.5-0.3c-0.5-0.1-0.8-0.4-0.8-0.7c0-0.2,0.1-0.5,0.4-0.9
		c0.2-0.3,0.4-0.5,0.7-0.7c0.5-0.4,1.1-0.6,2-0.6h1.4V241.5z" id="PATH_113" class="area" title=""></path>
	<path d="M512.4,233.6c0.1,0.1,0.1,0.2,0.1,0.2c0,0-0.1,0-0.2,0H512c0.1,1.3,0.1,3.2,0.1,5.7c0,0.6-0.1,1.1-0.4,1.4
		c-0.3,0.4-0.8,0.6-1.3,0.6h-0.6v-1.2h0.5c0.8,0,1.2-0.3,1.1-0.9c-0.1-2.1-0.2-4.3-0.3-6.5l0.7-0.6c0.1-0.1,0.2-0.2,0.2-0.2
		c0,0,0,0.1,0.1,0.2C512.1,232.6,512.2,233,512.4,233.6z" id="PATH_114" class="area" title=""></path>
	<path d="M516.4,241.5h-0.7c-0.7,0-1.3-0.3-1.5-0.9c-0.2-0.4-0.3-1.1-0.3-1.9v-1.9c0-0.9-0.1-2.2-0.2-3.9l0.6-0.7
		c0.1-0.1,0.2-0.1,0.2,0c0.1,0.9,0.2,2.2,0.2,3.9v2.9c0,0.8,0.4,1.2,1.2,1.2h0.5V241.5z" id="PATH_115" class="area" title=""></path>
	<path d="M523.6,241.5h-0.6c-0.5,0-1-0.3-1.4-0.8c-0.3,0.8-0.6,1.2-0.9,1.2c-0.3,0-0.8-0.2-1.4-0.5c-0.5-0.3-0.9-0.6-1.1-0.8
		c-0.5,0.6-1,0.9-1.5,0.9H516v-1.2h0.6c0.5,0,0.9-0.2,1.3-0.6c0.3-0.3,0.6-0.7,1-1.1c0.4-0.4,0.7-0.6,1-0.6c0.4,0,0.7,0.2,1,0.6
		c0.2,0.2,0.4,0.6,0.9,1.1c0.3,0.4,0.7,0.6,1.1,0.6h0.6V241.5z M520.9,240.7c0-0.3-0.1-0.6-0.3-1c-0.2-0.4-0.5-0.6-0.9-0.6
		c-0.3,0-0.7,0.3-1.1,0.8c0.1,0.1,0.4,0.3,0.9,0.6c0.5,0.3,0.9,0.4,1.2,0.4C520.8,240.8,520.9,240.8,520.9,240.7z" id="PATH_116" class="area" title=""></path>
	<path d="M531.5,239.4c0,0.6-0.1,1.1-0.4,1.5c-0.3,0.4-0.8,0.7-1.3,0.7c-0.7,0-1.1-0.3-1.4-0.8c-0.4,0.6-0.8,0.8-1.4,0.8
		c-0.7,0-1.2-0.3-1.5-0.8c-0.4,0.6-0.9,0.8-1.6,0.8h-0.7v-1.2h0.8c0.7,0,1.2-0.4,1.3-1.2c0-0.2,0.1-0.3,0.2-0.3
		c0.1,0,0.1,0.1,0.2,0.3c0.1,0.8,0.5,1.2,1.3,1.2c0.4,0,0.8-0.1,1-0.3c0.1-0.2,0.2-0.4,0.3-0.8c0-0.2,0.1-0.3,0.2-0.3
		c0.1,0,0.1,0.1,0.2,0.3c0.1,0.8,0.5,1.2,1.2,1.2c0.8,0,1.1-0.2,1.1-0.5c0-0.3-0.2-0.7-0.6-1.1l0.5-0.9c0.1-0.1,0.1-0.2,0.2-0.2
		s0.1,0.1,0.2,0.2C531.3,238.4,531.5,238.9,531.5,239.4z M528.1,235.7l-0.7,0.7l-0.7-0.7l0.7-0.7L528.1,235.7z M529,234.2l-0.7,0.7
		l-0.7-0.7l0.7-0.7L529,234.2z M529.9,235.7l-0.7,0.7l-0.7-0.7l0.7-0.7L529.9,235.7z" id="PATH_117" class="area" title=""></path>
	<path d="M540.4,239.4c0,0.7-0.2,1.2-0.6,1.6c-0.4,0.4-1,0.5-1.6,0.5c-0.4,0-0.8-0.1-1.1-0.4c-0.3-0.3-0.5-0.6-0.5-1
		c0-0.5,0.2-1,0.6-1.7c0.3-0.6,0.7-1.1,1.1-1.5C539.7,237.6,540.4,238.4,540.4,239.4z M539.9,239.8c0-0.3-0.2-0.6-0.7-1
		c-0.4-0.4-0.7-0.6-1.1-0.7c-0.5,0.7-0.8,1.2-0.8,1.6c0,0.2,0.1,0.4,0.4,0.6c0.2,0.1,0.4,0.2,0.7,0.2c0.4,0,0.8-0.1,1.1-0.2
		C539.7,240,539.9,239.9,539.9,239.8z" id="PATH_118" class="area" title=""></path>
	<path d="M546.6,241.5h-1.1c-0.1,1.4-0.6,2.5-1.6,3.5c-0.3,0.3-0.5,0.5-0.6,0.5c-0.5,0-1.2-0.1-1.9-0.2c-0.2,0-0.4-0.1-0.4-0.1
		c0,0,0.1-0.1,0.4-0.2c0.8-0.2,1.6-0.7,2.3-1.2c0.3-0.3,0.6-0.5,0.8-0.9c0.3-0.4,0.5-0.8,0.5-1.1v-0.3h-1.3c-1,0-1.4-0.4-1.4-1.2
		c0-0.5,0.1-1,0.4-1.6c0.3-0.6,0.7-1,1.1-1c0.5,0,0.9,0.3,1.2,1c0.2,0.5,0.4,1,0.4,1.6h1.1V241.5z M544.9,240.3
		c0-0.3-0.1-0.6-0.3-0.9c-0.2-0.4-0.5-0.5-0.8-0.5c-0.2,0-0.4,0.1-0.5,0.2s-0.2,0.3-0.2,0.6c0,0.5,0.4,0.7,1.2,0.7
		C544.3,240.4,544.5,240.3,544.9,240.3z" id="PATH_119" class="area" title=""></path>
	<path d="M552.8,232.2c0,0.2-0.2,0.6-0.4,1.1l-2.5,0.8c-1.1,0.4-1.9,0.7-2.3,0.9c0.8,0.8,1.3,1.4,1.6,1.7c0.5,0.7,0.8,1.3,0.9,2
		c0,0.5,0,1-0.2,1.4c-0.3,0.9-1.4,1.3-3.1,1.3h-0.5v-1.2h0.6c0.8,0,1.4,0,1.7-0.1c0.7-0.2,1.1-0.5,1.1-1c0-0.7-0.5-1.5-1.6-2.5
		l-0.1,0.2c-0.1-0.1-0.3-0.3-0.5-0.6c-0.3-0.3-0.4-0.6-0.4-0.6c0-0.2,0-0.4,0.1-0.8c0.1-0.4,0.2-0.6,0.3-0.7
		c0.1-0.1,0.8-0.4,2.1-0.8C550.7,232.9,551.9,232.5,552.8,232.2z" id="PATH_120" class="area" title=""></path>
	<path d="M558.5,239.4c0,1.4-0.9,2.1-2.8,2.1c-0.7,0-1.2-0.1-1.5-0.3c-0.4-0.2-0.6-0.7-0.6-1.3c0-0.3,0.1-0.6,0.2-0.9
		c0.1-0.1,0.1-0.2,0.2-0.2c0.1,0,0.1,0.1,0.1,0.3c0,0.1,0,0.2,0,0.3c0,0.4,0.2,0.7,0.6,0.8c0.2,0.1,0.6,0.1,1.1,0.1
		c1.5,0,2.2-0.2,2.2-0.7c0-0.7-0.9-1.7-2.6-2.9l0.3-1c0-0.1,0.1-0.1,0.1-0.1c0,0,0.1,0,0.2,0.1C557.7,237,558.5,238.3,558.5,239.4z" id="PATH_121" class="area" title=""></path>
	<path d="M560.9,240.3c0,0.4-0.1,0.8-0.3,1.1c-0.1,0.2-0.2,0.3-0.2,0.3c0,0-0.1-0.1-0.1-0.4c0-1.2-0.2-4-0.6-8.5l0.8-0.8
		c0.1-0.1,0.1-0.1,0.1-0.1c0,0,0,0.1,0,0.2C560.8,233.4,560.9,236.1,560.9,240.3z" id="PATH_122" class="area" title=""></path>
	<path d="M567.1,241.5H566c-0.1,1.4-0.6,2.5-1.6,3.5c-0.3,0.3-0.5,0.5-0.6,0.5c-0.5,0-1.2-0.1-1.9-0.2c-0.2,0-0.4-0.1-0.4-0.1
		c0,0,0.1-0.1,0.4-0.2c0.8-0.2,1.6-0.7,2.3-1.2c0.3-0.3,0.6-0.5,0.8-0.9c0.3-0.4,0.5-0.8,0.5-1.1v-0.3h-1.3c-1,0-1.4-0.4-1.4-1.2
		c0-0.5,0.1-1,0.4-1.6c0.3-0.6,0.7-1,1.1-1c0.5,0,0.9,0.3,1.2,1c0.2,0.5,0.4,1,0.4,1.6h1.1V241.5z M565.3,240.3
		c0-0.3-0.1-0.6-0.3-0.9c-0.2-0.4-0.5-0.5-0.8-0.5c-0.2,0-0.4,0.1-0.5,0.2s-0.2,0.3-0.2,0.6c0,0.5,0.4,0.7,1.2,0.7
		C564.7,240.4,565,240.3,565.3,240.3z" id="PATH_123" class="area" title=""></path>
	<path d="M575,239.4c0,0.6-0.1,1.1-0.4,1.5c-0.3,0.4-0.8,0.7-1.3,0.7c-0.7,0-1.1-0.3-1.4-0.8c-0.4,0.6-0.8,0.8-1.4,0.8
		c-0.7,0-1.2-0.3-1.5-0.8c-0.4,0.6-0.9,0.8-1.6,0.8h-0.7v-1.2h0.8c0.7,0,1.2-0.4,1.3-1.2c0-0.2,0.1-0.3,0.2-0.3
		c0.1,0,0.1,0.1,0.2,0.3c0.1,0.8,0.5,1.2,1.3,1.2c0.4,0,0.8-0.1,1-0.3c0.1-0.2,0.2-0.4,0.3-0.8c0-0.2,0.1-0.3,0.2-0.3
		c0.1,0,0.1,0.1,0.2,0.3c0.1,0.8,0.5,1.2,1.2,1.2c0.8,0,1.1-0.2,1.1-0.5c0-0.3-0.2-0.7-0.6-1.1l0.5-0.9c0.1-0.1,0.1-0.2,0.2-0.2
		s0.1,0.1,0.2,0.2C574.8,238.4,575,238.9,575,239.4z" id="PATH_124" class="area" title=""></path>
</g>
<g id="G_125" class="area" title="">
	<path d="M417.9,199.4c0,0.7-0.2,1.2-0.6,1.6c-0.4,0.4-1,0.5-1.6,0.5c-0.4,0-0.8-0.1-1.1-0.4c-0.3-0.3-0.5-0.6-0.5-1
		c0-0.5,0.2-1,0.6-1.7c0.3-0.6,0.7-1.1,1.1-1.5C417.2,197.6,417.9,198.4,417.9,199.4z M417.4,199.8c0-0.3-0.2-0.6-0.7-1
		c-0.4-0.4-0.7-0.6-1.1-0.7c-0.5,0.7-0.8,1.2-0.8,1.6c0,0.2,0.1,0.4,0.4,0.6c0.2,0.1,0.4,0.2,0.7,0.2c0.4,0,0.8-0.1,1.1-0.2
		C417.2,200,417.4,199.9,417.4,199.8z" id="PATH_126" class="area" title=""></path>
	<path d="M424.1,201.5h-1.1c-0.1,1.4-0.6,2.5-1.6,3.5c-0.3,0.3-0.5,0.5-0.6,0.5c-0.5,0-1.2-0.1-1.9-0.2c-0.2,0-0.4-0.1-0.4-0.1
		c0,0,0.1-0.1,0.4-0.2c0.8-0.2,1.6-0.7,2.3-1.2c0.3-0.3,0.6-0.5,0.8-0.9c0.3-0.4,0.5-0.8,0.5-1.1v-0.3h-1.3c-1,0-1.4-0.4-1.4-1.2
		c0-0.5,0.1-1,0.4-1.6c0.3-0.6,0.7-1,1.1-1c0.5,0,0.9,0.3,1.2,1c0.2,0.5,0.4,1,0.4,1.6h1.1V201.5z M422.4,200.3
		c0-0.3-0.1-0.6-0.3-0.9c-0.2-0.4-0.5-0.5-0.8-0.5c-0.2,0-0.4,0.1-0.5,0.2s-0.2,0.3-0.2,0.6c0,0.5,0.4,0.7,1.2,0.7
		C421.8,200.4,422,200.3,422.4,200.3z" id="PATH_127" class="area" title=""></path>
	<path d="M430.3,192.2c0,0.2-0.2,0.6-0.4,1.1l-2.5,0.8c-1.1,0.4-1.9,0.7-2.3,0.9c0.8,0.8,1.3,1.4,1.6,1.7c0.5,0.7,0.8,1.3,0.9,2
		c0,0.5,0,1-0.2,1.4c-0.3,0.9-1.4,1.3-3.1,1.3h-0.5v-1.2h0.6c0.8,0,1.4,0,1.7-0.1c0.7-0.2,1.1-0.5,1.1-1c0-0.7-0.5-1.5-1.6-2.5
		l-0.1,0.2c-0.1-0.1-0.3-0.3-0.5-0.6c-0.3-0.3-0.4-0.6-0.4-0.6c0-0.2,0-0.4,0.1-0.8c0.1-0.4,0.2-0.6,0.3-0.7
		c0.1-0.1,0.8-0.4,2.1-0.8C428.2,192.9,429.4,192.5,430.3,192.2z" id="PATH_128" class="area" title=""></path>
	<path d="M436,199.4c0,1.4-0.9,2.1-2.8,2.1c-0.7,0-1.2-0.1-1.5-0.3c-0.4-0.2-0.6-0.7-0.6-1.3c0-0.3,0.1-0.6,0.2-0.9
		c0.1-0.1,0.1-0.2,0.2-0.2c0.1,0,0.1,0.1,0.1,0.3c0,0.1,0,0.2,0,0.3c0,0.4,0.2,0.7,0.6,0.8c0.2,0.1,0.6,0.1,1.1,0.1
		c1.5,0,2.2-0.2,2.2-0.7c0-0.7-0.9-1.7-2.6-2.9l0.3-1c0-0.1,0.1-0.1,0.1-0.1c0,0,0.1,0,0.2,0.1C435.2,197,436,198.3,436,199.4z" id="PATH_129" class="area" title=""></path>
	<path d="M438.4,200.3c0,0.4-0.1,0.8-0.3,1.1c-0.1,0.2-0.2,0.3-0.2,0.3c0,0-0.1-0.1-0.1-0.4c0-1.2-0.2-4-0.6-8.5l0.8-0.8
		c0.1-0.1,0.1-0.1,0.1-0.1c0,0,0,0.1,0,0.2C438.3,193.4,438.4,196.1,438.4,200.3z" id="PATH_130" class="area" title=""></path>
	<path d="M444.6,201.5h-1.1c-0.1,1.4-0.6,2.5-1.6,3.5c-0.3,0.3-0.5,0.5-0.6,0.5c-0.5,0-1.2-0.1-1.9-0.2c-0.2,0-0.4-0.1-0.4-0.1
		c0,0,0.1-0.1,0.4-0.2c0.8-0.2,1.6-0.7,2.3-1.2c0.3-0.3,0.6-0.5,0.8-0.9c0.3-0.4,0.5-0.8,0.5-1.1v-0.3h-1.3c-1,0-1.4-0.4-1.4-1.2
		c0-0.5,0.1-1,0.4-1.6c0.3-0.6,0.7-1,1.1-1c0.5,0,0.9,0.3,1.2,1c0.2,0.5,0.4,1,0.4,1.6h1.1V201.5z M442.8,200.3
		c0-0.3-0.1-0.6-0.3-0.9c-0.2-0.4-0.5-0.5-0.8-0.5c-0.2,0-0.4,0.1-0.5,0.2s-0.2,0.3-0.2,0.6c0,0.5,0.4,0.7,1.2,0.7
		C442.2,200.4,442.5,200.3,442.8,200.3z" id="PATH_131" class="area" title=""></path>
	<path d="M452.5,199.4c0,0.6-0.1,1.1-0.4,1.5c-0.3,0.4-0.8,0.7-1.3,0.7c-0.7,0-1.1-0.3-1.4-0.8c-0.4,0.6-0.8,0.8-1.4,0.8
		c-0.7,0-1.2-0.3-1.5-0.8c-0.4,0.6-0.9,0.8-1.6,0.8h-0.7v-1.2h0.8c0.7,0,1.2-0.4,1.3-1.2c0-0.2,0.1-0.3,0.2-0.3
		c0.1,0,0.1,0.1,0.2,0.3c0.1,0.8,0.5,1.2,1.3,1.2c0.4,0,0.8-0.1,1-0.3c0.1-0.2,0.2-0.4,0.3-0.8c0-0.2,0.1-0.3,0.2-0.3
		c0.1,0,0.1,0.1,0.2,0.3c0.1,0.8,0.5,1.2,1.2,1.2c0.8,0,1.1-0.2,1.1-0.5c0-0.3-0.2-0.7-0.6-1.1l0.5-0.9c0.1-0.1,0.1-0.2,0.2-0.2
		s0.1,0.1,0.2,0.2C452.3,198.4,452.5,198.9,452.5,199.4z" id="PATH_132" class="area" title=""></path>
</g>
<g id="G_133" class="area" title="">
	<path d="M387,167.5h-0.5c-0.5,0-0.9-0.2-1.1-0.5c0,0.6-0.1,1.3-0.2,2.2c-0.3,0.7-0.8,1.3-1.6,1.6c-0.7,0.3-1.4,0.5-2.3,0.5
		s-1.5-0.2-2-0.5c-0.6-0.4-0.9-1-0.9-1.9c0-0.8,0.2-1.6,0.7-2.2c0.1-0.1,0.1-0.1,0.2-0.1c0.1,0,0.1,0,0.1,0.1c0,0,0,0.1,0,0.1
		c-0.2,0.5-0.3,1-0.3,1.4c0,0.6,0.2,1.1,0.7,1.5c0.4,0.3,0.9,0.5,1.6,0.5c0.6,0,1.3-0.1,2-0.4c1-0.3,1.4-0.7,1.4-1.2l-0.1-4.8
		c-0.1-2.3-0.1-3.9-0.2-5l0.8-0.7c0,0.3,0.1,1.4,0.2,3.4l0.1,3.9c0,0.6,0.4,1,1.2,1h0.3V167.5z" id="PATH_134" class="area" title=""></path>
	<path d="M389.4,165.5c0,1.3-0.7,2-2,2h-0.8v-1.2h0.7c1,0,1.5-0.2,1.5-0.5c0-0.3-0.2-0.7-0.7-1.2l0.4-1c0-0.1,0.1-0.1,0.1-0.1
		s0.1,0.1,0.2,0.2C389.2,164.2,389.4,164.9,389.4,165.5z M389.1,169.7l-0.8,0.8l-0.8-0.8l0.8-0.8L389.1,169.7z" id="PATH_135" class="area" title=""></path>
	<path d="M393.4,167.5h-0.7c-0.7,0-1.3-0.3-1.5-0.9c-0.2-0.4-0.3-1.1-0.3-1.9v-1.9c0-0.9-0.1-2.2-0.2-3.9l0.6-0.7
		c0.1-0.1,0.2-0.1,0.2,0c0.1,0.9,0.2,2.2,0.2,3.9v2.9c0,0.8,0.4,1.2,1.2,1.2h0.5V167.5z" id="PATH_136" class="area" title=""></path>
	<path d="M395.8,165.5c0,1.3-0.7,2-2,2H393v-1.2h0.7c1,0,1.5-0.2,1.5-0.5c0-0.3-0.2-0.7-0.7-1.2l0.4-1c0-0.1,0.1-0.1,0.1-0.1
		s0.1,0.1,0.2,0.2C395.6,164.2,395.8,164.9,395.8,165.5z M395.5,169.7l-0.8,0.8l-0.8-0.8l0.8-0.8L395.5,169.7z" id="PATH_137" class="area" title=""></path>
</g>
<g id="G_138" class="area" title="">
	<path d="M422,122h-0.5c-0.6,0-1.1-0.1-1.4-0.4c0,0.1,0.1,0.3,0.1,0.5c0,1-0.3,1.6-1,1.6c-0.6,0-1-0.3-1.4-0.9
		c-0.3-0.5-0.4-1.1-0.4-1.7c0-0.1,0-0.3,0-0.4c-0.1,0-0.2,0-0.3,0c-0.7,0-1.1,0.2-1.4,0.5c0.2,1.6,0.3,2.8,0.3,3.6
		c0,0.4-0.1,0.8-0.3,1.4c-0.1,0.2-0.1,0.3-0.2,0.3s-0.1-0.1-0.1-0.4l-0.5-4.6c0-0.2,0.1-0.5,0.3-0.8c0.2-0.3,0.4-0.5,0.6-0.7
		c0.1-0.1,0.4-0.2,0.8-0.3c0.3-0.1,0.6-0.1,0.8-0.1c0.1,0,0.1,0,0.2,0l0.1-0.6c0-0.1,0.1-0.2,0.1-0.2c0,0,0.1,0,0.2,0.1
		c0.8,0.7,1.4,1.2,1.7,1.4c0.6,0.4,1.1,0.6,1.6,0.6h0.6V122z M419.8,121.9c0-0.3-0.2-0.6-0.6-1c-0.1-0.1-0.4-0.4-1.1-1
		c0,0.2,0,0.4,0,0.6c0,0.5,0.1,0.9,0.3,1.2c0.2,0.5,0.5,0.7,0.9,0.7C419.6,122.5,419.8,122.3,419.8,121.9z" id="PATH_139" class="area" title=""></path>
	<path d="M424.4,120c0,1.3-0.7,2-2,2h-0.8v-1.2h0.7c1,0,1.5-0.2,1.5-0.5c0-0.3-0.2-0.7-0.7-1.2l0.4-1c0-0.1,0.1-0.1,0.1-0.1
		s0.1,0.1,0.2,0.2C424.2,118.7,424.4,119.4,424.4,120z M424.3,115.9l-0.1,0.5c-0.7,0.1-1.5,0.3-2.2,0.6v-0.4
		c0.1-0.1,0.3-0.2,0.6-0.4c-0.4-0.3-0.6-0.5-0.6-0.7c0-0.2,0.1-0.5,0.4-0.8c0.3-0.4,0.6-0.5,0.9-0.5c0.4,0,0.6,0.2,0.8,0.5
		c0,0.1,0.1,0.2,0,0.2s-0.1,0-0.2,0c-0.2-0.1-0.4-0.1-0.6-0.1c-0.1,0-0.2,0-0.4,0.1c-0.2,0.1-0.2,0.2-0.2,0.3c0,0.2,0.1,0.4,0.4,0.5
		c0.2,0.1,0.4,0.2,0.6,0.2c0.2,0,0.3,0,0.5-0.1l0,0c0.1,0,0.2,0,0.2,0C424.3,115.8,424.3,115.9,424.3,115.9z" id="PATH_140" class="area" title=""></path>
	<path d="M428.4,122h-0.7c-0.7,0-1.3-0.3-1.5-0.9c-0.2-0.4-0.3-1.1-0.3-1.9v-1.9c0-0.9-0.1-2.2-0.2-3.9l0.6-0.7
		c0.1-0.1,0.2-0.1,0.2,0c0.1,0.9,0.2,2.2,0.2,3.9v2.9c0,0.8,0.4,1.2,1.2,1.2h0.5V122z" id="PATH_141" class="area" title=""></path>
	<path d="M432.3,119.2c0,0.9-0.1,1.5-0.3,1.8c-0.5,0.7-1.3,1-2.6,1H428v-1.2h1c1.7,0,2.6-0.3,2.8-0.8c0.1-0.2,0-0.4-0.1-0.6
		c-0.4,0.1-0.8,0.1-1.3,0.1c-0.9,0-1.4-0.4-1.4-1.2c0-0.5,0.1-1.1,0.4-1.6c0.3-0.6,0.7-0.9,1.2-0.9c0.4,0,0.8,0.3,1.1,0.8
		C432.1,117.4,432.3,118.2,432.3,119.2z M430.3,113.7l-0.8,0.8l-0.8-0.8l0.8-0.8L430.3,113.7z M431.5,118.3c0-0.3-0.1-0.6-0.3-0.9
		c-0.2-0.3-0.5-0.4-0.8-0.4c-0.2,0-0.4,0.1-0.6,0.2s-0.2,0.3-0.2,0.5c0,0.4,0.3,0.6,1,0.6C430.8,118.4,431.1,118.4,431.5,118.3z
		 M432,113.7l-0.8,0.8l-0.8-0.8l0.8-0.8L432,113.7z" id="PATH_142" class="area" title=""></path>
	<path d="M418.1,141.2h-0.4c-0.4,0-0.6-0.1-0.8-0.2c0,0.1,0,0.2,0,0.3c0,0.9-0.3,1.8-0.9,2.7c-0.5,0.8-1,1.1-1.3,1.1
		c-0.8,0-1.4,0-2-0.1c-0.2,0-0.3-0.1-0.3-0.1s0.1-0.1,0.3-0.1c0.8-0.2,1.6-0.6,2.4-1.2c0.8-0.7,1.3-1.4,1.3-2.1c0-0.4-0.3-1-1-1.7
		l0.5-0.9c0-0.1,0.1-0.1,0.1-0.1c0,0,0.1,0.1,0.1,0.1c0.3,0.4,0.5,0.7,0.7,0.8c0.3,0.2,0.7,0.4,1.1,0.4h0.3V141.2z" id="PATH_143" class="area" title=""></path>
	<path d="M424.3,141.2h-0.5c-0.4,0-0.8,0.1-1.1,0.2c-0.5,0.2-0.8,0.5-0.8,1c0,0.6,0.4,1.1,1.2,1.6l-0.5,1c-0.9-0.3-1.7-0.8-2.3-1.4
		c-0.8-0.7-1.2-1.6-1.2-2.5h-1.4V140h1.3c0-0.8,0.2-1.6,0.6-2.6c0.4-0.9,0.7-1.3,0.9-1.3c0.2,0,0.5,0.4,0.8,1.3
		c0.3,0.8,0.4,1.3,0.4,1.6c0,1.4-0.7,2.1-2.1,2.1c0.1,0.4,0.3,0.8,0.6,1.2s0.7,0.7,1.1,0.9c0-0.1,0-0.3,0-0.4c0-0.7,0.2-1.3,0.5-1.8
		c0.5-0.7,1.1-1.1,2-1.1h0.4V141.2z M421.3,139.6c0-0.2-0.1-0.6-0.3-1.1c-0.2-0.6-0.4-0.8-0.6-0.8c-0.1,0-0.3,0.2-0.5,0.7
		c-0.2,0.5-0.3,1.1-0.3,1.7C420.7,140,421.3,139.9,421.3,139.6z" id="PATH_144" class="area" title=""></path>
	<path d="M432.2,139.1c0,0.6-0.1,1.1-0.4,1.5c-0.3,0.4-0.8,0.7-1.3,0.7c-0.7,0-1.1-0.3-1.4-0.8c-0.4,0.6-0.8,0.8-1.4,0.8
		c-0.7,0-1.2-0.3-1.5-0.8c-0.4,0.6-0.9,0.8-1.6,0.8h-0.7V140h0.8c0.7,0,1.2-0.4,1.3-1.2c0-0.2,0.1-0.3,0.2-0.3
		c0.1,0,0.1,0.1,0.2,0.3c0.1,0.8,0.5,1.2,1.3,1.2c0.4,0,0.8-0.1,1-0.3c0.1-0.2,0.2-0.4,0.3-0.8c0-0.2,0.1-0.3,0.2-0.3
		c0.1,0,0.1,0.1,0.2,0.3c0.1,0.8,0.5,1.2,1.2,1.2c0.8,0,1.1-0.2,1.1-0.5c0-0.3-0.2-0.7-0.6-1.1l0.5-0.9c0.1-0.1,0.1-0.2,0.2-0.2
		s0.1,0.1,0.2,0.2C432,138.1,432.2,138.6,432.2,139.1z M428.8,135.4l-0.7,0.7l-0.7-0.7l0.7-0.7L428.8,135.4z M429.7,133.9l-0.7,0.7
		l-0.7-0.7l0.7-0.7L429.7,133.9z M430.6,135.4l-0.7,0.7l-0.7-0.7l0.7-0.7L430.6,135.4z" id="PATH_145" class="area" title=""></path>
</g>
<g id="G_146" class="area" title="">
	<path d="M274.9,162.2c0,1-0.3,1.9-0.9,2.8c-0.5,0.7-1,1.1-1.3,1.1c-0.8,0-1.4,0-2-0.1c-0.2,0-0.3-0.1-0.3-0.1s0.1-0.1,0.3-0.1
		c0.8-0.2,1.6-0.6,2.4-1.2c0.8-0.7,1.3-1.4,1.3-2.1c0-0.4-0.3-1-1-1.7l0.5-0.9c0-0.1,0.1-0.1,0.1-0.1c0,0,0.1,0.1,0.1,0.1
		c0.2,0.3,0.5,0.7,0.6,1.2C274.8,161.5,274.9,161.9,274.9,162.2z" id="PATH_147" class="area" title=""></path>
	<path d="M281.1,162.2H280c-0.1,1.4-0.6,2.5-1.6,3.5c-0.3,0.3-0.5,0.5-0.6,0.5c-0.5,0-1.2-0.1-1.9-0.2c-0.2,0-0.4-0.1-0.4-0.1
		c0,0,0.1-0.1,0.4-0.2c0.8-0.2,1.6-0.7,2.3-1.2c0.3-0.3,0.6-0.5,0.8-0.9c0.3-0.4,0.5-0.8,0.5-1.1v-0.3h-1.3c-1,0-1.4-0.4-1.4-1.2
		c0-0.5,0.1-1,0.4-1.6c0.3-0.6,0.7-1,1.1-1c0.5,0,0.9,0.3,1.2,1c0.2,0.5,0.4,1,0.4,1.6h1.1V162.2z M279.3,161c0-0.3-0.1-0.6-0.3-0.9
		c-0.2-0.4-0.5-0.5-0.8-0.5c-0.2,0-0.4,0.1-0.5,0.2c-0.2,0.2-0.2,0.3-0.2,0.6c0,0.5,0.4,0.7,1.2,0.7C278.8,161,279,161,279.3,161z" id="PATH_148" class="area" title=""></path>
	<path d="M283.5,160.2c0,1.3-0.7,2-2,2h-0.8V161h0.7c1,0,1.5-0.2,1.5-0.5c0-0.3-0.2-0.7-0.7-1.2l0.4-1c0-0.1,0.1-0.1,0.1-0.1
		c0,0,0.1,0.1,0.2,0.2C283.3,158.9,283.5,159.5,283.5,160.2z M283.4,155.6l-0.8,0.8l-0.8-0.8l0.8-0.8L283.4,155.6z" id="PATH_149" class="area" title=""></path>
</g>
<g id="G_150" class="area" title="">
	<path d="M321.4,217.8H321c-0.5,0-0.9-0.2-1.1-0.5c0,0.6-0.1,1.3-0.2,2.2c-0.3,0.7-0.8,1.3-1.6,1.6c-0.7,0.3-1.4,0.5-2.3,0.5
		c-0.9,0-1.5-0.2-2-0.5c-0.6-0.4-0.9-1-0.9-1.9c0-0.8,0.2-1.6,0.7-2.2c0.1-0.1,0.1-0.1,0.2-0.1c0.1,0,0.1,0,0.1,0.1c0,0,0,0.1,0,0.1
		c-0.2,0.5-0.3,1-0.3,1.4c0,0.6,0.2,1.1,0.7,1.5c0.4,0.3,0.9,0.5,1.6,0.5c0.6,0,1.3-0.1,2-0.4c1-0.3,1.4-0.7,1.4-1.2l-0.1-4.8
		c-0.1-2.3-0.1-3.9-0.2-5l0.8-0.7c0,0.3,0.1,1.4,0.2,3.4l0.1,3.9c0,0.6,0.4,1,1.2,1h0.3V217.8z" id="PATH_151" class="area" title=""></path>
	<path d="M326.4,215.8c0,0.5,0,0.9-0.2,1.3c-0.2,0.5-0.5,0.8-0.8,0.8c-0.5,0-1.3-0.3-2.3-1c-0.3,0.4-0.5,0.6-0.6,0.7
		c-0.3,0.2-0.6,0.3-1,0.3H321v-1.2h0.7c0.4,0,0.8-0.2,1.2-0.7c0.2-0.2,0.5-0.7,0.9-1.3c0.3-0.5,0.7-0.7,1-0.7c0.5,0,0.9,0.2,1.2,0.7
		C326.2,215.1,326.4,215.4,326.4,215.8z M325.8,216.5c0-0.3-0.1-0.6-0.3-1c-0.2-0.4-0.5-0.6-0.8-0.6c-0.3,0-0.6,0.3-1,0.9
		c0.2,0.2,0.5,0.4,0.9,0.6c0.4,0.2,0.8,0.3,1,0.3C325.7,216.8,325.8,216.7,325.8,216.5z" id="PATH_152" class="area" title=""></path>
	<path d="M330.4,207.1c-0.4,0.4-1,0.5-1.6,0.5c-0.1,0-0.2,0-0.4,0s-0.3,0-0.4,0c-0.1,0-0.2,0.1-0.3,0.2s-0.2,0.2-0.2,0.2
		c-0.1,0-0.1-0.1-0.1-0.2c0-0.1,0.1-0.3,0.2-0.5c0.1-0.3,0.2-0.4,0.3-0.4c0.1,0,0.3,0,0.6,0.1s0.5,0.1,0.6,0.1c0.6,0,1,0,1.3-0.1
		c0.2,0,0.3-0.1,0.3-0.1c0,0,0.1,0,0.1,0C330.6,206.9,330.6,207,330.4,207.1z M329.8,216.5c0,0.4-0.1,0.8-0.3,1.1
		c-0.1,0.2-0.2,0.3-0.2,0.3c0,0-0.1-0.1-0.1-0.4c0-1.2-0.2-4-0.6-8.5l0.8-0.8c0.1-0.1,0.1-0.1,0.1-0.1c0,0,0,0.1,0,0.2
		C329.7,209.7,329.8,212.4,329.8,216.5z" id="PATH_153" class="area" title=""></path>
</g>
<g id="G_154" class="area" title="">
	<path d="M207.3,141.5h-0.4c-0.4,0-0.6-0.1-0.8-0.2c0,0.1,0,0.2,0,0.3c0,0.9-0.3,1.8-0.9,2.7c-0.5,0.8-1,1.1-1.3,1.1
		c-0.8,0-1.4,0-2-0.1c-0.2,0-0.3-0.1-0.3-0.1s0.1-0.1,0.3-0.1c0.8-0.2,1.6-0.6,2.4-1.2c0.8-0.7,1.3-1.4,1.3-2.1c0-0.4-0.3-1-1-1.7
		l0.5-0.9c0-0.1,0.1-0.1,0.1-0.1c0,0,0.1,0.1,0.1,0.1c0.3,0.4,0.5,0.7,0.7,0.8c0.3,0.2,0.7,0.4,1.1,0.4h0.3V141.5z" id="PATH_155" class="area" title=""></path>
	<path d="M213.5,141.5H213c-0.4,0-0.8,0.1-1.1,0.2c-0.5,0.2-0.8,0.5-0.8,1c0,0.6,0.4,1.1,1.2,1.6l-0.5,1c-0.9-0.3-1.7-0.8-2.3-1.4
		c-0.8-0.7-1.2-1.6-1.2-2.5h-1.4v-1.2h1.3c0-0.8,0.2-1.6,0.6-2.6c0.4-0.9,0.7-1.3,0.9-1.3c0.2,0,0.5,0.4,0.8,1.3
		c0.3,0.8,0.4,1.3,0.4,1.6c0,1.4-0.7,2.1-2.1,2.1c0.1,0.4,0.3,0.8,0.6,1.2c0.3,0.4,0.7,0.7,1.1,0.9c0-0.1,0-0.3,0-0.4
		c0-0.7,0.2-1.3,0.5-1.8c0.5-0.7,1.1-1.1,2-1.1h0.4V141.5z M210.4,139.9c0-0.2-0.1-0.6-0.3-1.1c-0.2-0.6-0.4-0.8-0.6-0.8
		c-0.1,0-0.3,0.2-0.5,0.7c-0.2,0.5-0.3,1.1-0.3,1.7C209.9,140.3,210.4,140.2,210.4,139.9z" id="PATH_156" class="area" title=""></path>
	<path d="M221.4,139.3c0,0.6-0.1,1.1-0.4,1.5c-0.3,0.4-0.8,0.7-1.3,0.7c-0.7,0-1.1-0.3-1.4-0.8c-0.4,0.6-0.8,0.8-1.4,0.8
		c-0.7,0-1.2-0.3-1.5-0.8c-0.4,0.6-0.9,0.8-1.6,0.8h-0.7v-1.2h0.8c0.7,0,1.2-0.4,1.3-1.2c0-0.2,0.1-0.3,0.2-0.3
		c0.1,0,0.1,0.1,0.2,0.3c0.1,0.8,0.5,1.2,1.3,1.2c0.4,0,0.8-0.1,1-0.3c0.1-0.2,0.2-0.4,0.3-0.8c0-0.2,0.1-0.3,0.2-0.3
		c0.1,0,0.1,0.1,0.2,0.3c0.1,0.8,0.5,1.2,1.2,1.2c0.8,0,1.1-0.2,1.1-0.5c0-0.3-0.2-0.7-0.6-1.1l0.5-0.9c0.1-0.1,0.1-0.2,0.2-0.2
		s0.1,0.1,0.2,0.2C221.2,138.4,221.4,138.9,221.4,139.3z M218,135.7l-0.7,0.7l-0.7-0.7l0.7-0.7L218,135.7z M218.9,134.1l-0.7,0.7
		l-0.7-0.7l0.7-0.7L218.9,134.1z M219.8,135.7l-0.7,0.7l-0.7-0.7l0.7-0.7L219.8,135.7z" id="PATH_157" class="area" title=""></path>
	<path d="M227.6,141.5h-1.1c-0.1,1.4-0.6,2.5-1.6,3.5c-0.3,0.3-0.5,0.5-0.6,0.5c-0.5,0-1.2-0.1-1.9-0.2c-0.2,0-0.4-0.1-0.4-0.1
		c0,0,0.1-0.1,0.4-0.2c0.8-0.2,1.6-0.7,2.3-1.2c0.3-0.3,0.6-0.5,0.8-0.9c0.3-0.4,0.5-0.8,0.5-1.1v-0.3h-1.3c-1,0-1.4-0.4-1.4-1.2
		c0-0.5,0.1-1,0.4-1.6c0.3-0.6,0.7-1,1.1-1c0.5,0,0.9,0.3,1.2,1c0.2,0.5,0.4,1,0.4,1.6h1.1V141.5z M225.8,140.3
		c0-0.3-0.1-0.6-0.3-0.9c-0.2-0.4-0.5-0.5-0.8-0.5c-0.2,0-0.4,0.1-0.5,0.2c-0.2,0.2-0.2,0.3-0.2,0.6c0,0.5,0.4,0.7,1.2,0.7
		C225.3,140.3,225.5,140.3,225.8,140.3z" id="PATH_158" class="area" title=""></path>
	<path d="M230,139.5c0,1.3-0.7,2-2,2h-0.8v-1.2h0.7c1,0,1.5-0.2,1.5-0.5c0-0.3-0.2-0.7-0.7-1.2l0.4-1c0-0.1,0.1-0.1,0.1-0.1
		c0,0,0.1,0.1,0.2,0.2C229.8,138.2,230,138.8,230,139.5z M229.9,134.9l-0.8,0.8l-0.8-0.8l0.8-0.8L229.9,134.9z" id="PATH_159" class="area" title=""></path>
</g>
<g id="G_160" class="area" title="">
	<path d="M129.2,145.9h-0.4c-0.5,0-0.9-0.1-1.1-0.3c-0.3-0.2-0.5-0.6-0.5-1c-1.1,1-2.8,1.5-5.1,1.5c-2.4,0-3.6-0.7-3.6-2.2
		c0-0.5,0.2-1,0.6-1.5c0.1-0.1,0.1-0.1,0.2-0.1c0.1,0,0.1,0,0.1,0.1c0,0,0,0.1,0,0.2c-0.1,0.3-0.2,0.6-0.2,0.9c0,1,1.1,1.5,3.3,1.5
		c2.5,0,4.2-0.5,5-1.6c0.2-0.2,0.3-0.3,0.4-0.3c0.1,0,0.1,0.1,0.1,0.2c0,0.1,0,0.2-0.1,0.4c0,0.2-0.1,0.3-0.1,0.4
		c0,0.5,0.4,0.8,1.1,0.8h0.4V145.9z M123,140.1l-0.8,0.8l-0.8-0.8l0.8-0.8L123,140.1z M124.7,140.1l-0.8,0.8l-0.8-0.8l0.8-0.8
		L124.7,140.1z" id="PATH_161" class="area" title=""></path>
	<path d="M137.1,143.7c0,0.6-0.1,1.1-0.4,1.5c-0.3,0.4-0.8,0.7-1.3,0.7c-0.7,0-1.1-0.3-1.4-0.8c-0.4,0.6-0.8,0.8-1.4,0.8
		c-0.7,0-1.2-0.3-1.5-0.8c-0.4,0.6-0.9,0.8-1.6,0.8h-0.7v-1.2h0.8c0.7,0,1.2-0.4,1.3-1.2c0-0.2,0.1-0.3,0.2-0.3
		c0.1,0,0.1,0.1,0.2,0.3c0.1,0.8,0.5,1.2,1.3,1.2c0.4,0,0.8-0.1,1-0.3c0.1-0.2,0.2-0.4,0.3-0.8c0-0.2,0.1-0.3,0.2-0.3
		c0.1,0,0.1,0.1,0.2,0.3c0.1,0.8,0.5,1.2,1.2,1.2c0.8,0,1.1-0.2,1.1-0.5c0-0.3-0.2-0.7-0.6-1.1l0.5-0.9c0.1-0.1,0.1-0.2,0.2-0.2
		s0.1,0.1,0.2,0.2C136.9,142.8,137.1,143.3,137.1,143.7z M133.7,140.1l-0.7,0.7l-0.7-0.7l0.7-0.7L133.7,140.1z M134.6,138.5
		l-0.7,0.7l-0.7-0.7l0.7-0.7L134.6,138.5z M135.5,140.1l-0.7,0.7l-0.7-0.7l0.7-0.7L135.5,140.1z" id="PATH_162" class="area" title=""></path>
	<path d="M143.2,143.8c0,1.4-0.9,2.1-2.8,2.1c-0.7,0-1.2-0.1-1.5-0.3c-0.4-0.2-0.6-0.7-0.6-1.3c0-0.3,0.1-0.6,0.2-0.9
		c0.1-0.1,0.1-0.2,0.2-0.2c0.1,0,0.1,0.1,0.1,0.3c0,0.1,0,0.2,0,0.3c0,0.4,0.2,0.7,0.6,0.8c0.2,0.1,0.6,0.1,1.1,0.1
		c1.5,0,2.2-0.2,2.2-0.7c0-0.7-0.9-1.7-2.6-2.9l0.3-1c0-0.1,0.1-0.1,0.1-0.1c0,0,0.1,0,0.2,0.1C142.4,141.4,143.2,142.6,143.2,143.8
		z" id="PATH_163" class="area" title=""></path>
	<path d="M148.2,146c0,1-0.3,1.9-0.9,2.8c-0.5,0.7-1,1.1-1.3,1.1c-0.8,0-1.4,0-2-0.1c-0.2,0-0.3-0.1-0.3-0.1s0.1-0.1,0.3-0.1
		c0.8-0.2,1.6-0.6,2.4-1.2c0.8-0.7,1.3-1.4,1.3-2.1c0-0.4-0.3-1-1-1.7l0.5-0.9c0-0.1,0.1-0.1,0.1-0.1c0,0,0.1,0.1,0.1,0.1
		c0.2,0.3,0.5,0.7,0.6,1.2C148.1,145.2,148.2,145.6,148.2,146z" id="PATH_164" class="area" title=""></path>
	<path d="M157.6,145.9H157c-1.2,0-1.9-0.9-1.9-2.7c0-0.2,0-0.5,0-0.9c-0.8,1.9-1.7,3.3-2.9,4.1c-0.7,0.2-1.6,0.3-2.6,0.3
		c-0.2,0-0.3,0-0.3,0c0,0,0.3-0.2,0.9-0.5c0.4-0.2,0.8-0.4,1.2-0.6c0.7-0.3,1.4-0.8,2-1.5c-0.3-1-0.7-1.9-1.3-2.7
		c-0.4-0.5-1-1.1-1.9-1.8L150,140c-0.3-0.2-0.5-0.4-0.7-0.6c-0.3-0.3-0.5-0.5-0.5-0.7c0-0.2,0-0.5,0.1-1c0-0.1,0-0.2,0.1-0.2
		s0.1,0,0.2,0.1c1.3,0.9,2.3,1.8,2.9,2.6c0.8,1,1.3,2.1,1.6,3.4c0.4-0.5,0.7-1,0.9-1.6c0.3-0.7,0.4-1.3,0.4-1.8c0-0.9-0.1-1.9-0.2-3
		l0.8-0.7c0.1,0.5,0.1,2.8,0.2,6.9c0,0.9,0.4,1.4,1.2,1.4h0.5V145.9z" id="PATH_165" class="area" title=""></path>
	<path d="M163.8,136.6c0,0.2-0.2,0.6-0.4,1.1l-2.5,0.8c-1.1,0.4-1.9,0.7-2.3,0.9c0.8,0.8,1.3,1.4,1.6,1.7c0.5,0.7,0.8,1.3,0.9,2
		c0,0.5,0,1-0.2,1.4c-0.3,0.9-1.4,1.3-3.1,1.3h-0.5v-1.2h0.6c0.8,0,1.4,0,1.7-0.1c0.7-0.2,1.1-0.5,1.1-1c0-0.7-0.5-1.5-1.6-2.5
		l-0.1,0.2c-0.1-0.1-0.3-0.3-0.5-0.6c-0.3-0.3-0.4-0.6-0.4-0.6c0-0.2,0-0.4,0.1-0.8c0.1-0.4,0.2-0.6,0.3-0.7
		c0.1-0.1,0.8-0.4,2.1-0.8C161.7,137.3,162.9,136.9,163.8,136.6z" id="PATH_166" class="area" title=""></path>
</g>
<g id="G_167" class="area" title="">
	<path d="M82.4,99.5h-0.5c-0.5,0-0.8,0-1-0.1c0,0.3,0.1,0.5,0.1,0.8c0,0.5-0.1,0.8-0.2,1.1c-0.3,0.7-0.8,1.3-1.8,1.7
		c-0.8,0.3-1.6,0.5-2.5,0.5c-0.9,0-1.6-0.2-2.2-0.6c-0.6-0.5-0.9-1.1-0.9-2c0-0.5,0.1-0.9,0.3-1.5c0.2-0.4,0.3-0.7,0.5-0.9
		c0.1-0.1,0.2-0.1,0.2-0.1c0.1,0,0.1,0,0.1,0.1c0,0,0,0.1,0,0.2c-0.3,0.6-0.4,1.2-0.4,1.7c0,0.5,0.2,0.9,0.5,1.3
		c0.4,0.5,1.1,0.7,2,0.7c1,0,1.9-0.2,2.6-0.5c0.6-0.3,1-0.6,1.2-1c0.1-0.1,0.1-0.3,0-0.7c0-0.3-0.1-0.6-0.1-0.7
		c-0.1-0.3-0.5-0.8-1-1.5l0.4-0.8c0.1-0.1,0.1-0.2,0.1-0.2s0.1,0,0.1,0.1c0.5,0.8,1,1.2,1.6,1.2h0.8V99.5z M78,95l-0.8,0.8L76.4,95
		l0.8-0.8L78,95z" id="PATH_168" class="area" title=""></path>
	<path d="M84.8,97.5c0,1.3-0.7,2-2,2H82v-1.2h0.7c1,0,1.5-0.2,1.5-0.5c0-0.3-0.2-0.7-0.7-1.2l0.4-1c0-0.1,0.1-0.1,0.1-0.1
		c0,0,0.1,0.1,0.2,0.2C84.6,96.2,84.8,96.8,84.8,97.5z M84.5,101.7l-0.8,0.8l-0.8-0.8l0.8-0.8L84.5,101.7z" id="PATH_169" class="area" title=""></path>
	<path d="M88.8,99.5h-0.7c-0.7,0-1.3-0.3-1.5-0.9c-0.2-0.4-0.3-1.1-0.3-1.9v-1.9c0-0.9-0.1-2.2-0.2-3.9l0.6-0.7
		c0.1-0.1,0.2-0.1,0.2,0c0.1,0.9,0.2,2.2,0.2,3.9v2.9c0,0.8,0.4,1.2,1.2,1.2h0.5V99.5z" id="PATH_170" class="area" title=""></path>
	<path d="M95.7,99.5h-0.7c-0.5,0-1-0.3-1.6-0.8c-0.3-0.3-0.7-0.8-1.2-1.5c0.1,1.6-0.8,2.4-2.7,2.4h-1.1v-1.2h1.3c1.3,0,2-0.4,2-1.1
		c0-0.4-0.2-0.9-0.7-1.5c-0.3-0.4-0.7-0.8-1.3-1.3C89.2,94,89,93.7,89,93.7c0-0.7,0.1-1.2,0.3-1.5c0-0.1,0.7-0.3,2-0.8
		c1.3-0.5,2.5-0.9,3.6-1.2c0,0.1-0.1,0.5-0.3,1.1c-1.3,0.4-2.9,1-4.9,1.8c0.9,0.8,2.1,2.1,3.4,3.9c0.5,0.6,0.9,1,1.2,1.2
		c0.2,0.1,0.6,0.2,1,0.2h0.4V99.5z" id="PATH_171" class="area" title=""></path>
	<path d="M100.6,99.5h-0.8c-0.9,0-1.5-0.3-1.9-0.9c-0.3,0.6-1,0.9-2.1,0.9h-0.6v-1.2h0.9c1,0,1.5-0.4,1.6-1.1c0-0.3,0.1-0.5,0.2-0.5
		c0.1,0,0.2,0.2,0.2,0.5c0.1,0.7,0.6,1.1,1.5,1.1h0.9V99.5z M98.6,94.3l-0.8,0.8L97,94.3l0.8-0.8L98.6,94.3z" id="PATH_172" class="area" title=""></path>
	<path d="M103,97.5c0,1.3-0.7,2-2,2h-0.8v-1.2h0.7c1,0,1.5-0.2,1.5-0.5c0-0.3-0.2-0.7-0.7-1.2l0.4-1c0-0.1,0.1-0.1,0.1-0.1
		c0,0,0.1,0.1,0.2,0.2C102.8,96.2,103,96.8,103,97.5z M102.1,93.1l-0.8,0.8l-0.8-0.8l0.8-0.8L102.1,93.1z M103.8,93.1l-0.8,0.8
		l-0.8-0.8l0.8-0.8L103.8,93.1z" id="PATH_173" class="area" title=""></path>
</g>
</svg>


