



    


<svg version="1.1" id="Layer_1" xmlns="http://www.w3.org/2000/svg" xmlns:xlink="http://www.w3.org/1999/xlink" x="0px" y="0px" viewBox="0 0 462.2 525" style="enable-background:new 0 0 462.2 525;" xml:space="preserve" width="100%" height="100%">
<style type="text/css">
	.st0{fill:#FDFAD6;stroke:#020202;stroke-width:0.2;stroke-miterlimit:10;}
	.st1{fill:#E8D0E5;stroke:#020202;stroke-width:0.2;stroke-miterlimit:10;}
	.st2{fill:#DBECCB;stroke:#020202;stroke-width:0.2;stroke-miterlimit:10;}
	.st3{fill:#FBD1D1;stroke:#020202;stroke-width:0.2;stroke-miterlimit:10;}
</style>

		<path class="st0 area" d="M152,149.8c7.2-4.1,7.2-12.9,5.2-20.7c14-8.3,30,0.5,40.9,11.9c2.6,2.6,7.2,0,10.9,0.5c1,0.5,2.6,0.5,3.6,1.6
			c8.3,14,23.8,13.5,37.8,16.6c7.2,2.1,9.8,9.3,12.9,16c0.9,2.7,2.9,4.5,5.3,5.9l0.5-1.4l2,0.3c0.6,0.1,14,1.8,26,6.9
			c8,3.4,18.6,6.1,24.5,3.2c2.1-1,3.4-2.6,4.1-5c4.6-16,20.1-16.6,33-15.3c6.5,0.6,16.3,1.6,18-0.4c0.3-0.4,0.7-1.5-0.4-4.7
			c-2.8-8.4-9.3-28,0.6-38c1.8-1.8,4-3.9,6.4-6.1c-3-2.3-5.6-5.4-8.2-8c-9.8-10.3-26.9-2.1-40.9-5.2c-4.1-0.5-5.7-3.6-8.8-6.2
			c-1.5-1-2.6-3.6-5.2-4.1c-6.2-1-11.9,2.6-17.6,1c-5.7-2.1-11.4-5.7-18.1-5.7c-2.6-0.5-3.1-5.2-5.7-6.7c-7.2-6.2-14,3.6-21.2,6.7
			c-1.5,0.5-4.1,0.5-5.2-0.5c-5.7-4.1-7.8-12.9-13.5-15c-11.9-3.6-25.9-3.6-36.2-13.5c-4.1-4.1-10.4,1.6-14.5-1
			c-11.9-6.2-23.8-7.2-36.2-5.7c-9.7,1.3-13.9-6.7-19-13.6c-0.9-0.2-1.8-0.4-2.6-0.7c-2.4,5.2-8.9,18.6-14.4,26.8
			c-1.6,2.4-2.1,4.4-1.5,6.2c1.5,4.5,10.7,7.6,13.7,8.6c2.9,1,5,2.7,6.1,5c2.3,4.7,0.2,10.9-1.5,15.8c-0.5,1.5-1,2.9-1.3,4.1
			c-0.5,2.1-1.5,5.1-2.7,8.6c-2.2,6.8-5.2,15.9-5.7,21.6c3.3,1,6.9,0.8,9.5,1.9C139.1,144.6,143.7,154.5,152,149.8z" id="_x633__x627__x648__x647_" title="ساوه"></path>
		<path class="st1 area" d="M437.8,360.3c-7.1-5.3-20.7-18.9-24.3-26.2l-0.8-1.7c-3.6-7.3-6.3-12.1-12.1-12.1c-2.4,0-6.2-0.2-10.7-0.6
			c-10.6-0.7-26.7-1.8-32.2,0.4c-8,3.2-19.9,3.5-22.4,3.5c-1.9,0.6-8.2,2.4-12.6-0.6c-1.8-1.2-3.8-3.7-3.8-8.6
			c0-5.3-3.2-9.5-6.6-13.9c-0.8-1.1-1.6-2.2-2.4-3.3c-0.9,0.2-1.7,0.5-2.5,1.1c-0.5,1-2.1,1-3.1,1.6c-4.7,4.1-10.9,0.5-14.5,7.2
			c-3.1,5.7-2.1,10.9,1.6,16c0.5,1-0.5,2.6,0,3.6c6.2,7.8,17.6,6.7,24.8,1c1-0.5,3.1-0.5,4.7,0c6.2,3.1,12.4,5.7,19.7,6.7
			c2.1,0,4.7,2.1,4.7,4.1c2.1,10.9,1.6,20.7,9.3,29.5c2.1,2.1-1,8.8,2.1,11.9c5.2,5.2,10.9,9.8,11.9,16.6c1,9.3-0.5,18.6,6.2,26.9
			c2,2.3,1.6,6.2-0.1,9.2c6.9-2.5,16-2.8,25.3,0.7c12.6,4.7,31-3.4,33.8-10.4c1.5-3.6,3.2-12.3,3.2-32.8c0-1.5,0.5-4,1.1-7.2
			C439,376.6,441.5,363.1,437.8,360.3z" id="_x62F__x644__x6CC__x62C__x627__x646_" title="دلیجان"></path>
		<path class="st1 area" d="M149.9,374.9c-7.2-3.6-5.7-11.9-7.8-19.1c-1.1-4.7-6.7-7.8-10.9-11.9c-1-1-1-3.1-0.5-4.1
			c3.1-3.6,6.7-6.7,5.2-11.4c-1.6-4.1-6.7-4.7-9.3-3.1c-4.7,2.6-7.8,7.8-12.4,9.3c-7.2,3.1-10.4-3.6-16.1-6.7
			c-6.2-3.1-14.5-3.6-21.7-5.2c-6.7-1.9-13.6,1.9-16.6,7.5c1.9,4,3.9,7.5,5.6,9.6c2.3,2.9,2.8,6.3,1.6,9.9
			c-2.6,7.7-12.4,14.6-18.1,16c-3.1,0.8-7.5,2.4-11.7,3.9c1.3,3.6,3.9,11.8,2.9,17.6c-0.3,1.9-0.1,3.7,0.2,5.5
			c0.5,4,1.1,8.5-4.2,13.8c-1.6,1.5-3.6,3.2-5.8,4.9c-2.7,2.1-8.9,7.1-8.5,8.7c0,0,0.5,1.3,6.2,2.3c18.9,3.3,25.6,3.3,33.3,3.3
			c13.2,0,16,6.2,16,11.5c0,4.6,4.7,12.5,7,15.9c3,1.2,15.7,5.5,19.7-2.5c1.7-3.4,2.9-6.9,3.9-10c1.9-5.6,3.3-10,6.8-11.6
			c1.8-0.8,3.8-0.7,6,0.2c7.4,3.2,12.5,3.2,20.4,3.2c1.5,0,3.1-0.1,4.9-0.2c5.2-0.3,10.5-0.5,14.3,0.9c3.1-8.1,8.3-14.7,16.2-17.6
			c0.3-0.1,0.5-0.2,0.8-0.3c-2.1-10.7-6.2-18.7-13.2-27.2C160.3,384.2,156.7,378,149.9,374.9z" id="_x634__x627__x632__x646__x62F_" title="شازند"></path>
		<path class="st0 area" d="M153,307.1c1-2.1,1-5.2,0-5.7c-7.2-4.7-18.6-5.7-21.2-16c-1.6-5.7-11.9-8.3-14.5-15
			c-2.1-5.2,0.5-10.3,3.6-15.5c1.2-1.5,0.7-3.2-0.2-5c-3.2-0.7-6.3-2.3-9.1-4.8c-3.6-3.6-8.8,2.1-13.4,0c-2.1-1-4.1-3.6-6.7-4.1
			c-4.1-1.6-7.2,3.6-11.4,4.1c-7.8,1.6-11.4-8.3-16.6-12.4c-0.3-0.3-0.5-0.5-0.8-0.7c-2.1,1.6-4.7,2.5-7.7,2.5c-2.9,0-3.9,2-5.8,7.7
			c-1.3,3.7-2.7,7.9-5.7,11.6c-5.9,7.4-2.9,21.3-2.9,21.5l8.4,28.5c0.1,0.1,5.4,15.4,10.8,26.6c3-5.7,9.9-9.4,16.6-7.5
			c7.2,1.6,15.5,2.1,21.7,5.2c5.7,3.1,8.8,9.8,16.1,6.7c4.7-1.6,7.8-6.7,12.4-9.3c2.4-1.5,7.1-1.1,9,2.4c2-2.2,3.7-4.6,5-7.1
			C143.2,315.4,150.5,312.8,153,307.1z" id="_x62E__x646__x62F__x627__x628_" title="خنداب"></path>
		<path class="st2 area" d="M291.2,326.8c-0.5-1.1,0.5-2.6,0-3.6c-1.8-2.5-2.9-5-3.3-7.5c-11.3-2.9-21.1-10.5-31.4-17.8
			c-4.1-3.1-10.4,0-15.5-2.6c-1-0.5-3.1-1-4.1-2.1c-4.7-10.3-14-9.3-22.8-11.9c-4.5-1.5-9.1-3.9-13.8-6c-3.1,3.9-6.8,7.3-12,8.1
			c-8.3,1.6-15.5-3.6-23.3,0c-5.2,2.1-12.4-0.5-13.5-6.7c-0.5-4.7,3.6-7.2,6.2-10.9c1.1-1.6-0.5-4.7-1-4.7
			c-8.9-2.3-16.9-7.2-18.4-16.1c-1.8,1.3-4.1,2.2-5.9,3.1c-3.7,2-7.7,2.6-11.6,1.7c0.9,1.7,1.4,3.5,0.2,5
			c-3.1,5.2-5.7,10.3-3.6,15.5c2.6,6.7,12.9,9.3,14.5,15c2.6,10.3,14,11.4,21.2,16c1.1,0.5,1.1,3.6,0,5.7
			c-2.6,5.7-9.8,8.3-12.4,13.5c-1.3,2.5-3,4.9-5,7c0.1,0.2,0.2,0.5,0.3,0.7c1.6,4.7-2.1,7.8-5.2,11.4c-0.5,1-0.5,3.1,0.5,4.1
			c4.1,4.1,9.8,7.2,10.9,11.9c2.1,7.2,0.5,15.5,7.8,19.1c6.7,3.1,10.4,9.3,14,13.5c7,8.5,11,16.4,13.2,27.2
			c8.1-2.6,17.1,0.8,26.1-0.8c6.2-1.6,8.3-8.3,14.5-9.8c3.1-1,6.7,1,9.3-0.5c5.7-3.1,9.8-8.3,16-12.4c3.3-1.8,6.8-4.4,8.6-8.2
			c-0.7-2.7-0.2-5.7,2.2-7.9c5.2-5.2,13.5-4.1,20.2-6.2c10.9-2.6,15.5-14,16.6-24.8c0.4-5.5,0.6-11.4,1.5-17
			C291.8,327.5,291.5,327.2,291.2,326.8z" id="_x627__x631__x627__x6A9_" title="اراک"></path>
		<path class="st1 area" d="M80.1,245c4.1-0.5,7.2-5.7,11.4-4.1c2.6,0.5,4.7,3.1,6.7,4.1c4.7,2.1,9.8-3.6,13.4,0c6.2,5.7,14,6.7,20.7,3.1
			c1.9-0.9,4.1-1.9,5.9-3.1c-0.2-1-0.3-2-0.3-3.1c-0.5-4.7-6.7-4.1-8.8-7.8c-0.5-1-0.5-2.6,0-3.6c1-1.6,2.1-3.1,3.6-3.6
			c-3.1-7.8-1-12.9,6.2-18.6c1.6-1,0-4.1-0.5-6.2c-1.6-6.2,7.2-11.4,7.8-15.5c1.3-8.5,1.9-16.7,4.6-24.8c-0.6-0.7-1.2-1.7-1.5-3.2
			c-0.9-2.6,1.5-5.2,1.1-8.1c-7.4,2.8-11.8-6.1-17.7-9c-2.7-1.1-6.2-0.9-9.5-1.9c0,0.4-0.1,0.8-0.1,1.2c0,4.8-3,16-31.2,16
			c-15.4,0-23.4,27.8-24.4,31.4c0.2,3.2,1.7,22.1,1.7,28.4c0,5.9-2.3,11.9-6.6,15.2c0.3,0.2,0.5,0.5,0.8,0.7
			C68.7,236.7,72.3,246.6,80.1,245z" id="_x6A9__x645__x6CC__x62C__x627__x646_" title="کمیجان"></path>
		<path class="st3 area" d="M138.6,202.1c0.5,2.1,2.1,5.2,0.5,6.2c-7.2,5.7-9.3,10.9-6.2,18.6c-1.6,0.5-2.6,2.1-3.6,3.6
			c-0.5,1-0.5,2.6,0,3.6c2.1,3.6,8.3,3.1,8.8,7.8c0,10.9,8.8,16.6,18.6,19.1c0.5,0,2.1,3.1,1,4.7c-2.6,3.6-6.7,6.2-6.2,10.9
			c1,6.2,8.3,8.8,13.5,6.7c7.8-3.6,15,1.6,23.3,0c5.3-0.8,8.9-4.2,12-8.1c-1.7-0.8-3.5-1.6-5.3-2.3c-3.6-2.1-8.8-6.7-6.7-11.9
			c0.5-2.6,4.7-4.1,5.2-6.2c0.2-2.3,0.9-4.3,1.7-6c-7,1.2-7.9-7.7-7.9-13.6c0-1-2.1-1.6-2.1-2.6c-1-5.2,6.2-4.1,8.3-7.8
			c0.5-1.6-2.1-3.6-1-4.7c6.2-5.2,9.8-10.3,3.1-16.6c-0.5-0.5-0.5-2.1,0-3.1c3.1-3.6,5.2-9.8,0.5-11.9c-8.8-3.6-18.1-4.1-26.4-8.8
			c-6.2-3.6-1-9.8-1.6-15.5c-0.5-1-1-2.6-2.1-3.1c-5.2-0.9-11.8,4-15.1,0.6c-2.8,8.1-3.3,16.3-4.6,24.8
			C145.8,190.7,137,195.9,138.6,202.1z" id="_x641__x631__x627__x647__x627__x646_" title="فراهان"></path>
		<path class="st0 area" d="M305.3,285.8c0-11.6-0.7-16-7.6-16c-10.6,0-26.6,0-34.1-11.2c-4.1-6.1-6.7-11.9-7.8-17.1
			c-7.7-9.8-18.2-17.3-29.2-9.8c-7.8,5.2-12.9,10.3-22.8,11.4c-2.6,0-5.2,4.7-7.8,5.7c-0.3,0.1-0.6,0.1-0.9,0.2
			c-0.8,1.8-1.5,3.7-1.7,6c-0.5,2.1-4.7,3.6-5.2,6.2c-2.1,5.2,3.1,9.8,6.7,11.9c6.7,2.6,13,6.2,19.2,8.3c8.8,2.6,18.1,1.6,22.8,11.9
			c1,1,3.1,1.6,4.1,2.1c5.2,2.6,11.4-0.5,15.5,2.6c10.3,7.4,20.1,15,31.4,17.8c-0.4-2.7,0.1-5.6,1.7-8.5c3.6-6.7,9.8-3.1,14.5-7.2
			c1-0.5,2.6-0.5,3.1-1.6c0.8-0.6,1.6-1,2.5-1.1C307.3,293.8,305.3,290.1,305.3,285.8z" id="_x622__x634__x62A__x6CC__x627__x646_" title="آشتیان"></path>
		<path class="st0 area" d="M290.2,428.2c-2.1-1.6-3.6-4.1-3.6-6.2c-0.5-16.6-14.5-25.9-29-31c-2.7-1.1-5.1-4-5.8-7.1
			c-1.8,3.7-5.3,6.3-8.6,8.2c-6.2,4.1-10.3,9.3-16,12.4c-2.6,1.6-6.2-0.5-9.3,0.5c-6.2,1.6-8.3,8.3-14.5,9.8
			c-9.3,1.6-18.6-2.1-26.9,1c-7.9,2.9-13.1,9.5-16.2,17.6c1.1,0.4,2,0.9,2.8,1.7c1.3,1.2,1.9,2.8,1.9,4.6c0,1.5-0.1,3.2-0.3,5.2
			c-0.6,6.9-1.3,15.4,3.9,19.9c7.5,6.5,25.1,15.3,25.3,15.4l1.1,0.6l0.2,1.2c0,0.1,2.2,11.1,3.3,14.3c0.3,0.9,0.5,2,0.7,3.2
			c1.1,6.2,2.4,9.6,5.9,9.6c2.9,0,5.7,0.2,8.2,0.3c3.8,0.2,7.3,0.4,9-0.2c2.1-0.7,6.6-3.1,9.3-4.6c-0.1-0.2-0.2-0.4-0.2-0.4
			l-0.3-0.6l0-0.6c0.1-1,2-23.9,20.6-27.6c11.5-2.3,19.9-8,28-13.5c3.2-2.2,6.6-4.5,10-6.5c10.4-5.9,21.9-5.7,34.2-5.5
			c1.7,0,3.4,0.1,5.2,0.1C320.6,437.6,302.6,437.7,290.2,428.2z" id="_x62E__x645__x6CC__x646_" title="خمین"></path>
		<path class="st3 area" d="M374.5,423.6c-6.7-8.3-5.2-17.6-6.2-26.9c-1.1-6.7-6.7-11.4-11.9-16.6c-3.1-3.1,0-9.8-2.1-11.9
			c-7.8-8.8-7.2-18.6-9.3-29.5c0-2.1-2.6-4.1-4.7-4.1c-7.2-1-13.5-3.6-19.7-6.7c-1.6-0.5-3.6-0.5-4.7,0c-6.9,5.4-17.5,6.6-23.9,0
			c-0.9,5.6-1.1,11.5-1.5,17c-1,10.9-5.7,22.3-16.6,24.8c-6.7,2.1-15,1-20.2,6.2c-5.2,4.7-1.6,12.9,3.6,15c14.5,5.2,28.5,14.5,29,31
			c0,2.1,1.6,4.7,3.6,6.2c12.4,9.5,30.4,9.4,38.9,21.8c0.8,0,1.5,0,2.3,0c14.2,0,28.8-4.7,33.4-10.8c2.1-2.8,5.4-5.1,9.6-6.6
			C376.2,429.7,376.5,425.9,374.5,423.6z" id="_x645__x62D__x644__x627__x62A_" title="محلات"></path>
		<path class="st2 area" d="M149.4,158.6c2.1,8.8,10.4,1.6,16.6,2.6c1.1,0.5,1.6,2.1,2.1,3.1c0.5,5.7-4.7,11.9,1.6,15.5
			c8.3,4.7,17.6,5.2,26.4,8.8c4.7,2.1,2.6,8.3-0.5,11.9c-0.5,1-0.5,2.6,0,3.1c6.7,6.2,3.1,11.4-3.1,16.6c-1,1,1.6,3.1,1.1,4.7
			c-2.1,3.6-9.3,2.6-8.3,7.8c0,1,2.1,1.6,2.1,2.6c0,6.2,1.1,15.5,8.8,13.5c2.6-1,5.2-5.7,7.8-5.7c9.8-1,15-6.2,22.8-11.4
			c11-7.5,21.5,0,29.2,9.8c-1.1-5.1-0.8-9.7,0.9-13.9c3.2-8.1,6.6-29.6,6.6-29.8l0.1-0.4l5.2-15.7c-2.4-1.4-4.3-3.2-5.3-5.9
			c-3.1-6.7-5.7-14-12.9-16c-14-3.1-29.5-2.6-37.8-16.6c-1.1-1-2.6-1-3.6-1.6c-3.6-0.5-8.3,2.1-10.9-0.5
			c-10.9-11.4-26.9-20.2-40.9-11.9c2.1,7.8,2.1,16.6-5.2,20.7c-0.5,0.3-1,0.5-1.5,0.7C150.9,153.4,148.6,156,149.4,158.6z" id="_x62A__x641__x631__x634_" title="تفرش"></path>
		<path class="st3 area" d="M152,57.2c12.4-1.6,24.3-0.5,36.2,5.7c4.1,2.6,10.3-3.1,14.5,1c10.4,9.8,24.3,9.8,36.2,13.5
			c5.7,2.1,7.8,10.9,13.5,15c1,1,3.6,1,5.2,0.5c7.2-3.1,14-12.9,21.2-6.7c2.6,1.6,3.1,6.2,5.7,6.7c6.7,0,12.4,3.6,18.1,5.7
			c5.7,1.6,11.4-2.1,17.6-1c2.6,0.5,3.6,3.1,5.2,4.1c3.1,2.6,4.7,5.7,8.8,6.2c14,3.1,31-5.2,40.9,5.2c2.6,2.6,5.2,5.7,8.2,8
			c7.5-6.9,17.1-15.1,22.9-17.9c1.2-0.6,2.5-1,3.7-1.4c0.1-0.5,0.2-1,0.6-1.4c0.9-1,2.5-1.1,3.6-0.2c0,0,0.2,0.2,0.4,0.3
			c4.7-1.4,7.2-2.9,7.2-8.5c0-7.4,2.5-17.1,4.5-24.9c1.2-4.5,2.3-8.8,2.3-10.5c0-1.3,0.3-2.8,0.8-4.8c0.9-4.4,2.2-10.5-0.3-13.7
			c-1.4-1.8-4.1-2.6-8-2.6c-14.6,0-26.3-5.1-36.7-9.6c-3.3-1.5-6.5-2.8-9.7-4c-10.5-3.9-20-3.6-27.7-3.3c-1.8,0.1-3.6,0.1-5.2,0.1
			c-8.3,0-41.7,1.7-42,1.7c-1.5,0.3-42.7,6.8-56.6,1.5c-13-4.9-27.6-6.6-36.2-6.6c-9.7,0-27.4,3.4-29.5,6.1
			c-0.1,6.3-5.9,18.9-19,20.8l-1.8,0.2c-8.9,1.3-16.9,2.4-23.4,1.1C138.1,50.5,142.3,58.4,152,57.2z" id="_x632__x631__x646__x62F__x6CC__x647_" title="زرندیه"></path>

<g id="G_15" class="area" title="">
	<path d="M278.4,56.5h-0.7c-0.9,0-1.4-0.5-1.6-1.6c-0.5,0.5-0.7,0.7-0.8,0.7h-0.9c-0.3,0-0.6,0-0.9-0.1c-0.4-0.1-0.6-0.3-0.6-0.5
		c0-0.7,0.3-1.4,0.8-1.8c0.4-0.3,1-0.6,1.8-1l-0.2-1l0.7-0.8c0,0.1,0.3,1.2,0.7,3.3c0.1,0.6,0.3,1.1,0.4,1.3
		c0.2,0.3,0.4,0.4,0.8,0.4h0.7V56.5z M275.9,54.5l-0.3-1.6c-0.3,0.1-0.7,0.3-1.2,0.5c-0.6,0.3-1,0.6-1,0.7c0,0.2,0.2,0.3,0.7,0.4
		c0.3,0.1,0.6,0.1,0.9,0.1C275.3,54.5,275.6,54.5,275.9,54.5z" id="PATH_16" class="area" title=""></path>
	<path d="M280.8,54.5c0,1.3-0.7,2-2,2H278v-1.2h0.7c1,0,1.5-0.2,1.5-0.5c0-0.3-0.2-0.7-0.7-1.2l0.4-1c0-0.1,0.1-0.1,0.1-0.1
		s0.1,0.1,0.2,0.2C280.5,53.2,280.8,53.9,280.8,54.5z M280,58.7l-0.8,0.8l-0.8-0.8l0.8-0.8L280,58.7z M281.7,58.7l-0.8,0.8l-0.8-0.8
		l0.8-0.8L281.7,58.7z" id="PATH_17" class="area" title=""></path>
	<path d="M289.5,56.5H289c-0.4,0-0.7-0.1-1-0.4c-0.2-0.2-0.4-0.4-0.6-0.8c-0.2,0.4-0.5,0.7-0.8,0.9c-0.4,0.2-0.9,0.3-1.7,0.3
		c-1.4,0-2.1-0.5-2.1-1.5c0-0.3,0.1-0.7,0.3-1c0.1-0.1,0.1-0.2,0.2-0.2c0.1,0,0.1,0.1,0.1,0.2c0,0.1,0,0.1,0,0.3c0,0.1,0,0.2,0,0.3
		c0,0.6,0.5,0.9,1.5,0.9c1.4,0,2.1-0.3,2.1-0.8c0-0.3-0.4-1.4-1.2-3.3l0.4-0.8c0.1-0.1,0.1-0.2,0.1-0.2c0,0,0.1,0.1,0.1,0.2
		c0.3,0.8,0.8,2,1.4,3.6c0.3,0.8,0.7,1.2,1.3,1.2h0.3V56.5z" id="PATH_18" class="area" title=""></path>
	<path d="M291.9,54.5c0,1.3-0.7,2-2,2h-0.8v-1.2h0.7c1,0,1.5-0.2,1.5-0.5c0-0.3-0.2-0.7-0.7-1.2l0.4-1c0-0.1,0.1-0.1,0.1-0.1
		s0.1,0.1,0.2,0.2C291.7,53.2,291.9,53.9,291.9,54.5z M291.8,50l-0.8,0.8l-0.8-0.8l0.8-0.8L291.8,50z" id="PATH_19" class="area" title=""></path>
	<path d="M296.9,56.6c0,1-0.3,1.9-0.9,2.8c-0.5,0.7-1,1.1-1.3,1.1c-0.8,0-1.4,0-2-0.1c-0.2,0-0.3-0.1-0.3-0.1s0.1-0.1,0.3-0.1
		c0.8-0.2,1.6-0.6,2.4-1.2c0.8-0.7,1.3-1.4,1.3-2.1c0-0.4-0.3-1-1-1.7l0.5-0.9c0-0.1,0.1-0.1,0.1-0.1c0,0,0.1,0.1,0.1,0.1
		c0.2,0.3,0.5,0.7,0.6,1.2C296.8,55.8,296.9,56.2,296.9,56.6z" id="PATH_20" class="area" title=""></path>
	<path d="M302,56.6c0,1-0.3,1.9-0.9,2.8c-0.5,0.7-1,1.1-1.3,1.1c-0.8,0-1.4,0-2-0.1c-0.2,0-0.3-0.1-0.3-0.1s0.1-0.1,0.3-0.1
		c0.8-0.2,1.6-0.6,2.4-1.2c0.8-0.7,1.3-1.4,1.3-2.1c0-0.4-0.3-1-1-1.7l0.5-0.9c0-0.1,0.1-0.1,0.1-0.1c0,0,0.1,0.1,0.1,0.1
		c0.2,0.3,0.5,0.7,0.6,1.2C301.9,55.8,302,56.2,302,56.6z M301.3,51.2l-0.8,0.8l-0.8-0.8l0.8-0.8L301.3,51.2z" id="PATH_21" class="area" title=""></path>
</g>
<g id="G_22" class="area" title="">
	<path d="M241,115.3c0,0.7-0.2,1.2-0.6,1.6c-0.4,0.4-1,0.5-1.6,0.5c-0.4,0-0.8-0.1-1.1-0.4c-0.3-0.3-0.5-0.6-0.5-1
		c0-0.5,0.2-1,0.6-1.7c0.3-0.6,0.7-1.1,1.1-1.5C240.3,113.5,241,114.3,241,115.3z M240.4,115.7c0-0.3-0.2-0.6-0.7-1
		c-0.4-0.4-0.7-0.6-1.1-0.7c-0.5,0.7-0.8,1.2-0.8,1.6c0,0.2,0.1,0.4,0.4,0.6c0.2,0.1,0.4,0.2,0.7,0.2c0.4,0,0.8-0.1,1.1-0.2
		C240.3,115.9,240.4,115.8,240.4,115.7z" id="PATH_23" class="area" title=""></path>
	<path d="M246.1,117c0,1.5-0.5,2.8-1.5,3.8c-0.3,0.3-0.5,0.5-0.6,0.5c-0.6,0-1.2-0.1-1.9-0.2c-0.3,0-0.4-0.1-0.4-0.1
		c0,0,0.1-0.1,0.4-0.2c0.8-0.2,1.6-0.7,2.3-1.3c0.3-0.3,0.6-0.5,0.8-0.9c0.3-0.4,0.5-0.8,0.5-1.1v-0.3l-1.3,0
		c-0.9,0-1.4-0.4-1.4-1.1c0-0.5,0.1-1,0.4-1.6c0.3-0.6,0.7-1,1.1-1c0.6,0,1.1,0.4,1.4,1.3C246,115.5,246.1,116.2,246.1,117z
		 M245.4,116.1c0-0.3-0.1-0.6-0.3-0.9c-0.2-0.3-0.5-0.5-0.8-0.5c-0.2,0-0.4,0.1-0.5,0.2c-0.2,0.2-0.2,0.3-0.2,0.5
		c0,0.5,0.3,0.7,1,0.7C244.7,116.2,245,116.2,245.4,116.1z" id="PATH_24" class="area" title=""></path>
	<path d="M250.1,117.4h-0.7c-0.7,0-1.3-0.3-1.5-0.9c-0.2-0.4-0.3-1.1-0.3-1.9v-1.9c0-0.9-0.1-2.2-0.2-3.9l0.6-0.7
		c0.1-0.1,0.2-0.1,0.2,0c0.1,0.9,0.2,2.2,0.2,3.9v2.9c0,0.8,0.4,1.2,1.2,1.2h0.5V117.4z" id="PATH_25" class="area" title=""></path>
	<path d="M258,115.2c0,0.6-0.1,1.1-0.4,1.5c-0.3,0.4-0.8,0.7-1.3,0.7c-0.7,0-1.1-0.3-1.4-0.8c-0.4,0.6-0.8,0.8-1.4,0.8
		c-0.7,0-1.2-0.3-1.5-0.8c-0.4,0.6-0.9,0.8-1.6,0.8h-0.7v-1.2h0.8c0.7,0,1.2-0.4,1.3-1.2c0-0.2,0.1-0.3,0.2-0.3
		c0.1,0,0.1,0.1,0.2,0.3c0.1,0.8,0.5,1.2,1.3,1.2c0.4,0,0.8-0.1,1-0.3c0.1-0.2,0.2-0.4,0.3-0.8c0-0.2,0.1-0.3,0.2-0.3
		c0.1,0,0.1,0.1,0.2,0.3c0.1,0.8,0.5,1.2,1.2,1.2c0.8,0,1.1-0.2,1.1-0.5c0-0.3-0.2-0.7-0.6-1.1l0.5-0.9c0.1-0.1,0.1-0.2,0.2-0.2
		s0.1,0.1,0.2,0.2C257.8,114.3,258,114.8,258,115.2z" id="PATH_26" class="area" title=""></path>
</g>
<g id="G_27" class="area" title="">
	<path d="M221,185.3c0,1.4-0.6,2.1-1.8,2.1c-0.7,0-1.1-0.3-1.3-0.9c-0.3,0.6-0.8,0.9-1.4,0.9c-0.2,0-0.5,0-0.7-0.1
		c0,0.6-0.1,1.2-0.1,1.9c-0.3,0.7-0.8,1.3-1.7,1.7c-0.8,0.3-1.6,0.5-2.5,0.5c-0.9,0-1.6-0.2-2.2-0.6c-0.6-0.5-0.9-1.1-0.9-2
		c0-0.5,0.1-0.9,0.3-1.5c0.2-0.4,0.3-0.7,0.5-0.9c0.1-0.1,0.2-0.1,0.2-0.1c0.1,0,0.1,0,0.1,0.1c0,0,0,0.1,0,0.2
		c-0.3,0.6-0.4,1.2-0.4,1.7c0,0.5,0.2,0.9,0.5,1.3c0.4,0.5,1.1,0.7,2,0.7c1,0,1.9-0.2,2.6-0.5c0.6-0.3,1-0.6,1.1-1
		c0.1-0.1,0.1-0.3,0-0.7c0-0.3-0.1-0.6-0.1-0.7c-0.1-0.3-0.4-0.8-1-1.5l0.4-0.8c0.1-0.1,0.1-0.2,0.1-0.2c0,0,0.1,0,0.1,0.1
		c0.3,0.4,0.5,0.7,0.6,0.8c0.3,0.3,0.6,0.4,1,0.4c0.4,0,0.8-0.1,1-0.4c0.1-0.2,0.2-0.4,0.3-0.9c0-0.2,0.1-0.3,0.2-0.3
		c0.1,0,0.1,0.1,0.1,0.3c0.1,0.5,0.2,0.8,0.4,1c0.2,0.2,0.6,0.3,1.1,0.3c0.2,0,0.4-0.1,0.5-0.2c0.2-0.1,0.3-0.3,0.3-0.5
		c0-0.3-0.2-0.6-0.6-1.1l0.5-0.9c0.1-0.1,0.1-0.1,0.1-0.1c0,0,0.1,0.1,0.1,0.1C220.9,184.2,221,184.7,221,185.3z M217.7,181.6
		l-0.7,0.7l-0.7-0.7l0.7-0.7L217.7,181.6z M218.6,180l-0.7,0.7l-0.7-0.7l0.7-0.7L218.6,180z M219.5,181.6l-0.7,0.7l-0.7-0.7l0.7-0.7
		L219.5,181.6z" id="PATH_28" class="area" title=""></path>
	<path d="M227.3,187.4h-0.4c-0.4,0-0.6-0.1-0.8-0.2c0,0.1,0,0.2,0,0.3c0,0.9-0.3,1.8-0.9,2.7c-0.5,0.8-1,1.1-1.3,1.1
		c-0.8,0-1.4,0-2-0.1c-0.2,0-0.3-0.1-0.3-0.1s0.1-0.1,0.3-0.1c0.8-0.2,1.6-0.6,2.4-1.2c0.8-0.7,1.3-1.4,1.3-2.1c0-0.4-0.3-1-1-1.7
		l0.5-0.9c0-0.1,0.1-0.1,0.1-0.1c0,0,0.1,0.1,0.1,0.1c0.3,0.4,0.5,0.7,0.7,0.8c0.3,0.2,0.7,0.4,1.1,0.4h0.3V187.4z" id="PATH_29" class="area" title=""></path>
	<path d="M232.7,187.4h-0.5c-0.3,0-0.7-0.1-1.2-0.2c-0.5-0.1-0.9-0.3-1.1-0.5c-0.2,0.2-0.5,0.3-0.9,0.4c-0.5,0.2-1,0.2-1.5,0.2h-0.7
		v-1.2h0.5c0.8,0,1.3-0.1,1.5-0.2c-0.2-0.1-0.3-0.3-0.4-0.5c-0.1-0.2-0.2-0.4-0.2-0.6c0-0.4,0.2-0.9,0.5-1.5c0.4-0.6,0.8-1,1.3-1
		c0.5,0,0.8,0.3,1.1,0.8c0.2,0.4,0.3,0.9,0.3,1.4c0,0.4-0.1,0.7-0.3,0.9c-0.1,0.2-0.2,0.3-0.4,0.4c0.2,0.1,0.7,0.2,1.4,0.2h0.4
		V187.4z M231,184.8c0-0.2-0.1-0.5-0.3-0.7c-0.2-0.3-0.4-0.4-0.7-0.4c-0.2,0-0.5,0.1-0.7,0.3c-0.2,0.2-0.4,0.5-0.4,0.7
		c0,0.2,0.1,0.5,0.4,0.7c0.2,0.2,0.5,0.3,0.7,0.4c0.2,0,0.5-0.1,0.6-0.3C230.9,185.2,231,185,231,184.8z M230.7,179.9l-0.8,0.8
		l-0.8-0.8l0.8-0.8L230.7,179.9z" id="PATH_30" class="area" title=""></path>
	<path d="M235.1,185.4c0,1.3-0.7,2-2,2h-0.8v-1.2h0.7c1,0,1.5-0.2,1.5-0.5c0-0.3-0.2-0.7-0.7-1.2l0.4-1c0-0.1,0.1-0.1,0.1-0.1
		s0.1,0.1,0.2,0.2C234.9,184.1,235.1,184.8,235.1,185.4z M234.1,181l-0.8,0.8l-0.8-0.8l0.8-0.8L234.1,181z M235.9,181l-0.8,0.8
		l-0.8-0.8l0.8-0.8L235.9,181z" id="PATH_31" class="area" title=""></path>
</g>
<g id="G_32" class="area" title="">
	<path d="M95.9,198.4c0.1,0.3,0.1,0.6,0.1,0.9c0,0.4-0.1,0.7-0.2,1.1c-0.3,0.7-0.8,1.3-1.8,1.7c-0.8,0.3-1.6,0.5-2.5,0.5
		c-0.9,0-1.6-0.2-2.2-0.6c-0.6-0.5-0.9-1.1-0.9-2c0-0.5,0.1-0.9,0.3-1.5c0.2-0.4,0.3-0.7,0.5-0.9c0.1-0.1,0.2-0.1,0.2-0.1
		c0.1,0,0.1,0,0.1,0.1c0,0,0,0.1,0,0.2c-0.3,0.6-0.4,1.2-0.4,1.7c0,0.5,0.2,0.9,0.5,1.3c0.4,0.5,1.1,0.7,2,0.7c1,0,1.9-0.2,2.6-0.5
		c0.6-0.3,1-0.6,1.2-1c0.1-0.1,0.1-0.3,0.1-0.4c0-0.3-0.1-0.6-0.2-1c-0.1-0.3-0.4-0.8-0.9-1.6l0.4-0.8c0.1-0.1,0.1-0.2,0.1-0.2
		s0.1,0,0.1,0.1C95.4,196.8,95.7,197.6,95.9,198.4z M92.9,194l-0.8,0.8l-0.8-0.8l0.8-0.8L92.9,194z" id="PATH_33" class="area" title=""></path>
	<path d="M99.9,198.5h-0.7c-0.7,0-1.3-0.3-1.5-0.9c-0.2-0.4-0.3-1.1-0.3-1.9v-1.9c0-0.9-0.1-2.2-0.2-3.9l0.6-0.7
		c0.1-0.1,0.2-0.1,0.2,0c0.1,0.9,0.2,2.2,0.2,3.9v2.9c0,0.8,0.4,1.2,1.2,1.2h0.5V198.5z" id="PATH_34" class="area" title=""></path>
	<path d="M108.7,198.5h-1c-1.3,0-2-0.7-2-2c0-0.2,0-0.3,0-0.5c-0.5,0.2-1.1,0.6-1.9,1.1c-0.8,0.5-1.3,0.8-1.7,1
		c-0.6,0.3-1.3,0.4-1.9,0.4h-0.7v-1.2h0.8c0.8,0,1.7-0.2,2.5-0.6c0.4-0.2,1.1-0.6,2.2-1.1c-0.2,0-0.8-0.2-1.8-0.4
		c-0.7-0.2-1.1-0.3-1.2-0.3c-0.4,0-0.8,0.2-1.2,0.5c-0.1,0.1-0.1,0.1-0.2,0.1c-0.1,0-0.1,0-0.1-0.1c0,0,0-0.1,0-0.1
		c0.3-1,0.9-1.5,1.7-1.5c0.3,0,0.7,0.1,1.2,0.2c0.7,0.2,1.3,0.4,1.8,0.5c0.7,0.1,1.5,0.2,2.4,0.2c0.2,0,0.2,0,0.3,0c0,0,0,0.1,0,0.2
		l-0.3,0.9c-0.6,0-1,0-1.2,0.1c0,0.5,0.1,0.8,0.2,0.9c0.2,0.3,0.6,0.5,1.3,0.5h1V198.5z M104.9,200.5l-0.8,0.8l-0.8-0.8l0.8-0.8
		L104.9,200.5z" id="PATH_35" class="area" title=""></path>
	<path d="M113.6,198.5h-0.8c-0.9,0-1.5-0.3-1.9-0.9c-0.3,0.6-1,0.9-2.1,0.9h-0.6v-1.2h0.9c1,0,1.5-0.4,1.6-1.1
		c0-0.3,0.1-0.5,0.2-0.5c0.1,0,0.2,0.2,0.2,0.5c0.1,0.7,0.6,1.1,1.5,1.1h0.9V198.5z M110.3,200.7l-0.8,0.8l-0.8-0.8l0.8-0.8
		L110.3,200.7z M112,200.7l-0.8,0.8l-0.8-0.8l0.8-0.8L112,200.7z" id="PATH_36" class="area" title=""></path>
	<path d="M120.7,198.5h-0.6c-0.5,0-1-0.3-1.4-0.8c-0.3,0.8-0.6,1.2-0.9,1.2c-0.3,0-0.8-0.2-1.4-0.5c-0.5-0.3-0.9-0.6-1.1-0.8
		c-0.5,0.6-1,0.9-1.5,0.9h-0.6v-1.2h0.6c0.5,0,0.9-0.2,1.3-0.6c0.3-0.3,0.6-0.7,1-1.1c0.4-0.4,0.7-0.6,1-0.6c0.4,0,0.7,0.2,1,0.6
		c0.2,0.2,0.4,0.6,0.9,1.1c0.3,0.4,0.7,0.6,1.1,0.6h0.6V198.5z M118,197.7c0-0.3-0.1-0.6-0.3-1c-0.2-0.4-0.5-0.6-0.9-0.6
		c-0.3,0-0.7,0.3-1.1,0.8c0.1,0.1,0.4,0.3,0.9,0.6c0.5,0.3,0.9,0.4,1.2,0.4C118,197.8,118,197.8,118,197.7z" id="PATH_37" class="area" title=""></path>
	<path d="M126.9,189.2c0,0.2-0.2,0.6-0.4,1.1l-2.5,0.8c-1.1,0.4-1.9,0.7-2.3,0.9c0.8,0.8,1.3,1.4,1.6,1.7c0.5,0.7,0.8,1.3,0.9,2
		c0,0.5,0,1-0.2,1.4c-0.3,0.9-1.4,1.3-3.1,1.3h-0.5v-1.2h0.6c0.8,0,1.4,0,1.7-0.1c0.7-0.2,1.1-0.5,1.1-1c0-0.7-0.5-1.5-1.6-2.5
		l-0.1,0.2c-0.1-0.1-0.3-0.3-0.5-0.6c-0.3-0.3-0.4-0.6-0.4-0.6c0-0.2,0-0.4,0.1-0.8c0.1-0.4,0.2-0.6,0.3-0.7
		c0.1-0.1,0.8-0.4,2.1-0.8C124.8,189.9,126,189.5,126.9,189.2z" id="PATH_38" class="area" title=""></path>
</g>
<g id="G_39" class="area" title="">
	<path d="M154.4,219.9c0.1,0.3,0.1,0.6,0.1,0.9c0,0.4-0.1,0.7-0.2,1.1c-0.3,0.7-0.8,1.3-1.8,1.7c-0.8,0.3-1.6,0.5-2.5,0.5
		c-0.9,0-1.6-0.2-2.2-0.6c-0.6-0.5-0.9-1.1-0.9-2c0-0.5,0.1-0.9,0.3-1.5c0.2-0.4,0.3-0.7,0.5-0.9c0.1-0.1,0.2-0.1,0.2-0.1
		c0.1,0,0.1,0,0.1,0.1c0,0,0,0.1,0,0.2c-0.3,0.6-0.4,1.2-0.4,1.7c0,0.5,0.2,0.9,0.5,1.3c0.4,0.5,1.1,0.7,2,0.7c1,0,1.9-0.2,2.6-0.5
		c0.6-0.3,1-0.6,1.2-1c0.1-0.1,0.1-0.3,0.1-0.4c0-0.3-0.1-0.6-0.2-1c-0.1-0.3-0.4-0.8-0.9-1.6l0.4-0.8c0.1-0.1,0.1-0.2,0.1-0.2
		s0.1,0,0.1,0.1C154,218.3,154.3,219.1,154.4,219.9z M151.5,215.5l-0.8,0.8l-0.8-0.8l0.8-0.8L151.5,215.5z" id="PATH_40" class="area" title=""></path>
	<path d="M158.5,220h-0.7c-0.7,0-1.3-0.3-1.5-0.9c-0.2-0.4-0.3-1.1-0.3-1.9v-1.9c0-0.9-0.1-2.2-0.2-3.9l0.6-0.7
		c0.1-0.1,0.2-0.1,0.2,0c0.1,0.9,0.2,2.2,0.2,3.9v2.9c0,0.8,0.4,1.2,1.2,1.2h0.5V220z" id="PATH_41" class="area" title=""></path>
	<path d="M164.6,218c0,0.4-0.1,0.8-0.4,1.2c-0.3,0.5-0.6,0.7-1,0.7c-0.3,0-1-0.2-2.1-0.7c-0.9,0.6-1.7,0.8-2.4,0.8h-0.5v-1.2h0.6
		c0.4,0,0.8,0,1.2-0.1c-0.4-0.3-0.6-0.7-0.6-1.2c0-0.6,0.4-1.3,1.3-2l-0.7-0.3c0.2-0.2,0.5-0.5,0.9-0.9c0.9,0.5,1.7,0.9,2.4,1.5
		C164.1,216.6,164.6,217.3,164.6,218z M162,217.2c0-0.3-0.1-0.5-0.2-0.7c-0.1-0.3-0.3-0.4-0.6-0.4c-0.3,0-0.5,0.1-0.8,0.3
		c-0.3,0.2-0.5,0.5-0.5,0.7c0,0.4,0.4,0.8,1.1,1c0.2-0.1,0.4-0.2,0.6-0.3C161.9,217.6,162,217.4,162,217.2z M164.1,218.4
		c0-0.3-0.2-0.6-0.6-1c-0.3-0.3-0.6-0.6-0.9-0.7c0,0.8-0.2,1.4-0.7,1.8c0.8,0.3,1.4,0.4,1.6,0.4
		C163.9,218.8,164.1,218.7,164.1,218.4z" id="PATH_42" class="area" title=""></path>
	<path d="M166.9,218.8c0,0.4-0.1,0.8-0.3,1.1c-0.1,0.2-0.2,0.3-0.2,0.3c0,0-0.1-0.1-0.1-0.4c0-1.2-0.2-4-0.6-8.5l0.8-0.8
		c0.1-0.1,0.1-0.1,0.1-0.1c0,0,0,0.1,0,0.2C166.9,211.9,166.9,214.6,166.9,218.8z" id="PATH_43" class="area" title=""></path>
	<path d="M173.2,220h-0.4c-0.4,0-0.6-0.1-0.8-0.2c0,0.1,0,0.2,0,0.3c0,0.9-0.3,1.8-0.9,2.7c-0.5,0.8-1,1.1-1.3,1.1
		c-0.8,0-1.4,0-2-0.1c-0.2,0-0.3-0.1-0.3-0.1s0.1-0.1,0.3-0.1c0.8-0.2,1.6-0.6,2.4-1.2c0.8-0.7,1.3-1.4,1.3-2.1c0-0.4-0.3-1-1-1.7
		l0.5-0.9c0-0.1,0.1-0.1,0.1-0.1c0,0,0.1,0.1,0.1,0.1c0.3,0.4,0.5,0.7,0.7,0.8c0.3,0.2,0.7,0.4,1.1,0.4h0.3V220z" id="PATH_44" class="area" title=""></path>
	<path d="M177,217.2v0.4c0,0.7-0.1,1.1-0.3,1.4c-0.5,0.7-1.3,1-2.6,1h-1.4v-1.2h1c1.7,0,2.6-0.3,2.8-0.8c0-0.1,0-0.1,0-0.2
		c0-0.2,0-0.3-0.1-0.4c-0.4,0.1-0.9,0.1-1.3,0.1c-0.9,0-1.4-0.4-1.4-1.2c0-0.5,0.1-1.1,0.4-1.6c0.3-0.6,0.7-0.9,1.2-0.9
		c0.4,0,0.8,0.3,1.1,0.8C176.9,215.3,177,216.2,177,217.2z M175.9,211.7l-0.8,0.8l-0.8-0.8l0.8-0.8L175.9,211.7z M176.3,216.3
		c0-0.3-0.1-0.6-0.3-0.9c-0.2-0.3-0.5-0.4-0.8-0.4c-0.2,0-0.4,0.1-0.6,0.2c-0.1,0.1-0.2,0.3-0.2,0.5c0,0.4,0.3,0.6,1,0.6
		C175.6,216.4,175.9,216.4,176.3,216.3z" id="PATH_45" class="area" title=""></path>
</g>
<g id="G_46" class="area" title="">
	<path d="M242.7,280.4c0.1,0.3,0.1,0.6,0.1,0.9c0,0.4-0.1,0.7-0.2,1.1c-0.3,0.7-0.8,1.3-1.8,1.7c-0.8,0.3-1.6,0.5-2.5,0.5
		c-0.9,0-1.6-0.2-2.2-0.6c-0.6-0.5-0.9-1.1-0.9-2c0-0.5,0.1-0.9,0.3-1.5c0.2-0.4,0.3-0.7,0.5-0.9c0.1-0.1,0.2-0.1,0.2-0.1
		c0.1,0,0.1,0,0.1,0.1c0,0,0,0.1,0,0.2c-0.3,0.6-0.4,1.2-0.4,1.7c0,0.5,0.2,0.9,0.5,1.3c0.4,0.5,1.1,0.7,2,0.7c1,0,1.9-0.2,2.6-0.5
		c0.6-0.3,1-0.6,1.2-1c0.1-0.1,0.1-0.3,0.1-0.4c0-0.3-0.1-0.6-0.2-1c-0.1-0.3-0.4-0.8-0.9-1.6l0.4-0.8c0.1-0.1,0.1-0.2,0.1-0.2
		s0.1,0,0.1,0.1C242.3,278.8,242.6,279.6,242.7,280.4z M239.8,276l-0.8,0.8l-0.8-0.8l0.8-0.8L239.8,276z" id="PATH_47" class="area" title=""></path>
	<path d="M246.8,280.5h-0.7c-0.7,0-1.3-0.3-1.5-0.9c-0.2-0.4-0.3-1.1-0.3-1.9v-1.9c0-0.9-0.1-2.2-0.2-3.9l0.6-0.7
		c0.1-0.1,0.2-0.1,0.2,0c0.1,0.9,0.2,2.2,0.2,3.9v2.9c0,0.8,0.4,1.2,1.2,1.2h0.5V280.5z" id="PATH_48" class="area" title=""></path>
	<path d="M251.7,280.5H251c-0.9,0-1.5-0.3-1.9-0.9c-0.3,0.6-1,0.9-2.1,0.9h-0.6v-1.2h0.9c1,0,1.5-0.4,1.6-1.1c0-0.3,0.1-0.5,0.2-0.5
		c0.1,0,0.2,0.2,0.2,0.5c0.1,0.7,0.6,1.1,1.5,1.1h0.9V280.5z M248.4,282.7l-0.8,0.8l-0.8-0.8l0.8-0.8L248.4,282.7z M250.1,282.7
		l-0.8,0.8l-0.8-0.8l0.8-0.8L250.1,282.7z" id="PATH_49" class="area" title=""></path>
	<path d="M256.6,280.5h-0.8c-0.9,0-1.5-0.3-1.9-0.9c-0.3,0.6-1,0.9-2.1,0.9h-0.6v-1.2h0.9c1,0,1.5-0.4,1.6-1.1
		c0-0.3,0.1-0.5,0.2-0.5c0.1,0,0.2,0.2,0.2,0.5c0.1,0.7,0.6,1.1,1.5,1.1h0.9V280.5z M253.3,274.7l-0.8,0.8l-0.8-0.8l0.8-0.8
		L253.3,274.7z M255,274.7l-0.8,0.8l-0.8-0.8l0.8-0.8L255,274.7z" id="PATH_50" class="area" title=""></path>
	<path d="M264.5,278.4c0,0.6-0.1,1.1-0.4,1.5c-0.3,0.4-0.8,0.7-1.3,0.7c-0.7,0-1.1-0.3-1.4-0.8c-0.4,0.6-0.8,0.8-1.4,0.8
		c-0.7,0-1.2-0.3-1.5-0.8c-0.4,0.6-0.9,0.8-1.6,0.8h-0.7v-1.2h0.8c0.7,0,1.2-0.4,1.3-1.2c0-0.2,0.1-0.3,0.2-0.3
		c0.1,0,0.1,0.1,0.2,0.3c0.1,0.8,0.5,1.2,1.3,1.2c0.4,0,0.8-0.1,1-0.3c0.1-0.2,0.2-0.4,0.3-0.8c0-0.2,0.1-0.3,0.2-0.3
		c0.1,0,0.1,0.1,0.2,0.3c0.1,0.8,0.5,1.2,1.2,1.2c0.8,0,1.1-0.2,1.1-0.5c0-0.3-0.2-0.7-0.6-1.1l0.5-0.9c0.1-0.1,0.1-0.2,0.2-0.2
		s0.1,0.1,0.2,0.2C264.4,277.4,264.5,277.9,264.5,278.4z M261.2,274.7l-0.7,0.7l-0.7-0.7l0.7-0.7L261.2,274.7z M262,273.2l-0.7,0.7
		l-0.7-0.7l0.7-0.7L262,273.2z M262.9,274.7l-0.7,0.7l-0.7-0.7l0.7-0.7L262.9,274.7z" id="PATH_51" class="area" title=""></path>
	<path d="M268.6,269.8c-0.4,0.4-1,0.5-1.6,0.5c-0.1,0-0.2,0-0.4,0s-0.3,0-0.4,0c-0.1,0-0.2,0.1-0.3,0.2c-0.1,0.1-0.2,0.2-0.2,0.2
		c-0.1,0-0.1-0.1-0.1-0.2c0-0.1,0.1-0.3,0.2-0.5c0.1-0.3,0.2-0.4,0.3-0.4c0.1,0,0.3,0,0.6,0.1c0.3,0,0.5,0.1,0.6,0.1
		c0.6,0,1,0,1.3-0.1c0.2,0,0.3-0.1,0.3-0.1c0,0,0.1,0,0.1,0C268.8,269.6,268.7,269.7,268.6,269.8z M268,279.3c0,0.4-0.1,0.8-0.3,1.1
		c-0.1,0.2-0.2,0.3-0.2,0.3c0,0-0.1-0.1-0.1-0.4c0-1.2-0.2-4-0.6-8.5l0.8-0.8c0.1-0.1,0.1-0.1,0.1-0.1c0,0,0,0.1,0,0.2
		C267.9,272.4,268,275.1,268,279.3z" id="PATH_52" class="area" title=""></path>
</g>
<g id="G_53" class="area" title="">
	<path d="M84.5,288.8c0,0.7-0.2,1.3-0.7,1.6c-0.3,0.2-0.9,0.4-1.8,0.5c-1,0.2-2,0.3-3.1,0.3c-2.6,0-4-0.7-4-2.2c0-0.5,0.2-1,0.6-1.5
		c0.1-0.1,0.1-0.2,0.2-0.2c0.1,0,0.1,0,0.1,0.1c0,0,0,0.1,0,0.2c-0.1,0.3-0.2,0.6-0.2,0.9c0,1,1.3,1.5,3.8,1.5
		c1.2,0,2.3-0.1,3.1-0.2c1-0.2,1.4-0.4,1.4-0.7c0-0.2-0.2-0.6-0.7-1.2l0.5-0.9c0.1-0.1,0.1-0.1,0.2,0
		C84.3,287.6,84.5,288.2,84.5,288.8z M80.6,293.3l-0.8,0.8l-0.8-0.8l0.8-0.8L80.6,293.3z" id="PATH_54" class="area" title=""></path>
	<path d="M86.9,289.8c0,0.4-0.1,0.8-0.3,1.1c-0.1,0.2-0.2,0.3-0.2,0.3c0,0-0.1-0.1-0.1-0.4c0-1.2-0.2-4-0.6-8.5l0.8-0.8
		c0.1-0.1,0.1-0.1,0.1-0.1c0,0,0,0.1,0,0.2C86.8,282.9,86.9,285.6,86.9,289.8z" id="PATH_55" class="area" title=""></path>
	<path d="M94.7,291h-0.4c-0.4,0-0.7-0.1-1-0.4c-0.2-0.2-0.4-0.4-0.6-0.8c-0.2,0.4-0.5,0.7-0.8,0.9c-0.4,0.2-0.9,0.3-1.7,0.3
		c-1.4,0-2.1-0.5-2.1-1.5c0-0.3,0.1-0.7,0.3-1c0.1-0.1,0.1-0.2,0.2-0.2c0.1,0,0.1,0.1,0.1,0.2c0,0.1,0,0.1,0,0.3s0,0.2,0,0.3
		c0,0.6,0.5,0.9,1.5,0.9c1.4,0,2.1-0.3,2.1-0.8c0-0.3-0.4-1.4-1.2-3.3l0.4-0.8c0.1-0.1,0.1-0.2,0.1-0.2c0,0,0.1,0.1,0.1,0.2
		c0.3,0.8,0.8,2,1.4,3.6c0.3,0.8,0.7,1.2,1.3,1.2h0.3V291z" id="PATH_56" class="area" title=""></path>
	<path d="M99.6,291h-0.8c-0.9,0-1.5-0.3-1.9-0.9c-0.3,0.6-1,0.9-2.1,0.9h-0.6v-1.2h0.9c1,0,1.5-0.4,1.6-1.1c0-0.3,0.1-0.5,0.2-0.5
		c0.1,0,0.2,0.2,0.2,0.5c0.1,0.7,0.6,1.1,1.5,1.1h0.9V291z M97.6,285.8l-0.8,0.8l-0.8-0.8l0.8-0.8L97.6,285.8z" id="PATH_57" class="area" title=""></path>
	<path d="M107.4,288.1l-0.4,0.8c-0.7,0-1.3,0-1.6,0.1c-0.4,0.2-1,0.4-1.8,0.8c-0.8,0.4-1.4,0.7-1.8,0.8c-0.6,0.2-1.3,0.3-1.9,0.3
		h-0.7v-1.2h0.8c0.9,0,1.7-0.2,2.4-0.5l2.3-1c-0.4-0.1-1-0.3-1.8-0.6c-0.7-0.3-1.1-0.4-1.3-0.4c-0.4,0-0.8,0.2-1.2,0.5
		c-0.1,0.1-0.1,0.1-0.2,0.1c-0.1,0-0.1,0-0.1-0.1c0,0,0-0.1,0-0.1c0.3-1,0.9-1.4,1.7-1.4c0.3,0,0.7,0.1,1.1,0.3
		c0.8,0.4,1.4,0.6,1.8,0.8c0.7,0.2,1.5,0.4,2.4,0.4c0.2,0,0.3,0,0.3,0.1C107.5,287.9,107.5,288,107.4,288.1z M104.6,283.5l-0.8,0.8
		l-0.8-0.8l0.8-0.8L104.6,283.5z" id="PATH_58" class="area" title=""></path>
</g>
<g id="G_59" class="area" title="">
	<path d="M208.8,338.2c0,0.2-0.2,0.6-0.4,1.1c-0.6,0.2-1.4,0.4-2.5,0.8c-1.1,0.4-1.9,0.7-2.3,0.9c0.8,0.8,1.3,1.4,1.6,1.7
		c0.5,0.7,0.8,1.3,0.9,2c0,0.5,0,1-0.2,1.4c-0.4,0.9-1.4,1.3-3.1,1.3h-2.1c-2.4,0-3.7-0.7-3.7-2.1c0-0.5,0.2-1,0.5-1.5
		c0.1-0.1,0.2-0.2,0.2-0.2c0.1,0,0.1,0,0.1,0.1c0,0.1,0,0.1,0,0.2c-0.1,0.4-0.2,0.6-0.2,0.9c0,0.4,0.2,0.7,0.5,0.9
		c0.5,0.4,1.3,0.6,2.4,0.6h2.2c0.8,0,1.4,0,1.7-0.1c0.7-0.1,1.1-0.5,1.1-0.9c0-0.7-0.5-1.6-1.6-2.6l-0.1,0.2
		c-0.1-0.1-0.3-0.3-0.5-0.6c-0.3-0.4-0.4-0.6-0.4-0.6c0-0.2,0-0.4,0.1-0.8c0.1-0.4,0.2-0.6,0.3-0.7c0.1-0.1,0.8-0.4,2.1-0.8
		C206.7,338.9,207.9,338.5,208.8,338.2z" id="PATH_60" class="area" title=""></path>
	<path d="M210.8,346.3c0,0.4-0.1,0.8-0.3,1.1c-0.1,0.2-0.2,0.3-0.2,0.3c0,0-0.1-0.1-0.1-0.4c0-1.2-0.2-4-0.6-8.5l0.8-0.8
		c0.1-0.1,0.1-0.1,0.1-0.1c0,0,0,0.1,0,0.2C210.8,339.4,210.8,342.1,210.8,346.3z" id="PATH_61" class="area" title=""></path>
	<path d="M215.9,347.6c0,1-0.3,1.9-0.9,2.8c-0.5,0.7-1,1.1-1.3,1.1c-0.8,0-1.4,0-2-0.1c-0.2,0-0.3-0.1-0.3-0.1s0.1-0.1,0.3-0.1
		c0.8-0.2,1.6-0.6,2.4-1.2c0.8-0.7,1.3-1.4,1.3-2.1c0-0.4-0.3-1-1-1.7l0.5-0.9c0-0.1,0.1-0.1,0.1-0.1c0,0,0.1,0.1,0.1,0.1
		c0.2,0.3,0.5,0.7,0.6,1.2C215.8,346.8,215.9,347.2,215.9,347.6z" id="PATH_62" class="area" title=""></path>
	<path d="M218.2,346.3c0,0.4-0.1,0.8-0.3,1.1c-0.1,0.2-0.2,0.3-0.2,0.3c0,0-0.1-0.1-0.1-0.4c0-1.2-0.2-4-0.6-8.5l0.8-0.8
		c0.1-0.1,0.1-0.1,0.1-0.1c0,0,0,0.1,0,0.2C218.2,339.4,218.2,342.1,218.2,346.3z" id="PATH_63" class="area" title=""></path>
</g>
<g id="G_64" class="area" title="">
	<path d="M94.2,386h-0.4c-0.4,0-0.7-0.1-1-0.4c-0.2-0.2-0.4-0.4-0.6-0.8c-0.2,0.4-0.5,0.7-0.8,0.9c-0.4,0.2-0.9,0.3-1.7,0.3
		c-1.4,0-2.1-0.5-2.1-1.5c0-0.3,0.1-0.7,0.3-1c0.1-0.1,0.1-0.2,0.2-0.2c0.1,0,0.1,0.1,0.1,0.2c0,0.1,0,0.1,0,0.3s0,0.2,0,0.3
		c0,0.6,0.5,0.9,1.5,0.9c1.4,0,2.1-0.3,2.1-0.8c0-0.3-0.4-1.4-1.2-3.3L91,380c0.1-0.1,0.1-0.2,0.1-0.2c0,0,0.1,0.1,0.1,0.2
		c0.3,0.8,0.8,2,1.4,3.6c0.3,0.8,0.7,1.2,1.3,1.2h0.3V386z" id="PATH_65" class="area" title=""></path>
	<path d="M96.6,384c0,1.3-0.7,2-2,2h-0.8v-1.2h0.7c1,0,1.5-0.2,1.5-0.5c0-0.3-0.2-0.7-0.7-1.2l0.4-1c0-0.1,0.1-0.1,0.1-0.1
		c0,0,0.1,0.1,0.2,0.2C96.4,382.7,96.6,383.4,96.6,384z M96.5,379.5l-0.8,0.8l-0.8-0.8l0.8-0.8L96.5,379.5z" id="PATH_66" class="area" title=""></path>
	<path d="M101.6,386.1c0,1-0.3,1.9-0.9,2.8c-0.5,0.7-1,1.1-1.3,1.1c-0.8,0-1.4,0-2-0.1c-0.2,0-0.3-0.1-0.3-0.1s0.1-0.1,0.3-0.1
		c0.8-0.2,1.6-0.6,2.4-1.2c0.8-0.7,1.3-1.4,1.3-2.1c0-0.4-0.3-1-1-1.7l0.5-0.9c0-0.1,0.1-0.1,0.1-0.1c0,0,0.1,0.1,0.1,0.1
		c0.2,0.3,0.5,0.7,0.6,1.2C101.5,385.3,101.6,385.7,101.6,386.1z M100.9,380.7l-0.8,0.8l-0.8-0.8l0.8-0.8L100.9,380.7z" id="PATH_67" class="area" title=""></path>
	<path d="M105.6,386h-0.7c-0.7,0-1.3-0.3-1.5-0.9c-0.2-0.4-0.3-1.1-0.3-1.9v-1.9c0-0.9-0.1-2.2-0.2-3.9l0.6-0.7
		c0.1-0.1,0.2-0.1,0.2,0c0.1,0.9,0.2,2.2,0.2,3.9v2.9c0,0.8,0.4,1.2,1.2,1.2h0.5V386z" id="PATH_68" class="area" title=""></path>
	<path d="M113.5,383.9c0,0.6-0.1,1.1-0.4,1.5c-0.3,0.4-0.8,0.7-1.3,0.7c-0.7,0-1.1-0.3-1.4-0.8c-0.4,0.6-0.8,0.8-1.4,0.8
		c-0.7,0-1.2-0.3-1.5-0.8c-0.4,0.6-0.9,0.8-1.6,0.8h-0.7v-1.2h0.8c0.7,0,1.2-0.4,1.3-1.2c0-0.2,0.1-0.3,0.2-0.3
		c0.1,0,0.1,0.1,0.2,0.3c0.1,0.8,0.5,1.2,1.3,1.2c0.4,0,0.8-0.1,1-0.3c0.1-0.2,0.2-0.4,0.3-0.8c0-0.2,0.1-0.3,0.2-0.3
		c0.1,0,0.1,0.1,0.2,0.3c0.1,0.8,0.5,1.2,1.2,1.2c0.8,0,1.1-0.2,1.1-0.5c0-0.3-0.2-0.7-0.6-1.1l0.5-0.9c0.1-0.1,0.1-0.2,0.2-0.2
		s0.1,0.1,0.2,0.2C113.3,382.9,113.5,383.4,113.5,383.9z M110.1,380.2l-0.7,0.7l-0.7-0.7l0.7-0.7L110.1,380.2z M111,378.7l-0.7,0.7
		l-0.7-0.7l0.7-0.7L111,378.7z M111.9,380.2l-0.7,0.7l-0.7-0.7l0.7-0.7L111.9,380.2z" id="PATH_69" class="area" title=""></path>
</g>
<g id="G_70" class="area" title="">
	<path d="M222,450.1h-0.5c-0.5,0-0.8,0-1-0.1c0,0.3,0.1,0.5,0.1,0.8c0,0.5-0.1,0.8-0.2,1.1c-0.3,0.7-0.8,1.3-1.8,1.7
		c-0.8,0.3-1.6,0.5-2.5,0.5c-0.9,0-1.6-0.2-2.2-0.6c-0.6-0.5-0.9-1.1-0.9-2c0-0.5,0.1-0.9,0.3-1.5c0.2-0.4,0.3-0.7,0.5-0.9
		c0.1-0.1,0.2-0.1,0.2-0.1c0.1,0,0.1,0,0.1,0.1c0,0,0,0.1,0,0.2c-0.3,0.6-0.4,1.2-0.4,1.7c0,0.5,0.2,0.9,0.5,1.3
		c0.4,0.5,1.1,0.7,2,0.7c1,0,1.9-0.2,2.6-0.5c0.6-0.3,1-0.6,1.2-1c0.1-0.1,0.1-0.3,0-0.7c0-0.3-0.1-0.6-0.1-0.7
		c-0.1-0.3-0.5-0.8-1-1.5l0.4-0.8c0.1-0.1,0.1-0.2,0.1-0.2s0.1,0,0.1,0.1c0.5,0.8,1,1.2,1.6,1.2h0.8V450.1z M217.6,445.6l-0.8,0.8
		l-0.8-0.8l0.8-0.8L217.6,445.6z" id="PATH_71" class="area" title=""></path>
	<path d="M226.9,450.1h-0.8c-0.9,0-1.5-0.3-1.9-0.9c-0.3,0.6-1,0.9-2.1,0.9h-0.6V449h0.9c1,0,1.5-0.4,1.6-1.1c0-0.3,0.1-0.5,0.2-0.5
		c0.1,0,0.2,0.2,0.2,0.5c0.1,0.7,0.6,1.1,1.5,1.1h0.9V450.1z M223.6,452.3l-0.8,0.8l-0.8-0.8l0.8-0.8L223.6,452.3z M225.4,452.3
		l-0.8,0.8l-0.8-0.8l0.8-0.8L225.4,452.3z" id="PATH_72" class="area" title=""></path>
	<path d="M234.1,450.1h-0.6c-0.5,0-1-0.3-1.4-0.8c-0.3,0.8-0.6,1.2-0.9,1.2c-0.3,0-0.8-0.2-1.4-0.5c-0.5-0.3-0.9-0.6-1.1-0.8
		c-0.5,0.6-1,0.9-1.5,0.9h-0.6V449h0.6c0.5,0,0.9-0.2,1.3-0.6c0.3-0.3,0.6-0.7,1-1.1c0.4-0.4,0.7-0.6,1-0.6c0.4,0,0.7,0.2,1,0.6
		c0.2,0.2,0.4,0.6,0.9,1.1c0.3,0.4,0.7,0.6,1.1,0.6h0.6V450.1z M231.4,449.3c0-0.3-0.1-0.6-0.3-1c-0.2-0.4-0.5-0.6-0.9-0.6
		c-0.3,0-0.7,0.3-1.1,0.8c0.1,0.1,0.4,0.3,0.9,0.6c0.5,0.3,0.9,0.4,1.2,0.4C231.3,449.4,231.4,449.4,231.4,449.3z" id="PATH_73" class="area" title=""></path>
	<path d="M241.9,447.2l-0.4,0.8c-0.7,0-1.3,0-1.6,0.1c-0.4,0.2-1,0.4-1.8,0.8c-0.8,0.4-1.4,0.7-1.8,0.8c-0.6,0.2-1.3,0.3-1.9,0.3
		h-0.7V449h0.8c0.9,0,1.7-0.2,2.4-0.5l2.3-1c-0.4-0.1-1-0.3-1.8-0.6c-0.7-0.3-1.1-0.4-1.3-0.4c-0.4,0-0.8,0.2-1.2,0.5
		c-0.1,0.1-0.1,0.1-0.2,0.1c-0.1,0-0.1,0-0.1-0.1c0,0,0-0.1,0-0.1c0.3-1,0.9-1.4,1.7-1.4c0.3,0,0.7,0.1,1.1,0.3
		c0.8,0.4,1.4,0.6,1.8,0.8c0.7,0.2,1.5,0.4,2.4,0.4c0.2,0,0.3,0,0.3,0.1C242,447,242,447.1,241.9,447.2z M239.1,442.6l-0.8,0.8
		l-0.8-0.8l0.8-0.8L239.1,442.6z" id="PATH_74" class="area" title=""></path>
</g>
<g id="G_75" class="area" title="">
	<path d="M311.4,393.8c0,0.7-0.2,1.3-0.7,1.6c-0.3,0.2-0.9,0.4-1.8,0.5c-1,0.2-2,0.3-3.1,0.3c-2.6,0-4-0.7-4-2.2
		c0-0.5,0.2-1,0.6-1.5c0.1-0.1,0.1-0.2,0.2-0.2s0.1,0,0.1,0.1c0,0,0,0.1,0,0.2c-0.1,0.3-0.2,0.6-0.2,0.9c0,1,1.3,1.5,3.8,1.5
		c1.2,0,2.3-0.1,3.1-0.2c1-0.2,1.4-0.4,1.4-0.7c0-0.2-0.2-0.6-0.7-1.2l0.5-0.9c0.1-0.1,0.1-0.1,0.2,0
		C311.2,392.6,311.4,393.2,311.4,393.8z M306.4,390.2l-0.8,0.8l-0.8-0.8l0.8-0.8L306.4,390.2z M308.1,390.2l-0.8,0.8l-0.8-0.8
		l0.8-0.8L308.1,390.2z" id="PATH_76" class="area" title=""></path>
	<path d="M320.8,396h-0.6c-1.2,0-1.9-0.9-1.9-2.7c0-0.2,0-0.5,0-0.9c-0.8,1.9-1.7,3.3-2.9,4.1c-0.7,0.2-1.6,0.3-2.6,0.3
		c-0.2,0-0.3,0-0.3,0c0,0,0.3-0.2,0.9-0.5c0.4-0.2,0.8-0.4,1.2-0.6c0.7-0.3,1.4-0.8,2-1.5c-0.3-1-0.7-1.9-1.3-2.7
		c-0.4-0.5-1-1.1-1.9-1.8l-0.1,0.4c-0.3-0.2-0.5-0.4-0.7-0.6c-0.3-0.3-0.5-0.5-0.5-0.7c0-0.2,0-0.5,0.1-1c0-0.1,0-0.2,0.1-0.2
		s0.1,0,0.2,0.1c1.3,0.9,2.3,1.8,2.9,2.6c0.8,1,1.3,2.1,1.6,3.4c0.4-0.5,0.7-1,0.9-1.6c0.3-0.7,0.4-1.3,0.4-1.8c0-0.9-0.1-1.9-0.2-3
		l0.8-0.7c0.1,0.5,0.1,2.8,0.2,6.9c0,0.9,0.4,1.4,1.2,1.4h0.5V396z" id="PATH_77" class="area" title=""></path>
	<path d="M329.6,396h-1c-1.3,0-2-0.7-2-2c0-0.2,0-0.3,0-0.5c-0.5,0.2-1.1,0.6-1.9,1.1c-0.8,0.5-1.3,0.8-1.7,1
		c-0.6,0.3-1.3,0.4-1.9,0.4h-0.7v-1.2h0.8c0.8,0,1.7-0.2,2.5-0.6c0.4-0.2,1.1-0.6,2.2-1.1c-0.2,0-0.8-0.2-1.8-0.4
		c-0.7-0.2-1.1-0.3-1.2-0.3c-0.4,0-0.8,0.2-1.2,0.5c-0.1,0.1-0.1,0.1-0.2,0.1c-0.1,0-0.1,0-0.1-0.1c0,0,0-0.1,0-0.1
		c0.3-1,0.9-1.5,1.7-1.5c0.3,0,0.7,0.1,1.2,0.2c0.7,0.2,1.3,0.4,1.8,0.5c0.7,0.1,1.5,0.2,2.4,0.2c0.2,0,0.2,0,0.3,0s0,0.1,0,0.2
		l-0.3,0.9c-0.6,0-1,0-1.2,0.1c0,0.5,0.1,0.8,0.2,0.9c0.2,0.3,0.6,0.5,1.3,0.5h1V396z" id="PATH_78" class="area" title=""></path>
	<path d="M334.5,394c0,0.5,0,0.9-0.2,1.3c-0.2,0.5-0.5,0.8-0.8,0.8c-0.5,0-1.3-0.3-2.3-1c-0.3,0.4-0.5,0.6-0.6,0.7
		c-0.3,0.2-0.6,0.3-1,0.3h-0.5v-1.2h0.7c0.4,0,0.8-0.2,1.2-0.7c0.2-0.2,0.5-0.7,0.9-1.3c0.3-0.5,0.7-0.7,1-0.7
		c0.5,0,0.9,0.2,1.2,0.7C334.3,393.3,334.5,393.6,334.5,394z M333.9,394.7c0-0.3-0.1-0.6-0.3-1c-0.2-0.4-0.5-0.6-0.8-0.6
		c-0.3,0-0.6,0.3-1,0.9c0.2,0.2,0.5,0.4,0.9,0.6s0.8,0.3,1,0.3C333.8,395,333.9,394.9,333.9,394.7z" id="PATH_79" class="area" title=""></path>
</g>
<g id="G_80" class="area" title="">
	<path d="M386.3,381.4c0.1,0.3,0.1,0.6,0.1,0.9c0,0.4-0.1,0.7-0.2,1.1c-0.3,0.7-0.8,1.3-1.8,1.7c-0.8,0.3-1.6,0.5-2.5,0.5
		c-0.9,0-1.6-0.2-2.2-0.6c-0.6-0.5-0.9-1.1-0.9-2c0-0.5,0.1-0.9,0.3-1.5c0.2-0.4,0.3-0.7,0.5-0.9c0.1-0.1,0.2-0.1,0.2-0.1
		c0.1,0,0.1,0,0.1,0.1c0,0,0,0.1,0,0.2c-0.3,0.6-0.4,1.2-0.4,1.7c0,0.5,0.2,0.9,0.5,1.3c0.4,0.5,1.1,0.7,2,0.7c1,0,1.9-0.2,2.6-0.5
		c0.6-0.3,1-0.6,1.2-1c0.1-0.1,0.1-0.3,0.1-0.4c0-0.3-0.1-0.6-0.2-1c-0.1-0.3-0.4-0.8-0.9-1.6l0.4-0.8c0.1-0.1,0.1-0.2,0.1-0.2
		s0.1,0,0.1,0.1C385.9,379.8,386.2,380.6,386.3,381.4z M383.4,377l-0.8,0.8l-0.8-0.8l0.8-0.8L383.4,377z" id="PATH_81" class="area" title=""></path>
	<path d="M390.4,381.5h-0.7c-0.7,0-1.3-0.3-1.5-0.9c-0.2-0.4-0.3-1.1-0.3-1.9v-1.9c0-0.9-0.1-2.2-0.2-3.9l0.6-0.7
		c0.1-0.1,0.2-0.1,0.2,0c0.1,0.9,0.2,2.2,0.2,3.9v2.9c0,0.8,0.4,1.2,1.2,1.2h0.5V381.5z" id="PATH_82" class="area" title=""></path>
	<path d="M399.2,381.5h-1c-1.3,0-2-0.7-2-2c0-0.2,0-0.3,0-0.5c-0.5,0.2-1.1,0.6-1.9,1.1c-0.8,0.5-1.3,0.8-1.7,1
		c-0.6,0.3-1.3,0.4-1.9,0.4H390v-1.2h0.8c0.8,0,1.7-0.2,2.5-0.6c0.4-0.2,1.1-0.6,2.2-1.1c-0.2,0-0.8-0.2-1.8-0.4
		c-0.7-0.2-1.1-0.3-1.2-0.3c-0.4,0-0.8,0.2-1.2,0.5c-0.1,0.1-0.1,0.1-0.2,0.1c-0.1,0-0.1,0-0.1-0.1c0,0,0-0.1,0-0.1
		c0.3-1,0.9-1.5,1.7-1.5c0.3,0,0.7,0.1,1.2,0.2c0.7,0.2,1.3,0.4,1.8,0.5c0.7,0.1,1.5,0.2,2.4,0.2c0.2,0,0.2,0,0.3,0s0,0.1,0,0.2
		l-0.3,0.9c-0.6,0-1,0-1.2,0.1c0,0.5,0.1,0.8,0.2,0.9c0.2,0.3,0.6,0.5,1.3,0.5h1V381.5z M395.4,383.5l-0.8,0.8l-0.8-0.8l0.8-0.8
		L395.4,383.5z" id="PATH_83" class="area" title=""></path>
	<path d="M404,381.5h-0.8c-0.9,0-1.5-0.3-1.9-0.9c-0.3,0.6-1,0.9-2.1,0.9h-0.6v-1.2h0.9c1,0,1.5-0.4,1.6-1.1c0-0.3,0.1-0.5,0.2-0.5
		s0.2,0.2,0.2,0.5c0.1,0.7,0.6,1.1,1.5,1.1h0.9V381.5z M400.7,383.7l-0.8,0.8l-0.8-0.8l0.8-0.8L400.7,383.7z M402.5,383.7l-0.8,0.8
		l-0.8-0.8l0.8-0.8L402.5,383.7z" id="PATH_84" class="area" title=""></path>
	<path d="M406.3,373.6c0.1,0.1,0.1,0.2,0.1,0.2c0,0-0.1,0-0.2,0h-0.3c0.1,1.3,0.1,3.2,0.1,5.7c0,0.6-0.1,1.1-0.4,1.4
		c-0.3,0.4-0.8,0.6-1.3,0.6h-0.6v-1.2h0.5c0.8,0,1.2-0.3,1.1-0.9c-0.1-2.1-0.2-4.3-0.3-6.5l0.7-0.6c0.1-0.1,0.2-0.2,0.2-0.2
		c0,0,0,0.1,0.1,0.2C406,372.6,406.1,373,406.3,373.6z" id="PATH_85" class="area" title=""></path>
	<path d="M412.5,379.4c0,1.4-0.9,2.1-2.8,2.1c-0.7,0-1.2-0.1-1.5-0.3c-0.4-0.2-0.6-0.7-0.6-1.3c0-0.3,0.1-0.6,0.2-0.9
		c0.1-0.1,0.1-0.2,0.2-0.2c0.1,0,0.1,0.1,0.1,0.3c0,0.1,0,0.2,0,0.3c0,0.4,0.2,0.7,0.6,0.8c0.2,0.1,0.6,0.1,1.1,0.1
		c1.5,0,2.2-0.2,2.2-0.7c0-0.7-0.9-1.7-2.6-2.9l0.3-1c0-0.1,0.1-0.1,0.1-0.1c0,0,0.1,0,0.2,0.1C411.7,377,412.5,378.3,412.5,379.4z" id="PATH_86" class="area" title=""></path>
</g>
</svg>


