



    


  
<svg version="1.1" id="Layer_1" xmlns="http://www.w3.org/2000/svg" xmlns:xlink="http://www.w3.org/1999/xlink" x="0px" y="0px" viewBox="0 0 652.3 414" style="enable-background:new 0 0 652.3 414;" xml:space="preserve" width="100%" height="100%">
<style type="text/css">
	.st0{fill:#FDFAD4;stroke:#010101;stroke-width:0.2;stroke-miterlimit:10;}
	.st1{fill:#DBECCB;stroke:#010101;stroke-width:0.2;stroke-miterlimit:10;}
	.st2{fill:#FBD0D1;stroke:#010101;stroke-width:0.2;stroke-miterlimit:10;}
	.st3{fill:#E8D0E5;stroke:#010101;stroke-width:0.2;stroke-miterlimit:10;}
	.st4{fill:#DBECCB;stroke:#010101;stroke-width:0.3;stroke-miterlimit:10;}
	.st5{fill:#FDFAD4;stroke:#010101;stroke-width:0.3;stroke-miterlimit:10;}
	.st6{fill:#FBD0D1;stroke:#010101;stroke-width:0.3;stroke-miterlimit:10;}
	.st7{fill:#DBECCB;stroke:#010101;stroke-width:0.15;stroke-miterlimit:10;}
	.st8{fill:#E8D0E5;stroke:#010101;stroke-width:0.3;stroke-miterlimit:10;}
	.st9{fill:none;stroke:#020202;stroke-width:0.5;stroke-miterlimit:10;}
</style>

	<path class="st0 area" d="M138.3,223.5c1.7-0.7,2.9-1.9,4.1-3c-2.2-1.2-6.2-3.3-9-5.1c-2.6-1.8-6-1.5-9.5-1.3c-1.2,0.1-2.4,0.2-3.6,0.2
		c-5.1,0-8-3-10.7-5.6c-1.7-1.7-4.1-3.2-6.7-4.8c-1.2-0.7-2.4-1.5-3.7-2.3c-3.9-2.6-18.8-8.3-23.6-8.3c-1.8,0-3.4-0.8-4.8-2.1
		c0,0,0,0,0,0l-19,6.5c0,0-0.1,0-0.1,0l6.3,6l4.2,1.3l1.9,1.2l0.8,2.3l0.9,1.1l5.3,1.4l1.3,1.4l0.9,1.9l1.2,1.4l1.9,0.5l2,0.3
		l30,10.7c2.4-0.7,4.8-1.5,7.2-2.3C123.1,223,131,225.6,138.3,223.5z" id="_x67E__x627__x631__x633__x6CC__x627__x646_" title="پارسیان"></path>
	<path class="st1 area" d="M279.8,208.3c-9.4-3.7-20.4-4.7-30.9-3.1c-10,1.6-15.7,12.1-24.6,16.8c-11.5,6.3-26.2,7.9-38.8,5.2
		c-10.8-2.9-20.2-8.4-30.7-10.6c-3.5,2.3-8.9,4.5-9.7,4.8l-0.5,0.2l-0.5-0.2c-0.1,0-0.7-0.4-1.7-0.9c-1.2,1.2-2.4,2.3-4.1,3
		c-7.3,2.1-15.2-0.5-22.5,1.6c-2.4,0.7-4.8,1.5-7.2,2.3l1.1,0.4l3,1.9l1.6,2l0.8,2.2l0.2,5.2l0.5,2l1.4,1.7l8.9,7l6.9,4.4l4.7,4.4
		l1.1,0.5l2.2-1.3l2.2,0.2l4.1,1.4l2-0.2l3.7-1.1l4.2-0.6l5.9-3l2-0.3h0.9l0.8,0.3l1.7,1.6l0.9,0.3l1.6,0.3l6.2,1.9l2,0.3l6.9-0.6
		l1.9-0.5l1.7-0.3l2,0.3l2.7,2.3l1.7,3.3l1.4,3.6l1.6,2.7l3.4,1.7l8.3-0.3l4.1,0.8l2.7,2.8l1.1,3.1l1.6,2.3l4.1,0.6l7.8-0.6l1.1,0.2
		l1.6,0.9l1.1,0.3l1.1-0.3l0.6-0.6l0.6-0.6l0.6-0.6l9.8-6.1l8.8-7.7l1.1-0.6l5.9-5.6l1.4-0.6l4.1-1.3l1.7-0.3l2.2-0.5l0.9-1.6
		l0.5-1.9l1.1-2l3.4-1.7l4.2,0.6l7.3,2.7l4.2,0.2l3.8-0.8l3.4-1.9l3-2.8l1.4-2.2l0.9-3l0.6-3.3l-1.3-3.1l-1-2.7l-0.8-2.4l-2.1-6.2
		l-0.6-1.5c-2.4-5.2,1,1-1.6-3.3C297.6,213.6,288.2,210.9,279.8,208.3z" id="_x628__x646__x62F__x631__x644__x646__x6AF__x647_" title="بندرلنگه"></path>
	<path class="st2 area" d="M286.6,201c-3.2,2.1-7.2-4.6-9.3-7.7c-7.3-10.5-16.9-0.6-27.9-2.8c-2.1,0-3.1-3.1-1.6-5.2
		c1.6-2.9,4.2-5.4,5.9-8.4c-3.3-0.2-6.7-0.4-9.6-0.7l-3.2-0.3c-9.7-0.8-27.7-2.4-34.1-2.4c-4.8,0-8.9,0.9-13.6,1.9
		c-2.3,0.5-4.6,1-7.2,1.4c-6.4,1.1-18.4,8.1-22.1,10.3c1,1.3,2.8,3.6,4.5,6.2c2.4,3.7,1,7.2-0.1,8.6c-0.2,0.2-9.2,9.9-11.1,12.4
		c-0.5,0.7-1.5,1.4-2.6,2.2c10.5,2.2,20,7.7,30.7,10.6c12.6,2.6,27.3,1,38.8-5.2c8.9-4.7,14.7-15.2,24.6-16.8
		c10.5-1.6,21.5-0.5,30.9,3.1c3.8,1.2,7.8,2.4,11.4,3.9c1.2-1.4,2.3-2.8,3.3-4.4C297.6,203.1,290.8,197.8,286.6,201z" id="_x628__x633__x62A__x6A9_" title="بستک"></path>
	<path class="st3 area" d="M328.5,218.3c3.7-5.8,7.9-11.5,0-16.8c-1.6-1-1-4.2,1-5.2c6.3-2.6,11.5,5.2,17.8,3.7
		c6.8-1.6,5.8-11.5,4.2-16.2c-3.1-7.3-12.6-6.8-19.9-8.4c-7.9-1.6-9.4-12.1-17.3-14.1c-5.8-1.6-12.1-1.6-18.3,0
		c-2.8,0.5-5.8,1.1-8.7,1.5c-3.3,3.9-6,7.1-6.9,8c-2.8,2.8-10.3,6.9-13.3,6.9c-1.7,0-7.5-0.3-13.5-0.6c-1.6,3-4.2,5.5-5.9,8.4
		c-1.6,2.1-0.5,5.2,1.6,5.2c11,2.1,20.6-7.7,27.9,2.8c2.1,3.1,6.1,9.8,9.3,7.7c4.2-3.1,11,2.1,7.9,6.8c-1,1.6-2.1,3.1-3.3,4.4
		c4.3,1.8,8.1,4.2,10.1,7.6c2.6,4.3,4.9,14,7.3,19.2l2-6.9l0.9-0.9l1.3-0.6l3-3l1.9-0.8h0.8l3,0.6h3.4l0.8-0.2l1.4-1.1l0.9-0.2
		l1.9,0.1C328,223.6,327.1,220.8,328.5,218.3z" id="_x62E__x645__x6CC__x631_" title="خمیر"></path>
	<path class="st2 area" d="M640.9,365.1c0-3.8-1.4-6.6-2.7-9.1l-0.4-0.9c-1.2-2.5-7.7-11.5-10.1-13.4c-2.7-2-5.9-5-5.8-7.9
		c0-0.9,0.4-2.2,1.9-3.2c3.7-2.4,4.4-3.2,2.3-7c-0.4-0.7-0.9-1.8-1.5-3.1c-10.7,2.2-19.3,9.1-29.7,13.4c-9.4,3.7-19.4-4.7-28.3-9.4
		c-5.8-3.1-13.6-0.5-18.3,4.2c-1,1.1-3.7,1.1-4.7,0c-9.4-8.4-21-7.3-32.5-9.4c-3.1-0.5-6.8-4.2-9.4-8.4c-1-1-3.1-2.1-4.7-1
		c-3.2,2.6-4.7,9.4-9.4,7.3c-3.7-1.6-7.9-2.6-10,1c-1,2.1-1.6,4.7-3.1,5.2c-6.4,2.4-12.5,6.6-18.5,10.6l0.2,0.9l0.2,0.5h0.3l1.1-0.2
		l0.5,0.2l2,2.5l0.2,0.5l0.9,0.9l0.8,2l1.1,4.4l2.2,5.5l0.6,5.3l0.6,1.6l1.3,0.8L480,360l-0.8,0.6l6.3,2l2.3,0.3l0.9-0.2l1.7-0.5
		l1.1-0.2l1.1,0.2l1.9,1.1l1.1,0.2l5.2-1.3l2-0.2l2.3,0.2l1.9,0.5l1.4,1.3l0.9,2.5l0.2,0.9l-0.2,0.3l-0.2,0.6l-0.3,1.2l-0.5,4.7h1.4
		l2-1.2l3.1-2.8l3.8-2l3.7-0.9l3.4,0.8l2.8,3.8l2.8,6.1l2,3l2.5,1.2l3,0.5l2.8,0.9l3.1,0.6l3.3-0.5l3.3-2.5l0.5-0.2l0.3,0.6l0.8,0.2
		l0.9-0.3l0.8-0.5l1.1-1.1h0.5l0.3,0.3l0.6,0.3l1.4-0.3l2-1.9l1.3-0.8l3-0.6l2.7-0.2l-0.6,1.7l1.7,0.9l4.8,0.3l5.8-0.9l16.6,3.3h7.8
		l1.1,0.3l0.5,0.8l0.3,1.1l0.6,1.1l0.8,0.5l3.1-0.2l3.6,1.7l2.3,3l4.2,7.2l1.1,1.1l1.6,0.6l1.9,0.5l2,0.2l0.9-0.3l0.8-0.3l0.8-0.3
		l0.6,0.5l0.8,0.8l0.8,0.2l1.9-0.5l5.2-2.7l1.2-0.2c-0.1-0.2-0.1-0.4-0.1-0.5C639.6,396.3,640.9,369.6,640.9,365.1z" id="_x62C__x627__x633__x6A9_" title="جاسک"></path>
	<path class="st1 area" d="M476.3,284.3c-3.2-13.1-4.7-26.2-11-37.7c-2.1-3.7-12.6-1-11-6.8c0.5-2.6,5.2-5.2,2.6-8.4
		c-2.1-2.1-5.2-4.7-8.4-3.7c-4.9,1.7-9.2,5.4-13.8,7.9l-0.1,1l1.1,1.7l3.1,2.8l1.3,2l5.9,25l0.3,5l-1.6,13.4v1.1l0.3,2.3l0.3,0.9
		l0.5,0.9l1.7,1.7l1.1,2l0.6,2.3l0.5,4.8l0.6,0.8l-0.5,2.8l6.1,7l1.3,3.4l-0.9,2.2l-3,3.3l-0.5,2.3l0.2,1.3l0.9,2l0.3,1.9l1.2,3.9
		l0.1,0.4c6-4,12.1-8.2,18.5-10.6c1.6-0.5,2.1-3.1,3.1-5.2c2.1-3.7,6.3-2.6,10-1.1c1,0.4,1.8,0.5,2.5,0.3c2.9-9.9-4.2-19.3-9.9-28.1
		c-0.6-0.8-0.8-2.1-0.7-3.2C477.8,285.8,476.6,285.1,476.3,284.3z" id="_x633__x6CC__x631__x6CC__x6A9_" title="سیریک"></path>
	<path class="st1 area" d="M332.7,121.9c3.7-1.6,7.9-5.2,12.1-3.7c5.2,1.6,8.4,6.3,14.1,4.7c5.2-2.1,8.9-6.8,13.6-7.9
		c8.9-1,17.3,2.1,26.7,1c1.1-0.5,3.1,2.6,4.2,5.8c1,3.1,6.3,0.5,7.9,3.1c4.2,6.3,3.7,17.3,13.1,14.7c2.6-1.1,7.3-3.1,7.3-5.8
		c-0.5-9.8,6.8-15.5,13.7-21.3c-3.2-4.4-5.1-9.6-5.1-11.6c0-2.4-2.5-14.7-3.7-20.4l-24.4,1.8l-1.8,7.1c-0.8,3.4-6.7,5.5-9,5.5
		c-1,0-4.1,0.2-7.2,0.3c-3.2,0.2-6.3,0.3-7.3,0.3c-6.2,0-10.6-0.2-13.3-0.7c-3.7-0.6-9.6-5.6-13.9-9.3c-0.6-0.5-1.2-1-1.7-1.5
		c-4.4-3.6-7.7-10-8.9-12.9c-1.5-3.7,0-23.8,0.6-26.3c0.5-2,2.8-22.4,3.8-31.8l-5,0.5c-0.7,0.2-5.4,1.3-8.5,2
		c-2.5,0.5-7.8,3.2-11.6,5.2c-0.9,0.5-1.8,0.9-2.5,1.3c-1.8,0.9-4.6,2.4-7.5,3.9c-3.6,1.9-7.3,3.8-10.2,5.3
		c-6.2,3.1-11.2,2.4-15.2-2.2c-2.4-2.9-7.1-3.1-9.6-3c0.2,0.7,0.3,1.2,0.4,1.7c3.5,4.5,9.5,11.7,11.3,12.6c2.1,1.1,5.3,4.4,5.9,7.8
		c0.3,2-0.3,3.8-1.7,5.2c-4.1,4.1-4.2,9.7-4.2,10.3c0,1-0.5,11.1-1,21.7c-0.5,10.1-1,20.6-1,21.6c0,1.3,2.8,5.6,6,7.5
		c2.3,1.4,4.1,4.9,5.8,8.3c1,2,2,3.9,3,5.1c0.6,0.8,1,1.6,1.1,2.5c3.9-1.5,6.7-5,10.4-6.8C323.8,120.8,328.5,123.4,332.7,121.9z" id="_x62D__x627__x62C__x6CC___x622__x628__x627__x62F_" title="حاجی آباد"></path>
	<path class="st0 area" d="M430.7,198.4c2.1-2.6,0-7.9-2.6-11.5c-0.5-1-0.5-3.1,0-4.2c4.2-6.8,13.1-9.4,15.2-16.8
		c3.1-11.5-8.9-18.9-12.1-29.9c0-0.1-0.1-0.3-0.1-0.4c-1.4,1.8-4.6,3.3-6.7,4.1c-9.4,2.6-8.9-8.4-13.1-14.7c-1.6-2.6-6.8,0-7.9-3.1
		c-1-3.1-3.1-6.3-4.2-5.8c-9.4,1.1-17.8-2.1-26.7-1c-4.7,1-8.4,5.8-13.6,7.9c-5.8,1.6-8.9-3.1-14.1-4.7c-4.2-1.6-8.4,2.1-12.1,3.7
		c-4.2,1.6-8.9-1-13.1,1.6c-3.7,1.8-6.6,5.3-10.4,6.8c0.6,3.5-2.2,7.5-5,11.4c-2.2,3.1-10.6,13.4-16.8,21c3-0.4,5.9-1,8.7-1.5
		c6.3-1.6,12.6-1.6,18.3,0c7.9,2.1,9.4,12.6,17.3,14.1c7.3,1.6,16.8,1,19.9,8.4c1.6,4.7,2.6,14.7-4.2,16.2
		c-6.3,1.6-11.5-6.3-17.8-3.7c-2.1,1-2.6,4.2-1,5.2c7.9,5.2,3.7,11,0,16.8c-1.4,2.5-0.6,5.3,1.3,7.9l1.2,0.1l0.9-0.2l3.7-0.9
		l4.1-0.6l1.1-0.3l1.6-1.6l0.5-0.3v-0.5l2.3-1.9l6.1-3.9l1.6-1.4l0.8-0.6l0.8-0.2l0.5-0.3l0.2-1.1l0.3-0.6l1.6-1.6l0.6-0.5l2.5-0.6
		l5.9-0.2l2-1.1l2-1.6l3-0.8l5.6-0.3l2.8,0.5l4.9,2l2.7,0.6l5.6,0.3l2.8,0.5l2.2,1.4l0.6-0.8l2,0.6l9.5,0.2l0.9,0.5l0.6,0.9l0.9,1.1
		l1.3,0.5h2.5l1.3-0.5l1.1-1.1l0.5,2.5l1.6,2.2l0.7,0.5C423.7,210.4,424.7,204,430.7,198.4z" id="_x628__x646__x62F__x631__x639__x628__x627__x633_" title="بندرعباس"></path>
	<path class="st2 area" d="M453.3,188.4c0.5,1,2.1,1.6,2.6,2.6c5.2,7.9,3.1,22,12.6,21.5c4.2-0.5,7.3-4.7,14.1-5.8
		c4.9-0.7,4.2-5.8,3.4-10.9c-1.3-0.6-2.8-1.1-4.6-1.3c-7.1-0.7-10.2-8.3-10.2-11c0-0.8-0.4-3.7-0.8-6.5c-0.6-4-1.2-8.6-1.2-10.5
		l0-0.8c0.1-3.2,0.1-6.2-5-7.2c-2.2-0.4-3.1-1.7-3.4-2.6c-1.3-3.6,2.9-9.1,3.4-9.8c0.1-0.2,4.6-4.7,6.5-7.2c1.8-2.3,7.6-4.9,10-5.9
		c-0.6-2-1.7-6.5-1.7-9.1c0-0.8,0-2.8-3.4-2.8c-0.7,0-2-0.1-3.9-0.3c-3.8-0.4-9.4-1-15.1-1c-4.4,0-8.3-3.3-11.1-7.2
		c-6.9,5.8-14.2,11.5-13.7,21.3c0,0.6-0.3,1.2-0.7,1.7c0,0.1,0.1,0.3,0.1,0.4c3.1,11,15.2,18.3,12.1,29.9c-0.7,2.4-2.2,4.4-3.9,6.1
		C445.5,175.7,450.5,181.2,453.3,188.4z" id="_x631__x648__x62F__x627__x646_" title="رودان"></path>
	<path class="st3 area" d="M518.2,227.3c-6.9,0-8-1.5-10.2-5.9c-1.9-3.8-4.3-6.8-9.9-9.3c-5.3-2.3-5.9-7-6.3-9.7
		c-0.1-0.6-0.2-1.2-0.3-1.5c-0.3-1-2.2-3.6-5.6-5.2c0.8,5.2,1.5,10.2-3.4,10.9c-6.8,1.1-10,5.2-14.1,5.8
		c-9.4,0.5-7.3-13.6-12.6-21.5c-0.5-1-2.1-1.6-2.6-2.6c-2.8-7.2-7.8-12.7-13.9-16.4c-3.6,3.5-8.5,6.1-11.3,10.7
		c-0.5,1-0.5,3.1,0,4.2c2.6,3.7,4.7,8.9,2.6,11.5c-6,5.7-7,12.1-7.5,18.8l1.4,1l2.7,0.5v0.8l-0.8,0.6L425,222l-0.5,0.3l-0.9,0.5v0.8
		l0.6,0.5l1.1-0.2v1.1l0.3,0.8l0.5,0.5l1.9-0.9l0.6,0.5l0.5,0.6l0.5,0.5l0.5,0.2l0.3,0.5l0.5,0.6l0.9,0.2l0.9-0.2l2.8-1.2l-0.6,0.8
		l-0.3,1.1l0.2,0.9l0.8,0.8l-1.1,0.5l-0.9,0.6l-1.1,0.5l-1.3-0.2l0.9,1.1l2.8,2l-0.1,0.7c4.6-2.6,8.9-6.2,13.8-7.9
		c3.1-1,6.3,1.6,8.4,3.7c2.6,3.2-2.1,5.8-2.6,8.4c-1.6,5.8,8.9,3.1,11,6.8c6.3,11.5,7.9,24.6,11,37.7c0.3,0.8,1.5,1.4,3,2
		c0.1-1,0.5-1.8,1.2-2c10-2.6,22,7.9,28.8-2.1c2.1-2.6-2.1-3.7-2.6-5.8c-0.5-2.1,1.6-4.2,1.1-5.8c-1.1-6.8-1.6-12.6,3.7-18.3
		c1.6-1.6-1-4.2-1.6-6.3c-1.6-3.7,0.5-8.4,4.7-10.5c3.1-1.4,3.5-5,4.7-8.2C518.9,227.3,518.6,227.3,518.2,227.3z" id="_x645__x6CC__x646__x627__x628_" title="میناب"></path>
	<path class="st0 area" d="M617.6,304.6c-2-4.9-4-9.5-4.7-11.1c-1.8-3.6-4-15.5-4.6-18.6c-0.3,0.1-0.5,0.2-0.8,0.2
		c-0.3,0.1-0.6,0.1-1,0.1c-3.9,0-9.3-3.2-13.8-5.8c-0.6-0.3-1.2-0.7-1.7-1c-0.6-0.3-1.2-0.7-1.9-1.1c-4.6-2.6-9.8-5.5-11.1-8.7
		c-0.4-1-0.6-1.9-0.7-2.8c-0.4-1.9-0.7-3.6-4.2-6.6c-5-4.4-6.6-4.2-11.4-3c-5.9,1.5-15.4-2.8-18.7-5.5c-2.3-1.8-5.1-4.8-7.8-7.7
		c-1.2-1.3-2.4-2.5-3.4-3.6c-2.4-2.4-5.8-2.4-10.8-2.3c-0.6,0-1.2,0-1.8,0c-1.2,3.2-1.6,6.9-4.7,8.2c-4.2,2.1-6.3,6.8-4.7,10.5
		c0.5,2.1,3.1,4.7,1.6,6.3c-5.2,5.8-4.7,11.5-3.7,18.3c0.5,1.6-1.6,3.7-1.1,5.8c0.5,2.1,4.7,3.1,2.6,5.8c-6.8,10-18.9-0.5-28.8,2.1
		c-1.6,0.5-1.6,3.7-0.5,5.2c5.7,8.7,12.8,18.2,9.9,28.1c2.9-0.8,4.4-5.5,6.9-7.6c1.6-1,3.7,0,4.7,1.1c2.6,4.2,6.3,7.9,9.4,8.4
		c11.5,2.1,23.1,1.1,32.5,9.4c1,1,3.7,1,4.7,0c4.7-4.7,12.6-7.3,18.3-4.2c8.9,4.7,18.9,13.1,28.3,9.4c10.4-4.3,19-11.2,29.7-13.4
		C622.6,316.7,620,310.4,617.6,304.6z" id="_x67E__x627__x633__x627__x631__x6AF__x627__x62F_" title="پاسارگاد"></path>
	<g id="_x642__x634__x645_" class="area" title="قشم">
		<g id="G_14" class="area" title="">
			<polygon class="st4 area" points="167.5,278.5 166.8,278.1 166.7,277.3 166.7,276.4 166.5,275.6 165.1,275.1 161.8,274.6 160.3,274.2 
				158.4,274 156.9,274.5 155.4,275.6 154.5,277.1 156.4,280.3 159.3,281.8 166.8,282.3 167.8,281.7 168.3,280.4 168.1,279.2 			" id="_x6A9__x6CC__x634_" title="کیش"></polygon>
			<polygon class="st5 area" points="391.7,216.7 390.6,216.4 389.7,215.6 388.1,216 386.4,218.4 386.1,221.2 389,222.3 390.5,222.1 
				391.7,221.4 392.6,220.4 392.9,219 392.5,217.4 			" id="POLYGON_16" title=""></polygon>
			<polygon class="st2 area" points="370,228.2 367.6,227.1 365.8,226.8 362.2,226.8 350.1,229.6 340.5,236.2 337,237.1 324.2,232 
				322,233.4 322.6,234.3 324,235.6 325.6,237.1 326.4,239 326.9,243.9 326.5,245.9 325.1,247.5 325.5,248.2 325.8,249 324.8,249.3 
				323.9,250.1 323.3,250.4 322.3,250.6 320.5,250.4 319.5,250.4 313.6,252.9 311.7,254.5 307.5,257.1 305.9,257.8 304.2,258.1 
				292,262.3 287.2,265.1 286.2,264.8 285.3,265.4 280.9,263.7 280,264.8 280.9,268.2 281.4,268.7 281.2,269.9 280.6,271.8 
				281.1,274.5 281.5,275.7 282.2,276.4 283.1,276.2 284.2,275.9 285.1,275.3 285.6,274.5 285.9,273.5 286.9,273.5 287.9,274 
				288.7,274.2 289.5,273.7 291.2,272.6 295.3,271.5 300.9,270.7 302.5,269.9 305.6,267.4 310.8,265.1 315.8,261.5 317.6,260.4 
				319.5,260.1 323.7,260.7 325.6,260.7 327.3,259.6 329,258.1 335.1,254.8 337.5,256.8 339.5,258.9 341.5,259.8 344.2,258.2 
				348.7,253.5 349.5,253.1 350.3,252.1 353.7,250.3 354.5,249.3 355.1,247.9 358.9,243.8 360,242 362,237.1 364,235.3 369.8,233.7 
				372.6,231.8 372,229.9 			" id="POLYGON_17" title=""></polygon>
			<polygon class="st6 area" points="380,239 377.6,240.1 376.2,242 375.9,244.9 377.6,245.7 381.1,244.5 383.9,242 383.4,238.5 			" id="POLYGON_18" title=""></polygon>
			<polygon class="st5 area" points="102.9,245.6 96.1,244.9 88.3,242.4 87.5,242.6 86.7,242.9 86.1,243.1 85.6,243.5 86.5,244.5 
				89.4,247 90.8,247.9 92.3,248.7 97.6,249.6 99.4,249.6 101.1,248.7 102.2,248.4 105.6,248.7 107,248.4 105,246.5 			" id="POLYGON_19" title=""></polygon>
			<polygon class="st4 area" points="130.4,260.7 129.5,260.4 127.8,260.4 127,261.7 127.9,262.9 129.5,263.9 131.1,264 132.3,262.8 
				131.5,261.2 			" id="POLYGON_20" title=""></polygon>
			<polygon class="st6 area" points="336.7,261.7 335.8,261.8 334.4,263.1 333.1,265.4 332.9,267.9 334.5,268.8 336.2,267.6 337.6,265.4 
				337.5,262.8 			" id="POLYGON_21" title=""></polygon>
		</g>
		<polygon class="st4 area" points="219.1,338.2 216.6,338.9 215.3,339.9 215.6,341.4 217.3,342.1 218.8,342.5 219.9,341.5 219.7,339.3 
					" id="POLYGON_22" title=""></polygon>
		<polygon class="st7 area" points="205.9,323.4 204.9,323.7 204.4,324.1 204.6,324.6 205.2,324.9 205.8,325.1 206.2,324.7 206.1,323.8 
					" id="POLYGON_23" title=""></polygon>
		<polygon class="st7 area" points="264.8,315.9 264,316.1 263.6,316.4 263.7,316.9 264.2,317.1 264.7,317.2 265.1,316.9 265,316.2 		" id="POLYGON_24" title=""></polygon>
		<polygon class="st8 area active" points="264.5,340.5 263,338.9 261.7,338.3 260.8,339.1 260.9,340.7 261.2,341.9 262.4,342.4 263.9,341.3 		
			" id="_x627__x628__x648__x645__x648__x633__x6CC_" title="ابوموسی"></polygon>
		<polygon class="st4 area" points="280,309.5 278.4,307.9 277.2,307.3 276.2,308.2 276.3,309.7 276.7,310.9 277.8,311.4 279.4,310.4 		
			" id="POLYGON_26" title=""></polygon>
		<polygon class="st4 area" points="212.3,311.9 213.6,309.4 213.4,308.9 213.1,308.5 212.7,308.3 212.3,308.1 211.8,307.5 211.3,307.3 
			210.8,307.6 210.4,308.1 210.2,308.8 210.2,309.5 210.4,310.2 210.4,311.1 210.8,311.4 211.4,311.8 212,312 		" id="POLYGON_27" title=""></polygon>
	</g>
	<line class="st9 area" x1="286.9" y1="336.3" x2="263.5" y2="340.3" id="LINE_28" title=""></line>
	<line class="st9 area" x1="94.5" y1="210.7" x2="54.2" y2="220.6" id="LINE_29" title=""></line>
	<line class="st9 area" x1="369.4" y1="268.8" x2="336.6" y2="247.3" id="LINE_30" title=""></line>
</g>
<g id="G_31" class="area" title="">
	<path d="M312,95.6c0,1.4-0.9,2.1-2.8,2.1c-0.7,0-1.2-0.1-1.5-0.3c-0.4-0.2-0.6-0.7-0.6-1.3c0-0.3,0.1-0.6,0.2-0.9
		c0.1-0.1,0.1-0.2,0.2-0.2c0.1,0,0.1,0.1,0.1,0.3c0,0.1,0,0.2,0,0.3c0,0.4,0.2,0.7,0.6,0.8c0.2,0.1,0.6,0.1,1.1,0.1
		c1.5,0,2.2-0.2,2.2-0.7c0-0.7-0.9-1.7-2.6-2.9l0.3-1c0-0.1,0.1-0.1,0.1-0.1c0,0,0.1,0,0.2,0.1C311.1,93.2,312,94.4,312,95.6z" id="PATH_32" class="area" title=""></path>
	<path d="M316,97.7h-0.7c-0.7,0-1.3-0.3-1.5-0.9c-0.2-0.4-0.3-1.1-0.3-1.9v-1.9c0-0.9-0.1-2.2-0.2-3.9l0.6-0.7
		c0.1-0.1,0.2-0.1,0.2,0c0.1,0.9,0.2,2.2,0.2,3.9v2.9c0,0.8,0.4,1.2,1.2,1.2h0.5V97.7z" id="PATH_33" class="area" title=""></path>
	<path d="M318.3,95.7c0,1.3-0.7,2-2,2h-0.8v-1.2h0.7c1,0,1.5-0.2,1.5-0.5c0-0.3-0.2-0.7-0.7-1.2l0.4-1c0-0.1,0.1-0.1,0.1-0.1
		c0,0,0.1,0.1,0.2,0.2C318.1,94.4,318.3,95,318.3,95.7z M318,99.9l-0.8,0.8l-0.8-0.8l0.8-0.8L318,99.9z" id="PATH_34" class="area" title=""></path>
	<path d="M322.4,87c-0.4,0.4-1,0.5-1.6,0.5c-0.1,0-0.2,0-0.4,0s-0.3,0-0.4,0c-0.1,0-0.2,0.1-0.3,0.2c-0.1,0.1-0.2,0.2-0.2,0.2
		c-0.1,0-0.1-0.1-0.1-0.2c0-0.1,0.1-0.3,0.2-0.5c0.1-0.3,0.2-0.4,0.3-0.4c0.1,0,0.3,0,0.6,0.1c0.3,0,0.5,0.1,0.6,0.1
		c0.6,0,1,0,1.3-0.1c0.2,0,0.3-0.1,0.3-0.1c0,0,0.1,0,0.1,0C322.6,86.8,322.5,86.8,322.4,87z M321.7,96.4c0,0.4-0.1,0.8-0.3,1.1
		c-0.1,0.2-0.2,0.3-0.2,0.3c0,0-0.1-0.1-0.1-0.4c0-1.2-0.2-4-0.6-8.5l0.8-0.8c0.1-0.1,0.1-0.1,0.1-0.1c0,0,0,0.1,0,0.2
		C321.7,89.5,321.7,92.3,321.7,96.4z" id="PATH_35" class="area" title=""></path>
	<path d="M336.4,97.7h-2.3c-0.3,0-0.6,0-0.8,0.1c-0.4,0.1-0.5,0.3-0.5,0.5c0,0.1,0.5,0.2,1.4,0.4c1,0.2,1.4,0.4,1.4,0.6
		c0,0.8-0.2,1.4-0.7,1.8c-0.8,0.7-2.1,1-4,1c-2.3,0-3.5-0.9-3.5-2.6c0-0.4,0.1-0.8,0.3-1.3c0.2-0.5,0.4-0.9,0.6-1.2
		c0.1-0.1,0.2-0.2,0.3-0.2c0.1,0,0.1,0,0.1,0.1c0,0.1,0,0.2-0.1,0.3c-0.3,0.6-0.5,1.2-0.5,1.8c0,0.7,0.3,1.2,1,1.5
		c0.5,0.3,1.1,0.4,1.9,0.4c0.8,0,1.5,0,2.2-0.1c1.2-0.2,1.8-0.4,1.8-0.8c0-0.2-0.3-0.3-0.8-0.4c-0.8-0.1-1.3-0.2-1.5-0.3
		c-0.5-0.1-0.8-0.4-0.8-0.7c0-0.2,0.1-0.5,0.4-0.9c0.2-0.3,0.4-0.5,0.7-0.7c0.5-0.4,1.1-0.6,2-0.6h1.4V97.7z" id="PATH_36" class="area" title=""></path>
	<path d="M344.2,94.8l-0.4,0.8c-0.7,0-1.3,0-1.6,0.1c-0.4,0.2-1,0.4-1.8,0.8c-0.8,0.4-1.4,0.7-1.8,0.8c-0.6,0.2-1.3,0.3-1.9,0.3H336
		v-1.2h0.8c0.9,0,1.7-0.2,2.4-0.5l2.3-1c-0.4-0.1-1-0.3-1.8-0.6c-0.7-0.3-1.1-0.4-1.3-0.4c-0.4,0-0.8,0.2-1.2,0.5
		c-0.1,0.1-0.1,0.1-0.2,0.1c-0.1,0-0.1,0-0.1-0.1c0,0,0-0.1,0-0.1c0.3-1,0.9-1.4,1.7-1.4c0.3,0,0.7,0.1,1.1,0.3
		c0.8,0.4,1.4,0.6,1.8,0.8c0.7,0.2,1.5,0.4,2.4,0.4c0.2,0,0.3,0,0.3,0.1C344.3,94.6,344.3,94.6,344.2,94.8z M340.9,99.7l-0.8,0.8
		l-0.8-0.8l0.8-0.8L340.9,99.7z" id="PATH_37" class="area" title=""></path>
	<path d="M348.3,97.7h-0.7c-0.7,0-1.3-0.3-1.5-0.9c-0.2-0.4-0.3-1.1-0.3-1.9v-1.9c0-0.9-0.1-2.2-0.2-3.9l0.6-0.7
		c0.1-0.1,0.2-0.1,0.2,0c0.1,0.9,0.2,2.2,0.2,3.9v2.9c0,0.8,0.4,1.2,1.2,1.2h0.5V97.7z" id="PATH_38" class="area" title=""></path>
	<path d="M356.1,94.8l-0.4,0.8c-0.7,0-1.3,0-1.6,0.1c-0.4,0.2-1,0.4-1.8,0.8c-0.8,0.4-1.4,0.7-1.8,0.8c-0.6,0.2-1.3,0.3-1.9,0.3
		h-0.7v-1.2h0.8c0.9,0,1.7-0.2,2.4-0.5l2.3-1c-0.4-0.1-1-0.3-1.8-0.6c-0.7-0.3-1.1-0.4-1.3-0.4c-0.4,0-0.8,0.2-1.2,0.5
		c-0.1,0.1-0.1,0.1-0.2,0.1c-0.1,0-0.1,0-0.1-0.1c0,0,0-0.1,0-0.1c0.3-1,0.9-1.4,1.7-1.4c0.3,0,0.7,0.1,1.1,0.3
		c0.8,0.4,1.4,0.6,1.8,0.8c0.7,0.2,1.5,0.4,2.4,0.4c0.2,0,0.3,0,0.3,0.1C356.2,94.6,356.1,94.6,356.1,94.8z" id="PATH_39" class="area" title=""></path>
</g>
<g id="G_40" class="area" title="">
	<path d="M450.8,156.4c-0.3,0.2-0.5,0.4-0.7,0.6c-0.3,0.2-0.6,0.4-1,0.5c-0.8,0.2-1.6,0-2.4-0.5c-0.7-0.4-1.3-1-1.8-1.8
		c-0.5-0.7-0.7-1.4-0.7-2.1c0.1-0.8,0.4-1.4,1.1-1.9c0.4-0.3,0.8-0.4,1.4-0.5c0.4-0.1,0.7-0.1,1-0.1c0.1,0,0.2,0,0.3,0.1
		c0,0.1,0,0.1,0,0.1c0,0-0.1,0-0.2,0.1c-0.7,0.1-1.2,0.3-1.6,0.6c-0.4,0.3-0.7,0.7-0.8,1.1c-0.1,0.6,0,1.3,0.5,2
		c0.6,0.8,1.2,1.4,1.9,1.9c0.6,0.4,1.1,0.5,1.4,0.4c0.1,0,0.3-0.1,0.4-0.2c0.2-0.1,0.5-0.4,0.7-0.7c0.2-0.3,0.5-0.8,0.8-1.7l0.9-0.1
		c0.1,0,0.2,0,0.2,0c0,0,0,0.1,0,0.2C451.8,155.1,451.4,155.8,450.8,156.4z M452.7,151.5l-1.1-0.2l0.2-1.1l1.1,0.2L452.7,151.5z" id="PATH_41" class="area" title=""></path>
	<path d="M453.1,157.8c-0.3,0.2-0.7,0.4-1.1,0.4c-0.2,0-0.3,0-0.4,0c0,0,0.1-0.1,0.3-0.3c1-0.6,3.2-2.4,6.7-5.3l1.1,0.3
		c0.1,0,0.2,0,0.2,0.1c0,0,0,0.1-0.1,0.1C458.7,153.9,456.5,155.5,453.1,157.8z" id="PATH_42" class="area" title=""></path>
	<path d="M457.2,162.3c-1.2,0.8-2.2,0.4-3.3-1.1c-0.4-0.6-0.6-1-0.6-1.4c0-0.5,0.2-0.9,0.7-1.2c0.2-0.2,0.5-0.3,0.9-0.3
		c0.2,0,0.3,0,0.3,0c0,0.1,0,0.1-0.2,0.2c-0.1,0.1-0.2,0.1-0.3,0.2c-0.3,0.2-0.5,0.5-0.4,0.9c0.1,0.2,0.2,0.6,0.5,1
		c0.8,1.2,1.4,1.7,1.8,1.4c0.6-0.4,0.9-1.7,1-3.8l1-0.3c0.1,0,0.2,0,0.2,0c0,0,0,0.1,0,0.2C458.7,160.3,458.1,161.7,457.2,162.3z" id="PATH_43" class="area" title=""></path>
	<path d="M458.7,167.6c-1.2,0.8-2.6,1.1-4,0.9c-0.5-0.1-0.7-0.2-0.8-0.2c-0.3-0.5-0.6-1-0.9-1.7c-0.1-0.2-0.1-0.4-0.1-0.4
		c0,0,0.2,0.1,0.4,0.2c0.6,0.5,1.4,0.9,2.3,1.2c0.4,0.1,0.8,0.2,1.2,0.2c0.5,0,0.9-0.1,1.1-0.2l0.3-0.2l-0.8-1.1
		c-0.5-0.7-0.5-1.3,0.2-1.8c0.4-0.3,0.9-0.5,1.6-0.5c0.7-0.1,1.2,0,1.4,0.4c0.4,0.5,0.3,1.1-0.3,1.9
		C459.8,166.7,459.3,167.1,458.7,167.6z M459,166.5c0.3-0.2,0.5-0.4,0.6-0.8c0.1-0.4,0.1-0.7-0.1-0.9c-0.1-0.2-0.3-0.3-0.5-0.3
		c-0.2,0-0.4,0-0.6,0.1c-0.4,0.3-0.4,0.7,0,1.2C458.5,166,458.7,166.2,459,166.5z" id="PATH_44" class="area" title=""></path>
	<path d="M461.1,172c-0.8,0.5-1.7,0.8-2.8,0.8c-0.9,0-1.5-0.2-1.7-0.5c-0.4-0.6-0.8-1.2-1-1.7c-0.1-0.2-0.1-0.3,0-0.3s0.1,0,0.3,0.1
		c0.6,0.6,1.4,1,2.4,1.3c1.1,0.3,1.9,0.3,2.4-0.1c0.4-0.2,0.6-0.8,0.8-1.8l1-0.2c0.1,0,0.1,0,0.2,0c0,0,0,0.1,0,0.2
		c-0.1,0.4-0.3,0.8-0.6,1.2C461.7,171.5,461.4,171.8,461.1,172z" id="PATH_45" class="area" title=""></path>
</g>
<g id="G_46" class="area" title="">
	<path d="M367.3,162.2c0,1.4-0.6,2.1-1.8,2.1c-0.7,0-1.1-0.3-1.3-0.9c-0.3,0.6-0.8,0.9-1.4,0.9c-0.2,0-0.5,0-0.7-0.1
		c0,0.6-0.1,1.2-0.1,1.9c-0.3,0.7-0.8,1.3-1.7,1.7c-0.8,0.3-1.6,0.5-2.5,0.5c-0.9,0-1.6-0.2-2.2-0.6c-0.6-0.5-0.9-1.1-0.9-2
		c0-0.5,0.1-0.9,0.3-1.5c0.2-0.4,0.3-0.7,0.5-0.9c0.1-0.1,0.2-0.1,0.2-0.1c0.1,0,0.1,0,0.1,0.1c0,0,0,0.1,0,0.2
		c-0.3,0.6-0.4,1.2-0.4,1.7c0,0.5,0.2,0.9,0.5,1.3c0.4,0.5,1.1,0.7,2,0.7c1,0,1.9-0.2,2.6-0.5c0.6-0.3,1-0.6,1.1-1
		c0.1-0.1,0.1-0.3,0-0.7c0-0.3-0.1-0.6-0.1-0.7c-0.1-0.3-0.4-0.8-1-1.5l0.4-0.8c0.1-0.1,0.1-0.2,0.1-0.2c0,0,0.1,0,0.1,0.1
		c0.3,0.4,0.5,0.7,0.6,0.8c0.3,0.3,0.6,0.4,1,0.4c0.4,0,0.8-0.1,1-0.4c0.1-0.2,0.2-0.4,0.3-0.9c0-0.2,0.1-0.3,0.2-0.3
		c0.1,0,0.1,0.1,0.1,0.3c0.1,0.5,0.2,0.8,0.4,1c0.2,0.2,0.6,0.3,1.1,0.3c0.2,0,0.4-0.1,0.5-0.2c0.2-0.1,0.3-0.3,0.3-0.5
		c0-0.3-0.2-0.6-0.6-1.1l0.5-0.9c0.1-0.1,0.1-0.1,0.1-0.1c0,0,0.1,0.1,0.1,0.1C367.1,161.1,367.3,161.7,367.3,162.2z" id="PATH_47" class="area" title=""></path>
	<path d="M371.3,164.3h-0.7c-0.7,0-1.3-0.3-1.5-0.9c-0.2-0.4-0.3-1.1-0.3-1.9v-1.9c0-0.9-0.1-2.2-0.2-3.9l0.6-0.7
		c0.1-0.1,0.2-0.1,0.2,0c0.1,0.9,0.2,2.2,0.2,3.9v2.9c0,0.8,0.4,1.2,1.2,1.2h0.5V164.3z" id="PATH_48" class="area" title=""></path>
	<path d="M376.2,164.3h-0.8c-0.9,0-1.5-0.3-1.9-0.9c-0.3,0.6-1,0.9-2.1,0.9h-0.6v-1.2h0.9c1,0,1.5-0.4,1.6-1.1
		c0-0.3,0.1-0.5,0.2-0.5s0.2,0.2,0.2,0.5c0.1,0.7,0.6,1.1,1.5,1.1h0.9V164.3z M374,166.5l-0.8,0.8l-0.8-0.8l0.8-0.8L374,166.5z" id="PATH_49" class="area" title=""></path>
	<path d="M381.5,162.4l-0.3,0.9l-2.7,0.7c-0.8,0.2-1.5,0.3-2.1,0.3h-0.5v-1.2h0.8c0.2,0,0.4,0,0.8-0.1c-0.6-0.5-0.9-0.9-0.9-1.4
		c0-0.4,0.2-0.9,0.7-1.5c0.6-0.7,1.2-1.1,1.8-1.1c0.7,0,1.2,0.3,1.6,0.9c0.1,0.2,0.2,0.3,0.2,0.4c0,0,0,0.1-0.1,0.1
		c-0.1,0-0.2,0-0.5-0.1c-0.5-0.1-0.9-0.2-1.3-0.2c-0.3,0-0.6,0.1-1,0.3c-0.4,0.2-0.7,0.4-0.7,0.7c0,0.2,0.2,0.5,0.5,0.8
		c0.4,0.4,0.9,0.6,1.4,0.6c0.2,0,0.9-0.2,2.1-0.5c0.1,0,0.1,0,0.2,0c0,0,0,0,0,0C381.5,162.2,381.5,162.3,381.5,162.4z" id="PATH_50" class="area" title=""></path>
	<path d="M386.5,164.4c0,1-0.3,1.9-0.9,2.8c-0.5,0.7-1,1.1-1.3,1.1c-0.8,0-1.4,0-2-0.1c-0.2,0-0.3-0.1-0.3-0.1s0.1-0.1,0.3-0.1
		c0.8-0.2,1.6-0.6,2.4-1.2c0.8-0.7,1.3-1.4,1.3-2.1c0-0.4-0.3-1-1-1.7l0.5-0.9c0-0.1,0.1-0.1,0.1-0.1c0,0,0.1,0.1,0.1,0.1
		c0.2,0.3,0.5,0.7,0.6,1.2C386.4,163.6,386.5,164.1,386.5,164.4z" id="PATH_51" class="area" title=""></path>
	<path d="M394.3,164.3h-0.4c-0.4,0-0.7-0.1-1-0.4c-0.2-0.2-0.4-0.4-0.6-0.8c-0.2,0.4-0.5,0.7-0.8,0.9c-0.4,0.2-0.9,0.3-1.7,0.3
		c-1.4,0-2.1-0.5-2.1-1.5c0-0.3,0.1-0.7,0.3-1c0.1-0.1,0.1-0.2,0.2-0.2c0.1,0,0.1,0.1,0.1,0.2c0,0.1,0,0.1,0,0.3c0,0.1,0,0.2,0,0.3
		c0,0.6,0.5,0.9,1.5,0.9c1.4,0,2.1-0.3,2.1-0.8c0-0.3-0.4-1.4-1.2-3.3l0.4-0.8c0.1-0.1,0.1-0.2,0.1-0.2c0,0,0.1,0.1,0.1,0.2
		c0.3,0.8,0.8,2,1.4,3.6c0.3,0.8,0.7,1.2,1.3,1.2h0.3V164.3z" id="PATH_52" class="area" title=""></path>
	<path d="M399.3,164.3h-0.8c-0.9,0-1.5-0.3-1.9-0.9c-0.3,0.6-1,0.9-2.1,0.9h-0.6v-1.2h0.9c1,0,1.5-0.4,1.6-1.1
		c0-0.3,0.1-0.5,0.2-0.5s0.2,0.2,0.2,0.5c0.1,0.7,0.6,1.1,1.5,1.1h0.9V164.3z M397.3,159.2l-0.8,0.8l-0.8-0.8l0.8-0.8L397.3,159.2z" id="PATH_53" class="area" title=""></path>
	<path d="M401.7,162.3c0,1.3-0.7,2-2,2h-0.8v-1.2h0.7c1,0,1.5-0.2,1.5-0.5c0-0.3-0.2-0.7-0.7-1.2l0.4-1c0-0.1,0.1-0.1,0.1-0.1
		s0.1,0.1,0.2,0.2C401.5,161.1,401.7,161.7,401.7,162.3z M401.3,166.5l-0.8,0.8l-0.8-0.8l0.8-0.8L401.3,166.5z" id="PATH_54" class="area" title=""></path>
</g>
<g id="G_55" class="area" title="">
	<path d="M294,188.3h-0.4c-0.4,0-0.6-0.1-0.8-0.2c0,0.1,0,0.2,0,0.3c0,0.9-0.3,1.8-0.9,2.7c-0.5,0.8-1,1.1-1.3,1.1
		c-0.8,0-1.4,0-2-0.1c-0.2,0-0.3-0.1-0.3-0.1s0.1-0.1,0.3-0.1c0.8-0.2,1.6-0.6,2.4-1.2c0.8-0.7,1.3-1.4,1.3-2.1c0-0.4-0.3-1-1-1.7
		l0.5-0.9c0-0.1,0.1-0.1,0.1-0.1c0,0,0.1,0.1,0.1,0.1c0.3,0.4,0.5,0.7,0.7,0.8c0.3,0.2,0.7,0.4,1.1,0.4h0.3V188.3z" id="PATH_56" class="area" title=""></path>
	<path d="M298.9,188.3h-0.8c-0.9,0-1.5-0.3-1.9-0.9c-0.3,0.6-1,0.9-2.1,0.9h-0.6v-1.2h0.9c1,0,1.5-0.4,1.6-1.1
		c0-0.3,0.1-0.5,0.2-0.5c0.1,0,0.2,0.2,0.2,0.5c0.1,0.7,0.6,1.1,1.5,1.1h0.9V188.3z M295.6,190.5l-0.8,0.8l-0.8-0.8l0.8-0.8
		L295.6,190.5z M297.4,190.5l-0.8,0.8l-0.8-0.8l0.8-0.8L297.4,190.5z" id="PATH_57" class="area" title=""></path>
	<path d="M306.1,188.3h-0.6c-0.5,0-1-0.3-1.4-0.8c-0.3,0.8-0.6,1.2-0.9,1.2c-0.3,0-0.8-0.2-1.4-0.5c-0.5-0.3-0.9-0.6-1.1-0.8
		c-0.5,0.6-1,0.9-1.5,0.9h-0.6v-1.2h0.6c0.5,0,0.9-0.2,1.3-0.6c0.3-0.3,0.6-0.7,1-1.1c0.4-0.4,0.7-0.6,1-0.6c0.4,0,0.7,0.2,1,0.6
		c0.2,0.2,0.4,0.6,0.9,1.1c0.3,0.4,0.7,0.6,1.1,0.6h0.6V188.3z M303.4,187.5c0-0.3-0.1-0.6-0.3-1c-0.2-0.4-0.5-0.6-0.9-0.6
		c-0.3,0-0.7,0.3-1.1,0.8c0.1,0.1,0.4,0.3,0.9,0.6c0.5,0.3,0.9,0.4,1.2,0.4C303.3,187.7,303.4,187.6,303.4,187.5z" id="PATH_58" class="area" title=""></path>
	<path d="M313.9,185.4l-0.4,0.8c-0.7,0-1.3,0-1.6,0.1c-0.4,0.2-1,0.4-1.8,0.8c-0.8,0.4-1.4,0.7-1.8,0.8c-0.6,0.2-1.3,0.3-1.9,0.3
		h-0.7v-1.2h0.8c0.9,0,1.7-0.2,2.4-0.5l2.3-1c-0.4-0.1-1-0.3-1.8-0.6c-0.7-0.3-1.1-0.4-1.3-0.4c-0.4,0-0.8,0.2-1.2,0.5
		c-0.1,0.1-0.1,0.1-0.2,0.1c-0.1,0-0.1,0-0.1-0.1c0,0,0-0.1,0-0.1c0.3-1,0.9-1.4,1.7-1.4c0.3,0,0.7,0.1,1.1,0.3
		c0.8,0.4,1.4,0.6,1.8,0.8c0.7,0.2,1.5,0.4,2.4,0.4c0.2,0,0.3,0,0.3,0.1C314,185.2,314,185.3,313.9,185.4z M311.1,180.9l-0.8,0.8
		l-0.8-0.8l0.8-0.8L311.1,180.9z" id="PATH_59" class="area" title=""></path>
</g>
<g id="G_60" class="area" title="">
	<path d="M472.9,230.4c0,0.7-0.2,1.3-0.7,1.6c-0.3,0.2-0.9,0.4-1.8,0.5c-1,0.2-2,0.3-3.1,0.3c-2.6,0-4-0.7-4-2.2
		c0-0.5,0.2-1,0.6-1.5c0.1-0.1,0.1-0.2,0.2-0.2s0.1,0,0.1,0.1c0,0,0,0.1,0,0.2c-0.1,0.3-0.2,0.6-0.2,0.9c0,1,1.3,1.5,3.8,1.5
		c1.2,0,2.3-0.1,3.1-0.2c1-0.2,1.4-0.4,1.4-0.7c0-0.2-0.2-0.6-0.7-1.2l0.5-0.9c0.1-0.1,0.1-0.1,0.2,0
		C472.7,229.3,472.9,229.9,472.9,230.4z M468.9,234.9l-0.8,0.8l-0.8-0.8l0.8-0.8L468.9,234.9z" id="PATH_61" class="area" title=""></path>
	<path d="M476.9,232.7h-0.7c-0.7,0-1.3-0.3-1.5-0.9c-0.2-0.4-0.3-1.1-0.3-1.9v-1.9c0-0.9-0.1-2.2-0.2-3.9l0.6-0.7
		c0.1-0.1,0.2-0.1,0.2,0c0.1,0.9,0.2,2.2,0.2,3.9v2.9c0,0.8,0.4,1.2,1.2,1.2h0.5V232.7z" id="PATH_62" class="area" title=""></path>
	<path d="M481.8,232.7H481c-0.9,0-1.5-0.3-1.9-0.9c-0.3,0.6-1,0.9-2.1,0.9h-0.6v-1.2h0.9c1,0,1.5-0.4,1.6-1.1c0-0.3,0.1-0.5,0.2-0.5
		s0.2,0.2,0.2,0.5c0.1,0.7,0.6,1.1,1.5,1.1h0.9V232.7z M479.8,227.5l-0.8,0.8l-0.8-0.8l0.8-0.8L479.8,227.5z" id="PATH_63" class="area" title=""></path>
	<path d="M486.7,232.7h-0.8c-0.9,0-1.5-0.3-1.9-0.9c-0.3,0.6-1,0.9-2.1,0.9h-0.6v-1.2h0.9c1,0,1.5-0.4,1.6-1.1
		c0-0.3,0.1-0.5,0.2-0.5s0.2,0.2,0.2,0.5c0.1,0.7,0.6,1.1,1.5,1.1h0.9V232.7z M483.4,234.9l-0.8,0.8l-0.8-0.8l0.8-0.8L483.4,234.9z
		 M485.1,234.9l-0.8,0.8l-0.8-0.8l0.8-0.8L485.1,234.9z" id="PATH_64" class="area" title=""></path>
	<path d="M491.7,230.7c0,0.5,0,0.9-0.2,1.3c-0.2,0.5-0.5,0.8-0.8,0.8c-0.5,0-1.3-0.3-2.3-1c-0.3,0.4-0.5,0.6-0.6,0.7
		c-0.3,0.2-0.6,0.3-1,0.3h-0.5v-1.2h0.7c0.4,0,0.8-0.2,1.2-0.7c0.2-0.2,0.5-0.7,0.9-1.3c0.3-0.5,0.7-0.7,1-0.7
		c0.5,0,0.9,0.2,1.2,0.7C491.5,229.9,491.6,230.3,491.7,230.7z M491.1,231.4c0-0.3-0.1-0.6-0.3-1c-0.2-0.4-0.5-0.6-0.8-0.6
		c-0.3,0-0.6,0.3-1,0.9c0.2,0.2,0.5,0.4,0.9,0.6s0.8,0.3,1,0.3C491,231.7,491.1,231.6,491.1,231.4z" id="PATH_65" class="area" title=""></path>
</g>
<g id="G_66" class="area" title="">
	<path d="M376.4,272.7h-0.5c-0.6,0-1.1-0.1-1.4-0.4c0,0.1,0.1,0.3,0.1,0.5c0,1-0.3,1.6-1,1.6c-0.6,0-1-0.3-1.4-0.9
		c-0.3-0.5-0.4-1.1-0.4-1.7c0-0.1,0-0.3,0-0.4c-0.1,0-0.2,0-0.3,0c-0.7,0-1.1,0.2-1.4,0.5c0.2,1.6,0.3,2.8,0.3,3.6
		c0,0.4-0.1,0.8-0.3,1.4c-0.1,0.2-0.1,0.3-0.2,0.3s-0.1-0.1-0.1-0.4l-0.5-4.6c0-0.2,0.1-0.5,0.3-0.8c0.2-0.3,0.4-0.5,0.6-0.7
		c0.1-0.1,0.4-0.2,0.8-0.3c0.3-0.1,0.6-0.1,0.8-0.1c0.1,0,0.1,0,0.2,0l0.1-0.6c0-0.1,0.1-0.2,0.1-0.2c0,0,0.1,0,0.2,0.1
		c0.8,0.7,1.4,1.2,1.7,1.4c0.6,0.4,1.1,0.6,1.6,0.6h0.6V272.7z M374.2,272.6c0-0.3-0.2-0.6-0.6-1c-0.1-0.1-0.4-0.4-1.1-1
		c0,0.2,0,0.4,0,0.6c0,0.5,0.1,0.9,0.3,1.2c0.2,0.5,0.5,0.7,0.9,0.7C374,273.1,374.2,273,374.2,272.6z" id="PATH_67" class="area" title=""></path>
	<path d="M385.7,272.7h-0.6c-0.7,0-1.1-0.3-1.4-0.8c-0.2,0.6-0.7,0.8-1.3,0.8c-0.6,0-1-0.3-1.3-0.8c-0.3,0.6-0.7,0.8-1.3,0.8
		c-0.7,0-1.2-0.3-1.5-0.8c-0.4,0.6-0.9,0.8-1.6,0.8H376v-1.2h0.8c0.7,0,1.2-0.4,1.3-1.2c0-0.2,0.1-0.3,0.2-0.3
		c0.1,0,0.1,0.1,0.2,0.3c0.1,0.8,0.5,1.2,1.3,1.2c0.7,0,1.2-0.4,1.2-1.2c0-0.2,0.1-0.3,0.2-0.3c0.1,0,0.2,0.1,0.2,0.3
		c0.1,0.8,0.5,1.2,1,1.2c0.7,0,1.2-0.4,1.2-1.2c0-0.2,0.1-0.3,0.2-0.3c0.1,0,0.2,0.1,0.2,0.3c0.1,0.8,0.5,1.2,1.2,1.2h0.6V272.7z
		 M381,267.6l-0.7,0.7l-0.7-0.7l0.7-0.7L381,267.6z M381.9,266.1l-0.7,0.7l-0.7-0.7l0.7-0.7L381.9,266.1z M382.8,267.6l-0.7,0.7
		l-0.7-0.7l0.7-0.7L382.8,267.6z" id="PATH_68" class="area" title=""></path>
	<path d="M389.5,269.8c0,0.9-0.1,1.5-0.3,1.8c-0.5,0.7-1.3,1-2.6,1h-1.4v-1.2h1c1.7,0,2.6-0.3,2.8-0.8c0.1-0.2,0-0.4-0.1-0.6
		c-0.4,0.1-0.8,0.1-1.3,0.1c-0.9,0-1.4-0.4-1.4-1.2c0-0.5,0.1-1.1,0.4-1.6c0.3-0.6,0.7-0.9,1.2-0.9c0.4,0,0.8,0.3,1.1,0.8
		C389.3,268,389.5,268.8,389.5,269.8z M387.6,264.4l-0.8,0.8l-0.8-0.8l0.8-0.8L387.6,264.4z M388.8,269c0-0.3-0.1-0.6-0.3-0.9
		s-0.5-0.4-0.8-0.4c-0.2,0-0.4,0.1-0.6,0.2s-0.2,0.3-0.2,0.5c0,0.4,0.3,0.6,1,0.6C388.1,269.1,388.4,269.1,388.8,269z M389.3,264.4
		l-0.8,0.8l-0.8-0.8l0.8-0.8L389.3,264.4z" id="PATH_69" class="area" title=""></path>
</g>
<g id="G_70" class="area" title="">
	<path d="M203.4,202.7h-0.7c-0.5,0-1-0.3-1.6-0.8c-0.3-0.3-0.7-0.8-1.2-1.5c0,0.7-0.1,1.2-0.4,1.5c-0.5,0.6-1.5,0.9-3,0.9h-2
		c-2.4,0-3.7-0.7-3.7-2.1c0-0.5,0.2-1,0.5-1.5c0.1-0.1,0.2-0.2,0.2-0.2c0.1,0,0.1,0,0.1,0.1c0,0.1,0,0.1,0,0.2
		c-0.1,0.4-0.2,0.6-0.2,0.9c0,0.4,0.2,0.7,0.5,0.9c0.5,0.4,1.3,0.6,2.4,0.6h2c1.1,0,1.9-0.1,2.3-0.2c0.5-0.2,0.7-0.5,0.7-0.9
		c0-0.4-0.2-0.9-0.7-1.5c-0.3-0.3-0.7-0.8-1.3-1.3c-0.5-0.4-0.7-0.7-0.7-0.7c0-0.7,0.1-1.1,0.3-1.4c0-0.1,0.7-0.3,2.1-0.8
		c1.4-0.5,2.6-0.9,3.5-1.2c0,0.1-0.1,0.5-0.3,1.1c-1.1,0.3-2.7,0.9-4.9,1.7c1,0.9,2.1,2.2,3.4,3.9c0.5,0.6,0.9,1,1.2,1.2
		c0.2,0.1,0.6,0.2,1,0.2h0.4V202.7z" id="PATH_71" class="area" title=""></path>
	<path d="M208.3,202.7h-0.8c-0.9,0-1.5-0.3-1.9-0.9c-0.3,0.6-1,0.9-2.1,0.9h-0.6v-1.2h0.9c1,0,1.5-0.4,1.6-1.1
		c0-0.3,0.1-0.5,0.2-0.5c0.1,0,0.2,0.2,0.2,0.5c0.1,0.7,0.6,1.1,1.5,1.1h0.9V202.7z M204.9,196.9l-0.8,0.8l-0.8-0.8l0.8-0.8
		L204.9,196.9z M206.6,196.9l-0.8,0.8l-0.8-0.8l0.8-0.8L206.6,196.9z" id="PATH_72" class="area" title=""></path>
	<path d="M217.5,202.7h-0.6c-0.7,0-1.1-0.3-1.4-0.8c-0.2,0.6-0.7,0.8-1.3,0.8c-0.6,0-1-0.3-1.3-0.8c-0.3,0.6-0.7,0.8-1.3,0.8
		c-0.7,0-1.2-0.3-1.5-0.8c-0.4,0.6-0.9,0.8-1.6,0.8h-0.7v-1.2h0.8c0.7,0,1.2-0.4,1.3-1.2c0-0.2,0.1-0.3,0.2-0.3
		c0.1,0,0.1,0.1,0.2,0.3c0.1,0.8,0.5,1.2,1.3,1.2c0.7,0,1.2-0.4,1.2-1.2c0-0.2,0.1-0.3,0.2-0.3c0.1,0,0.2,0.1,0.2,0.3
		c0.1,0.8,0.5,1.2,1,1.2c0.7,0,1.2-0.4,1.2-1.2c0-0.2,0.1-0.3,0.2-0.3c0.1,0,0.2,0.1,0.2,0.3c0.1,0.8,0.5,1.2,1.2,1.2h0.6V202.7z" id="PATH_73" class="area" title=""></path>
	<path d="M219.9,200.7c0,1.3-0.7,2-2,2h-0.8v-1.2h0.7c1,0,1.5-0.2,1.5-0.5c0-0.3-0.2-0.7-0.7-1.2l0.4-1c0-0.1,0.1-0.1,0.1-0.1
		c0,0,0.1,0.1,0.2,0.2C219.7,199.4,219.9,200,219.9,200.7z M219.6,204.9l-0.8,0.8l-0.8-0.8l0.8-0.8L219.6,204.9z" id="PATH_74" class="area" title=""></path>
</g>
<g id="G_75" class="area" title="">
	<path d="M200.8,246H200c-0.9,0-1.4-0.5-1.6-1.6c-0.5,0.5-0.7,0.7-0.8,0.7h-0.9c-0.3,0-0.6,0-0.9-0.1c-0.4-0.1-0.6-0.3-0.6-0.5
		c0-0.8,0.3-1.4,0.8-1.8c0.4-0.3,1-0.6,1.8-1l-0.2-1l0.7-0.8c0,0.1,0.3,1.2,0.7,3.3c0.1,0.6,0.3,1.1,0.4,1.3
		c0.2,0.3,0.4,0.4,0.8,0.4h0.7V246z M198.3,244l-0.3-1.6c-0.3,0.1-0.7,0.3-1.2,0.5c-0.6,0.3-1,0.6-1,0.7c0,0.2,0.2,0.3,0.7,0.4
		c0.3,0.1,0.6,0.1,0.9,0.1C197.8,244.1,198.1,244,198.3,244z" id="PATH_76" class="area" title=""></path>
	<path d="M207.6,246H207c-0.5,0-1.1-0.2-1.6-0.7c-0.4-0.3-0.8-0.9-1.3-1.6c-0.1,1.5-1.1,2.3-3.1,2.3h-0.6v-1.2h0.4
		c1.8,0,2.8-0.4,2.8-1.1c0-0.6-0.4-1.3-1.3-2.1c-0.4-0.4-0.8-0.7-1.3-1.1c0-0.4,0.1-0.7,0.3-1c0.1-0.1,1.9-0.7,5.5-1.8
		c0,0.1-0.1,0.5-0.3,1.1c-0.9,0.2-2.4,0.7-4.4,1.3c1,1.1,2,2.1,2.7,3c0.5,0.5,0.8,0.9,1.1,1.1c0.4,0.3,0.9,0.5,1.4,0.5h0.4V246z
		 M206.5,236.4l-0.2,0.7l-4.9,1.6l0.2-0.7L206.5,236.4z" id="PATH_77" class="area" title=""></path>
	<path d="M212.5,246h-0.8c-0.9,0-1.5-0.3-1.9-0.9c-0.3,0.6-1,0.9-2.1,0.9h-0.6v-1.2h0.9c1,0,1.5-0.4,1.6-1.1c0-0.3,0.1-0.5,0.2-0.5
		c0.1,0,0.2,0.2,0.2,0.5c0.1,0.7,0.6,1.1,1.5,1.1h0.9V246z M210.5,240.9l-0.8,0.8l-0.8-0.8l0.8-0.8L210.5,240.9z" id="PATH_78" class="area" title=""></path>
	<path d="M214.8,238.1c0.1,0.1,0.1,0.2,0.1,0.2c0,0-0.1,0-0.2,0h-0.3c0.1,1.3,0.1,3.2,0.1,5.7c0,0.6-0.1,1.1-0.4,1.4
		c-0.3,0.4-0.8,0.6-1.3,0.6h-0.6v-1.2h0.5c0.8,0,1.2-0.3,1.1-0.9c-0.1-2.1-0.2-4.3-0.3-6.5l0.7-0.6c0.1-0.1,0.2-0.2,0.2-0.2
		c0,0,0,0.1,0.1,0.2C214.4,237.2,214.6,237.6,214.8,238.1z" id="PATH_79" class="area" title=""></path>
	<path d="M219.9,246.1c0,1-0.3,1.9-0.9,2.8c-0.5,0.7-1,1.1-1.3,1.1c-0.8,0-1.4,0-2-0.1c-0.2,0-0.3-0.1-0.3-0.1s0.1-0.1,0.3-0.1
		c0.8-0.2,1.6-0.6,2.4-1.2c0.8-0.7,1.3-1.4,1.3-2.1c0-0.4-0.3-1-1-1.7l0.5-0.9c0-0.1,0.1-0.1,0.1-0.1c0,0,0.1,0.1,0.1,0.1
		c0.2,0.3,0.5,0.7,0.6,1.2C219.8,245.3,219.9,245.8,219.9,246.1z" id="PATH_80" class="area" title=""></path>
	<path d="M227.7,246h-0.4c-0.4,0-0.7-0.1-1-0.4c-0.2-0.2-0.4-0.4-0.6-0.8c-0.2,0.4-0.5,0.7-0.8,0.9c-0.4,0.2-0.9,0.3-1.7,0.3
		c-1.4,0-2.1-0.5-2.1-1.5c0-0.3,0.1-0.7,0.3-1c0.1-0.1,0.1-0.2,0.2-0.2c0.1,0,0.1,0.1,0.1,0.2c0,0.1,0,0.1,0,0.3s0,0.2,0,0.3
		c0,0.6,0.5,0.9,1.5,0.9c1.4,0,2.1-0.3,2.1-0.8c0-0.3-0.4-1.4-1.2-3.3l0.4-0.8c0.1-0.1,0.1-0.2,0.1-0.2c0,0,0.1,0.1,0.1,0.2
		c0.3,0.8,0.8,2,1.4,3.6c0.3,0.8,0.7,1.2,1.3,1.2h0.3V246z" id="PATH_81" class="area" title=""></path>
	<path d="M232.6,246h-0.8c-0.9,0-1.5-0.3-1.9-0.9c-0.3,0.6-1,0.9-2.1,0.9h-0.6v-1.2h0.9c1,0,1.5-0.4,1.6-1.1c0-0.3,0.1-0.5,0.2-0.5
		c0.1,0,0.2,0.2,0.2,0.5c0.1,0.7,0.6,1.1,1.5,1.1h0.9V246z M230.6,240.9l-0.8,0.8l-0.8-0.8l0.8-0.8L230.6,240.9z" id="PATH_82" class="area" title=""></path>
	<path d="M235,244c0,1.3-0.7,2-2,2h-0.8v-1.2h0.7c1,0,1.5-0.2,1.5-0.5c0-0.3-0.2-0.7-0.7-1.2l0.4-1c0-0.1,0.1-0.1,0.1-0.1
		c0,0,0.1,0.1,0.2,0.2C234.8,242.8,235,243.4,235,244z M234.7,248.2l-0.8,0.8l-0.8-0.8l0.8-0.8L234.7,248.2z" id="PATH_83" class="area" title=""></path>
</g>
<g id="G_84" class="area" title="">
	<path d="M19,222.5c0.1,0.3,0.1,0.6,0.1,0.9c0,0.4-0.1,0.7-0.2,1.1c-0.3,0.7-0.8,1.3-1.8,1.7c-0.8,0.3-1.6,0.5-2.5,0.5
		c-0.9,0-1.6-0.2-2.2-0.6c-0.6-0.5-0.9-1.1-0.9-2c0-0.5,0.1-0.9,0.3-1.5c0.2-0.4,0.3-0.7,0.5-0.9c0.1-0.1,0.2-0.1,0.2-0.1
		c0.1,0,0.1,0,0.1,0.1c0,0,0,0.1,0,0.2c-0.3,0.6-0.4,1.2-0.4,1.7c0,0.5,0.2,0.9,0.5,1.3c0.4,0.5,1.1,0.7,2,0.7c1,0,1.9-0.2,2.6-0.5
		c0.6-0.3,1-0.6,1.2-1c0.1-0.1,0.1-0.3,0.1-0.4c0-0.3-0.1-0.6-0.2-1c-0.1-0.3-0.4-0.8-0.9-1.6l0.4-0.8c0.1-0.1,0.1-0.2,0.1-0.2
		s0.1,0,0.1,0.1C18.6,221,18.9,221.7,19,222.5z M16.1,218.2l-0.8,0.8l-0.8-0.8l0.8-0.8L16.1,218.2z" id="PATH_85" class="area" title=""></path>
	<path d="M23.1,222.7h-0.7c-0.7,0-1.3-0.3-1.5-0.9c-0.2-0.4-0.3-1.1-0.3-1.9v-1.9c0-0.9-0.1-2.2-0.2-3.9l0.6-0.7
		c0.1-0.1,0.2-0.1,0.2,0c0.1,0.9,0.2,2.2,0.2,3.9v2.9c0,0.8,0.4,1.2,1.2,1.2h0.5V222.7z" id="PATH_86" class="area" title=""></path>
	<path d="M28,222.7h-0.8c-0.9,0-1.5-0.3-1.9-0.9c-0.3,0.6-1,0.9-2.1,0.9h-0.6v-1.2h0.9c1,0,1.5-0.4,1.6-1.1c0-0.3,0.1-0.5,0.2-0.5
		c0.1,0,0.2,0.2,0.2,0.5c0.1,0.7,0.6,1.1,1.5,1.1H28V222.7z M24.7,224.9l-0.8,0.8l-0.8-0.8l0.8-0.8L24.7,224.9z M26.4,224.9
		l-0.8,0.8l-0.8-0.8l0.8-0.8L26.4,224.9z" id="PATH_87" class="area" title=""></path>
	<path d="M35.9,220.5c0,0.6-0.1,1.1-0.4,1.5c-0.3,0.4-0.8,0.7-1.3,0.7c-0.7,0-1.1-0.3-1.4-0.8c-0.4,0.6-0.8,0.8-1.4,0.8
		c-0.7,0-1.2-0.3-1.5-0.8c-0.4,0.6-0.9,0.8-1.6,0.8h-0.7v-1.2h0.8c0.7,0,1.2-0.4,1.3-1.2c0-0.2,0.1-0.3,0.2-0.3
		c0.1,0,0.1,0.1,0.2,0.3c0.1,0.8,0.5,1.2,1.3,1.2c0.4,0,0.8-0.1,1-0.3c0.1-0.2,0.2-0.4,0.3-0.8c0-0.2,0.1-0.3,0.2-0.3
		c0.1,0,0.1,0.1,0.2,0.3c0.1,0.8,0.5,1.2,1.2,1.2c0.8,0,1.1-0.2,1.1-0.5c0-0.3-0.2-0.7-0.6-1.1l0.5-0.9c0.1-0.1,0.1-0.2,0.2-0.2
		s0.1,0.1,0.2,0.2C35.7,219.6,35.9,220.1,35.9,220.5z" id="PATH_88" class="area" title=""></path>
	<path d="M41,222.8c0,1-0.3,1.9-0.9,2.8c-0.5,0.7-1,1.1-1.3,1.1c-0.8,0-1.4,0-2-0.1c-0.2,0-0.3-0.1-0.3-0.1s0.1-0.1,0.3-0.1
		c0.8-0.2,1.6-0.6,2.4-1.2c0.8-0.7,1.3-1.4,1.3-2.1c0-0.4-0.3-1-1-1.7l0.5-0.9c0-0.1,0.1-0.1,0.1-0.1c0,0,0.1,0.1,0.1,0.1
		c0.2,0.3,0.5,0.7,0.6,1.2C40.9,222,41,222.4,41,222.8z" id="PATH_89" class="area" title=""></path>
	<path d="M45,222.7h-0.7c-0.7,0-1.3-0.3-1.5-0.9c-0.2-0.4-0.3-1.1-0.3-1.9v-1.9c0-0.9-0.1-2.2-0.2-3.9l0.6-0.7
		c0.1-0.1,0.2-0.1,0.2,0c0.1,0.9,0.2,2.2,0.2,3.9v2.9c0,0.8,0.4,1.2,1.2,1.2H45V222.7z" id="PATH_90" class="area" title=""></path>
	<path d="M47.3,220.7c0,1.3-0.7,2-2,2h-0.8v-1.2h0.7c1,0,1.5-0.2,1.5-0.5c0-0.3-0.2-0.7-0.7-1.2l0.4-1c0-0.1,0.1-0.1,0.1-0.1
		c0,0,0.1,0.1,0.2,0.2C47.1,219.4,47.3,220,47.3,220.7z M45,224.6l0.7-0.7l0.7,0.7l-0.7,0.7L45,224.6z M45.9,226.2l0.7-0.7l0.7,0.7
		l-0.7,0.7L45.9,226.2z M46.7,224.6l0.7-0.7l0.7,0.7l-0.7,0.7L46.7,224.6z" id="PATH_91" class="area" title=""></path>
</g>
<g id="G_92" class="area" title="">
	<path d="M299,338.3h-2.3c-0.3,0-0.6,0-0.8,0.1c-0.4,0.1-0.5,0.3-0.5,0.5c0,0.1,0.5,0.2,1.4,0.4s1.4,0.4,1.4,0.6
		c0,0.8-0.2,1.4-0.7,1.8c-0.8,0.7-2.1,1-4,1c-2.3,0-3.5-0.9-3.5-2.6c0-0.4,0.1-0.8,0.3-1.3c0.2-0.5,0.4-0.9,0.6-1.2
		c0.1-0.1,0.2-0.2,0.3-0.2s0.1,0,0.1,0.1c0,0.1,0,0.2-0.1,0.3c-0.3,0.6-0.5,1.2-0.5,1.8c0,0.7,0.3,1.2,1,1.5
		c0.5,0.3,1.1,0.4,1.9,0.4c0.8,0,1.5,0,2.2-0.1c1.2-0.2,1.8-0.4,1.8-0.8c0-0.2-0.3-0.3-0.8-0.4c-0.8-0.1-1.3-0.2-1.5-0.3
		c-0.5-0.1-0.8-0.4-0.8-0.7c0-0.2,0.1-0.5,0.4-0.9c0.2-0.3,0.4-0.5,0.7-0.7c0.5-0.4,1.1-0.6,2-0.6h1.4V338.3z" id="PATH_93" class="area" title=""></path>
	<path d="M306.8,336.1c0,0.6-0.1,1.1-0.4,1.5c-0.3,0.4-0.8,0.7-1.3,0.7c-0.7,0-1.1-0.3-1.4-0.8c-0.4,0.6-0.8,0.8-1.4,0.8
		c-0.7,0-1.2-0.3-1.5-0.8c-0.4,0.6-0.9,0.8-1.6,0.8h-0.7v-1.2h0.8c0.7,0,1.2-0.4,1.3-1.2c0-0.2,0.1-0.3,0.2-0.3
		c0.1,0,0.1,0.1,0.2,0.3c0.1,0.8,0.5,1.2,1.3,1.2c0.4,0,0.8-0.1,1-0.3c0.1-0.2,0.2-0.4,0.3-0.8c0-0.2,0.1-0.3,0.2-0.3
		c0.1,0,0.1,0.1,0.2,0.3c0.1,0.8,0.5,1.2,1.2,1.2c0.8,0,1.1-0.2,1.1-0.5c0-0.3-0.2-0.7-0.6-1.1l0.5-0.9c0.1-0.1,0.1-0.2,0.2-0.2
		s0.1,0.1,0.2,0.2C306.7,335.2,306.8,335.7,306.8,336.1z" id="PATH_94" class="area" title=""></path>
	<path d="M313.1,338.3H312c-0.1,1.4-0.6,2.5-1.6,3.5c-0.3,0.3-0.5,0.5-0.6,0.5c-0.5,0-1.2-0.1-1.9-0.2c-0.2,0-0.4-0.1-0.4-0.1
		c0,0,0.1-0.1,0.4-0.2c0.8-0.2,1.6-0.7,2.3-1.2c0.3-0.3,0.6-0.5,0.8-0.9c0.3-0.4,0.5-0.8,0.5-1.1v-0.3h-1.3c-1,0-1.4-0.4-1.4-1.2
		c0-0.5,0.1-1,0.4-1.6c0.3-0.6,0.7-1,1.1-1c0.5,0,0.9,0.3,1.2,1c0.2,0.5,0.4,1,0.4,1.6h1.1V338.3z M311.3,337.1
		c0-0.3-0.1-0.6-0.3-0.9c-0.2-0.4-0.5-0.5-0.8-0.5c-0.2,0-0.4,0.1-0.5,0.2c-0.2,0.2-0.2,0.3-0.2,0.6c0,0.5,0.4,0.7,1.2,0.7
		C310.7,337.1,311,337.1,311.3,337.1z" id="PATH_95" class="area" title=""></path>
	<path d="M318,336.3c0,0.5,0,0.9-0.2,1.3c-0.2,0.5-0.5,0.8-0.8,0.8c-0.5,0-1.3-0.3-2.3-1c-0.3,0.4-0.5,0.6-0.6,0.7
		c-0.3,0.2-0.6,0.3-1,0.3h-0.5v-1.2h0.7c0.4,0,0.8-0.2,1.2-0.7c0.2-0.2,0.5-0.7,0.9-1.3c0.3-0.5,0.7-0.7,1-0.7
		c0.5,0,0.9,0.2,1.2,0.7C317.9,335.6,318,335.9,318,336.3z M317.5,337c0-0.3-0.1-0.6-0.3-1c-0.2-0.4-0.5-0.6-0.8-0.6
		c-0.3,0-0.6,0.3-1,0.9c0.2,0.2,0.5,0.4,0.9,0.6c0.4,0.2,0.8,0.3,1,0.3C317.4,337.3,317.5,337.2,317.5,337z" id="PATH_96" class="area" title=""></path>
	<path d="M324.3,338.3h-1.1c-0.1,1.4-0.6,2.5-1.6,3.5c-0.3,0.3-0.5,0.5-0.6,0.5c-0.5,0-1.2-0.1-1.9-0.2c-0.2,0-0.4-0.1-0.4-0.1
		c0,0,0.1-0.1,0.4-0.2c0.8-0.2,1.6-0.7,2.3-1.2c0.3-0.3,0.6-0.5,0.8-0.9c0.3-0.4,0.5-0.8,0.5-1.1v-0.3h-1.3c-1,0-1.4-0.4-1.4-1.2
		c0-0.5,0.1-1,0.4-1.6c0.3-0.6,0.7-1,1.1-1c0.5,0,0.9,0.3,1.2,1c0.2,0.5,0.4,1,0.4,1.6h1.1V338.3z M322.5,337.1
		c0-0.3-0.1-0.6-0.3-0.9c-0.2-0.4-0.5-0.5-0.8-0.5c-0.2,0-0.4,0.1-0.5,0.2c-0.2,0.2-0.2,0.3-0.2,0.6c0,0.5,0.4,0.7,1.2,0.7
		C321.9,337.1,322.2,337.1,322.5,337.1z" id="PATH_97" class="area" title=""></path>
	<path d="M326.6,336.3c0,1.3-0.7,2-2,2h-0.8v-1.2h0.7c1,0,1.5-0.2,1.5-0.5c0-0.3-0.2-0.7-0.7-1.2l0.4-1c0-0.1,0.1-0.1,0.1-0.1
		c0,0,0.1,0.1,0.2,0.2C326.4,335,326.6,335.6,326.6,336.3z M326.3,340.5l-0.8,0.8l-0.8-0.8l0.8-0.8L326.3,340.5z" id="PATH_98" class="area" title=""></path>
	<path d="M329,337c0,0.4-0.1,0.8-0.3,1.1c-0.1,0.2-0.2,0.3-0.2,0.3c0,0-0.1-0.1-0.1-0.4c0-1.2-0.2-4-0.6-8.5l0.8-0.8
		c0.1-0.1,0.1-0.1,0.1-0.1c0,0,0,0.1,0,0.2C329,330.2,329,332.9,329,337z" id="PATH_99" class="area" title=""></path>
</g>
<g id="G_100" class="area" title="">
	<path d="M548.9,356h-0.7c-0.5,0-1-0.3-1.6-0.8c-0.3-0.3-0.7-0.8-1.2-1.5c0,0.7-0.1,1.2-0.4,1.5c-0.5,0.6-1.5,0.9-3,0.9h-2
		c-2.4,0-3.7-0.7-3.7-2.1c0-0.5,0.2-1,0.5-1.5c0.1-0.1,0.2-0.2,0.2-0.2c0.1,0,0.1,0,0.1,0.1c0,0.1,0,0.1,0,0.2
		c-0.1,0.4-0.2,0.6-0.2,0.9c0,0.4,0.2,0.7,0.5,0.9c0.5,0.4,1.3,0.6,2.4,0.6h2c1.1,0,1.9-0.1,2.3-0.2c0.5-0.2,0.7-0.5,0.7-0.9
		c0-0.4-0.2-0.9-0.7-1.5c-0.3-0.3-0.7-0.8-1.3-1.3c-0.5-0.4-0.7-0.7-0.7-0.7c0-0.7,0.1-1.1,0.3-1.4c0-0.1,0.7-0.3,2.1-0.8
		c1.4-0.5,2.6-0.9,3.5-1.2c0,0.1-0.1,0.5-0.3,1.1c-1.1,0.3-2.7,0.9-4.9,1.7c1,0.9,2.1,2.2,3.4,3.9c0.5,0.6,0.9,1,1.2,1.2
		c0.2,0.1,0.6,0.2,1,0.2h0.4V356z" id="PATH_101" class="area" title=""></path>
	<path d="M556.8,353.9c0,0.6-0.1,1.1-0.4,1.5c-0.3,0.4-0.8,0.7-1.3,0.7c-0.7,0-1.1-0.3-1.4-0.8c-0.4,0.6-0.8,0.8-1.4,0.8
		c-0.7,0-1.2-0.3-1.5-0.8c-0.4,0.6-0.9,0.8-1.6,0.8h-0.7v-1.2h0.8c0.7,0,1.2-0.4,1.3-1.2c0-0.2,0.1-0.3,0.2-0.3
		c0.1,0,0.1,0.1,0.2,0.3c0.1,0.8,0.5,1.2,1.3,1.2c0.4,0,0.8-0.1,1-0.3c0.1-0.2,0.2-0.4,0.3-0.8c0-0.2,0.1-0.3,0.2-0.3
		c0.1,0,0.1,0.1,0.2,0.3c0.1,0.8,0.5,1.2,1.2,1.2c0.8,0,1.1-0.2,1.1-0.5c0-0.3-0.2-0.7-0.6-1.1l0.5-0.9c0.1-0.1,0.1-0.2,0.2-0.2
		s0.1,0.1,0.2,0.2C556.6,352.9,556.8,353.4,556.8,353.9z" id="PATH_102" class="area" title=""></path>
	<path d="M560.8,356h-0.7c-0.7,0-1.3-0.3-1.5-0.9c-0.2-0.4-0.3-1.1-0.3-1.9v-1.9c0-0.9-0.1-2.2-0.2-3.9l0.6-0.7
		c0.1-0.1,0.2-0.1,0.2,0c0.1,0.9,0.2,2.2,0.2,3.9v2.9c0,0.8,0.4,1.2,1.2,1.2h0.5V356z" id="PATH_103" class="area" title=""></path>
	<path d="M568.6,353.1l-0.4,0.8c-0.7,0-1.3,0-1.6,0.1c-0.4,0.2-1,0.4-1.8,0.8c-0.8,0.4-1.4,0.7-1.8,0.8c-0.6,0.2-1.3,0.3-1.9,0.3
		h-0.7v-1.2h0.8c0.9,0,1.7-0.2,2.4-0.5l2.3-1c-0.4-0.1-1-0.3-1.8-0.6c-0.7-0.3-1.1-0.4-1.3-0.4c-0.4,0-0.8,0.2-1.2,0.5
		c-0.1,0.1-0.1,0.1-0.2,0.1c-0.1,0-0.1,0-0.1-0.1c0,0,0-0.1,0-0.1c0.3-1,0.9-1.4,1.7-1.4c0.3,0,0.7,0.1,1.1,0.3
		c0.8,0.4,1.4,0.6,1.8,0.8c0.7,0.2,1.5,0.4,2.4,0.4c0.2,0,0.3,0,0.3,0.1C568.7,352.9,568.6,353,568.6,353.1z M565.3,358l-0.8,0.8
		l-0.8-0.8l0.8-0.8L565.3,358z" id="PATH_104" class="area" title=""></path>
</g>
<g id="G_105" class="area" title="">
	<path d="M527.3,290.9c0,1.4-0.9,2.1-2.8,2.1c-0.7,0-1.2-0.1-1.5-0.3c-0.4-0.2-0.6-0.7-0.6-1.3c0-0.3,0.1-0.6,0.2-0.9
		c0.1-0.1,0.1-0.2,0.2-0.2c0.1,0,0.1,0.1,0.1,0.3c0,0.1,0,0.2,0,0.3c0,0.4,0.2,0.7,0.6,0.8c0.2,0.1,0.6,0.1,1.1,0.1
		c1.5,0,2.2-0.2,2.2-0.7c0-0.7-0.9-1.7-2.6-2.9l0.3-1c0-0.1,0.1-0.1,0.1-0.1c0,0,0.1,0,0.2,0.1C526.4,288.5,527.3,289.8,527.3,290.9
		z" id="PATH_106" class="area" title=""></path>
	<path d="M532.3,293.1c0,1-0.3,1.9-0.9,2.8c-0.5,0.7-1,1.1-1.3,1.1c-0.8,0-1.4,0-2-0.1c-0.2,0-0.3-0.1-0.3-0.1s0.1-0.1,0.3-0.1
		c0.8-0.2,1.6-0.6,2.4-1.2c0.8-0.7,1.3-1.4,1.3-2.1c0-0.4-0.3-1-1-1.7l0.5-0.9c0-0.1,0.1-0.1,0.1-0.1c0,0,0.1,0.1,0.1,0.1
		c0.2,0.3,0.5,0.7,0.6,1.2C532.2,292.3,532.3,292.7,532.3,293.1z" id="PATH_107" class="area" title=""></path>
	<path d="M536.3,293h-0.7c-0.7,0-1.3-0.3-1.5-0.9c-0.2-0.4-0.3-1.1-0.3-1.9v-1.9c0-0.9-0.1-2.2-0.2-3.9l0.6-0.7
		c0.1-0.1,0.2-0.1,0.2,0c0.1,0.9,0.2,2.2,0.2,3.9v2.9c0,0.8,0.4,1.2,1.2,1.2h0.5V293z" id="PATH_108" class="area" title=""></path>
	<path d="M542.3,284.9c0,0.2-0.1,0.5-0.3,1.1c-1.2,0.3-2.7,0.8-4.4,1.3c1.2,1.2,1.9,2.2,2,2.9c0.1,0.5,0,1-0.2,1.5
		c-0.2,0.5-0.6,0.8-1.1,1c-0.4,0.2-1.1,0.2-2,0.2h-0.4v-1.2h0.3c1.9,0,2.9-0.3,2.9-1c0-0.5-0.5-1.3-1.6-2.3l-0.1,0.3
		c-0.1-0.1-0.3-0.3-0.5-0.6c-0.3-0.3-0.4-0.5-0.4-0.6c0-0.3,0.1-0.6,0.4-0.9c0.1-0.1,0.7-0.3,2-0.7
		C540.1,285.5,541.3,285.2,542.3,284.9z M542.1,283.4l-0.2,0.7l-4.9,1.6l0.2-0.7L542.1,283.4z" id="PATH_109" class="area" title=""></path>
	<path d="M547.1,293.1c0,1-0.3,1.9-0.9,2.8c-0.5,0.7-1,1.1-1.3,1.1c-0.8,0-1.4,0-2-0.1c-0.2,0-0.3-0.1-0.3-0.1s0.1-0.1,0.3-0.1
		c0.8-0.2,1.6-0.6,2.4-1.2c0.8-0.7,1.3-1.4,1.3-2.1c0-0.4-0.3-1-1-1.7l0.5-0.9c0-0.1,0.1-0.1,0.1-0.1c0,0,0.1,0.1,0.1,0.1
		c0.2,0.3,0.5,0.7,0.6,1.2C547,292.3,547.1,292.7,547.1,293.1z" id="PATH_110" class="area" title=""></path>
	<path d="M551.1,293h-0.7c-0.7,0-1.3-0.3-1.5-0.9c-0.2-0.4-0.3-1.1-0.3-1.9v-1.9c0-0.9-0.1-2.2-0.2-3.9l0.6-0.7
		c0.1-0.1,0.2-0.1,0.2,0c0.1,0.9,0.2,2.2,0.2,3.9v2.9c0,0.8,0.4,1.2,1.2,1.2h0.5V293z" id="PATH_111" class="area" title=""></path>
	<path d="M559,290.9c0,0.6-0.1,1.1-0.4,1.5c-0.3,0.4-0.8,0.7-1.3,0.7c-0.7,0-1.1-0.3-1.4-0.8c-0.4,0.6-0.8,0.8-1.4,0.8
		c-0.7,0-1.2-0.3-1.5-0.8c-0.4,0.6-0.9,0.8-1.6,0.8h-0.7v-1.2h0.8c0.7,0,1.2-0.4,1.3-1.2c0-0.2,0.1-0.3,0.2-0.3
		c0.1,0,0.1,0.1,0.2,0.3c0.1,0.8,0.5,1.2,1.3,1.2c0.4,0,0.8-0.1,1-0.3c0.1-0.2,0.2-0.4,0.3-0.8c0-0.2,0.1-0.3,0.2-0.3
		c0.1,0,0.1,0.1,0.2,0.3c0.1,0.8,0.5,1.2,1.2,1.2c0.8,0,1.1-0.2,1.1-0.5c0-0.3-0.2-0.7-0.6-1.1l0.5-0.9c0.1-0.1,0.1-0.2,0.2-0.2
		s0.1,0.1,0.2,0.2C558.8,289.9,559,290.4,559,290.9z" id="PATH_112" class="area" title=""></path>
	<path d="M563,293h-0.7c-0.7,0-1.3-0.3-1.5-0.9c-0.2-0.4-0.3-1.1-0.3-1.9v-1.9c0-0.9-0.1-2.2-0.2-3.9l0.6-0.7c0.1-0.1,0.2-0.1,0.2,0
		c0.1,0.9,0.2,2.2,0.2,3.9v2.9c0,0.8,0.4,1.2,1.2,1.2h0.5V293z" id="PATH_113" class="area" title=""></path>
	<path d="M565.3,291c0,1.3-0.7,2-2,2h-0.8v-1.2h0.7c1,0,1.5-0.2,1.5-0.5c0-0.3-0.2-0.7-0.7-1.2l0.4-1c0-0.1,0.1-0.1,0.1-0.1
		s0.1,0.1,0.2,0.2C565.1,289.7,565.3,290.4,565.3,291z M563,295l0.7-0.7l0.7,0.7l-0.7,0.7L563,295z M563.9,296.5l0.7-0.7l0.7,0.7
		l-0.7,0.7L563.9,296.5z M564.7,295l0.7-0.7l0.7,0.7l-0.7,0.7L564.7,295z" id="PATH_114" class="area" title=""></path>
</g>
<g id="G_115" class="area" title="">
	<path d="M456.8,279.9l-0.5-0.6c-0.3-0.4-0.4-1-0.4-1.8c0-0.4,0.2-1,0.4-1.9c-0.5,0.5-1,0.7-1.5,0.7c-0.8,0-1.6-0.6-2.6-1.7
		l-1.3-1.5c-1.6-1.9-1.8-3.3-0.8-4.1c0.4-0.3,0.9-0.5,1.5-0.6c0.2,0,0.3,0,0.3,0.1c0,0,0,0.1,0,0.2c0,0-0.1,0.1-0.2,0.1
		c-0.4,0.1-0.6,0.2-0.8,0.4c-0.3,0.2-0.4,0.6-0.4,1c0,0.6,0.4,1.4,1.1,2.2l1.3,1.5c0.7,0.9,1.3,1.4,1.6,1.6c0.4,0.3,0.8,0.3,1.2,0
		c0.3-0.3,0.5-0.7,0.7-1.5c0.1-0.4,0.1-1,0.2-1.9c0-0.6,0.1-1,0.1-1c0.5-0.4,0.9-0.7,1.3-0.7c0.1,0,0.7,0.3,2,1.1
		c1.3,0.7,2.3,1.4,3.2,1.9c-0.1,0.1-0.5,0.3-1,0.5c-1-0.6-2.5-1.5-4.5-2.6c-0.1,1.3-0.3,3-0.8,5.1c-0.2,0.8-0.2,1.3-0.2,1.7
		c0,0.3,0.2,0.6,0.5,0.9l0.3,0.3L456.8,279.9z" id="PATH_116" class="area" title=""></path>
	<path d="M456.2,282.5l-1.1-0.1l0.1-1.1l1.1,0.1L456.2,282.5z M457.3,283.8l-1.1-0.1l0.1-1.1l1.1,0.1L457.3,283.8z M459.9,280.4
		c-1,0.9-1.9,0.8-2.8-0.2l-0.5-0.6l0.9-0.7l0.4,0.5c0.6,0.8,1.1,1,1.4,0.8c0.2-0.2,0.4-0.6,0.5-1.3l1-0.3c0.1,0,0.2,0,0.2,0
		c0,0,0,0.1,0,0.2C460.8,279.5,460.4,280,459.9,280.4z" id="PATH_117" class="area" title=""></path>
	<path d="M463,287.2l-0.3-0.3c-0.2-0.3-0.4-0.5-0.4-0.8c-0.1,0.1-0.2,0.1-0.2,0.2c-0.7,0.6-1.6,1-2.7,1c-0.9,0.1-1.5,0-1.7-0.3
		c-0.5-0.6-0.9-1.1-1.2-1.6c-0.1-0.2-0.1-0.3-0.1-0.3s0.1,0,0.3,0.1c0.6,0.5,1.4,0.8,2.5,1c1.1,0.2,1.9,0.1,2.4-0.4
		c0.3-0.3,0.5-0.9,0.6-1.9l1-0.3c0.1,0,0.1,0,0.2,0c0,0,0,0.1,0,0.2c-0.1,0.5-0.2,0.9-0.2,1.1c0,0.4,0.2,0.8,0.4,1.1l0.2,0.2
		L463,287.2z" id="PATH_118" class="area" title=""></path>
	<path d="M462.4,289.9l-1.1-0.1l0.1-1.1l1.1,0.1L462.4,289.9z M463.5,291.2l-1.1-0.1l0.1-1.1l1.1,0.1L463.5,291.2z M466.2,291
		l-0.5-0.6c-0.6-0.7-0.8-1.4-0.5-2c-0.7,0.1-1.4-0.2-2-1l-0.4-0.5l0.9-0.7l0.6,0.7c0.6,0.7,1.3,0.9,1.9,0.5c0.3-0.2,0.4-0.2,0.5-0.1
		c0.1,0.1,0,0.2-0.2,0.5c-0.5,0.5-0.5,1.2,0.1,1.9l0.6,0.7L466.2,291z" id="PATH_119" class="area" title=""></path>
	<path d="M472.9,295.6c-0.5,0.4-0.9,0.6-1.4,0.6c-0.5,0-1-0.1-1.4-0.6c-0.4-0.5-0.5-1.1-0.3-1.6c-0.7,0.1-1.2-0.1-1.5-0.5
		c-0.5-0.6-0.6-1.1-0.3-1.7c-0.7,0.1-1.2-0.2-1.6-0.7l-0.4-0.5l0.9-0.7l0.5,0.6c0.5,0.6,1,0.6,1.7,0.2c0.2-0.1,0.3-0.1,0.3,0
		c0.1,0.1,0,0.2-0.1,0.3c-0.5,0.6-0.6,1.1-0.1,1.7c0.3,0.3,0.6,0.5,0.9,0.5c0.2,0,0.5-0.1,0.8-0.3c0.2-0.1,0.3-0.1,0.3-0.1
		c0.1,0.1,0,0.2-0.1,0.3c-0.5,0.6-0.6,1.2-0.1,1.7c0.5,0.6,0.9,0.8,1.1,0.5c0.2-0.2,0.4-0.6,0.5-1.2l0.9-0.2c0.2,0,0.2,0,0.3,0
		c0,0,0,0.1-0.1,0.3C473.5,294.9,473.2,295.4,472.9,295.6z" id="PATH_120" class="area" title=""></path>
</g>
</svg>


