



    


  
<svg version="1.1" id="Layer_1" xmlns="http://www.w3.org/2000/svg" xmlns:xlink="http://www.w3.org/1999/xlink" x="0px" y="0px" viewBox="0 0 426.1 514" style="enable-background:new 0 0 426.1 514;" xml:space="preserve" width="100%" height="100%">
<style type="text/css">
	.st0{fill:#DBECCB;stroke:#020202;stroke-width:0.2;stroke-miterlimit:10;}
	.st1{fill:#E8D0E5;stroke:#020202;stroke-width:0.2;stroke-miterlimit:10;}
	.st2{fill:#FDFAD6;stroke:#020202;stroke-width:0.2;stroke-miterlimit:10;}
	.st3{fill:#D3D3D3;stroke:#030303;stroke-width:0.2;stroke-miterlimit:10;}
	.st4{fill:#FBD1D1;stroke:#020202;stroke-width:0.2;stroke-miterlimit:10;}
</style>

		<path class="st0 area" d="M203.4,65.6c-0.8,1.6-4.9,1.6-7.4,4.1c-1.6,3.3-1.6,7.4,0,9.8c9,14.7,27.8,20.4,23.7,41.7
			c-0.8,4.1,4.9,8.2,9.8,8.2c16.4,2.5,37.6-7.4,45.8,11.4c2.5,6.5,1.6,13.9,8.2,17.2c4.1,1.6,8.2,0.8,12.3,3.3
			c7.4,4.9,10.6,18,19.6,12.3c9-6.5,12.3-20.4,25.3-21.3c10.6-0.8,20.4,6.5,30.2,3.3c5.7-2.4,12.3-3.9,17.7-7.1
			c-0.4-0.7-0.7-1.4-1-2.1c-1.4-4.1-0.5-8.5,2.6-13.1c6.4-9.6,14.2-25.9,17.2-32.3c-2.1-1-4.4-2.1-7-3.3c-9.1-4.3-19.4-9.2-24-12.2
			c-5.9-3.9-13.1-7.5-22.1-3.9c-6,2.4-12.1,2-16.6-1.1c-4-2.7-6.4-7.3-6.4-12.2c0-1.1,0-2.2,0.1-3.2c0.2-7.2,0.4-12.9-9.1-19.2
			c-12.1-8.1-37.4-24.9-45.6-29c-6.2-3.1-24.9-7.5-33-9.3c0,2.6,0,4.8,0,6.5c0,3.8,2.2,6.6,4.5,9.6c2.9,3.8,6.6,8.5,3.5,14.7
			c-2.9,5.7-8.8,10.1-15,11.1c-1,0.2-1.9,0.2-2.9,0.2c-5.1,0-10.1-2.2-14.3-6.4c-0.1-0.1-0.3-0.3-0.4-0.4
			C211.2,47.4,207.3,56.5,203.4,65.6z" id="_x631__x632__x646_" title="رزن"></path>
		<path class="st1 area" d="M412.6,163.8c-0.7-1.4-2-2.3-4-3c-7.5-2.5-16.4-6.2-19.9-12.4c-5.3,3.2-12,4.8-17.7,7.1
			c-9.8,3.3-19.6-4.1-30.3-3.3c-13.1,0.8-16.3,14.7-25.3,21.3c-9,5.7-12.3-7.4-19.6-12.3c-4.1-2.5-8.2-1.6-12.3-3.3
			c-0.4-0.2-0.9-0.5-1.2-0.7c0.2,3.6,0.8,7.2,0.4,10.5c-0.8,8.2-9.8,8.2-12.3,14.7c-3.3,9.8,9.8,13.1,17.2,18c3.2,2.5,3.2,5.7,3.2,9
			c0.8,4.1,5.7,6.5,9,7.4c8.2,2.5,17.2-3.3,24.5,0c6.5,3.3,14.7,9.8,15.5,17.2c0.5,6.3,2.7,10.9,6,14.5c5.2-6,11.8-10.3,19.9-10.3
			c20.3,0,32.3-5.1,32.3-13.6c0-7.8,4.1-20.2,7.4-30.2c1.4-4.2,2.5-7.8,3.2-10.2c0.4-1.7,1.1-3.6,1.8-5.6
			C412.2,173.5,414.3,167.3,412.6,163.8z" id="_x641__x627__x645__x646__x6CC__x646_" title="فامنین"></path>
		<path class="st2 area" d="M174.8,168.6c1.6-0.8,4.1-0.8,5.7,0c4.1,4.9,4.1,18,11.4,14.7c8.2-4.1,15.5-13.1,24.5-9.8
			c12.3,4.1,13.9,19.6,4.1,30.3c-4.1,4.1,4.9,8.2,9.8,5.7c5.7-4.1,7.4-11.4,12.3-12.3c11-2.4,22.3-1.7,32.4-3.9
			c-3.8-2.7-6.3-5.9-4.6-10.9c2.5-6.5,11.4-6.5,12.3-14.7c0.4-3.4-0.2-7-0.4-10.5c-5.2-3.6-4.7-10.3-6.9-16.4
			c-8.2-18.8-29.4-9-45.8-11.4c-4.9,0-10.6-4.1-9.8-8.2c4.1-21.3-14.7-27-23.7-41.7c-1.6-2.5-1.6-6.5,0-9.8c2.5-2.5,6.5-2.5,7.4-4.1
			c3.9-9.1,7.8-18.2,15.8-22.7c-5.6-5.2-11.8-3.3-19.1-1.1c-3.8,1.2-7.8,2.4-11.6,2.4c-5.7,0-10.2-3.4-14.9-7
			c-5.4-4.1-11.4-8.7-20.9-9.7c-19.2-2.1-34-10.5-34.6-10.8l-0.6-0.3l-0.4-0.6c-0.2-0.3-2.2-3.1-4.8-6.9c-5.6,5-22.9,20.4-28.6,26.1
			c-8.5,8.5-40.8,12-52.3,12c-1,0-1.7,0.2-1.9,0.4c-1.4,2.1,2.2,10.6,4.4,15.8c2.5,5.8,4.8,11.4,4.8,15.4c0,5.7,9.4,14.9,15.7,21.1
			c3,2.9,5.6,5.5,7.3,7.6c2.1,2.6,5.1,5.3,8.1,8c4.9,4.3,9.9,8.8,11.8,13.7c1.8,4.6,14.2,18,21.6,25.4l0.9,0.9v18.5
			c11.9,1.2,24.2,0.7,34.8,4.8C153.6,184.1,164.2,179.2,174.8,168.6z" id="_x6A9__x628__x648__x62F__x631__x622__x647__x646__x6AF_" title=""></path>
		<path class="st3 area excluded" d="M223,200.7c0.1-0.1,0.2-0.3,0.3-0.4c-0.1,0.1-0.2,0.1-0.2,0.2C223.1,200.5,223,200.6,223,200.7z" id="PATH_6" title=""></path>
		<path class="st1 area" d="M87.4,318.2c12.3-3.3,18.8-10.6,25.3-20.4c1.6-1.6,5.7-0.8,5.7-2.5c0.8-4.9,2.5-9,5.7-12.3
			c1.6-2.5-0.8-5.7-1.6-8.2c-4.9-7.4-13.9-11.4-17.2-18.8c-4.9-10.6-5.7-22.1-9.8-32.7c-1.3-2.7-1-6.5,0-9.6c-0.1,0-0.2,0-0.2,0
			c-0.8,0-1.6,0.1-2.7,0.1c-4.8,0.3-12.9,0.8-31.1-1.5c-18.4-2.3-29.6,11.1-31.5,13.6c1.5,1.3,2.6,2.7,2.9,4.7
			c0.6,3.6-1.5,7.3-7,12.8c-9.7,9.7-13.2,25.1-9.8,31.8c1.9,3.7,2.6,9.8,3.3,16.2c0.9,7.7,2.1,18.2,5.7,20
			c8.5,4.2,14.6,6.1,26.2,8.1c11,1.8,21.9,6.7,25,8.2C79.9,324.1,83.1,319.7,87.4,318.2z" id="_x627__x633__x62F__x622__x628__x627__x62F_" title="اسدآباد"></path>
		<path class="st4 area" d="M146.2,277.3C146.2,277.3,146.2,277.3,146.2,277.3c-1.6-18,17.2-30.3,31.1-36.8c4.1-1.6,4.9-6.5,6.5-11.4
			c0.8-2.5,3.3-4.9,5.7-4.9c13.6,0.7,26.1-4.3,31.3-16c-1.4-1.2-1.9-2.8-0.3-4.5c0.9-1,1.7-2,2.4-3c0-0.1,0-0.1,0-0.2
			c0.1-0.1,0.1-0.1,0.2-0.2c6.7-10.3,4.2-23.1-6.8-26.8c-9-3.3-16.4,5.7-24.5,9.8c-7.4,3.3-7.4-9.8-11.4-14.7
			c-1.6-0.8-4.1-0.8-5.7,0c-10.6,10.6-21.3,15.5-36,9.8c-10.6-4.1-23-3.6-34.8-4.8v16.2c0,8.9-1.1,23.7-8.5,24
			c-1.1,3.1-1.4,6.9,0,9.6c4.1,10.6,4.9,22.1,9.8,32.7c3.3,7.4,12.3,11.4,17.2,18.8c0.7,2,2.3,4.4,2.2,6.6
			C131.6,282.7,139.1,279.8,146.2,277.3z" id="_x628__x647__x627__x631_" title="بهار"></path>
		<path class="st2 area" d="M93.9,381.1c8.2,5.7,16.3,3.3,23.7,11.4c2.5,1.6,5.7,1.6,8.2,0.8c6.5-4.9,15.5-7.4,20.4-4.1
			c4.9,4.1,3.3,19.6,12.3,13.1c7.4-4.9,14.7-5.7,22.9-8.2c4.9-0.8,4.9-7.4,8.2-11.4c1.6-2.5,6.5,0,7.4-3.3c0.8-4.9,2.5-10.6,0-15.5
			c-0.8-2.5-4.1-5.7-1.6-7.4c7.2-7.2,8.6-15.1,7.4-23.3c-0.9-0.6-1.8-1.3-2.5-2.1c-15.5-18-29.4-36.8-49.9-49.1
			c-1.6-1.6-3.3-3.3-4.1-4.9c-7.1,2.5-14.7,5.3-21.5,4.1c0,0.6-0.2,1.1-0.5,1.6c-3.3,3.3-4.9,7.4-5.7,12.3c0,1.6-4.1,0.8-5.7,2.5
			c-6.5,9.8-13.1,17.2-25.3,20.4c-4.3,1.6-7.5,5.9-11,9.5c0.5,0.2,0.8,0.4,0.9,0.4l1.5,0.8l0.2,1.7c0.1,0.9,2.1,21.1,2.1,27.4
			c0,1.8-0.9,4-2.2,6.4C81.9,371.3,86.9,376.7,93.9,381.1z" id="_x62A__x648__x6CC__x633__x631__x6A9__x627__x646_" title="تویسرکان"></path>
		<path class="st4 area" d="M327.9,474.8c-8.6-10.7-20.9-45.3-21.4-46.8l-10.5-35.6c-0.3-1-4.4-20.6,4.7-32c3-3.8,4.5-8.2,6-12.5
			c0.6-1.8,1.2-3.6,2-5.3c-5.9-3.1-11.3-6.9-14.6-12.9c-2.5-4.9,7.4-9,3.3-10.6c-10.6-4.9-24.5-3.3-36.8,0.8
			c-9.8,2.5-17.2-4.9-25.3-7.4c-12.3-4.9-10.6,9.8-14.7,17.2c-3.5,6.3-12.4,7.2-18,3.7c1.2,8.1-0.1,16-7.4,23.3
			c-2.5,1.6,0.8,4.9,1.6,7.4c2.5,4.9,0.8,10.6,0,15.5c-0.8,3.3-5.7,0.8-7.4,3.3c-3.3,4.1-3.3,10.6-8.2,11.4
			c-8.2,2.5-15.5,3.3-22.9,8.2c-3.5,2.6-5.4,1.7-6.7-0.5c-2.3,7.6-2.1,14.7,3.4,18.5c11.4,6.5,22.1,13.1,26.2,27.8
			c0,2.5,4.1,4.1,4.1,6.5c-0.6,7.8,0.3,14.6,5.2,19.5c4.5-2,9.7-2.4,14.5-2.4c2.8,0,6-0.3,9.5-0.6c10-1,20.4-1.9,24.4,4.1
			c2,3,5.7,7.7,9.3,12.3c3.6,4.6,7.4,9.5,9.5,12.7c3.2,4.8,18.4,8.8,23.5,7.1c2.2-0.7,5.3-2,8.9-3.3c6.7-2.5,14.9-5.8,20.5-7.2
			c5.5-1.4,15.7-9,18-15.7C329.7,478.7,329.4,476.6,327.9,474.8z" id="_x645__x644__x627__x6CC__x631_" title="ملایر"></path>
		<path class="st0 area" d="M185.5,454.7c0-2.5-4.1-4.1-4.1-6.5c-4.1-14.7-14.7-21.3-26.2-27.8c-5.5-3.8-5.7-10.9-3.4-18.5
			c-2-3.4-2.6-10.1-5.5-12.6c-4.9-3.3-13.9-0.8-20.4,4.1c-2.5,0.8-5.7,0.8-8.2-0.8c-7.4-8.2-15.5-5.7-23.7-11.4
			c-7-4.4-12-9.9-15-16.7c-4,7.1-12.3,15.7-15.4,18.8l-16.6,18.6c-0.5,0.5-8.7,9-3.8,17.2c5.8,9.7,9,13.1,22.3,13.1
			c16.2,0,25.6,5,28.1,14.9c1.9,7.7,6,23.9,17.5,31.5c11.5,7.6,36,17.3,38.8,18.3c5.6,1.1,20.6,2.7,26.8-1.7
			c1.5-1.1,2.3-2.4,2.6-4.1c1.4-9.5,5.9-14.4,11.5-16.9C185.7,469.3,184.8,462.5,185.5,454.7z" id="_x646__x647__x627__x648__x646__x62F_" title="نهاوند"></path>
		<path class="st0 area" d="M319.9,334.1c9.1,0,11.5-10.2,11.5-15.6c0-8.1-2.1-35-2.1-35.2l0-0.5l0.1-0.5c0.3-1.2,5.4-21.1,16.6-33.8
			c-3.2-3.6-5.5-8.2-6-14.5c-0.8-7.4-9-13.9-15.5-17.2c-7.4-3.3-16.4,2.5-24.5,0c-3.3-0.8-8.2-3.3-9-7.4c0-3.3,0-6.5-3.3-9
			c-3.7-2.4-8.8-4.5-12.5-7.1c-10.1,2.1-21.4,1.5-32.4,3.9c-4.9,0.8-6.5,8.2-12.3,12.3c-2.9,1.5-7.4,0.6-9.5-1.3
			c-5.2,11.6-17.7,16.6-31.3,16c-2.5,0-4.9,2.5-5.7,4.9c-1.6,4.9-2.5,9.8-6.5,11.4c-13.9,6.5-32.7,18.8-31.1,36.8
			c0.8,1.6,2.5,3.3,4.1,4.9c20.4,12.3,34.3,31.1,49.9,49.1c4.9,5.7,16.4,5.7,20.4-1.6c4.1-7.4,2.5-22.1,14.7-17.2
			c8.2,2.5,15.5,9.8,25.3,7.4c12.3-4.1,26.2-5.7,36.8-0.8c4.1,1.6-5.7,5.7-3.3,10.6c3.3,6,8.7,9.8,14.6,12.9
			C310.8,337.8,313.7,334.1,319.9,334.1z" id="_x647__x645__x62F__x627__x646_" title="همدان"></path>

<g id="G_13" class="area" title="">
	<path d="M276.8,92.9c0.1,0.3,0.1,0.6,0.1,0.9c0,0.4-0.1,0.7-0.2,1.1c-0.3,0.7-0.8,1.3-1.8,1.7c-0.8,0.3-1.6,0.5-2.5,0.5
		c-0.9,0-1.6-0.2-2.2-0.6c-0.6-0.5-0.9-1.1-0.9-2c0-0.5,0.1-0.9,0.3-1.5c0.2-0.4,0.3-0.7,0.5-0.9c0.1-0.1,0.2-0.1,0.2-0.1
		c0.1,0,0.1,0,0.1,0.1c0,0,0,0.1,0,0.2c-0.3,0.6-0.4,1.2-0.4,1.7c0,0.5,0.2,0.9,0.5,1.3c0.4,0.5,1.1,0.7,2,0.7c1,0,1.9-0.2,2.6-0.5
		c0.6-0.3,1-0.6,1.2-1c0.1-0.1,0.1-0.3,0.1-0.4c0-0.3-0.1-0.6-0.2-1c-0.1-0.3-0.4-0.8-0.9-1.6l0.4-0.8c0.1-0.1,0.1-0.2,0.1-0.2
		s0.1,0,0.1,0.1C276.4,91.3,276.7,92.1,276.8,92.9z M273.8,88.5l-0.8,0.8l-0.8-0.8l0.8-0.8L273.8,88.5z" id="PATH_14" class="area" title=""></path>
	<path d="M281.9,93.1c0,1-0.3,1.9-0.9,2.8c-0.5,0.7-1,1.1-1.3,1.1c-0.8,0-1.4,0-2-0.1c-0.2,0-0.3-0.1-0.3-0.1s0.1-0.1,0.3-0.1
		c0.8-0.2,1.6-0.6,2.4-1.2c0.8-0.7,1.3-1.4,1.3-2.1c0-0.4-0.3-1-1-1.7l0.5-0.9c0-0.1,0.1-0.1,0.1-0.1c0,0,0.1,0.1,0.1,0.1
		c0.2,0.3,0.5,0.7,0.6,1.2C281.8,92.3,281.9,92.7,281.9,93.1z M281.2,87.7l-0.8,0.8l-0.8-0.8l0.8-0.8L281.2,87.7z" id="PATH_15" class="area" title=""></path>
	<path d="M287,93.1c0,1-0.3,1.9-0.9,2.8c-0.5,0.7-1,1.1-1.3,1.1c-0.8,0-1.4,0-2-0.1c-0.2,0-0.3-0.1-0.3-0.1s0.1-0.1,0.3-0.1
		c0.8-0.2,1.6-0.6,2.4-1.2c0.8-0.7,1.3-1.4,1.3-2.1c0-0.4-0.3-1-1-1.7l0.5-0.9c0-0.1,0.1-0.1,0.1-0.1c0,0,0.1,0.1,0.1,0.1
		c0.2,0.3,0.5,0.7,0.6,1.2C286.9,92.3,287,92.7,287,93.1z" id="PATH_16" class="area" title=""></path>
</g>
<g id="G_17" class="area" title="">
	<path d="M123.5,125.5h-0.6c-0.5,0-1.1-0.2-1.6-0.7c-0.4-0.3-0.8-0.9-1.3-1.6c0,0.9-0.3,1.5-1,1.9c-0.5,0.3-1.3,0.4-2.3,0.4h-2.1
		c-2.4,0-3.7-0.7-3.7-2.1c0-0.5,0.2-1,0.5-1.5c0.1-0.1,0.2-0.2,0.2-0.2c0.1,0,0.1,0,0.1,0.1c0,0.1,0,0.1,0,0.2
		c-0.1,0.4-0.2,0.6-0.2,0.9c0,0.4,0.2,0.7,0.5,0.9c0.5,0.4,1.3,0.6,2.4,0.6h2c2,0,3.1-0.4,3.1-1.2c0-0.6-0.4-1.3-1.3-2.1
		c-0.4-0.4-0.8-0.7-1.3-1.1c0-0.4,0.1-0.7,0.3-1c0.1-0.1,1.9-0.7,5.5-1.8c0,0.1-0.1,0.5-0.3,1.1c-0.9,0.2-2.4,0.7-4.4,1.3
		c1.1,1.1,2,2.1,2.7,3c0.5,0.5,0.8,0.9,1.1,1.1c0.4,0.3,0.9,0.5,1.4,0.5h0.4V125.5z M122.4,115.9l-0.2,0.8l-4.9,1.6l0.2-0.7
		L122.4,115.9z" id="PATH_18" class="area" title=""></path>
	<path d="M128.4,125.5h-0.8c-0.9,0-1.5-0.3-1.9-0.9c-0.3,0.6-1,0.9-2.1,0.9H123v-1.2h0.9c1,0,1.5-0.4,1.6-1.1c0-0.3,0.1-0.5,0.2-0.5
		c0.1,0,0.2,0.2,0.2,0.5c0.1,0.7,0.6,1.1,1.5,1.1h0.9V125.5z M126.4,120.3l-0.8,0.8l-0.8-0.8l0.8-0.8L126.4,120.3z" id="PATH_19" class="area" title=""></path>
	<path d="M134.5,123.5c0,0.4-0.1,0.8-0.4,1.2c-0.3,0.5-0.6,0.7-1,0.7c-0.3,0-1-0.2-2.1-0.7c-0.9,0.6-1.7,0.8-2.4,0.8H128v-1.2h0.6
		c0.4,0,0.8,0,1.2-0.1c-0.4-0.3-0.6-0.7-0.6-1.2c0-0.6,0.4-1.3,1.3-2l-0.7-0.3c0.2-0.2,0.5-0.5,0.9-0.9c0.9,0.5,1.7,0.9,2.4,1.5
		C134,122.1,134.5,122.8,134.5,123.5z M131.9,122.7c0-0.3-0.1-0.5-0.2-0.7c-0.1-0.3-0.3-0.4-0.6-0.4c-0.3,0-0.5,0.1-0.8,0.3
		c-0.3,0.2-0.5,0.5-0.5,0.7c0,0.4,0.4,0.8,1.1,1c0.2-0.1,0.4-0.2,0.6-0.3C131.7,123.1,131.9,122.9,131.9,122.7z M134,123.9
		c0-0.3-0.2-0.6-0.6-1c-0.3-0.3-0.6-0.6-0.9-0.7c0,0.8-0.2,1.4-0.7,1.8c0.8,0.3,1.4,0.4,1.6,0.4C133.8,124.3,134,124.2,134,123.9z" id="PATH_20" class="area" title=""></path>
	<path d="M138.5,114.8c-0.4,0.4-1,0.5-1.6,0.5c-0.1,0-0.2,0-0.4,0s-0.3,0-0.4,0c-0.1,0-0.2,0.1-0.3,0.2c-0.1,0.1-0.2,0.2-0.2,0.2
		c-0.1,0-0.1-0.1-0.1-0.2c0-0.1,0.1-0.3,0.2-0.5c0.1-0.3,0.2-0.4,0.3-0.4c0.1,0,0.3,0,0.6,0.1c0.3,0,0.5,0.1,0.6,0.1
		c0.6,0,1,0,1.3-0.1c0.2,0,0.3-0.1,0.3-0.1c0,0,0.1,0,0.1,0C138.7,114.6,138.6,114.7,138.5,114.8z M137.9,124.3
		c0,0.4-0.1,0.8-0.3,1.1c-0.1,0.2-0.2,0.3-0.2,0.3c0,0-0.1-0.1-0.1-0.4c0-1.2-0.2-4-0.6-8.5l0.8-0.8c0.1-0.1,0.1-0.1,0.1-0.1
		c0,0,0,0.1,0,0.2C137.8,117.4,137.9,120.1,137.9,124.3z" id="PATH_21" class="area" title=""></path>
	<path d="M143.5,125.6c0,1-0.3,1.9-0.9,2.8c-0.5,0.7-1,1.1-1.3,1.1c-0.8,0-1.4,0-2-0.1c-0.2,0-0.3-0.1-0.3-0.1s0.1-0.1,0.3-0.1
		c0.8-0.2,1.6-0.6,2.4-1.2c0.8-0.7,1.3-1.4,1.3-2.1c0-0.4-0.3-1-1-1.7l0.5-0.9c0-0.1,0.1-0.1,0.1-0.1c0,0,0.1,0.1,0.1,0.1
		c0.2,0.3,0.5,0.7,0.6,1.2C143.4,124.8,143.5,125.2,143.5,125.6z" id="PATH_22" class="area" title=""></path>
	<path d="M149.6,123.4c0,1.4-0.9,2.1-2.8,2.1c-0.7,0-1.2-0.1-1.5-0.3c-0.4-0.2-0.6-0.7-0.6-1.3c0-0.3,0.1-0.6,0.2-0.9
		c0.1-0.1,0.1-0.2,0.2-0.2c0.1,0,0.1,0.1,0.1,0.3c0,0.1,0,0.2,0,0.3c0,0.4,0.2,0.7,0.6,0.8c0.2,0.1,0.6,0.1,1.1,0.1
		c1.5,0,2.2-0.2,2.2-0.7c0-0.7-0.9-1.7-2.6-2.9l0.3-1c0-0.1,0.1-0.1,0.1-0.1c0,0,0.1,0,0.2,0.1C148.8,121,149.6,122.3,149.6,123.4z" id="PATH_23" class="area" title=""></path>
	<path d="M155.8,125.5h-1.1c-0.1,1.4-0.6,2.5-1.6,3.5c-0.3,0.3-0.5,0.5-0.6,0.5c-0.5,0-1.2-0.1-1.9-0.2c-0.2,0-0.4-0.1-0.4-0.1
		s0.1-0.1,0.4-0.2c0.8-0.2,1.6-0.7,2.3-1.2c0.3-0.3,0.6-0.5,0.8-0.9c0.3-0.4,0.5-0.8,0.5-1.1v-0.3h-1.3c-1,0-1.4-0.4-1.4-1.2
		c0-0.5,0.1-1,0.4-1.6c0.3-0.6,0.7-1,1.1-1c0.5,0,0.9,0.3,1.2,1c0.2,0.5,0.4,1,0.4,1.6h1.1V125.5z M154,124.3c0-0.3-0.1-0.6-0.3-0.9
		c-0.2-0.4-0.5-0.5-0.8-0.5c-0.2,0-0.4,0.1-0.5,0.2c-0.2,0.2-0.2,0.3-0.2,0.6c0,0.5,0.4,0.7,1.2,0.7
		C153.5,124.4,153.7,124.3,154,124.3z" id="PATH_24" class="area" title=""></path>
	<path d="M160.7,125.5H160c-0.9,0-1.5-0.3-1.9-0.9c-0.3,0.6-1,0.9-2.1,0.9h-0.6v-1.2h0.9c1,0,1.5-0.4,1.6-1.1c0-0.3,0.1-0.5,0.2-0.5
		c0.1,0,0.2,0.2,0.2,0.5c0.1,0.7,0.6,1.1,1.5,1.1h0.9V125.5z M158.6,127.7l-0.8,0.8l-0.8-0.8l0.8-0.8L158.6,127.7z" id="PATH_25" class="area" title=""></path>
	<path d="M166.9,116.2c0,0.2-0.2,0.6-0.4,1.1l-2.5,0.8c-1.1,0.4-1.9,0.7-2.3,0.9c0.8,0.8,1.3,1.4,1.6,1.7c0.5,0.7,0.8,1.3,0.9,2
		c0,0.5,0,1-0.2,1.4c-0.3,0.9-1.4,1.3-3.1,1.3h-0.5v-1.2h0.6c0.8,0,1.4,0,1.7-0.1c0.7-0.2,1.1-0.5,1.1-1c0-0.7-0.5-1.5-1.6-2.5
		l-0.1,0.2c-0.1-0.1-0.3-0.3-0.5-0.6c-0.3-0.3-0.4-0.6-0.4-0.6c0-0.2,0-0.4,0.1-0.8c0.1-0.4,0.2-0.6,0.3-0.7
		c0.1-0.1,0.8-0.4,2.1-0.8C164.8,116.9,166,116.5,166.9,116.2z" id="PATH_26" class="area" title=""></path>
</g>
<g id="G_27" class="area" title="">
	<path d="M346.4,193.3h-0.5c-0.5,0-0.8,0-1-0.1c0,0.3,0.1,0.5,0.1,0.8c0,0.5-0.1,0.8-0.2,1.1c-0.3,0.7-0.8,1.3-1.8,1.7
		c-0.8,0.3-1.6,0.5-2.5,0.5c-0.9,0-1.6-0.2-2.2-0.6c-0.6-0.5-0.9-1.1-0.9-2c0-0.5,0.1-0.9,0.3-1.5c0.2-0.4,0.3-0.7,0.5-0.9
		c0.1-0.1,0.2-0.1,0.2-0.1c0.1,0,0.1,0,0.1,0.1c0,0,0,0.1,0,0.2c-0.3,0.6-0.4,1.2-0.4,1.7c0,0.5,0.2,0.9,0.5,1.3
		c0.4,0.5,1.1,0.7,2,0.7c1,0,1.9-0.2,2.6-0.5c0.6-0.3,1-0.6,1.2-1c0.1-0.1,0.1-0.3,0-0.7c0-0.3-0.1-0.6-0.1-0.7
		c-0.1-0.3-0.5-0.8-1-1.5l0.4-0.8c0.1-0.1,0.1-0.2,0.1-0.2s0.1,0,0.1,0.1c0.5,0.8,1,1.2,1.6,1.2h0.8V193.3z M342,188.9l-0.8,0.8
		l-0.8-0.8l0.8-0.8L342,188.9z" id="PATH_28" class="area" title=""></path>
	<path d="M351.3,193.3h-0.8c-0.9,0-1.5-0.3-1.9-0.9c-0.3,0.6-1,0.9-2.1,0.9H346v-1.2h0.9c1,0,1.5-0.4,1.6-1.1c0-0.3,0.1-0.5,0.2-0.5
		s0.2,0.2,0.2,0.5c0.1,0.7,0.6,1.1,1.5,1.1h0.9V193.3z M348,195.5l-0.8,0.8l-0.8-0.8l0.8-0.8L348,195.5z M349.7,195.5l-0.8,0.8
		l-0.8-0.8l0.8-0.8L349.7,195.5z" id="PATH_29" class="area" title=""></path>
	<path d="M356.2,193.3h-0.8c-0.9,0-1.5-0.3-1.9-0.9c-0.3,0.6-1,0.9-2.1,0.9h-0.6v-1.2h0.9c1,0,1.5-0.4,1.6-1.1
		c0-0.3,0.1-0.5,0.2-0.5s0.2,0.2,0.2,0.5c0.1,0.7,0.6,1.1,1.5,1.1h0.9V193.3z M354.2,188.2l-0.8,0.8l-0.8-0.8l0.8-0.8L354.2,188.2z" id="PATH_30" class="area" title=""></path>
	<path d="M361.2,191.3c0,0.5,0,0.9-0.2,1.3c-0.2,0.5-0.5,0.8-0.8,0.8c-0.5,0-1.3-0.3-2.3-1c-0.3,0.4-0.5,0.6-0.6,0.7
		c-0.3,0.2-0.6,0.3-1,0.3h-0.5v-1.2h0.7c0.4,0,0.8-0.2,1.2-0.7c0.2-0.2,0.5-0.7,0.9-1.3c0.3-0.5,0.7-0.7,1-0.7
		c0.5,0,0.9,0.2,1.2,0.7C361,190.6,361.1,191,361.2,191.3z M360.6,192.1c0-0.3-0.1-0.6-0.3-1c-0.2-0.4-0.5-0.6-0.8-0.6
		c-0.3,0-0.6,0.3-1,0.9c0.2,0.2,0.5,0.4,0.9,0.6c0.4,0.2,0.8,0.3,1,0.3C360.5,192.3,360.6,192.3,360.6,192.1z" id="PATH_31" class="area" title=""></path>
	<path d="M365.1,193.3h-0.7c-0.7,0-1.3-0.3-1.5-0.9c-0.2-0.4-0.3-1.1-0.3-1.9v-1.9c0-0.9-0.1-2.2-0.2-3.9l0.6-0.7
		c0.1-0.1,0.2-0.1,0.2,0c0.1,0.9,0.2,2.2,0.2,3.9v2.9c0,0.8,0.4,1.2,1.2,1.2h0.5V193.3z" id="PATH_32" class="area" title=""></path>
	<path d="M369,190.5v0.4c0,0.7-0.1,1.1-0.3,1.4c-0.5,0.7-1.3,1-2.6,1h-1.4v-1.2h1c1.7,0,2.6-0.3,2.8-0.8c0-0.1,0-0.1,0-0.2
		c0-0.2,0-0.3-0.1-0.4c-0.4,0.1-0.9,0.1-1.3,0.1c-0.9,0-1.4-0.4-1.4-1.2c0-0.5,0.1-1.1,0.4-1.6c0.3-0.6,0.7-0.9,1.2-0.9
		c0.4,0,0.8,0.3,1.1,0.8C368.8,188.7,369,189.5,369,190.5z M367.9,185l-0.8,0.8l-0.8-0.8l0.8-0.8L367.9,185z M368.3,189.6
		c0-0.3-0.1-0.6-0.3-0.9c-0.2-0.3-0.5-0.4-0.8-0.4c-0.2,0-0.4,0.1-0.6,0.2s-0.2,0.3-0.2,0.5c0,0.4,0.3,0.6,1,0.6
		C367.6,189.8,367.9,189.7,368.3,189.6z" id="PATH_33" class="area" title=""></path>
</g>
<g id="G_34" class="area" title="">
	<path d="M141.1,216.6c0,1-0.3,1.9-0.9,2.8c-0.5,0.7-1,1.1-1.3,1.1c-0.8,0-1.4,0-2-0.1c-0.2,0-0.3-0.1-0.3-0.1s0.1-0.1,0.3-0.1
		c0.8-0.2,1.6-0.6,2.4-1.2c0.8-0.7,1.3-1.4,1.3-2.1c0-0.4-0.3-1-1-1.7l0.5-0.9c0-0.1,0.1-0.1,0.1-0.1c0,0,0.1,0.1,0.1,0.1
		c0.2,0.3,0.5,0.7,0.6,1.2C141,215.8,141.1,216.2,141.1,216.6z" id="PATH_35" class="area" title=""></path>
	<path d="M145.1,216.5h-0.7c-0.7,0-1.3-0.3-1.5-0.9c-0.2-0.4-0.3-1.1-0.3-1.9v-1.9c0-0.9-0.1-2.2-0.2-3.9l0.6-0.7
		c0.1-0.1,0.2-0.1,0.2,0c0.1,0.9,0.2,2.2,0.2,3.9v2.9c0,0.8,0.4,1.2,1.2,1.2h0.5V216.5z" id="PATH_36" class="area" title=""></path>
	<path d="M151.3,216.5h-0.5c-0.4,0-0.8,0.1-1.1,0.2c-0.5,0.2-0.8,0.5-0.8,1c0,0.6,0.4,1.1,1.2,1.6l-0.5,1c-0.9-0.3-1.7-0.8-2.3-1.4
		c-0.8-0.7-1.2-1.6-1.2-2.5h-1.4v-1.2h1.3c0-0.8,0.2-1.6,0.6-2.6c0.4-0.9,0.7-1.3,0.9-1.3c0.2,0,0.5,0.4,0.8,1.3
		c0.3,0.8,0.4,1.3,0.4,1.6c0,1.4-0.7,2.1-2.1,2.1c0.1,0.4,0.3,0.8,0.6,1.2c0.3,0.4,0.7,0.7,1.1,0.9c0-0.1,0-0.3,0-0.4
		c0-0.7,0.2-1.3,0.5-1.8c0.5-0.7,1.1-1.1,2-1.1h0.4V216.5z M148.3,214.9c0-0.2-0.1-0.6-0.3-1.1c-0.2-0.6-0.4-0.8-0.6-0.8
		c-0.1,0-0.3,0.2-0.5,0.7c-0.2,0.5-0.3,1.1-0.3,1.7C147.7,215.3,148.3,215.2,148.3,214.9z" id="PATH_37" class="area" title=""></path>
	<path d="M153.7,214.5c0,1.3-0.7,2-2,2h-0.8v-1.2h0.7c1,0,1.5-0.2,1.5-0.5c0-0.3-0.2-0.7-0.7-1.2l0.4-1c0-0.1,0.1-0.1,0.1-0.1
		c0,0,0.1,0.1,0.2,0.2C153.5,213.2,153.7,213.9,153.7,214.5z M153.4,218.7l-0.8,0.8l-0.8-0.8l0.8-0.8L153.4,218.7z" id="PATH_38" class="area" title=""></path>
</g>
<g id="G_39" class="area" title="">
	<path d="M234.9,266.8c0.1,0.3,0.1,0.6,0.1,0.9c0,0.4-0.1,0.7-0.2,1.1c-0.3,0.7-0.8,1.3-1.8,1.7c-0.8,0.3-1.6,0.5-2.5,0.5
		c-0.9,0-1.6-0.2-2.2-0.6c-0.6-0.5-0.9-1.1-0.9-2c0-0.5,0.1-0.9,0.3-1.5c0.2-0.4,0.3-0.7,0.5-0.9c0.1-0.1,0.2-0.1,0.2-0.1
		c0.1,0,0.1,0,0.1,0.1c0,0,0,0.1,0,0.2c-0.3,0.6-0.4,1.2-0.4,1.7c0,0.5,0.2,0.9,0.5,1.3c0.4,0.5,1.1,0.7,2,0.7c1,0,1.9-0.2,2.6-0.5
		c0.6-0.3,1-0.6,1.2-1c0.1-0.1,0.1-0.3,0.1-0.4c0-0.3-0.1-0.6-0.2-1c-0.1-0.3-0.4-0.8-0.9-1.6l0.4-0.8c0.1-0.1,0.1-0.2,0.1-0.2
		s0.1,0,0.1,0.1C234.5,265.2,234.8,266,234.9,266.8z M232,262.4l-0.8,0.8l-0.8-0.8l0.8-0.8L232,262.4z" id="PATH_40" class="area" title=""></path>
	<path d="M237.4,265.7c0,0.4-0.1,0.8-0.3,1.1c-0.1,0.2-0.2,0.3-0.2,0.3c0,0-0.1-0.1-0.1-0.4c0-1.2-0.2-4-0.6-8.5l0.8-0.8
		c0.1-0.1,0.1-0.1,0.1-0.1c0,0,0,0.1,0,0.2C237.3,258.9,237.4,261.6,237.4,265.7z" id="PATH_41" class="area" title=""></path>
	<path d="M245.2,266.9h-0.4c-0.4,0-0.7-0.1-1-0.4c-0.2-0.2-0.4-0.4-0.6-0.8c-0.2,0.4-0.5,0.7-0.8,0.9c-0.4,0.2-0.9,0.3-1.7,0.3
		c-1.4,0-2.1-0.5-2.1-1.5c0-0.3,0.1-0.7,0.3-1c0.1-0.1,0.1-0.2,0.2-0.2c0.1,0,0.1,0.1,0.1,0.2c0,0.1,0,0.1,0,0.3s0,0.2,0,0.3
		c0,0.6,0.5,0.9,1.5,0.9c1.4,0,2.1-0.3,2.1-0.8c0-0.3-0.4-1.4-1.2-3.3l0.4-0.8c0.1-0.1,0.1-0.2,0.1-0.2c0,0,0.1,0.1,0.1,0.2
		c0.3,0.8,0.8,2,1.4,3.6c0.3,0.8,0.7,1.2,1.3,1.2h0.3V266.9z" id="PATH_42" class="area" title=""></path>
	<path d="M252.3,266.9h-0.6c-0.5,0-1-0.3-1.4-0.8c-0.3,0.8-0.6,1.2-0.9,1.2c-0.3,0-0.8-0.2-1.4-0.5c-0.5-0.3-0.9-0.6-1.1-0.8
		c-0.5,0.6-1,0.9-1.5,0.9h-0.6v-1.2h0.6c0.5,0,0.9-0.2,1.3-0.6c0.3-0.3,0.6-0.7,1-1.1c0.4-0.4,0.7-0.6,1-0.6c0.4,0,0.7,0.2,1,0.6
		c0.2,0.2,0.4,0.6,0.9,1.1c0.3,0.4,0.7,0.6,1.1,0.6h0.6V266.9z M249.6,266.1c0-0.3-0.1-0.6-0.3-1c-0.2-0.4-0.5-0.6-0.9-0.6
		c-0.3,0-0.7,0.3-1.1,0.8c0.1,0.1,0.4,0.3,0.9,0.6c0.5,0.3,0.9,0.4,1.2,0.4C249.6,266.3,249.6,266.2,249.6,266.1z" id="PATH_43" class="area" title=""></path>
	<path d="M258.4,264.9c0,0.4-0.1,0.8-0.4,1.2c-0.3,0.5-0.6,0.7-1,0.7c-0.3,0-1-0.2-2.1-0.7c-0.9,0.6-1.7,0.8-2.4,0.8h-0.5v-1.2h0.6
		c0.4,0,0.8,0,1.2-0.1c-0.4-0.3-0.6-0.7-0.6-1.2c0-0.6,0.4-1.3,1.3-2l-0.7-0.3c0.2-0.2,0.5-0.5,0.9-0.9c0.9,0.5,1.7,0.9,2.4,1.5
		C258,263.5,258.4,264.2,258.4,264.9z M255.8,264.1c0-0.3-0.1-0.5-0.2-0.7c-0.1-0.3-0.3-0.4-0.6-0.4c-0.3,0-0.5,0.1-0.8,0.3
		c-0.3,0.2-0.5,0.5-0.5,0.7c0,0.4,0.4,0.8,1.1,1c0.2-0.1,0.4-0.2,0.6-0.3C255.7,264.5,255.8,264.3,255.8,264.1z M257.9,265.3
		c0-0.3-0.2-0.6-0.6-1c-0.3-0.3-0.6-0.6-0.9-0.7c0,0.8-0.2,1.4-0.7,1.8c0.8,0.3,1.4,0.4,1.6,0.4
		C257.7,265.8,257.9,265.6,257.9,265.3z" id="PATH_44" class="area" title=""></path>
</g>
<g id="G_45" class="area" title="">
	<path d="M57.1,275.2c0,1.4-0.9,2.1-2.8,2.1c-0.7,0-1.2-0.1-1.5-0.3c-0.4-0.2-0.6-0.7-0.6-1.3c0-0.3,0.1-0.6,0.2-0.9
		c0.1-0.1,0.1-0.2,0.2-0.2c0.1,0,0.1,0.1,0.1,0.3c0,0.1,0,0.2,0,0.3c0,0.4,0.2,0.7,0.6,0.8c0.2,0.1,0.6,0.1,1.1,0.1
		c1.5,0,2.2-0.2,2.2-0.7c0-0.7-0.9-1.7-2.6-2.9l0.3-1c0-0.1,0.1-0.1,0.1-0.1c0,0,0.1,0,0.2,0.1C56.3,272.8,57.1,274.1,57.1,275.2z" id="PATH_46" class="area" title=""></path>
	<path d="M61.1,277.3h-0.7c-0.7,0-1.3-0.3-1.5-0.9c-0.2-0.4-0.3-1.1-0.3-1.9v-1.9c0-0.9-0.1-2.2-0.2-3.9L59,268
		c0.1-0.1,0.2-0.1,0.2,0c0.1,0.9,0.2,2.2,0.2,3.9v2.9c0,0.8,0.4,1.2,1.2,1.2h0.5V277.3z" id="PATH_47" class="area" title=""></path>
	<path d="M63.5,275.3c0,1.3-0.7,2-2,2h-0.8v-1.2h0.7c1,0,1.5-0.2,1.5-0.5c0-0.3-0.2-0.7-0.7-1.2l0.4-1c0-0.1,0.1-0.1,0.1-0.1
		c0,0,0.1,0.1,0.2,0.2C63.3,274,63.5,274.7,63.5,275.3z M63.2,279.5l-0.8,0.8l-0.8-0.8l0.8-0.8L63.2,279.5z" id="PATH_48" class="area" title=""></path>
	<path d="M67.5,266.6c-0.4,0.4-1,0.5-1.6,0.5c-0.1,0-0.2,0-0.4,0s-0.3,0-0.4,0c-0.1,0-0.2,0.1-0.3,0.2s-0.2,0.2-0.2,0.2
		c-0.1,0-0.1-0.1-0.1-0.2c0-0.1,0.1-0.3,0.2-0.5c0.1-0.3,0.2-0.4,0.3-0.4c0.1,0,0.3,0,0.6,0.1s0.5,0.1,0.6,0.1c0.6,0,1,0,1.3-0.1
		c0.2,0,0.3-0.1,0.3-0.1c0,0,0.1,0,0.1,0C67.7,266.4,67.6,266.5,67.5,266.6z M66.9,276.1c0,0.4-0.1,0.8-0.3,1.1
		c-0.1,0.2-0.2,0.3-0.2,0.3c0,0-0.1-0.1-0.1-0.4c0-1.2-0.2-4-0.6-8.5l0.8-0.8c0.1-0.1,0.1-0.1,0.1-0.1c0,0,0,0.1,0,0.2
		C66.8,269.2,66.9,271.9,66.9,276.1z" id="PATH_49" class="area" title=""></path>
	<path d="M75.2,277.3h-0.4c-0.4,0-0.7-0.1-1-0.4c-0.2-0.2-0.4-0.4-0.6-0.8c-0.2,0.4-0.5,0.7-0.8,0.9c-0.4,0.2-0.9,0.3-1.7,0.3
		c-1.4,0-2.1-0.5-2.1-1.5c0-0.3,0.1-0.7,0.3-1c0.1-0.1,0.1-0.2,0.2-0.2c0.1,0,0.1,0.1,0.1,0.2c0,0.1,0,0.1,0,0.3s0,0.2,0,0.3
		c0,0.6,0.5,0.9,1.5,0.9c1.4,0,2.1-0.3,2.1-0.8c0-0.3-0.4-1.4-1.2-3.3l0.4-0.8c0.1-0.1,0.1-0.2,0.1-0.2c0,0,0.1,0.1,0.1,0.2
		c0.3,0.8,0.8,2,1.4,3.6c0.3,0.8,0.7,1.2,1.3,1.2h0.3V277.3z" id="PATH_50" class="area" title=""></path>
	<path d="M83.1,275.2c0,0.6-0.1,1.1-0.4,1.5c-0.3,0.4-0.8,0.7-1.3,0.7c-0.7,0-1.1-0.3-1.4-0.8c-0.4,0.6-0.8,0.8-1.4,0.8
		c-0.7,0-1.2-0.3-1.5-0.8c-0.4,0.6-0.9,0.8-1.6,0.8h-0.7v-1.2h0.8c0.7,0,1.2-0.4,1.3-1.2c0-0.2,0.1-0.3,0.2-0.3
		c0.1,0,0.1,0.1,0.2,0.3c0.1,0.8,0.5,1.2,1.3,1.2c0.4,0,0.8-0.1,1-0.3c0.1-0.2,0.2-0.4,0.3-0.8c0-0.2,0.1-0.3,0.2-0.3
		c0.1,0,0.1,0.1,0.2,0.3c0.1,0.8,0.5,1.2,1.2,1.2c0.8,0,1.1-0.2,1.1-0.5c0-0.3-0.2-0.7-0.6-1.1l0.5-0.9c0.1-0.1,0.1-0.2,0.2-0.2
		s0.1,0.1,0.2,0.2C83,274.2,83.1,274.7,83.1,275.2z" id="PATH_51" class="area" title=""></path>
	<path d="M85.5,276.1c0,0.4-0.1,0.8-0.3,1.1c-0.1,0.2-0.2,0.3-0.2,0.3c0,0-0.1-0.1-0.1-0.4c0-1.2-0.2-4-0.6-8.5l0.8-0.8
		c0.1-0.1,0.1-0.1,0.1-0.1c0,0,0,0.1,0,0.2C85.5,269.3,85.5,272,85.5,276.1z" id="PATH_52" class="area" title=""></path>
</g>
<g id="G_53" class="area" title="">
	<path d="M128.5,346.4c0.1,0.3,0.1,0.6,0.1,0.9c0,0.4-0.1,0.7-0.2,1.1c-0.3,0.7-0.8,1.3-1.8,1.7c-0.8,0.3-1.6,0.5-2.5,0.5
		c-0.9,0-1.6-0.2-2.2-0.6c-0.6-0.5-0.9-1.1-0.9-2c0-0.5,0.1-0.9,0.3-1.5c0.2-0.4,0.3-0.7,0.5-0.9c0.1-0.1,0.2-0.1,0.2-0.1
		c0.1,0,0.1,0,0.1,0.1c0,0,0,0.1,0,0.2c-0.3,0.6-0.4,1.2-0.4,1.7c0,0.5,0.2,0.9,0.5,1.3c0.4,0.5,1.1,0.7,2,0.7c1,0,1.9-0.2,2.6-0.5
		c0.6-0.3,1-0.6,1.2-1c0.1-0.1,0.1-0.3,0.1-0.4c0-0.3-0.1-0.6-0.2-1c-0.1-0.3-0.4-0.8-0.9-1.6l0.4-0.8c0.1-0.1,0.1-0.2,0.1-0.2
		s0.1,0,0.1,0.1C128.1,344.8,128.4,345.6,128.5,346.4z M125.6,342l-0.8,0.8l-0.8-0.8l0.8-0.8L125.6,342z" id="PATH_54" class="area" title=""></path>
	<path d="M132.6,346.5h-0.7c-0.7,0-1.3-0.3-1.5-0.9c-0.2-0.4-0.3-1.1-0.3-1.9v-1.9c0-0.9-0.1-2.2-0.2-3.9l0.6-0.7
		c0.1-0.1,0.2-0.1,0.2,0c0.1,0.9,0.2,2.2,0.2,3.9v2.9c0,0.8,0.4,1.2,1.2,1.2h0.5V346.5z" id="PATH_55" class="area" title=""></path>
	<path d="M138.8,337.2c0,0.2-0.2,0.6-0.4,1.1l-2.5,0.8c-1.1,0.4-1.9,0.7-2.3,0.9c0.8,0.8,1.3,1.4,1.6,1.7c0.5,0.7,0.8,1.3,0.9,2
		c0,0.5,0,1-0.2,1.4c-0.3,0.9-1.4,1.3-3.1,1.3h-0.5v-1.2h0.6c0.8,0,1.4,0,1.7-0.1c0.7-0.2,1.1-0.5,1.1-1c0-0.7-0.5-1.5-1.6-2.5
		l-0.1,0.2c-0.1-0.1-0.3-0.3-0.5-0.6c-0.3-0.3-0.4-0.6-0.4-0.6c0-0.2,0-0.4,0.1-0.8c0.1-0.4,0.2-0.6,0.3-0.7
		c0.1-0.1,0.8-0.4,2.1-0.8C136.7,337.9,137.8,337.5,138.8,337.2z" id="PATH_56" class="area" title=""></path>
	<path d="M144.5,346.5h-0.4c-0.4,0-0.6-0.1-0.8-0.2c0,0.1,0,0.2,0,0.3c0,0.9-0.3,1.8-0.9,2.7c-0.5,0.8-1,1.1-1.3,1.1
		c-0.8,0-1.4,0-2-0.1c-0.2,0-0.3-0.1-0.3-0.1s0.1-0.1,0.3-0.1c0.8-0.2,1.6-0.6,2.4-1.2c0.8-0.7,1.3-1.4,1.3-2.1c0-0.4-0.3-1-1-1.7
		l0.5-0.9c0-0.1,0.1-0.1,0.1-0.1c0,0,0.1,0.1,0.1,0.1c0.3,0.4,0.5,0.7,0.7,0.8c0.3,0.2,0.7,0.4,1.1,0.4h0.3V346.5z" id="PATH_57" class="area" title=""></path>
	<path d="M153.8,346.5h-0.6c-0.7,0-1.1-0.3-1.4-0.8c-0.2,0.6-0.7,0.8-1.3,0.8c-0.6,0-1-0.3-1.3-0.8c-0.3,0.6-0.7,0.8-1.3,0.8
		c-0.7,0-1.2-0.3-1.5-0.8c-0.4,0.6-0.9,0.8-1.6,0.8h-0.7v-1.2h0.8c0.7,0,1.2-0.4,1.3-1.2c0-0.2,0.1-0.3,0.2-0.3
		c0.1,0,0.1,0.1,0.2,0.3c0.1,0.8,0.5,1.2,1.3,1.2c0.7,0,1.2-0.4,1.2-1.2c0-0.2,0.1-0.3,0.2-0.3c0.1,0,0.2,0.1,0.2,0.3
		c0.1,0.8,0.5,1.2,1,1.2c0.7,0,1.2-0.4,1.2-1.2c0-0.2,0.1-0.3,0.2-0.3c0.1,0,0.2,0.1,0.2,0.3c0.1,0.8,0.5,1.2,1.2,1.2h0.6V346.5z" id="PATH_58" class="area" title=""></path>
	<path d="M156.2,344.5c0,1.3-0.7,2-2,2h-0.8v-1.2h0.7c1,0,1.5-0.2,1.5-0.5c0-0.3-0.2-0.7-0.7-1.2l0.4-1c0-0.1,0.1-0.1,0.1-0.1
		c0,0,0.1,0.1,0.2,0.2C156,343.2,156.2,343.9,156.2,344.5z M155.4,348.7l-0.8,0.8l-0.8-0.8l0.8-0.8L155.4,348.7z M157.1,348.7
		l-0.8,0.8l-0.8-0.8l0.8-0.8L157.1,348.7z" id="PATH_59" class="area" title=""></path>
	<path d="M163.3,346.5h-1.1c-0.1,1.4-0.6,2.5-1.6,3.5c-0.3,0.3-0.5,0.5-0.6,0.5c-0.5,0-1.2-0.1-1.9-0.2c-0.2,0-0.4-0.1-0.4-0.1
		c0,0,0.1-0.1,0.4-0.2c0.8-0.2,1.6-0.7,2.3-1.2c0.3-0.3,0.6-0.5,0.8-0.9c0.3-0.4,0.5-0.8,0.5-1.1v-0.3h-1.3c-1,0-1.4-0.4-1.4-1.2
		c0-0.5,0.1-1,0.4-1.6c0.3-0.6,0.7-1,1.1-1c0.5,0,0.9,0.3,1.2,1c0.2,0.5,0.4,1,0.4,1.6h1.1V346.5z M161.5,345.3
		c0-0.3-0.1-0.6-0.3-0.9c-0.2-0.4-0.5-0.5-0.8-0.5c-0.2,0-0.4,0.1-0.5,0.2c-0.2,0.2-0.2,0.3-0.2,0.6c0,0.5,0.4,0.7,1.2,0.7
		C161,345.4,161.2,345.3,161.5,345.3z" id="PATH_60" class="area" title=""></path>
	<path d="M165.7,344.5c0,1.3-0.7,2-2,2h-0.8v-1.2h0.7c1,0,1.5-0.2,1.5-0.5c0-0.3-0.2-0.7-0.7-1.2l0.4-1c0-0.1,0.1-0.1,0.1-0.1
		c0,0,0.1,0.1,0.2,0.2C165.5,343.2,165.7,343.9,165.7,344.5z M164.8,340.1l-0.8,0.8l-0.8-0.8l0.8-0.8L164.8,340.1z M166.5,340.1
		l-0.8,0.8l-0.8-0.8l0.8-0.8L166.5,340.1z" id="PATH_61" class="area" title=""></path>
</g>
<g id="G_62" class="area" title="">
	<path d="M228.4,416H228c-0.4,0-0.6-0.1-0.8-0.2c0,0.1,0,0.2,0,0.3c0,0.9-0.3,1.8-0.9,2.7c-0.5,0.8-1,1.1-1.3,1.1
		c-0.8,0-1.4,0-2-0.1c-0.2,0-0.3-0.1-0.3-0.1s0.1-0.1,0.3-0.1c0.8-0.2,1.6-0.6,2.4-1.2c0.8-0.7,1.3-1.4,1.3-2.1c0-0.4-0.3-1-1-1.7
		l0.5-0.9c0-0.1,0.1-0.1,0.1-0.1c0,0,0.1,0.1,0.1,0.1c0.3,0.4,0.5,0.7,0.7,0.8c0.3,0.2,0.7,0.4,1.1,0.4h0.3V416z" id="PATH_63" class="area" title=""></path>
	<path d="M230.8,414c0,1.3-0.7,2-2,2H228v-1.2h0.7c1,0,1.5-0.2,1.5-0.5c0-0.3-0.2-0.7-0.7-1.2l0.4-1c0-0.1,0.1-0.1,0.1-0.1
		s0.1,0.1,0.2,0.2C230.6,412.7,230.8,413.4,230.8,414z M230,418.2l-0.8,0.8l-0.8-0.8l0.8-0.8L230,418.2z M231.7,418.2l-0.8,0.8
		l-0.8-0.8l0.8-0.8L231.7,418.2z" id="PATH_64" class="area" title=""></path>
	<path d="M241.1,416h-0.6c-1.2,0-1.9-0.9-1.9-2.7c0-0.2,0-0.5,0-0.9c-0.8,1.9-1.7,3.3-2.9,4.1c-0.7,0.2-1.6,0.3-2.6,0.3
		c-0.2,0-0.3,0-0.3,0c0,0,0.3-0.2,0.9-0.5c0.4-0.2,0.8-0.4,1.2-0.6c0.7-0.3,1.4-0.8,2-1.5c-0.3-1-0.7-1.9-1.3-2.7
		c-0.4-0.5-1-1.1-1.9-1.8l-0.1,0.4c-0.3-0.2-0.5-0.4-0.7-0.6c-0.3-0.3-0.5-0.5-0.5-0.7c0-0.2,0-0.5,0.1-1c0-0.1,0-0.2,0.1-0.2
		s0.1,0,0.2,0.1c1.3,0.9,2.3,1.8,2.9,2.6c0.8,1,1.3,2.1,1.6,3.4c0.4-0.5,0.7-1,0.9-1.6c0.3-0.7,0.4-1.3,0.4-1.8c0-0.9-0.1-1.9-0.2-3
		l0.8-0.7c0.1,0.5,0.1,2.8,0.2,6.9c0,0.9,0.4,1.4,1.2,1.4h0.5V416z" id="PATH_65" class="area" title=""></path>
	<path d="M246,414c0,0.5,0,0.9-0.2,1.3c-0.2,0.5-0.5,0.8-0.8,0.8c-0.5,0-1.3-0.3-2.3-1c-0.3,0.4-0.5,0.6-0.6,0.7
		c-0.3,0.2-0.6,0.3-1,0.3h-0.5v-1.2h0.7c0.4,0,0.8-0.2,1.2-0.7c0.2-0.2,0.5-0.7,0.9-1.3c0.3-0.5,0.7-0.7,1-0.7
		c0.5,0,0.9,0.2,1.2,0.7C245.9,413.3,246,413.6,246,414z M245.4,414.7c0-0.3-0.1-0.6-0.3-1c-0.2-0.4-0.5-0.6-0.8-0.6
		c-0.3,0-0.6,0.3-1,0.9c0.2,0.2,0.5,0.4,0.9,0.6s0.8,0.3,1,0.3C245.4,415,245.4,414.9,245.4,414.7z" id="PATH_66" class="area" title=""></path>
</g>
<g id="G_67" class="area" title="">
	<path d="M111.9,431.3h-0.4c-0.4,0-0.7-0.1-1-0.4c-0.2-0.2-0.4-0.4-0.6-0.8c-0.2,0.4-0.5,0.7-0.8,0.9c-0.4,0.2-0.9,0.3-1.7,0.3
		c-1.4,0-2.1-0.5-2.1-1.5c0-0.3,0.1-0.7,0.3-1c0.1-0.1,0.1-0.2,0.2-0.2c0.1,0,0.1,0.1,0.1,0.2c0,0.1,0,0.1,0,0.3s0,0.2,0,0.3
		c0,0.6,0.5,0.9,1.5,0.9c1.4,0,2.1-0.3,2.1-0.8c0-0.3-0.4-1.4-1.2-3.3l0.4-0.8c0.1-0.1,0.1-0.2,0.1-0.2c0,0,0.1,0.1,0.1,0.2
		c0.3,0.8,0.8,2,1.4,3.6c0.3,0.8,0.7,1.2,1.3,1.2h0.3V431.3z" id="PATH_68" class="area" title=""></path>
	<path d="M114.3,429.3c0,1.3-0.7,2-2,2h-0.8v-1.2h0.7c1,0,1.5-0.2,1.5-0.5c0-0.3-0.2-0.7-0.7-1.2l0.4-1c0-0.1,0.1-0.1,0.1-0.1
		c0,0,0.1,0.1,0.2,0.2C114.1,428,114.3,428.7,114.3,429.3z M114.2,424.8l-0.8,0.8l-0.8-0.8l0.8-0.8L114.2,424.8z" id="PATH_69" class="area" title=""></path>
	<path d="M119.4,430.9c0,1.5-0.5,2.8-1.5,3.8c-0.3,0.3-0.5,0.5-0.6,0.5c-0.6,0-1.2-0.1-1.9-0.2c-0.3,0-0.4-0.1-0.4-0.1
		c0,0,0.1-0.1,0.4-0.2c0.8-0.2,1.6-0.7,2.3-1.3c0.3-0.3,0.6-0.5,0.8-0.9c0.3-0.4,0.5-0.8,0.5-1.1v-0.3l-1.3,0
		c-0.9,0-1.4-0.4-1.4-1.1c0-0.5,0.1-1,0.4-1.6c0.3-0.6,0.7-1,1.1-1c0.6,0,1.1,0.4,1.4,1.3C119.3,429.5,119.4,430.1,119.4,430.9z
		 M118.7,430.1c0-0.3-0.1-0.6-0.3-0.9c-0.2-0.3-0.5-0.5-0.8-0.5c-0.2,0-0.4,0.1-0.5,0.2c-0.2,0.2-0.2,0.3-0.2,0.5
		c0,0.5,0.3,0.7,1,0.7C118,430.2,118.3,430.1,118.7,430.1z" id="PATH_70" class="area" title=""></path>
	<path d="M123.4,431.3h-0.7c-0.7,0-1.3-0.3-1.5-0.9c-0.2-0.4-0.3-1.1-0.3-1.9v-1.9c0-0.9-0.1-2.2-0.2-3.9l0.6-0.7
		c0.1-0.1,0.2-0.1,0.2,0c0.1,0.9,0.2,2.2,0.2,3.9v2.9c0,0.8,0.4,1.2,1.2,1.2h0.5V431.3z" id="PATH_71" class="area" title=""></path>
	<path d="M129.6,431.3h-0.5c-0.4,0-0.8,0.1-1.1,0.2c-0.5,0.2-0.8,0.5-0.8,1c0,0.6,0.4,1.1,1.2,1.6l-0.5,1c-0.9-0.3-1.7-0.8-2.3-1.4
		c-0.8-0.7-1.2-1.6-1.2-2.5H123v-1.2h1.3c0-0.8,0.2-1.6,0.6-2.6c0.4-0.9,0.7-1.3,0.9-1.3c0.2,0,0.5,0.4,0.8,1.3
		c0.3,0.8,0.4,1.3,0.4,1.6c0,1.4-0.7,2.1-2.1,2.1c0.1,0.4,0.3,0.8,0.6,1.2c0.3,0.4,0.7,0.7,1.1,0.9c0-0.1,0-0.3,0-0.4
		c0-0.7,0.2-1.3,0.5-1.8c0.5-0.7,1.1-1.1,2-1.1h0.4V431.3z M126.6,429.7c0-0.2-0.1-0.6-0.3-1.1c-0.2-0.6-0.4-0.8-0.6-0.8
		c-0.1,0-0.3,0.2-0.5,0.7c-0.2,0.5-0.3,1.1-0.3,1.7C126,430.1,126.6,430,126.6,429.7z" id="PATH_72" class="area" title=""></path>
	<path d="M132,429.3c0,1.3-0.7,2-2,2h-0.8v-1.2h0.7c1,0,1.5-0.2,1.5-0.5c0-0.3-0.2-0.7-0.7-1.2l0.4-1c0-0.1,0.1-0.1,0.1-0.1
		c0,0,0.1,0.1,0.2,0.2C131.8,428,132,428.7,132,429.3z M131.9,424.8l-0.8,0.8l-0.8-0.8l0.8-0.8L131.9,424.8z" id="PATH_73" class="area" title=""></path>
</g>
</svg>


