



    


<svg version="1.1" id="Layer_1" xmlns="http://www.w3.org/2000/svg" xmlns:xlink="http://www.w3.org/1999/xlink" x="0px" y="0px" viewBox="0 0 513.9 529" style="enable-background:new 0 0 513.9 529;" xml:space="preserve" width="100%" height="100%">
<style type="text/css">
	.st0{fill:#FBD1D1;stroke:#020202;stroke-width:0.2;stroke-miterlimit:10;}
	.st1{fill:#DBECCB;stroke:#020202;stroke-width:0.2;stroke-miterlimit:10;}
	.st2{fill:#E8D0E5;stroke:#020202;stroke-width:0.2;stroke-miterlimit:10;}
	.st3{fill:#FDFAD6;stroke:#020202;stroke-width:0.2;stroke-miterlimit:10;}
	.st4{font-family:'BNazanin';}
	.st5{font-size:16px;}
</style>

		<path class="st0 area" d="M325.2,79.3c1.4,4.8,9.6,4.1,11.7,9.6c1.4,6.2-4.8,12.3-2.1,17.8c2.8,4.1,9.6,4.1,11.7,10.3
			c-4.8,0-11,5.5-8.2,8.2c6.9,7.5,9.6,15.8,15.8,22c9.7,9.3,21.1,6,30.3-1.4c-2.5-2.3-4.6-5.3-6.1-8.7c-4.6-10.3-3.2-22.2,0.4-28.7
			c4.2-7.3,2.7-14-5.4-23.7c-4-4.8-7.1-11.9-10.3-19.3c-3-6.8-6-13.8-10-19.8c-4.7-7.1-9.9-5.6-17.9-2.5c-2.6,1-5.2,2-7.7,2.4
			c-1.9,0.3-4.8,1.1-8.1,2c0.8,5,3,9.5,4.5,14C325.9,67,323.2,73.8,325.2,79.3z" id="_x633__x645__x646__x627__x646_" title="سمنان"></path>
		<path class="st1 area" d="M245.6,94.4c2.7,4.8,5.5,9.6,10.3,12.3c12.4,8.9,26.8,11,35.7,24.7c1.4,2.8,4.1-2.1,6.9-4.1
			c0.7-0.7,2.8-0.7,3.4,0c7.5,8.9,17.2,15.8,28.1,11c4.1-1.4,8.9-2.1,13.7-4.1c0.3-0.1,0.5-0.2,0.8-0.4c-1.8-2.9-3.8-5.7-6.3-8.6
			c-2.8-2.7,3.4-8.2,8.2-8.2c-2.1-6.2-8.9-6.2-11.7-10.3c-2.7-5.5,3.4-11.7,2.1-17.8c-2.1-5.5-10.3-4.8-11.7-9.6
			c-2.1-5.5,0.7-12.4-1.4-17.8c-1.5-4.5-3.7-9-4.5-14c-0.6,0.2-1.1,0.3-1.7,0.5c-11.4,3.1-26.9,7.3-40,6.2c-11.9-1-16.5,7.5-21,15.7
			c-1.2,2.1-2.2,4.1-3.4,5.9c-2.4,3.6-7.1,8.1-12.4,11.9C242.8,89.7,244.5,92.1,245.6,94.4z" id="_x646__x628_" title="نب"></path>
		<path class="st2 area" d="M238.1,117.7c-0.7,4.1-6.2,8.2-4.1,13.7c2.1,6.2,8.2,8.9,13.8,12.4c4.8,3.4,4.8,11,10.3,13.7
			c2.7,0.7,5.5,2.7,7.5,4.1c7.5,8.2,14.4,15.8,26.1,19.2c2.1,0.7,4.8,2.1,6.9,4.1c8.2,11,14.4,22.6,28.8,23.3
			c0.7,15.8,19.2,22.6,31.6,19.2c6.9-2.1,7.5-13,12.3-19.2c4.1-4.8,11,4.1,17.2,4.1c2.1,0,4.8-4.1,8.2-2.1
			c5.5,3.4,7.5,8.9,13.1,13.1c1.4,0.7,4.8,0.7,4.8-1.4c3.3-15,12.1-26,23.7-35.4c-4.2-4.8-7.4-11-9.2-18.1
			c-2.3-9.1-11.1-11.8-32.1-16.3c-4.9-1-9-3.2-12.4-6.3c-9.3,7.5-20.7,10.7-30.4,1.4c-3.9-3.9-6.4-8.6-9.5-13.4
			c-0.3,0.1-0.6,0.3-0.8,0.4c-4.8,2.1-9.6,2.7-13.7,4.1c-11,4.8-20.6-2.1-28.1-11c-0.7-0.7-2.8-0.7-3.4,0c-2.7,2.1-5.5,6.9-6.9,4.1
			c-8.9-13.7-23.3-15.8-35.7-24.7c-4.8-2.7-7.5-7.6-10.3-12.3c-1.2-2.4-2.8-4.7-4.9-6.7c-2.6,1.9-5.4,3.5-8,4.8
			C236.8,100.2,239.8,108.7,238.1,117.7z" id="_x634__x647__x631__x6A9__x631__x62F_" title="شهرکرد"></path>
		<path class="st0 area" d="M234,169.9c6.9,19.2,25.4,31.6,44.6,42.5c2.8,2.1,4.8,4.8,5.5,6.9c4.8,12.4,8.9,27.4,22.6,32.2
			c5.7-12.5,12.4-24.6,23.1-34.6c-1.4-2.5-2.4-5.4-2.5-8.6c-14.4-0.7-20.6-12.4-28.8-23.3c-2.1-2.1-4.8-3.4-6.9-4.1
			c-11.6-3.4-18.5-11-26.1-19.2c-2.1-1.4-4.8-3.4-7.5-4.1c-1.8-0.9-3-2.2-3.9-3.8C244.1,157.5,230.4,160.3,234,169.9z" id="_x641__x627__x631__x633__x627__x646_" title="فارسان"></path>
		<path class="st3 area" d="M247.7,229.6c2.1-0.7,2.1-4.1,1.4-6.2c-3-9.2-0.7-19.9,5.7-26.6c-9.3-7.5-16.9-16.1-20.8-26.9
			c-3.6-9.6,10.2-12.4,20.1-16.2c-2.1-3.3-3.1-7.6-6.4-9.9c-5.5-3.4-11.6-6.2-13.7-12.4c-2.1-5.5,3.4-9.6,4.1-13.7
			c1.7-9-1.2-17.5-5.4-25.2c-4.8,2.3-9.4,3.3-12.5,1.7c-6.4-3.2-25.7-19.7-34-28c-8-8-19.4-8.4-30.5-1c-13.3,8.9-23,0.8-28.8-4
			c-0.8-0.7-1.6-1.3-2.3-1.9c-2.6-2-10.6-6.9-19-12.2c-9.5-5.9-20.2-12.7-25.6-16.5c-2.6-1.9-4.6-4.4-6.2-7.3
			c-6.2,3-23.6,11.4-30.5,16c-8.7,5.8-22.8,12.9-23.4,13.2c-0.3,0.1-0.6,0.1-0.9,0.2c6,10.7,13,21.8,18.7,26
			c7.1,5.3,19.7,16.7,29.7,25.7c6.6,5.9,12.3,11,15,13.2c3.7,3,12,11.3,20.8,20.1c8.6,8.6,17.6,17.6,22.5,21.8
			c9.8,8.5,7.9,15.5,6.3,21.2c-0.3,1.1-0.6,2.3-0.9,3.5c-1.2,5.8,6.6,27.7,13.7,36.2c6.1,7.3,25.2,27.7,35.6,36.5
			c14.7-12.9,33-21.2,50.8-27.3C236.7,227.5,242.2,231.6,247.7,229.6z" id="_x6A9__x648__x647__x631__x646__x6AF_" title="کوهرنگ"></path>
		<path class="st1 area" d="M306,334.6c-11-18.5-26.8-28.8-46-37.7c-2.7-1.4-6.9-4.8-4.1-8.9c2.8-2.7,6.2-6.9,8.9-6.9
			c19.2,0.7,37.7-5.5,49.4-19.2c3.5-3.5-2.3-8.9-5.9-13.8c-0.6,1.2-1.1,2.4-1.7,3.5c-13.7-4.8-17.8-19.9-22.6-32.2
			c-0.7-2.1-2.8-4.8-5.5-6.9c-8.4-4.8-16.6-9.8-23.8-15.6c-6.4,6.6-8.7,17.4-5.7,26.6c0.7,2.1,0.7,5.5-1.4,6.2
			c-5.5,2.1-11-2.1-16.5,0c-17.8,6.1-36.1,14.5-50.8,27.4c1.6,1.4,3,2.5,4.1,3.2c8.7,5.8,38,32.3,39.3,33.4l1.4,1.2l-0.3,1.8
			c-2.6,14.5-3.6,31.9-0.9,34.6c5.5,5.5,15.7,15.7,21.3,19.9c2.7,2,5.6,5.6,8,9c9.7-4.4,20.5-4.6,30.9,2.7c4.1,2.7,11,1.4,15.1-4.1
			c2.8-3.4,10.3,0.7,12.3-1.4c4.1-4.8-4.8-11-2.7-17.8c0.2-0.5,0.4-1,0.6-1.4C308,337,306.9,335.9,306,334.6z" id="_x627__x631__x62F__x644_" title="اردل"></path>
		<path class="st3 area" d="M412,223.8c-0.9,0-1.8-0.1-2.3-0.4c-5.5-4.1-7.5-9.6-13.1-13.1c-3.4-2.1-6.2,2.1-8.2,2.1
			c-6.2,0-13-8.9-17.2-4.1c-4.8,6.2-5.5,17.2-12.3,19.2c-9.8,2.7-23.5-1-29.1-10.6c-9.7,9.1-16.1,19.8-21.4,31.1
			c3.5,4.9,9.4,10.4,5.9,13.8c-11.7,13.7-30.2,19.9-49.4,19.2c-2.8,0-6.2,4.1-8.9,6.9c-2.7,4.1,1.4,7.5,4.1,8.9
			c19.2,8.9,35,19.2,46,37.7c0.9,1.4,2,2.5,3.3,3.4c3.3-6.2,11.4-6,15.9-2.8c7.5,4.8,15.1,2.1,20.6,6.9c4.1,2.1,4.8,6.9,8.9,8.2
			c3.4,1.4,8.2,2.7,10.3,4.1c7.7,5.7,15.5,8.4,23.6,9.9c5.7-8.8,8.6-20.8,5.2-29.1c-8.9-22-35-28.1-55.6-37.7
			c-15.1-6.9-12.3-24,0.7-28.8c5.5-2.1,6.2,8.9,12.4,10.3c15.8,2.7,28.1-8.2,34.3-22.6c0.7-1.4,3.4-2.7,6.2-2.1
			c6.2,2.7,15.8,8.2,17.8,1.4C412.1,245.7,408.9,234.5,412,223.8z" id="_x6A9__x6CC__x627__x631_" title="کیار"></path>
		<path class="st1 area" d="M485.3,254l-0.3-1c-0.8-7.8-3.6-29.7-6.9-36.3c-3.9-7.8-17.7-18.8-26.8-21.4c-4.9-1.4-9.5-4.5-13.2-8.7
			c-11.6,9.5-20.3,20.4-23.7,35.4c0,1.2-1.2,1.7-2.4,1.8c-3,10.7,0.1,21.9-2.4,31.9c-2.1,6.9-11.6,1.4-17.9-1.4
			c-2.7-0.7-5.5,0.7-6.2,2.1c-6.2,14.4-18.5,25.4-34.3,22.6c-6.2-1.4-6.9-12.3-12.4-10.3c-13,4.8-15.8,22-0.7,28.8
			c20.6,9.6,46.7,15.8,55.6,37.7c3.4,8.4,0.5,20.3-5.2,29.1c8.5,1.6,17.3,1.7,26.5,2.4c4.1,0.7,4.8,7.5,6.2,12.3
			c1.4,4.1,8.9,4.8,10.3,8.9c2.1,8.2,1.4,15.1,9.6,19.2c6,2.5,11.6,1.4,17.2-0.5c-0.4-3.7-0.7-6-0.7-7.1c0-2.4,0.9-9.4,2.4-21.6
			c2.3-18.5,6.7-52.9,5-58c-1.9-5.7-4.1-20.5,17.2-34C495.5,277.5,485.4,254.3,485.3,254z" id="_x628__x631__x648__x62C__x646_" title="بروجن"></path>
		<path class="st0 area" d="M441.2,407.3c-8.2-4.1-7.5-11-9.6-19.2c-1.4-4.1-8.9-4.8-10.3-8.9c-1.4-4.8-2.1-11.6-6.2-12.3
			c-17.8-1.4-34.3-0.7-50.1-12.3c-2.1-1.4-6.9-2.7-10.3-4.1c-4.1-1.4-4.8-6.2-8.9-8.2c-5.5-4.8-13-2.1-20.6-6.9
			c-4.8-3.4-13.7-3.4-16.5,4.1c-2.1,6.9,6.9,13,2.7,17.8c-2.1,2.1-9.6-2.1-12.4,1.4c-4.1,5.5-11,6.9-15.1,4.1
			c-10.4-7.3-21.2-7.1-30.9-2.7c3.1,4.3,5.4,8.5,5.9,9.3l1.1,1.9l-1.4,1.7c-14.3,17.5-29.5,37.3-33.1,44.2
			c5.4,3.5,19.4,12.4,25,15.8c5.6,3.4,11.6,1.2,21.2-4.4c11.3-6.4,27.8-12.2,37.6-7.3l1.7,0.8c7,3.5,7.4,4.1,14.8,14.7l2,2.8
			c9.6,13.8,18.9,20.3,29,20.3c2.6,0,5.1-0.5,7.5-1c8.9-1.9,15.6-2.1,21.5,13.2c7,18.3,14.9,34.9,25.1,32.6
			c7.8-1.7,12.1-7.1,15.9-11.8c2-2.4,3.8-4.7,5.9-6.4c6.3-4.7,15.4-6.3,15.8-6.4l0.5-0.1l20.2,3.6c-2-14.4-4.4-30.5-6.5-44.3
			c-2.2-15-3.8-25.8-4.7-32.5C452.8,408.7,447.2,409.8,441.2,407.3z" id="_x644__x631__x62F__x6AF__x627__x646_" title="لردگان"></path>

<g id="G_12" class="area" title="">
	<path d="M140.3,136.5h-0.6c-0.5,0-1.1-0.2-1.6-0.7c-0.4-0.3-0.8-0.9-1.3-1.6c0,0.9-0.3,1.5-1,1.9c-0.5,0.3-1.3,0.4-2.3,0.4h-2.1
		c-2.4,0-3.7-0.7-3.7-2.1c0-0.5,0.2-1,0.5-1.5c0.1-0.1,0.2-0.2,0.2-0.2c0.1,0,0.1,0,0.1,0.1c0,0.1,0,0.1,0,0.2
		c-0.1,0.4-0.2,0.6-0.2,0.9c0,0.4,0.2,0.7,0.5,0.9c0.5,0.4,1.3,0.6,2.4,0.6h2c2,0,3.1-0.4,3.1-1.2c0-0.6-0.4-1.3-1.3-2.1
		c-0.4-0.4-0.8-0.7-1.3-1.1c0-0.4,0.1-0.7,0.3-1c0.1-0.1,1.9-0.7,5.5-1.8c0,0.1-0.1,0.5-0.3,1.1c-0.9,0.2-2.4,0.7-4.4,1.3
		c1.1,1.1,2,2.1,2.7,3c0.5,0.5,0.8,0.9,1.1,1.1c0.4,0.3,0.9,0.5,1.4,0.5h0.4V136.5z M139.3,126.9l-0.2,0.8l-4.9,1.6l0.2-0.7
		L139.3,126.9z" id="PATH_13" class="area" title=""></path>
	<path d="M142.7,134.5c0,1.3-0.7,2-2,2h-0.8v-1.2h0.7c1,0,1.5-0.2,1.5-0.5c0-0.3-0.2-0.7-0.7-1.2l0.4-1c0-0.1,0.1-0.1,0.1-0.1
		c0,0,0.1,0.1,0.2,0.2C142.5,133.2,142.7,133.9,142.7,134.5z M142.6,130l-0.8,0.8l-0.8-0.8l0.8-0.8L142.6,130z" id="PATH_14" class="area" title=""></path>
	<path d="M148.9,136.5h-0.4c-0.4,0-0.6-0.1-0.8-0.2c0,0.1,0,0.2,0,0.3c0,0.9-0.3,1.8-0.9,2.7c-0.5,0.8-1,1.1-1.3,1.1
		c-0.8,0-1.4,0-2-0.1c-0.2,0-0.3-0.1-0.3-0.1s0.1-0.1,0.3-0.1c0.8-0.2,1.6-0.6,2.4-1.2c0.8-0.7,1.3-1.4,1.3-2.1c0-0.4-0.3-1-1-1.7
		l0.5-0.9c0-0.1,0.1-0.1,0.1-0.1c0,0,0.1,0.1,0.1,0.1c0.3,0.4,0.5,0.7,0.7,0.8c0.3,0.2,0.7,0.4,1.1,0.4h0.3V136.5z" id="PATH_15" class="area" title=""></path>
	<path d="M155,134.5c0,0.4-0.1,0.8-0.4,1.2c-0.3,0.5-0.6,0.7-1,0.7c-0.3,0-1-0.2-2.1-0.7c-0.9,0.6-1.7,0.8-2.4,0.8h-0.5v-1.2h0.6
		c0.4,0,0.8,0,1.2-0.1c-0.4-0.3-0.6-0.7-0.6-1.2c0-0.6,0.4-1.3,1.3-2l-0.7-0.3c0.2-0.2,0.5-0.5,0.9-0.9c0.9,0.5,1.7,0.9,2.4,1.5
		C154.5,133.1,155,133.8,155,134.5z M152.4,133.7c0-0.3-0.1-0.5-0.2-0.7c-0.1-0.3-0.3-0.4-0.6-0.4c-0.3,0-0.5,0.1-0.8,0.3
		c-0.3,0.2-0.5,0.5-0.5,0.7c0,0.4,0.4,0.8,1.1,1c0.2-0.1,0.4-0.2,0.6-0.3C152.3,134.1,152.4,133.9,152.4,133.7z M154.5,134.9
		c0-0.3-0.2-0.6-0.6-1c-0.3-0.3-0.6-0.6-0.9-0.7c0,0.8-0.2,1.4-0.7,1.8c0.8,0.3,1.4,0.4,1.6,0.4
		C154.3,135.3,154.5,135.2,154.5,134.9z" id="PATH_16" class="area" title=""></path>
	<path d="M161.2,136.5h-1.1c-0.1,1.4-0.6,2.5-1.6,3.5c-0.3,0.3-0.5,0.5-0.6,0.5c-0.5,0-1.2-0.1-1.9-0.2c-0.2,0-0.4-0.1-0.4-0.1
		s0.1-0.1,0.4-0.2c0.8-0.2,1.6-0.7,2.3-1.2c0.3-0.3,0.6-0.5,0.8-0.9c0.3-0.4,0.5-0.8,0.5-1.1v-0.3h-1.3c-1,0-1.4-0.4-1.4-1.2
		c0-0.5,0.1-1,0.4-1.6c0.3-0.6,0.7-1,1.1-1c0.5,0,0.9,0.3,1.2,1c0.2,0.5,0.4,1,0.4,1.6h1.1V136.5z M159.4,135.3
		c0-0.3-0.1-0.6-0.3-0.9c-0.2-0.4-0.5-0.5-0.8-0.5c-0.2,0-0.4,0.1-0.5,0.2c-0.2,0.2-0.2,0.3-0.2,0.6c0,0.5,0.4,0.7,1.2,0.7
		C158.9,135.4,159.1,135.3,159.4,135.3z" id="PATH_17" class="area" title=""></path>
	<path d="M167.4,127.2c0,0.2-0.2,0.6-0.4,1.1l-2.5,0.8c-1.1,0.4-1.9,0.7-2.3,0.9c0.8,0.8,1.3,1.4,1.6,1.7c0.5,0.7,0.8,1.3,0.9,2
		c0,0.5,0,1-0.2,1.4c-0.3,0.9-1.4,1.3-3.1,1.3h-0.5v-1.2h0.6c0.8,0,1.4,0,1.7-0.1c0.7-0.2,1.1-0.5,1.1-1c0-0.7-0.5-1.5-1.6-2.5
		l-0.1,0.2c-0.1-0.1-0.3-0.3-0.5-0.6c-0.3-0.3-0.4-0.6-0.4-0.6c0-0.2,0-0.4,0.1-0.8c0.1-0.4,0.2-0.6,0.3-0.7
		c0.1-0.1,0.8-0.4,2.1-0.8C165.3,127.9,166.5,127.5,167.4,127.2z" id="PATH_18" class="area" title=""></path>
</g>
<text transform="matrix(1 0 0 1 291.6716 98)" class="st4 st5 area" id="TEXT_19" title="">
نب</text>
<g id="G_20" class="area" title="">
	<path d="M349.4,102.4c0.1,0.3,0.1,0.6,0.1,0.9c0,0.4-0.1,0.7-0.2,1.1c-0.3,0.7-0.8,1.3-1.8,1.7c-0.8,0.3-1.6,0.5-2.5,0.5
		c-0.9,0-1.6-0.2-2.2-0.6c-0.6-0.5-0.9-1.1-0.9-2c0-0.5,0.1-0.9,0.3-1.5c0.2-0.4,0.3-0.7,0.5-0.9c0.1-0.1,0.2-0.1,0.2-0.1
		c0.1,0,0.1,0,0.1,0.1c0,0,0,0.1,0,0.2c-0.3,0.6-0.4,1.2-0.4,1.7c0,0.5,0.2,0.9,0.5,1.3c0.4,0.5,1.1,0.7,2,0.7c1,0,1.9-0.2,2.6-0.5
		c0.6-0.3,1-0.6,1.2-1c0.1-0.1,0.1-0.3,0.1-0.4c0-0.3-0.1-0.6-0.2-1c-0.1-0.3-0.4-0.8-0.9-1.6l0.4-0.8c0.1-0.1,0.1-0.2,0.1-0.2
		s0.1,0,0.1,0.1C349,100.8,349.3,101.6,349.4,102.4z M346.4,98l-0.8,0.8l-0.8-0.8l0.8-0.8L346.4,98z" id="PATH_21" class="area" title=""></path>
	<path d="M353.4,102.5h-0.7c-0.7,0-1.3-0.3-1.5-0.9c-0.2-0.4-0.3-1.1-0.3-1.9v-1.9c0-0.9-0.1-2.2-0.2-3.9l0.6-0.7
		c0.1-0.1,0.2-0.1,0.2,0c0.1,0.9,0.2,2.2,0.2,3.9v2.9c0,0.8,0.4,1.2,1.2,1.2h0.5V102.5z" id="PATH_22" class="area" title=""></path>
	<path d="M358.4,102.5h-0.8c-0.9,0-1.5-0.3-1.9-0.9c-0.3,0.6-1,0.9-2.1,0.9H353v-1.2h0.9c1,0,1.5-0.4,1.6-1.1c0-0.3,0.1-0.5,0.2-0.5
		s0.2,0.2,0.2,0.5c0.1,0.7,0.6,1.1,1.5,1.1h0.9V102.5z M356.4,97.3l-0.8,0.8l-0.8-0.8l0.8-0.8L356.4,97.3z" id="PATH_23" class="area" title=""></path>
	<path d="M365.5,102.5h-0.6c-0.5,0-1-0.3-1.4-0.8c-0.3,0.8-0.6,1.2-0.9,1.2c-0.3,0-0.8-0.2-1.4-0.5c-0.5-0.3-0.9-0.6-1.1-0.8
		c-0.5,0.6-1,0.9-1.5,0.9H358v-1.2h0.6c0.5,0,0.9-0.2,1.3-0.6c0.3-0.3,0.6-0.7,1-1.1c0.4-0.4,0.7-0.6,1-0.6c0.4,0,0.7,0.2,1,0.6
		c0.2,0.2,0.4,0.6,0.9,1.1c0.3,0.4,0.7,0.6,1.1,0.6h0.6V102.5z M362.8,101.7c0-0.3-0.1-0.6-0.3-1c-0.2-0.4-0.5-0.6-0.9-0.6
		c-0.3,0-0.7,0.3-1.1,0.8c0.1,0.1,0.4,0.3,0.9,0.6c0.5,0.3,0.9,0.4,1.2,0.4C362.8,101.8,362.8,101.8,362.8,101.7z" id="PATH_24" class="area" title=""></path>
	<path d="M373.4,100.4c0,0.6-0.1,1.1-0.4,1.5c-0.3,0.4-0.8,0.7-1.3,0.7c-0.7,0-1.1-0.3-1.4-0.8c-0.4,0.6-0.8,0.8-1.4,0.8
		c-0.7,0-1.2-0.3-1.5-0.8c-0.4,0.6-0.9,0.8-1.6,0.8h-0.7v-1.2h0.8c0.7,0,1.2-0.4,1.3-1.2c0-0.2,0.1-0.3,0.2-0.3
		c0.1,0,0.1,0.1,0.2,0.3c0.1,0.8,0.5,1.2,1.3,1.2c0.4,0,0.8-0.1,1-0.3c0.1-0.2,0.2-0.4,0.3-0.8c0-0.2,0.1-0.3,0.2-0.3
		c0.1,0,0.1,0.1,0.2,0.3c0.1,0.8,0.5,1.2,1.2,1.2c0.8,0,1.1-0.2,1.1-0.5c0-0.3-0.2-0.7-0.6-1.1l0.5-0.9c0.1-0.1,0.1-0.2,0.2-0.2
		s0.1,0.1,0.2,0.2C373.2,99.4,373.4,99.9,373.4,100.4z" id="PATH_25" class="area" title=""></path>
</g>
<g id="G_26" class="area" title="">
	<path d="M310.1,168.4c0,1.4-0.9,2.1-2.8,2.1c-0.7,0-1.2-0.1-1.5-0.3c-0.4-0.2-0.6-0.7-0.6-1.3c0-0.3,0.1-0.6,0.2-0.9
		c0.1-0.1,0.1-0.2,0.2-0.2c0.1,0,0.1,0.1,0.1,0.3c0,0.1,0,0.2,0,0.3c0,0.4,0.2,0.7,0.6,0.8c0.2,0.1,0.6,0.1,1.1,0.1
		c1.5,0,2.2-0.2,2.2-0.7c0-0.7-0.9-1.7-2.6-2.9l0.3-1c0-0.1,0.1-0.1,0.1-0.1c0,0,0.1,0,0.2,0.1C309.3,166,310.1,167.3,310.1,168.4z" id="PATH_27" class="area" title=""></path>
	<path d="M316.4,170.5H316c-0.4,0-0.6-0.1-0.8-0.2c0,0.1,0,0.2,0,0.3c0,0.9-0.3,1.8-0.9,2.7c-0.5,0.8-1,1.1-1.3,1.1
		c-0.8,0-1.4,0-2-0.1c-0.2,0-0.3-0.1-0.3-0.1s0.1-0.1,0.3-0.1c0.8-0.2,1.6-0.6,2.4-1.2c0.8-0.7,1.3-1.4,1.3-2.1c0-0.4-0.3-1-1-1.7
		l0.5-0.9c0-0.1,0.1-0.1,0.1-0.1c0,0,0.1,0.1,0.1,0.1c0.3,0.4,0.5,0.7,0.7,0.8c0.3,0.2,0.7,0.4,1.1,0.4h0.3V170.5z" id="PATH_28" class="area" title=""></path>
	<path d="M322.6,161.2c0,0.2-0.2,0.6-0.4,1.1l-2.5,0.8c-1.1,0.4-1.9,0.7-2.3,0.9c0.8,0.8,1.3,1.4,1.6,1.7c0.5,0.7,0.8,1.3,0.9,2
		c0,0.5,0,1-0.2,1.4c-0.3,0.9-1.4,1.3-3.1,1.3H316v-1.2h0.6c0.8,0,1.4,0,1.7-0.1c0.7-0.2,1.1-0.5,1.1-1c0-0.7-0.5-1.5-1.6-2.5
		l-0.1,0.2c-0.1-0.1-0.3-0.3-0.5-0.6c-0.3-0.3-0.4-0.6-0.4-0.6c0-0.2,0-0.4,0.1-0.8c0.1-0.4,0.2-0.6,0.3-0.7
		c0.1-0.1,0.8-0.4,2.1-0.8C320.5,161.9,321.7,161.5,322.6,161.2z" id="PATH_29" class="area" title=""></path>
	<path d="M328.4,170.5h-0.4c-0.4,0-0.6-0.1-0.8-0.2c0,0.1,0,0.2,0,0.3c0,0.9-0.3,1.8-0.9,2.7c-0.5,0.8-1,1.1-1.3,1.1
		c-0.8,0-1.4,0-2-0.1c-0.2,0-0.3-0.1-0.3-0.1s0.1-0.1,0.3-0.1c0.8-0.2,1.6-0.6,2.4-1.2c0.8-0.7,1.3-1.4,1.3-2.1c0-0.4-0.3-1-1-1.7
		l0.5-0.9c0-0.1,0.1-0.1,0.1-0.1c0,0,0.1,0.1,0.1,0.1c0.3,0.4,0.5,0.7,0.7,0.8c0.3,0.2,0.7,0.4,1.1,0.4h0.3V170.5z" id="PATH_30" class="area" title=""></path>
	<path d="M334.6,170.5h-0.5c-0.4,0-0.8,0.1-1.1,0.2c-0.5,0.2-0.8,0.5-0.8,1c0,0.6,0.4,1.1,1.2,1.6l-0.5,1c-0.9-0.3-1.7-0.8-2.3-1.4
		c-0.8-0.7-1.2-1.6-1.2-2.5H328v-1.2h1.3c0-0.8,0.2-1.6,0.6-2.6c0.4-0.9,0.7-1.3,0.9-1.3c0.2,0,0.5,0.4,0.8,1.3
		c0.3,0.8,0.4,1.3,0.4,1.6c0,1.4-0.7,2.1-2.1,2.1c0.1,0.4,0.3,0.8,0.6,1.2c0.3,0.4,0.7,0.7,1.1,0.9c0-0.1,0-0.3,0-0.4
		c0-0.7,0.2-1.3,0.5-1.8c0.5-0.7,1.1-1.1,2-1.1h0.4V170.5z M331.5,168.9c0-0.2-0.1-0.6-0.3-1.1c-0.2-0.6-0.4-0.8-0.6-0.8
		c-0.1,0-0.3,0.2-0.5,0.7c-0.2,0.5-0.3,1.1-0.3,1.7C331,169.3,331.5,169.2,331.5,168.9z" id="PATH_31" class="area" title=""></path>
	<path d="M342.5,168.4c0,0.6-0.1,1.1-0.4,1.5c-0.3,0.4-0.8,0.7-1.3,0.7c-0.7,0-1.1-0.3-1.4-0.8c-0.4,0.6-0.8,0.8-1.4,0.8
		c-0.7,0-1.2-0.3-1.5-0.8c-0.4,0.6-0.9,0.8-1.6,0.8h-0.7v-1.2h0.8c0.7,0,1.2-0.4,1.3-1.2c0-0.2,0.1-0.3,0.2-0.3
		c0.1,0,0.1,0.1,0.2,0.3c0.1,0.8,0.5,1.2,1.3,1.2c0.4,0,0.8-0.1,1-0.3c0.1-0.2,0.2-0.4,0.3-0.8c0-0.2,0.1-0.3,0.2-0.3
		c0.1,0,0.1,0.1,0.2,0.3c0.1,0.8,0.5,1.2,1.2,1.2c0.8,0,1.1-0.2,1.1-0.5c0-0.3-0.2-0.7-0.6-1.1l0.5-0.9c0.1-0.1,0.1-0.2,0.2-0.2
		s0.1,0.1,0.2,0.2C342.3,167.4,342.5,167.9,342.5,168.4z M339.1,164.7l-0.7,0.7l-0.7-0.7l0.7-0.7L339.1,164.7z M340,163.2l-0.7,0.7
		l-0.7-0.7l0.7-0.7L340,163.2z M340.9,164.7l-0.7,0.7l-0.7-0.7l0.7-0.7L340.9,164.7z" id="PATH_32" class="area" title=""></path>
</g>
<g id="G_33" class="area" title="">
	<path d="M275.8,196.7c0.1,0.3,0.1,0.6,0.1,0.9c0,0.4-0.1,0.7-0.2,1.1c-0.3,0.7-0.8,1.3-1.8,1.7c-0.8,0.3-1.6,0.5-2.5,0.5
		c-0.9,0-1.6-0.2-2.2-0.6c-0.6-0.5-0.9-1.1-0.9-2c0-0.5,0.1-0.9,0.3-1.5c0.2-0.4,0.3-0.7,0.5-0.9c0.1-0.1,0.2-0.1,0.2-0.1
		c0.1,0,0.1,0,0.1,0.1c0,0,0,0.1,0,0.2c-0.3,0.6-0.4,1.2-0.4,1.7c0,0.5,0.2,0.9,0.5,1.3c0.4,0.5,1.1,0.7,2,0.7c1,0,1.9-0.2,2.6-0.5
		c0.6-0.3,1-0.6,1.2-1c0.1-0.1,0.1-0.3,0.1-0.4c0-0.3-0.1-0.6-0.2-1c-0.1-0.3-0.4-0.8-0.9-1.6l0.4-0.8c0.1-0.1,0.1-0.2,0.1-0.2
		s0.1,0,0.1,0.1C275.3,195.1,275.6,195.9,275.8,196.7z M272.8,192.4l-0.8,0.8l-0.8-0.8l0.8-0.8L272.8,192.4z" id="PATH_34" class="area" title=""></path>
	<path d="M279.8,196.8h-0.7c-0.7,0-1.3-0.3-1.5-0.9c-0.2-0.4-0.3-1.1-0.3-1.9v-1.9c0-0.9-0.1-2.2-0.2-3.9l0.6-0.7
		c0.1-0.1,0.2-0.1,0.2,0c0.1,0.9,0.2,2.2,0.2,3.9v2.9c0,0.8,0.4,1.2,1.2,1.2h0.5V196.8z" id="PATH_35" class="area" title=""></path>
	<path d="M287.7,194.7c0,0.6-0.1,1.1-0.4,1.5c-0.3,0.4-0.8,0.7-1.3,0.7c-0.7,0-1.1-0.3-1.4-0.8c-0.4,0.6-0.8,0.8-1.4,0.8
		c-0.7,0-1.2-0.3-1.5-0.8c-0.4,0.6-0.9,0.8-1.6,0.8h-0.7v-1.2h0.8c0.7,0,1.2-0.4,1.3-1.2c0-0.2,0.1-0.3,0.2-0.3
		c0.1,0,0.1,0.1,0.2,0.3c0.1,0.8,0.5,1.2,1.3,1.2c0.4,0,0.8-0.1,1-0.3c0.1-0.2,0.2-0.4,0.3-0.8c0-0.2,0.1-0.3,0.2-0.3
		c0.1,0,0.1,0.1,0.2,0.3c0.1,0.8,0.5,1.2,1.2,1.2c0.8,0,1.1-0.2,1.1-0.5c0-0.3-0.2-0.7-0.6-1.1l0.5-0.9c0.1-0.1,0.1-0.2,0.2-0.2
		s0.1,0.1,0.2,0.2C287.5,193.8,287.7,194.3,287.7,194.7z" id="PATH_36" class="area" title=""></path>
	<path d="M292.8,196.9c0,1-0.3,1.9-0.9,2.8c-0.5,0.7-1,1.1-1.3,1.1c-0.8,0-1.4,0-2-0.1c-0.2,0-0.3-0.1-0.3-0.1s0.1-0.1,0.3-0.1
		c0.8-0.2,1.6-0.6,2.4-1.2c0.8-0.7,1.3-1.4,1.3-2.1c0-0.4-0.3-1-1-1.7l0.5-0.9c0-0.1,0.1-0.1,0.1-0.1c0,0,0.1,0.1,0.1,0.1
		c0.2,0.3,0.5,0.7,0.6,1.2C292.7,196.2,292.8,196.6,292.8,196.9z" id="PATH_37" class="area" title=""></path>
	<path d="M296.8,196.8h-0.7c-0.7,0-1.3-0.3-1.5-0.9c-0.2-0.4-0.3-1.1-0.3-1.9v-1.9c0-0.9-0.1-2.2-0.2-3.9l0.6-0.7
		c0.1-0.1,0.2-0.1,0.2,0c0.1,0.9,0.2,2.2,0.2,3.9v2.9c0,0.8,0.4,1.2,1.2,1.2h0.5V196.8z" id="PATH_38" class="area" title=""></path>
	<path d="M300.6,194v0.4c0,0.7-0.1,1.1-0.3,1.4c-0.5,0.7-1.3,1-2.6,1h-1.4v-1.2h1c1.7,0,2.6-0.3,2.8-0.8c0-0.1,0-0.1,0-0.2
		c0-0.2,0-0.3-0.1-0.4c-0.4,0.1-0.9,0.1-1.3,0.1c-0.9,0-1.4-0.4-1.4-1.2c0-0.5,0.1-1.1,0.4-1.6c0.3-0.6,0.7-0.9,1.2-0.9
		c0.4,0,0.8,0.3,1.1,0.8C300.4,192.2,300.6,193,300.6,194z M299.5,188.5l-0.8,0.8l-0.8-0.8l0.8-0.8L299.5,188.5z M299.9,193.1
		c0-0.3-0.1-0.6-0.3-0.9c-0.2-0.3-0.5-0.4-0.8-0.4c-0.2,0-0.4,0.1-0.6,0.2s-0.2,0.3-0.2,0.5c0,0.4,0.3,0.6,1,0.6
		C299.2,193.3,299.5,193.2,299.9,193.1z" id="PATH_39" class="area" title=""></path>
</g>
<g id="G_40" class="area" title="">
	<path d="M246.9,245.1c0,0.1,0.1,0.2,0,0.2c0,0-0.1,0-0.2,0h-0.3c0.2,3.8,0.3,6.5,0.2,8c-0.1,2.4-1.5,3.5-4.1,3.5
		c-0.9,0-1.5-0.2-2-0.5c-0.6-0.4-0.9-1-0.9-1.9c0-0.8,0.2-1.6,0.7-2.2c0.1-0.1,0.1-0.1,0.2-0.1c0.1,0,0.1,0,0.1,0.1c0,0,0,0.1,0,0.1
		c-0.2,0.5-0.3,1-0.3,1.4c0,0.6,0.2,1.1,0.7,1.5c0.4,0.3,0.9,0.5,1.6,0.5c1,0,1.8-0.2,2.5-0.5c0.6-0.3,0.9-0.6,0.9-1
		c0-4.3-0.1-7.6-0.4-9.8l0.7-0.6c0.1-0.1,0.1-0.1,0.2-0.1c0,0,0.1,0.1,0.1,0.2C246.5,244.2,246.7,244.6,246.9,245.1z" id="PATH_41" class="area" title=""></path>
	<path d="M253.1,250.9c0,1.4-0.9,2.1-2.8,2.1c-0.7,0-1.2-0.1-1.5-0.3c-0.4-0.2-0.6-0.7-0.6-1.3c0-0.3,0.1-0.6,0.2-0.9
		c0.1-0.1,0.1-0.2,0.2-0.2c0.1,0,0.1,0.1,0.1,0.3c0,0.1,0,0.2,0,0.3c0,0.4,0.2,0.7,0.6,0.8c0.2,0.1,0.6,0.1,1.1,0.1
		c1.5,0,2.2-0.2,2.2-0.7c0-0.7-0.9-1.7-2.6-2.9l0.3-1c0-0.1,0.1-0.1,0.1-0.1c0,0,0.1,0,0.2,0.1C252.2,248.5,253.1,249.8,253.1,250.9
		z" id="PATH_42" class="area" title=""></path>
	<path d="M258.1,253.1c0,1-0.3,1.9-0.9,2.8c-0.5,0.7-1,1.1-1.3,1.1c-0.8,0-1.4,0-2-0.1c-0.2,0-0.3-0.1-0.3-0.1s0.1-0.1,0.3-0.1
		c0.8-0.2,1.6-0.6,2.4-1.2c0.8-0.7,1.3-1.4,1.3-2.1c0-0.4-0.3-1-1-1.7l0.5-0.9c0-0.1,0.1-0.1,0.1-0.1c0,0,0.1,0.1,0.1,0.1
		c0.2,0.3,0.5,0.7,0.6,1.2C258,252.3,258.1,252.7,258.1,253.1z" id="PATH_43" class="area" title=""></path>
	<path d="M260.5,251.8c0,0.4-0.1,0.8-0.3,1.1c-0.1,0.2-0.2,0.3-0.2,0.3c0,0-0.1-0.1-0.1-0.4c0-1.2-0.2-4-0.6-8.5l0.8-0.8
		c0.1-0.1,0.1-0.1,0.1-0.1c0,0,0,0.1,0,0.2C260.5,244.9,260.5,247.6,260.5,251.8z" id="PATH_44" class="area" title=""></path>
</g>
<g id="G_45" class="area" title="">
	<path d="M301.8,302.6c0,1-0.3,1.9-0.9,2.8c-0.5,0.7-1,1.1-1.3,1.1c-0.8,0-1.4,0-2-0.1c-0.2,0-0.3-0.1-0.3-0.1s0.1-0.1,0.3-0.1
		c0.8-0.2,1.6-0.6,2.4-1.2c0.8-0.7,1.3-1.4,1.3-2.1c0-0.4-0.3-1-1-1.7l0.5-0.9c0-0.1,0.1-0.1,0.1-0.1c0,0,0.1,0.1,0.1,0.1
		c0.2,0.3,0.5,0.7,0.6,1.2C301.7,301.8,301.8,302.2,301.8,302.6z" id="PATH_46" class="area" title=""></path>
	<path d="M305.8,302.5h-0.7c-0.7,0-1.3-0.3-1.5-0.9c-0.2-0.4-0.3-1.1-0.3-1.9v-1.9c0-0.9-0.1-2.2-0.2-3.9l0.6-0.7
		c0.1-0.1,0.2-0.1,0.2,0c0.1,0.9,0.2,2.2,0.2,3.9v2.9c0,0.8,0.4,1.2,1.2,1.2h0.5V302.5z" id="PATH_47" class="area" title=""></path>
	<path d="M310.7,302.5H310c-0.9,0-1.5-0.3-1.9-0.9c-0.3,0.6-1,0.9-2.1,0.9h-0.6v-1.2h0.9c1,0,1.5-0.4,1.6-1.1c0-0.3,0.1-0.5,0.2-0.5
		s0.2,0.2,0.2,0.5c0.1,0.7,0.6,1.1,1.5,1.1h0.9V302.5z M307.4,304.7l-0.8,0.8l-0.8-0.8l0.8-0.8L307.4,304.7z M309.1,304.7l-0.8,0.8
		l-0.8-0.8l0.8-0.8L309.1,304.7z" id="PATH_48" class="area" title=""></path>
	<path d="M316.9,293.2c0,0.2-0.2,0.6-0.4,1.1l-2.5,0.8c-1.1,0.4-1.9,0.7-2.3,0.9c0.8,0.8,1.3,1.4,1.6,1.7c0.5,0.7,0.8,1.3,0.9,2
		c0,0.5,0,1-0.2,1.4c-0.3,0.9-1.4,1.3-3.1,1.3h-0.5v-1.2h0.6c0.8,0,1.4,0,1.7-0.1c0.7-0.2,1.1-0.5,1.1-1c0-0.7-0.5-1.5-1.6-2.5
		l-0.1,0.2c-0.1-0.1-0.3-0.3-0.5-0.6c-0.3-0.3-0.4-0.6-0.4-0.6c0-0.2,0-0.4,0.1-0.8c0.1-0.4,0.2-0.6,0.3-0.7
		c0.1-0.1,0.8-0.4,2.1-0.8C314.8,293.9,316,293.5,316.9,293.2z" id="PATH_49" class="area" title=""></path>
</g>
<g id="G_50" class="area" title="">
	<path d="M410.8,293.5h-0.5c-0.5,0-0.8,0-1-0.1c0,0.3,0.1,0.5,0.1,0.8c0,0.5-0.1,0.8-0.2,1.1c-0.3,0.7-0.8,1.3-1.8,1.7
		c-0.8,0.3-1.6,0.5-2.5,0.5c-0.9,0-1.6-0.2-2.2-0.6c-0.6-0.5-0.9-1.1-0.9-2c0-0.5,0.1-0.9,0.3-1.5c0.2-0.4,0.3-0.7,0.5-0.9
		c0.1-0.1,0.2-0.1,0.2-0.1c0.1,0,0.1,0,0.1,0.1c0,0,0,0.1,0,0.2c-0.3,0.6-0.4,1.2-0.4,1.7c0,0.5,0.2,0.9,0.5,1.3
		c0.4,0.5,1.1,0.7,2,0.7c1,0,1.9-0.2,2.6-0.5c0.6-0.3,1-0.6,1.2-1c0.1-0.1,0.1-0.3,0-0.7c0-0.3-0.1-0.6-0.1-0.7
		c-0.1-0.3-0.5-0.8-1-1.5l0.4-0.8c0.1-0.1,0.1-0.2,0.1-0.2s0.1,0,0.1,0.1c0.5,0.8,1,1.2,1.6,1.2h0.8V293.5z M406.4,289l-0.8,0.8
		l-0.8-0.8l0.8-0.8L406.4,289z" id="PATH_51" class="area" title=""></path>
	<path d="M418.6,290.6l-0.4,0.8c-0.7,0-1.3,0-1.6,0.1c-0.4,0.2-1,0.4-1.8,0.8c-0.8,0.4-1.4,0.7-1.8,0.8c-0.6,0.2-1.3,0.3-1.9,0.3
		h-0.7v-1.2h0.8c0.9,0,1.7-0.2,2.4-0.5l2.3-1c-0.4-0.1-1-0.3-1.8-0.6c-0.7-0.3-1.1-0.4-1.3-0.4c-0.4,0-0.8,0.2-1.2,0.5
		c-0.1,0.1-0.1,0.1-0.2,0.1c-0.1,0-0.1,0-0.1-0.1c0,0,0-0.1,0-0.1c0.3-1,0.9-1.4,1.7-1.4c0.3,0,0.7,0.1,1.1,0.3
		c0.8,0.4,1.4,0.6,1.8,0.8c0.7,0.2,1.5,0.4,2.4,0.4c0.2,0,0.3,0,0.3,0.1C418.7,290.4,418.7,290.5,418.6,290.6z M415.3,295.5
		l-0.8,0.8l-0.8-0.8l0.8-0.8L415.3,295.5z" id="PATH_52" class="area" title=""></path>
	<path d="M423.9,293.1c0,1.5-0.5,2.8-1.5,3.8c-0.3,0.3-0.5,0.5-0.6,0.5c-0.6,0-1.2-0.1-1.9-0.2c-0.3,0-0.4-0.1-0.4-0.1
		c0,0,0.1-0.1,0.4-0.2c0.8-0.2,1.6-0.7,2.3-1.3c0.3-0.3,0.6-0.5,0.8-0.9c0.3-0.4,0.5-0.8,0.5-1.1v-0.3l-1.3,0
		c-0.9,0-1.4-0.4-1.4-1.1c0-0.5,0.1-1,0.4-1.6c0.3-0.6,0.7-1,1.1-1c0.6,0,1.1,0.4,1.4,1.3C423.8,291.6,423.9,292.3,423.9,293.1z
		 M423.2,292.3c0-0.3-0.1-0.6-0.3-0.9c-0.2-0.3-0.5-0.5-0.8-0.5c-0.2,0-0.4,0.1-0.5,0.2s-0.2,0.3-0.2,0.5c0,0.5,0.3,0.7,1,0.7
		C422.5,292.4,422.8,292.3,423.2,292.3z" id="PATH_53" class="area" title=""></path>
	<path d="M430.1,293.5h-0.4c-0.4,0-0.6-0.1-0.8-0.2c0,0.1,0,0.2,0,0.3c0,0.9-0.3,1.8-0.9,2.7c-0.5,0.8-1,1.1-1.3,1.1
		c-0.8,0-1.4,0-2-0.1c-0.2,0-0.3-0.1-0.3-0.1s0.1-0.1,0.3-0.1c0.8-0.2,1.6-0.6,2.4-1.2c0.8-0.7,1.3-1.4,1.3-2.1c0-0.4-0.3-1-1-1.7
		l0.5-0.9c0-0.1,0.1-0.1,0.1-0.1c0,0,0.1,0.1,0.1,0.1c0.3,0.4,0.5,0.7,0.7,0.8c0.3,0.2,0.7,0.4,1.1,0.4h0.3V293.5z" id="PATH_54" class="area" title=""></path>
	<path d="M432.5,291.5c0,1.3-0.7,2-2,2h-0.8v-1.2h0.7c1,0,1.5-0.2,1.5-0.5c0-0.3-0.2-0.7-0.7-1.2l0.4-1c0-0.1,0.1-0.1,0.1-0.1
		s0.1,0.1,0.2,0.2C432.3,290.2,432.5,290.9,432.5,291.5z M432.2,295.7l-0.8,0.8l-0.8-0.8l0.8-0.8L432.2,295.7z" id="PATH_55" class="area" title=""></path>
</g>
<g id="G_56" class="area" title="">
	<path d="M348.9,404.9c0.1,0.3,0.1,0.6,0.1,0.9c0,0.4-0.1,0.7-0.2,1.1c-0.3,0.7-0.8,1.3-1.8,1.7c-0.8,0.3-1.6,0.5-2.5,0.5
		c-0.9,0-1.6-0.2-2.2-0.6c-0.6-0.5-0.9-1.1-0.9-2c0-0.5,0.1-0.9,0.3-1.5c0.2-0.4,0.3-0.7,0.5-0.9c0.1-0.1,0.2-0.1,0.2-0.1
		c0.1,0,0.1,0,0.1,0.1c0,0,0,0.1,0,0.2c-0.3,0.6-0.4,1.2-0.4,1.7c0,0.5,0.2,0.9,0.5,1.3c0.4,0.5,1.1,0.7,2,0.7c1,0,1.9-0.2,2.6-0.5
		c0.6-0.3,1-0.6,1.2-1c0.1-0.1,0.1-0.3,0.1-0.4c0-0.3-0.1-0.6-0.2-1c-0.1-0.3-0.4-0.8-0.9-1.6l0.4-0.8c0.1-0.1,0.1-0.2,0.1-0.2
		s0.1,0,0.1,0.1C348.5,403.3,348.8,404.1,348.9,404.9z M346,400.5l-0.8,0.8l-0.8-0.8l0.8-0.8L346,400.5z" id="PATH_57" class="area" title=""></path>
	<path d="M353,405h-0.7c-0.7,0-1.3-0.3-1.5-0.9c-0.2-0.4-0.3-1.1-0.3-1.9v-1.9c0-0.9-0.1-2.2-0.2-3.9l0.6-0.7c0.1-0.1,0.2-0.1,0.2,0
		c0.1,0.9,0.2,2.2,0.2,3.9v2.9c0,0.8,0.4,1.2,1.2,1.2h0.5V405z" id="PATH_58" class="area" title=""></path>
	<path d="M359,396.9c0,0.2-0.1,0.5-0.3,1.1c-1.2,0.3-2.7,0.8-4.4,1.3c1.2,1.2,1.9,2.2,2,2.9c0.1,0.5,0,1-0.2,1.5
		c-0.2,0.5-0.6,0.8-1.1,1c-0.4,0.2-1.1,0.2-2,0.2h-0.4v-1.2h0.3c1.9,0,2.9-0.3,2.9-1c0-0.5-0.5-1.3-1.6-2.3l-0.1,0.3
		c-0.1-0.1-0.3-0.3-0.5-0.6c-0.3-0.3-0.4-0.5-0.4-0.6c0-0.3,0.1-0.6,0.4-0.9c0.1-0.1,0.7-0.3,2-0.7C356.9,397.5,358,397.2,359,396.9
		z M358.8,395.4l-0.2,0.7l-4.9,1.6l0.2-0.7L358.8,395.4z" id="PATH_59" class="area" title=""></path>
	<path d="M364.9,402.9c0,1.4-0.9,2.1-2.8,2.1c-0.7,0-1.2-0.1-1.5-0.3c-0.4-0.2-0.6-0.7-0.6-1.3c0-0.3,0.1-0.6,0.2-0.9
		c0.1-0.1,0.1-0.2,0.2-0.2c0.1,0,0.1,0.1,0.1,0.3c0,0.1,0,0.2,0,0.3c0,0.4,0.2,0.7,0.6,0.8c0.2,0.1,0.6,0.1,1.1,0.1
		c1.5,0,2.2-0.2,2.2-0.7c0-0.7-0.9-1.7-2.6-2.9l0.3-1c0-0.1,0.1-0.1,0.1-0.1c0,0,0.1,0,0.2,0.1C364,400.5,364.9,401.8,364.9,402.9z" id="PATH_60" class="area" title=""></path>
	<path d="M371.1,405h-0.4c-0.4,0-0.6-0.1-0.8-0.2c0,0.1,0,0.2,0,0.3c0,0.9-0.3,1.8-0.9,2.7c-0.5,0.8-1,1.1-1.3,1.1
		c-0.8,0-1.4,0-2-0.1c-0.2,0-0.3-0.1-0.3-0.1s0.1-0.1,0.3-0.1c0.8-0.2,1.6-0.6,2.4-1.2c0.8-0.7,1.3-1.4,1.3-2.1c0-0.4-0.3-1-1-1.7
		l0.5-0.9c0-0.1,0.1-0.1,0.1-0.1c0,0,0.1,0.1,0.1,0.1c0.3,0.4,0.5,0.7,0.7,0.8c0.3,0.2,0.7,0.4,1.1,0.4h0.3V405z" id="PATH_61" class="area" title=""></path>
	<path d="M373.4,397.1c0.1,0.1,0.1,0.2,0.1,0.2c0,0-0.1,0-0.2,0H373c0.1,1.3,0.1,3.2,0.1,5.7c0,0.6-0.1,1.1-0.4,1.4
		c-0.3,0.4-0.8,0.6-1.3,0.6h-0.6v-1.2h0.5c0.8,0,1.2-0.3,1.1-0.9c-0.1-2.1-0.2-4.3-0.3-6.5l0.7-0.6c0.1-0.1,0.2-0.2,0.2-0.2
		c0,0,0,0.1,0.1,0.2C373,396.1,373.2,396.5,373.4,397.1z" id="PATH_62" class="area" title=""></path>
</g>
</svg>


