



    


<svg version="1.1" id="Layer_1" xmlns="http://www.w3.org/2000/svg" xmlns:xlink="http://www.w3.org/1999/xlink" x="0px" y="0px" viewBox="0 0 472 515.1" style="enable-background:new 0 0 472 515.1;" xml:space="preserve" width="100%" height="100%">
<style type="text/css">
	.st0{fill:#FBD0D1;stroke:#010101;stroke-width:0.2;stroke-miterlimit:10;}
	.st1{fill:#DBECCB;stroke:#010101;stroke-width:0.2;stroke-miterlimit:10;}
	.st2{fill:#E8D0E5;stroke:#010101;stroke-width:0.2;stroke-miterlimit:10;}
	.st3{fill:#FDFAD4;stroke:#010101;stroke-width:0.2;stroke-miterlimit:10;}
	.st4{fill:none;stroke:#020202;stroke-width:0.5;stroke-miterlimit:10;}
	.st5{font-family:'BNazanin';}
	.st6{font-size:16px;}
</style>

		<path class="st0 area" d="M180.6,80.9c1.4,0.7,2.2,2.9,2.9,5.1c7.2,9.4,23.9,9.4,23.1,21.7c0,2.9-8.7,6.5-6.5,11.6
			c4.3,11.6,16.6,14.5,28.2,11.6c9.4-2.2,21.7-5.8,23.9-16.6c3.6-13,8.7-23.1,13.7-34.7c4.3-10.1,1.4-23.9-2.9-36.2
			c-1.5-4.5,0.4-8.6,2.2-12.8c-4.5-1.6-7.3-2.7-8.1-3.3c-0.6-0.5-6.6-3-48.2-16.8l-1.5-0.5c-3.5-1.2-10.6-2-12.3-1.1
			c-2,1-9.4,1.5-11.9,1.7c0,0.8,0,1.2,0,1.2c0,0.2-1.1,8.2-1.1,10.9c0,0.3,0,0.6,0,0.9c0.1,2.8,0.1,7.5-3.9,9.2
			c-0.8,0.4-1.8,0.7-2.7,1.1c-3.2,1.3-7.3,3-8.4,4.1c-0.6,0.6-1.6,1.2-2.8,1.9c1.1,1.6,1.8,3.3,1.8,5
			C166.9,58.5,167.6,71.5,180.6,80.9z" id="_x631__x627__x648__x631_" title="راور"></path>
		<path class="st1 area" d="M135.8,120c0.7,2.2,2.2,4.3,3.6,4.3c12.3-0.7,21.7,4.3,32.5,10.1c2.2,0.7,3.6-0.7,4.3-2.2
			c2.2-3.6,2.2-6.5,5.8-8c4.3-0.7,8,1.4,12.3,0.7c3.1-0.4,4-3.6,5.8-5.8c-2.1-5,6.5-8.7,6.5-11.6c0.7-12.3-15.9-12.3-23.1-21.7
			c-0.7-2.2-1.4-4.3-2.9-5.1c-1.9-1.4-3.5-2.8-4.9-4.3c-4.1,5-5.4,9.7-0.2,17.3c0,0.7-2.2,1.4-2.2,2.9c-8-7.2-13.7,2.9-22.4,2.9
			c-1.4,0.7-3.6,0-4.3-1.4c-6.9-11.5-14.7-21.1-24.1-29.7c-2.8,1.7-5.7,3.3-8.1,4.4c0.5,13.1,10,25,19.1,34.7
			C136.5,110.6,132.9,115.6,135.8,120z" id="_x632__x631__x646__x62F_" title="زرند"></path>
		<path class="st2 area" d="M112,119.2c-9.4,5.1-21.7,8.7-20.2,23.1c0,3.6-9.4,5.8-7.2,10.9c3.6,8.7,15.9,8,24.6,6.5
			c3.6,0,8.7-5.1,10.1-0.7c2.2,5.8-3.6,10.8-5.1,15.9c-2.2,12.3,12.3,20.3,23.1,21c0.7,0,2.2-2.2,2.9-3.6c3.6-5.1,0-12.3,2.2-15.2
			c6.5-7.2,18.1-5.8,26-11.6c2.9-2.2,3.6-7.2,7.2-9.4c2.2-0.7,5.1,0.7,5.8,0c5.1-8-2.9-13-7.2-18.8c-0.6-0.8-0.9-1.7-0.9-2.7
			c-0.4,0-0.8,0-1.3-0.2c-10.8-5.8-20.2-10.8-32.5-10.1c-1.4,0-2.9-2.2-3.6-4.3c-2.9-4.3,0.7-9.4-2.2-12.3
			C124.5,98,115,86.1,114.5,73c-1.5,0.7-2.7,1.2-3.6,1.6c-5.9,2.2-14.6,4.9-14.7,4.9c-0.1,0-7.3,2.8-13.6,5.3
			C88.9,98.2,106.2,104.4,112,119.2z" id="_x631__x641__x633__x646__x62C__x627__x646_" title="رفسنجان"></path>
		<path class="st3 area" d="M114.1,174.9c1.4-5.1,7.2-10.1,5.1-15.9c-1.4-4.3-6.5,0.7-10.1,0.7c-8.7,1.4-21,2.2-24.6-6.5
			c-2.2-5.1,7.2-7.2,7.2-10.9c-0.2-2.4-0.1-4.5,0.3-6.3c-5.1,0.2-9.7-1.7-9.7-5.2c2-18.4-15.9-25.3-23.4-38.2
			c-2.8,0.8-4.9,1.4-5.1,1.5l-0.3,0.1l-0.3-0.1c-2.6-1.2-10.3-4.1-13.6-3.7c-4.2,0.5-9.5,2.1-11.2,2.7c-1.2,0.4-4,1.4-5.3,1.9
			l1.1,43.3l-0.4,0.3c-0.4,0.3-9.8,7.1-12.6,8.7c-1.4,0.8-3.1,1.9-3.2,2.7c0,0.6,0.6,1.2,1.1,1.7c1.6,1.3,3.6,4,5.6,6.7
			c1.8,2.4,4.5,5.9,5.4,6.2c2.3,0.6,3.8,2.7,4.5,6.2c0.4,2,1.1,16.6,1.4,25.7c8.9,4.6,20-0.4,28.8-4.8c12.3-5.8,21.7,5.8,33.3,4.3
			c3.6-0.7,8-5.1,12.3-5.8c5.4-1.2,10.6-3.4,15.2-6.4C114.2,181.1,113.5,178.2,114.1,174.9z" id="_x634__x647__x631___x628__x627__x628__x6A9_" title="شهر بابک"></path>
		<path class="st0 area" d="M82.3,130.8c0,3.6,4.7,5.5,9.7,5.2c2.2-9.4,12.1-12.6,19.9-16.8c-5.8-14.8-23.1-21-29.3-34.5
			c-4,1.6-7.6,3-8.6,3.4c-1.8,0.7-9.7,3-15.1,4.6C66.4,105.5,84.4,112.4,82.3,130.8z" id="_x627__x646__x627__x631_" title="انار"></path>
		<path class="st1 area" d="M168.4,224.1c1.4-13-13.7-13.7-22.4-18.8c-4-2.2-5.6-6.4-7.4-10.5c-0.5,0.6-1,1.1-1.3,1.1
			c-8-0.5-17.9-5-21.7-12.1c-4.6,3-9.8,5.2-15.2,6.4c-4.3,0.7-8.7,5.1-12.3,5.8c-11.6,1.4-21-10.1-33.3-4.3
			c-8.8,4.4-19.9,9.4-28.8,4.8c0.1,3.7,0.2,6.4,0.2,7.1c0,1.5,2.2,9.8,3.7,15.2c0.4,0.1,0.7,0.1,1,0.2c2.6,0.5,16.1,2.1,16.2,2.2
			l0.5,0.1l0.2,0.4c0,0,2.7,4.9,4.8,8.1c1,1.5,6.4,8.1,12.1,15.1c6.7,8.2,13.6,16.7,15.6,19.6c4.2,6,1.6,23,0.7,25.9
			c-0.6,1.7,0.1,5.7,0.8,8.9c2.3-0.1,7.2,0,9.9,3.2c2.7,3.2,5.9,3.6,10.2,1.4c2.3-1.2,5.4-2.8,8.4-4.3c2.5-1.3,4.8-2.5,6.3-3.3
			c0.6-0.3,1.3-0.7,2.1-1c3.5-1.8,7.8-4,10.1-4.5c2.7-0.5,7-1.6,7-1.6l0.1,0l6.6-0.7l-0.1,0.8c13.9-14.6,9.5-37.4,18.6-55.5
			C162.6,229.9,168.4,228.4,168.4,224.1z" id="_x633__x6CC__x631__x62C__x627__x646_" title="سیرجان"></path>
		<path class="st1 area" d="M360,292.1c-4.3-1.4-4.3,5.1-6.5,5.8c-7.2,2.9-10.1-5.8-15.9-8.7c-3.6-1.4-6.5,2.9-8,5.8
			c-1.4,3.6,1.4,7.2,0,11.6c-0.7,2.2-2.9,3.6-3.6,5.8c-2.2,7.2,0.7,14.5-5.1,21.7c-5.1,5.8,1.4,13.7,7.2,15.9
			c9.8,3.5,20.6,3.2,30,6.7c1.3-1.5,3.1-2.6,5.5-2.6c7.1,0,7.7-1.3,7.7-2.8v-13.2l-5.2-6.2c-0.1-0.1-1.1-1.1-0.8-2.6
			c0.2-1.1,1.2-2.1,2.8-2.8c3.7-1.6,7.4-4.2,7.4-4.2l0.3-0.2l0.4,0c0.2,0,22.3,1.6,24.9,1.6c1.5,0,2.7-0.4,3-0.9
			c0.3-0.5-0.2-1.4-0.5-1.9c-1.6-2.4-1.9-13.4-1.9-20.6c-11.4-3.4-24.5-2.9-36.7-3.8C362.9,296.4,361.4,292.8,360,292.1z" id="_x631__x6CC__x6AF__x627__x646_" title="ریگان"></path>
		<path class="st0 area" d="M203.1,232.8c11.6-3.6,21,9.4,31.1,2.9c3.6-2.2,6.5-8.7,2.2-12.3c-10.1-9.4-12.3-19.5-15.9-31.8
			c-2.9-13.7-23.1-7.2-37.6-10.1c-7.6-1.2-11.9-8.5-17.1-14.3c-7.7,4-17.6,3.5-23.4,10c-2.2,2.9,1.4,10.1-2.2,15.2
			c-0.4,0.8-1,1.8-1.6,2.5c1.8,4.1,3.3,8.3,7.4,10.5c8.7,5,23.8,5.8,22.4,18.7c3.9,0,8.1,2.2,11.6,3.7c1.4,0.7,0,5.1,0.7,7.2
			c1.4,2.2,4.3,1.4,6.5,2.9c2.3,0.9,4,2.5,5.2,4.4C195.7,238.8,198,234.7,203.1,232.8z" id="_x628__x631__x62F__x633__x6CC__x631_" title="بردسیر"></path>
		<path class="st2 area" d="M319.5,415c-10.8-1.4-13-15.9-21.7-19.5c-10.1-3.6-9.4-14.5-14.5-21.7c-0.7,0-2.2-1.4-2.9-0.7
			c-4.3,6.5-16.6,11.6-12.3,19.5c4.3,8.7,0.7,16.6,1.4,24.6c2.2,9.4,13.7,11.6,20.2,19.5c0.7,1.4,1.4,3.6,0.7,5.8
			c-3.9,7.8-17.6,14.4-14.7,23.4c0.3,0,0.6,0,1,0c0.8,0,1.6,0,2.3,0c4.3-0.1,7.7-0.1,10.3,2.5c0.9,0.9,1.9,1.9,2.9,3
			c2.1,2.2,4.5,4.7,6.3,6.2c2.5,2,9.8,5.2,13.8,4.2c4.5-1.1,6.5-1.2,11.2,2.9c3.4,2.9,3.7,4.8,4.1,6.6c0.1,0.6,0.2,1.3,0.5,1.9
			c0.8,2,5,4.4,8.3,6.2c0.5,0.3,1.1,0.6,1.6,0.9c0.4,0.3,0.9,0.5,1.4,0.8c3.4,2,8.4,4.9,11,4.5c1.5-0.2,2.7-1.2,3.9-2
			c1.3-0.9,2.5-1.8,3.8-1.8c1.5,0,4.1-0.3,5.5-0.4c-0.3-2.6-1-9.8-1-11.6c0-6.9-1.6-8.6-3-8.8c-4.3-0.6-8.4-6.5-9-8.9
			c-0.6-2.5,0.1-3.9,1.7-7.2c1.4-2.9,0.5-5.7-0.6-8.4c-0.4-0.9-1.1-2.3-1.9-3.7c-1.9-3.5-3.1-6-3.1-7.5c0-2.2,1.1-8.6,1.1-8.9
			l2.4-21.4C340,414.6,330,416.3,319.5,415z" id="_x642__x644__x639__x647___x6AF__x646__x62C_" title="قلعه گنج"></path>
		<path class="st3 area" d="M256.6,386.8c-2.9,2.2-6.1,1.8-9.5,0.5c0.4,1.5,0.7,2.7,0.7,2.8l0.3,0.9l-0.8,0.3c-2.6,1-7.2,3.2-8.3,4.6
			c-1.6,2.2-5.4,5.9-5.5,6.1c-1.2,1.5-3,4.6-2.4,6.1c0.1,0.2,0.3,0.7,1.4,0.9c5.8,1.2,5.7,5.2,5.7,7.9l0,0.7c0,1.5,0.5,5.3,1,8.5
			c0.4,3,0.7,4.9,0.7,5.7c0,1.1,1.8,6.7,6.7,7.2c5.7,0.6,9.4,4.6,10.1,6.6c0.1,0.4,0.2,1,0.3,1.6c0.3,2.1,0.7,5,4.1,6.5
			c5.5,2.4,7.7,5.6,9.2,8.6c1.5,2.9,1.9,3.7,5.8,3.8c-2.8-9.1,10.9-15.7,14.7-23.4c0.7-2.2,0-4.3-0.7-5.8
			c-6.5-8-18.1-10.1-20.2-19.5c-0.7-8,2.9-15.9-1.4-24.6c-1.7-3.1-0.8-5.8,1.1-8.3C265.3,382.9,260.9,383.4,256.6,386.8z" id="_x645__x646__x648__x62C__x627__x646_" title="منوجان"></path>
		<path class="st0 area" d="M288.4,342c-6.5-3.6-12.3,4.3-16.6,9.4c-0.7,1.4-0.7,4.3,0,5.8c4.6,5.2,7.8,10.3,8.2,16.6
			c0.2-0.2,0.3-0.4,0.5-0.6c0.7-0.7,2.2,0.7,2.9,0.7c5.1,7.2,4.3,18.1,14.5,21.7c8.7,3.6,10.8,18.1,21.7,19.5
			c10.5,1.3,20.5-0.4,30.9-0.1l2-18.2c0.2-4.8,1.1-28.9,1.7-30.6c0.1-0.2,0.1-0.5,0.2-0.9c0.5-2,1.5-6,3.9-8.6
			c-9.5-3.5-20.2-3.2-30-6.7c-1.8-0.7-3.6-1.9-5.2-3.4C312.1,359.2,298.5,347,288.4,342z" id="_x631__x648__x62F__x628__x627__x631___x62C__x646__x648__x628__x6CC_" title="رودبار جنوبی"></path>
		<path class="st3 area" d="M349.1,272.5c1.4-4.3-2.9-10.1-8-8.7c-4.3,1.4-8.7,5.1-13.7,3.6c-2.2,0-4.3-2.9-7.2-2.2
			c-5.1,2.9-8.7,11.6-2.9,15.9c3.6,2.9,8,1.4,10.8,4.3c1.7,1.3,3.2,3.1,4.9,4.7c1.3-1.1,2.8-1.7,4.5-1c0.2,0.1,0.3,0.2,0.5,0.3
			c2.6-4.6,6.9-7.1,7.5-13.3C345.5,275.4,348.4,274,349.1,272.5z" id="_x646__x631__x645__x634__x6CC__x631_" title="نرمشیر"></path>
		<path class="st1 area" d="M260.2,360c-10.1,5.8-21.7-0.7-31.1,5.8c-3.5,2.2-5.4,5.8-7.2,9.7c1.2,0.8,2.5,1.3,3.8,1.3
			c4.8,0,9.6,0.5,12.7,0.8c1.4,0.1,2.5,0.3,3,0.3c3,0,4.8,1.6,4.8,4.2c0,1.3,0.4,3.4,0.8,5.1c3.3,1.4,6.6,1.7,9.5-0.5
			c4.4-3.4,8.7-3.9,12.6-2.5c2.8-3.7,8-6.9,10.7-10.6c-0.4-6.2-3.6-11.4-8.2-16.6c-0.7-1.4-0.7-4.3,0-5.8c0.2-0.3,0.4-0.5,0.6-0.8
			C267.2,350.6,265,357.3,260.2,360z" id="_x6A9__x647__x646__x648__x62C_" title="کهنوج"></path>
		<path class="st3 area" d="M307.9,303.6c-1.4-2.9-5.1-2.9-6.5-1.4c-12.3,10.8-26.8,15.9-42.7,16.6c-1.4,0-3.6,0.7-5.1,2.2
			c-5,8.4-7.9,18-15.2,23c0.2,0.6,0.5,1.1,0.7,1.6c0.7,1.4,3.6,4.3,5.8,4.3c7.2,2,14.5,1.6,18.4,7.4c2.9-3,5.1-6.8,9-6.8
			c4.3-5,9.8-12.1,16-8.6c10.1,5,23.7,17.2,34.6,4.5c-3.5-3.4-5.5-8.5-2-12.5c3.7-4.6,3.9-9.3,4-13.9
			C319.8,313.8,312.4,310.7,307.9,303.6z" id="_x627__x646__x628__x627__x631___x622__x628__x627__x62F_" title="انبار آباد"></path>
		<path class="st1 area" d="M283.3,280.5c-2.2-2.2-6.5-0.7-9.4-2.2c-0.7-0.7-2.9-2.9-2.9-4.3c2.9-11.6,0-23.9-10.8-28.2
			c-10.1-4.3-21,0.7-31.1,2.2c-1.4,0.3-2.8,0.5-4.3,0.6c-1.7,3.8-4.2,7.5-6.6,10.9c-2.2,2.9-0.7,8,1.4,11.6
			c3.9,10.3-5.5,15.4-13.7,13.9c0.6,6.7,0.6,13.4-0.8,20.1c-0.8,3.4-2.3,6.9-4.3,10.1c8.6,0.3,18.1-0.5,14.5,7.3
			c-0.2,0.3-0.4,0.7-0.5,1c2.6-0.8,5.2-1.6,7.7-0.3c0.7,0,0.7,3.6,2.2,3.6c10.1,2,10.8,10.2,13.7,17.2c7.3-5,10.2-14.6,15.2-23
			c1.4-1.4,3.6-2.2,5.1-2.2c15.9-0.7,30.4-5.8,42.7-16.6c0,0,0.1,0,0.1-0.1c-0.7-2.3-1.4-4.5-3-6.4
			C293.4,289.9,289.8,284.8,283.3,280.5z" id="_x62C__x6CC__x631__x641__x62A_" title="جیرفت"></path>
		<path class="st3 area" d="M265.3,239.3c1.4-0.7,2.2-2.9,3.6-3.6c5.8-1.4,11.6-4.3,16.6-8.7c5.8-5.1,8.7,7.2,10.1,13
			c3.6,10.1,18.1,16.6,23.9,6.5c3.6-6.5,5.1-16.6,11.6-18.8c10.8-2.2,23.1-10.1,31.1-7.2c10.5,4.7,22.3,11.2,33,7.5
			c-0.4-6.1-0.9-13.6-1.3-20.7c-0.9-14.6-1.7-27.3-1.7-28.3c0-0.2,0.4-18.5,1.8-20.6c0.6-0.9,1.4-6.5,2-11.6c-2.8-3-7.1-7.5-8.2-8.2
			c-0.9-0.6-4.4-5.4-12.3-16.7c-3.6-5.1-7.3-10.5-8-11.1c-1.1-1.1-2.2-3.4-3.1-5.5c-0.5-1.2-1-2.3-1.4-2.8c-0.1-0.2-0.3-0.4-0.4-0.7
			c-1.1-1.8-2.9-4.7-8.3-6.5c-6.6-2.2-13.9-9.8-16.3-13.4c-1.7-2.5-17.4-17.7-24.9-25c-2.1-2.1-3.7-3.6-4.3-4.2
			c-2-2-14.1-9.3-19.9-12.8c-2.1-1.2-3.4-2.1-3.8-2.3c-0.7-0.4-6.1-2.3-11-4c-3.3-1.1-6.2-2.2-8.6-3c-1.8,4.3-3.7,8.4-2.2,12.8
			c4.3,12.3,7.2,26,2.9,36.2c-5.1,11.6-10.1,21.7-13.7,34.7c-2.2,10.8-14.5,14.5-23.9,16.6c-11.6,2.9-23.9,0-28.2-11.6c0,0,0,0,0,0
			c-1.7,2.2-2.7,5.4-5.8,5.8c-4.3,0.7-8-1.4-12.3-0.7c-3.6,1.4-3.6,4.3-5.8,8c-0.6,1.1-1.6,2.3-3.1,2.4c0,1,0.3,1.9,0.9,2.7
			c4.3,5.8,12.3,10.8,7.2,18.8c-0.7,0.7-3.6-0.7-5.8,0c-3.6,2.2-4.3,7.2-7.2,9.4c-0.8,0.6-1.7,1.1-2.6,1.6
			c5.2,5.8,9.5,13.1,17.1,14.3c14.5,2.9,34.7-3.6,37.6,10.1c3.6,12.3,5.8,22.4,15.9,31.8c4.3,3.6,1.4,10.1-2.2,12.3
			c-2.3,1.5-4.5,1.9-6.8,1.8c0.2,3.6-0.8,7.4-2.5,11.1c1.4-0.1,2.8-0.3,4.3-0.6c10.1-1.4,21-6.5,31.1-2.2c2.4,1,4.5,2.4,6.1,4
			C268.1,246.7,268.4,243.2,265.3,239.3z" id="_x6A9__x631__x645__x627__x646_" title="کرمان"></path>
		<path class="st2 area" d="M358.5,250.1c1.8-9.6,5.6-19.6,13.4-25.3c-3.3-1.4-6.6-3-9.8-4.4c-8-2.9-20.2,5.1-31.1,7.2
			c-6.5,2.2-8,12.3-11.6,18.8c-5.8,10.1-20.3,3.6-23.9-6.5c-1.4-5.8-4.3-18.1-10.1-13c-5.1,4.3-10.8,7.2-16.6,8.7
			c-1.4,0.7-2.2,2.9-3.6,3.6c3.1,3.9,2.9,7.4,1.1,10.6c5.7,5.8,7,15.2,4.7,24.2c0,1.4,2.2,3.6,2.9,4.3c2.9,1.4,7.2,0,9.4,2.2
			c6.5,4.3,10.1,9.4,15.2,15.2c1.6,2,2.3,4.2,3,6.4c1.5-1.4,5-1.3,6.4,1.5c4.5,7.1,11.9,10.2,17.1,16.4c0.1-2.6,0.2-5.2,1-7.8
			c0.7-2.2,2.9-3.6,3.6-5.8c1.4-4.3-1.4-8,0-11.6c0.8-1.5,2-3.5,3.4-4.7c-1.7-1.5-3.2-3.3-4.9-4.7c-2.9-2.9-7.2-1.4-10.8-4.3
			c-5.8-4.3-2.2-13,2.9-15.9c2.9-0.7,5.1,2.2,7.2,2.2c5.1,1.4,9.4-2.2,13.7-3.6c1.4-0.4,2.7-0.2,3.9,0.3
			C350.2,259.7,356.8,256.9,358.5,250.1z" id="_x628__x645_" title="بم"></path>
		<path class="st0 area" d="M401.6,272.8c0.6-0.6,1.5-2.9-2.4-12c-1.7-4-3.3-17.2-3.3-19.9c0-0.7-0.3-5.9-0.7-12.9
			c-7.4,2.5-15.5,0.1-23.2-3.2c-7.8,5.6-11.6,15.7-13.4,25.3c-1.7,6.8-8.3,9.6-13.5,14c3.1,1.3,5.2,5.3,4.1,8.4
			c-0.7,1.4-3.6,2.9-3.6,3.6c-0.6,6.2-4.9,8.7-7.5,13.3c5.5,3.1,8.4,11.2,15.4,8.4c2.2-0.7,2.2-7.2,6.5-5.8c1.4,0.7,2.9,4.3,5.1,4.3
			c12.2,0.9,25.3,0.4,36.7,3.8c0-2.9,0-5.2,0.1-6c-0.8-5.3-2.1-11.5-3-12.4C396.6,279.5,399.3,275.1,401.6,272.8z" id="_x641__x647__x631__x62C_" title="فهرج"></path>
		<path class="st2 area" d="M245,349.9c-2.2,0-5.1-2.9-5.8-4.3c-3.6-7.2-3.6-16.6-14.5-18.8c-1.4,0-1.4-3.6-2.2-3.6
			c-2.6-1.3-5.2-0.5-7.7,0.3c-3,6.3-3.9,14.4-7.9,21l3.8-0.3l0.2,0.8c0.1,0.6,3.3,15.3,3.3,18.1c0,1.7,3.2,9.3,7.7,12.4
			c1.8-3.9,3.7-7.5,7.2-9.7c9.4-6.5,21,0,31.1-5.8c1.2-0.7,2.3-1.6,3.3-2.7C259.5,351.5,252.2,351.9,245,349.9z" id="_x641__x627__x631__x6CC__x627__x628_" title="فاریاب"></path>
		<path class="st2 area" d="M219.7,271.1c-2.2-3.6-3.6-8.7-1.4-11.6c4.8-6.7,9.6-14.7,9.1-22c-7.7-0.4-15.3-7.5-24.3-4.7
			c-5.1,1.9-7.4,6-10.7,9.4c2.5,4,3,9.8,3.5,15.2c0,2.2,5.1,2.9,5.8,4.3c1.9,7.8,3.7,15.5,4.4,23.3
			C214.2,286.5,223.6,281.4,219.7,271.1z" id="_x631__x627__x628__x631_" title="رابر"></path>
		<path class="st0 area" d="M200.9,315.1c-5.3,8.4-13.9,15.2-21.7,15.2c-4.3,0-9.4-15.2-15.2-8.7c-9.3,9.3-17.1,2.8-25.1-2.8
			c-0.6,4.9-1.1,16.8-0.3,18.8c1,2.6,3.7,7.4,6.8,9.9c0.4,0.4,0.9,0.8,1.5,1.2c3.2,2.7,8,6.8,10.6,7.3c2.1,0.4,5.7,0.5,10.7,0.5
			c0.8,0,3.4-0.1,5.9-0.3c2.7-0.1,5.2-0.3,6-0.3c1.5,0,5.2-1.6,5.6-3.1l1.8-7.2l19.5-1.5c4.2-6.9,4.9-15.6,8.4-22
			C219,314.6,209.5,315.4,200.9,315.1z" id="_x627__x631__x632__x648__x626__x6CC__x647_" title="ارزوئیه"></path>
		<path class="st3 area" d="M164,321.7c5.8-6.5,10.8,8.7,15.2,8.7c10.8,0,23.1-13,26-25.3c2.9-14.5,0-28.9-3.6-43.4
			c-0.7-1.4-5.8-2.2-5.8-4.3c-0.7-8-1.4-16.6-8.7-19.5c-2.2-1.4-5.1-0.7-6.5-2.9c-0.7-2.2,0.7-6.5-0.7-7.2
			c-3.5-1.5-7.7-3.7-11.6-3.7c0,0,0,0.1,0,0.1c0,4.3-5.8,5.8-7.2,9.4c-9.1,18.1-4.7,40.9-18.6,55.5l0,0.4c-0.1,1-2.7,25.6-3.3,27.8
			c-0.1,0.3-0.2,0.9-0.3,1.7C146.9,324.5,154.8,331,164,321.7z" id="_x628__x627__x641__x62A_" title="بافت"></path>
		<path class="st3 area" d="M146.7,98.3c0.7,1.4,2.9,2.2,4.3,1.4c8.7,0,14.5-10.1,22.4-2.9c0-1.4,2.2-2.2,2.2-2.9
			c-5.2-7.6-3.9-12.3,0.2-17.3c-8.3-8.9-9-20.1-9.6-31.9c0-1.7-0.7-3.4-1.8-5c-2.4,1.3-5.2,2.5-5.7,2.7l-5,2.5l-0.5-0.6
			c0,0-2.5-2.9-5.2-2.9c-3.1,0-8.8,2.1-8.8,5.5c0,2.5-1.2,4-2.3,5.4c-1,1.3-2.1,2.6-2.6,5.1c-0.7,3.5-6.1,7.7-11.8,11.1
			C132,77.2,139.8,86.8,146.7,98.3z" id="_x6A9__x648__x647__x628__x627__x646__x627__x646_" title="کوهبانان"></path>

	<line class="st4 area" x1="149.4" y1="64.7" x2="132.8" y2="36.1" id="LINE_26" title=""></line>
	<line class="st4 area" x1="260.3" y1="423.5" x2="229.7" y2="436.1" id="LINE_27" title=""></line>
	<line class="st4 area" x1="226.4" y1="351.7" x2="200.9" y2="372.8" id="LINE_28" title=""></line>
	<line class="st4 area" x1="407.2" y1="234.1" x2="336.5" y2="274.2" id="LINE_29" title=""></line>
	<line class="st4 area" x1="213.6" y1="259.4" x2="114.5" y2="344.7" id="LINE_30" title=""></line>

<g id="G_31" class="area" title="">
	<path d="M112,30.3c0.1,0.3,0.1,0.6,0.1,0.9c0,0.4-0.1,0.7-0.2,1.1c-0.3,0.7-0.8,1.3-1.8,1.7c-0.8,0.3-1.6,0.5-2.5,0.5
		c-0.9,0-1.6-0.2-2.2-0.6c-0.6-0.5-0.9-1.1-0.9-2c0-0.5,0.1-0.9,0.3-1.5c0.2-0.4,0.3-0.7,0.5-0.9c0.1-0.1,0.2-0.1,0.2-0.1
		c0.1,0,0.1,0,0.1,0.1c0,0,0,0.1,0,0.2c-0.3,0.6-0.4,1.2-0.4,1.7c0,0.5,0.2,0.9,0.5,1.3c0.4,0.5,1.1,0.7,2,0.7c1,0,1.9-0.2,2.6-0.5
		c0.6-0.3,1-0.6,1.2-1c0.1-0.1,0.1-0.3,0.1-0.4c0-0.3-0.1-0.6-0.2-1c-0.1-0.3-0.4-0.8-0.9-1.6l0.4-0.8c0.1-0.1,0.1-0.2,0.1-0.2
		s0.1,0,0.1,0.1C111.6,28.8,111.9,29.5,112,30.3z M109,26l-0.8,0.8l-0.8-0.8l0.8-0.8L109,26z" id="PATH_32" class="area" title=""></path>
	<path d="M116,30.5h-0.7c-0.7,0-1.3-0.3-1.5-0.9c-0.2-0.4-0.3-1.1-0.3-1.9v-1.9c0-0.9-0.1-2.2-0.2-3.9l0.6-0.7
		c0.1-0.1,0.2-0.1,0.2,0c0.1,0.9,0.2,2.2,0.2,3.9v2.9c0,0.8,0.4,1.2,1.2,1.2h0.5V30.5z" id="PATH_33" class="area" title=""></path>
	<path d="M118.4,28.5c0,1.3-0.7,2-2,2h-0.8v-1.2h0.7c1,0,1.5-0.2,1.5-0.5c0-0.3-0.2-0.7-0.7-1.2l0.4-1c0-0.1,0.1-0.1,0.1-0.1
		c0,0,0.1,0.1,0.2,0.2C118.2,27.2,118.4,27.8,118.4,28.5z M118.4,23.9l-0.8,0.8l-0.8-0.8l0.8-0.8L118.4,23.9z" id="PATH_34" class="area" title=""></path>
	<path d="M122.4,30.5h-0.7c-0.7,0-1.3-0.3-1.5-0.9c-0.2-0.4-0.3-1.1-0.3-1.9v-1.9c0-0.9-0.1-2.2-0.2-3.9l0.6-0.7
		c0.1-0.1,0.2-0.1,0.2,0c0.1,0.9,0.2,2.2,0.2,3.9v2.9c0,0.8,0.4,1.2,1.2,1.2h0.5V30.5z" id="PATH_35" class="area" title=""></path>
	<path d="M127.3,30.5h-0.8c-0.9,0-1.5-0.3-1.9-0.9c-0.3,0.6-1,0.9-2.1,0.9H122v-1.2h0.9c1,0,1.5-0.4,1.6-1.1c0-0.3,0.1-0.5,0.2-0.5
		c0.1,0,0.2,0.2,0.2,0.5c0.1,0.7,0.6,1.1,1.5,1.1h0.9V30.5z M125.1,32.7l-0.8,0.8l-0.8-0.8l0.8-0.8L125.1,32.7z" id="PATH_36" class="area" title=""></path>
	<path d="M133.4,28.4c0,0.4-0.1,0.8-0.4,1.2c-0.3,0.5-0.6,0.7-1,0.7c-0.3,0-1-0.2-2.1-0.7c-0.9,0.6-1.7,0.8-2.4,0.8h-0.5v-1.2h0.6
		c0.4,0,0.8,0,1.2-0.1c-0.4-0.3-0.6-0.7-0.6-1.2c0-0.6,0.4-1.3,1.3-2l-0.7-0.3c0.2-0.2,0.5-0.5,0.9-0.9c0.9,0.5,1.7,0.9,2.4,1.5
		C132.9,27,133.4,27.7,133.4,28.4z M130.8,27.6c0-0.3-0.1-0.5-0.2-0.7c-0.1-0.3-0.3-0.4-0.6-0.4c-0.3,0-0.5,0.1-0.8,0.3
		c-0.3,0.2-0.5,0.5-0.5,0.7c0,0.4,0.4,0.8,1.1,1c0.2-0.1,0.4-0.2,0.6-0.3C130.7,28,130.8,27.8,130.8,27.6z M132.9,28.8
		c0-0.3-0.2-0.6-0.6-1c-0.3-0.3-0.6-0.6-0.9-0.7c0,0.8-0.2,1.4-0.7,1.8c0.8,0.3,1.4,0.4,1.6,0.4C132.7,29.3,132.9,29.1,132.9,28.8z" id="PATH_37" class="area" title=""></path>
	<path d="M139.6,30.5h-1.1c-0.1,1.4-0.6,2.5-1.6,3.5c-0.3,0.3-0.5,0.5-0.6,0.5c-0.5,0-1.2-0.1-1.9-0.2c-0.2,0-0.4-0.1-0.4-0.1
		s0.1-0.1,0.4-0.2c0.8-0.2,1.6-0.7,2.3-1.2c0.3-0.3,0.6-0.5,0.8-0.9c0.3-0.4,0.5-0.8,0.5-1.1v-0.3h-1.3c-1,0-1.4-0.4-1.4-1.2
		c0-0.5,0.1-1,0.4-1.6c0.3-0.6,0.7-1,1.1-1c0.5,0,0.9,0.3,1.2,1c0.2,0.5,0.4,1,0.4,1.6h1.1V30.5z M137.8,29.3c0-0.3-0.1-0.6-0.3-0.9
		c-0.2-0.4-0.5-0.5-0.8-0.5c-0.2,0-0.4,0.1-0.5,0.2c-0.2,0.2-0.2,0.3-0.2,0.6c0,0.5,0.4,0.7,1.2,0.7
		C137.3,29.3,137.5,29.3,137.8,29.3z" id="PATH_38" class="area" title=""></path>
	<path d="M145.8,21.2c0,0.2-0.2,0.6-0.4,1.1l-2.5,0.8c-1.1,0.4-1.9,0.7-2.3,0.9c0.8,0.8,1.3,1.4,1.6,1.7c0.5,0.7,0.8,1.3,0.9,2
		c0,0.5,0,1-0.2,1.4c-0.3,0.9-1.4,1.3-3.1,1.3h-0.5v-1.2h0.6c0.8,0,1.4,0,1.7-0.1c0.7-0.2,1.1-0.5,1.1-1c0-0.7-0.5-1.5-1.6-2.5
		l-0.1,0.2c-0.1-0.1-0.3-0.3-0.5-0.6c-0.3-0.3-0.4-0.6-0.4-0.6c0-0.2,0-0.4,0.1-0.8c0.1-0.4,0.2-0.6,0.3-0.7
		c0.1-0.1,0.8-0.4,2.1-0.8C143.7,21.8,144.9,21.4,145.8,21.2z" id="PATH_39" class="area" title=""></path>
</g>
<g id="G_40" class="area" title="">
	<path d="M219.9,68.7c0,1-0.3,1.9-0.9,2.8c-0.5,0.7-1,1.1-1.3,1.1c-0.8,0-1.4,0-2-0.1c-0.2,0-0.3-0.1-0.3-0.1s0.1-0.1,0.3-0.1
		c0.8-0.2,1.6-0.6,2.4-1.2c0.8-0.7,1.3-1.4,1.3-2.1c0-0.4-0.3-1-1-1.7l0.5-0.9c0-0.1,0.1-0.1,0.1-0.1c0,0,0.1,0.1,0.1,0.1
		c0.2,0.3,0.5,0.7,0.6,1.2C219.8,67.9,219.9,68.4,219.9,68.7z" id="PATH_41" class="area" title=""></path>
	<path d="M225.1,68.2c0,1.5-0.5,2.8-1.5,3.8c-0.3,0.3-0.5,0.5-0.6,0.5c-0.6,0-1.2-0.1-1.9-0.2c-0.3,0-0.4-0.1-0.4-0.1
		c0,0,0.1-0.1,0.4-0.2c0.8-0.2,1.6-0.7,2.3-1.3c0.3-0.3,0.6-0.5,0.8-0.9c0.3-0.4,0.5-0.8,0.5-1.1v-0.3l-1.3,0
		c-0.9,0-1.4-0.4-1.4-1.1c0-0.5,0.1-1,0.4-1.6c0.3-0.6,0.7-1,1.1-1c0.6,0,1.1,0.4,1.4,1.3C225,66.8,225.1,67.4,225.1,68.2z
		 M224.4,67.4c0-0.3-0.1-0.6-0.3-0.9c-0.2-0.3-0.5-0.5-0.8-0.5c-0.2,0-0.4,0.1-0.5,0.2c-0.2,0.2-0.2,0.3-0.2,0.5
		c0,0.5,0.3,0.7,1,0.7C223.7,67.5,224,67.4,224.4,67.4z" id="PATH_42" class="area" title=""></path>
	<path d="M227.4,67.4c0,0.4-0.1,0.8-0.3,1.1c-0.1,0.2-0.2,0.3-0.2,0.3c0,0-0.1-0.1-0.1-0.4c0-1.2-0.2-4-0.6-8.5l0.8-0.8
		c0.1-0.1,0.1-0.1,0.1-0.1c0,0,0,0.1,0,0.2C227.4,60.5,227.4,63.3,227.4,67.4z" id="PATH_43" class="area" title=""></path>
	<path d="M232.5,68.7c0,1-0.3,1.9-0.9,2.8c-0.5,0.7-1,1.1-1.3,1.1c-0.8,0-1.4,0-2-0.1c-0.2,0-0.3-0.1-0.3-0.1s0.1-0.1,0.3-0.1
		c0.8-0.2,1.6-0.6,2.4-1.2c0.8-0.7,1.3-1.4,1.3-2.1c0-0.4-0.3-1-1-1.7l0.5-0.9c0-0.1,0.1-0.1,0.1-0.1c0,0,0.1,0.1,0.1,0.1
		c0.2,0.3,0.5,0.7,0.6,1.2C232.4,67.9,232.5,68.4,232.5,68.7z" id="PATH_44" class="area" title=""></path>
</g>
<g id="G_45" class="area" title="">
	<path d="M160.2,111.3h-0.4c-0.4,0-0.7-0.1-1-0.4c-0.2-0.2-0.4-0.4-0.6-0.8c-0.2,0.4-0.5,0.7-0.8,0.9c-0.4,0.2-0.9,0.3-1.7,0.3
		c-1.4,0-2.1-0.5-2.1-1.5c0-0.3,0.1-0.7,0.3-1c0.1-0.1,0.1-0.2,0.2-0.2c0.1,0,0.1,0.1,0.1,0.2c0,0.1,0,0.1,0,0.3c0,0.1,0,0.2,0,0.3
		c0,0.6,0.5,0.9,1.5,0.9c1.4,0,2.1-0.3,2.1-0.8c0-0.3-0.4-1.4-1.2-3.3l0.4-0.8c0.1-0.1,0.1-0.2,0.1-0.2c0,0,0.1,0.1,0.1,0.2
		c0.3,0.8,0.8,2,1.4,3.6c0.3,0.8,0.7,1.2,1.3,1.2h0.3V111.3z" id="PATH_46" class="area" title=""></path>
	<path d="M162.6,109.4c0,1.3-0.7,2-2,2h-0.8v-1.2h0.7c1,0,1.5-0.2,1.5-0.5c0-0.3-0.2-0.7-0.7-1.2l0.4-1c0-0.1,0.1-0.1,0.1-0.1
		c0,0,0.1,0.1,0.2,0.2C162.4,108.1,162.6,108.7,162.6,109.4z M162.5,104.8l-0.8,0.8l-0.8-0.8l0.8-0.8L162.5,104.8z" id="PATH_47" class="area" title=""></path>
	<path d="M167.6,111.4c0,1-0.3,1.9-0.9,2.8c-0.5,0.7-1,1.1-1.3,1.1c-0.8,0-1.4,0-2-0.1c-0.2,0-0.3-0.1-0.3-0.1s0.1-0.1,0.3-0.1
		c0.8-0.2,1.6-0.6,2.4-1.2c0.8-0.7,1.3-1.4,1.3-2.1c0-0.4-0.3-1-1-1.7l0.5-0.9c0-0.1,0.1-0.1,0.1-0.1c0,0,0.1,0.1,0.1,0.1
		c0.2,0.3,0.5,0.7,0.6,1.2C167.5,110.6,167.6,111.1,167.6,111.4z" id="PATH_48" class="area" title=""></path>
	<path d="M172.7,111.4c0,1-0.3,1.9-0.9,2.8c-0.5,0.7-1,1.1-1.3,1.1c-0.8,0-1.4,0-2-0.1c-0.2,0-0.3-0.1-0.3-0.1s0.1-0.1,0.3-0.1
		c0.8-0.2,1.6-0.6,2.4-1.2c0.8-0.7,1.3-1.4,1.3-2.1c0-0.4-0.3-1-1-1.7l0.5-0.9c0-0.1,0.1-0.1,0.1-0.1c0,0,0.1,0.1,0.1,0.1
		c0.2,0.3,0.5,0.7,0.6,1.2C172.6,110.6,172.7,111.1,172.7,111.4z M171.9,106.1l-0.8,0.8l-0.8-0.8l0.8-0.8L171.9,106.1z" id="PATH_49" class="area" title=""></path>
</g>
<g id="G_50" class="area" title="">
	<path d="M87.5,111.4c0,1-0.3,1.9-0.9,2.8c-0.5,0.7-1,1.1-1.3,1.1c-0.8,0-1.4,0-2-0.1c-0.2,0-0.3-0.1-0.3-0.1s0.1-0.1,0.3-0.1
		c0.8-0.2,1.6-0.6,2.4-1.2c0.8-0.7,1.3-1.4,1.3-2.1c0-0.4-0.3-1-1-1.7l0.5-0.9c0-0.1,0.1-0.1,0.1-0.1c0,0,0.1,0.1,0.1,0.1
		c0.2,0.3,0.5,0.7,0.6,1.2C87.4,110.6,87.5,111.1,87.5,111.4z" id="PATH_51" class="area" title=""></path>
	<path d="M91.4,111.3h-0.7c-0.7,0-1.3-0.3-1.5-0.9c-0.2-0.4-0.3-1.1-0.3-1.9v-1.9c0-0.9-0.1-2.2-0.2-3.9l0.6-0.7
		c0.1-0.1,0.2-0.1,0.2,0c0.1,0.9,0.2,2.2,0.2,3.9v2.9c0,0.8,0.4,1.2,1.2,1.2h0.5V111.3z" id="PATH_52" class="area" title=""></path>
	<path d="M93.8,109.4c0,1.3-0.7,2-2,2H91v-1.2h0.7c1,0,1.5-0.2,1.5-0.5c0-0.3-0.2-0.7-0.7-1.2l0.4-1c0-0.1,0.1-0.1,0.1-0.1
		c0,0,0.1,0.1,0.2,0.2C93.6,108.1,93.8,108.7,93.8,109.4z M93.8,104.8l-0.8,0.8l-0.8-0.8l0.8-0.8L93.8,104.8z" id="PATH_53" class="area" title=""></path>
	<path d="M96.2,110.1c0,0.4-0.1,0.8-0.3,1.1c-0.1,0.2-0.2,0.3-0.2,0.3c0,0-0.1-0.1-0.1-0.4c0-1.2-0.2-4-0.6-8.5l0.8-0.8
		c0.1-0.1,0.1-0.1,0.1-0.1c0,0,0,0.1,0,0.2C96.1,103.3,96.2,106,96.2,110.1z" id="PATH_54" class="area" title=""></path>
</g>
<g id="G_55" class="area" title="">
	<path d="M43.9,153.5h-0.7c-0.5,0-1-0.3-1.6-0.8c-0.3-0.3-0.7-0.8-1.2-1.5c0,0.7-0.1,1.2-0.4,1.5c-0.5,0.6-1.5,0.9-3,0.9h-2
		c-2.4,0-3.7-0.7-3.7-2.1c0-0.5,0.2-1,0.5-1.5c0.1-0.1,0.2-0.2,0.2-0.2c0.1,0,0.1,0,0.1,0.1c0,0.1,0,0.1,0,0.2
		c-0.1,0.4-0.2,0.6-0.2,0.9c0,0.4,0.2,0.7,0.5,0.9c0.5,0.4,1.3,0.6,2.4,0.6h2c1.1,0,1.9-0.1,2.3-0.2c0.5-0.2,0.7-0.5,0.7-0.9
		c0-0.4-0.2-0.9-0.7-1.5c-0.3-0.3-0.7-0.8-1.3-1.3c-0.5-0.4-0.7-0.7-0.7-0.7c0-0.7,0.1-1.1,0.3-1.4c0-0.1,0.7-0.3,2.1-0.8
		c1.4-0.5,2.6-0.9,3.5-1.2c0,0.1-0.1,0.5-0.3,1.1c-1.1,0.3-2.7,0.9-4.9,1.7c1,0.9,2.1,2.2,3.4,3.9c0.5,0.6,0.9,1,1.2,1.2
		c0.2,0.1,0.6,0.2,1,0.2h0.4V153.5z" id="PATH_56" class="area" title=""></path>
	<path d="M46.3,151.5c0,1.3-0.7,2-2,2h-0.8v-1.2h0.7c1,0,1.5-0.2,1.5-0.5c0-0.3-0.2-0.7-0.7-1.2l0.4-1c0-0.1,0.1-0.1,0.1-0.1
		c0,0,0.1,0.1,0.2,0.2C46.1,150.2,46.3,150.9,46.3,151.5z M46,155.7l-0.8,0.8l-0.8-0.8l0.8-0.8L46,155.7z" id="PATH_57" class="area" title=""></path>
	<path d="M50.3,153.5h-0.7c-0.7,0-1.3-0.3-1.5-0.9c-0.2-0.4-0.3-1.1-0.3-1.9v-1.9c0-0.9-0.1-2.2-0.2-3.9l0.6-0.7
		c0.1-0.1,0.2-0.1,0.2,0c0.1,0.9,0.2,2.2,0.2,3.9v2.9c0,0.8,0.4,1.2,1.2,1.2h0.5V153.5z" id="PATH_58" class="area" title=""></path>
	<path d="M52.6,151.5c0,1.3-0.7,2-2,2h-0.8v-1.2h0.7c1,0,1.5-0.2,1.5-0.5c0-0.3-0.2-0.7-0.7-1.2l0.4-1c0-0.1,0.1-0.1,0.1-0.1
		c0,0,0.1,0.1,0.2,0.2C52.4,150.2,52.6,150.9,52.6,151.5z M52.3,155.7l-0.8,0.8l-0.8-0.8l0.8-0.8L52.3,155.7z" id="PATH_59" class="area" title=""></path>
	<path d="M58.9,153.5h-0.4c-0.4,0-0.6-0.1-0.8-0.2c0,0.1,0,0.2,0,0.3c0,0.9-0.3,1.8-0.9,2.7c-0.5,0.8-1,1.1-1.3,1.1
		c-0.8,0-1.4,0-2-0.1c-0.2,0-0.3-0.1-0.3-0.1s0.1-0.1,0.3-0.1c0.8-0.2,1.6-0.6,2.4-1.2c0.8-0.7,1.3-1.4,1.3-2.1c0-0.4-0.3-1-1-1.7
		l0.5-0.9c0-0.1,0.1-0.1,0.1-0.1c0,0,0.1,0.1,0.1,0.1c0.3,0.4,0.5,0.7,0.7,0.8c0.3,0.2,0.7,0.4,1.1,0.4h0.3V153.5z" id="PATH_60" class="area" title=""></path>
	<path d="M65.1,153.5h-0.5c-0.4,0-0.8,0.1-1.1,0.2c-0.5,0.2-0.8,0.5-0.8,1c0,0.6,0.4,1.1,1.2,1.6l-0.5,1c-0.9-0.3-1.7-0.8-2.3-1.4
		c-0.8-0.7-1.2-1.6-1.2-2.5h-1.4v-1.2h1.3c0-0.8,0.2-1.6,0.6-2.6c0.4-0.9,0.7-1.3,0.9-1.3c0.2,0,0.5,0.4,0.8,1.3
		c0.3,0.8,0.4,1.3,0.4,1.6c0,1.4-0.7,2.1-2.1,2.1c0.1,0.4,0.3,0.8,0.6,1.2c0.3,0.4,0.7,0.7,1.1,0.9c0-0.1,0-0.3,0-0.4
		c0-0.7,0.2-1.3,0.5-1.8c0.5-0.7,1.1-1.1,2-1.1h0.4V153.5z M62,151.9c0-0.2-0.1-0.6-0.3-1.1c-0.2-0.6-0.4-0.8-0.6-0.8
		c-0.1,0-0.3,0.2-0.5,0.7c-0.2,0.5-0.3,1.1-0.3,1.7C61.5,152.3,62,152.2,62,151.9z" id="PATH_61" class="area" title=""></path>
	<path d="M73,151.4c0,0.6-0.1,1.1-0.4,1.5c-0.3,0.4-0.8,0.7-1.3,0.7c-0.7,0-1.1-0.3-1.4-0.8c-0.4,0.6-0.8,0.8-1.4,0.8
		c-0.7,0-1.2-0.3-1.5-0.8c-0.4,0.6-0.9,0.8-1.6,0.8h-0.7v-1.2h0.8c0.7,0,1.2-0.4,1.3-1.2c0-0.2,0.1-0.3,0.2-0.3
		c0.1,0,0.1,0.1,0.2,0.3c0.1,0.8,0.5,1.2,1.3,1.2c0.4,0,0.8-0.1,1-0.3c0.1-0.2,0.2-0.4,0.3-0.8c0-0.2,0.1-0.3,0.2-0.3
		c0.1,0,0.1,0.1,0.2,0.3c0.1,0.8,0.5,1.2,1.2,1.2c0.8,0,1.1-0.2,1.1-0.5c0-0.3-0.2-0.7-0.6-1.1l0.5-0.9c0.1-0.1,0.1-0.2,0.2-0.2
		s0.1,0.1,0.2,0.2C72.8,150.4,73,150.9,73,151.4z M69.6,147.7l-0.7,0.7l-0.7-0.7l0.7-0.7L69.6,147.7z M70.5,146.2l-0.7,0.7l-0.7-0.7
		l0.7-0.7L70.5,146.2z M71.4,147.7l-0.7,0.7l-0.7-0.7l0.7-0.7L71.4,147.7z" id="PATH_62" class="area" title=""></path>
</g>
<g id="G_63" class="area" title="">
	<path d="M119.6,146.4c0.1,0.3,0.1,0.6,0.1,0.9c0,0.4-0.1,0.7-0.2,1.1c-0.3,0.7-0.8,1.3-1.8,1.7c-0.8,0.3-1.6,0.5-2.5,0.5
		c-0.9,0-1.6-0.2-2.2-0.6c-0.6-0.5-0.9-1.1-0.9-2c0-0.5,0.1-0.9,0.3-1.5c0.2-0.4,0.3-0.7,0.5-0.9c0.1-0.1,0.2-0.1,0.2-0.1
		c0.1,0,0.1,0,0.1,0.1c0,0,0,0.1,0,0.2c-0.3,0.6-0.4,1.2-0.4,1.7c0,0.5,0.2,0.9,0.5,1.3c0.4,0.5,1.1,0.7,2,0.7c1,0,1.9-0.2,2.6-0.5
		c0.6-0.3,1-0.6,1.2-1c0.1-0.1,0.1-0.3,0.1-0.4c0-0.3-0.1-0.6-0.2-1c-0.1-0.3-0.4-0.8-0.9-1.6l0.4-0.8c0.1-0.1,0.1-0.2,0.1-0.2
		s0.1,0,0.1,0.1C119.2,144.8,119.5,145.6,119.6,146.4z M116.7,142l-0.8,0.8l-0.8-0.8l0.8-0.8L116.7,142z" id="PATH_64" class="area" title=""></path>
	<path d="M123.7,146.5H123c-0.7,0-1.3-0.3-1.5-0.9c-0.2-0.4-0.3-1.1-0.3-1.9v-1.9c0-0.9-0.1-2.2-0.2-3.9l0.6-0.7
		c0.1-0.1,0.2-0.1,0.2,0c0.1,0.9,0.2,2.2,0.2,3.9v2.9c0,0.8,0.4,1.2,1.2,1.2h0.5V146.5z" id="PATH_65" class="area" title=""></path>
	<path d="M132.5,146.5h-1c-1.3,0-2-0.7-2-2c0-0.2,0-0.3,0-0.5c-0.5,0.2-1.1,0.6-1.9,1.1c-0.8,0.5-1.3,0.8-1.7,1
		c-0.6,0.3-1.3,0.4-1.9,0.4h-0.7v-1.2h0.8c0.8,0,1.7-0.2,2.5-0.6c0.4-0.2,1.1-0.6,2.2-1.1c-0.2,0-0.8-0.2-1.8-0.4
		c-0.7-0.2-1.1-0.3-1.2-0.3c-0.4,0-0.8,0.2-1.2,0.5c-0.1,0.1-0.1,0.1-0.2,0.1c-0.1,0-0.1,0-0.1-0.1c0,0,0-0.1,0-0.1
		c0.3-1,0.9-1.5,1.7-1.5c0.3,0,0.7,0.1,1.2,0.2c0.7,0.2,1.3,0.4,1.8,0.5c0.7,0.1,1.5,0.2,2.4,0.2c0.2,0,0.2,0,0.3,0c0,0,0,0.1,0,0.2
		l-0.3,0.9c-0.6,0-1,0-1.2,0.1c0,0.5,0.1,0.8,0.2,0.9c0.2,0.3,0.6,0.5,1.3,0.5h1V146.5z M128.7,148.5l-0.8,0.8l-0.8-0.8l0.8-0.8
		L128.7,148.5z" id="PATH_66" class="area" title=""></path>
	<path d="M137.4,146.5h-0.8c-0.9,0-1.5-0.3-1.9-0.9c-0.3,0.6-1,0.9-2.1,0.9H132v-1.2h0.9c1,0,1.5-0.4,1.6-1.1c0-0.3,0.1-0.5,0.2-0.5
		c0.1,0,0.2,0.2,0.2,0.5c0.1,0.7,0.6,1.1,1.5,1.1h0.9V146.5z M135.4,141.3l-0.8,0.8l-0.8-0.8l0.8-0.8L135.4,141.3z" id="PATH_67" class="area" title=""></path>
	<path d="M146.6,146.5H146c-0.7,0-1.1-0.3-1.4-0.8c-0.2,0.6-0.7,0.8-1.3,0.8c-0.6,0-1-0.3-1.3-0.8c-0.3,0.6-0.7,0.8-1.3,0.8
		c-0.7,0-1.2-0.3-1.5-0.8c-0.4,0.6-0.9,0.8-1.6,0.8H137v-1.2h0.8c0.7,0,1.2-0.4,1.3-1.2c0-0.2,0.1-0.3,0.2-0.3
		c0.1,0,0.1,0.1,0.2,0.3c0.1,0.8,0.5,1.2,1.3,1.2c0.7,0,1.2-0.4,1.2-1.2c0-0.2,0.1-0.3,0.2-0.3c0.1,0,0.2,0.1,0.2,0.3
		c0.1,0.8,0.5,1.2,1,1.2c0.7,0,1.2-0.4,1.2-1.2c0-0.2,0.1-0.3,0.2-0.3c0.1,0,0.2,0.1,0.2,0.3c0.1,0.8,0.5,1.2,1.2,1.2h0.6V146.5z" id="PATH_68" class="area" title=""></path>
	<path d="M150.5,143.7v0.4c0,0.7-0.1,1.1-0.3,1.4c-0.5,0.7-1.3,1-2.6,1h-1.4v-1.2h1c1.7,0,2.6-0.3,2.8-0.8c0-0.1,0-0.1,0-0.2
		c0-0.2,0-0.3-0.1-0.4c-0.4,0.1-0.9,0.1-1.3,0.1c-0.9,0-1.4-0.4-1.4-1.2c0-0.5,0.1-1.1,0.4-1.6c0.3-0.6,0.7-0.9,1.2-0.9
		c0.4,0,0.8,0.3,1.1,0.8C150.3,141.8,150.5,142.7,150.5,143.7z M149.3,138.2l-0.8,0.8l-0.8-0.8l0.8-0.8L149.3,138.2z M149.7,142.8
		c0-0.3-0.1-0.6-0.3-0.9c-0.2-0.3-0.5-0.4-0.8-0.4c-0.2,0-0.4,0.1-0.6,0.2c-0.1,0.1-0.2,0.3-0.2,0.5c0,0.4,0.3,0.6,1,0.6
		C149,142.9,149.3,142.9,149.7,142.8z" id="PATH_69" class="area" title=""></path>
	<path d="M155.5,146.6c0,1-0.3,1.9-0.9,2.8c-0.5,0.7-1,1.1-1.3,1.1c-0.8,0-1.4,0-2-0.1c-0.2,0-0.3-0.1-0.3-0.1s0.1-0.1,0.3-0.1
		c0.8-0.2,1.6-0.6,2.4-1.2c0.8-0.7,1.3-1.4,1.3-2.1c0-0.4-0.3-1-1-1.7l0.5-0.9c0-0.1,0.1-0.1,0.1-0.1c0,0,0.1,0.1,0.1,0.1
		c0.2,0.3,0.5,0.7,0.6,1.2C155.4,145.8,155.5,146.2,155.5,146.6z" id="PATH_70" class="area" title=""></path>
</g>
<g id="G_71" class="area" title="">
	<path d="M173.3,204h-0.4c-0.4,0-0.6-0.1-0.8-0.2c0,0.1,0,0.2,0,0.3c0,0.9-0.3,1.8-0.9,2.7c-0.5,0.8-1,1.1-1.3,1.1
		c-0.8,0-1.4,0-2-0.1c-0.2,0-0.3-0.1-0.3-0.1s0.1-0.1,0.3-0.1c0.8-0.2,1.6-0.6,2.4-1.2c0.8-0.7,1.3-1.4,1.3-2.1c0-0.4-0.3-1-1-1.7
		l0.5-0.9c0-0.1,0.1-0.1,0.1-0.1c0,0,0.1,0.1,0.1,0.1c0.3,0.4,0.5,0.7,0.7,0.8c0.3,0.2,0.7,0.4,1.1,0.4h0.3V204z" id="PATH_72" class="area" title=""></path>
	<path d="M178.2,204h-0.8c-0.9,0-1.5-0.3-1.9-0.9c-0.3,0.6-1,0.9-2.1,0.9h-0.6v-1.2h0.9c1,0,1.5-0.4,1.6-1.1c0-0.3,0.1-0.5,0.2-0.5
		c0.1,0,0.2,0.2,0.2,0.5c0.1,0.7,0.6,1.1,1.5,1.1h0.9V204z M174.9,206.2l-0.8,0.8l-0.8-0.8l0.8-0.8L174.9,206.2z M176.7,206.2
		l-0.8,0.8l-0.8-0.8l0.8-0.8L176.7,206.2z" id="PATH_73" class="area" title=""></path>
	<path d="M186.1,201.9c0,0.6-0.1,1.1-0.4,1.5c-0.3,0.4-0.8,0.7-1.3,0.7c-0.7,0-1.1-0.3-1.4-0.8c-0.4,0.6-0.8,0.8-1.4,0.8
		c-0.7,0-1.2-0.3-1.5-0.8c-0.4,0.6-0.9,0.8-1.6,0.8h-0.7v-1.2h0.8c0.7,0,1.2-0.4,1.3-1.2c0-0.2,0.1-0.3,0.2-0.3
		c0.1,0,0.1,0.1,0.2,0.3c0.1,0.8,0.5,1.2,1.3,1.2c0.4,0,0.8-0.1,1-0.3c0.1-0.2,0.2-0.4,0.3-0.8c0-0.2,0.1-0.3,0.2-0.3
		c0.1,0,0.1,0.1,0.2,0.3c0.1,0.8,0.5,1.2,1.2,1.2c0.8,0,1.1-0.2,1.1-0.5c0-0.3-0.2-0.7-0.6-1.1l0.5-0.9c0.1-0.1,0.1-0.2,0.2-0.2
		s0.1,0.1,0.2,0.2C186,200.9,186.1,201.4,186.1,201.9z" id="PATH_74" class="area" title=""></path>
	<path d="M192.3,201.9c0,1.4-0.9,2.1-2.8,2.1c-0.7,0-1.2-0.1-1.5-0.3c-0.4-0.2-0.6-0.7-0.6-1.3c0-0.3,0.1-0.6,0.2-0.9
		c0.1-0.1,0.1-0.2,0.2-0.2c0.1,0,0.1,0.1,0.1,0.3c0,0.1,0,0.2,0,0.3c0,0.4,0.2,0.7,0.6,0.8c0.2,0.1,0.6,0.1,1.1,0.1
		c1.5,0,2.2-0.2,2.2-0.7c0-0.7-0.9-1.7-2.6-2.9l0.3-1c0-0.1,0.1-0.1,0.1-0.1c0,0,0.1,0,0.2,0.1C191.4,199.5,192.3,200.8,192.3,201.9
		z" id="PATH_75" class="area" title=""></path>
	<path d="M198.5,204h-0.4c-0.4,0-0.6-0.1-0.8-0.2c0,0.1,0,0.2,0,0.3c0,0.9-0.3,1.8-0.9,2.7c-0.5,0.8-1,1.1-1.3,1.1
		c-0.8,0-1.4,0-2-0.1c-0.2,0-0.3-0.1-0.3-0.1s0.1-0.1,0.3-0.1c0.8-0.2,1.6-0.6,2.4-1.2c0.8-0.7,1.3-1.4,1.3-2.1c0-0.4-0.3-1-1-1.7
		l0.5-0.9c0-0.1,0.1-0.1,0.1-0.1c0,0,0.1,0.1,0.1,0.1c0.3,0.4,0.5,0.7,0.7,0.8c0.3,0.2,0.7,0.4,1.1,0.4h0.3V204z" id="PATH_76" class="area" title=""></path>
	<path d="M200.9,202c0,1.3-0.7,2-2,2h-0.8v-1.2h0.7c1,0,1.5-0.2,1.5-0.5c0-0.3-0.2-0.7-0.7-1.2l0.4-1c0-0.1,0.1-0.1,0.1-0.1
		c0,0,0.1,0.1,0.2,0.2C200.7,200.7,200.9,201.4,200.9,202z M200.6,206.2l-0.8,0.8l-0.8-0.8l0.8-0.8L200.6,206.2z" id="PATH_77" class="area" title=""></path>
</g>
<g id="G_78" class="area" title="">
	<path d="M257,165.4c0.1,0.3,0.1,0.6,0.1,0.9c0,0.4-0.1,0.7-0.2,1.1c-0.3,0.7-0.8,1.3-1.8,1.7c-0.8,0.3-1.6,0.5-2.5,0.5
		c-0.9,0-1.6-0.2-2.2-0.6c-0.6-0.5-0.9-1.1-0.9-2c0-0.5,0.1-0.9,0.3-1.5c0.2-0.4,0.3-0.7,0.5-0.9c0.1-0.1,0.2-0.1,0.2-0.1
		c0.1,0,0.1,0,0.1,0.1c0,0,0,0.1,0,0.2c-0.3,0.6-0.4,1.2-0.4,1.7c0,0.5,0.2,0.9,0.5,1.3c0.4,0.5,1.1,0.7,2,0.7c1,0,1.9-0.2,2.6-0.5
		c0.6-0.3,1-0.6,1.2-1c0.1-0.1,0.1-0.3,0.1-0.4c0-0.3-0.1-0.6-0.2-1c-0.1-0.3-0.4-0.8-0.9-1.6l0.4-0.8c0.1-0.1,0.1-0.2,0.1-0.2
		s0.1,0,0.1,0.1C256.6,163.8,256.9,164.6,257,165.4z M254,161l-0.8,0.8l-0.8-0.8l0.8-0.8L254,161z" id="PATH_79" class="area" title=""></path>
	<path d="M261,165.5h-0.7c-0.7,0-1.3-0.3-1.5-0.9c-0.2-0.4-0.3-1.1-0.3-1.9v-1.9c0-0.9-0.1-2.2-0.2-3.9l0.6-0.7
		c0.1-0.1,0.2-0.1,0.2,0c0.1,0.9,0.2,2.2,0.2,3.9v2.9c0,0.8,0.4,1.2,1.2,1.2h0.5V165.5z" id="PATH_80" class="area" title=""></path>
	<path d="M266,163.5c0,0.5,0,0.9-0.2,1.3c-0.2,0.5-0.5,0.8-0.8,0.8c-0.5,0-1.3-0.3-2.3-1c-0.3,0.4-0.5,0.6-0.6,0.7
		c-0.3,0.2-0.6,0.3-1,0.3h-0.5v-1.2h0.7c0.4,0,0.8-0.2,1.2-0.7c0.2-0.2,0.5-0.7,0.9-1.3c0.3-0.5,0.7-0.7,1-0.7
		c0.5,0,0.9,0.2,1.2,0.7C265.8,162.8,266,163.1,266,163.5z M265.4,164.2c0-0.3-0.1-0.6-0.3-1c-0.2-0.4-0.5-0.6-0.8-0.6
		c-0.3,0-0.6,0.3-1,0.9c0.2,0.2,0.5,0.4,0.9,0.6c0.4,0.2,0.8,0.3,1,0.3C265.3,164.5,265.4,164.4,265.4,164.2z" id="PATH_81" class="area" title=""></path>
	<path d="M272.2,165.5h-0.4c-0.4,0-0.6-0.1-0.8-0.2c0,0.1,0,0.2,0,0.3c0,0.9-0.3,1.8-0.9,2.7c-0.5,0.8-1,1.1-1.3,1.1
		c-0.8,0-1.4,0-2-0.1c-0.2,0-0.3-0.1-0.3-0.1s0.1-0.1,0.3-0.1c0.8-0.2,1.6-0.6,2.4-1.2c0.8-0.7,1.3-1.4,1.3-2.1c0-0.4-0.3-1-1-1.7
		l0.5-0.9c0-0.1,0.1-0.1,0.1-0.1c0,0,0.1,0.1,0.1,0.1c0.3,0.4,0.5,0.7,0.7,0.8c0.3,0.2,0.7,0.4,1.1,0.4h0.3V165.5z" id="PATH_82" class="area" title=""></path>
	<path d="M278.4,156.2c0,0.2-0.2,0.6-0.4,1.1l-2.5,0.8c-1.1,0.4-1.9,0.7-2.3,0.9c0.8,0.8,1.3,1.4,1.6,1.7c0.5,0.7,0.8,1.3,0.9,2
		c0,0.5,0,1-0.2,1.4c-0.3,0.9-1.4,1.3-3.1,1.3h-0.5v-1.2h0.6c0.8,0,1.4,0,1.7-0.1c0.7-0.2,1.1-0.5,1.1-1c0-0.7-0.5-1.5-1.6-2.5
		l-0.1,0.2c-0.1-0.1-0.3-0.3-0.5-0.6c-0.3-0.3-0.4-0.6-0.4-0.6c0-0.2,0-0.4,0.1-0.8c0.1-0.4,0.2-0.6,0.3-0.7
		c0.1-0.1,0.8-0.4,2.1-0.8C276.3,156.9,277.5,156.5,278.4,156.2z" id="PATH_83" class="area" title=""></path>
</g>
<g id="G_84" class="area" title="">
	<path d="M88.6,235.9c0.1,0.3,0.1,0.6,0.1,0.9c0,0.4-0.1,0.7-0.2,1.1c-0.3,0.7-0.8,1.3-1.8,1.7c-0.8,0.3-1.6,0.5-2.5,0.5
		c-0.9,0-1.6-0.2-2.2-0.6c-0.6-0.5-0.9-1.1-0.9-2c0-0.5,0.1-0.9,0.3-1.5c0.2-0.4,0.3-0.7,0.5-0.9c0.1-0.1,0.2-0.1,0.2-0.1
		c0.1,0,0.1,0,0.1,0.1c0,0,0,0.1,0,0.2c-0.3,0.6-0.4,1.2-0.4,1.7c0,0.5,0.2,0.9,0.5,1.3c0.4,0.5,1.1,0.7,2,0.7c1,0,1.9-0.2,2.6-0.5
		c0.6-0.3,1-0.6,1.2-1c0.1-0.1,0.1-0.3,0.1-0.4c0-0.3-0.1-0.6-0.2-1c-0.1-0.3-0.4-0.8-0.9-1.6l0.4-0.8c0.1-0.1,0.1-0.2,0.1-0.2
		s0.1,0,0.1,0.1C88.2,234.3,88.5,235.1,88.6,235.9z M85.7,231.5l-0.8,0.8l-0.8-0.8l0.8-0.8L85.7,231.5z" id="PATH_85" class="area" title=""></path>
	<path d="M92.7,236H92c-0.7,0-1.3-0.3-1.5-0.9c-0.2-0.4-0.3-1.1-0.3-1.9v-1.9c0-0.9-0.1-2.2-0.2-3.9l0.6-0.7c0.1-0.1,0.2-0.1,0.2,0
		c0.1,0.9,0.2,2.2,0.2,3.9v2.9c0,0.8,0.4,1.2,1.2,1.2h0.5V236z" id="PATH_86" class="area" title=""></path>
	<path d="M100.5,233.1l-0.4,0.8c-0.7,0-1.3,0-1.6,0.1c-0.4,0.2-1,0.4-1.8,0.8c-0.8,0.4-1.4,0.7-1.8,0.8c-0.6,0.2-1.3,0.3-1.9,0.3
		h-0.7v-1.2H93c0.9,0,1.7-0.2,2.4-0.5l2.3-1c-0.4-0.1-1-0.3-1.8-0.6c-0.7-0.3-1.1-0.4-1.3-0.4c-0.4,0-0.8,0.2-1.2,0.5
		c-0.1,0.1-0.1,0.1-0.2,0.1c-0.1,0-0.1,0-0.1-0.1c0,0,0-0.1,0-0.1c0.3-1,0.9-1.4,1.7-1.4c0.3,0,0.7,0.1,1.1,0.3
		c0.8,0.4,1.4,0.6,1.8,0.8c0.7,0.2,1.5,0.4,2.4,0.4c0.2,0,0.3,0,0.3,0.1C100.6,232.9,100.6,233,100.5,233.1z M97.2,238l-0.8,0.8
		l-0.8-0.8l0.8-0.8L97.2,238z" id="PATH_87" class="area" title=""></path>
	<path d="M106.8,236h-0.4c-0.4,0-0.6-0.1-0.8-0.2c0,0.1,0,0.2,0,0.3c0,0.9-0.3,1.8-0.9,2.7c-0.5,0.8-1,1.1-1.3,1.1
		c-0.8,0-1.4,0-2-0.1c-0.2,0-0.3-0.1-0.3-0.1s0.1-0.1,0.3-0.1c0.8-0.2,1.6-0.6,2.4-1.2c0.8-0.7,1.3-1.4,1.3-2.1c0-0.4-0.3-1-1-1.7
		l0.5-0.9c0-0.1,0.1-0.1,0.1-0.1c0,0,0.1,0.1,0.1,0.1c0.3,0.4,0.5,0.7,0.7,0.8c0.3,0.2,0.7,0.4,1.1,0.4h0.3V236z" id="PATH_88" class="area" title=""></path>
	<path d="M111.7,236H111c-0.9,0-1.5-0.3-1.9-0.9c-0.3,0.6-1,0.9-2.1,0.9h-0.6v-1.2h0.9c1,0,1.5-0.4,1.6-1.1c0-0.3,0.1-0.5,0.2-0.5
		c0.1,0,0.2,0.2,0.2,0.5c0.1,0.7,0.6,1.1,1.5,1.1h0.9V236z M108.4,238.2l-0.8,0.8l-0.8-0.8l0.8-0.8L108.4,238.2z M110.2,238.2
		l-0.8,0.8l-0.8-0.8l0.8-0.8L110.2,238.2z" id="PATH_89" class="area" title=""></path>
	<path d="M119.6,233.9c0,0.6-0.1,1.1-0.4,1.5c-0.3,0.4-0.8,0.7-1.3,0.7c-0.7,0-1.1-0.3-1.4-0.8c-0.4,0.6-0.8,0.8-1.4,0.8
		c-0.7,0-1.2-0.3-1.5-0.8c-0.4,0.6-0.9,0.8-1.6,0.8h-0.7v-1.2h0.8c0.7,0,1.2-0.4,1.3-1.2c0-0.2,0.1-0.3,0.2-0.3
		c0.1,0,0.1,0.1,0.2,0.3c0.1,0.8,0.5,1.2,1.3,1.2c0.4,0,0.8-0.1,1-0.3c0.1-0.2,0.2-0.4,0.3-0.8c0-0.2,0.1-0.3,0.2-0.3
		c0.1,0,0.1,0.1,0.2,0.3c0.1,0.8,0.5,1.2,1.2,1.2c0.8,0,1.1-0.2,1.1-0.5c0-0.3-0.2-0.7-0.6-1.1l0.5-0.9c0.1-0.1,0.1-0.2,0.2-0.2
		s0.1,0.1,0.2,0.2C119.5,232.9,119.6,233.4,119.6,233.9z" id="PATH_90" class="area" title=""></path>
</g>
<g id="G_91" class="area" title="">
	<path d="M172.8,277.2h-0.4c-0.5,0-0.9-0.1-1.1-0.3c-0.3-0.2-0.5-0.6-0.5-1c-1.1,1-2.8,1.5-5.1,1.5c-2.4,0-3.6-0.7-3.6-2.2
		c0-0.5,0.2-1,0.6-1.5c0.1-0.1,0.1-0.1,0.2-0.1c0.1,0,0.1,0,0.1,0.1c0,0,0,0.1,0,0.2c-0.1,0.3-0.2,0.6-0.2,0.9c0,1,1.1,1.5,3.3,1.5
		c2.5,0,4.2-0.5,5-1.6c0.2-0.2,0.3-0.3,0.4-0.3c0.1,0,0.1,0.1,0.1,0.2c0,0.1,0,0.2-0.1,0.4c0,0.2-0.1,0.3-0.1,0.4
		c0,0.5,0.4,0.8,1.1,0.8h0.4V277.2z M166.6,271.4l-0.8,0.8l-0.8-0.8l0.8-0.8L166.6,271.4z M168.3,271.4l-0.8,0.8l-0.8-0.8l0.8-0.8
		L168.3,271.4z" id="PATH_92" class="area" title=""></path>
	<path d="M176.7,274.4v0.4c0,0.7-0.1,1.1-0.3,1.4c-0.5,0.7-1.3,1-2.6,1h-1.4V276h1c1.7,0,2.6-0.3,2.8-0.8c0-0.1,0-0.1,0-0.2
		c0-0.2,0-0.3-0.1-0.4c-0.4,0.1-0.9,0.1-1.3,0.1c-0.9,0-1.4-0.4-1.4-1.2c0-0.5,0.1-1.1,0.4-1.6c0.3-0.6,0.7-0.9,1.2-0.9
		c0.4,0,0.8,0.3,1.1,0.8C176.5,272.5,176.7,273.4,176.7,274.4z M175.5,268.9l-0.8,0.8l-0.8-0.8l0.8-0.8L175.5,268.9z M175.9,273.5
		c0-0.3-0.1-0.6-0.3-0.9c-0.2-0.3-0.5-0.4-0.8-0.4c-0.2,0-0.4,0.1-0.6,0.2c-0.1,0.1-0.2,0.3-0.2,0.5c0,0.4,0.3,0.6,1,0.6
		C175.2,273.6,175.5,273.6,175.9,273.5z" id="PATH_93" class="area" title=""></path>
	<path d="M180.6,277.2h-0.7c-0.7,0-1.3-0.3-1.5-0.9c-0.2-0.4-0.3-1.1-0.3-1.9v-1.9c0-0.9-0.1-2.2-0.2-3.9l0.6-0.7
		c0.1-0.1,0.2-0.1,0.2,0c0.1,0.9,0.2,2.2,0.2,3.9v2.9c0,0.8,0.4,1.2,1.2,1.2h0.5V277.2z" id="PATH_94" class="area" title=""></path>
	<path d="M183,275.2c0,1.3-0.7,2-2,2h-0.8V276h0.7c1,0,1.5-0.2,1.5-0.5c0-0.3-0.2-0.7-0.7-1.2l0.4-1c0-0.1,0.1-0.1,0.1-0.1
		c0,0,0.1,0.1,0.2,0.2C182.8,273.9,183,274.5,183,275.2z M182.7,279.4l-0.8,0.8l-0.8-0.8l0.8-0.8L182.7,279.4z" id="PATH_95" class="area" title=""></path>
</g>
<g id="G_96" class="area" title="">
	<path d="M240.5,294h-0.4c-0.5,0-0.9-0.1-1.1-0.3c-0.3-0.2-0.5-0.6-0.5-1c-1.1,1-2.8,1.5-5.1,1.5c-2.4,0-3.6-0.7-3.6-2.2
		c0-0.5,0.2-1,0.6-1.5c0.1-0.1,0.1-0.1,0.2-0.1c0.1,0,0.1,0,0.1,0.1c0,0,0,0.1,0,0.2c-0.1,0.3-0.2,0.6-0.2,0.9c0,1,1.1,1.5,3.3,1.5
		c2.5,0,4.2-0.5,5-1.6c0.2-0.2,0.3-0.3,0.4-0.3c0.1,0,0.1,0.1,0.1,0.2c0,0.1,0,0.2-0.1,0.4c0,0.2-0.1,0.3-0.1,0.4
		c0,0.5,0.4,0.8,1.1,0.8h0.4V294z M234.3,288.2l-0.8,0.8l-0.8-0.8l0.8-0.8L234.3,288.2z M236,288.2l-0.8,0.8l-0.8-0.8l0.8-0.8
		L236,288.2z" id="PATH_97" class="area" title=""></path>
	<path d="M244.4,291.2v0.4c0,0.7-0.1,1.1-0.3,1.4c-0.5,0.7-1.3,1-2.6,1h-1.4v-1.2h1c1.7,0,2.6-0.3,2.8-0.8c0-0.1,0-0.1,0-0.2
		c0-0.2,0-0.3-0.1-0.4c-0.4,0.1-0.9,0.1-1.3,0.1c-0.9,0-1.4-0.4-1.4-1.2c0-0.5,0.1-1.1,0.4-1.6c0.3-0.6,0.7-0.9,1.2-0.9
		c0.4,0,0.8,0.3,1.1,0.8C244.2,289.3,244.4,290.2,244.4,291.2z M243.2,285.7l-0.8,0.8l-0.8-0.8l0.8-0.8L243.2,285.7z M243.7,290.3
		c0-0.3-0.1-0.6-0.3-0.9c-0.2-0.3-0.5-0.4-0.8-0.4c-0.2,0-0.4,0.1-0.6,0.2c-0.1,0.1-0.2,0.3-0.2,0.5c0,0.4,0.3,0.6,1,0.6
		C243,290.4,243.3,290.4,243.7,290.3z" id="PATH_98" class="area" title=""></path>
	<path d="M250.6,294h-0.4c-0.4,0-0.6-0.1-0.8-0.2c0,0.1,0,0.2,0,0.3c0,0.9-0.3,1.8-0.9,2.7c-0.5,0.8-1,1.1-1.3,1.1
		c-0.8,0-1.4,0-2-0.1c-0.2,0-0.3-0.1-0.3-0.1s0.1-0.1,0.3-0.1c0.8-0.2,1.6-0.6,2.4-1.2c0.8-0.7,1.3-1.4,1.3-2.1c0-0.4-0.3-1-1-1.7
		l0.5-0.9c0-0.1,0.1-0.1,0.1-0.1c0,0,0.1,0.1,0.1,0.1c0.3,0.4,0.5,0.7,0.7,0.8c0.3,0.2,0.7,0.4,1.1,0.4h0.3V294z" id="PATH_99" class="area" title=""></path>
	<path d="M255.5,294h-0.8c-0.9,0-1.5-0.3-1.9-0.9c-0.3,0.6-1,0.9-2.1,0.9h-0.6v-1.2h0.9c1,0,1.5-0.4,1.6-1.1c0-0.3,0.1-0.5,0.2-0.5
		c0.1,0,0.2,0.2,0.2,0.5c0.1,0.7,0.6,1.1,1.5,1.1h0.9V294z M252.2,296.2l-0.8,0.8l-0.8-0.8l0.8-0.8L252.2,296.2z M254,296.2
		l-0.8,0.8l-0.8-0.8l0.8-0.8L254,296.2z" id="PATH_100" class="area" title=""></path>
	<path d="M263.3,291.1l-0.4,0.8c-0.7,0-1.3,0-1.6,0.1c-0.4,0.2-1,0.4-1.8,0.8c-0.8,0.4-1.4,0.7-1.8,0.8c-0.6,0.2-1.3,0.3-1.9,0.3
		h-0.7v-1.2h0.8c0.9,0,1.7-0.2,2.4-0.5l2.3-1c-0.4-0.1-1-0.3-1.8-0.6c-0.7-0.3-1.1-0.4-1.3-0.4c-0.4,0-0.8,0.2-1.2,0.5
		c-0.1,0.1-0.1,0.1-0.2,0.1c-0.1,0-0.1,0-0.1-0.1c0,0,0-0.1,0-0.1c0.3-1,0.9-1.4,1.7-1.4c0.3,0,0.7,0.1,1.1,0.3
		c0.8,0.4,1.4,0.6,1.8,0.8c0.7,0.2,1.5,0.4,2.4,0.4c0.2,0,0.3,0,0.3,0.1C263.5,290.9,263.4,291,263.3,291.1z M260.1,296l-0.8,0.8
		l-0.8-0.8l0.8-0.8L260.1,296z" id="PATH_101" class="area" title=""></path>
</g>
<text transform="matrix(1 0 0 1 294.5424 262.5)" class="st5 st6 area" id="TEXT_102" title="">
مب</text>
<g id="G_103" class="area" title="">
	<path d="M248.4,375.1c-0.5,0.5-1,0.8-1.6,0.9c-0.5,0.1-1.1,0.2-1.8,0.2c-1.4,0-2.5-0.3-3.2-1c-0.5-0.5-0.8-1.2-0.8-2
		c0-1.9,1.3-3.4,3.8-4.4c-1.1-0.2-1.8-0.3-2.3-0.3c-0.2,0-0.5,0.1-0.9,0.4c-0.4,0.3-0.6,0.4-0.5,0.4c-0.1,0-0.1-0.1-0.1-0.3
		c0-0.3,0.2-0.6,0.4-0.9c0.3-0.5,0.8-0.8,1.4-0.8c0.5,0,1.2,0.1,2.1,0.3c0.9,0.2,1.7,0.3,2.2,0.3h0.7c0.2,0,0.3,0,0.3,0.1
		c0,0,0,0.1-0.1,0.2l-0.3,0.8c-0.5,0-1,0.1-1.7,0.2c-1,0.2-2,0.6-2.8,1.1c-1.1,0.7-1.6,1.5-1.6,2.4c0,0.9,0.4,1.5,1.3,2
		c0.7,0.3,1.5,0.5,2.5,0.5c1,0,1.9-0.1,2.7-0.3c0.1,0,0.1,0,0.2,0c0.1,0,0.1,0,0.1,0.1C248.5,375,248.5,375.1,248.4,375.1z
		 M245.8,372.5l-0.8,0.8l-0.8-0.8l0.8-0.8L245.8,372.5z" id="PATH_104" class="area" title=""></path>
	<path d="M254.3,371.8h-1.1c-0.1,1.4-0.6,2.5-1.6,3.5c-0.3,0.3-0.5,0.5-0.6,0.5c-0.5,0-1.2-0.1-1.9-0.2c-0.2,0-0.4-0.1-0.4-0.1
		c0,0,0.1-0.1,0.4-0.2c0.8-0.2,1.6-0.7,2.3-1.2c0.3-0.3,0.6-0.5,0.8-0.9c0.3-0.4,0.5-0.8,0.5-1.1v-0.3h-1.3c-1,0-1.4-0.4-1.4-1.2
		c0-0.5,0.1-1,0.4-1.6c0.3-0.6,0.7-1,1.1-1c0.5,0,0.9,0.3,1.2,1c0.2,0.5,0.4,1,0.4,1.6h1.1V371.8z M252.5,370.7
		c0-0.3-0.1-0.6-0.3-0.9c-0.2-0.4-0.5-0.5-0.8-0.5c-0.2,0-0.4,0.1-0.5,0.2s-0.2,0.3-0.2,0.6c0,0.5,0.4,0.7,1.2,0.7
		C252,370.7,252.2,370.7,252.5,370.7z" id="PATH_105" class="area" title=""></path>
	<path d="M259.2,371.8h-0.8c-0.9,0-1.5-0.3-1.9-0.9c-0.3,0.6-1,0.9-2.1,0.9h-0.6v-1.2h0.9c1,0,1.5-0.4,1.6-1.1
		c0-0.3,0.1-0.5,0.2-0.5s0.2,0.2,0.2,0.5c0.1,0.7,0.6,1.1,1.5,1.1h0.9V371.8z M257.2,366.7l-0.8,0.8l-0.8-0.8l0.8-0.8L257.2,366.7z" id="PATH_106" class="area" title=""></path>
	<path d="M265.4,371.8h-0.5c-0.4,0-0.8,0.1-1.1,0.2c-0.5,0.2-0.8,0.5-0.8,1c0,0.6,0.4,1.1,1.2,1.6l-0.5,1c-0.9-0.3-1.7-0.8-2.3-1.4
		c-0.8-0.7-1.2-1.6-1.2-2.5h-1.4v-1.2h1.3c0-0.8,0.2-1.6,0.6-2.6c0.4-0.9,0.7-1.3,0.9-1.3c0.2,0,0.5,0.4,0.8,1.3
		c0.3,0.8,0.4,1.3,0.4,1.6c0,1.4-0.7,2.1-2.1,2.1c0.1,0.4,0.3,0.8,0.6,1.2s0.7,0.7,1.1,0.9c0-0.1,0-0.3,0-0.4c0-0.7,0.2-1.3,0.5-1.8
		c0.5-0.7,1.1-1.1,2-1.1h0.4V371.8z M262.4,370.2c0-0.2-0.1-0.6-0.3-1.1c-0.2-0.6-0.4-0.8-0.6-0.8c-0.1,0-0.3,0.2-0.5,0.7
		c-0.2,0.5-0.3,1.1-0.3,1.7C261.8,370.7,262.4,370.5,262.4,370.2z" id="PATH_107" class="area" title=""></path>
	<path d="M271.6,362.6c0,0.2-0.2,0.6-0.4,1.1l-2.5,0.8c-1.1,0.4-1.9,0.7-2.3,0.9c0.8,0.8,1.3,1.4,1.6,1.7c0.5,0.7,0.8,1.3,0.9,2
		c0,0.5,0,1-0.2,1.4c-0.3,0.9-1.4,1.3-3.1,1.3H265v-1.2h0.6c0.8,0,1.4,0,1.7-0.1c0.7-0.2,1.1-0.5,1.1-1c0-0.7-0.5-1.5-1.6-2.5
		l-0.1,0.2c-0.1-0.1-0.3-0.3-0.5-0.6c-0.3-0.3-0.4-0.6-0.4-0.6c0-0.2,0-0.4,0.1-0.8c0.1-0.4,0.2-0.6,0.3-0.7
		c0.1-0.1,0.8-0.4,2.1-0.8C269.5,363.2,270.7,362.8,271.6,362.6z" id="PATH_108" class="area" title=""></path>
</g>
<g id="G_109" class="area" title="">
	<path d="M296.3,373H294c-0.3,0-0.6,0-0.8,0.1c-0.4,0.1-0.5,0.3-0.5,0.5c0,0.1,0.5,0.2,1.4,0.4s1.4,0.4,1.4,0.6
		c0,0.8-0.2,1.4-0.7,1.8c-0.8,0.7-2.1,1-4,1c-2.3,0-3.5-0.9-3.5-2.6c0-0.4,0.1-0.8,0.3-1.3s0.4-0.9,0.6-1.2c0.1-0.1,0.2-0.2,0.3-0.2
		s0.1,0,0.1,0.1c0,0.1,0,0.2-0.1,0.3c-0.3,0.6-0.5,1.2-0.5,1.8c0,0.7,0.3,1.2,1,1.5c0.5,0.3,1.1,0.4,1.9,0.4c0.8,0,1.5,0,2.2-0.1
		c1.2-0.2,1.8-0.4,1.8-0.8c0-0.2-0.3-0.3-0.8-0.4c-0.8-0.1-1.3-0.2-1.5-0.3c-0.5-0.1-0.8-0.4-0.8-0.7c0-0.2,0.1-0.5,0.4-0.9
		c0.2-0.3,0.4-0.5,0.7-0.7c0.5-0.4,1.1-0.6,2-0.6h1.4V373z" id="PATH_110" class="area" title=""></path>
	<path d="M298.7,371.1c0,1.3-0.7,2-2,2h-0.8v-1.2h0.7c1,0,1.5-0.2,1.5-0.5c0-0.3-0.2-0.7-0.7-1.2l0.4-1c0-0.1,0.1-0.1,0.1-0.1
		s0.1,0.1,0.2,0.2C298.5,369.8,298.7,370.4,298.7,371.1z M298.4,375.2l-0.8,0.8l-0.8-0.8l0.8-0.8L298.4,375.2z" id="PATH_111" class="area" title=""></path>
	<path d="M304.9,373h-1.1c-0.1,1.4-0.6,2.5-1.6,3.5c-0.3,0.3-0.5,0.5-0.6,0.5c-0.5,0-1.2-0.1-1.9-0.2c-0.2,0-0.4-0.1-0.4-0.1
		c0,0,0.1-0.1,0.4-0.2c0.8-0.2,1.6-0.7,2.3-1.2c0.3-0.3,0.6-0.5,0.8-0.9c0.3-0.4,0.5-0.8,0.5-1.1V373H302c-1,0-1.4-0.4-1.4-1.2
		c0-0.5,0.1-1,0.4-1.6c0.3-0.6,0.7-1,1.1-1c0.5,0,0.9,0.3,1.2,1c0.2,0.5,0.4,1,0.4,1.6h1.1V373z M303.1,371.9c0-0.3-0.1-0.6-0.3-0.9
		c-0.2-0.4-0.5-0.5-0.8-0.5c-0.2,0-0.4,0.1-0.5,0.2s-0.2,0.3-0.2,0.6c0,0.5,0.4,0.7,1.2,0.7C302.5,371.9,302.8,371.9,303.1,371.9z" id="PATH_112" class="area" title=""></path>
	<path d="M309.8,373H309c-0.9,0-1.5-0.3-1.9-0.9c-0.3,0.6-1,0.9-2.1,0.9h-0.6v-1.2h0.9c1,0,1.5-0.4,1.6-1.1c0-0.3,0.1-0.5,0.2-0.5
		s0.2,0.2,0.2,0.5c0.1,0.7,0.6,1.1,1.5,1.1h0.9V373z M307.8,367.9l-0.8,0.8l-0.8-0.8l0.8-0.8L307.8,367.9z" id="PATH_113" class="area" title=""></path>
	<path d="M317.6,370.1l-0.4,0.8c-0.7,0-1.3,0-1.6,0.1c-0.4,0.2-1,0.4-1.8,0.8c-0.8,0.4-1.4,0.7-1.8,0.8c-0.6,0.2-1.3,0.3-1.9,0.3
		h-0.7v-1.2h0.8c0.9,0,1.7-0.2,2.4-0.5l2.3-1c-0.4-0.1-1-0.3-1.8-0.6c-0.7-0.3-1.1-0.4-1.3-0.4c-0.4,0-0.8,0.2-1.2,0.5
		c-0.1,0.1-0.1,0.1-0.2,0.1c-0.1,0-0.1,0-0.1-0.1c0,0,0-0.1,0-0.1c0.3-1,0.9-1.4,1.7-1.4c0.3,0,0.7,0.1,1.1,0.3
		c0.8,0.4,1.4,0.6,1.8,0.8c0.7,0.2,1.5,0.4,2.4,0.4c0.2,0,0.3,0,0.3,0.1C317.7,369.9,317.7,370,317.6,370.1z M314.3,375.1l-0.8,0.8
		l-0.8-0.8l0.8-0.8L314.3,375.1z" id="PATH_114" class="area" title=""></path>
	<path d="M326.7,373.1c0,1-0.3,1.9-0.9,2.8c-0.5,0.7-1,1.1-1.3,1.1c-0.8,0-1.4,0-2-0.1c-0.2,0-0.3-0.1-0.3-0.1s0.1-0.1,0.3-0.1
		c0.8-0.2,1.6-0.6,2.4-1.2c0.8-0.7,1.3-1.4,1.3-2.1c0-0.4-0.3-1-1-1.7l0.5-0.9c0-0.1,0.1-0.1,0.1-0.1c0,0,0.1,0.1,0.1,0.1
		c0.2,0.3,0.5,0.7,0.6,1.2C326.6,372.3,326.7,372.8,326.7,373.1z" id="PATH_115" class="area" title=""></path>
	<path d="M330.6,373H330c-0.7,0-1.3-0.3-1.5-0.9c-0.2-0.4-0.3-1.1-0.3-1.9v-1.9c0-0.9-0.1-2.2-0.2-3.9l0.6-0.7
		c0.1-0.1,0.2-0.1,0.2,0c0.1,0.9,0.2,2.2,0.2,3.9v2.9c0,0.8,0.4,1.2,1.2,1.2h0.5V373z" id="PATH_116" class="area" title=""></path>
	<path d="M333,371.1c0,1.3-0.7,2-2,2h-0.8v-1.2h0.7c1,0,1.5-0.2,1.5-0.5c0-0.3-0.2-0.7-0.7-1.2l0.4-1c0-0.1,0.1-0.1,0.1-0.1
		s0.1,0.1,0.2,0.2C332.8,369.8,333,370.4,333,371.1z M332.7,375.2l-0.8,0.8l-0.8-0.8l0.8-0.8L332.7,375.2z" id="PATH_117" class="area" title=""></path>
	<path d="M339.1,371c0,1.4-0.9,2.1-2.8,2.1c-0.7,0-1.2-0.1-1.5-0.3c-0.4-0.2-0.6-0.7-0.6-1.3c0-0.3,0.1-0.6,0.2-0.9
		c0.1-0.1,0.1-0.2,0.2-0.2c0.1,0,0.1,0.1,0.1,0.3c0,0.1,0,0.2,0,0.3c0,0.4,0.2,0.7,0.6,0.8c0.2,0.1,0.6,0.1,1.1,0.1
		c1.5,0,2.2-0.2,2.2-0.7c0-0.7-0.9-1.7-2.6-2.9l0.3-1c0-0.1,0.1-0.1,0.1-0.1c0,0,0.1,0,0.2,0.1C338.3,368.6,339.1,369.8,339.1,371z" id="PATH_118" class="area" title=""></path>
	<path d="M344.3,372.6c0,1.5-0.5,2.8-1.5,3.8c-0.3,0.3-0.5,0.5-0.6,0.5c-0.6,0-1.2-0.1-1.9-0.2c-0.3,0-0.4-0.1-0.4-0.1
		c0,0,0.1-0.1,0.4-0.2c0.8-0.2,1.6-0.7,2.3-1.3c0.3-0.3,0.6-0.5,0.8-0.9c0.3-0.4,0.5-0.8,0.5-1.1V373l-1.3,0c-0.9,0-1.4-0.4-1.4-1.1
		c0-0.5,0.1-1,0.4-1.6c0.3-0.6,0.7-1,1.1-1c0.6,0,1.1,0.4,1.4,1.3C344.2,371.2,344.3,371.9,344.3,372.6z M343.6,371.8
		c0-0.3-0.1-0.6-0.3-0.9c-0.2-0.3-0.5-0.5-0.8-0.5c-0.2,0-0.4,0.1-0.5,0.2s-0.2,0.3-0.2,0.5c0,0.5,0.3,0.7,1,0.7
		C342.9,371.9,343.2,371.9,343.6,371.8z" id="PATH_119" class="area" title=""></path>
	<path d="M349.3,373.1c0,1-0.3,1.9-0.9,2.8c-0.5,0.7-1,1.1-1.3,1.1c-0.8,0-1.4,0-2-0.1c-0.2,0-0.3-0.1-0.3-0.1s0.1-0.1,0.3-0.1
		c0.8-0.2,1.6-0.6,2.4-1.2c0.8-0.7,1.3-1.4,1.3-2.1c0-0.4-0.3-1-1-1.7l0.5-0.9c0-0.1,0.1-0.1,0.1-0.1c0,0,0.1,0.1,0.1,0.1
		c0.2,0.3,0.5,0.7,0.6,1.2C349.2,372.3,349.3,372.8,349.3,373.1z" id="PATH_120" class="area" title=""></path>
</g>
<g id="G_121" class="area" title="">
	<path d="M342.5,319.9c0.1,0.3,0.1,0.6,0.1,0.9c0,0.4-0.1,0.7-0.2,1.1c-0.3,0.7-0.8,1.3-1.8,1.7c-0.8,0.3-1.6,0.5-2.5,0.5
		c-0.9,0-1.6-0.2-2.2-0.6c-0.6-0.5-0.9-1.1-0.9-2c0-0.5,0.1-0.9,0.3-1.5c0.2-0.4,0.3-0.7,0.5-0.9c0.1-0.1,0.2-0.1,0.2-0.1
		c0.1,0,0.1,0,0.1,0.1c0,0,0,0.1,0,0.2c-0.3,0.6-0.4,1.2-0.4,1.7c0,0.5,0.2,0.9,0.5,1.3c0.4,0.5,1.1,0.7,2,0.7c1,0,1.9-0.2,2.6-0.5
		c0.6-0.3,1-0.6,1.2-1c0.1-0.1,0.1-0.3,0.1-0.4c0-0.3-0.1-0.6-0.2-1c-0.1-0.3-0.4-0.8-0.9-1.6l0.4-0.8c0.1-0.1,0.1-0.2,0.1-0.2
		s0.1,0.1,0.1,0.1C342,318.4,342.3,319.1,342.5,319.9z M339.5,315.6l-0.8,0.8l-0.8-0.8l0.8-0.8L339.5,315.6z" id="PATH_122" class="area" title=""></path>
	<path d="M346.5,320.1h-0.7c-0.7,0-1.3-0.3-1.5-0.9c-0.2-0.4-0.3-1.1-0.3-1.9v-1.9c0-0.9-0.1-2.2-0.2-3.9l0.6-0.7
		c0.1-0.1,0.2-0.1,0.2,0c0.1,0.9,0.2,2.2,0.2,3.9v2.9c0,0.8,0.4,1.2,1.2,1.2h0.5V320.1z" id="PATH_123" class="area" title=""></path>
	<path d="M353.3,320.1h-0.6c-0.5,0-1.1-0.2-1.6-0.7c-0.4-0.3-0.8-0.9-1.3-1.6c-0.1,1.5-1.1,2.3-3.1,2.3h-0.6v-1.2h0.4
		c1.8,0,2.8-0.4,2.8-1.1c0-0.6-0.4-1.3-1.3-2.1c-0.4-0.4-0.8-0.7-1.3-1.1c0-0.4,0.1-0.7,0.3-1c0.1-0.1,1.9-0.7,5.5-1.8
		c0,0.1-0.1,0.5-0.3,1.1c-0.9,0.2-2.4,0.7-4.4,1.3c1,1.1,2,2.1,2.7,3c0.5,0.5,0.8,0.9,1.1,1.1c0.4,0.3,0.9,0.5,1.4,0.5h0.4V320.1z
		 M352.2,310.4l-0.2,0.7l-4.9,1.6l0.2-0.7L352.2,310.4z" id="PATH_124" class="area" title=""></path>
	<path d="M355.7,318.1c0,1.3-0.7,2-2,2h-0.8v-1.2h0.7c1,0,1.5-0.2,1.5-0.5c0-0.3-0.2-0.7-0.7-1.2l0.4-1c0-0.1,0.1-0.1,0.1-0.1
		s0.1,0.1,0.2,0.2C355.5,316.8,355.7,317.4,355.7,318.1z M354.9,322.3l-0.8,0.8l-0.8-0.8l0.8-0.8L354.9,322.3z M356.6,322.3
		l-0.8,0.8l-0.8-0.8l0.8-0.8L356.6,322.3z" id="PATH_125" class="area" title=""></path>
	<path d="M361.7,320.1c0,1-0.3,1.9-0.9,2.8c-0.5,0.7-1,1.1-1.3,1.1c-0.8,0-1.4,0-2-0.1c-0.2,0-0.3-0.1-0.3-0.1s0.1-0.1,0.3-0.1
		c0.8-0.2,1.6-0.6,2.4-1.2c0.8-0.7,1.3-1.4,1.3-2.1c0-0.4-0.3-1-1-1.7l0.5-0.9c0-0.1,0.1-0.1,0.1-0.1c0,0,0.1,0.1,0.1,0.1
		c0.2,0.3,0.5,0.7,0.6,1.2C361.6,319.4,361.7,319.8,361.7,320.1z" id="PATH_126" class="area" title=""></path>
</g>
<g id="G_127" class="area" title="">
	<path d="M268.5,328.3c0,1.4-0.9,2.1-2.8,2.1c-0.7,0-1.2-0.1-1.5-0.3c-0.4-0.2-0.6-0.7-0.6-1.3c0-0.3,0.1-0.6,0.2-0.9
		c0.1-0.1,0.1-0.2,0.2-0.2c0.1,0,0.1,0.1,0.1,0.3c0,0.1,0,0.2,0,0.3c0,0.4,0.2,0.7,0.6,0.8c0.2,0.1,0.6,0.1,1.1,0.1
		c1.5,0,2.2-0.2,2.2-0.7c0-0.7-0.9-1.7-2.6-2.9l0.3-1c0-0.1,0.1-0.1,0.1-0.1c0,0,0.1,0,0.2,0.1C267.7,325.9,268.5,327.2,268.5,328.3
		z" id="PATH_128" class="area" title=""></path>
	<path d="M272.5,330.4h-0.7c-0.7,0-1.3-0.3-1.5-0.9c-0.2-0.4-0.3-1.1-0.3-1.9v-1.9c0-0.9-0.1-2.2-0.2-3.9l0.6-0.7
		c0.1-0.1,0.2-0.1,0.2,0c0.1,0.9,0.2,2.2,0.2,3.9v2.9c0,0.8,0.4,1.2,1.2,1.2h0.5V330.4z" id="PATH_129" class="area" title=""></path>
	<path d="M274.9,328.4c0,1.3-0.7,2-2,2h-0.8v-1.2h0.7c1,0,1.5-0.2,1.5-0.5c0-0.3-0.2-0.7-0.7-1.2l0.4-1c0-0.1,0.1-0.1,0.1-0.1
		s0.1,0.1,0.2,0.2C274.7,327.1,274.9,327.7,274.9,328.4z M274.5,332.6l-0.8,0.8l-0.8-0.8l0.8-0.8L274.5,332.6z" id="PATH_130" class="area" title=""></path>
	<path d="M278.9,319.7c-0.4,0.4-1,0.5-1.6,0.5c-0.1,0-0.2,0-0.4,0s-0.3,0-0.4,0c-0.1,0-0.2,0.1-0.3,0.2s-0.2,0.2-0.2,0.2
		c-0.1,0-0.1-0.1-0.1-0.2c0-0.1,0.1-0.3,0.2-0.5c0.1-0.3,0.2-0.4,0.3-0.4c0.1,0,0.3,0,0.6,0.1s0.5,0.1,0.6,0.1c0.6,0,1,0,1.3-0.1
		c0.2,0,0.3-0.1,0.3-0.1c0,0,0.1,0,0.1,0C279.1,319.5,279,319.6,278.9,319.7z M278.2,329.1c0,0.4-0.1,0.8-0.3,1.1
		c-0.1,0.2-0.2,0.3-0.2,0.3c0,0-0.1-0.1-0.1-0.4c0-1.2-0.2-4-0.6-8.5l0.8-0.8c0.1-0.1,0.1-0.1,0.1-0.1c0,0,0,0.1,0,0.2
		C278.2,322.3,278.2,325,278.2,329.1z" id="PATH_131" class="area" title=""></path>
	<path d="M283.9,330.5c0,1-0.3,1.9-0.9,2.8c-0.5,0.7-1,1.1-1.3,1.1c-0.8,0-1.4,0-2-0.1c-0.2,0-0.3-0.1-0.3-0.1s0.1-0.1,0.3-0.1
		c0.8-0.2,1.6-0.6,2.4-1.2c0.8-0.7,1.3-1.4,1.3-2.1c0-0.4-0.3-1-1-1.7l0.5-0.9c0-0.1,0.1-0.1,0.1-0.1c0,0,0.1,0.1,0.1,0.1
		c0.2,0.3,0.5,0.7,0.6,1.2C283.8,329.7,283.9,330.1,283.9,330.5z" id="PATH_132" class="area" title=""></path>
	<path d="M287.8,330.4h-0.7c-0.7,0-1.3-0.3-1.5-0.9c-0.2-0.4-0.3-1.1-0.3-1.9v-1.9c0-0.9-0.1-2.2-0.2-3.9l0.6-0.7
		c0.1-0.1,0.2-0.1,0.2,0c0.1,0.9,0.2,2.2,0.2,3.9v2.9c0,0.8,0.4,1.2,1.2,1.2h0.5V330.4z" id="PATH_133" class="area" title=""></path>
	<path d="M292.8,330.4H292c-0.9,0-1.5-0.3-1.9-0.9c-0.3,0.6-1,0.9-2.1,0.9h-0.6v-1.2h0.9c1,0,1.5-0.4,1.6-1.1c0-0.3,0.1-0.5,0.2-0.5
		s0.2,0.2,0.2,0.5c0.1,0.7,0.6,1.1,1.5,1.1h0.9V330.4z M290.6,332.6l-0.8,0.8l-0.8-0.8l0.8-0.8L290.6,332.6z" id="PATH_134" class="area" title=""></path>
	<path d="M295.1,328.4c0,1.3-0.7,2-2,2h-0.8v-1.2h0.7c1,0,1.5-0.2,1.5-0.5c0-0.3-0.2-0.7-0.7-1.2l0.4-1c0-0.1,0.1-0.1,0.1-0.1
		s0.1,0.1,0.2,0.2C294.9,327.1,295.1,327.7,295.1,328.4z M295.1,323.8l-0.8,0.8l-0.8-0.8l0.8-0.8L295.1,323.8z" id="PATH_135" class="area" title=""></path>
	<path d="M297.5,329.1c0,0.4-0.1,0.8-0.3,1.1c-0.1,0.2-0.2,0.3-0.2,0.3c0,0-0.1-0.1-0.1-0.4c0-1.2-0.2-4-0.6-8.5l0.8-0.8
		c0.1-0.1,0.1-0.1,0.1-0.1c0,0,0,0.1,0,0.2C297.5,322.3,297.5,325,297.5,329.1z" id="PATH_136" class="area" title=""></path>
</g>
<g id="G_137" class="area" title="">
	<path d="M174.1,370.8c0,0.7-0.2,1.3-0.7,1.6c-0.3,0.2-0.9,0.4-1.8,0.5c-1,0.2-2,0.3-3.1,0.3c-2.6,0-4-0.7-4-2.2
		c0-0.5,0.2-1,0.6-1.5c0.1-0.1,0.1-0.2,0.2-0.2c0.1,0,0.1,0,0.1,0.1c0,0,0,0.1,0,0.2c-0.1,0.3-0.2,0.6-0.2,0.9c0,1,1.3,1.5,3.8,1.5
		c1.2,0,2.3-0.1,3.1-0.2c1-0.2,1.4-0.4,1.4-0.7c0-0.2-0.2-0.6-0.7-1.2l0.5-0.9c0.1-0.1,0.1-0.1,0.2,0
		C173.9,369.7,174.1,370.3,174.1,370.8z M170.2,375.3l-0.8,0.8l-0.8-0.8l0.8-0.8L170.2,375.3z" id="PATH_138" class="area" title=""></path>
	<path d="M178.1,373h-0.7c-0.7,0-1.3-0.3-1.5-0.9c-0.2-0.4-0.3-1.1-0.3-1.9v-1.9c0-0.9-0.1-2.2-0.2-3.9l0.6-0.7
		c0.1-0.1,0.2-0.1,0.2,0c0.1,0.9,0.2,2.2,0.2,3.9v2.9c0,0.8,0.4,1.2,1.2,1.2h0.5V373z" id="PATH_139" class="area" title=""></path>
	<path d="M180.5,371.1c0,1.3-0.7,2-2,2h-0.8v-1.2h0.7c1,0,1.5-0.2,1.5-0.5c0-0.3-0.2-0.7-0.7-1.2l0.4-1c0-0.1,0.1-0.1,0.1-0.1
		c0,0,0.1,0.1,0.2,0.2C180.2,369.8,180.5,370.4,180.5,371.1z M179.7,375.2l-0.8,0.8l-0.8-0.8l0.8-0.8L179.7,375.2z M181.4,375.2
		l-0.8,0.8l-0.8-0.8l0.8-0.8L181.4,375.2z" id="PATH_140" class="area" title=""></path>
	<path d="M186.5,373.1c0,1-0.3,1.9-0.9,2.8c-0.5,0.7-1,1.1-1.3,1.1c-0.8,0-1.4,0-2-0.1c-0.2,0-0.3-0.1-0.3-0.1s0.1-0.1,0.3-0.1
		c0.8-0.2,1.6-0.6,2.4-1.2c0.8-0.7,1.3-1.4,1.3-2.1c0-0.4-0.3-1-1-1.7l0.5-0.9c0-0.1,0.1-0.1,0.1-0.1c0,0,0.1,0.1,0.1,0.1
		c0.2,0.3,0.5,0.7,0.6,1.2C186.3,372.3,186.5,372.8,186.5,373.1z" id="PATH_141" class="area" title=""></path>
	<path d="M190.4,373h-0.7c-0.7,0-1.3-0.3-1.5-0.9c-0.2-0.4-0.3-1.1-0.3-1.9v-1.9c0-0.9-0.1-2.2-0.2-3.9l0.6-0.7
		c0.1-0.1,0.2-0.1,0.2,0c0.1,0.9,0.2,2.2,0.2,3.9v2.9c0,0.8,0.4,1.2,1.2,1.2h0.5V373z" id="PATH_142" class="area" title=""></path>
	<path d="M194.3,370.2v0.4c0,0.7-0.1,1.1-0.3,1.4c-0.5,0.7-1.3,1-2.6,1H190v-1.2h1c1.7,0,2.6-0.3,2.8-0.8c0-0.1,0-0.1,0-0.2
		c0-0.2,0-0.3-0.1-0.4c-0.4,0.1-0.9,0.1-1.3,0.1c-0.9,0-1.4-0.4-1.4-1.2c0-0.5,0.1-1.1,0.4-1.6c0.3-0.6,0.7-0.9,1.2-0.9
		c0.4,0,0.8,0.3,1.1,0.8C194.1,368.4,194.3,369.2,194.3,370.2z M193.1,364.7l-0.8,0.8l-0.8-0.8l0.8-0.8L193.1,364.7z M193.5,369.3
		c0-0.3-0.1-0.6-0.3-0.9c-0.2-0.3-0.5-0.4-0.8-0.4c-0.2,0-0.4,0.1-0.6,0.2c-0.1,0.1-0.2,0.3-0.2,0.5c0,0.4,0.3,0.6,1,0.6
		C192.9,369.5,193.2,369.4,193.5,369.3z" id="PATH_143" class="area" title=""></path>
</g>
<g id="G_144" class="area" title="">
	<path d="M98.7,342.2h-0.4c-0.4,0-0.6-0.1-0.8-0.2c0,0.1,0,0.2,0,0.3c0,0.9-0.3,1.8-0.9,2.7c-0.5,0.8-1,1.1-1.3,1.1
		c-0.8,0-1.4,0-2-0.1c-0.2,0-0.3-0.1-0.3-0.1s0.1-0.1,0.3-0.1c0.8-0.2,1.6-0.6,2.4-1.2c0.8-0.7,1.3-1.4,1.3-2.1c0-0.4-0.3-1-1-1.7
		l0.5-0.9c0-0.1,0.1-0.1,0.1-0.1c0,0,0.1,0.1,0.1,0.1c0.3,0.4,0.5,0.7,0.7,0.8c0.3,0.2,0.7,0.4,1.1,0.4h0.3V342.2z" id="PATH_145" class="area" title=""></path>
	<path d="M101.1,340.2c0,1.3-0.7,2-2,2h-0.8V341H99c1,0,1.5-0.2,1.5-0.5c0-0.3-0.2-0.7-0.7-1.2l0.4-1c0-0.1,0.1-0.1,0.1-0.1
		c0,0,0.1,0.1,0.2,0.2C100.9,338.9,101.1,339.5,101.1,340.2z M100.8,344.4l-0.8,0.8l-0.8-0.8l0.8-0.8L100.8,344.4z" id="PATH_146" class="area" title=""></path>
	<path d="M103.4,340.9c0,0.4-0.1,0.8-0.3,1.1c-0.1,0.2-0.2,0.3-0.2,0.3c0,0-0.1-0.1-0.1-0.4c0-1.2-0.2-4-0.6-8.5l0.8-0.8
		c0.1-0.1,0.1-0.1,0.1-0.1c0,0,0,0.1,0,0.2C103.4,334.1,103.4,336.8,103.4,340.9z" id="PATH_147" class="area" title=""></path>
	<path d="M108.5,342.3c0,1-0.3,1.9-0.9,2.8c-0.5,0.7-1,1.1-1.3,1.1c-0.8,0-1.4,0-2-0.1c-0.2,0-0.3-0.1-0.3-0.1s0.1-0.1,0.3-0.1
		c0.8-0.2,1.6-0.6,2.4-1.2c0.8-0.7,1.3-1.4,1.3-2.1c0-0.4-0.3-1-1-1.7l0.5-0.9c0-0.1,0.1-0.1,0.1-0.1c0,0,0.1,0.1,0.1,0.1
		c0.2,0.3,0.5,0.7,0.6,1.2C108.4,341.5,108.5,341.9,108.5,342.3z" id="PATH_148" class="area" title=""></path>
</g>
<g id="G_149" class="area" title="">
	<path d="M159.6,341h-0.7c-0.9,0-1.4-0.5-1.6-1.6c-0.5,0.5-0.7,0.7-0.8,0.7h-0.9c-0.3,0-0.6,0-0.9-0.1c-0.4-0.1-0.6-0.3-0.6-0.5
		c0-0.8,0.3-1.4,0.8-1.8c0.4-0.3,1-0.6,1.8-1l-0.2-1l0.7-0.8c0,0.1,0.3,1.2,0.7,3.3c0.1,0.6,0.3,1.1,0.4,1.3
		c0.2,0.3,0.4,0.4,0.8,0.4h0.7V341z M157.1,339l-0.3-1.6c-0.3,0.1-0.7,0.3-1.2,0.5c-0.6,0.3-1,0.6-1,0.7c0,0.2,0.2,0.3,0.7,0.4
		c0.3,0.1,0.6,0.1,0.9,0.1C156.6,339.1,156.9,339,157.1,339z" id="PATH_150" class="area" title=""></path>
	<path d="M164.5,341h-0.8c-0.9,0-1.5-0.3-1.9-0.9c-0.3,0.6-1,0.9-2.1,0.9h-0.6v-1.2h0.9c1,0,1.5-0.4,1.6-1.1c0-0.3,0.1-0.5,0.2-0.5
		c0.1,0,0.2,0.2,0.2,0.5c0.1,0.7,0.6,1.1,1.5,1.1h0.9V341z M161.2,343.2l-0.8,0.8l-0.8-0.8l0.8-0.8L161.2,343.2z M162.9,343.2
		l-0.8,0.8l-0.8-0.8l0.8-0.8L162.9,343.2z" id="PATH_151" class="area" title=""></path>
	<path d="M166.9,339c0,1.3-0.7,2-2,2h-0.8v-1.2h0.7c1,0,1.5-0.2,1.5-0.5c0-0.3-0.2-0.7-0.7-1.2l0.4-1c0-0.1,0.1-0.1,0.1-0.1
		c0,0,0.1,0.1,0.2,0.2C166.7,337.8,166.9,338.4,166.9,339z M166.8,335l-0.1,0.5c-0.7,0.1-1.5,0.3-2.2,0.6v-0.4
		c0.1-0.1,0.3-0.2,0.6-0.4c-0.4-0.3-0.6-0.5-0.6-0.7c0-0.2,0.1-0.5,0.4-0.8c0.3-0.4,0.6-0.5,0.9-0.5c0.4,0,0.6,0.2,0.8,0.5
		c0,0.1,0.1,0.2,0,0.2c0,0-0.1,0-0.2,0c-0.2-0.1-0.4-0.1-0.6-0.1c-0.1,0-0.2,0-0.4,0.1c-0.2,0.1-0.2,0.2-0.2,0.3
		c0,0.2,0.1,0.4,0.4,0.5c0.2,0.1,0.4,0.2,0.6,0.2c0.2,0,0.3,0,0.5-0.1l0,0c0.1,0,0.2,0,0.2,0S166.8,334.9,166.8,335z" id="PATH_152" class="area" title=""></path>
	<path d="M172,340.6c0,1.5-0.5,2.8-1.5,3.8c-0.3,0.3-0.5,0.5-0.6,0.5c-0.6,0-1.2-0.1-1.9-0.2c-0.3,0-0.4-0.1-0.4-0.1
		c0,0,0.1-0.1,0.4-0.2c0.8-0.2,1.6-0.7,2.3-1.3c0.3-0.3,0.6-0.5,0.8-0.9c0.3-0.4,0.5-0.8,0.5-1.1V341l-1.3,0c-0.9,0-1.4-0.4-1.4-1.1
		c0-0.5,0.1-1,0.4-1.6c0.3-0.6,0.7-1,1.1-1c0.6,0,1.1,0.4,1.4,1.3C171.9,339.2,172,339.9,172,340.6z M171.3,339.8
		c0-0.3-0.1-0.6-0.3-0.9c-0.2-0.3-0.5-0.5-0.8-0.5c-0.2,0-0.4,0.1-0.5,0.2c-0.2,0.2-0.2,0.3-0.2,0.5c0,0.5,0.3,0.7,1,0.7
		C170.6,339.9,170.9,339.9,171.3,339.8z" id="PATH_153" class="area" title=""></path>
	<path d="M177.1,341.1c0,1-0.3,1.9-0.9,2.8c-0.5,0.7-1,1.1-1.3,1.1c-0.8,0-1.4,0-2-0.1c-0.2,0-0.3-0.1-0.3-0.1s0.1-0.1,0.3-0.1
		c0.8-0.2,1.6-0.6,2.4-1.2c0.8-0.7,1.3-1.4,1.3-2.1c0-0.4-0.3-1-1-1.7l0.5-0.9c0-0.1,0.1-0.1,0.1-0.1c0,0,0.1,0.1,0.1,0.1
		c0.2,0.3,0.5,0.7,0.6,1.2C177,340.3,177.1,340.8,177.1,341.1z M176.4,335.8l-0.8,0.8l-0.8-0.8l0.8-0.8L176.4,335.8z" id="PATH_154" class="area" title=""></path>
	<path d="M182.1,341.1c0,1-0.3,1.9-0.9,2.8c-0.5,0.7-1,1.1-1.3,1.1c-0.8,0-1.4,0-2-0.1c-0.2,0-0.3-0.1-0.3-0.1s0.1-0.1,0.3-0.1
		c0.8-0.2,1.6-0.6,2.4-1.2c0.8-0.7,1.3-1.4,1.3-2.1c0-0.4-0.3-1-1-1.7l0.5-0.9c0-0.1,0.1-0.1,0.1-0.1c0,0,0.1,0.1,0.1,0.1
		c0.2,0.3,0.5,0.7,0.6,1.2C182,340.3,182.1,340.8,182.1,341.1z" id="PATH_155" class="area" title=""></path>
	<path d="M184.5,339.8c0,0.4-0.1,0.8-0.3,1.1c-0.1,0.2-0.2,0.3-0.2,0.3c0,0-0.1-0.1-0.1-0.4c0-1.2-0.2-4-0.6-8.5l0.8-0.8
		c0.1-0.1,0.1-0.1,0.1-0.1c0,0,0,0.1,0,0.2C184.5,333,184.5,335.7,184.5,339.8z" id="PATH_156" class="area" title=""></path>
</g>
<g id="G_157" class="area" title="">
	<path d="M193.8,435.8c0.1,0.3,0.1,0.6,0.1,0.9c0,0.4-0.1,0.7-0.2,1.1c-0.3,0.7-0.8,1.3-1.8,1.7c-0.8,0.3-1.6,0.5-2.5,0.5
		c-0.9,0-1.6-0.2-2.2-0.6c-0.6-0.5-0.9-1.1-0.9-2c0-0.5,0.1-0.9,0.3-1.5c0.2-0.4,0.3-0.7,0.5-0.9c0.1-0.1,0.2-0.1,0.2-0.1
		c0.1,0,0.1,0,0.1,0.1c0,0,0,0.1,0,0.2c-0.3,0.6-0.4,1.2-0.4,1.7c0,0.5,0.2,0.9,0.5,1.3c0.4,0.5,1.1,0.7,2,0.7c1,0,1.9-0.2,2.6-0.5
		c0.6-0.3,1-0.6,1.2-1c0.1-0.1,0.1-0.3,0.1-0.4c0-0.3-0.1-0.6-0.2-1c-0.1-0.3-0.4-0.8-0.9-1.6l0.4-0.8c0.1-0.1,0.1-0.2,0.1-0.2
		s0.1,0,0.1,0.1C193.4,434.3,193.7,435,193.8,435.8z M190.9,431.5l-0.8,0.8l-0.8-0.8l0.8-0.8L190.9,431.5z" id="PATH_158" class="area" title=""></path>
	<path d="M197.9,436h-0.7c-0.7,0-1.3-0.3-1.5-0.9c-0.2-0.4-0.3-1.1-0.3-1.9v-1.9c0-0.9-0.1-2.2-0.2-3.9l0.6-0.7
		c0.1-0.1,0.2-0.1,0.2,0c0.1,0.9,0.2,2.2,0.2,3.9v2.9c0,0.8,0.4,1.2,1.2,1.2h0.5V436z" id="PATH_159" class="area" title=""></path>
	<path d="M205.7,433.1l-0.4,0.8c-0.7,0-1.3,0-1.6,0.1c-0.4,0.2-1,0.4-1.8,0.8c-0.8,0.4-1.4,0.7-1.8,0.8c-0.6,0.2-1.3,0.3-1.9,0.3
		h-0.7v-1.2h0.8c0.9,0,1.7-0.2,2.4-0.5l2.3-1c-0.4-0.1-1-0.3-1.8-0.6c-0.7-0.3-1.1-0.4-1.3-0.4c-0.4,0-0.8,0.2-1.2,0.5
		c-0.1,0.1-0.1,0.1-0.2,0.1c-0.1,0-0.1,0-0.1-0.1c0,0,0-0.1,0-0.1c0.3-1,0.9-1.4,1.7-1.4c0.3,0,0.7,0.1,1.1,0.3
		c0.8,0.4,1.4,0.6,1.8,0.8c0.7,0.2,1.5,0.4,2.4,0.4c0.2,0,0.3,0,0.3,0.1C205.8,432.9,205.8,433,205.7,433.1z M202.4,438l-0.8,0.8
		l-0.8-0.8l0.8-0.8L202.4,438z" id="PATH_160" class="area" title=""></path>
	<path d="M212,436h-1.1c-0.1,1.4-0.6,2.5-1.6,3.5c-0.3,0.3-0.5,0.5-0.6,0.5c-0.5,0-1.2-0.1-1.9-0.2c-0.2,0-0.4-0.1-0.4-0.1
		c0,0,0.1-0.1,0.4-0.2c0.8-0.2,1.6-0.7,2.3-1.2c0.3-0.3,0.6-0.5,0.8-0.9c0.3-0.4,0.5-0.8,0.5-1.1V436h-1.3c-1,0-1.4-0.4-1.4-1.2
		c0-0.5,0.1-1,0.4-1.6c0.3-0.6,0.7-1,1.1-1c0.5,0,0.9,0.3,1.2,1c0.2,0.5,0.4,1,0.4,1.6h1.1V436z M210.2,434.8c0-0.3-0.1-0.6-0.3-0.9
		c-0.2-0.4-0.5-0.5-0.8-0.5c-0.2,0-0.4,0.1-0.5,0.2c-0.2,0.2-0.2,0.3-0.2,0.6c0,0.5,0.4,0.7,1.2,0.7
		C209.6,434.8,209.9,434.8,210.2,434.8z" id="PATH_161" class="area" title=""></path>
	<path d="M216.9,436h-0.8c-0.9,0-1.5-0.3-1.9-0.9c-0.3,0.6-1,0.9-2.1,0.9h-0.6v-1.2h0.9c1,0,1.5-0.4,1.6-1.1c0-0.3,0.1-0.5,0.2-0.5
		c0.1,0,0.2,0.2,0.2,0.5c0.1,0.7,0.6,1.1,1.5,1.1h0.9V436z M214.9,430.8l-0.8,0.8l-0.8-0.8l0.8-0.8L214.9,430.8z" id="PATH_162" class="area" title=""></path>
	<path d="M221.9,434c0,0.5,0,0.9-0.2,1.3c-0.2,0.5-0.5,0.8-0.8,0.8c-0.5,0-1.3-0.3-2.3-1c-0.3,0.4-0.5,0.6-0.6,0.7
		c-0.3,0.2-0.6,0.3-1,0.3h-0.5v-1.2h0.7c0.4,0,0.8-0.2,1.2-0.7c0.2-0.2,0.5-0.7,0.9-1.3c0.3-0.5,0.7-0.7,1-0.7
		c0.5,0,0.9,0.2,1.2,0.7C221.7,433.3,221.8,433.6,221.9,434z M221.3,434.7c0-0.3-0.1-0.6-0.3-1c-0.2-0.4-0.5-0.6-0.8-0.6
		c-0.3,0-0.6,0.3-1,0.9c0.2,0.2,0.5,0.4,0.9,0.6c0.4,0.2,0.8,0.3,1,0.3C221.2,435,221.3,434.9,221.3,434.7z" id="PATH_163" class="area" title=""></path>
</g>
<g id="G_164" class="area" title="">
	<path d="M301.9,449h-1c-1.3,0-2-0.6-2-1.8c0-0.3,0-0.5,0.1-0.8c-1.1,0.2-2,0.6-2.8,1.1c-1.1,0.7-1.6,1.5-1.6,2.4
		c0,0.9,0.4,1.5,1.3,2c0.7,0.3,1.5,0.5,2.5,0.5c1,0,1.9-0.1,2.7-0.3c0.1,0,0.1,0,0.2,0c0.1,0,0.1,0,0.1,0.1c0,0.1-0.1,0.1-0.2,0.2
		c-0.5,0.5-1,0.8-1.6,0.9c-0.5,0.1-1.1,0.2-1.8,0.2c-1.4,0-2.5-0.3-3.2-1c-0.5-0.5-0.8-1.2-0.8-2c0-1.9,1.3-3.4,3.8-4.4
		c-1.1-0.2-1.8-0.3-2.3-0.3c-0.2,0-0.5,0.1-0.9,0.4s-0.6,0.4-0.5,0.4c-0.1,0-0.1-0.1-0.1-0.3c0-0.3,0.2-0.6,0.4-0.9
		c0.3-0.5,0.8-0.8,1.4-0.8c0.5,0,1.2,0.1,2.1,0.3c0.9,0.2,1.7,0.3,2.2,0.3h0.7c0.2,0,0.3,0,0.3,0.1c0,0,0,0.1-0.1,0.2l-0.3,0.8
		c-0.3,0-0.7,0.1-1.3,0.1c0,0.2,0,0.3,0,0.4c0,0.8,0.5,1.1,1.6,1.1h0.9V449z M298.2,449.7l-0.8,0.8l-0.8-0.8l0.8-0.8L298.2,449.7z" id="PATH_165" class="area" title=""></path>
	<path d="M306.8,449h-0.8c-0.9,0-1.5-0.3-1.9-0.9c-0.3,0.6-1,0.9-2.1,0.9h-0.6v-1.2h0.9c1,0,1.5-0.4,1.6-1.1c0-0.3,0.1-0.5,0.2-0.5
		s0.2,0.2,0.2,0.5c0.1,0.7,0.6,1.1,1.5,1.1h0.9V449z M304.9,443.8l-0.8,0.8l-0.8-0.8l0.8-0.8L304.9,443.8z" id="PATH_166" class="area" title=""></path>
	<path d="M312.9,440.9c0,0.2-0.1,0.5-0.3,1.1c-1.2,0.3-2.7,0.8-4.4,1.3c1.2,1.2,1.9,2.2,2,2.9c0.1,0.5,0,1-0.2,1.5
		c-0.2,0.5-0.6,0.8-1.1,1c-0.4,0.2-1.1,0.2-2,0.2h-0.4v-1.2h0.3c1.9,0,2.9-0.3,2.9-1c0-0.5-0.5-1.3-1.6-2.3l-0.1,0.3
		c-0.1-0.1-0.3-0.3-0.5-0.6c-0.3-0.3-0.4-0.5-0.4-0.6c0-0.3,0.1-0.6,0.4-0.9c0.1-0.1,0.7-0.3,2-0.7
		C310.7,441.5,311.9,441.2,312.9,440.9z M312.7,439.4l-0.2,0.7l-4.9,1.6l0.2-0.7L312.7,439.4z" id="PATH_167" class="area" title=""></path>
	<path d="M323.4,449h-0.7c-0.9,0-1.4-0.5-1.6-1.6c-0.5,0.5-0.7,0.7-0.8,0.7h-0.9c-0.3,0-0.6,0-0.9-0.1c-0.4-0.1-0.6-0.3-0.6-0.5
		c0-0.8,0.3-1.4,0.8-1.8c0.4-0.3,1-0.6,1.8-1l-0.2-1l0.7-0.8c0,0.1,0.3,1.2,0.7,3.3c0.1,0.6,0.3,1.1,0.4,1.3
		c0.2,0.3,0.4,0.4,0.8,0.4h0.7V449z M320.9,447l-0.3-1.6c-0.3,0.1-0.7,0.3-1.2,0.5c-0.6,0.3-1,0.6-1,0.7c0,0.2,0.2,0.3,0.7,0.4
		c0.3,0.1,0.6,0.1,0.9,0.1C320.3,447,320.6,447,320.9,447z" id="PATH_168" class="area" title=""></path>
	<path d="M329,449h-0.6c-1,0-1.8-0.3-2.3-1c-0.6,0.7-1.4,1-2.3,1H323v-1.2h1c0.7,0,1.2-0.1,1.5-0.4c-0.1-0.2-0.2-0.4-0.4-0.6
		c-0.2-0.2-0.4-0.4-0.5-0.4c-0.2-0.1-0.3-0.1-0.3-0.2c0,0,0-0.1,0.1-0.2c0.3-0.6,0.8-0.9,1.7-0.9c1.1,0,1.7,0.3,1.7,1
		c0,0.3-0.3,0.7-0.9,1.3c0.1,0.2,0.4,0.3,0.7,0.4c0.3,0.1,0.5,0.1,0.7,0.1h0.8V449z" id="PATH_169" class="area" title=""></path>
	<path d="M332.7,449h-0.4c-0.9,0-1.5-0.3-1.8-1c-0.1,0.3-0.3,0.5-0.6,0.7c-0.3,0.2-0.6,0.3-0.9,0.3h-0.4v-1.2h0.4
		c0.8,0,1.2-0.3,1.2-1v-3.5c0-1.3,0-2.3-0.1-3l0.9-0.7v6.7c0,1,0.4,1.5,1.3,1.5h0.4V449z" id="PATH_170" class="area" title=""></path>
	<path d="M336.6,446.2c0,0.9-0.1,1.5-0.3,1.8c-0.5,0.7-1.3,1-2.6,1h-1.4v-1.2h1c1.7,0,2.6-0.3,2.8-0.8c0.1-0.2,0-0.4-0.1-0.6
		c-0.4,0.1-0.8,0.1-1.3,0.1c-0.9,0-1.4-0.4-1.4-1.2c0-0.5,0.1-1.1,0.4-1.6c0.3-0.6,0.7-0.9,1.2-0.9c0.4,0,0.8,0.3,1.1,0.8
		C336.4,444.4,336.6,445.2,336.6,446.2z M334.6,440.7l-0.8,0.8l-0.8-0.8l0.8-0.8L334.6,440.7z M335.8,445.3c0-0.3-0.1-0.6-0.3-0.9
		s-0.5-0.4-0.8-0.4c-0.2,0-0.4,0.1-0.6,0.2s-0.2,0.3-0.2,0.5c0,0.4,0.3,0.6,1,0.6C335.1,445.4,335.4,445.4,335.8,445.3z
		 M336.3,440.7l-0.8,0.8l-0.8-0.8l0.8-0.8L336.3,440.7z" id="PATH_171" class="area" title=""></path>
</g>
<g id="G_172" class="area" title="">
	<path d="M367.5,277.8c-0.5,0.5-1,0.8-1.6,0.9c-0.5,0.1-1.1,0.2-1.8,0.2c-1.4,0-2.5-0.3-3.2-1c-0.5-0.5-0.8-1.2-0.8-2
		c0-1.9,1.3-3.4,3.8-4.4c-1.1-0.2-1.8-0.3-2.3-0.3c-0.2,0-0.5,0.1-0.9,0.4s-0.6,0.4-0.5,0.4c-0.1,0-0.1-0.1-0.1-0.3
		c0-0.3,0.2-0.6,0.4-0.9c0.3-0.5,0.8-0.8,1.4-0.8c0.5,0,1.2,0.1,2.1,0.3c0.9,0.2,1.7,0.3,2.2,0.3h0.7c0.2,0,0.3,0,0.3,0.1
		c0,0,0,0.1-0.1,0.2l-0.3,0.8c-0.5,0-1,0.1-1.7,0.2c-1,0.2-2,0.6-2.8,1.1c-1.1,0.7-1.6,1.5-1.6,2.4c0,0.9,0.4,1.5,1.3,2
		c0.7,0.3,1.5,0.5,2.5,0.5c1,0,1.9-0.1,2.7-0.3c0.1,0,0.1,0,0.2,0c0.1,0,0.1,0,0.1,0.1C367.6,277.6,367.6,277.7,367.5,277.8z
		 M364.9,275.1l-0.8,0.8l-0.8-0.8l0.8-0.8L364.9,275.1z" id="PATH_173" class="area" title=""></path>
	<path d="M373.4,274.5H373c-0.4,0-0.6-0.1-0.8-0.2c0,0.1,0,0.2,0,0.3c0,0.9-0.3,1.8-0.9,2.7c-0.5,0.8-1,1.1-1.3,1.1
		c-0.8,0-1.4,0-2-0.1c-0.2,0-0.3-0.1-0.3-0.1s0.1-0.1,0.3-0.1c0.8-0.2,1.6-0.6,2.4-1.2c0.8-0.7,1.3-1.4,1.3-2.1c0-0.4-0.3-1-1-1.7
		l0.5-0.9c0-0.1,0.1-0.1,0.1-0.1c0,0,0.1,0.1,0.1,0.1c0.3,0.4,0.5,0.7,0.7,0.8c0.3,0.2,0.7,0.4,1.1,0.4h0.3V274.5z" id="PATH_174" class="area" title=""></path>
	<path d="M379.6,274.5h-0.5c-0.4,0-0.8,0.1-1.1,0.2c-0.5,0.2-0.8,0.5-0.8,1c0,0.6,0.4,1.1,1.2,1.6l-0.5,1c-0.9-0.3-1.7-0.8-2.3-1.4
		c-0.8-0.7-1.2-1.6-1.2-2.5H373v-1.2h1.3c0-0.8,0.2-1.6,0.6-2.6c0.4-0.9,0.7-1.3,0.9-1.3c0.2,0,0.5,0.4,0.8,1.3
		c0.3,0.8,0.4,1.3,0.4,1.6c0,1.4-0.7,2.1-2.1,2.1c0.1,0.4,0.3,0.8,0.6,1.2s0.7,0.7,1.1,0.9c0-0.1,0-0.3,0-0.4c0-0.7,0.2-1.3,0.5-1.8
		c0.5-0.7,1.1-1.1,2-1.1h0.4V274.5z M376.6,272.9c0-0.2-0.1-0.6-0.3-1.1c-0.2-0.6-0.4-0.8-0.6-0.8c-0.1,0-0.3,0.2-0.5,0.7
		c-0.2,0.5-0.3,1.1-0.3,1.7C376,273.3,376.6,273.2,376.6,272.9z" id="PATH_175" class="area" title=""></path>
	<path d="M383.5,271.7v0.4c0,0.7-0.1,1.1-0.3,1.4c-0.5,0.7-1.3,1-2.6,1h-1.4v-1.2h1c1.7,0,2.6-0.3,2.8-0.8c0-0.1,0-0.1,0-0.2
		c0-0.2,0-0.3-0.1-0.4c-0.4,0.1-0.9,0.1-1.3,0.1c-0.9,0-1.4-0.4-1.4-1.2c0-0.5,0.1-1.1,0.4-1.6c0.3-0.6,0.7-0.9,1.2-0.9
		c0.4,0,0.8,0.3,1.1,0.8C383.3,269.8,383.5,270.7,383.5,271.7z M382.4,266.2l-0.8,0.8l-0.8-0.8l0.8-0.8L382.4,266.2z M382.8,270.8
		c0-0.3-0.1-0.6-0.3-0.9s-0.5-0.4-0.8-0.4c-0.2,0-0.4,0.1-0.6,0.2s-0.2,0.3-0.2,0.5c0,0.4,0.3,0.6,1,0.6
		C382.1,270.9,382.4,270.9,382.8,270.8z" id="PATH_176" class="area" title=""></path>
</g>
<g id="G_177" class="area" title="">
	<path d="M421.8,232.1h-0.4c-0.4,0-0.6-0.1-0.8-0.2c0,0.1,0,0.2,0,0.3c0,0.9-0.3,1.8-0.9,2.7c-0.5,0.8-1,1.1-1.3,1.1
		c-0.8,0-1.4,0-2-0.1c-0.2,0-0.3-0.1-0.3-0.1s0.1-0.1,0.3-0.1c0.8-0.2,1.6-0.6,2.4-1.2c0.8-0.7,1.3-1.4,1.3-2.1c0-0.4-0.3-1-1-1.7
		l0.5-0.9c0-0.1,0.1-0.1,0.1-0.1c0,0,0.1,0.1,0.1,0.1c0.3,0.4,0.5,0.7,0.7,0.8c0.3,0.2,0.7,0.4,1.1,0.4h0.3V232.1z" id="PATH_178" class="area" title=""></path>
	<path d="M426.7,232.1h-0.8c-0.9,0-1.5-0.3-1.9-0.9c-0.3,0.6-1,0.9-2.1,0.9h-0.6V231h0.9c1,0,1.5-0.4,1.6-1.1c0-0.3,0.1-0.5,0.2-0.5
		s0.2,0.2,0.2,0.5c0.1,0.7,0.6,1.1,1.5,1.1h0.9V232.1z M423.4,234.3l-0.8,0.8l-0.8-0.8l0.8-0.8L423.4,234.3z M425.1,234.3l-0.8,0.8
		l-0.8-0.8l0.8-0.8L425.1,234.3z" id="PATH_179" class="area" title=""></path>
	<path d="M435.9,232.1h-0.6c-0.7,0-1.1-0.3-1.4-0.8c-0.2,0.6-0.7,0.8-1.3,0.8c-0.6,0-1-0.3-1.3-0.8c-0.3,0.6-0.7,0.8-1.3,0.8
		c-0.7,0-1.2-0.3-1.5-0.8c-0.4,0.6-0.9,0.8-1.6,0.8h-0.7V231h0.8c0.7,0,1.2-0.4,1.3-1.2c0-0.2,0.1-0.3,0.2-0.3
		c0.1,0,0.1,0.1,0.2,0.3c0.1,0.8,0.5,1.2,1.3,1.2c0.7,0,1.2-0.4,1.2-1.2c0-0.2,0.1-0.3,0.2-0.3c0.1,0,0.2,0.1,0.2,0.3
		c0.1,0.8,0.5,1.2,1,1.2c0.7,0,1.2-0.4,1.2-1.2c0-0.2,0.1-0.3,0.2-0.3c0.1,0,0.2,0.1,0.2,0.3c0.1,0.8,0.5,1.2,1.2,1.2h0.6V232.1z
		 M431.3,227.1l-0.7,0.7l-0.7-0.7l0.7-0.7L431.3,227.1z M432.1,225.5l-0.7,0.7l-0.7-0.7l0.7-0.7L432.1,225.5z M433,227.1l-0.7,0.7
		l-0.7-0.7l0.7-0.7L433,227.1z" id="PATH_180" class="area" title=""></path>
	<path d="M440.9,230.1c0,0.5,0,0.9-0.2,1.3c-0.2,0.5-0.5,0.8-0.8,0.8c-0.5,0-1.3-0.3-2.3-1c-0.3,0.4-0.5,0.6-0.6,0.7
		c-0.3,0.2-0.6,0.3-1,0.3h-0.5V231h0.7c0.4,0,0.8-0.2,1.2-0.7c0.2-0.2,0.5-0.7,0.9-1.3c0.3-0.5,0.7-0.7,1-0.7c0.5,0,0.9,0.2,1.2,0.7
		C440.7,229.4,440.9,229.8,440.9,230.1z M440.3,230.9c0-0.3-0.1-0.6-0.3-1c-0.2-0.4-0.5-0.6-0.8-0.6c-0.3,0-0.6,0.3-1,0.9
		c0.2,0.2,0.5,0.4,0.9,0.6c0.4,0.2,0.8,0.3,1,0.3C440.2,231.1,440.3,231,440.3,230.9z" id="PATH_181" class="area" title=""></path>
	<path d="M447.1,232.1h-0.4c-0.4,0-0.6-0.1-0.8-0.2c0,0.1,0,0.2,0,0.3c0,0.9-0.3,1.8-0.9,2.7c-0.5,0.8-1,1.1-1.3,1.1
		c-0.8,0-1.4,0-2-0.1c-0.2,0-0.3-0.1-0.3-0.1s0.1-0.1,0.3-0.1c0.8-0.2,1.6-0.6,2.4-1.2c0.8-0.7,1.3-1.4,1.3-2.1c0-0.4-0.3-1-1-1.7
		l0.5-0.9c0-0.1,0.1-0.1,0.1-0.1c0,0,0.1,0.1,0.1,0.1c0.3,0.4,0.5,0.7,0.7,0.8c0.3,0.2,0.7,0.4,1.1,0.4h0.3V232.1z" id="PATH_182" class="area" title=""></path>
	<path d="M449.5,230.1c0,1.3-0.7,2-2,2h-0.8V231h0.7c1,0,1.5-0.2,1.5-0.5c0-0.3-0.2-0.7-0.7-1.2l0.4-1c0-0.1,0.1-0.1,0.1-0.1
		s0.1,0.1,0.2,0.2C449.3,228.8,449.5,229.5,449.5,230.1z M449.4,225.6l-0.8,0.8l-0.8-0.8l0.8-0.8L449.4,225.6z" id="PATH_183" class="area" title=""></path>
</g>
</svg>


