



    



<svg version="1.1" id="Layer_1" xmlns="http://www.w3.org/2000/svg" xmlns:xlink="http://www.w3.org/1999/xlink" x="0px" y="0px" width="100%" height="100%" viewBox="0 0 579.81 452" enable-background="new 0 0 579.81 452" xml:space="preserve">
		<path fill="#DBECCB" stroke="#020202" stroke-width="0.2" stroke-miterlimit="10" d="M544.189,313.138
			c-1.251-3.131-5.267-6.721-9.146-10.18c-2.834-2.535-5.768-5.148-7.91-7.83c-1.31-1.631-3.612-3.891-6.063-6.289
			c-7.026-6.895-15.774-15.475-15.774-22.928c0-2.502-2.047-7.365-3.846-11.646c-3.271-7.76-6.346-15.088-3.459-19.445
			c0.175-0.252,0.384-0.523,0.627-0.785c-0.92-0.838-1.944-1.771-3.225-2.197c-9.292-0.715-18.598-2.861-27.177,2.15
			c-6.443,4.287-0.713,13.588-5.724,17.164c-5.723,3.574-15.737,5.01-21.453,0.713c-1.123-0.863-2.217-1.684-3.303-2.48
			c-3.603,7.74-5.218,16.598-11.727,22.514c-0.71,0.713,0,2.859,0.717,4.289c2.862,2.863,8.578,3.576,8.578,5.721
			c2.149,11.443-4.29,20.748-5.717,32.193c-1.433,10.012-13.596,7.869-20.748,10.012c-0.713,0.717-2.143,1.438-2.862,2.863
			c-5.724,8.586,0,16.457-6.437,24.322c-2.304,2.682-0.701,5.771,1.28,9.16h51.733c7.778,0,37.396,2.268,40.166,13.363
			c0.709,2.83,0.709,5.967,0.709,9.002c0,6.166,0.234,10.027,3.444,11.629c0.52,0.26,1.031,0.521,1.529,0.775
			c1.106-1.559,12.973-17.359,33.759-14.781c15.805,1.975,22.733,1.572,26.876,1.334c0.914-0.051,1.689-0.092,2.38-0.105
			c1.087-1.264,2.538-7.342,2.538-15.914v-28.799C560.147,333.118,546.581,319.132,544.189,313.138z" id="_x642__x631__x648__x647_" class="area" title="قروه"></path>
		<path fill="#FDFAD6" stroke="#020202" stroke-width="0.2" stroke-miterlimit="10" d="M365.202,342.718
			c-15.731-16.457-25.754,10.016-38.623,15.738c-8.586,3.576-19.314,1.43-28.621-1.436c-9.291-2.861-18.598-0.711-27.896-0.711
			c-2.144,0-3.576-2.146-3.576-3.576c-1.427-7.158-5.003-15.736-12.872-12.16c-8.586,4.293-12.879,15.736-22.892,18.598
			c-3.575,1.436-8.586-0.715-10.729,1.436c-6.261,4.33-11.232,8.98-17.304,12.002c0.37,9.186,2.318,26.949,11.782,33.262
			c4.688,3.129,10.89,4.881,16.887,6.566c8.133,2.289,15.153,4.268,17.765,9.492c2.954,5.902,8.33,15.469,10.362,19.045
			c6.97,0.027,33.722,0.236,43.76,1.908c13,2.164,29.061,1.982,32.242-1.742c0.229-0.266,0.646-0.756,0.204-2.092
			c-0.654-1.959-1.426-3.982-2.197-6.01c-3.821-10.035-8.165-21.414,1.543-27.238c8.951-5.373,18.095-14.463,18.177-14.555
			l4.799-4.791v6.783c0.152,0.615,2.34,2.809,10.298,2.809c6.642,0,17.786-1.58,17.786-12.168c0-5.281,0.994-10.588,2.943-14.811
			c-3.347-4.996-4.479-11.377-5.949-17.758C381.649,344.86,370.212,347.726,365.202,342.718z" id="_x6A9__x627__x645__x6CC__x627__x631__x627__x646_" class="area" title="کامیاران"></path>
		<path fill="#DBECCB" stroke="#020202" stroke-width="0.2" stroke-miterlimit="10" d="M116.98,168.171
			c1.43-2.146,0.714-6.436,2.862-8.586c8.587-10.729,20.031-21.454,13.589-35.762c-8.578-19.314-31.469-15.025-47.208-24.325
			c-8.586-5.007-15.021-10.729-20.031-19.313c-5.266-7.604-11.965-10.901-19.71-12.631c-6.253,2.617-8.626,9.884-8.626,16.767
			c0,12.637-2.885,15.914-14.041,15.914c-7.565,0-12.17,9.749-12.17,14.041c0,5.68-1.803,25.619-1.883,26.46
			c-0.136,1.464-1.361,2.561-2.791,2.561c-0.029,0-0.051,0-0.076-0.009l2.312,1.998l2.618,1.871l5.996,1.127l6.362,5.617
			l10.487,13.853l5.617,13.104l2.617,3.367l3.746,1.123l8.233-2.252l2.625,0.379l3.364,2.254h4.49l4.49-2.254l5.239-4.124h2.253
			l2.249,0.753h2.253l7.107-2.248l13.852,0.749l4.491-1.499l2.472-1.347C112.454,173.697,114.882,171.21,116.98,168.171z" id="_x628__x627__x646__x647_" class="area" title="بانه"></path>
		<path fill="#E8D0E5" stroke="#020202" stroke-width="0.2" stroke-miterlimit="10" d="M199.958,178.187
			c10.014,0.713,17.168,15.021,20.744,10.02c8.583-9.303-5.719-27.188,0-41.488c7.152-17.172,29.331-7.159,42.919-17.886
			c0.714-0.713,0.714-2.862,0-4.289c-2.139-2.149-2.858-4.292-2.139-6.441c7.869-11.445,19.312-22.893,15.733-37.197
			c0,0-2.146,0.717-3.578-0.716c1.433-0.71,2.865-2.86,2.146-4.294c-3.576-2.859-9.299-2.859-10.013-7.865
			c-1.438-12.875,7.865-22.888,20.027-27.185c0.778,0,1.343-0.846,1.811-1.955c-2.095-1.858-4.052-4.25-5.964-7.42
			c-3.979-6.638-10.535-9.871-20.05-9.871c-3.021,0-17.438,2.15-32.718,4.427c-21.438,3.194-45.729,6.809-53.405,6.809
			c-12.002,0-22.957-1.327-25.25-17.393c-0.977-6.822-4.313-6.802-13.845-5.759c-2.899,0.317-6.187,0.685-9.592,0.685
			c-9.752,0-20.74,2.172-25.274,3.174v27.72c0,7.514-1.222,20.526-9.412,23.256c-5.58,1.856-23.674,2.019-40.202,2.019
			c-2.063,0-3.856,0.368-5.415,1.023c7.74,1.729,14.439,5.032,19.71,12.631c5.01,8.585,11.444,14.308,20.03,19.313
			c15.739,9.304,38.631,5.01,47.209,24.325c6.442,14.304-5.002,25.033-13.59,35.763c-2.146,2.149-1.433,6.442-2.861,8.586
			c-2.101,3.034-4.526,5.521-7.201,7.592l1.646-0.9l3.752-1.498l3.363,0.376l6.736,2.249l1.872,0.38l0.754,0.746l1.117,5.239
			l1.127,1.873l1.129,1.496l1.873,1.495l4.486,1.868l4.49-0.373l9.362-1.872l4.128-1.495l3.744-2.623l4.121-1.871l4.493,0.749
			l2.878,1.729C180.026,179.607,189.577,177.039,199.958,178.187z" id="_x633__x642__x632_" class="area" title="سقز"></path>
		<path fill="#FDFAD6" stroke="#020202" stroke-width="0.2" stroke-miterlimit="10" d="M250.93,229.97
			c-0.721-0.965-1.47-1.992-2.329-3.137c-3.577-5.012-9.3-7.873-12.162-13.596c-4.882-9.143-10.791-16.214-15.977-24.75
			c-3.653,4.1-10.703-9.6-20.507-10.301c-10.379-1.152-19.929,1.416-29.101,5.146l0.863,0.522l1.871,3.744l-0.754,3.744
			l-2.244,4.491l-3.744,2.998l-6.362,4.117l-3.372,4.118l-3.367,2.998l-4.49,0.746l-8.614-0.746l-10.851,5.615l-4.498,1.119
			l-15.354-0.373l-4.487,1.5l-3.001,2.998l-1.497,4.117l-0.745,4.49v4.117l1.872,10.115l-0.373,3.371l-6.746-1.873h-1.127
			l-1.123,0.373l1.873,5.244l2.618,4.863l0.745,1.127l0.381,1.117l-0.381,1.129l-0.745,0.742l-1.872,1.5l-1.126,1.5l-0.373,2.244
			v2.246l2.998,7.488l13.853,21.725l2.112,1.857c3.416-9.66,10.586-18.77,17.771-19.369c10.013-1.434,16.455-7.15,25.75-7.869
			c2.146,0,3.576,6.438,5.724,6.438c11.339,0,18.002,7.113,23.911,15.6c13.889,0.461,27.246-7.582,32.6-22.037
			c1.438-4.287,7.153-5.008,10.729-7.867c6.438-5.01,10.017-12.871,16.459-17.168c2.14-1.432,5.719-1.432,7.868-2.863
			c2.86-1.426,2.86-5.721,0.718-9.297C253.044,232.7,252.006,231.413,250.93,229.97" id="_x645__x631__x6CC__x648__x627__x646_" class="area" title="مریوان"></path>
		<path fill="#DBECCB" stroke="#020202" stroke-width="0.2" stroke-miterlimit="10" d="M347.313,310.522
			c2.149-5.002,0-11.445-5.003-15.021c3.576-3.576,4.29-8.582-1.434-11.445c0-0.713-1.434-2.865-0.718-3.574
			c5.728-2.146,5.015-7.869,7.873-11.445c10.018-12.162,20.748-21.461,25.038-37.203c0.713-2.861,5.01-5.719,5.727-8.584
			c0.652-1.635,0.855-3.271,0.818-4.91c-5.229-0.922-10.666-1.514-15.841-3.67c-2.136-0.711-3.782-1.689-5.09-2.891
			c-0.476,0.857-0.914,1.799-1.342,2.891c-3.58,13.588-16.459,18.598-30.048,16.453c-4.293-0.711-4.293-5.723-7.868-8.584
			c-8.582-5.723-17.173,0.711-25.041-6.441c-3.576-2.861-5.72,5.008-10.013,7.867c-1.435,1.438-2.862,0.717-4.293,0.717
			c-2.859-1.43-5.721-4.289-8.586-3.576c-6.883,2.172-13.582,6.18-20.559,8.863c1.074,1.441,2.105,2.729,3.395,4.016
			c2.143,3.576,2.143,7.869-0.715,9.295c-2.146,1.436-5.723,1.436-7.872,2.863c-6.437,4.289-10.013,12.158-16.455,17.168
			c-3.577,2.859-9.296,3.576-10.729,7.869c-5.354,14.451-18.714,22.496-32.597,22.035c5.646,8.096,10.604,17.441,18.291,23.029
			c14.306,10.02,32.189,5.725,47.93,12.162c4.673,2.334,4.103,7.059,3.731,11.432c6.279-1.082,9.288,6.477,10.575,12.891
			c0,1.43,1.427,3.574,3.577,3.574c9.296,0,18.598-2.145,27.894,0.715c9.303,2.861,20.031,5.01,28.616,1.434
			c6.239-2.773,11.812-10.426,17.692-15.695c-0.779-2.396-1.64-4.797-2.666-7.195C338.021,326.978,344.456,318.396,347.313,310.522z
			" id="_x633__x646__x646__x62F__x62C_" class="area" title="سنندج"></path>
		<path fill="#E8D0E5" stroke="#020202" stroke-width="0.2" stroke-miterlimit="10" d="M426.723,276.194
			c-0.713-1.438-1.427-3.584-0.713-4.293c6.505-5.916,8.124-14.771,11.728-22.512c-11.468-8.385-21.611-12.916-35.332-16.836
			c-5.727-1.434-7.873-9.299-12.879-11.443c-3.121-1.424-6.473-2.158-9.909-2.766c0.04,1.639-0.16,3.275-0.819,4.91
			c-0.712,2.863-5.009,5.723-5.719,8.584c-4.293,15.738-15.021,25.041-25.041,37.203c-2.859,3.576-2.144,9.295-7.869,11.445
			c-0.716,0.709,0.717,2.865,0.717,3.574c5.721,2.863,5.01,7.869,1.426,11.445c5.012,3.576,7.16,10.021,5.012,15.021
			c-2.864,7.873-9.296,16.455-5.721,25.041c1.024,2.398,1.888,4.797,2.666,7.195c6.242-5.602,12.832-8.52,20.938-0.043
			c5.007,5.01,16.452,2.143,17.886,8.586c1.471,6.381,2.604,12.762,5.949,17.758c2.344-5.084,6.063-8.594,11.1-8.594h0.688
			c-1.979-3.395-3.584-6.482-1.28-9.164c6.437-7.869,0.709-15.738,6.437-24.324c0.717-1.426,2.143-2.143,2.863-2.859
			c7.151-2.145,19.314,0,20.748-10.012c1.426-11.449,7.865-20.748,5.716-32.197C435.309,279.771,429.586,279.054,426.723,276.194z" id="_x62F__x647__x6AF__x644__x627__x646_" class="area active" title="دهگلان"></path>
		<path fill="#FBD1D1" stroke="#020202" stroke-width="0.2" stroke-miterlimit="10" d="M280.072,224.681
			c1.436,0,2.864,0.719,4.294-0.713c4.293-2.857,6.437-10.729,10.012-7.869c7.869,7.152,16.455,0.715,25.041,6.443
			c3.576,2.859,3.576,7.869,7.869,8.578c13.596,2.146,26.469-2.861,30.047-16.451c0.429-1.09,0.867-2.029,1.343-2.893
			c-3.938-3.619-4.745-9.262-6.354-15.702c-1.434-5.01-10.725-4.293-12.875-9.303c-5.003-12.871,12.161-16.451,19.314-24.315
			c7.147-8.586,17.886-10.021,25.754-17.173c2.867-2.143,3.576-7.153,6.438-9.296c9.295-7.152,18.603-15.734,11.449-27.184
			c-10.021-17.172-32.193-17.887-49.361-25.042c-6.791-2.826-14.463-7.898-14.9-15.556c-7.681-2.449-12.515-7.008-13.771-13.297
			c-1.229-6.135-5.126-6.969-14.616-8.428c-1.174-0.18-2.408-0.369-3.682-0.581c-7.68-1.284-13.457-2.593-18.459-7.014
			c-0.468,1.11-1.031,1.956-1.806,1.956c-12.163,4.289-21.462,14.309-20.032,27.184c0.71,5.006,6.438,5.006,10.014,7.865
			c0.716,1.438-0.719,3.584-2.145,4.294c1.426,1.433,3.576,0.716,3.576,0.716c3.576,14.307-7.869,25.752-15.738,37.197
			c-0.714,2.15,0,4.292,2.143,6.441c0.718,1.428,0.718,3.572,0,4.289c-13.588,10.727-35.767,0.715-42.918,17.887
			c-5.724,14.301,8.582,32.186,0,41.488c-0.076,0.104-0.156,0.188-0.237,0.28c5.188,8.535,11.095,15.608,15.976,24.749
			c2.863,5.723,8.587,8.586,12.163,13.596c0.859,1.145,1.608,2.174,2.329,3.139c6.978-2.686,13.676-6.691,20.559-8.859
			C274.354,220.392,277.218,223.253,280.072,224.681z" id="_x62F__x6CC__x648__x627__x646__x62F__x631__x647_" class="area" title="دیواندره"></path>
		<path fill="#FBD1D1" stroke="#020202" stroke-width="0.2" stroke-miterlimit="10" d="M252.174,328.407
			c-15.735-6.438-33.62-2.146-47.925-12.16c-15.738-11.447-20.032-38.627-42.202-38.627c-2.146,0-3.577-6.436-5.724-6.436
			c-9.295,0.713-15.737,6.436-25.75,7.867c-7.184,0.602-14.356,9.705-17.771,19.367l9.866,8.629l5.239,5.99l1.871,7.49l-0.748,1.117
			l-1.123,2.625l-2.621,2.992l-1.873,3.369l0.75,4.119l2.994,1.871h6.59c-0.176-0.289-0.314-0.609-0.377-0.965
			c-0.252-1.529,0.787-2.977,2.312-3.229c0.11-0.025,11.06-1.873,20.021-5.455c4.946-1.99,9.112-2.145,12.711-0.471
			c4.175,1.932,7.35,6.324,9.719,13.414c1.456,4.381,6.502,8.141,11.38,11.779c6.443,4.801,13.105,9.766,13.105,17.191
			c0,0.959,0.015,2.23,0.072,3.723c6.07-3.023,11.043-7.676,17.305-12.008c2.143-2.145,7.152,0,10.729-1.428
			c10.013-2.865,14.306-14.313,22.893-18.602c0.812-0.377,1.575-0.605,2.295-0.729C256.278,335.462,256.846,330.741,252.174,328.407
			z" id="_x633__x631__x648__x622__x628__x627__x62F_" class="area" title="سروآباد"></path>
		<path fill="#FDFAD6" stroke="#020202" stroke-width="0.2" stroke-miterlimit="10" d="M353.044,83.761
			c17.168,7.152,39.342,7.873,49.36,25.045c7.152,11.445-2.149,20.026-11.448,27.18c-2.862,2.146-3.572,7.156-6.439,9.3
			c-7.868,7.147-18.605,8.586-25.754,17.164c-7.153,7.873-24.316,11.445-19.314,24.321c2.15,5.013,11.449,4.288,12.875,9.302
			c2.144,8.583,2.862,15.735,11.449,18.598c8.586,3.576,17.878,2.863,25.751,6.439c5.009,2.143,7.151,10.012,12.875,11.445
			c15.024,4.289,25.75,9.305,38.629,19.314c5.72,4.289,15.735,2.859,21.458-0.717c5.01-3.576-0.718-12.871,5.719-17.166
			c8.588-5.01,17.886-2.865,27.185-2.148c1.28,0.428,2.304,1.359,3.222,2.197c1.031-1.098,2.787-2.125,5.741-2.125
			c13.289,0,37.715-3.936,42.948-9.16c5.478-5.479,21.938-20.093,26.449-24.086c-3.609-5.191-7.522-10.846-9.334-13.565
			c-2.64-3.965-9.98-6.239-20.125-6.239c-12.041,0-14.159-10.596-15.859-19.104c-1.107-5.525-1.107-5.519-8.486-5.324
			c-1.605,0.044-3.46,0.092-5.609,0.092c-3.27,0-5.854-1.104-7.687-3.283c-4.454-5.295-2.726-15.264-1.46-22.541
			c0.37-2.104,0.717-4.117,0.717-5.066c0-5.88,1.705-13.201,15.022-17.641c1.411-0.469,2.341-1.311,2.918-2.627
			c2.121-4.881-1.068-14.172-2.611-17.653c-1.558-2.376-3.576-8.943-2.654-12.638c0.49-1.975,0.309-5.811,0.22-7.649
			c-0.029-0.614-0.052-1.097-0.052-1.382c0-3.893-0.116-4.813-0.159-5.003c-0.045-0.099-0.386-0.886-0.813-1.912
			c-1.097-2.586-2.589-6.138-3.138-7.957c-0.526-1.752-2.004-4.765-2.779-5.986c-1.807-0.317-7.196-0.994-16.25-0.994
			c-10.736,0-23.703-3.222-38.549-9.592c-3.115-1.334-6.642-3.229-10.378-5.231c-8.513-4.575-19.11-10.259-24.339-8.433
			c-1.259,0.438-2.144,1.338-2.779,2.83c-1.817,4.252-4.68,7.111-8.505,8.511c-4.675,1.709-9.654,0.733-12.784-0.263
			c-0.475,7.453-1.989,14.993-5.098,20.177c-6.077,10.131-25.82,20.086-39.852,20.086c-5.857,0-10.963-0.713-15.197-2.07
			C338.573,75.865,346.245,80.937,353.044,83.761z" id="_x628__x6CC__x62C__x627__x631_" class="area" title="بیجار"></path>

	<g enable-background="new    " id="G_13" class="area excluded" title="">
		<path fill="#040404" d="M52.708,136.547v-8.59h3.223c0.656,0,1.183,0.087,1.579,0.261s0.707,0.441,0.932,0.803
			s0.337,0.739,0.337,1.134c0,0.367-0.1,0.713-0.299,1.037s-0.5,0.586-0.902,0.785c0.52,0.152,0.919,0.412,1.198,0.779
			s0.419,0.801,0.419,1.301c0,0.402-0.085,0.776-0.255,1.122s-0.38,0.612-0.63,0.8s-0.563,0.329-0.94,0.425
			s-0.839,0.144-1.386,0.144H52.708z M53.845,131.567h1.857c0.504,0,0.865-0.033,1.084-0.1c0.289-0.086,0.507-0.229,0.653-0.428
			s0.22-0.449,0.22-0.75c0-0.285-0.068-0.536-0.205-0.753s-0.332-0.365-0.586-0.445s-0.689-0.12-1.307-0.12h-1.717V131.567z
			 M53.845,135.534h2.139c0.367,0,0.625-0.014,0.773-0.041c0.262-0.047,0.48-0.125,0.656-0.234s0.32-0.269,0.434-0.478
			s0.17-0.45,0.17-0.724c0-0.32-0.082-0.599-0.246-0.835s-0.392-0.402-0.683-0.498s-0.71-0.144-1.257-0.144h-1.986V135.534z" id="PATH_14" class="area excluded" title=""></path>
		<path fill="#040404" d="M64.685,135.78c-0.391,0.332-0.767,0.566-1.128,0.703s-0.749,0.205-1.163,0.205
			c-0.684,0-1.209-0.167-1.576-0.501s-0.551-0.761-0.551-1.28c0-0.305,0.069-0.583,0.208-0.835s0.32-0.454,0.545-0.606
			s0.478-0.268,0.759-0.346c0.207-0.055,0.52-0.107,0.938-0.158c0.852-0.102,1.479-0.223,1.881-0.363
			c0.004-0.145,0.006-0.236,0.006-0.275c0-0.43-0.1-0.732-0.299-0.908c-0.27-0.238-0.67-0.357-1.201-0.357
			c-0.496,0-0.862,0.087-1.099,0.261s-0.411,0.481-0.524,0.923l-1.031-0.141c0.094-0.441,0.248-0.798,0.463-1.069
			s0.525-0.48,0.932-0.627s0.877-0.22,1.412-0.22c0.531,0,0.963,0.063,1.295,0.188s0.576,0.282,0.732,0.472s0.266,0.429,0.328,0.718
			c0.035,0.18,0.053,0.504,0.053,0.973v1.406c0,0.98,0.022,1.601,0.067,1.86s0.134,0.509,0.267,0.747h-1.102
			C64.787,136.329,64.716,136.073,64.685,135.78z M64.597,133.424c-0.383,0.156-0.957,0.289-1.723,0.398
			c-0.434,0.063-0.74,0.133-0.92,0.211s-0.318,0.192-0.416,0.343s-0.146,0.317-0.146,0.501c0,0.281,0.106,0.516,0.319,0.703
			s0.524,0.281,0.935,0.281c0.406,0,0.768-0.089,1.084-0.267s0.549-0.421,0.697-0.729c0.113-0.238,0.17-0.59,0.17-1.055V133.424z" id="PATH_15" class="area excluded" title=""></path>
		<path fill="#040404" d="M67.298,136.547v-6.223h0.949v0.885c0.457-0.684,1.117-1.025,1.98-1.025c0.375,0,0.72,0.067,1.034,0.202
			s0.55,0.312,0.706,0.53s0.266,0.479,0.328,0.779c0.039,0.195,0.059,0.537,0.059,1.025v3.826H71.3v-3.785
			c0-0.43-0.041-0.751-0.123-0.964s-0.228-0.383-0.437-0.51s-0.454-0.19-0.735-0.19c-0.449,0-0.837,0.143-1.163,0.428
			s-0.489,0.826-0.489,1.623v3.398H67.298z" id="PATH_16" class="area excluded" title=""></path>
		<path fill="#040404" d="M78.232,134.543l1.09,0.135c-0.172,0.637-0.49,1.131-0.955,1.482s-1.059,0.527-1.781,0.527
			c-0.91,0-1.632-0.28-2.165-0.841s-0.8-1.347-0.8-2.358c0-1.047,0.27-1.859,0.809-2.438s1.238-0.867,2.098-0.867
			c0.832,0,1.512,0.283,2.039,0.85s0.791,1.363,0.791,2.391c0,0.063-0.002,0.156-0.006,0.281H74.71
			c0.039,0.684,0.232,1.207,0.58,1.57s0.781,0.545,1.301,0.545c0.387,0,0.717-0.102,0.99-0.305S78.072,134.989,78.232,134.543z
			 M74.769,132.838h3.475c-0.047-0.523-0.18-0.916-0.398-1.178c-0.336-0.406-0.771-0.609-1.307-0.609
			c-0.484,0-0.892,0.162-1.222,0.486S74.804,132.295,74.769,132.838z" id="PATH_17" class="area excluded" title=""></path>
		<path fill="#040404" d="M80.646,136.547v-8.59h1.055v3.082c0.492-0.57,1.113-0.855,1.863-0.855c0.461,0,0.861,0.091,1.201,0.272
			s0.583,0.433,0.729,0.753s0.22,0.785,0.22,1.395v3.943H84.66v-3.943c0-0.527-0.114-0.911-0.343-1.151s-0.552-0.36-0.97-0.36
			c-0.313,0-0.606,0.081-0.882,0.243s-0.472,0.382-0.589,0.659s-0.176,0.66-0.176,1.148v3.404H80.646z" id="PATH_18" class="area excluded" title=""></path>
	</g>
	<g enable-background="new    " id="G_19" class="area excluded" title="">
		<path fill="#040404" d="M435.615,155.549v-8.59h3.223c0.656,0,1.184,0.087,1.58,0.261s0.707,0.441,0.932,0.803
			s0.336,0.739,0.336,1.134c0,0.367-0.1,0.713-0.299,1.037s-0.5,0.586-0.902,0.785c0.52,0.152,0.92,0.412,1.199,0.779
			s0.418,0.801,0.418,1.301c0,0.402-0.084,0.776-0.254,1.122s-0.381,0.612-0.631,0.8s-0.563,0.329-0.939,0.425
			s-0.84,0.144-1.387,0.144H435.615z M436.752,150.569h1.857c0.504,0,0.865-0.033,1.084-0.1c0.289-0.086,0.508-0.229,0.654-0.428
			s0.219-0.449,0.219-0.75c0-0.285-0.068-0.536-0.205-0.753s-0.332-0.365-0.586-0.445s-0.689-0.12-1.307-0.12h-1.717V150.569z
			 M436.752,154.536h2.139c0.367,0,0.625-0.014,0.773-0.041c0.262-0.047,0.48-0.125,0.656-0.234s0.32-0.269,0.434-0.478
			s0.17-0.45,0.17-0.724c0-0.32-0.082-0.599-0.246-0.835s-0.391-0.402-0.682-0.498s-0.711-0.144-1.258-0.144h-1.986V154.536z" id="PATH_20" class="area excluded" title=""></path>
		<path fill="#040404" d="M443.537,148.172v-1.213h1.055v1.213H443.537z M443.537,155.549v-6.223h1.055v6.223H443.537z" id="PATH_21" class="area excluded" title=""></path>
		<path fill="#040404" d="M444.855,157.963l0.199-0.896c0.211,0.055,0.377,0.082,0.498,0.082c0.215,0,0.375-0.071,0.48-0.214
			s0.158-0.499,0.158-1.069v-6.539h1.055v6.563c0,0.766-0.1,1.299-0.299,1.6c-0.254,0.391-0.676,0.586-1.266,0.586
			C445.396,158.075,445.121,158.038,444.855,157.963z M446.191,148.184v-1.225h1.055v1.225H446.191z" id="PATH_22" class="area excluded" title=""></path>
		<path fill="#040404" d="M452.924,154.782c-0.391,0.332-0.766,0.566-1.127,0.703s-0.75,0.205-1.164,0.205
			c-0.684,0-1.209-0.167-1.576-0.501s-0.551-0.761-0.551-1.28c0-0.305,0.07-0.583,0.209-0.835s0.32-0.454,0.545-0.606
			s0.477-0.268,0.758-0.346c0.207-0.055,0.52-0.107,0.938-0.158c0.852-0.102,1.479-0.223,1.881-0.363
			c0.004-0.145,0.006-0.236,0.006-0.275c0-0.43-0.1-0.732-0.299-0.908c-0.27-0.238-0.67-0.357-1.201-0.357
			c-0.496,0-0.861,0.087-1.098,0.261s-0.412,0.481-0.525,0.923l-1.031-0.141c0.094-0.441,0.248-0.798,0.463-1.069
			s0.525-0.48,0.932-0.627s0.877-0.22,1.412-0.22c0.531,0,0.963,0.063,1.295,0.188s0.576,0.282,0.732,0.472s0.266,0.429,0.328,0.718
			c0.035,0.18,0.053,0.504,0.053,0.973v1.406c0,0.98,0.023,1.601,0.068,1.86s0.133,0.509,0.266,0.747h-1.102
			C453.025,155.331,452.955,155.075,452.924,154.782z M452.836,152.426c-0.383,0.156-0.957,0.289-1.723,0.398
			c-0.434,0.063-0.74,0.133-0.92,0.211s-0.318,0.192-0.416,0.343s-0.146,0.317-0.146,0.501c0,0.281,0.107,0.516,0.32,0.703
			s0.523,0.281,0.934,0.281c0.406,0,0.768-0.089,1.084-0.267s0.549-0.421,0.697-0.729c0.113-0.238,0.17-0.59,0.17-1.055V152.426z" id="PATH_23" class="area excluded" title=""></path>
		<path fill="#040404" d="M455.525,155.549v-6.223h0.949v0.943c0.242-0.441,0.467-0.732,0.672-0.873s0.43-0.211,0.676-0.211
			c0.355,0,0.717,0.113,1.084,0.34l-0.363,0.979c-0.258-0.152-0.516-0.229-0.773-0.229c-0.23,0-0.438,0.069-0.621,0.208
			s-0.314,0.331-0.393,0.577c-0.117,0.375-0.176,0.785-0.176,1.23v3.258H455.525z" id="PATH_24" class="area excluded" title=""></path>
	</g>
	<g enable-background="new    " id="G_25" class="area excluded" title="">
		<path fill="#040404" d="M361.359,298.423v-8.59h2.959c0.668,0,1.178,0.041,1.529,0.123c0.492,0.113,0.912,0.318,1.26,0.615
			c0.453,0.383,0.791,0.873,1.016,1.469s0.338,1.275,0.338,2.041c0,0.652-0.076,1.23-0.229,1.734s-0.348,0.922-0.586,1.252
			s-0.5,0.59-0.783,0.779s-0.625,0.332-1.025,0.43s-0.859,0.146-1.379,0.146H361.359z M362.496,297.409h1.834
			c0.566,0,1.01-0.053,1.332-0.158s0.58-0.254,0.771-0.445c0.27-0.27,0.479-0.631,0.629-1.086s0.227-1.008,0.227-1.656
			c0-0.898-0.148-1.588-0.443-2.07s-0.652-0.807-1.074-0.971c-0.305-0.117-0.795-0.176-1.471-0.176h-1.805V297.409z" id="PATH_26" class="area excluded" title=""></path>
		<path fill="#040404" d="M374.15,296.419l1.09,0.135c-0.172,0.637-0.49,1.131-0.955,1.482s-1.059,0.527-1.781,0.527
			c-0.91,0-1.633-0.279-2.166-0.84s-0.799-1.348-0.799-2.359c0-1.047,0.27-1.859,0.809-2.438s1.238-0.867,2.098-0.867
			c0.832,0,1.512,0.283,2.039,0.85s0.791,1.363,0.791,2.391c0,0.063-0.002,0.156-0.006,0.281h-4.641
			c0.039,0.684,0.232,1.207,0.58,1.57s0.781,0.545,1.301,0.545c0.387,0,0.717-0.102,0.99-0.305S373.99,296.864,374.15,296.419z
			 M370.688,294.714h3.475c-0.047-0.523-0.18-0.916-0.398-1.178c-0.336-0.406-0.771-0.609-1.307-0.609
			c-0.484,0-0.893,0.162-1.223,0.486S370.723,294.171,370.688,294.714z" id="PATH_27" class="area excluded" title=""></path>
		<path fill="#040404" d="M376.564,298.423v-8.59h1.055v3.082c0.492-0.57,1.113-0.855,1.863-0.855c0.461,0,0.861,0.092,1.201,0.273
			s0.582,0.432,0.729,0.752s0.221,0.785,0.221,1.395v3.943h-1.055v-3.943c0-0.527-0.115-0.91-0.344-1.15s-0.551-0.361-0.969-0.361
			c-0.313,0-0.607,0.082-0.883,0.244s-0.471,0.381-0.588,0.658s-0.176,0.66-0.176,1.148v3.404H376.564z" id="PATH_28" class="area excluded" title=""></path>
		<path fill="#040404" d="M383.045,298.938l1.025,0.152c0.043,0.316,0.162,0.547,0.357,0.691c0.262,0.195,0.619,0.293,1.072,0.293
			c0.488,0,0.865-0.098,1.131-0.293s0.445-0.469,0.539-0.82c0.055-0.215,0.08-0.666,0.076-1.354
			c-0.461,0.543-1.035,0.814-1.723,0.814c-0.855,0-1.518-0.309-1.986-0.926s-0.703-1.357-0.703-2.221
			c0-0.594,0.107-1.141,0.322-1.643s0.525-0.891,0.934-1.164s0.889-0.41,1.439-0.41c0.734,0,1.34,0.297,1.816,0.891v-0.75h0.973
			v5.379c0,0.969-0.1,1.656-0.297,2.061s-0.51,0.723-0.938,0.957s-0.953,0.352-1.578,0.352c-0.742,0-1.342-0.166-1.799-0.5
			S383.029,299.61,383.045,298.938z M383.918,295.2c0,0.816,0.162,1.412,0.486,1.787s0.73,0.563,1.219,0.563
			c0.484,0,0.891-0.186,1.219-0.559s0.492-0.959,0.492-1.756c0-0.762-0.17-1.336-0.508-1.723s-0.744-0.58-1.221-0.58
			c-0.469,0-0.867,0.191-1.195,0.572S383.918,294.45,383.918,295.2z" id="PATH_29" class="area excluded" title=""></path>
		<path fill="#040404" d="M389.52,295.312c0-1.152,0.32-2.006,0.961-2.561c0.535-0.461,1.188-0.691,1.957-0.691
			c0.855,0,1.555,0.281,2.098,0.842s0.814,1.334,0.814,2.322c0,0.801-0.121,1.432-0.361,1.891s-0.59,0.814-1.049,1.068
			s-0.959,0.381-1.502,0.381c-0.871,0-1.576-0.279-2.113-0.838S389.52,296.362,389.52,295.312z M390.604,295.312
			c0,0.797,0.174,1.395,0.521,1.791s0.785,0.594,1.313,0.594c0.523,0,0.959-0.199,1.307-0.598s0.521-1.006,0.521-1.822
			c0-0.77-0.176-1.352-0.525-1.748s-0.783-0.596-1.303-0.596c-0.527,0-0.965,0.197-1.313,0.592S390.604,294.515,390.604,295.312z" id="PATH_30" class="area excluded" title=""></path>
		<path fill="#040404" d="M396.563,298.423v-8.59h1.055v8.59H396.563z" id="PATH_31" class="area excluded" title=""></path>
		<path fill="#040404" d="M403.313,297.655c-0.391,0.332-0.768,0.566-1.129,0.703s-0.748,0.205-1.162,0.205
			c-0.684,0-1.209-0.166-1.576-0.5s-0.551-0.762-0.551-1.281c0-0.305,0.068-0.582,0.207-0.834s0.32-0.455,0.545-0.607
			s0.479-0.268,0.76-0.346c0.207-0.055,0.52-0.107,0.938-0.158c0.852-0.102,1.479-0.223,1.881-0.363
			c0.004-0.145,0.006-0.236,0.006-0.275c0-0.43-0.1-0.732-0.299-0.908c-0.27-0.238-0.67-0.357-1.201-0.357
			c-0.496,0-0.863,0.088-1.1,0.262s-0.41,0.48-0.523,0.922l-1.031-0.141c0.094-0.441,0.248-0.797,0.463-1.068
			s0.525-0.48,0.932-0.627s0.877-0.221,1.412-0.221c0.531,0,0.963,0.063,1.295,0.188s0.576,0.283,0.732,0.473
			s0.266,0.428,0.328,0.717c0.035,0.18,0.053,0.504,0.053,0.973v1.406c0,0.98,0.021,1.602,0.066,1.861s0.135,0.508,0.268,0.746
			h-1.102C403.414,298.204,403.344,297.948,403.313,297.655z M403.225,295.3c-0.383,0.156-0.957,0.289-1.723,0.398
			c-0.434,0.063-0.74,0.133-0.92,0.211s-0.318,0.193-0.416,0.344s-0.146,0.316-0.146,0.5c0,0.281,0.105,0.516,0.318,0.703
			s0.525,0.281,0.936,0.281c0.406,0,0.768-0.088,1.084-0.266s0.549-0.422,0.697-0.73c0.113-0.238,0.17-0.59,0.17-1.055V295.3z" id="PATH_32" class="area excluded" title=""></path>
		<path fill="#040404" d="M405.926,298.423V292.2h0.949v0.885c0.457-0.684,1.117-1.025,1.98-1.025c0.375,0,0.719,0.068,1.033,0.203
			s0.551,0.311,0.707,0.529s0.266,0.479,0.328,0.779c0.039,0.195,0.059,0.537,0.059,1.025v3.826h-1.055v-3.785
			c0-0.43-0.041-0.75-0.123-0.963s-0.229-0.383-0.438-0.51s-0.453-0.191-0.734-0.191c-0.449,0-0.838,0.143-1.164,0.428
			s-0.488,0.826-0.488,1.623v3.398H405.926z" id="PATH_33" class="area excluded" title=""></path>
	</g>
	<g enable-background="new    " id="G_34" class="area excluded" title="">
		<path fill="#040404" d="M256.389,286.622l1.072-0.094c0.051,0.43,0.169,0.783,0.354,1.059s0.474,0.498,0.864,0.668
			s0.83,0.254,1.318,0.254c0.434,0,0.816-0.064,1.148-0.193s0.579-0.305,0.741-0.529s0.243-0.471,0.243-0.736
			c0-0.27-0.078-0.504-0.234-0.705s-0.414-0.371-0.773-0.508c-0.23-0.09-0.74-0.229-1.529-0.418s-1.342-0.369-1.658-0.537
			c-0.41-0.215-0.716-0.48-0.917-0.799s-0.302-0.676-0.302-1.07c0-0.434,0.123-0.838,0.369-1.215s0.605-0.664,1.078-0.859
			s0.998-0.293,1.576-0.293c0.637,0,1.198,0.104,1.685,0.309s0.86,0.506,1.122,0.904s0.402,0.85,0.422,1.354l-1.09,0.082
			c-0.059-0.543-0.257-0.953-0.595-1.23s-0.837-0.416-1.497-0.416c-0.688,0-1.188,0.127-1.503,0.379s-0.472,0.555-0.472,0.91
			c0,0.309,0.111,0.563,0.334,0.762c0.219,0.199,0.79,0.404,1.714,0.613s1.558,0.391,1.901,0.547c0.5,0.23,0.869,0.523,1.107,0.877
			s0.357,0.76,0.357,1.221c0,0.457-0.131,0.889-0.393,1.293s-0.638,0.719-1.128,0.943s-1.042,0.336-1.655,0.336
			c-0.777,0-1.429-0.113-1.954-0.34s-0.938-0.566-1.236-1.021S256.405,287.196,256.389,286.622z" id="PATH_35" class="area excluded" title=""></path>
		<path fill="#040404" d="M268.706,288.614c-0.391,0.332-0.767,0.566-1.128,0.703s-0.749,0.205-1.163,0.205
			c-0.684,0-1.209-0.166-1.576-0.5s-0.551-0.762-0.551-1.281c0-0.305,0.069-0.582,0.208-0.834s0.32-0.455,0.545-0.607
			s0.478-0.268,0.759-0.346c0.207-0.055,0.52-0.107,0.938-0.158c0.852-0.102,1.479-0.223,1.881-0.363
			c0.004-0.145,0.006-0.236,0.006-0.275c0-0.43-0.1-0.732-0.299-0.908c-0.27-0.238-0.67-0.357-1.201-0.357
			c-0.496,0-0.862,0.088-1.099,0.262s-0.411,0.48-0.524,0.922l-1.031-0.141c0.094-0.441,0.248-0.797,0.463-1.068
			s0.525-0.48,0.932-0.627s0.877-0.221,1.412-0.221c0.531,0,0.963,0.063,1.295,0.188s0.576,0.283,0.732,0.473
			s0.266,0.428,0.328,0.717c0.035,0.18,0.053,0.504,0.053,0.973v1.406c0,0.98,0.022,1.602,0.067,1.861s0.134,0.508,0.267,0.746
			h-1.102C268.807,289.163,268.737,288.907,268.706,288.614z M268.618,286.259c-0.383,0.156-0.957,0.289-1.723,0.398
			c-0.434,0.063-0.74,0.133-0.92,0.211s-0.318,0.193-0.416,0.344s-0.146,0.316-0.146,0.5c0,0.281,0.106,0.516,0.319,0.703
			s0.524,0.281,0.935,0.281c0.406,0,0.768-0.088,1.084-0.266s0.549-0.422,0.697-0.73c0.113-0.238,0.17-0.59,0.17-1.055V286.259z" id="PATH_36" class="area excluded" title=""></path>
		<path fill="#040404" d="M271.319,289.382v-6.223h0.949v0.885c0.457-0.684,1.117-1.025,1.98-1.025c0.375,0,0.72,0.068,1.034,0.203
			s0.55,0.311,0.706,0.529s0.266,0.479,0.328,0.779c0.039,0.195,0.059,0.537,0.059,1.025v3.826h-1.055v-3.785
			c0-0.43-0.041-0.75-0.123-0.963s-0.228-0.383-0.437-0.51s-0.454-0.191-0.735-0.191c-0.449,0-0.837,0.143-1.163,0.428
			s-0.489,0.826-0.489,1.623v3.398H271.319z" id="PATH_37" class="area excluded" title=""></path>
		<path fill="#040404" d="M282.053,288.614c-0.391,0.332-0.767,0.566-1.128,0.703s-0.749,0.205-1.163,0.205
			c-0.684,0-1.209-0.166-1.576-0.5s-0.551-0.762-0.551-1.281c0-0.305,0.069-0.582,0.208-0.834s0.32-0.455,0.545-0.607
			s0.478-0.268,0.759-0.346c0.207-0.055,0.52-0.107,0.938-0.158c0.852-0.102,1.479-0.223,1.881-0.363
			c0.004-0.145,0.006-0.236,0.006-0.275c0-0.43-0.1-0.732-0.299-0.908c-0.27-0.238-0.67-0.357-1.201-0.357
			c-0.496,0-0.862,0.088-1.099,0.262s-0.411,0.48-0.524,0.922l-1.031-0.141c0.094-0.441,0.248-0.797,0.463-1.068
			s0.525-0.48,0.932-0.627s0.877-0.221,1.412-0.221c0.531,0,0.963,0.063,1.295,0.188s0.576,0.283,0.732,0.473
			s0.266,0.428,0.328,0.717c0.035,0.18,0.053,0.504,0.053,0.973v1.406c0,0.98,0.022,1.602,0.067,1.861s0.134,0.508,0.267,0.746
			h-1.102C282.155,289.163,282.084,288.907,282.053,288.614z M281.965,286.259c-0.383,0.156-0.957,0.289-1.723,0.398
			c-0.434,0.063-0.74,0.133-0.92,0.211s-0.318,0.193-0.416,0.344s-0.146,0.316-0.146,0.5c0,0.281,0.106,0.516,0.319,0.703
			s0.524,0.281,0.935,0.281c0.406,0,0.768-0.088,1.084-0.266s0.549-0.422,0.697-0.73c0.113-0.238,0.17-0.59,0.17-1.055V286.259z" id="PATH_38" class="area excluded" title=""></path>
		<path fill="#040404" d="M284.667,289.382v-6.223h0.949v0.885c0.457-0.684,1.117-1.025,1.98-1.025c0.375,0,0.72,0.068,1.034,0.203
			s0.55,0.311,0.706,0.529s0.266,0.479,0.328,0.779c0.039,0.195,0.059,0.537,0.059,1.025v3.826h-1.055v-3.785
			c0-0.43-0.041-0.75-0.123-0.963s-0.228-0.383-0.437-0.51s-0.454-0.191-0.735-0.191c-0.449,0-0.837,0.143-1.163,0.428
			s-0.489,0.826-0.489,1.623v3.398H284.667z" id="PATH_39" class="area excluded" title=""></path>
		<path fill="#040404" d="M295.377,289.382v-0.785c-0.395,0.617-0.975,0.926-1.74,0.926c-0.496,0-0.951-0.137-1.367-0.41
			s-0.738-0.654-0.967-1.145s-0.343-1.055-0.343-1.691c0-0.621,0.103-1.184,0.31-1.689s0.518-0.895,0.932-1.164
			s0.877-0.404,1.389-0.404c0.375,0,0.709,0.08,1.002,0.238s0.531,0.363,0.715,0.617v-3.082h1.049v8.59H295.377z M292.043,286.276
			c0,0.797,0.168,1.393,0.504,1.787s0.732,0.592,1.189,0.592c0.461,0,0.854-0.188,1.176-0.564s0.482-0.953,0.482-1.727
			c0-0.852-0.164-1.477-0.492-1.875s-0.732-0.598-1.213-0.598c-0.469,0-0.859,0.191-1.174,0.574S292.043,285.452,292.043,286.276z" id="PATH_40" class="area excluded" title=""></path>
		<path fill="#040404" d="M302.074,288.614c-0.391,0.332-0.766,0.566-1.127,0.703s-0.75,0.205-1.164,0.205
			c-0.684,0-1.209-0.166-1.576-0.5s-0.551-0.762-0.551-1.281c0-0.305,0.07-0.582,0.209-0.834s0.32-0.455,0.545-0.607
			s0.477-0.268,0.758-0.346c0.207-0.055,0.52-0.107,0.938-0.158c0.852-0.102,1.479-0.223,1.881-0.363
			c0.004-0.145,0.006-0.236,0.006-0.275c0-0.43-0.1-0.732-0.299-0.908c-0.27-0.238-0.67-0.357-1.201-0.357
			c-0.496,0-0.861,0.088-1.098,0.262s-0.412,0.48-0.525,0.922l-1.031-0.141c0.094-0.441,0.248-0.797,0.463-1.068
			s0.525-0.48,0.932-0.627s0.877-0.221,1.412-0.221c0.531,0,0.963,0.063,1.295,0.188s0.576,0.283,0.732,0.473
			s0.266,0.428,0.328,0.717c0.035,0.18,0.053,0.504,0.053,0.973v1.406c0,0.98,0.023,1.602,0.068,1.861s0.133,0.508,0.266,0.746
			h-1.102C302.176,289.163,302.105,288.907,302.074,288.614z M301.986,286.259c-0.383,0.156-0.957,0.289-1.723,0.398
			c-0.434,0.063-0.74,0.133-0.92,0.211s-0.318,0.193-0.416,0.344s-0.146,0.316-0.146,0.5c0,0.281,0.107,0.516,0.32,0.703
			s0.523,0.281,0.934,0.281c0.406,0,0.768-0.088,1.084-0.266s0.549-0.422,0.697-0.73c0.113-0.238,0.17-0.59,0.17-1.055V286.259z" id="PATH_41" class="area excluded" title=""></path>
		<path fill="#040404" d="M303.346,291.796l0.199-0.896c0.211,0.055,0.377,0.082,0.498,0.082c0.215,0,0.375-0.07,0.48-0.213
			s0.158-0.5,0.158-1.07v-6.539h1.055v6.563c0,0.766-0.1,1.299-0.299,1.6c-0.254,0.391-0.676,0.586-1.266,0.586
			C303.887,291.907,303.611,291.87,303.346,291.796z M304.682,282.017v-1.225h1.055v1.225H304.682z" id="PATH_42" class="area excluded" title=""></path>
	</g>
	<g enable-background="new    " id="G_43" class="area excluded" title="">
		<path fill="#040404" d="M139.514,315.872l1.072-0.094c0.051,0.43,0.169,0.783,0.354,1.059s0.474,0.498,0.864,0.668
			s0.83,0.254,1.318,0.254c0.434,0,0.816-0.064,1.148-0.193s0.579-0.305,0.741-0.529s0.243-0.471,0.243-0.736
			c0-0.27-0.078-0.504-0.234-0.705s-0.414-0.371-0.773-0.508c-0.23-0.09-0.74-0.229-1.529-0.418s-1.342-0.369-1.658-0.537
			c-0.41-0.215-0.716-0.48-0.917-0.799s-0.302-0.676-0.302-1.07c0-0.434,0.123-0.838,0.369-1.215s0.605-0.664,1.078-0.859
			s0.998-0.293,1.576-0.293c0.637,0,1.198,0.104,1.685,0.309s0.86,0.506,1.122,0.904s0.402,0.85,0.422,1.354l-1.09,0.082
			c-0.059-0.543-0.257-0.953-0.595-1.23s-0.837-0.416-1.497-0.416c-0.688,0-1.188,0.127-1.503,0.379s-0.472,0.555-0.472,0.91
			c0,0.309,0.111,0.563,0.334,0.762c0.219,0.199,0.79,0.404,1.714,0.613s1.558,0.391,1.901,0.547c0.5,0.23,0.869,0.523,1.107,0.877
			s0.357,0.76,0.357,1.221c0,0.457-0.131,0.889-0.393,1.293s-0.638,0.719-1.128,0.943s-1.042,0.336-1.655,0.336
			c-0.777,0-1.429-0.113-1.954-0.34s-0.938-0.566-1.236-1.021S139.53,316.446,139.514,315.872z" id="PATH_44" class="area excluded" title=""></path>
		<path fill="#040404" d="M151.831,317.864c-0.391,0.332-0.767,0.566-1.128,0.703s-0.749,0.205-1.163,0.205
			c-0.684,0-1.209-0.166-1.576-0.5s-0.551-0.762-0.551-1.281c0-0.305,0.069-0.582,0.208-0.834s0.32-0.455,0.545-0.607
			s0.478-0.268,0.759-0.346c0.207-0.055,0.52-0.107,0.938-0.158c0.852-0.102,1.479-0.223,1.881-0.363
			c0.004-0.145,0.006-0.236,0.006-0.275c0-0.43-0.1-0.732-0.299-0.908c-0.27-0.238-0.67-0.357-1.201-0.357
			c-0.496,0-0.862,0.088-1.099,0.262s-0.411,0.48-0.524,0.922l-1.031-0.141c0.094-0.441,0.248-0.797,0.463-1.068
			s0.525-0.48,0.932-0.627s0.877-0.221,1.412-0.221c0.531,0,0.963,0.063,1.295,0.188s0.576,0.283,0.732,0.473
			s0.266,0.428,0.328,0.717c0.035,0.18,0.053,0.504,0.053,0.973v1.406c0,0.98,0.022,1.602,0.067,1.861s0.134,0.508,0.267,0.746
			h-1.102C151.932,318.413,151.862,318.157,151.831,317.864z M151.743,315.509c-0.383,0.156-0.957,0.289-1.723,0.398
			c-0.434,0.063-0.74,0.133-0.92,0.211s-0.318,0.193-0.416,0.344s-0.146,0.316-0.146,0.5c0,0.281,0.106,0.516,0.319,0.703
			s0.524,0.281,0.935,0.281c0.406,0,0.768-0.088,1.084-0.266s0.549-0.422,0.697-0.73c0.113-0.238,0.17-0.59,0.17-1.055V315.509z" id="PATH_45" class="area excluded" title=""></path>
		<path fill="#040404" d="M154.432,318.632v-6.223h0.949v0.943c0.242-0.441,0.466-0.732,0.671-0.873s0.431-0.211,0.677-0.211
			c0.355,0,0.717,0.113,1.084,0.34l-0.363,0.979c-0.258-0.152-0.516-0.229-0.773-0.229c-0.23,0-0.438,0.07-0.621,0.209
			s-0.314,0.33-0.393,0.576c-0.117,0.375-0.176,0.785-0.176,1.23v3.258H154.432z" id="PATH_46" class="area excluded" title=""></path>
		<path fill="#040404" d="M160.168,318.632l-2.367-6.223h1.113l1.336,3.727c0.145,0.402,0.277,0.82,0.398,1.254
			c0.094-0.328,0.225-0.723,0.393-1.184l1.383-3.797h1.084l-2.355,6.223H160.168z" id="PATH_47" class="area excluded" title=""></path>
		<path fill="#040404" d="M168.5,317.864c-0.391,0.332-0.767,0.566-1.128,0.703s-0.749,0.205-1.163,0.205
			c-0.684,0-1.209-0.166-1.576-0.5s-0.551-0.762-0.551-1.281c0-0.305,0.069-0.582,0.208-0.834s0.32-0.455,0.545-0.607
			s0.478-0.268,0.759-0.346c0.207-0.055,0.52-0.107,0.938-0.158c0.852-0.102,1.479-0.223,1.881-0.363
			c0.004-0.145,0.006-0.236,0.006-0.275c0-0.43-0.1-0.732-0.299-0.908c-0.27-0.238-0.67-0.357-1.201-0.357
			c-0.496,0-0.862,0.088-1.099,0.262s-0.411,0.48-0.524,0.922l-1.031-0.141c0.094-0.441,0.248-0.797,0.463-1.068
			s0.525-0.48,0.932-0.627s0.877-0.221,1.412-0.221c0.531,0,0.963,0.063,1.295,0.188s0.576,0.283,0.732,0.473
			s0.266,0.428,0.328,0.717c0.035,0.18,0.053,0.504,0.053,0.973v1.406c0,0.98,0.022,1.602,0.067,1.861s0.134,0.508,0.267,0.746
			h-1.102C168.602,318.413,168.532,318.157,168.5,317.864z M168.413,315.509c-0.383,0.156-0.957,0.289-1.723,0.398
			c-0.434,0.063-0.74,0.133-0.92,0.211s-0.318,0.193-0.416,0.344s-0.146,0.316-0.146,0.5c0,0.281,0.106,0.516,0.319,0.703
			s0.524,0.281,0.935,0.281c0.406,0,0.768-0.088,1.084-0.266s0.549-0.422,0.697-0.73c0.113-0.238,0.17-0.59,0.17-1.055V315.509z" id="PATH_48" class="area excluded" title=""></path>
		<path fill="#040404" d="M172.086,318.632h-0.979v-8.59h1.055v3.064c0.445-0.559,1.014-0.838,1.705-0.838
			c0.383,0,0.745,0.078,1.087,0.232s0.623,0.371,0.844,0.65s0.394,0.615,0.519,1.01s0.188,0.816,0.188,1.266
			c0,1.066-0.264,1.891-0.791,2.473s-1.16,0.873-1.898,0.873c-0.734,0-1.311-0.307-1.729-0.92V318.632z M172.075,315.474
			c0,0.746,0.102,1.285,0.305,1.617c0.332,0.543,0.781,0.814,1.348,0.814c0.461,0,0.859-0.199,1.195-0.6s0.504-0.998,0.504-1.791
			c0-0.813-0.161-1.412-0.483-1.799s-0.712-0.58-1.169-0.58c-0.461,0-0.859,0.201-1.195,0.602S172.075,314.716,172.075,315.474z" id="PATH_49" class="area excluded" title=""></path>
		<path fill="#040404" d="M181.848,317.864c-0.391,0.332-0.767,0.566-1.128,0.703s-0.749,0.205-1.163,0.205
			c-0.684,0-1.209-0.166-1.576-0.5s-0.551-0.762-0.551-1.281c0-0.305,0.069-0.582,0.208-0.834s0.32-0.455,0.545-0.607
			s0.478-0.268,0.759-0.346c0.207-0.055,0.52-0.107,0.938-0.158c0.852-0.102,1.479-0.223,1.881-0.363
			c0.004-0.145,0.006-0.236,0.006-0.275c0-0.43-0.1-0.732-0.299-0.908c-0.27-0.238-0.67-0.357-1.201-0.357
			c-0.496,0-0.862,0.088-1.099,0.262s-0.411,0.48-0.524,0.922l-1.031-0.141c0.094-0.441,0.248-0.797,0.463-1.068
			s0.525-0.48,0.932-0.627s0.877-0.221,1.412-0.221c0.531,0,0.963,0.063,1.295,0.188s0.576,0.283,0.732,0.473
			s0.266,0.428,0.328,0.717c0.035,0.18,0.053,0.504,0.053,0.973v1.406c0,0.98,0.022,1.602,0.067,1.861s0.134,0.508,0.267,0.746
			h-1.102C181.95,318.413,181.879,318.157,181.848,317.864z M181.76,315.509c-0.383,0.156-0.957,0.289-1.723,0.398
			c-0.434,0.063-0.74,0.133-0.92,0.211s-0.318,0.193-0.416,0.344s-0.146,0.316-0.146,0.5c0,0.281,0.106,0.516,0.319,0.703
			s0.524,0.281,0.935,0.281c0.406,0,0.768-0.088,1.084-0.266s0.549-0.422,0.697-0.73c0.113-0.238,0.17-0.59,0.17-1.055V315.509z" id="PATH_50" class="area excluded" title=""></path>
		<path fill="#040404" d="M188.499,318.632v-0.785c-0.395,0.617-0.975,0.926-1.74,0.926c-0.496,0-0.952-0.137-1.368-0.41
			s-0.738-0.654-0.967-1.145s-0.343-1.055-0.343-1.691c0-0.621,0.104-1.184,0.311-1.689s0.518-0.895,0.932-1.164
			s0.877-0.404,1.389-0.404c0.375,0,0.709,0.08,1.002,0.238s0.531,0.363,0.715,0.617v-3.082h1.049v8.59H188.499z M185.165,315.526
			c0,0.797,0.168,1.393,0.504,1.787s0.732,0.592,1.189,0.592c0.461,0,0.853-0.188,1.175-0.564s0.483-0.953,0.483-1.727
			c0-0.852-0.164-1.477-0.492-1.875s-0.732-0.598-1.213-0.598c-0.469,0-0.86,0.191-1.175,0.574S185.165,314.702,185.165,315.526z" id="PATH_51" class="area excluded" title=""></path>
	</g>
	<g enable-background="new    " id="G_52" class="area excluded" title="">
		<path fill="#040404" d="M474.535,323.503c0.527,0.363,1.014,0.629,1.459,0.797l-0.334,0.791c-0.617-0.223-1.232-0.574-1.846-1.055
			c-0.637,0.355-1.34,0.533-2.109,0.533c-0.777,0-1.482-0.188-2.115-0.563s-1.121-0.902-1.463-1.582s-0.512-1.445-0.512-2.297
			c0-0.848,0.172-1.619,0.516-2.314s0.832-1.225,1.467-1.588s1.346-0.545,2.131-0.545c0.793,0,1.508,0.189,2.145,0.566
			s1.121,0.904,1.455,1.582s0.502,1.441,0.502,2.293c0,0.707-0.107,1.344-0.322,1.908S474.969,323.085,474.535,323.503z
			 M472.033,322.05c0.656,0.184,1.197,0.457,1.623,0.82c0.668-0.609,1.002-1.525,1.002-2.748c0-0.695-0.119-1.303-0.355-1.822
			s-0.582-0.922-1.037-1.209s-0.965-0.432-1.531-0.432c-0.848,0-1.551,0.291-2.109,0.871s-0.838,1.445-0.838,2.598
			c0,1.117,0.275,1.975,0.828,2.572s1.26,0.896,2.119,0.896c0.406,0,0.789-0.076,1.148-0.229c-0.355-0.23-0.73-0.395-1.125-0.492
			L472.033,322.05z" id="PATH_53" class="area excluded" title=""></path>
		<path fill="#040404" d="M476.832,321.312c0-1.152,0.32-2.006,0.961-2.561c0.535-0.461,1.188-0.691,1.957-0.691
			c0.855,0,1.555,0.281,2.098,0.842s0.814,1.334,0.814,2.322c0,0.801-0.121,1.432-0.361,1.891s-0.59,0.814-1.049,1.068
			s-0.959,0.381-1.502,0.381c-0.871,0-1.576-0.279-2.113-0.838S476.832,322.362,476.832,321.312z M477.916,321.312
			c0,0.797,0.174,1.395,0.521,1.791s0.785,0.594,1.313,0.594c0.523,0,0.959-0.199,1.307-0.598s0.521-1.006,0.521-1.822
			c0-0.77-0.176-1.352-0.525-1.748s-0.783-0.596-1.303-0.596c-0.527,0-0.965,0.197-1.313,0.592S477.916,320.515,477.916,321.312z" id="PATH_54" class="area excluded" title=""></path>
		<path fill="#040404" d="M483.887,324.423V318.2h0.949v0.943c0.242-0.441,0.465-0.732,0.67-0.873s0.432-0.211,0.678-0.211
			c0.355,0,0.717,0.113,1.084,0.34l-0.363,0.979c-0.258-0.152-0.516-0.229-0.773-0.229c-0.23,0-0.438,0.07-0.621,0.209
			s-0.314,0.33-0.393,0.576c-0.117,0.375-0.176,0.785-0.176,1.23v3.258H483.887z" id="PATH_55" class="area excluded" title=""></path>
		<path fill="#040404" d="M489.623,324.423l-2.367-6.223h1.113l1.336,3.727c0.145,0.402,0.277,0.82,0.398,1.254
			c0.094-0.328,0.225-0.723,0.393-1.184l1.383-3.797h1.084l-2.355,6.223H489.623z" id="PATH_56" class="area excluded" title=""></path>
		<path fill="#040404" d="M498.154,322.419l1.09,0.135c-0.172,0.637-0.49,1.131-0.955,1.482s-1.059,0.527-1.781,0.527
			c-0.91,0-1.633-0.279-2.166-0.84s-0.799-1.348-0.799-2.359c0-1.047,0.27-1.859,0.809-2.438s1.238-0.867,2.098-0.867
			c0.832,0,1.512,0.283,2.039,0.85s0.791,1.363,0.791,2.391c0,0.063-0.002,0.156-0.006,0.281h-4.641
			c0.039,0.684,0.232,1.207,0.58,1.57s0.781,0.545,1.301,0.545c0.387,0,0.717-0.102,0.99-0.305S497.994,322.864,498.154,322.419z
			 M494.691,320.714h3.475c-0.047-0.523-0.18-0.916-0.398-1.178c-0.336-0.406-0.771-0.609-1.307-0.609
			c-0.484,0-0.893,0.162-1.223,0.486S494.727,320.171,494.691,320.714z" id="PATH_57" class="area excluded" title=""></path>
		<path fill="#040404" d="M500.568,324.423v-8.59h1.055v3.082c0.492-0.57,1.113-0.855,1.863-0.855c0.461,0,0.861,0.092,1.201,0.273
			s0.582,0.432,0.729,0.752s0.221,0.785,0.221,1.395v3.943h-1.055v-3.943c0-0.527-0.115-0.91-0.344-1.15s-0.551-0.361-0.969-0.361
			c-0.313,0-0.607,0.082-0.883,0.244s-0.471,0.381-0.588,0.658s-0.176,0.66-0.176,1.148v3.404H500.568z" id="PATH_58" class="area excluded" title=""></path>
	</g>
	<g enable-background="new    " id="G_59" class="area excluded" title="">
		<path fill="#040404" d="M157.238,240.923v-8.59h1.711l2.033,6.082c0.188,0.566,0.324,0.99,0.41,1.271
			c0.098-0.313,0.25-0.771,0.457-1.377l2.057-5.977h1.529v8.59h-1.096v-7.189l-2.496,7.189h-1.025l-2.484-7.313v7.313H157.238z" id="PATH_60" class="area excluded" title=""></path>
		<path fill="#040404" d="M171.195,240.155c-0.391,0.332-0.767,0.566-1.128,0.703s-0.749,0.205-1.163,0.205
			c-0.684,0-1.209-0.166-1.576-0.5s-0.551-0.762-0.551-1.281c0-0.305,0.069-0.582,0.208-0.834s0.32-0.455,0.545-0.607
			s0.478-0.268,0.759-0.346c0.207-0.055,0.52-0.107,0.938-0.158c0.852-0.102,1.479-0.223,1.881-0.363
			c0.004-0.145,0.006-0.236,0.006-0.275c0-0.43-0.1-0.732-0.299-0.908c-0.27-0.238-0.67-0.357-1.201-0.357
			c-0.496,0-0.862,0.088-1.099,0.262s-0.411,0.48-0.524,0.922l-1.031-0.141c0.094-0.441,0.248-0.797,0.463-1.068
			s0.525-0.48,0.932-0.627s0.877-0.221,1.412-0.221c0.531,0,0.963,0.063,1.295,0.188s0.576,0.283,0.732,0.473
			s0.266,0.428,0.328,0.717c0.035,0.18,0.053,0.504,0.053,0.973v1.406c0,0.98,0.022,1.602,0.067,1.861s0.134,0.508,0.267,0.746
			h-1.102C171.296,240.704,171.226,240.448,171.195,240.155z M171.107,237.8c-0.383,0.156-0.957,0.289-1.723,0.398
			c-0.434,0.063-0.74,0.133-0.92,0.211s-0.318,0.193-0.416,0.344s-0.146,0.316-0.146,0.5c0,0.281,0.106,0.516,0.319,0.703
			s0.524,0.281,0.935,0.281c0.406,0,0.768-0.088,1.084-0.266s0.549-0.422,0.697-0.73c0.113-0.238,0.17-0.59,0.17-1.055V237.8z" id="PATH_61" class="area excluded" title=""></path>
		<path fill="#040404" d="M173.796,240.923V234.7h0.949v0.943c0.242-0.441,0.466-0.732,0.671-0.873s0.431-0.211,0.677-0.211
			c0.355,0,0.717,0.113,1.084,0.34l-0.363,0.979c-0.258-0.152-0.516-0.229-0.773-0.229c-0.23,0-0.438,0.07-0.621,0.209
			s-0.314,0.33-0.393,0.576c-0.117,0.375-0.176,0.785-0.176,1.23v3.258H173.796z" id="PATH_62" class="area excluded" title=""></path>
		<path fill="#040404" d="M177.81,233.546v-1.213h1.055v1.213H177.81z M177.81,240.923V234.7h1.055v6.223H177.81z" id="PATH_63" class="area excluded" title=""></path>
		<path fill="#040404" d="M182.199,240.923l-2.367-6.223h1.113l1.336,3.727c0.145,0.402,0.277,0.82,0.398,1.254
			c0.094-0.328,0.225-0.723,0.393-1.184l1.383-3.797h1.084l-2.355,6.223H182.199z" id="PATH_64" class="area excluded" title=""></path>
		<path fill="#040404" d="M190.531,240.155c-0.391,0.332-0.767,0.566-1.128,0.703s-0.749,0.205-1.163,0.205
			c-0.684,0-1.209-0.166-1.576-0.5s-0.551-0.762-0.551-1.281c0-0.305,0.069-0.582,0.208-0.834s0.32-0.455,0.545-0.607
			s0.478-0.268,0.759-0.346c0.207-0.055,0.52-0.107,0.938-0.158c0.852-0.102,1.479-0.223,1.881-0.363
			c0.004-0.145,0.006-0.236,0.006-0.275c0-0.43-0.1-0.732-0.299-0.908c-0.27-0.238-0.67-0.357-1.201-0.357
			c-0.496,0-0.862,0.088-1.099,0.262s-0.411,0.48-0.524,0.922l-1.031-0.141c0.094-0.441,0.248-0.797,0.463-1.068
			s0.525-0.48,0.932-0.627s0.877-0.221,1.412-0.221c0.531,0,0.963,0.063,1.295,0.188s0.576,0.283,0.732,0.473
			s0.266,0.428,0.328,0.717c0.035,0.18,0.053,0.504,0.053,0.973v1.406c0,0.98,0.022,1.602,0.067,1.861s0.134,0.508,0.267,0.746
			h-1.102C190.632,240.704,190.562,240.448,190.531,240.155z M190.443,237.8c-0.383,0.156-0.957,0.289-1.723,0.398
			c-0.434,0.063-0.74,0.133-0.92,0.211s-0.318,0.193-0.416,0.344s-0.146,0.316-0.146,0.5c0,0.281,0.106,0.516,0.319,0.703
			s0.524,0.281,0.935,0.281c0.406,0,0.768-0.088,1.084-0.266s0.549-0.422,0.697-0.73c0.113-0.238,0.17-0.59,0.17-1.055V237.8z" id="PATH_65" class="area excluded" title=""></path>
		<path fill="#040404" d="M193.144,240.923V234.7h0.949v0.885c0.457-0.684,1.117-1.025,1.98-1.025c0.375,0,0.72,0.068,1.034,0.203
			s0.55,0.311,0.706,0.529s0.266,0.479,0.328,0.779c0.039,0.195,0.059,0.537,0.059,1.025v3.826h-1.055v-3.785
			c0-0.43-0.041-0.75-0.123-0.963s-0.228-0.383-0.437-0.51s-0.454-0.191-0.735-0.191c-0.449,0-0.837,0.143-1.163,0.428
			s-0.489,0.826-0.489,1.623v3.398H193.144z" id="PATH_66" class="area excluded" title=""></path>
	</g>
	<g enable-background="new    " id="G_67" class="area excluded" title="">
		<path fill="#040404" d="M263.312,397.923v-8.59h1.137v4.26l4.266-4.26h1.541l-3.604,3.48l3.762,5.109h-1.5l-3.059-4.348
			l-1.406,1.371v2.977H263.312z" id="PATH_68" class="area excluded" title=""></path>
		<path fill="#040404" d="M275.289,397.155c-0.391,0.332-0.767,0.566-1.128,0.703s-0.749,0.205-1.163,0.205
			c-0.684,0-1.209-0.166-1.576-0.5s-0.551-0.762-0.551-1.281c0-0.305,0.069-0.582,0.208-0.834s0.32-0.455,0.545-0.607
			s0.478-0.268,0.759-0.346c0.207-0.055,0.52-0.107,0.938-0.158c0.852-0.102,1.479-0.223,1.881-0.363
			c0.004-0.145,0.006-0.236,0.006-0.275c0-0.43-0.1-0.732-0.299-0.908c-0.27-0.238-0.67-0.357-1.201-0.357
			c-0.496,0-0.862,0.088-1.099,0.262s-0.411,0.48-0.524,0.922l-1.031-0.141c0.094-0.441,0.248-0.797,0.463-1.068
			s0.525-0.48,0.932-0.627s0.877-0.221,1.412-0.221c0.531,0,0.963,0.063,1.295,0.188s0.576,0.283,0.732,0.473
			s0.266,0.428,0.328,0.717c0.035,0.18,0.053,0.504,0.053,0.973v1.406c0,0.98,0.022,1.602,0.067,1.861s0.134,0.508,0.267,0.746
			H275.5C275.39,397.704,275.32,397.448,275.289,397.155z M275.201,394.8c-0.383,0.156-0.957,0.289-1.723,0.398
			c-0.434,0.063-0.74,0.133-0.92,0.211s-0.318,0.193-0.416,0.344s-0.146,0.316-0.146,0.5c0,0.281,0.106,0.516,0.319,0.703
			s0.524,0.281,0.935,0.281c0.406,0,0.768-0.088,1.084-0.266s0.549-0.422,0.697-0.73c0.113-0.238,0.17-0.59,0.17-1.055V394.8z" id="PATH_69" class="area excluded" title=""></path>
		<path fill="#040404" d="M277.902,397.923V391.7h0.943v0.873c0.195-0.305,0.455-0.549,0.779-0.734s0.693-0.279,1.107-0.279
			c0.461,0,0.839,0.096,1.134,0.287s0.503,0.459,0.624,0.803c0.492-0.727,1.133-1.09,1.922-1.09c0.617,0,1.092,0.172,1.424,0.514
			s0.498,0.867,0.498,1.578v4.271h-1.049v-3.92c0-0.422-0.034-0.725-0.103-0.91s-0.192-0.336-0.372-0.449s-0.391-0.17-0.633-0.17
			c-0.438,0-0.801,0.146-1.09,0.438s-0.434,0.756-0.434,1.396v3.615h-1.055v-4.043c0-0.469-0.086-0.82-0.258-1.055
			s-0.453-0.352-0.844-0.352c-0.297,0-0.571,0.078-0.823,0.234s-0.435,0.385-0.548,0.686s-0.17,0.734-0.17,1.301v3.229H277.902z" id="PATH_70" class="area excluded" title=""></path>
		<path fill="#040404" d="M287.851,400.319l-0.117-0.99c0.23,0.063,0.432,0.094,0.604,0.094c0.234,0,0.422-0.039,0.563-0.117
			s0.256-0.188,0.346-0.328c0.066-0.105,0.174-0.367,0.322-0.785c0.02-0.059,0.051-0.145,0.094-0.258L287.3,391.7h1.137l1.295,3.604
			c0.168,0.457,0.318,0.938,0.451,1.441c0.121-0.484,0.266-0.957,0.434-1.418l1.331-3.627h1.055l-2.368,6.328
			c-0.254,0.684-0.451,1.154-0.592,1.412c-0.188,0.348-0.402,0.604-0.645,0.766s-0.531,0.242-0.867,0.242
			C288.328,400.448,288.101,400.405,287.851,400.319z" id="PATH_71" class="area excluded" title=""></path>
		<path fill="#040404" d="M297.959,397.155c-0.391,0.332-0.768,0.566-1.129,0.703s-0.748,0.205-1.162,0.205
			c-0.684,0-1.209-0.166-1.576-0.5s-0.551-0.762-0.551-1.281c0-0.305,0.068-0.582,0.207-0.834s0.32-0.455,0.545-0.607
			s0.479-0.268,0.76-0.346c0.207-0.055,0.52-0.107,0.938-0.158c0.852-0.102,1.479-0.223,1.881-0.363
			c0.004-0.145,0.006-0.236,0.006-0.275c0-0.43-0.1-0.732-0.299-0.908c-0.27-0.238-0.67-0.357-1.201-0.357
			c-0.496,0-0.863,0.088-1.1,0.262s-0.41,0.48-0.523,0.922l-1.031-0.141c0.094-0.441,0.248-0.797,0.463-1.068
			s0.525-0.48,0.932-0.627s0.877-0.221,1.412-0.221c0.531,0,0.963,0.063,1.295,0.188s0.576,0.283,0.732,0.473
			s0.266,0.428,0.328,0.717c0.035,0.18,0.053,0.504,0.053,0.973v1.406c0,0.98,0.021,1.602,0.066,1.861s0.135,0.508,0.268,0.746
			h-1.102C298.061,397.704,297.99,397.448,297.959,397.155z M297.871,394.8c-0.383,0.156-0.957,0.289-1.723,0.398
			c-0.434,0.063-0.74,0.133-0.92,0.211s-0.318,0.193-0.416,0.344s-0.146,0.316-0.146,0.5c0,0.281,0.105,0.516,0.318,0.703
			s0.525,0.281,0.936,0.281c0.406,0,0.768-0.088,1.084-0.266s0.549-0.422,0.697-0.73c0.113-0.238,0.17-0.59,0.17-1.055V394.8z" id="PATH_72" class="area excluded" title=""></path>
		<path fill="#040404" d="M300.561,397.923V391.7h0.949v0.943c0.242-0.441,0.465-0.732,0.67-0.873s0.432-0.211,0.678-0.211
			c0.355,0,0.717,0.113,1.084,0.34l-0.363,0.979c-0.258-0.152-0.516-0.229-0.773-0.229c-0.23,0-0.438,0.07-0.621,0.209
			s-0.314,0.33-0.393,0.576c-0.117,0.375-0.176,0.785-0.176,1.23v3.258H300.561z" id="PATH_73" class="area excluded" title=""></path>
		<path fill="#040404" d="M308.629,397.155c-0.391,0.332-0.768,0.566-1.129,0.703s-0.748,0.205-1.162,0.205
			c-0.684,0-1.209-0.166-1.576-0.5s-0.551-0.762-0.551-1.281c0-0.305,0.068-0.582,0.207-0.834s0.32-0.455,0.545-0.607
			s0.479-0.268,0.76-0.346c0.207-0.055,0.52-0.107,0.938-0.158c0.852-0.102,1.479-0.223,1.881-0.363
			c0.004-0.145,0.006-0.236,0.006-0.275c0-0.43-0.1-0.732-0.299-0.908c-0.27-0.238-0.67-0.357-1.201-0.357
			c-0.496,0-0.863,0.088-1.1,0.262s-0.41,0.48-0.523,0.922l-1.031-0.141c0.094-0.441,0.248-0.797,0.463-1.068
			s0.525-0.48,0.932-0.627s0.877-0.221,1.412-0.221c0.531,0,0.963,0.063,1.295,0.188s0.576,0.283,0.732,0.473
			s0.266,0.428,0.328,0.717c0.035,0.18,0.053,0.504,0.053,0.973v1.406c0,0.98,0.021,1.602,0.066,1.861s0.135,0.508,0.268,0.746
			h-1.102C308.73,397.704,308.66,397.448,308.629,397.155z M308.541,394.8c-0.383,0.156-0.957,0.289-1.723,0.398
			c-0.434,0.063-0.74,0.133-0.92,0.211s-0.318,0.193-0.416,0.344s-0.146,0.316-0.146,0.5c0,0.281,0.105,0.516,0.318,0.703
			s0.525,0.281,0.936,0.281c0.406,0,0.768-0.088,1.084-0.266s0.549-0.422,0.697-0.73c0.113-0.238,0.17-0.59,0.17-1.055V394.8z" id="PATH_74" class="area excluded" title=""></path>
		<path fill="#040404" d="M311.242,397.923V391.7h0.949v0.885c0.457-0.684,1.117-1.025,1.98-1.025c0.375,0,0.719,0.068,1.033,0.203
			s0.551,0.311,0.707,0.529s0.266,0.479,0.328,0.779c0.039,0.195,0.059,0.537,0.059,1.025v3.826h-1.055v-3.785
			c0-0.43-0.041-0.75-0.123-0.963s-0.229-0.383-0.438-0.51s-0.453-0.191-0.734-0.191c-0.449,0-0.838,0.143-1.164,0.428
			s-0.488,0.826-0.488,1.623v3.398H311.242z" id="PATH_75" class="area excluded" title=""></path>
	</g>
	<g enable-background="new    " id="G_76" class="area excluded" title="">
		<path fill="#040404" d="M278.692,149.756v-8.59h2.959c0.668,0,1.178,0.041,1.529,0.123c0.492,0.113,0.912,0.318,1.26,0.615
			c0.453,0.383,0.792,0.872,1.017,1.468s0.337,1.276,0.337,2.042c0,0.652-0.076,1.23-0.229,1.734s-0.348,0.921-0.586,1.251
			s-0.499,0.59-0.782,0.779s-0.625,0.333-1.025,0.431s-0.86,0.146-1.38,0.146H278.692z M279.829,148.743h1.834
			c0.566,0,1.011-0.053,1.333-0.158s0.579-0.254,0.771-0.445c0.27-0.27,0.479-0.632,0.63-1.087s0.226-1.007,0.226-1.655
			c0-0.898-0.147-1.589-0.442-2.071s-0.653-0.806-1.075-0.97c-0.305-0.117-0.795-0.176-1.471-0.176h-1.805V148.743z" id="PATH_77" class="area excluded" title=""></path>
		<path fill="#040404" d="M287.229,142.379v-1.213h1.055v1.213H287.229z M287.229,149.756v-6.223h1.055v6.223H287.229z" id="PATH_78" class="area excluded" title=""></path>
		<path fill="#040404" d="M291.617,149.756l-2.367-6.223h1.113l1.335,3.727c0.145,0.402,0.277,0.82,0.398,1.254
			c0.094-0.328,0.225-0.723,0.393-1.184l1.383-3.797h1.084l-2.355,6.223H291.617z" id="PATH_79" class="area excluded" title=""></path>
		<path fill="#040404" d="M299.949,148.989c-0.391,0.332-0.766,0.566-1.127,0.703s-0.75,0.205-1.164,0.205
			c-0.684,0-1.209-0.167-1.576-0.501s-0.551-0.761-0.551-1.28c0-0.305,0.07-0.583,0.209-0.835s0.32-0.454,0.545-0.606
			s0.477-0.268,0.758-0.346c0.207-0.055,0.52-0.107,0.938-0.158c0.852-0.102,1.479-0.223,1.881-0.363
			c0.004-0.145,0.006-0.236,0.006-0.275c0-0.43-0.1-0.732-0.299-0.908c-0.27-0.238-0.67-0.357-1.201-0.357
			c-0.496,0-0.861,0.087-1.098,0.261s-0.412,0.481-0.525,0.923l-1.031-0.141c0.094-0.441,0.248-0.798,0.463-1.069
			s0.525-0.48,0.932-0.627s0.877-0.22,1.412-0.22c0.531,0,0.963,0.063,1.295,0.188s0.576,0.282,0.732,0.472s0.266,0.429,0.328,0.718
			c0.035,0.18,0.053,0.504,0.053,0.973v1.406c0,0.98,0.023,1.601,0.068,1.86s0.133,0.509,0.266,0.747h-1.102
			C300.051,149.538,299.98,149.282,299.949,148.989z M299.861,146.633c-0.383,0.156-0.957,0.289-1.723,0.398
			c-0.434,0.063-0.74,0.133-0.92,0.211s-0.318,0.192-0.416,0.343s-0.146,0.317-0.146,0.501c0,0.281,0.107,0.516,0.32,0.703
			s0.523,0.281,0.934,0.281c0.406,0,0.768-0.089,1.084-0.267s0.549-0.421,0.697-0.729c0.113-0.238,0.17-0.59,0.17-1.055V146.633z" id="PATH_80" class="area excluded" title=""></path>
		<path fill="#040404" d="M302.563,149.756v-6.223h0.949v0.885c0.457-0.684,1.117-1.025,1.98-1.025c0.375,0,0.721,0.067,1.035,0.202
			s0.549,0.312,0.705,0.53s0.266,0.479,0.328,0.779c0.039,0.195,0.059,0.537,0.059,1.025v3.826h-1.055v-3.785
			c0-0.43-0.041-0.751-0.123-0.964s-0.227-0.383-0.436-0.51s-0.455-0.19-0.736-0.19c-0.449,0-0.836,0.143-1.162,0.428
			s-0.49,0.826-0.49,1.623v3.398H302.563z" id="PATH_81" class="area excluded" title=""></path>
		<path fill="#040404" d="M313.273,149.756v-0.785c-0.395,0.617-0.975,0.926-1.74,0.926c-0.496,0-0.951-0.137-1.367-0.41
			s-0.738-0.655-0.967-1.146s-0.344-1.054-0.344-1.69c0-0.621,0.104-1.185,0.311-1.69s0.518-0.894,0.932-1.163
			s0.877-0.404,1.389-0.404c0.375,0,0.709,0.079,1.002,0.237s0.531,0.364,0.715,0.618v-3.082h1.049v8.59H313.273z M309.939,146.651
			c0,0.797,0.168,1.393,0.504,1.787s0.732,0.592,1.189,0.592c0.461,0,0.854-0.188,1.176-0.565s0.482-0.952,0.482-1.726
			c0-0.852-0.164-1.477-0.492-1.875s-0.732-0.598-1.213-0.598c-0.469,0-0.859,0.191-1.174,0.574S309.939,145.827,309.939,146.651z" id="PATH_82" class="area excluded" title=""></path>
		<path fill="#040404" d="M319.971,148.989c-0.391,0.332-0.766,0.566-1.127,0.703s-0.75,0.205-1.164,0.205
			c-0.684,0-1.209-0.167-1.576-0.501s-0.551-0.761-0.551-1.28c0-0.305,0.07-0.583,0.209-0.835s0.32-0.454,0.545-0.606
			s0.477-0.268,0.758-0.346c0.207-0.055,0.52-0.107,0.938-0.158c0.852-0.102,1.479-0.223,1.881-0.363
			c0.004-0.145,0.006-0.236,0.006-0.275c0-0.43-0.1-0.732-0.299-0.908c-0.27-0.238-0.67-0.357-1.201-0.357
			c-0.496,0-0.861,0.087-1.098,0.261s-0.412,0.481-0.525,0.923l-1.031-0.141c0.094-0.441,0.248-0.798,0.463-1.069
			s0.525-0.48,0.932-0.627s0.877-0.22,1.412-0.22c0.531,0,0.963,0.063,1.295,0.188s0.576,0.282,0.732,0.472s0.266,0.429,0.328,0.718
			c0.035,0.18,0.053,0.504,0.053,0.973v1.406c0,0.98,0.023,1.601,0.068,1.86s0.133,0.509,0.266,0.747h-1.102
			C320.072,149.538,320.002,149.282,319.971,148.989z M319.883,146.633c-0.383,0.156-0.957,0.289-1.723,0.398
			c-0.434,0.063-0.74,0.133-0.92,0.211s-0.318,0.192-0.416,0.343s-0.146,0.317-0.146,0.501c0,0.281,0.107,0.516,0.32,0.703
			s0.523,0.281,0.934,0.281c0.406,0,0.768-0.089,1.084-0.267s0.549-0.421,0.697-0.729c0.113-0.238,0.17-0.59,0.17-1.055V146.633z" id="PATH_83" class="area excluded" title=""></path>
		<path fill="#040404" d="M322.572,149.756v-6.223h0.949v0.943c0.242-0.441,0.467-0.732,0.672-0.873s0.43-0.211,0.676-0.211
			c0.355,0,0.717,0.113,1.084,0.34l-0.363,0.979c-0.258-0.152-0.516-0.229-0.773-0.229c-0.23,0-0.438,0.069-0.621,0.208
			s-0.314,0.331-0.393,0.577c-0.117,0.375-0.176,0.785-0.176,1.23v3.258H322.572z" id="PATH_84" class="area excluded" title=""></path>
		<path fill="#040404" d="M326.568,149.756v-6.223h0.949v0.943c0.242-0.441,0.467-0.732,0.672-0.873s0.43-0.211,0.676-0.211
			c0.355,0,0.717,0.113,1.084,0.34l-0.363,0.979c-0.258-0.152-0.516-0.229-0.773-0.229c-0.23,0-0.438,0.069-0.621,0.208
			s-0.314,0.331-0.393,0.577c-0.117,0.375-0.176,0.785-0.176,1.23v3.258H326.568z" id="PATH_85" class="area excluded" title=""></path>
		<path fill="#040404" d="M334.836,147.752l1.09,0.135c-0.172,0.637-0.49,1.131-0.955,1.482s-1.059,0.527-1.781,0.527
			c-0.91,0-1.631-0.28-2.164-0.841s-0.801-1.347-0.801-2.358c0-1.047,0.27-1.859,0.809-2.438s1.238-0.867,2.098-0.867
			c0.832,0,1.512,0.283,2.039,0.85s0.791,1.363,0.791,2.391c0,0.063-0.002,0.156-0.006,0.281h-4.641
			c0.039,0.684,0.232,1.207,0.58,1.57s0.781,0.545,1.301,0.545c0.387,0,0.717-0.102,0.99-0.305S334.676,148.198,334.836,147.752z
			 M331.373,146.047h3.475c-0.047-0.523-0.18-0.916-0.398-1.178c-0.336-0.406-0.771-0.609-1.307-0.609
			c-0.484,0-0.891,0.162-1.221,0.486S331.408,145.504,331.373,146.047z" id="PATH_86" class="area excluded" title=""></path>
		<path fill="#040404" d="M337.25,149.756v-8.59h1.055v3.082c0.492-0.57,1.113-0.855,1.863-0.855c0.461,0,0.861,0.091,1.201,0.272
			s0.584,0.433,0.73,0.753s0.219,0.785,0.219,1.395v3.943h-1.055v-3.943c0-0.527-0.113-0.911-0.342-1.151s-0.553-0.36-0.971-0.36
			c-0.313,0-0.605,0.081-0.881,0.243s-0.473,0.382-0.59,0.659s-0.176,0.66-0.176,1.148v3.404H337.25z" id="PATH_87" class="area excluded" title=""></path>
	</g>
	<g enable-background="new    " id="G_88" class="area excluded" title="">
		<path fill="#040404" d="M161.967,96.46l1.072-0.094c0.051,0.43,0.169,0.782,0.354,1.058s0.474,0.498,0.864,0.668
			s0.83,0.255,1.318,0.255c0.434,0,0.816-0.064,1.148-0.193s0.579-0.306,0.741-0.53s0.243-0.47,0.243-0.735
			c0-0.27-0.078-0.505-0.234-0.706s-0.414-0.37-0.773-0.507c-0.23-0.09-0.74-0.229-1.529-0.419s-1.342-0.368-1.658-0.536
			c-0.41-0.215-0.716-0.481-0.917-0.8s-0.302-0.675-0.302-1.069c0-0.434,0.123-0.839,0.369-1.216s0.605-0.663,1.078-0.858
			s0.998-0.293,1.576-0.293c0.637,0,1.198,0.103,1.685,0.308s0.86,0.507,1.122,0.905s0.402,0.85,0.422,1.354l-1.09,0.082
			c-0.059-0.543-0.257-0.953-0.595-1.23s-0.837-0.416-1.497-0.416c-0.688,0-1.188,0.126-1.503,0.378s-0.472,0.556-0.472,0.911
			c0,0.309,0.111,0.563,0.334,0.762c0.219,0.199,0.79,0.403,1.714,0.612s1.558,0.392,1.901,0.548c0.5,0.23,0.869,0.522,1.107,0.876
			s0.357,0.761,0.357,1.222c0,0.457-0.131,0.888-0.393,1.292s-0.638,0.719-1.128,0.943s-1.042,0.337-1.655,0.337
			c-0.777,0-1.429-0.113-1.954-0.34s-0.938-0.567-1.236-1.022S161.983,97.035,161.967,96.46z" id="PATH_89" class="area excluded" title=""></path>
		<path fill="#040404" d="M174.284,98.453c-0.391,0.332-0.767,0.566-1.128,0.703s-0.749,0.205-1.163,0.205
			c-0.684,0-1.209-0.167-1.576-0.501s-0.551-0.761-0.551-1.28c0-0.305,0.069-0.583,0.208-0.835s0.32-0.454,0.545-0.606
			s0.478-0.268,0.759-0.346c0.207-0.055,0.52-0.107,0.938-0.158c0.852-0.102,1.479-0.223,1.881-0.363
			c0.004-0.145,0.006-0.236,0.006-0.275c0-0.43-0.1-0.732-0.299-0.908c-0.27-0.238-0.67-0.357-1.201-0.357
			c-0.496,0-0.862,0.087-1.099,0.261s-0.411,0.481-0.524,0.923l-1.031-0.141c0.094-0.441,0.248-0.798,0.463-1.069
			s0.525-0.48,0.932-0.627s0.877-0.22,1.412-0.22c0.531,0,0.963,0.063,1.295,0.188s0.576,0.282,0.732,0.472s0.266,0.429,0.328,0.718
			c0.035,0.18,0.053,0.504,0.053,0.973v1.406c0,0.98,0.022,1.601,0.067,1.86s0.134,0.509,0.267,0.747h-1.102
			C174.385,99.001,174.315,98.746,174.284,98.453z M174.196,96.097c-0.383,0.156-0.957,0.289-1.723,0.398
			c-0.434,0.063-0.74,0.133-0.92,0.211s-0.318,0.192-0.416,0.343s-0.146,0.317-0.146,0.501c0,0.281,0.106,0.516,0.319,0.703
			s0.524,0.281,0.935,0.281c0.406,0,0.768-0.089,1.084-0.267s0.549-0.421,0.697-0.729c0.113-0.238,0.17-0.59,0.17-1.055V96.097z" id="PATH_90" class="area excluded" title=""></path>
		<path fill="#040404" d="M180.864,101.605v-3.047c-0.164,0.23-0.394,0.422-0.688,0.574s-0.608,0.229-0.94,0.229
			c-0.738,0-1.374-0.295-1.907-0.885s-0.8-1.398-0.8-2.426c0-0.625,0.108-1.186,0.325-1.682s0.531-0.872,0.943-1.128
			s0.864-0.384,1.356-0.384c0.77,0,1.375,0.324,1.816,0.973v-0.832h0.949v8.607H180.864z M177.612,96.091
			c0,0.801,0.168,1.401,0.504,1.802s0.738,0.601,1.207,0.601c0.449,0,0.836-0.19,1.16-0.571s0.486-0.96,0.486-1.737
			c0-0.828-0.171-1.451-0.513-1.869s-0.743-0.627-1.204-0.627c-0.457,0-0.845,0.194-1.163,0.583S177.612,95.267,177.612,96.091z" id="PATH_91" class="area excluded" title=""></path>
		<path fill="#040404" d="M187.538,101.605v-3.047c-0.164,0.23-0.394,0.422-0.688,0.574s-0.608,0.229-0.94,0.229
			c-0.738,0-1.374-0.295-1.907-0.885s-0.8-1.398-0.8-2.426c0-0.625,0.108-1.186,0.325-1.682s0.531-0.872,0.943-1.128
			s0.864-0.384,1.356-0.384c0.77,0,1.375,0.324,1.816,0.973v-0.832h0.949v8.607H187.538z M184.286,96.091
			c0,0.801,0.168,1.401,0.504,1.802s0.738,0.601,1.207,0.601c0.449,0,0.836-0.19,1.16-0.571s0.486-0.96,0.486-1.737
			c0-0.828-0.171-1.451-0.513-1.869s-0.743-0.627-1.204-0.627c-0.457,0-0.845,0.194-1.163,0.583S184.286,95.267,184.286,96.091z" id="PATH_92" class="area excluded" title=""></path>
		<path fill="#040404" d="M194.504,97.216l1.09,0.135c-0.172,0.637-0.49,1.131-0.955,1.482s-1.059,0.527-1.781,0.527
			c-0.91,0-1.632-0.28-2.165-0.841s-0.8-1.347-0.8-2.358c0-1.047,0.27-1.859,0.809-2.438s1.238-0.867,2.098-0.867
			c0.832,0,1.512,0.283,2.039,0.85s0.791,1.363,0.791,2.391c0,0.063-0.002,0.156-0.006,0.281h-4.641
			c0.039,0.684,0.232,1.207,0.58,1.57s0.781,0.545,1.301,0.545c0.387,0,0.717-0.102,0.99-0.305S194.344,97.662,194.504,97.216z
			 M191.042,95.511h3.475c-0.047-0.523-0.18-0.916-0.398-1.178c-0.336-0.406-0.771-0.609-1.307-0.609
			c-0.484,0-0.892,0.162-1.222,0.486S191.077,94.968,191.042,95.511z" id="PATH_93" class="area excluded" title=""></path>
		<path fill="#040404" d="M196.362,99.22v-0.855l3.961-4.547c-0.449,0.023-0.846,0.035-1.189,0.035h-2.537v-0.855h5.086v0.697
			l-3.369,3.949l-0.65,0.721c0.473-0.035,0.916-0.053,1.33-0.053h2.877v0.908H196.362z" id="PATH_94" class="area excluded" title=""></path>
	</g>
</g>
</svg>


