



    


<svg version="1.1" id="Layer_1" xmlns="http://www.w3.org/2000/svg" xmlns:xlink="http://www.w3.org/1999/xlink" x="0px" y="0px" viewBox="0 0 465.8 486" style="enable-background:new 0 0 465.8 486;" xml:space="preserve" width="100%" height="100%">
<style type="text/css">
	.st0{fill:#FBD1D1;stroke:#020202;stroke-width:0.2;stroke-miterlimit:10;}
	.st1{fill:#DBECCB;stroke:#020202;stroke-width:0.2;stroke-miterlimit:10;}
	.st2{fill:#E8D0E5;stroke:#020202;stroke-width:0.2;stroke-miterlimit:10;}
	.st3{fill:#FDFAD6;stroke:#020202;stroke-width:0.2;stroke-miterlimit:10;}
	.st4{fill:none;stroke:#040404;stroke-width:0.5;stroke-miterlimit:10;}
</style>
		<path class="st0 area" d="M88.3,268.2c6.5-1.5,11.9-5,18.4-6.5c6.5-2,14.4,3.5,18.4-1c3-2.5-7.5-5-4-9c1-1.5,4-1.5,6-0.5
			c5.5,2.5,11.5,7,16.9,3c4.5-3,9-5,12-9.5c2.5-4-2.5-7-4-10.5c-0.6-1.2-0.5-2.4-0.1-3.5l-3.6-1.8L132.9,219l-11.6-11.6
			c-2.2,2.4-4.1,5.3-7.1,7.1c-2,1.5-5.5-0.5-8.5,1c-5,3-6,9-11,11c-2.5,1.5-5.5-0.5-8-0.5c-9-0.5-15.9,9.5-26.4,4
			c-3.5-2-7.5,2-11,4.5c-1.2,1-2.7,1.4-4.2,1.5c5.5,8.7,10,17.7,10.3,18.3c0.7,1.4,1.6,2.8,2.6,4.3c8,1.8,15.4,7.1,23.2,9.8
			C83.3,268.7,85.8,268.7,88.3,268.2z" id="_x631__x636__x648__x627__x646___x634__x647__x631_" title="رضوان شهر"></path>
		<path class="st1 area" d="M175.4,261.3c2.5,2,2.5,6,5.5,7.5c1,0.5,3-0.5,4,0c2.5,3,4.5,6.5,8,7c3,0.5,4.5-5,8-3
			c6.5,3.5,14-0.5,20.9,2.5c1.5,1,2.5,2.5,4,2.5c6,0,6.5-6,3-10.5c-1.5-1.5,0.5-4,2-4.5c7-2,14.4-1.5,20.4-3.5
			c1.2-0.4,2.3-0.8,3.4-1.4l-56.6-7.3l-15.8-4.7l-30.2-15.1c-0.4,1.1-0.5,2.3,0.1,3.5c1.5,3.5,6.5,6.5,4,10.5
			c-0.1,0.1-0.2,0.2-0.3,0.4C160.5,252.5,169.3,255.2,175.4,261.3z" id="_x628__x646__x62F__x631___x627__x646__x632__x644__x6CC_" title="بندر انزلی"></path>
		<path class="st1 area" d="M295.9,260.3c4.5,4.5,10.4,10.5,6.5,16.9c-0.5,1-1.5,2.5-1,4c1.5,2.5,5,5.5,2,7.5c-4,3-9.5,4-7.5,10
			c-1-0.5-2,0-2.5,0.5c0,0.5,0,1.5,0,2c2,2,7,4.5,4.5,6.5c-5,4-11.5,4.5-17.4,1.5c-0.5,4-5,3-8,2.5c0,1-0.5,2,0,2.5
			c2.5,2.5,3.5,6.5,5.5,8.5c2,2,7,0.5,9-2c1.5-1.5,2-4,4-5.5c5-2.5,9.5,4.5,13,2.5c4.5-2.5,11.5-1.5,12.5-5
			c2-7.5,9.5-11.5,15.9-14.9c4-2,4.5-7,7.5-10.5c3-3,7-1.5,11-2.5c1.5-0.5,2-2,3-4c0.7-1.2,1.9-2.3,3.3-3.4l-0.5-0.5l-9.7-3.6
			l-27.3-5.8l-17.6-6.5l1.8-2.2l1.1,0.4l2.2,0.7l2.2-0.4l-7.6-3.6l-6.7,1.1C294.6,258.4,295.1,259.9,295.9,260.3z" id="_x622__x633__x62A__x627__x646__x647___x627__x634__x631__x641__x6CC__x647_" title="آستانه اشرفیه"></path>
		<path class="st2 area" d="M119.7,308.1c8-3,14.5-12.5,24.9-15.4c5.5-1,2.5-10.5,1.5-15.9c-1-3.5,3-6,5.5-8.5c2-2.5-0.5-4.5-2.5-6.5
			c-0.5-1,0.5-2.5,0.5-3.5c0.4-2.6-3.2-2.7-6-3.6c-5.3,3.4-11.1-0.9-16.4-3.3c-2-1-5-1-6,0.5c-3.5,4,7,6.5,4,9c-4,4.5-12-1-18.4,1
			c-6.5,1.5-12,5-18.4,6.5c-2.5,0.5-5,0.5-7,0c-7.8-2.7-15.2-8-23.2-9.8c2.2,3.2,4.9,6.4,7.5,9.6c2,2.4,4,4.8,5.9,7.3
			c5.9,7.9,5.9,19.1,5.9,32.2c0,1.4,0.1,2.6,0.4,3.8C91.7,315,106.8,313.1,119.7,308.1z" id="_x645__x627__x633__x627__x644_" title="ماسال"></path>
		<path class="st3 area" d="M337.3,453c-16.4-5-25.9-20.9-17.4-35.4c-8,8.5-19.4,20.4-28.4,7c-1-2-1.5-6.5-3.5-7c-7.5-2-8.9-7.5-10-13.9
			c0-1-1-2.5-2.5-2.5c-4,0-9,0-10.5-3.5c-2-4,4-5,4.5-8.5c1-3.5,0-6.5-1-10c-2-9.5,5-20.4-6-27.4c-3-1.5,2-4.5,3.5-8
			c-4,0.5-8,2-10,5.5c-3.5,6.5-7,21.4-14.9,15.9c-7.5-5-16.4-5-23.4-0.5c-1.5,1.5-0.5,4-2,5.5c-5.5,3-12-1.5-16.4,2
			c-14,10.5-27.9,18.9-45.3,17.9c-3.2,0-7.4,1.6-9.9,4.5c3.9,8.7,7.4,16.8,8.3,19c3.3,3.3,25.3,25.4,30.4,32.3
			c4.6,6.2,18,15.1,30.2,15.1c6.8,0,13.5,2.9,19.9,5.6c6.2,2.7,12.1,5.2,17.8,5.2c12.2,0,44.7,0,55.3-1.8
			c7.7-1.3,24.2-9.9,34.3-15.3C339.5,454,338.5,453.3,337.3,453z" id="_x631__x648__x62F__x628__x627__x631_" title="رودبار"></path>
		<path class="st2 area" d="M273,327.5c-2.5,1-3.5,4.5-2,6.5c1,1.5,2.5,4,5.5,3c4-1.5,4.5-6,8-8c4.5-2.5,9.5-1,13.9-0.5c2,0,4,1.5,5.5,3
			c3.5,4,6,6,9,10c1,1.5,3.5,2,4,3.5c1,2,0,4.5,1.5,6c7.5,4.5,14.5-1.5,18.4-8.5c0.5-0.5,2.5,0,4,0c1,0,1-1.5,1-1.5c2-3.5-2-6.5-2-9
			c1-7,1-11.5-5.5-16.4c-0.5-0.5-0.5-3,0.5-3c6-1.5,11-0.5,16.4-4.5c3-2.5,11,0.5,11.5-5c0-2.5,0.8-4.7,2-6.6l-0.4-1.3l-1.8-3.2
			l0.7-9l-6.3-5.6c-1.3,1-2.5,2.1-3.3,3.4c-1,2-1.5,3.5-3,4c-4,1-8-0.5-11,2.5c-3,3.5-3.5,8.5-7.5,10.5c-6.5,3.5-13.9,7.5-15.9,14.9
			c-1,3.5-8,2.5-12.5,5c-3.5,2-8-5-13-2.5c-2,1.5-2.5,4-4,5.5c-1.8,2.3-6.1,3.7-8.3,2.5c-0.3,1-0.6,2-1.1,3
			C276.5,327.5,275,327.5,273,327.5z" id="_x644__x627__x647__x6CC__x62C__x627__x646_" title="لاهیجان"></path>
		<path class="st3 area" d="M304.4,356.4c0,1,0,2.5,0,2.5c5,2.5,10-3,14.9-0.5c2.5,1.5,4.5,5,3,7c-5.5,7-6,13.9-0.5,19.9
			c1.5,2,5.5,1.5,7-0.5c4-4.5,10.5-5.5,11.5-10c2.5-8.5,6.5-13.9,12.5-18.9c1.5-2-2-5-0.5-5.5c6.5-2,9-7,9.5-13.4
			c0-0.2,0-0.3,0.1-0.5c0,0,0,0-0.1,0c0-0.5,0-2,0-2.5c5.7-2.2,11.4-4,15.1-8.8l-4.8-12.7l-2.9-4.7l-2.2-3.6l-2.2-7.7
			c-1.3,1.9-2,4.1-2,6.6c-0.5,5.5-8.5,2.5-11.5,5c-5.5,4-10.5,3-16.4,4.5c-1,0-1,2.5-0.5,3c6.5,5,6.5,9.5,5.5,16.4c0,2.5,4,5.5,2,9
			c0,0,0,1.5-1,1.5c-1.5,0-3.5-0.5-4,0c-4,7-11,13-18.4,8.5c-0.7-0.7-0.9-1.7-0.9-2.8C312.8,350.8,310.7,356.9,304.4,356.4z" id="_x644__x646__x6AF__x631__x648__x62F_" title="لنگرود"></path>
		<path class="st3 area" d="M197.3,304.6c5-1.5,7-3,10-7.5c1-1,3.5-1,4.5-2c1-2.5,0.5-6,2.5-7.5c2-2,5.5-4,6.5-6c1.1-1.6,1.4-3.7,1.8-5.9
			c-0.2-0.2-0.5-0.4-0.8-0.6c-7-3-14.4,1-20.9-2.5c-3.5-2-5,3.5-8,3c-3.5-0.5-5.5-4-8-7c-1-0.5-3,0.5-4,0c-3-1.5-3-5.5-5.5-7.5
			c-6.1-6.1-14.9-8.8-19.7-16.1c-3,4.2-7.3,6.2-11.7,9.1c-0.2,0.1-0.3,0.2-0.5,0.4c2.8,0.9,6.4,1,6,3.6c0,1-1,2.5-0.5,3.5
			c2,2,4.5,4,2.5,6.5c-2.5,2.5-6.5,5-5.5,8.5c1,5.5,4,14.9-1.5,15.9c-8.8,2.5-14.8,9.6-21.2,13.6c3.9,1.9,8.3,2.3,11.2-0.1
			c4.5-3,9-6,13.4-4.5c1,0.5,0.5,5,2.5,6c5.5,4.5,11.5,0.5,14.5-5.5c0.5-0.5,2.5-1,3-0.5c2.5,5,6,7.5,11,4c2-1.5,5.5-3.5,7.5-2
			c1.5,1,2,5,4.5,3.5c1.9-0.7,3.5-1.2,5.2-1.4C196.3,305.1,196.7,304.6,197.3,304.6z" id="_x635__x648__x645__x639__x647___x633__x631__x627_" title="صومعه سرا"></path>
		<path class="st2 area" d="M222.7,342.4c3-7-5.5-12.9-11-18.4c-2.5-3,1-6.5,0-9c-0.5-2.5-1.5-5-0.5-7.5c0-0.5,1-1.5,1.5-2.5
			c1.5-3-3-3.5-3.5-6c0-1,0-2-0.2-2.8c-0.7,0.2-1.3,0.4-1.7,0.9c-3,4.5-5,6-10,7.5c-0.6,0-1,0.5-1.3,1.1c0.6-0.1,1.1-0.1,1.8-0.1
			c0.5,0.5,1.5,1,2,1.5c0,1,0.5,2,1,3c1,2.5,4.5,5,3.5,7.5c-0.5,1.5-2.5,4-5.5,4c1.5,1,3.5,3,1.5,3.5c-4,1.5-9-1-12.9,2.5
			c-1.5,2,0.5,5-1,6c-1.5,1-4.5,2-5,2.5c-8.5,20.5-27.3,32.5-47.5,38.4c2.8,4.5,6.7,12.7,10.2,20.4c2.5-2.9,6.7-4.5,9.9-4.5
			c17.4,1,31.4-7.5,45.3-17.9c4.5-3.5,11,1,16.4-2c1.5-1.5,0.5-4,2-5.5c0.4-0.3,0.8-0.5,1.2-0.7
			C217.1,357.6,219.7,349.3,222.7,342.4z" id="_x634__x641__x62A_" title="شفت"></path>
		<path class="st0 area" d="M301.4,281.2c-0.5-1.5,0.5-3,1-4c4-6.5-2-12.5-6.5-16.9c-0.8-0.4-1.3-1.9-1.2-3.2l-0.1,0l-7.2,2.9l-8.6,1.1
			l-24.3-3.1c-1.1,0.5-2.2,1-3.4,1.4c-6,2-13.4,1.5-20.4,3.5c-1.5,0.5-3.5,3-2,4.5c3.5,4.5,3,10.5-3,10.5c-1.2,0-2.1-1-3.2-1.9
			c-0.3,2.2-0.7,4.3-1.7,5.9c-1,2-4.5,4-6.5,6c-2,1.5-1.5,5-2.5,7.5c-0.6,0.6-1.7,0.8-2.7,1.1c0.2,0.9,0.2,1.9,0.2,2.8
			c0.5,2.5,5,3,3.5,6c-0.5,1-1.5,2-1.5,2.5c-1,2.5,0,5,0.5,7.5c1,2.5-2.5,6,0,9c5.5,5.5,13.9,11.5,11,18.4
			c-3.1,6.8-5.7,15.1-3.8,21.7c6.8-3.8,15.2-3.5,22.2,1.2c8,5.5,11.5-9.5,14.9-15.9c2-3.5,6-5,10-5.5c0,0,0,0.1-0.1,0.1
			c2.7-2.6,3-6.7,5.1-9.9c0-0.1-0.1-0.1-0.1-0.2c-1.5-2-0.5-5.5,2-6.5c2,0,3.5,0,4.5-1.5c0.5-1,0.8-2,1.1-3
			c-0.2-0.1-0.5-0.3-0.6-0.5c-2-2-3-6-5.5-8.5c-0.5-0.5,0-1.5,0-2.5c3,0.5,7.5,1.5,8-2.5c6,3,12.4,2.5,17.4-1.5
			c2.5-2-2.5-4.5-4.5-6.5c0-0.5,0-1.5,0-2c0.5-0.5,1.5-1,2.5-0.5c-2-6,3.5-7,7.5-10C306.4,286.7,302.9,283.7,301.4,281.2z" id="_x631__x634__x62A_" title="رشت"></path>
		<path class="st1 area" d="M356.2,421.4c-2,0.6-3.9,1.2-5.5,0.2c-6-3.5-11.9-4-16.9-7c-2.5-1-4-5.5-6-8c-3.1-4.8-5.4-13.1-3.1-20.2
			c-1.1,0-2.2-0.4-2.8-1.3c-5.5-6-5-12.9,0.5-19.9c1.5-2-0.5-5.5-3-7c-5-2.5-10,3-14.9,0.5c0,0,0-1.5,0-2.5c6.3,0.5,8.3-5.6,13-8.2
			c-0.1-1.1-0.1-2.2-0.6-3.2c-0.5-1.5-3-2-4-3.5c-3-4-5.5-6-9-10c-1.5-1.5-3.5-3-5.5-3c-4.5-0.5-9.5-2-13.9,0.5c-3.5,2-4,6.5-8,8
			c-2.9,1-4.4-1.3-5.4-2.8c-2.1,3.2-2.5,7.3-5.1,9.9c-1.6,3.4-6.4,6.4-3.4,7.8c11,7,4,17.9,6,27.4c1,3.5,2,6.5,1,10
			c-0.5,3.5-6.5,4.5-4.5,8.5c1.5,3.5,6.5,3.5,10.5,3.5c1.5,0,2.5,1.5,2.5,2.5c1,6.5,2.5,12,10,13.9c2,0.5,2.5,5,3.5,7
			c8.9,13.4,20.4,1.5,28.4-7c-8.5,14.4,1,30.4,17.4,35.4c1.2,0.3,2.2,1,3.1,1.9c0.7-0.4,1.3-0.7,1.9-1c2.6-1.4,4.7-2.5,6.1-3.2
			c0.4-0.2,0.9-0.4,1.4-0.5c-1.7-7.1-3.5-14-2-21C348.2,426.8,353.5,424.9,356.2,421.4z" id="_x633__x6CC__x627__x647___x62E__x627__x644_" title="سیاه خال"></path>
		<path class="st0 area active" d="M381.1,359.9c-0.5-3-4.5-4.5-6-8c0.5,0,1,0,1.5-0.5c-0.5-0.5-1.5-1-1.5-1.5c4.5-11.4-6.4-10.5-13.4-13.4
			c0,0.2-0.1,0.3-0.1,0.5c-0.5,6.5-3,11.5-9.5,13.4c-1.5,0.5,2,3.5,0.5,5.5c-6,5-10,10.5-12.4,18.9c-1,4.5-7.5,5.5-11.5,10
			c-0.9,1.2-2.6,1.8-4.1,1.8c-2.2,7,0.1,15.3,3.1,20.2c2,2.5,3.5,7,6,8c5,3,11,3.5,16.9,7c1.5,0.9,3.4,0.3,5.5-0.2
			c0.2-0.2,0.4-0.5,0.5-0.8c1-2.5-2.5-4-2-5.5c2.5-7.5-1.5-14.9,2-21.4c4-7,3.5-14.9,9.5-19.4c3-2.5,6.5-1.5,10-2
			c5.5-1.5,2-5.5,2.5-9.5C378.6,362.4,381.6,361.4,381.1,359.9z" id="_x627__x645__x644__x634_" title="املش"></path>
		<path class="st1 area" d="M181.4,336c0.5-0.5,3.5-1.5,5-2.5s-0.5-4,1-6c4-3.5,9-1,12.9-2.5c2-0.5,0-2.5-1.5-3.5c3,0,5-2.5,5.5-4
			c1-2.5-2.5-5-3.5-7.5c-0.5-1-1-2-1-3c-0.5-0.5-1.5-1-2-1.5c-2.5,0-4.5,0.5-7,1.5c-2.5,1.5-3-2.5-4.5-3.5c-2-1.5-5.5,0.5-7.5,2
			c-5,3.5-8.5,1-11-4c-0.5-0.5-2.5,0-3,0.5c-3,6-9,10-14.4,5.5c-2-1-1.5-5.5-2.5-6c-4.5-1.5-9,1.5-13.5,4.5c-2.9,2.4-7.3,2-11.2,0.1
			c-1.2,0.8-2.5,1.4-3.7,1.9c-12.8,5-27.9,6.9-41.9,3.2c1.8,8.7,9.1,13.6,9.2,13.7l0.4,0.3c1.6,1.6,39.7,39.8,45.2,47
			c0.4,0.5,0.8,1.2,1.3,2C154.1,368.5,172.9,356.4,181.4,336z" id="_x641__x648__x645__x627__x646_" title="فومان"></path>
		<path class="st2 area" d="M423.3,367.8l-4-1.1l-3.2-1.8l-10.4-11.9l-15.1-10.8l-7.2-6.8l-6.5-9.7l-0.2-0.6c-3.7,4.8-9.4,6.6-15.1,8.8
			c0,0.5,0,2,0,2.5c7,3,17.9,2,13.4,13.4c0,0.5,1,1,1.5,1.5c-0.5,0.5-1,0.5-1.5,0.5c1.5,3.5,5.5,5,6,8c0.5,1.5-2.5,2.5-2.5,3
			c-0.5,4,3,8-2.5,9.5c-3.5,0.5-7-0.5-10,2c-6,4.5-5.5,12.4-9.5,19.4c-3.5,6.5,0.5,13.9-2,21.4c-0.5,1.5,3,3,2,5.5
			c-2.5,4-8.5,6-9,8.5c-1.4,7,0.3,14,2,21c4.9-1.3,13,1.6,25.1,6.1c2.2,0.8,4.5,1.7,6.7,2.5c0.1-0.2,0.3-0.4,0.4-0.6
			c5.9-4.9,21.6-19,24.4-25.9c3.6-8.9,14-31.5,14.4-32.5l10.7-25.1c0.2-0.4,0.5-0.7,0.8-1L423.3,367.8z" id="_x631__x648__x62F__x633__x631_" title="رودسر"></path>
		<path class="st1 area" d="M60.4,229.9c10.5,5.5,17.4-4.5,26.4-4c2.5,0,5.5,2,8,0.5c5-2,6-8,11-11c3-1.5,6.5,0.5,8.5-1
			c3-1.8,4.9-4.6,7.1-7.1l-2.4-2.4l-10.8-14.7l-4.3-9.3l-2.2-9.7l0.4-1.8l0.4-2.5v-2.5l-7.2-11.1l-1.8-4l-0.7-5.4v-5.4l1.8-5
			l-8.6-28.8l-3.2-30.5l-4-9L78.6,62c-6.1,0.9-12.2,0-18.7-1.5c-2.5-0.5-5.5,0-7.5,1.5c-3.4,2.5-7.3,4-11.1,3.8
			c-0.5,4.4-3.5,28.6-3.5,34.9c0,6.9-3.2,22.5-15.4,32.6c-7.5,6.3-3.4,15.9,2.7,27.7c0.5,1.1,1.1,2.1,1.6,3.1c5.5,11,9.6,21,3.6,33
			c-4.7,9.4-3.6,18.8,2.8,23.6c3.7,2.8,8.1,8.8,12,15c1.5-0.1,3-0.5,4.2-1.5C52.9,231.9,56.9,227.9,60.4,229.9z" id="_x637__x648__x627__x644__x634_" title="طوالش"></path>
		<path class="st3 area" d="M52.4,62.1c2-1.5,5-2,7.5-1.5c6.4,1.4,12.6,2.3,18.7,1.5l-0.3-10.2l-1.4-5l2.5-7.5l-0.7-21.6L65,14.9h-6.8
			l-4.7,2.5L49.2,21l-5,3.2l-5.7,2.2l-5,1.4l-1.3-0.1c0.1,0.2,0.2,0.4,0.3,0.6l9.1,36.4l-0.1,0.5c0,0,0,0.3-0.1,0.7
			C45.1,66,49.1,64.5,52.4,62.1z" id="_x622__x633__x62A__x627__x631__x627_" title="آستارا"></path>

	<path class="st4 area" d="M357.1,373.6" id="PATH_19" title=""></path>
	<line class="st4 area" x1="312.3" y1="295" x2="330.3" y2="257.1" id="LINE_20" title=""></line>
	<path class="st4 area" d="M195.5,264.2" id="PATH_21" title=""></path>

<g id="G_22" class="area" title="">
	<path d="M45.5,41.1c0,0.4-0.1,0.8-0.3,1.1c-0.1,0.2-0.2,0.3-0.2,0.3c0,0-0.1-0.1-0.1-0.4c0-1.2-0.2-4-0.6-8.5l0.8-0.8
		c0.1-0.1,0.1-0.1,0.1-0.1c0,0,0,0.1,0,0.2C45.5,34.3,45.5,37,45.5,41.1z" id="PATH_23" class="area" title=""></path>
	<path d="M50.6,42.5c0,1-0.3,1.9-0.9,2.8c-0.5,0.7-1,1.1-1.3,1.1c-0.8,0-1.4,0-2-0.1c-0.2,0-0.3-0.1-0.3-0.1s0.1-0.1,0.3-0.1
		c0.8-0.2,1.6-0.6,2.4-1.2c0.8-0.7,1.3-1.4,1.3-2.1c0-0.4-0.3-1-1-1.7l0.5-0.9c0-0.1,0.1-0.1,0.1-0.1c0,0,0.1,0.1,0.1,0.1
		c0.2,0.3,0.5,0.7,0.6,1.2C50.5,41.7,50.6,42.1,50.6,42.5z" id="PATH_24" class="area" title=""></path>
	<path d="M54.6,42.4h-0.7c-0.7,0-1.3-0.3-1.5-0.9c-0.2-0.4-0.3-1.1-0.3-1.9v-1.9c0-0.9-0.1-2.2-0.2-3.9l0.6-0.7
		c0.1-0.1,0.2-0.1,0.2,0c0.1,0.9,0.2,2.2,0.2,3.9V40c0,0.8,0.4,1.2,1.2,1.2h0.5V42.4z" id="PATH_25" class="area" title=""></path>
	<path d="M59.5,42.4h-0.8c-0.9,0-1.5-0.3-1.9-0.9c-0.3,0.6-1,0.9-2.1,0.9h-0.6v-1.2h0.9c1,0,1.5-0.4,1.6-1.1c0-0.3,0.1-0.5,0.2-0.5
		c0.1,0,0.2,0.2,0.2,0.5c0.1,0.7,0.6,1.1,1.5,1.1h0.9V42.4z M56.1,36.6l-0.8,0.8l-0.8-0.8l0.8-0.8L56.1,36.6z M57.8,36.6L57,37.3
		l-0.8-0.8l0.8-0.8L57.8,36.6z" id="PATH_26" class="area" title=""></path>
	<path d="M67.4,40.2c0,0.6-0.1,1.1-0.4,1.5c-0.3,0.4-0.8,0.7-1.3,0.7c-0.7,0-1.1-0.3-1.4-0.8c-0.4,0.6-0.8,0.8-1.4,0.8
		c-0.7,0-1.2-0.3-1.5-0.8c-0.4,0.6-0.9,0.8-1.6,0.8h-0.7v-1.2h0.8c0.7,0,1.2-0.4,1.3-1.2c0-0.2,0.1-0.3,0.2-0.3
		c0.1,0,0.1,0.1,0.2,0.3c0.1,0.8,0.5,1.2,1.3,1.2c0.4,0,0.8-0.1,1-0.3c0.1-0.2,0.2-0.4,0.3-0.8c0-0.2,0.1-0.3,0.2-0.3
		c0.1,0,0.1,0.1,0.2,0.3c0.1,0.8,0.5,1.2,1.2,1.2c0.8,0,1.1-0.2,1.1-0.5c0-0.3-0.2-0.7-0.6-1.1l0.5-0.9c0.1-0.1,0.1-0.2,0.2-0.2
		s0.1,0.1,0.2,0.2C67.2,39.3,67.4,39.8,67.4,40.2z" id="PATH_27" class="area" title=""></path>
	<path d="M71.4,31.7c-0.4,0.4-1,0.5-1.6,0.5c-0.1,0-0.2,0-0.4,0s-0.3,0-0.4,0c-0.1,0-0.2,0.1-0.3,0.2c-0.1,0.1-0.2,0.2-0.2,0.2
		c-0.1,0-0.1-0.1-0.1-0.2c0-0.1,0.1-0.3,0.2-0.5c0.1-0.3,0.2-0.4,0.3-0.4c0.1,0,0.3,0,0.6,0.1c0.3,0,0.5,0.1,0.6,0.1
		c0.6,0,1,0,1.3-0.1c0.2,0,0.3-0.1,0.3-0.1c0,0,0.1,0,0.1,0C71.7,31.5,71.6,31.6,71.4,31.7z M70.8,41.1c0,0.4-0.1,0.8-0.3,1.1
		c-0.1,0.2-0.2,0.3-0.2,0.3c0,0-0.1-0.1-0.1-0.4c0-1.2-0.2-4-0.6-8.5l0.8-0.8c0.1-0.1,0.1-0.1,0.1-0.1c0,0,0,0.1,0,0.2
		C70.8,34.3,70.8,37,70.8,41.1z" id="PATH_28" class="area" title=""></path>
</g>
<g id="G_29" class="area" title="">
	<path d="M51.3,155h-0.5c-0.7,0-1.1-0.3-1.4-0.8c-0.2,0.6-0.7,0.9-1.3,0.9c-0.6,0-1-0.3-1.3-0.9c-0.3,0.6-0.8,0.9-1.4,0.9
		c-0.2,0-0.5,0-0.7-0.1c0,0.6-0.1,1.2-0.1,1.9c-0.3,0.7-0.8,1.3-1.7,1.7c-0.8,0.3-1.6,0.5-2.5,0.5c-0.9,0-1.6-0.2-2.2-0.6
		c-0.6-0.5-0.9-1.1-0.9-2c0-0.5,0.1-0.9,0.3-1.5c0.2-0.4,0.3-0.7,0.5-0.9c0.1-0.1,0.2-0.1,0.2-0.1c0.1,0,0.1,0,0.1,0.1
		c0,0,0,0.1,0,0.2c-0.3,0.6-0.4,1.2-0.4,1.7c0,0.5,0.2,0.9,0.5,1.3c0.4,0.5,1.1,0.7,2,0.7c1,0,1.9-0.2,2.6-0.5c0.6-0.3,1-0.6,1.1-1
		c0.1-0.1,0.1-0.3,0-0.7c0-0.3-0.1-0.6-0.1-0.7c-0.1-0.3-0.4-0.8-1-1.5l0.4-0.8c0.1-0.1,0.1-0.2,0.1-0.2c0,0,0.1,0,0.1,0.2
		c0.3,0.4,0.5,0.7,0.6,0.8c0.3,0.3,0.6,0.4,1,0.4c0.4,0,0.8-0.1,1-0.4c0.1-0.2,0.2-0.4,0.3-0.9c0-0.2,0.1-0.3,0.2-0.3
		c0.1,0,0.1,0.1,0.2,0.3c0.1,0.8,0.5,1.3,1.1,1.3c0.7,0,1.2-0.4,1.2-1.2c0-0.2,0.1-0.3,0.2-0.3c0.1,0,0.2,0.1,0.2,0.3
		c0.1,0.8,0.5,1.2,1.2,1.2h0.6V155z M46.6,150l-0.7,0.7l-0.7-0.7l0.7-0.7L46.6,150z M47.5,148.4l-0.7,0.7l-0.7-0.7l0.7-0.7
		L47.5,148.4z M48.4,150l-0.7,0.7l-0.7-0.7l0.7-0.7L48.4,150z" id="PATH_30" class="area" title=""></path>
	<path d="M53.6,147.1c0.1,0.1,0.1,0.2,0.1,0.2c0,0-0.1,0-0.2,0h-0.3c0.1,1.3,0.1,3.2,0.1,5.7c0,0.6-0.1,1.1-0.4,1.4
		c-0.3,0.4-0.8,0.6-1.3,0.6h-0.6v-1.2h0.5c0.8,0,1.2-0.3,1.1-0.9c-0.1-2.1-0.2-4.3-0.3-6.5l0.7-0.6c0.1-0.1,0.2-0.2,0.2-0.2
		c0,0,0,0.1,0.1,0.2C53.3,146.1,53.4,146.5,53.6,147.1z" id="PATH_31" class="area" title=""></path>
	<path d="M56,153.8c0,0.4-0.1,0.8-0.3,1.1c-0.1,0.2-0.2,0.3-0.2,0.3c0,0-0.1-0.1-0.1-0.4c0-1.2-0.2-4-0.6-8.5l0.8-0.8
		c0.1-0.1,0.1-0.1,0.1-0.1c0,0,0,0.1,0,0.2C56,146.9,56,149.6,56,153.8z" id="PATH_32" class="area" title=""></path>
	<path d="M62.3,155h-1.1c-0.1,1.4-0.6,2.5-1.6,3.5c-0.3,0.3-0.5,0.5-0.6,0.5c-0.5,0-1.2-0.1-1.9-0.2c-0.2,0-0.4-0.1-0.4-0.1
		s0.1-0.1,0.4-0.2c0.8-0.2,1.6-0.7,2.3-1.2c0.3-0.3,0.6-0.5,0.8-0.9c0.3-0.4,0.5-0.8,0.5-1.1V155h-1.3c-1,0-1.4-0.4-1.4-1.2
		c0-0.5,0.1-1,0.4-1.6c0.3-0.6,0.7-1,1.1-1c0.5,0,0.9,0.3,1.2,1c0.2,0.5,0.4,1,0.4,1.6h1.1V155z M60.5,153.8c0-0.3-0.1-0.6-0.3-0.9
		c-0.2-0.4-0.5-0.5-0.8-0.5c-0.2,0-0.4,0.1-0.5,0.2c-0.2,0.2-0.2,0.3-0.2,0.6c0,0.5,0.4,0.7,1.2,0.7
		C59.9,153.9,60.2,153.8,60.5,153.8z" id="PATH_33" class="area" title=""></path>
	<path d="M69.9,152.3c0,1.1-0.6,1.9-1.8,2.3c-0.9,0.3-2.3,0.4-4.2,0.4h-2v-1.2h1c0.3,0,0.5-0.1,0.6-0.2c0.1-0.1,0.1-0.3,0.1-0.6
		c0-0.4,0-1.2,0-2.2c-0.1-1.6-0.2-3.1-0.4-4.4l0.7-0.7c0.1-0.1,0.1-0.1,0.1-0.1c0,0,0.1,0.1,0.1,0.2c0.1,0.4,0.2,0.8,0.4,1.2
		c0,0.1,0.1,0.2,0.1,0.2c0,0-0.1,0-0.2,0h-0.3c0.1,1.8,0.1,2.9,0.1,3.2v1.1c0,0.4-0.1,1-0.3,1.7c0.1,0,0.3-0.2,0.8-0.6
		c0.5-0.5,1-0.9,1.4-1.2c0.7-0.4,1.3-0.6,1.9-0.6c0.5,0,0.9,0.1,1.2,0.4C69.7,151.4,69.9,151.8,69.9,152.3z M69.2,152.9
		c0-0.3-0.2-0.6-0.6-0.8c-0.3-0.2-0.7-0.3-1-0.3c-0.7,0-1.9,0.7-3.4,2c0.4,0,0.9,0.1,1.3,0.1c0.6,0,1.3-0.1,2-0.2
		C68.6,153.5,69.2,153.2,69.2,152.9z" id="PATH_34" class="area" title=""></path>
</g>
<g id="G_35" class="area" title="">
	<path d="M76.1,241h-0.4c-0.4,0-0.6-0.1-0.8-0.2c0,0.1,0,0.2,0,0.3c0,0.9-0.3,1.8-0.9,2.7c-0.5,0.8-1,1.1-1.3,1.1
		c-0.8,0-1.4,0-2-0.1c-0.2,0-0.3-0.1-0.3-0.1s0.1-0.1,0.3-0.1c0.8-0.2,1.6-0.6,2.4-1.2c0.8-0.7,1.3-1.4,1.3-2.1c0-0.4-0.3-1-1-1.7
		l0.5-0.9c0-0.1,0.1-0.1,0.1-0.1c0,0,0.1,0.1,0.1,0.1c0.3,0.4,0.5,0.7,0.7,0.8c0.3,0.2,0.7,0.4,1.1,0.4h0.3V241z" id="PATH_36" class="area" title=""></path>
	<path d="M82.3,241h-0.5c-0.4,0-0.8,0.1-1.1,0.2c-0.5,0.2-0.8,0.5-0.8,1c0,0.6,0.4,1.1,1.2,1.6l-0.5,1c-0.9-0.3-1.7-0.8-2.3-1.4
		c-0.8-0.7-1.2-1.6-1.2-2.5h-1.4v-1.2H77c0-0.8,0.2-1.6,0.6-2.6c0.4-0.9,0.7-1.3,0.9-1.3c0.2,0,0.5,0.4,0.8,1.3
		c0.3,0.8,0.4,1.3,0.4,1.6c0,1.4-0.7,2.1-2.1,2.1c0.1,0.4,0.3,0.8,0.6,1.2c0.3,0.4,0.7,0.7,1.1,0.9c0-0.1,0-0.3,0-0.4
		c0-0.7,0.2-1.3,0.5-1.8c0.5-0.7,1.1-1.1,2-1.1h0.4V241z M79.2,239.4c0-0.2-0.1-0.6-0.3-1.1c-0.2-0.6-0.4-0.8-0.6-0.8
		c-0.1,0-0.3,0.2-0.5,0.7c-0.2,0.5-0.3,1.1-0.3,1.7C78.7,239.8,79.2,239.7,79.2,239.4z" id="PATH_37" class="area" title=""></path>
	<path d="M90.2,238.9c0,0.6-0.1,1.1-0.4,1.5c-0.3,0.4-0.8,0.7-1.3,0.7c-0.7,0-1.1-0.3-1.4-0.8c-0.4,0.6-0.8,0.8-1.4,0.8
		c-0.7,0-1.2-0.3-1.5-0.8c-0.4,0.6-0.9,0.8-1.6,0.8h-0.7v-1.2h0.8c0.7,0,1.2-0.4,1.3-1.2c0-0.2,0.1-0.3,0.2-0.3
		c0.1,0,0.1,0.1,0.2,0.3c0.1,0.8,0.5,1.2,1.3,1.2c0.4,0,0.8-0.1,1-0.3c0.1-0.2,0.2-0.4,0.3-0.8c0-0.2,0.1-0.3,0.2-0.3
		c0.1,0,0.1,0.1,0.2,0.3c0.1,0.8,0.5,1.2,1.2,1.2c0.8,0,1.1-0.2,1.1-0.5c0-0.3-0.2-0.7-0.6-1.1l0.5-0.9c0.1-0.1,0.1-0.2,0.2-0.2
		s0.1,0.1,0.2,0.2C90,237.9,90.2,238.4,90.2,238.9z M86.8,235.2l-0.7,0.7l-0.7-0.7l0.7-0.7L86.8,235.2z M87.7,233.7l-0.7,0.7
		l-0.7-0.7l0.7-0.7L87.7,233.7z M88.6,235.2l-0.7,0.7l-0.7-0.7l0.7-0.7L88.6,235.2z" id="PATH_38" class="area" title=""></path>
	<path d="M102.7,240.9c0.1,0.3,0.1,0.6,0.1,0.9c0,0.4-0.1,0.7-0.2,1.1c-0.3,0.7-0.8,1.3-1.8,1.7c-0.8,0.3-1.6,0.5-2.5,0.5
		c-0.9,0-1.6-0.2-2.2-0.6c-0.6-0.5-0.9-1.1-0.9-2c0-0.5,0.1-0.9,0.3-1.5c0.2-0.4,0.3-0.7,0.5-0.9c0.1-0.1,0.2-0.1,0.2-0.1
		c0.1,0,0.1,0,0.1,0.1c0,0,0,0.1,0,0.2c-0.3,0.6-0.4,1.2-0.4,1.7c0,0.5,0.2,0.9,0.5,1.3c0.4,0.5,1.1,0.7,2,0.7c1,0,1.9-0.2,2.6-0.5
		c0.6-0.3,1-0.6,1.2-1c0.1-0.1,0.1-0.3,0.1-0.4c0-0.3-0.1-0.6-0.2-1c-0.1-0.3-0.4-0.8-0.9-1.6l0.4-0.8c0.1-0.1,0.1-0.2,0.1-0.2
		s0.1,0,0.1,0.1C102.3,239.3,102.6,240.1,102.7,240.9z M99.8,236.5l-0.8,0.8l-0.8-0.8l0.8-0.8L99.8,236.5z" id="PATH_39" class="area" title=""></path>
	<path d="M105.2,239.8c0,0.4-0.1,0.8-0.3,1.1c-0.1,0.2-0.2,0.3-0.2,0.3c0,0-0.1-0.1-0.1-0.4c0-1.2-0.2-4-0.6-8.5l0.8-0.8
		c0.1-0.1,0.1-0.1,0.1-0.1c0,0,0,0.1,0,0.2C105.1,232.9,105.2,235.6,105.2,239.8z" id="PATH_40" class="area" title=""></path>
	<path d="M111.4,241h-1.1c-0.1,1.4-0.6,2.5-1.6,3.5c-0.3,0.3-0.5,0.5-0.6,0.5c-0.5,0-1.2-0.1-1.9-0.2c-0.2,0-0.4-0.1-0.4-0.1
		c0,0,0.1-0.1,0.4-0.2c0.8-0.2,1.6-0.7,2.3-1.2c0.3-0.3,0.6-0.5,0.8-0.9c0.3-0.4,0.5-0.8,0.5-1.1V241h-1.3c-1,0-1.4-0.4-1.4-1.2
		c0-0.5,0.1-1,0.4-1.6c0.3-0.6,0.7-1,1.1-1c0.5,0,0.9,0.3,1.2,1c0.2,0.5,0.4,1,0.4,1.6h1.1V241z M109.6,239.8c0-0.3-0.1-0.6-0.3-0.9
		c-0.2-0.4-0.5-0.5-0.8-0.5c-0.2,0-0.4,0.1-0.5,0.2c-0.2,0.2-0.2,0.3-0.2,0.6c0,0.5,0.4,0.7,1.2,0.7
		C109,239.9,109.3,239.8,109.6,239.8z" id="PATH_41" class="area" title=""></path>
	<path d="M120.1,238.3c0,1-0.6,1.7-1.8,2.2c-0.8,0.3-1.8,0.5-3,0.5c-0.7,0-1.2,0-1.5-0.1c-0.5-0.1-0.8-0.4-1-0.8
		c-0.4,0.6-0.9,0.9-1.5,0.9H111v-1.2h0.4c0.8,0,1.2-0.4,1.3-1.1c0-0.2,0.1-0.3,0.2-0.3s0.2,0.1,0.2,0.3c0.1,0.7,0.4,1.1,1,1.1
		c1.9-2,3.3-3,4.4-3c0.5,0,0.9,0.1,1.2,0.4C120,237.5,120.1,237.9,120.1,238.3z M119.4,238.9c0-0.3-0.2-0.5-0.5-0.8
		c-0.3-0.2-0.6-0.3-0.9-0.3c-0.9,0-2,0.6-3.2,1.9c0.3,0,0.6,0,0.9,0c0.7,0,1.4-0.1,2.1-0.2C118.8,239.5,119.4,239.3,119.4,238.9z
		 M117.9,234l-0.8,0.8l-0.8-0.8l0.8-0.8L117.9,234z" id="PATH_42" class="area" title=""></path>
	<path d="M125.2,241.1c0,1-0.3,1.9-0.9,2.8c-0.5,0.7-1,1.1-1.3,1.1c-0.8,0-1.4,0-2-0.1c-0.2,0-0.3-0.1-0.3-0.1s0.1-0.1,0.3-0.1
		c0.8-0.2,1.6-0.6,2.4-1.2c0.8-0.7,1.3-1.4,1.3-2.1c0-0.4-0.3-1-1-1.7l0.5-0.9c0-0.1,0.1-0.1,0.1-0.1c0,0,0.1,0.1,0.1,0.1
		c0.2,0.3,0.5,0.7,0.6,1.2C125.1,240.3,125.2,240.7,125.2,241.1z" id="PATH_43" class="area" title=""></path>
</g>
<g id="G_44" class="area" title="">
	<path d="M97.5,276.5c0,0.1,0.1,0.2,0,0.2c0,0-0.1,0-0.2,0H97c0.2,3.8,0.3,6.5,0.2,8c-0.1,2.4-1.5,3.5-4.1,3.5c-0.9,0-1.5-0.2-2-0.5
		c-0.6-0.4-0.9-1-0.9-1.9c0-0.8,0.2-1.6,0.7-2.2c0.1-0.1,0.1-0.1,0.2-0.1c0.1,0,0.1,0,0.1,0.1c0,0,0,0.1,0,0.1
		c-0.2,0.5-0.3,1-0.3,1.4c0,0.6,0.2,1.1,0.7,1.5c0.4,0.3,0.9,0.5,1.6,0.5c1,0,1.8-0.2,2.5-0.5c0.6-0.3,0.9-0.6,0.9-1
		c0-4.3-0.1-7.6-0.4-9.8l0.7-0.6c0.1-0.1,0.1-0.1,0.2-0.1c0,0,0.1,0.1,0.1,0.2C97.1,275.5,97.2,275.9,97.5,276.5z" id="PATH_45" class="area" title=""></path>
	<path d="M101.5,284.3h-0.7c-0.7,0-1.3-0.3-1.5-0.9c-0.2-0.4-0.3-1.1-0.3-1.9v-1.9c0-0.9-0.1-2.2-0.2-3.9l0.6-0.7
		c0.1-0.1,0.2-0.1,0.2,0c0.1,0.9,0.2,2.2,0.2,3.9v2.9c0,0.8,0.4,1.2,1.2,1.2h0.5V284.3z" id="PATH_46" class="area" title=""></path>
	<path d="M109.4,282.2c0,0.6-0.1,1.1-0.4,1.5c-0.3,0.4-0.8,0.7-1.3,0.7c-0.7,0-1.1-0.3-1.4-0.8c-0.4,0.6-0.8,0.8-1.4,0.8
		c-0.7,0-1.2-0.3-1.5-0.8c-0.4,0.6-0.9,0.8-1.6,0.8h-0.7v-1.2h0.8c0.7,0,1.2-0.4,1.3-1.2c0-0.2,0.1-0.3,0.2-0.3
		c0.1,0,0.1,0.1,0.2,0.3c0.1,0.8,0.5,1.2,1.3,1.2c0.4,0,0.8-0.1,1-0.3c0.1-0.2,0.2-0.4,0.3-0.8c0-0.2,0.1-0.3,0.2-0.3
		c0.1,0,0.1,0.1,0.2,0.3c0.1,0.8,0.5,1.2,1.2,1.2c0.8,0,1.1-0.2,1.1-0.5c0-0.3-0.2-0.7-0.6-1.1l0.5-0.9c0.1-0.1,0.1-0.2,0.2-0.2
		s0.1,0.1,0.2,0.2C109.2,281.2,109.4,281.8,109.4,282.2z" id="PATH_47" class="area" title=""></path>
	<path d="M113.4,284.3h-0.7c-0.7,0-1.3-0.3-1.5-0.9c-0.2-0.4-0.3-1.1-0.3-1.9v-1.9c0-0.9-0.1-2.2-0.2-3.9l0.6-0.7
		c0.1-0.1,0.2-0.1,0.2,0c0.1,0.9,0.2,2.2,0.2,3.9v2.9c0,0.8,0.4,1.2,1.2,1.2h0.5V284.3z" id="PATH_48" class="area" title=""></path>
	<path d="M118.3,282.3c0,0.5,0,0.9-0.2,1.3c-0.2,0.5-0.5,0.8-0.8,0.8c-0.5,0-1.3-0.3-2.3-1c-0.3,0.4-0.5,0.6-0.6,0.7
		c-0.3,0.2-0.6,0.3-1,0.3H113v-1.2h0.7c0.4,0,0.8-0.2,1.2-0.7c0.2-0.2,0.5-0.7,0.9-1.3c0.3-0.5,0.7-0.7,1-0.7c0.5,0,0.9,0.2,1.2,0.7
		C118.2,281.6,118.3,282,118.3,282.3z M117.7,283.1c0-0.3-0.1-0.6-0.3-1c-0.2-0.4-0.5-0.6-0.8-0.6c-0.3,0-0.6,0.3-1,0.9
		c0.2,0.2,0.5,0.4,0.9,0.6c0.4,0.2,0.8,0.3,1,0.3C117.7,283.3,117.7,283.2,117.7,283.1z" id="PATH_49" class="area" title=""></path>
</g>
<g id="G_50" class="area" title="">
	<path d="M154.2,285.8c0,0.4-0.1,0.8-0.3,1.1c-0.1,0.2-0.2,0.3-0.2,0.3c0,0-0.1-0.1-0.1-0.4c0-1.2-0.2-4-0.6-8.5l0.8-0.8
		c0.1-0.1,0.1-0.1,0.1-0.1c0,0,0,0.1,0,0.2C154.1,278.9,154.2,281.6,154.2,285.8z" id="PATH_51" class="area" title=""></path>
	<path d="M160.4,287H160c-0.4,0-0.6-0.1-0.8-0.2c0,0.1,0,0.2,0,0.3c0,0.9-0.3,1.8-0.9,2.7c-0.5,0.8-1,1.1-1.3,1.1
		c-0.8,0-1.4,0-2-0.1c-0.2,0-0.3-0.1-0.3-0.1s0.1-0.1,0.3-0.1c0.8-0.2,1.6-0.6,2.4-1.2c0.8-0.7,1.3-1.4,1.3-2.1c0-0.4-0.3-1-1-1.7
		l0.5-0.9c0-0.1,0.1-0.1,0.1-0.1c0,0,0.1,0.1,0.1,0.1c0.3,0.4,0.5,0.7,0.7,0.8c0.3,0.2,0.7,0.4,1.1,0.4h0.3V287z" id="PATH_52" class="area" title=""></path>
	<path d="M168.3,284.9c0,0.6-0.1,1.1-0.4,1.5c-0.3,0.4-0.8,0.7-1.3,0.7c-0.7,0-1.1-0.3-1.4-0.8c-0.4,0.6-0.8,0.8-1.4,0.8
		c-0.7,0-1.2-0.3-1.5-0.8c-0.4,0.6-0.9,0.8-1.6,0.8H160v-1.2h0.8c0.7,0,1.2-0.4,1.3-1.2c0-0.2,0.1-0.3,0.2-0.3
		c0.1,0,0.1,0.1,0.2,0.3c0.1,0.8,0.5,1.2,1.3,1.2c0.4,0,0.8-0.1,1-0.3c0.1-0.2,0.2-0.4,0.3-0.8c0-0.2,0.1-0.3,0.2-0.3
		c0.1,0,0.1,0.1,0.2,0.3c0.1,0.8,0.5,1.2,1.2,1.2c0.8,0,1.1-0.2,1.1-0.5c0-0.3-0.2-0.7-0.6-1.1l0.5-0.9c0.1-0.1,0.1-0.2,0.2-0.2
		s0.1,0.1,0.2,0.2C168.1,283.9,168.3,284.4,168.3,284.9z" id="PATH_53" class="area" title=""></path>
	<path d="M179.1,287h-0.7c-0.9,0-1.4-0.5-1.6-1.6c-0.5,0.5-0.7,0.7-0.8,0.7H175c-0.3,0-0.6,0-0.9-0.1c-0.4-0.1-0.6-0.3-0.6-0.5
		c0-0.8,0.3-1.4,0.8-1.8c0.4-0.3,1-0.6,1.8-1l-0.2-1l0.7-0.8c0,0.1,0.3,1.2,0.7,3.3c0.1,0.6,0.3,1.1,0.4,1.3
		c0.2,0.3,0.4,0.4,0.8,0.4h0.7V287z M176.6,285l-0.3-1.6c-0.3,0.1-0.7,0.3-1.2,0.5c-0.6,0.3-1,0.6-1,0.7c0,0.2,0.2,0.3,0.7,0.4
		c0.3,0.1,0.6,0.1,0.9,0.1C176.1,285,176.4,285,176.6,285z" id="PATH_54" class="area" title=""></path>
	<path d="M184.7,287h-0.6c-1,0-1.8-0.3-2.3-1c-0.6,0.7-1.4,1-2.3,1h-0.8v-1.2h1c0.7,0,1.2-0.1,1.5-0.4c-0.1-0.2-0.2-0.4-0.4-0.6
		c-0.2-0.2-0.4-0.4-0.5-0.4c-0.2-0.1-0.3-0.1-0.3-0.2c0,0,0-0.1,0.1-0.2c0.3-0.6,0.8-0.9,1.7-0.9c1.1,0,1.7,0.3,1.7,1
		c0,0.3-0.3,0.7-0.9,1.3c0.1,0.2,0.4,0.3,0.7,0.4c0.3,0.1,0.5,0.1,0.7,0.1h0.8V287z" id="PATH_55" class="area" title=""></path>
	<path d="M189.7,285c0,0.5,0,0.9-0.2,1.3c-0.2,0.5-0.5,0.8-0.8,0.8c-0.5,0-1.3-0.3-2.3-1c-0.3,0.4-0.5,0.6-0.6,0.7
		c-0.3,0.2-0.6,0.3-1,0.3h-0.5v-1.2h0.7c0.4,0,0.8-0.2,1.2-0.7c0.2-0.2,0.5-0.7,0.9-1.3c0.3-0.5,0.7-0.7,1-0.7
		c0.5,0,0.9,0.2,1.2,0.7C189.5,284.3,189.6,284.6,189.7,285z M189.1,285.7c0-0.3-0.1-0.6-0.3-1c-0.2-0.4-0.5-0.6-0.8-0.6
		c-0.3,0-0.6,0.3-1,0.9c0.2,0.2,0.5,0.4,0.9,0.6c0.4,0.2,0.8,0.3,1,0.3C189,286,189.1,285.9,189.1,285.7z" id="PATH_56" class="area" title=""></path>
	<path d="M195.9,287h-1.1c-0.1,1.4-0.6,2.5-1.6,3.5c-0.3,0.3-0.5,0.5-0.6,0.5c-0.5,0-1.2-0.1-1.9-0.2c-0.2,0-0.4-0.1-0.4-0.1
		c0,0,0.1-0.1,0.4-0.2c0.8-0.2,1.6-0.7,2.3-1.2c0.3-0.3,0.6-0.5,0.8-0.9c0.3-0.4,0.5-0.8,0.5-1.1V287H193c-1,0-1.4-0.4-1.4-1.2
		c0-0.5,0.1-1,0.4-1.6c0.3-0.6,0.7-1,1.1-1c0.5,0,0.9,0.3,1.2,1c0.2,0.5,0.4,1,0.4,1.6h1.1V287z M194.1,285.8c0-0.3-0.1-0.6-0.3-0.9
		c-0.2-0.4-0.5-0.5-0.8-0.5c-0.2,0-0.4,0.1-0.5,0.2c-0.2,0.2-0.2,0.3-0.2,0.6c0,0.5,0.4,0.7,1.2,0.7
		C193.5,285.9,193.8,285.8,194.1,285.8z" id="PATH_57" class="area" title=""></path>
	<path d="M204.6,284.3c0,1-0.6,1.7-1.8,2.2c-0.8,0.3-1.8,0.5-3,0.5c-0.7,0-1.2,0-1.5-0.1c-0.5-0.1-0.8-0.4-1-0.8
		c-0.4,0.6-0.9,0.9-1.5,0.9h-0.4v-1.2h0.4c0.8,0,1.2-0.4,1.3-1.1c0-0.2,0.1-0.3,0.2-0.3s0.2,0.1,0.2,0.3c0.1,0.7,0.4,1.1,1,1.1
		c1.9-2,3.3-3,4.4-3c0.5,0,0.9,0.1,1.2,0.4C204.4,283.5,204.6,283.9,204.6,284.3z M203.9,284.9c0-0.3-0.2-0.5-0.5-0.8
		c-0.3-0.2-0.6-0.3-0.9-0.3c-0.9,0-2,0.6-3.2,1.9c0.3,0,0.6,0,0.9,0c0.7,0,1.4-0.1,2.1-0.2C203.3,285.5,203.9,285.3,203.9,284.9z" id="PATH_58" class="area" title=""></path>
</g>
<g id="G_59" class="area" title="">
	<path d="M180.9,256.4l-2.2-0.8c-0.3-0.1-0.5-0.1-0.8-0.1c-0.4,0-0.6,0.1-0.7,0.3c0,0,0.4,0.3,1.2,0.9c0.8,0.5,1.2,0.9,1.1,1.1
		c-0.3,0.7-0.7,1.2-1.2,1.4c-0.9,0.4-2.3,0.2-4.1-0.4c-2.2-0.8-3-2-2.4-3.6c0.1-0.4,0.4-0.8,0.7-1.1c0.3-0.4,0.6-0.7,1-0.9
		c0.1-0.1,0.2-0.1,0.3-0.1s0.1,0.1,0.1,0.2c0,0.1-0.1,0.2-0.2,0.2c-0.5,0.4-0.8,0.9-1,1.5c-0.2,0.6-0.1,1.2,0.4,1.8
		c0.4,0.4,0.9,0.7,1.6,1c0.8,0.3,1.5,0.5,2.1,0.6c1.2,0.3,1.8,0.2,2-0.1c0.1-0.1-0.2-0.3-0.6-0.6c-0.7-0.4-1.2-0.7-1.3-0.7
		c-0.4-0.3-0.6-0.6-0.5-0.9c0.1-0.2,0.3-0.5,0.7-0.7c0.3-0.2,0.6-0.4,0.9-0.5c0.6-0.2,1.3-0.2,2.1,0.1l1.3,0.5L180.9,256.4z" id="PATH_60" class="area" title=""></path>
	<path d="M185.7,249.7c0,0.1,0,0.2,0,0.3c0,0-0.1,0-0.2,0l-0.3-0.1c-0.4,1.3-1,3.1-1.8,5.4c-0.2,0.6-0.5,1-0.9,1.2
		c-0.4,0.3-0.9,0.3-1.5,0.1l-0.6-0.2l0.4-1.1l0.5,0.2c0.7,0.3,1.2,0.1,1.4-0.5c0.6-2.1,1.3-4.1,1.9-6.3l0.8-0.4
		c0.1-0.1,0.2-0.1,0.2-0.1c0,0,0,0.1,0,0.2C185.7,248.7,185.7,249.2,185.7,249.7z" id="PATH_61" class="area" title=""></path>
	<path d="M189,259.3l-0.4-0.1c-0.3-0.1-0.6-0.3-0.7-0.5c0,0.1-0.1,0.2-0.1,0.3c-0.3,0.9-0.9,1.6-1.8,2.3c-0.7,0.5-1.3,0.7-1.6,0.6
		c-0.7-0.3-1.3-0.5-1.8-0.8c-0.2-0.1-0.2-0.2-0.2-0.2c0-0.1,0.1-0.1,0.3,0c0.8,0.1,1.7,0,2.6-0.4c1-0.4,1.7-0.9,1.9-1.5
		c0.1-0.4,0-1.1-0.4-1.9l0.7-0.7c0.1-0.1,0.1-0.1,0.1-0.1c0,0,0.1,0.1,0.1,0.2c0.2,0.5,0.3,0.8,0.4,1c0.2,0.3,0.5,0.6,0.9,0.7
		l0.3,0.1L189,259.3z M188.9,253.7l-1,0.5l-0.5-1l1-0.5L188.9,253.7z" id="PATH_62" class="area" title=""></path>
	<path d="M191.9,258.2c-0.4,1.3-1.3,1.7-2.5,1.2l-0.8-0.3l0.4-1.1l0.6,0.2c0.9,0.3,1.5,0.3,1.6,0c0.1-0.2,0-0.7-0.2-1.4l0.7-0.8
		c0.1-0.1,0.1-0.1,0.1-0.1c0,0,0.1,0.1,0.1,0.2C192.1,256.9,192.1,257.6,191.9,258.2z M193.4,253.9l-1,0.5l-0.5-1l1-0.5L193.4,253.9
		z" id="PATH_63" class="area" title=""></path>
	<path d="M193.9,259.7c-0.1,0.4-0.3,0.7-0.6,1c-0.2,0.2-0.3,0.2-0.3,0.2c0,0,0-0.1,0.1-0.4c0.4-1.1,1.1-3.8,2.2-8.2l1-0.5
		c0.1,0,0.1-0.1,0.2-0.1c0,0,0,0.1,0,0.2C196.1,253.3,195.2,255.8,193.9,259.7z" id="PATH_64" class="area" title=""></path>
	<path d="M201.9,264c-0.3,0.9-0.9,1.7-1.8,2.3c-0.7,0.5-1.3,0.7-1.6,0.6c-0.7-0.3-1.3-0.5-1.8-0.8c-0.2-0.1-0.2-0.2-0.2-0.2
		c0-0.1,0.1-0.1,0.3,0c0.8,0.1,1.7,0,2.6-0.4c1-0.4,1.7-0.9,1.9-1.5c0.1-0.4,0-1.1-0.4-1.9l0.7-0.7c0.1-0.1,0.1-0.1,0.1-0.1
		c0,0,0.1,0.1,0.1,0.2c0.1,0.4,0.2,0.8,0.2,1.3C202,263.2,202,263.6,201.9,264z" id="PATH_65" class="area" title=""></path>
	<path d="M209.2,266.5l-0.4-0.1c-0.4-0.1-0.6-0.3-0.8-0.7c-0.1-0.2-0.2-0.5-0.3-0.9c-0.4,0.3-0.7,0.5-1.1,0.6c-0.4,0.1-1,0-1.7-0.3
		c-1.3-0.5-1.8-1.2-1.5-2.1c0.1-0.3,0.3-0.6,0.6-0.9c0.1-0.1,0.2-0.1,0.3-0.1c0.1,0,0.1,0.1,0,0.2c0,0.1-0.1,0.1-0.1,0.2
		s-0.1,0.2-0.1,0.2c-0.2,0.6,0.2,1,1.1,1.4c1.4,0.5,2.1,0.5,2.3-0.1c0.1-0.3,0.1-1.4-0.1-3.5l0.7-0.6c0.1-0.1,0.1-0.1,0.2-0.1
		c0,0,0,0.1,0,0.2c0.1,0.9,0.1,2.1,0.1,3.8c0,0.9,0.3,1.4,0.8,1.6l0.3,0.1L209.2,266.5z" id="PATH_66" class="area" title=""></path>
	<path d="M213.9,268.1l-0.7-0.3c-0.9-0.3-1.3-0.8-1.4-1.5c-0.5,0.5-1.3,0.5-2.2,0.2l-0.6-0.2l0.4-1.1l0.8,0.3
		c0.9,0.3,1.5,0.1,1.9-0.5c0.1-0.3,0.3-0.4,0.4-0.4c0.1,0,0.1,0.2,0,0.5c-0.2,0.7,0.2,1.3,1.1,1.6l0.8,0.3L213.9,268.1z
		 M213.7,262.6l-1,0.5l-0.5-1l1-0.5L213.7,262.6z" id="PATH_67" class="area" title=""></path>
	<path d="M216.8,267c-0.4,1.3-1.3,1.7-2.5,1.2l-0.8-0.3l0.4-1.1l0.6,0.2c0.9,0.3,1.5,0.3,1.6,0c0.1-0.2,0-0.7-0.2-1.4l0.7-0.8
		c0.1-0.1,0.1-0.1,0.1-0.1c0,0,0.1,0.1,0.1,0.2C217,265.8,217,266.4,216.8,267z M215.1,270.9l-1,0.5l-0.5-1.1l1-0.5L215.1,270.9z" id="PATH_68" class="area" title=""></path>
</g>
<g id="G_69" class="area" title="">
	<path d="M248.7,309.5h-0.4c-0.5,0-0.9-0.1-1.1-0.3c-0.3-0.2-0.5-0.6-0.5-1c-1.1,1-2.8,1.5-5.1,1.5c-2.4,0-3.6-0.7-3.6-2.2
		c0-0.5,0.2-1,0.6-1.5c0.1-0.1,0.1-0.1,0.2-0.1c0.1,0,0.1,0,0.1,0.1c0,0,0,0.1,0,0.2c-0.1,0.3-0.2,0.6-0.2,0.9c0,1,1.1,1.5,3.3,1.5
		c2.5,0,4.2-0.5,5-1.6c0.2-0.2,0.3-0.3,0.4-0.3c0.1,0,0.1,0.1,0.1,0.2c0,0.1,0,0.2-0.1,0.4c0,0.2-0.1,0.3-0.1,0.4
		c0,0.5,0.4,0.8,1.1,0.8h0.4V309.5z M242.5,303.7l-0.8,0.8l-0.8-0.8l0.8-0.8L242.5,303.7z M244.2,303.7l-0.8,0.8l-0.8-0.8l0.8-0.8
		L244.2,303.7z" id="PATH_70" class="area" title=""></path>
	<path d="M256.6,307.4c0,0.6-0.1,1.1-0.4,1.5c-0.3,0.4-0.8,0.7-1.3,0.7c-0.7,0-1.1-0.3-1.4-0.8c-0.4,0.6-0.8,0.8-1.4,0.8
		c-0.7,0-1.2-0.3-1.5-0.8c-0.4,0.6-0.9,0.8-1.6,0.8h-0.7v-1.2h0.8c0.7,0,1.2-0.4,1.3-1.2c0-0.2,0.1-0.3,0.2-0.3
		c0.1,0,0.1,0.1,0.2,0.3c0.1,0.8,0.5,1.2,1.3,1.2c0.4,0,0.8-0.1,1-0.3c0.1-0.2,0.2-0.4,0.3-0.8c0-0.2,0.1-0.3,0.2-0.3
		c0.1,0,0.1,0.1,0.2,0.3c0.1,0.8,0.5,1.2,1.2,1.2c0.8,0,1.1-0.2,1.1-0.5c0-0.3-0.2-0.7-0.6-1.1l0.5-0.9c0.1-0.1,0.1-0.2,0.2-0.2
		s0.1,0.1,0.2,0.2C256.4,306.4,256.6,306.9,256.6,307.4z M253.2,303.7l-0.7,0.7l-0.7-0.7l0.7-0.7L253.2,303.7z M254.1,302.2
		l-0.7,0.7l-0.7-0.7l0.7-0.7L254.1,302.2z M255,303.7l-0.7,0.7l-0.7-0.7l0.7-0.7L255,303.7z" id="PATH_71" class="area" title=""></path>
	<path d="M261.6,309.6c0,1-0.3,1.9-0.9,2.8c-0.5,0.7-1,1.1-1.3,1.1c-0.8,0-1.4,0-2-0.1c-0.2,0-0.3-0.1-0.3-0.1s0.1-0.1,0.3-0.1
		c0.8-0.2,1.6-0.6,2.4-1.2c0.8-0.7,1.3-1.4,1.3-2.1c0-0.4-0.3-1-1-1.7l0.5-0.9c0-0.1,0.1-0.1,0.1-0.1c0,0,0.1,0.1,0.1,0.1
		c0.2,0.3,0.5,0.7,0.6,1.2C261.5,308.8,261.6,309.3,261.6,309.6z" id="PATH_72" class="area" title=""></path>
</g>
<g id="G_73" class="area" title="">
	<path d="M133.2,332.5c0.1,0.3,0.1,0.6,0.1,0.9c0,0.4-0.1,0.7-0.2,1.1c-0.3,0.7-0.8,1.3-1.8,1.7c-0.8,0.3-1.6,0.5-2.5,0.5
		c-0.9,0-1.6-0.2-2.2-0.6c-0.6-0.5-0.9-1.1-0.9-2c0-0.5,0.1-0.9,0.3-1.5c0.2-0.4,0.3-0.7,0.5-0.9c0.1-0.1,0.2-0.1,0.2-0.1
		c0.1,0,0.1,0,0.1,0.1c0,0,0,0.1,0,0.2c-0.3,0.6-0.4,1.2-0.4,1.7c0,0.5,0.2,0.9,0.5,1.3c0.4,0.5,1.1,0.7,2,0.7c1,0,1.9-0.2,2.6-0.5
		c0.6-0.3,1-0.6,1.2-1c0.1-0.1,0.1-0.3,0.1-0.4c0-0.3-0.1-0.6-0.2-1c-0.1-0.3-0.4-0.8-0.9-1.6l0.4-0.8c0.1-0.1,0.1-0.2,0.1-0.2
		s0.1,0,0.1,0.1C132.8,331,133.1,331.7,133.2,332.5z M130.2,328.2l-0.8,0.8l-0.8-0.8l0.8-0.8L130.2,328.2z" id="PATH_74" class="area" title=""></path>
	<path d="M137.2,332.7h-0.7c-0.7,0-1.3-0.3-1.5-0.9c-0.2-0.4-0.3-1.1-0.3-1.9v-1.9c0-0.9-0.1-2.2-0.2-3.9l0.6-0.7
		c0.1-0.1,0.2-0.1,0.2,0c0.1,0.9,0.2,2.2,0.2,3.9v2.9c0,0.8,0.4,1.2,1.2,1.2h0.5V332.7z" id="PATH_75" class="area" title=""></path>
	<path d="M142.2,330.7c0,0.5,0,0.9-0.2,1.3c-0.2,0.5-0.5,0.8-0.8,0.8c-0.5,0-1.3-0.3-2.3-1c-0.3,0.4-0.5,0.6-0.6,0.7
		c-0.3,0.2-0.6,0.3-1,0.3h-0.5v-1.2h0.7c0.4,0,0.8-0.2,1.2-0.7c0.2-0.2,0.5-0.7,0.9-1.3c0.3-0.5,0.7-0.7,1-0.7
		c0.5,0,0.9,0.2,1.2,0.7C142,329.9,142.2,330.3,142.2,330.7z M141.6,331.4c0-0.3-0.1-0.6-0.3-1c-0.2-0.4-0.5-0.6-0.8-0.6
		c-0.3,0-0.6,0.3-1,0.9c0.2,0.2,0.5,0.4,0.9,0.6c0.4,0.2,0.8,0.3,1,0.3C141.5,331.7,141.6,331.6,141.6,331.4z" id="PATH_76" class="area" title=""></path>
	<path d="M148.4,332.7h-1.1c-0.1,1.4-0.6,2.5-1.6,3.5c-0.3,0.3-0.5,0.5-0.6,0.5c-0.5,0-1.2-0.1-1.9-0.2c-0.2,0-0.4-0.1-0.4-0.1
		c0,0,0.1-0.1,0.4-0.2c0.8-0.2,1.6-0.7,2.3-1.2c0.3-0.3,0.6-0.5,0.8-0.9c0.3-0.4,0.5-0.8,0.5-1.1v-0.3h-1.3c-1,0-1.4-0.4-1.4-1.2
		c0-0.5,0.1-1,0.4-1.6c0.3-0.6,0.7-1,1.1-1c0.5,0,0.9,0.3,1.2,1c0.2,0.5,0.4,1,0.4,1.6h1.1V332.7z M146.6,331.5
		c0-0.3-0.1-0.6-0.3-0.9c-0.2-0.4-0.5-0.5-0.8-0.5c-0.2,0-0.4,0.1-0.5,0.2c-0.2,0.2-0.2,0.3-0.2,0.6c0,0.5,0.4,0.7,1.2,0.7
		C146.1,331.5,146.3,331.5,146.6,331.5z" id="PATH_77" class="area" title=""></path>
	<path d="M152.3,329.8v0.4c0,0.7-0.1,1.1-0.3,1.4c-0.5,0.7-1.3,1-2.6,1H148v-1.2h1c1.7,0,2.6-0.3,2.8-0.8c0-0.1,0-0.1,0-0.2
		c0-0.2,0-0.3-0.1-0.4c-0.4,0.1-0.9,0.1-1.3,0.1c-0.9,0-1.4-0.4-1.4-1.2c0-0.5,0.1-1.1,0.4-1.6c0.3-0.6,0.7-0.9,1.2-0.9
		c0.4,0,0.8,0.3,1.1,0.8C152.1,328,152.3,328.8,152.3,329.8z M151.1,324.3l-0.8,0.8l-0.8-0.8l0.8-0.8L151.1,324.3z M151.5,329
		c0-0.3-0.1-0.6-0.3-0.9c-0.2-0.3-0.5-0.4-0.8-0.4c-0.2,0-0.4,0.1-0.6,0.2c-0.1,0.1-0.2,0.3-0.2,0.5c0,0.4,0.3,0.6,1,0.6
		C150.9,329.1,151.2,329.1,151.5,329z" id="PATH_78" class="area" title=""></path>
</g>
<g id="G_79" class="area" title="">
	<path d="M186,357.3h-0.4c-0.5,0-0.9-0.1-1.1-0.3c-0.3-0.2-0.5-0.6-0.5-1c-1.1,1-2.8,1.5-5.1,1.5c-2.4,0-3.6-0.7-3.6-2.2
		c0-0.5,0.2-1,0.6-1.5c0.1-0.1,0.1-0.1,0.2-0.1c0.1,0,0.1,0,0.1,0.1c0,0,0,0.1,0,0.2c-0.1,0.3-0.2,0.6-0.2,0.9c0,1,1.1,1.5,3.3,1.5
		c2.5,0,4.2-0.5,5-1.6c0.2-0.2,0.3-0.3,0.4-0.3c0.1,0,0.1,0.1,0.1,0.2c0,0.1,0,0.2-0.1,0.4c0,0.2-0.1,0.3-0.1,0.4
		c0,0.5,0.4,0.8,1.1,0.8h0.4V357.3z M179.8,351.5l-0.8,0.8l-0.8-0.8l0.8-0.8L179.8,351.5z M181.5,351.5l-0.8,0.8l-0.8-0.8l0.8-0.8
		L181.5,351.5z" id="PATH_80" class="area" title=""></path>
	<path d="M191.4,357.3h-0.5c-0.3,0-0.7-0.1-1.2-0.2c-0.5-0.1-0.9-0.3-1.1-0.5c-0.2,0.2-0.5,0.3-0.9,0.4c-0.5,0.2-1,0.2-1.5,0.2h-0.7
		v-1.2h0.5c0.8,0,1.3-0.1,1.5-0.2c-0.2-0.1-0.3-0.3-0.4-0.5c-0.1-0.2-0.2-0.4-0.2-0.6c0-0.4,0.2-0.9,0.5-1.5c0.4-0.6,0.8-1,1.3-1
		c0.5,0,0.8,0.3,1.1,0.8c0.2,0.4,0.3,0.9,0.3,1.4c0,0.3-0.1,0.7-0.3,0.9c-0.1,0.2-0.2,0.3-0.4,0.4c0.2,0.1,0.7,0.2,1.4,0.2h0.4
		V357.3z M189.7,354.8c0-0.2-0.1-0.5-0.3-0.7c-0.2-0.3-0.4-0.4-0.7-0.4c-0.2,0-0.5,0.1-0.7,0.3c-0.2,0.2-0.4,0.5-0.4,0.7
		c0,0.2,0.1,0.5,0.4,0.7c0.2,0.2,0.5,0.3,0.7,0.4c0.2,0,0.5-0.1,0.6-0.3C189.6,355.2,189.7,355,189.7,354.8z M189.4,349.8l-0.8,0.8
		l-0.8-0.8l0.8-0.8L189.4,349.8z" id="PATH_81" class="area" title=""></path>
	<path d="M199.3,355.2c0,0.6-0.1,1.1-0.4,1.5c-0.3,0.4-0.8,0.7-1.3,0.7c-0.7,0-1.1-0.3-1.4-0.8c-0.4,0.6-0.8,0.8-1.4,0.8
		c-0.7,0-1.2-0.3-1.5-0.8c-0.4,0.6-0.9,0.8-1.6,0.8H191v-1.2h0.8c0.7,0,1.2-0.4,1.3-1.2c0-0.2,0.1-0.3,0.2-0.3
		c0.1,0,0.1,0.1,0.2,0.3c0.1,0.8,0.5,1.2,1.3,1.2c0.4,0,0.8-0.1,1-0.3c0.1-0.2,0.2-0.4,0.3-0.8c0-0.2,0.1-0.3,0.2-0.3
		c0.1,0,0.1,0.1,0.2,0.3c0.1,0.8,0.5,1.2,1.2,1.2c0.8,0,1.1-0.2,1.1-0.5c0-0.3-0.2-0.7-0.6-1.1l0.5-0.9c0.1-0.1,0.1-0.2,0.2-0.2
		s0.1,0.1,0.2,0.2C199.1,354.2,199.3,354.8,199.3,355.2z M195.9,351.5l-0.7,0.7l-0.7-0.7l0.7-0.7L195.9,351.5z M196.8,350l-0.7,0.7
		l-0.7-0.7l0.7-0.7L196.8,350z M197.7,351.5l-0.7,0.7l-0.7-0.7l0.7-0.7L197.7,351.5z" id="PATH_82" class="area" title=""></path>
</g>
<g id="G_83" class="area" title="">
	<path d="M219.5,422.2c0,1-0.3,1.9-0.9,2.8c-0.5,0.7-1,1.1-1.3,1.1c-0.8,0-1.4,0-2-0.1c-0.2,0-0.3-0.1-0.3-0.1s0.1-0.1,0.3-0.1
		c0.8-0.2,1.6-0.6,2.4-1.2c0.8-0.7,1.3-1.4,1.3-2.1c0-0.4-0.3-1-1-1.7l0.5-0.9c0-0.1,0.1-0.1,0.1-0.1c0,0,0.1,0.1,0.1,0.1
		c0.2,0.3,0.5,0.7,0.6,1.2C219.4,421.4,219.5,421.8,219.5,422.2z" id="PATH_84" class="area" title=""></path>
	<path d="M223.5,422.1h-0.7c-0.7,0-1.3-0.3-1.5-0.9c-0.2-0.4-0.3-1.1-0.3-1.9v-1.9c0-0.9-0.1-2.2-0.2-3.9l0.6-0.7
		c0.1-0.1,0.2-0.1,0.2,0c0.1,0.9,0.2,2.2,0.2,3.9v2.9c0,0.8,0.4,1.2,1.2,1.2h0.5V422.1z" id="PATH_85" class="area" title=""></path>
	<path d="M225.9,420.1c0,1.3-0.7,2-2,2h-0.8V421h0.7c1,0,1.5-0.2,1.5-0.5c0-0.3-0.2-0.7-0.7-1.2l0.4-1c0-0.1,0.1-0.1,0.1-0.1
		c0,0,0.1,0.1,0.2,0.2C225.7,418.8,225.9,419.5,225.9,420.1z M225.6,424.3l-0.8,0.8l-0.8-0.8l0.8-0.8L225.6,424.3z" id="PATH_86" class="area" title=""></path>
	<path d="M232,420c0,1.4-0.9,2.1-2.8,2.1c-0.7,0-1.2-0.1-1.5-0.3c-0.4-0.2-0.6-0.7-0.6-1.3c0-0.3,0.1-0.6,0.2-0.9
		c0.1-0.1,0.1-0.2,0.2-0.2c0.1,0,0.1,0.1,0.1,0.3c0,0.1,0,0.2,0,0.3c0,0.4,0.2,0.7,0.6,0.8c0.2,0.1,0.6,0.1,1.1,0.1
		c1.5,0,2.2-0.2,2.2-0.7c0-0.7-0.9-1.7-2.6-2.9l0.3-1c0-0.1,0.1-0.1,0.1-0.1c0,0,0.1,0,0.2,0.1C231.2,417.6,232,418.9,232,420z" id="PATH_87" class="area" title=""></path>
	<path d="M237.2,421.7c0,1.5-0.5,2.8-1.5,3.8c-0.3,0.3-0.5,0.5-0.6,0.5c-0.6,0-1.2-0.1-1.9-0.2c-0.3,0-0.4-0.1-0.4-0.1
		c0,0,0.1-0.1,0.4-0.2c0.8-0.2,1.6-0.7,2.3-1.3c0.3-0.3,0.6-0.5,0.8-0.9c0.3-0.4,0.5-0.8,0.5-1.1V422l-1.3,0c-0.9,0-1.4-0.4-1.4-1.1
		c0-0.5,0.1-1,0.4-1.6c0.3-0.6,0.7-1,1.1-1c0.6,0,1.1,0.4,1.4,1.3C237.1,420.3,237.2,420.9,237.2,421.7z M236.4,420.9
		c0-0.3-0.1-0.6-0.3-0.9c-0.2-0.3-0.5-0.5-0.8-0.5c-0.2,0-0.4,0.1-0.5,0.2c-0.2,0.2-0.2,0.3-0.2,0.5c0,0.5,0.3,0.7,1,0.7
		C235.8,421,236.1,420.9,236.4,420.9z" id="PATH_88" class="area" title=""></path>
	<path d="M242.2,422.2c0,1-0.3,1.9-0.9,2.8c-0.5,0.7-1,1.1-1.3,1.1c-0.8,0-1.4,0-2-0.1c-0.2,0-0.3-0.1-0.3-0.1s0.1-0.1,0.3-0.1
		c0.8-0.2,1.6-0.6,2.4-1.2c0.8-0.7,1.3-1.4,1.3-2.1c0-0.4-0.3-1-1-1.7l0.5-0.9c0-0.1,0.1-0.1,0.1-0.1c0,0,0.1,0.1,0.1,0.1
		c0.2,0.3,0.5,0.7,0.6,1.2C242.1,421.4,242.2,421.8,242.2,422.2z" id="PATH_89" class="area" title=""></path>
</g>
<g id="G_90" class="area" title="">
	<path d="M278.8,378.7c0,0.1,0.1,0.2,0,0.2c0,0-0.1,0-0.2,0h-0.3c0.2,3.8,0.3,6.5,0.2,8c-0.1,2.4-1.5,3.5-4.1,3.5
		c-0.9,0-1.5-0.2-2-0.5c-0.6-0.4-0.9-1-0.9-1.9c0-0.8,0.2-1.6,0.7-2.2c0.1-0.1,0.1-0.1,0.2-0.1c0.1,0,0.1,0,0.1,0.1c0,0,0,0.1,0,0.1
		c-0.2,0.5-0.3,1-0.3,1.4c0,0.6,0.2,1.1,0.7,1.5c0.4,0.3,0.9,0.5,1.6,0.5c1,0,1.8-0.2,2.5-0.5c0.6-0.3,0.9-0.6,0.9-1
		c0-4.3-0.1-7.6-0.4-9.8l0.7-0.6c0.1-0.1,0.1-0.1,0.2-0.1c0,0,0.1,0.1,0.1,0.2C278.4,377.7,278.6,378.1,278.8,378.7z" id="PATH_91" class="area" title=""></path>
	<path d="M282.8,386.5h-0.7c-0.7,0-1.3-0.3-1.5-0.9c-0.2-0.4-0.3-1.1-0.3-1.9v-1.9c0-0.9-0.1-2.2-0.2-3.9l0.6-0.7
		c0.1-0.1,0.2-0.1,0.2,0c0.1,0.9,0.2,2.2,0.2,3.9v2.9c0,0.8,0.4,1.2,1.2,1.2h0.5V386.5z" id="PATH_92" class="area" title=""></path>
	<path d="M290.6,383.6l-0.4,0.8c-0.7,0-1.3,0-1.6,0.1c-0.4,0.2-1,0.4-1.8,0.8c-0.8,0.4-1.4,0.7-1.8,0.8c-0.6,0.2-1.3,0.3-1.9,0.3
		h-0.7v-1.2h0.8c0.9,0,1.7-0.2,2.4-0.5l2.3-1c-0.4-0.1-1-0.3-1.8-0.6c-0.7-0.3-1.1-0.4-1.3-0.4c-0.4,0-0.8,0.2-1.2,0.5
		c-0.1,0.1-0.1,0.1-0.2,0.1c-0.1,0-0.1,0-0.1-0.1c0,0,0-0.1,0-0.1c0.3-1,0.9-1.4,1.7-1.4c0.3,0,0.7,0.1,1.1,0.3
		c0.8,0.4,1.4,0.6,1.8,0.8c0.7,0.2,1.5,0.4,2.4,0.4c0.2,0,0.3,0,0.3,0.1C290.7,383.4,290.7,383.5,290.6,383.6z M287.8,379.1
		l-0.8,0.8l-0.8-0.8l0.8-0.8L287.8,379.1z" id="PATH_93" class="area" title=""></path>
	<path d="M299.6,384.4c0,0.7-0.2,1.2-0.6,1.6c-0.4,0.4-1,0.5-1.6,0.5c-0.4,0-0.8-0.1-1.1-0.4c-0.3-0.3-0.5-0.6-0.5-1
		c0-0.5,0.2-1,0.6-1.7c0.3-0.6,0.7-1.1,1.1-1.5C299,382.6,299.6,383.5,299.6,384.4z M299.1,384.8c0-0.3-0.2-0.6-0.7-1
		c-0.4-0.4-0.7-0.6-1.1-0.7c-0.5,0.7-0.8,1.2-0.8,1.6c0,0.2,0.1,0.4,0.4,0.6c0.2,0.1,0.4,0.2,0.7,0.2c0.4,0,0.8-0.1,1.1-0.2
		C299,385,299.1,384.9,299.1,384.8z" id="PATH_94" class="area" title=""></path>
	<path d="M303.6,386.5h-0.7c-0.7,0-1.3-0.3-1.5-0.9c-0.2-0.4-0.3-1.1-0.3-1.9v-1.9c0-0.9-0.1-2.2-0.2-3.9l0.6-0.7
		c0.1-0.1,0.2-0.1,0.2,0c0.1,0.9,0.2,2.2,0.2,3.9v2.9c0,0.8,0.4,1.2,1.2,1.2h0.5V386.5z" id="PATH_95" class="area" title=""></path>
	<path d="M308.5,386.5h-0.8c-0.9,0-1.5-0.3-1.9-0.9c-0.3,0.6-1,0.9-2.1,0.9h-0.6v-1.2h0.9c1,0,1.5-0.4,1.6-1.1
		c0-0.3,0.1-0.5,0.2-0.5s0.2,0.2,0.2,0.5c0.1,0.7,0.6,1.1,1.5,1.1h0.9V386.5z M305.2,388.7l-0.8,0.8l-0.8-0.8l0.8-0.8L305.2,388.7z
		 M306.9,388.7l-0.8,0.8l-0.8-0.8l0.8-0.8L306.9,388.7z" id="PATH_96" class="area" title=""></path>
	<path d="M316.4,384.4c0,0.6-0.1,1.1-0.4,1.5c-0.3,0.4-0.8,0.7-1.3,0.7c-0.7,0-1.1-0.3-1.4-0.8c-0.4,0.6-0.8,0.8-1.4,0.8
		c-0.7,0-1.2-0.3-1.5-0.8c-0.4,0.6-0.9,0.8-1.6,0.8h-0.7v-1.2h0.8c0.7,0,1.2-0.4,1.3-1.2c0-0.2,0.1-0.3,0.2-0.3
		c0.1,0,0.1,0.1,0.2,0.3c0.1,0.8,0.5,1.2,1.3,1.2c0.4,0,0.8-0.1,1-0.3c0.1-0.2,0.2-0.4,0.3-0.8c0-0.2,0.1-0.3,0.2-0.3
		c0.1,0,0.1,0.1,0.2,0.3c0.1,0.8,0.5,1.2,1.2,1.2c0.8,0,1.1-0.2,1.1-0.5c0-0.3-0.2-0.7-0.6-1.1l0.5-0.9c0.1-0.1,0.1-0.2,0.2-0.2
		s0.1,0.1,0.2,0.2C316.3,383.4,316.4,384,316.4,384.4z" id="PATH_97" class="area" title=""></path>
</g>
<g id="G_98" class="area" title="">
	<path d="M311.1,323.3l-0.1,1.1l-1.2-0.1l0.1-1.1L311.1,323.3z M316.1,324.8c0.3,0.2,0.5,0.4,0.6,0.6c0.2,0.3,0.4,0.6,0.6,1
		c0.3,0.7,0.2,1.6-0.3,2.5c-0.4,0.7-0.9,1.4-1.6,2c-0.7,0.6-1.4,0.8-2.1,0.9c-0.8,0-1.4-0.3-2-1c-0.3-0.3-0.5-0.8-0.7-1.3
		c-0.1-0.4-0.2-0.7-0.2-1c0-0.1,0-0.2,0.1-0.3c0,0,0.1,0,0.1,0c0,0,0.1,0.1,0.1,0.2c0.2,0.7,0.4,1.2,0.7,1.6
		c0.3,0.4,0.7,0.6,1.2,0.7c0.6,0.1,1.3-0.1,2-0.7c0.8-0.6,1.3-1.3,1.7-2.1c0.3-0.6,0.4-1.1,0.3-1.5c0-0.1-0.1-0.2-0.2-0.4
		c-0.2-0.2-0.4-0.4-0.8-0.6c-0.3-0.2-0.9-0.4-1.7-0.6l-0.2-0.9c0-0.1,0-0.2,0-0.2c0,0,0.1,0,0.2,0
		C314.8,323.9,315.5,324.3,316.1,324.8z" id="PATH_99" class="area" title=""></path>
	<path d="M319.4,322.3l-0.5,0.4c-0.6,0.5-1.2,0.6-1.8,0.3c-0.4-0.2-0.9-0.6-1.4-1.3l-1.2-1.5c-0.6-0.7-1.5-1.7-2.7-2.9l0.1-0.9
		c0-0.2,0.1-0.2,0.2-0.1c0.7,0.6,1.6,1.6,2.7,2.9l1.9,2.3c0.5,0.6,1.1,0.7,1.7,0.2l0.4-0.3L319.4,322.3z" id="PATH_100" class="area" title=""></path>
	<path d="M326.2,316.7l-0.8,0.6c-1,0.8-1.9,0.8-2.8-0.3c-0.1-0.1-0.2-0.3-0.3-0.4c-0.2,0.5-0.5,1.1-0.8,2c-0.3,0.9-0.5,1.5-0.7,1.9
		c-0.3,0.6-0.7,1.1-1.2,1.5l-0.5,0.5l-0.7-0.9l0.6-0.5c0.6-0.5,1.1-1.2,1.5-2.1c0.2-0.4,0.5-1.2,1-2.3c-0.2,0.1-0.8,0.4-1.6,0.8
		c-0.6,0.3-1,0.5-1.1,0.6c-0.3,0.2-0.5,0.6-0.6,1.2c0,0.1,0,0.2-0.1,0.2c-0.1,0-0.1,0-0.2,0c0,0,0-0.1-0.1-0.1
		c-0.4-1-0.3-1.7,0.4-2.2c0.2-0.2,0.6-0.4,1-0.5c0.7-0.3,1.3-0.5,1.7-0.7c0.6-0.3,1.3-0.8,2-1.4c0.1-0.1,0.2-0.1,0.2-0.1
		s0.1,0.1,0.1,0.2l0.3,0.9c-0.5,0.4-0.8,0.7-0.8,0.8c0.3,0.3,0.5,0.6,0.7,0.6c0.4,0.1,0.8,0,1.3-0.5l0.8-0.6L326.2,316.7z
		 M324.5,320.7l-0.1,1.1l-1.2-0.1l0.1-1.1L324.5,320.7z" id="PATH_101" class="area" title=""></path>
	<path d="M329.9,313.6l-0.6,0.5c-0.7,0.6-1.4,0.7-2,0.5c0.1,0.7-0.2,1.4-1,2l-0.5,0.4l-0.7-0.9l0.7-0.6c0.8-0.6,0.9-1.3,0.5-1.9
		c-0.2-0.3-0.2-0.4-0.1-0.5c0.1-0.1,0.2,0,0.5,0.2c0.5,0.5,1.2,0.5,1.9-0.1l0.7-0.6L329.9,313.6z M328.7,317.4l-0.1,1.1l-1.1-0.1
		l0.1-1.1L328.7,317.4z M330.1,316.3l-0.1,1.1l-1.1-0.1l0.1-1.1L330.1,316.3z" id="PATH_102" class="area" title=""></path>
	<path d="M333.3,308.2c0.2,0.3,0.4,0.7,0.5,1.1c0.1,0.6,0,1-0.3,1.2c-0.2,0.2-0.9,0.5-2.1,0.8c-0.3,1-0.8,1.7-1.3,2.2l-0.4,0.3
		l-0.7-0.9l0.5-0.4c0.3-0.3,0.6-0.6,0.8-0.9c-0.5,0-0.9-0.1-1.2-0.5c-0.4-0.5-0.5-1.3-0.2-2.4l-0.7,0.2c0-0.3,0.1-0.7,0.1-1.2
		c1-0.2,1.9-0.4,2.8-0.4C332,307.4,332.9,307.6,333.3,308.2z M330.8,309.2c-0.2-0.2-0.4-0.3-0.6-0.4c-0.3-0.1-0.5-0.1-0.7,0.1
		c-0.2,0.2-0.3,0.4-0.4,0.8c-0.1,0.4-0.1,0.7,0.1,0.9c0.3,0.3,0.8,0.4,1.5,0.1c0.1-0.2,0.2-0.4,0.3-0.7
		C331,309.6,330.9,309.4,330.8,309.2z M333.2,308.8c-0.2-0.2-0.5-0.3-1.1-0.4c-0.5,0-0.8,0-1.2,0c0.5,0.6,0.7,1.2,0.6,1.8
		c0.8-0.3,1.3-0.5,1.5-0.7C333.3,309.3,333.4,309.1,333.2,308.8z" id="PATH_103" class="area" title=""></path>
	<path d="M335.5,298.8c0,0,0.1,0.1,0.2,0.1c0,0-0.1,0.1-0.1,0.1l-0.2,0.2c0.5,0.6,1,1.4,1.4,2.1c0.5,1,0.8,1.9,0.9,2.7
		c0.5,0.2,0.8,0.4,1.1,0.8c0.2,0.2,0.3,0.4,0.4,0.7c0.1,0.3,0.1,0.6,0,0.7c-0.6,0.7-1.2,1.4-2.1,2l-0.4-1.1c0.5-1,0.7-1.8,0.6-2.6
		c-1.6-0.4-3.3-0.7-5.1-0.9l0.1,0.4c-1-0.1-1.6-0.3-1.7-0.4c-0.1-0.1-0.3-0.4-0.5-0.9c-0.1-0.1-0.1-0.2,0-0.2s0.2,0,0.4,0
		c2.6,0.1,4.9,0.6,6.8,1.3c-0.1-0.7-0.5-1.5-1.1-2.4c-0.5-0.8-1.2-1.5-1.9-2.3l0.2-1.1C334.7,298.3,335.1,298.6,335.5,298.8z
		 M338.4,305.3c0,0-0.1-0.1-0.1-0.1c-0.2-0.2-0.4-0.4-0.7-0.5c0,0.5-0.1,1.1-0.2,1.7c0.1-0.1,0.2-0.1,0.3-0.2
		C338,305.9,338.3,305.6,338.4,305.3z" id="PATH_104" class="area" title=""></path>
</g>
<g id="G_105" class="area" title="">
	<path d="M375.5,404.7h-0.4c-0.4,0-0.6-0.1-0.8-0.2c0,0.1,0,0.2,0,0.3c0,0.9-0.3,1.8-0.9,2.7c-0.5,0.8-1,1.1-1.3,1.1
		c-0.8,0-1.4,0-2-0.1c-0.2,0-0.3-0.1-0.3-0.1s0.1-0.1,0.3-0.1c0.8-0.2,1.6-0.6,2.4-1.2c0.8-0.7,1.3-1.4,1.3-2.1c0-0.4-0.3-1-1-1.7
		l0.5-0.9c0-0.1,0.1-0.1,0.1-0.1c0,0,0.1,0.1,0.1,0.1c0.3,0.4,0.5,0.7,0.7,0.8c0.3,0.2,0.7,0.4,1.1,0.4h0.3V404.7z" id="PATH_106" class="area" title=""></path>
	<path d="M383.4,402.5c0,0.6-0.1,1.1-0.4,1.5c-0.3,0.4-0.8,0.7-1.3,0.7c-0.7,0-1.1-0.3-1.4-0.8c-0.4,0.6-0.8,0.8-1.4,0.8
		c-0.7,0-1.2-0.3-1.5-0.8c-0.4,0.6-0.9,0.8-1.6,0.8h-0.7v-1.2h0.8c0.7,0,1.2-0.4,1.3-1.2c0-0.2,0.1-0.3,0.2-0.3
		c0.1,0,0.1,0.1,0.2,0.3c0.1,0.8,0.5,1.2,1.3,1.2c0.4,0,0.8-0.1,1-0.3c0.1-0.2,0.2-0.4,0.3-0.8c0-0.2,0.1-0.3,0.2-0.3
		c0.1,0,0.1,0.1,0.2,0.3c0.1,0.8,0.5,1.2,1.2,1.2c0.8,0,1.1-0.2,1.1-0.5c0-0.3-0.2-0.7-0.6-1.1l0.5-0.9c0.1-0.1,0.1-0.2,0.2-0.2
		s0.1,0.1,0.2,0.2C383.3,401.6,383.4,402.1,383.4,402.5z" id="PATH_107" class="area" title=""></path>
	<path d="M389.6,402.6c0,1.4-0.9,2.1-2.8,2.1c-0.7,0-1.2-0.1-1.5-0.3c-0.4-0.2-0.6-0.7-0.6-1.3c0-0.3,0.1-0.6,0.2-0.9
		c0.1-0.1,0.1-0.2,0.2-0.2c0.1,0,0.1,0.1,0.1,0.3c0,0.1,0,0.2,0,0.3c0,0.4,0.2,0.7,0.6,0.8c0.2,0.1,0.6,0.1,1.1,0.1
		c1.5,0,2.2-0.2,2.2-0.7c0-0.7-0.9-1.7-2.6-2.9l0.3-1c0-0.1,0.1-0.1,0.1-0.1c0,0,0.1,0,0.2,0.1C388.7,400.2,389.6,401.4,389.6,402.6
		z" id="PATH_108" class="area" title=""></path>
	<path d="M394.7,404.3c0,1.5-0.5,2.8-1.5,3.8c-0.3,0.3-0.5,0.5-0.6,0.5c-0.6,0-1.2-0.1-1.9-0.2c-0.3,0-0.4-0.1-0.4-0.1
		c0,0,0.1-0.1,0.4-0.2c0.8-0.2,1.6-0.7,2.3-1.3c0.3-0.3,0.6-0.5,0.8-0.9c0.3-0.4,0.5-0.8,0.5-1.1v-0.3l-1.3,0
		c-0.9,0-1.4-0.4-1.4-1.1c0-0.5,0.1-1,0.4-1.6c0.3-0.6,0.7-1,1.1-1c0.6,0,1.1,0.4,1.4,1.3C394.6,402.8,394.7,403.5,394.7,404.3z
		 M394,403.4c0-0.3-0.1-0.6-0.3-0.9c-0.2-0.3-0.5-0.5-0.8-0.5c-0.2,0-0.4,0.1-0.5,0.2s-0.2,0.3-0.2,0.5c0,0.5,0.3,0.7,1,0.7
		C393.3,403.5,393.6,403.5,394,403.4z" id="PATH_109" class="area" title=""></path>
	<path d="M399.8,404.8c0,1-0.3,1.9-0.9,2.8c-0.5,0.7-1,1.1-1.3,1.1c-0.8,0-1.4,0-2-0.1c-0.2,0-0.3-0.1-0.3-0.1s0.1-0.1,0.3-0.1
		c0.8-0.2,1.6-0.6,2.4-1.2c0.8-0.7,1.3-1.4,1.3-2.1c0-0.4-0.3-1-1-1.7l0.5-0.9c0-0.1,0.1-0.1,0.1-0.1c0,0,0.1,0.1,0.1,0.1
		c0.2,0.3,0.5,0.7,0.6,1.2C399.6,404,399.8,404.4,399.8,404.8z" id="PATH_110" class="area" title=""></path>
</g>
<g id="G_111" class="area" title="">
	<path d="M356.6,374l-0.4,0.4c-0.5,0.5-1,0.6-1.6,0.4c0.2,0.6,0.1,1.1-0.4,1.5c-0.4,0.4-1,0.5-1.5,0.2c0.2,0.7,0,1.2-0.4,1.6
		c-0.2,0.2-0.4,0.3-0.6,0.4c0.4,0.5,0.8,0.9,1.2,1.5c0.3,0.7,0.3,1.5-0.1,2.4c-0.3,0.8-0.8,1.5-1.4,2.1c-0.6,0.6-1.3,0.9-2,1
		c-0.8,0.1-1.5-0.2-2-0.8c-0.3-0.3-0.6-0.8-0.7-1.3c-0.1-0.4-0.2-0.7-0.2-1c0-0.1,0-0.2,0.1-0.3c0,0,0.1,0,0.1,0
		c0,0,0.1,0.1,0.1,0.2c0.2,0.6,0.5,1.2,0.8,1.5c0.3,0.4,0.7,0.6,1.2,0.6c0.6,0.1,1.3-0.2,1.9-0.8c0.7-0.7,1.2-1.4,1.5-2.1
		c0.2-0.6,0.3-1.1,0.2-1.5c0-0.1-0.2-0.3-0.4-0.5c-0.3-0.2-0.5-0.4-0.6-0.4c-0.3-0.1-0.9-0.3-1.7-0.4l-0.2-0.9c0-0.1,0-0.2,0-0.2
		c0,0,0.1,0,0.2,0c0.5,0.1,0.8,0.2,0.9,0.2c0.4,0,0.7-0.1,1-0.4c0.3-0.3,0.5-0.6,0.5-0.9c0-0.2-0.1-0.5-0.4-0.8
		c-0.1-0.2-0.1-0.3-0.1-0.3c0.1-0.1,0.2,0,0.3,0.1c0.7,0.5,1.2,0.6,1.7,0.2c0.5-0.5,0.6-1.1,0.1-1.7c-0.1-0.2-0.1-0.3-0.1-0.3
		c0.1-0.1,0.2,0,0.3,0.1c0.6,0.5,1.2,0.5,1.7,0.1l0.4-0.4L356.6,374z M349.3,371.8l0,1l-1,0l0-1L349.3,371.8z M349.7,373.6l0,1l-1,0
		l0-1L349.7,373.6z M351,372.3l0,1l-1,0l0-1L351,372.3z" id="PATH_112" class="area" title=""></path>
	<path d="M359.3,371.5l-0.3,0.3c-0.6,0.6-1.3,0.8-2,0.5c0.1,0.3,0.1,0.6,0,0.9c-0.1,0.3-0.3,0.6-0.5,0.8l-0.3,0.3l-0.8-0.8l0.3-0.3
		c0.6-0.6,0.7-1.1,0.2-1.6l-2.4-2.5c-0.9-1-1.6-1.7-2.1-2.2l0.1-1.1l4.6,4.9c0.7,0.7,1.4,0.8,2,0.2l0.3-0.3L359.3,371.5z" id="PATH_113" class="area" title=""></path>
	<path d="M361.6,366.7c0.4,0.3,0.6,0.7,0.7,1c0.2,0.5,0.2,0.9-0.1,1.1c-0.4,0.4-1.2,0.6-2.4,0.8c0,0.5,0,0.8,0,0.9
		c-0.1,0.3-0.2,0.6-0.5,0.9l-0.4,0.4l-0.8-0.8l0.5-0.5c0.3-0.3,0.5-0.7,0.4-1.3c0-0.3-0.1-0.8-0.2-1.5c-0.1-0.6,0-1,0.3-1.2
		c0.4-0.3,0.8-0.4,1.4-0.3C361,366.3,361.3,366.4,361.6,366.7z M361.7,367.6c-0.2-0.2-0.5-0.4-0.9-0.5c-0.4-0.1-0.8-0.1-1,0.1
		c-0.2,0.2-0.3,0.7-0.1,1.4c0.2,0,0.6,0,1.1-0.2c0.5-0.2,0.8-0.3,1-0.5C361.8,367.9,361.8,367.7,361.7,367.6z" id="PATH_114" class="area" title=""></path>
	<path d="M363.8,365.6c0.3,0.3,0.5,0.6,0.6,1c0.1,0.2,0.1,0.3,0.1,0.4c0,0-0.1-0.1-0.3-0.2c-0.8-0.8-2.9-2.8-6.2-5.8l0.1-1.1
		c0-0.1,0-0.2,0-0.2c0,0,0.1,0,0.2,0.1C359.2,360.7,361,362.6,363.8,365.6z" id="PATH_115" class="area" title=""></path>
</g>
<g id="G_116" class="area" title="">
	<path d="M343.7,343.8c1.2,0.8,1.3,1.9,0.3,3.5c-0.4,0.6-0.7,1-1,1.1c-0.4,0.2-0.9,0.2-1.4-0.2c-0.3-0.2-0.5-0.4-0.6-0.7
		c-0.1-0.1-0.1-0.2-0.1-0.3c0-0.1,0.1,0,0.3,0.1c0.1,0.1,0.2,0.1,0.3,0.2c0.4,0.2,0.7,0.2,1,0c0.2-0.1,0.4-0.4,0.7-0.9
		c0.8-1.2,1-2,0.6-2.2c-0.6-0.4-1.9-0.2-3.8,0.6l-0.7-0.8C339,344,339,344,339,344c0,0,0.1-0.1,0.2-0.1
		C341.2,343.2,342.7,343.1,343.7,343.8z" id="PATH_117" class="area" title=""></path>
	<path d="M347.9,340.3c1.3,0.8,2.1,1.9,2.4,3.4c0.1,0.5,0.1,0.7,0.1,0.8c-0.3,0.5-0.7,1-1.2,1.5c-0.2,0.2-0.3,0.3-0.3,0.3
		c0,0,0-0.2,0.1-0.4c0.2-0.8,0.3-1.7,0.2-2.6c-0.1-0.4-0.2-0.8-0.3-1.1c-0.2-0.5-0.4-0.8-0.7-1l-0.3-0.2l-0.7,1.1
		c-0.5,0.8-1,1-1.7,0.5c-0.4-0.3-0.8-0.7-1.1-1.2c-0.4-0.6-0.4-1.1-0.2-1.5c0.3-0.5,0.9-0.7,1.8-0.5
		C346.6,339.6,347.2,339.9,347.9,340.3z M346.8,340.5c-0.3-0.2-0.6-0.2-0.9-0.2c-0.4,0-0.7,0.2-0.8,0.4c-0.1,0.2-0.1,0.4-0.1,0.6
		c0,0.2,0.2,0.4,0.3,0.5c0.4,0.2,0.8,0.1,1.1-0.5C346.5,341.1,346.6,340.8,346.8,340.5z" id="PATH_118" class="area" title=""></path>
	<path d="M351.6,335.3l-0.2,0.4c-0.2,0.3-0.4,0.5-0.6,0.6c0.1,0.1,0.2,0.1,0.3,0.2c0.8,0.5,1.4,1.2,1.8,2.2c0.3,0.8,0.4,1.4,0.3,1.7
		c-0.4,0.6-0.8,1.2-1.2,1.6c-0.1,0.1-0.2,0.2-0.3,0.2c-0.1,0,0-0.1,0-0.3c0.3-0.7,0.4-1.6,0.2-2.7c-0.1-1.1-0.5-1.8-1-2.2
		c-0.4-0.2-1-0.2-2,0l-0.5-0.9c0-0.1-0.1-0.1-0.1-0.1c0,0,0.1,0,0.2,0c0.5,0,0.9-0.1,1.1-0.2c0.4-0.1,0.7-0.4,0.9-0.7l0.2-0.3
		L351.6,335.3z" id="PATH_119" class="area" title=""></path>
	<path d="M346.5,325.3l0.5,0.6l-1.3,5l-0.5-0.6L346.5,325.3z M355.2,329.6l-0.3,0.5c-0.3,0.4-0.8,0.8-1.4,1c-0.5,0.1-1.2,0.2-2,0.3
		c1.2,0.9,1.3,2.2,0.2,3.9l-0.3,0.5l-1-0.6l0.2-0.3c1-1.6,1.2-2.5,0.6-2.9c-0.5-0.3-1.3-0.3-2.5,0c-0.5,0.1-1,0.3-1.6,0.5
		c-0.4-0.2-0.6-0.5-0.6-0.8c0-0.1,0.5-2,1.5-5.6c0.1,0.1,0.3,0.4,0.7,0.9c-0.3,0.9-0.7,2.3-1.3,4.5c1.5-0.3,2.8-0.5,4-0.7
		c0.7-0.1,1.2-0.2,1.5-0.3c0.5-0.2,0.9-0.5,1.2-0.9l0.2-0.3L355.2,329.6z" id="PATH_120" class="area" title=""></path>
	<path d="M352.4,324.3l0.2,1.1l-1.1,0.3l-0.2-1.1L352.4,324.3z M357.9,325.4l-0.4,0.6c-0.5,0.8-1.1,1.1-1.8,1.1
		c0.3,0.6,0.2,1.4-0.3,2.2l-0.3,0.5l-1-0.6l0.5-0.8c0.5-0.8,0.5-1.5-0.1-2c-0.2-0.2-0.3-0.3-0.3-0.4c0.1-0.1,0.2-0.1,0.5,0.1
		c0.7,0.3,1.3,0.1,1.8-0.7l0.5-0.7L357.9,325.4z" id="PATH_121" class="area" title=""></path>
	<path d="M352.4,319.2c0.1,0,0.2,0.1,0.2,0.1c0,0,0,0.1-0.1,0.2l-0.2,0.3c1.2,0.7,2.8,1.7,4.8,3c0.5,0.3,0.8,0.7,1,1.1
		c0.2,0.5,0.1,1-0.2,1.4l-0.3,0.5l-1-0.6l0.3-0.4c0.4-0.7,0.4-1.1-0.1-1.4c-1.9-1.1-3.8-2.2-5.7-3.2l-0.2-0.9c0-0.1,0-0.2,0-0.2
		c0,0,0.1,0,0.2,0C351.4,319,351.9,319.1,352.4,319.2z" id="PATH_122" class="area" title=""></path>
</g>
<g id="G_123" class="area" title="">
	<path d="M311.8,245.2h-0.7c-0.9,0-1.4-0.5-1.6-1.6c-0.5,0.5-0.7,0.7-0.8,0.7h-0.9c-0.3,0-0.6,0-0.9-0.1c-0.4-0.1-0.6-0.3-0.6-0.5
		c0-0.8,0.3-1.4,0.8-1.8c0.4-0.3,1-0.6,1.8-1l-0.2-1l0.7-0.8c0,0.1,0.3,1.2,0.7,3.3c0.1,0.6,0.3,1.1,0.4,1.3
		c0.2,0.3,0.4,0.4,0.8,0.4h0.7V245.2z M309.3,243.2l-0.3-1.6c-0.3,0.1-0.7,0.3-1.2,0.5c-0.6,0.3-1,0.6-1,0.7c0,0.2,0.2,0.3,0.7,0.4
		c0.3,0.1,0.6,0.1,0.9,0.1C308.8,243.2,309.1,243.2,309.3,243.2z" id="PATH_124" class="area" title=""></path>
	<path d="M316.7,245.2H316c-0.9,0-1.5-0.3-1.9-0.9c-0.3,0.6-1,0.9-2.1,0.9h-0.6V244h0.9c1,0,1.5-0.4,1.6-1.1c0-0.3,0.1-0.5,0.2-0.5
		s0.2,0.2,0.2,0.5c0.1,0.7,0.6,1.1,1.5,1.1h0.9V245.2z M313.4,247.4l-0.8,0.8l-0.8-0.8l0.8-0.8L313.4,247.4z M315.1,247.4l-0.8,0.8
		l-0.8-0.8l0.8-0.8L315.1,247.4z" id="PATH_125" class="area" title=""></path>
	<path d="M320.6,242.4v0.4c0,0.7-0.1,1.1-0.3,1.4c-0.5,0.7-1.3,1-2.6,1h-1.4V244h1c1.7,0,2.6-0.3,2.8-0.8c0-0.1,0-0.1,0-0.2
		c0-0.2,0-0.3-0.1-0.4c-0.4,0.1-0.9,0.1-1.3,0.1c-0.9,0-1.4-0.4-1.4-1.2c0-0.5,0.1-1.1,0.4-1.6c0.3-0.6,0.7-0.9,1.2-0.9
		c0.4,0,0.8,0.3,1.1,0.8C320.4,240.5,320.6,241.4,320.6,242.4z M319.4,236.9l-0.8,0.8l-0.8-0.8l0.8-0.8L319.4,236.9z M319.9,241.5
		c0-0.3-0.1-0.6-0.3-0.9s-0.5-0.4-0.8-0.4c-0.2,0-0.4,0.1-0.6,0.2s-0.2,0.3-0.2,0.5c0,0.4,0.3,0.6,1,0.6
		C319.2,241.6,319.5,241.6,319.9,241.5z" id="PATH_126" class="area" title=""></path>
	<path d="M326.8,245.2h-0.4c-0.4,0-0.6-0.1-0.8-0.2c0,0.1,0,0.2,0,0.3c0,0.9-0.3,1.8-0.9,2.7c-0.5,0.8-1,1.1-1.3,1.1
		c-0.8,0-1.4,0-2-0.1c-0.2,0-0.3-0.1-0.3-0.1s0.1-0.1,0.3-0.1c0.8-0.2,1.6-0.6,2.4-1.2c0.8-0.7,1.3-1.4,1.3-2.1c0-0.4-0.3-1-1-1.7
		l0.5-0.9c0-0.1,0.1-0.1,0.1-0.1c0,0,0.1,0.1,0.1,0.1c0.3,0.4,0.5,0.7,0.7,0.8c0.3,0.2,0.7,0.4,1.1,0.4h0.3V245.2z" id="PATH_127" class="area" title=""></path>
	<path d="M334.7,243.1c0,0.6-0.1,1.1-0.4,1.5c-0.3,0.4-0.8,0.7-1.3,0.7c-0.7,0-1.1-0.3-1.4-0.8c-0.4,0.6-0.8,0.8-1.4,0.8
		c-0.7,0-1.2-0.3-1.5-0.8c-0.4,0.6-0.9,0.8-1.6,0.8h-0.7V244h0.8c0.7,0,1.2-0.4,1.3-1.2c0-0.2,0.1-0.3,0.2-0.3
		c0.1,0,0.1,0.1,0.2,0.3c0.1,0.8,0.5,1.2,1.3,1.2c0.4,0,0.8-0.1,1-0.3c0.1-0.2,0.2-0.4,0.3-0.8c0-0.2,0.1-0.3,0.2-0.3
		c0.1,0,0.1,0.1,0.2,0.3c0.1,0.8,0.5,1.2,1.2,1.2c0.8,0,1.1-0.2,1.1-0.5c0-0.3-0.2-0.7-0.6-1.1l0.5-0.9c0.1-0.1,0.1-0.2,0.2-0.2
		s0.1,0.1,0.2,0.2C334.5,242.1,334.7,242.6,334.7,243.1z M331.3,239.4l-0.7,0.7l-0.7-0.7l0.7-0.7L331.3,239.4z M332.2,237.9
		l-0.7,0.7l-0.7-0.7l0.7-0.7L332.2,237.9z M333.1,239.4l-0.7,0.7l-0.7-0.7l0.7-0.7L333.1,239.4z" id="PATH_128" class="area" title=""></path>
	<path d="M337.1,244c0,0.4-0.1,0.8-0.3,1.1c-0.1,0.2-0.2,0.3-0.2,0.3c0,0-0.1-0.1-0.1-0.4c0-1.2-0.2-4-0.6-8.5l0.8-0.8
		c0.1-0.1,0.1-0.1,0.1-0.1c0,0,0,0.1,0,0.2C337,237.1,337.1,239.9,337.1,244z" id="PATH_129" class="area" title=""></path>
	<path d="M347.8,245.2h-0.7c-0.9,0-1.4-0.5-1.6-1.6c-0.5,0.5-0.7,0.7-0.8,0.7h-0.9c-0.3,0-0.6,0-0.9-0.1c-0.4-0.1-0.6-0.3-0.6-0.5
		c0-0.8,0.3-1.4,0.8-1.8c0.4-0.3,1-0.6,1.8-1l-0.2-1l0.7-0.8c0,0.1,0.3,1.2,0.7,3.3c0.1,0.6,0.3,1.1,0.4,1.3
		c0.2,0.3,0.4,0.4,0.8,0.4h0.7V245.2z M345.4,243.2l-0.3-1.6c-0.3,0.1-0.7,0.3-1.2,0.5c-0.6,0.3-1,0.6-1,0.7c0,0.2,0.2,0.3,0.7,0.4
		c0.3,0.1,0.6,0.1,0.9,0.1C344.8,243.2,345.1,243.2,345.4,243.2z" id="PATH_130" class="area" title=""></path>
	<path d="M350.2,243.2c0,1.3-0.7,2-2,2h-0.8V244h0.7c1,0,1.5-0.2,1.5-0.5c0-0.3-0.2-0.7-0.7-1.2l0.4-1c0-0.1,0.1-0.1,0.1-0.1
		s0.1,0.1,0.2,0.2C350,241.9,350.2,242.6,350.2,243.2z M350.2,238.7l-0.8,0.8l-0.8-0.8l0.8-0.8L350.2,238.7z" id="PATH_131" class="area" title=""></path>
	<path d="M354.2,245.2h-0.7c-0.7,0-1.3-0.3-1.5-0.9c-0.2-0.4-0.3-1.1-0.3-1.9v-1.9c0-0.9-0.1-2.2-0.2-3.9l0.6-0.7
		c0.1-0.1,0.2-0.1,0.2,0c0.1,0.9,0.2,2.2,0.2,3.9v2.9c0,0.8,0.4,1.2,1.2,1.2h0.5V245.2z" id="PATH_132" class="area" title=""></path>
	<path d="M359.1,245.2h-0.8c-0.9,0-1.5-0.3-1.9-0.9c-0.3,0.6-1,0.9-2.1,0.9h-0.6V244h0.9c1,0,1.5-0.4,1.6-1.1c0-0.3,0.1-0.5,0.2-0.5
		s0.2,0.2,0.2,0.5c0.1,0.7,0.6,1.1,1.5,1.1h0.9V245.2z M355.7,239.4l-0.8,0.8l-0.8-0.8l0.8-0.8L355.7,239.4z M357.4,239.4l-0.8,0.8
		l-0.8-0.8l0.8-0.8L357.4,239.4z" id="PATH_133" class="area" title=""></path>
	<path d="M367,243.1c0,0.6-0.1,1.1-0.4,1.5c-0.3,0.4-0.8,0.7-1.3,0.7c-0.7,0-1.1-0.3-1.4-0.8c-0.4,0.6-0.8,0.8-1.4,0.8
		c-0.7,0-1.2-0.3-1.5-0.8c-0.4,0.6-0.9,0.8-1.6,0.8h-0.7V244h0.8c0.7,0,1.2-0.4,1.3-1.2c0-0.2,0.1-0.3,0.2-0.3
		c0.1,0,0.1,0.1,0.2,0.3c0.1,0.8,0.5,1.2,1.3,1.2c0.4,0,0.8-0.1,1-0.3c0.1-0.2,0.2-0.4,0.3-0.8c0-0.2,0.1-0.3,0.2-0.3
		c0.1,0,0.1,0.1,0.2,0.3c0.1,0.8,0.5,1.2,1.2,1.2c0.8,0,1.1-0.2,1.1-0.5c0-0.3-0.2-0.7-0.6-1.1l0.5-0.9c0.1-0.1,0.1-0.2,0.2-0.2
		s0.1,0.1,0.2,0.2C366.8,242.1,367,242.6,367,243.1z" id="PATH_134" class="area" title=""></path>
	<path d="M371.1,234.5c-0.4,0.4-1,0.5-1.6,0.5c-0.1,0-0.2,0-0.4,0s-0.3,0-0.4,0c-0.1,0-0.2,0.1-0.3,0.2c-0.1,0.1-0.2,0.2-0.2,0.2
		c-0.1,0-0.1-0.1-0.1-0.2c0-0.1,0.1-0.3,0.2-0.5c0.1-0.3,0.2-0.4,0.3-0.4c0.1,0,0.3,0,0.6,0.1c0.3,0,0.5,0.1,0.6,0.1
		c0.6,0,1,0,1.3-0.1c0.2,0,0.3-0.1,0.3-0.1c0,0,0.1,0,0.1,0C371.3,234.3,371.2,234.4,371.1,234.5z M370.4,244c0,0.4-0.1,0.8-0.3,1.1
		c-0.1,0.2-0.2,0.3-0.2,0.3c0,0-0.1-0.1-0.1-0.4c0-1.2-0.2-4-0.6-8.5l0.8-0.8c0.1-0.1,0.1-0.1,0.1-0.1c0,0,0,0.1,0,0.2
		C370.4,237.1,370.4,239.8,370.4,244z" id="PATH_135" class="area" title=""></path>
</g>
</svg>


